<svg id="mermaid-1601287226752" width="5681.19140625" xmlns="http://www.w3.org/2000/svg" class="statediagram" height="2789" viewBox="0 0 5681.19140625 2789"><style>#mermaid-1601287226752 .label{font-family:'trebuchet ms', verdana, arial;font-family:var(--mermaid-font-family);color:#333}#mermaid-1601287226752 .label text{fill:#333}#mermaid-1601287226752 .node rect,#mermaid-1601287226752 .node circle,#mermaid-1601287226752 .node ellipse,#mermaid-1601287226752 .node polygon,#mermaid-1601287226752 .node path{fill:#ECECFF;stroke:#9370db;stroke-width:1px}#mermaid-1601287226752 .node .label{text-align:center}#mermaid-1601287226752 .node.clickable{cursor:pointer}#mermaid-1601287226752 .arrowheadPath{fill:#333}#mermaid-1601287226752 .edgePath .path{stroke:#333;stroke-width:1.5px}#mermaid-1601287226752 .edgeLabel{background-color:#e8e8e8;text-align:center}#mermaid-1601287226752 .edgeLabel rect{opacity:0.5}#mermaid-1601287226752 .cluster rect{fill:#ffffde;stroke:#aa3;stroke-width:1px}#mermaid-1601287226752 .cluster text{fill:#333}#mermaid-1601287226752 div.mermaidTooltip{position:absolute;text-align:center;max-width:200px;padding:2px;font-family:'trebuchet ms', verdana, arial;font-family:var(--mermaid-font-family);font-size:12px;background:#ffffde;border:1px solid #aa3;border-radius:2px;pointer-events:none;z-index:100}#mermaid-1601287226752 .actor{stroke:#ccf;fill:#ECECFF}#mermaid-1601287226752 text.actor{fill:#000;stroke:none}#mermaid-1601287226752 .actor-line{stroke:grey}#mermaid-1601287226752 .messageLine0{stroke-width:1.5;stroke-dasharray:'2 2';stroke:#333}#mermaid-1601287226752 .messageLine1{stroke-width:1.5;stroke-dasharray:'2 2';stroke:#333}#mermaid-1601287226752 #arrowhead{fill:#333}#mermaid-1601287226752 .sequenceNumber{fill:#fff}#mermaid-1601287226752 #sequencenumber{fill:#333}#mermaid-1601287226752 #crosshead path{fill:#333 !important;stroke:#333 !important}#mermaid-1601287226752 .messageText{fill:#333;stroke:none}#mermaid-1601287226752 .labelBox{stroke:#ccf;fill:#ECECFF}#mermaid-1601287226752 .labelText{fill:#000;stroke:none}#mermaid-1601287226752 .loopText{fill:#000;stroke:none}#mermaid-1601287226752 .loopLine{stroke-width:2;stroke-dasharray:'2 2';stroke:#ccf}#mermaid-1601287226752 .note{stroke:#aa3;fill:#fff5ad}#mermaid-1601287226752 .noteText{fill:black;stroke:none;font-family:'trebuchet ms', verdana, arial;font-family:var(--mermaid-font-family);font-size:14px}#mermaid-1601287226752 .activation0{fill:#f4f4f4;stroke:#666}#mermaid-1601287226752 .activation1{fill:#f4f4f4;stroke:#666}#mermaid-1601287226752 .activation2{fill:#f4f4f4;stroke:#666}#mermaid-1601287226752 .mermaid-main-font{font-family:"trebuchet ms", verdana, arial;font-family:var(--mermaid-font-family)}#mermaid-1601287226752 .section{stroke:none;opacity:0.2}#mermaid-1601287226752 .section0{fill:rgba(102,102,255,0.49)}#mermaid-1601287226752 .section2{fill:#fff400}#mermaid-1601287226752 .section1,#mermaid-1601287226752 .section3{fill:#fff;opacity:0.2}#mermaid-1601287226752 .sectionTitle0{fill:#333}#mermaid-1601287226752 .sectionTitle1{fill:#333}#mermaid-1601287226752 .sectionTitle2{fill:#333}#mermaid-1601287226752 .sectionTitle3{fill:#333}#mermaid-1601287226752 .sectionTitle{text-anchor:start;font-size:11px;text-height:14px;font-family:'trebuchet ms', verdana, arial;font-family:var(--mermaid-font-family)}#mermaid-1601287226752 .grid .tick{stroke:#d3d3d3;opacity:0.8;shape-rendering:crispEdges}#mermaid-1601287226752 .grid .tick text{font-family:'trebuchet ms', verdana, arial;font-family:var(--mermaid-font-family)}#mermaid-1601287226752 .grid path{stroke-width:0}#mermaid-1601287226752 .today{fill:none;stroke:red;stroke-width:2px}#mermaid-1601287226752 .task{stroke-width:2}#mermaid-1601287226752 .taskText{text-anchor:middle;font-family:'trebuchet ms', verdana, arial;font-family:var(--mermaid-font-family)}#mermaid-1601287226752 .taskText:not([font-size]){font-size:11px}#mermaid-1601287226752 .taskTextOutsideRight{fill:#000;text-anchor:start;font-size:11px;font-family:'trebuchet ms', verdana, arial;font-family:var(--mermaid-font-family)}#mermaid-1601287226752 .taskTextOutsideLeft{fill:#000;text-anchor:end;font-size:11px}#mermaid-1601287226752 .task.clickable{cursor:pointer}#mermaid-1601287226752 .taskText.clickable{cursor:pointer;fill:#003163 !important;font-weight:bold}#mermaid-1601287226752 .taskTextOutsideLeft.clickable{cursor:pointer;fill:#003163 !important;font-weight:bold}#mermaid-1601287226752 .taskTextOutsideRight.clickable{cursor:pointer;fill:#003163 !important;font-weight:bold}#mermaid-1601287226752 .taskText0,#mermaid-1601287226752 .taskText1,#mermaid-1601287226752 .taskText2,#mermaid-1601287226752 .taskText3{fill:#fff}#mermaid-1601287226752 .task0,#mermaid-1601287226752 .task1,#mermaid-1601287226752 .task2,#mermaid-1601287226752 .task3{fill:#8a90dd;stroke:#534fbc}#mermaid-1601287226752 .taskTextOutside0,#mermaid-1601287226752 .taskTextOutside2{fill:#000}#mermaid-1601287226752 .taskTextOutside1,#mermaid-1601287226752 .taskTextOutside3{fill:#000}#mermaid-1601287226752 .active0,#mermaid-1601287226752 .active1,#mermaid-1601287226752 .active2,#mermaid-1601287226752 .active3{fill:#bfc7ff;stroke:#534fbc}#mermaid-1601287226752 .activeText0,#mermaid-1601287226752 .activeText1,#mermaid-1601287226752 .activeText2,#mermaid-1601287226752 .activeText3{fill:#000 !important}#mermaid-1601287226752 .done0,#mermaid-1601287226752 .done1,#mermaid-1601287226752 .done2,#mermaid-1601287226752 .done3{stroke:grey;fill:#d3d3d3;stroke-width:2}#mermaid-1601287226752 .doneText0,#mermaid-1601287226752 .doneText1,#mermaid-1601287226752 .doneText2,#mermaid-1601287226752 .doneText3{fill:#000 !important}#mermaid-1601287226752 .crit0,#mermaid-1601287226752 .crit1,#mermaid-1601287226752 .crit2,#mermaid-1601287226752 .crit3{stroke:#f88;fill:red;stroke-width:2}#mermaid-1601287226752 .activeCrit0,#mermaid-1601287226752 .activeCrit1,#mermaid-1601287226752 .activeCrit2,#mermaid-1601287226752 .activeCrit3{stroke:#f88;fill:#bfc7ff;stroke-width:2}#mermaid-1601287226752 .doneCrit0,#mermaid-1601287226752 .doneCrit1,#mermaid-1601287226752 .doneCrit2,#mermaid-1601287226752 .doneCrit3{stroke:#f88;fill:#d3d3d3;stroke-width:2;cursor:pointer;shape-rendering:crispEdges}#mermaid-1601287226752 .milestone{transform:rotate(45deg) scale(0.8, 0.8)}#mermaid-1601287226752 .milestoneText{font-style:italic}#mermaid-1601287226752 .doneCritText0,#mermaid-1601287226752 .doneCritText1,#mermaid-1601287226752 .doneCritText2,#mermaid-1601287226752 .doneCritText3{fill:#000 !important}#mermaid-1601287226752 .activeCritText0,#mermaid-1601287226752 .activeCritText1,#mermaid-1601287226752 .activeCritText2,#mermaid-1601287226752 .activeCritText3{fill:#000 !important}#mermaid-1601287226752 .titleText{text-anchor:middle;font-size:18px;fill:#000;font-family:'trebuchet ms', verdana, arial;font-family:var(--mermaid-font-family)}#mermaid-1601287226752 g.classGroup text{fill:#9370db;stroke:none;font-family:'trebuchet ms', verdana, arial;font-family:var(--mermaid-font-family);font-size:10px}#mermaid-1601287226752 g.classGroup text .title{font-weight:bolder}#mermaid-1601287226752 g.clickable{cursor:pointer}#mermaid-1601287226752 g.classGroup rect{fill:#ECECFF;stroke:#9370db}#mermaid-1601287226752 g.classGroup line{stroke:#9370db;stroke-width:1}#mermaid-1601287226752 .classLabel .box{stroke:none;stroke-width:0;fill:#ECECFF;opacity:0.5}#mermaid-1601287226752 .classLabel .label{fill:#9370db;font-size:10px}#mermaid-1601287226752 .relation{stroke:#9370db;stroke-width:1;fill:none}#mermaid-1601287226752 .dashed-line{stroke-dasharray:3}#mermaid-1601287226752 #compositionStart{fill:#9370db;stroke:#9370db;stroke-width:1}#mermaid-1601287226752 #compositionEnd{fill:#9370db;stroke:#9370db;stroke-width:1}#mermaid-1601287226752 #aggregationStart{fill:#ECECFF;stroke:#9370db;stroke-width:1}#mermaid-1601287226752 #aggregationEnd{fill:#ECECFF;stroke:#9370db;stroke-width:1}#mermaid-1601287226752 #dependencyStart{fill:#9370db;stroke:#9370db;stroke-width:1}#mermaid-1601287226752 #dependencyEnd{fill:#9370db;stroke:#9370db;stroke-width:1}#mermaid-1601287226752 #extensionStart{fill:#9370db;stroke:#9370db;stroke-width:1}#mermaid-1601287226752 #extensionEnd{fill:#9370db;stroke:#9370db;stroke-width:1}#mermaid-1601287226752 .commit-id,#mermaid-1601287226752 .commit-msg,#mermaid-1601287226752 .branch-label{fill:lightgrey;color:lightgrey;font-family:'trebuchet ms', verdana, arial;font-family:var(--mermaid-font-family)}#mermaid-1601287226752 .pieTitleText{text-anchor:middle;font-size:25px;fill:#000;font-family:'trebuchet ms', verdana, arial;font-family:var(--mermaid-font-family)}#mermaid-1601287226752 .slice{font-family:'trebuchet ms', verdana, arial;font-family:var(--mermaid-font-family)}#mermaid-1601287226752 g.stateGroup text{fill:#9370db;stroke:none;font-size:10px;font-family:'trebuchet ms', verdana, arial;font-family:var(--mermaid-font-family)}#mermaid-1601287226752 g.stateGroup text{fill:#9370db;stroke:none;font-size:10px}#mermaid-1601287226752 g.stateGroup .state-title{font-weight:bolder;fill:#000}#mermaid-1601287226752 g.stateGroup rect{fill:#ECECFF;stroke:#9370db}#mermaid-1601287226752 g.stateGroup line{stroke:#9370db;stroke-width:1}#mermaid-1601287226752 .transition{stroke:#9370db;stroke-width:1;fill:none}#mermaid-1601287226752 .stateGroup .composit{fill:white;border-bottom:1px}#mermaid-1601287226752 .stateGroup .alt-composit{fill:#e0e0e0;border-bottom:1px}#mermaid-1601287226752 .state-note{stroke:#aa3;fill:#fff5ad}#mermaid-1601287226752 .state-note text{fill:black;stroke:none;font-size:10px}#mermaid-1601287226752 .stateLabel .box{stroke:none;stroke-width:0;fill:#ECECFF;opacity:0.5}#mermaid-1601287226752 .stateLabel text{fill:#000;font-size:10px;font-weight:bold;font-family:'trebuchet ms', verdana, arial;font-family:var(--mermaid-font-family)}#mermaid-1601287226752 .node circle.state-start{fill:black;stroke:black}#mermaid-1601287226752 .node circle.state-end{fill:black;stroke:white;stroke-width:1.5}#mermaid-1601287226752 #statediagram-barbEnd{fill:#9370db}#mermaid-1601287226752 .statediagram-cluster rect{fill:#ECECFF;stroke:#9370db;stroke-width:1px}#mermaid-1601287226752 .statediagram-cluster rect.outer{rx:5px;ry:5px}#mermaid-1601287226752 .statediagram-state .divider{stroke:#9370db}#mermaid-1601287226752 .statediagram-state .title-state{rx:5px;ry:5px}#mermaid-1601287226752 .statediagram-cluster.statediagram-cluster .inner{fill:white}#mermaid-1601287226752 .statediagram-cluster.statediagram-cluster-alt .inner{fill:#e0e0e0}#mermaid-1601287226752 .statediagram-cluster .inner{rx:0;ry:0}#mermaid-1601287226752 .statediagram-state rect.basic{rx:5px;ry:5px}#mermaid-1601287226752 .statediagram-state rect.divider{stroke-dasharray:10,10;fill:#efefef}#mermaid-1601287226752 .note-edge{stroke-dasharray:5}#mermaid-1601287226752 .statediagram-note rect{fill:#fff5ad;stroke:#aa3;stroke-width:1px;rx:0;ry:0}:root{--mermaid-font-family: '"trebuchet ms", verdana, arial';--mermaid-font-family: "Comic Sans MS", "Comic Sans", cursive}

:root { --mermaid-font-family: "trebuchet ms", verdana, arial;}</style><style>#mermaid-1601287226752 {
    color: rgb(0, 0, 0);
    font: 16px "trebuchet ms", verdana, arial;
  }</style><g><defs><marker id="statediagram-barbEnd" refX="19" refY="7" markerWidth="20" markerHeight="14" markerUnits="0" orient="auto"><path d="M 19,7 L9,13 L14,7 L9,1 Z"></path></marker></defs><g class="root"><g class="clusters"><g class="note-cluster" id="0----parent"><rect x="4087.34765625" y="133" width="676.41796875" height="372" fill="none"></rect></g><g class="note-cluster" id="3----parent"><rect x="1171.453125" y="133" width="1742.609375" height="372" fill="none"></rect></g><g class="note-cluster" id="4----parent"><rect x="138.15234375" y="983" width="567.85546875" height="365" fill="none"></rect></g><g class="note-cluster" id="6----parent"><rect x="1508.32421875" y="766" width="1844.34375" height="365" fill="none"></rect></g><g class="note-cluster" id="8----parent"><rect x="8" y="2438" width="4017.47265625" height="240" fill="none"></rect></g><g class="note-cluster" id="10----parent"><rect x="2378.6875" y="1701" width="1341.60546875" height="229.5" fill="none"></rect></g><g class="note-cluster" id="11----parent"><rect x="3657.90234375" y="1999.5" width="1328.47265625" height="240" fill="none"></rect></g><g class="note-cluster" id="24----parent"><rect x="1692.34375" y="1200" width="2532.734375" height="302.5" fill="none"></rect></g><g class="note-cluster" id="25----parent"><rect x="353.28125" y="8" width="416.25" height="273" fill="none"></rect></g><g class="note-cluster" id="28----parent"><rect x="666.0625" y="574" width="491.859375" height="340" fill="none"></rect></g></g><g class="edgePaths"><path d="M4464.0703125,65L4464.0703125,72.16666666666667C4464.0703125,79.33333333333333,4464.0703125,93.66666666666667,4464.0703125,105C4464.0703125,116.33333333333333,4464.0703125,124.66666666666667,4464.0703125,136.125C4464.0703125,147.58333333333334,4464.0703125,162.16666666666666,4464.0703125,169.45833333333334L4464.0703125,176.75" id="edge0" class="transition" marker-end="url(#statediagram-barbEnd)"></path><path d="M4441.59838207348,237.25L4436.181594436233,244.54166666666666C4430.764806798987,251.83333333333334,4419.931231524493,266.4166666666667,4414.514443887247,279.4583333333333C4409.09765625,292.5,4409.09765625,304,4409.09765625,315.5C4409.09765625,327,4409.09765625,338.5,4409.09765625,344.25L4409.09765625,350" class="transition note-edge"></path><path d="M4566.6640625,189.82019086610538L4579.672743055556,187.64182572175446C4592.68142361111,185.46346057740357,4618.698784722222,181.10673028870178,4634.959635416667,178.9283651443509C4651.22048611111,176.75,4657.72482638889,176.75,4664.229166666667,181.79166666666666C4670.733506944444,186.83333333333334,4677.237847222223,196.91666666666666,4677.237847222223,207C4677.237847222223,217.08333333333334,4670.733506944444,227.16666666666666,4664.229166666667,232.20833333333334C4657.72482638889,237.25,4651.22048611111,237.25,4634.959635416667,235.0716348556491C4618.698784722222,232.89326971129822,4592.68142361111,228.53653942259643,4579.672743055556,226.35817427824554L4566.6640625,224.17980913389462" id="edge1" class="transition" marker-end="url(#statediagram-barbEnd)"></path><path d="M4507.361473289696,237.25L4517.796670449747,244.54166666666666C4528.2318676097975,251.83333333333334,4549.102261929899,266.4166666666667,4559.537459089949,279.4583333333333C4569.97265625,292.5,4569.97265625,304,4150.272135416667,325.6094180366699C3730.5716145833335,347.21883607333984,2891.1705729166665,378.93767214667963,2471.4700520833335,394.79709018334955L2051.76953125,410.6565082200194" id="edge2" class="transition" marker-end="url(#statediagram-barbEnd)"></path><path d="M1194.1478410366767,678.25L1164.4077060722304,687.125C1134.6675711077844,696,1075.1873011788923,713.75,1045.447166214446,728.375C1015.70703125,743,1015.70703125,754.5,1004.5962837837837,769.75C993.4855363175675,785,971.2640413851351,804,960.1532939189188,813.5L949.0425464527027,823" id="edge3" class="transition" marker-end="url(#statediagram-barbEnd)"></path><path d="M1821.87890625,431.13120146185474L1734.1516927083333,443.442667884879C1646.4244791666667,455.75413430790314,1470.9700520833333,480.3770671539516,1383.2428385416667,498.4385335769758C1295.515625,516.5,1295.515625,528,1295.515625,539.5C1295.515625,551,1295.515625,562.5,1295.515625,575.5416666666666C1295.515625,588.5833333333334,1295.515625,603.1666666666666,1295.515625,610.4583333333334L1295.515625,617.75" id="edge4" class="transition" marker-end="url(#statediagram-barbEnd)"></path><path d="M903.7651499155405,857L889.5738228462837,866.5C875.382495777027,876,846.9998416385134,895,832.8085145692568,910.25C818.6171875,925.5,818.6171875,937,818.6171875,948.5C818.6171875,960,818.6171875,971.5,818.6171875,986.75C818.6171875,1002,818.6171875,1021,818.6171875,1030.5L818.6171875,1040" id="edge5" class="transition" marker-end="url(#statediagram-barbEnd)"></path><path d="M1841.6780815972222,432L1773.583297164352,444.1666666666667C1705.4885127314817,456.3333333333333,1569.2989438657407,480.6666666666667,1501.2041594328705,498.5833333333333C1433.109375,516.5,1433.109375,528,1433.109375,539.5C1433.109375,551,1433.109375,562.5,1433.109375,580.5833333333334C1433.109375,598.6666666666666,1433.109375,623.3333333333334,1433.109375,649.5833333333334C1433.109375,675.8333333333334,1433.109375,703.6666666666666,1433.109375,723.3333333333334C1433.109375,743,1433.109375,754.5,1433.109375,772.5833333333334C1433.109375,790.6666666666666,1433.109375,815.3333333333334,1433.109375,840C1433.109375,864.6666666666666,1433.109375,889.3333333333334,1433.109375,907.4166666666666C1433.109375,925.5,1433.109375,937,1433.109375,948.5C1433.109375,960,1433.109375,971.5,1411.5939611486485,986.75C1390.0785472972973,1002,1347.0477195945946,1021,1325.5323057432431,1030.5L1304.0168918918919,1040" id="edge6" class="transition" marker-end="url(#statediagram-barbEnd)"></path><path d="M952.4822107263514,857L965.5151235219595,866.5C978.5480363175675,876,1004.6138619087837,895,1017.646774704392,910.25C1030.6796875,925.5,1030.6796875,937,1030.6796875,948.5C1030.6796875,960,1030.6796875,971.5,1060.8275443412163,986.75C1090.9754011824325,1002,1151.2711148648648,1021,1181.418971706081,1030.5L1211.5668285472973,1040" id="edge7" class="transition" marker-end="url(#statediagram-barbEnd)"></path><path d="M2051.76953125,429.5143946991993L2151.4029947916665,442.09532891599935C2251.0364583333335,454.67626313279953,2450.3033854166665,479.8381315663998,2549.9368489583335,498.16906578319987C2649.5703125,516.5,2649.5703125,528,2649.5703125,539.5C2649.5703125,551,2649.5703125,562.5,2649.5703125,580.5833333333334C2649.5703125,598.6666666666666,2649.5703125,623.3333333333334,2649.5703125,649.5833333333334C2649.5703125,675.8333333333334,2649.5703125,703.6666666666666,2649.5703125,723.3333333333334C2649.5703125,743,2649.5703125,754.5,2649.5703125,772.5833333333334C2649.5703125,790.6666666666666,2649.5703125,815.3333333333334,2649.5703125,840C2649.5703125,864.6666666666666,2649.5703125,889.3333333333334,2649.5703125,907.4166666666666C2649.5703125,925.5,2649.5703125,937,2649.5703125,948.5C2649.5703125,960,2649.5703125,971.5,2607.9518229166665,984.8365119382112C2566.3333333333335,998.1730238764225,2483.0963541666665,1013.346047752845,2441.4778645833335,1020.9325596910562L2399.859375,1028.5190716292675" id="edge8" class="transition" marker-end="url(#statediagram-barbEnd)"></path><path d="M957.0768053209459,857L972.6772856841217,866.5C988.2777660472972,876,1019.4787267736486,895,1129.8077227618244,910.25C1240.13671875,925.5,1429.59375,937,1524.322265625,948.5C1619.05078125,960,1619.05078125,971.5,1697.1048177083333,986.4980137261891C1775.1588541666667,1001.4960274523784,1931.2669270833333,1019.9920549047569,2009.3209635416667,1029.2400686309459L2087.375,1038.4880823571352" id="edge9" class="transition" marker-end="url(#statediagram-barbEnd)"></path><path d="M430.1621621621622,1304.25L429.1768018018018,1311.5416666666667C428.19144144144144,1318.8333333333333,426.2207207207207,1333.4166666666667,425.23536036036035,1346.4583333333333C424.25,1359.5,424.25,1371,424.25,1387.5416666666667C424.25,1404.0833333333333,424.25,1425.6666666666667,424.25,1445.6666666666667C424.25,1465.6666666666667,424.25,1484.0833333333333,424.25,1499.0416666666667C424.25,1514,424.25,1525.5,424.25,1542.0416666666667C424.25,1558.5833333333333,424.25,1580.1666666666667,424.25,1601.75C424.25,1623.3333333333333,424.25,1644.9166666666667,424.25,1661.4583333333333C424.25,1678,424.25,1689.5,424.25,1703.5833333333333C424.25,1717.6666666666667,424.25,1734.3333333333333,424.25,1752.5833333333333C424.25,1770.8333333333333,424.25,1790.6666666666667,424.25,1811.375C424.25,1832.0833333333333,424.25,1853.6666666666667,424.25,1873.6666666666667C424.25,1893.6666666666667,424.25,1912.0833333333333,424.25,1927.0416666666667C424.25,1942,424.25,1953.5,424.25,1965C424.25,1976.5,424.25,1988,424.25,2002.9583333333333C424.25,2017.9166666666667,424.25,2036.3333333333333,424.25,2056.3333333333335C424.25,2076.3333333333335,424.25,2097.9166666666665,424.25,2119.5C424.25,2141.0833333333335,424.25,2162.6666666666665,424.25,2182.6666666666665C424.25,2202.6666666666665,424.25,2221.0833333333335,424.25,2236.0416666666665C424.25,2251,424.25,2262.5,424.25,2279.0416666666665C424.25,2295.5833333333335,424.25,2317.1666666666665,424.25,2338.75C424.25,2360.3333333333335,424.25,2381.9166666666665,424.25,2398.4583333333335C424.25,2415,424.25,2426.5,424.25,2441.4583333333335C424.25,2456.4166666666665,424.25,2474.8333333333335,424.25,2494.8333333333335C424.25,2514.8333333333335,424.25,2536.4166666666665,710.0989583333334,2557.414322075274C995.9479166666666,2578.4119774838814,1567.6458333333333,2598.8239549677623,1853.4947916666667,2609.029943709703L2139.34375,2619.2359324516433" id="edge10" class="transition" marker-end="url(#statediagram-barbEnd)"></path><path d="M4544.09765625,2505.5665994591773L4432.96875,2514.3054995493144C4321.83984375,2523.0443996394515,4099.58203125,2540.5221998197258,3731.5970052083335,2559.4049482724095C3363.6119791666665,2578.2876967250936,2849.8997395833335,2598.5753934501868,2593.0436197916665,2608.719241812734L2336.1875,2618.8630901752804" id="edge11" class="transition" marker-end="url(#statediagram-barbEnd)"></path><path d="M2087.375,1075.789251502898L2010.857421875,1084.9910429190816C1934.33984375,1094.1928343352654,1781.3046875,1112.5964171676326,1704.787109375,1127.5482085838164C1628.26953125,1142.5,1628.26953125,1154,1628.26953125,1165.5C1628.26953125,1177,1628.26953125,1188.5,1628.26953125,1206.5833333333333C1628.26953125,1224.6666666666667,1628.26953125,1249.3333333333333,1628.26953125,1274C1628.26953125,1298.6666666666667,1628.26953125,1323.3333333333333,1628.26953125,1341.4166666666667C1628.26953125,1359.5,1628.26953125,1371,1628.26953125,1387.5416666666667C1628.26953125,1404.0833333333333,1628.26953125,1425.6666666666667,1628.26953125,1445.6666666666667C1628.26953125,1465.6666666666667,1628.26953125,1484.0833333333333,1628.26953125,1499.0416666666667C1628.26953125,1514,1628.26953125,1525.5,1628.26953125,1542.0416666666667C1628.26953125,1558.5833333333333,1628.26953125,1580.1666666666667,1628.26953125,1601.75C1628.26953125,1623.3333333333333,1628.26953125,1644.9166666666667,1628.26953125,1661.4583333333333C1628.26953125,1678,1628.26953125,1689.5,1628.26953125,1703.5833333333333C1628.26953125,1717.6666666666667,1628.26953125,1734.3333333333333,1628.26953125,1752.5833333333333C1628.26953125,1770.8333333333333,1628.26953125,1790.6666666666667,1628.26953125,1811.375C1628.26953125,1832.0833333333333,1628.26953125,1853.6666666666667,1628.26953125,1873.6666666666667C1628.26953125,1893.6666666666667,1628.26953125,1912.0833333333333,1628.26953125,1927.0416666666667C1628.26953125,1942,1628.26953125,1953.5,1628.26953125,1965C1628.26953125,1976.5,1628.26953125,1988,1628.26953125,2002.9583333333333C1628.26953125,2017.9166666666667,1628.26953125,2036.3333333333333,1628.26953125,2056.3333333333335C1628.26953125,2076.3333333333335,1628.26953125,2097.9166666666665,1628.26953125,2119.5C1628.26953125,2141.0833333333335,1628.26953125,2162.6666666666665,1628.26953125,2182.6666666666665C1628.26953125,2202.6666666666665,1628.26953125,2221.0833333333335,1628.26953125,2236.0416666666665C1628.26953125,2251,1628.26953125,2262.5,1628.26953125,2279.0416666666665C1628.26953125,2295.5833333333335,1628.26953125,2317.1666666666665,1628.26953125,2338.75C1628.26953125,2360.3333333333335,1628.26953125,2381.9166666666665,1628.26953125,2398.4583333333335C1628.26953125,2415,1628.26953125,2426.5,1628.26953125,2441.4583333333335C1628.26953125,2456.4166666666665,1628.26953125,2474.8333333333335,1628.26953125,2494.8333333333335C1628.26953125,2514.8333333333335,1628.26953125,2536.4166666666665,1713.4485677083333,2556.2573537737157C1798.6276041666667,2576.098040880765,1968.9856770833333,2594.1960817615304,2054.1647135416665,2603.2451022019127L2139.34375,2612.2941226422954" id="edge12" class="transition" marker-end="url(#statediagram-barbEnd)"></path><path d="M2211.3536080025337,1087.25L2203.5765743771112,1094.5416666666667C2195.799540751689,1101.8333333333333,2180.2454735008446,1116.4166666666667,1898.7236482087555,1129.4583333333333C1617.2018229166667,1142.5,1069.7122395833333,1154,795.9674479166666,1165.5C522.22265625,1177,522.22265625,1188.5,513.5541794235642,1201.5416666666667C504.8857025971284,1214.5833333333333,487.54874894425683,1229.1666666666667,478.880272117821,1236.4583333333333L470.21179529138516,1243.75" id="edge13" class="transition" marker-end="url(#statediagram-barbEnd)"></path><path d="M2399.859375,1067.6165130901695L2555.3274739583335,1078.1804275751413C2710.7955729166665,1088.744342060113,3021.7317708333335,1109.8721710300565,3177.1998697916665,1126.1860855150283C3332.66796875,1142.5,3332.66796875,1154,3332.66796875,1165.5C3332.66796875,1177,3332.66796875,1188.5,3332.66796875,1206.5833333333333C3332.66796875,1224.6666666666667,3332.66796875,1249.3333333333333,3332.66796875,1274C3332.66796875,1298.6666666666667,3332.66796875,1323.3333333333333,3332.66796875,1341.4166666666667C3332.66796875,1359.5,3332.66796875,1371,3315.487693050193,1382.5C3298.307417350386,1394,3263.9468659507725,1405.5,3246.7665902509652,1411.25L3229.5863145511585,1417" id="edge14" class="transition" marker-end="url(#statediagram-barbEnd)"></path><path d="M4174.96875,2361.375154189202L4143.722005208333,2368.395961824335C4112.475260416667,2375.416769459468,4049.9817708333335,2389.458384729734,4123.305338541667,2402.229192364867C4196.62890625,2415,4405.76953125,2426.5,4516.811374670061,2436.4166666666665C4627.853218090121,2446.3333333333335,4640.796279930241,2454.6666666666665,4647.267810850302,2458.8333333333335L4653.739341770362,2463" id="edge15" class="transition" marker-end="url(#statediagram-barbEnd)"></path><path d="M502.08575274493245,1304.25L518.4373460374437,1311.5416666666667C534.788939329955,1318.8333333333333,567.4921259149775,1333.4166666666667,793.8756202491554,1346.4583333333333C1020.2591145833334,1359.5,1440.3229166666667,1371,1837.1510416666667,1386.2080077657665C2233.9791666666665,1401.416015531533,2607.5716145833335,1420.332031063066,2794.3678385416665,1429.7900388288324L2981.1640625,1439.248046594599" id="edge16" class="transition" marker-end="url(#statediagram-barbEnd)"></path><path d="M4857.34765625,2482.816791628205L4969.48046875,2475.3473263568376C5081.61328125,2467.87786108547,5305.87890625,2452.9389305427353,5418.01171875,2439.7194652713674C5530.14453125,2426.5,5530.14453125,2415,5530.14453125,2398.4583333333335C5530.14453125,2381.9166666666665,5530.14453125,2360.3333333333335,5530.14453125,2338.75C5530.14453125,2317.1666666666665,5530.14453125,2295.5833333333335,5530.14453125,2279.0416666666665C5530.14453125,2262.5,5530.14453125,2251,5530.14453125,2236.0416666666665C5530.14453125,2221.0833333333335,5530.14453125,2202.6666666666665,5530.14453125,2182.6666666666665C5530.14453125,2162.6666666666665,5530.14453125,2141.0833333333335,5530.14453125,2119.5C5530.14453125,2097.9166666666665,5530.14453125,2076.3333333333335,5530.14453125,2056.3333333333335C5530.14453125,2036.3333333333333,5530.14453125,2017.9166666666667,5387.018880208333,2002.9583333333333C5243.893229166667,1988,4957.641927083333,1976.5,4814.516276041667,1965C4671.390625,1953.5,4671.390625,1942,4671.390625,1927.0416666666667C4671.390625,1912.0833333333333,4671.390625,1893.6666666666667,4671.390625,1873.6666666666667C4671.390625,1853.6666666666667,4671.390625,1832.0833333333333,4671.390625,1811.375C4671.390625,1790.6666666666667,4671.390625,1770.8333333333333,4671.390625,1752.5833333333333C4671.390625,1734.3333333333333,4671.390625,1717.6666666666667,4671.390625,1703.5833333333333C4671.390625,1689.5,4671.390625,1678,4552.061848958333,1662.6309515415003C4432.733072916667,1647.2619030830008,4194.075520833333,1628.0238061660013,4074.7467447916665,1618.4047577075016L3955.41796875,1608.785709249002" id="edge17" class="transition" marker-end="url(#statediagram-barbEnd)"></path><path d="M4376.359375,2334.0846018498073L4592.498046875,2324.070501541506C4808.63671875,2314.0564012332047,5240.9140625,2294.028200616602,5457.052734375,2278.2641003083013C5673.19140625,2262.5,5673.19140625,2251,5673.19140625,2236.0416666666665C5673.19140625,2221.0833333333335,5673.19140625,2202.6666666666665,5673.19140625,2182.6666666666665C5673.19140625,2162.6666666666665,5673.19140625,2141.0833333333335,5673.19140625,2119.5C5673.19140625,2097.9166666666665,5673.19140625,2076.3333333333335,5673.19140625,2056.3333333333335C5673.19140625,2036.3333333333333,5673.19140625,2017.9166666666667,5530.065755208333,2002.9583333333333C5386.940104166667,1988,5100.688802083333,1976.5,4957.563151041667,1965C4814.4375,1953.5,4814.4375,1942,4814.4375,1927.0416666666667C4814.4375,1912.0833333333333,4814.4375,1893.6666666666667,4814.4375,1873.6666666666667C4814.4375,1853.6666666666667,4814.4375,1832.0833333333333,4814.4375,1811.375C4814.4375,1790.6666666666667,4814.4375,1770.8333333333333,4814.4375,1752.5833333333333C4814.4375,1734.3333333333333,4814.4375,1717.6666666666667,4814.4375,1703.5833333333333C4814.4375,1689.5,4814.4375,1678,4671.267578125,1662.4536935559106C4528.09765625,1646.907387111821,4241.7578125,1627.3147742236422,4098.587890625,1617.518467779553L3955.41796875,1607.7221613354634" id="edge18" class="transition" marker-end="url(#statediagram-barbEnd)"></path><path d="M2981.1640625,1453.8134794328282L2785.7805989583335,1461.9278995273569C2590.3971354166665,1470.0423196218853,2199.6302083333335,1486.2711598109427,2004.2467447916667,1500.1355799054716C1808.86328125,1514,1808.86328125,1525.5,1808.86328125,1542.0416666666667C1808.86328125,1558.5833333333333,1808.86328125,1580.1666666666667,1808.86328125,1601.75C1808.86328125,1623.3333333333333,1808.86328125,1644.9166666666667,1808.86328125,1661.4583333333333C1808.86328125,1678,1808.86328125,1689.5,1808.86328125,1703.5833333333333C1808.86328125,1717.6666666666667,1808.86328125,1734.3333333333333,1808.86328125,1752.5833333333333C1808.86328125,1770.8333333333333,1808.86328125,1790.6666666666667,1808.86328125,1811.375C1808.86328125,1832.0833333333333,1808.86328125,1853.6666666666667,1808.86328125,1873.6666666666667C1808.86328125,1893.6666666666667,1808.86328125,1912.0833333333333,1808.86328125,1927.0416666666667C1808.86328125,1942,1808.86328125,1953.5,1808.86328125,1965C1808.86328125,1976.5,1808.86328125,1988,1808.86328125,2002.9583333333333C1808.86328125,2017.9166666666667,1808.86328125,2036.3333333333333,1808.86328125,2056.3333333333335C1808.86328125,2076.3333333333335,1808.86328125,2097.9166666666665,1808.86328125,2119.5C1808.86328125,2141.0833333333335,1808.86328125,2162.6666666666665,1808.86328125,2182.6666666666665C1808.86328125,2202.6666666666665,1808.86328125,2221.0833333333335,1808.86328125,2236.0416666666665C1808.86328125,2251,1808.86328125,2262.5,1808.86328125,2279.0416666666665C1808.86328125,2295.5833333333335,1808.86328125,2317.1666666666665,1808.86328125,2338.75C1808.86328125,2360.3333333333335,1808.86328125,2381.9166666666665,1808.86328125,2398.4583333333335C1808.86328125,2415,1808.86328125,2426.5,1808.86328125,2441.4583333333335C1808.86328125,2456.4166666666665,1808.86328125,2474.8333333333335,1808.86328125,2494.8333333333335C1808.86328125,2514.8333333333335,1808.86328125,2536.4166666666665,1863.943359375,2555.5235946289736C1919.0234375,2574.6305225912806,2029.18359375,2591.261045182561,2084.263671875,2599.576306478201L2139.34375,2607.8915677738414" id="edge19" class="transition" marker-end="url(#statediagram-barbEnd)"></path><path d="M3297.2421875,1459.228674433435L3392.3912760416665,1466.4405620278624C3487.5403645833335,1473.65244962229,3677.8385416666665,1488.076224811145,3772.9876302083335,1501.0381124055723C3868.13671875,1514,3868.13671875,1525.5,3868.13671875,1537C3868.13671875,1548.5,3868.13671875,1560,3868.13671875,1565.75L3868.13671875,1571.5" id="edge20" class="transition" marker-end="url(#statediagram-barbEnd)"></path><path d="M2768.12109375,1895.646349981717L2724.3170572916665,1901.455291651431C2680.5130208333335,1907.264233321145,2592.9049479166665,1918.8821166605724,2549.1009114583335,1930.441058330286C2505.296875,1942,2505.296875,1953.5,2505.296875,1965C2505.296875,1976.5,2505.296875,1988,2475.9713541666665,1998.6634090675764C2446.6458333333335,2009.326818135153,2387.9947916666665,2019.1536362703057,2358.6692708333335,2024.0670453378823L2329.34375,2028.9804544054587" id="edge21" class="transition" marker-end="url(#statediagram-barbEnd)"></path><path d="M3780.85546875,1604.9152671972836L3497.8255208333335,1615.1793893310696C3214.7955729166665,1625.4435114648556,2648.7356770833335,1645.9717557324277,2365.7057291666665,1661.985877866214C2082.67578125,1678,2082.67578125,1689.5,2082.67578125,1703.5833333333333C2082.67578125,1717.6666666666667,2082.67578125,1734.3333333333333,2082.67578125,1752.5833333333333C2082.67578125,1770.8333333333333,2082.67578125,1790.6666666666667,2082.67578125,1811.375C2082.67578125,1832.0833333333333,2082.67578125,1853.6666666666667,2082.67578125,1873.6666666666667C2082.67578125,1893.6666666666667,2082.67578125,1912.0833333333333,2082.67578125,1927.0416666666667C2082.67578125,1942,2082.67578125,1953.5,2082.67578125,1965C2082.67578125,1976.5,2082.67578125,1988,2089.679045296003,1997.9166666666667C2096.682309342006,2007.8333333333333,2110.688837434012,2016.1666666666667,2117.692101480015,2020.3333333333333L2124.695365526018,2024.5" id="edge22" class="transition" marker-end="url(#statediagram-barbEnd)"></path><path d="M2329.34375,2037.0749381677879L2347.5811631944443,2034.9791151398233C2365.8185763888887,2032.8832921118585,2402.293402777778,2028.6916460559294,2425.0901692708335,2026.5958230279648C2447.8869357638887,2024.5,2457.0056423611113,2024.5,2466.1243489583335,2029.5416666666667C2475.2430555555557,2034.5833333333333,2484.361762152778,2044.6666666666667,2484.361762152778,2054.75C2484.361762152778,2064.8333333333335,2475.2430555555557,2074.9166666666665,2466.1243489583335,2079.9583333333335C2457.0056423611113,2085,2447.8869357638887,2085,2425.0901692708335,2082.904176972035C2402.293402777778,2080.808353944071,2365.8185763888887,2076.6167078881413,2347.5811631944443,2074.5208848601765L2329.34375,2072.425061832212" id="edge23" class="transition" marker-end="url(#statediagram-barbEnd)"></path><path d="M3857.48046875,1768L3857.48046875,1775.0833333333333C3857.48046875,1782.1666666666667,3857.48046875,1796.3333333333333,3857.48046875,1814.2083333333333C3857.48046875,1832.0833333333333,3857.48046875,1853.6666666666667,3857.48046875,1873.6666666666667C3857.48046875,1893.6666666666667,3857.48046875,1912.0833333333333,3857.48046875,1927.0416666666667C3857.48046875,1942,3857.48046875,1953.5,3749.9342447916665,1965C3642.3880208333335,1976.5,3427.2955729166665,1988,3319.7493489583335,2002.9583333333333C3212.203125,2017.9166666666667,3212.203125,2036.3333333333333,3212.203125,2056.3333333333335C3212.203125,2076.3333333333335,3212.203125,2097.9166666666665,3177.0494791666665,2115.4078071466347C3141.8958333333335,2132.898947626603,3071.5885416666665,2146.2978952532058,3036.4348958333335,2152.997369066507L3001.28125,2159.6968428798086" id="edge24" class="transition" marker-end="url(#statediagram-barbEnd)"></path><path d="M3075.73046875,1862.1513141977346L3109.2955729166665,1859.2927618314454C3142.8606770833335,1856.4342094651565,3209.9908854166665,1850.7171047325783,3251.947265625,1847.858552366289C3293.9036458333335,1845,3310.6861979166665,1845,3327.46875,1850.0416666666667C3344.2513020833335,1855.0833333333333,3361.0338541666665,1865.1666666666667,3361.0338541666665,1875.25C3361.0338541666665,1885.3333333333333,3344.2513020833335,1895.4166666666667,3327.46875,1900.4583333333333C3310.6861979166665,1905.5,3293.9036458333335,1905.5,3251.947265625,1902.641447633711C3209.9908854166665,1899.7828952674217,3142.8606770833335,1894.0657905348435,3109.2955729166665,1891.2072381685546L3075.73046875,1888.3486858022654" id="edge25" class="transition" marker-end="url(#statediagram-barbEnd)"></path><path d="M3780.85546875,1608.9113257699505L3663.875,1618.5094381416254C3546.89453125,1628.1075505133003,3312.93359375,1647.30377525665,3195.953125,1662.651887628325C3078.97265625,1678,3078.97265625,1689.5,3078.97265625,1703.5833333333333C3078.97265625,1717.6666666666667,3078.97265625,1734.3333333333333,3078.97265625,1752.5833333333333C3078.97265625,1770.8333333333333,3078.97265625,1790.6666666666667,3065.0264086631273,1806.3333333333333C3051.080161076255,1822,3023.1876659025097,1833.5,3009.2414183156366,1839.25L2995.2951707287643,1845" id="edge26" class="transition" marker-end="url(#statediagram-barbEnd)"></path><path d="M3755.29296875,1764.27986758696L3696.0162760416665,1771.9832229891335C3636.7395833333335,1779.6865783913065,3518.1861979166665,1795.0932891956534,3404.92578125,1810.113778107785C3291.6653645833335,1825.1342670199167,3183.6979166666665,1839.7685340398332,3129.7141927083335,1847.0856675497917L3075.73046875,1854.40280105975" id="edge27" class="transition" marker-end="url(#statediagram-barbEnd)"></path><path d="M2051.76953125,425.8072131334854L2192.1516927083335,439.0060109445712C2332.5338541666665,452.204808755657,2613.2981770833335,478.60240437782846,2753.6803385416665,497.5512021889142C2894.0625,516.5,2894.0625,528,2894.0625,539.5C2894.0625,551,2894.0625,562.5,2894.0625,580.5833333333334C2894.0625,598.6666666666666,2894.0625,623.3333333333334,2894.0625,649.5833333333334C2894.0625,675.8333333333334,2894.0625,703.6666666666666,2894.0625,723.3333333333334C2894.0625,743,2894.0625,754.5,2894.0625,772.5833333333334C2894.0625,790.6666666666666,2894.0625,815.3333333333334,2894.0625,840C2894.0625,864.6666666666666,2894.0625,889.3333333333334,2894.0625,907.4166666666666C2894.0625,925.5,2894.0625,937,2894.0625,948.5C2894.0625,960,2894.0625,971.5,2811.6953125,986.6207676231428C2729.328125,1001.7415352462855,2564.59375,1020.4830704925712,2482.2265625,1029.8538381157139L2399.859375,1039.2246057388568" id="edge28" class="transition" marker-end="url(#statediagram-barbEnd)"></path><path d="M961.6713999155405,857L979.8394478462837,866.5C998.007495777027,876,1034.3435916385135,895,1184.6555197775901,910.25C1334.9674479166667,925.5,1599.2552083333333,937,1731.3990885416667,948.5C1863.54296875,960,1863.54296875,971.5,1900.9939756651183,984.5416666666666C1938.4449825802367,997.5833333333334,2013.3469964104731,1012.1666666666666,2050.7980033255913,1019.4583333333334L2088.2490102407096,1026.75" id="edge29" class="transition" marker-end="url(#statediagram-barbEnd)"></path><path d="M3863.1583162403476,1632L3862.21200832529,1637.75C3861.2657004102316,1643.5,3859.373084580116,1655,3858.426776665058,1666.5C3857.48046875,1678,3857.48046875,1689.5,3857.48046875,1700.75C3857.48046875,1712,3857.48046875,1723,3857.48046875,1728.5L3857.48046875,1734" id="edge30" class="transition" marker-end="url(#statediagram-barbEnd)"></path><path d="M2127.7058850144786,2085L2118.6136281370655,2090.75C2109.5213712596524,2096.5,2091.336857504826,2108,2193.9874391690796,2122.802186217637C2296.6380208333335,2137.604372435274,2520.1236979166665,2155.708744870548,2631.8665364583335,2164.760931088185L2743.609375,2173.813117305822" id="edge31" class="transition" marker-end="url(#statediagram-barbEnd)"></path><path d="M3959.66796875,1742.1349138847545L3975.296440972222,1740.779094903962C3990.924913194445,1739.4232759231697,4022.181857638889,1736.7116379615848,4041.7174479166674,1735.3558189807925C4061.253038194445,1734,4069.067274305555,1734,4076.8815104166665,1736.8333333333333C4084.6957465277774,1739.6666666666667,4092.5099826388887,1745.3333333333333,4092.509982638889,1751C4092.5099826388887,1756.6666666666667,4084.6957465277774,1762.3333333333333,4076.881510416666,1765.1666666666667C4069.067274305555,1768,4061.253038194445,1768,4041.7174479166665,1766.6441810192075C4022.181857638889,1765.2883620384152,3990.924913194445,1762.5767240768303,3975.296440972222,1761.220905096038L3959.66796875,1759.8650861152455" id="edge32" class="transition" marker-end="url(#statediagram-barbEnd)"></path><path d="M3075.73046875,1866.0557696959092L3134.4353298611113,1862.546474746591C3193.140190972222,1859.037179797273,3310.549913194444,1852.0185898986365,3383.9309895833326,1848.5092949493182C3457.312065972222,1845,3486.664496527778,1845,3516.0169270833335,1850.0416666666667C3545.369357638889,1855.0833333333333,3574.721788194445,1865.1666666666667,3574.721788194444,1875.25C3574.721788194445,1885.3333333333333,3545.369357638889,1895.4166666666667,3516.016927083334,1900.4583333333333C3486.664496527778,1905.5,3457.312065972222,1905.5,3383.9309895833335,1901.9907050506818C3310.549913194444,1898.4814101013635,3193.140190972222,1891.462820202727,3134.435329861111,1887.9535252534088L3075.73046875,1884.4442303040908" id="edge33" class="transition" marker-end="url(#statediagram-barbEnd)"></path><path d="M3955.41796875,1586.6421291053227L3969.9978298611113,1584.1184409211025C3984.577690972222,1581.594752736882,4013.737413194444,1576.547376368441,4031.9622395833326,1574.0236881842204C4050.187065972222,1571.5,4057.476996527778,1571.5,4064.7669270833335,1576.5416666666667C4072.056857638889,1581.5833333333333,4079.346788194445,1591.6666666666667,4079.346788194444,1601.75C4079.346788194445,1611.8333333333333,4072.056857638889,1621.9166666666667,4064.766927083334,1626.9583333333333C4057.476996527778,1632,4050.187065972222,1632,4031.9622395833335,1629.4763118157796C4013.737413194444,1626.952623631559,3984.577690972222,1621.905247263118,3969.9978298611113,1619.381559078898L3955.41796875,1616.8578708946773" id="edge34" class="transition" marker-end="url(#statediagram-barbEnd)"></path><path d="M2329.34375,2043.7728609083536L2374.3502604166665,2040.5607174236281C2419.3567708333335,2037.3485739389023,2509.3697916666665,2030.924286969451,2565.6279296875,2027.7121434847256C2621.8860677083335,2024.5,2644.3893229166665,2024.5,2666.892578125,2029.5416666666667C2689.3958333333335,2034.5833333333333,2711.8990885416665,2044.6666666666667,2711.8990885416665,2054.75C2711.8990885416665,2064.8333333333335,2689.3958333333335,2074.9166666666665,2666.892578125,2079.9583333333335C2644.3893229166665,2085,2621.8860677083335,2085,2565.6279296875,2081.7878565152746C2509.3697916666665,2078.5757130305487,2419.3567708333335,2072.1514260610975,2374.3502604166665,2068.939282576372L2329.34375,2065.727139091646" id="edge35" class="transition" marker-end="url(#statediagram-barbEnd)"></path><path d="M3075.73046875,1893.4188715725822L3128.0475260416665,1899.5990596438187C3180.3645833333335,1905.779247715055,3284.9986979166665,1918.1396238575273,3337.3157552083335,1930.0698119287638C3389.6328125,1942,3389.6328125,1953.5,3589.5305989583335,1965C3789.4283854166665,1976.5,4189.223958333333,1988,4389.121744791667,2002.9583333333333C4589.01953125,2017.9166666666667,4589.01953125,2036.3333333333333,4589.01953125,2056.3333333333335C4589.01953125,2076.3333333333335,4589.01953125,2097.9166666666665,4599.989834700772,2114.4583333333335C4610.960138151545,2131,4632.900745053089,2142.5,4643.871048503861,2148.25L4654.841351954633,2154" id="edge36" class="transition" marker-end="url(#statediagram-barbEnd)"></path><path d="M2311.1147592905404,2085L2336.8853462837837,2090.75C2362.655933277027,2096.5,2414.1971072635133,2108,2486.27954321509,2121.123101494793C2558.3619791666665,2134.2462029895855,2650.9856770833335,2148.9924059791706,2697.2975260416665,2156.3655074739636L2743.609375,2163.738608968756" id="edge37" class="transition" marker-end="url(#statediagram-barbEnd)"></path><path d="M4275.6640625,2369L4275.6640625,2374.75C4275.6640625,2380.5,4275.6640625,2392,4359.967447916667,2403.5C4444.270833333333,2415,4612.877604166667,2426.5,4723.994841746795,2438.625C4835.112079326923,2450.75,4888.739783653847,2463.5,4915.553635817308,2469.875L4942.3674879807695,2476.25" id="edge38" class="transition" marker-end="url(#statediagram-barbEnd)"></path><path d="M4616.3359375,2189.489317654215L4463.263671875,2197.8244313785126C4310.19140625,2206.15954510281,4004.046875,2222.8297725514053,3850.974609375,2236.9148862757024C3697.90234375,2251,3697.90234375,2262.5,3697.90234375,2279.0416666666665C3697.90234375,2295.5833333333335,3697.90234375,2317.1666666666665,3697.90234375,2338.75C3697.90234375,2360.3333333333335,3697.90234375,2381.9166666666665,3618.974609375,2398.4583333333335C3540.046875,2415,3382.19140625,2426.5,3303.263671875,2441.4583333333335C3224.3359375,2456.4166666666665,3224.3359375,2474.8333333333335,3224.3359375,2494.8333333333335C3224.3359375,2514.8333333333335,3224.3359375,2536.4166666666665,3076.3111979166665,2556.9234056060163C2928.2864583333335,2577.4301445453657,2632.2369791666665,2596.8602890907314,2484.2122395833335,2606.5753613634142L2336.1875,2616.290433636097" id="edge39" class="transition" marker-end="url(#statediagram-barbEnd)"></path><path d="M2743.609375,2191.9841698817118L2611.689453125,2199.9034749014263C2479.76953125,2207.8227799211413,2215.9296875,2223.6613899605704,2084.009765625,2237.330694980285C1952.08984375,2251,1952.08984375,2262.5,1952.08984375,2279.0416666666665C1952.08984375,2295.5833333333335,1952.08984375,2317.1666666666665,1952.08984375,2338.75C1952.08984375,2360.3333333333335,1952.08984375,2381.9166666666665,1952.08984375,2398.4583333333335C1952.08984375,2415,1952.08984375,2426.5,1952.08984375,2441.4583333333335C1952.08984375,2456.4166666666665,1952.08984375,2474.8333333333335,1952.08984375,2494.8333333333335C1952.08984375,2514.8333333333335,1952.08984375,2536.4166666666665,1983.298828125,2554.2820227074876C2014.5078125,2572.147378748308,2076.92578125,2586.294757496616,2108.134765625,2593.36844687077L2139.34375,2600.442136244924" id="edge40" class="transition" marker-end="url(#statediagram-barbEnd)"></path><path d="M4712.5546875,2214.5L4712.5546875,2218.6666666666665C4712.5546875,2222.8333333333335,4712.5546875,2231.1666666666665,4712.5546875,2241.0833333333335C4712.5546875,2251,4712.5546875,2262.5,4712.5546875,2279.0416666666665C4712.5546875,2295.5833333333335,4712.5546875,2317.1666666666665,4712.5546875,2338.75C4712.5546875,2360.3333333333335,4712.5546875,2381.9166666666665,4548.658203125,2398.4583333333335C4384.76171875,2415,4056.96875,2426.5,3893.072265625,2441.4583333333335C3729.17578125,2456.4166666666665,3729.17578125,2474.8333333333335,3729.17578125,2494.8333333333335C3729.17578125,2514.8333333333335,3729.17578125,2536.4166666666665,3497.0110677083335,2557.287831007951C3264.8463541666665,2578.1589953492353,2800.5169270833335,2598.31799069847,2568.3522135416665,2608.397488373088L2336.1875,2618.4769860477054" id="edge41" class="transition" marker-end="url(#statediagram-barbEnd)"></path><path d="M2743.609375,2195.024352713018L2654.9720052083335,2202.4369605941815C2566.3346354166665,2209.849568475345,2389.0598958333335,2224.6747842376726,2300.4225260416665,2237.8373921188363C2211.78515625,2251,2211.78515625,2262.5,2211.78515625,2279.0416666666665C2211.78515625,2295.5833333333335,2211.78515625,2317.1666666666665,2211.78515625,2338.75C2211.78515625,2360.3333333333335,2211.78515625,2381.9166666666665,2211.78515625,2398.4583333333335C2211.78515625,2415,2211.78515625,2426.5,2211.78515625,2441.4583333333335C2211.78515625,2456.4166666666665,2211.78515625,2474.8333333333335,2211.78515625,2494.8333333333335C2211.78515625,2514.8333333333335,2211.78515625,2536.4166666666665,2214.092302123552,2552.9583333333335C2216.3994479971043,2569.5,2221.0137397442086,2581,2223.3208856177607,2586.75L2225.628031491313,2592.5" id="edge42" class="transition" marker-end="url(#statediagram-barbEnd)"></path><path d="M4808.7734375,2205.1942888362214L4835.040364583333,2210.911907363518C4861.307291666667,2216.6295258908144,4913.841145833333,2228.064762945407,4940.108072916667,2239.5323814727035C4966.375,2251,4966.375,2262.5,4868.0390625,2277.468403252989C4769.703125,2292.4368065059775,4573.03125,2310.8736130119555,4474.6953125,2320.0920162649445L4376.359375,2329.3104195179335" id="edge43" class="transition" marker-end="url(#statediagram-barbEnd)"></path><path d="M2939.759261877828,2214.5L2949.0311557315235,2218.6666666666665C2958.3030495852186,2222.8333333333335,2976.8468372926095,2231.1666666666665,2986.118731146305,2241.0833333333335C2995.390625,2251,2995.390625,2262.5,3191.9869791666665,2278.192886854818C3388.5833333333335,2293.8857737096364,3781.7760416666665,2313.771547419273,3978.3723958333335,2323.7144342740908L4174.96875,2333.657321128909" id="edge44" class="transition" marker-end="url(#statediagram-barbEnd)"></path><path d="M4802.804657335907,2154L4819.959610279922,2148.25C4837.114563223938,2142.5,4871.424469111968,2131,4888.579422055985,2114.4583333333335C4905.734375,2097.9166666666665,4905.734375,2076.3333333333335,4905.734375,2056.3333333333335C4905.734375,2036.3333333333333,4905.734375,2017.9166666666667,4973.112630208333,2002.9583333333333C5040.490885416667,1988,5175.247395833333,1976.5,5242.625651041667,1965C5310.00390625,1953.5,5310.00390625,1942,5310.00390625,1927.0416666666667C5310.00390625,1912.0833333333333,5310.00390625,1893.6666666666667,5310.00390625,1873.6666666666667C5310.00390625,1853.6666666666667,5310.00390625,1832.0833333333333,5310.00390625,1811.375C5310.00390625,1790.6666666666667,5310.00390625,1770.8333333333333,5310.00390625,1752.5833333333333C5310.00390625,1734.3333333333333,5310.00390625,1717.6666666666667,5310.00390625,1703.5833333333333C5310.00390625,1689.5,5310.00390625,1678,5084.239583333333,1662.1115905573106C4858.475260416667,1646.223181114621,4406.946614583333,1625.9463622292417,4181.182291666667,1615.8079527865523L3955.41796875,1605.6695433438629" id="edge45" class="transition" marker-end="url(#statediagram-barbEnd)"></path><path d="M3001.28125,2205.653047921071L3035.23828125,2211.2942066008923C3069.1953125,2216.935365280714,3137.109375,2228.217682640357,3171.06640625,2239.6088413201783C3205.0234375,2251,3205.0234375,2262.5,3205.0234375,2276.2083333333335C3205.0234375,2289.9166666666665,3205.0234375,2305.8333333333335,3205.0234375,2313.7916666666665L3205.0234375,2321.75" id="edge46" class="transition" marker-end="url(#statediagram-barbEnd)"></path><path d="M3955.41796875,1617.5430966727797L4000.51171875,1625.70258056065C4045.60546875,1633.86206444852,4135.79296875,1650.18103222426,4180.88671875,1664.09051611213C4225.98046875,1678,4225.98046875,1689.5,4225.98046875,1703.5833333333333C4225.98046875,1717.6666666666667,4225.98046875,1734.3333333333333,4225.98046875,1752.5833333333333C4225.98046875,1770.8333333333333,4225.98046875,1790.6666666666667,4225.98046875,1811.375C4225.98046875,1832.0833333333333,4225.98046875,1853.6666666666667,4225.98046875,1873.6666666666667C4225.98046875,1893.6666666666667,4225.98046875,1912.0833333333333,4225.98046875,1927.0416666666667C4225.98046875,1942,4225.98046875,1953.5,4103.208333333333,1965C3980.4361979166665,1976.5,3734.8919270833335,1988,3612.1197916666665,2002.9583333333333C3489.34765625,2017.9166666666667,3489.34765625,2036.3333333333333,3489.34765625,2056.3333333333335C3489.34765625,2076.3333333333335,3489.34765625,2097.9166666666665,3489.34765625,2119.5C3489.34765625,2141.0833333333335,3489.34765625,2162.6666666666665,3489.34765625,2182.6666666666665C3489.34765625,2202.6666666666665,3489.34765625,2221.0833333333335,3489.34765625,2236.0416666666665C3489.34765625,2251,3489.34765625,2262.5,3489.34765625,2274C3489.34765625,2285.5,3489.34765625,2297,3489.34765625,2302.75L3489.34765625,2308.5" id="edge47" class="transition" marker-end="url(#statediagram-barbEnd)"></path><path d="M3205.0234375,2355.75L3205.0234375,2363.7083333333335C3205.0234375,2371.6666666666665,3205.0234375,2387.5833333333335,3353.3671875,2401.2916666666665C3501.7109375,2415,3798.3984375,2426.5,3952.466796875,2438.625C4106.53515625,2450.75,4117.984375,2463.5,4123.708984375,2469.875L4129.43359375,2476.25" id="edge48" class="transition" marker-end="url(#statediagram-barbEnd)"></path><path d="M3460.29115890444,2369L3454.7680230453666,2374.75C3449.244887186293,2380.5,3438.1986154681467,2392,3572.5993077340736,2403.5C3707,2415,3986.84765625,2426.5,4112.6950120192305,2438.625C4238.542367788462,2450.75,4210.389423076923,2463.5,4196.312950721153,2469.875L4182.236478365385,2476.25" id="edge49" class="transition" marker-end="url(#statediagram-barbEnd)"></path><path d="M3518.40415359556,2369L3523.9272894546334,2374.75C3529.450425313707,2380.5,3540.4966970318533,2392,3685.51332247426,2403.5C3830.5299479166665,2415,4109.516927083333,2426.5,4249.010416666667,2441.4583333333335C4388.50390625,2456.4166666666665,4388.50390625,2474.8333333333335,4388.50390625,2494.8333333333335C4388.50390625,2514.8333333333335,4388.50390625,2536.4166666666665,4388.50390625,2558C4388.50390625,2579.5833333333335,4388.50390625,2601.1666666666665,4388.50390625,2621.1666666666665C4388.50390625,2641.1666666666665,4388.50390625,2659.5833333333335,4388.50390625,2674.5416666666665C4388.50390625,2689.5,4388.50390625,2701,4103.255208333333,2714.986533505625C3818.0065104166665,2728.97306701125,3247.5091145833335,2745.4461340225002,2962.2604166666665,2753.682667528125L2677.01171875,2761.91920103375" id="edge50" class="transition" marker-end="url(#statediagram-barbEnd)"></path><path d="M2237.765625,2653L2237.765625,2657.1666666666665C2237.765625,2661.3333333333335,2237.765625,2669.6666666666665,2237.765625,2679.5833333333335C2237.765625,2689.5,2237.765625,2701,2286.9524739583335,2713.6487905899708C2336.1393229166665,2726.297581179942,2434.5130208333335,2740.0951623598835,2483.6998697916665,2746.993952949854L2532.88671875,2753.892743539825" id="edge51" class="transition" marker-end="url(#statediagram-barbEnd)"></path><path d="M561.40625,237.25L561.40625,244.54166666666666C561.40625,251.83333333333334,561.40625,266.4166666666667,561.40625,279.4583333333333C561.40625,292.5,561.40625,304,561.40625,323.5C561.40625,343,561.40625,370.5,561.40625,384.25L561.40625,398" id="edge52" class="transition" marker-end="url(#statediagram-barbEnd)"></path><path d="M4977.541766826923,2476.25L4963.918269230769,2469.875C4950.294771634615,2463.5,4923.047776442308,2450.75,4840.840294471153,2438.625C4758.6328125,2426.5,4621.46484375,2415,4534.353621199324,2403.5C4447.242398648649,2392,4410.1879222972975,2380.5,4391.660684121622,2374.75L4373.133445945946,2369" id="edge53" class="transition" marker-end="url(#statediagram-barbEnd)"></path><path d="M1936.82421875,256L1936.82421875,260.1666666666667C1936.82421875,264.3333333333333,1936.82421875,272.6666666666667,1936.82421875,282.5833333333333C1936.82421875,292.5,1936.82421875,304,1936.82421875,323.5C1936.82421875,343,1936.82421875,370.5,1936.82421875,384.25L1936.82421875,398" class="transition note-edge"></path><path d="M346.27734375,1106L346.27734375,1110.1666666666667C346.27734375,1114.3333333333333,346.27734375,1122.6666666666667,346.27734375,1132.5833333333333C346.27734375,1142.5,346.27734375,1154,346.27734375,1165.5C346.27734375,1177,346.27734375,1188.5,354.94582057643584,1201.5416666666667C363.6142974028716,1214.5833333333333,380.95125105574317,1229.1666666666667,389.619727882179,1236.4583333333333L398.28820470861484,1243.75" class="transition note-edge"></path><path d="M2441.4453125,889L2441.4453125,893.1666666666666C2441.4453125,897.3333333333334,2441.4453125,905.6666666666666,2441.4453125,915.5833333333334C2441.4453125,925.5,2441.4453125,937,2441.4453125,948.5C2441.4453125,960,2441.4453125,971.5,2421.9521132460586,984.5416666666666C2402.4589139921172,997.5833333333334,2363.472515484234,1012.1666666666666,2343.9793162302926,1019.4583333333334L2324.4861169763512,1026.75" class="transition note-edge"></path><path d="M216.125,2518.25L216.125,2524.875C216.125,2531.5,216.125,2544.75,536.6614583333334,2561.64128344347C857.1979166666666,2578.5325668869395,1498.2708333333333,2599.065133773879,1818.8072916666667,2609.331417217349L2139.34375,2619.5977006608186" class="transition note-edge"></path><path d="M2586.8125,1776L2586.8125,1781.75C2586.8125,1787.5,2586.8125,1799,2617.0305989583335,1810.5886880408134C2647.2486979166665,1822.1773760816268,2707.6848958333335,1833.8547521632534,2737.9029947916665,1839.6934402040667L2768.12109375,1845.53212824488" class="transition note-edge"></path><path d="M4301.77734375,2079.75L4301.77734375,2086.375C4301.77734375,2093,4301.77734375,2106.25,4354.203776041667,2121.138872247422C4406.630208333333,2136.0277444948442,4511.483072916667,2152.555488989689,4563.909505208333,2160.819361237111L4616.3359375,2169.083233484533" class="transition note-edge"></path><path d="M2643.55859375,1323L2643.55859375,1327.1666666666667C2643.55859375,1331.3333333333333,2643.55859375,1339.6666666666667,2643.55859375,1349.5833333333333C2643.55859375,1359.5,2643.55859375,1371,2699.826171875,1384.1006827048113C2756.09375,1397.201365409623,2868.62890625,1411.902730819246,2924.896484375,1419.2534135240574L2981.1640625,1426.6040962288687" class="transition note-edge"></path><path d="M561.40625,83L561.40625,87.16666666666667C561.40625,91.33333333333333,561.40625,99.66666666666667,561.40625,108C561.40625,116.33333333333333,561.40625,124.66666666666667,561.40625,136.125C561.40625,147.58333333333334,561.40625,162.16666666666666,561.40625,169.45833333333334L561.40625,176.75" class="transition note-edge"></path><path d="M874.1875,697L874.1875,702.75C874.1875,708.5,874.1875,720,874.1875,731.5C874.1875,743,874.1875,754.5,881.2448004645271,769.75C888.3021009290541,785,902.416701858108,804,909.4740023226351,813.5L916.5313027871622,823" class="transition note-edge"></path></g><g class="edgeLabels"><g class="edgeLabel"><g class="label" transform="translate(0, 0)"><rect rx="0" ry="0" width="0" height="0" style="fill:#e8e8e8;"></rect><text style=""></text></g></g><g class="edgeLabel"><g class="label" transform="translate(0, 0)"><rect rx="0" ry="0" width="0" height="0" style="fill:#e8e8e8;"></rect><text style=""></text></g></g><g class="edgeLabel" transform="translate(4683.7421875, 207)"><g class="label" transform="translate(-60.0234375, -9.5)"><rect rx="0" ry="0" width="119.984375" height="19.03125" style="fill:#e8e8e8;"></rect><text style=""><tspan xml:space="preserve" dy="1em" x="0" class="row">ClientEventOpen</tspan></text></g></g><g class="edgeLabel" transform="translate(4569.97265625, 315.5)"><g class="label" transform="translate(-89.9453125, -9.5)"><rect rx="0" ry="0" width="179.78125" height="19.03125" style="fill:#e8e8e8;"></rect><text style=""><tspan xml:space="preserve" dy="1em" x="0" class="row">ClientEventDealProposed</tspan></text></g></g><g class="edgeLabel" transform="translate(1015.70703125, 731.5)"><g class="label" transform="translate(-89.9453125, -9.5)"><rect rx="0" ry="0" width="179.78125" height="19.03125" style="fill:#e8e8e8;"></rect><text style=""><tspan xml:space="preserve" dy="1em" x="0" class="row">ClientEventDealProposed</tspan></text></g></g><g class="edgeLabel" transform="translate(1295.515625, 539.5)"><g class="label" transform="translate(-89.546875, -9.5)"><rect rx="0" ry="0" width="178.984375" height="19.03125" style="fill:#e8e8e8;"></rect><text style=""><tspan xml:space="preserve" dy="1em" x="0" class="row">ClientEventDealRejected</tspan></text></g></g><g class="edgeLabel" transform="translate(818.6171875, 948.5)"><g class="label" transform="translate(-89.546875, -9.5)"><rect rx="0" ry="0" width="178.984375" height="19.03125" style="fill:#e8e8e8;"></rect><text style=""><tspan xml:space="preserve" dy="1em" x="0" class="row">ClientEventDealRejected</tspan></text></g></g><g class="edgeLabel" transform="translate(1433.109375, 731.5)"><g class="label" transform="translate(-91.5390625, -9.5)"><rect rx="0" ry="0" width="182.96875" height="19.03125" style="fill:#e8e8e8;"></rect><text style=""><tspan xml:space="preserve" dy="1em" x="0" class="row">ClientEventDealNotFound</tspan></text></g></g><g class="edgeLabel" transform="translate(1030.6796875, 948.5)"><g class="label" transform="translate(-91.5390625, -9.5)"><rect rx="0" ry="0" width="182.96875" height="19.03125" style="fill:#e8e8e8;"></rect><text style=""><tspan xml:space="preserve" dy="1em" x="0" class="row">ClientEventDealNotFound</tspan></text></g></g><g class="edgeLabel" transform="translate(2649.5703125, 731.5)"><g class="label" transform="translate(-90.7265625, -9.5)"><rect rx="0" ry="0" width="181.34375" height="19.03125" style="fill:#e8e8e8;"></rect><text style=""><tspan xml:space="preserve" dy="1em" x="0" class="row">ClientEventDealAccepted</tspan></text></g></g><g class="edgeLabel" transform="translate(1619.05078125, 948.5)"><g class="label" transform="translate(-90.7265625, -9.5)"><rect rx="0" ry="0" width="181.34375" height="19.03125" style="fill:#e8e8e8;"></rect><text style=""><tspan xml:space="preserve" dy="1em" x="0" class="row">ClientEventDealAccepted</tspan></text></g></g><g class="edgeLabel" transform="translate(424.25, 1965)"><g class="label" transform="translate(-128.1484375, -9.5)"><rect rx="0" ry="0" width="256.140625" height="19.03125" style="fill:#e8e8e8;"></rect><text style=""><tspan xml:space="preserve" dy="1em" x="0" class="row">ClientEventPaymentChannelErrored</tspan></text></g></g><g class="edgeLabel" transform="translate(3877.32421875, 2558)"><g class="label" transform="translate(-128.1484375, -9.5)"><rect rx="0" ry="0" width="256.140625" height="19.03125" style="fill:#e8e8e8;"></rect><text style=""><tspan xml:space="preserve" dy="1em" x="0" class="row">ClientEventPaymentChannelErrored</tspan></text></g></g><g class="edgeLabel" transform="translate(1628.26953125, 1875.25)"><g class="label" transform="translate(-128.1484375, -9.5)"><rect rx="0" ry="0" width="256.140625" height="19.03125" style="fill:#e8e8e8;"></rect><text style=""><tspan xml:space="preserve" dy="1em" x="0" class="row">ClientEventPaymentChannelErrored</tspan></text></g></g><g class="edgeLabel" transform="translate(522.22265625, 1165.5)"><g class="label" transform="translate(-155.9453125, -9.5)"><rect rx="0" ry="0" width="311.703125" height="19.03125" style="fill:#e8e8e8;"></rect><text style=""><tspan xml:space="preserve" dy="1em" x="0" class="row">ClientEventPaymentChannelCreateInitiated</tspan></text></g></g><g class="edgeLabel" transform="translate(3332.66796875, 1274)"><g class="label" transform="translate(-146.359375, -9.5)"><rect rx="0" ry="0" width="292.546875" height="19.03125" style="fill:#e8e8e8;"></rect><text style=""><tspan xml:space="preserve" dy="1em" x="0" class="row">ClientEventPaymentChannelAddingFunds</tspan></text></g></g><g class="edgeLabel" transform="translate(3987.48828125, 2403.5)"><g class="label" transform="translate(-146.359375, -9.5)"><rect rx="0" ry="0" width="292.546875" height="19.03125" style="fill:#e8e8e8;"></rect><text style=""><tspan xml:space="preserve" dy="1em" x="0" class="row">ClientEventPaymentChannelAddingFunds</tspan></text></g></g><g class="edgeLabel" transform="translate(1860.38671875, 1382.5)"><g class="label" transform="translate(-123.046875, -9.5)"><rect rx="0" ry="0" width="245.953125" height="19.03125" style="fill:#e8e8e8;"></rect><text style=""><tspan xml:space="preserve" dy="1em" x="0" class="row">ClientEventPaymentChannelReady</tspan></text></g></g><g class="edgeLabel" transform="translate(5530.14453125, 2054.75)"><g class="label" transform="translate(-123.046875, -9.5)"><rect rx="0" ry="0" width="245.953125" height="19.03125" style="fill:#e8e8e8;"></rect><text style=""><tspan xml:space="preserve" dy="1em" x="0" class="row">ClientEventPaymentChannelReady</tspan></text></g></g><g class="edgeLabel" transform="translate(4814.4375, 1965)"><g class="label" transform="translate(-123.046875, -9.5)"><rect rx="0" ry="0" width="245.953125" height="19.03125" style="fill:#e8e8e8;"></rect><text style=""><tspan xml:space="preserve" dy="1em" x="0" class="row">ClientEventPaymentChannelReady</tspan></text></g></g><g class="edgeLabel" transform="translate(1808.86328125, 2054.75)"><g class="label" transform="translate(-114.5859375, -9.5)"><rect rx="0" ry="0" width="229.03125" height="19.03125" style="fill:#e8e8e8;"></rect><text style=""><tspan xml:space="preserve" dy="1em" x="0" class="row">ClientEventAllocateLaneErrored</tspan></text></g></g><g class="edgeLabel" transform="translate(3868.13671875, 1537)"><g class="label" transform="translate(-92.3203125, -9.5)"><rect rx="0" ry="0" width="184.53125" height="19.03125" style="fill:#e8e8e8;"></rect><text style=""><tspan xml:space="preserve" dy="1em" x="0" class="row">ClientEventLaneAllocated</tspan></text></g></g><g class="edgeLabel" transform="translate(2505.296875, 1965)"><g class="label" transform="translate(-124.703125, -9.5)"><rect rx="0" ry="0" width="249.265625" height="19.03125" style="fill:#e8e8e8;"></rect><text style=""><tspan xml:space="preserve" dy="1em" x="0" class="row">ClientEventLastPaymentRequested</tspan></text></g></g><g class="edgeLabel" transform="translate(2082.67578125, 1810.5)"><g class="label" transform="translate(-124.703125, -9.5)"><rect rx="0" ry="0" width="249.265625" height="19.03125" style="fill:#e8e8e8;"></rect><text style=""><tspan xml:space="preserve" dy="1em" x="0" class="row">ClientEventLastPaymentRequested</tspan></text></g></g><g class="edgeLabel" transform="translate(2493.48046875, 2054.75)"><g class="label" transform="translate(-124.703125, -9.5)"><rect rx="0" ry="0" width="249.265625" height="19.03125" style="fill:#e8e8e8;"></rect><text style=""><tspan xml:space="preserve" dy="1em" x="0" class="row">ClientEventLastPaymentRequested</tspan></text></g></g><g class="edgeLabel" transform="translate(3857.48046875, 1965)"><g class="label" transform="translate(-124.703125, -9.5)"><rect rx="0" ry="0" width="249.265625" height="19.03125" style="fill:#e8e8e8;"></rect><text style=""><tspan xml:space="preserve" dy="1em" x="0" class="row">ClientEventLastPaymentRequested</tspan></text></g></g><g class="edgeLabel" transform="translate(3377.81640625, 1875.25)"><g class="label" transform="translate(-110.0390625, -9.5)"><rect rx="0" ry="0" width="219.953125" height="19.03125" style="fill:#e8e8e8;"></rect><text style=""><tspan xml:space="preserve" dy="1em" x="0" class="row">ClientEventPaymentRequested</tspan></text></g></g><g class="edgeLabel" transform="translate(3078.97265625, 1751)"><g class="label" transform="translate(-110.0390625, -9.5)"><rect rx="0" ry="0" width="219.953125" height="19.03125" style="fill:#e8e8e8;"></rect><text style=""><tspan xml:space="preserve" dy="1em" x="0" class="row">ClientEventPaymentRequested</tspan></text></g></g><g class="edgeLabel" transform="translate(3399.6328125, 1810.5)"><g class="label" transform="translate(-110.0390625, -9.5)"><rect rx="0" ry="0" width="219.953125" height="19.03125" style="fill:#e8e8e8;"></rect><text style=""><tspan xml:space="preserve" dy="1em" x="0" class="row">ClientEventPaymentRequested</tspan></text></g></g><g class="edgeLabel" transform="translate(2894.0625, 731.5)"><g class="label" transform="translate(-133.765625, -9.5)"><rect rx="0" ry="0" width="267.359375" height="19.03125" style="fill:#e8e8e8;"></rect><text style=""><tspan xml:space="preserve" dy="1em" x="0" class="row">ClientEventUnsealPaymentRequested</tspan></text></g></g><g class="edgeLabel" transform="translate(1863.54296875, 948.5)"><g class="label" transform="translate(-133.765625, -9.5)"><rect rx="0" ry="0" width="267.359375" height="19.03125" style="fill:#e8e8e8;"></rect><text style=""><tspan xml:space="preserve" dy="1em" x="0" class="row">ClientEventUnsealPaymentRequested</tspan></text></g></g><g class="edgeLabel" transform="translate(3857.48046875, 1666.5)"><g class="label" transform="translate(-105.65625, -9.5)"><rect rx="0" ry="0" width="211.1875" height="19.03125" style="fill:#e8e8e8;"></rect><text style=""><tspan xml:space="preserve" dy="1em" x="0" class="row">ClientEventAllBlocksReceived</tspan></text></g></g><g class="edgeLabel" transform="translate(2073.15234375, 2119.5)"><g class="label" transform="translate(-105.65625, -9.5)"><rect rx="0" ry="0" width="211.1875" height="19.03125" style="fill:#e8e8e8;"></rect><text style=""><tspan xml:space="preserve" dy="1em" x="0" class="row">ClientEventAllBlocksReceived</tspan></text></g></g><g class="edgeLabel" transform="translate(4100.32421875, 1751)"><g class="label" transform="translate(-105.65625, -9.5)"><rect rx="0" ry="0" width="211.1875" height="19.03125" style="fill:#e8e8e8;"></rect><text style=""><tspan xml:space="preserve" dy="1em" x="0" class="row">ClientEventAllBlocksReceived</tspan></text></g></g><g class="edgeLabel" transform="translate(3604.07421875, 1875.25)"><g class="label" transform="translate(-96.21875, -9.5)"><rect rx="0" ry="0" width="192.328125" height="19.03125" style="fill:#e8e8e8;"></rect><text style=""><tspan xml:space="preserve" dy="1em" x="0" class="row">ClientEventBlocksReceived</tspan></text></g></g><g class="edgeLabel" transform="translate(4086.63671875, 1601.75)"><g class="label" transform="translate(-96.21875, -9.5)"><rect rx="0" ry="0" width="192.328125" height="19.03125" style="fill:#e8e8e8;"></rect><text style=""><tspan xml:space="preserve" dy="1em" x="0" class="row">ClientEventBlocksReceived</tspan></text></g></g><g class="edgeLabel" transform="translate(2734.40234375, 2054.75)"><g class="label" transform="translate(-96.21875, -9.5)"><rect rx="0" ry="0" width="192.328125" height="19.03125" style="fill:#e8e8e8;"></rect><text style=""><tspan xml:space="preserve" dy="1em" x="0" class="row">ClientEventBlocksReceived</tspan></text></g></g><g class="edgeLabel" transform="translate(4589.01953125, 2054.75)"><g class="label" transform="translate(-79.1171875, -9.5)"><rect rx="0" ry="0" width="158.140625" height="19.03125" style="fill:#e8e8e8;"></rect><text style=""><tspan xml:space="preserve" dy="1em" x="0" class="row">ClientEventSendFunds</tspan></text></g></g><g class="edgeLabel" transform="translate(2465.73828125, 2119.5)"><g class="label" transform="translate(-79.1171875, -9.5)"><rect rx="0" ry="0" width="158.140625" height="19.03125" style="fill:#e8e8e8;"></rect><text style=""><tspan xml:space="preserve" dy="1em" x="0" class="row">ClientEventSendFunds</tspan></text></g></g><g class="edgeLabel" transform="translate(4275.6640625, 2403.5)"><g class="label" transform="translate(-96.84375, -9.5)"><rect rx="0" ry="0" width="193.5625" height="19.03125" style="fill:#e8e8e8;"></rect><text style=""><tspan xml:space="preserve" dy="1em" x="0" class="row">ClientEventFundsExpended</tspan></text></g></g><g class="edgeLabel" transform="translate(3697.90234375, 2403.5)"><g class="label" transform="translate(-123.2265625, -9.5)"><rect rx="0" ry="0" width="246.3125" height="19.03125" style="fill:#e8e8e8;"></rect><text style=""><tspan xml:space="preserve" dy="1em" x="0" class="row">ClientEventBadPaymentRequested</tspan></text></g></g><g class="edgeLabel" transform="translate(1952.08984375, 2403.5)"><g class="label" transform="translate(-123.2265625, -9.5)"><rect rx="0" ry="0" width="246.3125" height="19.03125" style="fill:#e8e8e8;"></rect><text style=""><tspan xml:space="preserve" dy="1em" x="0" class="row">ClientEventBadPaymentRequested</tspan></text></g></g><g class="edgeLabel" transform="translate(4712.5546875, 2403.5)"><g class="label" transform="translate(-116.46875, -9.5)"><rect rx="0" ry="0" width="232.796875" height="19.03125" style="fill:#e8e8e8;"></rect><text style=""><tspan xml:space="preserve" dy="1em" x="0" class="row">ClientEventCreateVoucherFailed</tspan></text></g></g><g class="edgeLabel" transform="translate(2211.78515625, 2403.5)"><g class="label" transform="translate(-116.46875, -9.5)"><rect rx="0" ry="0" width="232.796875" height="19.03125" style="fill:#e8e8e8;"></rect><text style=""><tspan xml:space="preserve" dy="1em" x="0" class="row">ClientEventCreateVoucherFailed</tspan></text></g></g><g class="edgeLabel" transform="translate(4966.375, 2274)"><g class="label" transform="translate(-101.28125, -9.5)"><rect rx="0" ry="0" width="202.4375" height="19.03125" style="fill:#e8e8e8;"></rect><text style=""><tspan xml:space="preserve" dy="1em" x="0" class="row">ClientEventVoucherShortfall</tspan></text></g></g><g class="edgeLabel" transform="translate(2995.390625, 2274)"><g class="label" transform="translate(-101.28125, -9.5)"><rect rx="0" ry="0" width="202.4375" height="19.03125" style="fill:#e8e8e8;"></rect><text style=""><tspan xml:space="preserve" dy="1em" x="0" class="row">ClientEventVoucherShortfall</tspan></text></g></g><g class="edgeLabel" transform="translate(5310.00390625, 1875.25)"><g class="label" transform="translate(-88.3515625, -9.5)"><rect rx="0" ry="0" width="176.59375" height="19.03125" style="fill:#e8e8e8;"></rect><text style=""><tspan xml:space="preserve" dy="1em" x="0" class="row">ClientEventPaymentSent</tspan></text></g></g><g class="edgeLabel" transform="translate(3205.0234375, 2274)"><g class="label" transform="translate(-88.3515625, -9.5)"><rect rx="0" ry="0" width="176.59375" height="19.03125" style="fill:#e8e8e8;"></rect><text style=""><tspan xml:space="preserve" dy="1em" x="0" class="row">ClientEventPaymentSent</tspan></text></g></g><g class="edgeLabel" transform="translate(4225.98046875, 1965)"><g class="label" transform="translate(-75.875, -9.5)"><rect rx="0" ry="0" width="151.65625" height="19.03125" style="fill:#e8e8e8;"></rect><text style=""><tspan xml:space="preserve" dy="1em" x="0" class="row">ClientEventComplete</tspan></text></g></g><g class="edgeLabel" transform="translate(3205.0234375, 2403.5)"><g class="label" transform="translate(-75.875, -9.5)"><rect rx="0" ry="0" width="151.65625" height="19.03125" style="fill:#e8e8e8;"></rect><text style=""><tspan xml:space="preserve" dy="1em" x="0" class="row">ClientEventComplete</tspan></text></g></g><g class="edgeLabel" transform="translate(3427.15234375, 2403.5)"><g class="label" transform="translate(-104.390625, -9.5)"><rect rx="0" ry="0" width="208.65625" height="19.03125" style="fill:#e8e8e8;"></rect><text style=""><tspan xml:space="preserve" dy="1em" x="0" class="row">ClientEventCompleteVerified</tspan></text></g></g><g class="edgeLabel" transform="translate(4388.50390625, 2558)"><g class="label" transform="translate(-103.078125, -9.5)"><rect rx="0" ry="0" width="206.03125" height="19.03125" style="fill:#e8e8e8;"></rect><text style=""><tspan xml:space="preserve" dy="1em" x="0" class="row">ClientEventEarlyTermination</tspan></text></g></g><g class="edgeLabel" transform="translate(2237.765625, 2712.5)"><g class="label" transform="translate(-99.921875, -9.5)"><rect rx="0" ry="0" width="199.71875" height="19.03125" style="fill:#e8e8e8;"></rect><text style=""><tspan xml:space="preserve" dy="1em" x="0" class="row">ClientEventCancelComplete</tspan></text></g></g><g class="edgeLabel" transform="translate(561.40625, 315.5)"><g class="label" transform="translate(-99.921875, -9.5)"><rect rx="0" ry="0" width="199.71875" height="19.03125" style="fill:#e8e8e8;"></rect><text style=""><tspan xml:space="preserve" dy="1em" x="0" class="row">ClientEventCancelComplete</tspan></text></g></g><g class="edgeLabel" transform="translate(4484.296875, 2403.5)"><g class="label" transform="translate(-91.7890625, -9.5)"><rect rx="0" ry="0" width="183.46875" height="19.03125" style="fill:#e8e8e8;"></rect><text style=""><tspan xml:space="preserve" dy="1em" x="0" class="row">ClientEventRecheckFunds</tspan></text></g></g><g class="edgeLabel"><g class="label" transform="translate(0, 0)"><rect rx="0" ry="0" width="0" height="0" style="fill:#e8e8e8;"></rect><text style=""></text></g></g><g class="edgeLabel"><g class="label" transform="translate(0, 0)"><rect rx="0" ry="0" width="0" height="0" style="fill:#e8e8e8;"></rect><text style=""></text></g></g><g class="edgeLabel"><g class="label" transform="translate(0, 0)"><rect rx="0" ry="0" width="0" height="0" style="fill:#e8e8e8;"></rect><text style=""></text></g></g><g class="edgeLabel"><g class="label" transform="translate(0, 0)"><rect rx="0" ry="0" width="0" height="0" style="fill:#e8e8e8;"></rect><text style=""></text></g></g><g class="edgeLabel"><g class="label" transform="translate(0, 0)"><rect rx="0" ry="0" width="0" height="0" style="fill:#e8e8e8;"></rect><text style=""></text></g></g><g class="edgeLabel"><g class="label" transform="translate(0, 0)"><rect rx="0" ry="0" width="0" height="0" style="fill:#e8e8e8;"></rect><text style=""></text></g></g><g class="edgeLabel"><g class="label" transform="translate(0, 0)"><rect rx="0" ry="0" width="0" height="0" style="fill:#e8e8e8;"></rect><text style=""></text></g></g><g class="edgeLabel"><g class="label" transform="translate(0, 0)"><rect rx="0" ry="0" width="0" height="0" style="fill:#e8e8e8;"></rect><text style=""></text></g></g><g class="edgeLabel"><g class="label" transform="translate(0, 0)"><rect rx="0" ry="0" width="0" height="0" style="fill:#e8e8e8;"></rect><text style=""></text></g></g></g><g class="nodes"><g class="node statediagram-state" id="0" transform="translate(4464.0703125, 207)"><rect class="outer title-state" x="-102.59375" y="-30.25" width="205.1875" height="60.5"></rect><line class="divider" x1="-102.59375" x2="102.59375" y1="-3.75" y2="-3.75"></line><g class="label" transform="translate(-95.09375, -27.25)"><text style=""><tspan xml:space="preserve" dy="1em" x="0" class="title-row">DealStatusNew</tspan></text><text style="" transform="translate( 0, 26.5)"><tspan xml:space="preserve" dy="1em" x="0" class="title-row">On entry runs ProposeDeal</tspan></text></g></g><g class="node statediagram-state" id="3" transform="translate(1936.82421875, 415)"><rect class="outer title-state" x="-114.9453125" y="-17" width="229.890625" height="34"></rect><line class="divider" x1="-114.9453125" x2="114.9453125" y1="9.5" y2="9.5"></line><g class="label" transform="translate(-107.4453125, -14)"><text style=""><tspan xml:space="preserve" dy="1em" x="0" class="title-row">DealStatusWaitForAcceptance</tspan></text><text style="" transform="translate( 0, 26.5)"><tspan xml:space="preserve" dy="1em" x="0" class="title-row"></tspan></text></g></g><g class="node statediagram-state" id="4" transform="translate(434.25, 1274)"><rect class="outer title-state" x="-156.625" y="-30.25" width="313.25" height="60.5"></rect><line class="divider" x1="-156.625" x2="156.625" y1="-3.75" y2="-3.75"></line><g class="label" transform="translate(-149.125, -27.25)"><text style=""><tspan xml:space="preserve" dy="1em" x="0" class="title-row">DealStatusPaymentChannelCreating</tspan></text><text style="" transform="translate( 0, 26.5)"><tspan xml:space="preserve" dy="1em" x="0" class="title-row">On entry runs WaitPaymentChannelReady</tspan></text></g></g><g class="node statediagram-state" id="5" transform="translate(4700.72265625, 2493.25)"><rect class="outer title-state" x="-156.625" y="-30.25" width="313.25" height="60.5"></rect><line class="divider" x1="-156.625" x2="156.625" y1="-3.75" y2="-3.75"></line><g class="label" transform="translate(-149.125, -27.25)"><text style=""><tspan xml:space="preserve" dy="1em" x="0" class="title-row">DealStatusPaymentChannelAddingFunds</tspan></text><text style="" transform="translate( 0, 26.5)"><tspan xml:space="preserve" dy="1em" x="0" class="title-row">On entry runs WaitPaymentChannelReady</tspan></text></g></g><g class="node statediagram-state" id="6" transform="translate(2243.6171875, 1057)"><rect class="outer title-state" x="-156.2421875" y="-30.25" width="312.484375" height="60.5"></rect><line class="divider" x1="-156.2421875" x2="156.2421875" y1="-3.75" y2="-3.75"></line><g class="label" transform="translate(-148.7421875, -27.25)"><text style=""><tspan xml:space="preserve" dy="1em" x="0" class="title-row">DealStatusAccepted</tspan></text><text style="" transform="translate( 0, 26.5)"><tspan xml:space="preserve" dy="1em" x="0" class="title-row">On entry runs SetupPaymentChannelStart</tspan></text></g></g><g class="node statediagram-state" id="8" transform="translate(2237.765625, 2622.75)"><rect class="outer title-state" x="-98.421875" y="-30.25" width="196.84375" height="60.5"></rect><line class="divider" x1="-98.421875" x2="98.421875" y1="-3.75" y2="-3.75"></line><g class="label" transform="translate(-90.921875, -27.25)"><text style=""><tspan xml:space="preserve" dy="1em" x="0" class="title-row">DealStatusFailing</tspan></text><text style="" transform="translate( 0, 26.5)"><tspan xml:space="preserve" dy="1em" x="0" class="title-row">On entry runs CancelDeal</tspan></text></g></g><g class="node statediagram-state" id="9" transform="translate(818.6171875, 1057)"><rect class="outer title-state" x="-77.609375" y="-17" width="155.21875" height="34"></rect><line class="divider" x1="-77.609375" x2="77.609375" y1="9.5" y2="9.5"></line><g class="label" transform="translate(-70.109375, -14)"><text style=""><tspan xml:space="preserve" dy="1em" x="0" class="title-row">DealStatusRejected</tspan></text><text style="" transform="translate( 0, 26.5)"><tspan xml:space="preserve" dy="1em" x="0" class="title-row"></tspan></text></g></g><g class="node statediagram-state" id="10" transform="translate(2921.92578125, 1875.25)"><rect class="outer title-state" x="-153.8046875" y="-30.25" width="307.609375" height="60.5"></rect><line class="divider" x1="-153.8046875" x2="153.8046875" y1="-3.75" y2="-3.75"></line><g class="label" transform="translate(-146.3046875, -27.25)"><text style=""><tspan xml:space="preserve" dy="1em" x="0" class="title-row">DealStatusFundsNeeded</tspan></text><text style="" transform="translate( 0, 26.5)"><tspan xml:space="preserve" dy="1em" x="0" class="title-row">On entry runs ProcessPaymentRequested</tspan></text></g></g><g class="node statediagram-state" id="11" transform="translate(4712.5546875, 2184.25)"><rect class="outer title-state" x="-96.21875" y="-30.25" width="192.4375" height="60.5"></rect><line class="divider" x1="-96.21875" x2="96.21875" y1="-3.75" y2="-3.75"></line><g class="label" transform="translate(-88.71875, -27.25)"><text style=""><tspan xml:space="preserve" dy="1em" x="0" class="title-row">DealStatusSendFunds</tspan></text><text style="" transform="translate( 0, 26.5)"><tspan xml:space="preserve" dy="1em" x="0" class="title-row">On entry runs SendFunds</tspan></text></g></g><g class="node statediagram-state" id="12" transform="translate(2872.4453125, 2184.25)"><rect class="outer title-state" x="-128.8359375" y="-30.25" width="257.671875" height="60.5"></rect><line class="divider" x1="-128.8359375" x2="128.8359375" y1="-3.75" y2="-3.75"></line><g class="label" transform="translate(-121.3359375, -27.25)"><text style=""><tspan xml:space="preserve" dy="1em" x="0" class="title-row">DealStatusSendFundsLastPayment</tspan></text><text style="" transform="translate( 0, 26.5)"><tspan xml:space="preserve" dy="1em" x="0" class="title-row">On entry runs SendFunds</tspan></text></g></g><g class="node statediagram-state" id="13" transform="translate(3868.13671875, 1601.75)"><rect class="outer title-state" x="-87.28125" y="-30.25" width="174.5625" height="60.5"></rect><line class="divider" x1="-87.28125" x2="87.28125" y1="-3.75" y2="-3.75"></line><g class="label" transform="translate(-79.78125, -27.25)"><text style=""><tspan xml:space="preserve" dy="1em" x="0" class="title-row">DealStatusOngoing</tspan></text><text style="" transform="translate( 0, 26.5)"><tspan xml:space="preserve" dy="1em" x="0" class="title-row">On entry runs Ongoing</tspan></text></g></g><g class="node statediagram-state" id="14" transform="translate(2175.5390625, 2054.75)"><rect class="outer title-state" x="-153.8046875" y="-30.25" width="307.609375" height="60.5"></rect><line class="divider" x1="-153.8046875" x2="153.8046875" y1="-3.75" y2="-3.75"></line><g class="label" transform="translate(-146.3046875, -27.25)"><text style=""><tspan xml:space="preserve" dy="1em" x="0" class="title-row">DealStatusFundsNeededLastPayment</tspan></text><text style="" transform="translate( 0, 26.5)"><tspan xml:space="preserve" dy="1em" x="0" class="title-row">On entry runs ProcessPaymentRequested</tspan></text></g></g><g class="node statediagram-state" id="15" transform="translate(4144.69921875, 2493.25)"><rect class="outer title-state" x="-84.2265625" y="-17" width="168.453125" height="34"></rect><line class="divider" x1="-84.2265625" x2="84.2265625" y1="9.5" y2="9.5"></line><g class="label" transform="translate(-76.7265625, -14)"><text style=""><tspan xml:space="preserve" dy="1em" x="0" class="title-row">DealStatusCompleted</tspan></text><text style="" transform="translate( 0, 26.5)"><tspan xml:space="preserve" dy="1em" x="0" class="title-row"></tspan></text></g></g><g class="node statediagram-state" id="16" transform="translate(1265.515625, 1057)"><rect class="outer title-state" x="-95.4296875" y="-17" width="190.859375" height="34"></rect><line class="divider" x1="-95.4296875" x2="95.4296875" y1="9.5" y2="9.5"></line><g class="label" transform="translate(-87.9296875, -14)"><text style=""><tspan xml:space="preserve" dy="1em" x="0" class="title-row">DealStatusDealNotFound</tspan></text><text style="" transform="translate( 0, 26.5)"><tspan xml:space="preserve" dy="1em" x="0" class="title-row"></tspan></text></g></g><g class="node statediagram-state" id="17" transform="translate(2604.94921875, 2764)"><rect class="outer title-state" x="-72.0625" y="-17" width="144.125" height="34"></rect><line class="divider" x1="-72.0625" x2="72.0625" y1="9.5" y2="9.5"></line><g class="label" transform="translate(-64.5625, -14)"><text style=""><tspan xml:space="preserve" dy="1em" x="0" class="title-row">DealStatusErrored</tspan></text><text style="" transform="translate( 0, 26.5)"><tspan xml:space="preserve" dy="1em" x="0" class="title-row"></tspan></text></g></g><g class="node statediagram-state" id="18" transform="translate(3857.48046875, 1751)"><rect class="outer title-state" x="-102.1875" y="-17" width="204.375" height="34"></rect><line class="divider" x1="-102.1875" x2="102.1875" y1="9.5" y2="9.5"></line><g class="label" transform="translate(-94.6875, -14)"><text style=""><tspan xml:space="preserve" dy="1em" x="0" class="title-row">DealStatusBlocksComplete</tspan></text><text style="" transform="translate( 0, 26.5)"><tspan xml:space="preserve" dy="1em" x="0" class="title-row"></tspan></text></g></g><g class="node statediagram-state" id="19" transform="translate(3205.0234375, 2338.75)"><rect class="outer title-state" x="-79.5" y="-17" width="159" height="34"></rect><line class="divider" x1="-79.5" x2="79.5" y1="9.5" y2="9.5"></line><g class="label" transform="translate(-72, -14)"><text style=""><tspan xml:space="preserve" dy="1em" x="0" class="title-row">DealStatusFinalizing</tspan></text><text style="" transform="translate( 0, 26.5)"><tspan xml:space="preserve" dy="1em" x="0" class="title-row"></tspan></text></g></g><g class="node statediagram-state" id="21" transform="translate(3489.34765625, 2338.75)"><rect class="outer title-state" x="-114.4921875" y="-30.25" width="228.984375" height="60.5"></rect><line class="divider" x1="-114.4921875" x2="114.4921875" y1="-3.75" y2="-3.75"></line><g class="label" transform="translate(-106.9921875, -27.25)"><text style=""><tspan xml:space="preserve" dy="1em" x="0" class="title-row">DealStatusCheckComplete</tspan></text><text style="" transform="translate( 0, 26.5)"><tspan xml:space="preserve" dy="1em" x="0" class="title-row">On entry runs CheckComplete</tspan></text></g></g><g class="node statediagram-state" id="22" transform="translate(4275.6640625, 2338.75)"><rect class="outer title-state" x="-100.6953125" y="-30.25" width="201.390625" height="60.5"></rect><line class="divider" x1="-100.6953125" x2="100.6953125" y1="-3.75" y2="-3.75"></line><g class="label" transform="translate(-93.1953125, -27.25)"><text style=""><tspan xml:space="preserve" dy="1em" x="0" class="title-row">DealStatusCheckFunds</tspan></text><text style="" transform="translate( 0, 26.5)"><tspan xml:space="preserve" dy="1em" x="0" class="title-row">On entry runs CheckFunds</tspan></text></g></g><g class="node statediagram-state" id="23" transform="translate(5013.87109375, 2493.25)"><rect class="outer title-state" x="-106.5234375" y="-17" width="213.046875" height="34"></rect><line class="divider" x1="-106.5234375" x2="106.5234375" y1="9.5" y2="9.5"></line><g class="label" transform="translate(-99.0234375, -14)"><text style=""><tspan xml:space="preserve" dy="1em" x="0" class="title-row">DealStatusInsufficientFunds</tspan></text><text style="" transform="translate( 0, 26.5)"><tspan xml:space="preserve" dy="1em" x="0" class="title-row"></tspan></text></g></g><g class="node statediagram-state" id="24" transform="translate(3139.203125, 1447.25)"><rect class="outer title-state" x="-158.0390625" y="-30.25" width="316.078125" height="60.5"></rect><line class="divider" x1="-158.0390625" x2="158.0390625" y1="-3.75" y2="-3.75"></line><g class="label" transform="translate(-150.5390625, -27.25)"><text style=""><tspan xml:space="preserve" dy="1em" x="0" class="title-row">DealStatusPaymentChannelAllocatingLane</tspan></text><text style="" transform="translate( 0, 26.5)"><tspan xml:space="preserve" dy="1em" x="0" class="title-row">On entry runs AllocateLane</tspan></text></g></g><g class="node statediagram-state" id="25" transform="translate(561.40625, 207)"><rect class="outer title-state" x="-98.421875" y="-30.25" width="196.84375" height="60.5"></rect><line class="divider" x1="-98.421875" x2="98.421875" y1="-3.75" y2="-3.75"></line><g class="label" transform="translate(-90.921875, -27.25)"><text style=""><tspan xml:space="preserve" dy="1em" x="0" class="title-row">DealStatusCancelling</tspan></text><text style="" transform="translate( 0, 26.5)"><tspan xml:space="preserve" dy="1em" x="0" class="title-row">On entry runs CancelDeal</tspan></text></g></g><g class="node statediagram-state" id="26" transform="translate(561.40625, 415)"><rect class="outer title-state" x="-80.5625" y="-17" width="161.125" height="34"></rect><line class="divider" x1="-80.5625" x2="80.5625" y1="9.5" y2="9.5"></line><g class="label" transform="translate(-73.0625, -14)"><text style=""><tspan xml:space="preserve" dy="1em" x="0" class="title-row">DealStatusCancelled</tspan></text><text style="" transform="translate( 0, 26.5)"><tspan xml:space="preserve" dy="1em" x="0" class="title-row"></tspan></text></g></g><g class="node statediagram-state" id="27" transform="translate(1295.515625, 648)"><rect class="outer title-state" x="-102.59375" y="-30.25" width="205.1875" height="60.5"></rect><line class="divider" x1="-102.59375" x2="102.59375" y1="-3.75" y2="-3.75"></line><g class="label" transform="translate(-95.09375, -27.25)"><text style=""><tspan xml:space="preserve" dy="1em" x="0" class="title-row">DealStatusRetryLegacy</tspan></text><text style="" transform="translate( 0, 26.5)"><tspan xml:space="preserve" dy="1em" x="0" class="title-row">On entry runs ProposeDeal</tspan></text></g></g><g class="node statediagram-state" id="28" transform="translate(929.16015625, 840)"><rect class="outer title-state" x="-139.484375" y="-17" width="278.96875" height="34"></rect><line class="divider" x1="-139.484375" x2="139.484375" y1="9.5" y2="9.5"></line><g class="label" transform="translate(-131.984375, -14)"><text style=""><tspan xml:space="preserve" dy="1em" x="0" class="title-row">DealStatusWaitForAcceptanceLegacy</tspan></text><text style="" transform="translate( 0, 26.5)"><tspan xml:space="preserve" dy="1em" x="0" class="title-row"></tspan></text></g></g><g class="node default" id="root_start" transform="translate(4464.0703125, 58)"><circle class="state-start" r="7" width="14" height="14"></circle></g><g class="node statediagram-note" id="0----note" transform="translate(4409.09765625, 415)"><rect x="-286.75" y="-65" width="573.5" height="130"></rect><g class="label" transform="translate(-279.25, -57.5)"><text style=""><tspan xml:space="preserve" dy="1em" x="0" class="row">The following events are not shown cause they can trigger from any state.</tspan><tspan xml:space="preserve" dy="1em" x="0" class="row"></tspan><tspan xml:space="preserve" dy="1em" x="0" class="row">ClientEventWriteDealProposalErrored - transitions state to DealStatusErrored</tspan><tspan xml:space="preserve" dy="1em" x="0" class="row">ClientEventUnknownResponseReceived - transitions state to DealStatusFailing</tspan><tspan xml:space="preserve" dy="1em" x="0" class="row">ClientEventDataTransferError - transitions state to DealStatusErrored</tspan><tspan xml:space="preserve" dy="1em" x="0" class="row">ClientEventWriteDealPaymentErrored - transitions state to DealStatusErrored</tspan><tspan xml:space="preserve" dy="1em" x="0" class="row">ClientEventProviderCancelled - transitions state to DealStatusErrored</tspan><tspan xml:space="preserve" dy="1em" x="0" class="row">ClientEventCancel - transitions state to DealStatusCancelling</tspan></text></g></g><g class="node statediagram-note" id="3----note" transform="translate(1936.82421875, 207)"><rect x="-173.125" y="-49" width="346.25" height="98"></rect><g class="label" transform="translate(-165.625, -41.5)"><text style=""><tspan xml:space="preserve" dy="1em" x="0" class="row">The following events only record in this state.</tspan><tspan xml:space="preserve" dy="1em" x="0" class="row"></tspan><tspan xml:space="preserve" dy="1em" x="0" class="row">ClientEventLastPaymentRequested</tspan><tspan xml:space="preserve" dy="1em" x="0" class="row">ClientEventPaymentRequested</tspan><tspan xml:space="preserve" dy="1em" x="0" class="row">ClientEventAllBlocksReceived</tspan><tspan xml:space="preserve" dy="1em" x="0" class="row">ClientEventBlocksReceived</tspan></text></g></g><g class="node statediagram-note" id="4----note" transform="translate(346.27734375, 1057)"><rect x="-173.125" y="-49" width="346.25" height="98"></rect><g class="label" transform="translate(-165.625, -41.5)"><text style=""><tspan xml:space="preserve" dy="1em" x="0" class="row">The following events only record in this state.</tspan><tspan xml:space="preserve" dy="1em" x="0" class="row"></tspan><tspan xml:space="preserve" dy="1em" x="0" class="row">ClientEventLastPaymentRequested</tspan><tspan xml:space="preserve" dy="1em" x="0" class="row">ClientEventPaymentRequested</tspan><tspan xml:space="preserve" dy="1em" x="0" class="row">ClientEventAllBlocksReceived</tspan><tspan xml:space="preserve" dy="1em" x="0" class="row">ClientEventBlocksReceived</tspan></text></g></g><g class="node statediagram-note" id="6----note" transform="translate(2441.4453125, 840)"><rect x="-173.125" y="-49" width="346.25" height="98"></rect><g class="label" transform="translate(-165.625, -41.5)"><text style=""><tspan xml:space="preserve" dy="1em" x="0" class="row">The following events only record in this state.</tspan><tspan xml:space="preserve" dy="1em" x="0" class="row"></tspan><tspan xml:space="preserve" dy="1em" x="0" class="row">ClientEventLastPaymentRequested</tspan><tspan xml:space="preserve" dy="1em" x="0" class="row">ClientEventPaymentRequested</tspan><tspan xml:space="preserve" dy="1em" x="0" class="row">ClientEventAllBlocksReceived</tspan><tspan xml:space="preserve" dy="1em" x="0" class="row">ClientEventBlocksReceived</tspan></text></g></g><g class="node statediagram-note" id="8----note" transform="translate(216.125, 2493.25)"><rect x="-173.125" y="-25" width="346.25" height="50"></rect><g class="label" transform="translate(-165.625, -17.5)"><text style=""><tspan xml:space="preserve" dy="1em" x="0" class="row">The following events only record in this state.</tspan><tspan xml:space="preserve" dy="1em" x="0" class="row"></tspan><tspan xml:space="preserve" dy="1em" x="0" class="row">ClientEventProviderCancelled</tspan></text></g></g><g class="node statediagram-note" id="10----note" transform="translate(2586.8125, 1751)"><rect x="-173.125" y="-25" width="346.25" height="50"></rect><g class="label" transform="translate(-165.625, -17.5)"><text style=""><tspan xml:space="preserve" dy="1em" x="0" class="row">The following events only record in this state.</tspan><tspan xml:space="preserve" dy="1em" x="0" class="row"></tspan><tspan xml:space="preserve" dy="1em" x="0" class="row">ClientEventAllBlocksReceived</tspan></text></g></g><g class="node statediagram-note" id="11----note" transform="translate(4301.77734375, 2054.75)"><rect x="-173.125" y="-25" width="346.25" height="50"></rect><g class="label" transform="translate(-165.625, -17.5)"><text style=""><tspan xml:space="preserve" dy="1em" x="0" class="row">The following events only record in this state.</tspan><tspan xml:space="preserve" dy="1em" x="0" class="row"></tspan><tspan xml:space="preserve" dy="1em" x="0" class="row">ClientEventAllBlocksReceived</tspan></text></g></g><g class="node statediagram-note" id="24----note" transform="translate(2643.55859375, 1274)"><rect x="-173.125" y="-49" width="346.25" height="98"></rect><g class="label" transform="translate(-165.625, -41.5)"><text style=""><tspan xml:space="preserve" dy="1em" x="0" class="row">The following events only record in this state.</tspan><tspan xml:space="preserve" dy="1em" x="0" class="row"></tspan><tspan xml:space="preserve" dy="1em" x="0" class="row">ClientEventLastPaymentRequested</tspan><tspan xml:space="preserve" dy="1em" x="0" class="row">ClientEventPaymentRequested</tspan><tspan xml:space="preserve" dy="1em" x="0" class="row">ClientEventAllBlocksReceived</tspan><tspan xml:space="preserve" dy="1em" x="0" class="row">ClientEventBlocksReceived</tspan></text></g></g><g class="node statediagram-note" id="25----note" transform="translate(561.40625, 58)"><rect x="-173.125" y="-25" width="346.25" height="50"></rect><g class="label" transform="translate(-165.625, -17.5)"><text style=""><tspan xml:space="preserve" dy="1em" x="0" class="row">The following events only record in this state.</tspan><tspan xml:space="preserve" dy="1em" x="0" class="row"></tspan><tspan xml:space="preserve" dy="1em" x="0" class="row">ClientEventProviderCancelled</tspan></text></g></g><g class="node statediagram-note" id="28----note" transform="translate(874.1875, 648)"><rect x="-173.125" y="-49" width="346.25" height="98"></rect><g class="label" transform="translate(-165.625, -41.5)"><text style=""><tspan xml:space="preserve" dy="1em" x="0" class="row">The following events only record in this state.</tspan><tspan xml:space="preserve" dy="1em" x="0" class="row"></tspan><tspan xml:space="preserve" dy="1em" x="0" class="row">ClientEventLastPaymentRequested</tspan><tspan xml:space="preserve" dy="1em" x="0" class="row">ClientEventPaymentRequested</tspan><tspan xml:space="preserve" dy="1em" x="0" class="row">ClientEventAllBlocksReceived</tspan><tspan xml:space="preserve" dy="1em" x="0" class="row">ClientEventBlocksReceived</tspan></text></g></g></g></g></g></svg>