<svg id="mermaid-1592420489320" width="4043.55078125" xmlns="http://www.w3.org/2000/svg" class="statediagram" height="1299.5" viewBox="0 0 4043.55078125 1299.5"><style>#mermaid-1592420489320 .label{font-family:'trebuchet ms', verdana, arial;font-family:var(--mermaid-font-family);color:#333}#mermaid-1592420489320 .label text{fill:#333}#mermaid-1592420489320 .node rect,#mermaid-1592420489320 .node circle,#mermaid-1592420489320 .node ellipse,#mermaid-1592420489320 .node polygon,#mermaid-1592420489320 .node path{fill:#ECECFF;stroke:#9370db;stroke-width:1px}#mermaid-1592420489320 .node .label{text-align:center}#mermaid-1592420489320 .node.clickable{cursor:pointer}#mermaid-1592420489320 .arrowheadPath{fill:#333}#mermaid-1592420489320 .edgePath .path{stroke:#333;stroke-width:1.5px}#mermaid-1592420489320 .edgeLabel{background-color:#e8e8e8;text-align:center}#mermaid-1592420489320 .edgeLabel rect{opacity:0.5}#mermaid-1592420489320 .cluster rect{fill:#ffffde;stroke:#aa3;stroke-width:1px}#mermaid-1592420489320 .cluster text{fill:#333}#mermaid-1592420489320 div.mermaidTooltip{position:absolute;text-align:center;max-width:200px;padding:2px;font-family:'trebuchet ms', verdana, arial;font-family:var(--mermaid-font-family);font-size:12px;background:#ffffde;border:1px solid #aa3;border-radius:2px;pointer-events:none;z-index:100}#mermaid-1592420489320 .actor{stroke:#ccf;fill:#ECECFF}#mermaid-1592420489320 text.actor{fill:#000;stroke:none}#mermaid-1592420489320 .actor-line{stroke:grey}#mermaid-1592420489320 .messageLine0{stroke-width:1.5;stroke-dasharray:'2 2';stroke:#333}#mermaid-1592420489320 .messageLine1{stroke-width:1.5;stroke-dasharray:'2 2';stroke:#333}#mermaid-1592420489320 #arrowhead{fill:#333}#mermaid-1592420489320 .sequenceNumber{fill:#fff}#mermaid-1592420489320 #sequencenumber{fill:#333}#mermaid-1592420489320 #crosshead path{fill:#333 !important;stroke:#333 !important}#mermaid-1592420489320 .messageText{fill:#333;stroke:none}#mermaid-1592420489320 .labelBox{stroke:#ccf;fill:#ECECFF}#mermaid-1592420489320 .labelText{fill:#000;stroke:none}#mermaid-1592420489320 .loopText{fill:#000;stroke:none}#mermaid-1592420489320 .loopLine{stroke-width:2;stroke-dasharray:'2 2';stroke:#ccf}#mermaid-1592420489320 .note{stroke:#aa3;fill:#fff5ad}#mermaid-1592420489320 .noteText{fill:black;stroke:none;font-family:'trebuchet ms', verdana, arial;font-family:var(--mermaid-font-family);font-size:14px}#mermaid-1592420489320 .activation0{fill:#f4f4f4;stroke:#666}#mermaid-1592420489320 .activation1{fill:#f4f4f4;stroke:#666}#mermaid-1592420489320 .activation2{fill:#f4f4f4;stroke:#666}#mermaid-1592420489320 .mermaid-main-font{font-family:"trebuchet ms", verdana, arial;font-family:var(--mermaid-font-family)}#mermaid-1592420489320 .section{stroke:none;opacity:0.2}#mermaid-1592420489320 .section0{fill:rgba(102,102,255,0.49)}#mermaid-1592420489320 .section2{fill:#fff400}#mermaid-1592420489320 .section1,#mermaid-1592420489320 .section3{fill:#fff;opacity:0.2}#mermaid-1592420489320 .sectionTitle0{fill:#333}#mermaid-1592420489320 .sectionTitle1{fill:#333}#mermaid-1592420489320 .sectionTitle2{fill:#333}#mermaid-1592420489320 .sectionTitle3{fill:#333}#mermaid-1592420489320 .sectionTitle{text-anchor:start;font-size:11px;text-height:14px;font-family:'trebuchet ms', verdana, arial;font-family:var(--mermaid-font-family)}#mermaid-1592420489320 .grid .tick{stroke:#d3d3d3;opacity:0.8;shape-rendering:crispEdges}#mermaid-1592420489320 .grid .tick text{font-family:'trebuchet ms', verdana, arial;font-family:var(--mermaid-font-family)}#mermaid-1592420489320 .grid path{stroke-width:0}#mermaid-1592420489320 .today{fill:none;stroke:red;stroke-width:2px}#mermaid-1592420489320 .task{stroke-width:2}#mermaid-1592420489320 .taskText{text-anchor:middle;font-family:'trebuchet ms', verdana, arial;font-family:var(--mermaid-font-family)}#mermaid-1592420489320 .taskText:not([font-size]){font-size:11px}#mermaid-1592420489320 .taskTextOutsideRight{fill:#000;text-anchor:start;font-size:11px;font-family:'trebuchet ms', verdana, arial;font-family:var(--mermaid-font-family)}#mermaid-1592420489320 .taskTextOutsideLeft{fill:#000;text-anchor:end;font-size:11px}#mermaid-1592420489320 .task.clickable{cursor:pointer}#mermaid-1592420489320 .taskText.clickable{cursor:pointer;fill:#003163 !important;font-weight:bold}#mermaid-1592420489320 .taskTextOutsideLeft.clickable{cursor:pointer;fill:#003163 !important;font-weight:bold}#mermaid-1592420489320 .taskTextOutsideRight.clickable{cursor:pointer;fill:#003163 !important;font-weight:bold}#mermaid-1592420489320 .taskText0,#mermaid-1592420489320 .taskText1,#mermaid-1592420489320 .taskText2,#mermaid-1592420489320 .taskText3{fill:#fff}#mermaid-1592420489320 .task0,#mermaid-1592420489320 .task1,#mermaid-1592420489320 .task2,#mermaid-1592420489320 .task3{fill:#8a90dd;stroke:#534fbc}#mermaid-1592420489320 .taskTextOutside0,#mermaid-1592420489320 .taskTextOutside2{fill:#000}#mermaid-1592420489320 .taskTextOutside1,#mermaid-1592420489320 .taskTextOutside3{fill:#000}#mermaid-1592420489320 .active0,#mermaid-1592420489320 .active1,#mermaid-1592420489320 .active2,#mermaid-1592420489320 .active3{fill:#bfc7ff;stroke:#534fbc}#mermaid-1592420489320 .activeText0,#mermaid-1592420489320 .activeText1,#mermaid-1592420489320 .activeText2,#mermaid-1592420489320 .activeText3{fill:#000 !important}#mermaid-1592420489320 .done0,#mermaid-1592420489320 .done1,#mermaid-1592420489320 .done2,#mermaid-1592420489320 .done3{stroke:grey;fill:#d3d3d3;stroke-width:2}#mermaid-1592420489320 .doneText0,#mermaid-1592420489320 .doneText1,#mermaid-1592420489320 .doneText2,#mermaid-1592420489320 .doneText3{fill:#000 !important}#mermaid-1592420489320 .crit0,#mermaid-1592420489320 .crit1,#mermaid-1592420489320 .crit2,#mermaid-1592420489320 .crit3{stroke:#f88;fill:red;stroke-width:2}#mermaid-1592420489320 .activeCrit0,#mermaid-1592420489320 .activeCrit1,#mermaid-1592420489320 .activeCrit2,#mermaid-1592420489320 .activeCrit3{stroke:#f88;fill:#bfc7ff;stroke-width:2}#mermaid-1592420489320 .doneCrit0,#mermaid-1592420489320 .doneCrit1,#mermaid-1592420489320 .doneCrit2,#mermaid-1592420489320 .doneCrit3{stroke:#f88;fill:#d3d3d3;stroke-width:2;cursor:pointer;shape-rendering:crispEdges}#mermaid-1592420489320 .milestone{transform:rotate(45deg) scale(0.8, 0.8)}#mermaid-1592420489320 .milestoneText{font-style:italic}#mermaid-1592420489320 .doneCritText0,#mermaid-1592420489320 .doneCritText1,#mermaid-1592420489320 .doneCritText2,#mermaid-1592420489320 .doneCritText3{fill:#000 !important}#mermaid-1592420489320 .activeCritText0,#mermaid-1592420489320 .activeCritText1,#mermaid-1592420489320 .activeCritText2,#mermaid-1592420489320 .activeCritText3{fill:#000 !important}#mermaid-1592420489320 .titleText{text-anchor:middle;font-size:18px;fill:#000;font-family:'trebuchet ms', verdana, arial;font-family:var(--mermaid-font-family)}#mermaid-1592420489320 g.classGroup text{fill:#9370db;stroke:none;font-family:'trebuchet ms', verdana, arial;font-family:var(--mermaid-font-family);font-size:10px}#mermaid-1592420489320 g.classGroup text .title{font-weight:bolder}#mermaid-1592420489320 g.clickable{cursor:pointer}#mermaid-1592420489320 g.classGroup rect{fill:#ECECFF;stroke:#9370db}#mermaid-1592420489320 g.classGroup line{stroke:#9370db;stroke-width:1}#mermaid-1592420489320 .classLabel .box{stroke:none;stroke-width:0;fill:#ECECFF;opacity:0.5}#mermaid-1592420489320 .classLabel .label{fill:#9370db;font-size:10px}#mermaid-1592420489320 .relation{stroke:#9370db;stroke-width:1;fill:none}#mermaid-1592420489320 .dashed-line{stroke-dasharray:3}#mermaid-1592420489320 #compositionStart{fill:#9370db;stroke:#9370db;stroke-width:1}#mermaid-1592420489320 #compositionEnd{fill:#9370db;stroke:#9370db;stroke-width:1}#mermaid-1592420489320 #aggregationStart{fill:#ECECFF;stroke:#9370db;stroke-width:1}#mermaid-1592420489320 #aggregationEnd{fill:#ECECFF;stroke:#9370db;stroke-width:1}#mermaid-1592420489320 #dependencyStart{fill:#9370db;stroke:#9370db;stroke-width:1}#mermaid-1592420489320 #dependencyEnd{fill:#9370db;stroke:#9370db;stroke-width:1}#mermaid-1592420489320 #extensionStart{fill:#9370db;stroke:#9370db;stroke-width:1}#mermaid-1592420489320 #extensionEnd{fill:#9370db;stroke:#9370db;stroke-width:1}#mermaid-1592420489320 .commit-id,#mermaid-1592420489320 .commit-msg,#mermaid-1592420489320 .branch-label{fill:lightgrey;color:lightgrey;font-family:'trebuchet ms', verdana, arial;font-family:var(--mermaid-font-family)}#mermaid-1592420489320 .pieTitleText{text-anchor:middle;font-size:25px;fill:#000;font-family:'trebuchet ms', verdana, arial;font-family:var(--mermaid-font-family)}#mermaid-1592420489320 .slice{font-family:'trebuchet ms', verdana, arial;font-family:var(--mermaid-font-family)}#mermaid-1592420489320 g.stateGroup text{fill:#9370db;stroke:none;font-size:10px;font-family:'trebuchet ms', verdana, arial;font-family:var(--mermaid-font-family)}#mermaid-1592420489320 g.stateGroup text{fill:#9370db;stroke:none;font-size:10px}#mermaid-1592420489320 g.stateGroup .state-title{font-weight:bolder;fill:#000}#mermaid-1592420489320 g.stateGroup rect{fill:#ECECFF;stroke:#9370db}#mermaid-1592420489320 g.stateGroup line{stroke:#9370db;stroke-width:1}#mermaid-1592420489320 .transition{stroke:#9370db;stroke-width:1;fill:none}#mermaid-1592420489320 .stateGroup .composit{fill:white;border-bottom:1px}#mermaid-1592420489320 .stateGroup .alt-composit{fill:#e0e0e0;border-bottom:1px}#mermaid-1592420489320 .state-note{stroke:#aa3;fill:#fff5ad}#mermaid-1592420489320 .state-note text{fill:black;stroke:none;font-size:10px}#mermaid-1592420489320 .stateLabel .box{stroke:none;stroke-width:0;fill:#ECECFF;opacity:0.5}#mermaid-1592420489320 .stateLabel text{fill:#000;font-size:10px;font-weight:bold;font-family:'trebuchet ms', verdana, arial;font-family:var(--mermaid-font-family)}#mermaid-1592420489320 .node circle.state-start{fill:black;stroke:black}#mermaid-1592420489320 .node circle.state-end{fill:black;stroke:white;stroke-width:1.5}#mermaid-1592420489320 #statediagram-barbEnd{fill:#9370db}#mermaid-1592420489320 .statediagram-cluster rect{fill:#ECECFF;stroke:#9370db;stroke-width:1px}#mermaid-1592420489320 .statediagram-cluster rect.outer{rx:5px;ry:5px}#mermaid-1592420489320 .statediagram-state .divider{stroke:#9370db}#mermaid-1592420489320 .statediagram-state .title-state{rx:5px;ry:5px}#mermaid-1592420489320 .statediagram-cluster.statediagram-cluster .inner{fill:white}#mermaid-1592420489320 .statediagram-cluster.statediagram-cluster-alt .inner{fill:#e0e0e0}#mermaid-1592420489320 .statediagram-cluster .inner{rx:0;ry:0}#mermaid-1592420489320 .statediagram-state rect.basic{rx:5px;ry:5px}#mermaid-1592420489320 .statediagram-state rect.divider{stroke-dasharray:10,10;fill:#efefef}#mermaid-1592420489320 .note-edge{stroke-dasharray:5}#mermaid-1592420489320 .statediagram-note rect{fill:#fff5ad;stroke:#aa3;stroke-width:1px;rx:0;ry:0}:root{--mermaid-font-family: '"trebuchet ms", verdana, arial';--mermaid-font-family: "Comic Sans MS", "Comic Sans", cursive}

:root { --mermaid-font-family: "trebuchet ms", verdana, arial;}</style><style>#mermaid-1592420489320 {
    color: rgb(0, 0, 0);
    font: 16px "trebuchet ms", verdana, arial;
  }</style><g><defs><marker id="statediagram-barbEnd" refX="19" refY="7" markerWidth="20" markerHeight="14" markerUnits="0" orient="auto"><path d="M 19,7 L9,13 L14,7 L9,1 Z"></path></marker></defs><g class="root"><g class="clusters"></g><g class="edgePaths"><path d="M2332.9921875,32L2332.9921875,37.833333333333336C2332.9921875,43.666666666666664,2332.9921875,55.333333333333336,2332.9921875,65.33333333333333C2332.9921875,75.33333333333333,2332.9921875,83.66666666666667,2332.9921875,87.83333333333333L2332.9921875,92" id="edge0" class="transition" marker-end="url(#statediagram-barbEnd)"></path><path d="M2435.5859375,103.54799755186593L2446.144097222222,101.62333129322161C2456.702256944445,99.69866503457729,2477.818576388889,95.84933251728864,2491.0162760416665,93.92466625864432C2504.213975694445,92,2509.493055555555,92,2514.7721354166665,97.04166666666667C2520.051215277778,102.08333333333333,2525.3302951388887,112.16666666666667,2525.3302951388887,122.25C2525.3302951388887,132.33333333333334,2520.051215277778,142.41666666666666,2514.7721354166665,147.45833333333334C2509.493055555555,152.5,2504.213975694445,152.5,2491.0162760416665,150.57533374135568C2477.818576388889,148.65066748271136,2456.702256944445,144.8013349654227,2446.144097222222,142.8766687067784L2435.5859375,140.95200244813407" id="edge1" class="transition" marker-end="url(#statediagram-barbEnd)"></path><path d="M487.37890625,402.41794298846446L428.8404947916667,409.6816191570537C370.3020833333333,416.945295325643,253.22526041666666,431.47264766282143,194.68684895833334,449.5279904980774C136.1484375,467.5833333333333,136.1484375,489.1666666666667,136.1484375,510.75C136.1484375,532.3333333333334,136.1484375,553.9166666666666,136.1484375,575.5C136.1484375,597.0833333333334,136.1484375,618.6666666666666,136.1484375,640.25C136.1484375,661.8333333333334,136.1484375,683.4166666666666,136.1484375,705C136.1484375,726.5833333333334,136.1484375,748.1666666666666,136.1484375,769.75C136.1484375,791.3333333333334,136.1484375,812.9166666666666,136.1484375,834.5C136.1484375,856.0833333333334,136.1484375,877.6666666666666,136.1484375,899.25C136.1484375,920.8333333333334,136.1484375,942.4166666666666,136.1484375,964C136.1484375,985.5833333333334,136.1484375,1007.1666666666666,136.1484375,1028.75C136.1484375,1050.3333333333333,136.1484375,1071.9166666666667,339.9674479166667,1092.9378543817684C543.7864583333334,1113.9590420968702,951.4244791666666,1134.4180841937405,1155.2434895833333,1144.6476052421756L1359.0625,1154.8771262906107" id="edge2" class="transition" marker-end="url(#statediagram-barbEnd)"></path><path d="M428.6261763996139,282L404.57129283301157,287.75C380.51640926640925,293.5,332.4066421332046,305,308.3517585666023,321.5416666666667C284.296875,338.0833333333333,284.296875,359.6666666666667,284.296875,381.25C284.296875,402.8333333333333,284.296875,424.4166666666667,284.296875,446C284.296875,467.5833333333333,284.296875,489.1666666666667,284.296875,510.75C284.296875,532.3333333333334,284.296875,553.9166666666666,284.296875,575.5C284.296875,597.0833333333334,284.296875,618.6666666666666,284.296875,640.25C284.296875,661.8333333333334,284.296875,683.4166666666666,284.296875,705C284.296875,726.5833333333334,284.296875,748.1666666666666,284.296875,769.75C284.296875,791.3333333333334,284.296875,812.9166666666666,284.296875,834.5C284.296875,856.0833333333334,284.296875,877.6666666666666,284.296875,899.25C284.296875,920.8333333333334,284.296875,942.4166666666666,284.296875,964C284.296875,985.5833333333334,284.296875,1007.1666666666666,284.296875,1028.75C284.296875,1050.3333333333333,284.296875,1071.9166666666667,463.4244791666667,1092.8649268213703C642.5520833333334,1113.813186976074,1000.8072916666666,1134.1263739521476,1179.9348958333333,1144.2829674401846L1359.0625,1154.4395609282215" id="edge3" class="transition" marker-end="url(#statediagram-barbEnd)"></path><path d="M603.2005761341699,282L612.3292561534748,287.75C621.4579361727799,293.5,639.71529621139,305,648.8439762306949,316.5C657.97265625,328,657.97265625,339.5,657.97265625,345.25L657.97265625,351" id="edge4" class="transition" marker-end="url(#statediagram-barbEnd)"></path><path d="M711.41796875,269.2948839540965L781.48046875,277.1624032950804C851.54296875,285.0299226360643,991.66796875,300.7649613180322,1061.73046875,314.3824806590161C1131.79296875,328,1131.79296875,339.5,1131.79296875,345.25L1131.79296875,351" id="edge5" class="transition" marker-end="url(#statediagram-barbEnd)"></path><path d="M828.56640625,392.8456992245646L958.8990885416666,401.7047493538039C1089.2317708333333,410.5637994830431,1349.8971354166667,428.28189974152156,1628.833984375,446.5150229018318C1907.7708333333333,464.7481460621421,2204.9791666666665,483.49629212428425,2353.5833333333335,492.8703651553553L2502.1875,502.24443818642635" id="edge6" class="transition" marker-end="url(#statediagram-barbEnd)"></path><path d="M1312.66015625,388.38268867498084L1556.1653645833333,397.98557389581737C1799.6705729166667,407.5884591166539,2286.6809895833335,426.7942295583269,2518.0496601512227,442.1471147791635C2749.418330719112,457.5,2725.145255188224,469,2713.0087174227797,474.75L2700.872179657336,480.5" id="edge7" class="transition" marker-end="url(#statediagram-barbEnd)"></path><path d="M579.4478462837837,411.5L564.5216427364865,417.25C549.5954391891892,423,519.7430320945946,434.5,504.8168285472973,451.0416666666667C489.890625,467.5833333333333,489.890625,489.1666666666667,489.890625,510.75C489.890625,532.3333333333334,489.890625,553.9166666666666,489.890625,575.5C489.890625,597.0833333333334,489.890625,618.6666666666666,489.890625,640.25C489.890625,661.8333333333334,489.890625,683.4166666666666,489.890625,705C489.890625,726.5833333333334,489.890625,748.1666666666666,489.890625,769.75C489.890625,791.3333333333334,489.890625,812.9166666666666,489.890625,834.5C489.890625,856.0833333333334,489.890625,877.6666666666666,489.890625,899.25C489.890625,920.8333333333334,489.890625,942.4166666666666,489.890625,964C489.890625,985.5833333333334,489.890625,1007.1666666666666,489.890625,1028.75C489.890625,1050.3333333333333,489.890625,1071.9166666666667,634.7526041666666,1092.725487946647C779.6145833333334,1113.5343092266276,1069.3385416666667,1133.5686184532549,1214.2005208333333,1143.5857730665687L1359.0625,1153.6029276798824" id="edge8" class="transition" marker-end="url(#statediagram-barbEnd)"></path><path d="M950.92578125,411.06981619073196L915.615234375,416.8915134922766C880.3046875,422.71321079382125,809.68359375,434.35660539691065,774.373046875,450.96996936512204C739.0625,467.5833333333333,739.0625,489.1666666666667,739.0625,510.75C739.0625,532.3333333333334,739.0625,553.9166666666666,739.0625,575.5C739.0625,597.0833333333334,739.0625,618.6666666666666,739.0625,640.25C739.0625,661.8333333333334,739.0625,683.4166666666666,739.0625,705C739.0625,726.5833333333334,739.0625,748.1666666666666,739.0625,769.75C739.0625,791.3333333333334,739.0625,812.9166666666666,739.0625,834.5C739.0625,856.0833333333334,739.0625,877.6666666666666,739.0625,899.25C739.0625,920.8333333333334,739.0625,942.4166666666666,739.0625,964C739.0625,985.5833333333334,739.0625,1007.1666666666666,739.0625,1028.75C739.0625,1050.3333333333333,739.0625,1071.9166666666667,842.3958333333334,1092.4446588678445C945.7291666666666,1112.9726510690223,1152.3958333333333,1132.4453021380443,1255.7291666666667,1142.1816276725556L1359.0625,1151.9179532070666" id="edge9" class="transition" marker-end="url(#statediagram-barbEnd)"></path><path d="M1087.0731177606178,411.5L1078.5726502171815,417.25C1070.0721826737451,423,1053.0712475868725,434.5,1044.5707800434363,451.0416666666667C1036.0703125,467.5833333333333,1036.0703125,489.1666666666667,1036.0703125,510.75C1036.0703125,532.3333333333334,1036.0703125,553.9166666666666,1036.0703125,575.5C1036.0703125,597.0833333333334,1036.0703125,618.6666666666666,1036.0703125,640.25C1036.0703125,661.8333333333334,1036.0703125,683.4166666666666,1036.0703125,705C1036.0703125,726.5833333333334,1036.0703125,748.1666666666666,1036.0703125,769.75C1036.0703125,791.3333333333334,1036.0703125,812.9166666666666,1036.0703125,834.5C1036.0703125,856.0833333333334,1036.0703125,877.6666666666666,1036.0703125,899.25C1036.0703125,920.8333333333334,1036.0703125,942.4166666666666,1036.0703125,964C1036.0703125,985.5833333333334,1036.0703125,1007.1666666666666,1036.0703125,1028.75C1036.0703125,1050.3333333333333,1036.0703125,1071.9166666666667,1089.90234375,1091.6413571595422C1143.734375,1111.3660476524176,1251.3984375,1129.2320953048354,1305.23046875,1138.165119131044L1359.0625,1147.098142957253" id="edge10" class="transition" marker-end="url(#statediagram-barbEnd)"></path><path d="M2286.8306437017372,152.5L2278.056135376448,158.25C2269.281627051158,164,2251.7326104005792,175.5,2242.95810207529,189.20833333333334C2234.18359375,202.91666666666666,2234.18359375,218.83333333333334,2234.18359375,226.79166666666666L2234.18359375,234.75" id="edge11" class="transition" marker-end="url(#statediagram-barbEnd)"></path><path d="M2391.0303601592664,152.5L2402.062409507722,158.25C2413.0944588561774,164,2435.1585575530885,175.5,2446.1906069015445,189.20833333333334C2457.22265625,202.91666666666666,2457.22265625,218.83333333333334,2457.22265625,226.79166666666666L2457.22265625,234.75" id="edge12" class="transition" marker-end="url(#statediagram-barbEnd)"></path><path d="M2230.3984375,125.98657554804107L1951.1946614583333,136.15547962336757C1671.9908854166667,146.32438369869405,1113.5833333333333,166.662191849347,834.3795572916666,182.5810959246735C555.17578125,198.5,555.17578125,210,555.17578125,215.75L555.17578125,221.5" id="edge13" class="transition" marker-end="url(#statediagram-barbEnd)"></path><path d="M1975.01953125,651.1898034714326L1848.931640625,660.1581695595272C1722.84375,669.1265356476217,1470.66796875,687.0632678238109,1344.580078125,706.823300578572C1218.4921875,726.5833333333334,1218.4921875,748.1666666666666,1218.4921875,769.75C1218.4921875,791.3333333333334,1218.4921875,812.9166666666666,1218.4921875,834.5C1218.4921875,856.0833333333334,1218.4921875,877.6666666666666,1218.4921875,899.25C1218.4921875,920.8333333333334,1218.4921875,942.4166666666666,1218.4921875,964C1218.4921875,985.5833333333334,1218.4921875,1007.1666666666666,1218.4921875,1028.75C1218.4921875,1050.3333333333333,1218.4921875,1071.9166666666667,1244.0293345801158,1090.6666666666667C1269.5664816602318,1109.4166666666667,1320.6407758204634,1125.3333333333333,1346.1779229005792,1133.2916666666667L1371.715069980695,1141.25" id="edge14" class="transition" marker-end="url(#statediagram-barbEnd)"></path><path d="M1902.66796875,1042.6213260498166L1808.64453125,1051.1011050415138C1714.62109375,1059.580884033211,1526.57421875,1076.5404420166055,1443.334572574807,1092.9785543416363C1360.0949263996138,1109.4166666666667,1381.6625090492278,1125.3333333333333,1392.4463003740348,1133.2916666666667L1403.2300916988418,1141.25" id="edge15" class="transition" marker-end="url(#statediagram-barbEnd)"></path><path d="M1975.01953125,655.1081565036978L1888.943359375,663.4234637530816C1802.8671875,671.7387710024652,1630.71484375,688.3693855012326,1544.638671875,707.4763594172831C1458.5625,726.5833333333334,1458.5625,748.1666666666666,1458.5625,769.75C1458.5625,791.3333333333334,1458.5625,812.9166666666666,1458.5625,834.5C1458.5625,856.0833333333334,1458.5625,877.6666666666666,1458.5625,899.25C1458.5625,920.8333333333334,1458.5625,942.4166666666666,1458.5625,964C1458.5625,985.5833333333334,1458.5625,1007.1666666666666,1458.5625,1028.75C1458.5625,1050.3333333333333,1458.5625,1071.9166666666667,1454.592935569498,1090.6666666666667C1450.6233711389962,1109.4166666666667,1442.6842422779926,1125.3333333333333,1438.7146778474905,1133.2916666666667L1434.7451134169885,1141.25" id="edge16" class="transition" marker-end="url(#statediagram-barbEnd)"></path><path d="M1902.66796875,1050.65282133008L1852.521484375,1057.7940177750668C1802.375,1064.9352142200535,1702.08203125,1079.2176071100266,1630.3622028836871,1094.3171368883466C1558.6423745173745,1109.4166666666667,1515.4956865347492,1125.3333333333333,1493.9223425434363,1133.2916666666667L1472.3489985521235,1141.25" id="edge17" class="transition" marker-end="url(#statediagram-barbEnd)"></path><path d="M1975.01953125,666.1974479670246L1936.685546875,672.6645399725204C1898.3515625,679.1316319780163,1821.68359375,692.0658159890081,1783.349609375,709.3245746611707C1745.015625,726.5833333333334,1745.015625,748.1666666666666,1745.015625,769.75C1745.015625,791.3333333333334,1745.015625,812.9166666666666,1745.015625,834.5C1745.015625,856.0833333333334,1745.015625,877.6666666666666,1745.015625,899.25C1745.015625,920.8333333333334,1745.015625,942.4166666666666,1745.015625,964C1745.015625,985.5833333333334,1745.015625,1007.1666666666666,1745.015625,1028.75C1745.015625,1050.3333333333333,1745.015625,1071.9166666666667,1703.0911458333333,1091.2247569444444C1661.1666666666667,1110.5328472222222,1577.3177083333333,1127.5656944444445,1535.3932291666667,1136.0821180555556L1493.46875,1144.5985416666667" id="edge18" class="transition" marker-end="url(#statediagram-barbEnd)"></path><path d="M2056.47265625,1059L2056.47265625,1064.75C2056.47265625,1070.5,2056.47265625,1082,1962.638671875,1097.3908801980995C1868.8046875,1112.7817603961992,1681.13671875,1132.0635207923983,1587.302734375,1141.7044009904978L1493.46875,1151.3452811885975" id="edge19" class="transition" marker-end="url(#statediagram-barbEnd)"></path><path d="M2282.62890625,651.6975748513748L2401.9869791666665,660.5813123761458C2521.3450520833335,669.4650499009166,2760.0611979166665,687.2325249504584,2890.0041827541827,701.8662624752292C3019.947167591699,716.5,3041.1169914333973,728,3051.7019033542474,733.75L3062.2868152750966,739.5" id="edge20" class="transition" marker-end="url(#statediagram-barbEnd)"></path><path d="M2210.27734375,1034.0172098193073L2499.7643229166665,1043.931008182756C2789.2513020833335,1053.8448065462048,3368.2252604166665,1073.6724032731024,3657.7122395833335,1089.336201636551C3947.19921875,1105,3947.19921875,1116.5,3947.19921875,1122.25L3947.19921875,1128" id="edge21" class="transition" marker-end="url(#statediagram-barbEnd)"></path><path d="M2511.307824565637,541L2487.4114683880307,546.75C2463.515112210425,552.5,2415.722399855212,564,2391.826043677606,580.5416666666666C2367.9296875,597.0833333333334,2367.9296875,618.6666666666666,2367.9296875,640.25C2367.9296875,661.8333333333334,2367.9296875,683.4166666666666,2367.9296875,705C2367.9296875,726.5833333333334,2367.9296875,748.1666666666666,2367.9296875,769.75C2367.9296875,791.3333333333334,2367.9296875,812.9166666666666,2367.9296875,834.5C2367.9296875,856.0833333333334,2367.9296875,877.6666666666666,2367.9296875,899.25C2367.9296875,920.8333333333334,2367.9296875,942.4166666666666,2367.9296875,964C2367.9296875,985.5833333333334,2367.9296875,1007.1666666666666,2367.9296875,1028.75C2367.9296875,1050.3333333333333,2367.9296875,1071.9166666666667,2222.1861979166665,1092.7298381632693C2076.4427083333335,1113.5430096598718,1784.9557291666667,1133.5860193197436,1639.2122395833333,1143.6075241496794L1493.46875,1153.6290289796154" id="edge22" class="transition" marker-end="url(#statediagram-barbEnd)"></path><path d="M2983.13671875,783.9346992073213L2903.0266927083335,792.3622493394345C2822.9166666666665,800.7897994715476,2662.6966145833335,817.6448997357738,2582.5865885416665,836.8641165345535C2502.4765625,856.0833333333334,2502.4765625,877.6666666666666,2502.4765625,899.25C2502.4765625,920.8333333333334,2502.4765625,942.4166666666666,2502.4765625,964C2502.4765625,985.5833333333334,2502.4765625,1007.1666666666666,2502.4765625,1028.75C2502.4765625,1050.3333333333333,2502.4765625,1071.9166666666667,2334.30859375,1092.826123068733C2166.140625,1113.7355794707996,1829.8046875,1133.9711589415992,1661.63671875,1144.088948676999L1493.46875,1154.2067384123989" id="edge23" class="transition" marker-end="url(#statediagram-barbEnd)"></path><path d="M2502.1875,522.7880281690141L2403.7845052083335,531.5733568075117C2305.3815104166665,540.3586854460094,2108.5755208333335,557.9293427230047,2010.1725260416667,577.506338028169C1911.76953125,597.0833333333334,1911.76953125,618.6666666666666,1911.76953125,640.25C1911.76953125,661.8333333333334,1911.76953125,683.4166666666666,1911.76953125,705C1911.76953125,726.5833333333334,1911.76953125,748.1666666666666,1911.76953125,769.75C1911.76953125,791.3333333333334,1911.76953125,812.9166666666666,1911.76953125,834.5C1911.76953125,856.0833333333334,1911.76953125,877.6666666666666,1911.76953125,899.25C1911.76953125,920.8333333333334,1911.76953125,942.4166666666666,1924.6196157094594,958.9583333333334C1937.469700168919,975.5,1963.1698690878377,987,1976.0199535472973,992.75L1988.8700380067567,998.5" id="edge24" class="transition" marker-end="url(#statediagram-barbEnd)"></path><path d="M2983.13671875,777.9748016515545L2828.6927083333335,787.395668042962C2674.2486979166665,796.8165344343697,2365.3606770833335,815.6582672171849,2210.9166666666665,835.8708002752591C2056.47265625,856.0833333333334,2056.47265625,877.6666666666666,2056.47265625,899.25C2056.47265625,920.8333333333334,2056.47265625,942.4166666666666,2056.47265625,958.9583333333334C2056.47265625,975.5,2056.47265625,987,2056.47265625,992.75L2056.47265625,998.5" id="edge25" class="transition" marker-end="url(#statediagram-barbEnd)"></path><path d="M2876.1328125,910.0313074329376L2763.6399739583335,919.0260895274481C2651.1471354166665,928.0208716219585,2426.1614583333335,946.0104358109793,2300.8185353322074,960.7552179054896C2175.4756123310813,975.5,2149.775443412162,987,2136.925358952703,992.75L2124.0752744932433,998.5" id="edge26" class="transition" marker-end="url(#statediagram-barbEnd)"></path><path d="M2706.0476743484555,541L2719.1679838320465,546.75C2732.2882933156375,552.5,2758.5289122828185,564,2771.649221766409,580.5416666666666C2784.76953125,597.0833333333334,2784.76953125,618.6666666666666,2784.76953125,640.25C2784.76953125,661.8333333333334,2784.76953125,683.4166666666666,2784.76953125,705C2784.76953125,726.5833333333334,2784.76953125,748.1666666666666,2784.76953125,769.75C2784.76953125,791.3333333333334,2784.76953125,812.9166666666666,2804.856720559846,829.4583333333334C2824.943909869691,846,2865.1182884893824,857.5,2885.2054777992284,863.25L2905.2926671090736,869" id="edge27" class="transition" marker-end="url(#statediagram-barbEnd)"></path><path d="M3117.97265625,800L3117.97265625,805.75C3117.97265625,811.5,3117.97265625,823,3108.470378861004,834.5C3098.9681014720077,846,3079.963546694015,857.5,3070.461269305019,863.25L3060.958991916023,869" id="edge28" class="transition" marker-end="url(#statediagram-barbEnd)"></path><path d="M3145.8046875,883.1043805665512L3165.4361979166665,880.753650472126C3185.0677083333335,878.4029203777009,3224.3307291666665,873.7014601888504,3248.8701171875,871.3507300944252C3273.4095052083335,869,3283.2252604166665,869,3293.041015625,874.0416666666666C3302.8567708333335,879.0833333333334,3312.6725260416665,889.1666666666666,3312.6725260416665,899.25C3312.6725260416665,909.3333333333334,3302.8567708333335,919.4166666666666,3293.041015625,924.4583333333334C3283.2252604166665,929.5,3273.4095052083335,929.5,3248.8701171875,927.1492699055748C3224.3307291666665,924.7985398111496,3185.0677083333335,920.0970796222991,3165.4361979166665,917.7463495278739L3145.8046875,915.3956194334488" id="edge29" class="transition" marker-end="url(#statediagram-barbEnd)"></path><path d="M2771.859375,520.0955729547783L2905.0865885416665,529.3296441289818C3038.3138020833335,538.5637153031855,3304.7682291666665,557.0318576515928,3437.9954427083335,577.0575954924631C3571.22265625,597.0833333333334,3571.22265625,618.6666666666666,3571.22265625,640.25C3571.22265625,661.8333333333334,3571.22265625,683.4166666666666,3571.22265625,705C3571.22265625,726.5833333333334,3571.22265625,748.1666666666666,3571.22265625,769.75C3571.22265625,791.3333333333334,3571.22265625,812.9166666666666,3571.22265625,834.5C3571.22265625,856.0833333333334,3571.22265625,877.6666666666666,3571.22265625,899.25C3571.22265625,920.8333333333334,3571.22265625,942.4166666666666,3571.22265625,964C3571.22265625,985.5833333333334,3571.22265625,1007.1666666666666,3571.22265625,1028.75C3571.22265625,1050.3333333333333,3571.22265625,1071.9166666666667,3571.22265625,1093.5C3571.22265625,1115.0833333333333,3571.22265625,1136.6666666666667,3571.22265625,1158.25C3571.22265625,1179.8333333333333,3571.22265625,1201.4166666666667,3588.663247117718,1217.9583333333333C3606.1038379854367,1234.5,3640.985019720874,1246,3658.425610588592,1251.75L3675.8662014563106,1257.5" id="edge30" class="transition" marker-end="url(#statediagram-barbEnd)"></path><path d="M3252.80859375,785.6491613077624L3321.8567708333335,793.7909677564686C3390.9049479166665,801.932774205175,3529.0013020833335,818.2163871025874,3598.0494791666665,837.1498602179604C3667.09765625,856.0833333333334,3667.09765625,877.6666666666666,3667.09765625,899.25C3667.09765625,920.8333333333334,3667.09765625,942.4166666666666,3667.09765625,964C3667.09765625,985.5833333333334,3667.09765625,1007.1666666666666,3667.09765625,1028.75C3667.09765625,1050.3333333333333,3667.09765625,1071.9166666666667,3667.09765625,1093.5C3667.09765625,1115.0833333333333,3667.09765625,1136.6666666666667,3667.09765625,1158.25C3667.09765625,1179.8333333333333,3667.09765625,1201.4166666666667,3673.8337568264565,1217.9583333333333C3680.5698574029125,1234.5,3694.0420585558254,1246,3700.778159132282,1251.75L3707.514259708738,1257.5" id="edge31" class="transition" marker-end="url(#statediagram-barbEnd)"></path><path d="M3145.8046875,910.8598159604805L3248.666015625,919.7165133004005C3351.52734375,928.5732106403203,3557.25,946.2866053201602,3660.111328125,965.9349693267468C3762.97265625,985.5833333333334,3762.97265625,1007.1666666666666,3762.97265625,1028.75C3762.97265625,1050.3333333333333,3762.97265625,1071.9166666666667,3762.97265625,1093.5C3762.97265625,1115.0833333333333,3762.97265625,1136.6666666666667,3762.97265625,1158.25C3762.97265625,1179.8333333333333,3762.97265625,1201.4166666666667,3759.004266535194,1217.9583333333333C3755.0358768203882,1234.5,3747.099097390777,1246,3743.130707675971,1251.75L3739.162317961165,1257.5" id="edge32" class="transition" marker-end="url(#statediagram-barbEnd)"></path><path d="M3947.19921875,1188.5L3947.19921875,1194.25C3947.19921875,1200,3947.19921875,1211.5,3922.661843901699,1223C3898.124469053398,1234.5,3849.049719356796,1246,3824.512344508495,1251.75L3799.9749696601943,1257.5" id="edge33" class="transition" marker-end="url(#statediagram-barbEnd)"></path><path d="M2637.0234375,541L2637.0234375,546.75C2637.0234375,552.5,2637.0234375,564,2637.0234375,580.5416666666666C2637.0234375,597.0833333333334,2637.0234375,618.6666666666666,2637.0234375,640.25C2637.0234375,661.8333333333334,2637.0234375,683.4166666666666,2637.0234375,705C2637.0234375,726.5833333333334,2637.0234375,748.1666666666666,2637.0234375,769.75C2637.0234375,791.3333333333334,2637.0234375,812.9166666666666,2637.0234375,834.5C2637.0234375,856.0833333333334,2637.0234375,877.6666666666666,2637.0234375,899.25C2637.0234375,920.8333333333334,2637.0234375,942.4166666666666,2637.0234375,964C2637.0234375,985.5833333333334,2637.0234375,1007.1666666666666,2637.0234375,1028.75C2637.0234375,1050.3333333333333,2637.0234375,1071.9166666666667,2446.4309895833335,1092.9010084292079C2255.8385416666665,1113.885350191749,1874.6536458333333,1134.2707003834978,1684.0611979166667,1144.4633754793722L1493.46875,1154.6560505752466" id="edge34" class="transition" marker-end="url(#statediagram-barbEnd)"></path><path d="M3252.80859375,796.1926730869338L3285.3645833333335,802.5772275724448C3317.9205729166665,808.9617820579559,3383.0325520833335,821.7308910289779,3415.5885416666665,838.9071121811556C3448.14453125,856.0833333333334,3448.14453125,877.6666666666666,3448.14453125,899.25C3448.14453125,920.8333333333334,3448.14453125,942.4166666666666,3448.14453125,964C3448.14453125,985.5833333333334,3448.14453125,1007.1666666666666,3448.14453125,1028.75C3448.14453125,1050.3333333333333,3448.14453125,1071.9166666666667,3122.365234375,1093.1413070428123C2796.5859375,1114.3659474189578,2145.02734375,1135.2318948379157,1819.248046875,1145.6648685473945L1493.46875,1156.0978422568735" id="edge35" class="transition" marker-end="url(#statediagram-barbEnd)"></path><path d="M2502.1875,527.9295363530849L2439.9602864583335,535.8579469609041C2377.7330729166665,543.7863575687232,2253.2786458333335,559.6431787843617,2191.0514322916665,573.3215893921808C2128.82421875,587,2128.82421875,598.5,2128.82421875,604.25L2128.82421875,610" id="edge36" class="transition" marker-end="url(#statediagram-barbEnd)"></path><path d="M3176.89226894305,739.5L3188.0918647442086,733.75C3199.2914605453666,728,3221.6906521476835,716.5,3072.6467583655085,701.4465966511156C2923.6028645833335,686.3931933022309,2603.1158854166665,667.7863866044618,2442.8723958333335,658.4829832555772L2282.62890625,649.1795799066927" id="edge37" class="transition" marker-end="url(#statediagram-barbEnd)"></path><path d="M2771.859375,529.0521519992794L2828.8912760416665,536.7934599993995C2885.9231770833335,544.5347679995197,2999.9869791666665,560.0173839997598,3057.0188802083335,578.5503586665466C3114.05078125,597.0833333333334,3114.05078125,618.6666666666666,3114.05078125,640.25C3114.05078125,661.8333333333334,3114.05078125,683.4166666666666,3114.3990558639,699.9583333333334C3114.7473304777996,716.5,3115.4438797055986,728,3115.7921543194984,733.75L3116.1404289333977,739.5" id="edge38" class="transition" marker-end="url(#statediagram-barbEnd)"></path><path d="M3252.80859375,751.4031264276259L3267.3884548611113,749.4192720230216C3281.968315972222,747.4354176184173,3311.128038194444,743.4677088092086,3329.3528645833326,741.4838544046042C3347.577690972222,739.5,3354.867621527778,739.5,3362.1575520833335,744.5416666666666C3369.447482638889,749.5833333333334,3376.737413194445,759.6666666666666,3376.737413194444,769.75C3376.737413194445,779.8333333333334,3369.447482638889,789.9166666666666,3362.157552083334,794.9583333333334C3354.867621527778,800,3347.577690972222,800,3329.3528645833335,798.0161455953958C3311.128038194444,796.0322911907914,3281.968315972222,792.0645823815827,3267.388454861111,790.0807279769784L3252.80859375,788.0968735723741" id="edge39" class="transition" marker-end="url(#statediagram-barbEnd)"></path></g><g class="edgeLabels"><g class="edgeLabel"><g class="label" transform="translate(0, 0)"><rect rx="0" ry="0" width="0" height="0" style="fill:#e8e8e8;"></rect><text style=""></text></g></g><g class="edgeLabel" transform="translate(2530.609375, 122.25)"><g class="label" transform="translate(-60.0234375, -9.5)"><rect rx="0" ry="0" width="119.984375" height="19.03125" style="fill:#e8e8e8;"></rect><text style=""><tspan xml:space="preserve" dy="1em" x="0" class="row">ClientEventOpen</tspan></text></g></g><g class="edgeLabel" transform="translate(136.1484375, 769.75)"><g class="label" transform="translate(-128.1484375, -9.5)"><rect rx="0" ry="0" width="256.140625" height="19.03125" style="fill:#e8e8e8;"></rect><text style=""><tspan xml:space="preserve" dy="1em" x="0" class="row">ClientEventPaymentChannelErrored</tspan></text></g></g><g class="edgeLabel" transform="translate(284.296875, 705)"><g class="label" transform="translate(-128.1484375, -9.5)"><rect rx="0" ry="0" width="256.140625" height="19.03125" style="fill:#e8e8e8;"></rect><text style=""><tspan xml:space="preserve" dy="1em" x="0" class="row">ClientEventPaymentChannelErrored</tspan></text></g></g><g class="edgeLabel" transform="translate(657.97265625, 316.5)"><g class="label" transform="translate(-155.9453125, -9.5)"><rect rx="0" ry="0" width="311.703125" height="19.03125" style="fill:#e8e8e8;"></rect><text style=""><tspan xml:space="preserve" dy="1em" x="0" class="row">ClientEventPaymentChannelCreateInitiated</tspan></text></g></g><g class="edgeLabel" transform="translate(1131.79296875, 316.5)"><g class="label" transform="translate(-146.359375, -9.5)"><rect rx="0" ry="0" width="292.546875" height="19.03125" style="fill:#e8e8e8;"></rect><text style=""><tspan xml:space="preserve" dy="1em" x="0" class="row">ClientEventPaymentChannelAddingFunds</tspan></text></g></g><g class="edgeLabel" transform="translate(1610.5625, 446)"><g class="label" transform="translate(-123.046875, -9.5)"><rect rx="0" ry="0" width="245.953125" height="19.03125" style="fill:#e8e8e8;"></rect><text style=""><tspan xml:space="preserve" dy="1em" x="0" class="row">ClientEventPaymentChannelReady</tspan></text></g></g><g class="edgeLabel" transform="translate(2773.69140625, 446)"><g class="label" transform="translate(-123.046875, -9.5)"><rect rx="0" ry="0" width="245.953125" height="19.03125" style="fill:#e8e8e8;"></rect><text style=""><tspan xml:space="preserve" dy="1em" x="0" class="row">ClientEventPaymentChannelReady</tspan></text></g></g><g class="edgeLabel" transform="translate(489.890625, 769.75)"><g class="label" transform="translate(-114.5859375, -9.5)"><rect rx="0" ry="0" width="229.03125" height="19.03125" style="fill:#e8e8e8;"></rect><text style=""><tspan xml:space="preserve" dy="1em" x="0" class="row">ClientEventAllocateLaneErrored</tspan></text></g></g><g class="edgeLabel" transform="translate(739.0625, 769.75)"><g class="label" transform="translate(-114.5859375, -9.5)"><rect rx="0" ry="0" width="229.03125" height="19.03125" style="fill:#e8e8e8;"></rect><text style=""><tspan xml:space="preserve" dy="1em" x="0" class="row">ClientEventAllocateLaneErrored</tspan></text></g></g><g class="edgeLabel" transform="translate(1036.0703125, 769.75)"><g class="label" transform="translate(-162.421875, -9.5)"><rect rx="0" ry="0" width="324.640625" height="19.03125" style="fill:#e8e8e8;"></rect><text style=""><tspan xml:space="preserve" dy="1em" x="0" class="row">ClientEventPaymentChannelAddFundsErrored</tspan></text></g></g><g class="edgeLabel" transform="translate(2234.18359375, 187)"><g class="label" transform="translate(-89.546875, -9.5)"><rect rx="0" ry="0" width="178.984375" height="19.03125" style="fill:#e8e8e8;"></rect><text style=""><tspan xml:space="preserve" dy="1em" x="0" class="row">ClientEventDealRejected</tspan></text></g></g><g class="edgeLabel" transform="translate(2457.22265625, 187)"><g class="label" transform="translate(-91.5390625, -9.5)"><rect rx="0" ry="0" width="182.96875" height="19.03125" style="fill:#e8e8e8;"></rect><text style=""><tspan xml:space="preserve" dy="1em" x="0" class="row">ClientEventDealNotFound</tspan></text></g></g><g class="edgeLabel" transform="translate(555.17578125, 187)"><g class="label" transform="translate(-90.7265625, -9.5)"><rect rx="0" ry="0" width="181.34375" height="19.03125" style="fill:#e8e8e8;"></rect><text style=""><tspan xml:space="preserve" dy="1em" x="0" class="row">ClientEventDealAccepted</tspan></text></g></g><g class="edgeLabel" transform="translate(1218.4921875, 899.25)"><g class="label" transform="translate(-96.84375, -9.5)"><rect rx="0" ry="0" width="193.5625" height="19.03125" style="fill:#e8e8e8;"></rect><text style=""><tspan xml:space="preserve" dy="1em" x="0" class="row">ClientEventFundsExpended</tspan></text></g></g><g class="edgeLabel" transform="translate(1338.52734375, 1093.5)"><g class="label" transform="translate(-96.84375, -9.5)"><rect rx="0" ry="0" width="193.5625" height="19.03125" style="fill:#e8e8e8;"></rect><text style=""><tspan xml:space="preserve" dy="1em" x="0" class="row">ClientEventFundsExpended</tspan></text></g></g><g class="edgeLabel" transform="translate(1458.5625, 899.25)"><g class="label" transform="translate(-123.2265625, -9.5)"><rect rx="0" ry="0" width="246.3125" height="19.03125" style="fill:#e8e8e8;"></rect><text style=""><tspan xml:space="preserve" dy="1em" x="0" class="row">ClientEventBadPaymentRequested</tspan></text></g></g><g class="edgeLabel" transform="translate(1601.7890625, 1093.5)"><g class="label" transform="translate(-123.2265625, -9.5)"><rect rx="0" ry="0" width="246.3125" height="19.03125" style="fill:#e8e8e8;"></rect><text style=""><tspan xml:space="preserve" dy="1em" x="0" class="row">ClientEventBadPaymentRequested</tspan></text></g></g><g class="edgeLabel" transform="translate(1745.015625, 899.25)"><g class="label" transform="translate(-116.46875, -9.5)"><rect rx="0" ry="0" width="232.796875" height="19.03125" style="fill:#e8e8e8;"></rect><text style=""><tspan xml:space="preserve" dy="1em" x="0" class="row">ClientEventCreateVoucherFailed</tspan></text></g></g><g class="edgeLabel" transform="translate(2056.47265625, 1093.5)"><g class="label" transform="translate(-116.46875, -9.5)"><rect rx="0" ry="0" width="232.796875" height="19.03125" style="fill:#e8e8e8;"></rect><text style=""><tspan xml:space="preserve" dy="1em" x="0" class="row">ClientEventCreateVoucherFailed</tspan></text></g></g><g class="edgeLabel" transform="translate(2998.77734375, 705)"><g class="label" transform="translate(-88.3515625, -9.5)"><rect rx="0" ry="0" width="176.59375" height="19.03125" style="fill:#e8e8e8;"></rect><text style=""><tspan xml:space="preserve" dy="1em" x="0" class="row">ClientEventPaymentSent</tspan></text></g></g><g class="edgeLabel" transform="translate(3947.19921875, 1093.5)"><g class="label" transform="translate(-88.3515625, -9.5)"><rect rx="0" ry="0" width="176.59375" height="19.03125" style="fill:#e8e8e8;"></rect><text style=""><tspan xml:space="preserve" dy="1em" x="0" class="row">ClientEventPaymentSent</tspan></text></g></g><g class="edgeLabel" transform="translate(2367.9296875, 834.5)"><g class="label" transform="translate(-114.546875, -9.5)"><rect rx="0" ry="0" width="228.953125" height="19.03125" style="fill:#e8e8e8;"></rect><text style=""><tspan xml:space="preserve" dy="1em" x="0" class="row">ClientEventConsumeBlockFailed</tspan></text></g></g><g class="edgeLabel" transform="translate(2502.4765625, 964)"><g class="label" transform="translate(-114.546875, -9.5)"><rect rx="0" ry="0" width="228.953125" height="19.03125" style="fill:#e8e8e8;"></rect><text style=""><tspan xml:space="preserve" dy="1em" x="0" class="row">ClientEventConsumeBlockFailed</tspan></text></g></g><g class="edgeLabel" transform="translate(1911.76953125, 769.75)"><g class="label" transform="translate(-124.703125, -9.5)"><rect rx="0" ry="0" width="249.265625" height="19.03125" style="fill:#e8e8e8;"></rect><text style=""><tspan xml:space="preserve" dy="1em" x="0" class="row">ClientEventLastPaymentRequested</tspan></text></g></g><g class="edgeLabel" transform="translate(2056.47265625, 899.25)"><g class="label" transform="translate(-124.703125, -9.5)"><rect rx="0" ry="0" width="249.265625" height="19.03125" style="fill:#e8e8e8;"></rect><text style=""><tspan xml:space="preserve" dy="1em" x="0" class="row">ClientEventLastPaymentRequested</tspan></text></g></g><g class="edgeLabel" transform="translate(2201.17578125, 964)"><g class="label" transform="translate(-124.703125, -9.5)"><rect rx="0" ry="0" width="249.265625" height="19.03125" style="fill:#e8e8e8;"></rect><text style=""><tspan xml:space="preserve" dy="1em" x="0" class="row">ClientEventLastPaymentRequested</tspan></text></g></g><g class="edgeLabel" transform="translate(2784.76953125, 705)"><g class="label" transform="translate(-105.65625, -9.5)"><rect rx="0" ry="0" width="211.1875" height="19.03125" style="fill:#e8e8e8;"></rect><text style=""><tspan xml:space="preserve" dy="1em" x="0" class="row">ClientEventAllBlocksReceived</tspan></text></g></g><g class="edgeLabel" transform="translate(3117.97265625, 834.5)"><g class="label" transform="translate(-105.65625, -9.5)"><rect rx="0" ry="0" width="211.1875" height="19.03125" style="fill:#e8e8e8;"></rect><text style=""><tspan xml:space="preserve" dy="1em" x="0" class="row">ClientEventAllBlocksReceived</tspan></text></g></g><g class="edgeLabel" transform="translate(3322.48828125, 899.25)"><g class="label" transform="translate(-105.65625, -9.5)"><rect rx="0" ry="0" width="211.1875" height="19.03125" style="fill:#e8e8e8;"></rect><text style=""><tspan xml:space="preserve" dy="1em" x="0" class="row">ClientEventAllBlocksReceived</tspan></text></g></g><g class="edgeLabel" transform="translate(3571.22265625, 899.25)"><g class="label" transform="translate(-75.875, -9.5)"><rect rx="0" ry="0" width="151.65625" height="19.03125" style="fill:#e8e8e8;"></rect><text style=""><tspan xml:space="preserve" dy="1em" x="0" class="row">ClientEventComplete</tspan></text></g></g><g class="edgeLabel" transform="translate(3667.09765625, 1028.75)"><g class="label" transform="translate(-75.875, -9.5)"><rect rx="0" ry="0" width="151.65625" height="19.03125" style="fill:#e8e8e8;"></rect><text style=""><tspan xml:space="preserve" dy="1em" x="0" class="row">ClientEventComplete</tspan></text></g></g><g class="edgeLabel" transform="translate(3762.97265625, 1093.5)"><g class="label" transform="translate(-75.875, -9.5)"><rect rx="0" ry="0" width="151.65625" height="19.03125" style="fill:#e8e8e8;"></rect><text style=""><tspan xml:space="preserve" dy="1em" x="0" class="row">ClientEventComplete</tspan></text></g></g><g class="edgeLabel" transform="translate(3947.19921875, 1223)"><g class="label" transform="translate(-75.875, -9.5)"><rect rx="0" ry="0" width="151.65625" height="19.03125" style="fill:#e8e8e8;"></rect><text style=""><tspan xml:space="preserve" dy="1em" x="0" class="row">ClientEventComplete</tspan></text></g></g><g class="edgeLabel" transform="translate(2637.0234375, 834.5)"><g class="label" transform="translate(-103.078125, -9.5)"><rect rx="0" ry="0" width="206.03125" height="19.03125" style="fill:#e8e8e8;"></rect><text style=""><tspan xml:space="preserve" dy="1em" x="0" class="row">ClientEventEarlyTermination</tspan></text></g></g><g class="edgeLabel" transform="translate(3448.14453125, 964)"><g class="label" transform="translate(-103.078125, -9.5)"><rect rx="0" ry="0" width="206.03125" height="19.03125" style="fill:#e8e8e8;"></rect><text style=""><tspan xml:space="preserve" dy="1em" x="0" class="row">ClientEventEarlyTermination</tspan></text></g></g><g class="edgeLabel" transform="translate(2128.82421875, 575.5)"><g class="label" transform="translate(-110.0390625, -9.5)"><rect rx="0" ry="0" width="219.953125" height="19.03125" style="fill:#e8e8e8;"></rect><text style=""><tspan xml:space="preserve" dy="1em" x="0" class="row">ClientEventPaymentRequested</tspan></text></g></g><g class="edgeLabel" transform="translate(3244.08984375, 705)"><g class="label" transform="translate(-110.0390625, -9.5)"><rect rx="0" ry="0" width="219.953125" height="19.03125" style="fill:#e8e8e8;"></rect><text style=""><tspan xml:space="preserve" dy="1em" x="0" class="row">ClientEventPaymentRequested</tspan></text></g></g><g class="edgeLabel" transform="translate(3114.05078125, 640.25)"><g class="label" transform="translate(-96.21875, -9.5)"><rect rx="0" ry="0" width="192.328125" height="19.03125" style="fill:#e8e8e8;"></rect><text style=""><tspan xml:space="preserve" dy="1em" x="0" class="row">ClientEventBlocksReceived</tspan></text></g></g><g class="edgeLabel" transform="translate(3384.02734375, 769.75)"><g class="label" transform="translate(-96.21875, -9.5)"><rect rx="0" ry="0" width="192.328125" height="19.03125" style="fill:#e8e8e8;"></rect><text style=""><tspan xml:space="preserve" dy="1em" x="0" class="row">ClientEventBlocksReceived</tspan></text></g></g></g><g class="nodes"><g class="node statediagram-state" id="0" transform="translate(2332.9921875, 122.25)"><rect class="outer title-state" x="-102.59375" y="-30.25" width="205.1875" height="60.5"></rect><line class="divider" x1="-102.59375" x2="102.59375" y1="-3.75" y2="-3.75"></line><g class="label" transform="translate(-95.09375, -27.25)"><text style=""><tspan xml:space="preserve" dy="1em" x="0" class="title-row">DealStatusNew</tspan></text><text style="" transform="translate( 0, 26.5)"><tspan xml:space="preserve" dy="1em" x="0" class="title-row">On entry runs ProposeDeal</tspan></text></g></g><g class="node statediagram-state" id="1" transform="translate(657.97265625, 381.25)"><rect class="outer title-state" x="-170.59375" y="-30.25" width="341.1875" height="60.5"></rect><line class="divider" x1="-170.59375" x2="170.59375" y1="-3.75" y2="-3.75"></line><g class="label" transform="translate(-163.09375, -27.25)"><text style=""><tspan xml:space="preserve" dy="1em" x="0" class="title-row">DealStatusPaymentChannelCreating</tspan></text><text style="" transform="translate( 0, 26.5)"><tspan xml:space="preserve" dy="1em" x="0" class="title-row">On entry runs WaitForPaymentChannelCreate</tspan></text></g></g><g class="node statediagram-state" id="2" transform="translate(1131.79296875, 381.25)"><rect class="outer title-state" x="-180.8671875" y="-30.25" width="361.734375" height="60.5"></rect><line class="divider" x1="-180.8671875" x2="180.8671875" y1="-3.75" y2="-3.75"></line><g class="label" transform="translate(-173.3671875, -27.25)"><text style=""><tspan xml:space="preserve" dy="1em" x="0" class="title-row">DealStatusPaymentChannelAddingFunds</tspan></text><text style="" transform="translate( 0, 26.5)"><tspan xml:space="preserve" dy="1em" x="0" class="title-row">On entry runs WaitForPaymentChannelAddFunds</tspan></text></g></g><g class="node statediagram-state" id="4" transform="translate(2637.0234375, 510.75)"><rect class="outer title-state" x="-134.8359375" y="-30.25" width="269.671875" height="60.5"></rect><line class="divider" x1="-134.8359375" x2="134.8359375" y1="-3.75" y2="-3.75"></line><g class="label" transform="translate(-127.3359375, -27.25)"><text style=""><tspan xml:space="preserve" dy="1em" x="0" class="title-row">DealStatusPaymentChannelReady</tspan></text><text style="" transform="translate( 0, 26.5)"><tspan xml:space="preserve" dy="1em" x="0" class="title-row">On entry runs ProcessNextResponse</tspan></text></g></g><g class="node statediagram-state" id="6" transform="translate(555.17578125, 251.75)"><rect class="outer title-state" x="-156.2421875" y="-30.25" width="312.484375" height="60.5"></rect><line class="divider" x1="-156.2421875" x2="156.2421875" y1="-3.75" y2="-3.75"></line><g class="label" transform="translate(-148.7421875, -27.25)"><text style=""><tspan xml:space="preserve" dy="1em" x="0" class="title-row">DealStatusAccepted</tspan></text><text style="" transform="translate( 0, 26.5)"><tspan xml:space="preserve" dy="1em" x="0" class="title-row">On entry runs SetupPaymentChannelStart</tspan></text></g></g><g class="node statediagram-state" id="7" transform="translate(1426.265625, 1158.25)"><rect class="outer title-state" x="-67.203125" y="-17" width="134.40625" height="34"></rect><line class="divider" x1="-67.203125" x2="67.203125" y1="9.5" y2="9.5"></line><g class="label" transform="translate(-59.703125, -14)"><text style=""><tspan xml:space="preserve" dy="1em" x="0" class="title-row">DealStatusFailed</tspan></text><text style="" transform="translate( 0, 26.5)"><tspan xml:space="preserve" dy="1em" x="0" class="title-row"></tspan></text></g></g><g class="node statediagram-state" id="8" transform="translate(2234.18359375, 251.75)"><rect class="outer title-state" x="-77.609375" y="-17" width="155.21875" height="34"></rect><line class="divider" x1="-77.609375" x2="77.609375" y1="9.5" y2="9.5"></line><g class="label" transform="translate(-70.109375, -14)"><text style=""><tspan xml:space="preserve" dy="1em" x="0" class="title-row">DealStatusRejected</tspan></text><text style="" transform="translate( 0, 26.5)"><tspan xml:space="preserve" dy="1em" x="0" class="title-row"></tspan></text></g></g><g class="node statediagram-state" id="9" transform="translate(2128.82421875, 640.25)"><rect class="outer title-state" x="-153.8046875" y="-30.25" width="307.609375" height="60.5"></rect><line class="divider" x1="-153.8046875" x2="153.8046875" y1="-3.75" y2="-3.75"></line><g class="label" transform="translate(-146.3046875, -27.25)"><text style=""><tspan xml:space="preserve" dy="1em" x="0" class="title-row">DealStatusFundsNeeded</tspan></text><text style="" transform="translate( 0, 26.5)"><tspan xml:space="preserve" dy="1em" x="0" class="title-row">On entry runs ProcessPaymentRequested</tspan></text></g></g><g class="node statediagram-state" id="10" transform="translate(3117.97265625, 769.75)"><rect class="outer title-state" x="-134.8359375" y="-30.25" width="269.671875" height="60.5"></rect><line class="divider" x1="-134.8359375" x2="134.8359375" y1="-3.75" y2="-3.75"></line><g class="label" transform="translate(-127.3359375, -27.25)"><text style=""><tspan xml:space="preserve" dy="1em" x="0" class="title-row">DealStatusOngoing</tspan></text><text style="" transform="translate( 0, 26.5)"><tspan xml:space="preserve" dy="1em" x="0" class="title-row">On entry runs ProcessNextResponse</tspan></text></g></g><g class="node statediagram-state" id="11" transform="translate(2056.47265625, 1028.75)"><rect class="outer title-state" x="-153.8046875" y="-30.25" width="307.609375" height="60.5"></rect><line class="divider" x1="-153.8046875" x2="153.8046875" y1="-3.75" y2="-3.75"></line><g class="label" transform="translate(-146.3046875, -27.25)"><text style=""><tspan xml:space="preserve" dy="1em" x="0" class="title-row">DealStatusFundsNeededLastPayment</tspan></text><text style="" transform="translate( 0, 26.5)"><tspan xml:space="preserve" dy="1em" x="0" class="title-row">On entry runs ProcessPaymentRequested</tspan></text></g></g><g class="node statediagram-state" id="12" transform="translate(3727.4296875, 1274.5)"><rect class="outer title-state" x="-84.2265625" y="-17" width="168.453125" height="34"></rect><line class="divider" x1="-84.2265625" x2="84.2265625" y1="9.5" y2="9.5"></line><g class="label" transform="translate(-76.7265625, -14)"><text style=""><tspan xml:space="preserve" dy="1em" x="0" class="title-row">DealStatusCompleted</tspan></text><text style="" transform="translate( 0, 26.5)"><tspan xml:space="preserve" dy="1em" x="0" class="title-row"></tspan></text></g></g><g class="node statediagram-state" id="13" transform="translate(2457.22265625, 251.75)"><rect class="outer title-state" x="-95.4296875" y="-17" width="190.859375" height="34"></rect><line class="divider" x1="-95.4296875" x2="95.4296875" y1="9.5" y2="9.5"></line><g class="label" transform="translate(-87.9296875, -14)"><text style=""><tspan xml:space="preserve" dy="1em" x="0" class="title-row">DealStatusDealNotFound</tspan></text><text style="" transform="translate( 0, 26.5)"><tspan xml:space="preserve" dy="1em" x="0" class="title-row"></tspan></text></g></g><g class="node statediagram-state" id="15" transform="translate(2203.9296875, 25)"><rect class="outer title-state" x="-72.0625" y="-17" width="144.125" height="34"></rect><line class="divider" x1="-72.0625" x2="72.0625" y1="9.5" y2="9.5"></line><g class="label" transform="translate(-64.5625, -14)"><text style=""><tspan xml:space="preserve" dy="1em" x="0" class="title-row">DealStatusErrored</tspan></text><text style="" transform="translate( 0, 26.5)"><tspan xml:space="preserve" dy="1em" x="0" class="title-row"></tspan></text></g></g><g class="node statediagram-state" id="16" transform="translate(3010.96875, 899.25)"><rect class="outer title-state" x="-134.8359375" y="-30.25" width="269.671875" height="60.5"></rect><line class="divider" x1="-134.8359375" x2="134.8359375" y1="-3.75" y2="-3.75"></line><g class="label" transform="translate(-127.3359375, -27.25)"><text style=""><tspan xml:space="preserve" dy="1em" x="0" class="title-row">DealStatusBlocksComplete</tspan></text><text style="" transform="translate( 0, 26.5)"><tspan xml:space="preserve" dy="1em" x="0" class="title-row">On entry runs ProcessNextResponse</tspan></text></g></g><g class="node statediagram-state" id="17" transform="translate(3947.19921875, 1158.25)"><rect class="outer title-state" x="-86.3984375" y="-30.25" width="172.796875" height="60.5"></rect><line class="divider" x1="-86.3984375" x2="86.3984375" y1="-3.75" y2="-3.75"></line><g class="label" transform="translate(-78.8984375, -27.25)"><text style=""><tspan xml:space="preserve" dy="1em" x="0" class="title-row">DealStatusFinalizing</tspan></text><text style="" transform="translate( 0, 26.5)"><tspan xml:space="preserve" dy="1em" x="0" class="title-row">On entry runs Finalize</tspan></text></g></g><g class="node default" id="root_start" transform="translate(2332.9921875, 25)"><circle class="state-start" r="7" width="14" height="14"></circle></g></g></g></g></svg>