<svg id="mermaid-1595448135640" width="1843.85546875" xmlns="http://www.w3.org/2000/svg" class="statediagram" height="1223.5" viewBox="0 0 1843.85546875 1223.5"><style>#mermaid-1595448135640 .label{font-family:'trebuchet ms', verdana, arial;font-family:var(--mermaid-font-family);color:#333}#mermaid-1595448135640 .label text{fill:#333}#mermaid-1595448135640 .node rect,#mermaid-1595448135640 .node circle,#mermaid-1595448135640 .node ellipse,#mermaid-1595448135640 .node polygon,#mermaid-1595448135640 .node path{fill:#ECECFF;stroke:#9370db;stroke-width:1px}#mermaid-1595448135640 .node .label{text-align:center}#mermaid-1595448135640 .node.clickable{cursor:pointer}#mermaid-1595448135640 .arrowheadPath{fill:#333}#mermaid-1595448135640 .edgePath .path{stroke:#333;stroke-width:1.5px}#mermaid-1595448135640 .edgeLabel{background-color:#e8e8e8;text-align:center}#mermaid-1595448135640 .edgeLabel rect{opacity:0.5}#mermaid-1595448135640 .cluster rect{fill:#ffffde;stroke:#aa3;stroke-width:1px}#mermaid-1595448135640 .cluster text{fill:#333}#mermaid-1595448135640 div.mermaidTooltip{position:absolute;text-align:center;max-width:200px;padding:2px;font-family:'trebuchet ms', verdana, arial;font-family:var(--mermaid-font-family);font-size:12px;background:#ffffde;border:1px solid #aa3;border-radius:2px;pointer-events:none;z-index:100}#mermaid-1595448135640 .actor{stroke:#ccf;fill:#ECECFF}#mermaid-1595448135640 text.actor{fill:#000;stroke:none}#mermaid-1595448135640 .actor-line{stroke:grey}#mermaid-1595448135640 .messageLine0{stroke-width:1.5;stroke-dasharray:'2 2';stroke:#333}#mermaid-1595448135640 .messageLine1{stroke-width:1.5;stroke-dasharray:'2 2';stroke:#333}#mermaid-1595448135640 #arrowhead{fill:#333}#mermaid-1595448135640 .sequenceNumber{fill:#fff}#mermaid-1595448135640 #sequencenumber{fill:#333}#mermaid-1595448135640 #crosshead path{fill:#333 !important;stroke:#333 !important}#mermaid-1595448135640 .messageText{fill:#333;stroke:none}#mermaid-1595448135640 .labelBox{stroke:#ccf;fill:#ECECFF}#mermaid-1595448135640 .labelText{fill:#000;stroke:none}#mermaid-1595448135640 .loopText{fill:#000;stroke:none}#mermaid-1595448135640 .loopLine{stroke-width:2;stroke-dasharray:'2 2';stroke:#ccf}#mermaid-1595448135640 .note{stroke:#aa3;fill:#fff5ad}#mermaid-1595448135640 .noteText{fill:black;stroke:none;font-family:'trebuchet ms', verdana, arial;font-family:var(--mermaid-font-family);font-size:14px}#mermaid-1595448135640 .activation0{fill:#f4f4f4;stroke:#666}#mermaid-1595448135640 .activation1{fill:#f4f4f4;stroke:#666}#mermaid-1595448135640 .activation2{fill:#f4f4f4;stroke:#666}#mermaid-1595448135640 .mermaid-main-font{font-family:"trebuchet ms", verdana, arial;font-family:var(--mermaid-font-family)}#mermaid-1595448135640 .section{stroke:none;opacity:0.2}#mermaid-1595448135640 .section0{fill:rgba(102,102,255,0.49)}#mermaid-1595448135640 .section2{fill:#fff400}#mermaid-1595448135640 .section1,#mermaid-1595448135640 .section3{fill:#fff;opacity:0.2}#mermaid-1595448135640 .sectionTitle0{fill:#333}#mermaid-1595448135640 .sectionTitle1{fill:#333}#mermaid-1595448135640 .sectionTitle2{fill:#333}#mermaid-1595448135640 .sectionTitle3{fill:#333}#mermaid-1595448135640 .sectionTitle{text-anchor:start;font-size:11px;text-height:14px;font-family:'trebuchet ms', verdana, arial;font-family:var(--mermaid-font-family)}#mermaid-1595448135640 .grid .tick{stroke:#d3d3d3;opacity:0.8;shape-rendering:crispEdges}#mermaid-1595448135640 .grid .tick text{font-family:'trebuchet ms', verdana, arial;font-family:var(--mermaid-font-family)}#mermaid-1595448135640 .grid path{stroke-width:0}#mermaid-1595448135640 .today{fill:none;stroke:red;stroke-width:2px}#mermaid-1595448135640 .task{stroke-width:2}#mermaid-1595448135640 .taskText{text-anchor:middle;font-family:'trebuchet ms', verdana, arial;font-family:var(--mermaid-font-family)}#mermaid-1595448135640 .taskText:not([font-size]){font-size:11px}#mermaid-1595448135640 .taskTextOutsideRight{fill:#000;text-anchor:start;font-size:11px;font-family:'trebuchet ms', verdana, arial;font-family:var(--mermaid-font-family)}#mermaid-1595448135640 .taskTextOutsideLeft{fill:#000;text-anchor:end;font-size:11px}#mermaid-1595448135640 .task.clickable{cursor:pointer}#mermaid-1595448135640 .taskText.clickable{cursor:pointer;fill:#003163 !important;font-weight:bold}#mermaid-1595448135640 .taskTextOutsideLeft.clickable{cursor:pointer;fill:#003163 !important;font-weight:bold}#mermaid-1595448135640 .taskTextOutsideRight.clickable{cursor:pointer;fill:#003163 !important;font-weight:bold}#mermaid-1595448135640 .taskText0,#mermaid-1595448135640 .taskText1,#mermaid-1595448135640 .taskText2,#mermaid-1595448135640 .taskText3{fill:#fff}#mermaid-1595448135640 .task0,#mermaid-1595448135640 .task1,#mermaid-1595448135640 .task2,#mermaid-1595448135640 .task3{fill:#8a90dd;stroke:#534fbc}#mermaid-1595448135640 .taskTextOutside0,#mermaid-1595448135640 .taskTextOutside2{fill:#000}#mermaid-1595448135640 .taskTextOutside1,#mermaid-1595448135640 .taskTextOutside3{fill:#000}#mermaid-1595448135640 .active0,#mermaid-1595448135640 .active1,#mermaid-1595448135640 .active2,#mermaid-1595448135640 .active3{fill:#bfc7ff;stroke:#534fbc}#mermaid-1595448135640 .activeText0,#mermaid-1595448135640 .activeText1,#mermaid-1595448135640 .activeText2,#mermaid-1595448135640 .activeText3{fill:#000 !important}#mermaid-1595448135640 .done0,#mermaid-1595448135640 .done1,#mermaid-1595448135640 .done2,#mermaid-1595448135640 .done3{stroke:grey;fill:#d3d3d3;stroke-width:2}#mermaid-1595448135640 .doneText0,#mermaid-1595448135640 .doneText1,#mermaid-1595448135640 .doneText2,#mermaid-1595448135640 .doneText3{fill:#000 !important}#mermaid-1595448135640 .crit0,#mermaid-1595448135640 .crit1,#mermaid-1595448135640 .crit2,#mermaid-1595448135640 .crit3{stroke:#f88;fill:red;stroke-width:2}#mermaid-1595448135640 .activeCrit0,#mermaid-1595448135640 .activeCrit1,#mermaid-1595448135640 .activeCrit2,#mermaid-1595448135640 .activeCrit3{stroke:#f88;fill:#bfc7ff;stroke-width:2}#mermaid-1595448135640 .doneCrit0,#mermaid-1595448135640 .doneCrit1,#mermaid-1595448135640 .doneCrit2,#mermaid-1595448135640 .doneCrit3{stroke:#f88;fill:#d3d3d3;stroke-width:2;cursor:pointer;shape-rendering:crispEdges}#mermaid-1595448135640 .milestone{transform:rotate(45deg) scale(0.8, 0.8)}#mermaid-1595448135640 .milestoneText{font-style:italic}#mermaid-1595448135640 .doneCritText0,#mermaid-1595448135640 .doneCritText1,#mermaid-1595448135640 .doneCritText2,#mermaid-1595448135640 .doneCritText3{fill:#000 !important}#mermaid-1595448135640 .activeCritText0,#mermaid-1595448135640 .activeCritText1,#mermaid-1595448135640 .activeCritText2,#mermaid-1595448135640 .activeCritText3{fill:#000 !important}#mermaid-1595448135640 .titleText{text-anchor:middle;font-size:18px;fill:#000;font-family:'trebuchet ms', verdana, arial;font-family:var(--mermaid-font-family)}#mermaid-1595448135640 g.classGroup text{fill:#9370db;stroke:none;font-family:'trebuchet ms', verdana, arial;font-family:var(--mermaid-font-family);font-size:10px}#mermaid-1595448135640 g.classGroup text .title{font-weight:bolder}#mermaid-1595448135640 g.clickable{cursor:pointer}#mermaid-1595448135640 g.classGroup rect{fill:#ECECFF;stroke:#9370db}#mermaid-1595448135640 g.classGroup line{stroke:#9370db;stroke-width:1}#mermaid-1595448135640 .classLabel .box{stroke:none;stroke-width:0;fill:#ECECFF;opacity:0.5}#mermaid-1595448135640 .classLabel .label{fill:#9370db;font-size:10px}#mermaid-1595448135640 .relation{stroke:#9370db;stroke-width:1;fill:none}#mermaid-1595448135640 .dashed-line{stroke-dasharray:3}#mermaid-1595448135640 #compositionStart{fill:#9370db;stroke:#9370db;stroke-width:1}#mermaid-1595448135640 #compositionEnd{fill:#9370db;stroke:#9370db;stroke-width:1}#mermaid-1595448135640 #aggregationStart{fill:#ECECFF;stroke:#9370db;stroke-width:1}#mermaid-1595448135640 #aggregationEnd{fill:#ECECFF;stroke:#9370db;stroke-width:1}#mermaid-1595448135640 #dependencyStart{fill:#9370db;stroke:#9370db;stroke-width:1}#mermaid-1595448135640 #dependencyEnd{fill:#9370db;stroke:#9370db;stroke-width:1}#mermaid-1595448135640 #extensionStart{fill:#9370db;stroke:#9370db;stroke-width:1}#mermaid-1595448135640 #extensionEnd{fill:#9370db;stroke:#9370db;stroke-width:1}#mermaid-1595448135640 .commit-id,#mermaid-1595448135640 .commit-msg,#mermaid-1595448135640 .branch-label{fill:lightgrey;color:lightgrey;font-family:'trebuchet ms', verdana, arial;font-family:var(--mermaid-font-family)}#mermaid-1595448135640 .pieTitleText{text-anchor:middle;font-size:25px;fill:#000;font-family:'trebuchet ms', verdana, arial;font-family:var(--mermaid-font-family)}#mermaid-1595448135640 .slice{font-family:'trebuchet ms', verdana, arial;font-family:var(--mermaid-font-family)}#mermaid-1595448135640 g.stateGroup text{fill:#9370db;stroke:none;font-size:10px;font-family:'trebuchet ms', verdana, arial;font-family:var(--mermaid-font-family)}#mermaid-1595448135640 g.stateGroup text{fill:#9370db;stroke:none;font-size:10px}#mermaid-1595448135640 g.stateGroup .state-title{font-weight:bolder;fill:#000}#mermaid-1595448135640 g.stateGroup rect{fill:#ECECFF;stroke:#9370db}#mermaid-1595448135640 g.stateGroup line{stroke:#9370db;stroke-width:1}#mermaid-1595448135640 .transition{stroke:#9370db;stroke-width:1;fill:none}#mermaid-1595448135640 .stateGroup .composit{fill:white;border-bottom:1px}#mermaid-1595448135640 .stateGroup .alt-composit{fill:#e0e0e0;border-bottom:1px}#mermaid-1595448135640 .state-note{stroke:#aa3;fill:#fff5ad}#mermaid-1595448135640 .state-note text{fill:black;stroke:none;font-size:10px}#mermaid-1595448135640 .stateLabel .box{stroke:none;stroke-width:0;fill:#ECECFF;opacity:0.5}#mermaid-1595448135640 .stateLabel text{fill:#000;font-size:10px;font-weight:bold;font-family:'trebuchet ms', verdana, arial;font-family:var(--mermaid-font-family)}#mermaid-1595448135640 .node circle.state-start{fill:black;stroke:black}#mermaid-1595448135640 .node circle.state-end{fill:black;stroke:white;stroke-width:1.5}#mermaid-1595448135640 #statediagram-barbEnd{fill:#9370db}#mermaid-1595448135640 .statediagram-cluster rect{fill:#ECECFF;stroke:#9370db;stroke-width:1px}#mermaid-1595448135640 .statediagram-cluster rect.outer{rx:5px;ry:5px}#mermaid-1595448135640 .statediagram-state .divider{stroke:#9370db}#mermaid-1595448135640 .statediagram-state .title-state{rx:5px;ry:5px}#mermaid-1595448135640 .statediagram-cluster.statediagram-cluster .inner{fill:white}#mermaid-1595448135640 .statediagram-cluster.statediagram-cluster-alt .inner{fill:#e0e0e0}#mermaid-1595448135640 .statediagram-cluster .inner{rx:0;ry:0}#mermaid-1595448135640 .statediagram-state rect.basic{rx:5px;ry:5px}#mermaid-1595448135640 .statediagram-state rect.divider{stroke-dasharray:10,10;fill:#efefef}#mermaid-1595448135640 .note-edge{stroke-dasharray:5}#mermaid-1595448135640 .statediagram-note rect{fill:#fff5ad;stroke:#aa3;stroke-width:1px;rx:0;ry:0}:root{--mermaid-font-family: '"trebuchet ms", verdana, arial';--mermaid-font-family: "Comic Sans MS", "Comic Sans", cursive}

:root { --mermaid-font-family: "trebuchet ms", verdana, arial;}</style><style>#mermaid-1595448135640 {
    color: rgb(0, 0, 0);
    font: 16px "trebuchet ms", verdana, arial;
  }</style><g><defs><marker id="statediagram-barbEnd" refX="19" refY="7" markerWidth="20" markerHeight="14" markerUnits="0" orient="auto"><path d="M 19,7 L9,13 L14,7 L9,1 Z"></path></marker></defs><g class="root"><g class="clusters"><g class="note-cluster" id="0----parent"><rect x="8" y="72" width="996.890625" height="213.5" fill="none"></rect></g></g><g class="edgePaths"><path d="M522.765625,22L522.765625,26.166666666666668C522.765625,30.333333333333332,522.765625,38.666666666666664,522.765625,47C522.765625,55.333333333333336,522.765625,63.666666666666664,522.765625,72C522.765625,80.33333333333333,522.765625,88.66666666666667,522.765625,92.83333333333333L522.765625,97" id="edge0" class="transition" marker-end="url(#statediagram-barbEnd)"></path><path d="M462.0078125,129.28451763089603L438.0143229166667,135.32043135908003C414.0208333333333,141.35634508726403,366.0338541666667,153.42817254363203,342.0403645833333,166.089086271816C318.046875,178.75,318.046875,192,318.046875,198.625L318.046875,205.25" class="transition note-edge"></path><path d="M583.5234375,110.34435053503783L620.4878472222223,108.12029211253152C657.4522569444445,105.89623369002523,731.381076388889,101.44811684501262,777.5865885416666,99.2240584225063C823.7921006944445,97,842.2743055555557,97,860.7565104166666,99.83333333333333C879.2387152777778,102.66666666666667,897.720920138889,108.33333333333333,897.720920138889,114C897.720920138889,119.66666666666667,879.2387152777778,125.33333333333333,860.7565104166666,128.16666666666666C842.2743055555557,131,823.7921006944445,131,777.5865885416666,128.77594157749368C731.381076388889,126.55188315498738,657.4522569444445,122.10376630997477,620.4878472222223,119.87970788746846L583.5234375,117.65564946496217" id="edge1" class="transition" marker-end="url(#statediagram-barbEnd)"></path><path d="M583.5234375,129.28451763089603L607.5169270833334,135.32043135908003C631.5104166666666,141.35634508726403,679.4973958333334,153.42817254363203,703.4908854166666,170.2557529384827C727.484375,187.08333333333334,727.484375,208.66666666666666,727.484375,228.66666666666666C727.484375,248.66666666666666,727.484375,267.0833333333333,727.484375,282.0416666666667C727.484375,297,727.484375,308.5,727.6415148407336,320C727.7986546814673,331.5,728.1129343629344,343,728.2700742036681,348.75L728.4272140444016,354.5" id="edge2" class="transition" marker-end="url(#statediagram-barbEnd)"></path><path d="M1273.5,213.13096634997538L1288.4322916666667,210.9424719583128C1303.3645833333333,208.75397756665026,1333.2291666666667,204.37698878332512,1351.89453125,202.18849439166254C1370.5598958333333,200,1378.0260416666667,200,1385.4921875,205.04166666666666C1392.9583333333333,210.08333333333334,1400.4244791666667,220.16666666666666,1400.4244791666667,230.25C1400.4244791666667,240.33333333333334,1392.9583333333333,250.41666666666666,1385.4921875,255.45833333333334C1378.0260416666667,260.5,1370.5598958333333,260.5,1351.89453125,258.3115056083374C1333.2291666666667,256.1230112166749,1303.3645833333333,251.74602243334974,1288.4322916666667,249.5575280416872L1273.5,247.36903365002462" id="edge3" class="transition" marker-end="url(#statediagram-barbEnd)"></path><path d="M664.4543768098456,415L652.1371108832046,420.75C639.8198449565638,426.5,615.1853131032818,438,602.868047176641,454.5416666666667C590.55078125,471.0833333333333,590.55078125,492.6666666666667,590.55078125,514.25C590.55078125,535.8333333333334,590.55078125,557.4166666666666,590.55078125,576.7916666666666C590.55078125,596.1666666666666,590.55078125,613.3333333333334,590.55078125,630.5C590.55078125,647.6666666666666,590.55078125,664.8333333333334,590.55078125,682C590.55078125,699.1666666666666,590.55078125,716.3333333333334,590.55078125,733.5C590.55078125,750.6666666666666,590.55078125,767.8333333333334,590.55078125,785C590.55078125,802.1666666666666,590.55078125,819.3333333333334,590.55078125,836.5C590.55078125,853.6666666666666,590.55078125,870.8333333333334,609.1290118243243,885.1666666666666C627.7072423986486,899.5,664.8637035472973,911,683.4419341216217,916.75L702.0201646959459,922.5" id="edge4" class="transition" marker-end="url(#statediagram-barbEnd)"></path><path d="M793.6318774131274,415L805.8690124276062,420.75C818.1061474420849,426.5,842.5804174710424,438,854.8175524855213,449.5C867.0546875,461,867.0546875,472.5,867.0546875,478.25L867.0546875,484" id="edge5" class="transition" marker-end="url(#statediagram-barbEnd)"></path><path d="M971.625,536.1336165538835L1005.7643229166666,543.2780137949029C1039.9036458333333,550.4224110359223,1108.1822916666667,564.7112055179612,1142.3216145833333,577.6056027589806C1176.4609375,590.5,1176.4609375,602,1176.4609375,607.75L1176.4609375,613.5" id="edge6" class="transition" marker-end="url(#statediagram-barbEnd)"></path><path d="M1250.5390625,622.3277959914827L1263.8758680555554,620.856496659569C1277.212673611111,619.3851973276552,1303.8862847222222,616.4425986638275,1320.5572916666667,614.9712993319138C1337.228298611111,613.5,1343.896701388889,613.5,1350.5651041666667,616.3333333333334C1357.2335069444446,619.1666666666666,1363.9019097222224,624.8333333333334,1363.9019097222224,630.5C1363.9019097222224,636.1666666666666,1357.2335069444446,641.8333333333334,1350.5651041666667,644.6666666666666C1343.896701388889,647.5,1337.228298611111,647.5,1320.5572916666667,646.0287006680862C1303.8862847222222,644.5574013361725,1277.212673611111,641.6148026723448,1263.8758680555554,640.143503340431L1250.5390625,638.6722040085173" id="edge7" class="transition" marker-end="url(#statediagram-barbEnd)"></path><path d="M1245.9992415048544,647.5L1269.5195502123786,653.25C1293.0398589199028,659,1340.0804763349515,670.5,1363.6007850424758,682C1387.12109375,693.5,1387.12109375,705,1387.12109375,710.75L1387.12109375,716.5" id="edge8" class="transition" marker-end="url(#statediagram-barbEnd)"></path><path d="M583.5234375,123.11132217116338L630.6341145833334,130.17610180930282C677.7447916666666,137.24088144744226,771.9661458333334,151.37044072372112,848.02734375,164.88787376152888C924.0885416666666,178.40530679933667,981.9895833333334,191.3106135986733,1010.9401041666666,197.7632669983416L1039.890625,204.21592039800996" id="edge9" class="transition" marker-end="url(#statediagram-barbEnd)"></path><path d="M802.8792833011582,544.5L790.6806527509652,550.25C778.4820222007721,556,754.0847611003861,567.5,741.8861305501931,581.8333333333334C729.6875,596.1666666666666,729.6875,613.3333333333334,729.6875,630.5C729.6875,647.6666666666666,729.6875,664.8333333333334,737.4306356189321,679.1666666666666C745.1737712378641,693.5,760.6600424757281,705,768.4031780946602,710.75L776.1463137135922,716.5" id="edge10" class="transition" marker-end="url(#statediagram-barbEnd)"></path><path d="M1102.3828125,642.8836127101666L1063.3841145833333,649.4030105918056C1024.3854166666667,655.9224084734444,946.3880208333334,668.9612042367222,899.6461872977346,681.2306021183612C852.9043537621359,693.5,837.4180825242719,705,829.6749469053398,710.75L821.9318112864078,716.5" id="edge11" class="transition" marker-end="url(#statediagram-barbEnd)"></path><path d="M1387.12109375,750.5L1387.12109375,756.25C1387.12109375,762,1387.12109375,773.5,1387.12109375,785C1387.12109375,796.5,1387.12109375,808,1387.12109375,813.75L1387.12109375,819.5" id="edge12" class="transition" marker-end="url(#statediagram-barbEnd)"></path><path d="M799.0390625,750.5L799.0390625,756.25C799.0390625,762,799.0390625,773.5,799.0390625,787.8333333333334C799.0390625,802.1666666666666,799.0390625,819.3333333333334,799.0390625,836.5C799.0390625,853.6666666666666,799.0390625,870.8333333333334,799.1028897200772,885.1666666666666C799.1667169401544,899.5,799.2943713803088,911,799.3581986003861,916.75L799.4220258204633,922.5" id="edge13" class="transition" marker-end="url(#statediagram-barbEnd)"></path><path d="M1320.6671344053398,853.5L1298.1900599211165,859.25C1275.7129854368932,865,1230.7588364684466,876.5,1160.3442619842233,890.2903529364148C1089.9296875,904.0807058728296,994.0546875,920.1614117456592,946.1171875,928.201764682074L898.1796875,936.2421176184887" id="edge14" class="transition" marker-end="url(#statediagram-barbEnd)"></path><path d="M892.125,726.9068420024738L916.61328125,725.1723683353948C941.1015625,723.4378946683158,990.078125,719.9689473341579,1020.6884765625,718.234473667079C1051.298828125,716.5,1063.54296875,716.5,1075.787109375,719.3333333333334C1088.03125,722.1666666666666,1100.275390625,727.8333333333334,1100.275390625,733.5C1100.275390625,739.1666666666666,1088.03125,744.8333333333334,1075.787109375,747.6666666666666C1063.54296875,750.5,1051.298828125,750.5,1020.6884765625,748.765526332921C990.078125,747.0310526658421,941.1015625,743.5621053316842,916.61328125,741.8276316646052L892.125,740.0931579975262" id="edge15" class="transition" marker-end="url(#statediagram-barbEnd)"></path><path d="M1526.02734375,827.1975933031043L1545.1844618055557,825.9146610859202C1564.341579861111,824.6317288687363,1602.655815972222,822.0658644343681,1626.6022135416667,820.7829322171841C1650.548611111111,819.5,1660.127170138889,819.5,1669.7057291666667,822.3333333333334C1679.2842881944446,825.1666666666666,1688.8628472222224,830.8333333333334,1688.862847222222,836.5C1688.8628472222224,842.1666666666666,1679.2842881944446,847.8333333333334,1669.705729166667,850.6666666666666C1660.127170138889,853.5,1650.548611111111,853.5,1626.6022135416667,852.2170677828159C1602.655815972222,850.9341355656319,1564.341579861111,848.3682711312637,1545.1844618055554,847.0853389140797L1526.02734375,845.8024066968957" id="edge16" class="transition" marker-end="url(#statediagram-barbEnd)"></path><path d="M1156.6953125,260.5L1156.6953125,264.6666666666667C1156.6953125,268.8333333333333,1156.6953125,277.1666666666667,1156.6953125,287.0833333333333C1156.6953125,297,1156.6953125,308.5,1101.9134114583333,322.54851306069605C1047.1315104166667,336.59702612139216,937.5677083333334,353.19405224278427,882.7858072916666,361.49256530348026L828.00390625,369.79107836417637" id="edge17" class="transition" marker-end="url(#statediagram-barbEnd)"></path><path d="M892.125,718.5972070431087L930.2239583333334,712.4976725359239C968.3229166666666,706.3981380287391,1044.5208333333333,694.1990690143697,1088.8434339603562,682.3495345071848C1133.1660345873786,670.5,1145.6133191747574,659,1151.8369614684468,653.25L1158.060603762136,647.5" id="edge18" class="transition" marker-end="url(#statediagram-barbEnd)"></path><path d="M1428.5637515169904,853.5L1442.5811210558252,859.25C1456.59849059466,865,1484.6332296723301,876.5,1498.6505992111652,890.2083333333334C1512.66796875,903.9166666666666,1512.66796875,919.8333333333334,1512.66796875,927.7916666666666L1512.66796875,935.75" id="edge19" class="transition" marker-end="url(#statediagram-barbEnd)"></path><path d="M1512.66796875,969.75L1512.66796875,977.7083333333334C1512.66796875,985.6666666666666,1512.66796875,1001.5833333333334,1512.66796875,1015.2916666666666C1512.66796875,1029,1512.66796875,1040.5,1512.66796875,1046.25L1512.66796875,1052" id="edge20" class="transition" marker-end="url(#statediagram-barbEnd)"></path><path d="M1512.66796875,1112.5L1512.66796875,1118.25C1512.66796875,1124,1512.66796875,1135.5,1512.66796875,1147C1512.66796875,1158.5,1512.66796875,1170,1512.66796875,1175.75L1512.66796875,1181.5" id="edge21" class="transition" marker-end="url(#statediagram-barbEnd)"></path><path d="M799.7578125,983L799.7578125,988.75C799.7578125,994.5,799.7578125,1006,799.7578125,1019.7083333333334C799.7578125,1033.4166666666667,799.7578125,1049.3333333333333,799.7578125,1057.2916666666667L799.7578125,1065.25" id="edge22" class="transition" marker-end="url(#statediagram-barbEnd)"></path></g><g class="edgeLabels"><g class="edgeLabel"><g class="label" transform="translate(0, 0)"><rect rx="0" ry="0" width="0" height="0" style="fill:#e8e8e8;"></rect><text style=""></text></g></g><g class="edgeLabel"><g class="label" transform="translate(0, 0)"><rect rx="0" ry="0" width="0" height="0" style="fill:#e8e8e8;"></rect><text style=""></text></g></g><g class="edgeLabel" transform="translate(916.203125, 114)"><g class="label" transform="translate(-68.6875, -9.5)"><rect rx="0" ry="0" width="137.296875" height="19.03125" style="fill:#e8e8e8;"></rect><text style=""><tspan xml:space="preserve" dy="1em" x="0" class="row">ProviderEventOpen</tspan></text></g></g><g class="edgeLabel" transform="translate(727.484375, 230.25)"><g class="label" transform="translate(-99.390625, -9.5)"><rect rx="0" ry="0" width="198.65625" height="19.03125" style="fill:#e8e8e8;"></rect><text style=""><tspan xml:space="preserve" dy="1em" x="0" class="row">ProviderEventDealAccepted</tspan></text></g></g><g class="edgeLabel" transform="translate(1407.890625, 230.25)"><g class="label" transform="translate(-99.390625, -9.5)"><rect rx="0" ry="0" width="198.65625" height="19.03125" style="fill:#e8e8e8;"></rect><text style=""><tspan xml:space="preserve" dy="1em" x="0" class="row">ProviderEventDealAccepted</tspan></text></g></g><g class="edgeLabel" transform="translate(590.55078125, 682)"><g class="label" transform="translate(-91.734375, -9.5)"><rect rx="0" ry="0" width="183.359375" height="19.03125" style="fill:#e8e8e8;"></rect><text style=""><tspan xml:space="preserve" dy="1em" x="0" class="row">ProviderEventUnsealError</tspan></text></g></g><g class="edgeLabel" transform="translate(867.0546875, 449.5)"><g class="label" transform="translate(-108.2578125, -9.5)"><rect rx="0" ry="0" width="216.390625" height="19.03125" style="fill:#e8e8e8;"></rect><text style=""><tspan xml:space="preserve" dy="1em" x="0" class="row">ProviderEventUnsealComplete</tspan></text></g></g><g class="edgeLabel" transform="translate(1176.4609375, 579)"><g class="label" transform="translate(-85.03125, -9.5)"><rect rx="0" ry="0" width="169.96875" height="19.03125" style="fill:#e8e8e8;"></rect><text style=""><tspan xml:space="preserve" dy="1em" x="0" class="row">ProviderEventBlockSent</tspan></text></g></g><g class="edgeLabel" transform="translate(1370.5703125, 630.5)"><g class="label" transform="translate(-85.03125, -9.5)"><rect rx="0" ry="0" width="169.96875" height="19.03125" style="fill:#e8e8e8;"></rect><text style=""><tspan xml:space="preserve" dy="1em" x="0" class="row">ProviderEventBlockSent</tspan></text></g></g><g class="edgeLabel" transform="translate(1387.12109375, 682)"><g class="label" transform="translate(-111.40625, -9.5)"><rect rx="0" ry="0" width="222.6875" height="19.03125" style="fill:#e8e8e8;"></rect><text style=""><tspan xml:space="preserve" dy="1em" x="0" class="row">ProviderEventBlocksCompleted</tspan></text></g></g><g class="edgeLabel" transform="translate(866.1875, 165.5)"><g class="label" transform="translate(-118.703125, -9.5)"><rect rx="0" ry="0" width="237.265625" height="19.03125" style="fill:#e8e8e8;"></rect><text style=""><tspan xml:space="preserve" dy="1em" x="0" class="row">ProviderEventPaymentRequested</tspan></text></g></g><g class="edgeLabel" transform="translate(729.6875, 630.5)"><g class="label" transform="translate(-118.703125, -9.5)"><rect rx="0" ry="0" width="237.265625" height="19.03125" style="fill:#e8e8e8;"></rect><text style=""><tspan xml:space="preserve" dy="1em" x="0" class="row">ProviderEventPaymentRequested</tspan></text></g></g><g class="edgeLabel" transform="translate(868.390625, 682)"><g class="label" transform="translate(-118.703125, -9.5)"><rect rx="0" ry="0" width="237.265625" height="19.03125" style="fill:#e8e8e8;"></rect><text style=""><tspan xml:space="preserve" dy="1em" x="0" class="row">ProviderEventPaymentRequested</tspan></text></g></g><g class="edgeLabel" transform="translate(1387.12109375, 785)"><g class="label" transform="translate(-118.703125, -9.5)"><rect rx="0" ry="0" width="237.265625" height="19.03125" style="fill:#e8e8e8;"></rect><text style=""><tspan xml:space="preserve" dy="1em" x="0" class="row">ProviderEventPaymentRequested</tspan></text></g></g><g class="edgeLabel" transform="translate(799.0390625, 836.5)"><g class="label" transform="translate(-117.46875, -9.5)"><rect rx="0" ry="0" width="234.796875" height="19.03125" style="fill:#e8e8e8;"></rect><text style=""><tspan xml:space="preserve" dy="1em" x="0" class="row">ProviderEventSaveVoucherFailed</tspan></text></g></g><g class="edgeLabel" transform="translate(1185.8046875, 888)"><g class="label" transform="translate(-117.46875, -9.5)"><rect rx="0" ry="0" width="234.796875" height="19.03125" style="fill:#e8e8e8;"></rect><text style=""><tspan xml:space="preserve" dy="1em" x="0" class="row">ProviderEventSaveVoucherFailed</tspan></text></g></g><g class="edgeLabel" transform="translate(1112.51953125, 733.5)"><g class="label" transform="translate(-137.4140625, -9.5)"><rect rx="0" ry="0" width="274.65625" height="19.03125" style="fill:#e8e8e8;"></rect><text style=""><tspan xml:space="preserve" dy="1em" x="0" class="row">ProviderEventPartialPaymentReceived</tspan></text></g></g><g class="edgeLabel" transform="translate(1698.44140625, 836.5)"><g class="label" transform="translate(-137.4140625, -9.5)"><rect rx="0" ry="0" width="274.65625" height="19.03125" style="fill:#e8e8e8;"></rect><text style=""><tspan xml:space="preserve" dy="1em" x="0" class="row">ProviderEventPartialPaymentReceived</tspan></text></g></g><g class="edgeLabel" transform="translate(1156.6953125, 320)"><g class="label" transform="translate(-113.625, -9.5)"><rect rx="0" ry="0" width="227.109375" height="19.03125" style="fill:#e8e8e8;"></rect><text style=""><tspan xml:space="preserve" dy="1em" x="0" class="row">ProviderEventPaymentReceived</tspan></text></g></g><g class="edgeLabel" transform="translate(1120.71875, 682)"><g class="label" transform="translate(-113.625, -9.5)"><rect rx="0" ry="0" width="227.109375" height="19.03125" style="fill:#e8e8e8;"></rect><text style=""><tspan xml:space="preserve" dy="1em" x="0" class="row">ProviderEventPaymentReceived</tspan></text></g></g><g class="edgeLabel" transform="translate(1512.66796875, 888)"><g class="label" transform="translate(-113.625, -9.5)"><rect rx="0" ry="0" width="227.109375" height="19.03125" style="fill:#e8e8e8;"></rect><text style=""><tspan xml:space="preserve" dy="1em" x="0" class="row">ProviderEventPaymentReceived</tspan></text></g></g><g class="edgeLabel" transform="translate(1512.66796875, 1017.5)"><g class="label" transform="translate(-84.5390625, -9.5)"><rect rx="0" ry="0" width="168.96875" height="19.03125" style="fill:#e8e8e8;"></rect><text style=""><tspan xml:space="preserve" dy="1em" x="0" class="row">ProviderEventComplete</tspan></text></g></g><g class="edgeLabel" transform="translate(1512.66796875, 1147)"><g class="label" transform="translate(-113.4453125, -9.5)"><rect rx="0" ry="0" width="226.765625" height="19.03125" style="fill:#e8e8e8;"></rect><text style=""><tspan xml:space="preserve" dy="1em" x="0" class="row">ProviderEventCleanupComplete</tspan></text></g></g><g class="edgeLabel" transform="translate(799.7578125, 1017.5)"><g class="label" transform="translate(-108.578125, -9.5)"><rect rx="0" ry="0" width="217.03125" height="19.03125" style="fill:#e8e8e8;"></rect><text style=""><tspan xml:space="preserve" dy="1em" x="0" class="row">ProviderEventCancelComplete</tspan></text></g></g></g><g class="nodes"><g class="node statediagram-state" id="0" transform="translate(522.765625, 114)"><rect class="outer title-state" x="-60.7578125" y="-17" width="121.515625" height="34"></rect><line class="divider" x1="-60.7578125" x2="60.7578125" y1="9.5" y2="9.5"></line><g class="label" transform="translate(-53.2578125, -14)"><text style=""><tspan xml:space="preserve" dy="1em" x="0" class="title-row">DealStatusNew</tspan></text><text style="" transform="translate( 0, 26.5)"><tspan xml:space="preserve" dy="1em" x="0" class="title-row"></tspan></text></g></g><g class="node statediagram-state" id="1" transform="translate(729.25390625, 384.75)"><rect class="outer title-state" x="-98.75" y="-30.25" width="197.5" height="60.5"></rect><line class="divider" x1="-98.75" x2="98.75" y1="-3.75" y2="-3.75"></line><g class="label" transform="translate(-91.25, -27.25)"><text style=""><tspan xml:space="preserve" dy="1em" x="0" class="title-row">DealStatusUnsealing</tspan></text><text style="" transform="translate( 0, 26.5)"><tspan xml:space="preserve" dy="1em" x="0" class="title-row">On entry runs UnsealData</tspan></text></g></g><g class="node statediagram-state" id="2" transform="translate(867.0546875, 514.25)"><rect class="outer title-state" x="-104.5703125" y="-30.25" width="209.140625" height="60.5"></rect><line class="divider" x1="-104.5703125" x2="104.5703125" y1="-3.75" y2="-3.75"></line><g class="label" transform="translate(-97.0703125, -27.25)"><text style=""><tspan xml:space="preserve" dy="1em" x="0" class="title-row">DealStatusUnsealed</tspan></text><text style="" transform="translate( 0, 26.5)"><tspan xml:space="preserve" dy="1em" x="0" class="title-row">On entry runs UnpauseDeal</tspan></text></g></g><g class="node statediagram-state" id="7" transform="translate(1156.6953125, 230.25)"><rect class="outer title-state" x="-116.8046875" y="-30.25" width="233.609375" height="60.5"></rect><line class="divider" x1="-116.8046875" x2="116.8046875" y1="-3.75" y2="-3.75"></line><g class="label" transform="translate(-109.3046875, -27.25)"><text style=""><tspan xml:space="preserve" dy="1em" x="0" class="title-row">DealStatusFundsNeededUnseal</tspan></text><text style="" transform="translate( 0, 26.5)"><tspan xml:space="preserve" dy="1em" x="0" class="title-row">On entry runs TrackTransfer</tspan></text></g></g><g class="node statediagram-state" id="8" transform="translate(799.7578125, 952.75)"><rect class="outer title-state" x="-98.421875" y="-30.25" width="196.84375" height="60.5"></rect><line class="divider" x1="-98.421875" x2="98.421875" y1="-3.75" y2="-3.75"></line><g class="label" transform="translate(-90.921875, -27.25)"><text style=""><tspan xml:space="preserve" dy="1em" x="0" class="title-row">DealStatusFailed</tspan></text><text style="" transform="translate( 0, 26.5)"><tspan xml:space="preserve" dy="1em" x="0" class="title-row">On entry runs CancelDeal</tspan></text></g></g><g class="node statediagram-state" id="10" transform="translate(799.0390625, 733.5)"><rect class="outer title-state" x="-93.0859375" y="-17" width="186.171875" height="34"></rect><line class="divider" x1="-93.0859375" x2="93.0859375" y1="9.5" y2="9.5"></line><g class="label" transform="translate(-85.5859375, -14)"><text style=""><tspan xml:space="preserve" dy="1em" x="0" class="title-row">DealStatusFundsNeeded</tspan></text><text style="" transform="translate( 0, 26.5)"><tspan xml:space="preserve" dy="1em" x="0" class="title-row"></tspan></text></g></g><g class="node statediagram-state" id="13" transform="translate(1176.4609375, 630.5)"><rect class="outer title-state" x="-74.078125" y="-17" width="148.15625" height="34"></rect><line class="divider" x1="-74.078125" x2="74.078125" y1="9.5" y2="9.5"></line><g class="label" transform="translate(-66.578125, -14)"><text style=""><tspan xml:space="preserve" dy="1em" x="0" class="title-row">DealStatusOngoing</tspan></text><text style="" transform="translate( 0, 26.5)"><tspan xml:space="preserve" dy="1em" x="0" class="title-row"></tspan></text></g></g><g class="node statediagram-state" id="14" transform="translate(1387.12109375, 836.5)"><rect class="outer title-state" x="-138.90625" y="-17" width="277.8125" height="34"></rect><line class="divider" x1="-138.90625" x2="138.90625" y1="9.5" y2="9.5"></line><g class="label" transform="translate(-131.40625, -14)"><text style=""><tspan xml:space="preserve" dy="1em" x="0" class="title-row">DealStatusFundsNeededLastPayment</tspan></text><text style="" transform="translate( 0, 26.5)"><tspan xml:space="preserve" dy="1em" x="0" class="title-row"></tspan></text></g></g><g class="node statediagram-state" id="15" transform="translate(1512.66796875, 1198.5)"><rect class="outer title-state" x="-84.2265625" y="-17" width="168.453125" height="34"></rect><line class="divider" x1="-84.2265625" x2="84.2265625" y1="9.5" y2="9.5"></line><g class="label" transform="translate(-76.7265625, -14)"><text style=""><tspan xml:space="preserve" dy="1em" x="0" class="title-row">DealStatusCompleted</tspan></text><text style="" transform="translate( 0, 26.5)"><tspan xml:space="preserve" dy="1em" x="0" class="title-row"></tspan></text></g></g><g class="node statediagram-state" id="17" transform="translate(799.7578125, 1082.25)"><rect class="outer title-state" x="-72.0625" y="-17" width="144.125" height="34"></rect><line class="divider" x1="-72.0625" x2="72.0625" y1="9.5" y2="9.5"></line><g class="label" transform="translate(-64.5625, -14)"><text style=""><tspan xml:space="preserve" dy="1em" x="0" class="title-row">DealStatusErrored</tspan></text><text style="" transform="translate( 0, 26.5)"><tspan xml:space="preserve" dy="1em" x="0" class="title-row"></tspan></text></g></g><g class="node statediagram-state" id="18" transform="translate(1387.12109375, 733.5)"><rect class="outer title-state" x="-102.1875" y="-17" width="204.375" height="34"></rect><line class="divider" x1="-102.1875" x2="102.1875" y1="9.5" y2="9.5"></line><g class="label" transform="translate(-94.6875, -14)"><text style=""><tspan xml:space="preserve" dy="1em" x="0" class="title-row">DealStatusBlocksComplete</tspan></text><text style="" transform="translate( 0, 26.5)"><tspan xml:space="preserve" dy="1em" x="0" class="title-row"></tspan></text></g></g><g class="node statediagram-state" id="19" transform="translate(1512.66796875, 952.75)"><rect class="outer title-state" x="-79.5" y="-17" width="159" height="34"></rect><line class="divider" x1="-79.5" x2="79.5" y1="9.5" y2="9.5"></line><g class="label" transform="translate(-72, -14)"><text style=""><tspan xml:space="preserve" dy="1em" x="0" class="title-row">DealStatusFinalizing</tspan></text><text style="" transform="translate( 0, 26.5)"><tspan xml:space="preserve" dy="1em" x="0" class="title-row"></tspan></text></g></g><g class="node statediagram-state" id="20" transform="translate(1512.66796875, 1082.25)"><rect class="outer title-state" x="-103.2890625" y="-30.25" width="206.578125" height="60.5"></rect><line class="divider" x1="-103.2890625" x2="103.2890625" y1="-3.75" y2="-3.75"></line><g class="label" transform="translate(-95.7890625, -27.25)"><text style=""><tspan xml:space="preserve" dy="1em" x="0" class="title-row">DealStatusCompleting</tspan></text><text style="" transform="translate( 0, 26.5)"><tspan xml:space="preserve" dy="1em" x="0" class="title-row">On entry runs CleanupDeal</tspan></text></g></g><g class="node default" id="root_start" transform="translate(522.765625, 15)"><circle class="state-start" r="7" width="14" height="14"></circle></g><g class="node statediagram-note" id="0----note" transform="translate(318.046875, 230.25)"><rect x="-275.046875" y="-25" width="550.09375" height="50"></rect><g class="label" transform="translate(-267.546875, -17.5)"><text style=""><tspan xml:space="preserve" dy="1em" x="0" class="row">The following events are not shown cause they can trigger from any state.</tspan><tspan xml:space="preserve" dy="1em" x="0" class="row"></tspan><tspan xml:space="preserve" dy="1em" x="0" class="row">ProviderEventDataTransferError - transitions state to DealStatusErrored</tspan></text></g></g></g></g></g></svg>