<svg id="mermaid-1606941336087" width="2175.41796875" xmlns="http://www.w3.org/2000/svg" class="statediagram" height="1423.5" viewBox="0 0 2175.41796875 1423.5"><style>#mermaid-1606941336087 .label{font-family:'trebuchet ms', verdana, arial;font-family:var(--mermaid-font-family);color:#333}#mermaid-1606941336087 .label text{fill:#333}#mermaid-1606941336087 .node rect,#mermaid-1606941336087 .node circle,#mermaid-1606941336087 .node ellipse,#mermaid-1606941336087 .node polygon,#mermaid-1606941336087 .node path{fill:#ECECFF;stroke:#9370db;stroke-width:1px}#mermaid-1606941336087 .node .label{text-align:center}#mermaid-1606941336087 .node.clickable{cursor:pointer}#mermaid-1606941336087 .arrowheadPath{fill:#333}#mermaid-1606941336087 .edgePath .path{stroke:#333;stroke-width:1.5px}#mermaid-1606941336087 .edgeLabel{background-color:#e8e8e8;text-align:center}#mermaid-1606941336087 .edgeLabel rect{opacity:0.5}#mermaid-1606941336087 .cluster rect{fill:#ffffde;stroke:#aa3;stroke-width:1px}#mermaid-1606941336087 .cluster text{fill:#333}#mermaid-1606941336087 div.mermaidTooltip{position:absolute;text-align:center;max-width:200px;padding:2px;font-family:'trebuchet ms', verdana, arial;font-family:var(--mermaid-font-family);font-size:12px;background:#ffffde;border:1px solid #aa3;border-radius:2px;pointer-events:none;z-index:100}#mermaid-1606941336087 .actor{stroke:#ccf;fill:#ECECFF}#mermaid-1606941336087 text.actor{fill:#000;stroke:none}#mermaid-1606941336087 .actor-line{stroke:grey}#mermaid-1606941336087 .messageLine0{stroke-width:1.5;stroke-dasharray:'2 2';stroke:#333}#mermaid-1606941336087 .messageLine1{stroke-width:1.5;stroke-dasharray:'2 2';stroke:#333}#mermaid-1606941336087 #arrowhead{fill:#333}#mermaid-1606941336087 .sequenceNumber{fill:#fff}#mermaid-1606941336087 #sequencenumber{fill:#333}#mermaid-1606941336087 #crosshead path{fill:#333 !important;stroke:#333 !important}#mermaid-1606941336087 .messageText{fill:#333;stroke:none}#mermaid-1606941336087 .labelBox{stroke:#ccf;fill:#ECECFF}#mermaid-1606941336087 .labelText{fill:#000;stroke:none}#mermaid-1606941336087 .loopText{fill:#000;stroke:none}#mermaid-1606941336087 .loopLine{stroke-width:2;stroke-dasharray:'2 2';stroke:#ccf}#mermaid-1606941336087 .note{stroke:#aa3;fill:#fff5ad}#mermaid-1606941336087 .noteText{fill:black;stroke:none;font-family:'trebuchet ms', verdana, arial;font-family:var(--mermaid-font-family);font-size:14px}#mermaid-1606941336087 .activation0{fill:#f4f4f4;stroke:#666}#mermaid-1606941336087 .activation1{fill:#f4f4f4;stroke:#666}#mermaid-1606941336087 .activation2{fill:#f4f4f4;stroke:#666}#mermaid-1606941336087 .mermaid-main-font{font-family:"trebuchet ms", verdana, arial;font-family:var(--mermaid-font-family)}#mermaid-1606941336087 .section{stroke:none;opacity:0.2}#mermaid-1606941336087 .section0{fill:rgba(102,102,255,0.49)}#mermaid-1606941336087 .section2{fill:#fff400}#mermaid-1606941336087 .section1,#mermaid-1606941336087 .section3{fill:#fff;opacity:0.2}#mermaid-1606941336087 .sectionTitle0{fill:#333}#mermaid-1606941336087 .sectionTitle1{fill:#333}#mermaid-1606941336087 .sectionTitle2{fill:#333}#mermaid-1606941336087 .sectionTitle3{fill:#333}#mermaid-1606941336087 .sectionTitle{text-anchor:start;font-size:11px;text-height:14px;font-family:'trebuchet ms', verdana, arial;font-family:var(--mermaid-font-family)}#mermaid-1606941336087 .grid .tick{stroke:#d3d3d3;opacity:0.8;shape-rendering:crispEdges}#mermaid-1606941336087 .grid .tick text{font-family:'trebuchet ms', verdana, arial;font-family:var(--mermaid-font-family)}#mermaid-1606941336087 .grid path{stroke-width:0}#mermaid-1606941336087 .today{fill:none;stroke:red;stroke-width:2px}#mermaid-1606941336087 .task{stroke-width:2}#mermaid-1606941336087 .taskText{text-anchor:middle;font-family:'trebuchet ms', verdana, arial;font-family:var(--mermaid-font-family)}#mermaid-1606941336087 .taskText:not([font-size]){font-size:11px}#mermaid-1606941336087 .taskTextOutsideRight{fill:#000;text-anchor:start;font-size:11px;font-family:'trebuchet ms', verdana, arial;font-family:var(--mermaid-font-family)}#mermaid-1606941336087 .taskTextOutsideLeft{fill:#000;text-anchor:end;font-size:11px}#mermaid-1606941336087 .task.clickable{cursor:pointer}#mermaid-1606941336087 .taskText.clickable{cursor:pointer;fill:#003163 !important;font-weight:bold}#mermaid-1606941336087 .taskTextOutsideLeft.clickable{cursor:pointer;fill:#003163 !important;font-weight:bold}#mermaid-1606941336087 .taskTextOutsideRight.clickable{cursor:pointer;fill:#003163 !important;font-weight:bold}#mermaid-1606941336087 .taskText0,#mermaid-1606941336087 .taskText1,#mermaid-1606941336087 .taskText2,#mermaid-1606941336087 .taskText3{fill:#fff}#mermaid-1606941336087 .task0,#mermaid-1606941336087 .task1,#mermaid-1606941336087 .task2,#mermaid-1606941336087 .task3{fill:#8a90dd;stroke:#534fbc}#mermaid-1606941336087 .taskTextOutside0,#mermaid-1606941336087 .taskTextOutside2{fill:#000}#mermaid-1606941336087 .taskTextOutside1,#mermaid-1606941336087 .taskTextOutside3{fill:#000}#mermaid-1606941336087 .active0,#mermaid-1606941336087 .active1,#mermaid-1606941336087 .active2,#mermaid-1606941336087 .active3{fill:#bfc7ff;stroke:#534fbc}#mermaid-1606941336087 .activeText0,#mermaid-1606941336087 .activeText1,#mermaid-1606941336087 .activeText2,#mermaid-1606941336087 .activeText3{fill:#000 !important}#mermaid-1606941336087 .done0,#mermaid-1606941336087 .done1,#mermaid-1606941336087 .done2,#mermaid-1606941336087 .done3{stroke:grey;fill:#d3d3d3;stroke-width:2}#mermaid-1606941336087 .doneText0,#mermaid-1606941336087 .doneText1,#mermaid-1606941336087 .doneText2,#mermaid-1606941336087 .doneText3{fill:#000 !important}#mermaid-1606941336087 .crit0,#mermaid-1606941336087 .crit1,#mermaid-1606941336087 .crit2,#mermaid-1606941336087 .crit3{stroke:#f88;fill:red;stroke-width:2}#mermaid-1606941336087 .activeCrit0,#mermaid-1606941336087 .activeCrit1,#mermaid-1606941336087 .activeCrit2,#mermaid-1606941336087 .activeCrit3{stroke:#f88;fill:#bfc7ff;stroke-width:2}#mermaid-1606941336087 .doneCrit0,#mermaid-1606941336087 .doneCrit1,#mermaid-1606941336087 .doneCrit2,#mermaid-1606941336087 .doneCrit3{stroke:#f88;fill:#d3d3d3;stroke-width:2;cursor:pointer;shape-rendering:crispEdges}#mermaid-1606941336087 .milestone{transform:rotate(45deg) scale(0.8, 0.8)}#mermaid-1606941336087 .milestoneText{font-style:italic}#mermaid-1606941336087 .doneCritText0,#mermaid-1606941336087 .doneCritText1,#mermaid-1606941336087 .doneCritText2,#mermaid-1606941336087 .doneCritText3{fill:#000 !important}#mermaid-1606941336087 .activeCritText0,#mermaid-1606941336087 .activeCritText1,#mermaid-1606941336087 .activeCritText2,#mermaid-1606941336087 .activeCritText3{fill:#000 !important}#mermaid-1606941336087 .titleText{text-anchor:middle;font-size:18px;fill:#000;font-family:'trebuchet ms', verdana, arial;font-family:var(--mermaid-font-family)}#mermaid-1606941336087 g.classGroup text{fill:#9370db;stroke:none;font-family:'trebuchet ms', verdana, arial;font-family:var(--mermaid-font-family);font-size:10px}#mermaid-1606941336087 g.classGroup text .title{font-weight:bolder}#mermaid-1606941336087 g.clickable{cursor:pointer}#mermaid-1606941336087 g.classGroup rect{fill:#ECECFF;stroke:#9370db}#mermaid-1606941336087 g.classGroup line{stroke:#9370db;stroke-width:1}#mermaid-1606941336087 .classLabel .box{stroke:none;stroke-width:0;fill:#ECECFF;opacity:0.5}#mermaid-1606941336087 .classLabel .label{fill:#9370db;font-size:10px}#mermaid-1606941336087 .relation{stroke:#9370db;stroke-width:1;fill:none}#mermaid-1606941336087 .dashed-line{stroke-dasharray:3}#mermaid-1606941336087 #compositionStart{fill:#9370db;stroke:#9370db;stroke-width:1}#mermaid-1606941336087 #compositionEnd{fill:#9370db;stroke:#9370db;stroke-width:1}#mermaid-1606941336087 #aggregationStart{fill:#ECECFF;stroke:#9370db;stroke-width:1}#mermaid-1606941336087 #aggregationEnd{fill:#ECECFF;stroke:#9370db;stroke-width:1}#mermaid-1606941336087 #dependencyStart{fill:#9370db;stroke:#9370db;stroke-width:1}#mermaid-1606941336087 #dependencyEnd{fill:#9370db;stroke:#9370db;stroke-width:1}#mermaid-1606941336087 #extensionStart{fill:#9370db;stroke:#9370db;stroke-width:1}#mermaid-1606941336087 #extensionEnd{fill:#9370db;stroke:#9370db;stroke-width:1}#mermaid-1606941336087 .commit-id,#mermaid-1606941336087 .commit-msg,#mermaid-1606941336087 .branch-label{fill:lightgrey;color:lightgrey;font-family:'trebuchet ms', verdana, arial;font-family:var(--mermaid-font-family)}#mermaid-1606941336087 .pieTitleText{text-anchor:middle;font-size:25px;fill:#000;font-family:'trebuchet ms', verdana, arial;font-family:var(--mermaid-font-family)}#mermaid-1606941336087 .slice{font-family:'trebuchet ms', verdana, arial;font-family:var(--mermaid-font-family)}#mermaid-1606941336087 g.stateGroup text{fill:#9370db;stroke:none;font-size:10px;font-family:'trebuchet ms', verdana, arial;font-family:var(--mermaid-font-family)}#mermaid-1606941336087 g.stateGroup text{fill:#9370db;stroke:none;font-size:10px}#mermaid-1606941336087 g.stateGroup .state-title{font-weight:bolder;fill:#000}#mermaid-1606941336087 g.stateGroup rect{fill:#ECECFF;stroke:#9370db}#mermaid-1606941336087 g.stateGroup line{stroke:#9370db;stroke-width:1}#mermaid-1606941336087 .transition{stroke:#9370db;stroke-width:1;fill:none}#mermaid-1606941336087 .stateGroup .composit{fill:white;border-bottom:1px}#mermaid-1606941336087 .stateGroup .alt-composit{fill:#e0e0e0;border-bottom:1px}#mermaid-1606941336087 .state-note{stroke:#aa3;fill:#fff5ad}#mermaid-1606941336087 .state-note text{fill:black;stroke:none;font-size:10px}#mermaid-1606941336087 .stateLabel .box{stroke:none;stroke-width:0;fill:#ECECFF;opacity:0.5}#mermaid-1606941336087 .stateLabel text{fill:#000;font-size:10px;font-weight:bold;font-family:'trebuchet ms', verdana, arial;font-family:var(--mermaid-font-family)}#mermaid-1606941336087 .node circle.state-start{fill:black;stroke:black}#mermaid-1606941336087 .node circle.state-end{fill:black;stroke:white;stroke-width:1.5}#mermaid-1606941336087 #statediagram-barbEnd{fill:#9370db}#mermaid-1606941336087 .statediagram-cluster rect{fill:#ECECFF;stroke:#9370db;stroke-width:1px}#mermaid-1606941336087 .statediagram-cluster rect.outer{rx:5px;ry:5px}#mermaid-1606941336087 .statediagram-state .divider{stroke:#9370db}#mermaid-1606941336087 .statediagram-state .title-state{rx:5px;ry:5px}#mermaid-1606941336087 .statediagram-cluster.statediagram-cluster .inner{fill:white}#mermaid-1606941336087 .statediagram-cluster.statediagram-cluster-alt .inner{fill:#e0e0e0}#mermaid-1606941336087 .statediagram-cluster .inner{rx:0;ry:0}#mermaid-1606941336087 .statediagram-state rect.basic{rx:5px;ry:5px}#mermaid-1606941336087 .statediagram-state rect.divider{stroke-dasharray:10,10;fill:#efefef}#mermaid-1606941336087 .note-edge{stroke-dasharray:5}#mermaid-1606941336087 .statediagram-note rect{fill:#fff5ad;stroke:#aa3;stroke-width:1px;rx:0;ry:0}:root{--mermaid-font-family: '"trebuchet ms", verdana, arial';--mermaid-font-family: "Comic Sans MS", "Comic Sans", cursive}

:root { --mermaid-font-family: "trebuchet ms", verdana, arial;}</style><style>#mermaid-1606941336087 {
    color: rgb(0, 0, 0);
    font: 16px "trebuchet ms", verdana, arial;
  }</style><g><defs><marker id="statediagram-barbEnd" refX="19" refY="7" markerWidth="20" markerHeight="14" markerUnits="0" orient="auto"><path d="M 19,7 L9,13 L14,7 L9,1 Z"></path></marker></defs><g class="root"><g class="clusters"><g class="note-cluster" id="0----parent"><rect x="8" y="133" width="996.890625" height="286.5" fill="none"></rect></g><g class="note-cluster" id="8----parent"><rect x="347.5546875" y="953.5" width="845.43359375" height="229.5" fill="none"></rect></g><g class="note-cluster" id="25----parent"><rect x="1024.890625" y="8" width="416.25" height="235.5" fill="none"></rect></g></g><g class="edgePaths"><path d="M522.765625,65L522.765625,72.16666666666667C522.765625,79.33333333333333,522.765625,93.66666666666667,522.765625,105C522.765625,116.33333333333333,522.765625,124.66666666666667,522.765625,135.20833333333334C522.765625,145.75,522.765625,158.5,522.765625,164.875L522.765625,171.25" id="edge0" class="transition" marker-end="url(#statediagram-barbEnd)"></path><path d="M462.0078125,204.64746794382538L438.0143229166667,211.1228899531878C414.0208333333333,217.59831196255027,366.0338541666667,230.54915598127513,342.0403645833333,242.77457799063757C318.046875,255,318.046875,266.5,318.046875,278C318.046875,289.5,318.046875,301,318.046875,306.75L318.046875,312.5" class="transition note-edge"></path><path d="M583.5234375,184.59435053503785L620.4878472222222,182.37029211253153C657.4522569444445,180.14623369002524,731.3810763888888,175.6981168450126,777.5865885416666,173.47405842250632C823.7921006944443,171.25,842.2743055555557,171.25,860.7565104166666,174.08333333333334C879.2387152777778,176.91666666666666,897.720920138889,182.58333333333334,897.720920138889,188.25C897.720920138889,193.91666666666666,879.2387152777778,199.58333333333334,860.7565104166666,202.41666666666666C842.2743055555557,205.25,823.7921006944443,205.25,777.5865885416666,203.02594157749368C731.3810763888888,200.8018831549874,657.4522569444445,196.35376630997476,620.4878472222222,194.12970788746847L583.5234375,191.90564946496215" id="edge1" class="transition" marker-end="url(#statediagram-barbEnd)"></path><path d="M583.5234375,204.64746794382538L607.5169270833334,211.1228899531878C631.5104166666666,217.59831196255027,679.4973958333334,230.54915598127513,703.4908854166666,242.77457799063757C727.484375,255,727.484375,266.5,727.484375,284.8333333333333C727.484375,303.1666666666667,727.484375,328.3333333333333,727.484375,351.9166666666667C727.484375,375.5,727.484375,397.5,727.484375,414.25C727.484375,431,727.484375,442.5,727.484375,454C727.484375,465.5,727.484375,477,727.484375,482.75L727.484375,488.5" id="edge2" class="transition" marker-end="url(#statediagram-barbEnd)"></path><path d="M1597.1875,336.3809663499754L1612.1197916666667,334.1924719583128C1627.0520833333333,332.00397756665024,1656.9166666666667,327.6269887833251,1675.58203125,325.4384943916626C1694.2473958333333,323.25,1701.7135416666667,323.25,1709.1796875,328.2916666666667C1716.6458333333333,333.3333333333333,1724.1119791666667,343.4166666666667,1724.1119791666667,353.5C1724.1119791666667,363.5833333333333,1716.6458333333333,373.6666666666667,1709.1796875,378.7083333333333C1701.7135416666667,383.75,1694.2473958333333,383.75,1675.58203125,381.5615056083374C1656.9166666666667,379.3730112166749,1627.0520833333333,374.99602243334976,1612.1197916666667,372.8075280416872L1597.1875,370.6190336500246" id="edge3" class="transition" marker-end="url(#statediagram-barbEnd)"></path><path d="M628.734375,540.5564584887562L596.3229166666666,547.7137154072968C563.9114583333334,554.8709723258374,499.0885416666667,569.1854861629187,466.6770833333333,587.134409748126C434.265625,605.0833333333334,434.265625,626.6666666666666,434.265625,648.25C434.265625,669.8333333333334,434.265625,691.4166666666666,434.265625,710.7916666666666C434.265625,730.1666666666666,434.265625,747.3333333333334,434.265625,764.5C434.265625,781.6666666666666,434.265625,798.8333333333334,434.265625,816C434.265625,833.1666666666666,434.265625,850.3333333333334,434.265625,867.5C434.265625,884.6666666666666,434.265625,901.8333333333334,434.265625,916.1666666666666C434.265625,930.5,434.265625,942,434.265625,956.0833333333334C434.265625,970.1666666666666,434.265625,986.8333333333334,434.265625,1005.0833333333334C434.265625,1023.3333333333334,434.265625,1043.1666666666667,470.8645833333333,1060.5351135786698C507.4635416666667,1077.903560490673,580.6614583333334,1092.8071209813459,617.2604166666666,1100.2589012266824L653.859375,1107.710681472019" id="edge4" class="transition" marker-end="url(#statediagram-barbEnd)"></path><path d="M792.6890383687258,549L805.0833132239383,554.75C817.4775880791507,560.5,842.2661377895753,572,854.6604126447877,583.5C867.0546875,595,867.0546875,606.5,867.0546875,612.25L867.0546875,618" id="edge5" class="transition" marker-end="url(#statediagram-barbEnd)"></path><path d="M971.625,670.1336165538835L1005.7643229166666,677.2780137949029C1039.9036458333333,684.4224110359223,1108.1822916666667,698.711205517961,1142.3216145833333,711.6056027589806C1176.4609375,724.5,1176.4609375,736,1176.4609375,741.75L1176.4609375,747.5" id="edge6" class="transition" marker-end="url(#statediagram-barbEnd)"></path><path d="M1250.5390625,756.3277959914827L1263.8758680555557,754.856496659569C1277.212673611111,753.3851973276551,1303.8862847222224,750.4425986638275,1320.5572916666667,748.9712993319139C1337.2282986111113,747.5,1343.896701388889,747.5,1350.5651041666667,750.3333333333334C1357.2335069444446,753.1666666666666,1363.9019097222224,758.8333333333334,1363.9019097222224,764.5C1363.9019097222224,770.1666666666666,1357.2335069444446,775.8333333333334,1350.5651041666667,778.6666666666666C1343.896701388889,781.5,1337.2282986111113,781.5,1320.5572916666667,780.0287006680861C1303.8862847222224,778.5574013361725,1277.212673611111,775.6148026723449,1263.8758680555557,774.143503340431L1250.5390625,772.6722040085173" id="edge7" class="transition" marker-end="url(#statediagram-barbEnd)"></path><path d="M1250.5390625,773.2728473132961L1310.6705729166667,780.3940394277466C1370.8020833333333,787.5152315421974,1491.0651041666667,801.7576157710987,1551.1966145833333,814.6288078855492C1611.328125,827.5,1611.328125,839,1611.328125,844.75L1611.328125,850.5" id="edge8" class="transition" marker-end="url(#statediagram-barbEnd)"></path><path d="M583.5234375,198.02476796032576L630.6341145833334,205.6039733002715C677.7447916666666,213.1831786402172,771.9661458333334,228.3415893201086,819.0768229166666,241.6707946600543C866.1875,255,866.1875,266.5,949.0859375,282.440295991961C1031.984375,298.38059198392205,1197.78125,318.7611839678441,1280.6796875,328.9514799598051L1363.578125,339.14177595176614" id="edge9" class="transition" marker-end="url(#statediagram-barbEnd)"></path><path d="M762.484375,671.307632191553L730.970703125,678.2563601596275C699.45703125,685.205088127702,636.4296875,699.102544063851,604.916015625,714.6346053652588C573.40234375,730.1666666666666,573.40234375,747.3333333333334,573.40234375,764.5C573.40234375,781.6666666666666,573.40234375,798.8333333333334,582.9894569174758,813.1666666666666C592.5765700849514,827.5,611.7507964199029,839,621.3379095873787,844.75L630.9250227548544,850.5" id="edge10" class="transition" marker-end="url(#statediagram-barbEnd)"></path><path d="M1102.3828125,772.7157392218717L1037.3365885416667,779.929782684893C972.2903645833334,787.1438261479144,842.1979166666666,801.5719130739571,771.2525346379449,814.5359565369786C700.3071526092232,827.5,688.5088364684466,839,682.6096783980582,844.75L676.7105203276699,850.5" id="edge11" class="transition" marker-end="url(#statediagram-barbEnd)"></path><path d="M1530.641307645631,884.5L1503.350178246359,890.25C1476.0590488470873,896,1421.4767900485438,907.5,1394.1856606492718,919C1366.89453125,930.5,1366.89453125,942,1366.89453125,953.25C1366.89453125,964.5,1366.89453125,975.5,1366.89453125,981L1366.89453125,986.5" id="edge12" class="transition" marker-end="url(#statediagram-barbEnd)"></path><path d="M659.26953125,884.5L659.26953125,890.25C659.26953125,896,659.26953125,907.5,659.26953125,919C659.26953125,930.5,659.26953125,942,659.26953125,956.0833333333334C659.26953125,970.1666666666666,659.26953125,986.8333333333334,659.26953125,1005.0833333333334C659.26953125,1023.3333333333334,659.26953125,1043.1666666666667,667.5292591698841,1058.8333333333333C675.7889870897683,1074.5,692.3084429295367,1086,700.5681708494208,1091.75L708.827898769305,1097.5" id="edge13" class="transition" marker-end="url(#statediagram-barbEnd)"></path><path d="M1227.98828125,1018.6697783131148L1160.3346354166667,1026.0581485942623C1092.6809895833333,1033.44651887541,957.3736979166666,1048.2232594377049,883.5229146557272,1061.3616297188526C809.6721313947877,1074.5,797.2778565395753,1086,791.0807191119692,1091.75L784.883581684363,1097.5" id="edge14" class="transition" marker-end="url(#statediagram-barbEnd)"></path><path d="M752.35546875,861.5028719183625L780.8194444444445,859.6690599319687C809.2834201388888,857.8352479455749,866.2113715277777,854.1676239727875,901.7913411458331,852.3338119863938C937.3713107638888,850.5,951.6032986111112,850.5,965.8352864583334,853.3333333333334C980.0672743055557,856.1666666666666,994.2992621527778,861.8333333333334,994.2992621527777,867.5C994.2992621527778,873.1666666666666,980.0672743055557,878.8333333333334,965.8352864583335,881.6666666666666C951.6032986111112,884.5,937.3713107638888,884.5,901.7913411458334,882.6661880136062C866.2113715277777,880.8323760272125,809.2834201388888,877.1647520544251,780.8194444444443,875.3309400680313L752.35546875,873.4971280816375" id="edge15" class="transition" marker-end="url(#statediagram-barbEnd)"></path><path d="M1505.80078125,994.1975933031043L1524.9578993055557,992.9146610859202C1544.115017361111,991.6317288687363,1582.429253472222,989.0658644343681,1606.3756510416667,987.7829322171841C1630.322048611111,986.5,1639.900607638889,986.5,1649.4791666666667,989.3333333333334C1659.0577256944446,992.1666666666666,1668.6362847222224,997.8333333333334,1668.636284722222,1003.5C1668.6362847222224,1009.1666666666666,1659.0577256944446,1014.8333333333334,1649.479166666667,1017.6666666666666C1639.900607638889,1020.5,1630.322048611111,1020.5,1606.3756510416667,1019.2170677828159C1582.429253472222,1017.9341355656319,1544.115017361111,1015.3682711312637,1524.9578993055554,1014.0853389140797L1505.80078125,1012.8024066968957" id="edge16" class="transition" marker-end="url(#statediagram-barbEnd)"></path><path d="M1480.3828125,383.75L1480.3828125,389.7083333333333C1480.3828125,395.6666666666667,1480.3828125,407.5833333333333,1480.3828125,419.2916666666667C1480.3828125,431,1480.3828125,442.5,1371.3580729166667,457.6262339465884C1262.3333333333333,472.75246789317674,1044.2838541666667,491.5049357863534,935.2591145833334,500.8811697329418L826.234375,510.25740367953017" id="edge17" class="transition" marker-end="url(#statediagram-barbEnd)"></path><path d="M752.35546875,851.7906607613733L787.7018229166666,845.8255506344777C823.0481770833334,839.8604405075821,893.7408854166666,827.930220253791,952.760195438916,816.2151101268955C1011.7795054611651,804.5,1059.1254171723301,793,1082.7983730279127,787.25L1106.471328883495,781.5" id="edge18" class="transition" marker-end="url(#statediagram-barbEnd)"></path><path d="M1505.80078125,1015.53223274911L1597.1328125,1023.443527290925C1688.46484375,1031.3548218327398,1871.12890625,1047.17741091637,1962.4609375,1063.0470387915184C2053.79296875,1078.9166666666667,2053.79296875,1094.8333333333333,2053.79296875,1102.7916666666667L2053.79296875,1110.75" id="edge19" class="transition" marker-end="url(#statediagram-barbEnd)"></path><path d="M1685.3691595873786,884.5L1710.4124506978153,890.25C1735.4557418082525,896,1785.5423240291263,907.5,1810.585615139563,919C1835.62890625,930.5,1835.62890625,942,1835.62890625,956.0833333333334C1835.62890625,970.1666666666666,1835.62890625,986.8333333333334,1835.62890625,1005.0833333333334C1835.62890625,1023.3333333333334,1835.62890625,1043.1666666666667,1835.62890625,1063.875C1835.62890625,1084.5833333333333,1835.62890625,1106.1666666666667,1835.62890625,1126.1666666666667C1835.62890625,1146.1666666666667,1835.62890625,1164.5833333333333,1835.62890625,1179.5416666666667C1835.62890625,1194.5,1835.62890625,1206,1845.3157275579151,1217.5C1855.0025488658302,1229,1874.3761914816603,1240.5,1884.0630127895754,1246.25L1893.7498340974903,1252" id="edge20" class="transition" marker-end="url(#statediagram-barbEnd)"></path><path d="M2053.79296875,1144.75L2053.79296875,1151.125C2053.79296875,1157.5,2053.79296875,1170.25,2053.79296875,1182.375C2053.79296875,1194.5,2053.79296875,1206,2044.1061474420849,1217.5C2034.4193261341698,1229,2015.0456835183397,1240.5,2005.3588622104246,1246.25L1995.6720409025097,1252" id="edge21" class="transition" marker-end="url(#statediagram-barbEnd)"></path><path d="M1944.7109375,1312.5L1944.7109375,1318.25C1944.7109375,1324,1944.7109375,1335.5,1944.7109375,1347C1944.7109375,1358.5,1944.7109375,1370,1944.7109375,1375.75L1944.7109375,1381.5" id="edge22" class="transition" marker-end="url(#statediagram-barbEnd)"></path><path d="M752.28125,1158L752.28125,1162.1666666666667C752.28125,1166.3333333333333,752.28125,1174.6666666666667,752.28125,1184.5833333333333C752.28125,1194.5,752.28125,1206,752.28125,1219.7083333333333C752.28125,1233.4166666666667,752.28125,1249.3333333333333,752.28125,1257.2916666666667L752.28125,1265.25" id="edge23" class="transition" marker-end="url(#statediagram-barbEnd)"></path><path d="M1233.015625,218.5L1233.015625,222.66666666666666C1233.015625,226.83333333333334,1233.015625,235.16666666666666,1233.015625,245.08333333333334C1233.015625,255,1233.015625,266.5,1233.015625,282C1233.015625,297.5,1233.015625,317,1233.015625,326.75L1233.015625,336.5" id="edge24" class="transition" marker-end="url(#statediagram-barbEnd)"></path><path d="M984.86328125,1028.5L984.86328125,1034.25C984.86328125,1040,984.86328125,1051.5,962.5032552083334,1063.4749507342278C940.1432291666666,1075.449901468456,895.4231770833334,1087.8998029369118,873.0631510416666,1094.1247536711396L850.703125,1100.3497044053677" class="transition note-edge"></path><path d="M1233.015625,83L1233.015625,87.16666666666667C1233.015625,91.33333333333333,1233.015625,99.66666666666667,1233.015625,108C1233.015625,116.33333333333333,1233.015625,124.66666666666667,1233.015625,133C1233.015625,141.33333333333334,1233.015625,149.66666666666666,1233.015625,153.83333333333334L1233.015625,158" class="transition note-edge"></path></g><g class="edgeLabels"><g class="edgeLabel"><g class="label" transform="translate(0, 0)"><rect rx="0" ry="0" width="0" height="0" style="fill:#e8e8e8;"></rect><text style=""></text></g></g><g class="edgeLabel"><g class="label" transform="translate(0, 0)"><rect rx="0" ry="0" width="0" height="0" style="fill:#e8e8e8;"></rect><text style=""></text></g></g><g class="edgeLabel" transform="translate(916.203125, 188.25)"><g class="label" transform="translate(-68.6875, -9.5)"><rect rx="0" ry="0" width="137.296875" height="19.03125" style="fill:#e8e8e8;"></rect><text style=""><tspan xml:space="preserve" dy="1em" x="0" class="row">ProviderEventOpen</tspan></text></g></g><g class="edgeLabel" transform="translate(727.484375, 353.5)"><g class="label" transform="translate(-99.390625, -9.5)"><rect rx="0" ry="0" width="198.65625" height="19.03125" style="fill:#e8e8e8;"></rect><text style=""><tspan xml:space="preserve" dy="1em" x="0" class="row">ProviderEventDealAccepted</tspan></text></g></g><g class="edgeLabel" transform="translate(1731.578125, 353.5)"><g class="label" transform="translate(-99.390625, -9.5)"><rect rx="0" ry="0" width="198.65625" height="19.03125" style="fill:#e8e8e8;"></rect><text style=""><tspan xml:space="preserve" dy="1em" x="0" class="row">ProviderEventDealAccepted</tspan></text></g></g><g class="edgeLabel" transform="translate(434.265625, 816)"><g class="label" transform="translate(-91.734375, -9.5)"><rect rx="0" ry="0" width="183.359375" height="19.03125" style="fill:#e8e8e8;"></rect><text style=""><tspan xml:space="preserve" dy="1em" x="0" class="row">ProviderEventUnsealError</tspan></text></g></g><g class="edgeLabel" transform="translate(867.0546875, 583.5)"><g class="label" transform="translate(-108.2578125, -9.5)"><rect rx="0" ry="0" width="216.390625" height="19.03125" style="fill:#e8e8e8;"></rect><text style=""><tspan xml:space="preserve" dy="1em" x="0" class="row">ProviderEventUnsealComplete</tspan></text></g></g><g class="edgeLabel" transform="translate(1176.4609375, 713)"><g class="label" transform="translate(-85.03125, -9.5)"><rect rx="0" ry="0" width="169.96875" height="19.03125" style="fill:#e8e8e8;"></rect><text style=""><tspan xml:space="preserve" dy="1em" x="0" class="row">ProviderEventBlockSent</tspan></text></g></g><g class="edgeLabel" transform="translate(1370.5703125, 764.5)"><g class="label" transform="translate(-85.03125, -9.5)"><rect rx="0" ry="0" width="169.96875" height="19.03125" style="fill:#e8e8e8;"></rect><text style=""><tspan xml:space="preserve" dy="1em" x="0" class="row">ProviderEventBlockSent</tspan></text></g></g><g class="edgeLabel" transform="translate(1611.328125, 816)"><g class="label" transform="translate(-111.40625, -9.5)"><rect rx="0" ry="0" width="222.6875" height="19.03125" style="fill:#e8e8e8;"></rect><text style=""><tspan xml:space="preserve" dy="1em" x="0" class="row">ProviderEventBlocksCompleted</tspan></text></g></g><g class="edgeLabel" transform="translate(866.1875, 278)"><g class="label" transform="translate(-118.703125, -9.5)"><rect rx="0" ry="0" width="237.265625" height="19.03125" style="fill:#e8e8e8;"></rect><text style=""><tspan xml:space="preserve" dy="1em" x="0" class="row">ProviderEventPaymentRequested</tspan></text></g></g><g class="edgeLabel" transform="translate(573.40234375, 764.5)"><g class="label" transform="translate(-118.703125, -9.5)"><rect rx="0" ry="0" width="237.265625" height="19.03125" style="fill:#e8e8e8;"></rect><text style=""><tspan xml:space="preserve" dy="1em" x="0" class="row">ProviderEventPaymentRequested</tspan></text></g></g><g class="edgeLabel" transform="translate(712.10546875, 816)"><g class="label" transform="translate(-118.703125, -9.5)"><rect rx="0" ry="0" width="237.265625" height="19.03125" style="fill:#e8e8e8;"></rect><text style=""><tspan xml:space="preserve" dy="1em" x="0" class="row">ProviderEventPaymentRequested</tspan></text></g></g><g class="edgeLabel" transform="translate(1366.89453125, 919)"><g class="label" transform="translate(-118.703125, -9.5)"><rect rx="0" ry="0" width="237.265625" height="19.03125" style="fill:#e8e8e8;"></rect><text style=""><tspan xml:space="preserve" dy="1em" x="0" class="row">ProviderEventPaymentRequested</tspan></text></g></g><g class="edgeLabel" transform="translate(659.26953125, 1003.5)"><g class="label" transform="translate(-117.46875, -9.5)"><rect rx="0" ry="0" width="234.796875" height="19.03125" style="fill:#e8e8e8;"></rect><text style=""><tspan xml:space="preserve" dy="1em" x="0" class="row">ProviderEventSaveVoucherFailed</tspan></text></g></g><g class="edgeLabel" transform="translate(822.06640625, 1063)"><g class="label" transform="translate(-117.46875, -9.5)"><rect rx="0" ry="0" width="234.796875" height="19.03125" style="fill:#e8e8e8;"></rect><text style=""><tspan xml:space="preserve" dy="1em" x="0" class="row">ProviderEventSaveVoucherFailed</tspan></text></g></g><g class="edgeLabel" transform="translate(1008.53125, 867.5)"><g class="label" transform="translate(-137.4140625, -9.5)"><rect rx="0" ry="0" width="274.65625" height="19.03125" style="fill:#e8e8e8;"></rect><text style=""><tspan xml:space="preserve" dy="1em" x="0" class="row">ProviderEventPartialPaymentReceived</tspan></text></g></g><g class="edgeLabel" transform="translate(1678.21484375, 1003.5)"><g class="label" transform="translate(-137.4140625, -9.5)"><rect rx="0" ry="0" width="274.65625" height="19.03125" style="fill:#e8e8e8;"></rect><text style=""><tspan xml:space="preserve" dy="1em" x="0" class="row">ProviderEventPartialPaymentReceived</tspan></text></g></g><g class="edgeLabel" transform="translate(1480.3828125, 454)"><g class="label" transform="translate(-113.625, -9.5)"><rect rx="0" ry="0" width="227.109375" height="19.03125" style="fill:#e8e8e8;"></rect><text style=""><tspan xml:space="preserve" dy="1em" x="0" class="row">ProviderEventPaymentReceived</tspan></text></g></g><g class="edgeLabel" transform="translate(964.43359375, 816)"><g class="label" transform="translate(-113.625, -9.5)"><rect rx="0" ry="0" width="227.109375" height="19.03125" style="fill:#e8e8e8;"></rect><text style=""><tspan xml:space="preserve" dy="1em" x="0" class="row">ProviderEventPaymentReceived</tspan></text></g></g><g class="edgeLabel" transform="translate(2053.79296875, 1063)"><g class="label" transform="translate(-113.625, -9.5)"><rect rx="0" ry="0" width="227.109375" height="19.03125" style="fill:#e8e8e8;"></rect><text style=""><tspan xml:space="preserve" dy="1em" x="0" class="row">ProviderEventPaymentReceived</tspan></text></g></g><g class="edgeLabel" transform="translate(1835.62890625, 1063)"><g class="label" transform="translate(-84.5390625, -9.5)"><rect rx="0" ry="0" width="168.96875" height="19.03125" style="fill:#e8e8e8;"></rect><text style=""><tspan xml:space="preserve" dy="1em" x="0" class="row">ProviderEventComplete</tspan></text></g></g><g class="edgeLabel" transform="translate(2053.79296875, 1217.5)"><g class="label" transform="translate(-84.5390625, -9.5)"><rect rx="0" ry="0" width="168.96875" height="19.03125" style="fill:#e8e8e8;"></rect><text style=""><tspan xml:space="preserve" dy="1em" x="0" class="row">ProviderEventComplete</tspan></text></g></g><g class="edgeLabel" transform="translate(1944.7109375, 1347)"><g class="label" transform="translate(-113.4453125, -9.5)"><rect rx="0" ry="0" width="226.75" height="19.03125" style="fill:#e8e8e8;"></rect><text style=""><tspan xml:space="preserve" dy="1em" x="0" class="row">ProviderEventCleanupComplete</tspan></text></g></g><g class="edgeLabel" transform="translate(752.28125, 1217.5)"><g class="label" transform="translate(-108.578125, -9.5)"><rect rx="0" ry="0" width="217.03125" height="19.03125" style="fill:#e8e8e8;"></rect><text style=""><tspan xml:space="preserve" dy="1em" x="0" class="row">ProviderEventCancelComplete</tspan></text></g></g><g class="edgeLabel" transform="translate(1233.015625, 278)"><g class="label" transform="translate(-108.578125, -9.5)"><rect rx="0" ry="0" width="217.03125" height="19.03125" style="fill:#e8e8e8;"></rect><text style=""><tspan xml:space="preserve" dy="1em" x="0" class="row">ProviderEventCancelComplete</tspan></text></g></g><g class="edgeLabel"><g class="label" transform="translate(0, 0)"><rect rx="0" ry="0" width="0" height="0" style="fill:#e8e8e8;"></rect><text style=""></text></g></g><g class="edgeLabel"><g class="label" transform="translate(0, 0)"><rect rx="0" ry="0" width="0" height="0" style="fill:#e8e8e8;"></rect><text style=""></text></g></g></g><g class="nodes"><g class="node statediagram-state" id="0" transform="translate(522.765625, 188.25)"><rect class="outer title-state" x="-60.7578125" y="-17" width="121.515625" height="34"></rect><line class="divider" x1="-60.7578125" x2="60.7578125" y1="9.5" y2="9.5"></line><g class="label" transform="translate(-53.2578125, -14)"><text style=""><tspan xml:space="preserve" dy="1em" x="0" class="title-row">DealStatusNew</tspan></text><text style="" transform="translate( 0, 26.5)"><tspan xml:space="preserve" dy="1em" x="0" class="title-row"></tspan></text></g></g><g class="node statediagram-state" id="1" transform="translate(727.484375, 518.75)"><rect class="outer title-state" x="-98.75" y="-30.25" width="197.5" height="60.5"></rect><line class="divider" x1="-98.75" x2="98.75" y1="-3.75" y2="-3.75"></line><g class="label" transform="translate(-91.25, -27.25)"><text style=""><tspan xml:space="preserve" dy="1em" x="0" class="title-row">DealStatusUnsealing</tspan></text><text style="" transform="translate( 0, 26.5)"><tspan xml:space="preserve" dy="1em" x="0" class="title-row">On entry runs UnsealData</tspan></text></g></g><g class="node statediagram-state" id="2" transform="translate(867.0546875, 648.25)"><rect class="outer title-state" x="-104.5703125" y="-30.25" width="209.140625" height="60.5"></rect><line class="divider" x1="-104.5703125" x2="104.5703125" y1="-3.75" y2="-3.75"></line><g class="label" transform="translate(-97.0703125, -27.25)"><text style=""><tspan xml:space="preserve" dy="1em" x="0" class="title-row">DealStatusUnsealed</tspan></text><text style="" transform="translate( 0, 26.5)"><tspan xml:space="preserve" dy="1em" x="0" class="title-row">On entry runs UnpauseDeal</tspan></text></g></g><g class="node statediagram-state" id="7" transform="translate(1480.3828125, 353.5)"><rect class="outer title-state" x="-116.8046875" y="-30.25" width="233.609375" height="60.5"></rect><line class="divider" x1="-116.8046875" x2="116.8046875" y1="-3.75" y2="-3.75"></line><g class="label" transform="translate(-109.3046875, -27.25)"><text style=""><tspan xml:space="preserve" dy="1em" x="0" class="title-row">DealStatusFundsNeededUnseal</tspan></text><text style="" transform="translate( 0, 26.5)"><tspan xml:space="preserve" dy="1em" x="0" class="title-row">On entry runs TrackTransfer</tspan></text></g></g><g class="node statediagram-state" id="8" transform="translate(752.28125, 1127.75)"><rect class="outer title-state" x="-98.421875" y="-30.25" width="196.84375" height="60.5"></rect><line class="divider" x1="-98.421875" x2="98.421875" y1="-3.75" y2="-3.75"></line><g class="label" transform="translate(-90.921875, -27.25)"><text style=""><tspan xml:space="preserve" dy="1em" x="0" class="title-row">DealStatusFailing</tspan></text><text style="" transform="translate( 0, 26.5)"><tspan xml:space="preserve" dy="1em" x="0" class="title-row">On entry runs CancelDeal</tspan></text></g></g><g class="node statediagram-state" id="10" transform="translate(659.26953125, 867.5)"><rect class="outer title-state" x="-93.0859375" y="-17" width="186.171875" height="34"></rect><line class="divider" x1="-93.0859375" x2="93.0859375" y1="9.5" y2="9.5"></line><g class="label" transform="translate(-85.5859375, -14)"><text style=""><tspan xml:space="preserve" dy="1em" x="0" class="title-row">DealStatusFundsNeeded</tspan></text><text style="" transform="translate( 0, 26.5)"><tspan xml:space="preserve" dy="1em" x="0" class="title-row"></tspan></text></g></g><g class="node statediagram-state" id="13" transform="translate(1176.4609375, 764.5)"><rect class="outer title-state" x="-74.078125" y="-17" width="148.15625" height="34"></rect><line class="divider" x1="-74.078125" x2="74.078125" y1="9.5" y2="9.5"></line><g class="label" transform="translate(-66.578125, -14)"><text style=""><tspan xml:space="preserve" dy="1em" x="0" class="title-row">DealStatusOngoing</tspan></text><text style="" transform="translate( 0, 26.5)"><tspan xml:space="preserve" dy="1em" x="0" class="title-row"></tspan></text></g></g><g class="node statediagram-state" id="14" transform="translate(1366.89453125, 1003.5)"><rect class="outer title-state" x="-138.90625" y="-17" width="277.8125" height="34"></rect><line class="divider" x1="-138.90625" x2="138.90625" y1="9.5" y2="9.5"></line><g class="label" transform="translate(-131.40625, -14)"><text style=""><tspan xml:space="preserve" dy="1em" x="0" class="title-row">DealStatusFundsNeededLastPayment</tspan></text><text style="" transform="translate( 0, 26.5)"><tspan xml:space="preserve" dy="1em" x="0" class="title-row"></tspan></text></g></g><g class="node statediagram-state" id="15" transform="translate(1944.7109375, 1398.5)"><rect class="outer title-state" x="-84.2265625" y="-17" width="168.453125" height="34"></rect><line class="divider" x1="-84.2265625" x2="84.2265625" y1="9.5" y2="9.5"></line><g class="label" transform="translate(-76.7265625, -14)"><text style=""><tspan xml:space="preserve" dy="1em" x="0" class="title-row">DealStatusCompleted</tspan></text><text style="" transform="translate( 0, 26.5)"><tspan xml:space="preserve" dy="1em" x="0" class="title-row"></tspan></text></g></g><g class="node statediagram-state" id="17" transform="translate(752.28125, 1282.25)"><rect class="outer title-state" x="-72.0625" y="-17" width="144.125" height="34"></rect><line class="divider" x1="-72.0625" x2="72.0625" y1="9.5" y2="9.5"></line><g class="label" transform="translate(-64.5625, -14)"><text style=""><tspan xml:space="preserve" dy="1em" x="0" class="title-row">DealStatusErrored</tspan></text><text style="" transform="translate( 0, 26.5)"><tspan xml:space="preserve" dy="1em" x="0" class="title-row"></tspan></text></g></g><g class="node statediagram-state" id="18" transform="translate(1611.328125, 867.5)"><rect class="outer title-state" x="-102.1875" y="-17" width="204.375" height="34"></rect><line class="divider" x1="-102.1875" x2="102.1875" y1="9.5" y2="9.5"></line><g class="label" transform="translate(-94.6875, -14)"><text style=""><tspan xml:space="preserve" dy="1em" x="0" class="title-row">DealStatusBlocksComplete</tspan></text><text style="" transform="translate( 0, 26.5)"><tspan xml:space="preserve" dy="1em" x="0" class="title-row"></tspan></text></g></g><g class="node statediagram-state" id="19" transform="translate(2053.79296875, 1127.75)"><rect class="outer title-state" x="-79.5" y="-17" width="159" height="34"></rect><line class="divider" x1="-79.5" x2="79.5" y1="9.5" y2="9.5"></line><g class="label" transform="translate(-72, -14)"><text style=""><tspan xml:space="preserve" dy="1em" x="0" class="title-row">DealStatusFinalizing</tspan></text><text style="" transform="translate( 0, 26.5)"><tspan xml:space="preserve" dy="1em" x="0" class="title-row"></tspan></text></g></g><g class="node statediagram-state" id="20" transform="translate(1944.7109375, 1282.25)"><rect class="outer title-state" x="-103.2890625" y="-30.25" width="206.578125" height="60.5"></rect><line class="divider" x1="-103.2890625" x2="103.2890625" y1="-3.75" y2="-3.75"></line><g class="label" transform="translate(-95.7890625, -27.25)"><text style=""><tspan xml:space="preserve" dy="1em" x="0" class="title-row">DealStatusCompleting</tspan></text><text style="" transform="translate( 0, 26.5)"><tspan xml:space="preserve" dy="1em" x="0" class="title-row">On entry runs CleanupDeal</tspan></text></g></g><g class="node statediagram-state" id="25" transform="translate(1233.015625, 188.25)"><rect class="outer title-state" x="-98.421875" y="-30.25" width="196.84375" height="60.5"></rect><line class="divider" x1="-98.421875" x2="98.421875" y1="-3.75" y2="-3.75"></line><g class="label" transform="translate(-90.921875, -27.25)"><text style=""><tspan xml:space="preserve" dy="1em" x="0" class="title-row">DealStatusCancelling</tspan></text><text style="" transform="translate( 0, 26.5)"><tspan xml:space="preserve" dy="1em" x="0" class="title-row">On entry runs CancelDeal</tspan></text></g></g><g class="node statediagram-state" id="26" transform="translate(1233.015625, 353.5)"><rect class="outer title-state" x="-80.5625" y="-17" width="161.125" height="34"></rect><line class="divider" x1="-80.5625" x2="80.5625" y1="9.5" y2="9.5"></line><g class="label" transform="translate(-73.0625, -14)"><text style=""><tspan xml:space="preserve" dy="1em" x="0" class="title-row">DealStatusCancelled</tspan></text><text style="" transform="translate( 0, 26.5)"><tspan xml:space="preserve" dy="1em" x="0" class="title-row"></tspan></text></g></g><g class="node default" id="root_start" transform="translate(522.765625, 58)"><circle class="state-start" r="7" width="14" height="14"></circle></g><g class="node statediagram-note" id="0----note" transform="translate(318.046875, 353.5)"><rect x="-275.046875" y="-41" width="550.09375" height="82"></rect><g class="label" transform="translate(-267.546875, -33.5)"><text style=""><tspan xml:space="preserve" dy="1em" x="0" class="row">The following events are not shown cause they can trigger from any state.</tspan><tspan xml:space="preserve" dy="1em" x="0" class="row"></tspan><tspan xml:space="preserve" dy="1em" x="0" class="row">ProviderEventDataTransferError - transitions state to DealStatusErrored</tspan><tspan xml:space="preserve" dy="1em" x="0" class="row">ProviderEventMultiStoreError - transitions state to DealStatusErrored</tspan><tspan xml:space="preserve" dy="1em" x="0" class="row">ProviderEventClientCancelled - transitions state to DealStatusCancelling</tspan></text></g></g><g class="node statediagram-note" id="8----note" transform="translate(984.86328125, 1003.5)"><rect x="-173.125" y="-25" width="346.25" height="50"></rect><g class="label" transform="translate(-165.625, -17.5)"><text style=""><tspan xml:space="preserve" dy="1em" x="0" class="row">The following events only record in this state.</tspan><tspan xml:space="preserve" dy="1em" x="0" class="row"></tspan><tspan xml:space="preserve" dy="1em" x="0" class="row">ProviderEventClientCancelled</tspan></text></g></g><g class="node statediagram-note" id="25----note" transform="translate(1233.015625, 58)"><rect x="-173.125" y="-25" width="346.25" height="50"></rect><g class="label" transform="translate(-165.625, -17.5)"><text style=""><tspan xml:space="preserve" dy="1em" x="0" class="row">The following events only record in this state.</tspan><tspan xml:space="preserve" dy="1em" x="0" class="row"></tspan><tspan xml:space="preserve" dy="1em" x="0" class="row">ProviderEventClientCancelled</tspan></text></g></g></g></g></g></svg>