<svg id="mermaid-1595908605254" width="1843.85546875" xmlns="http://www.w3.org/2000/svg" class="statediagram" height="1229" viewBox="0 0 1843.85546875 1229"><style>#mermaid-1595908605254 .label{font-family:'trebuchet ms', verdana, arial;font-family:var(--mermaid-font-family);color:#333}#mermaid-1595908605254 .label text{fill:#333}#mermaid-1595908605254 .node rect,#mermaid-1595908605254 .node circle,#mermaid-1595908605254 .node ellipse,#mermaid-1595908605254 .node polygon,#mermaid-1595908605254 .node path{fill:#ECECFF;stroke:#9370db;stroke-width:1px}#mermaid-1595908605254 .node .label{text-align:center}#mermaid-1595908605254 .node.clickable{cursor:pointer}#mermaid-1595908605254 .arrowheadPath{fill:#333}#mermaid-1595908605254 .edgePath .path{stroke:#333;stroke-width:1.5px}#mermaid-1595908605254 .edgeLabel{background-color:#e8e8e8;text-align:center}#mermaid-1595908605254 .edgeLabel rect{opacity:0.5}#mermaid-1595908605254 .cluster rect{fill:#ffffde;stroke:#aa3;stroke-width:1px}#mermaid-1595908605254 .cluster text{fill:#333}#mermaid-1595908605254 div.mermaidTooltip{position:absolute;text-align:center;max-width:200px;padding:2px;font-family:'trebuchet ms', verdana, arial;font-family:var(--mermaid-font-family);font-size:12px;background:#ffffde;border:1px solid #aa3;border-radius:2px;pointer-events:none;z-index:100}#mermaid-1595908605254 .actor{stroke:#ccf;fill:#ECECFF}#mermaid-1595908605254 text.actor{fill:#000;stroke:none}#mermaid-1595908605254 .actor-line{stroke:grey}#mermaid-1595908605254 .messageLine0{stroke-width:1.5;stroke-dasharray:'2 2';stroke:#333}#mermaid-1595908605254 .messageLine1{stroke-width:1.5;stroke-dasharray:'2 2';stroke:#333}#mermaid-1595908605254 #arrowhead{fill:#333}#mermaid-1595908605254 .sequenceNumber{fill:#fff}#mermaid-1595908605254 #sequencenumber{fill:#333}#mermaid-1595908605254 #crosshead path{fill:#333 !important;stroke:#333 !important}#mermaid-1595908605254 .messageText{fill:#333;stroke:none}#mermaid-1595908605254 .labelBox{stroke:#ccf;fill:#ECECFF}#mermaid-1595908605254 .labelText{fill:#000;stroke:none}#mermaid-1595908605254 .loopText{fill:#000;stroke:none}#mermaid-1595908605254 .loopLine{stroke-width:2;stroke-dasharray:'2 2';stroke:#ccf}#mermaid-1595908605254 .note{stroke:#aa3;fill:#fff5ad}#mermaid-1595908605254 .noteText{fill:black;stroke:none;font-family:'trebuchet ms', verdana, arial;font-family:var(--mermaid-font-family);font-size:14px}#mermaid-1595908605254 .activation0{fill:#f4f4f4;stroke:#666}#mermaid-1595908605254 .activation1{fill:#f4f4f4;stroke:#666}#mermaid-1595908605254 .activation2{fill:#f4f4f4;stroke:#666}#mermaid-1595908605254 .mermaid-main-font{font-family:"trebuchet ms", verdana, arial;font-family:var(--mermaid-font-family)}#mermaid-1595908605254 .section{stroke:none;opacity:0.2}#mermaid-1595908605254 .section0{fill:rgba(102,102,255,0.49)}#mermaid-1595908605254 .section2{fill:#fff400}#mermaid-1595908605254 .section1,#mermaid-1595908605254 .section3{fill:#fff;opacity:0.2}#mermaid-1595908605254 .sectionTitle0{fill:#333}#mermaid-1595908605254 .sectionTitle1{fill:#333}#mermaid-1595908605254 .sectionTitle2{fill:#333}#mermaid-1595908605254 .sectionTitle3{fill:#333}#mermaid-1595908605254 .sectionTitle{text-anchor:start;font-size:11px;text-height:14px;font-family:'trebuchet ms', verdana, arial;font-family:var(--mermaid-font-family)}#mermaid-1595908605254 .grid .tick{stroke:#d3d3d3;opacity:0.8;shape-rendering:crispEdges}#mermaid-1595908605254 .grid .tick text{font-family:'trebuchet ms', verdana, arial;font-family:var(--mermaid-font-family)}#mermaid-1595908605254 .grid path{stroke-width:0}#mermaid-1595908605254 .today{fill:none;stroke:red;stroke-width:2px}#mermaid-1595908605254 .task{stroke-width:2}#mermaid-1595908605254 .taskText{text-anchor:middle;font-family:'trebuchet ms', verdana, arial;font-family:var(--mermaid-font-family)}#mermaid-1595908605254 .taskText:not([font-size]){font-size:11px}#mermaid-1595908605254 .taskTextOutsideRight{fill:#000;text-anchor:start;font-size:11px;font-family:'trebuchet ms', verdana, arial;font-family:var(--mermaid-font-family)}#mermaid-1595908605254 .taskTextOutsideLeft{fill:#000;text-anchor:end;font-size:11px}#mermaid-1595908605254 .task.clickable{cursor:pointer}#mermaid-1595908605254 .taskText.clickable{cursor:pointer;fill:#003163 !important;font-weight:bold}#mermaid-1595908605254 .taskTextOutsideLeft.clickable{cursor:pointer;fill:#003163 !important;font-weight:bold}#mermaid-1595908605254 .taskTextOutsideRight.clickable{cursor:pointer;fill:#003163 !important;font-weight:bold}#mermaid-1595908605254 .taskText0,#mermaid-1595908605254 .taskText1,#mermaid-1595908605254 .taskText2,#mermaid-1595908605254 .taskText3{fill:#fff}#mermaid-1595908605254 .task0,#mermaid-1595908605254 .task1,#mermaid-1595908605254 .task2,#mermaid-1595908605254 .task3{fill:#8a90dd;stroke:#534fbc}#mermaid-1595908605254 .taskTextOutside0,#mermaid-1595908605254 .taskTextOutside2{fill:#000}#mermaid-1595908605254 .taskTextOutside1,#mermaid-1595908605254 .taskTextOutside3{fill:#000}#mermaid-1595908605254 .active0,#mermaid-1595908605254 .active1,#mermaid-1595908605254 .active2,#mermaid-1595908605254 .active3{fill:#bfc7ff;stroke:#534fbc}#mermaid-1595908605254 .activeText0,#mermaid-1595908605254 .activeText1,#mermaid-1595908605254 .activeText2,#mermaid-1595908605254 .activeText3{fill:#000 !important}#mermaid-1595908605254 .done0,#mermaid-1595908605254 .done1,#mermaid-1595908605254 .done2,#mermaid-1595908605254 .done3{stroke:grey;fill:#d3d3d3;stroke-width:2}#mermaid-1595908605254 .doneText0,#mermaid-1595908605254 .doneText1,#mermaid-1595908605254 .doneText2,#mermaid-1595908605254 .doneText3{fill:#000 !important}#mermaid-1595908605254 .crit0,#mermaid-1595908605254 .crit1,#mermaid-1595908605254 .crit2,#mermaid-1595908605254 .crit3{stroke:#f88;fill:red;stroke-width:2}#mermaid-1595908605254 .activeCrit0,#mermaid-1595908605254 .activeCrit1,#mermaid-1595908605254 .activeCrit2,#mermaid-1595908605254 .activeCrit3{stroke:#f88;fill:#bfc7ff;stroke-width:2}#mermaid-1595908605254 .doneCrit0,#mermaid-1595908605254 .doneCrit1,#mermaid-1595908605254 .doneCrit2,#mermaid-1595908605254 .doneCrit3{stroke:#f88;fill:#d3d3d3;stroke-width:2;cursor:pointer;shape-rendering:crispEdges}#mermaid-1595908605254 .milestone{transform:rotate(45deg) scale(0.8, 0.8)}#mermaid-1595908605254 .milestoneText{font-style:italic}#mermaid-1595908605254 .doneCritText0,#mermaid-1595908605254 .doneCritText1,#mermaid-1595908605254 .doneCritText2,#mermaid-1595908605254 .doneCritText3{fill:#000 !important}#mermaid-1595908605254 .activeCritText0,#mermaid-1595908605254 .activeCritText1,#mermaid-1595908605254 .activeCritText2,#mermaid-1595908605254 .activeCritText3{fill:#000 !important}#mermaid-1595908605254 .titleText{text-anchor:middle;font-size:18px;fill:#000;font-family:'trebuchet ms', verdana, arial;font-family:var(--mermaid-font-family)}#mermaid-1595908605254 g.classGroup text{fill:#9370db;stroke:none;font-family:'trebuchet ms', verdana, arial;font-family:var(--mermaid-font-family);font-size:10px}#mermaid-1595908605254 g.classGroup text .title{font-weight:bolder}#mermaid-1595908605254 g.clickable{cursor:pointer}#mermaid-1595908605254 g.classGroup rect{fill:#ECECFF;stroke:#9370db}#mermaid-1595908605254 g.classGroup line{stroke:#9370db;stroke-width:1}#mermaid-1595908605254 .classLabel .box{stroke:none;stroke-width:0;fill:#ECECFF;opacity:0.5}#mermaid-1595908605254 .classLabel .label{fill:#9370db;font-size:10px}#mermaid-1595908605254 .relation{stroke:#9370db;stroke-width:1;fill:none}#mermaid-1595908605254 .dashed-line{stroke-dasharray:3}#mermaid-1595908605254 #compositionStart{fill:#9370db;stroke:#9370db;stroke-width:1}#mermaid-1595908605254 #compositionEnd{fill:#9370db;stroke:#9370db;stroke-width:1}#mermaid-1595908605254 #aggregationStart{fill:#ECECFF;stroke:#9370db;stroke-width:1}#mermaid-1595908605254 #aggregationEnd{fill:#ECECFF;stroke:#9370db;stroke-width:1}#mermaid-1595908605254 #dependencyStart{fill:#9370db;stroke:#9370db;stroke-width:1}#mermaid-1595908605254 #dependencyEnd{fill:#9370db;stroke:#9370db;stroke-width:1}#mermaid-1595908605254 #extensionStart{fill:#9370db;stroke:#9370db;stroke-width:1}#mermaid-1595908605254 #extensionEnd{fill:#9370db;stroke:#9370db;stroke-width:1}#mermaid-1595908605254 .commit-id,#mermaid-1595908605254 .commit-msg,#mermaid-1595908605254 .branch-label{fill:lightgrey;color:lightgrey;font-family:'trebuchet ms', verdana, arial;font-family:var(--mermaid-font-family)}#mermaid-1595908605254 .pieTitleText{text-anchor:middle;font-size:25px;fill:#000;font-family:'trebuchet ms', verdana, arial;font-family:var(--mermaid-font-family)}#mermaid-1595908605254 .slice{font-family:'trebuchet ms', verdana, arial;font-family:var(--mermaid-font-family)}#mermaid-1595908605254 g.stateGroup text{fill:#9370db;stroke:none;font-size:10px;font-family:'trebuchet ms', verdana, arial;font-family:var(--mermaid-font-family)}#mermaid-1595908605254 g.stateGroup text{fill:#9370db;stroke:none;font-size:10px}#mermaid-1595908605254 g.stateGroup .state-title{font-weight:bolder;fill:#000}#mermaid-1595908605254 g.stateGroup rect{fill:#ECECFF;stroke:#9370db}#mermaid-1595908605254 g.stateGroup line{stroke:#9370db;stroke-width:1}#mermaid-1595908605254 .transition{stroke:#9370db;stroke-width:1;fill:none}#mermaid-1595908605254 .stateGroup .composit{fill:white;border-bottom:1px}#mermaid-1595908605254 .stateGroup .alt-composit{fill:#e0e0e0;border-bottom:1px}#mermaid-1595908605254 .state-note{stroke:#aa3;fill:#fff5ad}#mermaid-1595908605254 .state-note text{fill:black;stroke:none;font-size:10px}#mermaid-1595908605254 .stateLabel .box{stroke:none;stroke-width:0;fill:#ECECFF;opacity:0.5}#mermaid-1595908605254 .stateLabel text{fill:#000;font-size:10px;font-weight:bold;font-family:'trebuchet ms', verdana, arial;font-family:var(--mermaid-font-family)}#mermaid-1595908605254 .node circle.state-start{fill:black;stroke:black}#mermaid-1595908605254 .node circle.state-end{fill:black;stroke:white;stroke-width:1.5}#mermaid-1595908605254 #statediagram-barbEnd{fill:#9370db}#mermaid-1595908605254 .statediagram-cluster rect{fill:#ECECFF;stroke:#9370db;stroke-width:1px}#mermaid-1595908605254 .statediagram-cluster rect.outer{rx:5px;ry:5px}#mermaid-1595908605254 .statediagram-state .divider{stroke:#9370db}#mermaid-1595908605254 .statediagram-state .title-state{rx:5px;ry:5px}#mermaid-1595908605254 .statediagram-cluster.statediagram-cluster .inner{fill:white}#mermaid-1595908605254 .statediagram-cluster.statediagram-cluster-alt .inner{fill:#e0e0e0}#mermaid-1595908605254 .statediagram-cluster .inner{rx:0;ry:0}#mermaid-1595908605254 .statediagram-state rect.basic{rx:5px;ry:5px}#mermaid-1595908605254 .statediagram-state rect.divider{stroke-dasharray:10,10;fill:#efefef}#mermaid-1595908605254 .note-edge{stroke-dasharray:5}#mermaid-1595908605254 .statediagram-note rect{fill:#fff5ad;stroke:#aa3;stroke-width:1px;rx:0;ry:0}:root{--mermaid-font-family: '"trebuchet ms", verdana, arial';--mermaid-font-family: "Comic Sans MS", "Comic Sans", cursive}

:root { --mermaid-font-family: "trebuchet ms", verdana, arial;}</style><style>#mermaid-1595908605254 {
    color: rgb(0, 0, 0);
    font: 16px "trebuchet ms", verdana, arial;
  }</style><g><defs><marker id="statediagram-barbEnd" refX="19" refY="7" markerWidth="20" markerHeight="14" markerUnits="0" orient="auto"><path d="M 19,7 L9,13 L14,7 L9,1 Z"></path></marker></defs><g class="root"><g class="clusters"><g class="note-cluster" id="0----parent"><rect x="8" y="72" width="996.890625" height="219" fill="none"></rect></g></g><g class="edgePaths"><path d="M522.765625,22L522.765625,26.166666666666668C522.765625,30.333333333333332,522.765625,38.666666666666664,522.765625,47C522.765625,55.333333333333336,522.765625,63.666666666666664,522.765625,72C522.765625,80.33333333333333,522.765625,88.66666666666667,522.765625,92.83333333333333L522.765625,97" id="edge0" class="transition" marker-end="url(#statediagram-barbEnd)"></path><path d="M462.0078125,129.28451763089603L438.0143229166667,135.32043135908003C414.0208333333333,141.35634508726403,366.0338541666667,153.42817254363203,342.0403645833333,165.214086271816C318.046875,177,318.046875,188.5,318.046875,194.25L318.046875,200" class="transition note-edge"></path><path d="M583.5234375,110.34435053503783L620.4878472222223,108.12029211253152C657.4522569444445,105.89623369002523,731.381076388889,101.44811684501262,777.5865885416666,99.2240584225063C823.7921006944445,97,842.2743055555557,97,860.7565104166666,99.83333333333333C879.2387152777778,102.66666666666667,897.720920138889,108.33333333333333,897.720920138889,114C897.720920138889,119.66666666666667,879.2387152777778,125.33333333333333,860.7565104166666,128.16666666666666C842.2743055555557,131,823.7921006944445,131,777.5865885416666,128.77594157749368C731.381076388889,126.55188315498738,657.4522569444445,122.10376630997477,620.4878472222223,119.87970788746846L583.5234375,117.65564946496217" id="edge1" class="transition" marker-end="url(#statediagram-barbEnd)"></path><path d="M583.5234375,129.28451763089603L607.5169270833334,135.32043135908003C631.5104166666666,141.35634508726403,679.4973958333334,153.42817254363203,703.4908854166666,170.714086271816C727.484375,188,727.484375,210.5,727.484375,231.41666666666666C727.484375,252.33333333333334,727.484375,271.6666666666667,727.484375,287.0833333333333C727.484375,302.5,727.484375,314,727.6415148407336,325.5C727.7986546814673,337,728.1129343629344,348.5,728.2700742036681,354.25L728.4272140444016,360" id="edge2" class="transition" marker-end="url(#statediagram-barbEnd)"></path><path d="M1273.5,215.88096634997538L1288.4322916666667,213.6924719583128C1303.3645833333333,211.50397756665026,1333.2291666666667,207.12698878332512,1351.89453125,204.93849439166254C1370.5598958333333,202.75,1378.0260416666667,202.75,1385.4921875,207.79166666666666C1392.9583333333333,212.83333333333334,1400.4244791666667,222.91666666666666,1400.4244791666667,233C1400.4244791666667,243.08333333333334,1392.9583333333333,253.16666666666666,1385.4921875,258.2083333333333C1378.0260416666667,263.25,1370.5598958333333,263.25,1351.89453125,261.0615056083374C1333.2291666666667,258.8730112166749,1303.3645833333333,254.49602243334974,1288.4322916666667,252.3075280416872L1273.5,250.11903365002462" id="edge3" class="transition" marker-end="url(#statediagram-barbEnd)"></path><path d="M664.4543768098456,420.5L652.1371108832046,426.25C639.8198449565638,432,615.1853131032818,443.5,602.868047176641,460.0416666666667C590.55078125,476.5833333333333,590.55078125,498.1666666666667,590.55078125,519.75C590.55078125,541.3333333333334,590.55078125,562.9166666666666,590.55078125,582.2916666666666C590.55078125,601.6666666666666,590.55078125,618.8333333333334,590.55078125,636C590.55078125,653.1666666666666,590.55078125,670.3333333333334,590.55078125,687.5C590.55078125,704.6666666666666,590.55078125,721.8333333333334,590.55078125,739C590.55078125,756.1666666666666,590.55078125,773.3333333333334,590.55078125,790.5C590.55078125,807.6666666666666,590.55078125,824.8333333333334,590.55078125,842C590.55078125,859.1666666666666,590.55078125,876.3333333333334,609.1290118243243,890.6666666666666C627.7072423986486,905,664.8637035472973,916.5,683.4419341216217,922.25L702.0201646959459,928" id="edge4" class="transition" marker-end="url(#statediagram-barbEnd)"></path><path d="M793.6318774131274,420.5L805.8690124276062,426.25C818.1061474420849,432,842.5804174710424,443.5,854.8175524855213,455C867.0546875,466.5,867.0546875,478,867.0546875,483.75L867.0546875,489.5" id="edge5" class="transition" marker-end="url(#statediagram-barbEnd)"></path><path d="M971.625,541.6336165538835L1005.7643229166666,548.7780137949029C1039.9036458333333,555.9224110359223,1108.1822916666667,570.2112055179612,1142.3216145833333,583.1056027589806C1176.4609375,596,1176.4609375,607.5,1176.4609375,613.25L1176.4609375,619" id="edge6" class="transition" marker-end="url(#statediagram-barbEnd)"></path><path d="M1250.5390625,627.8277959914827L1263.8758680555554,626.356496659569C1277.212673611111,624.8851973276552,1303.8862847222222,621.9425986638275,1320.5572916666667,620.4712993319138C1337.228298611111,619,1343.896701388889,619,1350.5651041666667,621.8333333333334C1357.2335069444446,624.6666666666666,1363.9019097222224,630.3333333333334,1363.9019097222224,636C1363.9019097222224,641.6666666666666,1357.2335069444446,647.3333333333334,1350.5651041666667,650.1666666666666C1343.896701388889,653,1337.228298611111,653,1320.5572916666667,651.5287006680862C1303.8862847222222,650.0574013361725,1277.212673611111,647.1148026723448,1263.8758680555554,645.643503340431L1250.5390625,644.1722040085173" id="edge7" class="transition" marker-end="url(#statediagram-barbEnd)"></path><path d="M1245.9992415048544,653L1269.5195502123786,658.75C1293.0398589199028,664.5,1340.0804763349515,676,1363.6007850424758,687.5C1387.12109375,699,1387.12109375,710.5,1387.12109375,716.25L1387.12109375,722" id="edge8" class="transition" marker-end="url(#statediagram-barbEnd)"></path><path d="M583.5234375,123.11132217116338L630.6341145833334,130.17610180930282C677.7447916666666,137.24088144744226,771.9661458333334,151.37044072372112,848.02734375,165.16192467811712C924.0885416666666,178.9534086325131,981.9895833333334,192.4068172650262,1010.9401041666666,199.1335215812828L1039.890625,205.86022589753932" id="edge9" class="transition" marker-end="url(#statediagram-barbEnd)"></path><path d="M802.8792833011582,550L790.6806527509652,555.75C778.4820222007721,561.5,754.0847611003861,573,741.8861305501931,587.3333333333334C729.6875,601.6666666666666,729.6875,618.8333333333334,729.6875,636C729.6875,653.1666666666666,729.6875,670.3333333333334,737.4306356189321,684.6666666666666C745.1737712378641,699,760.6600424757281,710.5,768.4031780946602,716.25L776.1463137135922,722" id="edge10" class="transition" marker-end="url(#statediagram-barbEnd)"></path><path d="M1102.3828125,648.3836127101666L1063.3841145833333,654.9030105918056C1024.3854166666667,661.4224084734444,946.3880208333334,674.4612042367222,899.6461872977346,686.7306021183612C852.9043537621359,699,837.4180825242719,710.5,829.6749469053398,716.25L821.9318112864078,722" id="edge11" class="transition" marker-end="url(#statediagram-barbEnd)"></path><path d="M1387.12109375,756L1387.12109375,761.75C1387.12109375,767.5,1387.12109375,779,1387.12109375,790.5C1387.12109375,802,1387.12109375,813.5,1387.12109375,819.25L1387.12109375,825" id="edge12" class="transition" marker-end="url(#statediagram-barbEnd)"></path><path d="M799.0390625,756L799.0390625,761.75C799.0390625,767.5,799.0390625,779,799.0390625,793.3333333333334C799.0390625,807.6666666666666,799.0390625,824.8333333333334,799.0390625,842C799.0390625,859.1666666666666,799.0390625,876.3333333333334,799.1028897200772,890.6666666666666C799.1667169401544,905,799.2943713803088,916.5,799.3581986003861,922.25L799.4220258204633,928" id="edge13" class="transition" marker-end="url(#statediagram-barbEnd)"></path><path d="M1320.6671344053398,859L1298.1900599211165,864.75C1275.7129854368932,870.5,1230.7588364684466,882,1160.3442619842233,895.7903529364148C1089.9296875,909.5807058728296,994.0546875,925.6614117456592,946.1171875,933.701764682074L898.1796875,941.7421176184887" id="edge14" class="transition" marker-end="url(#statediagram-barbEnd)"></path><path d="M892.125,732.4068420024738L916.61328125,730.6723683353948C941.1015625,728.9378946683158,990.078125,725.4689473341579,1020.6884765625,723.734473667079C1051.298828125,722,1063.54296875,722,1075.787109375,724.8333333333334C1088.03125,727.6666666666666,1100.275390625,733.3333333333334,1100.275390625,739C1100.275390625,744.6666666666666,1088.03125,750.3333333333334,1075.787109375,753.1666666666666C1063.54296875,756,1051.298828125,756,1020.6884765625,754.265526332921C990.078125,752.5310526658421,941.1015625,749.0621053316842,916.61328125,747.3276316646052L892.125,745.5931579975262" id="edge15" class="transition" marker-end="url(#statediagram-barbEnd)"></path><path d="M1526.02734375,832.6975933031043L1545.1844618055557,831.4146610859202C1564.341579861111,830.1317288687363,1602.655815972222,827.5658644343681,1626.6022135416667,826.2829322171841C1650.548611111111,825,1660.127170138889,825,1669.7057291666667,827.8333333333334C1679.2842881944446,830.6666666666666,1688.8628472222224,836.3333333333334,1688.862847222222,842C1688.8628472222224,847.6666666666666,1679.2842881944446,853.3333333333334,1669.705729166667,856.1666666666666C1660.127170138889,859,1650.548611111111,859,1626.6022135416667,857.7170677828159C1602.655815972222,856.4341355656319,1564.341579861111,853.8682711312637,1545.1844618055554,852.5853389140797L1526.02734375,851.3024066968957" id="edge16" class="transition" marker-end="url(#statediagram-barbEnd)"></path><path d="M1156.6953125,263.25L1156.6953125,267.875C1156.6953125,272.5,1156.6953125,281.75,1156.6953125,292.125C1156.6953125,302.5,1156.6953125,314,1101.9134114583333,328.04851306069605C1047.1315104166667,342.09702612139216,937.5677083333334,358.69405224278427,882.7858072916666,366.99256530348026L828.00390625,375.29107836417637" id="edge17" class="transition" marker-end="url(#statediagram-barbEnd)"></path><path d="M892.125,724.0972070431087L930.2239583333334,717.9976725359239C968.3229166666666,711.8981380287391,1044.5208333333333,699.6990690143697,1088.8434339603562,687.8495345071848C1133.1660345873786,676,1145.6133191747574,664.5,1151.8369614684468,658.75L1158.060603762136,653" id="edge18" class="transition" marker-end="url(#statediagram-barbEnd)"></path><path d="M1428.5637515169904,859L1442.5811210558252,864.75C1456.59849059466,870.5,1484.6332296723301,882,1498.6505992111652,895.7083333333334C1512.66796875,909.4166666666666,1512.66796875,925.3333333333334,1512.66796875,933.2916666666666L1512.66796875,941.25" id="edge19" class="transition" marker-end="url(#statediagram-barbEnd)"></path><path d="M1512.66796875,975.25L1512.66796875,983.2083333333334C1512.66796875,991.1666666666666,1512.66796875,1007.0833333333334,1512.66796875,1020.7916666666666C1512.66796875,1034.5,1512.66796875,1046,1512.66796875,1051.75L1512.66796875,1057.5" id="edge20" class="transition" marker-end="url(#statediagram-barbEnd)"></path><path d="M1512.66796875,1118L1512.66796875,1123.75C1512.66796875,1129.5,1512.66796875,1141,1512.66796875,1152.5C1512.66796875,1164,1512.66796875,1175.5,1512.66796875,1181.25L1512.66796875,1187" id="edge21" class="transition" marker-end="url(#statediagram-barbEnd)"></path><path d="M799.7578125,988.5L799.7578125,994.25C799.7578125,1000,799.7578125,1011.5,799.7578125,1025.2083333333333C799.7578125,1038.9166666666667,799.7578125,1054.8333333333333,799.7578125,1062.7916666666667L799.7578125,1070.75" id="edge22" class="transition" marker-end="url(#statediagram-barbEnd)"></path></g><g class="edgeLabels"><g class="edgeLabel"><g class="label" transform="translate(0, 0)"><rect rx="0" ry="0" width="0" height="0" style="fill:#e8e8e8;"></rect><text style=""></text></g></g><g class="edgeLabel"><g class="label" transform="translate(0, 0)"><rect rx="0" ry="0" width="0" height="0" style="fill:#e8e8e8;"></rect><text style=""></text></g></g><g class="edgeLabel" transform="translate(916.203125, 114)"><g class="label" transform="translate(-68.6875, -9.5)"><rect rx="0" ry="0" width="137.296875" height="19.03125" style="fill:#e8e8e8;"></rect><text style=""><tspan xml:space="preserve" dy="1em" x="0" class="row">ProviderEventOpen</tspan></text></g></g><g class="edgeLabel" transform="translate(727.484375, 233)"><g class="label" transform="translate(-99.390625, -9.5)"><rect rx="0" ry="0" width="198.65625" height="19.03125" style="fill:#e8e8e8;"></rect><text style=""><tspan xml:space="preserve" dy="1em" x="0" class="row">ProviderEventDealAccepted</tspan></text></g></g><g class="edgeLabel" transform="translate(1407.890625, 233)"><g class="label" transform="translate(-99.390625, -9.5)"><rect rx="0" ry="0" width="198.65625" height="19.03125" style="fill:#e8e8e8;"></rect><text style=""><tspan xml:space="preserve" dy="1em" x="0" class="row">ProviderEventDealAccepted</tspan></text></g></g><g class="edgeLabel" transform="translate(590.55078125, 687.5)"><g class="label" transform="translate(-91.734375, -9.5)"><rect rx="0" ry="0" width="183.359375" height="19.03125" style="fill:#e8e8e8;"></rect><text style=""><tspan xml:space="preserve" dy="1em" x="0" class="row">ProviderEventUnsealError</tspan></text></g></g><g class="edgeLabel" transform="translate(867.0546875, 455)"><g class="label" transform="translate(-108.2578125, -9.5)"><rect rx="0" ry="0" width="216.390625" height="19.03125" style="fill:#e8e8e8;"></rect><text style=""><tspan xml:space="preserve" dy="1em" x="0" class="row">ProviderEventUnsealComplete</tspan></text></g></g><g class="edgeLabel" transform="translate(1176.4609375, 584.5)"><g class="label" transform="translate(-85.03125, -9.5)"><rect rx="0" ry="0" width="169.96875" height="19.03125" style="fill:#e8e8e8;"></rect><text style=""><tspan xml:space="preserve" dy="1em" x="0" class="row">ProviderEventBlockSent</tspan></text></g></g><g class="edgeLabel" transform="translate(1370.5703125, 636)"><g class="label" transform="translate(-85.03125, -9.5)"><rect rx="0" ry="0" width="169.96875" height="19.03125" style="fill:#e8e8e8;"></rect><text style=""><tspan xml:space="preserve" dy="1em" x="0" class="row">ProviderEventBlockSent</tspan></text></g></g><g class="edgeLabel" transform="translate(1387.12109375, 687.5)"><g class="label" transform="translate(-111.40625, -9.5)"><rect rx="0" ry="0" width="222.6875" height="19.03125" style="fill:#e8e8e8;"></rect><text style=""><tspan xml:space="preserve" dy="1em" x="0" class="row">ProviderEventBlocksCompleted</tspan></text></g></g><g class="edgeLabel" transform="translate(866.1875, 165.5)"><g class="label" transform="translate(-118.703125, -9.5)"><rect rx="0" ry="0" width="237.265625" height="19.03125" style="fill:#e8e8e8;"></rect><text style=""><tspan xml:space="preserve" dy="1em" x="0" class="row">ProviderEventPaymentRequested</tspan></text></g></g><g class="edgeLabel" transform="translate(729.6875, 636)"><g class="label" transform="translate(-118.703125, -9.5)"><rect rx="0" ry="0" width="237.265625" height="19.03125" style="fill:#e8e8e8;"></rect><text style=""><tspan xml:space="preserve" dy="1em" x="0" class="row">ProviderEventPaymentRequested</tspan></text></g></g><g class="edgeLabel" transform="translate(868.390625, 687.5)"><g class="label" transform="translate(-118.703125, -9.5)"><rect rx="0" ry="0" width="237.265625" height="19.03125" style="fill:#e8e8e8;"></rect><text style=""><tspan xml:space="preserve" dy="1em" x="0" class="row">ProviderEventPaymentRequested</tspan></text></g></g><g class="edgeLabel" transform="translate(1387.12109375, 790.5)"><g class="label" transform="translate(-118.703125, -9.5)"><rect rx="0" ry="0" width="237.265625" height="19.03125" style="fill:#e8e8e8;"></rect><text style=""><tspan xml:space="preserve" dy="1em" x="0" class="row">ProviderEventPaymentRequested</tspan></text></g></g><g class="edgeLabel" transform="translate(799.0390625, 842)"><g class="label" transform="translate(-117.46875, -9.5)"><rect rx="0" ry="0" width="234.796875" height="19.03125" style="fill:#e8e8e8;"></rect><text style=""><tspan xml:space="preserve" dy="1em" x="0" class="row">ProviderEventSaveVoucherFailed</tspan></text></g></g><g class="edgeLabel" transform="translate(1185.8046875, 893.5)"><g class="label" transform="translate(-117.46875, -9.5)"><rect rx="0" ry="0" width="234.796875" height="19.03125" style="fill:#e8e8e8;"></rect><text style=""><tspan xml:space="preserve" dy="1em" x="0" class="row">ProviderEventSaveVoucherFailed</tspan></text></g></g><g class="edgeLabel" transform="translate(1112.51953125, 739)"><g class="label" transform="translate(-137.4140625, -9.5)"><rect rx="0" ry="0" width="274.65625" height="19.03125" style="fill:#e8e8e8;"></rect><text style=""><tspan xml:space="preserve" dy="1em" x="0" class="row">ProviderEventPartialPaymentReceived</tspan></text></g></g><g class="edgeLabel" transform="translate(1698.44140625, 842)"><g class="label" transform="translate(-137.4140625, -9.5)"><rect rx="0" ry="0" width="274.65625" height="19.03125" style="fill:#e8e8e8;"></rect><text style=""><tspan xml:space="preserve" dy="1em" x="0" class="row">ProviderEventPartialPaymentReceived</tspan></text></g></g><g class="edgeLabel" transform="translate(1156.6953125, 325.5)"><g class="label" transform="translate(-113.625, -9.5)"><rect rx="0" ry="0" width="227.109375" height="19.03125" style="fill:#e8e8e8;"></rect><text style=""><tspan xml:space="preserve" dy="1em" x="0" class="row">ProviderEventPaymentReceived</tspan></text></g></g><g class="edgeLabel" transform="translate(1120.71875, 687.5)"><g class="label" transform="translate(-113.625, -9.5)"><rect rx="0" ry="0" width="227.109375" height="19.03125" style="fill:#e8e8e8;"></rect><text style=""><tspan xml:space="preserve" dy="1em" x="0" class="row">ProviderEventPaymentReceived</tspan></text></g></g><g class="edgeLabel" transform="translate(1512.66796875, 893.5)"><g class="label" transform="translate(-113.625, -9.5)"><rect rx="0" ry="0" width="227.109375" height="19.03125" style="fill:#e8e8e8;"></rect><text style=""><tspan xml:space="preserve" dy="1em" x="0" class="row">ProviderEventPaymentReceived</tspan></text></g></g><g class="edgeLabel" transform="translate(1512.66796875, 1023)"><g class="label" transform="translate(-84.5390625, -9.5)"><rect rx="0" ry="0" width="168.96875" height="19.03125" style="fill:#e8e8e8;"></rect><text style=""><tspan xml:space="preserve" dy="1em" x="0" class="row">ProviderEventComplete</tspan></text></g></g><g class="edgeLabel" transform="translate(1512.66796875, 1152.5)"><g class="label" transform="translate(-113.4453125, -9.5)"><rect rx="0" ry="0" width="226.765625" height="19.03125" style="fill:#e8e8e8;"></rect><text style=""><tspan xml:space="preserve" dy="1em" x="0" class="row">ProviderEventCleanupComplete</tspan></text></g></g><g class="edgeLabel" transform="translate(799.7578125, 1023)"><g class="label" transform="translate(-108.578125, -9.5)"><rect rx="0" ry="0" width="217.03125" height="19.03125" style="fill:#e8e8e8;"></rect><text style=""><tspan xml:space="preserve" dy="1em" x="0" class="row">ProviderEventCancelComplete</tspan></text></g></g></g><g class="nodes"><g class="node statediagram-state" id="0" transform="translate(522.765625, 114)"><rect class="outer title-state" x="-60.7578125" y="-17" width="121.515625" height="34"></rect><line class="divider" x1="-60.7578125" x2="60.7578125" y1="9.5" y2="9.5"></line><g class="label" transform="translate(-53.2578125, -14)"><text style=""><tspan xml:space="preserve" dy="1em" x="0" class="title-row">DealStatusNew</tspan></text><text style="" transform="translate( 0, 26.5)"><tspan xml:space="preserve" dy="1em" x="0" class="title-row"></tspan></text></g></g><g class="node statediagram-state" id="1" transform="translate(729.25390625, 390.25)"><rect class="outer title-state" x="-98.75" y="-30.25" width="197.5" height="60.5"></rect><line class="divider" x1="-98.75" x2="98.75" y1="-3.75" y2="-3.75"></line><g class="label" transform="translate(-91.25, -27.25)"><text style=""><tspan xml:space="preserve" dy="1em" x="0" class="title-row">DealStatusUnsealing</tspan></text><text style="" transform="translate( 0, 26.5)"><tspan xml:space="preserve" dy="1em" x="0" class="title-row">On entry runs UnsealData</tspan></text></g></g><g class="node statediagram-state" id="2" transform="translate(867.0546875, 519.75)"><rect class="outer title-state" x="-104.5703125" y="-30.25" width="209.140625" height="60.5"></rect><line class="divider" x1="-104.5703125" x2="104.5703125" y1="-3.75" y2="-3.75"></line><g class="label" transform="translate(-97.0703125, -27.25)"><text style=""><tspan xml:space="preserve" dy="1em" x="0" class="title-row">DealStatusUnsealed</tspan></text><text style="" transform="translate( 0, 26.5)"><tspan xml:space="preserve" dy="1em" x="0" class="title-row">On entry runs UnpauseDeal</tspan></text></g></g><g class="node statediagram-state" id="7" transform="translate(1156.6953125, 233)"><rect class="outer title-state" x="-116.8046875" y="-30.25" width="233.609375" height="60.5"></rect><line class="divider" x1="-116.8046875" x2="116.8046875" y1="-3.75" y2="-3.75"></line><g class="label" transform="translate(-109.3046875, -27.25)"><text style=""><tspan xml:space="preserve" dy="1em" x="0" class="title-row">DealStatusFundsNeededUnseal</tspan></text><text style="" transform="translate( 0, 26.5)"><tspan xml:space="preserve" dy="1em" x="0" class="title-row">On entry runs TrackTransfer</tspan></text></g></g><g class="node statediagram-state" id="8" transform="translate(799.7578125, 958.25)"><rect class="outer title-state" x="-98.421875" y="-30.25" width="196.84375" height="60.5"></rect><line class="divider" x1="-98.421875" x2="98.421875" y1="-3.75" y2="-3.75"></line><g class="label" transform="translate(-90.921875, -27.25)"><text style=""><tspan xml:space="preserve" dy="1em" x="0" class="title-row">DealStatusFailed</tspan></text><text style="" transform="translate( 0, 26.5)"><tspan xml:space="preserve" dy="1em" x="0" class="title-row">On entry runs CancelDeal</tspan></text></g></g><g class="node statediagram-state" id="10" transform="translate(799.0390625, 739)"><rect class="outer title-state" x="-93.0859375" y="-17" width="186.171875" height="34"></rect><line class="divider" x1="-93.0859375" x2="93.0859375" y1="9.5" y2="9.5"></line><g class="label" transform="translate(-85.5859375, -14)"><text style=""><tspan xml:space="preserve" dy="1em" x="0" class="title-row">DealStatusFundsNeeded</tspan></text><text style="" transform="translate( 0, 26.5)"><tspan xml:space="preserve" dy="1em" x="0" class="title-row"></tspan></text></g></g><g class="node statediagram-state" id="13" transform="translate(1176.4609375, 636)"><rect class="outer title-state" x="-74.078125" y="-17" width="148.15625" height="34"></rect><line class="divider" x1="-74.078125" x2="74.078125" y1="9.5" y2="9.5"></line><g class="label" transform="translate(-66.578125, -14)"><text style=""><tspan xml:space="preserve" dy="1em" x="0" class="title-row">DealStatusOngoing</tspan></text><text style="" transform="translate( 0, 26.5)"><tspan xml:space="preserve" dy="1em" x="0" class="title-row"></tspan></text></g></g><g class="node statediagram-state" id="14" transform="translate(1387.12109375, 842)"><rect class="outer title-state" x="-138.90625" y="-17" width="277.8125" height="34"></rect><line class="divider" x1="-138.90625" x2="138.90625" y1="9.5" y2="9.5"></line><g class="label" transform="translate(-131.40625, -14)"><text style=""><tspan xml:space="preserve" dy="1em" x="0" class="title-row">DealStatusFundsNeededLastPayment</tspan></text><text style="" transform="translate( 0, 26.5)"><tspan xml:space="preserve" dy="1em" x="0" class="title-row"></tspan></text></g></g><g class="node statediagram-state" id="15" transform="translate(1512.66796875, 1204)"><rect class="outer title-state" x="-84.2265625" y="-17" width="168.453125" height="34"></rect><line class="divider" x1="-84.2265625" x2="84.2265625" y1="9.5" y2="9.5"></line><g class="label" transform="translate(-76.7265625, -14)"><text style=""><tspan xml:space="preserve" dy="1em" x="0" class="title-row">DealStatusCompleted</tspan></text><text style="" transform="translate( 0, 26.5)"><tspan xml:space="preserve" dy="1em" x="0" class="title-row"></tspan></text></g></g><g class="node statediagram-state" id="17" transform="translate(799.7578125, 1087.75)"><rect class="outer title-state" x="-72.0625" y="-17" width="144.125" height="34"></rect><line class="divider" x1="-72.0625" x2="72.0625" y1="9.5" y2="9.5"></line><g class="label" transform="translate(-64.5625, -14)"><text style=""><tspan xml:space="preserve" dy="1em" x="0" class="title-row">DealStatusErrored</tspan></text><text style="" transform="translate( 0, 26.5)"><tspan xml:space="preserve" dy="1em" x="0" class="title-row"></tspan></text></g></g><g class="node statediagram-state" id="18" transform="translate(1387.12109375, 739)"><rect class="outer title-state" x="-102.1875" y="-17" width="204.375" height="34"></rect><line class="divider" x1="-102.1875" x2="102.1875" y1="9.5" y2="9.5"></line><g class="label" transform="translate(-94.6875, -14)"><text style=""><tspan xml:space="preserve" dy="1em" x="0" class="title-row">DealStatusBlocksComplete</tspan></text><text style="" transform="translate( 0, 26.5)"><tspan xml:space="preserve" dy="1em" x="0" class="title-row"></tspan></text></g></g><g class="node statediagram-state" id="19" transform="translate(1512.66796875, 958.25)"><rect class="outer title-state" x="-79.5" y="-17" width="159" height="34"></rect><line class="divider" x1="-79.5" x2="79.5" y1="9.5" y2="9.5"></line><g class="label" transform="translate(-72, -14)"><text style=""><tspan xml:space="preserve" dy="1em" x="0" class="title-row">DealStatusFinalizing</tspan></text><text style="" transform="translate( 0, 26.5)"><tspan xml:space="preserve" dy="1em" x="0" class="title-row"></tspan></text></g></g><g class="node statediagram-state" id="20" transform="translate(1512.66796875, 1087.75)"><rect class="outer title-state" x="-103.2890625" y="-30.25" width="206.578125" height="60.5"></rect><line class="divider" x1="-103.2890625" x2="103.2890625" y1="-3.75" y2="-3.75"></line><g class="label" transform="translate(-95.7890625, -27.25)"><text style=""><tspan xml:space="preserve" dy="1em" x="0" class="title-row">DealStatusCompleting</tspan></text><text style="" transform="translate( 0, 26.5)"><tspan xml:space="preserve" dy="1em" x="0" class="title-row">On entry runs CleanupDeal</tspan></text></g></g><g class="node default" id="root_start" transform="translate(522.765625, 15)"><circle class="state-start" r="7" width="14" height="14"></circle></g><g class="node statediagram-note" id="0----note" transform="translate(318.046875, 233)"><rect x="-275.046875" y="-33" width="550.09375" height="66"></rect><g class="label" transform="translate(-267.546875, -25.5)"><text style=""><tspan xml:space="preserve" dy="1em" x="0" class="row">The following events are not shown cause they can trigger from any state.</tspan><tspan xml:space="preserve" dy="1em" x="0" class="row"></tspan><tspan xml:space="preserve" dy="1em" x="0" class="row">ProviderEventDataTransferError - transitions state to DealStatusErrored</tspan><tspan xml:space="preserve" dy="1em" x="0" class="row">ProviderEventMultiStoreError - transitions state to DealStatusErrored</tspan></text></g></g></g></g></g></svg>