<svg id="mermaid-1596667178851" width="4576.80078125" xmlns="http://www.w3.org/2000/svg" class="statediagram" height="1645" viewBox="0 0 4576.80078125 1645"><style>#mermaid-1596667178851 .label{font-family:'trebuchet ms', verdana, arial;font-family:var(--mermaid-font-family);color:#333}#mermaid-1596667178851 .label text{fill:#333}#mermaid-1596667178851 .node rect,#mermaid-1596667178851 .node circle,#mermaid-1596667178851 .node ellipse,#mermaid-1596667178851 .node polygon,#mermaid-1596667178851 .node path{fill:#ECECFF;stroke:#9370db;stroke-width:1px}#mermaid-1596667178851 .node .label{text-align:center}#mermaid-1596667178851 .node.clickable{cursor:pointer}#mermaid-1596667178851 .arrowheadPath{fill:#333}#mermaid-1596667178851 .edgePath .path{stroke:#333;stroke-width:1.5px}#mermaid-1596667178851 .edgeLabel{background-color:#e8e8e8;text-align:center}#mermaid-1596667178851 .edgeLabel rect{opacity:0.5}#mermaid-1596667178851 .cluster rect{fill:#ffffde;stroke:#aa3;stroke-width:1px}#mermaid-1596667178851 .cluster text{fill:#333}#mermaid-1596667178851 div.mermaidTooltip{position:absolute;text-align:center;max-width:200px;padding:2px;font-family:'trebuchet ms', verdana, arial;font-family:var(--mermaid-font-family);font-size:12px;background:#ffffde;border:1px solid #aa3;border-radius:2px;pointer-events:none;z-index:100}#mermaid-1596667178851 .actor{stroke:#ccf;fill:#ECECFF}#mermaid-1596667178851 text.actor{fill:#000;stroke:none}#mermaid-1596667178851 .actor-line{stroke:grey}#mermaid-1596667178851 .messageLine0{stroke-width:1.5;stroke-dasharray:'2 2';stroke:#333}#mermaid-1596667178851 .messageLine1{stroke-width:1.5;stroke-dasharray:'2 2';stroke:#333}#mermaid-1596667178851 #arrowhead{fill:#333}#mermaid-1596667178851 .sequenceNumber{fill:#fff}#mermaid-1596667178851 #sequencenumber{fill:#333}#mermaid-1596667178851 #crosshead path{fill:#333 !important;stroke:#333 !important}#mermaid-1596667178851 .messageText{fill:#333;stroke:none}#mermaid-1596667178851 .labelBox{stroke:#ccf;fill:#ECECFF}#mermaid-1596667178851 .labelText{fill:#000;stroke:none}#mermaid-1596667178851 .loopText{fill:#000;stroke:none}#mermaid-1596667178851 .loopLine{stroke-width:2;stroke-dasharray:'2 2';stroke:#ccf}#mermaid-1596667178851 .note{stroke:#aa3;fill:#fff5ad}#mermaid-1596667178851 .noteText{fill:black;stroke:none;font-family:'trebuchet ms', verdana, arial;font-family:var(--mermaid-font-family);font-size:14px}#mermaid-1596667178851 .activation0{fill:#f4f4f4;stroke:#666}#mermaid-1596667178851 .activation1{fill:#f4f4f4;stroke:#666}#mermaid-1596667178851 .activation2{fill:#f4f4f4;stroke:#666}#mermaid-1596667178851 .mermaid-main-font{font-family:"trebuchet ms", verdana, arial;font-family:var(--mermaid-font-family)}#mermaid-1596667178851 .section{stroke:none;opacity:0.2}#mermaid-1596667178851 .section0{fill:rgba(102,102,255,0.49)}#mermaid-1596667178851 .section2{fill:#fff400}#mermaid-1596667178851 .section1,#mermaid-1596667178851 .section3{fill:#fff;opacity:0.2}#mermaid-1596667178851 .sectionTitle0{fill:#333}#mermaid-1596667178851 .sectionTitle1{fill:#333}#mermaid-1596667178851 .sectionTitle2{fill:#333}#mermaid-1596667178851 .sectionTitle3{fill:#333}#mermaid-1596667178851 .sectionTitle{text-anchor:start;font-size:11px;text-height:14px;font-family:'trebuchet ms', verdana, arial;font-family:var(--mermaid-font-family)}#mermaid-1596667178851 .grid .tick{stroke:#d3d3d3;opacity:0.8;shape-rendering:crispEdges}#mermaid-1596667178851 .grid .tick text{font-family:'trebuchet ms', verdana, arial;font-family:var(--mermaid-font-family)}#mermaid-1596667178851 .grid path{stroke-width:0}#mermaid-1596667178851 .today{fill:none;stroke:red;stroke-width:2px}#mermaid-1596667178851 .task{stroke-width:2}#mermaid-1596667178851 .taskText{text-anchor:middle;font-family:'trebuchet ms', verdana, arial;font-family:var(--mermaid-font-family)}#mermaid-1596667178851 .taskText:not([font-size]){font-size:11px}#mermaid-1596667178851 .taskTextOutsideRight{fill:#000;text-anchor:start;font-size:11px;font-family:'trebuchet ms', verdana, arial;font-family:var(--mermaid-font-family)}#mermaid-1596667178851 .taskTextOutsideLeft{fill:#000;text-anchor:end;font-size:11px}#mermaid-1596667178851 .task.clickable{cursor:pointer}#mermaid-1596667178851 .taskText.clickable{cursor:pointer;fill:#003163 !important;font-weight:bold}#mermaid-1596667178851 .taskTextOutsideLeft.clickable{cursor:pointer;fill:#003163 !important;font-weight:bold}#mermaid-1596667178851 .taskTextOutsideRight.clickable{cursor:pointer;fill:#003163 !important;font-weight:bold}#mermaid-1596667178851 .taskText0,#mermaid-1596667178851 .taskText1,#mermaid-1596667178851 .taskText2,#mermaid-1596667178851 .taskText3{fill:#fff}#mermaid-1596667178851 .task0,#mermaid-1596667178851 .task1,#mermaid-1596667178851 .task2,#mermaid-1596667178851 .task3{fill:#8a90dd;stroke:#534fbc}#mermaid-1596667178851 .taskTextOutside0,#mermaid-1596667178851 .taskTextOutside2{fill:#000}#mermaid-1596667178851 .taskTextOutside1,#mermaid-1596667178851 .taskTextOutside3{fill:#000}#mermaid-1596667178851 .active0,#mermaid-1596667178851 .active1,#mermaid-1596667178851 .active2,#mermaid-1596667178851 .active3{fill:#bfc7ff;stroke:#534fbc}#mermaid-1596667178851 .activeText0,#mermaid-1596667178851 .activeText1,#mermaid-1596667178851 .activeText2,#mermaid-1596667178851 .activeText3{fill:#000 !important}#mermaid-1596667178851 .done0,#mermaid-1596667178851 .done1,#mermaid-1596667178851 .done2,#mermaid-1596667178851 .done3{stroke:grey;fill:#d3d3d3;stroke-width:2}#mermaid-1596667178851 .doneText0,#mermaid-1596667178851 .doneText1,#mermaid-1596667178851 .doneText2,#mermaid-1596667178851 .doneText3{fill:#000 !important}#mermaid-1596667178851 .crit0,#mermaid-1596667178851 .crit1,#mermaid-1596667178851 .crit2,#mermaid-1596667178851 .crit3{stroke:#f88;fill:red;stroke-width:2}#mermaid-1596667178851 .activeCrit0,#mermaid-1596667178851 .activeCrit1,#mermaid-1596667178851 .activeCrit2,#mermaid-1596667178851 .activeCrit3{stroke:#f88;fill:#bfc7ff;stroke-width:2}#mermaid-1596667178851 .doneCrit0,#mermaid-1596667178851 .doneCrit1,#mermaid-1596667178851 .doneCrit2,#mermaid-1596667178851 .doneCrit3{stroke:#f88;fill:#d3d3d3;stroke-width:2;cursor:pointer;shape-rendering:crispEdges}#mermaid-1596667178851 .milestone{transform:rotate(45deg) scale(0.8, 0.8)}#mermaid-1596667178851 .milestoneText{font-style:italic}#mermaid-1596667178851 .doneCritText0,#mermaid-1596667178851 .doneCritText1,#mermaid-1596667178851 .doneCritText2,#mermaid-1596667178851 .doneCritText3{fill:#000 !important}#mermaid-1596667178851 .activeCritText0,#mermaid-1596667178851 .activeCritText1,#mermaid-1596667178851 .activeCritText2,#mermaid-1596667178851 .activeCritText3{fill:#000 !important}#mermaid-1596667178851 .titleText{text-anchor:middle;font-size:18px;fill:#000;font-family:'trebuchet ms', verdana, arial;font-family:var(--mermaid-font-family)}#mermaid-1596667178851 g.classGroup text{fill:#9370db;stroke:none;font-family:'trebuchet ms', verdana, arial;font-family:var(--mermaid-font-family);font-size:10px}#mermaid-1596667178851 g.classGroup text .title{font-weight:bolder}#mermaid-1596667178851 g.clickable{cursor:pointer}#mermaid-1596667178851 g.classGroup rect{fill:#ECECFF;stroke:#9370db}#mermaid-1596667178851 g.classGroup line{stroke:#9370db;stroke-width:1}#mermaid-1596667178851 .classLabel .box{stroke:none;stroke-width:0;fill:#ECECFF;opacity:0.5}#mermaid-1596667178851 .classLabel .label{fill:#9370db;font-size:10px}#mermaid-1596667178851 .relation{stroke:#9370db;stroke-width:1;fill:none}#mermaid-1596667178851 .dashed-line{stroke-dasharray:3}#mermaid-1596667178851 #compositionStart{fill:#9370db;stroke:#9370db;stroke-width:1}#mermaid-1596667178851 #compositionEnd{fill:#9370db;stroke:#9370db;stroke-width:1}#mermaid-1596667178851 #aggregationStart{fill:#ECECFF;stroke:#9370db;stroke-width:1}#mermaid-1596667178851 #aggregationEnd{fill:#ECECFF;stroke:#9370db;stroke-width:1}#mermaid-1596667178851 #dependencyStart{fill:#9370db;stroke:#9370db;stroke-width:1}#mermaid-1596667178851 #dependencyEnd{fill:#9370db;stroke:#9370db;stroke-width:1}#mermaid-1596667178851 #extensionStart{fill:#9370db;stroke:#9370db;stroke-width:1}#mermaid-1596667178851 #extensionEnd{fill:#9370db;stroke:#9370db;stroke-width:1}#mermaid-1596667178851 .commit-id,#mermaid-1596667178851 .commit-msg,#mermaid-1596667178851 .branch-label{fill:lightgrey;color:lightgrey;font-family:'trebuchet ms', verdana, arial;font-family:var(--mermaid-font-family)}#mermaid-1596667178851 .pieTitleText{text-anchor:middle;font-size:25px;fill:#000;font-family:'trebuchet ms', verdana, arial;font-family:var(--mermaid-font-family)}#mermaid-1596667178851 .slice{font-family:'trebuchet ms', verdana, arial;font-family:var(--mermaid-font-family)}#mermaid-1596667178851 g.stateGroup text{fill:#9370db;stroke:none;font-size:10px;font-family:'trebuchet ms', verdana, arial;font-family:var(--mermaid-font-family)}#mermaid-1596667178851 g.stateGroup text{fill:#9370db;stroke:none;font-size:10px}#mermaid-1596667178851 g.stateGroup .state-title{font-weight:bolder;fill:#000}#mermaid-1596667178851 g.stateGroup rect{fill:#ECECFF;stroke:#9370db}#mermaid-1596667178851 g.stateGroup line{stroke:#9370db;stroke-width:1}#mermaid-1596667178851 .transition{stroke:#9370db;stroke-width:1;fill:none}#mermaid-1596667178851 .stateGroup .composit{fill:white;border-bottom:1px}#mermaid-1596667178851 .stateGroup .alt-composit{fill:#e0e0e0;border-bottom:1px}#mermaid-1596667178851 .state-note{stroke:#aa3;fill:#fff5ad}#mermaid-1596667178851 .state-note text{fill:black;stroke:none;font-size:10px}#mermaid-1596667178851 .stateLabel .box{stroke:none;stroke-width:0;fill:#ECECFF;opacity:0.5}#mermaid-1596667178851 .stateLabel text{fill:#000;font-size:10px;font-weight:bold;font-family:'trebuchet ms', verdana, arial;font-family:var(--mermaid-font-family)}#mermaid-1596667178851 .node circle.state-start{fill:black;stroke:black}#mermaid-1596667178851 .node circle.state-end{fill:black;stroke:white;stroke-width:1.5}#mermaid-1596667178851 #statediagram-barbEnd{fill:#9370db}#mermaid-1596667178851 .statediagram-cluster rect{fill:#ECECFF;stroke:#9370db;stroke-width:1px}#mermaid-1596667178851 .statediagram-cluster rect.outer{rx:5px;ry:5px}#mermaid-1596667178851 .statediagram-state .divider{stroke:#9370db}#mermaid-1596667178851 .statediagram-state .title-state{rx:5px;ry:5px}#mermaid-1596667178851 .statediagram-cluster.statediagram-cluster .inner{fill:white}#mermaid-1596667178851 .statediagram-cluster.statediagram-cluster-alt .inner{fill:#e0e0e0}#mermaid-1596667178851 .statediagram-cluster .inner{rx:0;ry:0}#mermaid-1596667178851 .statediagram-state rect.basic{rx:5px;ry:5px}#mermaid-1596667178851 .statediagram-state rect.divider{stroke-dasharray:10,10;fill:#efefef}#mermaid-1596667178851 .note-edge{stroke-dasharray:5}#mermaid-1596667178851 .statediagram-note rect{fill:#fff5ad;stroke:#aa3;stroke-width:1px;rx:0;ry:0}:root{--mermaid-font-family: '"trebuchet ms", verdana, arial';--mermaid-font-family: "Comic Sans MS", "Comic Sans", cursive}

:root { --mermaid-font-family: "trebuchet ms", verdana, arial;}</style><style>#mermaid-1596667178851 {
    color: rgb(0, 0, 0);
    font: 16px "trebuchet ms", verdana, arial;
  }</style><g><defs><marker id="statediagram-barbEnd" refX="19" refY="7" markerWidth="20" markerHeight="14" markerUnits="0" orient="auto"><path d="M 19,7 L9,13 L14,7 L9,1 Z"></path></marker></defs><g class="root"><g class="clusters"><g class="note-cluster" id="0----parent"><rect x="8" y="72" width="674.23828125" height="340" fill="none"></rect></g><g class="note-cluster" id="3----parent"><rect x="702.23828125" y="72" width="491.1640625" height="340" fill="none"></rect></g><g class="note-cluster" id="4----parent"><rect x="1095.70703125" y="481" width="857.5703125" height="302.5" fill="none"></rect></g><g class="note-cluster" id="5----parent"><rect x="3204.5546875" y="481" width="809.1640625" height="302.5" fill="none"></rect></g><g class="note-cluster" id="6----parent"><rect x="2467.4453125" y="264" width="717.109375" height="365" fill="none"></rect></g></g><g class="edgePaths"><path d="M383.26953125,22L383.26953125,26.166666666666668C383.26953125,30.333333333333332,383.26953125,38.666666666666664,383.26953125,47C383.26953125,55.333333333333336,383.26953125,63.666666666666664,383.26953125,75.125C383.26953125,86.58333333333333,383.26953125,101.16666666666667,383.26953125,108.45833333333333L383.26953125,115.75" id="edge0" class="transition" marker-end="url(#statediagram-barbEnd)"></path><path d="M363.35428751871257,176.25L357.5113854322605,185.125C351.6684833458084,194,339.98267917290417,211.75,334.1397770864521,226.375C328.296875,241,328.296875,252.5,328.296875,262.4166666666667C328.296875,272.3333333333333,328.296875,280.6666666666667,328.296875,284.8333333333333L328.296875,289" class="transition note-edge"></path><path d="M485.86328125,128.77400190801075L498.79123263888886,126.60333492334229C511.71918402777777,124.43266793867383,537.5750868055555,120.09133396933692,553.7350260416666,117.92066698466846C569.8949652777777,115.75,576.3589409722223,115.75,582.8229166666666,120.79166666666667C589.2868923611112,125.83333333333333,595.7508680555555,135.91666666666666,595.7508680555557,146C595.7508680555555,156.08333333333334,589.2868923611112,166.16666666666666,582.8229166666666,171.20833333333334C576.3589409722223,176.25,569.8949652777777,176.25,553.7350260416666,174.07933301533157C537.5750868055555,171.90866603066308,511.71918402777777,167.56733206132617,498.79123263888886,165.3966650766577L485.86328125,163.22599809198925" id="edge1" class="transition" marker-end="url(#statediagram-barbEnd)"></path><path d="M421.37213463697606,176.25L432.55099761414675,185.125C443.7298605913174,194,466.0875865456587,211.75,477.26644952282936,226.375C488.4453125,241,488.4453125,252.5,548.7029138513514,267.75C608.9605152027027,283,729.4757179054054,302,789.7333192567568,311.5L849.9909206081081,321" id="edge2" class="transition" marker-end="url(#statediagram-barbEnd)"></path><path d="M908.2947107263514,355L880.6186391469595,364.5C852.9425675675675,374,797.5904244087837,393,769.914352829392,408.25C742.23828125,423.5,742.23828125,435,742.23828125,446.5C742.23828125,458,742.23828125,469.5,742.23828125,484.75C742.23828125,500,742.23828125,519,742.23828125,528.5L742.23828125,538" id="edge3" class="transition" marker-end="url(#statediagram-barbEnd)"></path><path d="M959.5334142736486,355L960.4907358530405,364.5C961.4480574324325,374,963.3627005912163,393,964.320022170608,408.25C965.27734375,423.5,965.27734375,435,965.27734375,446.5C965.27734375,458,965.27734375,469.5,965.27734375,484.75C965.27734375,500,965.27734375,519,965.27734375,528.5L965.27734375,538" id="edge4" class="transition" marker-end="url(#statediagram-barbEnd)"></path><path d="M981.1423669763514,355L994.1752797719595,364.5C1007.2081925675675,374,1033.2740181587837,393,1299.4456028293919,408.25C1565.6171875,423.5,2071.89453125,435,2325.033203125,446.5C2578.171875,458,2578.171875,469.5,2602.2631659980293,482.5416666666667C2626.3544569960586,495.5833333333333,2674.5370389921172,510.1666666666667,2698.6283299901465,517.4583333333334L2722.719620988176,524.75" id="edge5" class="transition" marker-end="url(#statediagram-barbEnd)"></path><path d="M1402.5234375,754.1001408812848L1370.1868489583333,759.0001174010707C1337.8502604166667,763.9000939208566,1273.1770833333333,773.7000469604283,1188.3372395833333,784.3500234802141C1103.4973958333333,795,998.4908854166666,806.5,945.9876302083334,823.0416666666666C893.484375,839.5833333333334,893.484375,861.1666666666666,893.484375,882.75C893.484375,904.3333333333334,893.484375,925.9166666666666,893.484375,945.2916666666666C893.484375,964.6666666666666,893.484375,981.8333333333334,893.484375,999C893.484375,1016.1666666666666,893.484375,1033.3333333333333,893.484375,1052.7083333333333C893.484375,1072.0833333333333,893.484375,1093.6666666666667,893.484375,1115.25C893.484375,1136.8333333333333,893.484375,1158.4166666666667,893.484375,1180C893.484375,1201.5833333333333,893.484375,1223.1666666666667,893.484375,1244.75C893.484375,1266.3333333333333,893.484375,1287.9166666666667,893.484375,1309.5C893.484375,1331.0833333333333,893.484375,1352.6666666666667,893.484375,1374.25C893.484375,1395.8333333333333,893.484375,1417.4166666666667,1154.322265625,1438.3614857275254C1415.16015625,1459.3063047883843,1936.8359375,1479.6126095767688,2197.673828125,1489.765761970961L2458.51171875,1499.9189143651533" id="edge6" class="transition" marker-end="url(#statediagram-barbEnd)"></path><path d="M2758.2359058277025,585.25L2742.7057027730857,592.5416666666666C2727.1754997184685,599.8333333333334,2696.115093609234,614.4166666666666,2410.0145780546172,627.4583333333334C2123.9140625,640.5,1582.7734375,652,1312.203125,668.5416666666666C1041.6328125,685.0833333333334,1041.6328125,706.6666666666666,1041.6328125,726.6666666666666C1041.6328125,746.6666666666666,1041.6328125,765.0833333333334,1041.6328125,780.0416666666666C1041.6328125,795,1041.6328125,806.5,1041.6328125,823.0416666666666C1041.6328125,839.5833333333334,1041.6328125,861.1666666666666,1041.6328125,882.75C1041.6328125,904.3333333333334,1041.6328125,925.9166666666666,1041.6328125,945.2916666666666C1041.6328125,964.6666666666666,1041.6328125,981.8333333333334,1041.6328125,999C1041.6328125,1016.1666666666666,1041.6328125,1033.3333333333333,1041.6328125,1052.7083333333333C1041.6328125,1072.0833333333333,1041.6328125,1093.6666666666667,1041.6328125,1115.25C1041.6328125,1136.8333333333333,1041.6328125,1158.4166666666667,1041.6328125,1180C1041.6328125,1201.5833333333333,1041.6328125,1223.1666666666667,1041.6328125,1244.75C1041.6328125,1266.3333333333333,1041.6328125,1287.9166666666667,1041.6328125,1309.5C1041.6328125,1331.0833333333333,1041.6328125,1352.6666666666667,1041.6328125,1374.25C1041.6328125,1395.8333333333333,1041.6328125,1417.4166666666667,1277.779296875,1438.2990592489286C1513.92578125,1459.1814518311905,1986.21875,1479.3629036623813,2222.365234375,1489.453629577977L2458.51171875,1499.544355493572" id="edge7" class="transition" marker-end="url(#statediagram-barbEnd)"></path><path d="M2828.115577491554,585.25L2829.4296479096283,592.5416666666666C2830.743718327703,599.8333333333334,2833.3718591638512,614.4166666666666,2576.4320233319254,627.4583333333334C2319.4921875,640.5,1802.984375,652,1570.1850416264479,663.5C1337.3857082528957,675,1388.2948540057914,686.5,1413.7494268822393,692.25L1439.2039997586871,698" id="edge8" class="transition" marker-end="url(#statediagram-barbEnd)"></path><path d="M2892.5437341638512,585.25L2909.3880076365426,592.5416666666666C2926.2322811092345,599.8333333333334,2959.9208280546172,614.4166666666666,3043.774867152309,627.4583333333334C3127.62890625,640.5,3261.6484375,652,3336.0448163006754,663.5C3410.4411951013512,675,3425.214421452703,686.5,3432.6010346283783,692.25L3439.987647804054,698" id="edge9" class="transition" marker-end="url(#statediagram-barbEnd)"></path><path d="M1718.8086644513573,758.5L1738.876361001131,762.6666666666666C1758.944057550905,766.8333333333334,1799.0794506504524,775.1666666666666,1943.0644649085596,785.0833333333334C2087.0494791666665,795,2334.8841145833335,806.5,2606.4153645833335,822.0735842510476C2877.9466145833335,837.647168502095,3173.1744791666665,857.29433700419,3320.7884114583335,867.1179212552375L3468.40234375,876.9415055062851" id="edge10" class="transition" marker-end="url(#statediagram-barbEnd)"></path><path d="M3659.71484375,752.2174102458403L3699.0598958333335,757.4311752048669C3738.4049479166665,762.6449401638935,3817.0950520833335,773.0724700819468,3856.4401041666665,784.0362350409733C3895.78515625,795,3895.78515625,806.5,3853.6484375,820.2721699630165C3811.51171875,834.0443399260331,3727.23828125,850.0886798520663,3685.1015625,858.1108498150828L3642.96484375,866.1330197780994" id="edge11" class="transition" marker-end="url(#statediagram-barbEnd)"></path><path d="M1402.5234375,755.600381428458L1373.5201822916667,760.2503178570483C1344.5169270833333,764.9002542856388,1286.5104166666667,774.2001271428194,1257.5071614583333,784.6000635714096C1228.50390625,795,1228.50390625,806.5,1228.50390625,823.0416666666666C1228.50390625,839.5833333333334,1228.50390625,861.1666666666666,1228.50390625,882.75C1228.50390625,904.3333333333334,1228.50390625,925.9166666666666,1228.50390625,945.2916666666666C1228.50390625,964.6666666666666,1228.50390625,981.8333333333334,1228.50390625,999C1228.50390625,1016.1666666666666,1228.50390625,1033.3333333333333,1228.50390625,1052.7083333333333C1228.50390625,1072.0833333333333,1228.50390625,1093.6666666666667,1228.50390625,1115.25C1228.50390625,1136.8333333333333,1228.50390625,1158.4166666666667,1228.50390625,1180C1228.50390625,1201.5833333333333,1228.50390625,1223.1666666666667,1228.50390625,1244.75C1228.50390625,1266.3333333333333,1228.50390625,1287.9166666666667,1228.50390625,1309.5C1228.50390625,1331.0833333333333,1228.50390625,1352.6666666666667,1228.50390625,1374.25C1228.50390625,1395.8333333333333,1228.50390625,1417.4166666666667,1433.5052083333333,1438.2004574440764C1638.5065104166667,1458.9842482214863,2048.5091145833335,1478.9684964429728,2253.5104166666665,1488.960620553716L2458.51171875,1498.9527446644593" id="edge12" class="transition" marker-end="url(#statediagram-barbEnd)"></path><path d="M3398.7142427884614,758.5L3387.6765825320513,762.6666666666666C3376.6389222756407,766.8333333333334,3354.5636017628203,775.1666666666666,3078.2362279647436,785.0833333333334C2801.9088541666665,795,2271.3294270833335,806.5,2006.0397135416667,823.0416666666666C1740.75,839.5833333333334,1740.75,861.1666666666666,1740.75,882.75C1740.75,904.3333333333334,1740.75,925.9166666666666,1740.75,945.2916666666666C1740.75,964.6666666666666,1740.75,981.8333333333334,1740.75,999C1740.75,1016.1666666666666,1740.75,1033.3333333333333,1740.75,1052.7083333333333C1740.75,1072.0833333333333,1740.75,1093.6666666666667,1740.75,1115.25C1740.75,1136.8333333333333,1740.75,1158.4166666666667,1740.75,1180C1740.75,1201.5833333333333,1740.75,1223.1666666666667,1740.75,1244.75C1740.75,1266.3333333333333,1740.75,1287.9166666666667,1740.75,1309.5C1740.75,1331.0833333333333,1740.75,1352.6666666666667,1740.75,1374.25C1740.75,1395.8333333333333,1740.75,1417.4166666666667,1860.376953125,1437.6986554546775C1980.00390625,1457.9806442426882,2219.2578125,1476.9612884853766,2338.884765625,1486.4516106067204L2458.51171875,1495.9419327280646" id="edge13" class="transition" marker-end="url(#statediagram-barbEnd)"></path><path d="M3485.4969244909503,758.5L3486.4128016591253,762.6666666666666C3487.3286788273,766.8333333333334,3489.16043316365,775.1666666666666,3247.8705811651585,785.0833333333334C3006.5807291666665,795,2522.1692708333335,806.5,2279.9635416666665,823.0416666666666C2037.7578125,839.5833333333334,2037.7578125,861.1666666666666,2037.7578125,882.75C2037.7578125,904.3333333333334,2037.7578125,925.9166666666666,2037.7578125,945.2916666666666C2037.7578125,964.6666666666666,2037.7578125,981.8333333333334,2037.7578125,999C2037.7578125,1016.1666666666666,2037.7578125,1033.3333333333333,2037.7578125,1052.7083333333333C2037.7578125,1072.0833333333333,2037.7578125,1093.6666666666667,2037.7578125,1115.25C2037.7578125,1136.8333333333333,2037.7578125,1158.4166666666667,2037.7578125,1180C2037.7578125,1201.5833333333333,2037.7578125,1223.1666666666667,2037.7578125,1244.75C2037.7578125,1266.3333333333333,2037.7578125,1287.9166666666667,2037.7578125,1309.5C2037.7578125,1331.0833333333333,2037.7578125,1352.6666666666667,2037.7578125,1374.25C2037.7578125,1395.8333333333333,2037.7578125,1417.4166666666667,2107.8834635416665,1436.954187953161C2178.0091145833335,1456.4917092396552,2318.2604166666665,1473.98341847931,2388.3860677083335,1482.7292730991378L2458.51171875,1491.4751277189655" id="edge14" class="transition" marker-end="url(#statediagram-barbEnd)"></path><path d="M3088.87890625,1126.1850642944764L3215.0325520833335,1135.154220245397C3341.1861979166665,1144.1233761963176,3593.4934895833335,1162.0616880981588,3726.0721776463965,1176.7808440490794C3858.6508657094596,1191.5,3871.5009501689187,1203,3877.9259923986488,1208.75L3884.3510346283783,1214.5" id="edge15" class="transition" marker-end="url(#statediagram-barbEnd)"></path><path d="M3642.96484375,895.7472330524463L3700.8880208333335,904.3726942103718C3758.8111979166665,912.9981553682975,3874.6575520833335,930.2490776841487,3932.5807291666665,947.4578721754077C3990.50390625,964.6666666666666,3990.50390625,981.8333333333334,3990.50390625,999C3990.50390625,1016.1666666666666,3990.50390625,1033.3333333333333,3990.50390625,1052.7083333333333C3990.50390625,1072.0833333333333,3990.50390625,1093.6666666666667,3990.50390625,1115.25C3990.50390625,1136.8333333333333,3990.50390625,1158.4166666666667,3984.07886402027,1174.9583333333333C3977.6538217905404,1191.5,3964.8037373310813,1203,3958.3786951013512,1208.75L3951.9536528716217,1214.5" id="edge16" class="transition" marker-end="url(#statediagram-barbEnd)"></path><path d="M4071.95703125,1226.8742158187003L4089.7018229166665,1224.8118465155837C4107.446614583333,1222.749477212467,4142.936197916667,1218.6247386062334,4165.1171875,1216.5623693031168C4187.298177083333,1214.5,4196.170572916667,1214.5,4205.04296875,1219.5416666666667C4213.915364583333,1224.5833333333333,4222.787760416667,1234.6666666666667,4222.787760416667,1244.75C4222.787760416667,1254.8333333333333,4213.915364583333,1264.9166666666667,4205.04296875,1269.9583333333333C4196.170572916667,1275,4187.298177083333,1275,4165.1171875,1272.9376306968832C4142.936197916667,1270.8752613937666,4107.446614583333,1266.750522787533,4089.7018229166665,1264.6881534844163L4071.95703125,1262.6257841812997" id="edge17" class="transition" marker-end="url(#statediagram-barbEnd)"></path><path d="M3532.8377578883496,1016L3540.0972201152913,1021.75C3547.3566823422334,1027.5,3561.8756067961167,1039,3569.135069023058,1055.5416666666667C3576.39453125,1072.0833333333333,3576.39453125,1093.6666666666667,3576.39453125,1115.25C3576.39453125,1136.8333333333333,3576.39453125,1158.4166666666667,3576.39453125,1180C3576.39453125,1201.5833333333333,3576.39453125,1223.1666666666667,3576.39453125,1244.75C3576.39453125,1266.3333333333333,3576.39453125,1287.9166666666667,3594.781627051158,1304.4583333333333C3613.1687228523165,1321,3649.9429144546334,1332.5,3668.3300102557914,1338.25L3686.71710605695,1344" id="edge18" class="transition" marker-end="url(#statediagram-barbEnd)"></path><path d="M3088.87890625,1096.6765861671051L3104.9943576388887,1094.7304884725875C3121.109809027778,1092.78439077807,3153.340711805556,1088.8921953890351,3173.4850260416665,1086.9460976945174C3193.629340277778,1085,3201.687065972222,1085,3209.7447916666665,1090.0416666666667C3217.802517361111,1095.0833333333333,3225.860243055555,1105.1666666666667,3225.860243055555,1115.25C3225.860243055555,1125.3333333333333,3217.802517361111,1135.4166666666667,3209.7447916666665,1140.4583333333333C3201.687065972222,1145.5,3193.629340277778,1145.5,3173.4850260416665,1143.5539023054826C3153.340711805556,1141.6078046109649,3121.109809027778,1137.71560922193,3104.994357638889,1135.7695115274125L3088.87890625,1133.8234138328949" id="edge19" class="transition" marker-end="url(#statediagram-barbEnd)"></path><path d="M3468.40234375,890.8913450229873L3367.2545572916665,900.3261208524895C3266.1067708333335,909.7608966819915,3063.8111979166665,928.6304483409958,2962.6634114583335,946.6485575038313C2861.515625,964.6666666666666,2861.515625,981.8333333333334,2861.515625,999C2861.515625,1016.1666666666666,2861.515625,1033.3333333333333,2868.0478553330117,1047.6666666666667C2874.580085666023,1062,2887.6445463320465,1073.5,2894.176776665058,1079.25L2900.7090069980695,1085" id="edge20" class="transition" marker-end="url(#statediagram-barbEnd)"></path><path d="M3409.1875,1015.4119431348902L3372.775390625,1021.2599526124085C3336.36328125,1027.1079620899268,3263.5390625,1038.8039810449634,3204.425276001448,1050.4019905224816C3145.3114895028957,1062,3099.9081352557914,1073.5,3077.2064581322393,1079.25L3054.504781008687,1085" id="edge21" class="transition" marker-end="url(#statediagram-barbEnd)"></path><path d="M985.7369615709459,355L1001.3374419341217,364.5C1016.9379222972972,374,1048.1388830236485,393,1354.2933998451576,408.25C1660.4479166666667,423.5,2241.5559895833335,435,2532.1100260416665,446.5C2822.6640625,458,2822.6640625,469.5,2822.6640625,482.5416666666667C2822.6640625,495.5833333333333,2822.6640625,510.1666666666667,2822.6640625,517.4583333333334L2822.6640625,524.75" id="edge22" class="transition" marker-end="url(#statediagram-barbEnd)"></path><path d="M3534.9834399131273,913L3531.048699927606,918.75C3527.1139599420844,924.5,3519.2444799710424,936,3515.3097399855214,947.5C3511.375,959,3511.375,970.5,3511.375,976.25L3511.375,982" id="edge23" class="transition" marker-end="url(#statediagram-barbEnd)"></path><path d="M3850.7723666747106,1275L3837.964602437259,1280.75C3825.156838199807,1286.5,3799.541309724904,1298,3787.579256153475,1309.5C3775.6172025820465,1321,3777.3086239140925,1332.5,3778.154334580116,1338.25L3779.000045246139,1344" id="edge24" class="transition" marker-end="url(#statediagram-barbEnd)"></path><path d="M3613.5625,992.1743254443319L3638.94921875,990.4786045369433C3664.3359375,988.7828836295545,3715.109375,985.3914418147773,3746.8427734375,983.6957209073886C3778.576171875,982,3791.26953125,982,3803.962890625,984.8333333333334C3816.65625,987.6666666666666,3829.349609375,993.3333333333334,3829.349609375,999C3829.349609375,1004.6666666666666,3816.65625,1010.3333333333334,3803.962890625,1013.1666666666666C3791.26953125,1016,3778.576171875,1016,3746.8427734375,1014.3042790926114C3715.109375,1012.6085581852227,3664.3359375,1009.2171163704455,3638.94921875,1007.5213954630568L3613.5625,1005.8256745556681" id="edge25" class="transition" marker-end="url(#statediagram-barbEnd)"></path><path d="M3088.87890625,1103.6572385197874L3130.1341145833335,1100.5476987664895C3171.3893229166665,1097.4381590131916,3253.8997395833335,1091.2190795065958,3305.46875,1088.109539753298C3357.0377604166665,1085,3377.6653645833335,1085,3398.29296875,1090.0416666666667C3418.9205729166665,1095.0833333333333,3439.5481770833335,1105.1666666666667,3439.5481770833335,1115.25C3439.5481770833335,1125.3333333333333,3418.9205729166665,1135.4166666666667,3398.29296875,1140.4583333333333C3377.6653645833335,1145.5,3357.0377604166665,1145.5,3305.46875,1142.390460246702C3253.8997395833335,1139.2809204934042,3171.3893229166665,1133.0618409868084,3130.1341145833335,1129.9523012335105L3088.87890625,1126.8427614802126" id="edge26" class="transition" marker-end="url(#statediagram-barbEnd)"></path><path d="M3642.96484375,867.6421291053227L3657.5447048611113,865.1184409211023C3672.124565972222,862.5947527368818,3701.284288194444,857.547376368441,3719.5091145833326,855.0236881842205C3737.733940972222,852.5,3745.023871527778,852.5,3752.3138020833335,857.5416666666666C3759.603732638889,862.5833333333334,3766.893663194445,872.6666666666666,3766.893663194444,882.75C3766.893663194445,892.8333333333334,3759.603732638889,902.9166666666666,3752.313802083334,907.9583333333334C3745.023871527778,913,3737.733940972222,913,3719.5091145833335,910.4763118157795C3701.284288194444,907.952623631559,3672.124565972222,902.9052472631182,3657.5447048611113,900.3815590788977L3642.96484375,897.8578708946773" id="edge27" class="transition" marker-end="url(#statediagram-barbEnd)"></path><path d="M4071.95703125,1233.695772826551L4116.47092013889,1230.4964773554593C4160.984809027778,1227.2971818843673,4250.012586805556,1220.8985909421838,4305.654947916667,1217.699295471092C4361.297309027778,1214.5,4383.554253472223,1214.5,4405.811197916667,1219.5416666666667C4428.068142361111,1224.5833333333333,4450.325086805556,1234.6666666666667,4450.325086805556,1244.75C4450.325086805556,1254.8333333333333,4428.068142361111,1264.9166666666667,4405.811197916667,1269.9583333333333C4383.554253472223,1275,4361.297309027778,1275,4305.654947916667,1271.800704528908C4250.012586805556,1268.6014090578162,4160.984809027778,1262.2028181156327,4116.47092013889,1259.0035226445407L4071.95703125,1255.804227173449" id="edge28" class="transition" marker-end="url(#statediagram-barbEnd)"></path><path d="M2781.26953125,1132.9559810124385L2713.1608072916665,1140.7966508436987C2645.0520833333335,1148.637320674959,2508.8346354166665,1164.3186603374795,2440.7259114583335,1182.9509968354064C2372.6171875,1201.5833333333333,2372.6171875,1223.1666666666667,2372.6171875,1244.75C2372.6171875,1266.3333333333333,2372.6171875,1287.9166666666667,2395.87109375,1305.0953548743441C2419.125,1322.2740430820215,2465.6328125,1335.048086164043,2488.88671875,1341.435107705054L2512.140625,1347.8221292460646" id="edge29" class="transition" marker-end="url(#statediagram-barbEnd)"></path><path d="M3965.9855212355214,1275L3975.0777781129345,1280.75C3984.1700349903476,1286.5,4002.354548745174,1298,3990.392495173745,1309.5C3978.4304416023165,1321,3936.3218207046334,1332.5,3915.2675102557914,1338.25L3894.21319980695,1344" id="edge30" class="transition" marker-end="url(#statediagram-barbEnd)"></path><path d="M2512.140625,1387.9801527177563L2452.55078125,1396.4834605981303C2392.9609375,1404.986768478504,2273.78125,1421.993384239252,2264.8430989583335,1438.6484097262876C2255.9049479166665,1455.3034352133234,2357.2083333333335,1471.6068704266465,2407.8600260416665,1479.7585880333083L2458.51171875,1487.9103056399701" id="edge31" class="transition" marker-end="url(#statediagram-barbEnd)"></path><path d="M3654.61328125,1380.1448288759277L3440.2259114583335,1389.954024063273C3225.8385416666665,1399.7632192506182,2797.0638020833335,1419.3816096253092,2599.4286493524774,1434.9408048126545C2401.7934966216217,1450.5,2435.2979307432433,1462,2452.050147804054,1467.75L2468.802364864865,1473.5" id="edge32" class="transition" marker-end="url(#statediagram-barbEnd)"></path><path d="M2608.359375,1404.5L2608.359375,1410.25C2608.359375,1416,2608.359375,1427.5,2603.792606780888,1439C2599.225838561776,1450.5,2590.092302123552,1462,2585.52553390444,1467.75L2580.958765685328,1473.5" id="edge33" class="transition" marker-end="url(#statediagram-barbEnd)"></path><path d="M3654.61328125,1389.8993203385483L3587.2415364583335,1398.08276694879C3519.8697916666665,1406.266213559032,3385.1263020833335,1422.633106779516,3218.5833333333335,1440.0765490429033C3052.0403645833335,1457.5199913062909,2853.6979166666665,1476.0399826125815,2754.5266927083335,1485.299978265727L2655.35546875,1494.5599739188724" id="edge34" class="transition" marker-end="url(#statediagram-barbEnd)"></path><path d="M2704.578125,1381.159209842315L2838.828125,1390.7993415352623C2973.078125,1400.43947322821,3241.578125,1419.7197366141052,3233.3743489583335,1439.0371855409892C3225.1705729166665,1458.3546344678728,2940.2630208333335,1477.7092689357457,2797.8092447916665,1487.3865861696822L2655.35546875,1497.0639034036187" id="edge35" class="transition" marker-end="url(#statediagram-barbEnd)"></path><path d="M3903.195493484556,1404.5L3925.9571820704637,1410.25C3948.7188706563707,1416,3994.2422478281856,1427.5,3786.268910372426,1443.325377804999C3578.2955729166665,1459.150755609998,3116.8255208333335,1479.3015112199962,2886.0904947916665,1489.3768890249955L2655.35546875,1499.4522668299944" id="edge36" class="transition" marker-end="url(#statediagram-barbEnd)"></path><path d="M2631.512231539575,1344L2635.9131877413124,1338.25C2640.31414394305,1332.5,2649.116056346525,1321,2653.5170125482623,1304.4583333333333C2657.91796875,1287.9166666666667,2657.91796875,1266.3333333333333,2657.91796875,1244.75C2657.91796875,1223.1666666666667,2657.91796875,1201.5833333333333,2657.91796875,1180C2657.91796875,1158.4166666666667,2657.91796875,1136.8333333333333,2657.91796875,1115.25C2657.91796875,1093.6666666666667,2657.91796875,1072.0833333333333,2657.91796875,1052.7083333333333C2657.91796875,1033.3333333333333,2657.91796875,1016.1666666666666,2657.91796875,999C2657.91796875,981.8333333333334,2657.91796875,964.6666666666666,2792.9986979166665,946.3408382210464C2928.0794270833335,928.0150097754263,3198.2408854166665,908.5300195508526,3333.3216145833335,898.7875244385656L3468.40234375,889.0450293262788" id="edge37" class="transition" marker-end="url(#statediagram-barbEnd)"></path><path d="M3912.28515625,1391.532666224265L3971.2604166666665,1399.443888520221C4030.2356770833335,1407.3551108161766,4148.186197916667,1423.1775554080884,4207.161458333333,1439.0471110373776C4266.13671875,1454.9166666666667,4266.13671875,1470.8333333333333,4266.13671875,1478.7916666666667L4266.13671875,1486.75" id="edge38" class="transition" marker-end="url(#statediagram-barbEnd)"></path><path d="M4266.13671875,1520.75L4266.13671875,1528.7083333333333C4266.13671875,1536.6666666666667,4266.13671875,1552.5833333333333,4266.13671875,1566.2916666666667C4266.13671875,1580,4266.13671875,1591.5,4266.13671875,1597.25L4266.13671875,1603" id="edge39" class="transition" marker-end="url(#statediagram-barbEnd)"></path><path d="M2556.93359375,1534L2556.93359375,1539.75C2556.93359375,1545.5,2556.93359375,1557,2556.93359375,1568.5C2556.93359375,1580,2556.93359375,1591.5,2556.93359375,1597.25L2556.93359375,1603" id="edge40" class="transition" marker-end="url(#statediagram-barbEnd)"></path><path d="M957.8203125,195L957.8203125,200.75C957.8203125,206.5,957.8203125,218,957.8203125,229.5C957.8203125,241,957.8203125,252.5,957.8203125,267.75C957.8203125,283,957.8203125,302,957.8203125,311.5L957.8203125,321" class="transition note-edge"></path><path d="M1745.15234375,604L1745.15234375,608.1666666666666C1745.15234375,612.3333333333334,1745.15234375,620.6666666666666,1745.15234375,630.5833333333334C1745.15234375,640.5,1745.15234375,652,1729.875090492278,663.5C1714.597837234556,675,1684.0433307191117,686.5,1668.7660774613898,692.25L1653.488824203668,698" class="transition note-edge"></path><path d="M3801.72265625,604L3801.72265625,608.1666666666666C3801.72265625,612.3333333333334,3801.72265625,620.6666666666666,3801.72265625,630.5833333333334C3801.72265625,640.5,3801.72265625,652,3773.050358952703,663.5C3744.3780616554054,675,3687.0334670608113,686.5,3658.3611697635138,692.25L3629.6888724662163,698" class="transition note-edge"></path><path d="M2976.4296875,387L2976.4296875,391.1666666666667C2976.4296875,395.3333333333333,2976.4296875,403.6666666666667,2976.4296875,413.5833333333333C2976.4296875,423.5,2976.4296875,435,2976.4296875,446.5C2976.4296875,458,2976.4296875,469.5,2961.2782323338965,482.5416666666667C2946.1267771677926,495.5833333333333,2915.8238668355857,510.1666666666667,2900.6724116694822,517.4583333333334L2885.5209565033783,524.75" class="transition note-edge"></path></g><g class="edgeLabels"><g class="edgeLabel"><g class="label" transform="translate(0, 0)"><rect rx="0" ry="0" width="0" height="0" style="fill:#e8e8e8;"></rect><text style=""></text></g></g><g class="edgeLabel"><g class="label" transform="translate(0, 0)"><rect rx="0" ry="0" width="0" height="0" style="fill:#e8e8e8;"></rect><text style=""></text></g></g><g class="edgeLabel" transform="translate(602.21484375, 146)"><g class="label" transform="translate(-60.0234375, -9.5)"><rect rx="0" ry="0" width="119.984375" height="19.03125" style="fill:#e8e8e8;"></rect><text style=""><tspan xml:space="preserve" dy="1em" x="0" class="row">ClientEventOpen</tspan></text></g></g><g class="edgeLabel" transform="translate(488.4453125, 229.5)"><g class="label" transform="translate(-89.9453125, -9.5)"><rect rx="0" ry="0" width="179.78125" height="19.03125" style="fill:#e8e8e8;"></rect><text style=""><tspan xml:space="preserve" dy="1em" x="0" class="row">ClientEventDealProposed</tspan></text></g></g><g class="edgeLabel" transform="translate(742.23828125, 446.5)"><g class="label" transform="translate(-89.546875, -9.5)"><rect rx="0" ry="0" width="178.984375" height="19.03125" style="fill:#e8e8e8;"></rect><text style=""><tspan xml:space="preserve" dy="1em" x="0" class="row">ClientEventDealRejected</tspan></text></g></g><g class="edgeLabel" transform="translate(965.27734375, 446.5)"><g class="label" transform="translate(-91.5390625, -9.5)"><rect rx="0" ry="0" width="182.96875" height="19.03125" style="fill:#e8e8e8;"></rect><text style=""><tspan xml:space="preserve" dy="1em" x="0" class="row">ClientEventDealNotFound</tspan></text></g></g><g class="edgeLabel" transform="translate(2578.171875, 446.5)"><g class="label" transform="translate(-90.7265625, -9.5)"><rect rx="0" ry="0" width="181.34375" height="19.03125" style="fill:#e8e8e8;"></rect><text style=""><tspan xml:space="preserve" dy="1em" x="0" class="row">ClientEventDealAccepted</tspan></text></g></g><g class="edgeLabel" transform="translate(893.484375, 1115.25)"><g class="label" transform="translate(-128.1484375, -9.5)"><rect rx="0" ry="0" width="256.140625" height="19.03125" style="fill:#e8e8e8;"></rect><text style=""><tspan xml:space="preserve" dy="1em" x="0" class="row">ClientEventPaymentChannelErrored</tspan></text></g></g><g class="edgeLabel" transform="translate(1041.6328125, 1050.5)"><g class="label" transform="translate(-128.1484375, -9.5)"><rect rx="0" ry="0" width="256.140625" height="19.03125" style="fill:#e8e8e8;"></rect><text style=""><tspan xml:space="preserve" dy="1em" x="0" class="row">ClientEventPaymentChannelErrored</tspan></text></g></g><g class="edgeLabel" transform="translate(1286.4765625, 663.5)"><g class="label" transform="translate(-155.9453125, -9.5)"><rect rx="0" ry="0" width="311.703125" height="19.03125" style="fill:#e8e8e8;"></rect><text style=""><tspan xml:space="preserve" dy="1em" x="0" class="row">ClientEventPaymentChannelCreateInitiated</tspan></text></g></g><g class="edgeLabel" transform="translate(3395.66796875, 663.5)"><g class="label" transform="translate(-146.359375, -9.5)"><rect rx="0" ry="0" width="292.546875" height="19.03125" style="fill:#e8e8e8;"></rect><text style=""><tspan xml:space="preserve" dy="1em" x="0" class="row">ClientEventPaymentChannelAddingFunds</tspan></text></g></g><g class="edgeLabel" transform="translate(2582.71875, 818)"><g class="label" transform="translate(-123.046875, -9.5)"><rect rx="0" ry="0" width="245.953125" height="19.03125" style="fill:#e8e8e8;"></rect><text style=""><tspan xml:space="preserve" dy="1em" x="0" class="row">ClientEventPaymentChannelReady</tspan></text></g></g><g class="edgeLabel" transform="translate(3895.78515625, 818)"><g class="label" transform="translate(-123.046875, -9.5)"><rect rx="0" ry="0" width="245.953125" height="19.03125" style="fill:#e8e8e8;"></rect><text style=""><tspan xml:space="preserve" dy="1em" x="0" class="row">ClientEventPaymentChannelReady</tspan></text></g></g><g class="edgeLabel" transform="translate(1228.50390625, 1115.25)"><g class="label" transform="translate(-114.5859375, -9.5)"><rect rx="0" ry="0" width="229.03125" height="19.03125" style="fill:#e8e8e8;"></rect><text style=""><tspan xml:space="preserve" dy="1em" x="0" class="row">ClientEventAllocateLaneErrored</tspan></text></g></g><g class="edgeLabel" transform="translate(1740.75, 1115.25)"><g class="label" transform="translate(-114.5859375, -9.5)"><rect rx="0" ry="0" width="229.03125" height="19.03125" style="fill:#e8e8e8;"></rect><text style=""><tspan xml:space="preserve" dy="1em" x="0" class="row">ClientEventAllocateLaneErrored</tspan></text></g></g><g class="edgeLabel" transform="translate(2037.7578125, 1115.25)"><g class="label" transform="translate(-162.421875, -9.5)"><rect rx="0" ry="0" width="324.640625" height="19.03125" style="fill:#e8e8e8;"></rect><text style=""><tspan xml:space="preserve" dy="1em" x="0" class="row">ClientEventPaymentChannelAddFundsErrored</tspan></text></g></g><g class="edgeLabel" transform="translate(3845.80078125, 1180)"><g class="label" transform="translate(-124.703125, -9.5)"><rect rx="0" ry="0" width="249.265625" height="19.03125" style="fill:#e8e8e8;"></rect><text style=""><tspan xml:space="preserve" dy="1em" x="0" class="row">ClientEventLastPaymentRequested</tspan></text></g></g><g class="edgeLabel" transform="translate(3990.50390625, 1050.5)"><g class="label" transform="translate(-124.703125, -9.5)"><rect rx="0" ry="0" width="249.265625" height="19.03125" style="fill:#e8e8e8;"></rect><text style=""><tspan xml:space="preserve" dy="1em" x="0" class="row">ClientEventLastPaymentRequested</tspan></text></g></g><g class="edgeLabel" transform="translate(4231.66015625, 1244.75)"><g class="label" transform="translate(-124.703125, -9.5)"><rect rx="0" ry="0" width="249.265625" height="19.03125" style="fill:#e8e8e8;"></rect><text style=""><tspan xml:space="preserve" dy="1em" x="0" class="row">ClientEventLastPaymentRequested</tspan></text></g></g><g class="edgeLabel" transform="translate(3576.39453125, 1180)"><g class="label" transform="translate(-124.703125, -9.5)"><rect rx="0" ry="0" width="249.265625" height="19.03125" style="fill:#e8e8e8;"></rect><text style=""><tspan xml:space="preserve" dy="1em" x="0" class="row">ClientEventLastPaymentRequested</tspan></text></g></g><g class="edgeLabel" transform="translate(3233.91796875, 1115.25)"><g class="label" transform="translate(-110.0390625, -9.5)"><rect rx="0" ry="0" width="219.953125" height="19.03125" style="fill:#e8e8e8;"></rect><text style=""><tspan xml:space="preserve" dy="1em" x="0" class="row">ClientEventPaymentRequested</tspan></text></g></g><g class="edgeLabel" transform="translate(2861.515625, 999)"><g class="label" transform="translate(-110.0390625, -9.5)"><rect rx="0" ry="0" width="219.953125" height="19.03125" style="fill:#e8e8e8;"></rect><text style=""><tspan xml:space="preserve" dy="1em" x="0" class="row">ClientEventPaymentRequested</tspan></text></g></g><g class="edgeLabel" transform="translate(3190.71484375, 1050.5)"><g class="label" transform="translate(-110.0390625, -9.5)"><rect rx="0" ry="0" width="219.953125" height="19.03125" style="fill:#e8e8e8;"></rect><text style=""><tspan xml:space="preserve" dy="1em" x="0" class="row">ClientEventPaymentRequested</tspan></text></g></g><g class="edgeLabel" transform="translate(2822.6640625, 446.5)"><g class="label" transform="translate(-133.765625, -9.5)"><rect rx="0" ry="0" width="267.359375" height="19.03125" style="fill:#e8e8e8;"></rect><text style=""><tspan xml:space="preserve" dy="1em" x="0" class="row">ClientEventUnsealPaymentRequested</tspan></text></g></g><g class="edgeLabel" transform="translate(3511.375, 947.5)"><g class="label" transform="translate(-105.65625, -9.5)"><rect rx="0" ry="0" width="211.1875" height="19.03125" style="fill:#e8e8e8;"></rect><text style=""><tspan xml:space="preserve" dy="1em" x="0" class="row">ClientEventAllBlocksReceived</tspan></text></g></g><g class="edgeLabel" transform="translate(3773.92578125, 1309.5)"><g class="label" transform="translate(-105.65625, -9.5)"><rect rx="0" ry="0" width="211.1875" height="19.03125" style="fill:#e8e8e8;"></rect><text style=""><tspan xml:space="preserve" dy="1em" x="0" class="row">ClientEventAllBlocksReceived</tspan></text></g></g><g class="edgeLabel" transform="translate(3842.04296875, 999)"><g class="label" transform="translate(-105.65625, -9.5)"><rect rx="0" ry="0" width="211.1875" height="19.03125" style="fill:#e8e8e8;"></rect><text style=""><tspan xml:space="preserve" dy="1em" x="0" class="row">ClientEventAllBlocksReceived</tspan></text></g></g><g class="edgeLabel" transform="translate(3460.17578125, 1115.25)"><g class="label" transform="translate(-96.21875, -9.5)"><rect rx="0" ry="0" width="192.328125" height="19.03125" style="fill:#e8e8e8;"></rect><text style=""><tspan xml:space="preserve" dy="1em" x="0" class="row">ClientEventBlocksReceived</tspan></text></g></g><g class="edgeLabel" transform="translate(3774.18359375, 882.75)"><g class="label" transform="translate(-96.21875, -9.5)"><rect rx="0" ry="0" width="192.328125" height="19.03125" style="fill:#e8e8e8;"></rect><text style=""><tspan xml:space="preserve" dy="1em" x="0" class="row">ClientEventBlocksReceived</tspan></text></g></g><g class="edgeLabel" transform="translate(4472.58203125, 1244.75)"><g class="label" transform="translate(-96.21875, -9.5)"><rect rx="0" ry="0" width="192.328125" height="19.03125" style="fill:#e8e8e8;"></rect><text style=""><tspan xml:space="preserve" dy="1em" x="0" class="row">ClientEventBlocksReceived</tspan></text></g></g><g class="edgeLabel" transform="translate(2372.6171875, 1244.75)"><g class="label" transform="translate(-79.1171875, -9.5)"><rect rx="0" ry="0" width="158.140625" height="19.03125" style="fill:#e8e8e8;"></rect><text style=""><tspan xml:space="preserve" dy="1em" x="0" class="row">ClientEventSendFunds</tspan></text></g></g><g class="edgeLabel" transform="translate(4020.5390625, 1309.5)"><g class="label" transform="translate(-79.1171875, -9.5)"><rect rx="0" ry="0" width="158.140625" height="19.03125" style="fill:#e8e8e8;"></rect><text style=""><tspan xml:space="preserve" dy="1em" x="0" class="row">ClientEventSendFunds</tspan></text></g></g><g class="edgeLabel" transform="translate(2154.6015625, 1439)"><g class="label" transform="translate(-96.84375, -9.5)"><rect rx="0" ry="0" width="193.5625" height="19.03125" style="fill:#e8e8e8;"></rect><text style=""><tspan xml:space="preserve" dy="1em" x="0" class="row">ClientEventFundsExpended</tspan></text></g></g><g class="edgeLabel" transform="translate(2368.2890625, 1439)"><g class="label" transform="translate(-96.84375, -9.5)"><rect rx="0" ry="0" width="193.5625" height="19.03125" style="fill:#e8e8e8;"></rect><text style=""><tspan xml:space="preserve" dy="1em" x="0" class="row">ClientEventFundsExpended</tspan></text></g></g><g class="edgeLabel" transform="translate(2608.359375, 1439)"><g class="label" transform="translate(-123.2265625, -9.5)"><rect rx="0" ry="0" width="246.3125" height="19.03125" style="fill:#e8e8e8;"></rect><text style=""><tspan xml:space="preserve" dy="1em" x="0" class="row">ClientEventBadPaymentRequested</tspan></text></g></g><g class="edgeLabel" transform="translate(3250.3828125, 1439)"><g class="label" transform="translate(-123.2265625, -9.5)"><rect rx="0" ry="0" width="246.3125" height="19.03125" style="fill:#e8e8e8;"></rect><text style=""><tspan xml:space="preserve" dy="1em" x="0" class="row">ClientEventBadPaymentRequested</tspan></text></g></g><g class="edgeLabel" transform="translate(3510.078125, 1439)"><g class="label" transform="translate(-116.46875, -9.5)"><rect rx="0" ry="0" width="232.796875" height="19.03125" style="fill:#e8e8e8;"></rect><text style=""><tspan xml:space="preserve" dy="1em" x="0" class="row">ClientEventCreateVoucherFailed</tspan></text></g></g><g class="edgeLabel" transform="translate(4039.765625, 1439)"><g class="label" transform="translate(-116.46875, -9.5)"><rect rx="0" ry="0" width="232.796875" height="19.03125" style="fill:#e8e8e8;"></rect><text style=""><tspan xml:space="preserve" dy="1em" x="0" class="row">ClientEventCreateVoucherFailed</tspan></text></g></g><g class="edgeLabel" transform="translate(2657.91796875, 1115.25)"><g class="label" transform="translate(-88.3515625, -9.5)"><rect rx="0" ry="0" width="176.59375" height="19.03125" style="fill:#e8e8e8;"></rect><text style=""><tspan xml:space="preserve" dy="1em" x="0" class="row">ClientEventPaymentSent</tspan></text></g></g><g class="edgeLabel" transform="translate(4266.13671875, 1439)"><g class="label" transform="translate(-88.3515625, -9.5)"><rect rx="0" ry="0" width="176.59375" height="19.03125" style="fill:#e8e8e8;"></rect><text style=""><tspan xml:space="preserve" dy="1em" x="0" class="row">ClientEventPaymentSent</tspan></text></g></g><g class="edgeLabel" transform="translate(4266.13671875, 1568.5)"><g class="label" transform="translate(-75.875, -9.5)"><rect rx="0" ry="0" width="151.65625" height="19.03125" style="fill:#e8e8e8;"></rect><text style=""><tspan xml:space="preserve" dy="1em" x="0" class="row">ClientEventComplete</tspan></text></g></g><g class="edgeLabel" transform="translate(2556.93359375, 1568.5)"><g class="label" transform="translate(-54.671875, -9.5)"><rect rx="0" ry="0" width="109.28125" height="19.03125" style="fill:#e8e8e8;"></rect><text style=""><tspan xml:space="preserve" dy="1em" x="0" class="row">&lt;invalid Value&gt;</tspan></text></g></g><g class="edgeLabel"><g class="label" transform="translate(0, 0)"><rect rx="0" ry="0" width="0" height="0" style="fill:#e8e8e8;"></rect><text style=""></text></g></g><g class="edgeLabel"><g class="label" transform="translate(0, 0)"><rect rx="0" ry="0" width="0" height="0" style="fill:#e8e8e8;"></rect><text style=""></text></g></g><g class="edgeLabel"><g class="label" transform="translate(0, 0)"><rect rx="0" ry="0" width="0" height="0" style="fill:#e8e8e8;"></rect><text style=""></text></g></g><g class="edgeLabel"><g class="label" transform="translate(0, 0)"><rect rx="0" ry="0" width="0" height="0" style="fill:#e8e8e8;"></rect><text style=""></text></g></g></g><g class="nodes"><g class="node statediagram-state" id="0" transform="translate(383.26953125, 146)"><rect class="outer title-state" x="-102.59375" y="-30.25" width="205.1875" height="60.5"></rect><line class="divider" x1="-102.59375" x2="102.59375" y1="-3.75" y2="-3.75"></line><g class="label" transform="translate(-95.09375, -27.25)"><text style=""><tspan xml:space="preserve" dy="1em" x="0" class="title-row">DealStatusNew</tspan></text><text style="" transform="translate( 0, 26.5)"><tspan xml:space="preserve" dy="1em" x="0" class="title-row">On entry runs ProposeDeal</tspan></text></g></g><g class="node statediagram-state" id="3" transform="translate(957.8203125, 338)"><rect class="outer title-state" x="-114.9453125" y="-17" width="229.890625" height="34"></rect><line class="divider" x1="-114.9453125" x2="114.9453125" y1="9.5" y2="9.5"></line><g class="label" transform="translate(-107.4453125, -14)"><text style=""><tspan xml:space="preserve" dy="1em" x="0" class="title-row">DealStatusWaitForAcceptance</tspan></text><text style="" transform="translate( 0, 26.5)"><tspan xml:space="preserve" dy="1em" x="0" class="title-row"></tspan></text></g></g><g class="node statediagram-state" id="4" transform="translate(1573.1171875, 728.25)"><rect class="outer title-state" x="-170.59375" y="-30.25" width="341.1875" height="60.5"></rect><line class="divider" x1="-170.59375" x2="170.59375" y1="-3.75" y2="-3.75"></line><g class="label" transform="translate(-163.09375, -27.25)"><text style=""><tspan xml:space="preserve" dy="1em" x="0" class="title-row">DealStatusPaymentChannelCreating</tspan></text><text style="" transform="translate( 0, 26.5)"><tspan xml:space="preserve" dy="1em" x="0" class="title-row">On entry runs WaitForPaymentChannelCreate</tspan></text></g></g><g class="node statediagram-state" id="5" transform="translate(3478.84765625, 728.25)"><rect class="outer title-state" x="-180.8671875" y="-30.25" width="361.734375" height="60.5"></rect><line class="divider" x1="-180.8671875" x2="180.8671875" y1="-3.75" y2="-3.75"></line><g class="label" transform="translate(-173.3671875, -27.25)"><text style=""><tspan xml:space="preserve" dy="1em" x="0" class="title-row">DealStatusPaymentChannelAddingFunds</tspan></text><text style="" transform="translate( 0, 26.5)"><tspan xml:space="preserve" dy="1em" x="0" class="title-row">On entry runs WaitForPaymentChannelAddFunds</tspan></text></g></g><g class="node statediagram-state" id="6" transform="translate(2822.6640625, 555)"><rect class="outer title-state" x="-156.2421875" y="-30.25" width="312.484375" height="60.5"></rect><line class="divider" x1="-156.2421875" x2="156.2421875" y1="-3.75" y2="-3.75"></line><g class="label" transform="translate(-148.7421875, -27.25)"><text style=""><tspan xml:space="preserve" dy="1em" x="0" class="title-row">DealStatusAccepted</tspan></text><text style="" transform="translate( 0, 26.5)"><tspan xml:space="preserve" dy="1em" x="0" class="title-row">On entry runs SetupPaymentChannelStart</tspan></text></g></g><g class="node statediagram-state" id="8" transform="translate(2556.93359375, 1503.75)"><rect class="outer title-state" x="-98.421875" y="-30.25" width="196.84375" height="60.5"></rect><line class="divider" x1="-98.421875" x2="98.421875" y1="-3.75" y2="-3.75"></line><g class="label" transform="translate(-90.921875, -27.25)"><text style=""><tspan xml:space="preserve" dy="1em" x="0" class="title-row">DealStatusFailed</tspan></text><text style="" transform="translate( 0, 26.5)"><tspan xml:space="preserve" dy="1em" x="0" class="title-row">On entry runs CancelDeal</tspan></text></g></g><g class="node statediagram-state" id="9" transform="translate(742.23828125, 555)"><rect class="outer title-state" x="-77.609375" y="-17" width="155.21875" height="34"></rect><line class="divider" x1="-77.609375" x2="77.609375" y1="9.5" y2="9.5"></line><g class="label" transform="translate(-70.109375, -14)"><text style=""><tspan xml:space="preserve" dy="1em" x="0" class="title-row">DealStatusRejected</tspan></text><text style="" transform="translate( 0, 26.5)"><tspan xml:space="preserve" dy="1em" x="0" class="title-row"></tspan></text></g></g><g class="node statediagram-state" id="10" transform="translate(2935.07421875, 1115.25)"><rect class="outer title-state" x="-153.8046875" y="-30.25" width="307.609375" height="60.5"></rect><line class="divider" x1="-153.8046875" x2="153.8046875" y1="-3.75" y2="-3.75"></line><g class="label" transform="translate(-146.3046875, -27.25)"><text style=""><tspan xml:space="preserve" dy="1em" x="0" class="title-row">DealStatusFundsNeeded</tspan></text><text style="" transform="translate( 0, 26.5)"><tspan xml:space="preserve" dy="1em" x="0" class="title-row">On entry runs ProcessPaymentRequested</tspan></text></g></g><g class="node statediagram-state" id="11" transform="translate(2608.359375, 1374.25)"><rect class="outer title-state" x="-96.21875" y="-30.25" width="192.4375" height="60.5"></rect><line class="divider" x1="-96.21875" x2="96.21875" y1="-3.75" y2="-3.75"></line><g class="label" transform="translate(-88.71875, -27.25)"><text style=""><tspan xml:space="preserve" dy="1em" x="0" class="title-row">DealStatusSendFunds</tspan></text><text style="" transform="translate( 0, 26.5)"><tspan xml:space="preserve" dy="1em" x="0" class="title-row">On entry runs SendFunds</tspan></text></g></g><g class="node statediagram-state" id="12" transform="translate(3783.44921875, 1374.25)"><rect class="outer title-state" x="-128.8359375" y="-30.25" width="257.671875" height="60.5"></rect><line class="divider" x1="-128.8359375" x2="128.8359375" y1="-3.75" y2="-3.75"></line><g class="label" transform="translate(-121.3359375, -27.25)"><text style=""><tspan xml:space="preserve" dy="1em" x="0" class="title-row">DealStatusSendFundsLastPayment</tspan></text><text style="" transform="translate( 0, 26.5)"><tspan xml:space="preserve" dy="1em" x="0" class="title-row">On entry runs SendFunds</tspan></text></g></g><g class="node statediagram-state" id="13" transform="translate(3555.68359375, 882.75)"><rect class="outer title-state" x="-87.28125" y="-30.25" width="174.5625" height="60.5"></rect><line class="divider" x1="-87.28125" x2="87.28125" y1="-3.75" y2="-3.75"></line><g class="label" transform="translate(-79.78125, -27.25)"><text style=""><tspan xml:space="preserve" dy="1em" x="0" class="title-row">DealStatusOngoing</tspan></text><text style="" transform="translate( 0, 26.5)"><tspan xml:space="preserve" dy="1em" x="0" class="title-row">On entry runs Ongoing</tspan></text></g></g><g class="node statediagram-state" id="14" transform="translate(3918.15234375, 1244.75)"><rect class="outer title-state" x="-153.8046875" y="-30.25" width="307.609375" height="60.5"></rect><line class="divider" x1="-153.8046875" x2="153.8046875" y1="-3.75" y2="-3.75"></line><g class="label" transform="translate(-146.3046875, -27.25)"><text style=""><tspan xml:space="preserve" dy="1em" x="0" class="title-row">DealStatusFundsNeededLastPayment</tspan></text><text style="" transform="translate( 0, 26.5)"><tspan xml:space="preserve" dy="1em" x="0" class="title-row">On entry runs ProcessPaymentRequested</tspan></text></g></g><g class="node statediagram-state" id="15" transform="translate(4266.13671875, 1620)"><rect class="outer title-state" x="-84.2265625" y="-17" width="168.453125" height="34"></rect><line class="divider" x1="-84.2265625" x2="84.2265625" y1="9.5" y2="9.5"></line><g class="label" transform="translate(-76.7265625, -14)"><text style=""><tspan xml:space="preserve" dy="1em" x="0" class="title-row">DealStatusCompleted</tspan></text><text style="" transform="translate( 0, 26.5)"><tspan xml:space="preserve" dy="1em" x="0" class="title-row"></tspan></text></g></g><g class="node statediagram-state" id="16" transform="translate(965.27734375, 555)"><rect class="outer title-state" x="-95.4296875" y="-17" width="190.859375" height="34"></rect><line class="divider" x1="-95.4296875" x2="95.4296875" y1="9.5" y2="9.5"></line><g class="label" transform="translate(-87.9296875, -14)"><text style=""><tspan xml:space="preserve" dy="1em" x="0" class="title-row">DealStatusDealNotFound</tspan></text><text style="" transform="translate( 0, 26.5)"><tspan xml:space="preserve" dy="1em" x="0" class="title-row"></tspan></text></g></g><g class="node statediagram-state" id="17" transform="translate(2556.93359375, 1620)"><rect class="outer title-state" x="-72.0625" y="-17" width="144.125" height="34"></rect><line class="divider" x1="-72.0625" x2="72.0625" y1="9.5" y2="9.5"></line><g class="label" transform="translate(-64.5625, -14)"><text style=""><tspan xml:space="preserve" dy="1em" x="0" class="title-row">DealStatusErrored</tspan></text><text style="" transform="translate( 0, 26.5)"><tspan xml:space="preserve" dy="1em" x="0" class="title-row"></tspan></text></g></g><g class="node statediagram-state" id="18" transform="translate(3511.375, 999)"><rect class="outer title-state" x="-102.1875" y="-17" width="204.375" height="34"></rect><line class="divider" x1="-102.1875" x2="102.1875" y1="9.5" y2="9.5"></line><g class="label" transform="translate(-94.6875, -14)"><text style=""><tspan xml:space="preserve" dy="1em" x="0" class="title-row">DealStatusBlocksComplete</tspan></text><text style="" transform="translate( 0, 26.5)"><tspan xml:space="preserve" dy="1em" x="0" class="title-row"></tspan></text></g></g><g class="node statediagram-state" id="19" transform="translate(4266.13671875, 1503.75)"><rect class="outer title-state" x="-79.5" y="-17" width="159" height="34"></rect><line class="divider" x1="-79.5" x2="79.5" y1="9.5" y2="9.5"></line><g class="label" transform="translate(-72, -14)"><text style=""><tspan xml:space="preserve" dy="1em" x="0" class="title-row">DealStatusFinalizing</tspan></text><text style="" transform="translate( 0, 26.5)"><tspan xml:space="preserve" dy="1em" x="0" class="title-row"></tspan></text></g></g><g class="node default" id="root_start" transform="translate(383.26953125, 15)"><circle class="state-start" r="7" width="14" height="14"></circle></g><g class="node statediagram-note" id="0----note" transform="translate(328.296875, 338)"><rect x="-285.296875" y="-49" width="570.59375" height="98"></rect><g class="label" transform="translate(-277.796875, -41.5)"><text style=""><tspan xml:space="preserve" dy="1em" x="0" class="row">The following events are not shown cause they can trigger from any state.</tspan><tspan xml:space="preserve" dy="1em" x="0" class="row"></tspan><tspan xml:space="preserve" dy="1em" x="0" class="row">ClientEventWriteDealProposalErrored - transitions state to DealStatusErrored</tspan><tspan xml:space="preserve" dy="1em" x="0" class="row">ClientEventUnknownResponseReceived - transitions state to DealStatusFailed</tspan><tspan xml:space="preserve" dy="1em" x="0" class="row">ClientEventDataTransferError - transitions state to DealStatusErrored</tspan><tspan xml:space="preserve" dy="1em" x="0" class="row">ClientEventWriteDealPaymentErrored - transitions state to DealStatusErrored</tspan></text></g></g><g class="node statediagram-note" id="3----note" transform="translate(957.8203125, 146)"><rect x="-173.125" y="-49" width="346.25" height="98"></rect><g class="label" transform="translate(-165.625, -41.5)"><text style=""><tspan xml:space="preserve" dy="1em" x="0" class="row">The following events only record in this state.</tspan><tspan xml:space="preserve" dy="1em" x="0" class="row"></tspan><tspan xml:space="preserve" dy="1em" x="0" class="row">ClientEventLastPaymentRequested</tspan><tspan xml:space="preserve" dy="1em" x="0" class="row">ClientEventPaymentRequested</tspan><tspan xml:space="preserve" dy="1em" x="0" class="row">ClientEventAllBlocksReceived</tspan><tspan xml:space="preserve" dy="1em" x="0" class="row">ClientEventBlocksReceived</tspan></text></g></g><g class="node statediagram-note" id="4----note" transform="translate(1745.15234375, 555)"><rect x="-173.125" y="-49" width="346.25" height="98"></rect><g class="label" transform="translate(-165.625, -41.5)"><text style=""><tspan xml:space="preserve" dy="1em" x="0" class="row">The following events only record in this state.</tspan><tspan xml:space="preserve" dy="1em" x="0" class="row"></tspan><tspan xml:space="preserve" dy="1em" x="0" class="row">ClientEventLastPaymentRequested</tspan><tspan xml:space="preserve" dy="1em" x="0" class="row">ClientEventPaymentRequested</tspan><tspan xml:space="preserve" dy="1em" x="0" class="row">ClientEventAllBlocksReceived</tspan><tspan xml:space="preserve" dy="1em" x="0" class="row">ClientEventBlocksReceived</tspan></text></g></g><g class="node statediagram-note" id="5----note" transform="translate(3801.72265625, 555)"><rect x="-173.125" y="-49" width="346.25" height="98"></rect><g class="label" transform="translate(-165.625, -41.5)"><text style=""><tspan xml:space="preserve" dy="1em" x="0" class="row">The following events only record in this state.</tspan><tspan xml:space="preserve" dy="1em" x="0" class="row"></tspan><tspan xml:space="preserve" dy="1em" x="0" class="row">ClientEventLastPaymentRequested</tspan><tspan xml:space="preserve" dy="1em" x="0" class="row">ClientEventPaymentRequested</tspan><tspan xml:space="preserve" dy="1em" x="0" class="row">ClientEventAllBlocksReceived</tspan><tspan xml:space="preserve" dy="1em" x="0" class="row">ClientEventBlocksReceived</tspan></text></g></g><g class="node statediagram-note" id="6----note" transform="translate(2976.4296875, 338)"><rect x="-173.125" y="-49" width="346.25" height="98"></rect><g class="label" transform="translate(-165.625, -41.5)"><text style=""><tspan xml:space="preserve" dy="1em" x="0" class="row">The following events only record in this state.</tspan><tspan xml:space="preserve" dy="1em" x="0" class="row"></tspan><tspan xml:space="preserve" dy="1em" x="0" class="row">ClientEventLastPaymentRequested</tspan><tspan xml:space="preserve" dy="1em" x="0" class="row">ClientEventPaymentRequested</tspan><tspan xml:space="preserve" dy="1em" x="0" class="row">ClientEventAllBlocksReceived</tspan><tspan xml:space="preserve" dy="1em" x="0" class="row">ClientEventBlocksReceived</tspan></text></g></g></g></g></g></svg>