<svg id="mermaid-1592413503620" width="4100.69140625" xmlns="http://www.w3.org/2000/svg" class="statediagram" height="1299.5" viewBox="0 0 4100.69140625 1299.5"><style>#mermaid-1592413503620 .label{font-family:'trebuchet ms', verdana, arial;font-family:var(--mermaid-font-family);color:#333}#mermaid-1592413503620 .label text{fill:#333}#mermaid-1592413503620 .node rect,#mermaid-1592413503620 .node circle,#mermaid-1592413503620 .node ellipse,#mermaid-1592413503620 .node polygon,#mermaid-1592413503620 .node path{fill:#ECECFF;stroke:#9370db;stroke-width:1px}#mermaid-1592413503620 .node .label{text-align:center}#mermaid-1592413503620 .node.clickable{cursor:pointer}#mermaid-1592413503620 .arrowheadPath{fill:#333}#mermaid-1592413503620 .edgePath .path{stroke:#333;stroke-width:1.5px}#mermaid-1592413503620 .edgeLabel{background-color:#e8e8e8;text-align:center}#mermaid-1592413503620 .edgeLabel rect{opacity:0.5}#mermaid-1592413503620 .cluster rect{fill:#ffffde;stroke:#aa3;stroke-width:1px}#mermaid-1592413503620 .cluster text{fill:#333}#mermaid-1592413503620 div.mermaidTooltip{position:absolute;text-align:center;max-width:200px;padding:2px;font-family:'trebuchet ms', verdana, arial;font-family:var(--mermaid-font-family);font-size:12px;background:#ffffde;border:1px solid #aa3;border-radius:2px;pointer-events:none;z-index:100}#mermaid-1592413503620 .actor{stroke:#ccf;fill:#ECECFF}#mermaid-1592413503620 text.actor{fill:#000;stroke:none}#mermaid-1592413503620 .actor-line{stroke:grey}#mermaid-1592413503620 .messageLine0{stroke-width:1.5;stroke-dasharray:'2 2';stroke:#333}#mermaid-1592413503620 .messageLine1{stroke-width:1.5;stroke-dasharray:'2 2';stroke:#333}#mermaid-1592413503620 #arrowhead{fill:#333}#mermaid-1592413503620 .sequenceNumber{fill:#fff}#mermaid-1592413503620 #sequencenumber{fill:#333}#mermaid-1592413503620 #crosshead path{fill:#333 !important;stroke:#333 !important}#mermaid-1592413503620 .messageText{fill:#333;stroke:none}#mermaid-1592413503620 .labelBox{stroke:#ccf;fill:#ECECFF}#mermaid-1592413503620 .labelText{fill:#000;stroke:none}#mermaid-1592413503620 .loopText{fill:#000;stroke:none}#mermaid-1592413503620 .loopLine{stroke-width:2;stroke-dasharray:'2 2';stroke:#ccf}#mermaid-1592413503620 .note{stroke:#aa3;fill:#fff5ad}#mermaid-1592413503620 .noteText{fill:black;stroke:none;font-family:'trebuchet ms', verdana, arial;font-family:var(--mermaid-font-family);font-size:14px}#mermaid-1592413503620 .activation0{fill:#f4f4f4;stroke:#666}#mermaid-1592413503620 .activation1{fill:#f4f4f4;stroke:#666}#mermaid-1592413503620 .activation2{fill:#f4f4f4;stroke:#666}#mermaid-1592413503620 .mermaid-main-font{font-family:"trebuchet ms", verdana, arial;font-family:var(--mermaid-font-family)}#mermaid-1592413503620 .section{stroke:none;opacity:0.2}#mermaid-1592413503620 .section0{fill:rgba(102,102,255,0.49)}#mermaid-1592413503620 .section2{fill:#fff400}#mermaid-1592413503620 .section1,#mermaid-1592413503620 .section3{fill:#fff;opacity:0.2}#mermaid-1592413503620 .sectionTitle0{fill:#333}#mermaid-1592413503620 .sectionTitle1{fill:#333}#mermaid-1592413503620 .sectionTitle2{fill:#333}#mermaid-1592413503620 .sectionTitle3{fill:#333}#mermaid-1592413503620 .sectionTitle{text-anchor:start;font-size:11px;text-height:14px;font-family:'trebuchet ms', verdana, arial;font-family:var(--mermaid-font-family)}#mermaid-1592413503620 .grid .tick{stroke:#d3d3d3;opacity:0.8;shape-rendering:crispEdges}#mermaid-1592413503620 .grid .tick text{font-family:'trebuchet ms', verdana, arial;font-family:var(--mermaid-font-family)}#mermaid-1592413503620 .grid path{stroke-width:0}#mermaid-1592413503620 .today{fill:none;stroke:red;stroke-width:2px}#mermaid-1592413503620 .task{stroke-width:2}#mermaid-1592413503620 .taskText{text-anchor:middle;font-family:'trebuchet ms', verdana, arial;font-family:var(--mermaid-font-family)}#mermaid-1592413503620 .taskText:not([font-size]){font-size:11px}#mermaid-1592413503620 .taskTextOutsideRight{fill:#000;text-anchor:start;font-size:11px;font-family:'trebuchet ms', verdana, arial;font-family:var(--mermaid-font-family)}#mermaid-1592413503620 .taskTextOutsideLeft{fill:#000;text-anchor:end;font-size:11px}#mermaid-1592413503620 .task.clickable{cursor:pointer}#mermaid-1592413503620 .taskText.clickable{cursor:pointer;fill:#003163 !important;font-weight:bold}#mermaid-1592413503620 .taskTextOutsideLeft.clickable{cursor:pointer;fill:#003163 !important;font-weight:bold}#mermaid-1592413503620 .taskTextOutsideRight.clickable{cursor:pointer;fill:#003163 !important;font-weight:bold}#mermaid-1592413503620 .taskText0,#mermaid-1592413503620 .taskText1,#mermaid-1592413503620 .taskText2,#mermaid-1592413503620 .taskText3{fill:#fff}#mermaid-1592413503620 .task0,#mermaid-1592413503620 .task1,#mermaid-1592413503620 .task2,#mermaid-1592413503620 .task3{fill:#8a90dd;stroke:#534fbc}#mermaid-1592413503620 .taskTextOutside0,#mermaid-1592413503620 .taskTextOutside2{fill:#000}#mermaid-1592413503620 .taskTextOutside1,#mermaid-1592413503620 .taskTextOutside3{fill:#000}#mermaid-1592413503620 .active0,#mermaid-1592413503620 .active1,#mermaid-1592413503620 .active2,#mermaid-1592413503620 .active3{fill:#bfc7ff;stroke:#534fbc}#mermaid-1592413503620 .activeText0,#mermaid-1592413503620 .activeText1,#mermaid-1592413503620 .activeText2,#mermaid-1592413503620 .activeText3{fill:#000 !important}#mermaid-1592413503620 .done0,#mermaid-1592413503620 .done1,#mermaid-1592413503620 .done2,#mermaid-1592413503620 .done3{stroke:grey;fill:#d3d3d3;stroke-width:2}#mermaid-1592413503620 .doneText0,#mermaid-1592413503620 .doneText1,#mermaid-1592413503620 .doneText2,#mermaid-1592413503620 .doneText3{fill:#000 !important}#mermaid-1592413503620 .crit0,#mermaid-1592413503620 .crit1,#mermaid-1592413503620 .crit2,#mermaid-1592413503620 .crit3{stroke:#f88;fill:red;stroke-width:2}#mermaid-1592413503620 .activeCrit0,#mermaid-1592413503620 .activeCrit1,#mermaid-1592413503620 .activeCrit2,#mermaid-1592413503620 .activeCrit3{stroke:#f88;fill:#bfc7ff;stroke-width:2}#mermaid-1592413503620 .doneCrit0,#mermaid-1592413503620 .doneCrit1,#mermaid-1592413503620 .doneCrit2,#mermaid-1592413503620 .doneCrit3{stroke:#f88;fill:#d3d3d3;stroke-width:2;cursor:pointer;shape-rendering:crispEdges}#mermaid-1592413503620 .milestone{transform:rotate(45deg) scale(0.8, 0.8)}#mermaid-1592413503620 .milestoneText{font-style:italic}#mermaid-1592413503620 .doneCritText0,#mermaid-1592413503620 .doneCritText1,#mermaid-1592413503620 .doneCritText2,#mermaid-1592413503620 .doneCritText3{fill:#000 !important}#mermaid-1592413503620 .activeCritText0,#mermaid-1592413503620 .activeCritText1,#mermaid-1592413503620 .activeCritText2,#mermaid-1592413503620 .activeCritText3{fill:#000 !important}#mermaid-1592413503620 .titleText{text-anchor:middle;font-size:18px;fill:#000;font-family:'trebuchet ms', verdana, arial;font-family:var(--mermaid-font-family)}#mermaid-1592413503620 g.classGroup text{fill:#9370db;stroke:none;font-family:'trebuchet ms', verdana, arial;font-family:var(--mermaid-font-family);font-size:10px}#mermaid-1592413503620 g.classGroup text .title{font-weight:bolder}#mermaid-1592413503620 g.clickable{cursor:pointer}#mermaid-1592413503620 g.classGroup rect{fill:#ECECFF;stroke:#9370db}#mermaid-1592413503620 g.classGroup line{stroke:#9370db;stroke-width:1}#mermaid-1592413503620 .classLabel .box{stroke:none;stroke-width:0;fill:#ECECFF;opacity:0.5}#mermaid-1592413503620 .classLabel .label{fill:#9370db;font-size:10px}#mermaid-1592413503620 .relation{stroke:#9370db;stroke-width:1;fill:none}#mermaid-1592413503620 .dashed-line{stroke-dasharray:3}#mermaid-1592413503620 #compositionStart{fill:#9370db;stroke:#9370db;stroke-width:1}#mermaid-1592413503620 #compositionEnd{fill:#9370db;stroke:#9370db;stroke-width:1}#mermaid-1592413503620 #aggregationStart{fill:#ECECFF;stroke:#9370db;stroke-width:1}#mermaid-1592413503620 #aggregationEnd{fill:#ECECFF;stroke:#9370db;stroke-width:1}#mermaid-1592413503620 #dependencyStart{fill:#9370db;stroke:#9370db;stroke-width:1}#mermaid-1592413503620 #dependencyEnd{fill:#9370db;stroke:#9370db;stroke-width:1}#mermaid-1592413503620 #extensionStart{fill:#9370db;stroke:#9370db;stroke-width:1}#mermaid-1592413503620 #extensionEnd{fill:#9370db;stroke:#9370db;stroke-width:1}#mermaid-1592413503620 .commit-id,#mermaid-1592413503620 .commit-msg,#mermaid-1592413503620 .branch-label{fill:lightgrey;color:lightgrey;font-family:'trebuchet ms', verdana, arial;font-family:var(--mermaid-font-family)}#mermaid-1592413503620 .pieTitleText{text-anchor:middle;font-size:25px;fill:#000;font-family:'trebuchet ms', verdana, arial;font-family:var(--mermaid-font-family)}#mermaid-1592413503620 .slice{font-family:'trebuchet ms', verdana, arial;font-family:var(--mermaid-font-family)}#mermaid-1592413503620 g.stateGroup text{fill:#9370db;stroke:none;font-size:10px;font-family:'trebuchet ms', verdana, arial;font-family:var(--mermaid-font-family)}#mermaid-1592413503620 g.stateGroup text{fill:#9370db;stroke:none;font-size:10px}#mermaid-1592413503620 g.stateGroup .state-title{font-weight:bolder;fill:#000}#mermaid-1592413503620 g.stateGroup rect{fill:#ECECFF;stroke:#9370db}#mermaid-1592413503620 g.stateGroup line{stroke:#9370db;stroke-width:1}#mermaid-1592413503620 .transition{stroke:#9370db;stroke-width:1;fill:none}#mermaid-1592413503620 .stateGroup .composit{fill:white;border-bottom:1px}#mermaid-1592413503620 .stateGroup .alt-composit{fill:#e0e0e0;border-bottom:1px}#mermaid-1592413503620 .state-note{stroke:#aa3;fill:#fff5ad}#mermaid-1592413503620 .state-note text{fill:black;stroke:none;font-size:10px}#mermaid-1592413503620 .stateLabel .box{stroke:none;stroke-width:0;fill:#ECECFF;opacity:0.5}#mermaid-1592413503620 .stateLabel text{fill:#000;font-size:10px;font-weight:bold;font-family:'trebuchet ms', verdana, arial;font-family:var(--mermaid-font-family)}#mermaid-1592413503620 .node circle.state-start{fill:black;stroke:black}#mermaid-1592413503620 .node circle.state-end{fill:black;stroke:white;stroke-width:1.5}#mermaid-1592413503620 #statediagram-barbEnd{fill:#9370db}#mermaid-1592413503620 .statediagram-cluster rect{fill:#ECECFF;stroke:#9370db;stroke-width:1px}#mermaid-1592413503620 .statediagram-cluster rect.outer{rx:5px;ry:5px}#mermaid-1592413503620 .statediagram-state .divider{stroke:#9370db}#mermaid-1592413503620 .statediagram-state .title-state{rx:5px;ry:5px}#mermaid-1592413503620 .statediagram-cluster.statediagram-cluster .inner{fill:white}#mermaid-1592413503620 .statediagram-cluster.statediagram-cluster-alt .inner{fill:#e0e0e0}#mermaid-1592413503620 .statediagram-cluster .inner{rx:0;ry:0}#mermaid-1592413503620 .statediagram-state rect.basic{rx:5px;ry:5px}#mermaid-1592413503620 .statediagram-state rect.divider{stroke-dasharray:10,10;fill:#efefef}#mermaid-1592413503620 .note-edge{stroke-dasharray:5}#mermaid-1592413503620 .statediagram-note rect{fill:#fff5ad;stroke:#aa3;stroke-width:1px;rx:0;ry:0}:root{--mermaid-font-family: '"trebuchet ms", verdana, arial';--mermaid-font-family: "Comic Sans MS", "Comic Sans", cursive}

:root { --mermaid-font-family: "trebuchet ms", verdana, arial;}</style><style>#mermaid-1592413503620 {
    color: rgb(0, 0, 0);
    font: 16px "trebuchet ms", verdana, arial;
  }</style><g><defs><marker id="statediagram-barbEnd" refX="19" refY="7" markerWidth="20" markerHeight="14" markerUnits="0" orient="auto"><path d="M 19,7 L9,13 L14,7 L9,1 Z"></path></marker></defs><g class="root"><g class="clusters"></g><g class="edgePaths"><path d="M2390.1328125,32L2390.1328125,37.833333333333336C2390.1328125,43.666666666666664,2390.1328125,55.333333333333336,2390.1328125,65.33333333333333C2390.1328125,75.33333333333333,2390.1328125,83.66666666666667,2390.1328125,87.83333333333333L2390.1328125,92" id="edge0" class="transition" marker-end="url(#statediagram-barbEnd)"></path><path d="M2492.7265625,103.54799755186593L2503.284722222222,101.62333129322161C2513.842881944445,99.69866503457729,2534.959201388889,95.84933251728864,2548.1569010416665,93.92466625864432C2561.354600694445,92,2566.633680555555,92,2571.9127604166665,97.04166666666667C2577.191840277778,102.08333333333333,2582.4709201388887,112.16666666666667,2582.4709201388887,122.25C2582.4709201388887,132.33333333333334,2577.191840277778,142.41666666666666,2571.9127604166665,147.45833333333334C2566.633680555555,152.5,2561.354600694445,152.5,2548.1569010416665,150.57533374135568C2534.959201388889,148.65066748271136,2513.842881944445,144.8013349654227,2503.284722222222,142.8766687067784L2492.7265625,140.95200244813407" id="edge1" class="transition" marker-end="url(#statediagram-barbEnd)"></path><path d="M417.9609375,274.84456314315776L370.9921875,281.78713595263144C324.0234375,288.7297087621052,230.0859375,302.61485438105257,183.1171875,320.34909385719294C136.1484375,338.0833333333333,136.1484375,359.6666666666667,136.1484375,381.25C136.1484375,402.8333333333333,136.1484375,424.4166666666667,136.1484375,446C136.1484375,467.5833333333333,136.1484375,489.1666666666667,136.1484375,510.75C136.1484375,532.3333333333334,136.1484375,553.9166666666666,136.1484375,575.5C136.1484375,597.0833333333334,136.1484375,618.6666666666666,136.1484375,640.25C136.1484375,661.8333333333334,136.1484375,683.4166666666666,136.1484375,705C136.1484375,726.5833333333334,136.1484375,748.1666666666666,136.1484375,769.75C136.1484375,791.3333333333334,136.1484375,812.9166666666666,136.1484375,834.5C136.1484375,856.0833333333334,136.1484375,877.6666666666666,136.1484375,899.25C136.1484375,920.8333333333334,136.1484375,942.4166666666666,136.1484375,964C136.1484375,985.5833333333334,136.1484375,1007.1666666666666,136.1484375,1028.75C136.1484375,1050.3333333333333,136.1484375,1071.9166666666667,352.3424479166667,1092.968446815049C568.5364583333334,1114.0202269634312,1000.9244791666666,1134.5404539268625,1217.1184895833333,1144.8005674085782L1433.3125,1155.0606808902937" id="edge2" class="transition" marker-end="url(#statediagram-barbEnd)"></path><path d="M506.40625,409.3779791509171L469.3880208333333,415.48164929243086C432.3697916666667,421.58531943394473,358.3333333333333,433.79265971697237,321.3151041666667,450.6879965251528C284.296875,467.5833333333333,284.296875,489.1666666666667,284.296875,510.75C284.296875,532.3333333333334,284.296875,553.9166666666666,284.296875,575.5C284.296875,597.0833333333334,284.296875,618.6666666666666,284.296875,640.25C284.296875,661.8333333333334,284.296875,683.4166666666666,284.296875,705C284.296875,726.5833333333334,284.296875,748.1666666666666,284.296875,769.75C284.296875,791.3333333333334,284.296875,812.9166666666666,284.296875,834.5C284.296875,856.0833333333334,284.296875,877.6666666666666,284.296875,899.25C284.296875,920.8333333333334,284.296875,942.4166666666666,284.296875,964C284.296875,985.5833333333334,284.296875,1007.1666666666666,284.296875,1028.75C284.296875,1050.3333333333333,284.296875,1071.9166666666667,475.7994791666667,1092.9036979581524C667.3020833333334,1113.890729249638,1050.3072916666667,1134.2814584992764,1241.8098958333333,1144.4768231240953L1433.3125,1154.6721877489144" id="edge3" class="transition" marker-end="url(#statediagram-barbEnd)"></path><path d="M622.2279198841699,282L631.3565999034748,287.75C640.4852799227799,293.5,658.74263996139,305,667.8713199806949,316.5C677,328,677,339.5,677,345.25L677,351" id="edge4" class="transition" marker-end="url(#statediagram-barbEnd)"></path><path d="M730.4453125,267.7614651532293L809.7115885416666,275.88455429435777C888.9778645833334,284.0076434354862,1047.5104166666667,300.2538217177431,1126.7766927083333,314.12691085887155C1206.04296875,328,1206.04296875,339.5,1206.04296875,345.25L1206.04296875,351" id="edge5" class="transition" marker-end="url(#statediagram-barbEnd)"></path><path d="M847.59375,392.2103178294574L987.1302083333334,401.17526485788113C1126.6666666666667,410.14021188630494,1405.7395833333333,428.07010594315244,1691.0286458333333,446.38509657423987C1976.3177083333333,464.70008720532724,2267.8229166666665,483.40017441065453,2413.5755208333335,492.75021801331815L2559.328125,502.1002616159818" id="edge6" class="transition" marker-end="url(#statediagram-barbEnd)"></path><path d="M1386.91015625,388.38268867498084L1630.4153645833333,397.98557389581737C1873.9205729166667,407.5884591166539,2360.9309895833335,426.7942295583269,2590.780294803732,442.1471147791635C2820.629600024131,457.5,2793.3177937982623,469,2779.6618906853278,474.75L2766.0059875723937,480.5" id="edge7" class="transition" marker-end="url(#statediagram-barbEnd)"></path><path d="M616.2810086872587,411.5L604.7393822393823,417.25C593.1977557915058,423,570.1145028957529,434.5,558.5728764478764,451.0416666666667C547.03125,467.5833333333333,547.03125,489.1666666666667,547.03125,510.75C547.03125,532.3333333333334,547.03125,553.9166666666666,547.03125,575.5C547.03125,597.0833333333334,547.03125,618.6666666666666,547.03125,640.25C547.03125,661.8333333333334,547.03125,683.4166666666666,547.03125,705C547.03125,726.5833333333334,547.03125,748.1666666666666,547.03125,769.75C547.03125,791.3333333333334,547.03125,812.9166666666666,547.03125,834.5C547.03125,856.0833333333334,547.03125,877.6666666666666,547.03125,899.25C547.03125,920.8333333333334,547.03125,942.4166666666666,547.03125,964C547.03125,985.5833333333334,547.03125,1007.1666666666666,547.03125,1028.75C547.03125,1050.3333333333333,547.03125,1071.9166666666667,694.7447916666666,1092.7393858326643C842.4583333333334,1113.5621049986619,1137.8854166666667,1133.6242099973235,1285.5989583333333,1143.6552624966544L1433.3125,1153.6863149959852" id="edge8" class="transition" marker-end="url(#statediagram-barbEnd)"></path><path d="M1025.17578125,409.8249435278644L987.013671875,415.85411960655364C948.8515625,421.88329568524296,872.52734375,433.9416478426215,834.365234375,450.7624905879774C796.203125,467.5833333333333,796.203125,489.1666666666667,796.203125,510.75C796.203125,532.3333333333334,796.203125,553.9166666666666,796.203125,575.5C796.203125,597.0833333333334,796.203125,618.6666666666666,796.203125,640.25C796.203125,661.8333333333334,796.203125,683.4166666666666,796.203125,705C796.203125,726.5833333333334,796.203125,748.1666666666666,796.203125,769.75C796.203125,791.3333333333334,796.203125,812.9166666666666,796.203125,834.5C796.203125,856.0833333333334,796.203125,877.6666666666666,796.203125,899.25C796.203125,920.8333333333334,796.203125,942.4166666666666,796.203125,964C796.203125,985.5833333333334,796.203125,1007.1666666666666,796.203125,1028.75C796.203125,1050.3333333333333,796.203125,1071.9166666666667,902.3880208333334,1092.4702955379064C1008.5729166666666,1113.023924409146,1220.9427083333333,1132.547848818292,1327.1276041666667,1142.309811022865L1433.3125,1152.0717732274381" id="edge9" class="transition" marker-end="url(#statediagram-barbEnd)"></path><path d="M1153.3299348455598,411.5L1143.3101019546332,417.25C1133.2902690637065,423,1113.2506032818533,434.5,1103.2307703909266,451.0416666666667C1093.2109375,467.5833333333333,1093.2109375,489.1666666666667,1093.2109375,510.75C1093.2109375,532.3333333333334,1093.2109375,553.9166666666666,1093.2109375,575.5C1093.2109375,597.0833333333334,1093.2109375,618.6666666666666,1093.2109375,640.25C1093.2109375,661.8333333333334,1093.2109375,683.4166666666666,1093.2109375,705C1093.2109375,726.5833333333334,1093.2109375,748.1666666666666,1093.2109375,769.75C1093.2109375,791.3333333333334,1093.2109375,812.9166666666666,1093.2109375,834.5C1093.2109375,856.0833333333334,1093.2109375,877.6666666666666,1093.2109375,899.25C1093.2109375,920.8333333333334,1093.2109375,942.4166666666666,1093.2109375,964C1093.2109375,985.5833333333334,1093.2109375,1007.1666666666666,1093.2109375,1028.75C1093.2109375,1050.3333333333333,1093.2109375,1071.9166666666667,1149.89453125,1091.7194319235318C1206.578125,1111.522197180397,1319.9453125,1129.544394360794,1376.62890625,1138.5554929509926L1433.3125,1147.5665915411912" id="edge10" class="transition" marker-end="url(#statediagram-barbEnd)"></path><path d="M2343.9712687017372,152.5L2335.196760376448,158.25C2326.422252051158,164,2308.8732354005792,175.5,2300.09872707529,189.20833333333334C2291.32421875,202.91666666666666,2291.32421875,218.83333333333334,2291.32421875,226.79166666666666L2291.32421875,234.75" id="edge11" class="transition" marker-end="url(#statediagram-barbEnd)"></path><path d="M2448.1709851592664,152.5L2459.203034507722,158.25C2470.2350838561774,164,2492.2991825530885,175.5,2503.3312319015445,189.20833333333334C2514.36328125,202.91666666666666,2514.36328125,218.83333333333334,2514.36328125,226.79166666666666L2514.36328125,234.75" id="edge12" class="transition" marker-end="url(#statediagram-barbEnd)"></path><path d="M2287.5390625,125.90815117084482L2001.9830729166667,136.090125975704C1716.4270833333333,146.2721007805632,1145.3151041666667,166.6360503902816,859.7591145833334,182.5680251951408C574.203125,198.5,574.203125,210,574.203125,215.75L574.203125,221.5" id="edge13" class="transition" marker-end="url(#statediagram-barbEnd)"></path><path d="M2032.16015625,651.1898034714326L1906.072265625,660.1581695595272C1779.984375,669.1265356476217,1527.80859375,687.0632678238109,1401.720703125,706.823300578572C1275.6328125,726.5833333333334,1275.6328125,748.1666666666666,1275.6328125,769.75C1275.6328125,791.3333333333334,1275.6328125,812.9166666666666,1275.6328125,834.5C1275.6328125,856.0833333333334,1275.6328125,877.6666666666666,1275.6328125,899.25C1275.6328125,920.8333333333334,1275.6328125,942.4166666666666,1275.6328125,964C1275.6328125,985.5833333333334,1275.6328125,1007.1666666666666,1275.6328125,1028.75C1275.6328125,1050.3333333333333,1275.6328125,1071.9166666666667,1303.272849300193,1090.6666666666667C1330.9128861003862,1109.4166666666667,1386.1929597007722,1125.3333333333333,1413.8329965009652,1133.2916666666667L1441.4730333011582,1141.25" id="edge14" class="transition" marker-end="url(#statediagram-barbEnd)"></path><path d="M1959.80859375,1042.6213260498166L1865.78515625,1051.1011050415138C1771.76171875,1059.580884033211,1583.71484375,1076.5404420166055,1502.5780872948842,1092.9785543416363C1421.4413308397682,1109.4166666666667,1447.2146929295366,1125.3333333333333,1460.101373974421,1133.2916666666667L1472.988055019305,1141.25" id="edge15" class="transition" marker-end="url(#statediagram-barbEnd)"></path><path d="M2032.16015625,655.1081565036978L1946.083984375,663.4234637530816C1860.0078125,671.7387710024652,1687.85546875,688.3693855012326,1601.779296875,707.4763594172831C1515.703125,726.5833333333334,1515.703125,748.1666666666666,1515.703125,769.75C1515.703125,791.3333333333334,1515.703125,812.9166666666666,1515.703125,834.5C1515.703125,856.0833333333334,1515.703125,877.6666666666666,1515.703125,899.25C1515.703125,920.8333333333334,1515.703125,942.4166666666666,1515.703125,964C1515.703125,985.5833333333334,1515.703125,1007.1666666666666,1515.703125,1028.75C1515.703125,1050.3333333333333,1515.703125,1071.9166666666667,1513.8364502895754,1090.6666666666667C1511.9697755791506,1109.4166666666667,1508.2364261583014,1125.3333333333333,1506.3697514478763,1133.2916666666667L1504.5030767374517,1141.25" id="edge16" class="transition" marker-end="url(#statediagram-barbEnd)"></path><path d="M1959.80859375,1050.65282133008L1909.662109375,1057.7940177750668C1859.515625,1064.9352142200535,1759.22265625,1079.2176071100266,1689.6057176037646,1094.3171368883466C1619.988778957529,1109.4166666666667,1581.047870415058,1125.3333333333333,1561.5774161438223,1133.2916666666667L1542.106961872587,1141.25" id="edge17" class="transition" marker-end="url(#statediagram-barbEnd)"></path><path d="M2032.16015625,666.1974479670246L1993.826171875,672.6645399725204C1955.4921875,679.1316319780163,1878.82421875,692.0658159890081,1840.490234375,709.3245746611707C1802.15625,726.5833333333334,1802.15625,748.1666666666666,1802.15625,769.75C1802.15625,791.3333333333334,1802.15625,812.9166666666666,1802.15625,834.5C1802.15625,856.0833333333334,1802.15625,877.6666666666666,1802.15625,899.25C1802.15625,920.8333333333334,1802.15625,942.4166666666666,1802.15625,964C1802.15625,985.5833333333334,1802.15625,1007.1666666666666,1802.15625,1028.75C1802.15625,1050.3333333333333,1802.15625,1071.9166666666667,1763.0833333333333,1091.095702754036C1724.0104166666667,1110.2747388414055,1645.8645833333333,1127.0494776828111,1606.7916666666667,1135.4368471035139L1567.71875,1143.8242165242166" id="edge18" class="transition" marker-end="url(#statediagram-barbEnd)"></path><path d="M2113.61328125,1059L2113.61328125,1064.75C2113.61328125,1070.5,2113.61328125,1082,2022.630859375,1097.3587658407293C1931.6484375,1112.717531681459,1749.68359375,1131.9350633629176,1658.701171875,1141.543829203647L1567.71875,1151.1525950443763" id="edge19" class="transition" marker-end="url(#statediagram-barbEnd)"></path><path d="M2267.41796875,1034.0172098193073L2556.9049479166665,1043.931008182756C2846.3919270833335,1053.8448065462048,3425.3658854166665,1073.6724032731024,3714.8528645833335,1089.336201636551C4004.33984375,1105,4004.33984375,1116.5,4004.33984375,1122.25L4004.33984375,1128" id="edge20" class="transition" marker-end="url(#statediagram-barbEnd)"></path><path d="M2339.76953125,651.6975748513748L2459.1276041666665,660.5813123761458C2578.4856770833335,669.4650499009166,2817.2018229166665,687.2325249504584,2947.1448077541827,701.8662624752292C3077.087792591699,716.5,3098.2576164333973,728,3108.8425283542474,733.75L3119.4274402750966,739.5" id="edge21" class="transition" marker-end="url(#statediagram-barbEnd)"></path><path d="M2568.448449565637,541L2544.5520933880307,546.75C2520.655737210425,552.5,2472.863024855212,564,2448.966668677606,580.5416666666666C2425.0703125,597.0833333333334,2425.0703125,618.6666666666666,2425.0703125,640.25C2425.0703125,661.8333333333334,2425.0703125,683.4166666666666,2425.0703125,705C2425.0703125,726.5833333333334,2425.0703125,748.1666666666666,2425.0703125,769.75C2425.0703125,791.3333333333334,2425.0703125,812.9166666666666,2425.0703125,834.5C2425.0703125,856.0833333333334,2425.0703125,877.6666666666666,2425.0703125,899.25C2425.0703125,920.8333333333334,2425.0703125,942.4166666666666,2425.0703125,964C2425.0703125,985.5833333333334,2425.0703125,1007.1666666666666,2425.0703125,1028.75C2425.0703125,1050.3333333333333,2425.0703125,1071.9166666666667,2282.1783854166665,1092.7155859098834C2139.2864583333335,1113.5145051531001,1853.5026041666667,1133.5290103062005,1710.6106770833333,1143.5362628827504L1567.71875,1153.5435154593006" id="edge22" class="transition" marker-end="url(#statediagram-barbEnd)"></path><path d="M3040.27734375,783.9346992073213L2960.1673177083335,792.3622493394345C2880.0572916666665,800.7897994715476,2719.8372395833335,817.6448997357738,2639.7272135416665,836.8641165345535C2559.6171875,856.0833333333334,2559.6171875,877.6666666666666,2559.6171875,899.25C2559.6171875,920.8333333333334,2559.6171875,942.4166666666666,2559.6171875,964C2559.6171875,985.5833333333334,2559.6171875,1007.1666666666666,2559.6171875,1028.75C2559.6171875,1050.3333333333333,2559.6171875,1071.9166666666667,2394.30078125,1092.8152368482524C2228.984375,1113.713807029838,1898.3515625,1133.9276140596762,1733.03515625,1144.0345175745954L1567.71875,1154.1414210895143" id="edge23" class="transition" marker-end="url(#statediagram-barbEnd)"></path><path d="M2559.328125,522.7880281690141L2460.9251302083335,531.5733568075117C2362.5221354166665,540.3586854460094,2165.7161458333335,557.9293427230047,2067.3131510416665,577.506338028169C1968.91015625,597.0833333333334,1968.91015625,618.6666666666666,1968.91015625,640.25C1968.91015625,661.8333333333334,1968.91015625,683.4166666666666,1968.91015625,705C1968.91015625,726.5833333333334,1968.91015625,748.1666666666666,1968.91015625,769.75C1968.91015625,791.3333333333334,1968.91015625,812.9166666666666,1968.91015625,834.5C1968.91015625,856.0833333333334,1968.91015625,877.6666666666666,1968.91015625,899.25C1968.91015625,920.8333333333334,1968.91015625,942.4166666666666,1981.7602407094594,958.9583333333334C1994.610325168919,975.5,2020.3104940878377,987,2033.1605785472973,992.75L2046.0106630067567,998.5" id="edge24" class="transition" marker-end="url(#statediagram-barbEnd)"></path><path d="M3040.27734375,777.9748016515545L2885.8333333333335,787.395668042962C2731.3893229166665,796.8165344343697,2422.5013020833335,815.6582672171849,2268.0572916666665,835.8708002752591C2113.61328125,856.0833333333334,2113.61328125,877.6666666666666,2113.61328125,899.25C2113.61328125,920.8333333333334,2113.61328125,942.4166666666666,2113.61328125,958.9583333333334C2113.61328125,975.5,2113.61328125,987,2113.61328125,992.75L2113.61328125,998.5" id="edge25" class="transition" marker-end="url(#statediagram-barbEnd)"></path><path d="M2933.2734375,910.0313074329376L2820.7805989583335,919.0260895274481C2708.2877604166665,928.0208716219585,2483.3020833333335,946.0104358109793,2357.9591603322074,960.7552179054896C2232.6162373310813,975.5,2206.916068412162,987,2194.065983952703,992.75L2181.2158994932433,998.5" id="edge26" class="transition" marker-end="url(#statediagram-barbEnd)"></path><path d="M2763.1882993484555,541L2776.3086088320465,546.75C2789.4289183156375,552.5,2815.6695372828185,564,2828.789846766409,580.5416666666666C2841.91015625,597.0833333333334,2841.91015625,618.6666666666666,2841.91015625,640.25C2841.91015625,661.8333333333334,2841.91015625,683.4166666666666,2841.91015625,705C2841.91015625,726.5833333333334,2841.91015625,748.1666666666666,2841.91015625,769.75C2841.91015625,791.3333333333334,2841.91015625,812.9166666666666,2861.997345559846,829.4583333333334C2882.084534869691,846,2922.2589134893824,857.5,2942.3461027992284,863.25L2962.4332921090736,869" id="edge27" class="transition" marker-end="url(#statediagram-barbEnd)"></path><path d="M3175.11328125,800L3175.11328125,805.75C3175.11328125,811.5,3175.11328125,823,3165.611003861004,834.5C3156.1087264720077,846,3137.104171694015,857.5,3127.601894305019,863.25L3118.099616916023,869" id="edge28" class="transition" marker-end="url(#statediagram-barbEnd)"></path><path d="M3202.9453125,883.1043805665512L3222.5768229166665,880.753650472126C3242.2083333333335,878.4029203777009,3281.4713541666665,873.7014601888504,3306.0107421875,871.3507300944252C3330.5501302083335,869,3340.3658854166665,869,3350.181640625,874.0416666666666C3359.9973958333335,879.0833333333334,3369.8131510416665,889.1666666666666,3369.8131510416665,899.25C3369.8131510416665,909.3333333333334,3359.9973958333335,919.4166666666666,3350.181640625,924.4583333333334C3340.3658854166665,929.5,3330.5501302083335,929.5,3306.0107421875,927.1492699055748C3281.4713541666665,924.7985398111496,3242.2083333333335,920.0970796222991,3222.5768229166665,917.7463495278739L3202.9453125,915.3956194334488" id="edge29" class="transition" marker-end="url(#statediagram-barbEnd)"></path><path d="M2829,520.0955729547783L2962.2272135416665,529.3296441289818C3095.4544270833335,538.5637153031855,3361.9088541666665,557.0318576515928,3495.1360677083335,577.0575954924631C3628.36328125,597.0833333333334,3628.36328125,618.6666666666666,3628.36328125,640.25C3628.36328125,661.8333333333334,3628.36328125,683.4166666666666,3628.36328125,705C3628.36328125,726.5833333333334,3628.36328125,748.1666666666666,3628.36328125,769.75C3628.36328125,791.3333333333334,3628.36328125,812.9166666666666,3628.36328125,834.5C3628.36328125,856.0833333333334,3628.36328125,877.6666666666666,3628.36328125,899.25C3628.36328125,920.8333333333334,3628.36328125,942.4166666666666,3628.36328125,964C3628.36328125,985.5833333333334,3628.36328125,1007.1666666666666,3628.36328125,1028.75C3628.36328125,1050.3333333333333,3628.36328125,1071.9166666666667,3628.36328125,1093.5C3628.36328125,1115.0833333333333,3628.36328125,1136.6666666666667,3628.36328125,1158.25C3628.36328125,1179.8333333333333,3628.36328125,1201.4166666666667,3647.7141421419906,1217.9583333333333C3667.0650030339807,1234.5,3705.766724817961,1246,3725.1175857099515,1251.75L3744.4684466019417,1257.5" id="edge30" class="transition" marker-end="url(#statediagram-barbEnd)"></path><path d="M3309.94921875,785.6491613077624L3378.9973958333335,793.7909677564686C3448.0455729166665,801.932774205175,3586.1419270833335,818.2163871025874,3655.1901041666665,837.1498602179604C3724.23828125,856.0833333333334,3724.23828125,877.6666666666666,3724.23828125,899.25C3724.23828125,920.8333333333334,3724.23828125,942.4166666666666,3724.23828125,964C3724.23828125,985.5833333333334,3724.23828125,1007.1666666666666,3724.23828125,1028.75C3724.23828125,1050.3333333333333,3724.23828125,1071.9166666666667,3724.23828125,1093.5C3724.23828125,1115.0833333333333,3724.23828125,1136.6666666666667,3724.23828125,1158.25C3724.23828125,1179.8333333333333,3724.23828125,1201.4166666666667,3732.8846518507285,1217.9583333333333C3741.5310224514565,1234.5,3758.8237636529125,1246,3767.470134253641,1251.75L3776.116504854369,1257.5" id="edge31" class="transition" marker-end="url(#statediagram-barbEnd)"></path><path d="M3202.9453125,910.8598159604805L3305.806640625,919.7165133004005C3408.66796875,928.5732106403203,3614.390625,946.2866053201602,3717.251953125,965.9349693267468C3820.11328125,985.5833333333334,3820.11328125,1007.1666666666666,3820.11328125,1028.75C3820.11328125,1050.3333333333333,3820.11328125,1071.9166666666667,3820.11328125,1093.5C3820.11328125,1115.0833333333333,3820.11328125,1136.6666666666667,3820.11328125,1158.25C3820.11328125,1179.8333333333333,3820.11328125,1201.4166666666667,3818.0551615594663,1217.9583333333333C3815.9970418689322,1234.5,3811.880802487864,1246,3809.8226827973303,1251.75L3807.7645631067962,1257.5" id="edge32" class="transition" marker-end="url(#statediagram-barbEnd)"></path><path d="M4004.33984375,1188.5L4004.33984375,1194.25C4004.33984375,1200,4004.33984375,1211.5,3981.712738925971,1223C3959.085634101942,1234.5,3913.8314244538838,1246,3891.2043196298546,1251.75L3868.5772148058254,1257.5" id="edge33" class="transition" marker-end="url(#statediagram-barbEnd)"></path><path d="M2694.1640625,541L2694.1640625,546.75C2694.1640625,552.5,2694.1640625,564,2694.1640625,580.5416666666666C2694.1640625,597.0833333333334,2694.1640625,618.6666666666666,2694.1640625,640.25C2694.1640625,661.8333333333334,2694.1640625,683.4166666666666,2694.1640625,705C2694.1640625,726.5833333333334,2694.1640625,748.1666666666666,2694.1640625,769.75C2694.1640625,791.3333333333334,2694.1640625,812.9166666666666,2694.1640625,834.5C2694.1640625,856.0833333333334,2694.1640625,877.6666666666666,2694.1640625,899.25C2694.1640625,920.8333333333334,2694.1640625,942.4166666666666,2694.1640625,964C2694.1640625,985.5833333333334,2694.1640625,1007.1666666666666,2694.1640625,1028.75C2694.1640625,1050.3333333333333,2694.1640625,1071.9166666666667,2506.4231770833335,1092.8924226755767C2318.6822916666665,1113.8681786844866,1943.2005208333333,1134.2363573689734,1755.4596354166667,1144.4204467112168L1567.71875,1154.6045360534602" id="edge34" class="transition" marker-end="url(#statediagram-barbEnd)"></path><path d="M3309.94921875,796.1926730869338L3342.5052083333335,802.5772275724448C3375.0611979166665,808.9617820579559,3440.1731770833335,821.7308910289779,3472.7291666666665,838.9071121811556C3505.28515625,856.0833333333334,3505.28515625,877.6666666666666,3505.28515625,899.25C3505.28515625,920.8333333333334,3505.28515625,942.4166666666666,3505.28515625,964C3505.28515625,985.5833333333334,3505.28515625,1007.1666666666666,3505.28515625,1028.75C3505.28515625,1050.3333333333333,3505.28515625,1071.9166666666667,3182.357421875,1093.1382458369137C2859.4296875,1114.3598250071607,2213.57421875,1135.2196500143214,1890.646484375,1145.6495625179016L1567.71875,1156.079475021482" id="edge35" class="transition" marker-end="url(#statediagram-barbEnd)"></path><path d="M2559.328125,527.9295363530849L2497.1009114583335,535.8579469609041C2434.8736979166665,543.7863575687232,2310.4192708333335,559.6431787843617,2248.1920572916665,573.3215893921808C2185.96484375,587,2185.96484375,598.5,2185.96484375,604.25L2185.96484375,610" id="edge36" class="transition" marker-end="url(#statediagram-barbEnd)"></path><path d="M3234.03289394305,739.5L3245.2324897442086,733.75C3256.4320855453666,728,3278.8312771476835,716.5,3129.7873833655085,701.4465966511156C2980.7434895833335,686.3931933022309,2660.2565104166665,667.7863866044618,2500.0130208333335,658.4829832555772L2339.76953125,649.1795799066927" id="edge37" class="transition" marker-end="url(#statediagram-barbEnd)"></path><path d="M2829,529.0521519992794L2886.0319010416665,536.7934599993995C2943.0638020833335,544.5347679995197,3057.1276041666665,560.0173839997598,3114.1595052083335,578.5503586665466C3171.19140625,597.0833333333334,3171.19140625,618.6666666666666,3171.19140625,640.25C3171.19140625,661.8333333333334,3171.19140625,683.4166666666666,3171.5396808639,699.9583333333334C3171.8879554777996,716.5,3172.5845047055986,728,3172.9327793194984,733.75L3173.2810539333977,739.5" id="edge38" class="transition" marker-end="url(#statediagram-barbEnd)"></path><path d="M3309.94921875,751.4031264276259L3324.5290798611113,749.4192720230216C3339.108940972222,747.4354176184173,3368.268663194444,743.4677088092086,3386.4934895833326,741.4838544046042C3404.718315972222,739.5,3412.008246527778,739.5,3419.2981770833335,744.5416666666666C3426.588107638889,749.5833333333334,3433.878038194445,759.6666666666666,3433.878038194444,769.75C3433.878038194445,779.8333333333334,3426.588107638889,789.9166666666666,3419.298177083334,794.9583333333334C3412.008246527778,800,3404.718315972222,800,3386.4934895833335,798.0161455953958C3368.268663194444,796.0322911907914,3339.108940972222,792.0645823815827,3324.5290798611113,790.0807279769784L3309.94921875,788.0968735723741" id="edge39" class="transition" marker-end="url(#statediagram-barbEnd)"></path></g><g class="edgeLabels"><g class="edgeLabel"><g class="label" transform="translate(0, 0)"><rect rx="0" ry="0" width="0" height="0" style="fill:#e8e8e8;"></rect><text style=""></text></g></g><g class="edgeLabel" transform="translate(2587.75, 122.25)"><g class="label" transform="translate(-60.0234375, -9.5)"><rect rx="0" ry="0" width="119.984375" height="19.03125" style="fill:#e8e8e8;"></rect><text style=""><tspan xml:space="preserve" dy="1em" x="0" class="row">ClientEventOpen</tspan></text></g></g><g class="edgeLabel" transform="translate(136.1484375, 705)"><g class="label" transform="translate(-128.1484375, -9.5)"><rect rx="0" ry="0" width="256.140625" height="19.03125" style="fill:#e8e8e8;"></rect><text style=""><tspan xml:space="preserve" dy="1em" x="0" class="row">ClientEventPaymentChannelErrored</tspan></text></g></g><g class="edgeLabel" transform="translate(284.296875, 769.75)"><g class="label" transform="translate(-128.1484375, -9.5)"><rect rx="0" ry="0" width="256.140625" height="19.03125" style="fill:#e8e8e8;"></rect><text style=""><tspan xml:space="preserve" dy="1em" x="0" class="row">ClientEventPaymentChannelErrored</tspan></text></g></g><g class="edgeLabel" transform="translate(677, 316.5)"><g class="label" transform="translate(-155.9453125, -9.5)"><rect rx="0" ry="0" width="311.703125" height="19.03125" style="fill:#e8e8e8;"></rect><text style=""><tspan xml:space="preserve" dy="1em" x="0" class="row">ClientEventPaymentChannelCreateInitiated</tspan></text></g></g><g class="edgeLabel" transform="translate(1206.04296875, 316.5)"><g class="label" transform="translate(-146.359375, -9.5)"><rect rx="0" ry="0" width="292.546875" height="19.03125" style="fill:#e8e8e8;"></rect><text style=""><tspan xml:space="preserve" dy="1em" x="0" class="row">ClientEventPaymentChannelAddingFunds</tspan></text></g></g><g class="edgeLabel" transform="translate(1684.8125, 446)"><g class="label" transform="translate(-123.046875, -9.5)"><rect rx="0" ry="0" width="245.953125" height="19.03125" style="fill:#e8e8e8;"></rect><text style=""><tspan xml:space="preserve" dy="1em" x="0" class="row">ClientEventPaymentChannelReady</tspan></text></g></g><g class="edgeLabel" transform="translate(2847.94140625, 446)"><g class="label" transform="translate(-123.046875, -9.5)"><rect rx="0" ry="0" width="245.953125" height="19.03125" style="fill:#e8e8e8;"></rect><text style=""><tspan xml:space="preserve" dy="1em" x="0" class="row">ClientEventPaymentChannelReady</tspan></text></g></g><g class="edgeLabel" transform="translate(547.03125, 769.75)"><g class="label" transform="translate(-114.5859375, -9.5)"><rect rx="0" ry="0" width="229.03125" height="19.03125" style="fill:#e8e8e8;"></rect><text style=""><tspan xml:space="preserve" dy="1em" x="0" class="row">ClientEventAllocateLaneErrored</tspan></text></g></g><g class="edgeLabel" transform="translate(796.203125, 769.75)"><g class="label" transform="translate(-114.5859375, -9.5)"><rect rx="0" ry="0" width="229.03125" height="19.03125" style="fill:#e8e8e8;"></rect><text style=""><tspan xml:space="preserve" dy="1em" x="0" class="row">ClientEventAllocateLaneErrored</tspan></text></g></g><g class="edgeLabel" transform="translate(1093.2109375, 769.75)"><g class="label" transform="translate(-162.421875, -9.5)"><rect rx="0" ry="0" width="324.640625" height="19.03125" style="fill:#e8e8e8;"></rect><text style=""><tspan xml:space="preserve" dy="1em" x="0" class="row">ClientEventPaymentChannelAddFundsErrored</tspan></text></g></g><g class="edgeLabel" transform="translate(2291.32421875, 187)"><g class="label" transform="translate(-89.546875, -9.5)"><rect rx="0" ry="0" width="178.984375" height="19.03125" style="fill:#e8e8e8;"></rect><text style=""><tspan xml:space="preserve" dy="1em" x="0" class="row">ClientEventDealRejected</tspan></text></g></g><g class="edgeLabel" transform="translate(2514.36328125, 187)"><g class="label" transform="translate(-91.5390625, -9.5)"><rect rx="0" ry="0" width="182.96875" height="19.03125" style="fill:#e8e8e8;"></rect><text style=""><tspan xml:space="preserve" dy="1em" x="0" class="row">ClientEventDealNotFound</tspan></text></g></g><g class="edgeLabel" transform="translate(574.203125, 187)"><g class="label" transform="translate(-90.7265625, -9.5)"><rect rx="0" ry="0" width="181.34375" height="19.03125" style="fill:#e8e8e8;"></rect><text style=""><tspan xml:space="preserve" dy="1em" x="0" class="row">ClientEventDealAccepted</tspan></text></g></g><g class="edgeLabel" transform="translate(1275.6328125, 899.25)"><g class="label" transform="translate(-96.84375, -9.5)"><rect rx="0" ry="0" width="193.5625" height="19.03125" style="fill:#e8e8e8;"></rect><text style=""><tspan xml:space="preserve" dy="1em" x="0" class="row">ClientEventFundsExpended</tspan></text></g></g><g class="edgeLabel" transform="translate(1395.66796875, 1093.5)"><g class="label" transform="translate(-96.84375, -9.5)"><rect rx="0" ry="0" width="193.5625" height="19.03125" style="fill:#e8e8e8;"></rect><text style=""><tspan xml:space="preserve" dy="1em" x="0" class="row">ClientEventFundsExpended</tspan></text></g></g><g class="edgeLabel" transform="translate(1515.703125, 899.25)"><g class="label" transform="translate(-123.2265625, -9.5)"><rect rx="0" ry="0" width="246.3125" height="19.03125" style="fill:#e8e8e8;"></rect><text style=""><tspan xml:space="preserve" dy="1em" x="0" class="row">ClientEventBadPaymentRequested</tspan></text></g></g><g class="edgeLabel" transform="translate(1658.9296875, 1093.5)"><g class="label" transform="translate(-123.2265625, -9.5)"><rect rx="0" ry="0" width="246.3125" height="19.03125" style="fill:#e8e8e8;"></rect><text style=""><tspan xml:space="preserve" dy="1em" x="0" class="row">ClientEventBadPaymentRequested</tspan></text></g></g><g class="edgeLabel" transform="translate(1802.15625, 899.25)"><g class="label" transform="translate(-116.46875, -9.5)"><rect rx="0" ry="0" width="232.796875" height="19.03125" style="fill:#e8e8e8;"></rect><text style=""><tspan xml:space="preserve" dy="1em" x="0" class="row">ClientEventCreateVoucherFailed</tspan></text></g></g><g class="edgeLabel" transform="translate(2113.61328125, 1093.5)"><g class="label" transform="translate(-116.46875, -9.5)"><rect rx="0" ry="0" width="232.796875" height="19.03125" style="fill:#e8e8e8;"></rect><text style=""><tspan xml:space="preserve" dy="1em" x="0" class="row">ClientEventCreateVoucherFailed</tspan></text></g></g><g class="edgeLabel" transform="translate(4004.33984375, 1093.5)"><g class="label" transform="translate(-88.3515625, -9.5)"><rect rx="0" ry="0" width="176.59375" height="19.03125" style="fill:#e8e8e8;"></rect><text style=""><tspan xml:space="preserve" dy="1em" x="0" class="row">ClientEventPaymentSent</tspan></text></g></g><g class="edgeLabel" transform="translate(3055.91796875, 705)"><g class="label" transform="translate(-88.3515625, -9.5)"><rect rx="0" ry="0" width="176.59375" height="19.03125" style="fill:#e8e8e8;"></rect><text style=""><tspan xml:space="preserve" dy="1em" x="0" class="row">ClientEventPaymentSent</tspan></text></g></g><g class="edgeLabel" transform="translate(2425.0703125, 834.5)"><g class="label" transform="translate(-114.546875, -9.5)"><rect rx="0" ry="0" width="228.953125" height="19.03125" style="fill:#e8e8e8;"></rect><text style=""><tspan xml:space="preserve" dy="1em" x="0" class="row">ClientEventConsumeBlockFailed</tspan></text></g></g><g class="edgeLabel" transform="translate(2559.6171875, 964)"><g class="label" transform="translate(-114.546875, -9.5)"><rect rx="0" ry="0" width="228.953125" height="19.03125" style="fill:#e8e8e8;"></rect><text style=""><tspan xml:space="preserve" dy="1em" x="0" class="row">ClientEventConsumeBlockFailed</tspan></text></g></g><g class="edgeLabel" transform="translate(1968.91015625, 769.75)"><g class="label" transform="translate(-124.703125, -9.5)"><rect rx="0" ry="0" width="249.265625" height="19.03125" style="fill:#e8e8e8;"></rect><text style=""><tspan xml:space="preserve" dy="1em" x="0" class="row">ClientEventLastPaymentRequested</tspan></text></g></g><g class="edgeLabel" transform="translate(2113.61328125, 899.25)"><g class="label" transform="translate(-124.703125, -9.5)"><rect rx="0" ry="0" width="249.265625" height="19.03125" style="fill:#e8e8e8;"></rect><text style=""><tspan xml:space="preserve" dy="1em" x="0" class="row">ClientEventLastPaymentRequested</tspan></text></g></g><g class="edgeLabel" transform="translate(2258.31640625, 964)"><g class="label" transform="translate(-124.703125, -9.5)"><rect rx="0" ry="0" width="249.265625" height="19.03125" style="fill:#e8e8e8;"></rect><text style=""><tspan xml:space="preserve" dy="1em" x="0" class="row">ClientEventLastPaymentRequested</tspan></text></g></g><g class="edgeLabel" transform="translate(2841.91015625, 705)"><g class="label" transform="translate(-105.65625, -9.5)"><rect rx="0" ry="0" width="211.1875" height="19.03125" style="fill:#e8e8e8;"></rect><text style=""><tspan xml:space="preserve" dy="1em" x="0" class="row">ClientEventAllBlocksReceived</tspan></text></g></g><g class="edgeLabel" transform="translate(3175.11328125, 834.5)"><g class="label" transform="translate(-105.65625, -9.5)"><rect rx="0" ry="0" width="211.1875" height="19.03125" style="fill:#e8e8e8;"></rect><text style=""><tspan xml:space="preserve" dy="1em" x="0" class="row">ClientEventAllBlocksReceived</tspan></text></g></g><g class="edgeLabel" transform="translate(3379.62890625, 899.25)"><g class="label" transform="translate(-105.65625, -9.5)"><rect rx="0" ry="0" width="211.1875" height="19.03125" style="fill:#e8e8e8;"></rect><text style=""><tspan xml:space="preserve" dy="1em" x="0" class="row">ClientEventAllBlocksReceived</tspan></text></g></g><g class="edgeLabel" transform="translate(3628.36328125, 899.25)"><g class="label" transform="translate(-75.875, -9.5)"><rect rx="0" ry="0" width="151.65625" height="19.03125" style="fill:#e8e8e8;"></rect><text style=""><tspan xml:space="preserve" dy="1em" x="0" class="row">ClientEventComplete</tspan></text></g></g><g class="edgeLabel" transform="translate(3724.23828125, 1028.75)"><g class="label" transform="translate(-75.875, -9.5)"><rect rx="0" ry="0" width="151.65625" height="19.03125" style="fill:#e8e8e8;"></rect><text style=""><tspan xml:space="preserve" dy="1em" x="0" class="row">ClientEventComplete</tspan></text></g></g><g class="edgeLabel" transform="translate(3820.11328125, 1093.5)"><g class="label" transform="translate(-75.875, -9.5)"><rect rx="0" ry="0" width="151.65625" height="19.03125" style="fill:#e8e8e8;"></rect><text style=""><tspan xml:space="preserve" dy="1em" x="0" class="row">ClientEventComplete</tspan></text></g></g><g class="edgeLabel" transform="translate(4004.33984375, 1223)"><g class="label" transform="translate(-75.875, -9.5)"><rect rx="0" ry="0" width="151.65625" height="19.03125" style="fill:#e8e8e8;"></rect><text style=""><tspan xml:space="preserve" dy="1em" x="0" class="row">ClientEventComplete</tspan></text></g></g><g class="edgeLabel" transform="translate(2694.1640625, 834.5)"><g class="label" transform="translate(-103.078125, -9.5)"><rect rx="0" ry="0" width="206.03125" height="19.03125" style="fill:#e8e8e8;"></rect><text style=""><tspan xml:space="preserve" dy="1em" x="0" class="row">ClientEventEarlyTermination</tspan></text></g></g><g class="edgeLabel" transform="translate(3505.28515625, 964)"><g class="label" transform="translate(-103.078125, -9.5)"><rect rx="0" ry="0" width="206.03125" height="19.03125" style="fill:#e8e8e8;"></rect><text style=""><tspan xml:space="preserve" dy="1em" x="0" class="row">ClientEventEarlyTermination</tspan></text></g></g><g class="edgeLabel" transform="translate(2185.96484375, 575.5)"><g class="label" transform="translate(-110.0390625, -9.5)"><rect rx="0" ry="0" width="219.953125" height="19.03125" style="fill:#e8e8e8;"></rect><text style=""><tspan xml:space="preserve" dy="1em" x="0" class="row">ClientEventPaymentRequested</tspan></text></g></g><g class="edgeLabel" transform="translate(3301.23046875, 705)"><g class="label" transform="translate(-110.0390625, -9.5)"><rect rx="0" ry="0" width="219.953125" height="19.03125" style="fill:#e8e8e8;"></rect><text style=""><tspan xml:space="preserve" dy="1em" x="0" class="row">ClientEventPaymentRequested</tspan></text></g></g><g class="edgeLabel" transform="translate(3171.19140625, 640.25)"><g class="label" transform="translate(-96.21875, -9.5)"><rect rx="0" ry="0" width="192.328125" height="19.03125" style="fill:#e8e8e8;"></rect><text style=""><tspan xml:space="preserve" dy="1em" x="0" class="row">ClientEventBlocksReceived</tspan></text></g></g><g class="edgeLabel" transform="translate(3441.16796875, 769.75)"><g class="label" transform="translate(-96.21875, -9.5)"><rect rx="0" ry="0" width="192.328125" height="19.03125" style="fill:#e8e8e8;"></rect><text style=""><tspan xml:space="preserve" dy="1em" x="0" class="row">ClientEventBlocksReceived</tspan></text></g></g></g><g class="nodes"><g class="node statediagram-state" id="0" transform="translate(2390.1328125, 122.25)"><rect class="outer title-state" x="-102.59375" y="-30.25" width="205.1875" height="60.5"></rect><line class="divider" x1="-102.59375" x2="102.59375" y1="-3.75" y2="-3.75"></line><g class="label" transform="translate(-95.09375, -27.25)"><text style=""><tspan xml:space="preserve" dy="1em" x="0" class="title-row">DealStatusNew</tspan></text><text style="" transform="translate( 0, 26.5)"><tspan xml:space="preserve" dy="1em" x="0" class="title-row">On entry runs ProposeDeal</tspan></text></g></g><g class="node statediagram-state" id="1" transform="translate(677, 381.25)"><rect class="outer title-state" x="-170.59375" y="-30.25" width="341.1875" height="60.5"></rect><line class="divider" x1="-170.59375" x2="170.59375" y1="-3.75" y2="-3.75"></line><g class="label" transform="translate(-163.09375, -27.25)"><text style=""><tspan xml:space="preserve" dy="1em" x="0" class="title-row">DealStatusPaymentChannelCreating</tspan></text><text style="" transform="translate( 0, 26.5)"><tspan xml:space="preserve" dy="1em" x="0" class="title-row">On entry runs WaitForPaymentChannelCreate</tspan></text></g></g><g class="node statediagram-state" id="2" transform="translate(1206.04296875, 381.25)"><rect class="outer title-state" x="-180.8671875" y="-30.25" width="361.734375" height="60.5"></rect><line class="divider" x1="-180.8671875" x2="180.8671875" y1="-3.75" y2="-3.75"></line><g class="label" transform="translate(-173.3671875, -27.25)"><text style=""><tspan xml:space="preserve" dy="1em" x="0" class="title-row">DealStatusPaymentChannelAddingFunds</tspan></text><text style="" transform="translate( 0, 26.5)"><tspan xml:space="preserve" dy="1em" x="0" class="title-row">On entry runs WaitForPaymentChannelAddFunds</tspan></text></g></g><g class="node statediagram-state" id="4" transform="translate(2694.1640625, 510.75)"><rect class="outer title-state" x="-134.8359375" y="-30.25" width="269.671875" height="60.5"></rect><line class="divider" x1="-134.8359375" x2="134.8359375" y1="-3.75" y2="-3.75"></line><g class="label" transform="translate(-127.3359375, -27.25)"><text style=""><tspan xml:space="preserve" dy="1em" x="0" class="title-row">DealStatusPaymentChannelReady</tspan></text><text style="" transform="translate( 0, 26.5)"><tspan xml:space="preserve" dy="1em" x="0" class="title-row">On entry runs ProcessNextResponse</tspan></text></g></g><g class="node statediagram-state" id="6" transform="translate(574.203125, 251.75)"><rect class="outer title-state" x="-156.2421875" y="-30.25" width="312.484375" height="60.5"></rect><line class="divider" x1="-156.2421875" x2="156.2421875" y1="-3.75" y2="-3.75"></line><g class="label" transform="translate(-148.7421875, -27.25)"><text style=""><tspan xml:space="preserve" dy="1em" x="0" class="title-row">DealStatusAccepted</tspan></text><text style="" transform="translate( 0, 26.5)"><tspan xml:space="preserve" dy="1em" x="0" class="title-row">On entry runs SetupPaymentChannelStart</tspan></text></g></g><g class="node statediagram-state" id="7" transform="translate(1500.515625, 1158.25)"><rect class="outer title-state" x="-67.203125" y="-17" width="134.40625" height="34"></rect><line class="divider" x1="-67.203125" x2="67.203125" y1="9.5" y2="9.5"></line><g class="label" transform="translate(-59.703125, -14)"><text style=""><tspan xml:space="preserve" dy="1em" x="0" class="title-row">DealStatusFailed</tspan></text><text style="" transform="translate( 0, 26.5)"><tspan xml:space="preserve" dy="1em" x="0" class="title-row"></tspan></text></g></g><g class="node statediagram-state" id="8" transform="translate(2291.32421875, 251.75)"><rect class="outer title-state" x="-77.609375" y="-17" width="155.21875" height="34"></rect><line class="divider" x1="-77.609375" x2="77.609375" y1="9.5" y2="9.5"></line><g class="label" transform="translate(-70.109375, -14)"><text style=""><tspan xml:space="preserve" dy="1em" x="0" class="title-row">DealStatusRejected</tspan></text><text style="" transform="translate( 0, 26.5)"><tspan xml:space="preserve" dy="1em" x="0" class="title-row"></tspan></text></g></g><g class="node statediagram-state" id="9" transform="translate(2185.96484375, 640.25)"><rect class="outer title-state" x="-153.8046875" y="-30.25" width="307.609375" height="60.5"></rect><line class="divider" x1="-153.8046875" x2="153.8046875" y1="-3.75" y2="-3.75"></line><g class="label" transform="translate(-146.3046875, -27.25)"><text style=""><tspan xml:space="preserve" dy="1em" x="0" class="title-row">DealStatusFundsNeeded</tspan></text><text style="" transform="translate( 0, 26.5)"><tspan xml:space="preserve" dy="1em" x="0" class="title-row">On entry runs ProcessPaymentRequested</tspan></text></g></g><g class="node statediagram-state" id="10" transform="translate(3175.11328125, 769.75)"><rect class="outer title-state" x="-134.8359375" y="-30.25" width="269.671875" height="60.5"></rect><line class="divider" x1="-134.8359375" x2="134.8359375" y1="-3.75" y2="-3.75"></line><g class="label" transform="translate(-127.3359375, -27.25)"><text style=""><tspan xml:space="preserve" dy="1em" x="0" class="title-row">DealStatusOngoing</tspan></text><text style="" transform="translate( 0, 26.5)"><tspan xml:space="preserve" dy="1em" x="0" class="title-row">On entry runs ProcessNextResponse</tspan></text></g></g><g class="node statediagram-state" id="11" transform="translate(2113.61328125, 1028.75)"><rect class="outer title-state" x="-153.8046875" y="-30.25" width="307.609375" height="60.5"></rect><line class="divider" x1="-153.8046875" x2="153.8046875" y1="-3.75" y2="-3.75"></line><g class="label" transform="translate(-146.3046875, -27.25)"><text style=""><tspan xml:space="preserve" dy="1em" x="0" class="title-row">DealStatusFundsNeededLastPayment</tspan></text><text style="" transform="translate( 0, 26.5)"><tspan xml:space="preserve" dy="1em" x="0" class="title-row">On entry runs ProcessPaymentRequested</tspan></text></g></g><g class="node statediagram-state" id="12" transform="translate(3801.6796875, 1274.5)"><rect class="outer title-state" x="-84.2265625" y="-17" width="168.453125" height="34"></rect><line class="divider" x1="-84.2265625" x2="84.2265625" y1="9.5" y2="9.5"></line><g class="label" transform="translate(-76.7265625, -14)"><text style=""><tspan xml:space="preserve" dy="1em" x="0" class="title-row">DealStatusCompleted</tspan></text><text style="" transform="translate( 0, 26.5)"><tspan xml:space="preserve" dy="1em" x="0" class="title-row"></tspan></text></g></g><g class="node statediagram-state" id="13" transform="translate(2514.36328125, 251.75)"><rect class="outer title-state" x="-95.4296875" y="-17" width="190.859375" height="34"></rect><line class="divider" x1="-95.4296875" x2="95.4296875" y1="9.5" y2="9.5"></line><g class="label" transform="translate(-87.9296875, -14)"><text style=""><tspan xml:space="preserve" dy="1em" x="0" class="title-row">DealStatusDealNotFound</tspan></text><text style="" transform="translate( 0, 26.5)"><tspan xml:space="preserve" dy="1em" x="0" class="title-row"></tspan></text></g></g><g class="node statediagram-state" id="15" transform="translate(2261.0703125, 25)"><rect class="outer title-state" x="-72.0625" y="-17" width="144.125" height="34"></rect><line class="divider" x1="-72.0625" x2="72.0625" y1="9.5" y2="9.5"></line><g class="label" transform="translate(-64.5625, -14)"><text style=""><tspan xml:space="preserve" dy="1em" x="0" class="title-row">DealStatusErrored</tspan></text><text style="" transform="translate( 0, 26.5)"><tspan xml:space="preserve" dy="1em" x="0" class="title-row"></tspan></text></g></g><g class="node statediagram-state" id="16" transform="translate(3068.109375, 899.25)"><rect class="outer title-state" x="-134.8359375" y="-30.25" width="269.671875" height="60.5"></rect><line class="divider" x1="-134.8359375" x2="134.8359375" y1="-3.75" y2="-3.75"></line><g class="label" transform="translate(-127.3359375, -27.25)"><text style=""><tspan xml:space="preserve" dy="1em" x="0" class="title-row">DealStatusBlocksComplete</tspan></text><text style="" transform="translate( 0, 26.5)"><tspan xml:space="preserve" dy="1em" x="0" class="title-row">On entry runs ProcessNextResponse</tspan></text></g></g><g class="node statediagram-state" id="17" transform="translate(4004.33984375, 1158.25)"><rect class="outer title-state" x="-86.3984375" y="-30.25" width="172.796875" height="60.5"></rect><line class="divider" x1="-86.3984375" x2="86.3984375" y1="-3.75" y2="-3.75"></line><g class="label" transform="translate(-78.8984375, -27.25)"><text style=""><tspan xml:space="preserve" dy="1em" x="0" class="title-row">DealStatusFinalizing</tspan></text><text style="" transform="translate( 0, 26.5)"><tspan xml:space="preserve" dy="1em" x="0" class="title-row">On entry runs Finalize</tspan></text></g></g><g class="node default" id="root_start" transform="translate(2390.1328125, 25)"><circle class="state-start" r="7" width="14" height="14"></circle></g></g></g></g></svg>