<svg id="mermaid-1598937715502" width="5458.203125" xmlns="http://www.w3.org/2000/svg" class="statediagram" height="1777" viewBox="0 0 5458.203125 1777"><style>#mermaid-1598937715502 .label{font-family:'trebuchet ms', verdana, arial;font-family:var(--mermaid-font-family);color:#333}#mermaid-1598937715502 .label text{fill:#333}#mermaid-1598937715502 .node rect,#mermaid-1598937715502 .node circle,#mermaid-1598937715502 .node ellipse,#mermaid-1598937715502 .node polygon,#mermaid-1598937715502 .node path{fill:#ECECFF;stroke:#9370db;stroke-width:1px}#mermaid-1598937715502 .node .label{text-align:center}#mermaid-1598937715502 .node.clickable{cursor:pointer}#mermaid-1598937715502 .arrowheadPath{fill:#333}#mermaid-1598937715502 .edgePath .path{stroke:#333;stroke-width:1.5px}#mermaid-1598937715502 .edgeLabel{background-color:#e8e8e8;text-align:center}#mermaid-1598937715502 .edgeLabel rect{opacity:0.5}#mermaid-1598937715502 .cluster rect{fill:#ffffde;stroke:#aa3;stroke-width:1px}#mermaid-1598937715502 .cluster text{fill:#333}#mermaid-1598937715502 div.mermaidTooltip{position:absolute;text-align:center;max-width:200px;padding:2px;font-family:'trebuchet ms', verdana, arial;font-family:var(--mermaid-font-family);font-size:12px;background:#ffffde;border:1px solid #aa3;border-radius:2px;pointer-events:none;z-index:100}#mermaid-1598937715502 .actor{stroke:#ccf;fill:#ECECFF}#mermaid-1598937715502 text.actor{fill:#000;stroke:none}#mermaid-1598937715502 .actor-line{stroke:grey}#mermaid-1598937715502 .messageLine0{stroke-width:1.5;stroke-dasharray:'2 2';stroke:#333}#mermaid-1598937715502 .messageLine1{stroke-width:1.5;stroke-dasharray:'2 2';stroke:#333}#mermaid-1598937715502 #arrowhead{fill:#333}#mermaid-1598937715502 .sequenceNumber{fill:#fff}#mermaid-1598937715502 #sequencenumber{fill:#333}#mermaid-1598937715502 #crosshead path{fill:#333 !important;stroke:#333 !important}#mermaid-1598937715502 .messageText{fill:#333;stroke:none}#mermaid-1598937715502 .labelBox{stroke:#ccf;fill:#ECECFF}#mermaid-1598937715502 .labelText{fill:#000;stroke:none}#mermaid-1598937715502 .loopText{fill:#000;stroke:none}#mermaid-1598937715502 .loopLine{stroke-width:2;stroke-dasharray:'2 2';stroke:#ccf}#mermaid-1598937715502 .note{stroke:#aa3;fill:#fff5ad}#mermaid-1598937715502 .noteText{fill:black;stroke:none;font-family:'trebuchet ms', verdana, arial;font-family:var(--mermaid-font-family);font-size:14px}#mermaid-1598937715502 .activation0{fill:#f4f4f4;stroke:#666}#mermaid-1598937715502 .activation1{fill:#f4f4f4;stroke:#666}#mermaid-1598937715502 .activation2{fill:#f4f4f4;stroke:#666}#mermaid-1598937715502 .mermaid-main-font{font-family:"trebuchet ms", verdana, arial;font-family:var(--mermaid-font-family)}#mermaid-1598937715502 .section{stroke:none;opacity:0.2}#mermaid-1598937715502 .section0{fill:rgba(102,102,255,0.49)}#mermaid-1598937715502 .section2{fill:#fff400}#mermaid-1598937715502 .section1,#mermaid-1598937715502 .section3{fill:#fff;opacity:0.2}#mermaid-1598937715502 .sectionTitle0{fill:#333}#mermaid-1598937715502 .sectionTitle1{fill:#333}#mermaid-1598937715502 .sectionTitle2{fill:#333}#mermaid-1598937715502 .sectionTitle3{fill:#333}#mermaid-1598937715502 .sectionTitle{text-anchor:start;font-size:11px;text-height:14px;font-family:'trebuchet ms', verdana, arial;font-family:var(--mermaid-font-family)}#mermaid-1598937715502 .grid .tick{stroke:#d3d3d3;opacity:0.8;shape-rendering:crispEdges}#mermaid-1598937715502 .grid .tick text{font-family:'trebuchet ms', verdana, arial;font-family:var(--mermaid-font-family)}#mermaid-1598937715502 .grid path{stroke-width:0}#mermaid-1598937715502 .today{fill:none;stroke:red;stroke-width:2px}#mermaid-1598937715502 .task{stroke-width:2}#mermaid-1598937715502 .taskText{text-anchor:middle;font-family:'trebuchet ms', verdana, arial;font-family:var(--mermaid-font-family)}#mermaid-1598937715502 .taskText:not([font-size]){font-size:11px}#mermaid-1598937715502 .taskTextOutsideRight{fill:#000;text-anchor:start;font-size:11px;font-family:'trebuchet ms', verdana, arial;font-family:var(--mermaid-font-family)}#mermaid-1598937715502 .taskTextOutsideLeft{fill:#000;text-anchor:end;font-size:11px}#mermaid-1598937715502 .task.clickable{cursor:pointer}#mermaid-1598937715502 .taskText.clickable{cursor:pointer;fill:#003163 !important;font-weight:bold}#mermaid-1598937715502 .taskTextOutsideLeft.clickable{cursor:pointer;fill:#003163 !important;font-weight:bold}#mermaid-1598937715502 .taskTextOutsideRight.clickable{cursor:pointer;fill:#003163 !important;font-weight:bold}#mermaid-1598937715502 .taskText0,#mermaid-1598937715502 .taskText1,#mermaid-1598937715502 .taskText2,#mermaid-1598937715502 .taskText3{fill:#fff}#mermaid-1598937715502 .task0,#mermaid-1598937715502 .task1,#mermaid-1598937715502 .task2,#mermaid-1598937715502 .task3{fill:#8a90dd;stroke:#534fbc}#mermaid-1598937715502 .taskTextOutside0,#mermaid-1598937715502 .taskTextOutside2{fill:#000}#mermaid-1598937715502 .taskTextOutside1,#mermaid-1598937715502 .taskTextOutside3{fill:#000}#mermaid-1598937715502 .active0,#mermaid-1598937715502 .active1,#mermaid-1598937715502 .active2,#mermaid-1598937715502 .active3{fill:#bfc7ff;stroke:#534fbc}#mermaid-1598937715502 .activeText0,#mermaid-1598937715502 .activeText1,#mermaid-1598937715502 .activeText2,#mermaid-1598937715502 .activeText3{fill:#000 !important}#mermaid-1598937715502 .done0,#mermaid-1598937715502 .done1,#mermaid-1598937715502 .done2,#mermaid-1598937715502 .done3{stroke:grey;fill:#d3d3d3;stroke-width:2}#mermaid-1598937715502 .doneText0,#mermaid-1598937715502 .doneText1,#mermaid-1598937715502 .doneText2,#mermaid-1598937715502 .doneText3{fill:#000 !important}#mermaid-1598937715502 .crit0,#mermaid-1598937715502 .crit1,#mermaid-1598937715502 .crit2,#mermaid-1598937715502 .crit3{stroke:#f88;fill:red;stroke-width:2}#mermaid-1598937715502 .activeCrit0,#mermaid-1598937715502 .activeCrit1,#mermaid-1598937715502 .activeCrit2,#mermaid-1598937715502 .activeCrit3{stroke:#f88;fill:#bfc7ff;stroke-width:2}#mermaid-1598937715502 .doneCrit0,#mermaid-1598937715502 .doneCrit1,#mermaid-1598937715502 .doneCrit2,#mermaid-1598937715502 .doneCrit3{stroke:#f88;fill:#d3d3d3;stroke-width:2;cursor:pointer;shape-rendering:crispEdges}#mermaid-1598937715502 .milestone{transform:rotate(45deg) scale(0.8, 0.8)}#mermaid-1598937715502 .milestoneText{font-style:italic}#mermaid-1598937715502 .doneCritText0,#mermaid-1598937715502 .doneCritText1,#mermaid-1598937715502 .doneCritText2,#mermaid-1598937715502 .doneCritText3{fill:#000 !important}#mermaid-1598937715502 .activeCritText0,#mermaid-1598937715502 .activeCritText1,#mermaid-1598937715502 .activeCritText2,#mermaid-1598937715502 .activeCritText3{fill:#000 !important}#mermaid-1598937715502 .titleText{text-anchor:middle;font-size:18px;fill:#000;font-family:'trebuchet ms', verdana, arial;font-family:var(--mermaid-font-family)}#mermaid-1598937715502 g.classGroup text{fill:#9370db;stroke:none;font-family:'trebuchet ms', verdana, arial;font-family:var(--mermaid-font-family);font-size:10px}#mermaid-1598937715502 g.classGroup text .title{font-weight:bolder}#mermaid-1598937715502 g.clickable{cursor:pointer}#mermaid-1598937715502 g.classGroup rect{fill:#ECECFF;stroke:#9370db}#mermaid-1598937715502 g.classGroup line{stroke:#9370db;stroke-width:1}#mermaid-1598937715502 .classLabel .box{stroke:none;stroke-width:0;fill:#ECECFF;opacity:0.5}#mermaid-1598937715502 .classLabel .label{fill:#9370db;font-size:10px}#mermaid-1598937715502 .relation{stroke:#9370db;stroke-width:1;fill:none}#mermaid-1598937715502 .dashed-line{stroke-dasharray:3}#mermaid-1598937715502 #compositionStart{fill:#9370db;stroke:#9370db;stroke-width:1}#mermaid-1598937715502 #compositionEnd{fill:#9370db;stroke:#9370db;stroke-width:1}#mermaid-1598937715502 #aggregationStart{fill:#ECECFF;stroke:#9370db;stroke-width:1}#mermaid-1598937715502 #aggregationEnd{fill:#ECECFF;stroke:#9370db;stroke-width:1}#mermaid-1598937715502 #dependencyStart{fill:#9370db;stroke:#9370db;stroke-width:1}#mermaid-1598937715502 #dependencyEnd{fill:#9370db;stroke:#9370db;stroke-width:1}#mermaid-1598937715502 #extensionStart{fill:#9370db;stroke:#9370db;stroke-width:1}#mermaid-1598937715502 #extensionEnd{fill:#9370db;stroke:#9370db;stroke-width:1}#mermaid-1598937715502 .commit-id,#mermaid-1598937715502 .commit-msg,#mermaid-1598937715502 .branch-label{fill:lightgrey;color:lightgrey;font-family:'trebuchet ms', verdana, arial;font-family:var(--mermaid-font-family)}#mermaid-1598937715502 .pieTitleText{text-anchor:middle;font-size:25px;fill:#000;font-family:'trebuchet ms', verdana, arial;font-family:var(--mermaid-font-family)}#mermaid-1598937715502 .slice{font-family:'trebuchet ms', verdana, arial;font-family:var(--mermaid-font-family)}#mermaid-1598937715502 g.stateGroup text{fill:#9370db;stroke:none;font-size:10px;font-family:'trebuchet ms', verdana, arial;font-family:var(--mermaid-font-family)}#mermaid-1598937715502 g.stateGroup text{fill:#9370db;stroke:none;font-size:10px}#mermaid-1598937715502 g.stateGroup .state-title{font-weight:bolder;fill:#000}#mermaid-1598937715502 g.stateGroup rect{fill:#ECECFF;stroke:#9370db}#mermaid-1598937715502 g.stateGroup line{stroke:#9370db;stroke-width:1}#mermaid-1598937715502 .transition{stroke:#9370db;stroke-width:1;fill:none}#mermaid-1598937715502 .stateGroup .composit{fill:white;border-bottom:1px}#mermaid-1598937715502 .stateGroup .alt-composit{fill:#e0e0e0;border-bottom:1px}#mermaid-1598937715502 .state-note{stroke:#aa3;fill:#fff5ad}#mermaid-1598937715502 .state-note text{fill:black;stroke:none;font-size:10px}#mermaid-1598937715502 .stateLabel .box{stroke:none;stroke-width:0;fill:#ECECFF;opacity:0.5}#mermaid-1598937715502 .stateLabel text{fill:#000;font-size:10px;font-weight:bold;font-family:'trebuchet ms', verdana, arial;font-family:var(--mermaid-font-family)}#mermaid-1598937715502 .node circle.state-start{fill:black;stroke:black}#mermaid-1598937715502 .node circle.state-end{fill:black;stroke:white;stroke-width:1.5}#mermaid-1598937715502 #statediagram-barbEnd{fill:#9370db}#mermaid-1598937715502 .statediagram-cluster rect{fill:#ECECFF;stroke:#9370db;stroke-width:1px}#mermaid-1598937715502 .statediagram-cluster rect.outer{rx:5px;ry:5px}#mermaid-1598937715502 .statediagram-state .divider{stroke:#9370db}#mermaid-1598937715502 .statediagram-state .title-state{rx:5px;ry:5px}#mermaid-1598937715502 .statediagram-cluster.statediagram-cluster .inner{fill:white}#mermaid-1598937715502 .statediagram-cluster.statediagram-cluster-alt .inner{fill:#e0e0e0}#mermaid-1598937715502 .statediagram-cluster .inner{rx:0;ry:0}#mermaid-1598937715502 .statediagram-state rect.basic{rx:5px;ry:5px}#mermaid-1598937715502 .statediagram-state rect.divider{stroke-dasharray:10,10;fill:#efefef}#mermaid-1598937715502 .note-edge{stroke-dasharray:5}#mermaid-1598937715502 .statediagram-note rect{fill:#fff5ad;stroke:#aa3;stroke-width:1px;rx:0;ry:0}:root{--mermaid-font-family: '"trebuchet ms", verdana, arial';--mermaid-font-family: "Comic Sans MS", "Comic Sans", cursive}

:root { --mermaid-font-family: "trebuchet ms", verdana, arial;}</style><style>#mermaid-1598937715502 {
    color: rgb(0, 0, 0);
    font: 16px "trebuchet ms", verdana, arial;
  }</style><g><defs><marker id="statediagram-barbEnd" refX="19" refY="7" markerWidth="20" markerHeight="14" markerUnits="0" orient="auto"><path d="M 19,7 L9,13 L14,7 L9,1 Z"></path></marker></defs><g class="root"><g class="clusters"><g class="note-cluster" id="0----parent"><rect x="8" y="72" width="676.41796875" height="356" fill="none"></rect></g><g class="note-cluster" id="3----parent"><rect x="704.41796875" y="72" width="491.1640625" height="356" fill="none"></rect></g><g class="note-cluster" id="4----parent"><rect x="1097.88671875" y="497" width="857.5703125" height="302.5" fill="none"></rect></g><g class="note-cluster" id="5----parent"><rect x="3753.56640625" y="497" width="852.4453125" height="302.5" fill="none"></rect></g><g class="note-cluster" id="6----parent"><rect x="2976.19921875" y="264" width="757.3671875" height="381" fill="none"></rect></g><g class="note-cluster" id="10----parent"><rect x="3093.4765625" y="998" width="865.76171875" height="229.5" fill="none"></rect></g><g class="note-cluster" id="11----parent"><rect x="2555.23046875" y="1296.5" width="710.0859375" height="240" fill="none"></rect></g></g><g class="edgePaths"><path d="M384.72265625,22L384.72265625,26.166666666666668C384.72265625,30.333333333333332,384.72265625,38.666666666666664,384.72265625,47C384.72265625,55.333333333333336,384.72265625,63.666666666666664,384.72265625,75.125C384.72265625,86.58333333333333,384.72265625,101.16666666666667,384.72265625,108.45833333333333L384.72265625,115.75" id="edge0" class="transition" marker-end="url(#statediagram-barbEnd)"></path><path d="M364.80741251871257,176.25L358.9645104322605,185.125C353.1216083458084,194,341.4358041729042,211.75,335.5929020864521,226.375C329.75,241,329.75,252.5,329.75,262.4166666666667C329.75,272.3333333333333,329.75,280.6666666666667,329.75,284.8333333333333L329.75,289" class="transition note-edge"></path><path d="M487.31640625,128.8201908661054L500.3250868055555,126.6418257217545C513.3337673611111,124.46346057740361,539.3511284722222,120.1067302887018,555.6119791666666,117.92836514435089C571.872829861111,115.75,578.3771701388888,115.75,584.8815104166666,120.79166666666667C591.3858506944445,125.83333333333333,597.8901909722222,135.91666666666666,597.8901909722222,146C597.8901909722222,156.08333333333334,591.3858506944445,166.16666666666666,584.8815104166666,171.20833333333334C578.3771701388888,176.25,571.872829861111,176.25,555.6119791666666,174.0716348556491C539.3511284722222,171.89326971129822,513.3337673611111,167.5365394225964,500.3250868055555,165.3581742782455L487.31640625,163.1798091338946" id="edge1" class="transition" marker-end="url(#statediagram-barbEnd)"></path><path d="M423.0884753929641,176.25L434.3445628274701,185.125C445.600650261976,194,468.112825130988,211.75,479.368912565494,226.375C490.625,241,490.625,252.5,552.635924796748,269.0833333333333C614.646849593496,285.6666666666667,738.668699186992,307.3333333333333,800.6796239837398,318.1666666666667L862.6905487804878,329" id="edge2" class="transition" marker-end="url(#statediagram-barbEnd)"></path><path d="M915.3061642530488,363L886.8247983358739,373.8333333333333C858.3434324186992,384.6666666666667,801.3807005843496,406.3333333333333,772.8993346671747,422.9166666666667C744.41796875,439.5,744.41796875,451,744.41796875,462.5C744.41796875,474,744.41796875,485.5,744.41796875,500.75C744.41796875,516,744.41796875,535,744.41796875,544.5L744.41796875,554" id="edge3" class="transition" marker-end="url(#statediagram-barbEnd)"></path><path d="M961.5459698932926,363L962.5311467860771,373.8333333333333C963.5163236788618,384.6666666666667,965.486677464431,406.3333333333333,966.4718543572154,422.9166666666667C967.45703125,439.5,967.45703125,451,967.45703125,462.5C967.45703125,474,967.45703125,485.5,967.45703125,500.75C967.45703125,516,967.45703125,535,967.45703125,544.5L967.45703125,554" id="edge4" class="transition" marker-end="url(#statediagram-barbEnd)"></path><path d="M981.0467320884146,363L994.4588652820122,373.8333333333333C1007.8709984756097,384.6666666666667,1034.6952648628048,406.3333333333333,1392.3847418064024,422.9166666666667C1750.07421875,439.5,2438.62890625,451,2782.90625,462.5C3127.18359375,474,3127.18359375,485.5,3139.2292392490144,498.5416666666667C3151.2748847480293,511.5833333333333,3175.366175746059,526.1666666666666,3187.4118212450735,533.4583333333334L3199.457466744088,540.75" id="edge5" class="transition" marker-end="url(#statediagram-barbEnd)"></path><path d="M1300.988670107466,774.5L1285.9378240478884,778.6666666666666C1270.8869779883107,782.8333333333334,1240.7852858691554,791.1666666666666,1173.2311846012444,801.0833333333334C1105.6770833333333,811,1000.6705729166666,822.5,948.1673177083334,839.0416666666666C895.6640625,855.5833333333334,895.6640625,877.1666666666666,895.6640625,898.75C895.6640625,920.3333333333334,895.6640625,941.9166666666666,895.6640625,958.4583333333334C895.6640625,975,895.6640625,986.5,895.6640625,1000.5833333333334C895.6640625,1014.6666666666666,895.6640625,1031.3333333333333,895.6640625,1049.5833333333333C895.6640625,1067.8333333333333,895.6640625,1087.6666666666667,895.6640625,1108.375C895.6640625,1129.0833333333333,895.6640625,1150.6666666666667,895.6640625,1170.6666666666667C895.6640625,1190.6666666666667,895.6640625,1209.0833333333333,895.6640625,1224.0416666666667C895.6640625,1239,895.6640625,1250.5,895.6640625,1262C895.6640625,1273.5,895.6640625,1285,895.6640625,1299.9583333333333C895.6640625,1314.9166666666667,895.6640625,1333.3333333333333,895.6640625,1353.3333333333333C895.6640625,1373.3333333333333,895.6640625,1394.9166666666667,895.6640625,1416.5C895.6640625,1438.0833333333333,895.6640625,1459.6666666666667,895.6640625,1479.6666666666667C895.6640625,1499.6666666666667,895.6640625,1518.0833333333333,895.6640625,1533.0416666666667C895.6640625,1548,895.6640625,1559.5,1219.4010416666667,1575.5212269868978C1543.1380208333333,1591.5424539737953,2190.6119791666665,1612.084907947591,2514.3489583333335,1622.3561349344889L2838.0859375,1632.6273619213866" id="edge6" class="transition" marker-end="url(#statediagram-barbEnd)"></path><path d="M3237.7617847339525,601.25L3234.949273736627,608.5416666666666C3232.1367627393015,615.8333333333334,3226.511740744651,630.4166666666666,2860.8535266223257,643.4583333333334C2495.1953125,656.5,1769.50390625,668,1406.658203125,684.5416666666666C1043.8125,701.0833333333334,1043.8125,722.6666666666666,1043.8125,742.6666666666666C1043.8125,762.6666666666666,1043.8125,781.0833333333334,1043.8125,796.0416666666666C1043.8125,811,1043.8125,822.5,1043.8125,839.0416666666666C1043.8125,855.5833333333334,1043.8125,877.1666666666666,1043.8125,898.75C1043.8125,920.3333333333334,1043.8125,941.9166666666666,1043.8125,958.4583333333334C1043.8125,975,1043.8125,986.5,1043.8125,1000.5833333333334C1043.8125,1014.6666666666666,1043.8125,1031.3333333333333,1043.8125,1049.5833333333333C1043.8125,1067.8333333333333,1043.8125,1087.6666666666667,1043.8125,1108.375C1043.8125,1129.0833333333333,1043.8125,1150.6666666666667,1043.8125,1170.6666666666667C1043.8125,1190.6666666666667,1043.8125,1209.0833333333333,1043.8125,1224.0416666666667C1043.8125,1239,1043.8125,1250.5,1043.8125,1262C1043.8125,1273.5,1043.8125,1285,1043.8125,1299.9583333333333C1043.8125,1314.9166666666667,1043.8125,1333.3333333333333,1043.8125,1353.3333333333333C1043.8125,1373.3333333333333,1043.8125,1394.9166666666667,1043.8125,1416.5C1043.8125,1438.0833333333333,1043.8125,1459.6666666666667,1043.8125,1479.6666666666667C1043.8125,1499.6666666666667,1043.8125,1518.0833333333333,1043.8125,1533.0416666666667C1043.8125,1548,1043.8125,1559.5,1342.8580729166667,1575.4804902001251C1641.9036458333333,1591.4609804002503,2239.9947916666665,1611.9219608005008,2539.0403645833335,1622.152451000626L2838.0859375,1632.3829412007512" id="edge7" class="transition" marker-end="url(#statediagram-barbEnd)"></path><path d="M3307.641456397804,601.25L3321.67321887317,608.5416666666666C3335.704981348536,615.8333333333334,3363.7685062992678,630.4166666666666,3027.270971899634,643.4583333333334C2690.7734375,656.5,1989.71484375,668,1649.984141228282,679.5C1310.2534387065637,691,1331.8506274131275,702.5,1342.6492217664093,708.25L1353.4478161196912,714" id="edge8" class="transition" marker-end="url(#statediagram-barbEnd)"></path><path d="M3372.0696130701012,601.25L3401.6315786000846,608.5416666666666C3431.193544130068,615.8333333333334,3490.3174751900337,630.4166666666666,3586.8892063450166,643.4583333333334C3683.4609375,656.5,3817.48046875,668,3886.0827928933395,679.5C3954.6851170366795,691,3957.8702340733594,702.5,3959.462792591699,708.25L3961.055351110039,714" id="edge9" class="transition" marker-end="url(#statediagram-barbEnd)"></path><path d="M1580.8515625,766.1115215953466L1624.275390625,771.6762679961222C1667.69921875,777.2410143968978,1754.546875,788.370507198449,1967.2819010416667,799.6852535992244C2180.0169270833335,811,2518.6393229166665,822.5,2844.8743489583335,838.1261456873934C3171.109375,853.752291374787,3484.95703125,873.5045827495738,3641.880859375,883.3807284369673L3798.8046875,893.2568741243607" id="edge10" class="transition" marker-end="url(#statediagram-barbEnd)"></path><path d="M4150.30078125,763.5173623402349L4206.597005208333,769.5144686168624C4262.893229166667,775.5115748934899,4375.485677083333,787.5057874467449,4431.781901041667,799.2528937233725C4488.078125,811,4488.078125,822.5,4402.29296875,837.4770115501915C4316.5078125,852.4540231003829,4144.9375,870.9080462007656,4059.15234375,880.1350577509571L3973.3671875,889.3620693011485" id="edge11" class="transition" marker-end="url(#statediagram-barbEnd)"></path><path d="M1311.93889635181,774.5L1298.396345918175,778.6666666666666C1284.85379548454,782.8333333333334,1257.76869461727,791.1666666666666,1244.2261441836351,801.0833333333334C1230.68359375,811,1230.68359375,822.5,1230.68359375,839.0416666666666C1230.68359375,855.5833333333334,1230.68359375,877.1666666666666,1230.68359375,898.75C1230.68359375,920.3333333333334,1230.68359375,941.9166666666666,1230.68359375,958.4583333333334C1230.68359375,975,1230.68359375,986.5,1230.68359375,1000.5833333333334C1230.68359375,1014.6666666666666,1230.68359375,1031.3333333333333,1230.68359375,1049.5833333333333C1230.68359375,1067.8333333333333,1230.68359375,1087.6666666666667,1230.68359375,1108.375C1230.68359375,1129.0833333333333,1230.68359375,1150.6666666666667,1230.68359375,1170.6666666666667C1230.68359375,1190.6666666666667,1230.68359375,1209.0833333333333,1230.68359375,1224.0416666666667C1230.68359375,1239,1230.68359375,1250.5,1230.68359375,1262C1230.68359375,1273.5,1230.68359375,1285,1230.68359375,1299.9583333333333C1230.68359375,1314.9166666666667,1230.68359375,1333.3333333333333,1230.68359375,1353.3333333333333C1230.68359375,1373.3333333333333,1230.68359375,1394.9166666666667,1230.68359375,1416.5C1230.68359375,1438.0833333333333,1230.68359375,1459.6666666666667,1230.68359375,1479.6666666666667C1230.68359375,1499.6666666666667,1230.68359375,1518.0833333333333,1230.68359375,1533.0416666666667C1230.68359375,1548,1230.68359375,1559.5,1498.583984375,1575.4190139595275C1766.484375,1591.3380279190549,2302.28515625,1611.6760558381095,2570.185546875,1621.845069797637L2838.0859375,1632.0140837571646" id="edge12" class="transition" marker-end="url(#statediagram-barbEnd)"></path><path d="M3925.02315469457,774.5L3918.9060143288084,778.6666666666666C3912.788873963047,782.8333333333334,3900.5545932315235,791.1666666666666,3532.274692449095,801.0833333333334C3163.9947916666665,811,2439.6692708333335,822.5,2077.5065104166665,839.0416666666666C1715.34375,855.5833333333334,1715.34375,877.1666666666666,1715.34375,898.75C1715.34375,920.3333333333334,1715.34375,941.9166666666666,1715.34375,958.4583333333334C1715.34375,975,1715.34375,986.5,1715.34375,1000.5833333333334C1715.34375,1014.6666666666666,1715.34375,1031.3333333333333,1715.34375,1049.5833333333333C1715.34375,1067.8333333333333,1715.34375,1087.6666666666667,1715.34375,1108.375C1715.34375,1129.0833333333333,1715.34375,1150.6666666666667,1715.34375,1170.6666666666667C1715.34375,1190.6666666666667,1715.34375,1209.0833333333333,1715.34375,1224.0416666666667C1715.34375,1239,1715.34375,1250.5,1715.34375,1262C1715.34375,1273.5,1715.34375,1285,1715.34375,1299.9583333333333C1715.34375,1314.9166666666667,1715.34375,1333.3333333333333,1715.34375,1353.3333333333333C1715.34375,1373.3333333333333,1715.34375,1394.9166666666667,1715.34375,1416.5C1715.34375,1438.0833333333333,1715.34375,1459.6666666666667,1715.34375,1479.6666666666667C1715.34375,1499.6666666666667,1715.34375,1518.0833333333333,1715.34375,1533.0416666666667C1715.34375,1548,1715.34375,1559.5,1902.4674479166667,1575.171893226451C2089.5911458333335,1590.8437864529021,2463.8385416666665,1610.687572905804,2650.9622395833335,1620.609466132255L2838.0859375,1630.5313593587061" id="edge13" class="transition" marker-end="url(#statediagram-barbEnd)"></path><path d="M4011.805836397059,774.5L4017.6422334558824,778.6666666666666C4023.4786305147063,782.8333333333334,4035.151424632353,791.1666666666666,3701.90904564951,801.0833333333334C3368.6666666666665,811,2690.5091145833335,822.5,2351.4303385416665,839.0416666666666C2012.3515625,855.5833333333334,2012.3515625,877.1666666666666,2012.3515625,898.75C2012.3515625,920.3333333333334,2012.3515625,941.9166666666666,2012.3515625,958.4583333333334C2012.3515625,975,2012.3515625,986.5,2012.3515625,1000.5833333333334C2012.3515625,1014.6666666666666,2012.3515625,1031.3333333333333,2012.3515625,1049.5833333333333C2012.3515625,1067.8333333333333,2012.3515625,1087.6666666666667,2012.3515625,1108.375C2012.3515625,1129.0833333333333,2012.3515625,1150.6666666666667,2012.3515625,1170.6666666666667C2012.3515625,1190.6666666666667,2012.3515625,1209.0833333333333,2012.3515625,1224.0416666666667C2012.3515625,1239,2012.3515625,1250.5,2012.3515625,1262C2012.3515625,1273.5,2012.3515625,1285,2012.3515625,1299.9583333333333C2012.3515625,1314.9166666666667,2012.3515625,1333.3333333333333,2012.3515625,1353.3333333333333C2012.3515625,1373.3333333333333,2012.3515625,1394.9166666666667,2012.3515625,1416.5C2012.3515625,1438.0833333333333,2012.3515625,1459.6666666666667,2012.3515625,1479.6666666666667C2012.3515625,1499.6666666666667,2012.3515625,1518.0833333333333,2012.3515625,1533.0416666666667C2012.3515625,1548,2012.3515625,1559.5,2149.9739583333335,1574.8923631071136C2287.5963541666665,1590.284726214227,2562.8411458333335,1609.5694524284538,2700.4635416666665,1619.2118155355674L2838.0859375,1628.8541786426808" id="edge14" class="transition" marker-end="url(#statediagram-barbEnd)"></path><path d="M3471.72265625,1199.6150686827011L3497.84375,1204.2625572355844C3523.96484375,1208.9100457884674,3576.20703125,1218.2050228942337,3654.59765625,1228.602511447117C3732.98828125,1239,3837.52734375,1250.5,3889.796875,1262C3942.06640625,1273.5,3942.06640625,1285,3986.0559895833335,1296.568001034829C4030.0455729166665,1308.1360020696577,4118.024739583333,1319.7720041393154,4162.014322916667,1325.5900051741444L4206.00390625,1331.4080062089731" id="edge15" class="transition" marker-end="url(#statediagram-barbEnd)"></path><path d="M3973.3671875,908.5134276536445L4055.2936197916665,917.6778563780371C4137.220052083333,926.8422851024297,4301.072916666667,945.1711425512149,4382.999348958333,960.0855712756074C4464.92578125,975,4464.92578125,986.5,4464.92578125,1000.5833333333334C4464.92578125,1014.6666666666666,4464.92578125,1031.3333333333333,4464.92578125,1049.5833333333333C4464.92578125,1067.8333333333333,4464.92578125,1087.6666666666667,4464.92578125,1108.375C4464.92578125,1129.0833333333333,4464.92578125,1150.6666666666667,4464.92578125,1170.6666666666667C4464.92578125,1190.6666666666667,4464.92578125,1209.0833333333333,4464.92578125,1224.0416666666667C4464.92578125,1239,4464.92578125,1250.5,4464.92578125,1262C4464.92578125,1273.5,4464.92578125,1285,4456.998391544118,1294.9166666666667C4449.071001838235,1304.8333333333333,4433.216222426471,1313.1666666666667,4425.288832720588,1317.3333333333333L4417.361443014706,1321.5" id="edge16" class="transition" marker-end="url(#statediagram-barbEnd)"></path><path d="M4513.61328125,1333.8742158187003L4531.358072916667,1331.8118465155837C4549.102864583333,1329.749477212467,4584.592447916667,1325.6247386062334,4606.7734375,1323.5623693031168C4628.954427083333,1321.5,4637.826822916667,1321.5,4646.69921875,1326.5416666666667C4655.571614583333,1331.5833333333333,4664.444010416667,1341.6666666666667,4664.444010416667,1351.75C4664.444010416667,1361.8333333333333,4655.571614583333,1371.9166666666667,4646.69921875,1376.9583333333333C4637.826822916667,1382,4628.954427083333,1382,4606.7734375,1379.9376306968834C4584.592447916667,1377.8752613937666,4549.102864583333,1373.7505227875329,4531.358072916667,1371.6881534844163L4513.61328125,1369.6257841812997" id="edge17" class="transition" marker-end="url(#statediagram-barbEnd)"></path><path d="M4096.42578125,1065L4096.42578125,1072.0833333333333C4096.42578125,1079.1666666666667,4096.42578125,1093.3333333333333,4096.42578125,1111.2083333333333C4096.42578125,1129.0833333333333,4096.42578125,1150.6666666666667,4096.42578125,1170.6666666666667C4096.42578125,1190.6666666666667,4096.42578125,1209.0833333333333,4025.7981770833335,1224.0416666666667C3955.1705729166665,1239,3813.9153645833335,1250.5,3743.2877604166665,1262C3672.66015625,1273.5,3672.66015625,1285,3672.66015625,1299.9583333333333C3672.66015625,1314.9166666666667,3672.66015625,1333.3333333333333,3672.66015625,1353.3333333333333C3672.66015625,1373.3333333333333,3672.66015625,1394.9166666666667,3691.047252051158,1411.4583333333333C3709.4343478523165,1428,3746.2085394546334,1439.5,3764.5956352557914,1445.25L3782.98273105695,1451" id="edge18" class="transition" marker-end="url(#statediagram-barbEnd)"></path><path d="M3471.72265625,1153.6765861671051L3487.8381076388887,1151.7304884725875C3503.953559027778,1149.78439077807,3536.184461805556,1145.8921953890351,3556.3287760416674,1143.9460976945174C3576.473090277778,1142,3584.530815972222,1142,3592.5885416666665,1147.0416666666667C3600.646267361111,1152.0833333333333,3608.703993055555,1162.1666666666667,3608.703993055556,1172.25C3608.703993055555,1182.3333333333333,3600.646267361111,1192.4166666666667,3592.588541666666,1197.4583333333333C3584.530815972222,1202.5,3576.473090277778,1202.5,3556.3287760416665,1200.5539023054826C3536.184461805556,1198.6078046109649,3503.953559027778,1194.71560922193,3487.8381076388887,1192.7695115274125L3471.72265625,1190.8234138328949" id="edge19" class="transition" marker-end="url(#statediagram-barbEnd)"></path><path d="M3798.8046875,907.6754145691442L3707.8203125,916.9795121409535C3616.8359375,926.2836097127629,3434.8671875,944.8918048563814,3343.8828125,959.9459024281906C3252.8984375,975,3252.8984375,986.5,3252.8984375,1000.5833333333334C3252.8984375,1014.6666666666666,3252.8984375,1031.3333333333333,3252.8984375,1049.5833333333333C3252.8984375,1067.8333333333333,3252.8984375,1087.6666666666667,3258.672372707529,1103.3333333333333C3264.446307915058,1119,3275.994178330116,1130.5,3281.7681135376447,1136.25L3287.542048745174,1142" id="edge20" class="transition" marker-end="url(#statediagram-barbEnd)"></path><path d="M3994.23828125,1057.6983064787469L3906.78125,1065.9985887322891C3819.32421875,1074.2988709858312,3644.41015625,1090.8994354929157,3543.492519305019,1104.949717746458C3442.574882360039,1119,3415.6536709700777,1130.5,3402.1930652750966,1136.25L3388.732459580116,1142" id="edge21" class="transition" marker-end="url(#statediagram-barbEnd)"></path><path d="M985.1930735518292,363L1001.247483168191,373.8333333333333C1017.3018927845528,384.6666666666667,1049.4107120172764,406.3333333333333,1447.1578299669716,422.9166666666667C1844.9049479166667,439.5,2608.2903645833335,451,2989.9830729166665,462.5C3371.67578125,474,3371.67578125,485.5,3359.6301357509856,498.5416666666667C3347.5844902519707,511.5833333333333,3323.493199253941,526.1666666666666,3311.4475537549265,533.4583333333334L3299.401908255912,540.75" id="edge22" class="transition" marker-end="url(#statediagram-barbEnd)"></path><path d="M3973.3671875,925.6182377848348L3993.876953125,931.9318648206958C4014.38671875,938.2454918565567,4055.40625,950.8727459282783,4075.916015625,962.9363729641391C4096.42578125,975,4096.42578125,986.5,4096.42578125,997.75C4096.42578125,1009,4096.42578125,1020,4096.42578125,1025.5L4096.42578125,1031" id="edge23" class="transition" marker-end="url(#statediagram-barbEnd)"></path><path d="M4206.00390625,1372.090081536915L4150.03515625,1379.4917346140958C4094.06640625,1386.8933876912768,3982.12890625,1401.6966938456383,3927.005866916023,1414.8483469228192C3871.8828275820465,1428,3873.5742489140925,1439.5,3874.419959580116,1445.25L3875.265670246139,1451" id="edge24" class="transition" marker-end="url(#statediagram-barbEnd)"></path><path d="M4198.61328125,1039.1349138847545L4214.241753472222,1037.779094903962C4229.870225694444,1036.4232759231697,4261.127170138889,1033.7116379615848,4280.662760416667,1032.3558189807925C4300.198350694444,1031,4308.012586805556,1031,4315.826822916667,1033.8333333333333C4323.641059027778,1036.6666666666667,4331.45529513889,1042.3333333333333,4331.45529513889,1048C4331.45529513889,1053.6666666666667,4323.641059027778,1059.3333333333333,4315.826822916667,1062.1666666666667C4308.012586805556,1065,4300.198350694444,1065,4280.662760416667,1063.6441810192075C4261.127170138889,1062.2883620384152,4229.870225694444,1059.5767240768303,4214.241753472222,1058.220905096038L4198.61328125,1056.8650861152455" id="edge25" class="transition" marker-end="url(#statediagram-barbEnd)"></path><path d="M3471.72265625,1160.6572385197874L3512.9778645833335,1157.5476987664895C3554.2330729166665,1154.4381590131916,3636.7434895833335,1148.2190795065958,3688.3125,1145.109539753298C3739.8815104166665,1142,3760.5091145833335,1142,3781.13671875,1147.0416666666667C3801.7643229166665,1152.0833333333333,3822.3919270833335,1162.1666666666667,3822.3919270833335,1172.25C3822.3919270833335,1182.3333333333333,3801.7643229166665,1192.4166666666667,3781.13671875,1197.4583333333333C3760.5091145833335,1202.5,3739.8815104166665,1202.5,3688.3125,1199.390460246702C3636.7434895833335,1196.2809204934042,3554.2330729166665,1190.0618409868084,3512.9778645833335,1186.9523012335105L3471.72265625,1183.8427614802126" id="edge26" class="transition" marker-end="url(#statediagram-barbEnd)"></path><path d="M3973.3671875,883.6421291053227L3987.9470486111113,881.1184409211023C4002.526909722222,878.5947527368818,4031.686631944444,873.547376368441,4049.9114583333326,871.0236881842205C4068.136284722222,868.5,4075.426215277778,868.5,4082.7161458333335,873.5416666666666C4090.006076388889,878.5833333333334,4097.296006944444,888.6666666666666,4097.296006944444,898.75C4097.296006944444,908.8333333333334,4090.006076388889,918.9166666666666,4082.716145833334,923.9583333333334C4075.426215277778,929,4068.136284722222,929,4049.9114583333335,926.4763118157795C4031.686631944444,923.952623631559,4002.526909722222,918.9052472631182,3987.9470486111113,916.3815590788977L3973.3671875,913.8578708946773" id="edge27" class="transition" marker-end="url(#statediagram-barbEnd)"></path><path d="M4513.61328125,1340.695772826551L4558.127170138889,1337.4964773554593C4602.641059027777,1334.2971818843673,4691.668836805556,1327.8985909421838,4747.311197916667,1324.699295471092C4802.953559027777,1321.5,4825.210503472223,1321.5,4847.467447916667,1326.5416666666667C4869.724392361111,1331.5833333333333,4891.981336805556,1341.6666666666667,4891.981336805556,1351.75C4891.981336805556,1361.8333333333333,4869.724392361111,1371.9166666666667,4847.467447916667,1376.9583333333333C4825.210503472223,1382,4802.953559027777,1382,4747.311197916667,1378.800704528908C4691.668836805556,1375.6014090578162,4602.641059027777,1369.2028181156327,4558.127170138889,1366.0035226445407L4513.61328125,1362.804227173449" id="edge28" class="transition" marker-end="url(#statediagram-barbEnd)"></path><path d="M3257.670337245475,1202.5L3249.371765412896,1206.6666666666667C3241.0731935803165,1210.8333333333333,3224.4760499151585,1219.1666666666667,3126.5973999575795,1229.0833333333333C3028.71875,1239,2849.55859375,1250.5,2759.978515625,1262C2670.3984375,1273.5,2670.3984375,1285,2670.3984375,1299.9583333333333C2670.3984375,1314.9166666666667,2670.3984375,1333.3333333333333,2670.3984375,1353.3333333333333C2670.3984375,1373.3333333333333,2670.3984375,1394.9166666666667,2723.5696614583335,1413.9994089222946C2776.7408854166665,1433.0821511779222,2883.0833333333335,1449.6643023558445,2936.2545572916665,1457.9553779448058L2989.42578125,1466.2464535337667" id="edge29" class="transition" marker-end="url(#statediagram-barbEnd)"></path><path d="M4419.565848214285,1382L4430.924665178572,1387.75C4442.283482142857,1393.5,4465.001116071428,1405,4396.498604910715,1419.2549141016004C4327.99609375,1433.5098282032006,4168.2734375,1450.5196564064015,4088.412109375,1459.0245705080022L4008.55078125,1467.5294846096024" id="edge30" class="transition" marker-end="url(#statediagram-barbEnd)"></path><path d="M2989.42578125,1492.9387228377566L2929.6614583333335,1500.1989356981303C2869.8971354166665,1507.4591485585042,2750.3684895833335,1521.9795742792521,2654.4576822916665,1534.989787139626C2558.546875,1548,2486.25390625,1559.5,2520.794921875,1574.0090527165623C2555.3359375,1588.5181054331251,2696.7109375,1606.0362108662503,2767.3984375,1614.7952635828126L2838.0859375,1623.5543162993752" id="edge31" class="transition" marker-end="url(#statediagram-barbEnd)"></path><path d="M3750.87890625,1485.4567226560966L3490.3352864583335,1493.9639355467473C3229.7916666666665,1502.4711484373977,2708.7044270833335,1519.485574218699,2521.4993489583335,1533.7427871093496C2334.2942708333335,1548,2480.9713541666665,1559.5,2589.3828125,1572.6027680814825C2697.7942708333335,1585.7055361629652,2767.9401041666665,1600.4110723259303,2803.0130208333335,1607.7638404074132L2838.0859375,1615.1166084888957" id="edge32" class="transition" marker-end="url(#statediagram-barbEnd)"></path><path d="M2993.9021669966064,1511.5L2981.2654777055054,1515.6666666666667C2968.628788414404,1519.8333333333333,2943.355409832202,1528.1666666666667,2930.718720541101,1538.0833333333333C2918.08203125,1548,2918.08203125,1559.5,2919.71829753861,1571C2921.3545638272203,1582.5,2924.62709640444,1594,2926.2633626930497,1599.75L2927.89962898166,1605.5" id="edge33" class="transition" marker-end="url(#statediagram-barbEnd)"></path><path d="M3750.87890625,1509.021088285048L3729.6321614583335,1513.6009069042066C3708.3854166666665,1518.1807255233653,3665.8919270833335,1527.3403627616826,3571.5013020833335,1537.6701813808413C3477.1106770833335,1548,3330.8229166666665,1559.5,3232.7447916666665,1571.7593320996402C3134.6666666666665,1584.0186641992807,3084.7981770833335,1597.0373283985616,3059.8639322916665,1603.5466604982018L3034.9296875,1610.0559925978423" id="edge34" class="transition" marker-end="url(#statediagram-barbEnd)"></path><path d="M3143.413390837104,1511.5L3151.37053403092,1515.6666666666667C3159.327677224736,1519.8333333333333,3175.241963612368,1528.1666666666667,3225.3781432645173,1538.0833333333333C3275.5143229166665,1548,3359.8723958333335,1559.5,3333.8346354166665,1573.9497055248237C3307.796875,1588.3994110496471,3171.36328125,1605.7988220992945,3103.146484375,1614.498527624118L3034.9296875,1623.1982331489417" id="edge35" class="transition" marker-end="url(#statediagram-barbEnd)"></path><path d="M4008.55078125,1498.9660530434867L4054.0436197916665,1505.2217108695722C4099.536458333333,1511.4773686956578,4190.522135416667,1523.988684347829,4236.014973958333,1535.9943421739144C4281.5078125,1548,4281.5078125,1559.5,4073.7447916666665,1575.2519744230174C3865.9817708333335,1591.0039488460345,3450.4557291666665,1611.0078976920693,3242.6927083333335,1621.0098721150869L3034.9296875,1631.011846538104" id="edge36" class="transition" marker-end="url(#statediagram-barbEnd)"></path><path d="M3134.2606026785716,1451L3143.501674107143,1445.25C3152.742745535714,1439.5,3171.2248883928573,1428,3180.465959821429,1411.4583333333333C3189.70703125,1394.9166666666667,3189.70703125,1373.3333333333333,3189.70703125,1353.3333333333333C3189.70703125,1333.3333333333333,3189.70703125,1314.9166666666667,3189.70703125,1299.9583333333333C3189.70703125,1285,3189.70703125,1273.5,3151.8033854166665,1262C3113.8997395833335,1250.5,3038.0924479166665,1239,3000.1888020833335,1224.0416666666667C2962.28515625,1209.0833333333333,2962.28515625,1190.6666666666667,2962.28515625,1170.6666666666667C2962.28515625,1150.6666666666667,2962.28515625,1129.0833333333333,2962.28515625,1108.375C2962.28515625,1087.6666666666667,2962.28515625,1067.8333333333333,2962.28515625,1049.5833333333333C2962.28515625,1031.3333333333333,2962.28515625,1014.6666666666666,2962.28515625,1000.5833333333334C2962.28515625,986.5,2962.28515625,975,3101.705078125,959.4779364505503C3241.125,943.9558729011006,3519.96484375,924.4117458022014,3659.384765625,914.6396822527516L3798.8046875,904.867618703302" id="edge37" class="transition" marker-end="url(#statediagram-barbEnd)"></path><path d="M4008.55078125,1486.0526511028472L4234.100911458333,1494.4605425857062C4459.651041666667,1502.868434068565,4910.751302083333,1519.6842170342825,5136.301432291667,1533.8421085171412C5361.8515625,1548,5361.8515625,1559.5,5361.8515625,1573.2083333333333C5361.8515625,1586.9166666666667,5361.8515625,1602.8333333333333,5361.8515625,1610.7916666666667L5361.8515625,1618.75" id="edge38" class="transition" marker-end="url(#statediagram-barbEnd)"></path><path d="M3973.3671875,903.6884862728232L4149.548828125,913.6570718940193C4325.73046875,923.6256575152155,4678.09375,943.5628287576077,4854.275390625,959.2814143788038C5030.45703125,975,5030.45703125,986.5,5030.45703125,1000.5833333333334C5030.45703125,1014.6666666666666,5030.45703125,1031.3333333333333,5030.45703125,1049.5833333333333C5030.45703125,1067.8333333333333,5030.45703125,1087.6666666666667,5030.45703125,1108.375C5030.45703125,1129.0833333333333,5030.45703125,1150.6666666666667,5030.45703125,1170.6666666666667C5030.45703125,1190.6666666666667,5030.45703125,1209.0833333333333,5030.45703125,1224.0416666666667C5030.45703125,1239,5030.45703125,1250.5,5030.45703125,1262C5030.45703125,1273.5,5030.45703125,1285,5030.45703125,1299.9583333333333C5030.45703125,1314.9166666666667,5030.45703125,1333.3333333333333,5030.45703125,1353.3333333333333C5030.45703125,1373.3333333333333,5030.45703125,1394.9166666666667,5030.45703125,1416.5C5030.45703125,1438.0833333333333,5030.45703125,1459.6666666666667,5030.45703125,1479.6666666666667C5030.45703125,1499.6666666666667,5030.45703125,1518.0833333333333,5030.45703125,1533.0416666666667C5030.45703125,1548,5030.45703125,1559.5,5030.45703125,1571C5030.45703125,1582.5,5030.45703125,1594,5030.45703125,1599.75L5030.45703125,1605.5" id="edge39" class="transition" marker-end="url(#statediagram-barbEnd)"></path><path d="M5282.3515625,1644.8203926764636L5201.014973958333,1654.1003272303863C5119.678385416667,1663.3802617843091,4957.005208333333,1681.9401308921545,4952.573567708333,1698.478490173565C4948.141927083333,1715.016849454976,5101.951822916667,1729.5336989099517,5178.856770833333,1736.7921236374398L5255.76171875,1744.0505483649276" id="edge40" class="transition" marker-end="url(#statediagram-barbEnd)"></path><path d="M5144.94921875,1659.7003091872791L5177.455729166667,1666.5002576560657C5209.962239583333,1673.3002061248528,5274.975260416667,1686.9001030624265,5307.481770833333,1699.4500515312131C5339.98828125,1712,5339.98828125,1723.5,5339.98828125,1729.25L5339.98828125,1735" id="edge41" class="transition" marker-end="url(#statediagram-barbEnd)"></path><path d="M4915.96484375,1639.8201523554617L4631.48046875,1649.933460296218C4346.99609375,1660.0467682369745,3778.02734375,1680.2733841184872,3518.69921875,1696.1963193013962C3259.37109375,1712.119254484305,3309.68359375,1723.7385089686097,3334.83984375,1729.548136210762L3359.99609375,1735.3577634529147" id="edge42" class="transition" marker-end="url(#statediagram-barbEnd)"></path><path d="M3034.9296875,1648.610067317773L3101.1178385416665,1657.2583894314776C3167.3059895833335,1665.906711545182,3299.6822916666665,1683.203355772591,3365.8704427083335,1697.6016778862956C3432.05859375,1712,3432.05859375,1723.5,3432.05859375,1729.25L3432.05859375,1735" id="edge43" class="transition" marker-end="url(#statediagram-barbEnd)"></path><path d="M960,195L960,200.75C960,206.5,960,218,960,229.5C960,241,960,252.5,960,269.0833333333333C960,285.6666666666667,960,307.3333333333333,960,318.1666666666667L960,329" class="transition note-edge"></path><path d="M1747.33203125,620L1747.33203125,624.1666666666666C1747.33203125,628.3333333333334,1747.33203125,636.6666666666666,1747.33203125,646.5833333333334C1747.33203125,656.5,1747.33203125,668,1717.3987994691117,679.5C1687.465567688224,691,1627.5991041264479,702.5,1597.6658723455596,708.25L1567.7326405646718,714" class="transition note-edge"></path><path d="M4357.5546875,620L4357.5546875,624.1666666666666C4357.5546875,628.3333333333334,4357.5546875,636.6666666666666,4357.5546875,646.5833333333334C4357.5546875,656.5,4357.5546875,668,4323.012369791667,679.5126733193101C4288.470052083333,691.0253466386202,4219.385416666667,702.5506932772405,4184.843098958333,708.3133665965505L4150.30078125,714.0760399158606" class="transition note-edge"></path><path d="M3525.44140625,395L3525.44140625,400.5C3525.44140625,406,3525.44140625,417,3525.44140625,428.25C3525.44140625,439.5,3525.44140625,451,3525.44140625,462.5C3525.44140625,474,3525.44140625,485.5,3498.2443055848817,498.5416666666667C3471.0472049197633,511.5833333333333,3416.6530035895266,526.1666666666666,3389.4559029244083,533.4583333333334L3362.2588022592904,540.75" class="transition note-edge"></path><path d="M3628.578125,1073L3628.578125,1078.75C3628.578125,1084.5,3628.578125,1096,3600.9905435569494,1107.5C3573.4029621139,1119,3518.2277992277996,1130.5,3490.640217784749,1136.25L3463.052636341699,1142" class="transition note-edge"></path><path d="M2981.58203125,1376.75L2981.58203125,1383.375C2981.58203125,1390,2981.58203125,1403.25,2990.823102678571,1415.625C3000.0641741071427,1428,3018.546316964286,1439.5,3027.787388392857,1445.25L3037.0284598214284,1451" class="transition note-edge"></path></g><g class="edgeLabels"><g class="edgeLabel"><g class="label" transform="translate(0, 0)"><rect rx="0" ry="0" width="0" height="0" style="fill:#e8e8e8;"></rect><text style=""></text></g></g><g class="edgeLabel"><g class="label" transform="translate(0, 0)"><rect rx="0" ry="0" width="0" height="0" style="fill:#e8e8e8;"></rect><text style=""></text></g></g><g class="edgeLabel" transform="translate(604.39453125, 146)"><g class="label" transform="translate(-60.0234375, -9.5)"><rect rx="0" ry="0" width="120.046875" height="19" style="fill:#e8e8e8;"></rect><text style=""><tspan xml:space="preserve" dy="1em" x="0" class="row">ClientEventOpen</tspan></text></g></g><g class="edgeLabel" transform="translate(490.625, 229.5)"><g class="label" transform="translate(-89.9453125, -9.5)"><rect rx="0" ry="0" width="179.890625" height="19" style="fill:#e8e8e8;"></rect><text style=""><tspan xml:space="preserve" dy="1em" x="0" class="row">ClientEventDealProposed</tspan></text></g></g><g class="edgeLabel" transform="translate(744.41796875, 462.5)"><g class="label" transform="translate(-89.546875, -9.5)"><rect rx="0" ry="0" width="179.09375" height="19" style="fill:#e8e8e8;"></rect><text style=""><tspan xml:space="preserve" dy="1em" x="0" class="row">ClientEventDealRejected</tspan></text></g></g><g class="edgeLabel" transform="translate(967.45703125, 462.5)"><g class="label" transform="translate(-91.5390625, -9.5)"><rect rx="0" ry="0" width="183.078125" height="19" style="fill:#e8e8e8;"></rect><text style=""><tspan xml:space="preserve" dy="1em" x="0" class="row">ClientEventDealNotFound</tspan></text></g></g><g class="edgeLabel" transform="translate(3127.18359375, 462.5)"><g class="label" transform="translate(-90.7265625, -9.5)"><rect rx="0" ry="0" width="181.453125" height="19" style="fill:#e8e8e8;"></rect><text style=""><tspan xml:space="preserve" dy="1em" x="0" class="row">ClientEventDealAccepted</tspan></text></g></g><g class="edgeLabel" transform="translate(895.6640625, 1172.25)"><g class="label" transform="translate(-128.1484375, -9.5)"><rect rx="0" ry="0" width="256.296875" height="19" style="fill:#e8e8e8;"></rect><text style=""><tspan xml:space="preserve" dy="1em" x="0" class="row">ClientEventPaymentChannelErrored</tspan></text></g></g><g class="edgeLabel" transform="translate(1043.8125, 1107.5)"><g class="label" transform="translate(-128.1484375, -9.5)"><rect rx="0" ry="0" width="256.296875" height="19" style="fill:#e8e8e8;"></rect><text style=""><tspan xml:space="preserve" dy="1em" x="0" class="row">ClientEventPaymentChannelErrored</tspan></text></g></g><g class="edgeLabel" transform="translate(1288.65625, 679.5)"><g class="label" transform="translate(-155.9453125, -9.5)"><rect rx="0" ry="0" width="311.890625" height="19" style="fill:#e8e8e8;"></rect><text style=""><tspan xml:space="preserve" dy="1em" x="0" class="row">ClientEventPaymentChannelCreateInitiated</tspan></text></g></g><g class="edgeLabel" transform="translate(3951.5, 679.5)"><g class="label" transform="translate(-146.359375, -9.5)"><rect rx="0" ry="0" width="292.71875" height="19" style="fill:#e8e8e8;"></rect><text style=""><tspan xml:space="preserve" dy="1em" x="0" class="row">ClientEventPaymentChannelAddingFunds</tspan></text></g></g><g class="edgeLabel" transform="translate(2857.26171875, 834)"><g class="label" transform="translate(-123.046875, -9.5)"><rect rx="0" ry="0" width="246.09375" height="19" style="fill:#e8e8e8;"></rect><text style=""><tspan xml:space="preserve" dy="1em" x="0" class="row">ClientEventPaymentChannelReady</tspan></text></g></g><g class="edgeLabel" transform="translate(4488.078125, 834)"><g class="label" transform="translate(-123.046875, -9.5)"><rect rx="0" ry="0" width="246.09375" height="19" style="fill:#e8e8e8;"></rect><text style=""><tspan xml:space="preserve" dy="1em" x="0" class="row">ClientEventPaymentChannelReady</tspan></text></g></g><g class="edgeLabel" transform="translate(1230.68359375, 1172.25)"><g class="label" transform="translate(-114.5859375, -9.5)"><rect rx="0" ry="0" width="229.171875" height="19" style="fill:#e8e8e8;"></rect><text style=""><tspan xml:space="preserve" dy="1em" x="0" class="row">ClientEventAllocateLaneErrored</tspan></text></g></g><g class="edgeLabel" transform="translate(1715.34375, 1172.25)"><g class="label" transform="translate(-114.5859375, -9.5)"><rect rx="0" ry="0" width="229.171875" height="19" style="fill:#e8e8e8;"></rect><text style=""><tspan xml:space="preserve" dy="1em" x="0" class="row">ClientEventAllocateLaneErrored</tspan></text></g></g><g class="edgeLabel" transform="translate(2012.3515625, 1172.25)"><g class="label" transform="translate(-162.421875, -9.5)"><rect rx="0" ry="0" width="324.84375" height="19" style="fill:#e8e8e8;"></rect><text style=""><tspan xml:space="preserve" dy="1em" x="0" class="row">ClientEventPaymentChannelAddFundsErrored</tspan></text></g></g><g class="edgeLabel" transform="translate(3942.06640625, 1262)"><g class="label" transform="translate(-124.703125, -9.5)"><rect rx="0" ry="0" width="249.40625" height="19" style="fill:#e8e8e8;"></rect><text style=""><tspan xml:space="preserve" dy="1em" x="0" class="row">ClientEventLastPaymentRequested</tspan></text></g></g><g class="edgeLabel" transform="translate(4464.92578125, 1107.5)"><g class="label" transform="translate(-124.703125, -9.5)"><rect rx="0" ry="0" width="249.40625" height="19" style="fill:#e8e8e8;"></rect><text style=""><tspan xml:space="preserve" dy="1em" x="0" class="row">ClientEventLastPaymentRequested</tspan></text></g></g><g class="edgeLabel" transform="translate(4673.31640625, 1351.75)"><g class="label" transform="translate(-124.703125, -9.5)"><rect rx="0" ry="0" width="249.40625" height="19" style="fill:#e8e8e8;"></rect><text style=""><tspan xml:space="preserve" dy="1em" x="0" class="row">ClientEventLastPaymentRequested</tspan></text></g></g><g class="edgeLabel" transform="translate(3672.66015625, 1262)"><g class="label" transform="translate(-124.703125, -9.5)"><rect rx="0" ry="0" width="249.40625" height="19" style="fill:#e8e8e8;"></rect><text style=""><tspan xml:space="preserve" dy="1em" x="0" class="row">ClientEventLastPaymentRequested</tspan></text></g></g><g class="edgeLabel" transform="translate(3616.76171875, 1172.25)"><g class="label" transform="translate(-110.0390625, -9.5)"><rect rx="0" ry="0" width="220.078125" height="19" style="fill:#e8e8e8;"></rect><text style=""><tspan xml:space="preserve" dy="1em" x="0" class="row">ClientEventPaymentRequested</tspan></text></g></g><g class="edgeLabel" transform="translate(3252.8984375, 1048)"><g class="label" transform="translate(-110.0390625, -9.5)"><rect rx="0" ry="0" width="220.078125" height="19" style="fill:#e8e8e8;"></rect><text style=""><tspan xml:space="preserve" dy="1em" x="0" class="row">ClientEventPaymentRequested</tspan></text></g></g><g class="edgeLabel" transform="translate(3469.49609375, 1107.5)"><g class="label" transform="translate(-110.0390625, -9.5)"><rect rx="0" ry="0" width="220.078125" height="19" style="fill:#e8e8e8;"></rect><text style=""><tspan xml:space="preserve" dy="1em" x="0" class="row">ClientEventPaymentRequested</tspan></text></g></g><g class="edgeLabel" transform="translate(3371.67578125, 462.5)"><g class="label" transform="translate(-133.765625, -9.5)"><rect rx="0" ry="0" width="267.53125" height="19" style="fill:#e8e8e8;"></rect><text style=""><tspan xml:space="preserve" dy="1em" x="0" class="row">ClientEventUnsealPaymentRequested</tspan></text></g></g><g class="edgeLabel" transform="translate(4096.42578125, 963.5)"><g class="label" transform="translate(-105.65625, -9.5)"><rect rx="0" ry="0" width="211.3125" height="19" style="fill:#e8e8e8;"></rect><text style=""><tspan xml:space="preserve" dy="1em" x="0" class="row">ClientEventAllBlocksReceived</tspan></text></g></g><g class="edgeLabel" transform="translate(3870.19140625, 1416.5)"><g class="label" transform="translate(-105.65625, -9.5)"><rect rx="0" ry="0" width="211.3125" height="19" style="fill:#e8e8e8;"></rect><text style=""><tspan xml:space="preserve" dy="1em" x="0" class="row">ClientEventAllBlocksReceived</tspan></text></g></g><g class="edgeLabel" transform="translate(4339.26953125, 1048)"><g class="label" transform="translate(-105.65625, -9.5)"><rect rx="0" ry="0" width="211.3125" height="19" style="fill:#e8e8e8;"></rect><text style=""><tspan xml:space="preserve" dy="1em" x="0" class="row">ClientEventAllBlocksReceived</tspan></text></g></g><g class="edgeLabel" transform="translate(3843.01953125, 1172.25)"><g class="label" transform="translate(-96.21875, -9.5)"><rect rx="0" ry="0" width="192.4375" height="19" style="fill:#e8e8e8;"></rect><text style=""><tspan xml:space="preserve" dy="1em" x="0" class="row">ClientEventBlocksReceived</tspan></text></g></g><g class="edgeLabel" transform="translate(4104.5859375, 898.75)"><g class="label" transform="translate(-96.21875, -9.5)"><rect rx="0" ry="0" width="192.4375" height="19" style="fill:#e8e8e8;"></rect><text style=""><tspan xml:space="preserve" dy="1em" x="0" class="row">ClientEventBlocksReceived</tspan></text></g></g><g class="edgeLabel" transform="translate(4914.23828125, 1351.75)"><g class="label" transform="translate(-96.21875, -9.5)"><rect rx="0" ry="0" width="192.4375" height="19" style="fill:#e8e8e8;"></rect><text style=""><tspan xml:space="preserve" dy="1em" x="0" class="row">ClientEventBlocksReceived</tspan></text></g></g><g class="edgeLabel" transform="translate(2670.3984375, 1351.75)"><g class="label" transform="translate(-79.1171875, -9.5)"><rect rx="0" ry="0" width="158.234375" height="19" style="fill:#e8e8e8;"></rect><text style=""><tspan xml:space="preserve" dy="1em" x="0" class="row">ClientEventSendFunds</tspan></text></g></g><g class="edgeLabel" transform="translate(4487.71875, 1416.5)"><g class="label" transform="translate(-79.1171875, -9.5)"><rect rx="0" ry="0" width="158.234375" height="19" style="fill:#e8e8e8;"></rect><text style=""><tspan xml:space="preserve" dy="1em" x="0" class="row">ClientEventSendFunds</tspan></text></g></g><g class="edgeLabel" transform="translate(2413.9609375, 1571)"><g class="label" transform="translate(-96.84375, -9.5)"><rect rx="0" ry="0" width="193.6875" height="19" style="fill:#e8e8e8;"></rect><text style=""><tspan xml:space="preserve" dy="1em" x="0" class="row">ClientEventFundsExpended</tspan></text></g></g><g class="edgeLabel" transform="translate(2627.6484375, 1571)"><g class="label" transform="translate(-96.84375, -9.5)"><rect rx="0" ry="0" width="193.6875" height="19" style="fill:#e8e8e8;"></rect><text style=""><tspan xml:space="preserve" dy="1em" x="0" class="row">ClientEventFundsExpended</tspan></text></g></g><g class="edgeLabel" transform="translate(2918.08203125, 1571)"><g class="label" transform="translate(-123.2265625, -9.5)"><rect rx="0" ry="0" width="246.453125" height="19" style="fill:#e8e8e8;"></rect><text style=""><tspan xml:space="preserve" dy="1em" x="0" class="row">ClientEventBadPaymentRequested</tspan></text></g></g><g class="edgeLabel" transform="translate(3184.53515625, 1571)"><g class="label" transform="translate(-123.2265625, -9.5)"><rect rx="0" ry="0" width="246.453125" height="19" style="fill:#e8e8e8;"></rect><text style=""><tspan xml:space="preserve" dy="1em" x="0" class="row">ClientEventBadPaymentRequested</tspan></text></g></g><g class="edgeLabel" transform="translate(3444.23046875, 1571)"><g class="label" transform="translate(-116.46875, -9.5)"><rect rx="0" ry="0" width="232.9375" height="19" style="fill:#e8e8e8;"></rect><text style=""><tspan xml:space="preserve" dy="1em" x="0" class="row">ClientEventCreateVoucherFailed</tspan></text></g></g><g class="edgeLabel" transform="translate(4281.5078125, 1571)"><g class="label" transform="translate(-116.46875, -9.5)"><rect rx="0" ry="0" width="232.9375" height="19" style="fill:#e8e8e8;"></rect><text style=""><tspan xml:space="preserve" dy="1em" x="0" class="row">ClientEventCreateVoucherFailed</tspan></text></g></g><g class="edgeLabel" transform="translate(2962.28515625, 1172.25)"><g class="label" transform="translate(-88.3515625, -9.5)"><rect rx="0" ry="0" width="176.703125" height="19" style="fill:#e8e8e8;"></rect><text style=""><tspan xml:space="preserve" dy="1em" x="0" class="row">ClientEventPaymentSent</tspan></text></g></g><g class="edgeLabel" transform="translate(5361.8515625, 1571)"><g class="label" transform="translate(-88.3515625, -9.5)"><rect rx="0" ry="0" width="176.703125" height="19" style="fill:#e8e8e8;"></rect><text style=""><tspan xml:space="preserve" dy="1em" x="0" class="row">ClientEventPaymentSent</tspan></text></g></g><g class="edgeLabel" transform="translate(5030.45703125, 1262)"><g class="label" transform="translate(-75.875, -9.5)"><rect rx="0" ry="0" width="151.75" height="19" style="fill:#e8e8e8;"></rect><text style=""><tspan xml:space="preserve" dy="1em" x="0" class="row">ClientEventComplete</tspan></text></g></g><g class="edgeLabel" transform="translate(4794.33203125, 1700.5)"><g class="label" transform="translate(-75.875, -9.5)"><rect rx="0" ry="0" width="151.75" height="19" style="fill:#e8e8e8;"></rect><text style=""><tspan xml:space="preserve" dy="1em" x="0" class="row">ClientEventComplete</tspan></text></g></g><g class="edgeLabel" transform="translate(5339.98828125, 1700.5)"><g class="label" transform="translate(-104.390625, -9.5)"><rect rx="0" ry="0" width="208.78125" height="19" style="fill:#e8e8e8;"></rect><text style=""><tspan xml:space="preserve" dy="1em" x="0" class="row">ClientEventCompleteVerified</tspan></text></g></g><g class="edgeLabel" transform="translate(3209.05859375, 1700.5)"><g class="label" transform="translate(-103.078125, -9.5)"><rect rx="0" ry="0" width="206.15625" height="19" style="fill:#e8e8e8;"></rect><text style=""><tspan xml:space="preserve" dy="1em" x="0" class="row">ClientEventEarlyTermination</tspan></text></g></g><g class="edgeLabel" transform="translate(3432.05859375, 1700.5)"><g class="label" transform="translate(-99.921875, -9.5)"><rect rx="0" ry="0" width="199.84375" height="19" style="fill:#e8e8e8;"></rect><text style=""><tspan xml:space="preserve" dy="1em" x="0" class="row">ClientEventCancelComplete</tspan></text></g></g><g class="edgeLabel"><g class="label" transform="translate(0, 0)"><rect rx="0" ry="0" width="0" height="0" style="fill:#e8e8e8;"></rect><text style=""></text></g></g><g class="edgeLabel"><g class="label" transform="translate(0, 0)"><rect rx="0" ry="0" width="0" height="0" style="fill:#e8e8e8;"></rect><text style=""></text></g></g><g class="edgeLabel"><g class="label" transform="translate(0, 0)"><rect rx="0" ry="0" width="0" height="0" style="fill:#e8e8e8;"></rect><text style=""></text></g></g><g class="edgeLabel"><g class="label" transform="translate(0, 0)"><rect rx="0" ry="0" width="0" height="0" style="fill:#e8e8e8;"></rect><text style=""></text></g></g><g class="edgeLabel"><g class="label" transform="translate(0, 0)"><rect rx="0" ry="0" width="0" height="0" style="fill:#e8e8e8;"></rect><text style=""></text></g></g><g class="edgeLabel"><g class="label" transform="translate(0, 0)"><rect rx="0" ry="0" width="0" height="0" style="fill:#e8e8e8;"></rect><text style=""></text></g></g></g><g class="nodes"><g class="node statediagram-state" id="0" transform="translate(384.72265625, 146)"><rect class="outer title-state" x="-102.59375" y="-30.25" width="205.1875" height="60.5"></rect><line class="divider" x1="-102.59375" x2="102.59375" y1="-3.75" y2="-3.75"></line><g class="label" transform="translate(-95.09375, -27.25)"><text style=""><tspan xml:space="preserve" dy="1em" x="0" class="title-row">DealStatusNew</tspan></text><text style="" transform="translate( 0, 26.5)"><tspan xml:space="preserve" dy="1em" x="0" class="title-row">On entry runs ProposeDeal</tspan></text></g></g><g class="node statediagram-state" id="3" transform="translate(960, 346)"><rect class="outer title-state" x="-114.9453125" y="-17" width="229.890625" height="34"></rect><line class="divider" x1="-114.9453125" x2="114.9453125" y1="9.5" y2="9.5"></line><g class="label" transform="translate(-107.4453125, -14)"><text style=""><tspan xml:space="preserve" dy="1em" x="0" class="title-row">DealStatusWaitForAcceptance</tspan></text><text style="" transform="translate( 0, 26.5)"><tspan xml:space="preserve" dy="1em" x="0" class="title-row"></tspan></text></g></g><g class="node statediagram-state" id="4" transform="translate(1410.2578125, 744.25)"><rect class="outer title-state" x="-170.59375" y="-30.25" width="341.1875" height="60.5"></rect><line class="divider" x1="-170.59375" x2="170.59375" y1="-3.75" y2="-3.75"></line><g class="label" transform="translate(-163.09375, -27.25)"><text style=""><tspan xml:space="preserve" dy="1em" x="0" class="title-row">DealStatusPaymentChannelCreating</tspan></text><text style="" transform="translate( 0, 26.5)"><tspan xml:space="preserve" dy="1em" x="0" class="title-row">On entry runs WaitForPaymentChannelCreate</tspan></text></g></g><g class="node statediagram-state" id="5" transform="translate(3969.43359375, 744.25)"><rect class="outer title-state" x="-180.8671875" y="-30.25" width="361.734375" height="60.5"></rect><line class="divider" x1="-180.8671875" x2="180.8671875" y1="-3.75" y2="-3.75"></line><g class="label" transform="translate(-173.3671875, -27.25)"><text style=""><tspan xml:space="preserve" dy="1em" x="0" class="title-row">DealStatusPaymentChannelAddingFunds</tspan></text><text style="" transform="translate( 0, 26.5)"><tspan xml:space="preserve" dy="1em" x="0" class="title-row">On entry runs WaitForPaymentChannelAddFunds</tspan></text></g></g><g class="node statediagram-state" id="6" transform="translate(3249.4296875, 571)"><rect class="outer title-state" x="-156.2421875" y="-30.25" width="312.484375" height="60.5"></rect><line class="divider" x1="-156.2421875" x2="156.2421875" y1="-3.75" y2="-3.75"></line><g class="label" transform="translate(-148.7421875, -27.25)"><text style=""><tspan xml:space="preserve" dy="1em" x="0" class="title-row">DealStatusAccepted</tspan></text><text style="" transform="translate( 0, 26.5)"><tspan xml:space="preserve" dy="1em" x="0" class="title-row">On entry runs SetupPaymentChannelStart</tspan></text></g></g><g class="node statediagram-state" id="8" transform="translate(2936.5078125, 1635.75)"><rect class="outer title-state" x="-98.421875" y="-30.25" width="196.84375" height="60.5"></rect><line class="divider" x1="-98.421875" x2="98.421875" y1="-3.75" y2="-3.75"></line><g class="label" transform="translate(-90.921875, -27.25)"><text style=""><tspan xml:space="preserve" dy="1em" x="0" class="title-row">DealStatusFailing</tspan></text><text style="" transform="translate( 0, 26.5)"><tspan xml:space="preserve" dy="1em" x="0" class="title-row">On entry runs CancelDeal</tspan></text></g></g><g class="node statediagram-state" id="9" transform="translate(744.41796875, 571)"><rect class="outer title-state" x="-77.609375" y="-17" width="155.21875" height="34"></rect><line class="divider" x1="-77.609375" x2="77.609375" y1="9.5" y2="9.5"></line><g class="label" transform="translate(-70.109375, -14)"><text style=""><tspan xml:space="preserve" dy="1em" x="0" class="title-row">DealStatusRejected</tspan></text><text style="" transform="translate( 0, 26.5)"><tspan xml:space="preserve" dy="1em" x="0" class="title-row"></tspan></text></g></g><g class="node statediagram-state" id="10" transform="translate(3317.91796875, 1172.25)"><rect class="outer title-state" x="-153.8046875" y="-30.25" width="307.609375" height="60.5"></rect><line class="divider" x1="-153.8046875" x2="153.8046875" y1="-3.75" y2="-3.75"></line><g class="label" transform="translate(-146.3046875, -27.25)"><text style=""><tspan xml:space="preserve" dy="1em" x="0" class="title-row">DealStatusFundsNeeded</tspan></text><text style="" transform="translate( 0, 26.5)"><tspan xml:space="preserve" dy="1em" x="0" class="title-row">On entry runs ProcessPaymentRequested</tspan></text></g></g><g class="node statediagram-state" id="11" transform="translate(3085.64453125, 1481.25)"><rect class="outer title-state" x="-96.21875" y="-30.25" width="192.4375" height="60.5"></rect><line class="divider" x1="-96.21875" x2="96.21875" y1="-3.75" y2="-3.75"></line><g class="label" transform="translate(-88.71875, -27.25)"><text style=""><tspan xml:space="preserve" dy="1em" x="0" class="title-row">DealStatusSendFunds</tspan></text><text style="" transform="translate( 0, 26.5)"><tspan xml:space="preserve" dy="1em" x="0" class="title-row">On entry runs SendFunds</tspan></text></g></g><g class="node statediagram-state" id="12" transform="translate(3879.71484375, 1481.25)"><rect class="outer title-state" x="-128.8359375" y="-30.25" width="257.671875" height="60.5"></rect><line class="divider" x1="-128.8359375" x2="128.8359375" y1="-3.75" y2="-3.75"></line><g class="label" transform="translate(-121.3359375, -27.25)"><text style=""><tspan xml:space="preserve" dy="1em" x="0" class="title-row">DealStatusSendFundsLastPayment</tspan></text><text style="" transform="translate( 0, 26.5)"><tspan xml:space="preserve" dy="1em" x="0" class="title-row">On entry runs SendFunds</tspan></text></g></g><g class="node statediagram-state" id="13" transform="translate(3886.0859375, 898.75)"><rect class="outer title-state" x="-87.28125" y="-30.25" width="174.5625" height="60.5"></rect><line class="divider" x1="-87.28125" x2="87.28125" y1="-3.75" y2="-3.75"></line><g class="label" transform="translate(-79.78125, -27.25)"><text style=""><tspan xml:space="preserve" dy="1em" x="0" class="title-row">DealStatusOngoing</tspan></text><text style="" transform="translate( 0, 26.5)"><tspan xml:space="preserve" dy="1em" x="0" class="title-row">On entry runs Ongoing</tspan></text></g></g><g class="node statediagram-state" id="14" transform="translate(4359.80859375, 1351.75)"><rect class="outer title-state" x="-153.8046875" y="-30.25" width="307.609375" height="60.5"></rect><line class="divider" x1="-153.8046875" x2="153.8046875" y1="-3.75" y2="-3.75"></line><g class="label" transform="translate(-146.3046875, -27.25)"><text style=""><tspan xml:space="preserve" dy="1em" x="0" class="title-row">DealStatusFundsNeededLastPayment</tspan></text><text style="" transform="translate( 0, 26.5)"><tspan xml:space="preserve" dy="1em" x="0" class="title-row">On entry runs ProcessPaymentRequested</tspan></text></g></g><g class="node statediagram-state" id="15" transform="translate(5339.98828125, 1752)"><rect class="outer title-state" x="-84.2265625" y="-17" width="168.453125" height="34"></rect><line class="divider" x1="-84.2265625" x2="84.2265625" y1="9.5" y2="9.5"></line><g class="label" transform="translate(-76.7265625, -14)"><text style=""><tspan xml:space="preserve" dy="1em" x="0" class="title-row">DealStatusCompleted</tspan></text><text style="" transform="translate( 0, 26.5)"><tspan xml:space="preserve" dy="1em" x="0" class="title-row"></tspan></text></g></g><g class="node statediagram-state" id="16" transform="translate(967.45703125, 571)"><rect class="outer title-state" x="-95.4296875" y="-17" width="190.859375" height="34"></rect><line class="divider" x1="-95.4296875" x2="95.4296875" y1="9.5" y2="9.5"></line><g class="label" transform="translate(-87.9296875, -14)"><text style=""><tspan xml:space="preserve" dy="1em" x="0" class="title-row">DealStatusDealNotFound</tspan></text><text style="" transform="translate( 0, 26.5)"><tspan xml:space="preserve" dy="1em" x="0" class="title-row"></tspan></text></g></g><g class="node statediagram-state" id="17" transform="translate(3432.05859375, 1752)"><rect class="outer title-state" x="-72.0625" y="-17" width="144.125" height="34"></rect><line class="divider" x1="-72.0625" x2="72.0625" y1="9.5" y2="9.5"></line><g class="label" transform="translate(-64.5625, -14)"><text style=""><tspan xml:space="preserve" dy="1em" x="0" class="title-row">DealStatusErrored</tspan></text><text style="" transform="translate( 0, 26.5)"><tspan xml:space="preserve" dy="1em" x="0" class="title-row"></tspan></text></g></g><g class="node statediagram-state" id="18" transform="translate(4096.42578125, 1048)"><rect class="outer title-state" x="-102.1875" y="-17" width="204.375" height="34"></rect><line class="divider" x1="-102.1875" x2="102.1875" y1="9.5" y2="9.5"></line><g class="label" transform="translate(-94.6875, -14)"><text style=""><tspan xml:space="preserve" dy="1em" x="0" class="title-row">DealStatusBlocksComplete</tspan></text><text style="" transform="translate( 0, 26.5)"><tspan xml:space="preserve" dy="1em" x="0" class="title-row"></tspan></text></g></g><g class="node statediagram-state" id="19" transform="translate(5361.8515625, 1635.75)"><rect class="outer title-state" x="-79.5" y="-17" width="159" height="34"></rect><line class="divider" x1="-79.5" x2="79.5" y1="9.5" y2="9.5"></line><g class="label" transform="translate(-72, -14)"><text style=""><tspan xml:space="preserve" dy="1em" x="0" class="title-row">DealStatusFinalizing</tspan></text><text style="" transform="translate( 0, 26.5)"><tspan xml:space="preserve" dy="1em" x="0" class="title-row"></tspan></text></g></g><g class="node statediagram-state" id="21" transform="translate(5030.45703125, 1635.75)"><rect class="outer title-state" x="-114.4921875" y="-30.25" width="228.984375" height="60.5"></rect><line class="divider" x1="-114.4921875" x2="114.4921875" y1="-3.75" y2="-3.75"></line><g class="label" transform="translate(-106.9921875, -27.25)"><text style=""><tspan xml:space="preserve" dy="1em" x="0" class="title-row">DealStatusCheckComplete</tspan></text><text style="" transform="translate( 0, 26.5)"><tspan xml:space="preserve" dy="1em" x="0" class="title-row">On entry runs CheckComplete</tspan></text></g></g><g class="node default" id="root_start" transform="translate(384.72265625, 15)"><circle class="state-start" r="7" width="14" height="14"></circle></g><g class="node statediagram-note" id="0----note" transform="translate(329.75, 346)"><rect x="-286.75" y="-57" width="573.5" height="114"></rect><g class="label" transform="translate(-279.25, -49.5)"><text style=""><tspan xml:space="preserve" dy="1em" x="0" class="row">The following events are not shown cause they can trigger from any state.</tspan><tspan xml:space="preserve" dy="1em" x="0" class="row"></tspan><tspan xml:space="preserve" dy="1em" x="0" class="row">ClientEventWriteDealProposalErrored - transitions state to DealStatusErrored</tspan><tspan xml:space="preserve" dy="1em" x="0" class="row">ClientEventUnknownResponseReceived - transitions state to DealStatusFailing</tspan><tspan xml:space="preserve" dy="1em" x="0" class="row">ClientEventDataTransferError - transitions state to DealStatusErrored</tspan><tspan xml:space="preserve" dy="1em" x="0" class="row">ClientEventWriteDealPaymentErrored - transitions state to DealStatusErrored</tspan><tspan xml:space="preserve" dy="1em" x="0" class="row">&lt;invalid reflect.Value&gt; - transitions state to DealStatusErrored</tspan></text></g></g><g class="node statediagram-note" id="3----note" transform="translate(960, 146)"><rect x="-173.125" y="-49" width="346.25" height="98"></rect><g class="label" transform="translate(-165.625, -41.5)"><text style=""><tspan xml:space="preserve" dy="1em" x="0" class="row">The following events only record in this state.</tspan><tspan xml:space="preserve" dy="1em" x="0" class="row"></tspan><tspan xml:space="preserve" dy="1em" x="0" class="row">ClientEventLastPaymentRequested</tspan><tspan xml:space="preserve" dy="1em" x="0" class="row">ClientEventPaymentRequested</tspan><tspan xml:space="preserve" dy="1em" x="0" class="row">ClientEventAllBlocksReceived</tspan><tspan xml:space="preserve" dy="1em" x="0" class="row">ClientEventBlocksReceived</tspan></text></g></g><g class="node statediagram-note" id="4----note" transform="translate(1747.33203125, 571)"><rect x="-173.125" y="-49" width="346.25" height="98"></rect><g class="label" transform="translate(-165.625, -41.5)"><text style=""><tspan xml:space="preserve" dy="1em" x="0" class="row">The following events only record in this state.</tspan><tspan xml:space="preserve" dy="1em" x="0" class="row"></tspan><tspan xml:space="preserve" dy="1em" x="0" class="row">ClientEventLastPaymentRequested</tspan><tspan xml:space="preserve" dy="1em" x="0" class="row">ClientEventPaymentRequested</tspan><tspan xml:space="preserve" dy="1em" x="0" class="row">ClientEventAllBlocksReceived</tspan><tspan xml:space="preserve" dy="1em" x="0" class="row">ClientEventBlocksReceived</tspan></text></g></g><g class="node statediagram-note" id="5----note" transform="translate(4357.5546875, 571)"><rect x="-173.125" y="-49" width="346.25" height="98"></rect><g class="label" transform="translate(-165.625, -41.5)"><text style=""><tspan xml:space="preserve" dy="1em" x="0" class="row">The following events only record in this state.</tspan><tspan xml:space="preserve" dy="1em" x="0" class="row"></tspan><tspan xml:space="preserve" dy="1em" x="0" class="row">ClientEventLastPaymentRequested</tspan><tspan xml:space="preserve" dy="1em" x="0" class="row">ClientEventPaymentRequested</tspan><tspan xml:space="preserve" dy="1em" x="0" class="row">ClientEventAllBlocksReceived</tspan><tspan xml:space="preserve" dy="1em" x="0" class="row">ClientEventBlocksReceived</tspan></text></g></g><g class="node statediagram-note" id="6----note" transform="translate(3525.44140625, 346)"><rect x="-173.125" y="-49" width="346.25" height="98"></rect><g class="label" transform="translate(-165.625, -41.5)"><text style=""><tspan xml:space="preserve" dy="1em" x="0" class="row">The following events only record in this state.</tspan><tspan xml:space="preserve" dy="1em" x="0" class="row"></tspan><tspan xml:space="preserve" dy="1em" x="0" class="row">ClientEventLastPaymentRequested</tspan><tspan xml:space="preserve" dy="1em" x="0" class="row">ClientEventPaymentRequested</tspan><tspan xml:space="preserve" dy="1em" x="0" class="row">ClientEventAllBlocksReceived</tspan><tspan xml:space="preserve" dy="1em" x="0" class="row">ClientEventBlocksReceived</tspan></text></g></g><g class="node statediagram-note" id="10----note" transform="translate(3628.578125, 1048)"><rect x="-173.125" y="-25" width="346.25" height="50"></rect><g class="label" transform="translate(-165.625, -17.5)"><text style=""><tspan xml:space="preserve" dy="1em" x="0" class="row">The following events only record in this state.</tspan><tspan xml:space="preserve" dy="1em" x="0" class="row"></tspan><tspan xml:space="preserve" dy="1em" x="0" class="row">ClientEventAllBlocksReceived</tspan></text></g></g><g class="node statediagram-note" id="11----note" transform="translate(2981.58203125, 1351.75)"><rect x="-173.125" y="-25" width="346.25" height="50"></rect><g class="label" transform="translate(-165.625, -17.5)"><text style=""><tspan xml:space="preserve" dy="1em" x="0" class="row">The following events only record in this state.</tspan><tspan xml:space="preserve" dy="1em" x="0" class="row"></tspan><tspan xml:space="preserve" dy="1em" x="0" class="row">ClientEventAllBlocksReceived</tspan></text></g></g></g></g></g></svg>