<svg id="mermaid-1594410658114" width="2089.64453125" xmlns="http://www.w3.org/2000/svg" class="statediagram" height="984.5" viewBox="0 0 2089.64453125 984.5"><style>#mermaid-1594410658114 .label{font-family:'trebuchet ms', verdana, arial;font-family:var(--mermaid-font-family);color:#333}#mermaid-1594410658114 .label text{fill:#333}#mermaid-1594410658114 .node rect,#mermaid-1594410658114 .node circle,#mermaid-1594410658114 .node ellipse,#mermaid-1594410658114 .node polygon,#mermaid-1594410658114 .node path{fill:#ECECFF;stroke:#9370db;stroke-width:1px}#mermaid-1594410658114 .node .label{text-align:center}#mermaid-1594410658114 .node.clickable{cursor:pointer}#mermaid-1594410658114 .arrowheadPath{fill:#333}#mermaid-1594410658114 .edgePath .path{stroke:#333;stroke-width:1.5px}#mermaid-1594410658114 .edgeLabel{background-color:#e8e8e8;text-align:center}#mermaid-1594410658114 .edgeLabel rect{opacity:0.5}#mermaid-1594410658114 .cluster rect{fill:#ffffde;stroke:#aa3;stroke-width:1px}#mermaid-1594410658114 .cluster text{fill:#333}#mermaid-1594410658114 div.mermaidTooltip{position:absolute;text-align:center;max-width:200px;padding:2px;font-family:'trebuchet ms', verdana, arial;font-family:var(--mermaid-font-family);font-size:12px;background:#ffffde;border:1px solid #aa3;border-radius:2px;pointer-events:none;z-index:100}#mermaid-1594410658114 .actor{stroke:#ccf;fill:#ECECFF}#mermaid-1594410658114 text.actor{fill:#000;stroke:none}#mermaid-1594410658114 .actor-line{stroke:grey}#mermaid-1594410658114 .messageLine0{stroke-width:1.5;stroke-dasharray:'2 2';stroke:#333}#mermaid-1594410658114 .messageLine1{stroke-width:1.5;stroke-dasharray:'2 2';stroke:#333}#mermaid-1594410658114 #arrowhead{fill:#333}#mermaid-1594410658114 .sequenceNumber{fill:#fff}#mermaid-1594410658114 #sequencenumber{fill:#333}#mermaid-1594410658114 #crosshead path{fill:#333 !important;stroke:#333 !important}#mermaid-1594410658114 .messageText{fill:#333;stroke:none}#mermaid-1594410658114 .labelBox{stroke:#ccf;fill:#ECECFF}#mermaid-1594410658114 .labelText{fill:#000;stroke:none}#mermaid-1594410658114 .loopText{fill:#000;stroke:none}#mermaid-1594410658114 .loopLine{stroke-width:2;stroke-dasharray:'2 2';stroke:#ccf}#mermaid-1594410658114 .note{stroke:#aa3;fill:#fff5ad}#mermaid-1594410658114 .noteText{fill:black;stroke:none;font-family:'trebuchet ms', verdana, arial;font-family:var(--mermaid-font-family);font-size:14px}#mermaid-1594410658114 .activation0{fill:#f4f4f4;stroke:#666}#mermaid-1594410658114 .activation1{fill:#f4f4f4;stroke:#666}#mermaid-1594410658114 .activation2{fill:#f4f4f4;stroke:#666}#mermaid-1594410658114 .mermaid-main-font{font-family:"trebuchet ms", verdana, arial;font-family:var(--mermaid-font-family)}#mermaid-1594410658114 .section{stroke:none;opacity:0.2}#mermaid-1594410658114 .section0{fill:rgba(102,102,255,0.49)}#mermaid-1594410658114 .section2{fill:#fff400}#mermaid-1594410658114 .section1,#mermaid-1594410658114 .section3{fill:#fff;opacity:0.2}#mermaid-1594410658114 .sectionTitle0{fill:#333}#mermaid-1594410658114 .sectionTitle1{fill:#333}#mermaid-1594410658114 .sectionTitle2{fill:#333}#mermaid-1594410658114 .sectionTitle3{fill:#333}#mermaid-1594410658114 .sectionTitle{text-anchor:start;font-size:11px;text-height:14px;font-family:'trebuchet ms', verdana, arial;font-family:var(--mermaid-font-family)}#mermaid-1594410658114 .grid .tick{stroke:#d3d3d3;opacity:0.8;shape-rendering:crispEdges}#mermaid-1594410658114 .grid .tick text{font-family:'trebuchet ms', verdana, arial;font-family:var(--mermaid-font-family)}#mermaid-1594410658114 .grid path{stroke-width:0}#mermaid-1594410658114 .today{fill:none;stroke:red;stroke-width:2px}#mermaid-1594410658114 .task{stroke-width:2}#mermaid-1594410658114 .taskText{text-anchor:middle;font-family:'trebuchet ms', verdana, arial;font-family:var(--mermaid-font-family)}#mermaid-1594410658114 .taskText:not([font-size]){font-size:11px}#mermaid-1594410658114 .taskTextOutsideRight{fill:#000;text-anchor:start;font-size:11px;font-family:'trebuchet ms', verdana, arial;font-family:var(--mermaid-font-family)}#mermaid-1594410658114 .taskTextOutsideLeft{fill:#000;text-anchor:end;font-size:11px}#mermaid-1594410658114 .task.clickable{cursor:pointer}#mermaid-1594410658114 .taskText.clickable{cursor:pointer;fill:#003163 !important;font-weight:bold}#mermaid-1594410658114 .taskTextOutsideLeft.clickable{cursor:pointer;fill:#003163 !important;font-weight:bold}#mermaid-1594410658114 .taskTextOutsideRight.clickable{cursor:pointer;fill:#003163 !important;font-weight:bold}#mermaid-1594410658114 .taskText0,#mermaid-1594410658114 .taskText1,#mermaid-1594410658114 .taskText2,#mermaid-1594410658114 .taskText3{fill:#fff}#mermaid-1594410658114 .task0,#mermaid-1594410658114 .task1,#mermaid-1594410658114 .task2,#mermaid-1594410658114 .task3{fill:#8a90dd;stroke:#534fbc}#mermaid-1594410658114 .taskTextOutside0,#mermaid-1594410658114 .taskTextOutside2{fill:#000}#mermaid-1594410658114 .taskTextOutside1,#mermaid-1594410658114 .taskTextOutside3{fill:#000}#mermaid-1594410658114 .active0,#mermaid-1594410658114 .active1,#mermaid-1594410658114 .active2,#mermaid-1594410658114 .active3{fill:#bfc7ff;stroke:#534fbc}#mermaid-1594410658114 .activeText0,#mermaid-1594410658114 .activeText1,#mermaid-1594410658114 .activeText2,#mermaid-1594410658114 .activeText3{fill:#000 !important}#mermaid-1594410658114 .done0,#mermaid-1594410658114 .done1,#mermaid-1594410658114 .done2,#mermaid-1594410658114 .done3{stroke:grey;fill:#d3d3d3;stroke-width:2}#mermaid-1594410658114 .doneText0,#mermaid-1594410658114 .doneText1,#mermaid-1594410658114 .doneText2,#mermaid-1594410658114 .doneText3{fill:#000 !important}#mermaid-1594410658114 .crit0,#mermaid-1594410658114 .crit1,#mermaid-1594410658114 .crit2,#mermaid-1594410658114 .crit3{stroke:#f88;fill:red;stroke-width:2}#mermaid-1594410658114 .activeCrit0,#mermaid-1594410658114 .activeCrit1,#mermaid-1594410658114 .activeCrit2,#mermaid-1594410658114 .activeCrit3{stroke:#f88;fill:#bfc7ff;stroke-width:2}#mermaid-1594410658114 .doneCrit0,#mermaid-1594410658114 .doneCrit1,#mermaid-1594410658114 .doneCrit2,#mermaid-1594410658114 .doneCrit3{stroke:#f88;fill:#d3d3d3;stroke-width:2;cursor:pointer;shape-rendering:crispEdges}#mermaid-1594410658114 .milestone{transform:rotate(45deg) scale(0.8, 0.8)}#mermaid-1594410658114 .milestoneText{font-style:italic}#mermaid-1594410658114 .doneCritText0,#mermaid-1594410658114 .doneCritText1,#mermaid-1594410658114 .doneCritText2,#mermaid-1594410658114 .doneCritText3{fill:#000 !important}#mermaid-1594410658114 .activeCritText0,#mermaid-1594410658114 .activeCritText1,#mermaid-1594410658114 .activeCritText2,#mermaid-1594410658114 .activeCritText3{fill:#000 !important}#mermaid-1594410658114 .titleText{text-anchor:middle;font-size:18px;fill:#000;font-family:'trebuchet ms', verdana, arial;font-family:var(--mermaid-font-family)}#mermaid-1594410658114 g.classGroup text{fill:#9370db;stroke:none;font-family:'trebuchet ms', verdana, arial;font-family:var(--mermaid-font-family);font-size:10px}#mermaid-1594410658114 g.classGroup text .title{font-weight:bolder}#mermaid-1594410658114 g.clickable{cursor:pointer}#mermaid-1594410658114 g.classGroup rect{fill:#ECECFF;stroke:#9370db}#mermaid-1594410658114 g.classGroup line{stroke:#9370db;stroke-width:1}#mermaid-1594410658114 .classLabel .box{stroke:none;stroke-width:0;fill:#ECECFF;opacity:0.5}#mermaid-1594410658114 .classLabel .label{fill:#9370db;font-size:10px}#mermaid-1594410658114 .relation{stroke:#9370db;stroke-width:1;fill:none}#mermaid-1594410658114 .dashed-line{stroke-dasharray:3}#mermaid-1594410658114 #compositionStart{fill:#9370db;stroke:#9370db;stroke-width:1}#mermaid-1594410658114 #compositionEnd{fill:#9370db;stroke:#9370db;stroke-width:1}#mermaid-1594410658114 #aggregationStart{fill:#ECECFF;stroke:#9370db;stroke-width:1}#mermaid-1594410658114 #aggregationEnd{fill:#ECECFF;stroke:#9370db;stroke-width:1}#mermaid-1594410658114 #dependencyStart{fill:#9370db;stroke:#9370db;stroke-width:1}#mermaid-1594410658114 #dependencyEnd{fill:#9370db;stroke:#9370db;stroke-width:1}#mermaid-1594410658114 #extensionStart{fill:#9370db;stroke:#9370db;stroke-width:1}#mermaid-1594410658114 #extensionEnd{fill:#9370db;stroke:#9370db;stroke-width:1}#mermaid-1594410658114 .commit-id,#mermaid-1594410658114 .commit-msg,#mermaid-1594410658114 .branch-label{fill:lightgrey;color:lightgrey;font-family:'trebuchet ms', verdana, arial;font-family:var(--mermaid-font-family)}#mermaid-1594410658114 .pieTitleText{text-anchor:middle;font-size:25px;fill:#000;font-family:'trebuchet ms', verdana, arial;font-family:var(--mermaid-font-family)}#mermaid-1594410658114 .slice{font-family:'trebuchet ms', verdana, arial;font-family:var(--mermaid-font-family)}#mermaid-1594410658114 g.stateGroup text{fill:#9370db;stroke:none;font-size:10px;font-family:'trebuchet ms', verdana, arial;font-family:var(--mermaid-font-family)}#mermaid-1594410658114 g.stateGroup text{fill:#9370db;stroke:none;font-size:10px}#mermaid-1594410658114 g.stateGroup .state-title{font-weight:bolder;fill:#000}#mermaid-1594410658114 g.stateGroup rect{fill:#ECECFF;stroke:#9370db}#mermaid-1594410658114 g.stateGroup line{stroke:#9370db;stroke-width:1}#mermaid-1594410658114 .transition{stroke:#9370db;stroke-width:1;fill:none}#mermaid-1594410658114 .stateGroup .composit{fill:white;border-bottom:1px}#mermaid-1594410658114 .stateGroup .alt-composit{fill:#e0e0e0;border-bottom:1px}#mermaid-1594410658114 .state-note{stroke:#aa3;fill:#fff5ad}#mermaid-1594410658114 .state-note text{fill:black;stroke:none;font-size:10px}#mermaid-1594410658114 .stateLabel .box{stroke:none;stroke-width:0;fill:#ECECFF;opacity:0.5}#mermaid-1594410658114 .stateLabel text{fill:#000;font-size:10px;font-weight:bold;font-family:'trebuchet ms', verdana, arial;font-family:var(--mermaid-font-family)}#mermaid-1594410658114 .node circle.state-start{fill:black;stroke:black}#mermaid-1594410658114 .node circle.state-end{fill:black;stroke:white;stroke-width:1.5}#mermaid-1594410658114 #statediagram-barbEnd{fill:#9370db}#mermaid-1594410658114 .statediagram-cluster rect{fill:#ECECFF;stroke:#9370db;stroke-width:1px}#mermaid-1594410658114 .statediagram-cluster rect.outer{rx:5px;ry:5px}#mermaid-1594410658114 .statediagram-state .divider{stroke:#9370db}#mermaid-1594410658114 .statediagram-state .title-state{rx:5px;ry:5px}#mermaid-1594410658114 .statediagram-cluster.statediagram-cluster .inner{fill:white}#mermaid-1594410658114 .statediagram-cluster.statediagram-cluster-alt .inner{fill:#e0e0e0}#mermaid-1594410658114 .statediagram-cluster .inner{rx:0;ry:0}#mermaid-1594410658114 .statediagram-state rect.basic{rx:5px;ry:5px}#mermaid-1594410658114 .statediagram-state rect.divider{stroke-dasharray:10,10;fill:#efefef}#mermaid-1594410658114 .note-edge{stroke-dasharray:5}#mermaid-1594410658114 .statediagram-note rect{fill:#fff5ad;stroke:#aa3;stroke-width:1px;rx:0;ry:0}:root{--mermaid-font-family: '"trebuchet ms", verdana, arial';--mermaid-font-family: "Comic Sans MS", "Comic Sans", cursive}

:root { --mermaid-font-family: "trebuchet ms", verdana, arial;}</style><style>#mermaid-1594410658114 {
    color: rgb(0, 0, 0);
    font: 16px "trebuchet ms", verdana, arial;
  }</style><g><defs><marker id="statediagram-barbEnd" refX="19" refY="7" markerWidth="20" markerHeight="14" markerUnits="0" orient="auto"><path d="M 19,7 L9,13 L14,7 L9,1 Z"></path></marker></defs><g class="root"><g class="clusters"><g class="note-cluster" id="0----parent"><rect x="8" y="92" width="651.33203125" height="213.5" fill="none"></rect></g></g><g class="edgePaths"><path d="M377.7421875,32L377.7421875,37.833333333333336C377.7421875,43.666666666666664,377.7421875,55.333333333333336,377.7421875,65.33333333333333C377.7421875,75.33333333333333,377.7421875,83.66666666666667,377.7421875,92C377.7421875,100.33333333333333,377.7421875,108.66666666666667,377.7421875,112.83333333333333L377.7421875,117" id="edge0" class="transition" marker-end="url(#statediagram-barbEnd)"></path><path d="M358.03693871359224,151L351.37192809466023,156.75C344.7069174757282,162.5,331.37689623786406,174,324.71188561893206,186.375C318.046875,198.75,318.046875,212,318.046875,218.625L318.046875,225.25" class="transition note-edge"></path><path d="M438.5,127.06110916724982L453.1827256944445,125.38425763937487C467.8654513888889,123.70740611149988,497.2309027777778,120.35370305574993,515.5843098958334,118.67685152787497C533.9377170138889,117,541.2790798611111,117,548.6204427083334,119.83333333333333C555.9618055555555,122.66666666666667,563.3031684027777,128.33333333333334,563.3031684027777,134C563.3031684027777,139.66666666666666,555.9618055555555,145.33333333333334,548.6204427083334,148.16666666666666C541.2790798611111,151,533.9377170138889,151,515.5843098958334,149.32314847212504C497.2309027777778,147.64629694425005,467.8654513888889,144.2925938885001,453.1827256944445,142.61574236062515L438.5,140.93889083275016" id="edge1" class="transition" marker-end="url(#statediagram-barbEnd)"></path><path d="M409.209723907767,151L419.8531553398058,156.75C430.4965867718447,162.5,451.78344963592235,174,530.0551362762945,188.42940536194965C608.3268229166666,202.85881072389932,743.5833333333334,220.21762144779868,811.2115885416666,228.89702680974833L878.83984375,237.576432171698" id="edge2" class="transition" marker-end="url(#statediagram-barbEnd)"></path><path d="M878.83984375,272.8528416998414L855.0677083333334,278.2940347498679C831.2955729166666,283.7352277998943,783.7513020833334,294.6176138999471,759.9791666666666,305.8088069499736C736.20703125,317,736.20703125,328.5,736.20703125,345.0416666666667C736.20703125,361.5833333333333,736.20703125,383.1666666666667,736.20703125,404.75C736.20703125,426.3333333333333,736.20703125,447.9166666666667,736.20703125,467.2916666666667C736.20703125,486.6666666666667,736.20703125,503.8333333333333,736.20703125,521C736.20703125,538.1666666666666,736.20703125,555.3333333333334,736.20703125,572.5C736.20703125,589.6666666666666,736.20703125,606.8333333333334,736.20703125,624C736.20703125,641.1666666666666,736.20703125,658.3333333333334,736.20703125,675.5C736.20703125,692.6666666666666,736.20703125,709.8333333333334,736.20703125,727C736.20703125,744.1666666666666,736.20703125,761.3333333333334,779.2369791666666,777.7298380618541C822.2669270833334,794.126342790375,908.3268229166666,809.75268558075,951.3567708333334,817.5658569759374L994.38671875,825.379028371125" id="edge3" class="transition" marker-end="url(#statediagram-barbEnd)"></path><path d="M1076.33984375,272.8528416998414L1100.1119791666667,278.2940347498679C1123.8841145833333,283.7352277998943,1171.4283854166667,294.6176138999471,1195.2005208333333,305.8088069499736C1218.97265625,317,1218.97265625,328.5,1218.97265625,340C1218.97265625,351.5,1218.97265625,363,1218.97265625,368.75L1218.97265625,374.5" id="edge4" class="transition" marker-end="url(#statediagram-barbEnd)"></path><path d="M1218.97265625,435L1218.97265625,440.75C1218.97265625,446.5,1218.97265625,458,1218.97265625,469.5C1218.97265625,481,1218.97265625,492.5,1218.97265625,498.25L1218.97265625,504" id="edge5" class="transition" marker-end="url(#statediagram-barbEnd)"></path><path d="M1293.05078125,513.3756503642039L1308.2330729166667,511.81304197016993C1323.4153645833333,510.25043357613595,1353.7799479166667,507.125216788068,1372.7578125,505.562608394034C1391.7356770833333,504,1399.3268229166667,504,1406.91796875,506.8333333333333C1414.5091145833333,509.6666666666667,1422.1002604166667,515.3333333333334,1422.1002604166667,521C1422.1002604166667,526.6666666666666,1414.5091145833333,532.3333333333334,1406.91796875,535.1666666666666C1399.3268229166667,538,1391.7356770833333,538,1372.7578125,536.437391605966C1353.7799479166667,534.874783211932,1323.4153645833333,531.749566423864,1308.2330729166667,530.1869580298301L1293.05078125,528.6243496357961" id="edge6" class="transition" marker-end="url(#statediagram-barbEnd)"></path><path d="M1293.05078125,530.2164238260607L1349.6940104166667,537.2636865217172C1406.3372395833333,544.3109492173738,1519.6236979166667,558.4054746086869,1576.2669270833333,571.2027373043435C1632.91015625,584,1632.91015625,595.5,1632.91015625,601.25L1632.91015625,607" id="edge7" class="transition" marker-end="url(#statediagram-barbEnd)"></path><path d="M1144.89453125,536.1192953124032L1115.1861979166667,542.1827460936694C1085.4778645833333,548.2461968749354,1026.0611979166667,560.3730984374678,1010.4391434061489,572.1865492187338C994.8170888956311,584,1022.9896465412621,595.5,1037.0759253640776,601.25L1051.1622041868932,607" id="edge8" class="transition" marker-end="url(#statediagram-barbEnd)"></path><path d="M1632.91015625,641L1632.91015625,646.75C1632.91015625,652.5,1632.91015625,664,1632.91015625,675.5C1632.91015625,687,1632.91015625,698.5,1632.91015625,704.25L1632.91015625,710" id="edge9" class="transition" marker-end="url(#statediagram-barbEnd)"></path><path d="M1092.80859375,641L1092.80859375,646.75C1092.80859375,652.5,1092.80859375,664,1092.80859375,678.3333333333334C1092.80859375,692.6666666666666,1092.80859375,709.8333333333334,1092.80859375,727C1092.80859375,744.1666666666666,1092.80859375,761.3333333333334,1092.80859375,775.6666666666666C1092.80859375,790,1092.80859375,801.5,1092.80859375,807.25L1092.80859375,813" id="edge10" class="transition" marker-end="url(#statediagram-barbEnd)"></path><path d="M1566.4561969053398,744L1543.9791224211165,749.75C1521.5020479368932,755.5,1476.5478989684464,767,1414.0102776092233,780.4065350113573C1351.47265625,793.8130700227144,1271.3515625,809.126140045429,1231.291015625,816.782675056786L1191.23046875,824.4392100681433" id="edge11" class="transition" marker-end="url(#statediagram-barbEnd)"></path><path d="M1185.89453125,616.3930623536922L1205.0516493055554,614.8275519614102C1224.208767361111,613.2620415691282,1262.5230034722222,610.131020784564,1286.4694010416667,608.565510392282C1310.415798611111,607,1319.994357638889,607,1329.5729166666667,609.8333333333334C1339.1514756944446,612.6666666666666,1348.7300347222224,618.3333333333334,1348.7300347222224,624C1348.7300347222224,629.6666666666666,1339.1514756944446,635.3333333333334,1329.5729166666667,638.1666666666666C1319.994357638889,641,1310.415798611111,641,1286.4694010416667,639.434489607718C1262.5230034722222,637.868979215436,1224.208767361111,634.7379584308718,1205.0516493055554,633.1724480385898L1185.89453125,631.6069376463078" id="edge12" class="transition" marker-end="url(#statediagram-barbEnd)"></path><path d="M1771.81640625,717.6975933031043L1790.9735243055557,716.4146610859203C1810.130642361111,715.1317288687363,1848.444878472222,712.5658644343681,1872.3912760416663,711.2829322171841C1896.337673611111,710,1905.916232638889,710,1915.4947916666667,712.8333333333334C1925.0733506944446,715.6666666666666,1934.6519097222224,721.3333333333334,1934.651909722222,727C1934.6519097222224,732.6666666666666,1925.0733506944446,738.3333333333334,1915.494791666667,741.1666666666666C1905.916232638889,744,1896.337673611111,744,1872.3912760416667,742.7170677828159C1848.444878472222,741.4341355656319,1810.130642361111,738.8682711312637,1790.9735243055557,737.5853389140798L1771.81640625,736.3024066968957" id="edge13" class="transition" marker-end="url(#statediagram-barbEnd)"></path><path d="M1134.4549833131068,607L1148.5412621359224,601.25C1162.6275409587379,595.5,1190.800098604369,584,1204.8863774271845,572.5C1218.97265625,561,1218.97265625,549.5,1218.97265625,543.75L1218.97265625,538" id="edge14" class="transition" marker-end="url(#statediagram-barbEnd)"></path><path d="M1674.3528140169904,744L1688.3701835558252,749.75C1702.38755309466,755.5,1730.4222921723301,767,1744.4396617111652,780.7083333333334C1758.45703125,794.4166666666666,1758.45703125,810.3333333333334,1758.45703125,818.2916666666666L1758.45703125,826.25" id="edge15" class="transition" marker-end="url(#statediagram-barbEnd)"></path><path d="M1758.45703125,860.25L1758.45703125,868.2083333333334C1758.45703125,876.1666666666666,1758.45703125,892.0833333333334,1758.45703125,905.7916666666666C1758.45703125,919.5,1758.45703125,931,1758.45703125,936.75L1758.45703125,942.5" id="edge16" class="transition" marker-end="url(#statediagram-barbEnd)"></path></g><g class="edgeLabels"><g class="edgeLabel"><g class="label" transform="translate(0, 0)"><rect rx="0" ry="0" width="0" height="0" style="fill:#e8e8e8;"></rect><text style=""></text></g></g><g class="edgeLabel"><g class="label" transform="translate(0, 0)"><rect rx="0" ry="0" width="0" height="0" style="fill:#e8e8e8;"></rect><text style=""></text></g></g><g class="edgeLabel" transform="translate(570.64453125, 134)"><g class="label" transform="translate(-68.6875, -9.5)"><rect rx="0" ry="0" width="137.296875" height="19.03125" style="fill:#e8e8e8;"></rect><text style=""><tspan xml:space="preserve" dy="1em" x="0" class="row">ProviderEventOpen</tspan></text></g></g><g class="edgeLabel" transform="translate(473.0703125, 185.5)"><g class="label" transform="translate(-99.390625, -9.5)"><rect rx="0" ry="0" width="198.65625" height="19.03125" style="fill:#e8e8e8;"></rect><text style=""><tspan xml:space="preserve" dy="1em" x="0" class="row">ProviderEventDealAccepted</tspan></text></g></g><g class="edgeLabel" transform="translate(736.20703125, 572.5)"><g class="label" transform="translate(-91.734375, -9.5)"><rect rx="0" ry="0" width="183.359375" height="19.03125" style="fill:#e8e8e8;"></rect><text style=""><tspan xml:space="preserve" dy="1em" x="0" class="row">ProviderEventUnsealError</tspan></text></g></g><g class="edgeLabel" transform="translate(1218.97265625, 340)"><g class="label" transform="translate(-108.2578125, -9.5)"><rect rx="0" ry="0" width="216.390625" height="19.03125" style="fill:#e8e8e8;"></rect><text style=""><tspan xml:space="preserve" dy="1em" x="0" class="row">ProviderEventUnsealComplete</tspan></text></g></g><g class="edgeLabel" transform="translate(1218.97265625, 469.5)"><g class="label" transform="translate(-96.125, -9.5)"><rect rx="0" ry="0" width="192.140625" height="19.03125" style="fill:#e8e8e8;"></rect><text style=""><tspan xml:space="preserve" dy="1em" x="0" class="row">ProviderEventUnpauseDeal</tspan></text></g></g><g class="edgeLabel" transform="translate(1429.69140625, 521)"><g class="label" transform="translate(-101.640625, -9.5)"><rect rx="0" ry="0" width="203.15625" height="19.03125" style="fill:#e8e8e8;"></rect><text style=""><tspan xml:space="preserve" dy="1em" x="0" class="row">ProviderEventBlockReceived</tspan></text></g></g><g class="edgeLabel" transform="translate(1632.91015625, 572.5)"><g class="label" transform="translate(-111.40625, -9.5)"><rect rx="0" ry="0" width="222.6875" height="19.03125" style="fill:#e8e8e8;"></rect><text style=""><tspan xml:space="preserve" dy="1em" x="0" class="row">ProviderEventBlocksCompleted</tspan></text></g></g><g class="edgeLabel" transform="translate(966.64453125, 572.5)"><g class="label" transform="translate(-118.703125, -9.5)"><rect rx="0" ry="0" width="237.265625" height="19.03125" style="fill:#e8e8e8;"></rect><text style=""><tspan xml:space="preserve" dy="1em" x="0" class="row">ProviderEventPaymentRequested</tspan></text></g></g><g class="edgeLabel" transform="translate(1632.91015625, 675.5)"><g class="label" transform="translate(-118.703125, -9.5)"><rect rx="0" ry="0" width="237.265625" height="19.03125" style="fill:#e8e8e8;"></rect><text style=""><tspan xml:space="preserve" dy="1em" x="0" class="row">ProviderEventPaymentRequested</tspan></text></g></g><g class="edgeLabel" transform="translate(1092.80859375, 727)"><g class="label" transform="translate(-117.46875, -9.5)"><rect rx="0" ry="0" width="234.796875" height="19.03125" style="fill:#e8e8e8;"></rect><text style=""><tspan xml:space="preserve" dy="1em" x="0" class="row">ProviderEventSaveVoucherFailed</tspan></text></g></g><g class="edgeLabel" transform="translate(1431.59375, 778.5)"><g class="label" transform="translate(-117.46875, -9.5)"><rect rx="0" ry="0" width="234.796875" height="19.03125" style="fill:#e8e8e8;"></rect><text style=""><tspan xml:space="preserve" dy="1em" x="0" class="row">ProviderEventSaveVoucherFailed</tspan></text></g></g><g class="edgeLabel" transform="translate(1358.30859375, 624)"><g class="label" transform="translate(-137.4140625, -9.5)"><rect rx="0" ry="0" width="274.65625" height="19.03125" style="fill:#e8e8e8;"></rect><text style=""><tspan xml:space="preserve" dy="1em" x="0" class="row">ProviderEventPartialPaymentReceived</tspan></text></g></g><g class="edgeLabel" transform="translate(1944.23046875, 727)"><g class="label" transform="translate(-137.4140625, -9.5)"><rect rx="0" ry="0" width="274.65625" height="19.03125" style="fill:#e8e8e8;"></rect><text style=""><tspan xml:space="preserve" dy="1em" x="0" class="row">ProviderEventPartialPaymentReceived</tspan></text></g></g><g class="edgeLabel" transform="translate(1218.97265625, 572.5)"><g class="label" transform="translate(-113.625, -9.5)"><rect rx="0" ry="0" width="227.109375" height="19.03125" style="fill:#e8e8e8;"></rect><text style=""><tspan xml:space="preserve" dy="1em" x="0" class="row">ProviderEventPaymentReceived</tspan></text></g></g><g class="edgeLabel" transform="translate(1758.45703125, 778.5)"><g class="label" transform="translate(-113.625, -9.5)"><rect rx="0" ry="0" width="227.109375" height="19.03125" style="fill:#e8e8e8;"></rect><text style=""><tspan xml:space="preserve" dy="1em" x="0" class="row">ProviderEventPaymentReceived</tspan></text></g></g><g class="edgeLabel" transform="translate(1758.45703125, 908)"><g class="label" transform="translate(-84.5390625, -9.5)"><rect rx="0" ry="0" width="168.96875" height="19.03125" style="fill:#e8e8e8;"></rect><text style=""><tspan xml:space="preserve" dy="1em" x="0" class="row">ProviderEventComplete</tspan></text></g></g></g><g class="nodes"><g class="node statediagram-state" id="0" transform="translate(377.7421875, 134)"><rect class="outer title-state" x="-60.7578125" y="-17" width="121.515625" height="34"></rect><line class="divider" x1="-60.7578125" x2="60.7578125" y1="9.5" y2="9.5"></line><g class="label" transform="translate(-53.2578125, -14)"><text style=""><tspan xml:space="preserve" dy="1em" x="0" class="title-row">DealStatusNew</tspan></text><text style="" transform="translate( 0, 26.5)"><tspan xml:space="preserve" dy="1em" x="0" class="title-row"></tspan></text></g></g><g class="node statediagram-state" id="1" transform="translate(977.58984375, 250.25)"><rect class="outer title-state" x="-98.75" y="-30.25" width="197.5" height="60.5"></rect><line class="divider" x1="-98.75" x2="98.75" y1="-3.75" y2="-3.75"></line><g class="label" transform="translate(-91.25, -27.25)"><text style=""><tspan xml:space="preserve" dy="1em" x="0" class="title-row">DealStatusUnsealing</tspan></text><text style="" transform="translate( 0, 26.5)"><tspan xml:space="preserve" dy="1em" x="0" class="title-row">On entry runs UnsealData</tspan></text></g></g><g class="node statediagram-state" id="2" transform="translate(1218.97265625, 404.75)"><rect class="outer title-state" x="-104.5703125" y="-30.25" width="209.140625" height="60.5"></rect><line class="divider" x1="-104.5703125" x2="104.5703125" y1="-3.75" y2="-3.75"></line><g class="label" transform="translate(-97.0703125, -27.25)"><text style=""><tspan xml:space="preserve" dy="1em" x="0" class="title-row">DealStatusUnsealed</tspan></text><text style="" transform="translate( 0, 26.5)"><tspan xml:space="preserve" dy="1em" x="0" class="title-row">On entry runs UnpauseDeal</tspan></text></g></g><g class="node statediagram-state" id="9" transform="translate(1092.80859375, 843.25)"><rect class="outer title-state" x="-98.421875" y="-30.25" width="196.84375" height="60.5"></rect><line class="divider" x1="-98.421875" x2="98.421875" y1="-3.75" y2="-3.75"></line><g class="label" transform="translate(-90.921875, -27.25)"><text style=""><tspan xml:space="preserve" dy="1em" x="0" class="title-row">DealStatusFailed</tspan></text><text style="" transform="translate( 0, 26.5)"><tspan xml:space="preserve" dy="1em" x="0" class="title-row">On entry runs CancelDeal</tspan></text></g></g><g class="node statediagram-state" id="11" transform="translate(1092.80859375, 624)"><rect class="outer title-state" x="-93.0859375" y="-17" width="186.171875" height="34"></rect><line class="divider" x1="-93.0859375" x2="93.0859375" y1="9.5" y2="9.5"></line><g class="label" transform="translate(-85.5859375, -14)"><text style=""><tspan xml:space="preserve" dy="1em" x="0" class="title-row">DealStatusFundsNeeded</tspan></text><text style="" transform="translate( 0, 26.5)"><tspan xml:space="preserve" dy="1em" x="0" class="title-row"></tspan></text></g></g><g class="node statediagram-state" id="14" transform="translate(1218.97265625, 521)"><rect class="outer title-state" x="-74.078125" y="-17" width="148.15625" height="34"></rect><line class="divider" x1="-74.078125" x2="74.078125" y1="9.5" y2="9.5"></line><g class="label" transform="translate(-66.578125, -14)"><text style=""><tspan xml:space="preserve" dy="1em" x="0" class="title-row">DealStatusOngoing</tspan></text><text style="" transform="translate( 0, 26.5)"><tspan xml:space="preserve" dy="1em" x="0" class="title-row"></tspan></text></g></g><g class="node statediagram-state" id="15" transform="translate(1632.91015625, 727)"><rect class="outer title-state" x="-138.90625" y="-17" width="277.8125" height="34"></rect><line class="divider" x1="-138.90625" x2="138.90625" y1="9.5" y2="9.5"></line><g class="label" transform="translate(-131.40625, -14)"><text style=""><tspan xml:space="preserve" dy="1em" x="0" class="title-row">DealStatusFundsNeededLastPayment</tspan></text><text style="" transform="translate( 0, 26.5)"><tspan xml:space="preserve" dy="1em" x="0" class="title-row"></tspan></text></g></g><g class="node statediagram-state" id="16" transform="translate(1758.45703125, 959.5)"><rect class="outer title-state" x="-84.2265625" y="-17" width="168.453125" height="34"></rect><line class="divider" x1="-84.2265625" x2="84.2265625" y1="9.5" y2="9.5"></line><g class="label" transform="translate(-76.7265625, -14)"><text style=""><tspan xml:space="preserve" dy="1em" x="0" class="title-row">DealStatusCompleted</tspan></text><text style="" transform="translate( 0, 26.5)"><tspan xml:space="preserve" dy="1em" x="0" class="title-row"></tspan></text></g></g><g class="node statediagram-state" id="19" transform="translate(248.6796875, 25)"><rect class="outer title-state" x="-72.0625" y="-17" width="144.125" height="34"></rect><line class="divider" x1="-72.0625" x2="72.0625" y1="9.5" y2="9.5"></line><g class="label" transform="translate(-64.5625, -14)"><text style=""><tspan xml:space="preserve" dy="1em" x="0" class="title-row">DealStatusErrored</tspan></text><text style="" transform="translate( 0, 26.5)"><tspan xml:space="preserve" dy="1em" x="0" class="title-row"></tspan></text></g></g><g class="node statediagram-state" id="20" transform="translate(1632.91015625, 624)"><rect class="outer title-state" x="-102.1875" y="-17" width="204.375" height="34"></rect><line class="divider" x1="-102.1875" x2="102.1875" y1="9.5" y2="9.5"></line><g class="label" transform="translate(-94.6875, -14)"><text style=""><tspan xml:space="preserve" dy="1em" x="0" class="title-row">DealStatusBlocksComplete</tspan></text><text style="" transform="translate( 0, 26.5)"><tspan xml:space="preserve" dy="1em" x="0" class="title-row"></tspan></text></g></g><g class="node statediagram-state" id="21" transform="translate(1758.45703125, 843.25)"><rect class="outer title-state" x="-79.5" y="-17" width="159" height="34"></rect><line class="divider" x1="-79.5" x2="79.5" y1="9.5" y2="9.5"></line><g class="label" transform="translate(-72, -14)"><text style=""><tspan xml:space="preserve" dy="1em" x="0" class="title-row">DealStatusFinalizing</tspan></text><text style="" transform="translate( 0, 26.5)"><tspan xml:space="preserve" dy="1em" x="0" class="title-row"></tspan></text></g></g><g class="node default" id="root_start" transform="translate(377.7421875, 25)"><circle class="state-start" r="7" width="14" height="14"></circle></g><g class="node statediagram-note" id="0----note" transform="translate(318.046875, 250.25)"><rect x="-275.046875" y="-25" width="550.09375" height="50"></rect><g class="label" transform="translate(-267.546875, -17.5)"><text style=""><tspan xml:space="preserve" dy="1em" x="0" class="row">The following events are not shown cause they can trigger from any state.</tspan><tspan xml:space="preserve" dy="1em" x="0" class="row"></tspan><tspan xml:space="preserve" dy="1em" x="0" class="row">ProviderEventDataTransferError - transitions state to DealStatusErrored</tspan></text></g></g></g></g></g></svg>