<svg id="mermaid-1592423486043" width="2011.69140625" xmlns="http://www.w3.org/2000/svg" class="statediagram" height="1123.5" viewBox="0 0 2011.69140625 1123.5"><style>#mermaid-1592423486043 .label{font-family:'trebuchet ms', verdana, arial;font-family:var(--mermaid-font-family);color:#333}#mermaid-1592423486043 .label text{fill:#333}#mermaid-1592423486043 .node rect,#mermaid-1592423486043 .node circle,#mermaid-1592423486043 .node ellipse,#mermaid-1592423486043 .node polygon,#mermaid-1592423486043 .node path{fill:#ECECFF;stroke:#9370db;stroke-width:1px}#mermaid-1592423486043 .node .label{text-align:center}#mermaid-1592423486043 .node.clickable{cursor:pointer}#mermaid-1592423486043 .arrowheadPath{fill:#333}#mermaid-1592423486043 .edgePath .path{stroke:#333;stroke-width:1.5px}#mermaid-1592423486043 .edgeLabel{background-color:#e8e8e8;text-align:center}#mermaid-1592423486043 .edgeLabel rect{opacity:0.5}#mermaid-1592423486043 .cluster rect{fill:#ffffde;stroke:#aa3;stroke-width:1px}#mermaid-1592423486043 .cluster text{fill:#333}#mermaid-1592423486043 div.mermaidTooltip{position:absolute;text-align:center;max-width:200px;padding:2px;font-family:'trebuchet ms', verdana, arial;font-family:var(--mermaid-font-family);font-size:12px;background:#ffffde;border:1px solid #aa3;border-radius:2px;pointer-events:none;z-index:100}#mermaid-1592423486043 .actor{stroke:#ccf;fill:#ECECFF}#mermaid-1592423486043 text.actor{fill:#000;stroke:none}#mermaid-1592423486043 .actor-line{stroke:grey}#mermaid-1592423486043 .messageLine0{stroke-width:1.5;stroke-dasharray:'2 2';stroke:#333}#mermaid-1592423486043 .messageLine1{stroke-width:1.5;stroke-dasharray:'2 2';stroke:#333}#mermaid-1592423486043 #arrowhead{fill:#333}#mermaid-1592423486043 .sequenceNumber{fill:#fff}#mermaid-1592423486043 #sequencenumber{fill:#333}#mermaid-1592423486043 #crosshead path{fill:#333 !important;stroke:#333 !important}#mermaid-1592423486043 .messageText{fill:#333;stroke:none}#mermaid-1592423486043 .labelBox{stroke:#ccf;fill:#ECECFF}#mermaid-1592423486043 .labelText{fill:#000;stroke:none}#mermaid-1592423486043 .loopText{fill:#000;stroke:none}#mermaid-1592423486043 .loopLine{stroke-width:2;stroke-dasharray:'2 2';stroke:#ccf}#mermaid-1592423486043 .note{stroke:#aa3;fill:#fff5ad}#mermaid-1592423486043 .noteText{fill:black;stroke:none;font-family:'trebuchet ms', verdana, arial;font-family:var(--mermaid-font-family);font-size:14px}#mermaid-1592423486043 .activation0{fill:#f4f4f4;stroke:#666}#mermaid-1592423486043 .activation1{fill:#f4f4f4;stroke:#666}#mermaid-1592423486043 .activation2{fill:#f4f4f4;stroke:#666}#mermaid-1592423486043 .mermaid-main-font{font-family:"trebuchet ms", verdana, arial;font-family:var(--mermaid-font-family)}#mermaid-1592423486043 .section{stroke:none;opacity:0.2}#mermaid-1592423486043 .section0{fill:rgba(102,102,255,0.49)}#mermaid-1592423486043 .section2{fill:#fff400}#mermaid-1592423486043 .section1,#mermaid-1592423486043 .section3{fill:#fff;opacity:0.2}#mermaid-1592423486043 .sectionTitle0{fill:#333}#mermaid-1592423486043 .sectionTitle1{fill:#333}#mermaid-1592423486043 .sectionTitle2{fill:#333}#mermaid-1592423486043 .sectionTitle3{fill:#333}#mermaid-1592423486043 .sectionTitle{text-anchor:start;font-size:11px;text-height:14px;font-family:'trebuchet ms', verdana, arial;font-family:var(--mermaid-font-family)}#mermaid-1592423486043 .grid .tick{stroke:#d3d3d3;opacity:0.8;shape-rendering:crispEdges}#mermaid-1592423486043 .grid .tick text{font-family:'trebuchet ms', verdana, arial;font-family:var(--mermaid-font-family)}#mermaid-1592423486043 .grid path{stroke-width:0}#mermaid-1592423486043 .today{fill:none;stroke:red;stroke-width:2px}#mermaid-1592423486043 .task{stroke-width:2}#mermaid-1592423486043 .taskText{text-anchor:middle;font-family:'trebuchet ms', verdana, arial;font-family:var(--mermaid-font-family)}#mermaid-1592423486043 .taskText:not([font-size]){font-size:11px}#mermaid-1592423486043 .taskTextOutsideRight{fill:#000;text-anchor:start;font-size:11px;font-family:'trebuchet ms', verdana, arial;font-family:var(--mermaid-font-family)}#mermaid-1592423486043 .taskTextOutsideLeft{fill:#000;text-anchor:end;font-size:11px}#mermaid-1592423486043 .task.clickable{cursor:pointer}#mermaid-1592423486043 .taskText.clickable{cursor:pointer;fill:#003163 !important;font-weight:bold}#mermaid-1592423486043 .taskTextOutsideLeft.clickable{cursor:pointer;fill:#003163 !important;font-weight:bold}#mermaid-1592423486043 .taskTextOutsideRight.clickable{cursor:pointer;fill:#003163 !important;font-weight:bold}#mermaid-1592423486043 .taskText0,#mermaid-1592423486043 .taskText1,#mermaid-1592423486043 .taskText2,#mermaid-1592423486043 .taskText3{fill:#fff}#mermaid-1592423486043 .task0,#mermaid-1592423486043 .task1,#mermaid-1592423486043 .task2,#mermaid-1592423486043 .task3{fill:#8a90dd;stroke:#534fbc}#mermaid-1592423486043 .taskTextOutside0,#mermaid-1592423486043 .taskTextOutside2{fill:#000}#mermaid-1592423486043 .taskTextOutside1,#mermaid-1592423486043 .taskTextOutside3{fill:#000}#mermaid-1592423486043 .active0,#mermaid-1592423486043 .active1,#mermaid-1592423486043 .active2,#mermaid-1592423486043 .active3{fill:#bfc7ff;stroke:#534fbc}#mermaid-1592423486043 .activeText0,#mermaid-1592423486043 .activeText1,#mermaid-1592423486043 .activeText2,#mermaid-1592423486043 .activeText3{fill:#000 !important}#mermaid-1592423486043 .done0,#mermaid-1592423486043 .done1,#mermaid-1592423486043 .done2,#mermaid-1592423486043 .done3{stroke:grey;fill:#d3d3d3;stroke-width:2}#mermaid-1592423486043 .doneText0,#mermaid-1592423486043 .doneText1,#mermaid-1592423486043 .doneText2,#mermaid-1592423486043 .doneText3{fill:#000 !important}#mermaid-1592423486043 .crit0,#mermaid-1592423486043 .crit1,#mermaid-1592423486043 .crit2,#mermaid-1592423486043 .crit3{stroke:#f88;fill:red;stroke-width:2}#mermaid-1592423486043 .activeCrit0,#mermaid-1592423486043 .activeCrit1,#mermaid-1592423486043 .activeCrit2,#mermaid-1592423486043 .activeCrit3{stroke:#f88;fill:#bfc7ff;stroke-width:2}#mermaid-1592423486043 .doneCrit0,#mermaid-1592423486043 .doneCrit1,#mermaid-1592423486043 .doneCrit2,#mermaid-1592423486043 .doneCrit3{stroke:#f88;fill:#d3d3d3;stroke-width:2;cursor:pointer;shape-rendering:crispEdges}#mermaid-1592423486043 .milestone{transform:rotate(45deg) scale(0.8, 0.8)}#mermaid-1592423486043 .milestoneText{font-style:italic}#mermaid-1592423486043 .doneCritText0,#mermaid-1592423486043 .doneCritText1,#mermaid-1592423486043 .doneCritText2,#mermaid-1592423486043 .doneCritText3{fill:#000 !important}#mermaid-1592423486043 .activeCritText0,#mermaid-1592423486043 .activeCritText1,#mermaid-1592423486043 .activeCritText2,#mermaid-1592423486043 .activeCritText3{fill:#000 !important}#mermaid-1592423486043 .titleText{text-anchor:middle;font-size:18px;fill:#000;font-family:'trebuchet ms', verdana, arial;font-family:var(--mermaid-font-family)}#mermaid-1592423486043 g.classGroup text{fill:#9370db;stroke:none;font-family:'trebuchet ms', verdana, arial;font-family:var(--mermaid-font-family);font-size:10px}#mermaid-1592423486043 g.classGroup text .title{font-weight:bolder}#mermaid-1592423486043 g.clickable{cursor:pointer}#mermaid-1592423486043 g.classGroup rect{fill:#ECECFF;stroke:#9370db}#mermaid-1592423486043 g.classGroup line{stroke:#9370db;stroke-width:1}#mermaid-1592423486043 .classLabel .box{stroke:none;stroke-width:0;fill:#ECECFF;opacity:0.5}#mermaid-1592423486043 .classLabel .label{fill:#9370db;font-size:10px}#mermaid-1592423486043 .relation{stroke:#9370db;stroke-width:1;fill:none}#mermaid-1592423486043 .dashed-line{stroke-dasharray:3}#mermaid-1592423486043 #compositionStart{fill:#9370db;stroke:#9370db;stroke-width:1}#mermaid-1592423486043 #compositionEnd{fill:#9370db;stroke:#9370db;stroke-width:1}#mermaid-1592423486043 #aggregationStart{fill:#ECECFF;stroke:#9370db;stroke-width:1}#mermaid-1592423486043 #aggregationEnd{fill:#ECECFF;stroke:#9370db;stroke-width:1}#mermaid-1592423486043 #dependencyStart{fill:#9370db;stroke:#9370db;stroke-width:1}#mermaid-1592423486043 #dependencyEnd{fill:#9370db;stroke:#9370db;stroke-width:1}#mermaid-1592423486043 #extensionStart{fill:#9370db;stroke:#9370db;stroke-width:1}#mermaid-1592423486043 #extensionEnd{fill:#9370db;stroke:#9370db;stroke-width:1}#mermaid-1592423486043 .commit-id,#mermaid-1592423486043 .commit-msg,#mermaid-1592423486043 .branch-label{fill:lightgrey;color:lightgrey;font-family:'trebuchet ms', verdana, arial;font-family:var(--mermaid-font-family)}#mermaid-1592423486043 .pieTitleText{text-anchor:middle;font-size:25px;fill:#000;font-family:'trebuchet ms', verdana, arial;font-family:var(--mermaid-font-family)}#mermaid-1592423486043 .slice{font-family:'trebuchet ms', verdana, arial;font-family:var(--mermaid-font-family)}#mermaid-1592423486043 g.stateGroup text{fill:#9370db;stroke:none;font-size:10px;font-family:'trebuchet ms', verdana, arial;font-family:var(--mermaid-font-family)}#mermaid-1592423486043 g.stateGroup text{fill:#9370db;stroke:none;font-size:10px}#mermaid-1592423486043 g.stateGroup .state-title{font-weight:bolder;fill:#000}#mermaid-1592423486043 g.stateGroup rect{fill:#ECECFF;stroke:#9370db}#mermaid-1592423486043 g.stateGroup line{stroke:#9370db;stroke-width:1}#mermaid-1592423486043 .transition{stroke:#9370db;stroke-width:1;fill:none}#mermaid-1592423486043 .stateGroup .composit{fill:white;border-bottom:1px}#mermaid-1592423486043 .stateGroup .alt-composit{fill:#e0e0e0;border-bottom:1px}#mermaid-1592423486043 .state-note{stroke:#aa3;fill:#fff5ad}#mermaid-1592423486043 .state-note text{fill:black;stroke:none;font-size:10px}#mermaid-1592423486043 .stateLabel .box{stroke:none;stroke-width:0;fill:#ECECFF;opacity:0.5}#mermaid-1592423486043 .stateLabel text{fill:#000;font-size:10px;font-weight:bold;font-family:'trebuchet ms', verdana, arial;font-family:var(--mermaid-font-family)}#mermaid-1592423486043 .node circle.state-start{fill:black;stroke:black}#mermaid-1592423486043 .node circle.state-end{fill:black;stroke:white;stroke-width:1.5}#mermaid-1592423486043 #statediagram-barbEnd{fill:#9370db}#mermaid-1592423486043 .statediagram-cluster rect{fill:#ECECFF;stroke:#9370db;stroke-width:1px}#mermaid-1592423486043 .statediagram-cluster rect.outer{rx:5px;ry:5px}#mermaid-1592423486043 .statediagram-state .divider{stroke:#9370db}#mermaid-1592423486043 .statediagram-state .title-state{rx:5px;ry:5px}#mermaid-1592423486043 .statediagram-cluster.statediagram-cluster .inner{fill:white}#mermaid-1592423486043 .statediagram-cluster.statediagram-cluster-alt .inner{fill:#e0e0e0}#mermaid-1592423486043 .statediagram-cluster .inner{rx:0;ry:0}#mermaid-1592423486043 .statediagram-state rect.basic{rx:5px;ry:5px}#mermaid-1592423486043 .statediagram-state rect.divider{stroke-dasharray:10,10;fill:#efefef}#mermaid-1592423486043 .note-edge{stroke-dasharray:5}#mermaid-1592423486043 .statediagram-note rect{fill:#fff5ad;stroke:#aa3;stroke-width:1px;rx:0;ry:0}:root{--mermaid-font-family: '"trebuchet ms", verdana, arial';--mermaid-font-family: "Comic Sans MS", "Comic Sans", cursive}

:root { --mermaid-font-family: "trebuchet ms", verdana, arial;}</style><style>#mermaid-1592423486043 {
    color: rgb(0, 0, 0);
    font: 16px "trebuchet ms", verdana, arial;
  }</style><g><defs><marker id="statediagram-barbEnd" refX="19" refY="7" markerWidth="20" markerHeight="14" markerUnits="0" orient="auto"><path d="M 19,7 L9,13 L14,7 L9,1 Z"></path></marker></defs><g class="root"><g class="clusters"></g><g class="edgePaths"><path d="M278.31640625,22L278.31640625,26.166666666666668C278.31640625,30.333333333333332,278.31640625,38.666666666666664,278.31640625,47C278.31640625,55.333333333333336,278.31640625,63.666666666666664,278.31640625,67.83333333333333L278.31640625,72" id="edge0" class="transition" marker-end="url(#statediagram-barbEnd)"></path><path d="M380.59765625,84.1992707383774L392.1184895833333,82.16605894864783C403.6393229166667,80.13284715891827,426.6809895833333,76.06642357945913,441.08203125,74.03321178972956C455.4830729166667,72,461.2434895833333,72,467.00390625,77.04166666666667C472.7643229166667,82.08333333333333,478.5247395833333,92.16666666666667,478.5247395833333,102.25C478.5247395833333,112.33333333333333,472.7643229166667,122.41666666666667,467.00390625,127.45833333333333C461.2434895833333,132.5,455.4830729166667,132.5,441.08203125,130.46678821027044C426.6809895833333,128.43357642054087,403.6393229166667,124.36715284108175,392.1184895833333,122.33394105135217L380.59765625,120.3007292616226" id="edge1" class="transition" marker-end="url(#statediagram-barbEnd)"></path><path d="M380.59765625,114.0232177825924L457.3046875,122.85268148549368C534.01171875,131.6821451883949,687.42578125,149.34107259419747,764.1328125,163.92053629709872C840.83984375,178.5,840.83984375,190,840.83984375,195.75L840.83984375,201.5" id="edge2" class="transition" marker-end="url(#statediagram-barbEnd)"></path><path d="M866.722791988417,262L871.6426912403475,267.75C876.5625904922781,273.5,886.402388996139,285,891.3222882480695,298.7083333333333C896.2421875,312.4166666666667,896.2421875,328.3333333333333,896.2421875,336.2916666666667L896.2421875,344.25" id="edge3" class="transition" marker-end="url(#statediagram-barbEnd)"></path><path d="M209.7228523166023,132.5L196.68440818050192,138.25C183.64596404440155,144,157.56907577220076,155.5,144.53063163610037,172.04166666666666C131.4921875,188.58333333333334,131.4921875,210.16666666666666,131.4921875,231.75C131.4921875,253.33333333333334,131.4921875,274.9166666666667,131.4921875,296.5C131.4921875,318.0833333333333,131.4921875,339.6666666666667,131.4921875,361.25C131.4921875,382.8333333333333,131.4921875,404.4166666666667,131.4921875,426C131.4921875,447.5833333333333,131.4921875,469.1666666666667,131.4921875,490.75C131.4921875,512.3333333333334,131.4921875,533.9166666666666,131.4921875,555.5C131.4921875,577.0833333333334,131.4921875,598.6666666666666,131.4921875,620.25C131.4921875,641.8333333333334,131.4921875,663.4166666666666,131.4921875,682.7916666666666C131.4921875,702.1666666666666,131.4921875,719.3333333333334,131.4921875,736.5C131.4921875,753.6666666666666,131.4921875,770.8333333333334,131.4921875,790.2083333333334C131.4921875,809.5833333333334,131.4921875,831.1666666666666,131.4921875,852.75C131.4921875,874.3333333333334,131.4921875,895.9166666666666,154.56121802606177,912.4583333333334C177.63024855212356,929,223.7683096042471,940.5,246.8373401303089,946.25L269.90637065637065,952" id="edge4" class="transition" marker-end="url(#statediagram-barbEnd)"></path><path d="M282.8878499034749,132.5L283.75680200289577,138.25C284.6257541023166,144,286.3636583011583,155.5,287.2326104005792,167C288.1015625,178.5,288.1015625,190,288.1015625,195.75L288.1015625,201.5" id="edge5" class="transition" marker-end="url(#statediagram-barbEnd)"></path><path d="M380.59765625,127.27936356791709L407.650390625,133.8994696399309C434.703125,140.51957571194473,488.80859375,153.75978785597235,515.861328125,171.17156059465287C542.9140625,188.58333333333334,542.9140625,210.16666666666666,542.9140625,231.75C542.9140625,253.33333333333334,542.9140625,274.9166666666667,542.9140625,291.4583333333333C542.9140625,308,542.9140625,319.5,542.9140625,325.25L542.9140625,331" id="edge6" class="transition" marker-end="url(#statediagram-barbEnd)"></path><path d="M756.8767495173745,262L740.9168225144787,267.75C724.956895511583,273.5,693.0370415057914,285,666.5803118967182,296.5C640.1235822876448,308,619.1299770752895,319.5,608.633174469112,325.25L598.1363718629343,331" id="edge7" class="transition" marker-end="url(#statediagram-barbEnd)"></path><path d="M958.70703125,254.1273508189211L995.9049479166666,261.18945901576757C1033.1028645833333,268.251567212614,1107.4986979166667,282.37578360630704,1144.6966145833333,295.1878918031535C1181.89453125,308,1181.89453125,319.5,1181.89453125,325.25L1181.89453125,331" id="edge8" class="transition" marker-end="url(#statediagram-barbEnd)"></path><path d="M1083.89453125,370.57856314281287L986.857421875,379.8154692856774C889.8203125,389.0523754285419,695.74609375,407.526187714271,598.708984375,427.55476052380214C501.671875,447.5833333333333,501.671875,469.1666666666667,501.671875,490.75C501.671875,512.3333333333334,501.671875,533.9166666666666,501.671875,555.5C501.671875,577.0833333333334,501.671875,598.6666666666666,501.671875,620.25C501.671875,641.8333333333334,501.671875,663.4166666666666,501.671875,682.7916666666666C501.671875,702.1666666666666,501.671875,719.3333333333334,501.671875,736.5C501.671875,753.6666666666666,501.671875,770.8333333333334,501.671875,790.2083333333334C501.671875,809.5833333333334,501.671875,831.1666666666666,501.671875,852.75C501.671875,874.3333333333334,501.671875,895.9166666666666,491.8678058638996,912.4583333333334C482.06373672779927,929,462.4555984555985,940.5,452.65152931949814,946.25L442.8474601833977,952" id="edge9" class="transition" marker-end="url(#statediagram-barbEnd)"></path><path d="M1014.98046875,633.0614072099497L948.763671875,641.7178393416248C882.546875,650.3742714732998,750.11328125,667.6871357366499,683.896484375,684.9269012016583C617.6796875,702.1666666666666,617.6796875,719.3333333333334,617.6796875,736.5C617.6796875,753.6666666666666,617.6796875,770.8333333333334,617.6796875,790.2083333333334C617.6796875,809.5833333333334,617.6796875,831.1666666666666,617.6796875,852.75C617.6796875,874.3333333333334,617.6796875,895.9166666666666,597.57376628861,912.4583333333334C577.4678450772201,929,537.2560026544402,940.5,517.1500814430502,946.25L497.0441602316602,952" id="edge10" class="transition" marker-end="url(#statediagram-barbEnd)"></path><path d="M1279.89453125,381.89521376645826L1314.7877604166667,389.24601147204856C1349.6809895833333,396.5968091776388,1419.4674479166667,411.29840458881944,1454.3606770833333,429.4408689610764C1489.25390625,447.5833333333333,1489.25390625,469.1666666666667,1489.25390625,490.75C1489.25390625,512.3333333333334,1489.25390625,533.9166666666666,1489.25390625,555.5C1489.25390625,577.0833333333334,1489.25390625,598.6666666666666,1489.25390625,620.25C1489.25390625,641.8333333333334,1489.25390625,663.4166666666666,1496.589692050971,679.9583333333334C1503.9254778519417,696.5,1518.5970494538833,708,1525.9328352548544,713.75L1533.2686210558252,719.5" id="edge11" class="transition" marker-end="url(#statediagram-barbEnd)"></path><path d="M1210.98046875,632.7490228213533L1279.2604166666667,641.4575190177944C1347.5403645833333,650.1660152142355,1484.1002604166667,667.5830076071178,1545.0444225323624,682.0415038035588C1605.9885846480583,696.5,1591.3170130461167,708,1583.9812272451456,713.75L1576.6454414441748,719.5" id="edge12" class="transition" marker-end="url(#statediagram-barbEnd)"></path><path d="M1103.895300434363,391.5L1089.069000361969,397.25C1074.2427002895754,403,1044.5901001447876,414.5,1029.763800072394,426C1014.9375,437.5,1014.9375,449,1014.9375,454.75L1014.9375,460.5" id="edge13" class="transition" marker-end="url(#statediagram-barbEnd)"></path><path d="M1171.9219805743244,590L1183.1257390202702,584.25C1194.3294974662163,578.5,1216.7370143581081,567,1208.0304958976833,555.5C1199.3239774372587,544,1159.5034236245174,532.5,1139.5931467181467,526.75L1119.682869811776,521" id="edge14" class="transition" marker-end="url(#statediagram-barbEnd)"></path><path d="M1554.95703125,753.5L1554.95703125,759.25C1554.95703125,765,1554.95703125,776.5,1554.95703125,788C1554.95703125,799.5,1554.95703125,811,1554.95703125,816.75L1554.95703125,822.5" id="edge15" class="transition" marker-end="url(#statediagram-barbEnd)"></path><path d="M898.5703125,519.7534357802303L874.6666666666666,525.7111964835253C850.7630208333334,531.6689571868202,802.9557291666666,543.5844785934102,779.0520833333334,560.3339059633718C755.1484375,577.0833333333334,755.1484375,598.6666666666666,755.1484375,620.25C755.1484375,641.8333333333334,755.1484375,663.4166666666666,755.1484375,682.7916666666666C755.1484375,702.1666666666666,755.1484375,719.3333333333334,755.1484375,736.5C755.1484375,753.6666666666666,755.1484375,770.8333333333334,755.1484375,790.2083333333334C755.1484375,809.5833333333334,755.1484375,831.1666666666666,755.1484375,852.75C755.1484375,874.3333333333334,755.1484375,895.9166666666666,714.7701822916666,913.8933940220212C674.3919270833334,931.8701213773757,593.6354166666666,946.2402427547512,553.2571614583334,953.425303443439L512.87890625,960.6103641321267" id="edge16" class="transition" marker-end="url(#statediagram-barbEnd)"></path><path d="M1416.05078125,874.5254092624292L1370.361328125,881.6878410520244C1324.671875,888.8502728416194,1233.29296875,903.1751364208097,1082.7643229166667,919.3809135559846C932.2356770833334,935.5866906911596,722.5572916666666,953.673381382319,617.7180989583334,962.7167267278988L512.87890625,971.7600720734786" id="edge17" class="transition" marker-end="url(#statediagram-barbEnd)"></path><path d="M1131.3046875,476.67279633833914L1153.5863715277776,473.97733028194926C1175.8680555555554,471.28186422555945,1220.431423611111,465.8909321127797,1248.2835286458333,463.1954660563899C1276.1356336805554,460.5,1287.2764756944446,460.5,1298.4173177083333,465.5416666666667C1309.5581597222224,470.5833333333333,1320.699001736111,480.6666666666667,1320.6990017361113,490.75C1320.699001736111,500.8333333333333,1309.5581597222224,510.9166666666667,1298.4173177083333,515.9583333333334C1287.2764756944446,521,1276.1356336805554,521,1248.2835286458333,518.3045339436102C1220.431423611111,515.6090678872202,1175.8680555555554,510.21813577444055,1153.5863715277776,507.52266971805074L1131.3046875,504.82720366166086" id="edge18" class="transition" marker-end="url(#statediagram-barbEnd)"></path><path d="M1693.86328125,836.197188083465L1713.0203993055557,833.9143234028875C1732.177517361111,831.63145872231,1770.491753472222,827.0657293611549,1794.4381510416663,824.7828646805775C1818.384548611111,822.5,1827.963107638889,822.5,1837.5416666666667,827.5416666666666C1847.1202256944446,832.5833333333334,1856.6987847222224,842.6666666666666,1856.698784722222,852.75C1856.6987847222224,862.8333333333334,1847.1202256944446,872.9166666666666,1837.541666666667,877.9583333333334C1827.963107638889,883,1818.384548611111,883,1794.4381510416667,880.7171353194225C1770.491753472222,878.4342706388451,1732.177517361111,873.86854127769,1713.0203993055557,871.5856765971125L1693.86328125,869.302811916535" id="edge19" class="transition" marker-end="url(#statediagram-barbEnd)"></path><path d="M1001.7998461631274,521L999.3026061776062,526.75C996.8053661920849,532.5,991.8108862210424,544,1000.5174046814673,555.5C1009.223923141892,567,1031.6314400337837,578.5,1042.8351984797298,584.25L1054.0389569256756,590" id="edge20" class="transition" marker-end="url(#statediagram-barbEnd)"></path><path d="M1613.6102045125483,883L1624.7591548021235,888.75C1635.9081050916986,894.5,1658.2060056708494,906,1669.3549559604246,917.5C1680.50390625,929,1680.50390625,940.5,1680.50390625,946.25L1680.50390625,952" id="edge21" class="transition" marker-end="url(#statediagram-barbEnd)"></path><path d="M1680.50390625,1012.5L1680.50390625,1018.25C1680.50390625,1024,1680.50390625,1035.5,1680.50390625,1047C1680.50390625,1058.5,1680.50390625,1070,1680.50390625,1075.75L1680.50390625,1081.5" id="edge22" class="transition" marker-end="url(#statediagram-barbEnd)"></path></g><g class="edgeLabels"><g class="edgeLabel"><g class="label" transform="translate(0, 0)"><rect rx="0" ry="0" width="0" height="0" style="fill:#e8e8e8;"></rect><text style=""></text></g></g><g class="edgeLabel" transform="translate(484.28515625, 102.25)"><g class="label" transform="translate(-68.6875, -9.5)"><rect rx="0" ry="0" width="137.296875" height="19.03125" style="fill:#e8e8e8;"></rect><text style=""><tspan xml:space="preserve" dy="1em" x="0" class="row">ProviderEventOpen</tspan></text></g></g><g class="edgeLabel" transform="translate(840.83984375, 167)"><g class="label" transform="translate(-98.296875, -9.5)"><rect rx="0" ry="0" width="196.484375" height="19.03125" style="fill:#e8e8e8;"></rect><text style=""><tspan xml:space="preserve" dy="1em" x="0" class="row">ProviderEventDealReceived</tspan></text></g></g><g class="edgeLabel" transform="translate(896.2421875, 296.5)"><g class="label" transform="translate(-108.375, -9.5)"><rect rx="0" ry="0" width="216.609375" height="19.03125" style="fill:#e8e8e8;"></rect><text style=""><tspan xml:space="preserve" dy="1em" x="0" class="row">ProviderEventDecisioningError</tspan></text></g></g><g class="edgeLabel" transform="translate(131.4921875, 555.5)"><g class="label" transform="translate(-123.4921875, -9.5)"><rect rx="0" ry="0" width="246.84375" height="19.03125" style="fill:#e8e8e8;"></rect><text style=""><tspan xml:space="preserve" dy="1em" x="0" class="row">ProviderEventGetPieceSizeErrored</tspan></text></g></g><g class="edgeLabel" transform="translate(288.1015625, 167)"><g class="label" transform="translate(-100.1953125, -9.5)"><rect rx="0" ry="0" width="200.265625" height="19.03125" style="fill:#e8e8e8;"></rect><text style=""><tspan xml:space="preserve" dy="1em" x="0" class="row">ProviderEventDealNotFound</tspan></text></g></g><g class="edgeLabel" transform="translate(542.9140625, 231.75)"><g class="label" transform="translate(-98.203125, -9.5)"><rect rx="0" ry="0" width="196.296875" height="19.03125" style="fill:#e8e8e8;"></rect><text style=""><tspan xml:space="preserve" dy="1em" x="0" class="row">ProviderEventDealRejected</tspan></text></g></g><g class="edgeLabel" transform="translate(661.1171875, 296.5)"><g class="label" transform="translate(-98.203125, -9.5)"><rect rx="0" ry="0" width="196.296875" height="19.03125" style="fill:#e8e8e8;"></rect><text style=""><tspan xml:space="preserve" dy="1em" x="0" class="row">ProviderEventDealRejected</tspan></text></g></g><g class="edgeLabel" transform="translate(1181.89453125, 296.5)"><g class="label" transform="translate(-99.390625, -9.5)"><rect rx="0" ry="0" width="198.65625" height="19.03125" style="fill:#e8e8e8;"></rect><text style=""><tspan xml:space="preserve" dy="1em" x="0" class="row">ProviderEventDealAccepted</tspan></text></g></g><g class="edgeLabel" transform="translate(501.671875, 685)"><g class="label" transform="translate(-96.0078125, -9.5)"><rect rx="0" ry="0" width="191.890625" height="19.03125" style="fill:#e8e8e8;"></rect><text style=""><tspan xml:space="preserve" dy="1em" x="0" class="row">ProviderEventBlockErrored</tspan></text></g></g><g class="edgeLabel" transform="translate(617.6796875, 788)"><g class="label" transform="translate(-96.0078125, -9.5)"><rect rx="0" ry="0" width="191.890625" height="19.03125" style="fill:#e8e8e8;"></rect><text style=""><tspan xml:space="preserve" dy="1em" x="0" class="row">ProviderEventBlockErrored</tspan></text></g></g><g class="edgeLabel" transform="translate(1489.25390625, 555.5)"><g class="label" transform="translate(-111.40625, -9.5)"><rect rx="0" ry="0" width="222.6875" height="19.03125" style="fill:#e8e8e8;"></rect><text style=""><tspan xml:space="preserve" dy="1em" x="0" class="row">ProviderEventBlocksCompleted</tspan></text></g></g><g class="edgeLabel" transform="translate(1620.66015625, 685)"><g class="label" transform="translate(-111.40625, -9.5)"><rect rx="0" ry="0" width="222.6875" height="19.03125" style="fill:#e8e8e8;"></rect><text style=""><tspan xml:space="preserve" dy="1em" x="0" class="row">ProviderEventBlocksCompleted</tspan></text></g></g><g class="edgeLabel" transform="translate(1014.9375, 426)"><g class="label" transform="translate(-118.703125, -9.5)"><rect rx="0" ry="0" width="237.265625" height="19.03125" style="fill:#e8e8e8;"></rect><text style=""><tspan xml:space="preserve" dy="1em" x="0" class="row">ProviderEventPaymentRequested</tspan></text></g></g><g class="edgeLabel" transform="translate(1239.14453125, 555.5)"><g class="label" transform="translate(-118.703125, -9.5)"><rect rx="0" ry="0" width="237.265625" height="19.03125" style="fill:#e8e8e8;"></rect><text style=""><tspan xml:space="preserve" dy="1em" x="0" class="row">ProviderEventPaymentRequested</tspan></text></g></g><g class="edgeLabel" transform="translate(1554.95703125, 788)"><g class="label" transform="translate(-118.703125, -9.5)"><rect rx="0" ry="0" width="237.265625" height="19.03125" style="fill:#e8e8e8;"></rect><text style=""><tspan xml:space="preserve" dy="1em" x="0" class="row">ProviderEventPaymentRequested</tspan></text></g></g><g class="edgeLabel" transform="translate(755.1484375, 736.5)"><g class="label" transform="translate(-117.46875, -9.5)"><rect rx="0" ry="0" width="234.796875" height="19.03125" style="fill:#e8e8e8;"></rect><text style=""><tspan xml:space="preserve" dy="1em" x="0" class="row">ProviderEventSaveVoucherFailed</tspan></text></g></g><g class="edgeLabel" transform="translate(1141.9140625, 917.5)"><g class="label" transform="translate(-117.46875, -9.5)"><rect rx="0" ry="0" width="234.796875" height="19.03125" style="fill:#e8e8e8;"></rect><text style=""><tspan xml:space="preserve" dy="1em" x="0" class="row">ProviderEventSaveVoucherFailed</tspan></text></g></g><g class="edgeLabel" transform="translate(1331.83984375, 490.75)"><g class="label" transform="translate(-137.4140625, -9.5)"><rect rx="0" ry="0" width="274.65625" height="19.03125" style="fill:#e8e8e8;"></rect><text style=""><tspan xml:space="preserve" dy="1em" x="0" class="row">ProviderEventPartialPaymentReceived</tspan></text></g></g><g class="edgeLabel" transform="translate(1866.27734375, 852.75)"><g class="label" transform="translate(-137.4140625, -9.5)"><rect rx="0" ry="0" width="274.65625" height="19.03125" style="fill:#e8e8e8;"></rect><text style=""><tspan xml:space="preserve" dy="1em" x="0" class="row">ProviderEventPartialPaymentReceived</tspan></text></g></g><g class="edgeLabel" transform="translate(986.81640625, 555.5)"><g class="label" transform="translate(-113.625, -9.5)"><rect rx="0" ry="0" width="227.109375" height="19.03125" style="fill:#e8e8e8;"></rect><text style=""><tspan xml:space="preserve" dy="1em" x="0" class="row">ProviderEventPaymentReceived</tspan></text></g></g><g class="edgeLabel" transform="translate(1680.50390625, 917.5)"><g class="label" transform="translate(-113.625, -9.5)"><rect rx="0" ry="0" width="227.109375" height="19.03125" style="fill:#e8e8e8;"></rect><text style=""><tspan xml:space="preserve" dy="1em" x="0" class="row">ProviderEventPaymentReceived</tspan></text></g></g><g class="edgeLabel" transform="translate(1680.50390625, 1047)"><g class="label" transform="translate(-84.5390625, -9.5)"><rect rx="0" ry="0" width="168.96875" height="19.03125" style="fill:#e8e8e8;"></rect><text style=""><tspan xml:space="preserve" dy="1em" x="0" class="row">ProviderEventComplete</tspan></text></g></g></g><g class="nodes"><g class="node statediagram-state" id="0" transform="translate(278.31640625, 102.25)"><rect class="outer title-state" x="-102.28125" y="-30.25" width="204.5625" height="60.5"></rect><line class="divider" x1="-102.28125" x2="102.28125" y1="-3.75" y2="-3.75"></line><g class="label" transform="translate(-94.78125, -27.25)"><text style=""><tspan xml:space="preserve" dy="1em" x="0" class="title-row">DealStatusNew</tspan></text><text style="" transform="translate( 0, 26.5)"><tspan xml:space="preserve" dy="1em" x="0" class="title-row">On entry runs ReceiveDeal</tspan></text></g></g><g class="node statediagram-state" id="5" transform="translate(840.83984375, 231.75)"><rect class="outer title-state" x="-117.8671875" y="-30.25" width="235.734375" height="60.5"></rect><line class="divider" x1="-117.8671875" x2="117.8671875" y1="-3.75" y2="-3.75"></line><g class="label" transform="translate(-110.3671875, -27.25)"><text style=""><tspan xml:space="preserve" dy="1em" x="0" class="title-row">DealStatusAwaitingAcceptance</tspan></text><text style="" transform="translate( 0, 26.5)"><tspan xml:space="preserve" dy="1em" x="0" class="title-row">On entry runs DecideOnDeal</tspan></text></g></g><g class="node statediagram-state" id="6" transform="translate(1181.89453125, 361.25)"><rect class="outer title-state" x="-98" y="-30.25" width="196" height="60.5"></rect><line class="divider" x1="-98" x2="98" y1="-3.75" y2="-3.75"></line><g class="label" transform="translate(-90.5, -27.25)"><text style=""><tspan xml:space="preserve" dy="1em" x="0" class="title-row">DealStatusAccepted</tspan></text><text style="" transform="translate( 0, 26.5)"><tspan xml:space="preserve" dy="1em" x="0" class="title-row">On entry runs SendBlocks</tspan></text></g></g><g class="node statediagram-state" id="7" transform="translate(391.26953125, 982.25)"><rect class="outer title-state" x="-121.609375" y="-30.25" width="243.21875" height="60.5"></rect><line class="divider" x1="-121.609375" x2="121.609375" y1="-3.75" y2="-3.75"></line><g class="label" transform="translate(-114.109375, -27.25)"><text style=""><tspan xml:space="preserve" dy="1em" x="0" class="title-row">DealStatusFailed</tspan></text><text style="" transform="translate( 0, 26.5)"><tspan xml:space="preserve" dy="1em" x="0" class="title-row">On entry runs SendFailResponse</tspan></text></g></g><g class="node statediagram-state" id="8" transform="translate(542.9140625, 361.25)"><rect class="outer title-state" x="-121.609375" y="-30.25" width="243.21875" height="60.5"></rect><line class="divider" x1="-121.609375" x2="121.609375" y1="-3.75" y2="-3.75"></line><g class="label" transform="translate(-114.109375, -27.25)"><text style=""><tspan xml:space="preserve" dy="1em" x="0" class="title-row">DealStatusRejected</tspan></text><text style="" transform="translate( 0, 26.5)"><tspan xml:space="preserve" dy="1em" x="0" class="title-row">On entry runs SendFailResponse</tspan></text></g></g><g class="node statediagram-state" id="9" transform="translate(1014.9375, 490.75)"><rect class="outer title-state" x="-116.3671875" y="-30.25" width="232.734375" height="60.5"></rect><line class="divider" x1="-116.3671875" x2="116.3671875" y1="-3.75" y2="-3.75"></line><g class="label" transform="translate(-108.8671875, -27.25)"><text style=""><tspan xml:space="preserve" dy="1em" x="0" class="title-row">DealStatusFundsNeeded</tspan></text><text style="" transform="translate( 0, 26.5)"><tspan xml:space="preserve" dy="1em" x="0" class="title-row">On entry runs ProcessPayment</tspan></text></g></g><g class="node statediagram-state" id="10" transform="translate(1112.98046875, 620.25)"><rect class="outer title-state" x="-98" y="-30.25" width="196" height="60.5"></rect><line class="divider" x1="-98" x2="98" y1="-3.75" y2="-3.75"></line><g class="label" transform="translate(-90.5, -27.25)"><text style=""><tspan xml:space="preserve" dy="1em" x="0" class="title-row">DealStatusOngoing</tspan></text><text style="" transform="translate( 0, 26.5)"><tspan xml:space="preserve" dy="1em" x="0" class="title-row">On entry runs SendBlocks</tspan></text></g></g><g class="node statediagram-state" id="11" transform="translate(1554.95703125, 852.75)"><rect class="outer title-state" x="-138.90625" y="-30.25" width="277.8125" height="60.5"></rect><line class="divider" x1="-138.90625" x2="138.90625" y1="-3.75" y2="-3.75"></line><g class="label" transform="translate(-131.40625, -27.25)"><text style=""><tspan xml:space="preserve" dy="1em" x="0" class="title-row">DealStatusFundsNeededLastPayment</tspan></text><text style="" transform="translate( 0, 26.5)"><tspan xml:space="preserve" dy="1em" x="0" class="title-row">On entry runs ProcessPayment</tspan></text></g></g><g class="node statediagram-state" id="12" transform="translate(1680.50390625, 1098.5)"><rect class="outer title-state" x="-84.2265625" y="-17" width="168.453125" height="34"></rect><line class="divider" x1="-84.2265625" x2="84.2265625" y1="9.5" y2="9.5"></line><g class="label" transform="translate(-76.7265625, -14)"><text style=""><tspan xml:space="preserve" dy="1em" x="0" class="title-row">DealStatusCompleted</tspan></text><text style="" transform="translate( 0, 26.5)"><tspan xml:space="preserve" dy="1em" x="0" class="title-row"></tspan></text></g></g><g class="node statediagram-state" id="13" transform="translate(288.1015625, 231.75)"><rect class="outer title-state" x="-121.609375" y="-30.25" width="243.21875" height="60.5"></rect><line class="divider" x1="-121.609375" x2="121.609375" y1="-3.75" y2="-3.75"></line><g class="label" transform="translate(-114.109375, -27.25)"><text style=""><tspan xml:space="preserve" dy="1em" x="0" class="title-row">DealStatusDealNotFound</tspan></text><text style="" transform="translate( 0, 26.5)"><tspan xml:space="preserve" dy="1em" x="0" class="title-row">On entry runs SendFailResponse</tspan></text></g></g><g class="node statediagram-state" id="15" transform="translate(896.2421875, 361.25)"><rect class="outer title-state" x="-72.0625" y="-17" width="144.125" height="34"></rect><line class="divider" x1="-72.0625" x2="72.0625" y1="9.5" y2="9.5"></line><g class="label" transform="translate(-64.5625, -14)"><text style=""><tspan xml:space="preserve" dy="1em" x="0" class="title-row">DealStatusErrored</tspan></text><text style="" transform="translate( 0, 26.5)"><tspan xml:space="preserve" dy="1em" x="0" class="title-row"></tspan></text></g></g><g class="node statediagram-state" id="16" transform="translate(1554.95703125, 736.5)"><rect class="outer title-state" x="-102.1875" y="-17" width="204.375" height="34"></rect><line class="divider" x1="-102.1875" x2="102.1875" y1="9.5" y2="9.5"></line><g class="label" transform="translate(-94.6875, -14)"><text style=""><tspan xml:space="preserve" dy="1em" x="0" class="title-row">DealStatusBlocksComplete</tspan></text><text style="" transform="translate( 0, 26.5)"><tspan xml:space="preserve" dy="1em" x="0" class="title-row"></tspan></text></g></g><g class="node statediagram-state" id="17" transform="translate(1680.50390625, 982.25)"><rect class="outer title-state" x="-86.3984375" y="-30.25" width="172.796875" height="60.5"></rect><line class="divider" x1="-86.3984375" x2="86.3984375" y1="-3.75" y2="-3.75"></line><g class="label" transform="translate(-78.8984375, -27.25)"><text style=""><tspan xml:space="preserve" dy="1em" x="0" class="title-row">DealStatusFinalizing</tspan></text><text style="" transform="translate( 0, 26.5)"><tspan xml:space="preserve" dy="1em" x="0" class="title-row">On entry runs Finalize</tspan></text></g></g><g class="node default" id="root_start" transform="translate(278.31640625, 15)"><circle class="state-start" r="7" width="14" height="14"></circle></g></g></g></g></svg>