<svg id="mermaid-1599198150451" width="5372.703125" xmlns="http://www.w3.org/2000/svg" class="statediagram" height="2405" viewBox="0 0 5372.703125 2405"><style>#mermaid-1599198150451 .label{font-family:'trebuchet ms', verdana, arial;font-family:var(--mermaid-font-family);color:#333}#mermaid-1599198150451 .label text{fill:#333}#mermaid-1599198150451 .node rect,#mermaid-1599198150451 .node circle,#mermaid-1599198150451 .node ellipse,#mermaid-1599198150451 .node polygon,#mermaid-1599198150451 .node path{fill:#ECECFF;stroke:#9370db;stroke-width:1px}#mermaid-1599198150451 .node .label{text-align:center}#mermaid-1599198150451 .node.clickable{cursor:pointer}#mermaid-1599198150451 .arrowheadPath{fill:#333}#mermaid-1599198150451 .edgePath .path{stroke:#333;stroke-width:1.5px}#mermaid-1599198150451 .edgeLabel{background-color:#e8e8e8;text-align:center}#mermaid-1599198150451 .edgeLabel rect{opacity:0.5}#mermaid-1599198150451 .cluster rect{fill:#ffffde;stroke:#aa3;stroke-width:1px}#mermaid-1599198150451 .cluster text{fill:#333}#mermaid-1599198150451 div.mermaidTooltip{position:absolute;text-align:center;max-width:200px;padding:2px;font-family:'trebuchet ms', verdana, arial;font-family:var(--mermaid-font-family);font-size:12px;background:#ffffde;border:1px solid #aa3;border-radius:2px;pointer-events:none;z-index:100}#mermaid-1599198150451 .actor{stroke:#ccf;fill:#ECECFF}#mermaid-1599198150451 text.actor{fill:#000;stroke:none}#mermaid-1599198150451 .actor-line{stroke:grey}#mermaid-1599198150451 .messageLine0{stroke-width:1.5;stroke-dasharray:'2 2';stroke:#333}#mermaid-1599198150451 .messageLine1{stroke-width:1.5;stroke-dasharray:'2 2';stroke:#333}#mermaid-1599198150451 #arrowhead{fill:#333}#mermaid-1599198150451 .sequenceNumber{fill:#fff}#mermaid-1599198150451 #sequencenumber{fill:#333}#mermaid-1599198150451 #crosshead path{fill:#333 !important;stroke:#333 !important}#mermaid-1599198150451 .messageText{fill:#333;stroke:none}#mermaid-1599198150451 .labelBox{stroke:#ccf;fill:#ECECFF}#mermaid-1599198150451 .labelText{fill:#000;stroke:none}#mermaid-1599198150451 .loopText{fill:#000;stroke:none}#mermaid-1599198150451 .loopLine{stroke-width:2;stroke-dasharray:'2 2';stroke:#ccf}#mermaid-1599198150451 .note{stroke:#aa3;fill:#fff5ad}#mermaid-1599198150451 .noteText{fill:black;stroke:none;font-family:'trebuchet ms', verdana, arial;font-family:var(--mermaid-font-family);font-size:14px}#mermaid-1599198150451 .activation0{fill:#f4f4f4;stroke:#666}#mermaid-1599198150451 .activation1{fill:#f4f4f4;stroke:#666}#mermaid-1599198150451 .activation2{fill:#f4f4f4;stroke:#666}#mermaid-1599198150451 .mermaid-main-font{font-family:"trebuchet ms", verdana, arial;font-family:var(--mermaid-font-family)}#mermaid-1599198150451 .section{stroke:none;opacity:0.2}#mermaid-1599198150451 .section0{fill:rgba(102,102,255,0.49)}#mermaid-1599198150451 .section2{fill:#fff400}#mermaid-1599198150451 .section1,#mermaid-1599198150451 .section3{fill:#fff;opacity:0.2}#mermaid-1599198150451 .sectionTitle0{fill:#333}#mermaid-1599198150451 .sectionTitle1{fill:#333}#mermaid-1599198150451 .sectionTitle2{fill:#333}#mermaid-1599198150451 .sectionTitle3{fill:#333}#mermaid-1599198150451 .sectionTitle{text-anchor:start;font-size:11px;text-height:14px;font-family:'trebuchet ms', verdana, arial;font-family:var(--mermaid-font-family)}#mermaid-1599198150451 .grid .tick{stroke:#d3d3d3;opacity:0.8;shape-rendering:crispEdges}#mermaid-1599198150451 .grid .tick text{font-family:'trebuchet ms', verdana, arial;font-family:var(--mermaid-font-family)}#mermaid-1599198150451 .grid path{stroke-width:0}#mermaid-1599198150451 .today{fill:none;stroke:red;stroke-width:2px}#mermaid-1599198150451 .task{stroke-width:2}#mermaid-1599198150451 .taskText{text-anchor:middle;font-family:'trebuchet ms', verdana, arial;font-family:var(--mermaid-font-family)}#mermaid-1599198150451 .taskText:not([font-size]){font-size:11px}#mermaid-1599198150451 .taskTextOutsideRight{fill:#000;text-anchor:start;font-size:11px;font-family:'trebuchet ms', verdana, arial;font-family:var(--mermaid-font-family)}#mermaid-1599198150451 .taskTextOutsideLeft{fill:#000;text-anchor:end;font-size:11px}#mermaid-1599198150451 .task.clickable{cursor:pointer}#mermaid-1599198150451 .taskText.clickable{cursor:pointer;fill:#003163 !important;font-weight:bold}#mermaid-1599198150451 .taskTextOutsideLeft.clickable{cursor:pointer;fill:#003163 !important;font-weight:bold}#mermaid-1599198150451 .taskTextOutsideRight.clickable{cursor:pointer;fill:#003163 !important;font-weight:bold}#mermaid-1599198150451 .taskText0,#mermaid-1599198150451 .taskText1,#mermaid-1599198150451 .taskText2,#mermaid-1599198150451 .taskText3{fill:#fff}#mermaid-1599198150451 .task0,#mermaid-1599198150451 .task1,#mermaid-1599198150451 .task2,#mermaid-1599198150451 .task3{fill:#8a90dd;stroke:#534fbc}#mermaid-1599198150451 .taskTextOutside0,#mermaid-1599198150451 .taskTextOutside2{fill:#000}#mermaid-1599198150451 .taskTextOutside1,#mermaid-1599198150451 .taskTextOutside3{fill:#000}#mermaid-1599198150451 .active0,#mermaid-1599198150451 .active1,#mermaid-1599198150451 .active2,#mermaid-1599198150451 .active3{fill:#bfc7ff;stroke:#534fbc}#mermaid-1599198150451 .activeText0,#mermaid-1599198150451 .activeText1,#mermaid-1599198150451 .activeText2,#mermaid-1599198150451 .activeText3{fill:#000 !important}#mermaid-1599198150451 .done0,#mermaid-1599198150451 .done1,#mermaid-1599198150451 .done2,#mermaid-1599198150451 .done3{stroke:grey;fill:#d3d3d3;stroke-width:2}#mermaid-1599198150451 .doneText0,#mermaid-1599198150451 .doneText1,#mermaid-1599198150451 .doneText2,#mermaid-1599198150451 .doneText3{fill:#000 !important}#mermaid-1599198150451 .crit0,#mermaid-1599198150451 .crit1,#mermaid-1599198150451 .crit2,#mermaid-1599198150451 .crit3{stroke:#f88;fill:red;stroke-width:2}#mermaid-1599198150451 .activeCrit0,#mermaid-1599198150451 .activeCrit1,#mermaid-1599198150451 .activeCrit2,#mermaid-1599198150451 .activeCrit3{stroke:#f88;fill:#bfc7ff;stroke-width:2}#mermaid-1599198150451 .doneCrit0,#mermaid-1599198150451 .doneCrit1,#mermaid-1599198150451 .doneCrit2,#mermaid-1599198150451 .doneCrit3{stroke:#f88;fill:#d3d3d3;stroke-width:2;cursor:pointer;shape-rendering:crispEdges}#mermaid-1599198150451 .milestone{transform:rotate(45deg) scale(0.8, 0.8)}#mermaid-1599198150451 .milestoneText{font-style:italic}#mermaid-1599198150451 .doneCritText0,#mermaid-1599198150451 .doneCritText1,#mermaid-1599198150451 .doneCritText2,#mermaid-1599198150451 .doneCritText3{fill:#000 !important}#mermaid-1599198150451 .activeCritText0,#mermaid-1599198150451 .activeCritText1,#mermaid-1599198150451 .activeCritText2,#mermaid-1599198150451 .activeCritText3{fill:#000 !important}#mermaid-1599198150451 .titleText{text-anchor:middle;font-size:18px;fill:#000;font-family:'trebuchet ms', verdana, arial;font-family:var(--mermaid-font-family)}#mermaid-1599198150451 g.classGroup text{fill:#9370db;stroke:none;font-family:'trebuchet ms', verdana, arial;font-family:var(--mermaid-font-family);font-size:10px}#mermaid-1599198150451 g.classGroup text .title{font-weight:bolder}#mermaid-1599198150451 g.clickable{cursor:pointer}#mermaid-1599198150451 g.classGroup rect{fill:#ECECFF;stroke:#9370db}#mermaid-1599198150451 g.classGroup line{stroke:#9370db;stroke-width:1}#mermaid-1599198150451 .classLabel .box{stroke:none;stroke-width:0;fill:#ECECFF;opacity:0.5}#mermaid-1599198150451 .classLabel .label{fill:#9370db;font-size:10px}#mermaid-1599198150451 .relation{stroke:#9370db;stroke-width:1;fill:none}#mermaid-1599198150451 .dashed-line{stroke-dasharray:3}#mermaid-1599198150451 #compositionStart{fill:#9370db;stroke:#9370db;stroke-width:1}#mermaid-1599198150451 #compositionEnd{fill:#9370db;stroke:#9370db;stroke-width:1}#mermaid-1599198150451 #aggregationStart{fill:#ECECFF;stroke:#9370db;stroke-width:1}#mermaid-1599198150451 #aggregationEnd{fill:#ECECFF;stroke:#9370db;stroke-width:1}#mermaid-1599198150451 #dependencyStart{fill:#9370db;stroke:#9370db;stroke-width:1}#mermaid-1599198150451 #dependencyEnd{fill:#9370db;stroke:#9370db;stroke-width:1}#mermaid-1599198150451 #extensionStart{fill:#9370db;stroke:#9370db;stroke-width:1}#mermaid-1599198150451 #extensionEnd{fill:#9370db;stroke:#9370db;stroke-width:1}#mermaid-1599198150451 .commit-id,#mermaid-1599198150451 .commit-msg,#mermaid-1599198150451 .branch-label{fill:lightgrey;color:lightgrey;font-family:'trebuchet ms', verdana, arial;font-family:var(--mermaid-font-family)}#mermaid-1599198150451 .pieTitleText{text-anchor:middle;font-size:25px;fill:#000;font-family:'trebuchet ms', verdana, arial;font-family:var(--mermaid-font-family)}#mermaid-1599198150451 .slice{font-family:'trebuchet ms', verdana, arial;font-family:var(--mermaid-font-family)}#mermaid-1599198150451 g.stateGroup text{fill:#9370db;stroke:none;font-size:10px;font-family:'trebuchet ms', verdana, arial;font-family:var(--mermaid-font-family)}#mermaid-1599198150451 g.stateGroup text{fill:#9370db;stroke:none;font-size:10px}#mermaid-1599198150451 g.stateGroup .state-title{font-weight:bolder;fill:#000}#mermaid-1599198150451 g.stateGroup rect{fill:#ECECFF;stroke:#9370db}#mermaid-1599198150451 g.stateGroup line{stroke:#9370db;stroke-width:1}#mermaid-1599198150451 .transition{stroke:#9370db;stroke-width:1;fill:none}#mermaid-1599198150451 .stateGroup .composit{fill:white;border-bottom:1px}#mermaid-1599198150451 .stateGroup .alt-composit{fill:#e0e0e0;border-bottom:1px}#mermaid-1599198150451 .state-note{stroke:#aa3;fill:#fff5ad}#mermaid-1599198150451 .state-note text{fill:black;stroke:none;font-size:10px}#mermaid-1599198150451 .stateLabel .box{stroke:none;stroke-width:0;fill:#ECECFF;opacity:0.5}#mermaid-1599198150451 .stateLabel text{fill:#000;font-size:10px;font-weight:bold;font-family:'trebuchet ms', verdana, arial;font-family:var(--mermaid-font-family)}#mermaid-1599198150451 .node circle.state-start{fill:black;stroke:black}#mermaid-1599198150451 .node circle.state-end{fill:black;stroke:white;stroke-width:1.5}#mermaid-1599198150451 #statediagram-barbEnd{fill:#9370db}#mermaid-1599198150451 .statediagram-cluster rect{fill:#ECECFF;stroke:#9370db;stroke-width:1px}#mermaid-1599198150451 .statediagram-cluster rect.outer{rx:5px;ry:5px}#mermaid-1599198150451 .statediagram-state .divider{stroke:#9370db}#mermaid-1599198150451 .statediagram-state .title-state{rx:5px;ry:5px}#mermaid-1599198150451 .statediagram-cluster.statediagram-cluster .inner{fill:white}#mermaid-1599198150451 .statediagram-cluster.statediagram-cluster-alt .inner{fill:#e0e0e0}#mermaid-1599198150451 .statediagram-cluster .inner{rx:0;ry:0}#mermaid-1599198150451 .statediagram-state rect.basic{rx:5px;ry:5px}#mermaid-1599198150451 .statediagram-state rect.divider{stroke-dasharray:10,10;fill:#efefef}#mermaid-1599198150451 .note-edge{stroke-dasharray:5}#mermaid-1599198150451 .statediagram-note rect{fill:#fff5ad;stroke:#aa3;stroke-width:1px;rx:0;ry:0}:root{--mermaid-font-family: '"trebuchet ms", verdana, arial';--mermaid-font-family: "Comic Sans MS", "Comic Sans", cursive}

:root { --mermaid-font-family: "trebuchet ms", verdana, arial;}</style><style>#mermaid-1599198150451 {
    color: rgb(0, 0, 0);
    font: 16px "trebuchet ms", verdana, arial;
  }</style><g><defs><marker id="statediagram-barbEnd" refX="19" refY="7" markerWidth="20" markerHeight="14" markerUnits="0" orient="auto"><path d="M 19,7 L9,13 L14,7 L9,1 Z"></path></marker></defs><g class="root"><g class="clusters"><g class="note-cluster" id="0----parent"><rect x="3716.8515625" y="133" width="676.41796875" height="397" fill="none"></rect></g><g class="note-cluster" id="3----parent"><rect x="694.5546875" y="133" width="491.1640625" height="397" fill="none"></rect></g><g class="note-cluster" id="4----parent"><rect x="138.15234375" y="599" width="567.85546875" height="365" fill="none"></rect></g><g class="note-cluster" id="6----parent"><rect x="1230.93359375" y="350" width="1751.23828125" height="397" fill="none"></rect></g><g class="note-cluster" id="8----parent"><rect x="8" y="2054" width="3708.984375" height="240" fill="none"></rect></g><g class="note-cluster" id="10----parent"><rect x="2024.4140625" y="1317" width="1491.03125" height="229.5" fill="none"></rect></g><g class="note-cluster" id="11----parent"><rect x="3349.4140625" y="1615.5" width="1328.47265625" height="240" fill="none"></rect></g><g class="note-cluster" id="24----parent"><rect x="1383.85546875" y="816" width="2682.16015625" height="302.5" fill="none"></rect></g><g class="note-cluster" id="25----parent"><rect x="140.1171875" y="8" width="416.25" height="273" fill="none"></rect></g></g><g class="edgePaths"><path d="M4093.57421875,65L4093.57421875,72.16666666666667C4093.57421875,79.33333333333333,4093.57421875,93.66666666666667,4093.57421875,105C4093.57421875,116.33333333333333,4093.57421875,124.66666666666667,4093.57421875,136.125C4093.57421875,147.58333333333334,4093.57421875,162.16666666666666,4093.57421875,169.45833333333334L4093.57421875,176.75" id="edge0" class="transition" marker-end="url(#statediagram-barbEnd)"></path><path d="M4071.1022883234796,237.25L4065.685500686233,244.54166666666666C4060.2687130489867,251.83333333333334,4049.4351377744933,266.4166666666667,4044.0183501372467,279.4583333333333C4038.6015625,292.5,4038.6015625,304,4038.6015625,315.5C4038.6015625,327,4038.6015625,338.5,4038.6015625,348.4166666666667C4038.6015625,358.3333333333333,4038.6015625,366.6666666666667,4038.6015625,370.8333333333333L4038.6015625,375" class="transition note-edge"></path><path d="M4196.16796875,189.82019086610546L4209.176649305556,187.64182572175454C4222.185329861111,185.46346057740365,4248.202690972223,181.1067302887018,4264.463541666667,178.9283651443509C4280.724392361111,176.75,4287.228732638889,176.75,4293.733072916667,181.79166666666666C4300.237413194444,186.83333333333334,4306.741753472222,196.91666666666666,4306.741753472222,207C4306.741753472222,217.08333333333334,4300.237413194444,227.16666666666666,4293.733072916667,232.20833333333334C4287.228732638889,237.25,4280.724392361111,237.25,4264.463541666667,235.0716348556491C4248.202690972223,232.8932697112982,4222.185329861111,228.53653942259635,4209.176649305556,226.35817427824546L4196.16796875,224.17980913389454" id="edge1" class="transition" marker-end="url(#statediagram-barbEnd)"></path><path d="M4136.865379539696,237.25L4147.300576699747,244.54166666666666C4157.7357738597975,251.83333333333334,4178.606168179899,266.4166666666667,4189.041365339949,279.4583333333333C4199.4765625,292.5,4199.4765625,304,4199.4765625,315.5C4199.4765625,327,4199.4765625,338.5,3675.4108072916665,358.72100340248153C3151.3450520833335,378.9420068049631,2103.2135416666665,407.8840136099263,1579.1477864583333,422.3550170124078L1055.08203125,436.8260204148894" id="edge2" class="transition" marker-end="url(#statediagram-barbEnd)"></path><path d="M917.1830295138889,457L900.7553891782408,469.1666666666667C884.3277488425925,481.3333333333333,851.4724681712963,505.6666666666667,835.0448278356481,523.5833333333334C818.6171875,541.5,818.6171875,553,818.6171875,564.5C818.6171875,576,818.6171875,587.5,818.6171875,602.75C818.6171875,618,818.6171875,637,818.6171875,646.5L818.6171875,656" id="edge3" class="transition" marker-end="url(#statediagram-barbEnd)"></path><path d="M959.3126302083333,457L973.0365668402777,469.1666666666667C986.7605034722222,481.3333333333333,1014.2083767361111,505.6666666666667,1027.9323133680555,523.5833333333334C1041.65625,541.5,1041.65625,553,1041.65625,564.5C1041.65625,576,1041.65625,587.5,1041.65625,602.75C1041.65625,618,1041.65625,637,1041.65625,646.5L1041.65625,656" id="edge4" class="transition" marker-end="url(#statediagram-barbEnd)"></path><path d="M963.0904079861111,457L979.5180483217592,469.1666666666667C995.9456886574075,481.3333333333333,1028.8009693287038,505.6666666666667,1091.8959273726853,523.5833333333334C1154.9908854166667,541.5,1248.3255208333333,553,1294.9928385416667,564.5C1341.66015625,576,1341.66015625,587.5,1406.68359375,602.056525873286C1471.70703125,616.6130517465718,1601.75390625,634.2261034931438,1666.77734375,643.0326293664298L1731.80078125,651.8391552397158" id="edge5" class="transition" marker-end="url(#statediagram-barbEnd)"></path><path d="M430.1621621621622,920.25L429.1768018018018,927.5416666666666C428.19144144144144,934.8333333333334,426.2207207207207,949.4166666666666,425.23536036036035,962.4583333333334C424.25,975.5,424.25,987,424.25,1003.5416666666666C424.25,1020.0833333333334,424.25,1041.6666666666667,424.25,1061.6666666666667C424.25,1081.6666666666667,424.25,1100.0833333333333,424.25,1115.0416666666667C424.25,1130,424.25,1141.5,424.25,1158.0416666666667C424.25,1174.5833333333333,424.25,1196.1666666666667,424.25,1217.75C424.25,1239.3333333333333,424.25,1260.9166666666667,424.25,1277.4583333333333C424.25,1294,424.25,1305.5,424.25,1319.5833333333333C424.25,1333.6666666666667,424.25,1350.3333333333333,424.25,1368.5833333333333C424.25,1386.8333333333333,424.25,1406.6666666666667,424.25,1427.375C424.25,1448.0833333333333,424.25,1469.6666666666667,424.25,1489.6666666666667C424.25,1509.6666666666667,424.25,1528.0833333333333,424.25,1543.0416666666667C424.25,1558,424.25,1569.5,424.25,1581C424.25,1592.5,424.25,1604,424.25,1618.9583333333333C424.25,1633.9166666666667,424.25,1652.3333333333333,424.25,1672.3333333333333C424.25,1692.3333333333333,424.25,1713.9166666666667,424.25,1735.5C424.25,1757.0833333333333,424.25,1778.6666666666667,424.25,1798.6666666666667C424.25,1818.6666666666667,424.25,1837.0833333333333,424.25,1852.0416666666667C424.25,1867,424.25,1878.5,424.25,1895.0416666666667C424.25,1911.5833333333333,424.25,1933.1666666666667,424.25,1954.75C424.25,1976.3333333333333,424.25,1997.9166666666667,424.25,2014.4583333333333C424.25,2031,424.25,2042.5,424.25,2057.4583333333335C424.25,2072.4166666666665,424.25,2090.8333333333335,424.25,2110.8333333333335C424.25,2130.8333333333335,424.25,2152.4166666666665,674.9661458333334,2173.337291045164C925.6822916666666,2194.2579154236614,1427.1145833333333,2214.5158308473233,1677.8307291666667,2224.6447885591538L1928.546875,2234.7737462709847" id="edge6" class="transition" marker-end="url(#statediagram-barbEnd)"></path><path d="M4235.609375,2121.5665994591773L4124.48046875,2130.3054995493144C4013.3515625,2139.0443996394515,3791.09375,2156.5221998197258,3439.390625,2175.3639030503327C3087.6875,2194.20560628094,2606.5390625,2214.41121256188,2365.96484375,2224.5140157023498L2125.390625,2234.6168188428196" id="edge7" class="transition" marker-end="url(#statediagram-barbEnd)"></path><path d="M1731.80078125,693.3461213266885L1663.130859375,702.2884344389071C1594.4609375,711.2307475511257,1457.12109375,729.1153737755627,1388.451171875,743.8076868877814C1319.78125,758.5,1319.78125,770,1319.78125,781.5C1319.78125,793,1319.78125,804.5,1319.78125,822.5833333333334C1319.78125,840.6666666666666,1319.78125,865.3333333333334,1319.78125,890C1319.78125,914.6666666666666,1319.78125,939.3333333333334,1319.78125,957.4166666666666C1319.78125,975.5,1319.78125,987,1319.78125,1003.5416666666666C1319.78125,1020.0833333333334,1319.78125,1041.6666666666667,1319.78125,1061.6666666666667C1319.78125,1081.6666666666667,1319.78125,1100.0833333333333,1319.78125,1115.0416666666667C1319.78125,1130,1319.78125,1141.5,1319.78125,1158.0416666666667C1319.78125,1174.5833333333333,1319.78125,1196.1666666666667,1319.78125,1217.75C1319.78125,1239.3333333333333,1319.78125,1260.9166666666667,1319.78125,1277.4583333333333C1319.78125,1294,1319.78125,1305.5,1319.78125,1319.5833333333333C1319.78125,1333.6666666666667,1319.78125,1350.3333333333333,1319.78125,1368.5833333333333C1319.78125,1386.8333333333333,1319.78125,1406.6666666666667,1319.78125,1427.375C1319.78125,1448.0833333333333,1319.78125,1469.6666666666667,1319.78125,1489.6666666666667C1319.78125,1509.6666666666667,1319.78125,1528.0833333333333,1319.78125,1543.0416666666667C1319.78125,1558,1319.78125,1569.5,1319.78125,1581C1319.78125,1592.5,1319.78125,1604,1319.78125,1618.9583333333333C1319.78125,1633.9166666666667,1319.78125,1652.3333333333333,1319.78125,1672.3333333333333C1319.78125,1692.3333333333333,1319.78125,1713.9166666666667,1319.78125,1735.5C1319.78125,1757.0833333333333,1319.78125,1778.6666666666667,1319.78125,1798.6666666666667C1319.78125,1818.6666666666667,1319.78125,1837.0833333333333,1319.78125,1852.0416666666667C1319.78125,1867,1319.78125,1878.5,1319.78125,1895.0416666666667C1319.78125,1911.5833333333333,1319.78125,1933.1666666666667,1319.78125,1954.75C1319.78125,1976.3333333333333,1319.78125,1997.9166666666667,1319.78125,2014.4583333333333C1319.78125,2031,1319.78125,2042.5,1319.78125,2057.4583333333335C1319.78125,2072.4166666666665,1319.78125,2090.8333333333335,1319.78125,2110.8333333333335C1319.78125,2130.8333333333335,1319.78125,2152.4166666666665,1421.2421875,2172.498084217116C1522.703125,2192.579501767565,1725.625,2211.1590035351305,1827.0859375,2220.448754418913L1928.546875,2229.7385053026956" id="edge8" class="transition" marker-end="url(#statediagram-barbEnd)"></path><path d="M1782.5160736908783,703.25L1757.079149950732,710.5416666666666C1731.6422262105855,717.8333333333334,1680.7683787302929,732.4166666666666,1470.7194758234798,745.4583333333334C1260.6705729166667,758.5,891.4466145833334,770,706.8346354166666,781.5C522.22265625,793,522.22265625,804.5,513.5541794235642,817.5416666666666C504.8857025971284,830.5833333333334,487.54874894425683,845.1666666666666,478.880272117821,852.4583333333334L470.21179529138516,859.75" id="edge9" class="transition" marker-end="url(#statediagram-barbEnd)"></path><path d="M2044.28515625,683.7639984435062L2197.2662760416665,694.3033320362553C2350.2473958333335,704.8426656290043,2656.2096354166665,725.9213328145021,2809.1907552083335,742.2106664072511C2962.171875,758.5,2962.171875,770,2962.171875,781.5C2962.171875,793,2962.171875,804.5,2962.171875,822.5833333333334C2962.171875,840.6666666666666,2962.171875,865.3333333333334,2962.171875,890C2962.171875,914.6666666666666,2962.171875,939.3333333333334,2962.171875,957.4166666666666C2962.171875,975.5,2962.171875,987,2946.4322212837837,998.5C2930.692567567568,1010,2899.213260135135,1021.5,2883.4736064189187,1027.25L2867.7339527027025,1033" id="edge10" class="transition" marker-end="url(#statediagram-barbEnd)"></path><path d="M3866.48046875,1977.375154189202L3835.2337239583335,1984.395961824335C3803.9869791666665,1991.416769459468,3741.4934895833335,2005.4583847297338,3814.8170572916665,2018.229192364867C3888.140625,2031,4097.28125,2042.5,4208.323093420061,2052.4166666666665C4319.364936840121,2062.3333333333335,4332.307998680241,2070.6666666666665,4338.779529600302,2074.8333333333335L4345.251060520362,2079" id="edge11" class="transition" marker-end="url(#statediagram-barbEnd)"></path><path d="M502.08575274493245,920.25L518.4373460374437,927.5416666666666C534.788939329955,934.8333333333334,567.4921259149775,949.4166666666666,742.4609067074888,962.4583333333334C917.4296875,975.5,1234.6640625,987,1572.4466145833333,1002.1584860840071C1910.2291666666667,1017.3169721680142,2268.5598958333335,1036.1339443360282,2447.7252604166665,1045.5424304200353L2626.890625,1054.9509165040424" id="edge12" class="transition" marker-end="url(#statediagram-barbEnd)"></path><path d="M4548.859375,2098.816791628205L4660.9921875,2091.3473263568376C4773.125,2083.87786108547,4997.390625,2068.9389305427353,5109.5234375,2055.7194652713674C5221.65625,2042.5,5221.65625,2031,5221.65625,2014.4583333333333C5221.65625,1997.9166666666667,5221.65625,1976.3333333333333,5221.65625,1954.75C5221.65625,1933.1666666666667,5221.65625,1911.5833333333333,5221.65625,1895.0416666666667C5221.65625,1878.5,5221.65625,1867,5221.65625,1852.0416666666667C5221.65625,1837.0833333333333,5221.65625,1818.6666666666667,5221.65625,1798.6666666666667C5221.65625,1778.6666666666667,5221.65625,1757.0833333333333,5221.65625,1735.5C5221.65625,1713.9166666666667,5221.65625,1692.3333333333333,5221.65625,1672.3333333333333C5221.65625,1652.3333333333333,5221.65625,1633.9166666666667,5103.434895833333,1618.9583333333333C4985.213541666667,1604,4748.770833333333,1592.5,4630.549479166667,1581C4512.328125,1569.5,4512.328125,1558,4512.328125,1543.0416666666667C4512.328125,1528.0833333333333,4512.328125,1509.6666666666667,4512.328125,1489.6666666666667C4512.328125,1469.6666666666667,4512.328125,1448.0833333333333,4512.328125,1427.375C4512.328125,1406.6666666666667,4512.328125,1386.8333333333333,4512.328125,1368.5833333333333C4512.328125,1350.3333333333333,4512.328125,1333.6666666666667,4512.328125,1319.5833333333333C4512.328125,1305.5,4512.328125,1294,4392.999348958333,1278.6309515415003C4273.670572916667,1263.2619030830008,4035.0130208333335,1244.0238061660013,3915.6842447916665,1234.4047577075016L3796.35546875,1224.785709249002" id="edge13" class="transition" marker-end="url(#statediagram-barbEnd)"></path><path d="M4067.87109375,1950.0846018498073L4284.009765625,1940.070501541506C4500.1484375,1930.056401233205,4932.42578125,1910.0282006166024,5148.564453125,1894.264100308301C5364.703125,1878.5,5364.703125,1867,5364.703125,1852.0416666666667C5364.703125,1837.0833333333333,5364.703125,1818.6666666666667,5364.703125,1798.6666666666667C5364.703125,1778.6666666666667,5364.703125,1757.0833333333333,5364.703125,1735.5C5364.703125,1713.9166666666667,5364.703125,1692.3333333333333,5364.703125,1672.3333333333333C5364.703125,1652.3333333333333,5364.703125,1633.9166666666667,5246.481770833333,1618.9583333333333C5128.260416666667,1604,4891.817708333333,1592.5,4773.596354166667,1581C4655.375,1569.5,4655.375,1558,4655.375,1543.0416666666667C4655.375,1528.0833333333333,4655.375,1509.6666666666667,4655.375,1489.6666666666667C4655.375,1469.6666666666667,4655.375,1448.0833333333333,4655.375,1427.375C4655.375,1406.6666666666667,4655.375,1386.8333333333333,4655.375,1368.5833333333333C4655.375,1350.3333333333333,4655.375,1333.6666666666667,4655.375,1319.5833333333333C4655.375,1305.5,4655.375,1294,4512.205078125,1278.4536935559106C4369.03515625,1262.907387111821,4082.6953125,1243.3147742236422,3939.525390625,1233.5184677795528L3796.35546875,1223.7221613354634" id="edge14" class="transition" marker-end="url(#statediagram-barbEnd)"></path><path d="M2626.890625,1070.047420373062L2439.1380208333335,1078.122850310885C2251.3854166666665,1086.198280248708,1875.8802083333333,1102.3491401243539,1688.1276041666667,1116.174570062177C1500.375,1130,1500.375,1141.5,1500.375,1158.0416666666667C1500.375,1174.5833333333333,1500.375,1196.1666666666667,1500.375,1217.75C1500.375,1239.3333333333333,1500.375,1260.9166666666667,1500.375,1277.4583333333333C1500.375,1294,1500.375,1305.5,1500.375,1319.5833333333333C1500.375,1333.6666666666667,1500.375,1350.3333333333333,1500.375,1368.5833333333333C1500.375,1386.8333333333333,1500.375,1406.6666666666667,1500.375,1427.375C1500.375,1448.0833333333333,1500.375,1469.6666666666667,1500.375,1489.6666666666667C1500.375,1509.6666666666667,1500.375,1528.0833333333333,1500.375,1543.0416666666667C1500.375,1558,1500.375,1569.5,1500.375,1581C1500.375,1592.5,1500.375,1604,1500.375,1618.9583333333333C1500.375,1633.9166666666667,1500.375,1652.3333333333333,1500.375,1672.3333333333333C1500.375,1692.3333333333333,1500.375,1713.9166666666667,1500.375,1735.5C1500.375,1757.0833333333333,1500.375,1778.6666666666667,1500.375,1798.6666666666667C1500.375,1818.6666666666667,1500.375,1837.0833333333333,1500.375,1852.0416666666667C1500.375,1867,1500.375,1878.5,1500.375,1895.0416666666667C1500.375,1911.5833333333333,1500.375,1933.1666666666667,1500.375,1954.75C1500.375,1976.3333333333333,1500.375,1997.9166666666667,1500.375,2014.4583333333333C1500.375,2031,1500.375,2042.5,1500.375,2057.4583333333335C1500.375,2072.4166666666665,1500.375,2090.8333333333335,1500.375,2110.8333333333335C1500.375,2130.8333333333335,1500.375,2152.4166666666665,1571.7369791666667,2171.9830066959425C1643.0989583333333,2191.549346725219,1785.8229166666667,2209.098693450438,1857.1848958333333,2217.8733668130476L1928.546875,2226.648040175657" id="edge15" class="transition" marker-end="url(#statediagram-barbEnd)"></path><path d="M2942.96875,1072.698368634844L3070.6529947916665,1080.33197386237C3198.3372395833335,1087.965579089896,3453.7057291666665,1103.232789544948,3581.3899739583335,1116.616394772474C3709.07421875,1130,3709.07421875,1141.5,3709.07421875,1153C3709.07421875,1164.5,3709.07421875,1176,3709.07421875,1181.75L3709.07421875,1187.5" id="edge16" class="transition" marker-end="url(#statediagram-barbEnd)"></path><path d="M2609.05859375,1506.2621696225244L2540.3502604166665,1512.968474685437C2471.6419270833335,1519.6747797483495,2334.2252604166665,1533.0873898741747,2265.5169270833335,1545.5436949370876C2196.80859375,1558,2196.80859375,1569.5,2196.80859375,1581C2196.80859375,1592.5,2196.80859375,1604,2167.4830729166665,1614.6634090675764C2138.1575520833335,1625.326818135153,2079.5065104166665,1635.1536362703057,2050.1809895833335,1640.0670453378823L2020.85546875,1644.9804544054587" id="edge17" class="transition" marker-end="url(#statediagram-barbEnd)"></path><path d="M3621.79296875,1220.6708226418293L3313.8587239583335,1230.9756855348578C3005.9244791666665,1241.2805484278863,2390.0559895833335,1261.8902742139433,2082.1217447916665,1277.9451371069715C1774.1875,1294,1774.1875,1305.5,1774.1875,1319.5833333333333C1774.1875,1333.6666666666667,1774.1875,1350.3333333333333,1774.1875,1368.5833333333333C1774.1875,1386.8333333333333,1774.1875,1406.6666666666667,1774.1875,1427.375C1774.1875,1448.0833333333333,1774.1875,1469.6666666666667,1774.1875,1489.6666666666667C1774.1875,1509.6666666666667,1774.1875,1528.0833333333333,1774.1875,1543.0416666666667C1774.1875,1558,1774.1875,1569.5,1774.1875,1581C1774.1875,1592.5,1774.1875,1604,1781.190764046003,1613.9166666666667C1788.1940280920062,1623.8333333333333,1802.2005561840122,1632.1666666666667,1809.2038202300153,1636.3333333333333L1816.2070842760181,1640.5" id="edge18" class="transition" marker-end="url(#statediagram-barbEnd)"></path><path d="M2020.85546875,1653.0749381677879L2039.0928819444446,1650.9791151398233C2057.330295138889,1648.8832921118585,2093.805121527778,1644.6916460559294,2116.6018880208335,1642.5958230279648C2139.398654513889,1640.5,2148.517361111111,1640.5,2157.6360677083335,1645.5416666666667C2166.754774305555,1650.5833333333333,2175.873480902778,1660.6666666666667,2175.8734809027774,1670.75C2175.873480902778,1680.8333333333333,2166.754774305555,1690.9166666666667,2157.6360677083335,1695.9583333333333C2148.517361111111,1701,2139.398654513889,1701,2116.6018880208335,1698.9041769720352C2093.805121527778,1696.8083539440706,2057.330295138889,1692.6167078881415,2039.0928819444446,1690.5208848601767L2020.85546875,1688.4250618322121" id="edge19" class="transition" marker-end="url(#statediagram-barbEnd)"></path><path d="M3652.6328125,1384L3652.6328125,1391.0833333333333C3652.6328125,1398.1666666666667,3652.6328125,1412.3333333333333,3652.6328125,1430.2083333333333C3652.6328125,1448.0833333333333,3652.6328125,1469.6666666666667,3652.6328125,1489.6666666666667C3652.6328125,1509.6666666666667,3652.6328125,1528.0833333333333,3652.6328125,1543.0416666666667C3652.6328125,1558,3652.6328125,1569.5,3527.8131510416665,1581C3402.9934895833335,1592.5,3153.3541666666665,1604,3028.5345052083335,1618.9583333333333C2903.71484375,1633.9166666666667,2903.71484375,1652.3333333333333,2903.71484375,1672.3333333333333C2903.71484375,1692.3333333333333,2903.71484375,1713.9166666666667,2868.5611979166665,1731.4078071466347C2833.4075520833335,1748.8989476266026,2763.1002604166665,1762.2978952532058,2727.9466145833335,1768.9973690665072L2692.79296875,1775.6968428798086" id="edge20" class="transition" marker-end="url(#statediagram-barbEnd)"></path><path d="M2916.66796875,1476.9198650079406L2945.1458333333335,1474.266554173284C2973.6236979166665,1471.6132433386272,3030.5794270833335,1466.3066216693135,3066.1767578125,1463.6533108346568C3101.7740885416665,1461,3116.0130208333335,1461,3130.251953125,1466.0416666666667C3144.4908854166665,1471.0833333333333,3158.7298177083335,1481.1666666666667,3158.7298177083335,1491.25C3158.7298177083335,1501.3333333333333,3144.4908854166665,1511.4166666666667,3130.251953125,1516.4583333333333C3116.0130208333335,1521.5,3101.7740885416665,1521.5,3066.1767578125,1518.8466891653432C3030.5794270833335,1516.1933783306865,2973.6236979166665,1510.8867566613728,2945.1458333333335,1508.233445826716L2916.66796875,1505.5801349920594" id="edge21" class="transition" marker-end="url(#statediagram-barbEnd)"></path><path d="M3621.79296875,1224.5186283316257L3497.181640625,1234.1821902763547C3372.5703125,1243.8457522210838,3123.34765625,1263.172876110542,2998.736328125,1278.586438055271C2874.125,1294,2874.125,1305.5,2874.125,1319.5833333333333C2874.125,1333.6666666666667,2874.125,1350.3333333333333,2874.125,1368.5833333333333C2874.125,1386.8333333333333,2874.125,1406.6666666666667,2864.2446157094596,1422.3333333333333C2854.3642314189187,1438,2834.603462837838,1449.5,2824.723078547297,1455.25L2814.8426942567567,1461" id="edge22" class="transition" marker-end="url(#statediagram-barbEnd)"></path><path d="M3550.4453125,1380.27986758696L3491.1686197916665,1387.9832229891333C3431.8919270833335,1395.6865783913065,3313.3385416666665,1411.0932891956534,3207.708984375,1425.7454660294127C3102.0794270833335,1440.3976428631722,3009.3736979166665,1454.2952857263444,2963.0208333333335,1461.2441071579303L2916.66796875,1468.1929285895164" id="edge23" class="transition" marker-end="url(#statediagram-barbEnd)"></path><path d="M966.8681857638888,457L985.9995298032408,469.1666666666667C1005.1308738425927,481.3333333333333,1043.3935619212964,505.6666666666667,1217.2970413773148,523.5833333333334C1391.2005208333333,541.5,1700.7447916666667,553,1855.5169270833333,564.5C2010.2890625,576,2010.2890625,587.5,1998.2434170009853,600.5416666666666C1986.1977715019705,613.5833333333334,1962.1064805039414,628.1666666666666,1950.0608350049267,635.4583333333334L1938.015189505912,642.75" id="edge24" class="transition" marker-end="url(#statediagram-barbEnd)"></path><path d="M3682.70583976834,1248L3677.6936685569503,1253.75C3672.68149734556,1259.5,3662.6571549227797,1271,3657.64498371139,1282.5C3652.6328125,1294,3652.6328125,1305.5,3652.6328125,1316.75C3652.6328125,1328,3652.6328125,1339,3652.6328125,1344.5L3652.6328125,1350" id="edge25" class="transition" marker-end="url(#statediagram-barbEnd)"></path><path d="M1819.2176037644788,1701L1810.1253468870657,1706.75C1801.0330900096524,1712.5,1782.8485762548262,1724,1885.4991579190798,1738.8021862176372C1988.1497395833333,1753.604372435274,2211.6354166666665,1771.708744870548,2323.3782552083335,1780.760931088185L2435.12109375,1789.813117305822" id="edge26" class="transition" marker-end="url(#statediagram-barbEnd)"></path><path d="M3754.8203125,1358.1349138847545L3770.448784722222,1356.779094903962C3786.077256944445,1355.4232759231697,3817.334201388889,1352.7116379615848,3836.8697916666674,1351.3558189807925C3856.405381944445,1350,3864.219618055555,1350,3872.0338541666665,1352.8333333333333C3879.8480902777774,1355.6666666666667,3887.6623263888887,1361.3333333333333,3887.662326388889,1367C3887.6623263888887,1372.6666666666667,3879.8480902777774,1378.3333333333333,3872.033854166666,1381.1666666666667C3864.219618055555,1384,3856.405381944445,1384,3836.8697916666665,1382.6441810192075C3817.334201388889,1381.2883620384152,3786.077256944445,1378.5767240768303,3770.448784722222,1377.220905096038L3754.8203125,1375.8650861152455" id="edge27" class="transition" marker-end="url(#statediagram-barbEnd)"></path><path d="M2916.66796875,1481.4655838572587L2970.285590277778,1478.0546532143824C3023.903211805555,1474.643722571506,3131.138454861111,1467.821861285753,3198.1604817708335,1464.4109306428763C3265.182508680555,1461,3291.991319444445,1461,3318.8001302083335,1466.0416666666667C3345.6089409722226,1471.0833333333333,3372.4177517361113,1481.1666666666667,3372.417751736111,1491.25C3372.4177517361113,1501.3333333333333,3345.6089409722226,1511.4166666666667,3318.800130208334,1516.4583333333333C3291.991319444445,1521.5,3265.182508680555,1521.5,3198.1604817708335,1518.0890693571237C3131.138454861111,1514.678138714247,3023.903211805555,1507.856277428494,2970.2855902777774,1504.4453467856176L2916.66796875,1501.0344161427413" id="edge28" class="transition" marker-end="url(#statediagram-barbEnd)"></path><path d="M3796.35546875,1202.6421291053227L3810.9353298611113,1200.1184409211023C3825.515190972222,1197.594752736882,3854.674913194444,1192.547376368441,3872.8997395833326,1190.0236881842204C3891.124565972222,1187.5,3898.414496527778,1187.5,3905.7044270833335,1192.5416666666667C3912.994357638889,1197.5833333333333,3920.284288194445,1207.6666666666667,3920.284288194444,1217.75C3920.284288194445,1227.8333333333333,3912.994357638889,1237.9166666666667,3905.704427083334,1242.9583333333333C3898.414496527778,1248,3891.124565972222,1248,3872.8997395833335,1245.4763118157796C3854.674913194444,1242.952623631559,3825.515190972222,1237.905247263118,3810.9353298611113,1235.3815590788977L3796.35546875,1232.8578708946773" id="edge29" class="transition" marker-end="url(#statediagram-barbEnd)"></path><path d="M2020.85546875,1659.7728609083536L2065.8619791666665,1656.5607174236281C2110.8684895833335,1653.3485739389023,2200.8815104166665,1646.924286969451,2257.1396484375,1643.7121434847256C2313.3977864583335,1640.5,2335.9010416666665,1640.5,2358.404296875,1645.5416666666667C2380.9075520833335,1650.5833333333333,2403.4108072916665,1660.6666666666667,2403.4108072916665,1670.75C2403.4108072916665,1680.8333333333333,2380.9075520833335,1690.9166666666667,2358.404296875,1695.9583333333333C2335.9010416666665,1701,2313.3977864583335,1701,2257.1396484375,1697.7878565152744C2200.8815104166665,1694.575713030549,2110.8684895833335,1688.1514260610977,2065.8619791666665,1684.9392825763723L2020.85546875,1681.7271390916464" id="edge30" class="transition" marker-end="url(#statediagram-barbEnd)"></path><path d="M2916.66796875,1511.390479761508L2961.3541666666665,1517.2420664679232C3006.0403645833335,1523.0936531743384,3095.4127604166665,1534.7968265871693,3140.0989583333335,1546.3984132935846C3184.78515625,1558,3184.78515625,1569.5,3367.4095052083335,1581C3550.0338541666665,1592.5,3915.2825520833335,1604,4097.906901041667,1618.9583333333333C4280.53125,1633.9166666666667,4280.53125,1652.3333333333333,4280.53125,1672.3333333333333C4280.53125,1692.3333333333333,4280.53125,1713.9166666666667,4291.501553450772,1730.4583333333333C4302.471856901545,1747,4324.412463803089,1758.5,4335.382767253861,1764.25L4346.353070704633,1770" id="edge31" class="transition" marker-end="url(#statediagram-barbEnd)"></path><path d="M2002.6264780405406,1701L2028.397065033784,1706.75C2054.167652027027,1712.5,2105.7088260135138,1724,2177.79126196509,1737.1231014947928C2249.8736979166665,1750.2462029895853,2342.4973958333335,1764.9924059791708,2388.8092447916665,1772.3655074739636L2435.12109375,1779.7386089687564" id="edge32" class="transition" marker-end="url(#statediagram-barbEnd)"></path><path d="M3967.17578125,1985L3967.17578125,1990.75C3967.17578125,1996.5,3967.17578125,2008,4051.4791666666665,2019.5C4135.782552083333,2031,4304.389322916667,2042.5,4415.506560496795,2054.625C4526.623798076923,2066.75,4580.251502403847,2079.5,4607.065354567308,2085.875L4633.8792067307695,2092.25" id="edge33" class="transition" marker-end="url(#statediagram-barbEnd)"></path><path d="M4307.84765625,1805.489317654215L4154.775390625,1813.8244313785126C4001.703125,1822.15954510281,3695.55859375,1838.829772551405,3542.486328125,1852.9148862757027C3389.4140625,1867,3389.4140625,1878.5,3389.4140625,1895.0416666666667C3389.4140625,1911.5833333333333,3389.4140625,1933.1666666666667,3389.4140625,1954.75C3389.4140625,1976.3333333333333,3389.4140625,1997.9166666666667,3310.486328125,2014.4583333333333C3231.55859375,2031,3073.703125,2042.5,2994.775390625,2057.4583333333335C2915.84765625,2072.4166666666665,2915.84765625,2090.8333333333335,2915.84765625,2110.8333333333335C2915.84765625,2130.8333333333335,2915.84765625,2152.4166666666665,2784.1048177083335,2172.805083504356C2652.3619791666665,2193.193500342045,2388.8763020833335,2212.38700068409,2257.1334635416665,2221.9837508551122L2125.390625,2231.5805010261347" id="edge34" class="transition" marker-end="url(#statediagram-barbEnd)"></path><path d="M2435.12109375,1807.9841698817118L2303.201171875,1815.9034749014263C2171.28125,1823.822779921141,1907.44140625,1839.6613899605707,1775.521484375,1853.3306949802852C1643.6015625,1867,1643.6015625,1878.5,1643.6015625,1895.0416666666667C1643.6015625,1911.5833333333333,1643.6015625,1933.1666666666667,1643.6015625,1954.75C1643.6015625,1976.3333333333333,1643.6015625,1997.9166666666667,1643.6015625,2014.4583333333333C1643.6015625,2031,1643.6015625,2042.5,1643.6015625,2057.4583333333335C1643.6015625,2072.4166666666665,1643.6015625,2090.8333333333335,1643.6015625,2110.8333333333335C1643.6015625,2130.8333333333335,1643.6015625,2152.4166666666665,1691.0924479166667,2171.2294549394414C1738.5833333333333,2190.0422432122164,1833.5651041666667,2206.0844864244327,1881.0559895833333,2214.105608030541L1928.546875,2222.126729636649" id="edge35" class="transition" marker-end="url(#statediagram-barbEnd)"></path><path d="M4404.06640625,1830.5L4404.06640625,1834.6666666666667C4404.06640625,1838.8333333333333,4404.06640625,1847.1666666666667,4404.06640625,1857.0833333333333C4404.06640625,1867,4404.06640625,1878.5,4404.06640625,1895.0416666666667C4404.06640625,1911.5833333333333,4404.06640625,1933.1666666666667,4404.06640625,1954.75C4404.06640625,1976.3333333333333,4404.06640625,1997.9166666666667,4240.169921875,2014.4583333333333C4076.2734375,2031,3748.48046875,2042.5,3584.583984375,2057.4583333333335C3420.6875,2072.4166666666665,3420.6875,2090.8333333333335,3420.6875,2110.8333333333335C3420.6875,2130.8333333333335,3420.6875,2152.4166666666665,3204.8046875,2173.2379121916038C2988.921875,2194.059157716541,2557.15625,2214.1183154330815,2341.2734375,2224.147894291352L2125.390625,2234.177473149622" id="edge36" class="transition" marker-end="url(#statediagram-barbEnd)"></path><path d="M2435.12109375,1811.0243527130178L2346.4837239583335,1818.4369605941818C2257.8463541666665,1825.8495684753452,2080.5716145833335,1840.6747842376726,1991.9342447916667,1853.8373921188365C1903.296875,1867,1903.296875,1878.5,1903.296875,1895.0416666666667C1903.296875,1911.5833333333333,1903.296875,1933.1666666666667,1903.296875,1954.75C1903.296875,1976.3333333333333,1903.296875,1997.9166666666667,1903.296875,2014.4583333333333C1903.296875,2031,1903.296875,2042.5,1903.296875,2057.4583333333335C1903.296875,2072.4166666666665,1903.296875,2090.8333333333335,1903.296875,2110.8333333333335C1903.296875,2130.8333333333335,1903.296875,2152.4166666666665,1914.2793194980695,2168.9583333333335C1925.261763996139,2185.5,1947.226652992278,2197,1958.2090974903476,2202.75L1969.191541988417,2208.5" id="edge37" class="transition" marker-end="url(#statediagram-barbEnd)"></path><path d="M4500.28515625,1821.1942888362214L4526.552083333333,1826.9119073635177C4552.819010416667,1832.6295258908142,4605.352864583333,1844.064762945407,4631.619791666667,1855.5323814727035C4657.88671875,1867,4657.88671875,1878.5,4559.55078125,1893.4684032529888C4461.21484375,1908.4368065059778,4264.54296875,1926.8736130119553,4166.20703125,1936.0920162649443L4067.87109375,1945.3104195179333" id="edge38" class="transition" marker-end="url(#statediagram-barbEnd)"></path><path d="M2631.270980627828,1830.5L2640.5428744815235,1834.6666666666667C2649.8147683352186,1838.8333333333333,2668.3585560426095,1847.1666666666667,2677.630449896305,1857.0833333333333C2686.90234375,1867,2686.90234375,1878.5,2883.4986979166665,1894.1928868548182C3080.0950520833335,1909.8857737096362,3473.2877604166665,1929.7715474192728,3669.8841145833335,1939.714434274091L3866.48046875,1949.6573211289092" id="edge39" class="transition" marker-end="url(#statediagram-barbEnd)"></path><path d="M4494.316376085907,1770L4511.471329029922,1764.25C4528.626281973938,1758.5,4562.936187861968,1747,4580.091140805985,1730.4583333333333C4597.24609375,1713.9166666666667,4597.24609375,1692.3333333333333,4597.24609375,1672.3333333333333C4597.24609375,1652.3333333333333,4597.24609375,1633.9166666666667,4664.624348958333,1618.9583333333333C4732.002604166667,1604,4866.759114583333,1592.5,4934.137369791667,1581C5001.515625,1569.5,5001.515625,1558,5001.515625,1543.0416666666667C5001.515625,1528.0833333333333,5001.515625,1509.6666666666667,5001.515625,1489.6666666666667C5001.515625,1469.6666666666667,5001.515625,1448.0833333333333,5001.515625,1427.375C5001.515625,1406.6666666666667,5001.515625,1386.8333333333333,5001.515625,1368.5833333333333C5001.515625,1350.3333333333333,5001.515625,1333.6666666666667,5001.515625,1319.5833333333333C5001.515625,1305.5,5001.515625,1294,4800.655598958333,1278.1871169762087C4599.795572916667,1262.3742339524176,4198.075520833333,1242.2484679048353,3997.2154947916665,1232.185584881044L3796.35546875,1222.1227018572529" id="edge40" class="transition" marker-end="url(#statediagram-barbEnd)"></path><path d="M2692.79296875,1821.6530479210712L2726.75,1827.2942066008927C2760.70703125,1832.9353652807142,2828.62109375,1844.2176826403572,2862.578125,1855.6088413201785C2896.53515625,1867,2896.53515625,1878.5,2896.53515625,1892.2083333333333C2896.53515625,1905.9166666666667,2896.53515625,1921.8333333333333,2896.53515625,1929.7916666666667L2896.53515625,1937.75" id="edge41" class="transition" marker-end="url(#statediagram-barbEnd)"></path><path d="M3796.35546875,1235.8602557362274L3833.818359375,1243.6335464468561C3871.28125,1251.406837157485,3946.20703125,1266.9534185787425,3983.669921875,1280.4767092893712C4021.1328125,1294,4021.1328125,1305.5,4021.1328125,1319.5833333333333C4021.1328125,1333.6666666666667,4021.1328125,1350.3333333333333,4021.1328125,1368.5833333333333C4021.1328125,1386.8333333333333,4021.1328125,1406.6666666666667,4021.1328125,1427.375C4021.1328125,1448.0833333333333,4021.1328125,1469.6666666666667,4021.1328125,1489.6666666666667C4021.1328125,1509.6666666666667,4021.1328125,1528.0833333333333,4021.1328125,1543.0416666666667C4021.1328125,1558,4021.1328125,1569.5,3881.0872395833335,1581C3741.0416666666665,1592.5,3460.9505208333335,1604,3320.9049479166665,1618.9583333333333C3180.859375,1633.9166666666667,3180.859375,1652.3333333333333,3180.859375,1672.3333333333333C3180.859375,1692.3333333333333,3180.859375,1713.9166666666667,3180.859375,1735.5C3180.859375,1757.0833333333333,3180.859375,1778.6666666666667,3180.859375,1798.6666666666667C3180.859375,1818.6666666666667,3180.859375,1837.0833333333333,3180.859375,1852.0416666666667C3180.859375,1867,3180.859375,1878.5,3180.859375,1890C3180.859375,1901.5,3180.859375,1913,3180.859375,1918.75L3180.859375,1924.5" id="edge42" class="transition" marker-end="url(#statediagram-barbEnd)"></path><path d="M2896.53515625,1971.75L2896.53515625,1979.7083333333333C2896.53515625,1987.6666666666667,2896.53515625,2003.5833333333333,3044.87890625,2017.2916666666667C3193.22265625,2031,3489.91015625,2042.5,3643.978515625,2054.625C3798.046875,2066.75,3809.49609375,2079.5,3815.220703125,2085.875L3820.9453125,2092.25" id="edge43" class="transition" marker-end="url(#statediagram-barbEnd)"></path><path d="M3151.80287765444,1985L3146.2797417953666,1990.75C3140.756605936293,1996.5,3129.7103342181467,2008,3264.111026484073,2019.5C3398.51171875,2031,3678.359375,2042.5,3804.2067307692305,2054.625C3930.0540865384614,2066.75,3901.9011418269233,2079.5,3887.824669471154,2085.875L3873.7481971153848,2092.25" id="edge44" class="transition" marker-end="url(#statediagram-barbEnd)"></path><path d="M3209.91587234556,1985L3215.4390082046334,1990.75C3220.962144063707,1996.5,3232.0084157818533,2008,3377.0250412242603,2019.5C3522.0416666666665,2031,3801.0286458333335,2042.5,3940.5221354166665,2057.4583333333335C4080.015625,2072.4166666666665,4080.015625,2090.8333333333335,4080.015625,2110.8333333333335C4080.015625,2130.8333333333335,4080.015625,2152.4166666666665,4080.015625,2174C4080.015625,2195.5833333333335,4080.015625,2217.1666666666665,4080.015625,2237.1666666666665C4080.015625,2257.1666666666665,4080.015625,2275.5833333333335,4080.015625,2290.5416666666665C4080.015625,2305.5,4080.015625,2317,3812.0403645833335,2330.965138035645C3544.0651041666665,2344.9302760712894,3008.1145833333335,2361.3605521425793,2740.1393229166665,2369.575690178224L2472.1640625,2377.7908282138687" id="edge45" class="transition" marker-end="url(#statediagram-barbEnd)"></path><path d="M2026.96875,2269L2026.96875,2273.1666666666665C2026.96875,2277.3333333333335,2026.96875,2285.6666666666665,2026.96875,2295.5833333333335C2026.96875,2305.5,2026.96875,2317,2077.1471354166665,2329.675648890657C2127.3255208333335,2342.351297781314,2227.6822916666665,2356.2025955626277,2277.8606770833335,2363.128244453285L2328.0390625,2370.0538933439416" id="edge46" class="transition" marker-end="url(#statediagram-barbEnd)"></path><path d="M348.2421875,237.25L348.2421875,244.54166666666666C348.2421875,251.83333333333334,348.2421875,266.4166666666667,348.2421875,279.4583333333333C348.2421875,292.5,348.2421875,304,348.2421875,315.5C348.2421875,327,348.2421875,338.5,348.2421875,356.4166666666667C348.2421875,374.3333333333333,348.2421875,398.6666666666667,348.2421875,410.8333333333333L348.2421875,423" id="edge47" class="transition" marker-end="url(#statediagram-barbEnd)"></path><path d="M4669.053485576923,2092.25L4655.429987980769,2085.875C4641.806490384615,2079.5,4614.559495192308,2066.75,4532.352013221153,2054.625C4450.14453125,2042.5,4312.9765625,2031,4225.865339949324,2019.5C4138.754117398649,2008,4101.6996410472975,1996.5,4083.1724028716217,1990.75L4064.645164695946,1985" id="edge48" class="transition" marker-end="url(#statediagram-barbEnd)"></path><path d="M940.13671875,256L940.13671875,260.1666666666667C940.13671875,264.3333333333333,940.13671875,272.6666666666667,940.13671875,282.5833333333333C940.13671875,292.5,940.13671875,304,940.13671875,315.5C940.13671875,327,940.13671875,338.5,940.13671875,356.4166666666667C940.13671875,374.3333333333333,940.13671875,398.6666666666667,940.13671875,410.8333333333333L940.13671875,423" class="transition note-edge"></path><path d="M346.27734375,722L346.27734375,726.1666666666666C346.27734375,730.3333333333334,346.27734375,738.6666666666666,346.27734375,748.5833333333334C346.27734375,758.5,346.27734375,770,346.27734375,781.5C346.27734375,793,346.27734375,804.5,354.94582057643584,817.5416666666666C363.6142974028716,830.5833333333334,380.95125105574317,845.1666666666666,389.619727882179,852.4583333333334L398.28820470861484,859.75" class="transition note-edge"></path><path d="M2323.3984375,489L2323.3984375,495.8333333333333C2323.3984375,502.6666666666667,2323.3984375,516.3333333333334,2323.3984375,528.9166666666666C2323.3984375,541.5,2323.3984375,553,2323.3984375,564.5C2323.3984375,576,2323.3984375,587.5,2276.8795572916665,601.157095195796C2230.3606770833335,614.8141903915921,2137.3229166666665,630.6283807831843,2090.8040364583335,638.5354759789803L2044.28515625,646.4425711747764" class="transition note-edge"></path><path d="M216.125,2134.25L216.125,2140.875C216.125,2147.5,216.125,2160.75,501.5286458333333,2177.580124582233C786.9322916666666,2194.410249164466,1357.7395833333333,2214.820498328933,1643.1432291666667,2225.025622911166L1928.546875,2235.230747493399" class="transition note-edge"></path><path d="M2232.5390625,1392L2232.5390625,1397.75C2232.5390625,1403.5,2232.5390625,1415,2295.2923177083335,1428.4118663283318C2358.0455729166665,1441.8237326566639,2483.5520833333335,1457.147465313328,2546.3053385416665,1464.8093316416598L2609.05859375,1472.4711979699919" class="transition note-edge"></path><path d="M3993.2890625,1695.75L3993.2890625,1702.375C3993.2890625,1709,3993.2890625,1722.25,4045.7154947916665,1737.1388722474221C4098.141927083333,1752.0277444948442,4202.994791666667,1768.5554889896885,4255.421223958333,1776.8193612371106L4307.84765625,1785.083233484533" class="transition note-edge"></path><path d="M2157.0390625,939L2157.0390625,943.1666666666666C2157.0390625,947.3333333333334,2157.0390625,955.6666666666666,2157.0390625,965.5833333333334C2157.0390625,975.5,2157.0390625,987,2235.34765625,1000.8254214881175C2313.65625,1014.6508429762349,2470.2734375,1030.8016859524698,2548.58203125,1038.8771074405875L2626.890625,1046.9525289287049" class="transition note-edge"></path><path d="M348.2421875,83L348.2421875,87.16666666666667C348.2421875,91.33333333333333,348.2421875,99.66666666666667,348.2421875,108C348.2421875,116.33333333333333,348.2421875,124.66666666666667,348.2421875,136.125C348.2421875,147.58333333333334,348.2421875,162.16666666666666,348.2421875,169.45833333333334L348.2421875,176.75" class="transition note-edge"></path></g><g class="edgeLabels"><g class="edgeLabel"><g class="label" transform="translate(0, 0)"><rect rx="0" ry="0" width="0" height="0" style="fill:#e8e8e8;"></rect><text style=""></text></g></g><g class="edgeLabel"><g class="label" transform="translate(0, 0)"><rect rx="0" ry="0" width="0" height="0" style="fill:#e8e8e8;"></rect><text style=""></text></g></g><g class="edgeLabel" transform="translate(4313.24609375, 207)"><g class="label" transform="translate(-60.0234375, -9.5)"><rect rx="0" ry="0" width="120.046875" height="19" style="fill:#e8e8e8;"></rect><text style=""><tspan xml:space="preserve" dy="1em" x="0" class="row">ClientEventOpen</tspan></text></g></g><g class="edgeLabel" transform="translate(4199.4765625, 315.5)"><g class="label" transform="translate(-89.9453125, -9.5)"><rect rx="0" ry="0" width="179.890625" height="19" style="fill:#e8e8e8;"></rect><text style=""><tspan xml:space="preserve" dy="1em" x="0" class="row">ClientEventDealProposed</tspan></text></g></g><g class="edgeLabel" transform="translate(818.6171875, 564.5)"><g class="label" transform="translate(-89.546875, -9.5)"><rect rx="0" ry="0" width="179.09375" height="19" style="fill:#e8e8e8;"></rect><text style=""><tspan xml:space="preserve" dy="1em" x="0" class="row">ClientEventDealRejected</tspan></text></g></g><g class="edgeLabel" transform="translate(1041.65625, 564.5)"><g class="label" transform="translate(-91.5390625, -9.5)"><rect rx="0" ry="0" width="183.078125" height="19" style="fill:#e8e8e8;"></rect><text style=""><tspan xml:space="preserve" dy="1em" x="0" class="row">ClientEventDealNotFound</tspan></text></g></g><g class="edgeLabel" transform="translate(1341.66015625, 564.5)"><g class="label" transform="translate(-90.7265625, -9.5)"><rect rx="0" ry="0" width="181.453125" height="19" style="fill:#e8e8e8;"></rect><text style=""><tspan xml:space="preserve" dy="1em" x="0" class="row">ClientEventDealAccepted</tspan></text></g></g><g class="edgeLabel" transform="translate(424.25, 1581)"><g class="label" transform="translate(-128.1484375, -9.5)"><rect rx="0" ry="0" width="256.296875" height="19" style="fill:#e8e8e8;"></rect><text style=""><tspan xml:space="preserve" dy="1em" x="0" class="row">ClientEventPaymentChannelErrored</tspan></text></g></g><g class="edgeLabel" transform="translate(3568.8359375, 2174)"><g class="label" transform="translate(-128.1484375, -9.5)"><rect rx="0" ry="0" width="256.296875" height="19" style="fill:#e8e8e8;"></rect><text style=""><tspan xml:space="preserve" dy="1em" x="0" class="row">ClientEventPaymentChannelErrored</tspan></text></g></g><g class="edgeLabel" transform="translate(1319.78125, 1491.25)"><g class="label" transform="translate(-128.1484375, -9.5)"><rect rx="0" ry="0" width="256.296875" height="19" style="fill:#e8e8e8;"></rect><text style=""><tspan xml:space="preserve" dy="1em" x="0" class="row">ClientEventPaymentChannelErrored</tspan></text></g></g><g class="edgeLabel" transform="translate(522.22265625, 781.5)"><g class="label" transform="translate(-155.9453125, -9.5)"><rect rx="0" ry="0" width="311.890625" height="19" style="fill:#e8e8e8;"></rect><text style=""><tspan xml:space="preserve" dy="1em" x="0" class="row">ClientEventPaymentChannelCreateInitiated</tspan></text></g></g><g class="edgeLabel" transform="translate(2962.171875, 890)"><g class="label" transform="translate(-146.359375, -9.5)"><rect rx="0" ry="0" width="292.71875" height="19" style="fill:#e8e8e8;"></rect><text style=""><tspan xml:space="preserve" dy="1em" x="0" class="row">ClientEventPaymentChannelAddingFunds</tspan></text></g></g><g class="edgeLabel" transform="translate(3679, 2019.5)"><g class="label" transform="translate(-146.359375, -9.5)"><rect rx="0" ry="0" width="292.71875" height="19" style="fill:#e8e8e8;"></rect><text style=""><tspan xml:space="preserve" dy="1em" x="0" class="row">ClientEventPaymentChannelAddingFunds</tspan></text></g></g><g class="edgeLabel" transform="translate(1551.8984375, 998.5)"><g class="label" transform="translate(-123.046875, -9.5)"><rect rx="0" ry="0" width="246.09375" height="19" style="fill:#e8e8e8;"></rect><text style=""><tspan xml:space="preserve" dy="1em" x="0" class="row">ClientEventPaymentChannelReady</tspan></text></g></g><g class="edgeLabel" transform="translate(5221.65625, 1670.75)"><g class="label" transform="translate(-123.046875, -9.5)"><rect rx="0" ry="0" width="246.09375" height="19" style="fill:#e8e8e8;"></rect><text style=""><tspan xml:space="preserve" dy="1em" x="0" class="row">ClientEventPaymentChannelReady</tspan></text></g></g><g class="edgeLabel" transform="translate(4655.375, 1581)"><g class="label" transform="translate(-123.046875, -9.5)"><rect rx="0" ry="0" width="246.09375" height="19" style="fill:#e8e8e8;"></rect><text style=""><tspan xml:space="preserve" dy="1em" x="0" class="row">ClientEventPaymentChannelReady</tspan></text></g></g><g class="edgeLabel" transform="translate(1500.375, 1670.75)"><g class="label" transform="translate(-114.5859375, -9.5)"><rect rx="0" ry="0" width="229.171875" height="19" style="fill:#e8e8e8;"></rect><text style=""><tspan xml:space="preserve" dy="1em" x="0" class="row">ClientEventAllocateLaneErrored</tspan></text></g></g><g class="edgeLabel" transform="translate(3709.07421875, 1153)"><g class="label" transform="translate(-92.3203125, -9.5)"><rect rx="0" ry="0" width="184.640625" height="19" style="fill:#e8e8e8;"></rect><text style=""><tspan xml:space="preserve" dy="1em" x="0" class="row">ClientEventLaneAllocated</tspan></text></g></g><g class="edgeLabel" transform="translate(2196.80859375, 1581)"><g class="label" transform="translate(-124.703125, -9.5)"><rect rx="0" ry="0" width="249.40625" height="19" style="fill:#e8e8e8;"></rect><text style=""><tspan xml:space="preserve" dy="1em" x="0" class="row">ClientEventLastPaymentRequested</tspan></text></g></g><g class="edgeLabel" transform="translate(1774.1875, 1426.5)"><g class="label" transform="translate(-124.703125, -9.5)"><rect rx="0" ry="0" width="249.40625" height="19" style="fill:#e8e8e8;"></rect><text style=""><tspan xml:space="preserve" dy="1em" x="0" class="row">ClientEventLastPaymentRequested</tspan></text></g></g><g class="edgeLabel" transform="translate(2184.9921875, 1670.75)"><g class="label" transform="translate(-124.703125, -9.5)"><rect rx="0" ry="0" width="249.40625" height="19" style="fill:#e8e8e8;"></rect><text style=""><tspan xml:space="preserve" dy="1em" x="0" class="row">ClientEventLastPaymentRequested</tspan></text></g></g><g class="edgeLabel" transform="translate(3652.6328125, 1581)"><g class="label" transform="translate(-124.703125, -9.5)"><rect rx="0" ry="0" width="249.40625" height="19" style="fill:#e8e8e8;"></rect><text style=""><tspan xml:space="preserve" dy="1em" x="0" class="row">ClientEventLastPaymentRequested</tspan></text></g></g><g class="edgeLabel" transform="translate(3172.96875, 1491.25)"><g class="label" transform="translate(-110.0390625, -9.5)"><rect rx="0" ry="0" width="220.078125" height="19" style="fill:#e8e8e8;"></rect><text style=""><tspan xml:space="preserve" dy="1em" x="0" class="row">ClientEventPaymentRequested</tspan></text></g></g><g class="edgeLabel" transform="translate(2874.125, 1367)"><g class="label" transform="translate(-110.0390625, -9.5)"><rect rx="0" ry="0" width="220.078125" height="19" style="fill:#e8e8e8;"></rect><text style=""><tspan xml:space="preserve" dy="1em" x="0" class="row">ClientEventPaymentRequested</tspan></text></g></g><g class="edgeLabel" transform="translate(3194.78515625, 1426.5)"><g class="label" transform="translate(-110.0390625, -9.5)"><rect rx="0" ry="0" width="220.078125" height="19" style="fill:#e8e8e8;"></rect><text style=""><tspan xml:space="preserve" dy="1em" x="0" class="row">ClientEventPaymentRequested</tspan></text></g></g><g class="edgeLabel" transform="translate(2010.2890625, 564.5)"><g class="label" transform="translate(-133.765625, -9.5)"><rect rx="0" ry="0" width="267.53125" height="19" style="fill:#e8e8e8;"></rect><text style=""><tspan xml:space="preserve" dy="1em" x="0" class="row">ClientEventUnsealPaymentRequested</tspan></text></g></g><g class="edgeLabel" transform="translate(3652.6328125, 1282.5)"><g class="label" transform="translate(-105.65625, -9.5)"><rect rx="0" ry="0" width="211.3125" height="19" style="fill:#e8e8e8;"></rect><text style=""><tspan xml:space="preserve" dy="1em" x="0" class="row">ClientEventAllBlocksReceived</tspan></text></g></g><g class="edgeLabel" transform="translate(1764.6640625, 1735.5)"><g class="label" transform="translate(-105.65625, -9.5)"><rect rx="0" ry="0" width="211.3125" height="19" style="fill:#e8e8e8;"></rect><text style=""><tspan xml:space="preserve" dy="1em" x="0" class="row">ClientEventAllBlocksReceived</tspan></text></g></g><g class="edgeLabel" transform="translate(3895.4765625, 1367)"><g class="label" transform="translate(-105.65625, -9.5)"><rect rx="0" ry="0" width="211.3125" height="19" style="fill:#e8e8e8;"></rect><text style=""><tspan xml:space="preserve" dy="1em" x="0" class="row">ClientEventAllBlocksReceived</tspan></text></g></g><g class="edgeLabel" transform="translate(3399.2265625, 1491.25)"><g class="label" transform="translate(-96.21875, -9.5)"><rect rx="0" ry="0" width="192.4375" height="19" style="fill:#e8e8e8;"></rect><text style=""><tspan xml:space="preserve" dy="1em" x="0" class="row">ClientEventBlocksReceived</tspan></text></g></g><g class="edgeLabel" transform="translate(3927.57421875, 1217.75)"><g class="label" transform="translate(-96.21875, -9.5)"><rect rx="0" ry="0" width="192.4375" height="19" style="fill:#e8e8e8;"></rect><text style=""><tspan xml:space="preserve" dy="1em" x="0" class="row">ClientEventBlocksReceived</tspan></text></g></g><g class="edgeLabel" transform="translate(2425.9140625, 1670.75)"><g class="label" transform="translate(-96.21875, -9.5)"><rect rx="0" ry="0" width="192.4375" height="19" style="fill:#e8e8e8;"></rect><text style=""><tspan xml:space="preserve" dy="1em" x="0" class="row">ClientEventBlocksReceived</tspan></text></g></g><g class="edgeLabel" transform="translate(4280.53125, 1670.75)"><g class="label" transform="translate(-79.1171875, -9.5)"><rect rx="0" ry="0" width="158.234375" height="19" style="fill:#e8e8e8;"></rect><text style=""><tspan xml:space="preserve" dy="1em" x="0" class="row">ClientEventSendFunds</tspan></text></g></g><g class="edgeLabel" transform="translate(2157.25, 1735.5)"><g class="label" transform="translate(-79.1171875, -9.5)"><rect rx="0" ry="0" width="158.234375" height="19" style="fill:#e8e8e8;"></rect><text style=""><tspan xml:space="preserve" dy="1em" x="0" class="row">ClientEventSendFunds</tspan></text></g></g><g class="edgeLabel" transform="translate(3967.17578125, 2019.5)"><g class="label" transform="translate(-96.84375, -9.5)"><rect rx="0" ry="0" width="193.6875" height="19" style="fill:#e8e8e8;"></rect><text style=""><tspan xml:space="preserve" dy="1em" x="0" class="row">ClientEventFundsExpended</tspan></text></g></g><g class="edgeLabel" transform="translate(3389.4140625, 2019.5)"><g class="label" transform="translate(-123.2265625, -9.5)"><rect rx="0" ry="0" width="246.453125" height="19" style="fill:#e8e8e8;"></rect><text style=""><tspan xml:space="preserve" dy="1em" x="0" class="row">ClientEventBadPaymentRequested</tspan></text></g></g><g class="edgeLabel" transform="translate(1643.6015625, 2019.5)"><g class="label" transform="translate(-123.2265625, -9.5)"><rect rx="0" ry="0" width="246.453125" height="19" style="fill:#e8e8e8;"></rect><text style=""><tspan xml:space="preserve" dy="1em" x="0" class="row">ClientEventBadPaymentRequested</tspan></text></g></g><g class="edgeLabel" transform="translate(4404.06640625, 2019.5)"><g class="label" transform="translate(-116.46875, -9.5)"><rect rx="0" ry="0" width="232.9375" height="19" style="fill:#e8e8e8;"></rect><text style=""><tspan xml:space="preserve" dy="1em" x="0" class="row">ClientEventCreateVoucherFailed</tspan></text></g></g><g class="edgeLabel" transform="translate(1903.296875, 2019.5)"><g class="label" transform="translate(-116.46875, -9.5)"><rect rx="0" ry="0" width="232.9375" height="19" style="fill:#e8e8e8;"></rect><text style=""><tspan xml:space="preserve" dy="1em" x="0" class="row">ClientEventCreateVoucherFailed</tspan></text></g></g><g class="edgeLabel" transform="translate(4657.88671875, 1890)"><g class="label" transform="translate(-101.28125, -9.5)"><rect rx="0" ry="0" width="202.5625" height="19" style="fill:#e8e8e8;"></rect><text style=""><tspan xml:space="preserve" dy="1em" x="0" class="row">ClientEventVoucherShortfall</tspan></text></g></g><g class="edgeLabel" transform="translate(2686.90234375, 1890)"><g class="label" transform="translate(-101.28125, -9.5)"><rect rx="0" ry="0" width="202.5625" height="19" style="fill:#e8e8e8;"></rect><text style=""><tspan xml:space="preserve" dy="1em" x="0" class="row">ClientEventVoucherShortfall</tspan></text></g></g><g class="edgeLabel" transform="translate(5001.515625, 1491.25)"><g class="label" transform="translate(-88.3515625, -9.5)"><rect rx="0" ry="0" width="176.703125" height="19" style="fill:#e8e8e8;"></rect><text style=""><tspan xml:space="preserve" dy="1em" x="0" class="row">ClientEventPaymentSent</tspan></text></g></g><g class="edgeLabel" transform="translate(2896.53515625, 1890)"><g class="label" transform="translate(-88.3515625, -9.5)"><rect rx="0" ry="0" width="176.703125" height="19" style="fill:#e8e8e8;"></rect><text style=""><tspan xml:space="preserve" dy="1em" x="0" class="row">ClientEventPaymentSent</tspan></text></g></g><g class="edgeLabel" transform="translate(4021.1328125, 1581)"><g class="label" transform="translate(-75.875, -9.5)"><rect rx="0" ry="0" width="151.75" height="19" style="fill:#e8e8e8;"></rect><text style=""><tspan xml:space="preserve" dy="1em" x="0" class="row">ClientEventComplete</tspan></text></g></g><g class="edgeLabel" transform="translate(2896.53515625, 2019.5)"><g class="label" transform="translate(-75.875, -9.5)"><rect rx="0" ry="0" width="151.75" height="19" style="fill:#e8e8e8;"></rect><text style=""><tspan xml:space="preserve" dy="1em" x="0" class="row">ClientEventComplete</tspan></text></g></g><g class="edgeLabel" transform="translate(3118.6640625, 2019.5)"><g class="label" transform="translate(-104.390625, -9.5)"><rect rx="0" ry="0" width="208.78125" height="19" style="fill:#e8e8e8;"></rect><text style=""><tspan xml:space="preserve" dy="1em" x="0" class="row">ClientEventCompleteVerified</tspan></text></g></g><g class="edgeLabel" transform="translate(4080.015625, 2174)"><g class="label" transform="translate(-103.078125, -9.5)"><rect rx="0" ry="0" width="206.15625" height="19" style="fill:#e8e8e8;"></rect><text style=""><tspan xml:space="preserve" dy="1em" x="0" class="row">ClientEventEarlyTermination</tspan></text></g></g><g class="edgeLabel" transform="translate(2026.96875, 2328.5)"><g class="label" transform="translate(-99.921875, -9.5)"><rect rx="0" ry="0" width="199.84375" height="19" style="fill:#e8e8e8;"></rect><text style=""><tspan xml:space="preserve" dy="1em" x="0" class="row">ClientEventCancelComplete</tspan></text></g></g><g class="edgeLabel" transform="translate(348.2421875, 315.5)"><g class="label" transform="translate(-99.921875, -9.5)"><rect rx="0" ry="0" width="199.84375" height="19" style="fill:#e8e8e8;"></rect><text style=""><tspan xml:space="preserve" dy="1em" x="0" class="row">ClientEventCancelComplete</tspan></text></g></g><g class="edgeLabel" transform="translate(4175.80859375, 2019.5)"><g class="label" transform="translate(-91.7890625, -9.5)"><rect rx="0" ry="0" width="183.578125" height="19" style="fill:#e8e8e8;"></rect><text style=""><tspan xml:space="preserve" dy="1em" x="0" class="row">ClientEventRecheckFunds</tspan></text></g></g><g class="edgeLabel"><g class="label" transform="translate(0, 0)"><rect rx="0" ry="0" width="0" height="0" style="fill:#e8e8e8;"></rect><text style=""></text></g></g><g class="edgeLabel"><g class="label" transform="translate(0, 0)"><rect rx="0" ry="0" width="0" height="0" style="fill:#e8e8e8;"></rect><text style=""></text></g></g><g class="edgeLabel"><g class="label" transform="translate(0, 0)"><rect rx="0" ry="0" width="0" height="0" style="fill:#e8e8e8;"></rect><text style=""></text></g></g><g class="edgeLabel"><g class="label" transform="translate(0, 0)"><rect rx="0" ry="0" width="0" height="0" style="fill:#e8e8e8;"></rect><text style=""></text></g></g><g class="edgeLabel"><g class="label" transform="translate(0, 0)"><rect rx="0" ry="0" width="0" height="0" style="fill:#e8e8e8;"></rect><text style=""></text></g></g><g class="edgeLabel"><g class="label" transform="translate(0, 0)"><rect rx="0" ry="0" width="0" height="0" style="fill:#e8e8e8;"></rect><text style=""></text></g></g><g class="edgeLabel"><g class="label" transform="translate(0, 0)"><rect rx="0" ry="0" width="0" height="0" style="fill:#e8e8e8;"></rect><text style=""></text></g></g><g class="edgeLabel"><g class="label" transform="translate(0, 0)"><rect rx="0" ry="0" width="0" height="0" style="fill:#e8e8e8;"></rect><text style=""></text></g></g></g><g class="nodes"><g class="node statediagram-state" id="0" transform="translate(4093.57421875, 207)"><rect class="outer title-state" x="-102.59375" y="-30.25" width="205.1875" height="60.5"></rect><line class="divider" x1="-102.59375" x2="102.59375" y1="-3.75" y2="-3.75"></line><g class="label" transform="translate(-95.09375, -27.25)"><text style=""><tspan xml:space="preserve" dy="1em" x="0" class="title-row">DealStatusNew</tspan></text><text style="" transform="translate( 0, 26.5)"><tspan xml:space="preserve" dy="1em" x="0" class="title-row">On entry runs ProposeDeal</tspan></text></g></g><g class="node statediagram-state" id="3" transform="translate(940.13671875, 440)"><rect class="outer title-state" x="-114.9453125" y="-17" width="229.890625" height="34"></rect><line class="divider" x1="-114.9453125" x2="114.9453125" y1="9.5" y2="9.5"></line><g class="label" transform="translate(-107.4453125, -14)"><text style=""><tspan xml:space="preserve" dy="1em" x="0" class="title-row">DealStatusWaitForAcceptance</tspan></text><text style="" transform="translate( 0, 26.5)"><tspan xml:space="preserve" dy="1em" x="0" class="title-row"></tspan></text></g></g><g class="node statediagram-state" id="4" transform="translate(434.25, 890)"><rect class="outer title-state" x="-156.625" y="-30.25" width="313.25" height="60.5"></rect><line class="divider" x1="-156.625" x2="156.625" y1="-3.75" y2="-3.75"></line><g class="label" transform="translate(-149.125, -27.25)"><text style=""><tspan xml:space="preserve" dy="1em" x="0" class="title-row">DealStatusPaymentChannelCreating</tspan></text><text style="" transform="translate( 0, 26.5)"><tspan xml:space="preserve" dy="1em" x="0" class="title-row">On entry runs WaitPaymentChannelReady</tspan></text></g></g><g class="node statediagram-state" id="5" transform="translate(4392.234375, 2109.25)"><rect class="outer title-state" x="-156.625" y="-30.25" width="313.25" height="60.5"></rect><line class="divider" x1="-156.625" x2="156.625" y1="-3.75" y2="-3.75"></line><g class="label" transform="translate(-149.125, -27.25)"><text style=""><tspan xml:space="preserve" dy="1em" x="0" class="title-row">DealStatusPaymentChannelAddingFunds</tspan></text><text style="" transform="translate( 0, 26.5)"><tspan xml:space="preserve" dy="1em" x="0" class="title-row">On entry runs WaitPaymentChannelReady</tspan></text></g></g><g class="node statediagram-state" id="6" transform="translate(1888.04296875, 673)"><rect class="outer title-state" x="-156.2421875" y="-30.25" width="312.484375" height="60.5"></rect><line class="divider" x1="-156.2421875" x2="156.2421875" y1="-3.75" y2="-3.75"></line><g class="label" transform="translate(-148.7421875, -27.25)"><text style=""><tspan xml:space="preserve" dy="1em" x="0" class="title-row">DealStatusAccepted</tspan></text><text style="" transform="translate( 0, 26.5)"><tspan xml:space="preserve" dy="1em" x="0" class="title-row">On entry runs SetupPaymentChannelStart</tspan></text></g></g><g class="node statediagram-state" id="8" transform="translate(2026.96875, 2238.75)"><rect class="outer title-state" x="-98.421875" y="-30.25" width="196.84375" height="60.5"></rect><line class="divider" x1="-98.421875" x2="98.421875" y1="-3.75" y2="-3.75"></line><g class="label" transform="translate(-90.921875, -27.25)"><text style=""><tspan xml:space="preserve" dy="1em" x="0" class="title-row">DealStatusFailing</tspan></text><text style="" transform="translate( 0, 26.5)"><tspan xml:space="preserve" dy="1em" x="0" class="title-row">On entry runs CancelDeal</tspan></text></g></g><g class="node statediagram-state" id="9" transform="translate(818.6171875, 673)"><rect class="outer title-state" x="-77.609375" y="-17" width="155.21875" height="34"></rect><line class="divider" x1="-77.609375" x2="77.609375" y1="9.5" y2="9.5"></line><g class="label" transform="translate(-70.109375, -14)"><text style=""><tspan xml:space="preserve" dy="1em" x="0" class="title-row">DealStatusRejected</tspan></text><text style="" transform="translate( 0, 26.5)"><tspan xml:space="preserve" dy="1em" x="0" class="title-row"></tspan></text></g></g><g class="node statediagram-state" id="10" transform="translate(2762.86328125, 1491.25)"><rect class="outer title-state" x="-153.8046875" y="-30.25" width="307.609375" height="60.5"></rect><line class="divider" x1="-153.8046875" x2="153.8046875" y1="-3.75" y2="-3.75"></line><g class="label" transform="translate(-146.3046875, -27.25)"><text style=""><tspan xml:space="preserve" dy="1em" x="0" class="title-row">DealStatusFundsNeeded</tspan></text><text style="" transform="translate( 0, 26.5)"><tspan xml:space="preserve" dy="1em" x="0" class="title-row">On entry runs ProcessPaymentRequested</tspan></text></g></g><g class="node statediagram-state" id="11" transform="translate(4404.06640625, 1800.25)"><rect class="outer title-state" x="-96.21875" y="-30.25" width="192.4375" height="60.5"></rect><line class="divider" x1="-96.21875" x2="96.21875" y1="-3.75" y2="-3.75"></line><g class="label" transform="translate(-88.71875, -27.25)"><text style=""><tspan xml:space="preserve" dy="1em" x="0" class="title-row">DealStatusSendFunds</tspan></text><text style="" transform="translate( 0, 26.5)"><tspan xml:space="preserve" dy="1em" x="0" class="title-row">On entry runs SendFunds</tspan></text></g></g><g class="node statediagram-state" id="12" transform="translate(2563.95703125, 1800.25)"><rect class="outer title-state" x="-128.8359375" y="-30.25" width="257.671875" height="60.5"></rect><line class="divider" x1="-128.8359375" x2="128.8359375" y1="-3.75" y2="-3.75"></line><g class="label" transform="translate(-121.3359375, -27.25)"><text style=""><tspan xml:space="preserve" dy="1em" x="0" class="title-row">DealStatusSendFundsLastPayment</tspan></text><text style="" transform="translate( 0, 26.5)"><tspan xml:space="preserve" dy="1em" x="0" class="title-row">On entry runs SendFunds</tspan></text></g></g><g class="node statediagram-state" id="13" transform="translate(3709.07421875, 1217.75)"><rect class="outer title-state" x="-87.28125" y="-30.25" width="174.5625" height="60.5"></rect><line class="divider" x1="-87.28125" x2="87.28125" y1="-3.75" y2="-3.75"></line><g class="label" transform="translate(-79.78125, -27.25)"><text style=""><tspan xml:space="preserve" dy="1em" x="0" class="title-row">DealStatusOngoing</tspan></text><text style="" transform="translate( 0, 26.5)"><tspan xml:space="preserve" dy="1em" x="0" class="title-row">On entry runs Ongoing</tspan></text></g></g><g class="node statediagram-state" id="14" transform="translate(1867.05078125, 1670.75)"><rect class="outer title-state" x="-153.8046875" y="-30.25" width="307.609375" height="60.5"></rect><line class="divider" x1="-153.8046875" x2="153.8046875" y1="-3.75" y2="-3.75"></line><g class="label" transform="translate(-146.3046875, -27.25)"><text style=""><tspan xml:space="preserve" dy="1em" x="0" class="title-row">DealStatusFundsNeededLastPayment</tspan></text><text style="" transform="translate( 0, 26.5)"><tspan xml:space="preserve" dy="1em" x="0" class="title-row">On entry runs ProcessPaymentRequested</tspan></text></g></g><g class="node statediagram-state" id="15" transform="translate(3836.2109375, 2109.25)"><rect class="outer title-state" x="-84.2265625" y="-17" width="168.453125" height="34"></rect><line class="divider" x1="-84.2265625" x2="84.2265625" y1="9.5" y2="9.5"></line><g class="label" transform="translate(-76.7265625, -14)"><text style=""><tspan xml:space="preserve" dy="1em" x="0" class="title-row">DealStatusCompleted</tspan></text><text style="" transform="translate( 0, 26.5)"><tspan xml:space="preserve" dy="1em" x="0" class="title-row"></tspan></text></g></g><g class="node statediagram-state" id="16" transform="translate(1041.65625, 673)"><rect class="outer title-state" x="-95.4296875" y="-17" width="190.859375" height="34"></rect><line class="divider" x1="-95.4296875" x2="95.4296875" y1="9.5" y2="9.5"></line><g class="label" transform="translate(-87.9296875, -14)"><text style=""><tspan xml:space="preserve" dy="1em" x="0" class="title-row">DealStatusDealNotFound</tspan></text><text style="" transform="translate( 0, 26.5)"><tspan xml:space="preserve" dy="1em" x="0" class="title-row"></tspan></text></g></g><g class="node statediagram-state" id="17" transform="translate(2400.1015625, 2380)"><rect class="outer title-state" x="-72.0625" y="-17" width="144.125" height="34"></rect><line class="divider" x1="-72.0625" x2="72.0625" y1="9.5" y2="9.5"></line><g class="label" transform="translate(-64.5625, -14)"><text style=""><tspan xml:space="preserve" dy="1em" x="0" class="title-row">DealStatusErrored</tspan></text><text style="" transform="translate( 0, 26.5)"><tspan xml:space="preserve" dy="1em" x="0" class="title-row"></tspan></text></g></g><g class="node statediagram-state" id="18" transform="translate(3652.6328125, 1367)"><rect class="outer title-state" x="-102.1875" y="-17" width="204.375" height="34"></rect><line class="divider" x1="-102.1875" x2="102.1875" y1="9.5" y2="9.5"></line><g class="label" transform="translate(-94.6875, -14)"><text style=""><tspan xml:space="preserve" dy="1em" x="0" class="title-row">DealStatusBlocksComplete</tspan></text><text style="" transform="translate( 0, 26.5)"><tspan xml:space="preserve" dy="1em" x="0" class="title-row"></tspan></text></g></g><g class="node statediagram-state" id="19" transform="translate(2896.53515625, 1954.75)"><rect class="outer title-state" x="-79.5" y="-17" width="159" height="34"></rect><line class="divider" x1="-79.5" x2="79.5" y1="9.5" y2="9.5"></line><g class="label" transform="translate(-72, -14)"><text style=""><tspan xml:space="preserve" dy="1em" x="0" class="title-row">DealStatusFinalizing</tspan></text><text style="" transform="translate( 0, 26.5)"><tspan xml:space="preserve" dy="1em" x="0" class="title-row"></tspan></text></g></g><g class="node statediagram-state" id="21" transform="translate(3180.859375, 1954.75)"><rect class="outer title-state" x="-114.4921875" y="-30.25" width="228.984375" height="60.5"></rect><line class="divider" x1="-114.4921875" x2="114.4921875" y1="-3.75" y2="-3.75"></line><g class="label" transform="translate(-106.9921875, -27.25)"><text style=""><tspan xml:space="preserve" dy="1em" x="0" class="title-row">DealStatusCheckComplete</tspan></text><text style="" transform="translate( 0, 26.5)"><tspan xml:space="preserve" dy="1em" x="0" class="title-row">On entry runs CheckComplete</tspan></text></g></g><g class="node statediagram-state" id="22" transform="translate(3967.17578125, 1954.75)"><rect class="outer title-state" x="-100.6953125" y="-30.25" width="201.390625" height="60.5"></rect><line class="divider" x1="-100.6953125" x2="100.6953125" y1="-3.75" y2="-3.75"></line><g class="label" transform="translate(-93.1953125, -27.25)"><text style=""><tspan xml:space="preserve" dy="1em" x="0" class="title-row">DealStatusCheckFunds</tspan></text><text style="" transform="translate( 0, 26.5)"><tspan xml:space="preserve" dy="1em" x="0" class="title-row">On entry runs CheckFunds</tspan></text></g></g><g class="node statediagram-state" id="23" transform="translate(4705.3828125, 2109.25)"><rect class="outer title-state" x="-106.5234375" y="-17" width="213.046875" height="34"></rect><line class="divider" x1="-106.5234375" x2="106.5234375" y1="9.5" y2="9.5"></line><g class="label" transform="translate(-99.0234375, -14)"><text style=""><tspan xml:space="preserve" dy="1em" x="0" class="title-row">DealStatusInsufficientFunds</tspan></text><text style="" transform="translate( 0, 26.5)"><tspan xml:space="preserve" dy="1em" x="0" class="title-row"></tspan></text></g></g><g class="node statediagram-state" id="24" transform="translate(2784.9296875, 1063.25)"><rect class="outer title-state" x="-158.0390625" y="-30.25" width="316.078125" height="60.5"></rect><line class="divider" x1="-158.0390625" x2="158.0390625" y1="-3.75" y2="-3.75"></line><g class="label" transform="translate(-150.5390625, -27.25)"><text style=""><tspan xml:space="preserve" dy="1em" x="0" class="title-row">DealStatusPaymentChannelAllocatingLane</tspan></text><text style="" transform="translate( 0, 26.5)"><tspan xml:space="preserve" dy="1em" x="0" class="title-row">On entry runs AllocateLane</tspan></text></g></g><g class="node statediagram-state" id="25" transform="translate(348.2421875, 207)"><rect class="outer title-state" x="-98.421875" y="-30.25" width="196.84375" height="60.5"></rect><line class="divider" x1="-98.421875" x2="98.421875" y1="-3.75" y2="-3.75"></line><g class="label" transform="translate(-90.921875, -27.25)"><text style=""><tspan xml:space="preserve" dy="1em" x="0" class="title-row">DealStatusCancelling</tspan></text><text style="" transform="translate( 0, 26.5)"><tspan xml:space="preserve" dy="1em" x="0" class="title-row">On entry runs CancelDeal</tspan></text></g></g><g class="node statediagram-state" id="26" transform="translate(348.2421875, 440)"><rect class="outer title-state" x="-80.5625" y="-17" width="161.125" height="34"></rect><line class="divider" x1="-80.5625" x2="80.5625" y1="9.5" y2="9.5"></line><g class="label" transform="translate(-73.0625, -14)"><text style=""><tspan xml:space="preserve" dy="1em" x="0" class="title-row">DealStatusCancelled</tspan></text><text style="" transform="translate( 0, 26.5)"><tspan xml:space="preserve" dy="1em" x="0" class="title-row"></tspan></text></g></g><g class="node default" id="root_start" transform="translate(4093.57421875, 58)"><circle class="state-start" r="7" width="14" height="14"></circle></g><g class="node statediagram-note" id="0----note" transform="translate(4038.6015625, 440)"><rect x="-286.75" y="-65" width="573.5" height="130"></rect><g class="label" transform="translate(-279.25, -57.5)"><text style=""><tspan xml:space="preserve" dy="1em" x="0" class="row">The following events are not shown cause they can trigger from any state.</tspan><tspan xml:space="preserve" dy="1em" x="0" class="row"></tspan><tspan xml:space="preserve" dy="1em" x="0" class="row">ClientEventWriteDealProposalErrored - transitions state to DealStatusErrored</tspan><tspan xml:space="preserve" dy="1em" x="0" class="row">ClientEventUnknownResponseReceived - transitions state to DealStatusFailing</tspan><tspan xml:space="preserve" dy="1em" x="0" class="row">ClientEventDataTransferError - transitions state to DealStatusErrored</tspan><tspan xml:space="preserve" dy="1em" x="0" class="row">ClientEventWriteDealPaymentErrored - transitions state to DealStatusErrored</tspan><tspan xml:space="preserve" dy="1em" x="0" class="row">ClientEventProviderCancelled - transitions state to DealStatusErrored</tspan><tspan xml:space="preserve" dy="1em" x="0" class="row">ClientEventCancel - transitions state to DealStatusCancelling</tspan></text></g></g><g class="node statediagram-note" id="3----note" transform="translate(940.13671875, 207)"><rect x="-173.125" y="-49" width="346.25" height="98"></rect><g class="label" transform="translate(-165.625, -41.5)"><text style=""><tspan xml:space="preserve" dy="1em" x="0" class="row">The following events only record in this state.</tspan><tspan xml:space="preserve" dy="1em" x="0" class="row"></tspan><tspan xml:space="preserve" dy="1em" x="0" class="row">ClientEventLastPaymentRequested</tspan><tspan xml:space="preserve" dy="1em" x="0" class="row">ClientEventPaymentRequested</tspan><tspan xml:space="preserve" dy="1em" x="0" class="row">ClientEventAllBlocksReceived</tspan><tspan xml:space="preserve" dy="1em" x="0" class="row">ClientEventBlocksReceived</tspan></text></g></g><g class="node statediagram-note" id="4----note" transform="translate(346.27734375, 673)"><rect x="-173.125" y="-49" width="346.25" height="98"></rect><g class="label" transform="translate(-165.625, -41.5)"><text style=""><tspan xml:space="preserve" dy="1em" x="0" class="row">The following events only record in this state.</tspan><tspan xml:space="preserve" dy="1em" x="0" class="row"></tspan><tspan xml:space="preserve" dy="1em" x="0" class="row">ClientEventLastPaymentRequested</tspan><tspan xml:space="preserve" dy="1em" x="0" class="row">ClientEventPaymentRequested</tspan><tspan xml:space="preserve" dy="1em" x="0" class="row">ClientEventAllBlocksReceived</tspan><tspan xml:space="preserve" dy="1em" x="0" class="row">ClientEventBlocksReceived</tspan></text></g></g><g class="node statediagram-note" id="6----note" transform="translate(2323.3984375, 440)"><rect x="-173.125" y="-49" width="346.25" height="98"></rect><g class="label" transform="translate(-165.625, -41.5)"><text style=""><tspan xml:space="preserve" dy="1em" x="0" class="row">The following events only record in this state.</tspan><tspan xml:space="preserve" dy="1em" x="0" class="row"></tspan><tspan xml:space="preserve" dy="1em" x="0" class="row">ClientEventLastPaymentRequested</tspan><tspan xml:space="preserve" dy="1em" x="0" class="row">ClientEventPaymentRequested</tspan><tspan xml:space="preserve" dy="1em" x="0" class="row">ClientEventAllBlocksReceived</tspan><tspan xml:space="preserve" dy="1em" x="0" class="row">ClientEventBlocksReceived</tspan></text></g></g><g class="node statediagram-note" id="8----note" transform="translate(216.125, 2109.25)"><rect x="-173.125" y="-25" width="346.25" height="50"></rect><g class="label" transform="translate(-165.625, -17.5)"><text style=""><tspan xml:space="preserve" dy="1em" x="0" class="row">The following events only record in this state.</tspan><tspan xml:space="preserve" dy="1em" x="0" class="row"></tspan><tspan xml:space="preserve" dy="1em" x="0" class="row">ClientEventProviderCancelled</tspan></text></g></g><g class="node statediagram-note" id="10----note" transform="translate(2232.5390625, 1367)"><rect x="-173.125" y="-25" width="346.25" height="50"></rect><g class="label" transform="translate(-165.625, -17.5)"><text style=""><tspan xml:space="preserve" dy="1em" x="0" class="row">The following events only record in this state.</tspan><tspan xml:space="preserve" dy="1em" x="0" class="row"></tspan><tspan xml:space="preserve" dy="1em" x="0" class="row">ClientEventAllBlocksReceived</tspan></text></g></g><g class="node statediagram-note" id="11----note" transform="translate(3993.2890625, 1670.75)"><rect x="-173.125" y="-25" width="346.25" height="50"></rect><g class="label" transform="translate(-165.625, -17.5)"><text style=""><tspan xml:space="preserve" dy="1em" x="0" class="row">The following events only record in this state.</tspan><tspan xml:space="preserve" dy="1em" x="0" class="row"></tspan><tspan xml:space="preserve" dy="1em" x="0" class="row">ClientEventAllBlocksReceived</tspan></text></g></g><g class="node statediagram-note" id="24----note" transform="translate(2157.0390625, 890)"><rect x="-173.125" y="-49" width="346.25" height="98"></rect><g class="label" transform="translate(-165.625, -41.5)"><text style=""><tspan xml:space="preserve" dy="1em" x="0" class="row">The following events only record in this state.</tspan><tspan xml:space="preserve" dy="1em" x="0" class="row"></tspan><tspan xml:space="preserve" dy="1em" x="0" class="row">ClientEventLastPaymentRequested</tspan><tspan xml:space="preserve" dy="1em" x="0" class="row">ClientEventPaymentRequested</tspan><tspan xml:space="preserve" dy="1em" x="0" class="row">ClientEventAllBlocksReceived</tspan><tspan xml:space="preserve" dy="1em" x="0" class="row">ClientEventBlocksReceived</tspan></text></g></g><g class="node statediagram-note" id="25----note" transform="translate(348.2421875, 58)"><rect x="-173.125" y="-25" width="346.25" height="50"></rect><g class="label" transform="translate(-165.625, -17.5)"><text style=""><tspan xml:space="preserve" dy="1em" x="0" class="row">The following events only record in this state.</tspan><tspan xml:space="preserve" dy="1em" x="0" class="row"></tspan><tspan xml:space="preserve" dy="1em" x="0" class="row">ClientEventProviderCancelled</tspan></text></g></g></g></g></g></svg>