<svg id="mermaid-1594412861389" width="5059.046875" xmlns="http://www.w3.org/2000/svg" class="statediagram" height="1721.5" viewBox="0 0 5059.046875 1721.5"><style>#mermaid-1594412861389 .label{font-family:'trebuchet ms', verdana, arial;font-family:var(--mermaid-font-family);color:#333}#mermaid-1594412861389 .label text{fill:#333}#mermaid-1594412861389 .node rect,#mermaid-1594412861389 .node circle,#mermaid-1594412861389 .node ellipse,#mermaid-1594412861389 .node polygon,#mermaid-1594412861389 .node path{fill:#ECECFF;stroke:#9370db;stroke-width:1px}#mermaid-1594412861389 .node .label{text-align:center}#mermaid-1594412861389 .node.clickable{cursor:pointer}#mermaid-1594412861389 .arrowheadPath{fill:#333}#mermaid-1594412861389 .edgePath .path{stroke:#333;stroke-width:1.5px}#mermaid-1594412861389 .edgeLabel{background-color:#e8e8e8;text-align:center}#mermaid-1594412861389 .edgeLabel rect{opacity:0.5}#mermaid-1594412861389 .cluster rect{fill:#ffffde;stroke:#aa3;stroke-width:1px}#mermaid-1594412861389 .cluster text{fill:#333}#mermaid-1594412861389 div.mermaidTooltip{position:absolute;text-align:center;max-width:200px;padding:2px;font-family:'trebuchet ms', verdana, arial;font-family:var(--mermaid-font-family);font-size:12px;background:#ffffde;border:1px solid #aa3;border-radius:2px;pointer-events:none;z-index:100}#mermaid-1594412861389 .actor{stroke:#ccf;fill:#ECECFF}#mermaid-1594412861389 text.actor{fill:#000;stroke:none}#mermaid-1594412861389 .actor-line{stroke:grey}#mermaid-1594412861389 .messageLine0{stroke-width:1.5;stroke-dasharray:'2 2';stroke:#333}#mermaid-1594412861389 .messageLine1{stroke-width:1.5;stroke-dasharray:'2 2';stroke:#333}#mermaid-1594412861389 #arrowhead{fill:#333}#mermaid-1594412861389 .sequenceNumber{fill:#fff}#mermaid-1594412861389 #sequencenumber{fill:#333}#mermaid-1594412861389 #crosshead path{fill:#333 !important;stroke:#333 !important}#mermaid-1594412861389 .messageText{fill:#333;stroke:none}#mermaid-1594412861389 .labelBox{stroke:#ccf;fill:#ECECFF}#mermaid-1594412861389 .labelText{fill:#000;stroke:none}#mermaid-1594412861389 .loopText{fill:#000;stroke:none}#mermaid-1594412861389 .loopLine{stroke-width:2;stroke-dasharray:'2 2';stroke:#ccf}#mermaid-1594412861389 .note{stroke:#aa3;fill:#fff5ad}#mermaid-1594412861389 .noteText{fill:black;stroke:none;font-family:'trebuchet ms', verdana, arial;font-family:var(--mermaid-font-family);font-size:14px}#mermaid-1594412861389 .activation0{fill:#f4f4f4;stroke:#666}#mermaid-1594412861389 .activation1{fill:#f4f4f4;stroke:#666}#mermaid-1594412861389 .activation2{fill:#f4f4f4;stroke:#666}#mermaid-1594412861389 .mermaid-main-font{font-family:"trebuchet ms", verdana, arial;font-family:var(--mermaid-font-family)}#mermaid-1594412861389 .section{stroke:none;opacity:0.2}#mermaid-1594412861389 .section0{fill:rgba(102,102,255,0.49)}#mermaid-1594412861389 .section2{fill:#fff400}#mermaid-1594412861389 .section1,#mermaid-1594412861389 .section3{fill:#fff;opacity:0.2}#mermaid-1594412861389 .sectionTitle0{fill:#333}#mermaid-1594412861389 .sectionTitle1{fill:#333}#mermaid-1594412861389 .sectionTitle2{fill:#333}#mermaid-1594412861389 .sectionTitle3{fill:#333}#mermaid-1594412861389 .sectionTitle{text-anchor:start;font-size:11px;text-height:14px;font-family:'trebuchet ms', verdana, arial;font-family:var(--mermaid-font-family)}#mermaid-1594412861389 .grid .tick{stroke:#d3d3d3;opacity:0.8;shape-rendering:crispEdges}#mermaid-1594412861389 .grid .tick text{font-family:'trebuchet ms', verdana, arial;font-family:var(--mermaid-font-family)}#mermaid-1594412861389 .grid path{stroke-width:0}#mermaid-1594412861389 .today{fill:none;stroke:red;stroke-width:2px}#mermaid-1594412861389 .task{stroke-width:2}#mermaid-1594412861389 .taskText{text-anchor:middle;font-family:'trebuchet ms', verdana, arial;font-family:var(--mermaid-font-family)}#mermaid-1594412861389 .taskText:not([font-size]){font-size:11px}#mermaid-1594412861389 .taskTextOutsideRight{fill:#000;text-anchor:start;font-size:11px;font-family:'trebuchet ms', verdana, arial;font-family:var(--mermaid-font-family)}#mermaid-1594412861389 .taskTextOutsideLeft{fill:#000;text-anchor:end;font-size:11px}#mermaid-1594412861389 .task.clickable{cursor:pointer}#mermaid-1594412861389 .taskText.clickable{cursor:pointer;fill:#003163 !important;font-weight:bold}#mermaid-1594412861389 .taskTextOutsideLeft.clickable{cursor:pointer;fill:#003163 !important;font-weight:bold}#mermaid-1594412861389 .taskTextOutsideRight.clickable{cursor:pointer;fill:#003163 !important;font-weight:bold}#mermaid-1594412861389 .taskText0,#mermaid-1594412861389 .taskText1,#mermaid-1594412861389 .taskText2,#mermaid-1594412861389 .taskText3{fill:#fff}#mermaid-1594412861389 .task0,#mermaid-1594412861389 .task1,#mermaid-1594412861389 .task2,#mermaid-1594412861389 .task3{fill:#8a90dd;stroke:#534fbc}#mermaid-1594412861389 .taskTextOutside0,#mermaid-1594412861389 .taskTextOutside2{fill:#000}#mermaid-1594412861389 .taskTextOutside1,#mermaid-1594412861389 .taskTextOutside3{fill:#000}#mermaid-1594412861389 .active0,#mermaid-1594412861389 .active1,#mermaid-1594412861389 .active2,#mermaid-1594412861389 .active3{fill:#bfc7ff;stroke:#534fbc}#mermaid-1594412861389 .activeText0,#mermaid-1594412861389 .activeText1,#mermaid-1594412861389 .activeText2,#mermaid-1594412861389 .activeText3{fill:#000 !important}#mermaid-1594412861389 .done0,#mermaid-1594412861389 .done1,#mermaid-1594412861389 .done2,#mermaid-1594412861389 .done3{stroke:grey;fill:#d3d3d3;stroke-width:2}#mermaid-1594412861389 .doneText0,#mermaid-1594412861389 .doneText1,#mermaid-1594412861389 .doneText2,#mermaid-1594412861389 .doneText3{fill:#000 !important}#mermaid-1594412861389 .crit0,#mermaid-1594412861389 .crit1,#mermaid-1594412861389 .crit2,#mermaid-1594412861389 .crit3{stroke:#f88;fill:red;stroke-width:2}#mermaid-1594412861389 .activeCrit0,#mermaid-1594412861389 .activeCrit1,#mermaid-1594412861389 .activeCrit2,#mermaid-1594412861389 .activeCrit3{stroke:#f88;fill:#bfc7ff;stroke-width:2}#mermaid-1594412861389 .doneCrit0,#mermaid-1594412861389 .doneCrit1,#mermaid-1594412861389 .doneCrit2,#mermaid-1594412861389 .doneCrit3{stroke:#f88;fill:#d3d3d3;stroke-width:2;cursor:pointer;shape-rendering:crispEdges}#mermaid-1594412861389 .milestone{transform:rotate(45deg) scale(0.8, 0.8)}#mermaid-1594412861389 .milestoneText{font-style:italic}#mermaid-1594412861389 .doneCritText0,#mermaid-1594412861389 .doneCritText1,#mermaid-1594412861389 .doneCritText2,#mermaid-1594412861389 .doneCritText3{fill:#000 !important}#mermaid-1594412861389 .activeCritText0,#mermaid-1594412861389 .activeCritText1,#mermaid-1594412861389 .activeCritText2,#mermaid-1594412861389 .activeCritText3{fill:#000 !important}#mermaid-1594412861389 .titleText{text-anchor:middle;font-size:18px;fill:#000;font-family:'trebuchet ms', verdana, arial;font-family:var(--mermaid-font-family)}#mermaid-1594412861389 g.classGroup text{fill:#9370db;stroke:none;font-family:'trebuchet ms', verdana, arial;font-family:var(--mermaid-font-family);font-size:10px}#mermaid-1594412861389 g.classGroup text .title{font-weight:bolder}#mermaid-1594412861389 g.clickable{cursor:pointer}#mermaid-1594412861389 g.classGroup rect{fill:#ECECFF;stroke:#9370db}#mermaid-1594412861389 g.classGroup line{stroke:#9370db;stroke-width:1}#mermaid-1594412861389 .classLabel .box{stroke:none;stroke-width:0;fill:#ECECFF;opacity:0.5}#mermaid-1594412861389 .classLabel .label{fill:#9370db;font-size:10px}#mermaid-1594412861389 .relation{stroke:#9370db;stroke-width:1;fill:none}#mermaid-1594412861389 .dashed-line{stroke-dasharray:3}#mermaid-1594412861389 #compositionStart{fill:#9370db;stroke:#9370db;stroke-width:1}#mermaid-1594412861389 #compositionEnd{fill:#9370db;stroke:#9370db;stroke-width:1}#mermaid-1594412861389 #aggregationStart{fill:#ECECFF;stroke:#9370db;stroke-width:1}#mermaid-1594412861389 #aggregationEnd{fill:#ECECFF;stroke:#9370db;stroke-width:1}#mermaid-1594412861389 #dependencyStart{fill:#9370db;stroke:#9370db;stroke-width:1}#mermaid-1594412861389 #dependencyEnd{fill:#9370db;stroke:#9370db;stroke-width:1}#mermaid-1594412861389 #extensionStart{fill:#9370db;stroke:#9370db;stroke-width:1}#mermaid-1594412861389 #extensionEnd{fill:#9370db;stroke:#9370db;stroke-width:1}#mermaid-1594412861389 .commit-id,#mermaid-1594412861389 .commit-msg,#mermaid-1594412861389 .branch-label{fill:lightgrey;color:lightgrey;font-family:'trebuchet ms', verdana, arial;font-family:var(--mermaid-font-family)}#mermaid-1594412861389 .pieTitleText{text-anchor:middle;font-size:25px;fill:#000;font-family:'trebuchet ms', verdana, arial;font-family:var(--mermaid-font-family)}#mermaid-1594412861389 .slice{font-family:'trebuchet ms', verdana, arial;font-family:var(--mermaid-font-family)}#mermaid-1594412861389 g.stateGroup text{fill:#9370db;stroke:none;font-size:10px;font-family:'trebuchet ms', verdana, arial;font-family:var(--mermaid-font-family)}#mermaid-1594412861389 g.stateGroup text{fill:#9370db;stroke:none;font-size:10px}#mermaid-1594412861389 g.stateGroup .state-title{font-weight:bolder;fill:#000}#mermaid-1594412861389 g.stateGroup rect{fill:#ECECFF;stroke:#9370db}#mermaid-1594412861389 g.stateGroup line{stroke:#9370db;stroke-width:1}#mermaid-1594412861389 .transition{stroke:#9370db;stroke-width:1;fill:none}#mermaid-1594412861389 .stateGroup .composit{fill:white;border-bottom:1px}#mermaid-1594412861389 .stateGroup .alt-composit{fill:#e0e0e0;border-bottom:1px}#mermaid-1594412861389 .state-note{stroke:#aa3;fill:#fff5ad}#mermaid-1594412861389 .state-note text{fill:black;stroke:none;font-size:10px}#mermaid-1594412861389 .stateLabel .box{stroke:none;stroke-width:0;fill:#ECECFF;opacity:0.5}#mermaid-1594412861389 .stateLabel text{fill:#000;font-size:10px;font-weight:bold;font-family:'trebuchet ms', verdana, arial;font-family:var(--mermaid-font-family)}#mermaid-1594412861389 .node circle.state-start{fill:black;stroke:black}#mermaid-1594412861389 .node circle.state-end{fill:black;stroke:white;stroke-width:1.5}#mermaid-1594412861389 #statediagram-barbEnd{fill:#9370db}#mermaid-1594412861389 .statediagram-cluster rect{fill:#ECECFF;stroke:#9370db;stroke-width:1px}#mermaid-1594412861389 .statediagram-cluster rect.outer{rx:5px;ry:5px}#mermaid-1594412861389 .statediagram-state .divider{stroke:#9370db}#mermaid-1594412861389 .statediagram-state .title-state{rx:5px;ry:5px}#mermaid-1594412861389 .statediagram-cluster.statediagram-cluster .inner{fill:white}#mermaid-1594412861389 .statediagram-cluster.statediagram-cluster-alt .inner{fill:#e0e0e0}#mermaid-1594412861389 .statediagram-cluster .inner{rx:0;ry:0}#mermaid-1594412861389 .statediagram-state rect.basic{rx:5px;ry:5px}#mermaid-1594412861389 .statediagram-state rect.divider{stroke-dasharray:10,10;fill:#efefef}#mermaid-1594412861389 .note-edge{stroke-dasharray:5}#mermaid-1594412861389 .statediagram-note rect{fill:#fff5ad;stroke:#aa3;stroke-width:1px;rx:0;ry:0}:root{--mermaid-font-family: '"trebuchet ms", verdana, arial';--mermaid-font-family: "Comic Sans MS", "Comic Sans", cursive}

:root { --mermaid-font-family: "trebuchet ms", verdana, arial;}</style><style>#mermaid-1594412861389 {
    color: rgb(0, 0, 0);
    font: 16px "trebuchet ms", verdana, arial;
  }</style><g><defs><marker id="statediagram-barbEnd" refX="19" refY="7" markerWidth="20" markerHeight="14" markerUnits="0" orient="auto"><path d="M 19,7 L9,13 L14,7 L9,1 Z"></path></marker></defs><g class="root"><g class="clusters"><g class="note-cluster" id="0----parent"><rect x="8" y="72" width="674.23828125" height="302.5" fill="none"></rect></g><g class="note-cluster" id="4----parent"><rect x="1055.70703125" y="443.5" width="574.83984375" height="365" fill="none"></rect></g><g class="note-cluster" id="5----parent"><rect x="2140.3828125" y="443.5" width="642.18359375" height="365" fill="none"></rect></g><g class="note-cluster" id="6----parent"><rect x="3419.28515625" y="660.5" width="769.76171875" height="302.5" fill="none"></rect></g><g class="note-cluster" id="8----parent"><rect x="1650.546875" y="226.5" width="469.8359375" height="365" fill="none"></rect></g></g><g class="edgePaths"><path d="M383.26953125,22L383.26953125,26.166666666666668C383.26953125,30.333333333333332,383.26953125,38.666666666666664,383.26953125,47C383.26953125,55.333333333333336,383.26953125,63.666666666666664,383.26953125,72C383.26953125,80.33333333333333,383.26953125,88.66666666666667,383.26953125,92.83333333333333L383.26953125,97" id="edge0" class="transition" marker-end="url(#statediagram-barbEnd)"></path><path d="M357.5873250482625,157.5L352.70558337355214,163.25C347.8238416988417,169,338.0603583494208,180.5,333.17861667471044,192C328.296875,203.5,328.296875,215,328.296875,224.91666666666666C328.296875,234.83333333333334,328.296875,243.16666666666666,328.296875,247.33333333333334L328.296875,251.5" class="transition note-edge"></path><path d="M485.86328125,110.02400190801075L498.79123263888886,107.85333492334229C511.71918402777777,105.68266793867383,537.5750868055555,101.34133396933692,553.7350260416666,99.17066698466846C569.8949652777777,97,576.3589409722223,97,582.8229166666666,102.04166666666667C589.2868923611112,107.08333333333333,595.7508680555555,117.16666666666667,595.7508680555557,127.25C595.7508680555555,137.33333333333334,589.2868923611112,147.41666666666666,582.8229166666666,152.45833333333334C576.3589409722223,157.5,569.8949652777777,157.5,553.7350260416666,155.32933301533154C537.5750868055555,153.15866603066308,511.71918402777777,148.81733206132617,498.79123263888886,146.6466650766577L485.86328125,144.47599809198925" id="edge1" class="transition" marker-end="url(#statediagram-barbEnd)"></path><path d="M432.40570704633205,157.5L441.7456412886101,163.25C451.08557553088804,169,469.765444015444,180.5,479.10537825772207,192C488.4453125,203.5,488.4453125,215,538.549487964527,230.25C588.6536634290541,245.5,688.862014358108,264.5,738.9661898226351,274L789.0703652871622,283.5" id="edge2" class="transition" marker-end="url(#statediagram-barbEnd)"></path><path d="M838.1849662162163,317.5L815.5271853885137,327C792.8694045608108,336.5,747.5538429054054,355.5,724.8960620777028,370.75C702.23828125,386,702.23828125,397.5,702.23828125,409C702.23828125,420.5,702.23828125,432,702.23828125,447.25C702.23828125,462.5,702.23828125,481.5,702.23828125,491L702.23828125,500.5" id="edge3" class="transition" marker-end="url(#statediagram-barbEnd)"></path><path d="M889.4236697635135,317.5L895.3992820945946,327C901.3748944256757,336.5,913.3261190878378,355.5,919.3017314189188,370.75C925.27734375,386,925.27734375,397.5,925.27734375,409C925.27734375,420.5,925.27734375,432,925.27734375,447.25C925.27734375,462.5,925.27734375,481.5,925.27734375,491L925.27734375,500.5" id="edge4" class="transition" marker-end="url(#statediagram-barbEnd)"></path><path d="M993.67578125,309.7175400127838L1128.318359375,320.5146166773198C1262.9609375,331.31169334185586,1532.24609375,352.90584667092793,1666.888671875,369.45292333546394C1801.53125,386,1801.53125,397.5,1801.53125,409C1801.53125,420.5,1801.53125,432,1806.9865282763233,445.0416666666667C1812.4418065526463,458.0833333333333,1823.3523631052929,472.6666666666667,1828.8076413816161,479.9583333333333L1834.2629196579392,487.25" id="edge5" class="transition" marker-end="url(#statediagram-barbEnd)"></path><path d="M1266.6134660050675,764.75L1250.2618727125562,772.0416666666666C1233.910279420045,779.3333333333334,1201.2070928350224,793.9166666666666,1155.1185203758446,806.9583333333334C1109.0299479166667,820,1049.5559895833333,831.5,1019.8190104166666,848.0416666666666C990.08203125,864.5833333333334,990.08203125,886.1666666666666,990.08203125,906.1666666666666C990.08203125,926.1666666666666,990.08203125,944.5833333333334,990.08203125,959.5416666666666C990.08203125,974.5,990.08203125,986,990.08203125,1002.5416666666666C990.08203125,1019.0833333333334,990.08203125,1040.6666666666667,990.08203125,1062.25C990.08203125,1083.8333333333333,990.08203125,1105.4166666666667,990.08203125,1127C990.08203125,1148.5833333333333,990.08203125,1170.1666666666667,990.08203125,1191.75C990.08203125,1213.3333333333333,990.08203125,1234.9166666666667,990.08203125,1256.5C990.08203125,1278.0833333333333,990.08203125,1299.6666666666667,990.08203125,1321.25C990.08203125,1342.8333333333333,990.08203125,1364.4166666666667,990.08203125,1386C990.08203125,1407.5833333333333,990.08203125,1429.1666666666667,990.08203125,1450.75C990.08203125,1472.3333333333333,990.08203125,1493.9166666666667,1257.201171875,1514.8756315668215C1524.3203125,1535.8345964669763,2058.55859375,1556.169192933953,2325.677734375,1566.3364911674407L2592.796875,1576.503789400929" id="edge6" class="transition" marker-end="url(#statediagram-barbEnd)"></path><path d="M1815.7191459037163,547.75L1805.7939497114303,555.0416666666666C1795.868753519144,562.3333333333334,1776.0183611345722,576.9166666666666,1646.0163420256195,589.9583333333334C1516.0143229166667,603,1275.8606770833333,614.5,1155.7838541666667,626C1035.70703125,637.5,1035.70703125,649,1035.70703125,667.0833333333334C1035.70703125,685.1666666666666,1035.70703125,709.8333333333334,1035.70703125,734.5C1035.70703125,759.1666666666666,1035.70703125,783.8333333333334,1052.7942708333333,801.9166666666666C1069.8815104166667,820,1104.0559895833333,831.5,1121.1432291666667,848.0416666666666C1138.23046875,864.5833333333334,1138.23046875,886.1666666666666,1138.23046875,906.1666666666666C1138.23046875,926.1666666666666,1138.23046875,944.5833333333334,1138.23046875,959.5416666666666C1138.23046875,974.5,1138.23046875,986,1138.23046875,1002.5416666666666C1138.23046875,1019.0833333333334,1138.23046875,1040.6666666666667,1138.23046875,1062.25C1138.23046875,1083.8333333333333,1138.23046875,1105.4166666666667,1138.23046875,1127C1138.23046875,1148.5833333333333,1138.23046875,1170.1666666666667,1138.23046875,1191.75C1138.23046875,1213.3333333333333,1138.23046875,1234.9166666666667,1138.23046875,1256.5C1138.23046875,1278.0833333333333,1138.23046875,1299.6666666666667,1138.23046875,1321.25C1138.23046875,1342.8333333333333,1138.23046875,1364.4166666666667,1138.23046875,1386C1138.23046875,1407.5833333333333,1138.23046875,1429.1666666666667,1138.23046875,1450.75C1138.23046875,1472.3333333333333,1138.23046875,1493.9166666666667,1380.658203125,1514.816069489685C1623.0859375,1535.7154723127035,2107.94140625,1555.9309446254072,2350.369140625,1566.0386807817592L2592.796875,1576.1464169381109" id="edge7" class="transition" marker-end="url(#statediagram-barbEnd)"></path><path d="M1856.260597022804,547.75L1856.10778918567,555.0416666666666C1855.9549813485362,562.3333333333334,1855.649365674268,576.9166666666666,1754.0186932538006,589.9583333333334C1652.3880208333333,603,1449.4322916666667,614.5,1347.9544270833333,626C1246.4765625,637.5,1246.4765625,649,1255.1450393264358,662.0416666666666C1263.8135161528717,675.0833333333334,1281.1504698057431,689.6666666666666,1289.818946632179,696.9583333333334L1298.4874234586148,704.25" id="edge8" class="transition" marker-end="url(#statediagram-barbEnd)"></path><path d="M1921.4312711148648,547.75L1936.987647804054,555.0416666666666C1952.5440244932433,562.3333333333334,1983.6567778716217,576.9166666666666,2062.095967060811,589.9583333333334C2140.53515625,603,2266.30078125,614.5,2329.18359375,626C2392.06640625,637.5,2392.06640625,649,2401.459276903857,662.0416666666666C2410.852147557714,675.0833333333334,2429.637888865428,689.6666666666666,2439.030759519285,696.9583333333334L2448.423630173142,704.25" id="edge9" class="transition" marker-end="url(#statediagram-barbEnd)"></path><path d="M1412.3161423141892,764.75L1431.0857175534911,772.0416666666666C1449.8552927927929,779.3333333333334,1487.3944432713963,793.9166666666666,1847.305294552365,806.9583333333334C2207.2161458333335,820,2889.4986979166665,831.5,3248.8064495857466,843C3608.114201254826,854.5,3644.4471525096524,866,3662.6136281370655,871.75L3680.7801037644786,877.5" id="edge10" class="transition" marker-end="url(#statediagram-barbEnd)"></path><path d="M2559.844357052365,764.75L2577.3090996269707,772.0416666666666C2594.773842201577,779.3333333333334,2629.703327350788,793.9166666666666,2842.708434508728,806.9583333333334C3055.7135416666665,820,3446.7942708333335,831.5,3636.8711641328828,843C3826.948057432432,854.5,3816.021114864865,866,3810.5576435810813,871.75L3805.0941722972975,877.5" id="edge11" class="transition" marker-end="url(#statediagram-barbEnd)"></path><path d="M1333.815284522804,764.75L1333.66247668567,772.0416666666666C1333.509668848536,779.3333333333334,1333.204053174268,793.9166666666666,1333.051245337134,806.9583333333334C1332.8984375,820,1332.8984375,831.5,1332.8984375,848.0416666666666C1332.8984375,864.5833333333334,1332.8984375,886.1666666666666,1332.8984375,906.1666666666666C1332.8984375,926.1666666666666,1332.8984375,944.5833333333334,1332.8984375,959.5416666666666C1332.8984375,974.5,1332.8984375,986,1332.8984375,1002.5416666666666C1332.8984375,1019.0833333333334,1332.8984375,1040.6666666666667,1332.8984375,1062.25C1332.8984375,1083.8333333333333,1332.8984375,1105.4166666666667,1332.8984375,1127C1332.8984375,1148.5833333333333,1332.8984375,1170.1666666666667,1332.8984375,1191.75C1332.8984375,1213.3333333333333,1332.8984375,1234.9166666666667,1332.8984375,1256.5C1332.8984375,1278.0833333333333,1332.8984375,1299.6666666666667,1332.8984375,1321.25C1332.8984375,1342.8333333333333,1332.8984375,1364.4166666666667,1332.8984375,1386C1332.8984375,1407.5833333333333,1332.8984375,1429.1666666666667,1332.8984375,1450.75C1332.8984375,1472.3333333333333,1332.8984375,1493.9166666666667,1542.8815104166667,1514.7180518409878C1752.8645833333333,1535.5194370153088,2172.8307291666665,1555.5388740306178,2382.8138020833335,1565.548592538272L2592.796875,1575.5583110459265" id="edge12" class="transition" marker-end="url(#statediagram-barbEnd)"></path><path d="M2361.8908097550675,764.75L2331.639476879223,772.0416666666666C2301.3881440033783,779.3333333333334,2240.885478251689,793.9166666666666,2210.6341453758446,806.9583333333334C2180.3828125,820,2180.3828125,831.5,2180.3828125,848.0416666666666C2180.3828125,864.5833333333334,2180.3828125,886.1666666666666,2180.3828125,906.1666666666666C2180.3828125,926.1666666666666,2180.3828125,944.5833333333334,2180.3828125,959.5416666666666C2180.3828125,974.5,2180.3828125,986,2180.3828125,1002.5416666666666C2180.3828125,1019.0833333333334,2180.3828125,1040.6666666666667,2180.3828125,1062.25C2180.3828125,1083.8333333333333,2180.3828125,1105.4166666666667,2180.3828125,1127C2180.3828125,1148.5833333333333,2180.3828125,1170.1666666666667,2180.3828125,1191.75C2180.3828125,1213.3333333333333,2180.3828125,1234.9166666666667,2180.3828125,1256.5C2180.3828125,1278.0833333333333,2180.3828125,1299.6666666666667,2180.3828125,1321.25C2180.3828125,1342.8333333333333,2180.3828125,1364.4166666666667,2180.3828125,1386C2180.3828125,1407.5833333333333,2180.3828125,1429.1666666666667,2180.3828125,1450.75C2180.3828125,1472.3333333333333,2180.3828125,1493.9166666666667,2249.1184895833335,1513.420788281055C2317.8541666666665,1532.924909895443,2455.3255208333335,1550.349819790886,2524.0611979166665,1559.0622747386076L2592.796875,1567.774729686329" id="edge13" class="transition" marker-end="url(#statediagram-barbEnd)"></path><path d="M2483.302787162162,764.75L2482.3174268018015,772.0416666666666C2481.3320664414414,779.3333333333334,2479.3613457207207,793.9166666666666,2478.37598536036,806.9583333333334C2477.390625,820,2477.390625,831.5,2477.390625,848.0416666666666C2477.390625,864.5833333333334,2477.390625,886.1666666666666,2477.390625,906.1666666666666C2477.390625,926.1666666666666,2477.390625,944.5833333333334,2477.390625,959.5416666666666C2477.390625,974.5,2477.390625,986,2477.390625,1002.5416666666666C2477.390625,1019.0833333333334,2477.390625,1040.6666666666667,2477.390625,1062.25C2477.390625,1083.8333333333333,2477.390625,1105.4166666666667,2477.390625,1127C2477.390625,1148.5833333333333,2477.390625,1170.1666666666667,2477.390625,1191.75C2477.390625,1213.3333333333333,2477.390625,1234.9166666666667,2477.390625,1256.5C2477.390625,1278.0833333333333,2477.390625,1299.6666666666667,2477.390625,1321.25C2477.390625,1342.8333333333333,2477.390625,1364.4166666666667,2477.390625,1386C2477.390625,1407.5833333333333,2477.390625,1429.1666666666667,2477.390625,1450.75C2477.390625,1472.3333333333333,2477.390625,1493.9166666666667,2496.625,1510.532757885763C2515.859375,1527.1488491048594,2554.328125,1538.7976982097189,2573.5625,1544.6221227621484L2592.796875,1550.446547314578" id="edge14" class="transition" marker-end="url(#statediagram-barbEnd)"></path><path d="M3776.3515625,938L3776.3515625,942.1666666666666C3776.3515625,946.3333333333334,3776.3515625,954.6666666666666,3776.3515625,964.5833333333334C3776.3515625,974.5,3776.3515625,986,3776.3515625,997.5C3776.3515625,1009,3776.3515625,1020.5,3776.3515625,1026.25L3776.3515625,1032" id="edge15" class="transition" marker-end="url(#statediagram-barbEnd)"></path><path d="M3394.890625,1222L3394.890625,1227.75C3394.890625,1233.5,3394.890625,1245,3439.7727864583335,1257.6186741973108C3484.6549479166665,1270.237348394622,3574.4192708333335,1283.9746967892436,3619.3014322916665,1290.8433709865544L3664.18359375,1297.7120451838653" id="edge16" class="transition" marker-end="url(#statediagram-barbEnd)"></path><path d="M3863.6328125,1076.945819112628L3913.1796875,1085.2881825938566C3962.7265625,1093.6305460750852,4061.8203125,1110.3152730375425,4111.3671875,1129.4493031854379C4160.9140625,1148.5833333333333,4160.9140625,1170.1666666666667,4160.9140625,1191.75C4160.9140625,1213.3333333333333,4160.9140625,1234.9166666666667,4129.393880208333,1251.6598596255415C4097.873697916667,1268.4030525844164,4034.8333333333335,1280.3061051688328,4003.3131510416665,1286.257631461041L3971.79296875,1292.2091577532492" id="edge17" class="transition" marker-end="url(#statediagram-barbEnd)"></path><path d="M3971.79296875,1303.4449408024557L3989.710069444445,1301.3707840020463C4007.6271701388887,1299.2966272016372,4043.4613715277774,1295.1483136008185,4065.8577473958335,1293.0741568004094C4088.254123263889,1291,4097.212673611111,1291,4106.171223958334,1296.0416666666667C4115.129774305556,1301.0833333333333,4124.088324652778,1311.1666666666667,4124.088324652778,1321.25C4124.088324652778,1331.3333333333333,4115.129774305556,1341.4166666666667,4106.171223958334,1346.4583333333333C4097.212673611111,1351.5,4088.254123263889,1351.5,4065.8577473958335,1349.4258431995906C4043.4613715277774,1347.3516863991815,4007.6271701388887,1343.2033727983628,3989.710069444445,1341.1292159979537L3971.79296875,1339.0550591975443" id="edge18" class="transition" marker-end="url(#statediagram-barbEnd)"></path><path d="M2979.0078125,1338.25L2979.0078125,1346.2083333333333C2979.0078125,1354.1666666666667,2979.0078125,1370.0833333333333,3045.650390625,1386.2035298681149C3112.29296875,1402.3237264028965,3245.578125,1418.6474528057927,3312.220703125,1426.8093160072406L3378.86328125,1434.971179208689" id="edge19" class="transition" marker-end="url(#statediagram-barbEnd)"></path><path d="M3548.6953125,1173.1765861671051L3564.8107638888887,1171.2304884725875C3580.926215277778,1169.28439077807,3613.157118055556,1165.3921953890351,3633.3014322916674,1163.4460976945174C3653.445746527778,1161.5,3661.503472222222,1161.5,3669.5611979166665,1166.5416666666667C3677.618923611111,1171.5833333333333,3685.676649305555,1181.6666666666667,3685.676649305556,1191.75C3685.676649305555,1201.8333333333333,3677.618923611111,1211.9166666666667,3669.561197916666,1216.9583333333333C3661.503472222222,1222,3653.445746527778,1222,3633.3014322916665,1220.0539023054826C3613.157118055556,1218.1078046109649,3580.926215277778,1214.21560922193,3564.8107638888887,1212.2695115274125L3548.6953125,1210.3234138328949" id="edge20" class="transition" marker-end="url(#statediagram-barbEnd)"></path><path d="M3689.0703125,1077.0653071046756L3640.0403645833335,1085.387755920563C3591.0104166666665,1093.7102047364504,3492.9505208333335,1110.355102368225,3443.9205729166665,1124.4275511841126C3394.890625,1138.5,3394.890625,1150,3394.890625,1155.75L3394.890625,1161.5" id="edge21" class="transition" marker-end="url(#statediagram-barbEnd)"></path><path d="M3689.0703125,1069.3378600823046L3570.7265625,1078.9482167352537C3452.3828125,1088.558573388203,3215.6953125,1107.7792866941015,3097.3515625,1128.1813100137174C2979.0078125,1148.5833333333333,2979.0078125,1170.1666666666667,2979.0078125,1191.75C2979.0078125,1213.3333333333333,2979.0078125,1234.9166666666667,2979.0078125,1253.6666666666667C2979.0078125,1272.4166666666667,2979.0078125,1288.3333333333333,2979.0078125,1296.2916666666667L2979.0078125,1304.25" id="edge22" class="transition" marker-end="url(#statediagram-barbEnd)"></path><path d="M3664.18359375,1343.6219835377947L3615.6263020833335,1350.6849862814954C3567.0690104166665,1357.7479890251964,3469.9544270833335,1371.873994512598,3433.3730644707207,1384.686997256299C3396.791701858108,1397.5,3420.7435599662163,1409,3432.71948902027,1414.75L3444.695418074324,1420.5" id="edge23" class="transition" marker-end="url(#statediagram-barbEnd)"></path><path d="M3081.1953125,1312.3849138847545L3096.823784722222,1311.029094903962C3112.452256944445,1309.6732759231697,3143.709201388889,1306.9616379615848,3163.2447916666665,1305.6058189807925C3182.780381944445,1304.25,3190.594618055555,1304.25,3198.4088541666665,1307.0833333333333C3206.2230902777774,1309.9166666666667,3214.0373263888887,1315.5833333333333,3214.0373263888887,1321.25C3214.0373263888887,1326.9166666666667,3206.2230902777774,1332.5833333333333,3198.4088541666665,1335.4166666666667C3190.594618055555,1338.25,3182.780381944445,1338.25,3163.2447916666665,1336.8941810192075C3143.709201388889,1335.5383620384152,3112.452256944445,1332.8267240768303,3096.8237847222226,1331.470905096038L3081.1953125,1330.1150861152455" id="edge24" class="transition" marker-end="url(#statediagram-barbEnd)"></path><path d="M3548.6953125,1180.1572385197874L3589.9505208333335,1177.0476987664895C3631.2057291666665,1173.9381590131916,3713.7161458333335,1167.7190795065958,3765.28515625,1164.609539753298C3816.8541666666665,1161.5,3837.4817708333335,1161.5,3858.109375,1166.5416666666667C3878.7369791666665,1171.5833333333333,3899.3645833333335,1181.6666666666667,3899.3645833333335,1191.75C3899.3645833333335,1201.8333333333333,3878.7369791666665,1211.9166666666667,3858.109375,1216.9583333333333C3837.4817708333335,1222,3816.8541666666665,1222,3765.28515625,1218.890460246702C3713.7161458333335,1215.7809204934042,3631.2057291666665,1209.5618409868084,3589.9505208333335,1206.4523012335105L3548.6953125,1203.3427614802126" id="edge25" class="transition" marker-end="url(#statediagram-barbEnd)"></path><path d="M3863.6328125,1047.1421291053227L3878.2126736111113,1044.6184409211023C3892.792534722222,1042.094752736882,3921.952256944444,1037.047376368441,3940.1770833333326,1034.5236881842204C3958.401909722222,1032,3965.691840277778,1032,3972.9817708333335,1037.0416666666667C3980.271701388889,1042.0833333333333,3987.561631944445,1052.1666666666667,3987.561631944444,1062.25C3987.561631944445,1072.3333333333333,3980.271701388889,1082.4166666666667,3972.981770833334,1087.4583333333333C3965.691840277778,1092.5,3958.401909722222,1092.5,3940.1770833333335,1089.9763118157796C3921.952256944444,1087.452623631559,3892.792534722222,1082.405247263118,3878.2126736111113,1079.8815590788977L3863.6328125,1077.3578708946773" id="edge26" class="transition" marker-end="url(#statediagram-barbEnd)"></path><path d="M3971.79296875,1310.222859497093L4016.4791666666665,1307.0190495809109C4061.1653645833335,1303.8152396647286,4150.537760416667,1297.4076198323644,4206.3955078125,1294.203809916182C4262.253255208333,1291,4284.596354166667,1291,4306.939453125,1296.0416666666667C4329.282552083333,1301.0833333333333,4351.625651041667,1311.1666666666667,4351.625651041667,1321.25C4351.625651041667,1331.3333333333333,4329.282552083333,1341.4166666666667,4306.939453125,1346.4583333333333C4284.596354166667,1351.5,4262.253255208333,1351.5,4206.3955078125,1348.296190083818C4150.537760416667,1345.0923801676356,4061.1653645833335,1338.6847603352714,4016.4791666666665,1335.4809504190891L3971.79296875,1332.277140502907" id="edge27" class="transition" marker-end="url(#statediagram-barbEnd)"></path><path d="M3548.6953125,1203.2612540410698L3667.2513020833335,1212.1343783675582C3785.8072916666665,1221.0075026940465,4022.9192708333335,1238.7537513470234,4182.334635416667,1255.3768413454266C4341.75,1271.99993134383,4423.46875,1287.4998626876602,4464.328125,1295.249828359575L4505.1875,1302.9997940314902" id="edge28" class="transition" marker-end="url(#statediagram-barbEnd)"></path><path d="M3971.79296875,1350.2908422467508L4003.3131510416665,1356.242368538959C4034.8333333333335,1362.1938948311672,4097.873697916667,1374.0969474155836,4041.9973958333335,1388.71166073948C3986.12109375,1403.3263740633765,3811.328125,1420.652748126753,3723.931640625,1429.315935158441L3636.53515625,1437.9791221901294" id="edge29" class="transition" marker-end="url(#statediagram-barbEnd)"></path><path d="M3378.86328125,1459.8824006722343L3248.091796875,1469.1520005601953C3117.3203125,1478.4216004481561,2855.77734375,1496.9608002240782,2733.6183714406375,1511.9804001120392C2611.459399131274,1527,2628.6844232625485,1538.5,2637.2969353281856,1544.25L2645.9094473938226,1550" id="edge30" class="transition" marker-end="url(#statediagram-barbEnd)"></path><path d="M3241.0859375,1206.3137196097248L3152.7513020833335,1214.6780996747707C3064.4166666666665,1223.0424797398166,2887.7473958333335,1239.7712398699084,2799.4127604166665,1258.9272866016208C2711.078125,1278.0833333333333,2711.078125,1299.6666666666667,2711.078125,1321.25C2711.078125,1342.8333333333333,2711.078125,1364.4166666666667,2711.078125,1386C2711.078125,1407.5833333333333,2711.078125,1429.1666666666667,2711.078125,1450.75C2711.078125,1472.3333333333333,2711.078125,1493.9166666666667,2709.314551158301,1510.4583333333333C2707.5509773166023,1527,2704.0238296332045,1538.5,2702.2602557915056,1544.25L2700.4966819498068,1550" id="edge31" class="transition" marker-end="url(#statediagram-barbEnd)"></path><path d="M3507.69921875,1481L3507.69921875,1486.75C3507.69921875,1492.5,3507.69921875,1504,3388.0227864583335,1519.2407952945266C3268.3463541666665,1534.4815905890534,3028.9934895833335,1553.4631811781067,2909.3170572916665,1562.9539764726333L2789.640625,1572.4447717671599" id="edge32" class="transition" marker-end="url(#statediagram-barbEnd)"></path><path d="M4601.40625,1351.5L4601.40625,1357.25C4601.40625,1363,4601.40625,1374.5,4601.40625,1391.0416666666667C4601.40625,1407.5833333333333,4601.40625,1429.1666666666667,4601.40625,1450.75C4601.40625,1472.3333333333333,4601.40625,1493.9166666666667,4299.4453125,1514.9439624027964C3997.484375,1535.971258138926,3393.5625,1556.4425162778523,3091.6015625,1566.6781453473156L2789.640625,1576.9137744167786" id="edge33" class="transition" marker-end="url(#statediagram-barbEnd)"></path><path d="M3636.53515625,1457.5312479161705L3820.091796875,1467.1927065968086C4003.6484375,1476.8541652774468,4370.76171875,1496.1770826387235,4229.612630208333,1516.1112463539964C4088.4635416666665,1536.0454100692696,3439.0520833333335,1556.5908201385391,3114.3463541666665,1566.8635251731737L2789.640625,1577.1362302078085" id="edge34" class="transition" marker-end="url(#statediagram-barbEnd)"></path><path d="M4632.692808880309,1291L4638.639840733591,1285.25C4644.586872586872,1279.5,4656.480936293437,1268,4662.427968146719,1251.4583333333333C4668.375,1234.9166666666667,4668.375,1213.3333333333333,4668.375,1191.75C4668.375,1170.1666666666667,4668.375,1148.5833333333333,4534.251302083333,1128.0559253452911C4400.127604166667,1107.528517357249,4131.880208333333,1088.057034714498,3997.7565104166665,1078.3212933931225L3863.6328125,1068.585552071747" id="edge35" class="transition" marker-end="url(#statediagram-barbEnd)"></path><path d="M3636.53515625,1456.483435978941L3857.5618489583335,1466.319529982451C4078.5885416666665,1476.1556239859608,4520.641927083333,1495.8278119929803,4741.668619791667,1513.6222393298237C4962.6953125,1531.4166666666667,4962.6953125,1547.3333333333333,4962.6953125,1555.2916666666667L4962.6953125,1563.25" id="edge36" class="transition" marker-end="url(#statediagram-barbEnd)"></path><path d="M4962.6953125,1597.25L4962.6953125,1605.2083333333333C4962.6953125,1613.1666666666667,4962.6953125,1629.0833333333333,4962.6953125,1642.7916666666667C4962.6953125,1656.5,4962.6953125,1668,4962.6953125,1673.75L4962.6953125,1679.5" id="edge37" class="transition" marker-end="url(#statediagram-barbEnd)"></path><path d="M2691.21875,1610.5L2691.21875,1616.25C2691.21875,1622,2691.21875,1633.5,2691.21875,1645C2691.21875,1656.5,2691.21875,1668,2691.21875,1673.75L2691.21875,1679.5" id="edge38" class="transition" marker-end="url(#statediagram-barbEnd)"></path><path d="M1422.421875,566.5L1422.421875,570.6666666666666C1422.421875,574.8333333333334,1422.421875,583.1666666666666,1422.421875,593.0833333333334C1422.421875,603,1422.421875,614.5,1422.421875,626C1422.421875,637.5,1422.421875,649,1413.7533981735642,662.0416666666666C1405.0849213471283,675.0833333333334,1387.7479676942567,689.6666666666666,1379.079490867821,696.9583333333334L1370.4110140413852,704.25" class="transition note-edge"></path><path d="M2570.5703125,566.5L2570.5703125,570.6666666666666C2570.5703125,574.8333333333334,2570.5703125,583.1666666666666,2570.5703125,593.0833333333334C2570.5703125,603,2570.5703125,614.5,2570.5703125,626C2570.5703125,637.5,2570.5703125,649,2562.3741158150337,662.0416666666666C2554.1779191300675,675.0833333333334,2537.785525760135,689.6666666666666,2529.5893290751687,696.9583333333334L2521.3931323902025,704.25" class="transition note-edge"></path><path d="M3980.921875,783.5L3980.921875,787.6666666666666C3980.921875,791.8333333333334,3980.921875,800.1666666666666,3980.921875,810.0833333333334C3980.921875,820,3980.921875,831.5,3962.755399372587,843C3944.588923745174,854.5,3908.2559724903476,866,3890.0894968629345,871.75L3871.9230212355214,877.5" class="transition note-edge"></path><path d="M1912.2578125,349.5L1912.2578125,353.6666666666667C1912.2578125,357.8333333333333,1912.2578125,366.1666666666667,1912.2578125,376.0833333333333C1912.2578125,386,1912.2578125,397.5,1912.2578125,409C1912.2578125,420.5,1912.2578125,432,1906.8025342236767,445.0416666666667C1901.3472559473537,458.0833333333333,1890.4366993947071,472.6666666666667,1884.9814211183839,479.9583333333333L1879.5261428420608,487.25" class="transition note-edge"></path></g><g class="edgeLabels"><g class="edgeLabel"><g class="label" transform="translate(0, 0)"><rect rx="0" ry="0" width="0" height="0" style="fill:#e8e8e8;"></rect><text style=""></text></g></g><g class="edgeLabel"><g class="label" transform="translate(0, 0)"><rect rx="0" ry="0" width="0" height="0" style="fill:#e8e8e8;"></rect><text style=""></text></g></g><g class="edgeLabel" transform="translate(602.21484375, 127.25)"><g class="label" transform="translate(-60.0234375, -9.5)"><rect rx="0" ry="0" width="120.046875" height="19" style="fill:#e8e8e8;"></rect><text style=""><tspan xml:space="preserve" dy="1em" x="0" class="row">ClientEventOpen</tspan></text></g></g><g class="edgeLabel" transform="translate(488.4453125, 192)"><g class="label" transform="translate(-89.9453125, -9.5)"><rect rx="0" ry="0" width="179.890625" height="19" style="fill:#e8e8e8;"></rect><text style=""><tspan xml:space="preserve" dy="1em" x="0" class="row">ClientEventDealProposed</tspan></text></g></g><g class="edgeLabel" transform="translate(702.23828125, 409)"><g class="label" transform="translate(-89.546875, -9.5)"><rect rx="0" ry="0" width="179.09375" height="19" style="fill:#e8e8e8;"></rect><text style=""><tspan xml:space="preserve" dy="1em" x="0" class="row">ClientEventDealRejected</tspan></text></g></g><g class="edgeLabel" transform="translate(925.27734375, 409)"><g class="label" transform="translate(-91.5390625, -9.5)"><rect rx="0" ry="0" width="183.078125" height="19" style="fill:#e8e8e8;"></rect><text style=""><tspan xml:space="preserve" dy="1em" x="0" class="row">ClientEventDealNotFound</tspan></text></g></g><g class="edgeLabel" transform="translate(1801.53125, 409)"><g class="label" transform="translate(-90.7265625, -9.5)"><rect rx="0" ry="0" width="181.453125" height="19" style="fill:#e8e8e8;"></rect><text style=""><tspan xml:space="preserve" dy="1em" x="0" class="row">ClientEventDealAccepted</tspan></text></g></g><g class="edgeLabel" transform="translate(990.08203125, 1191.75)"><g class="label" transform="translate(-128.1484375, -9.5)"><rect rx="0" ry="0" width="256.296875" height="19" style="fill:#e8e8e8;"></rect><text style=""><tspan xml:space="preserve" dy="1em" x="0" class="row">ClientEventPaymentChannelErrored</tspan></text></g></g><g class="edgeLabel" transform="translate(1138.23046875, 1127)"><g class="label" transform="translate(-128.1484375, -9.5)"><rect rx="0" ry="0" width="256.296875" height="19" style="fill:#e8e8e8;"></rect><text style=""><tspan xml:space="preserve" dy="1em" x="0" class="row">ClientEventPaymentChannelErrored</tspan></text></g></g><g class="edgeLabel" transform="translate(1246.4765625, 626)"><g class="label" transform="translate(-155.9453125, -9.5)"><rect rx="0" ry="0" width="311.890625" height="19" style="fill:#e8e8e8;"></rect><text style=""><tspan xml:space="preserve" dy="1em" x="0" class="row">ClientEventPaymentChannelCreateInitiated</tspan></text></g></g><g class="edgeLabel" transform="translate(2392.06640625, 626)"><g class="label" transform="translate(-146.359375, -9.5)"><rect rx="0" ry="0" width="292.71875" height="19" style="fill:#e8e8e8;"></rect><text style=""><tspan xml:space="preserve" dy="1em" x="0" class="row">ClientEventPaymentChannelAddingFunds</tspan></text></g></g><g class="edgeLabel" transform="translate(3571.78125, 843)"><g class="label" transform="translate(-123.046875, -9.5)"><rect rx="0" ry="0" width="246.09375" height="19" style="fill:#e8e8e8;"></rect><text style=""><tspan xml:space="preserve" dy="1em" x="0" class="row">ClientEventPaymentChannelReady</tspan></text></g></g><g class="edgeLabel" transform="translate(3837.875, 843)"><g class="label" transform="translate(-123.046875, -9.5)"><rect rx="0" ry="0" width="246.09375" height="19" style="fill:#e8e8e8;"></rect><text style=""><tspan xml:space="preserve" dy="1em" x="0" class="row">ClientEventPaymentChannelReady</tspan></text></g></g><g class="edgeLabel" transform="translate(1332.8984375, 1191.75)"><g class="label" transform="translate(-114.5859375, -9.5)"><rect rx="0" ry="0" width="229.171875" height="19" style="fill:#e8e8e8;"></rect><text style=""><tspan xml:space="preserve" dy="1em" x="0" class="row">ClientEventAllocateLaneErrored</tspan></text></g></g><g class="edgeLabel" transform="translate(2180.3828125, 1191.75)"><g class="label" transform="translate(-114.5859375, -9.5)"><rect rx="0" ry="0" width="229.171875" height="19" style="fill:#e8e8e8;"></rect><text style=""><tspan xml:space="preserve" dy="1em" x="0" class="row">ClientEventAllocateLaneErrored</tspan></text></g></g><g class="edgeLabel" transform="translate(2477.390625, 1191.75)"><g class="label" transform="translate(-162.421875, -9.5)"><rect rx="0" ry="0" width="324.84375" height="19" style="fill:#e8e8e8;"></rect><text style=""><tspan xml:space="preserve" dy="1em" x="0" class="row">ClientEventPaymentChannelAddFundsErrored</tspan></text></g></g><g class="edgeLabel" transform="translate(3776.3515625, 997.5)"><g class="label" transform="translate(-87.46875, -9.5)"><rect rx="0" ry="0" width="174.9375" height="19" style="fill:#e8e8e8;"></rect><text style=""><tspan xml:space="preserve" dy="1em" x="0" class="row">ClientEventUnpauseDeal</tspan></text></g></g><g class="edgeLabel" transform="translate(3394.890625, 1256.5)"><g class="label" transform="translate(-124.703125, -9.5)"><rect rx="0" ry="0" width="249.40625" height="19" style="fill:#e8e8e8;"></rect><text style=""><tspan xml:space="preserve" dy="1em" x="0" class="row">ClientEventLastPaymentRequested</tspan></text></g></g><g class="edgeLabel" transform="translate(4160.9140625, 1191.75)"><g class="label" transform="translate(-124.703125, -9.5)"><rect rx="0" ry="0" width="249.40625" height="19" style="fill:#e8e8e8;"></rect><text style=""><tspan xml:space="preserve" dy="1em" x="0" class="row">ClientEventLastPaymentRequested</tspan></text></g></g><g class="edgeLabel" transform="translate(4133.046875, 1321.25)"><g class="label" transform="translate(-124.703125, -9.5)"><rect rx="0" ry="0" width="249.40625" height="19" style="fill:#e8e8e8;"></rect><text style=""><tspan xml:space="preserve" dy="1em" x="0" class="row">ClientEventLastPaymentRequested</tspan></text></g></g><g class="edgeLabel" transform="translate(2979.0078125, 1386)"><g class="label" transform="translate(-124.703125, -9.5)"><rect rx="0" ry="0" width="249.40625" height="19" style="fill:#e8e8e8;"></rect><text style=""><tspan xml:space="preserve" dy="1em" x="0" class="row">ClientEventLastPaymentRequested</tspan></text></g></g><g class="edgeLabel" transform="translate(3693.734375, 1191.75)"><g class="label" transform="translate(-110.0390625, -9.5)"><rect rx="0" ry="0" width="220.078125" height="19" style="fill:#e8e8e8;"></rect><text style=""><tspan xml:space="preserve" dy="1em" x="0" class="row">ClientEventPaymentRequested</tspan></text></g></g><g class="edgeLabel" transform="translate(3394.890625, 1127)"><g class="label" transform="translate(-110.0390625, -9.5)"><rect rx="0" ry="0" width="220.078125" height="19" style="fill:#e8e8e8;"></rect><text style=""><tspan xml:space="preserve" dy="1em" x="0" class="row">ClientEventPaymentRequested</tspan></text></g></g><g class="edgeLabel" transform="translate(2979.0078125, 1191.75)"><g class="label" transform="translate(-105.65625, -9.5)"><rect rx="0" ry="0" width="211.3125" height="19" style="fill:#e8e8e8;"></rect><text style=""><tspan xml:space="preserve" dy="1em" x="0" class="row">ClientEventAllBlocksReceived</tspan></text></g></g><g class="edgeLabel" transform="translate(3372.83984375, 1386)"><g class="label" transform="translate(-105.65625, -9.5)"><rect rx="0" ry="0" width="211.3125" height="19" style="fill:#e8e8e8;"></rect><text style=""><tspan xml:space="preserve" dy="1em" x="0" class="row">ClientEventAllBlocksReceived</tspan></text></g></g><g class="edgeLabel" transform="translate(3221.8515625, 1321.25)"><g class="label" transform="translate(-105.65625, -9.5)"><rect rx="0" ry="0" width="211.3125" height="19" style="fill:#e8e8e8;"></rect><text style=""><tspan xml:space="preserve" dy="1em" x="0" class="row">ClientEventAllBlocksReceived</tspan></text></g></g><g class="edgeLabel" transform="translate(3919.9921875, 1191.75)"><g class="label" transform="translate(-96.21875, -9.5)"><rect rx="0" ry="0" width="192.4375" height="19" style="fill:#e8e8e8;"></rect><text style=""><tspan xml:space="preserve" dy="1em" x="0" class="row">ClientEventBlocksReceived</tspan></text></g></g><g class="edgeLabel" transform="translate(3994.8515625, 1062.25)"><g class="label" transform="translate(-96.21875, -9.5)"><rect rx="0" ry="0" width="192.4375" height="19" style="fill:#e8e8e8;"></rect><text style=""><tspan xml:space="preserve" dy="1em" x="0" class="row">ClientEventBlocksReceived</tspan></text></g></g><g class="edgeLabel" transform="translate(4373.96875, 1321.25)"><g class="label" transform="translate(-96.21875, -9.5)"><rect rx="0" ry="0" width="192.4375" height="19" style="fill:#e8e8e8;"></rect><text style=""><tspan xml:space="preserve" dy="1em" x="0" class="row">ClientEventBlocksReceived</tspan></text></g></g><g class="edgeLabel" transform="translate(4260.03125, 1256.5)"><g class="label" transform="translate(-79.1171875, -9.5)"><rect rx="0" ry="0" width="158.234375" height="19" style="fill:#e8e8e8;"></rect><text style=""><tspan xml:space="preserve" dy="1em" x="0" class="row">ClientEventSendFunds</tspan></text></g></g><g class="edgeLabel" transform="translate(4160.9140625, 1386)"><g class="label" transform="translate(-79.1171875, -9.5)"><rect rx="0" ry="0" width="158.234375" height="19" style="fill:#e8e8e8;"></rect><text style=""><tspan xml:space="preserve" dy="1em" x="0" class="row">ClientEventSendFunds</tspan></text></g></g><g class="edgeLabel" transform="translate(2594.234375, 1515.5)"><g class="label" transform="translate(-96.84375, -9.5)"><rect rx="0" ry="0" width="193.6875" height="19" style="fill:#e8e8e8;"></rect><text style=""><tspan xml:space="preserve" dy="1em" x="0" class="row">ClientEventFundsExpended</tspan></text></g></g><g class="edgeLabel" transform="translate(2711.078125, 1386)"><g class="label" transform="translate(-123.2265625, -9.5)"><rect rx="0" ry="0" width="246.453125" height="19" style="fill:#e8e8e8;"></rect><text style=""><tspan xml:space="preserve" dy="1em" x="0" class="row">ClientEventBadPaymentRequested</tspan></text></g></g><g class="edgeLabel" transform="translate(3507.69921875, 1515.5)"><g class="label" transform="translate(-123.2265625, -9.5)"><rect rx="0" ry="0" width="246.453125" height="19" style="fill:#e8e8e8;"></rect><text style=""><tspan xml:space="preserve" dy="1em" x="0" class="row">ClientEventBadPaymentRequested</tspan></text></g></g><g class="edgeLabel" transform="translate(4601.40625, 1450.75)"><g class="label" transform="translate(-116.46875, -9.5)"><rect rx="0" ry="0" width="232.9375" height="19" style="fill:#e8e8e8;"></rect><text style=""><tspan xml:space="preserve" dy="1em" x="0" class="row">ClientEventCreateVoucherFailed</tspan></text></g></g><g class="edgeLabel" transform="translate(4737.875, 1515.5)"><g class="label" transform="translate(-116.46875, -9.5)"><rect rx="0" ry="0" width="232.9375" height="19" style="fill:#e8e8e8;"></rect><text style=""><tspan xml:space="preserve" dy="1em" x="0" class="row">ClientEventCreateVoucherFailed</tspan></text></g></g><g class="edgeLabel" transform="translate(4668.375, 1191.75)"><g class="label" transform="translate(-88.3515625, -9.5)"><rect rx="0" ry="0" width="176.703125" height="19" style="fill:#e8e8e8;"></rect><text style=""><tspan xml:space="preserve" dy="1em" x="0" class="row">ClientEventPaymentSent</tspan></text></g></g><g class="edgeLabel" transform="translate(4962.6953125, 1515.5)"><g class="label" transform="translate(-88.3515625, -9.5)"><rect rx="0" ry="0" width="176.703125" height="19" style="fill:#e8e8e8;"></rect><text style=""><tspan xml:space="preserve" dy="1em" x="0" class="row">ClientEventPaymentSent</tspan></text></g></g><g class="edgeLabel" transform="translate(4962.6953125, 1645)"><g class="label" transform="translate(-75.875, -9.5)"><rect rx="0" ry="0" width="151.75" height="19" style="fill:#e8e8e8;"></rect><text style=""><tspan xml:space="preserve" dy="1em" x="0" class="row">ClientEventComplete</tspan></text></g></g><g class="edgeLabel" transform="translate(2691.21875, 1645)"><g class="label" transform="translate(-54.671875, -9.5)"><rect rx="0" ry="0" width="109.34375" height="19" style="fill:#e8e8e8;"></rect><text style=""><tspan xml:space="preserve" dy="1em" x="0" class="row">&lt;invalid Value&gt;</tspan></text></g></g><g class="edgeLabel"><g class="label" transform="translate(0, 0)"><rect rx="0" ry="0" width="0" height="0" style="fill:#e8e8e8;"></rect><text style=""></text></g></g><g class="edgeLabel"><g class="label" transform="translate(0, 0)"><rect rx="0" ry="0" width="0" height="0" style="fill:#e8e8e8;"></rect><text style=""></text></g></g><g class="edgeLabel"><g class="label" transform="translate(0, 0)"><rect rx="0" ry="0" width="0" height="0" style="fill:#e8e8e8;"></rect><text style=""></text></g></g><g class="edgeLabel"><g class="label" transform="translate(0, 0)"><rect rx="0" ry="0" width="0" height="0" style="fill:#e8e8e8;"></rect><text style=""></text></g></g></g><g class="nodes"><g class="node statediagram-state" id="0" transform="translate(383.26953125, 127.25)"><rect class="outer title-state" x="-102.59375" y="-30.25" width="205.1875" height="60.5"></rect><line class="divider" x1="-102.59375" x2="102.59375" y1="-3.75" y2="-3.75"></line><g class="label" transform="translate(-95.09375, -27.25)"><text style=""><tspan xml:space="preserve" dy="1em" x="0" class="title-row">DealStatusNew</tspan></text><text style="" transform="translate( 0, 26.5)"><tspan xml:space="preserve" dy="1em" x="0" class="title-row">On entry runs ProposeDeal</tspan></text></g></g><g class="node statediagram-state" id="3" transform="translate(878.73046875, 300.5)"><rect class="outer title-state" x="-114.9453125" y="-17" width="229.890625" height="34"></rect><line class="divider" x1="-114.9453125" x2="114.9453125" y1="9.5" y2="9.5"></line><g class="label" transform="translate(-107.4453125, -14)"><text style=""><tspan xml:space="preserve" dy="1em" x="0" class="title-row">DealStatusWaitForAcceptance</tspan></text><text style="" transform="translate( 0, 26.5)"><tspan xml:space="preserve" dy="1em" x="0" class="title-row"></tspan></text></g></g><g class="node statediagram-state" id="4" transform="translate(1334.44921875, 734.5)"><rect class="outer title-state" x="-170.59375" y="-30.25" width="341.1875" height="60.5"></rect><line class="divider" x1="-170.59375" x2="170.59375" y1="-3.75" y2="-3.75"></line><g class="label" transform="translate(-163.09375, -27.25)"><text style=""><tspan xml:space="preserve" dy="1em" x="0" class="title-row">DealStatusPaymentChannelCreating</tspan></text><text style="" transform="translate( 0, 26.5)"><tspan xml:space="preserve" dy="1em" x="0" class="title-row">On entry runs WaitForPaymentChannelCreate</tspan></text></g></g><g class="node statediagram-state" id="5" transform="translate(2487.390625, 734.5)"><rect class="outer title-state" x="-180.8671875" y="-30.25" width="361.734375" height="60.5"></rect><line class="divider" x1="-180.8671875" x2="180.8671875" y1="-3.75" y2="-3.75"></line><g class="label" transform="translate(-173.3671875, -27.25)"><text style=""><tspan xml:space="preserve" dy="1em" x="0" class="title-row">DealStatusPaymentChannelAddingFunds</tspan></text><text style="" transform="translate( 0, 26.5)"><tspan xml:space="preserve" dy="1em" x="0" class="title-row">On entry runs WaitForPaymentChannelAddFunds</tspan></text></g></g><g class="node statediagram-state" id="6" transform="translate(3776.3515625, 907.75)"><rect class="outer title-state" x="-126.9453125" y="-30.25" width="253.890625" height="60.5"></rect><line class="divider" x1="-126.9453125" x2="126.9453125" y1="-3.75" y2="-3.75"></line><g class="label" transform="translate(-119.4453125, -27.25)"><text style=""><tspan xml:space="preserve" dy="1em" x="0" class="title-row">DealStatusPaymentChannelReady</tspan></text><text style="" transform="translate( 0, 26.5)"><tspan xml:space="preserve" dy="1em" x="0" class="title-row">On entry runs UnpauseDeal</tspan></text></g></g><g class="node statediagram-state" id="8" transform="translate(1856.89453125, 517.5)"><rect class="outer title-state" x="-156.2421875" y="-30.25" width="312.484375" height="60.5"></rect><line class="divider" x1="-156.2421875" x2="156.2421875" y1="-3.75" y2="-3.75"></line><g class="label" transform="translate(-148.7421875, -27.25)"><text style=""><tspan xml:space="preserve" dy="1em" x="0" class="title-row">DealStatusAccepted</tspan></text><text style="" transform="translate( 0, 26.5)"><tspan xml:space="preserve" dy="1em" x="0" class="title-row">On entry runs SetupPaymentChannelStart</tspan></text></g></g><g class="node statediagram-state" id="9" transform="translate(2691.21875, 1580.25)"><rect class="outer title-state" x="-98.421875" y="-30.25" width="196.84375" height="60.5"></rect><line class="divider" x1="-98.421875" x2="98.421875" y1="-3.75" y2="-3.75"></line><g class="label" transform="translate(-90.921875, -27.25)"><text style=""><tspan xml:space="preserve" dy="1em" x="0" class="title-row">DealStatusFailed</tspan></text><text style="" transform="translate( 0, 26.5)"><tspan xml:space="preserve" dy="1em" x="0" class="title-row">On entry runs CancelDeal</tspan></text></g></g><g class="node statediagram-state" id="10" transform="translate(702.23828125, 517.5)"><rect class="outer title-state" x="-77.609375" y="-17" width="155.21875" height="34"></rect><line class="divider" x1="-77.609375" x2="77.609375" y1="9.5" y2="9.5"></line><g class="label" transform="translate(-70.109375, -14)"><text style=""><tspan xml:space="preserve" dy="1em" x="0" class="title-row">DealStatusRejected</tspan></text><text style="" transform="translate( 0, 26.5)"><tspan xml:space="preserve" dy="1em" x="0" class="title-row"></tspan></text></g></g><g class="node statediagram-state" id="11" transform="translate(3394.890625, 1191.75)"><rect class="outer title-state" x="-153.8046875" y="-30.25" width="307.609375" height="60.5"></rect><line class="divider" x1="-153.8046875" x2="153.8046875" y1="-3.75" y2="-3.75"></line><g class="label" transform="translate(-146.3046875, -27.25)"><text style=""><tspan xml:space="preserve" dy="1em" x="0" class="title-row">DealStatusFundsNeeded</tspan></text><text style="" transform="translate( 0, 26.5)"><tspan xml:space="preserve" dy="1em" x="0" class="title-row">On entry runs ProcessPaymentRequested</tspan></text></g></g><g class="node statediagram-state" id="12" transform="translate(4601.40625, 1321.25)"><rect class="outer title-state" x="-96.21875" y="-30.25" width="192.4375" height="60.5"></rect><line class="divider" x1="-96.21875" x2="96.21875" y1="-3.75" y2="-3.75"></line><g class="label" transform="translate(-88.71875, -27.25)"><text style=""><tspan xml:space="preserve" dy="1em" x="0" class="title-row">DealStatusSendFunds</tspan></text><text style="" transform="translate( 0, 26.5)"><tspan xml:space="preserve" dy="1em" x="0" class="title-row">On entry runs SendFunds</tspan></text></g></g><g class="node statediagram-state" id="13" transform="translate(3507.69921875, 1450.75)"><rect class="outer title-state" x="-128.8359375" y="-30.25" width="257.671875" height="60.5"></rect><line class="divider" x1="-128.8359375" x2="128.8359375" y1="-3.75" y2="-3.75"></line><g class="label" transform="translate(-121.3359375, -27.25)"><text style=""><tspan xml:space="preserve" dy="1em" x="0" class="title-row">DealStatusSendFundsLastPayment</tspan></text><text style="" transform="translate( 0, 26.5)"><tspan xml:space="preserve" dy="1em" x="0" class="title-row">On entry runs SendFunds</tspan></text></g></g><g class="node statediagram-state" id="14" transform="translate(3776.3515625, 1062.25)"><rect class="outer title-state" x="-87.28125" y="-30.25" width="174.5625" height="60.5"></rect><line class="divider" x1="-87.28125" x2="87.28125" y1="-3.75" y2="-3.75"></line><g class="label" transform="translate(-79.78125, -27.25)"><text style=""><tspan xml:space="preserve" dy="1em" x="0" class="title-row">DealStatusOngoing</tspan></text><text style="" transform="translate( 0, 26.5)"><tspan xml:space="preserve" dy="1em" x="0" class="title-row">On entry runs Ongoing</tspan></text></g></g><g class="node statediagram-state" id="15" transform="translate(3817.98828125, 1321.25)"><rect class="outer title-state" x="-153.8046875" y="-30.25" width="307.609375" height="60.5"></rect><line class="divider" x1="-153.8046875" x2="153.8046875" y1="-3.75" y2="-3.75"></line><g class="label" transform="translate(-146.3046875, -27.25)"><text style=""><tspan xml:space="preserve" dy="1em" x="0" class="title-row">DealStatusFundsNeededLastPayment</tspan></text><text style="" transform="translate( 0, 26.5)"><tspan xml:space="preserve" dy="1em" x="0" class="title-row">On entry runs ProcessPaymentRequested</tspan></text></g></g><g class="node statediagram-state" id="16" transform="translate(4962.6953125, 1696.5)"><rect class="outer title-state" x="-84.2265625" y="-17" width="168.453125" height="34"></rect><line class="divider" x1="-84.2265625" x2="84.2265625" y1="9.5" y2="9.5"></line><g class="label" transform="translate(-76.7265625, -14)"><text style=""><tspan xml:space="preserve" dy="1em" x="0" class="title-row">DealStatusCompleted</tspan></text><text style="" transform="translate( 0, 26.5)"><tspan xml:space="preserve" dy="1em" x="0" class="title-row"></tspan></text></g></g><g class="node statediagram-state" id="17" transform="translate(925.27734375, 517.5)"><rect class="outer title-state" x="-95.4296875" y="-17" width="190.859375" height="34"></rect><line class="divider" x1="-95.4296875" x2="95.4296875" y1="9.5" y2="9.5"></line><g class="label" transform="translate(-87.9296875, -14)"><text style=""><tspan xml:space="preserve" dy="1em" x="0" class="title-row">DealStatusDealNotFound</tspan></text><text style="" transform="translate( 0, 26.5)"><tspan xml:space="preserve" dy="1em" x="0" class="title-row"></tspan></text></g></g><g class="node statediagram-state" id="19" transform="translate(2691.21875, 1696.5)"><rect class="outer title-state" x="-72.0625" y="-17" width="144.125" height="34"></rect><line class="divider" x1="-72.0625" x2="72.0625" y1="9.5" y2="9.5"></line><g class="label" transform="translate(-64.5625, -14)"><text style=""><tspan xml:space="preserve" dy="1em" x="0" class="title-row">DealStatusErrored</tspan></text><text style="" transform="translate( 0, 26.5)"><tspan xml:space="preserve" dy="1em" x="0" class="title-row"></tspan></text></g></g><g class="node statediagram-state" id="20" transform="translate(2979.0078125, 1321.25)"><rect class="outer title-state" x="-102.1875" y="-17" width="204.375" height="34"></rect><line class="divider" x1="-102.1875" x2="102.1875" y1="9.5" y2="9.5"></line><g class="label" transform="translate(-94.6875, -14)"><text style=""><tspan xml:space="preserve" dy="1em" x="0" class="title-row">DealStatusBlocksComplete</tspan></text><text style="" transform="translate( 0, 26.5)"><tspan xml:space="preserve" dy="1em" x="0" class="title-row"></tspan></text></g></g><g class="node statediagram-state" id="21" transform="translate(4962.6953125, 1580.25)"><rect class="outer title-state" x="-79.5" y="-17" width="159" height="34"></rect><line class="divider" x1="-79.5" x2="79.5" y1="9.5" y2="9.5"></line><g class="label" transform="translate(-72, -14)"><text style=""><tspan xml:space="preserve" dy="1em" x="0" class="title-row">DealStatusFinalizing</tspan></text><text style="" transform="translate( 0, 26.5)"><tspan xml:space="preserve" dy="1em" x="0" class="title-row"></tspan></text></g></g><g class="node default" id="root_start" transform="translate(383.26953125, 15)"><circle class="state-start" r="7" width="14" height="14"></circle></g><g class="node statediagram-note" id="0----note" transform="translate(328.296875, 300.5)"><rect x="-285.296875" y="-49" width="570.59375" height="98"></rect><g class="label" transform="translate(-277.796875, -41.5)"><text style=""><tspan xml:space="preserve" dy="1em" x="0" class="row">The following events are not shown cause they can trigger from any state.</tspan><tspan xml:space="preserve" dy="1em" x="0" class="row"></tspan><tspan xml:space="preserve" dy="1em" x="0" class="row">ClientEventWriteDealProposalErrored - transitions state to DealStatusErrored</tspan><tspan xml:space="preserve" dy="1em" x="0" class="row">ClientEventUnknownResponseReceived - transitions state to DealStatusFailed</tspan><tspan xml:space="preserve" dy="1em" x="0" class="row">ClientEventDataTransferError - transitions state to DealStatusErrored</tspan><tspan xml:space="preserve" dy="1em" x="0" class="row">ClientEventWriteDealPaymentErrored - transitions state to DealStatusErrored</tspan></text></g></g><g class="node statediagram-note" id="4----note" transform="translate(1422.421875, 517.5)"><rect x="-173.125" y="-49" width="346.25" height="98"></rect><g class="label" transform="translate(-165.625, -41.5)"><text style=""><tspan xml:space="preserve" dy="1em" x="0" class="row">The following events only record in this state.</tspan><tspan xml:space="preserve" dy="1em" x="0" class="row"></tspan><tspan xml:space="preserve" dy="1em" x="0" class="row">ClientEventLastPaymentRequested</tspan><tspan xml:space="preserve" dy="1em" x="0" class="row">ClientEventPaymentRequested</tspan><tspan xml:space="preserve" dy="1em" x="0" class="row">ClientEventAllBlocksReceived</tspan><tspan xml:space="preserve" dy="1em" x="0" class="row">ClientEventBlocksReceived</tspan></text></g></g><g class="node statediagram-note" id="5----note" transform="translate(2570.5703125, 517.5)"><rect x="-173.125" y="-49" width="346.25" height="98"></rect><g class="label" transform="translate(-165.625, -41.5)"><text style=""><tspan xml:space="preserve" dy="1em" x="0" class="row">The following events only record in this state.</tspan><tspan xml:space="preserve" dy="1em" x="0" class="row"></tspan><tspan xml:space="preserve" dy="1em" x="0" class="row">ClientEventLastPaymentRequested</tspan><tspan xml:space="preserve" dy="1em" x="0" class="row">ClientEventPaymentRequested</tspan><tspan xml:space="preserve" dy="1em" x="0" class="row">ClientEventAllBlocksReceived</tspan><tspan xml:space="preserve" dy="1em" x="0" class="row">ClientEventBlocksReceived</tspan></text></g></g><g class="node statediagram-note" id="6----note" transform="translate(3980.921875, 734.5)"><rect x="-173.125" y="-49" width="346.25" height="98"></rect><g class="label" transform="translate(-165.625, -41.5)"><text style=""><tspan xml:space="preserve" dy="1em" x="0" class="row">The following events only record in this state.</tspan><tspan xml:space="preserve" dy="1em" x="0" class="row"></tspan><tspan xml:space="preserve" dy="1em" x="0" class="row">ClientEventLastPaymentRequested</tspan><tspan xml:space="preserve" dy="1em" x="0" class="row">ClientEventPaymentRequested</tspan><tspan xml:space="preserve" dy="1em" x="0" class="row">ClientEventAllBlocksReceived</tspan><tspan xml:space="preserve" dy="1em" x="0" class="row">ClientEventBlocksReceived</tspan></text></g></g><g class="node statediagram-note" id="8----note" transform="translate(1912.2578125, 300.5)"><rect x="-173.125" y="-49" width="346.25" height="98"></rect><g class="label" transform="translate(-165.625, -41.5)"><text style=""><tspan xml:space="preserve" dy="1em" x="0" class="row">The following events only record in this state.</tspan><tspan xml:space="preserve" dy="1em" x="0" class="row"></tspan><tspan xml:space="preserve" dy="1em" x="0" class="row">ClientEventLastPaymentRequested</tspan><tspan xml:space="preserve" dy="1em" x="0" class="row">ClientEventPaymentRequested</tspan><tspan xml:space="preserve" dy="1em" x="0" class="row">ClientEventAllBlocksReceived</tspan><tspan xml:space="preserve" dy="1em" x="0" class="row">ClientEventBlocksReceived</tspan></text></g></g></g></g></g></svg>