<svg id="mermaid-1592413503117" width="1970.4453125" xmlns="http://www.w3.org/2000/svg" class="statediagram" height="1123.5" viewBox="0 0 1970.4453125 1123.5"><style>#mermaid-1592413503117 .label{font-family:'trebuchet ms', verdana, arial;font-family:var(--mermaid-font-family);color:#333}#mermaid-1592413503117 .label text{fill:#333}#mermaid-1592413503117 .node rect,#mermaid-1592413503117 .node circle,#mermaid-1592413503117 .node ellipse,#mermaid-1592413503117 .node polygon,#mermaid-1592413503117 .node path{fill:#ECECFF;stroke:#9370db;stroke-width:1px}#mermaid-1592413503117 .node .label{text-align:center}#mermaid-1592413503117 .node.clickable{cursor:pointer}#mermaid-1592413503117 .arrowheadPath{fill:#333}#mermaid-1592413503117 .edgePath .path{stroke:#333;stroke-width:1.5px}#mermaid-1592413503117 .edgeLabel{background-color:#e8e8e8;text-align:center}#mermaid-1592413503117 .edgeLabel rect{opacity:0.5}#mermaid-1592413503117 .cluster rect{fill:#ffffde;stroke:#aa3;stroke-width:1px}#mermaid-1592413503117 .cluster text{fill:#333}#mermaid-1592413503117 div.mermaidTooltip{position:absolute;text-align:center;max-width:200px;padding:2px;font-family:'trebuchet ms', verdana, arial;font-family:var(--mermaid-font-family);font-size:12px;background:#ffffde;border:1px solid #aa3;border-radius:2px;pointer-events:none;z-index:100}#mermaid-1592413503117 .actor{stroke:#ccf;fill:#ECECFF}#mermaid-1592413503117 text.actor{fill:#000;stroke:none}#mermaid-1592413503117 .actor-line{stroke:grey}#mermaid-1592413503117 .messageLine0{stroke-width:1.5;stroke-dasharray:'2 2';stroke:#333}#mermaid-1592413503117 .messageLine1{stroke-width:1.5;stroke-dasharray:'2 2';stroke:#333}#mermaid-1592413503117 #arrowhead{fill:#333}#mermaid-1592413503117 .sequenceNumber{fill:#fff}#mermaid-1592413503117 #sequencenumber{fill:#333}#mermaid-1592413503117 #crosshead path{fill:#333 !important;stroke:#333 !important}#mermaid-1592413503117 .messageText{fill:#333;stroke:none}#mermaid-1592413503117 .labelBox{stroke:#ccf;fill:#ECECFF}#mermaid-1592413503117 .labelText{fill:#000;stroke:none}#mermaid-1592413503117 .loopText{fill:#000;stroke:none}#mermaid-1592413503117 .loopLine{stroke-width:2;stroke-dasharray:'2 2';stroke:#ccf}#mermaid-1592413503117 .note{stroke:#aa3;fill:#fff5ad}#mermaid-1592413503117 .noteText{fill:black;stroke:none;font-family:'trebuchet ms', verdana, arial;font-family:var(--mermaid-font-family);font-size:14px}#mermaid-1592413503117 .activation0{fill:#f4f4f4;stroke:#666}#mermaid-1592413503117 .activation1{fill:#f4f4f4;stroke:#666}#mermaid-1592413503117 .activation2{fill:#f4f4f4;stroke:#666}#mermaid-1592413503117 .mermaid-main-font{font-family:"trebuchet ms", verdana, arial;font-family:var(--mermaid-font-family)}#mermaid-1592413503117 .section{stroke:none;opacity:0.2}#mermaid-1592413503117 .section0{fill:rgba(102,102,255,0.49)}#mermaid-1592413503117 .section2{fill:#fff400}#mermaid-1592413503117 .section1,#mermaid-1592413503117 .section3{fill:#fff;opacity:0.2}#mermaid-1592413503117 .sectionTitle0{fill:#333}#mermaid-1592413503117 .sectionTitle1{fill:#333}#mermaid-1592413503117 .sectionTitle2{fill:#333}#mermaid-1592413503117 .sectionTitle3{fill:#333}#mermaid-1592413503117 .sectionTitle{text-anchor:start;font-size:11px;text-height:14px;font-family:'trebuchet ms', verdana, arial;font-family:var(--mermaid-font-family)}#mermaid-1592413503117 .grid .tick{stroke:#d3d3d3;opacity:0.8;shape-rendering:crispEdges}#mermaid-1592413503117 .grid .tick text{font-family:'trebuchet ms', verdana, arial;font-family:var(--mermaid-font-family)}#mermaid-1592413503117 .grid path{stroke-width:0}#mermaid-1592413503117 .today{fill:none;stroke:red;stroke-width:2px}#mermaid-1592413503117 .task{stroke-width:2}#mermaid-1592413503117 .taskText{text-anchor:middle;font-family:'trebuchet ms', verdana, arial;font-family:var(--mermaid-font-family)}#mermaid-1592413503117 .taskText:not([font-size]){font-size:11px}#mermaid-1592413503117 .taskTextOutsideRight{fill:#000;text-anchor:start;font-size:11px;font-family:'trebuchet ms', verdana, arial;font-family:var(--mermaid-font-family)}#mermaid-1592413503117 .taskTextOutsideLeft{fill:#000;text-anchor:end;font-size:11px}#mermaid-1592413503117 .task.clickable{cursor:pointer}#mermaid-1592413503117 .taskText.clickable{cursor:pointer;fill:#003163 !important;font-weight:bold}#mermaid-1592413503117 .taskTextOutsideLeft.clickable{cursor:pointer;fill:#003163 !important;font-weight:bold}#mermaid-1592413503117 .taskTextOutsideRight.clickable{cursor:pointer;fill:#003163 !important;font-weight:bold}#mermaid-1592413503117 .taskText0,#mermaid-1592413503117 .taskText1,#mermaid-1592413503117 .taskText2,#mermaid-1592413503117 .taskText3{fill:#fff}#mermaid-1592413503117 .task0,#mermaid-1592413503117 .task1,#mermaid-1592413503117 .task2,#mermaid-1592413503117 .task3{fill:#8a90dd;stroke:#534fbc}#mermaid-1592413503117 .taskTextOutside0,#mermaid-1592413503117 .taskTextOutside2{fill:#000}#mermaid-1592413503117 .taskTextOutside1,#mermaid-1592413503117 .taskTextOutside3{fill:#000}#mermaid-1592413503117 .active0,#mermaid-1592413503117 .active1,#mermaid-1592413503117 .active2,#mermaid-1592413503117 .active3{fill:#bfc7ff;stroke:#534fbc}#mermaid-1592413503117 .activeText0,#mermaid-1592413503117 .activeText1,#mermaid-1592413503117 .activeText2,#mermaid-1592413503117 .activeText3{fill:#000 !important}#mermaid-1592413503117 .done0,#mermaid-1592413503117 .done1,#mermaid-1592413503117 .done2,#mermaid-1592413503117 .done3{stroke:grey;fill:#d3d3d3;stroke-width:2}#mermaid-1592413503117 .doneText0,#mermaid-1592413503117 .doneText1,#mermaid-1592413503117 .doneText2,#mermaid-1592413503117 .doneText3{fill:#000 !important}#mermaid-1592413503117 .crit0,#mermaid-1592413503117 .crit1,#mermaid-1592413503117 .crit2,#mermaid-1592413503117 .crit3{stroke:#f88;fill:red;stroke-width:2}#mermaid-1592413503117 .activeCrit0,#mermaid-1592413503117 .activeCrit1,#mermaid-1592413503117 .activeCrit2,#mermaid-1592413503117 .activeCrit3{stroke:#f88;fill:#bfc7ff;stroke-width:2}#mermaid-1592413503117 .doneCrit0,#mermaid-1592413503117 .doneCrit1,#mermaid-1592413503117 .doneCrit2,#mermaid-1592413503117 .doneCrit3{stroke:#f88;fill:#d3d3d3;stroke-width:2;cursor:pointer;shape-rendering:crispEdges}#mermaid-1592413503117 .milestone{transform:rotate(45deg) scale(0.8, 0.8)}#mermaid-1592413503117 .milestoneText{font-style:italic}#mermaid-1592413503117 .doneCritText0,#mermaid-1592413503117 .doneCritText1,#mermaid-1592413503117 .doneCritText2,#mermaid-1592413503117 .doneCritText3{fill:#000 !important}#mermaid-1592413503117 .activeCritText0,#mermaid-1592413503117 .activeCritText1,#mermaid-1592413503117 .activeCritText2,#mermaid-1592413503117 .activeCritText3{fill:#000 !important}#mermaid-1592413503117 .titleText{text-anchor:middle;font-size:18px;fill:#000;font-family:'trebuchet ms', verdana, arial;font-family:var(--mermaid-font-family)}#mermaid-1592413503117 g.classGroup text{fill:#9370db;stroke:none;font-family:'trebuchet ms', verdana, arial;font-family:var(--mermaid-font-family);font-size:10px}#mermaid-1592413503117 g.classGroup text .title{font-weight:bolder}#mermaid-1592413503117 g.clickable{cursor:pointer}#mermaid-1592413503117 g.classGroup rect{fill:#ECECFF;stroke:#9370db}#mermaid-1592413503117 g.classGroup line{stroke:#9370db;stroke-width:1}#mermaid-1592413503117 .classLabel .box{stroke:none;stroke-width:0;fill:#ECECFF;opacity:0.5}#mermaid-1592413503117 .classLabel .label{fill:#9370db;font-size:10px}#mermaid-1592413503117 .relation{stroke:#9370db;stroke-width:1;fill:none}#mermaid-1592413503117 .dashed-line{stroke-dasharray:3}#mermaid-1592413503117 #compositionStart{fill:#9370db;stroke:#9370db;stroke-width:1}#mermaid-1592413503117 #compositionEnd{fill:#9370db;stroke:#9370db;stroke-width:1}#mermaid-1592413503117 #aggregationStart{fill:#ECECFF;stroke:#9370db;stroke-width:1}#mermaid-1592413503117 #aggregationEnd{fill:#ECECFF;stroke:#9370db;stroke-width:1}#mermaid-1592413503117 #dependencyStart{fill:#9370db;stroke:#9370db;stroke-width:1}#mermaid-1592413503117 #dependencyEnd{fill:#9370db;stroke:#9370db;stroke-width:1}#mermaid-1592413503117 #extensionStart{fill:#9370db;stroke:#9370db;stroke-width:1}#mermaid-1592413503117 #extensionEnd{fill:#9370db;stroke:#9370db;stroke-width:1}#mermaid-1592413503117 .commit-id,#mermaid-1592413503117 .commit-msg,#mermaid-1592413503117 .branch-label{fill:lightgrey;color:lightgrey;font-family:'trebuchet ms', verdana, arial;font-family:var(--mermaid-font-family)}#mermaid-1592413503117 .pieTitleText{text-anchor:middle;font-size:25px;fill:#000;font-family:'trebuchet ms', verdana, arial;font-family:var(--mermaid-font-family)}#mermaid-1592413503117 .slice{font-family:'trebuchet ms', verdana, arial;font-family:var(--mermaid-font-family)}#mermaid-1592413503117 g.stateGroup text{fill:#9370db;stroke:none;font-size:10px;font-family:'trebuchet ms', verdana, arial;font-family:var(--mermaid-font-family)}#mermaid-1592413503117 g.stateGroup text{fill:#9370db;stroke:none;font-size:10px}#mermaid-1592413503117 g.stateGroup .state-title{font-weight:bolder;fill:#000}#mermaid-1592413503117 g.stateGroup rect{fill:#ECECFF;stroke:#9370db}#mermaid-1592413503117 g.stateGroup line{stroke:#9370db;stroke-width:1}#mermaid-1592413503117 .transition{stroke:#9370db;stroke-width:1;fill:none}#mermaid-1592413503117 .stateGroup .composit{fill:white;border-bottom:1px}#mermaid-1592413503117 .stateGroup .alt-composit{fill:#e0e0e0;border-bottom:1px}#mermaid-1592413503117 .state-note{stroke:#aa3;fill:#fff5ad}#mermaid-1592413503117 .state-note text{fill:black;stroke:none;font-size:10px}#mermaid-1592413503117 .stateLabel .box{stroke:none;stroke-width:0;fill:#ECECFF;opacity:0.5}#mermaid-1592413503117 .stateLabel text{fill:#000;font-size:10px;font-weight:bold;font-family:'trebuchet ms', verdana, arial;font-family:var(--mermaid-font-family)}#mermaid-1592413503117 .node circle.state-start{fill:black;stroke:black}#mermaid-1592413503117 .node circle.state-end{fill:black;stroke:white;stroke-width:1.5}#mermaid-1592413503117 #statediagram-barbEnd{fill:#9370db}#mermaid-1592413503117 .statediagram-cluster rect{fill:#ECECFF;stroke:#9370db;stroke-width:1px}#mermaid-1592413503117 .statediagram-cluster rect.outer{rx:5px;ry:5px}#mermaid-1592413503117 .statediagram-state .divider{stroke:#9370db}#mermaid-1592413503117 .statediagram-state .title-state{rx:5px;ry:5px}#mermaid-1592413503117 .statediagram-cluster.statediagram-cluster .inner{fill:white}#mermaid-1592413503117 .statediagram-cluster.statediagram-cluster-alt .inner{fill:#e0e0e0}#mermaid-1592413503117 .statediagram-cluster .inner{rx:0;ry:0}#mermaid-1592413503117 .statediagram-state rect.basic{rx:5px;ry:5px}#mermaid-1592413503117 .statediagram-state rect.divider{stroke-dasharray:10,10;fill:#efefef}#mermaid-1592413503117 .note-edge{stroke-dasharray:5}#mermaid-1592413503117 .statediagram-note rect{fill:#fff5ad;stroke:#aa3;stroke-width:1px;rx:0;ry:0}:root{--mermaid-font-family: '"trebuchet ms", verdana, arial';--mermaid-font-family: "Comic Sans MS", "Comic Sans", cursive}

:root { --mermaid-font-family: "trebuchet ms", verdana, arial;}</style><style>#mermaid-1592413503117 {
    color: rgb(0, 0, 0);
    font: 16px "trebuchet ms", verdana, arial;
  }</style><g><defs><marker id="statediagram-barbEnd" refX="19" refY="7" markerWidth="20" markerHeight="14" markerUnits="0" orient="auto"><path d="M 19,7 L9,13 L14,7 L9,1 Z"></path></marker></defs><g class="root"><g class="clusters"></g><g class="edgePaths"><path d="M293.3125,22L293.3125,26.166666666666668C293.3125,30.333333333333332,293.3125,38.666666666666664,293.3125,47C293.3125,55.333333333333336,293.3125,63.666666666666664,293.3125,67.83333333333333L293.3125,72" id="edge0" class="transition" marker-end="url(#statediagram-barbEnd)"></path><path d="M395.59375,84.1992707383774L407.1145833333333,82.16605894864783C418.6354166666667,80.13284715891827,441.6770833333333,76.06642357945913,456.078125,74.03321178972956C470.4791666666667,72,476.2395833333333,72,482,77.04166666666667C487.7604166666667,82.08333333333333,493.5208333333333,92.16666666666667,493.5208333333333,102.25C493.5208333333333,112.33333333333333,487.7604166666667,122.41666666666667,482,127.45833333333333C476.2395833333333,132.5,470.4791666666667,132.5,456.078125,130.46678821027044C441.6770833333333,128.43357642054087,418.6354166666667,124.36715284108175,407.1145833333333,122.33394105135217L395.59375,120.3007292616226" id="edge1" class="transition" marker-end="url(#statediagram-barbEnd)"></path><path d="M395.59375,114.34567159174414L469.8014322916667,123.12139299312012C544.0091145833334,131.89711439449607,692.4244791666666,149.44855719724805,766.6321614583334,163.974278598624C840.83984375,178.5,840.83984375,190,840.83984375,195.75L840.83984375,201.5" id="edge2" class="transition" marker-end="url(#statediagram-barbEnd)"></path><path d="M866.722791988417,262L871.6426912403475,267.75C876.5625904922781,273.5,886.402388996139,285,891.3222882480695,298.7083333333333C896.2421875,312.4166666666667,896.2421875,328.3333333333333,896.2421875,336.2916666666667L896.2421875,344.25" id="edge3" class="transition" marker-end="url(#statediagram-barbEnd)"></path><path d="M217.71304898648648,132.5L203.34290540540542,138.25C188.9727618243243,144,160.23247466216216,155.5,145.86233108108107,172.04166666666666C131.4921875,188.58333333333334,131.4921875,210.16666666666666,131.4921875,231.75C131.4921875,253.33333333333334,131.4921875,274.9166666666667,131.4921875,296.5C131.4921875,318.0833333333333,131.4921875,339.6666666666667,131.4921875,361.25C131.4921875,382.8333333333333,131.4921875,404.4166666666667,131.4921875,426C131.4921875,447.5833333333333,131.4921875,469.1666666666667,131.4921875,490.75C131.4921875,512.3333333333334,131.4921875,533.9166666666666,131.4921875,555.5C131.4921875,577.0833333333334,131.4921875,598.6666666666666,131.4921875,620.25C131.4921875,641.8333333333334,131.4921875,663.4166666666666,131.4921875,682.7916666666666C131.4921875,702.1666666666666,131.4921875,719.3333333333334,131.4921875,736.5C131.4921875,753.6666666666666,131.4921875,770.8333333333334,131.4921875,790.2083333333334C131.4921875,809.5833333333334,131.4921875,831.1666666666666,131.4921875,852.75C131.4921875,874.3333333333334,131.4921875,895.9166666666666,216.62890625,915.4248794538261C301.765625,934.9330922409853,472.0390625,952.3661844819704,557.17578125,961.0827306024631L642.3125,969.7992767229558" id="edge4" class="transition" marker-end="url(#statediagram-barbEnd)"></path><path d="M290.8780465733591,132.5L290.41529922779927,138.25C289.9525518822394,144,289.0270571911197,155.5,288.5643098455599,167C288.1015625,178.5,288.1015625,190,288.1015625,195.75L288.1015625,201.5" id="edge5" class="transition" marker-end="url(#statediagram-barbEnd)"></path><path d="M395.59375,128.78313092741558L420.1471354166667,135.15260910617965C444.7005208333333,141.52208728494372,493.8072916666667,154.26104364247186,518.3606770833334,171.42218848790262C542.9140625,188.58333333333334,542.9140625,210.16666666666666,542.9140625,231.75C542.9140625,253.33333333333334,542.9140625,274.9166666666667,542.9140625,291.4583333333333C542.9140625,308,542.9140625,319.5,542.9140625,325.25L542.9140625,331" id="edge6" class="transition" marker-end="url(#statediagram-barbEnd)"></path><path d="M756.8767495173745,262L740.9168225144787,267.75C724.956895511583,273.5,693.0370415057914,285,666.5803118967182,296.5C640.1235822876448,308,619.1299770752895,319.5,608.633174469112,325.25L598.1363718629343,331" id="edge7" class="transition" marker-end="url(#statediagram-barbEnd)"></path><path d="M958.70703125,254.1273508189211L995.9049479166666,261.18945901576757C1033.1028645833333,268.251567212614,1107.4986979166667,282.37578360630704,1144.6966145833333,295.1878918031535C1181.89453125,308,1181.89453125,319.5,1181.89453125,325.25L1181.89453125,331" id="edge8" class="transition" marker-end="url(#statediagram-barbEnd)"></path><path d="M777.6484375,634.5047956264589L719.7903645833334,642.9206630220491C661.9322916666666,651.3365304176392,546.2161458333334,668.1682652088197,488.3580729166667,685.1674659377431C430.5,702.1666666666666,430.5,719.3333333333334,430.5,736.5C430.5,753.6666666666666,430.5,770.8333333333334,430.5,790.2083333333334C430.5,809.5833333333334,430.5,831.1666666666666,430.5,852.75C430.5,874.3333333333334,430.5,895.9166666666666,465.8020833333333,913.5639419997814C501.1041666666667,931.211217332896,571.7083333333334,944.9224346657919,607.0104166666666,951.7780433322399L642.3125,958.6336519986878" id="edge9" class="transition" marker-end="url(#statediagram-barbEnd)"></path><path d="M1083.89453125,371.23683134655937L994.330078125,380.3640261221328C904.765625,389.4912208977062,725.63671875,407.74561044885314,636.072265625,427.6644718910932C546.5078125,447.5833333333333,546.5078125,469.1666666666667,546.5078125,490.75C546.5078125,512.3333333333334,546.5078125,533.9166666666666,546.5078125,555.5C546.5078125,577.0833333333334,546.5078125,598.6666666666666,546.5078125,620.25C546.5078125,641.8333333333334,546.5078125,663.4166666666666,546.5078125,682.7916666666666C546.5078125,702.1666666666666,546.5078125,719.3333333333334,546.5078125,736.5C546.5078125,753.6666666666666,546.5078125,770.8333333333334,546.5078125,790.2083333333334C546.5078125,809.5833333333334,546.5078125,831.1666666666666,546.5078125,852.75C546.5078125,874.3333333333334,546.5078125,895.9166666666666,565.8148527992279,912.4583333333334C585.1218930984556,929,623.7359736969112,940.5,643.043013996139,946.25L662.3500542953668,952" id="edge10" class="transition" marker-end="url(#statediagram-barbEnd)"></path><path d="M1279.89453125,385.09510825688074L1307.9134114583333,391.9125902140673C1335.9322916666667,398.7300721712538,1391.9700520833333,412.36503608562697,1419.9889322916667,429.97418470948014C1448.0078125,447.5833333333333,1448.0078125,469.1666666666667,1448.0078125,490.75C1448.0078125,512.3333333333334,1448.0078125,533.9166666666666,1448.0078125,555.5C1448.0078125,577.0833333333334,1448.0078125,598.6666666666666,1448.0078125,620.25C1448.0078125,641.8333333333334,1448.0078125,663.4166666666666,1455.343598300971,679.9583333333334C1462.6793841019417,696.5,1477.3509557038833,708,1484.6867415048544,713.75L1492.0225273058252,719.5" id="edge11" class="transition" marker-end="url(#statediagram-barbEnd)"></path><path d="M973.6484375,629.2664960813481L1074.609375,638.5554134011235C1175.5703125,647.8443307208987,1377.4921875,666.4221653604494,1471.117339199029,681.4610826802246C1564.7424908980583,696.5,1550.0709192961167,708,1542.7351334951456,713.75L1535.3993476941748,719.5" id="edge12" class="transition" marker-end="url(#statediagram-barbEnd)"></path><path d="M1097.763543677606,391.5L1081.7717030646718,397.25C1065.7798624517375,403,1033.7961812258688,414.5,1017.8043406129344,426C1001.8125,437.5,1001.8125,449,1001.8125,454.75L1001.8125,460.5" id="edge13" class="transition" marker-end="url(#statediagram-barbEnd)"></path><path d="M934.5899493243244,590L945.7937077702703,584.25C956.9974662162163,578.5,979.404983108108,567,990.6087415540541,555.5C1001.8125,544,1001.8125,532.5,1001.8125,526.75L1001.8125,521" id="edge14" class="transition" marker-end="url(#statediagram-barbEnd)"></path><path d="M1513.7109375,753.5L1513.7109375,759.25C1513.7109375,765,1513.7109375,776.5,1513.7109375,788C1513.7109375,799.5,1513.7109375,811,1513.7109375,816.75L1513.7109375,822.5" id="edge15" class="transition" marker-end="url(#statediagram-barbEnd)"></path><path d="M1078.9540148407336,521L1093.617277992278,526.75C1108.2805411438223,532.5,1137.6070674469113,544,1152.2703305984558,560.5416666666666C1166.93359375,577.0833333333334,1166.93359375,598.6666666666666,1166.93359375,620.25C1166.93359375,641.8333333333334,1166.93359375,663.4166666666666,1166.93359375,682.7916666666666C1166.93359375,702.1666666666666,1166.93359375,719.3333333333334,1166.93359375,736.5C1166.93359375,753.6666666666666,1166.93359375,770.8333333333334,1166.93359375,790.2083333333334C1166.93359375,809.5833333333334,1166.93359375,831.1666666666666,1166.93359375,852.75C1166.93359375,874.3333333333334,1166.93359375,895.9166666666666,1120.033203125,914.2435988149124C1073.1328125,932.5705309631581,979.33203125,947.6410619263165,932.431640625,955.1763274078957L885.53125,962.7115928894748" id="edge16" class="transition" marker-end="url(#statediagram-barbEnd)"></path><path d="M1443.2997556708494,883L1429.9158120173745,888.75C1416.5318683638998,894.5,1389.76398105695,906,1296.8025634451417,920.3510068160725C1203.8411458333333,934.7020136321452,1044.6861979166667,951.9040272642902,965.1087239583334,960.5050340803627L885.53125,969.1060408964353" id="edge17" class="transition" marker-end="url(#statediagram-barbEnd)"></path><path d="M1118.1796875,475.5318554878804L1137.3368055555557,473.02654623990037C1156.493923611111,470.52123699192026,1194.8081597222224,465.51061849596016,1218.7545572916667,463.00530924798005C1242.700954861111,460.5,1252.279513888889,460.5,1261.8580729166667,465.5416666666667C1271.4366319444443,470.5833333333333,1281.0151909722222,480.6666666666667,1281.015190972222,490.75C1281.0151909722222,500.8333333333333,1271.4366319444443,510.9166666666667,1261.8580729166667,515.9583333333334C1252.279513888889,521,1242.700954861111,521,1218.7545572916667,518.4946907520199C1194.8081597222224,515.9893815040399,1156.493923611111,510.97876300807974,1137.3368055555557,508.47345376009963L1118.1796875,505.9681445121196" id="edge18" class="transition" marker-end="url(#statediagram-barbEnd)"></path><path d="M1652.6171875,836.197188083465L1671.7743055555557,833.9143234028875C1690.931423611111,831.63145872231,1729.245659722222,827.0657293611549,1753.1920572916663,824.7828646805775C1777.138454861111,822.5,1786.717013888889,822.5,1796.2955729166667,827.5416666666666C1805.8741319444446,832.5833333333334,1815.4526909722224,842.6666666666666,1815.452690972222,852.75C1815.4526909722224,862.8333333333334,1805.8741319444446,872.9166666666666,1796.295572916667,877.9583333333334C1786.717013888889,883,1777.138454861111,883,1753.1920572916667,880.7171353194225C1729.245659722222,878.4342706388451,1690.931423611111,873.86854127769,1671.7743055555557,871.5856765971125L1652.6171875,869.302811916535" id="edge19" class="transition" marker-end="url(#statediagram-barbEnd)"></path><path d="M885.4453125,514.1732240437159L851.2265625,521.0610200364299C817.0078125,527.9488160291439,748.5703125,541.724408014572,731.7139539092664,554.362204007286C714.8575953185327,567,749.5823781370656,578.5,766.9447695463319,584.25L784.3071609555984,590" id="edge20" class="transition" marker-end="url(#statediagram-barbEnd)"></path><path d="M1572.3641107625483,883L1583.5130610521235,888.75C1594.6620113416986,894.5,1616.9599119208494,906,1628.1088622104246,917.5C1639.2578125,929,1639.2578125,940.5,1639.2578125,946.25L1639.2578125,952" id="edge21" class="transition" marker-end="url(#statediagram-barbEnd)"></path><path d="M1639.2578125,1012.5L1639.2578125,1018.25C1639.2578125,1024,1639.2578125,1035.5,1639.2578125,1047C1639.2578125,1058.5,1639.2578125,1070,1639.2578125,1075.75L1639.2578125,1081.5" id="edge22" class="transition" marker-end="url(#statediagram-barbEnd)"></path></g><g class="edgeLabels"><g class="edgeLabel"><g class="label" transform="translate(0, 0)"><rect rx="0" ry="0" width="0" height="0" style="fill:#e8e8e8;"></rect><text style=""></text></g></g><g class="edgeLabel" transform="translate(499.28125, 102.25)"><g class="label" transform="translate(-68.6875, -9.5)"><rect rx="0" ry="0" width="137.296875" height="19.03125" style="fill:#e8e8e8;"></rect><text style=""><tspan xml:space="preserve" dy="1em" x="0" class="row">ProviderEventOpen</tspan></text></g></g><g class="edgeLabel" transform="translate(840.83984375, 167)"><g class="label" transform="translate(-98.296875, -9.5)"><rect rx="0" ry="0" width="196.484375" height="19.03125" style="fill:#e8e8e8;"></rect><text style=""><tspan xml:space="preserve" dy="1em" x="0" class="row">ProviderEventDealReceived</tspan></text></g></g><g class="edgeLabel" transform="translate(896.2421875, 296.5)"><g class="label" transform="translate(-108.375, -9.5)"><rect rx="0" ry="0" width="216.609375" height="19.03125" style="fill:#e8e8e8;"></rect><text style=""><tspan xml:space="preserve" dy="1em" x="0" class="row">ProviderEventDecisioningError</tspan></text></g></g><g class="edgeLabel" transform="translate(131.4921875, 555.5)"><g class="label" transform="translate(-123.4921875, -9.5)"><rect rx="0" ry="0" width="246.84375" height="19.03125" style="fill:#e8e8e8;"></rect><text style=""><tspan xml:space="preserve" dy="1em" x="0" class="row">ProviderEventGetPieceSizeErrored</tspan></text></g></g><g class="edgeLabel" transform="translate(288.1015625, 167)"><g class="label" transform="translate(-100.1953125, -9.5)"><rect rx="0" ry="0" width="200.28125" height="19.03125" style="fill:#e8e8e8;"></rect><text style=""><tspan xml:space="preserve" dy="1em" x="0" class="row">ProviderEventDealNotFound</tspan></text></g></g><g class="edgeLabel" transform="translate(542.9140625, 231.75)"><g class="label" transform="translate(-98.203125, -9.5)"><rect rx="0" ry="0" width="196.296875" height="19.03125" style="fill:#e8e8e8;"></rect><text style=""><tspan xml:space="preserve" dy="1em" x="0" class="row">ProviderEventDealRejected</tspan></text></g></g><g class="edgeLabel" transform="translate(661.1171875, 296.5)"><g class="label" transform="translate(-98.203125, -9.5)"><rect rx="0" ry="0" width="196.296875" height="19.03125" style="fill:#e8e8e8;"></rect><text style=""><tspan xml:space="preserve" dy="1em" x="0" class="row">ProviderEventDealRejected</tspan></text></g></g><g class="edgeLabel" transform="translate(1181.89453125, 296.5)"><g class="label" transform="translate(-99.390625, -9.5)"><rect rx="0" ry="0" width="198.65625" height="19.03125" style="fill:#e8e8e8;"></rect><text style=""><tspan xml:space="preserve" dy="1em" x="0" class="row">ProviderEventDealAccepted</tspan></text></g></g><g class="edgeLabel" transform="translate(430.5, 788)"><g class="label" transform="translate(-96.0078125, -9.5)"><rect rx="0" ry="0" width="191.890625" height="19.03125" style="fill:#e8e8e8;"></rect><text style=""><tspan xml:space="preserve" dy="1em" x="0" class="row">ProviderEventBlockErrored</tspan></text></g></g><g class="edgeLabel" transform="translate(546.5078125, 685)"><g class="label" transform="translate(-96.0078125, -9.5)"><rect rx="0" ry="0" width="191.890625" height="19.03125" style="fill:#e8e8e8;"></rect><text style=""><tspan xml:space="preserve" dy="1em" x="0" class="row">ProviderEventBlockErrored</tspan></text></g></g><g class="edgeLabel" transform="translate(1448.0078125, 555.5)"><g class="label" transform="translate(-111.40625, -9.5)"><rect rx="0" ry="0" width="222.6875" height="19.03125" style="fill:#e8e8e8;"></rect><text style=""><tspan xml:space="preserve" dy="1em" x="0" class="row">ProviderEventBlocksCompleted</tspan></text></g></g><g class="edgeLabel" transform="translate(1579.4140625, 685)"><g class="label" transform="translate(-111.40625, -9.5)"><rect rx="0" ry="0" width="222.6875" height="19.03125" style="fill:#e8e8e8;"></rect><text style=""><tspan xml:space="preserve" dy="1em" x="0" class="row">ProviderEventBlocksCompleted</tspan></text></g></g><g class="edgeLabel" transform="translate(1001.8125, 426)"><g class="label" transform="translate(-118.703125, -9.5)"><rect rx="0" ry="0" width="237.265625" height="19.03125" style="fill:#e8e8e8;"></rect><text style=""><tspan xml:space="preserve" dy="1em" x="0" class="row">ProviderEventPaymentRequested</tspan></text></g></g><g class="edgeLabel" transform="translate(1001.8125, 555.5)"><g class="label" transform="translate(-118.703125, -9.5)"><rect rx="0" ry="0" width="237.265625" height="19.03125" style="fill:#e8e8e8;"></rect><text style=""><tspan xml:space="preserve" dy="1em" x="0" class="row">ProviderEventPaymentRequested</tspan></text></g></g><g class="edgeLabel" transform="translate(1513.7109375, 788)"><g class="label" transform="translate(-118.703125, -9.5)"><rect rx="0" ry="0" width="237.265625" height="19.03125" style="fill:#e8e8e8;"></rect><text style=""><tspan xml:space="preserve" dy="1em" x="0" class="row">ProviderEventPaymentRequested</tspan></text></g></g><g class="edgeLabel" transform="translate(1166.93359375, 736.5)"><g class="label" transform="translate(-117.46875, -9.5)"><rect rx="0" ry="0" width="234.796875" height="19.03125" style="fill:#e8e8e8;"></rect><text style=""><tspan xml:space="preserve" dy="1em" x="0" class="row">ProviderEventSaveVoucherFailed</tspan></text></g></g><g class="edgeLabel" transform="translate(1362.99609375, 917.5)"><g class="label" transform="translate(-117.46875, -9.5)"><rect rx="0" ry="0" width="234.796875" height="19.03125" style="fill:#e8e8e8;"></rect><text style=""><tspan xml:space="preserve" dy="1em" x="0" class="row">ProviderEventSaveVoucherFailed</tspan></text></g></g><g class="edgeLabel" transform="translate(1290.59375, 490.75)"><g class="label" transform="translate(-137.4140625, -9.5)"><rect rx="0" ry="0" width="274.65625" height="19.03125" style="fill:#e8e8e8;"></rect><text style=""><tspan xml:space="preserve" dy="1em" x="0" class="row">ProviderEventPartialPaymentReceived</tspan></text></g></g><g class="edgeLabel" transform="translate(1825.03125, 852.75)"><g class="label" transform="translate(-137.4140625, -9.5)"><rect rx="0" ry="0" width="274.65625" height="19.03125" style="fill:#e8e8e8;"></rect><text style=""><tspan xml:space="preserve" dy="1em" x="0" class="row">ProviderEventPartialPaymentReceived</tspan></text></g></g><g class="edgeLabel" transform="translate(680.1328125, 555.5)"><g class="label" transform="translate(-113.625, -9.5)"><rect rx="0" ry="0" width="227.109375" height="19.03125" style="fill:#e8e8e8;"></rect><text style=""><tspan xml:space="preserve" dy="1em" x="0" class="row">ProviderEventPaymentReceived</tspan></text></g></g><g class="edgeLabel" transform="translate(1639.2578125, 917.5)"><g class="label" transform="translate(-113.625, -9.5)"><rect rx="0" ry="0" width="227.109375" height="19.03125" style="fill:#e8e8e8;"></rect><text style=""><tspan xml:space="preserve" dy="1em" x="0" class="row">ProviderEventPaymentReceived</tspan></text></g></g><g class="edgeLabel" transform="translate(1639.2578125, 1047)"><g class="label" transform="translate(-84.5390625, -9.5)"><rect rx="0" ry="0" width="168.96875" height="19.03125" style="fill:#e8e8e8;"></rect><text style=""><tspan xml:space="preserve" dy="1em" x="0" class="row">ProviderEventComplete</tspan></text></g></g></g><g class="nodes"><g class="node statediagram-state" id="0" transform="translate(293.3125, 102.25)"><rect class="outer title-state" x="-102.28125" y="-30.25" width="204.5625" height="60.5"></rect><line class="divider" x1="-102.28125" x2="102.28125" y1="-3.75" y2="-3.75"></line><g class="label" transform="translate(-94.78125, -27.25)"><text style=""><tspan xml:space="preserve" dy="1em" x="0" class="title-row">DealStatusNew</tspan></text><text style="" transform="translate( 0, 26.5)"><tspan xml:space="preserve" dy="1em" x="0" class="title-row">On entry runs ReceiveDeal</tspan></text></g></g><g class="node statediagram-state" id="5" transform="translate(840.83984375, 231.75)"><rect class="outer title-state" x="-117.8671875" y="-30.25" width="235.734375" height="60.5"></rect><line class="divider" x1="-117.8671875" x2="117.8671875" y1="-3.75" y2="-3.75"></line><g class="label" transform="translate(-110.3671875, -27.25)"><text style=""><tspan xml:space="preserve" dy="1em" x="0" class="title-row">DealStatusAwaitingAcceptance</tspan></text><text style="" transform="translate( 0, 26.5)"><tspan xml:space="preserve" dy="1em" x="0" class="title-row">On entry runs DecideOnDeal</tspan></text></g></g><g class="node statediagram-state" id="6" transform="translate(1181.89453125, 361.25)"><rect class="outer title-state" x="-98" y="-30.25" width="196" height="60.5"></rect><line class="divider" x1="-98" x2="98" y1="-3.75" y2="-3.75"></line><g class="label" transform="translate(-90.5, -27.25)"><text style=""><tspan xml:space="preserve" dy="1em" x="0" class="title-row">DealStatusAccepted</tspan></text><text style="" transform="translate( 0, 26.5)"><tspan xml:space="preserve" dy="1em" x="0" class="title-row">On entry runs SendBlocks</tspan></text></g></g><g class="node statediagram-state" id="7" transform="translate(763.921875, 982.25)"><rect class="outer title-state" x="-121.609375" y="-30.25" width="243.21875" height="60.5"></rect><line class="divider" x1="-121.609375" x2="121.609375" y1="-3.75" y2="-3.75"></line><g class="label" transform="translate(-114.109375, -27.25)"><text style=""><tspan xml:space="preserve" dy="1em" x="0" class="title-row">DealStatusFailed</tspan></text><text style="" transform="translate( 0, 26.5)"><tspan xml:space="preserve" dy="1em" x="0" class="title-row">On entry runs SendFailResponse</tspan></text></g></g><g class="node statediagram-state" id="8" transform="translate(542.9140625, 361.25)"><rect class="outer title-state" x="-121.609375" y="-30.25" width="243.21875" height="60.5"></rect><line class="divider" x1="-121.609375" x2="121.609375" y1="-3.75" y2="-3.75"></line><g class="label" transform="translate(-114.109375, -27.25)"><text style=""><tspan xml:space="preserve" dy="1em" x="0" class="title-row">DealStatusRejected</tspan></text><text style="" transform="translate( 0, 26.5)"><tspan xml:space="preserve" dy="1em" x="0" class="title-row">On entry runs SendFailResponse</tspan></text></g></g><g class="node statediagram-state" id="9" transform="translate(1001.8125, 490.75)"><rect class="outer title-state" x="-116.3671875" y="-30.25" width="232.734375" height="60.5"></rect><line class="divider" x1="-116.3671875" x2="116.3671875" y1="-3.75" y2="-3.75"></line><g class="label" transform="translate(-108.8671875, -27.25)"><text style=""><tspan xml:space="preserve" dy="1em" x="0" class="title-row">DealStatusFundsNeeded</tspan></text><text style="" transform="translate( 0, 26.5)"><tspan xml:space="preserve" dy="1em" x="0" class="title-row">On entry runs ProcessPayment</tspan></text></g></g><g class="node statediagram-state" id="10" transform="translate(875.6484375, 620.25)"><rect class="outer title-state" x="-98" y="-30.25" width="196" height="60.5"></rect><line class="divider" x1="-98" x2="98" y1="-3.75" y2="-3.75"></line><g class="label" transform="translate(-90.5, -27.25)"><text style=""><tspan xml:space="preserve" dy="1em" x="0" class="title-row">DealStatusOngoing</tspan></text><text style="" transform="translate( 0, 26.5)"><tspan xml:space="preserve" dy="1em" x="0" class="title-row">On entry runs SendBlocks</tspan></text></g></g><g class="node statediagram-state" id="11" transform="translate(1513.7109375, 852.75)"><rect class="outer title-state" x="-138.90625" y="-30.25" width="277.8125" height="60.5"></rect><line class="divider" x1="-138.90625" x2="138.90625" y1="-3.75" y2="-3.75"></line><g class="label" transform="translate(-131.40625, -27.25)"><text style=""><tspan xml:space="preserve" dy="1em" x="0" class="title-row">DealStatusFundsNeededLastPayment</tspan></text><text style="" transform="translate( 0, 26.5)"><tspan xml:space="preserve" dy="1em" x="0" class="title-row">On entry runs ProcessPayment</tspan></text></g></g><g class="node statediagram-state" id="12" transform="translate(1639.2578125, 1098.5)"><rect class="outer title-state" x="-84.2265625" y="-17" width="168.453125" height="34"></rect><line class="divider" x1="-84.2265625" x2="84.2265625" y1="9.5" y2="9.5"></line><g class="label" transform="translate(-76.7265625, -14)"><text style=""><tspan xml:space="preserve" dy="1em" x="0" class="title-row">DealStatusCompleted</tspan></text><text style="" transform="translate( 0, 26.5)"><tspan xml:space="preserve" dy="1em" x="0" class="title-row"></tspan></text></g></g><g class="node statediagram-state" id="13" transform="translate(288.1015625, 231.75)"><rect class="outer title-state" x="-121.609375" y="-30.25" width="243.21875" height="60.5"></rect><line class="divider" x1="-121.609375" x2="121.609375" y1="-3.75" y2="-3.75"></line><g class="label" transform="translate(-114.109375, -27.25)"><text style=""><tspan xml:space="preserve" dy="1em" x="0" class="title-row">DealStatusDealNotFound</tspan></text><text style="" transform="translate( 0, 26.5)"><tspan xml:space="preserve" dy="1em" x="0" class="title-row">On entry runs SendFailResponse</tspan></text></g></g><g class="node statediagram-state" id="15" transform="translate(896.2421875, 361.25)"><rect class="outer title-state" x="-72.0625" y="-17" width="144.125" height="34"></rect><line class="divider" x1="-72.0625" x2="72.0625" y1="9.5" y2="9.5"></line><g class="label" transform="translate(-64.5625, -14)"><text style=""><tspan xml:space="preserve" dy="1em" x="0" class="title-row">DealStatusErrored</tspan></text><text style="" transform="translate( 0, 26.5)"><tspan xml:space="preserve" dy="1em" x="0" class="title-row"></tspan></text></g></g><g class="node statediagram-state" id="16" transform="translate(1513.7109375, 736.5)"><rect class="outer title-state" x="-102.1875" y="-17" width="204.375" height="34"></rect><line class="divider" x1="-102.1875" x2="102.1875" y1="9.5" y2="9.5"></line><g class="label" transform="translate(-94.6875, -14)"><text style=""><tspan xml:space="preserve" dy="1em" x="0" class="title-row">DealStatusBlocksComplete</tspan></text><text style="" transform="translate( 0, 26.5)"><tspan xml:space="preserve" dy="1em" x="0" class="title-row"></tspan></text></g></g><g class="node statediagram-state" id="17" transform="translate(1639.2578125, 982.25)"><rect class="outer title-state" x="-86.3984375" y="-30.25" width="172.796875" height="60.5"></rect><line class="divider" x1="-86.3984375" x2="86.3984375" y1="-3.75" y2="-3.75"></line><g class="label" transform="translate(-78.8984375, -27.25)"><text style=""><tspan xml:space="preserve" dy="1em" x="0" class="title-row">DealStatusFinalizing</tspan></text><text style="" transform="translate( 0, 26.5)"><tspan xml:space="preserve" dy="1em" x="0" class="title-row">On entry runs Finalize</tspan></text></g></g><g class="node default" id="root_start" transform="translate(293.3125, 15)"><circle class="state-start" r="7" width="14" height="14"></circle></g></g></g></g></svg>