<svg id="mermaid-1594843608127" width="4576.80078125" xmlns="http://www.w3.org/2000/svg" class="statediagram" height="1645" viewBox="0 0 4576.80078125 1645"><style>#mermaid-1594843608127 .label{font-family:'trebuchet ms', verdana, arial;font-family:var(--mermaid-font-family);color:#333}#mermaid-1594843608127 .label text{fill:#333}#mermaid-1594843608127 .node rect,#mermaid-1594843608127 .node circle,#mermaid-1594843608127 .node ellipse,#mermaid-1594843608127 .node polygon,#mermaid-1594843608127 .node path{fill:#ECECFF;stroke:#9370db;stroke-width:1px}#mermaid-1594843608127 .node .label{text-align:center}#mermaid-1594843608127 .node.clickable{cursor:pointer}#mermaid-1594843608127 .arrowheadPath{fill:#333}#mermaid-1594843608127 .edgePath .path{stroke:#333;stroke-width:1.5px}#mermaid-1594843608127 .edgeLabel{background-color:#e8e8e8;text-align:center}#mermaid-1594843608127 .edgeLabel rect{opacity:0.5}#mermaid-1594843608127 .cluster rect{fill:#ffffde;stroke:#aa3;stroke-width:1px}#mermaid-1594843608127 .cluster text{fill:#333}#mermaid-1594843608127 div.mermaidTooltip{position:absolute;text-align:center;max-width:200px;padding:2px;font-family:'trebuchet ms', verdana, arial;font-family:var(--mermaid-font-family);font-size:12px;background:#ffffde;border:1px solid #aa3;border-radius:2px;pointer-events:none;z-index:100}#mermaid-1594843608127 .actor{stroke:#ccf;fill:#ECECFF}#mermaid-1594843608127 text.actor{fill:#000;stroke:none}#mermaid-1594843608127 .actor-line{stroke:grey}#mermaid-1594843608127 .messageLine0{stroke-width:1.5;stroke-dasharray:'2 2';stroke:#333}#mermaid-1594843608127 .messageLine1{stroke-width:1.5;stroke-dasharray:'2 2';stroke:#333}#mermaid-1594843608127 #arrowhead{fill:#333}#mermaid-1594843608127 .sequenceNumber{fill:#fff}#mermaid-1594843608127 #sequencenumber{fill:#333}#mermaid-1594843608127 #crosshead path{fill:#333 !important;stroke:#333 !important}#mermaid-1594843608127 .messageText{fill:#333;stroke:none}#mermaid-1594843608127 .labelBox{stroke:#ccf;fill:#ECECFF}#mermaid-1594843608127 .labelText{fill:#000;stroke:none}#mermaid-1594843608127 .loopText{fill:#000;stroke:none}#mermaid-1594843608127 .loopLine{stroke-width:2;stroke-dasharray:'2 2';stroke:#ccf}#mermaid-1594843608127 .note{stroke:#aa3;fill:#fff5ad}#mermaid-1594843608127 .noteText{fill:black;stroke:none;font-family:'trebuchet ms', verdana, arial;font-family:var(--mermaid-font-family);font-size:14px}#mermaid-1594843608127 .activation0{fill:#f4f4f4;stroke:#666}#mermaid-1594843608127 .activation1{fill:#f4f4f4;stroke:#666}#mermaid-1594843608127 .activation2{fill:#f4f4f4;stroke:#666}#mermaid-1594843608127 .mermaid-main-font{font-family:"trebuchet ms", verdana, arial;font-family:var(--mermaid-font-family)}#mermaid-1594843608127 .section{stroke:none;opacity:0.2}#mermaid-1594843608127 .section0{fill:rgba(102,102,255,0.49)}#mermaid-1594843608127 .section2{fill:#fff400}#mermaid-1594843608127 .section1,#mermaid-1594843608127 .section3{fill:#fff;opacity:0.2}#mermaid-1594843608127 .sectionTitle0{fill:#333}#mermaid-1594843608127 .sectionTitle1{fill:#333}#mermaid-1594843608127 .sectionTitle2{fill:#333}#mermaid-1594843608127 .sectionTitle3{fill:#333}#mermaid-1594843608127 .sectionTitle{text-anchor:start;font-size:11px;text-height:14px;font-family:'trebuchet ms', verdana, arial;font-family:var(--mermaid-font-family)}#mermaid-1594843608127 .grid .tick{stroke:#d3d3d3;opacity:0.8;shape-rendering:crispEdges}#mermaid-1594843608127 .grid .tick text{font-family:'trebuchet ms', verdana, arial;font-family:var(--mermaid-font-family)}#mermaid-1594843608127 .grid path{stroke-width:0}#mermaid-1594843608127 .today{fill:none;stroke:red;stroke-width:2px}#mermaid-1594843608127 .task{stroke-width:2}#mermaid-1594843608127 .taskText{text-anchor:middle;font-family:'trebuchet ms', verdana, arial;font-family:var(--mermaid-font-family)}#mermaid-1594843608127 .taskText:not([font-size]){font-size:11px}#mermaid-1594843608127 .taskTextOutsideRight{fill:#000;text-anchor:start;font-size:11px;font-family:'trebuchet ms', verdana, arial;font-family:var(--mermaid-font-family)}#mermaid-1594843608127 .taskTextOutsideLeft{fill:#000;text-anchor:end;font-size:11px}#mermaid-1594843608127 .task.clickable{cursor:pointer}#mermaid-1594843608127 .taskText.clickable{cursor:pointer;fill:#003163 !important;font-weight:bold}#mermaid-1594843608127 .taskTextOutsideLeft.clickable{cursor:pointer;fill:#003163 !important;font-weight:bold}#mermaid-1594843608127 .taskTextOutsideRight.clickable{cursor:pointer;fill:#003163 !important;font-weight:bold}#mermaid-1594843608127 .taskText0,#mermaid-1594843608127 .taskText1,#mermaid-1594843608127 .taskText2,#mermaid-1594843608127 .taskText3{fill:#fff}#mermaid-1594843608127 .task0,#mermaid-1594843608127 .task1,#mermaid-1594843608127 .task2,#mermaid-1594843608127 .task3{fill:#8a90dd;stroke:#534fbc}#mermaid-1594843608127 .taskTextOutside0,#mermaid-1594843608127 .taskTextOutside2{fill:#000}#mermaid-1594843608127 .taskTextOutside1,#mermaid-1594843608127 .taskTextOutside3{fill:#000}#mermaid-1594843608127 .active0,#mermaid-1594843608127 .active1,#mermaid-1594843608127 .active2,#mermaid-1594843608127 .active3{fill:#bfc7ff;stroke:#534fbc}#mermaid-1594843608127 .activeText0,#mermaid-1594843608127 .activeText1,#mermaid-1594843608127 .activeText2,#mermaid-1594843608127 .activeText3{fill:#000 !important}#mermaid-1594843608127 .done0,#mermaid-1594843608127 .done1,#mermaid-1594843608127 .done2,#mermaid-1594843608127 .done3{stroke:grey;fill:#d3d3d3;stroke-width:2}#mermaid-1594843608127 .doneText0,#mermaid-1594843608127 .doneText1,#mermaid-1594843608127 .doneText2,#mermaid-1594843608127 .doneText3{fill:#000 !important}#mermaid-1594843608127 .crit0,#mermaid-1594843608127 .crit1,#mermaid-1594843608127 .crit2,#mermaid-1594843608127 .crit3{stroke:#f88;fill:red;stroke-width:2}#mermaid-1594843608127 .activeCrit0,#mermaid-1594843608127 .activeCrit1,#mermaid-1594843608127 .activeCrit2,#mermaid-1594843608127 .activeCrit3{stroke:#f88;fill:#bfc7ff;stroke-width:2}#mermaid-1594843608127 .doneCrit0,#mermaid-1594843608127 .doneCrit1,#mermaid-1594843608127 .doneCrit2,#mermaid-1594843608127 .doneCrit3{stroke:#f88;fill:#d3d3d3;stroke-width:2;cursor:pointer;shape-rendering:crispEdges}#mermaid-1594843608127 .milestone{transform:rotate(45deg) scale(0.8, 0.8)}#mermaid-1594843608127 .milestoneText{font-style:italic}#mermaid-1594843608127 .doneCritText0,#mermaid-1594843608127 .doneCritText1,#mermaid-1594843608127 .doneCritText2,#mermaid-1594843608127 .doneCritText3{fill:#000 !important}#mermaid-1594843608127 .activeCritText0,#mermaid-1594843608127 .activeCritText1,#mermaid-1594843608127 .activeCritText2,#mermaid-1594843608127 .activeCritText3{fill:#000 !important}#mermaid-1594843608127 .titleText{text-anchor:middle;font-size:18px;fill:#000;font-family:'trebuchet ms', verdana, arial;font-family:var(--mermaid-font-family)}#mermaid-1594843608127 g.classGroup text{fill:#9370db;stroke:none;font-family:'trebuchet ms', verdana, arial;font-family:var(--mermaid-font-family);font-size:10px}#mermaid-1594843608127 g.classGroup text .title{font-weight:bolder}#mermaid-1594843608127 g.clickable{cursor:pointer}#mermaid-1594843608127 g.classGroup rect{fill:#ECECFF;stroke:#9370db}#mermaid-1594843608127 g.classGroup line{stroke:#9370db;stroke-width:1}#mermaid-1594843608127 .classLabel .box{stroke:none;stroke-width:0;fill:#ECECFF;opacity:0.5}#mermaid-1594843608127 .classLabel .label{fill:#9370db;font-size:10px}#mermaid-1594843608127 .relation{stroke:#9370db;stroke-width:1;fill:none}#mermaid-1594843608127 .dashed-line{stroke-dasharray:3}#mermaid-1594843608127 #compositionStart{fill:#9370db;stroke:#9370db;stroke-width:1}#mermaid-1594843608127 #compositionEnd{fill:#9370db;stroke:#9370db;stroke-width:1}#mermaid-1594843608127 #aggregationStart{fill:#ECECFF;stroke:#9370db;stroke-width:1}#mermaid-1594843608127 #aggregationEnd{fill:#ECECFF;stroke:#9370db;stroke-width:1}#mermaid-1594843608127 #dependencyStart{fill:#9370db;stroke:#9370db;stroke-width:1}#mermaid-1594843608127 #dependencyEnd{fill:#9370db;stroke:#9370db;stroke-width:1}#mermaid-1594843608127 #extensionStart{fill:#9370db;stroke:#9370db;stroke-width:1}#mermaid-1594843608127 #extensionEnd{fill:#9370db;stroke:#9370db;stroke-width:1}#mermaid-1594843608127 .commit-id,#mermaid-1594843608127 .commit-msg,#mermaid-1594843608127 .branch-label{fill:lightgrey;color:lightgrey;font-family:'trebuchet ms', verdana, arial;font-family:var(--mermaid-font-family)}#mermaid-1594843608127 .pieTitleText{text-anchor:middle;font-size:25px;fill:#000;font-family:'trebuchet ms', verdana, arial;font-family:var(--mermaid-font-family)}#mermaid-1594843608127 .slice{font-family:'trebuchet ms', verdana, arial;font-family:var(--mermaid-font-family)}#mermaid-1594843608127 g.stateGroup text{fill:#9370db;stroke:none;font-size:10px;font-family:'trebuchet ms', verdana, arial;font-family:var(--mermaid-font-family)}#mermaid-1594843608127 g.stateGroup text{fill:#9370db;stroke:none;font-size:10px}#mermaid-1594843608127 g.stateGroup .state-title{font-weight:bolder;fill:#000}#mermaid-1594843608127 g.stateGroup rect{fill:#ECECFF;stroke:#9370db}#mermaid-1594843608127 g.stateGroup line{stroke:#9370db;stroke-width:1}#mermaid-1594843608127 .transition{stroke:#9370db;stroke-width:1;fill:none}#mermaid-1594843608127 .stateGroup .composit{fill:white;border-bottom:1px}#mermaid-1594843608127 .stateGroup .alt-composit{fill:#e0e0e0;border-bottom:1px}#mermaid-1594843608127 .state-note{stroke:#aa3;fill:#fff5ad}#mermaid-1594843608127 .state-note text{fill:black;stroke:none;font-size:10px}#mermaid-1594843608127 .stateLabel .box{stroke:none;stroke-width:0;fill:#ECECFF;opacity:0.5}#mermaid-1594843608127 .stateLabel text{fill:#000;font-size:10px;font-weight:bold;font-family:'trebuchet ms', verdana, arial;font-family:var(--mermaid-font-family)}#mermaid-1594843608127 .node circle.state-start{fill:black;stroke:black}#mermaid-1594843608127 .node circle.state-end{fill:black;stroke:white;stroke-width:1.5}#mermaid-1594843608127 #statediagram-barbEnd{fill:#9370db}#mermaid-1594843608127 .statediagram-cluster rect{fill:#ECECFF;stroke:#9370db;stroke-width:1px}#mermaid-1594843608127 .statediagram-cluster rect.outer{rx:5px;ry:5px}#mermaid-1594843608127 .statediagram-state .divider{stroke:#9370db}#mermaid-1594843608127 .statediagram-state .title-state{rx:5px;ry:5px}#mermaid-1594843608127 .statediagram-cluster.statediagram-cluster .inner{fill:white}#mermaid-1594843608127 .statediagram-cluster.statediagram-cluster-alt .inner{fill:#e0e0e0}#mermaid-1594843608127 .statediagram-cluster .inner{rx:0;ry:0}#mermaid-1594843608127 .statediagram-state rect.basic{rx:5px;ry:5px}#mermaid-1594843608127 .statediagram-state rect.divider{stroke-dasharray:10,10;fill:#efefef}#mermaid-1594843608127 .note-edge{stroke-dasharray:5}#mermaid-1594843608127 .statediagram-note rect{fill:#fff5ad;stroke:#aa3;stroke-width:1px;rx:0;ry:0}:root{--mermaid-font-family: '"trebuchet ms", verdana, arial';--mermaid-font-family: "Comic Sans MS", "Comic Sans", cursive}

:root { --mermaid-font-family: "trebuchet ms", verdana, arial;}</style><style>#mermaid-1594843608127 {
    color: rgb(0, 0, 0);
    font: 16px "trebuchet ms", verdana, arial;
  }</style><g><defs><marker id="statediagram-barbEnd" refX="19" refY="7" markerWidth="20" markerHeight="14" markerUnits="0" orient="auto"><path d="M 19,7 L9,13 L14,7 L9,1 Z"></path></marker></defs><g class="root"><g class="clusters"><g class="note-cluster" id="0----parent"><rect x="8" y="72" width="674.23828125" height="340" fill="none"></rect></g><g class="note-cluster" id="3----parent"><rect x="702.23828125" y="72" width="481.1640625" height="340" fill="none"></rect></g><g class="note-cluster" id="4----parent"><rect x="1095.70703125" y="481" width="857.5703125" height="302.5" fill="none"></rect></g><g class="note-cluster" id="5----parent"><rect x="3097.08984375" y="481" width="813.12109375" height="302.5" fill="none"></rect></g><g class="note-cluster" id="6----parent"><rect x="2566.99609375" y="264" width="510.09375" height="365" fill="none"></rect></g></g><g class="edgePaths"><path d="M383.26953125,22L383.26953125,26.166666666666668C383.26953125,30.333333333333332,383.26953125,38.666666666666664,383.26953125,47C383.26953125,55.333333333333336,383.26953125,63.666666666666664,383.26953125,75.125C383.26953125,86.58333333333333,383.26953125,101.16666666666667,383.26953125,108.45833333333333L383.26953125,115.75" id="edge0" class="transition" marker-end="url(#statediagram-barbEnd)"></path><path d="M363.35428751871257,176.25L357.5113854322605,185.125C351.6684833458084,194,339.98267917290417,211.75,334.1397770864521,226.375C328.296875,241,328.296875,252.5,328.296875,262.4166666666667C328.296875,272.3333333333333,328.296875,280.6666666666667,328.296875,284.8333333333333L328.296875,289" class="transition note-edge"></path><path d="M485.86328125,128.77400190801075L498.79123263888886,126.60333492334229C511.71918402777777,124.43266793867383,537.5750868055555,120.09133396933692,553.7350260416666,117.92066698466846C569.8949652777777,115.75,576.3589409722223,115.75,582.8229166666666,120.79166666666667C589.2868923611112,125.83333333333333,595.7508680555555,135.91666666666666,595.7508680555557,146C595.7508680555555,156.08333333333334,589.2868923611112,166.16666666666666,582.8229166666666,171.20833333333334C576.3589409722223,176.25,569.8949652777777,176.25,553.7350260416666,174.07933301533157C537.5750868055555,171.90866603066308,511.71918402777777,167.56733206132617,498.79123263888886,165.3966650766577L485.86328125,163.22599809198925" id="edge1" class="transition" marker-end="url(#statediagram-barbEnd)"></path><path d="M421.37213463697606,176.25L432.55099761414675,185.125C443.7298605913174,194,466.0875865456587,211.75,477.26644952282936,226.375C488.4453125,241,488.4453125,252.5,547.4191300675676,267.75C606.3929476351351,283,724.3405827702703,302,783.3144003378378,311.5L842.2882179054054,321" id="edge2" class="transition" marker-end="url(#statediagram-barbEnd)"></path><path d="M900.5920080236486,355L874.1997202280405,364.5C847.8074324324325,374,795.0228568412163,393,768.630569045608,408.25C742.23828125,423.5,742.23828125,435,742.23828125,446.5C742.23828125,458,742.23828125,469.5,742.23828125,484.75C742.23828125,500,742.23828125,519,742.23828125,528.5L742.23828125,538" id="edge3" class="transition" marker-end="url(#statediagram-barbEnd)"></path><path d="M951.8307115709459,355L954.0718169341217,364.5C956.3129222972972,374,960.7951330236486,393,963.0362383868243,408.25C965.27734375,423.5,965.27734375,435,965.27734375,446.5C965.27734375,458,965.27734375,469.5,965.27734375,484.75C965.27734375,500,965.27734375,519,965.27734375,528.5L965.27734375,538" id="edge4" class="transition" marker-end="url(#statediagram-barbEnd)"></path><path d="M975.7369615709459,355L991.3374419341217,364.5C1006.9379222972972,374,1038.1388830236485,393,1335.222436303491,408.25C1632.3059895833333,423.5,2195.2721354166665,435,2476.7552083333335,446.5C2758.23828125,458,2758.23828125,469.5,2758.23828125,482.5416666666667C2758.23828125,495.5833333333333,2758.23828125,510.1666666666667,2758.23828125,517.4583333333334L2758.23828125,524.75" id="edge5" class="transition" marker-end="url(#statediagram-barbEnd)"></path><path d="M1402.5234375,754.1001408812848L1370.1868489583333,759.0001174010707C1337.8502604166667,763.9000939208566,1273.1770833333333,773.7000469604283,1191.8391927083333,784.3500234802141C1110.5013020833333,795,1012.4986979166666,806.5,963.4973958333334,823.0416666666666C914.49609375,839.5833333333334,914.49609375,861.1666666666666,914.49609375,882.75C914.49609375,904.3333333333334,914.49609375,925.9166666666666,914.49609375,945.2916666666666C914.49609375,964.6666666666666,914.49609375,981.8333333333334,914.49609375,999C914.49609375,1016.1666666666666,914.49609375,1033.3333333333333,914.49609375,1052.7083333333333C914.49609375,1072.0833333333333,914.49609375,1093.6666666666667,914.49609375,1115.25C914.49609375,1136.8333333333333,914.49609375,1158.4166666666667,914.49609375,1180C914.49609375,1201.5833333333333,914.49609375,1223.1666666666667,914.49609375,1244.75C914.49609375,1266.3333333333333,914.49609375,1287.9166666666667,914.49609375,1309.5C914.49609375,1331.0833333333333,914.49609375,1352.6666666666667,914.49609375,1374.25C914.49609375,1395.8333333333333,914.49609375,1417.4166666666667,1154.5807291666667,1438.3098215751277C1394.6653645833333,1459.2029764835881,1874.8346354166667,1479.4059529671765,2114.9192708333335,1489.5074412089707L2355.00390625,1499.608929450765" id="edge6" class="transition" marker-end="url(#statediagram-barbEnd)"></path><path d="M2745.3999155405404,585.25L2742.3052681587833,592.5416666666666C2739.2106207770266,599.8333333333334,2733.0213260135133,614.4166666666666,2449.060142173423,627.4583333333334C2165.0989583333335,640.5,1603.3658854166667,652,1322.4993489583333,668.5416666666666C1041.6328125,685.0833333333334,1041.6328125,706.6666666666666,1041.6328125,726.6666666666666C1041.6328125,746.6666666666666,1041.6328125,765.0833333333334,1045.134765625,780.0416666666666C1048.63671875,795,1055.640625,806.5,1059.142578125,823.0416666666666C1062.64453125,839.5833333333334,1062.64453125,861.1666666666666,1062.64453125,882.75C1062.64453125,904.3333333333334,1062.64453125,925.9166666666666,1062.64453125,945.2916666666666C1062.64453125,964.6666666666666,1062.64453125,981.8333333333334,1062.64453125,999C1062.64453125,1016.1666666666666,1062.64453125,1033.3333333333333,1062.64453125,1052.7083333333333C1062.64453125,1072.0833333333333,1062.64453125,1093.6666666666667,1062.64453125,1115.25C1062.64453125,1136.8333333333333,1062.64453125,1158.4166666666667,1062.64453125,1180C1062.64453125,1201.5833333333333,1062.64453125,1223.1666666666667,1062.64453125,1244.75C1062.64453125,1266.3333333333333,1062.64453125,1287.9166666666667,1062.64453125,1309.5C1062.64453125,1331.0833333333333,1062.64453125,1352.6666666666667,1062.64453125,1374.25C1062.64453125,1395.8333333333333,1062.64453125,1417.4166666666667,1278.0377604166667,1438.236302569C1493.4309895833333,1459.0559384713326,1924.2174479166667,1479.1118769426655,2139.6106770833335,1489.139846178332L2355.00390625,1499.1678154139984" id="edge7" class="transition" marker-end="url(#statediagram-barbEnd)"></path><path d="M2806.4827517947633,585.25L2818.1119285789696,592.5416666666666C2829.7411053631754,599.8333333333334,2852.999458931588,614.4166666666666,2599.665094049127,627.4583333333334C2346.3307291666665,640.5,1816.4036458333333,652,1576.8946770431146,663.5C1337.3857082528957,675,1388.2948540057914,686.5,1413.7494268822393,692.25L1439.2039997586871,698" id="edge8" class="transition" marker-end="url(#statediagram-barbEnd)"></path><path d="M2843.5702993032096,585.25L2864.1393119193417,592.5416666666666C2884.7083245354734,599.8333333333334,2925.8463497677367,614.4166666666666,3000.611325925535,627.4583333333334C3075.3763020833335,640.5,3183.7682291666665,652,3239.8110194457854,663.5C3295.853809724904,675,3299.547463199807,686.5,3301.394289937259,692.25L3303.2411166747106,698" id="edge9" class="transition" marker-end="url(#statediagram-barbEnd)"></path><path d="M1718.8086644513573,758.5L1738.876361001131,762.6666666666666C1758.944057550905,766.8333333333334,1799.0794506504524,775.1666666666666,1943.0644649085596,785.0833333333334C2087.0494791666665,795,2334.8841145833335,806.5,2589.1640625,821.958335205311C2843.4440104166665,837.416670410622,3104.1692708333335,856.8333408212442,3234.5319010416665,866.5416760265551L3364.89453125,876.2500112318661" id="edge10" class="transition" marker-end="url(#statediagram-barbEnd)"></path><path d="M3493.82421875,749.0980881130507L3543.56640625,754.8317400942091C3593.30859375,760.5653920753672,3692.79296875,772.0326960376836,3742.53515625,783.5163480188418C3792.27734375,795,3792.27734375,806.5,3750.140625,820.2721699630165C3708.00390625,834.0443399260331,3623.73046875,850.0886798520663,3581.59375,858.1108498150828L3539.45703125,866.1330197780994" id="edge11" class="transition" marker-end="url(#statediagram-barbEnd)"></path><path d="M1402.5234375,758.0953603146723L1378.3216145833333,762.3294669288936C1354.1197916666667,766.5635735431148,1305.7161458333333,775.0317867715574,1281.5143229166667,785.0158933857787C1257.3125,795,1257.3125,806.5,1257.3125,823.0416666666666C1257.3125,839.5833333333334,1257.3125,861.1666666666666,1257.3125,882.75C1257.3125,904.3333333333334,1257.3125,925.9166666666666,1257.3125,945.2916666666666C1257.3125,964.6666666666666,1257.3125,981.8333333333334,1257.3125,999C1257.3125,1016.1666666666666,1257.3125,1033.3333333333333,1257.3125,1052.7083333333333C1257.3125,1072.0833333333333,1257.3125,1093.6666666666667,1257.3125,1115.25C1257.3125,1136.8333333333333,1257.3125,1158.4166666666667,1257.3125,1180C1257.3125,1201.5833333333333,1257.3125,1223.1666666666667,1257.3125,1244.75C1257.3125,1266.3333333333333,1257.3125,1287.9166666666667,1257.3125,1309.5C1257.3125,1331.0833333333333,1257.3125,1352.6666666666667,1257.3125,1374.25C1257.3125,1395.8333333333333,1257.3125,1417.4166666666667,1440.2610677083333,1438.112010472287C1623.2096354166667,1458.8073542779075,1989.1067708333333,1478.614708555815,2172.0553385416665,1488.5183856947688L2355.00390625,1498.4220628337225" id="edge12" class="transition" marker-end="url(#statediagram-barbEnd)"></path><path d="M3266.9789133201357,758.5L3260.645839225113,762.6666666666666C3254.3127651300906,766.8333333333334,3241.646616940045,775.1666666666666,2987.275131386689,785.0833333333334C2732.9036458333335,795,2236.8268229166665,806.5,1988.7884114583333,823.0416666666666C1740.75,839.5833333333334,1740.75,861.1666666666666,1740.75,882.75C1740.75,904.3333333333334,1740.75,925.9166666666666,1740.75,945.2916666666666C1740.75,964.6666666666666,1740.75,981.8333333333334,1740.75,999C1740.75,1016.1666666666666,1740.75,1033.3333333333333,1740.75,1052.7083333333333C1740.75,1072.0833333333333,1740.75,1093.6666666666667,1740.75,1115.25C1740.75,1136.8333333333333,1740.75,1158.4166666666667,1740.75,1180C1740.75,1201.5833333333333,1740.75,1223.1666666666667,1740.75,1244.75C1740.75,1266.3333333333333,1740.75,1287.9166666666667,1740.75,1309.5C1740.75,1331.0833333333333,1740.75,1352.6666666666667,1740.75,1374.25C1740.75,1395.8333333333333,1740.75,1417.4166666666667,1843.1256510416667,1437.5096503969232C1945.5013020833333,1457.60263412718,2150.2526041666665,1476.20526825436,2252.6282552083335,1485.5065853179497L2355.00390625,1494.8079023815396" id="edge13" class="transition" marker-end="url(#statediagram-barbEnd)"></path><path d="M3353.7615950226245,758.5L3359.382058352187,762.6666666666666C3365.00252168175,766.8333333333334,3376.2434483408747,775.1666666666666,3156.909484587104,785.0833333333334C2937.5755208333335,795,2487.6666666666665,806.5,2262.7122395833335,823.0416666666666C2037.7578125,839.5833333333334,2037.7578125,861.1666666666666,2037.7578125,882.75C2037.7578125,904.3333333333334,2037.7578125,925.9166666666666,2037.7578125,945.2916666666666C2037.7578125,964.6666666666666,2037.7578125,981.8333333333334,2037.7578125,999C2037.7578125,1016.1666666666666,2037.7578125,1033.3333333333333,2037.7578125,1052.7083333333333C2037.7578125,1072.0833333333333,2037.7578125,1093.6666666666667,2037.7578125,1115.25C2037.7578125,1136.8333333333333,2037.7578125,1158.4166666666667,2037.7578125,1180C2037.7578125,1201.5833333333333,2037.7578125,1223.1666666666667,2037.7578125,1244.75C2037.7578125,1266.3333333333333,2037.7578125,1287.9166666666667,2037.7578125,1309.5C2037.7578125,1331.0833333333333,2037.7578125,1352.6666666666667,2037.7578125,1374.25C2037.7578125,1395.8333333333333,2037.7578125,1417.4166666666667,2090.6321614583335,1436.4447488198275C2143.5065104166665,1455.4728309729883,2249.2552083333335,1471.9456619459768,2302.1295572916665,1480.1820774324708L2355.00390625,1488.418492918965" id="edge14" class="transition" marker-end="url(#statediagram-barbEnd)"></path><path d="M3088.87890625,1126.1850642944764L3215.0325520833335,1135.154220245397C3341.1861979166665,1144.1233761963176,3593.4934895833335,1162.0616880981588,3726.0721776463965,1176.7808440490794C3858.6508657094596,1191.5,3871.5009501689187,1203,3877.9259923986488,1208.75L3884.3510346283783,1214.5" id="edge15" class="transition" marker-end="url(#statediagram-barbEnd)"></path><path d="M3539.45703125,893.2481714219372L3614.6315104166665,902.2901428516143C3689.8059895833335,911.3321142812914,3840.1549479166665,929.4160571406456,3915.3294270833335,947.0413619036563C3990.50390625,964.6666666666666,3990.50390625,981.8333333333334,3990.50390625,999C3990.50390625,1016.1666666666666,3990.50390625,1033.3333333333333,3990.50390625,1052.7083333333333C3990.50390625,1072.0833333333333,3990.50390625,1093.6666666666667,3990.50390625,1115.25C3990.50390625,1136.8333333333333,3990.50390625,1158.4166666666667,3984.07886402027,1174.9583333333333C3977.6538217905404,1191.5,3964.8037373310813,1203,3958.3786951013512,1208.75L3951.9536528716217,1214.5" id="edge16" class="transition" marker-end="url(#statediagram-barbEnd)"></path><path d="M4071.95703125,1226.8742158187003L4089.7018229166665,1224.8118465155837C4107.446614583333,1222.749477212467,4142.936197916667,1218.6247386062334,4165.1171875,1216.5623693031168C4187.298177083333,1214.5,4196.170572916667,1214.5,4205.04296875,1219.5416666666667C4213.915364583333,1224.5833333333333,4222.787760416667,1234.6666666666667,4222.787760416667,1244.75C4222.787760416667,1254.8333333333333,4213.915364583333,1264.9166666666667,4205.04296875,1269.9583333333333C4196.170572916667,1275,4187.298177083333,1275,4165.1171875,1272.9376306968832C4142.936197916667,1270.8752613937666,4107.446614583333,1266.750522787533,4089.7018229166665,1264.6881534844163L4071.95703125,1262.6257841812997" id="edge17" class="transition" marker-end="url(#statediagram-barbEnd)"></path><path d="M3532.8377578883496,1016L3540.0972201152913,1021.75C3547.3566823422334,1027.5,3561.8756067961167,1039,3569.135069023058,1055.5416666666667C3576.39453125,1072.0833333333333,3576.39453125,1093.6666666666667,3576.39453125,1115.25C3576.39453125,1136.8333333333333,3576.39453125,1158.4166666666667,3576.39453125,1180C3576.39453125,1201.5833333333333,3576.39453125,1223.1666666666667,3576.39453125,1244.75C3576.39453125,1266.3333333333333,3576.39453125,1287.9166666666667,3594.781627051158,1304.4583333333333C3613.1687228523165,1321,3649.9429144546334,1332.5,3668.3300102557914,1338.25L3686.71710605695,1344" id="edge18" class="transition" marker-end="url(#statediagram-barbEnd)"></path><path d="M3088.87890625,1096.6765861671051L3104.9943576388887,1094.7304884725875C3121.109809027778,1092.78439077807,3153.340711805556,1088.8921953890351,3173.4850260416665,1086.9460976945174C3193.629340277778,1085,3201.687065972222,1085,3209.7447916666665,1090.0416666666667C3217.802517361111,1095.0833333333333,3225.860243055555,1105.1666666666667,3225.860243055555,1115.25C3225.860243055555,1125.3333333333333,3217.802517361111,1135.4166666666667,3209.7447916666665,1140.4583333333333C3201.687065972222,1145.5,3193.629340277778,1145.5,3173.4850260416665,1143.5539023054826C3153.340711805556,1141.6078046109649,3121.109809027778,1137.71560922193,3104.994357638889,1135.7695115274125L3088.87890625,1133.8234138328949" id="edge19" class="transition" marker-end="url(#statediagram-barbEnd)"></path><path d="M3364.89453125,892.3180415848263L3280.998046875,901.5150346540219C3197.1015625,910.7120277232176,3029.30859375,929.1060138616089,2945.412109375,946.8863402641377C2861.515625,964.6666666666666,2861.515625,981.8333333333334,2861.515625,999C2861.515625,1016.1666666666666,2861.515625,1033.3333333333333,2868.0478553330117,1047.6666666666667C2874.580085666023,1062,2887.6445463320465,1073.5,2894.176776665058,1079.25L2900.7090069980695,1085" id="edge20" class="transition" marker-end="url(#statediagram-barbEnd)"></path><path d="M3409.1875,1015.4119431348902L3372.775390625,1021.2599526124085C3336.36328125,1027.1079620899268,3263.5390625,1038.8039810449634,3204.425276001448,1050.4019905224816C3145.3114895028957,1062,3099.9081352557914,1073.5,3077.2064581322393,1079.25L3054.504781008687,1085" id="edge21" class="transition" marker-end="url(#statediagram-barbEnd)"></path><path d="M3479.8325591216217,913L3485.0896326013512,918.75C3490.3467060810813,924.5,3500.8608530405404,936,3506.11792652027,947.5C3511.375,959,3511.375,970.5,3511.375,976.25L3511.375,982" id="edge22" class="transition" marker-end="url(#statediagram-barbEnd)"></path><path d="M3850.7723666747106,1275L3837.964602437259,1280.75C3825.156838199807,1286.5,3799.541309724904,1298,3787.579256153475,1309.5C3775.6172025820465,1321,3777.3086239140925,1332.5,3778.154334580116,1338.25L3779.000045246139,1344" id="edge23" class="transition" marker-end="url(#statediagram-barbEnd)"></path><path d="M3613.5625,992.1743254443319L3638.94921875,990.4786045369433C3664.3359375,988.7828836295545,3715.109375,985.3914418147773,3746.8427734375,983.6957209073886C3778.576171875,982,3791.26953125,982,3803.962890625,984.8333333333334C3816.65625,987.6666666666666,3829.349609375,993.3333333333334,3829.349609375,999C3829.349609375,1004.6666666666666,3816.65625,1010.3333333333334,3803.962890625,1013.1666666666666C3791.26953125,1016,3778.576171875,1016,3746.8427734375,1014.3042790926114C3715.109375,1012.6085581852227,3664.3359375,1009.2171163704455,3638.94921875,1007.5213954630568L3613.5625,1005.8256745556681" id="edge24" class="transition" marker-end="url(#statediagram-barbEnd)"></path><path d="M3088.87890625,1103.6572385197874L3130.1341145833335,1100.5476987664895C3171.3893229166665,1097.4381590131916,3253.8997395833335,1091.2190795065958,3305.46875,1088.109539753298C3357.0377604166665,1085,3377.6653645833335,1085,3398.29296875,1090.0416666666667C3418.9205729166665,1095.0833333333333,3439.5481770833335,1105.1666666666667,3439.5481770833335,1115.25C3439.5481770833335,1125.3333333333333,3418.9205729166665,1135.4166666666667,3398.29296875,1140.4583333333333C3377.6653645833335,1145.5,3357.0377604166665,1145.5,3305.46875,1142.390460246702C3253.8997395833335,1139.2809204934042,3171.3893229166665,1133.0618409868084,3130.1341145833335,1129.9523012335105L3088.87890625,1126.8427614802126" id="edge25" class="transition" marker-end="url(#statediagram-barbEnd)"></path><path d="M3539.45703125,867.6421291053227L3554.0368923611113,865.1184409211023C3568.616753472222,862.5947527368818,3597.776475694444,857.547376368441,3616.0013020833326,855.0236881842205C3634.226128472222,852.5,3641.516059027778,852.5,3648.8059895833335,857.5416666666666C3656.095920138889,862.5833333333334,3663.385850694445,872.6666666666666,3663.385850694444,882.75C3663.385850694445,892.8333333333334,3656.095920138889,902.9166666666666,3648.805989583334,907.9583333333334C3641.516059027778,913,3634.226128472222,913,3616.0013020833335,910.4763118157795C3597.776475694444,907.952623631559,3568.616753472222,902.9052472631182,3554.0368923611113,900.3815590788977L3539.45703125,897.8578708946773" id="edge26" class="transition" marker-end="url(#statediagram-barbEnd)"></path><path d="M4071.95703125,1233.695772826551L4116.47092013889,1230.4964773554593C4160.984809027778,1227.2971818843673,4250.012586805556,1220.8985909421838,4305.654947916667,1217.699295471092C4361.297309027778,1214.5,4383.554253472223,1214.5,4405.811197916667,1219.5416666666667C4428.068142361111,1224.5833333333333,4450.325086805556,1234.6666666666667,4450.325086805556,1244.75C4450.325086805556,1254.8333333333333,4428.068142361111,1264.9166666666667,4405.811197916667,1269.9583333333333C4383.554253472223,1275,4361.297309027778,1275,4305.654947916667,1271.800704528908C4250.012586805556,1268.6014090578162,4160.984809027778,1262.2028181156327,4116.47092013889,1259.0035226445407L4071.95703125,1255.804227173449" id="edge27" class="transition" marker-end="url(#statediagram-barbEnd)"></path><path d="M2781.26953125,1132.9559810124385L2713.1608072916665,1140.7966508436987C2645.0520833333335,1148.637320674959,2508.8346354166665,1164.3186603374795,2440.7259114583335,1182.9509968354064C2372.6171875,1201.5833333333333,2372.6171875,1223.1666666666667,2372.6171875,1244.75C2372.6171875,1266.3333333333333,2372.6171875,1287.9166666666667,2395.87109375,1305.0953548743441C2419.125,1322.2740430820215,2465.6328125,1335.048086164043,2488.88671875,1341.435107705054L2512.140625,1347.8221292460646" id="edge28" class="transition" marker-end="url(#statediagram-barbEnd)"></path><path d="M3965.9855212355214,1275L3975.0777781129345,1280.75C3984.1700349903476,1286.5,4002.354548745174,1298,3990.392495173745,1309.5C3978.4304416023165,1321,3936.3218207046334,1332.5,3915.2675102557914,1338.25L3894.21319980695,1344" id="edge29" class="transition" marker-end="url(#statediagram-barbEnd)"></path><path d="M2512.140625,1387.9801527177563L2452.55078125,1396.4834605981303C2392.9609375,1404.986768478504,2273.78125,1421.993384239252,2247.591796875,1437.733974633123C2221.40234375,1453.4745650269936,2288.203125,1467.9491300539876,2321.603515625,1475.1864125674845L2355.00390625,1482.4236950809814" id="edge30" class="transition" marker-end="url(#statediagram-barbEnd)"></path><path d="M3654.61328125,1380.1448288759277L3440.2259114583335,1389.954024063273C3225.8385416666665,1399.7632192506182,2797.0638020833335,1419.3816096253092,2590.2368358872263,1434.9408048126545C2383.4098696911196,1450.5,2398.5306768822393,1462,2406.091080477799,1467.75L2413.651484073359,1473.5" id="edge31" class="transition" marker-end="url(#statediagram-barbEnd)"></path><path d="M2608.359375,1404.5L2608.359375,1410.25C2608.359375,1416,2608.359375,1427.5,2594.600793315637,1439C2580.842211631274,1450.5,2553.3250482625485,1462,2539.5664665781856,1467.75L2525.8078848938226,1473.5" id="edge32" class="transition" marker-end="url(#statediagram-barbEnd)"></path><path d="M3654.61328125,1389.8993203385483L3587.2415364583335,1398.08276694879C3519.8697916666665,1406.266213559032,3385.1263020833335,1422.633106779516,3201.33203125,1440.2754806162036C3017.5377604166665,1457.9178544528913,2784.6927083333335,1476.8357089057827,2668.2701822916665,1486.294636132228L2551.84765625,1495.7535633586738" id="edge33" class="transition" marker-end="url(#statediagram-barbEnd)"></path><path d="M2704.578125,1381.159209842315L2838.828125,1390.7993415352623C2973.078125,1400.43947322821,3241.578125,1419.7197366141052,3216.123046875,1439.1463452592488C3190.66796875,1458.572953904393,2871.2578125,1478.1459078087858,2711.552734375,1487.9323847609824L2551.84765625,1497.7188617131787" id="edge34" class="transition" marker-end="url(#statediagram-barbEnd)"></path><path d="M3903.195493484556,1404.5L3925.9571820704637,1410.25C3948.7188706563707,1416,3994.2422478281856,1427.5,3769.0176082890925,1443.3721152638616C3543.79296875,1459.2442305277234,3047.8203125,1479.4884610554466,2799.833984375,1489.6105763193082L2551.84765625,1499.7326915831698" id="edge35" class="transition" marker-end="url(#statediagram-barbEnd)"></path><path d="M2631.512231539575,1344L2635.9131877413124,1338.25C2640.31414394305,1332.5,2649.116056346525,1321,2653.5170125482623,1304.4583333333333C2657.91796875,1287.9166666666667,2657.91796875,1266.3333333333333,2657.91796875,1244.75C2657.91796875,1223.1666666666667,2657.91796875,1201.5833333333333,2657.91796875,1180C2657.91796875,1158.4166666666667,2657.91796875,1136.8333333333333,2657.91796875,1115.25C2657.91796875,1093.6666666666667,2657.91796875,1072.0833333333333,2657.91796875,1052.7083333333333C2657.91796875,1033.3333333333333,2657.91796875,1016.1666666666666,2657.91796875,999C2657.91796875,981.8333333333334,2657.91796875,964.6666666666666,2775.7473958333335,946.4775664355153C2893.5768229166665,928.288466204364,3129.2356770833335,909.0769324087281,3247.0651041666665,899.47116551091L3364.89453125,889.865398613092" id="edge36" class="transition" marker-end="url(#statediagram-barbEnd)"></path><path d="M3912.28515625,1391.532666224265L3971.2604166666665,1399.443888520221C4030.2356770833335,1407.3551108161766,4148.186197916667,1423.1775554080884,4207.161458333333,1439.0471110373776C4266.13671875,1454.9166666666667,4266.13671875,1470.8333333333333,4266.13671875,1478.7916666666667L4266.13671875,1486.75" id="edge37" class="transition" marker-end="url(#statediagram-barbEnd)"></path><path d="M4266.13671875,1520.75L4266.13671875,1528.7083333333333C4266.13671875,1536.6666666666667,4266.13671875,1552.5833333333333,4266.13671875,1566.2916666666667C4266.13671875,1580,4266.13671875,1591.5,4266.13671875,1597.25L4266.13671875,1603" id="edge38" class="transition" marker-end="url(#statediagram-barbEnd)"></path><path d="M2453.42578125,1534L2453.42578125,1539.75C2453.42578125,1545.5,2453.42578125,1557,2453.42578125,1568.5C2453.42578125,1580,2453.42578125,1591.5,2453.42578125,1597.25L2453.42578125,1603" id="edge39" class="transition" marker-end="url(#statediagram-barbEnd)"></path><path d="M947.8203125,195L947.8203125,200.75C947.8203125,206.5,947.8203125,218,947.8203125,229.5C947.8203125,241,947.8203125,252.5,947.8203125,267.75C947.8203125,283,947.8203125,302,947.8203125,311.5L947.8203125,321" class="transition note-edge"></path><path d="M1745.15234375,604L1745.15234375,608.1666666666666C1745.15234375,612.3333333333334,1745.15234375,620.6666666666666,1745.15234375,630.5833333333334C1745.15234375,640.5,1745.15234375,652,1729.875090492278,663.5C1714.597837234556,675,1684.0433307191117,686.5,1668.7660774613898,692.25L1653.488824203668,698" class="transition note-edge"></path><path d="M3698.21484375,604L3698.21484375,608.1666666666666C3698.21484375,612.3333333333334,3698.21484375,620.6666666666666,3698.21484375,630.5833333333334C3698.21484375,640.5,3698.21484375,652,3664.0027600144786,663.5C3629.7906762789576,675,3561.3665088079156,686.5,3527.154425072394,692.25L3492.9423413368727,698" class="transition note-edge"></path><path d="M2868.96484375,387L2868.96484375,391.1666666666667C2868.96484375,395.3333333333333,2868.96484375,403.6666666666667,2868.96484375,413.5833333333333C2868.96484375,423.5,2868.96484375,435,2868.96484375,446.5C2868.96484375,458,2868.96484375,469.5,2858.0542871973535,482.5416666666667C2847.1437306447074,495.5833333333333,2825.3226175394143,510.1666666666667,2814.4120609867678,517.4583333333334L2803.5015044341217,524.75" class="transition note-edge"></path></g><g class="edgeLabels"><g class="edgeLabel"><g class="label" transform="translate(0, 0)"><rect rx="0" ry="0" width="0" height="0" style="fill:#e8e8e8;"></rect><text style=""></text></g></g><g class="edgeLabel"><g class="label" transform="translate(0, 0)"><rect rx="0" ry="0" width="0" height="0" style="fill:#e8e8e8;"></rect><text style=""></text></g></g><g class="edgeLabel" transform="translate(602.21484375, 146)"><g class="label" transform="translate(-60.0234375, -9.5)"><rect rx="0" ry="0" width="119.984375" height="19.03125" style="fill:#e8e8e8;"></rect><text style=""><tspan xml:space="preserve" dy="1em" x="0" class="row">ClientEventOpen</tspan></text></g></g><g class="edgeLabel" transform="translate(488.4453125, 229.5)"><g class="label" transform="translate(-89.9453125, -9.5)"><rect rx="0" ry="0" width="179.78125" height="19.03125" style="fill:#e8e8e8;"></rect><text style=""><tspan xml:space="preserve" dy="1em" x="0" class="row">ClientEventDealProposed</tspan></text></g></g><g class="edgeLabel" transform="translate(742.23828125, 446.5)"><g class="label" transform="translate(-89.546875, -9.5)"><rect rx="0" ry="0" width="178.984375" height="19.03125" style="fill:#e8e8e8;"></rect><text style=""><tspan xml:space="preserve" dy="1em" x="0" class="row">ClientEventDealRejected</tspan></text></g></g><g class="edgeLabel" transform="translate(965.27734375, 446.5)"><g class="label" transform="translate(-91.5390625, -9.5)"><rect rx="0" ry="0" width="182.96875" height="19.03125" style="fill:#e8e8e8;"></rect><text style=""><tspan xml:space="preserve" dy="1em" x="0" class="row">ClientEventDealNotFound</tspan></text></g></g><g class="edgeLabel" transform="translate(2758.23828125, 446.5)"><g class="label" transform="translate(-90.7265625, -9.5)"><rect rx="0" ry="0" width="181.34375" height="19.03125" style="fill:#e8e8e8;"></rect><text style=""><tspan xml:space="preserve" dy="1em" x="0" class="row">ClientEventDealAccepted</tspan></text></g></g><g class="edgeLabel" transform="translate(914.49609375, 1115.25)"><g class="label" transform="translate(-128.1484375, -9.5)"><rect rx="0" ry="0" width="256.140625" height="19.03125" style="fill:#e8e8e8;"></rect><text style=""><tspan xml:space="preserve" dy="1em" x="0" class="row">ClientEventPaymentChannelErrored</tspan></text></g></g><g class="edgeLabel" transform="translate(1062.64453125, 1050.5)"><g class="label" transform="translate(-128.1484375, -9.5)"><rect rx="0" ry="0" width="256.140625" height="19.03125" style="fill:#e8e8e8;"></rect><text style=""><tspan xml:space="preserve" dy="1em" x="0" class="row">ClientEventPaymentChannelErrored</tspan></text></g></g><g class="edgeLabel" transform="translate(1286.4765625, 663.5)"><g class="label" transform="translate(-155.9453125, -9.5)"><rect rx="0" ry="0" width="311.703125" height="19.03125" style="fill:#e8e8e8;"></rect><text style=""><tspan xml:space="preserve" dy="1em" x="0" class="row">ClientEventPaymentChannelCreateInitiated</tspan></text></g></g><g class="edgeLabel" transform="translate(3292.16015625, 663.5)"><g class="label" transform="translate(-146.359375, -9.5)"><rect rx="0" ry="0" width="292.546875" height="19.03125" style="fill:#e8e8e8;"></rect><text style=""><tspan xml:space="preserve" dy="1em" x="0" class="row">ClientEventPaymentChannelAddingFunds</tspan></text></g></g><g class="edgeLabel" transform="translate(2582.71875, 818)"><g class="label" transform="translate(-123.046875, -9.5)"><rect rx="0" ry="0" width="245.953125" height="19.03125" style="fill:#e8e8e8;"></rect><text style=""><tspan xml:space="preserve" dy="1em" x="0" class="row">ClientEventPaymentChannelReady</tspan></text></g></g><g class="edgeLabel" transform="translate(3792.27734375, 818)"><g class="label" transform="translate(-123.046875, -9.5)"><rect rx="0" ry="0" width="245.953125" height="19.03125" style="fill:#e8e8e8;"></rect><text style=""><tspan xml:space="preserve" dy="1em" x="0" class="row">ClientEventPaymentChannelReady</tspan></text></g></g><g class="edgeLabel" transform="translate(1257.3125, 1115.25)"><g class="label" transform="translate(-114.5859375, -9.5)"><rect rx="0" ry="0" width="229.03125" height="19.03125" style="fill:#e8e8e8;"></rect><text style=""><tspan xml:space="preserve" dy="1em" x="0" class="row">ClientEventAllocateLaneErrored</tspan></text></g></g><g class="edgeLabel" transform="translate(1740.75, 1115.25)"><g class="label" transform="translate(-114.5859375, -9.5)"><rect rx="0" ry="0" width="229.03125" height="19.03125" style="fill:#e8e8e8;"></rect><text style=""><tspan xml:space="preserve" dy="1em" x="0" class="row">ClientEventAllocateLaneErrored</tspan></text></g></g><g class="edgeLabel" transform="translate(2037.7578125, 1115.25)"><g class="label" transform="translate(-162.421875, -9.5)"><rect rx="0" ry="0" width="324.640625" height="19.03125" style="fill:#e8e8e8;"></rect><text style=""><tspan xml:space="preserve" dy="1em" x="0" class="row">ClientEventPaymentChannelAddFundsErrored</tspan></text></g></g><g class="edgeLabel" transform="translate(3845.80078125, 1180)"><g class="label" transform="translate(-124.703125, -9.5)"><rect rx="0" ry="0" width="249.265625" height="19.03125" style="fill:#e8e8e8;"></rect><text style=""><tspan xml:space="preserve" dy="1em" x="0" class="row">ClientEventLastPaymentRequested</tspan></text></g></g><g class="edgeLabel" transform="translate(3990.50390625, 1050.5)"><g class="label" transform="translate(-124.703125, -9.5)"><rect rx="0" ry="0" width="249.265625" height="19.03125" style="fill:#e8e8e8;"></rect><text style=""><tspan xml:space="preserve" dy="1em" x="0" class="row">ClientEventLastPaymentRequested</tspan></text></g></g><g class="edgeLabel" transform="translate(4231.66015625, 1244.75)"><g class="label" transform="translate(-124.703125, -9.5)"><rect rx="0" ry="0" width="249.265625" height="19.03125" style="fill:#e8e8e8;"></rect><text style=""><tspan xml:space="preserve" dy="1em" x="0" class="row">ClientEventLastPaymentRequested</tspan></text></g></g><g class="edgeLabel" transform="translate(3576.39453125, 1180)"><g class="label" transform="translate(-124.703125, -9.5)"><rect rx="0" ry="0" width="249.265625" height="19.03125" style="fill:#e8e8e8;"></rect><text style=""><tspan xml:space="preserve" dy="1em" x="0" class="row">ClientEventLastPaymentRequested</tspan></text></g></g><g class="edgeLabel" transform="translate(3233.91796875, 1115.25)"><g class="label" transform="translate(-110.0390625, -9.5)"><rect rx="0" ry="0" width="219.953125" height="19.03125" style="fill:#e8e8e8;"></rect><text style=""><tspan xml:space="preserve" dy="1em" x="0" class="row">ClientEventPaymentRequested</tspan></text></g></g><g class="edgeLabel" transform="translate(2861.515625, 999)"><g class="label" transform="translate(-110.0390625, -9.5)"><rect rx="0" ry="0" width="219.953125" height="19.03125" style="fill:#e8e8e8;"></rect><text style=""><tspan xml:space="preserve" dy="1em" x="0" class="row">ClientEventPaymentRequested</tspan></text></g></g><g class="edgeLabel" transform="translate(3190.71484375, 1050.5)"><g class="label" transform="translate(-110.0390625, -9.5)"><rect rx="0" ry="0" width="219.953125" height="19.03125" style="fill:#e8e8e8;"></rect><text style=""><tspan xml:space="preserve" dy="1em" x="0" class="row">ClientEventPaymentRequested</tspan></text></g></g><g class="edgeLabel" transform="translate(3511.375, 947.5)"><g class="label" transform="translate(-105.65625, -9.5)"><rect rx="0" ry="0" width="211.1875" height="19.03125" style="fill:#e8e8e8;"></rect><text style=""><tspan xml:space="preserve" dy="1em" x="0" class="row">ClientEventAllBlocksReceived</tspan></text></g></g><g class="edgeLabel" transform="translate(3773.92578125, 1309.5)"><g class="label" transform="translate(-105.65625, -9.5)"><rect rx="0" ry="0" width="211.1875" height="19.03125" style="fill:#e8e8e8;"></rect><text style=""><tspan xml:space="preserve" dy="1em" x="0" class="row">ClientEventAllBlocksReceived</tspan></text></g></g><g class="edgeLabel" transform="translate(3842.04296875, 999)"><g class="label" transform="translate(-105.65625, -9.5)"><rect rx="0" ry="0" width="211.1875" height="19.03125" style="fill:#e8e8e8;"></rect><text style=""><tspan xml:space="preserve" dy="1em" x="0" class="row">ClientEventAllBlocksReceived</tspan></text></g></g><g class="edgeLabel" transform="translate(3460.17578125, 1115.25)"><g class="label" transform="translate(-96.21875, -9.5)"><rect rx="0" ry="0" width="192.328125" height="19.03125" style="fill:#e8e8e8;"></rect><text style=""><tspan xml:space="preserve" dy="1em" x="0" class="row">ClientEventBlocksReceived</tspan></text></g></g><g class="edgeLabel" transform="translate(3670.67578125, 882.75)"><g class="label" transform="translate(-96.21875, -9.5)"><rect rx="0" ry="0" width="192.328125" height="19.03125" style="fill:#e8e8e8;"></rect><text style=""><tspan xml:space="preserve" dy="1em" x="0" class="row">ClientEventBlocksReceived</tspan></text></g></g><g class="edgeLabel" transform="translate(4472.58203125, 1244.75)"><g class="label" transform="translate(-96.21875, -9.5)"><rect rx="0" ry="0" width="192.328125" height="19.03125" style="fill:#e8e8e8;"></rect><text style=""><tspan xml:space="preserve" dy="1em" x="0" class="row">ClientEventBlocksReceived</tspan></text></g></g><g class="edgeLabel" transform="translate(2372.6171875, 1244.75)"><g class="label" transform="translate(-79.1171875, -9.5)"><rect rx="0" ry="0" width="158.140625" height="19.03125" style="fill:#e8e8e8;"></rect><text style=""><tspan xml:space="preserve" dy="1em" x="0" class="row">ClientEventSendFunds</tspan></text></g></g><g class="edgeLabel" transform="translate(4020.5390625, 1309.5)"><g class="label" transform="translate(-79.1171875, -9.5)"><rect rx="0" ry="0" width="158.140625" height="19.03125" style="fill:#e8e8e8;"></rect><text style=""><tspan xml:space="preserve" dy="1em" x="0" class="row">ClientEventSendFunds</tspan></text></g></g><g class="edgeLabel" transform="translate(2154.6015625, 1439)"><g class="label" transform="translate(-96.84375, -9.5)"><rect rx="0" ry="0" width="193.5625" height="19.03125" style="fill:#e8e8e8;"></rect><text style=""><tspan xml:space="preserve" dy="1em" x="0" class="row">ClientEventFundsExpended</tspan></text></g></g><g class="edgeLabel" transform="translate(2368.2890625, 1439)"><g class="label" transform="translate(-96.84375, -9.5)"><rect rx="0" ry="0" width="193.5625" height="19.03125" style="fill:#e8e8e8;"></rect><text style=""><tspan xml:space="preserve" dy="1em" x="0" class="row">ClientEventFundsExpended</tspan></text></g></g><g class="edgeLabel" transform="translate(2608.359375, 1439)"><g class="label" transform="translate(-123.2265625, -9.5)"><rect rx="0" ry="0" width="246.3125" height="19.03125" style="fill:#e8e8e8;"></rect><text style=""><tspan xml:space="preserve" dy="1em" x="0" class="row">ClientEventBadPaymentRequested</tspan></text></g></g><g class="edgeLabel" transform="translate(3250.3828125, 1439)"><g class="label" transform="translate(-123.2265625, -9.5)"><rect rx="0" ry="0" width="246.3125" height="19.03125" style="fill:#e8e8e8;"></rect><text style=""><tspan xml:space="preserve" dy="1em" x="0" class="row">ClientEventBadPaymentRequested</tspan></text></g></g><g class="edgeLabel" transform="translate(3510.078125, 1439)"><g class="label" transform="translate(-116.46875, -9.5)"><rect rx="0" ry="0" width="232.796875" height="19.03125" style="fill:#e8e8e8;"></rect><text style=""><tspan xml:space="preserve" dy="1em" x="0" class="row">ClientEventCreateVoucherFailed</tspan></text></g></g><g class="edgeLabel" transform="translate(4039.765625, 1439)"><g class="label" transform="translate(-116.46875, -9.5)"><rect rx="0" ry="0" width="232.796875" height="19.03125" style="fill:#e8e8e8;"></rect><text style=""><tspan xml:space="preserve" dy="1em" x="0" class="row">ClientEventCreateVoucherFailed</tspan></text></g></g><g class="edgeLabel" transform="translate(2657.91796875, 1115.25)"><g class="label" transform="translate(-88.3515625, -9.5)"><rect rx="0" ry="0" width="176.59375" height="19.03125" style="fill:#e8e8e8;"></rect><text style=""><tspan xml:space="preserve" dy="1em" x="0" class="row">ClientEventPaymentSent</tspan></text></g></g><g class="edgeLabel" transform="translate(4266.13671875, 1439)"><g class="label" transform="translate(-88.3515625, -9.5)"><rect rx="0" ry="0" width="176.59375" height="19.03125" style="fill:#e8e8e8;"></rect><text style=""><tspan xml:space="preserve" dy="1em" x="0" class="row">ClientEventPaymentSent</tspan></text></g></g><g class="edgeLabel" transform="translate(4266.13671875, 1568.5)"><g class="label" transform="translate(-75.875, -9.5)"><rect rx="0" ry="0" width="151.65625" height="19.03125" style="fill:#e8e8e8;"></rect><text style=""><tspan xml:space="preserve" dy="1em" x="0" class="row">ClientEventComplete</tspan></text></g></g><g class="edgeLabel" transform="translate(2453.42578125, 1568.5)"><g class="label" transform="translate(-54.671875, -9.5)"><rect rx="0" ry="0" width="109.28125" height="19.03125" style="fill:#e8e8e8;"></rect><text style=""><tspan xml:space="preserve" dy="1em" x="0" class="row">&lt;invalid Value&gt;</tspan></text></g></g><g class="edgeLabel"><g class="label" transform="translate(0, 0)"><rect rx="0" ry="0" width="0" height="0" style="fill:#e8e8e8;"></rect><text style=""></text></g></g><g class="edgeLabel"><g class="label" transform="translate(0, 0)"><rect rx="0" ry="0" width="0" height="0" style="fill:#e8e8e8;"></rect><text style=""></text></g></g><g class="edgeLabel"><g class="label" transform="translate(0, 0)"><rect rx="0" ry="0" width="0" height="0" style="fill:#e8e8e8;"></rect><text style=""></text></g></g><g class="edgeLabel"><g class="label" transform="translate(0, 0)"><rect rx="0" ry="0" width="0" height="0" style="fill:#e8e8e8;"></rect><text style=""></text></g></g></g><g class="nodes"><g class="node statediagram-state" id="0" transform="translate(383.26953125, 146)"><rect class="outer title-state" x="-102.59375" y="-30.25" width="205.1875" height="60.5"></rect><line class="divider" x1="-102.59375" x2="102.59375" y1="-3.75" y2="-3.75"></line><g class="label" transform="translate(-95.09375, -27.25)"><text style=""><tspan xml:space="preserve" dy="1em" x="0" class="title-row">DealStatusNew</tspan></text><text style="" transform="translate( 0, 26.5)"><tspan xml:space="preserve" dy="1em" x="0" class="title-row">On entry runs ProposeDeal</tspan></text></g></g><g class="node statediagram-state" id="3" transform="translate(947.8203125, 338)"><rect class="outer title-state" x="-114.9453125" y="-17" width="229.890625" height="34"></rect><line class="divider" x1="-114.9453125" x2="114.9453125" y1="9.5" y2="9.5"></line><g class="label" transform="translate(-107.4453125, -14)"><text style=""><tspan xml:space="preserve" dy="1em" x="0" class="title-row">DealStatusWaitForAcceptance</tspan></text><text style="" transform="translate( 0, 26.5)"><tspan xml:space="preserve" dy="1em" x="0" class="title-row"></tspan></text></g></g><g class="node statediagram-state" id="4" transform="translate(1573.1171875, 728.25)"><rect class="outer title-state" x="-170.59375" y="-30.25" width="341.1875" height="60.5"></rect><line class="divider" x1="-170.59375" x2="170.59375" y1="-3.75" y2="-3.75"></line><g class="label" transform="translate(-163.09375, -27.25)"><text style=""><tspan xml:space="preserve" dy="1em" x="0" class="title-row">DealStatusPaymentChannelCreating</tspan></text><text style="" transform="translate( 0, 26.5)"><tspan xml:space="preserve" dy="1em" x="0" class="title-row">On entry runs WaitForPaymentChannelCreate</tspan></text></g></g><g class="node statediagram-state" id="5" transform="translate(3312.95703125, 728.25)"><rect class="outer title-state" x="-180.8671875" y="-30.25" width="361.734375" height="60.5"></rect><line class="divider" x1="-180.8671875" x2="180.8671875" y1="-3.75" y2="-3.75"></line><g class="label" transform="translate(-173.3671875, -27.25)"><text style=""><tspan xml:space="preserve" dy="1em" x="0" class="title-row">DealStatusPaymentChannelAddingFunds</tspan></text><text style="" transform="translate( 0, 26.5)"><tspan xml:space="preserve" dy="1em" x="0" class="title-row">On entry runs WaitForPaymentChannelAddFunds</tspan></text></g></g><g class="node statediagram-state" id="6" transform="translate(2758.23828125, 555)"><rect class="outer title-state" x="-156.2421875" y="-30.25" width="312.484375" height="60.5"></rect><line class="divider" x1="-156.2421875" x2="156.2421875" y1="-3.75" y2="-3.75"></line><g class="label" transform="translate(-148.7421875, -27.25)"><text style=""><tspan xml:space="preserve" dy="1em" x="0" class="title-row">DealStatusAccepted</tspan></text><text style="" transform="translate( 0, 26.5)"><tspan xml:space="preserve" dy="1em" x="0" class="title-row">On entry runs SetupPaymentChannelStart</tspan></text></g></g><g class="node statediagram-state" id="7" transform="translate(2453.42578125, 1503.75)"><rect class="outer title-state" x="-98.421875" y="-30.25" width="196.84375" height="60.5"></rect><line class="divider" x1="-98.421875" x2="98.421875" y1="-3.75" y2="-3.75"></line><g class="label" transform="translate(-90.921875, -27.25)"><text style=""><tspan xml:space="preserve" dy="1em" x="0" class="title-row">DealStatusFailed</tspan></text><text style="" transform="translate( 0, 26.5)"><tspan xml:space="preserve" dy="1em" x="0" class="title-row">On entry runs CancelDeal</tspan></text></g></g><g class="node statediagram-state" id="8" transform="translate(742.23828125, 555)"><rect class="outer title-state" x="-77.609375" y="-17" width="155.21875" height="34"></rect><line class="divider" x1="-77.609375" x2="77.609375" y1="9.5" y2="9.5"></line><g class="label" transform="translate(-70.109375, -14)"><text style=""><tspan xml:space="preserve" dy="1em" x="0" class="title-row">DealStatusRejected</tspan></text><text style="" transform="translate( 0, 26.5)"><tspan xml:space="preserve" dy="1em" x="0" class="title-row"></tspan></text></g></g><g class="node statediagram-state" id="9" transform="translate(2935.07421875, 1115.25)"><rect class="outer title-state" x="-153.8046875" y="-30.25" width="307.609375" height="60.5"></rect><line class="divider" x1="-153.8046875" x2="153.8046875" y1="-3.75" y2="-3.75"></line><g class="label" transform="translate(-146.3046875, -27.25)"><text style=""><tspan xml:space="preserve" dy="1em" x="0" class="title-row">DealStatusFundsNeeded</tspan></text><text style="" transform="translate( 0, 26.5)"><tspan xml:space="preserve" dy="1em" x="0" class="title-row">On entry runs ProcessPaymentRequested</tspan></text></g></g><g class="node statediagram-state" id="10" transform="translate(2608.359375, 1374.25)"><rect class="outer title-state" x="-96.21875" y="-30.25" width="192.4375" height="60.5"></rect><line class="divider" x1="-96.21875" x2="96.21875" y1="-3.75" y2="-3.75"></line><g class="label" transform="translate(-88.71875, -27.25)"><text style=""><tspan xml:space="preserve" dy="1em" x="0" class="title-row">DealStatusSendFunds</tspan></text><text style="" transform="translate( 0, 26.5)"><tspan xml:space="preserve" dy="1em" x="0" class="title-row">On entry runs SendFunds</tspan></text></g></g><g class="node statediagram-state" id="11" transform="translate(3783.44921875, 1374.25)"><rect class="outer title-state" x="-128.8359375" y="-30.25" width="257.671875" height="60.5"></rect><line class="divider" x1="-128.8359375" x2="128.8359375" y1="-3.75" y2="-3.75"></line><g class="label" transform="translate(-121.3359375, -27.25)"><text style=""><tspan xml:space="preserve" dy="1em" x="0" class="title-row">DealStatusSendFundsLastPayment</tspan></text><text style="" transform="translate( 0, 26.5)"><tspan xml:space="preserve" dy="1em" x="0" class="title-row">On entry runs SendFunds</tspan></text></g></g><g class="node statediagram-state" id="12" transform="translate(3452.17578125, 882.75)"><rect class="outer title-state" x="-87.28125" y="-30.25" width="174.5625" height="60.5"></rect><line class="divider" x1="-87.28125" x2="87.28125" y1="-3.75" y2="-3.75"></line><g class="label" transform="translate(-79.78125, -27.25)"><text style=""><tspan xml:space="preserve" dy="1em" x="0" class="title-row">DealStatusOngoing</tspan></text><text style="" transform="translate( 0, 26.5)"><tspan xml:space="preserve" dy="1em" x="0" class="title-row">On entry runs Ongoing</tspan></text></g></g><g class="node statediagram-state" id="13" transform="translate(3918.15234375, 1244.75)"><rect class="outer title-state" x="-153.8046875" y="-30.25" width="307.609375" height="60.5"></rect><line class="divider" x1="-153.8046875" x2="153.8046875" y1="-3.75" y2="-3.75"></line><g class="label" transform="translate(-146.3046875, -27.25)"><text style=""><tspan xml:space="preserve" dy="1em" x="0" class="title-row">DealStatusFundsNeededLastPayment</tspan></text><text style="" transform="translate( 0, 26.5)"><tspan xml:space="preserve" dy="1em" x="0" class="title-row">On entry runs ProcessPaymentRequested</tspan></text></g></g><g class="node statediagram-state" id="14" transform="translate(4266.13671875, 1620)"><rect class="outer title-state" x="-84.2265625" y="-17" width="168.453125" height="34"></rect><line class="divider" x1="-84.2265625" x2="84.2265625" y1="9.5" y2="9.5"></line><g class="label" transform="translate(-76.7265625, -14)"><text style=""><tspan xml:space="preserve" dy="1em" x="0" class="title-row">DealStatusCompleted</tspan></text><text style="" transform="translate( 0, 26.5)"><tspan xml:space="preserve" dy="1em" x="0" class="title-row"></tspan></text></g></g><g class="node statediagram-state" id="15" transform="translate(965.27734375, 555)"><rect class="outer title-state" x="-95.4296875" y="-17" width="190.859375" height="34"></rect><line class="divider" x1="-95.4296875" x2="95.4296875" y1="9.5" y2="9.5"></line><g class="label" transform="translate(-87.9296875, -14)"><text style=""><tspan xml:space="preserve" dy="1em" x="0" class="title-row">DealStatusDealNotFound</tspan></text><text style="" transform="translate( 0, 26.5)"><tspan xml:space="preserve" dy="1em" x="0" class="title-row"></tspan></text></g></g><g class="node statediagram-state" id="16" transform="translate(2453.42578125, 1620)"><rect class="outer title-state" x="-72.0625" y="-17" width="144.125" height="34"></rect><line class="divider" x1="-72.0625" x2="72.0625" y1="9.5" y2="9.5"></line><g class="label" transform="translate(-64.5625, -14)"><text style=""><tspan xml:space="preserve" dy="1em" x="0" class="title-row">DealStatusErrored</tspan></text><text style="" transform="translate( 0, 26.5)"><tspan xml:space="preserve" dy="1em" x="0" class="title-row"></tspan></text></g></g><g class="node statediagram-state" id="17" transform="translate(3511.375, 999)"><rect class="outer title-state" x="-102.1875" y="-17" width="204.375" height="34"></rect><line class="divider" x1="-102.1875" x2="102.1875" y1="9.5" y2="9.5"></line><g class="label" transform="translate(-94.6875, -14)"><text style=""><tspan xml:space="preserve" dy="1em" x="0" class="title-row">DealStatusBlocksComplete</tspan></text><text style="" transform="translate( 0, 26.5)"><tspan xml:space="preserve" dy="1em" x="0" class="title-row"></tspan></text></g></g><g class="node statediagram-state" id="18" transform="translate(4266.13671875, 1503.75)"><rect class="outer title-state" x="-79.5" y="-17" width="159" height="34"></rect><line class="divider" x1="-79.5" x2="79.5" y1="9.5" y2="9.5"></line><g class="label" transform="translate(-72, -14)"><text style=""><tspan xml:space="preserve" dy="1em" x="0" class="title-row">DealStatusFinalizing</tspan></text><text style="" transform="translate( 0, 26.5)"><tspan xml:space="preserve" dy="1em" x="0" class="title-row"></tspan></text></g></g><g class="node default" id="root_start" transform="translate(383.26953125, 15)"><circle class="state-start" r="7" width="14" height="14"></circle></g><g class="node statediagram-note" id="0----note" transform="translate(328.296875, 338)"><rect x="-285.296875" y="-49" width="570.59375" height="98"></rect><g class="label" transform="translate(-277.796875, -41.5)"><text style=""><tspan xml:space="preserve" dy="1em" x="0" class="row">The following events are not shown cause they can trigger from any state.</tspan><tspan xml:space="preserve" dy="1em" x="0" class="row"></tspan><tspan xml:space="preserve" dy="1em" x="0" class="row">ClientEventWriteDealProposalErrored - transitions state to DealStatusErrored</tspan><tspan xml:space="preserve" dy="1em" x="0" class="row">ClientEventUnknownResponseReceived - transitions state to DealStatusFailed</tspan><tspan xml:space="preserve" dy="1em" x="0" class="row">ClientEventDataTransferError - transitions state to DealStatusErrored</tspan><tspan xml:space="preserve" dy="1em" x="0" class="row">ClientEventWriteDealPaymentErrored - transitions state to DealStatusErrored</tspan></text></g></g><g class="node statediagram-note" id="3----note" transform="translate(947.8203125, 146)"><rect x="-173.125" y="-49" width="346.25" height="98"></rect><g class="label" transform="translate(-165.625, -41.5)"><text style=""><tspan xml:space="preserve" dy="1em" x="0" class="row">The following events only record in this state.</tspan><tspan xml:space="preserve" dy="1em" x="0" class="row"></tspan><tspan xml:space="preserve" dy="1em" x="0" class="row">ClientEventLastPaymentRequested</tspan><tspan xml:space="preserve" dy="1em" x="0" class="row">ClientEventPaymentRequested</tspan><tspan xml:space="preserve" dy="1em" x="0" class="row">ClientEventAllBlocksReceived</tspan><tspan xml:space="preserve" dy="1em" x="0" class="row">ClientEventBlocksReceived</tspan></text></g></g><g class="node statediagram-note" id="4----note" transform="translate(1745.15234375, 555)"><rect x="-173.125" y="-49" width="346.25" height="98"></rect><g class="label" transform="translate(-165.625, -41.5)"><text style=""><tspan xml:space="preserve" dy="1em" x="0" class="row">The following events only record in this state.</tspan><tspan xml:space="preserve" dy="1em" x="0" class="row"></tspan><tspan xml:space="preserve" dy="1em" x="0" class="row">ClientEventLastPaymentRequested</tspan><tspan xml:space="preserve" dy="1em" x="0" class="row">ClientEventPaymentRequested</tspan><tspan xml:space="preserve" dy="1em" x="0" class="row">ClientEventAllBlocksReceived</tspan><tspan xml:space="preserve" dy="1em" x="0" class="row">ClientEventBlocksReceived</tspan></text></g></g><g class="node statediagram-note" id="5----note" transform="translate(3698.21484375, 555)"><rect x="-173.125" y="-49" width="346.25" height="98"></rect><g class="label" transform="translate(-165.625, -41.5)"><text style=""><tspan xml:space="preserve" dy="1em" x="0" class="row">The following events only record in this state.</tspan><tspan xml:space="preserve" dy="1em" x="0" class="row"></tspan><tspan xml:space="preserve" dy="1em" x="0" class="row">ClientEventLastPaymentRequested</tspan><tspan xml:space="preserve" dy="1em" x="0" class="row">ClientEventPaymentRequested</tspan><tspan xml:space="preserve" dy="1em" x="0" class="row">ClientEventAllBlocksReceived</tspan><tspan xml:space="preserve" dy="1em" x="0" class="row">ClientEventBlocksReceived</tspan></text></g></g><g class="node statediagram-note" id="6----note" transform="translate(2868.96484375, 338)"><rect x="-173.125" y="-49" width="346.25" height="98"></rect><g class="label" transform="translate(-165.625, -41.5)"><text style=""><tspan xml:space="preserve" dy="1em" x="0" class="row">The following events only record in this state.</tspan><tspan xml:space="preserve" dy="1em" x="0" class="row"></tspan><tspan xml:space="preserve" dy="1em" x="0" class="row">ClientEventLastPaymentRequested</tspan><tspan xml:space="preserve" dy="1em" x="0" class="row">ClientEventPaymentRequested</tspan><tspan xml:space="preserve" dy="1em" x="0" class="row">ClientEventAllBlocksReceived</tspan><tspan xml:space="preserve" dy="1em" x="0" class="row">ClientEventBlocksReceived</tspan></text></g></g></g></g></g></svg>