<svg id="mermaid-1597958105178" width="4578.98046875" xmlns="http://www.w3.org/2000/svg" class="statediagram" height="1661" viewBox="0 0 4578.98046875 1661"><style>#mermaid-1597958105178 .label{font-family:'trebuchet ms', verdana, arial;font-family:var(--mermaid-font-family);color:#333}#mermaid-1597958105178 .label text{fill:#333}#mermaid-1597958105178 .node rect,#mermaid-1597958105178 .node circle,#mermaid-1597958105178 .node ellipse,#mermaid-1597958105178 .node polygon,#mermaid-1597958105178 .node path{fill:#ECECFF;stroke:#9370db;stroke-width:1px}#mermaid-1597958105178 .node .label{text-align:center}#mermaid-1597958105178 .node.clickable{cursor:pointer}#mermaid-1597958105178 .arrowheadPath{fill:#333}#mermaid-1597958105178 .edgePath .path{stroke:#333;stroke-width:1.5px}#mermaid-1597958105178 .edgeLabel{background-color:#e8e8e8;text-align:center}#mermaid-1597958105178 .edgeLabel rect{opacity:0.5}#mermaid-1597958105178 .cluster rect{fill:#ffffde;stroke:#aa3;stroke-width:1px}#mermaid-1597958105178 .cluster text{fill:#333}#mermaid-1597958105178 div.mermaidTooltip{position:absolute;text-align:center;max-width:200px;padding:2px;font-family:'trebuchet ms', verdana, arial;font-family:var(--mermaid-font-family);font-size:12px;background:#ffffde;border:1px solid #aa3;border-radius:2px;pointer-events:none;z-index:100}#mermaid-1597958105178 .actor{stroke:#ccf;fill:#ECECFF}#mermaid-1597958105178 text.actor{fill:#000;stroke:none}#mermaid-1597958105178 .actor-line{stroke:grey}#mermaid-1597958105178 .messageLine0{stroke-width:1.5;stroke-dasharray:'2 2';stroke:#333}#mermaid-1597958105178 .messageLine1{stroke-width:1.5;stroke-dasharray:'2 2';stroke:#333}#mermaid-1597958105178 #arrowhead{fill:#333}#mermaid-1597958105178 .sequenceNumber{fill:#fff}#mermaid-1597958105178 #sequencenumber{fill:#333}#mermaid-1597958105178 #crosshead path{fill:#333 !important;stroke:#333 !important}#mermaid-1597958105178 .messageText{fill:#333;stroke:none}#mermaid-1597958105178 .labelBox{stroke:#ccf;fill:#ECECFF}#mermaid-1597958105178 .labelText{fill:#000;stroke:none}#mermaid-1597958105178 .loopText{fill:#000;stroke:none}#mermaid-1597958105178 .loopLine{stroke-width:2;stroke-dasharray:'2 2';stroke:#ccf}#mermaid-1597958105178 .note{stroke:#aa3;fill:#fff5ad}#mermaid-1597958105178 .noteText{fill:black;stroke:none;font-family:'trebuchet ms', verdana, arial;font-family:var(--mermaid-font-family);font-size:14px}#mermaid-1597958105178 .activation0{fill:#f4f4f4;stroke:#666}#mermaid-1597958105178 .activation1{fill:#f4f4f4;stroke:#666}#mermaid-1597958105178 .activation2{fill:#f4f4f4;stroke:#666}#mermaid-1597958105178 .mermaid-main-font{font-family:"trebuchet ms", verdana, arial;font-family:var(--mermaid-font-family)}#mermaid-1597958105178 .section{stroke:none;opacity:0.2}#mermaid-1597958105178 .section0{fill:rgba(102,102,255,0.49)}#mermaid-1597958105178 .section2{fill:#fff400}#mermaid-1597958105178 .section1,#mermaid-1597958105178 .section3{fill:#fff;opacity:0.2}#mermaid-1597958105178 .sectionTitle0{fill:#333}#mermaid-1597958105178 .sectionTitle1{fill:#333}#mermaid-1597958105178 .sectionTitle2{fill:#333}#mermaid-1597958105178 .sectionTitle3{fill:#333}#mermaid-1597958105178 .sectionTitle{text-anchor:start;font-size:11px;text-height:14px;font-family:'trebuchet ms', verdana, arial;font-family:var(--mermaid-font-family)}#mermaid-1597958105178 .grid .tick{stroke:#d3d3d3;opacity:0.8;shape-rendering:crispEdges}#mermaid-1597958105178 .grid .tick text{font-family:'trebuchet ms', verdana, arial;font-family:var(--mermaid-font-family)}#mermaid-1597958105178 .grid path{stroke-width:0}#mermaid-1597958105178 .today{fill:none;stroke:red;stroke-width:2px}#mermaid-1597958105178 .task{stroke-width:2}#mermaid-1597958105178 .taskText{text-anchor:middle;font-family:'trebuchet ms', verdana, arial;font-family:var(--mermaid-font-family)}#mermaid-1597958105178 .taskText:not([font-size]){font-size:11px}#mermaid-1597958105178 .taskTextOutsideRight{fill:#000;text-anchor:start;font-size:11px;font-family:'trebuchet ms', verdana, arial;font-family:var(--mermaid-font-family)}#mermaid-1597958105178 .taskTextOutsideLeft{fill:#000;text-anchor:end;font-size:11px}#mermaid-1597958105178 .task.clickable{cursor:pointer}#mermaid-1597958105178 .taskText.clickable{cursor:pointer;fill:#003163 !important;font-weight:bold}#mermaid-1597958105178 .taskTextOutsideLeft.clickable{cursor:pointer;fill:#003163 !important;font-weight:bold}#mermaid-1597958105178 .taskTextOutsideRight.clickable{cursor:pointer;fill:#003163 !important;font-weight:bold}#mermaid-1597958105178 .taskText0,#mermaid-1597958105178 .taskText1,#mermaid-1597958105178 .taskText2,#mermaid-1597958105178 .taskText3{fill:#fff}#mermaid-1597958105178 .task0,#mermaid-1597958105178 .task1,#mermaid-1597958105178 .task2,#mermaid-1597958105178 .task3{fill:#8a90dd;stroke:#534fbc}#mermaid-1597958105178 .taskTextOutside0,#mermaid-1597958105178 .taskTextOutside2{fill:#000}#mermaid-1597958105178 .taskTextOutside1,#mermaid-1597958105178 .taskTextOutside3{fill:#000}#mermaid-1597958105178 .active0,#mermaid-1597958105178 .active1,#mermaid-1597958105178 .active2,#mermaid-1597958105178 .active3{fill:#bfc7ff;stroke:#534fbc}#mermaid-1597958105178 .activeText0,#mermaid-1597958105178 .activeText1,#mermaid-1597958105178 .activeText2,#mermaid-1597958105178 .activeText3{fill:#000 !important}#mermaid-1597958105178 .done0,#mermaid-1597958105178 .done1,#mermaid-1597958105178 .done2,#mermaid-1597958105178 .done3{stroke:grey;fill:#d3d3d3;stroke-width:2}#mermaid-1597958105178 .doneText0,#mermaid-1597958105178 .doneText1,#mermaid-1597958105178 .doneText2,#mermaid-1597958105178 .doneText3{fill:#000 !important}#mermaid-1597958105178 .crit0,#mermaid-1597958105178 .crit1,#mermaid-1597958105178 .crit2,#mermaid-1597958105178 .crit3{stroke:#f88;fill:red;stroke-width:2}#mermaid-1597958105178 .activeCrit0,#mermaid-1597958105178 .activeCrit1,#mermaid-1597958105178 .activeCrit2,#mermaid-1597958105178 .activeCrit3{stroke:#f88;fill:#bfc7ff;stroke-width:2}#mermaid-1597958105178 .doneCrit0,#mermaid-1597958105178 .doneCrit1,#mermaid-1597958105178 .doneCrit2,#mermaid-1597958105178 .doneCrit3{stroke:#f88;fill:#d3d3d3;stroke-width:2;cursor:pointer;shape-rendering:crispEdges}#mermaid-1597958105178 .milestone{transform:rotate(45deg) scale(0.8, 0.8)}#mermaid-1597958105178 .milestoneText{font-style:italic}#mermaid-1597958105178 .doneCritText0,#mermaid-1597958105178 .doneCritText1,#mermaid-1597958105178 .doneCritText2,#mermaid-1597958105178 .doneCritText3{fill:#000 !important}#mermaid-1597958105178 .activeCritText0,#mermaid-1597958105178 .activeCritText1,#mermaid-1597958105178 .activeCritText2,#mermaid-1597958105178 .activeCritText3{fill:#000 !important}#mermaid-1597958105178 .titleText{text-anchor:middle;font-size:18px;fill:#000;font-family:'trebuchet ms', verdana, arial;font-family:var(--mermaid-font-family)}#mermaid-1597958105178 g.classGroup text{fill:#9370db;stroke:none;font-family:'trebuchet ms', verdana, arial;font-family:var(--mermaid-font-family);font-size:10px}#mermaid-1597958105178 g.classGroup text .title{font-weight:bolder}#mermaid-1597958105178 g.clickable{cursor:pointer}#mermaid-1597958105178 g.classGroup rect{fill:#ECECFF;stroke:#9370db}#mermaid-1597958105178 g.classGroup line{stroke:#9370db;stroke-width:1}#mermaid-1597958105178 .classLabel .box{stroke:none;stroke-width:0;fill:#ECECFF;opacity:0.5}#mermaid-1597958105178 .classLabel .label{fill:#9370db;font-size:10px}#mermaid-1597958105178 .relation{stroke:#9370db;stroke-width:1;fill:none}#mermaid-1597958105178 .dashed-line{stroke-dasharray:3}#mermaid-1597958105178 #compositionStart{fill:#9370db;stroke:#9370db;stroke-width:1}#mermaid-1597958105178 #compositionEnd{fill:#9370db;stroke:#9370db;stroke-width:1}#mermaid-1597958105178 #aggregationStart{fill:#ECECFF;stroke:#9370db;stroke-width:1}#mermaid-1597958105178 #aggregationEnd{fill:#ECECFF;stroke:#9370db;stroke-width:1}#mermaid-1597958105178 #dependencyStart{fill:#9370db;stroke:#9370db;stroke-width:1}#mermaid-1597958105178 #dependencyEnd{fill:#9370db;stroke:#9370db;stroke-width:1}#mermaid-1597958105178 #extensionStart{fill:#9370db;stroke:#9370db;stroke-width:1}#mermaid-1597958105178 #extensionEnd{fill:#9370db;stroke:#9370db;stroke-width:1}#mermaid-1597958105178 .commit-id,#mermaid-1597958105178 .commit-msg,#mermaid-1597958105178 .branch-label{fill:lightgrey;color:lightgrey;font-family:'trebuchet ms', verdana, arial;font-family:var(--mermaid-font-family)}#mermaid-1597958105178 .pieTitleText{text-anchor:middle;font-size:25px;fill:#000;font-family:'trebuchet ms', verdana, arial;font-family:var(--mermaid-font-family)}#mermaid-1597958105178 .slice{font-family:'trebuchet ms', verdana, arial;font-family:var(--mermaid-font-family)}#mermaid-1597958105178 g.stateGroup text{fill:#9370db;stroke:none;font-size:10px;font-family:'trebuchet ms', verdana, arial;font-family:var(--mermaid-font-family)}#mermaid-1597958105178 g.stateGroup text{fill:#9370db;stroke:none;font-size:10px}#mermaid-1597958105178 g.stateGroup .state-title{font-weight:bolder;fill:#000}#mermaid-1597958105178 g.stateGroup rect{fill:#ECECFF;stroke:#9370db}#mermaid-1597958105178 g.stateGroup line{stroke:#9370db;stroke-width:1}#mermaid-1597958105178 .transition{stroke:#9370db;stroke-width:1;fill:none}#mermaid-1597958105178 .stateGroup .composit{fill:white;border-bottom:1px}#mermaid-1597958105178 .stateGroup .alt-composit{fill:#e0e0e0;border-bottom:1px}#mermaid-1597958105178 .state-note{stroke:#aa3;fill:#fff5ad}#mermaid-1597958105178 .state-note text{fill:black;stroke:none;font-size:10px}#mermaid-1597958105178 .stateLabel .box{stroke:none;stroke-width:0;fill:#ECECFF;opacity:0.5}#mermaid-1597958105178 .stateLabel text{fill:#000;font-size:10px;font-weight:bold;font-family:'trebuchet ms', verdana, arial;font-family:var(--mermaid-font-family)}#mermaid-1597958105178 .node circle.state-start{fill:black;stroke:black}#mermaid-1597958105178 .node circle.state-end{fill:black;stroke:white;stroke-width:1.5}#mermaid-1597958105178 #statediagram-barbEnd{fill:#9370db}#mermaid-1597958105178 .statediagram-cluster rect{fill:#ECECFF;stroke:#9370db;stroke-width:1px}#mermaid-1597958105178 .statediagram-cluster rect.outer{rx:5px;ry:5px}#mermaid-1597958105178 .statediagram-state .divider{stroke:#9370db}#mermaid-1597958105178 .statediagram-state .title-state{rx:5px;ry:5px}#mermaid-1597958105178 .statediagram-cluster.statediagram-cluster .inner{fill:white}#mermaid-1597958105178 .statediagram-cluster.statediagram-cluster-alt .inner{fill:#e0e0e0}#mermaid-1597958105178 .statediagram-cluster .inner{rx:0;ry:0}#mermaid-1597958105178 .statediagram-state rect.basic{rx:5px;ry:5px}#mermaid-1597958105178 .statediagram-state rect.divider{stroke-dasharray:10,10;fill:#efefef}#mermaid-1597958105178 .note-edge{stroke-dasharray:5}#mermaid-1597958105178 .statediagram-note rect{fill:#fff5ad;stroke:#aa3;stroke-width:1px;rx:0;ry:0}:root{--mermaid-font-family: '"trebuchet ms", verdana, arial';--mermaid-font-family: "Comic Sans MS", "Comic Sans", cursive}

:root { --mermaid-font-family: "trebuchet ms", verdana, arial;}</style><style>#mermaid-1597958105178 {
    color: rgb(0, 0, 0);
    font: 16px "trebuchet ms", verdana, arial;
  }</style><g><defs><marker id="statediagram-barbEnd" refX="19" refY="7" markerWidth="20" markerHeight="14" markerUnits="0" orient="auto"><path d="M 19,7 L9,13 L14,7 L9,1 Z"></path></marker></defs><g class="root"><g class="clusters"><g class="note-cluster" id="0----parent"><rect x="8" y="72" width="676.41796875" height="356" fill="none"></rect></g><g class="note-cluster" id="3----parent"><rect x="704.41796875" y="72" width="491.1640625" height="356" fill="none"></rect></g><g class="note-cluster" id="4----parent"><rect x="1097.88671875" y="497" width="857.5703125" height="302.5" fill="none"></rect></g><g class="note-cluster" id="5----parent"><rect x="3206.734375" y="497" width="809.1640625" height="302.5" fill="none"></rect></g><g class="note-cluster" id="6----parent"><rect x="2469.625" y="264" width="717.109375" height="381" fill="none"></rect></g></g><g class="edgePaths"><path d="M384.72265625,22L384.72265625,26.166666666666668C384.72265625,30.333333333333332,384.72265625,38.666666666666664,384.72265625,47C384.72265625,55.333333333333336,384.72265625,63.666666666666664,384.72265625,75.125C384.72265625,86.58333333333333,384.72265625,101.16666666666667,384.72265625,108.45833333333333L384.72265625,115.75" id="edge0" class="transition" marker-end="url(#statediagram-barbEnd)"></path><path d="M364.80741251871257,176.25L358.9645104322605,185.125C353.1216083458084,194,341.4358041729042,211.75,335.5929020864521,226.375C329.75,241,329.75,252.5,329.75,262.4166666666667C329.75,272.3333333333333,329.75,280.6666666666667,329.75,284.8333333333333L329.75,289" class="transition note-edge"></path><path d="M487.31640625,128.8201908661054L500.3250868055555,126.6418257217545C513.3337673611111,124.46346057740361,539.3511284722222,120.1067302887018,555.6119791666666,117.92836514435089C571.8728298611111,115.75,578.3771701388889,115.75,584.8815104166666,120.79166666666667C591.3858506944445,125.83333333333333,597.8901909722223,135.91666666666666,597.8901909722223,146C597.8901909722223,156.08333333333334,591.3858506944445,166.16666666666666,584.8815104166666,171.20833333333334C578.3771701388889,176.25,571.8728298611111,176.25,555.6119791666666,174.0716348556491C539.3511284722222,171.89326971129822,513.3337673611111,167.5365394225964,500.3250868055555,165.3581742782455L487.31640625,163.1798091338946" id="edge1" class="transition" marker-end="url(#statediagram-barbEnd)"></path><path d="M423.0884753929641,176.25L434.3445628274701,185.125C445.600650261976,194,468.112825130988,211.75,479.368912565494,226.375C490.625,241,490.625,252.5,552.635924796748,269.0833333333333C614.646849593496,285.6666666666667,738.668699186992,307.3333333333333,800.6796239837398,318.1666666666667L862.6905487804878,329" id="edge2" class="transition" marker-end="url(#statediagram-barbEnd)"></path><path d="M915.3061642530488,363L886.8247983358739,373.8333333333333C858.3434324186992,384.6666666666667,801.3807005843496,406.3333333333333,772.8993346671747,422.9166666666667C744.41796875,439.5,744.41796875,451,744.41796875,462.5C744.41796875,474,744.41796875,485.5,744.41796875,500.75C744.41796875,516,744.41796875,535,744.41796875,544.5L744.41796875,554" id="edge3" class="transition" marker-end="url(#statediagram-barbEnd)"></path><path d="M961.5459698932926,363L962.5311467860771,373.8333333333333C963.5163236788618,384.6666666666667,965.486677464431,406.3333333333333,966.4718543572154,422.9166666666667C967.45703125,439.5,967.45703125,451,967.45703125,462.5C967.45703125,474,967.45703125,485.5,967.45703125,500.75C967.45703125,516,967.45703125,535,967.45703125,544.5L967.45703125,554" id="edge4" class="transition" marker-end="url(#statediagram-barbEnd)"></path><path d="M981.0467320884146,363L994.4588652820122,373.8333333333333C1007.8709984756097,384.6666666666667,1034.6952648628048,406.3333333333333,1301.2460699314024,422.9166666666667C1567.796875,439.5,2074.07421875,451,2327.212890625,462.5C2580.3515625,474,2580.3515625,485.5,2604.4428534980293,498.5416666666667C2628.5341444960586,511.5833333333333,2676.7167264921172,526.1666666666666,2700.8080174901465,533.4583333333334L2724.899308488176,540.75" id="edge5" class="transition" marker-end="url(#statediagram-barbEnd)"></path><path d="M1404.703125,770.1001408812848L1372.3665364583333,775.0001174010707C1340.0299479166667,779.9000939208566,1275.3567708333333,789.7000469604283,1190.5169270833333,800.3500234802141C1105.6770833333333,811,1000.6705729166666,822.5,948.1673177083334,839.0416666666666C895.6640625,855.5833333333334,895.6640625,877.1666666666666,895.6640625,898.75C895.6640625,920.3333333333334,895.6640625,941.9166666666666,895.6640625,961.2916666666666C895.6640625,980.6666666666666,895.6640625,997.8333333333334,895.6640625,1015C895.6640625,1032.1666666666667,895.6640625,1049.3333333333333,895.6640625,1068.7083333333333C895.6640625,1088.0833333333333,895.6640625,1109.6666666666667,895.6640625,1131.25C895.6640625,1152.8333333333333,895.6640625,1174.4166666666667,895.6640625,1196C895.6640625,1217.5833333333333,895.6640625,1239.1666666666667,895.6640625,1260.75C895.6640625,1282.3333333333333,895.6640625,1303.9166666666667,895.6640625,1325.5C895.6640625,1347.0833333333333,895.6640625,1368.6666666666667,895.6640625,1390.25C895.6640625,1411.8333333333333,895.6640625,1433.4166666666667,1156.501953125,1454.3614857275254C1417.33984375,1475.3063047883843,1939.015625,1495.6126095767688,2199.853515625,1505.765761970961L2460.69140625,1515.9189143651533" id="edge6" class="transition" marker-end="url(#statediagram-barbEnd)"></path><path d="M2760.4155933277025,601.25L2744.8853902730857,608.5416666666666C2729.3551872184685,615.8333333333334,2698.294781109234,630.4166666666666,2412.1942655546172,643.4583333333334C2126.09375,656.5,1584.953125,668,1314.3828125,684.5416666666666C1043.8125,701.0833333333334,1043.8125,722.6666666666666,1043.8125,742.6666666666666C1043.8125,762.6666666666666,1043.8125,781.0833333333334,1043.8125,796.0416666666666C1043.8125,811,1043.8125,822.5,1043.8125,839.0416666666666C1043.8125,855.5833333333334,1043.8125,877.1666666666666,1043.8125,898.75C1043.8125,920.3333333333334,1043.8125,941.9166666666666,1043.8125,961.2916666666666C1043.8125,980.6666666666666,1043.8125,997.8333333333334,1043.8125,1015C1043.8125,1032.1666666666667,1043.8125,1049.3333333333333,1043.8125,1068.7083333333333C1043.8125,1088.0833333333333,1043.8125,1109.6666666666667,1043.8125,1131.25C1043.8125,1152.8333333333333,1043.8125,1174.4166666666667,1043.8125,1196C1043.8125,1217.5833333333333,1043.8125,1239.1666666666667,1043.8125,1260.75C1043.8125,1282.3333333333333,1043.8125,1303.9166666666667,1043.8125,1325.5C1043.8125,1347.0833333333333,1043.8125,1368.6666666666667,1043.8125,1390.25C1043.8125,1411.8333333333333,1043.8125,1433.4166666666667,1279.958984375,1454.2990592489286C1516.10546875,1475.1814518311905,1988.3984375,1495.3629036623813,2224.544921875,1505.453629577977L2460.69140625,1515.544355493572" id="edge7" class="transition" marker-end="url(#statediagram-barbEnd)"></path><path d="M2830.295264991554,601.25L2831.6093354096283,608.5416666666666C2832.923405827703,615.8333333333334,2835.5515466638512,630.4166666666666,2578.6117108319254,643.4583333333334C2321.671875,656.5,1805.1640625,668,1572.3647291264479,679.5C1339.5653957528957,691,1390.4745415057914,702.5,1415.9291143822393,708.25L1441.3836872586871,714" id="edge8" class="transition" marker-end="url(#statediagram-barbEnd)"></path><path d="M2894.7234216638512,601.25L2911.5676951365426,608.5416666666666C2928.4119686092345,615.8333333333334,2962.1005155546172,630.4166666666666,3045.954554652309,643.4583333333334C3129.80859375,656.5,3263.828125,668,3338.2245038006754,679.5C3412.6208826013512,691,3427.394108952703,702.5,3434.7807221283783,708.25L3442.167335304054,714" id="edge9" class="transition" marker-end="url(#statediagram-barbEnd)"></path><path d="M1720.9883519513573,774.5L1741.056048501131,778.6666666666666C1761.123745050905,782.8333333333334,1801.2591381504524,791.1666666666666,1945.2441524085596,801.0833333333334C2089.2291666666665,811,2337.0638020833335,822.5,2608.5950520833335,838.0735842510476C2880.1263020833335,853.647168502095,3175.3541666666665,873.29433700419,3322.9680989583335,883.1179212552375L3470.58203125,892.9415055062851" id="edge10" class="transition" marker-end="url(#statediagram-barbEnd)"></path><path d="M3661.89453125,768.2174102458403L3701.2395833333335,773.4311752048669C3740.5846354166665,778.6449401638935,3819.2747395833335,789.0724700819468,3858.6197916666665,800.0362350409733C3897.96484375,811,3897.96484375,822.5,3855.828125,836.2721699630165C3813.69140625,850.0443399260331,3729.41796875,866.0886798520663,3687.28125,874.1108498150828L3645.14453125,882.1330197780994" id="edge11" class="transition" marker-end="url(#statediagram-barbEnd)"></path><path d="M1404.703125,771.600381428458L1375.6998697916667,776.2503178570483C1346.6966145833333,780.9002542856388,1288.6901041666667,790.2001271428194,1259.6868489583333,800.6000635714096C1230.68359375,811,1230.68359375,822.5,1230.68359375,839.0416666666666C1230.68359375,855.5833333333334,1230.68359375,877.1666666666666,1230.68359375,898.75C1230.68359375,920.3333333333334,1230.68359375,941.9166666666666,1230.68359375,961.2916666666666C1230.68359375,980.6666666666666,1230.68359375,997.8333333333334,1230.68359375,1015C1230.68359375,1032.1666666666667,1230.68359375,1049.3333333333333,1230.68359375,1068.7083333333333C1230.68359375,1088.0833333333333,1230.68359375,1109.6666666666667,1230.68359375,1131.25C1230.68359375,1152.8333333333333,1230.68359375,1174.4166666666667,1230.68359375,1196C1230.68359375,1217.5833333333333,1230.68359375,1239.1666666666667,1230.68359375,1260.75C1230.68359375,1282.3333333333333,1230.68359375,1303.9166666666667,1230.68359375,1325.5C1230.68359375,1347.0833333333333,1230.68359375,1368.6666666666667,1230.68359375,1390.25C1230.68359375,1411.8333333333333,1230.68359375,1433.4166666666667,1435.6848958333333,1454.2004574440764C1640.6861979166667,1474.9842482214863,2050.6888020833335,1494.9684964429728,2255.6901041666665,1504.960620553716L2460.69140625,1514.9527446644593" id="edge12" class="transition" marker-end="url(#statediagram-barbEnd)"></path><path d="M3400.8939302884614,774.5L3389.8562700320513,778.6666666666666C3378.8186097756407,782.8333333333334,3356.7432892628203,791.1666666666666,3080.4159154647436,801.0833333333334C2804.0885416666665,811,2273.5091145833335,822.5,2008.2194010416667,839.0416666666666C1742.9296875,855.5833333333334,1742.9296875,877.1666666666666,1742.9296875,898.75C1742.9296875,920.3333333333334,1742.9296875,941.9166666666666,1742.9296875,961.2916666666666C1742.9296875,980.6666666666666,1742.9296875,997.8333333333334,1742.9296875,1015C1742.9296875,1032.1666666666667,1742.9296875,1049.3333333333333,1742.9296875,1068.7083333333333C1742.9296875,1088.0833333333333,1742.9296875,1109.6666666666667,1742.9296875,1131.25C1742.9296875,1152.8333333333333,1742.9296875,1174.4166666666667,1742.9296875,1196C1742.9296875,1217.5833333333333,1742.9296875,1239.1666666666667,1742.9296875,1260.75C1742.9296875,1282.3333333333333,1742.9296875,1303.9166666666667,1742.9296875,1325.5C1742.9296875,1347.0833333333333,1742.9296875,1368.6666666666667,1742.9296875,1390.25C1742.9296875,1411.8333333333333,1742.9296875,1433.4166666666667,1862.556640625,1453.6986554546775C1982.18359375,1473.9806442426882,2221.4375,1492.9612884853766,2341.064453125,1502.4516106067204L2460.69140625,1511.9419327280646" id="edge13" class="transition" marker-end="url(#statediagram-barbEnd)"></path><path d="M3487.6766119909503,774.5L3488.5924891591253,778.6666666666666C3489.5083663273,782.8333333333334,3491.34012066365,791.1666666666666,3250.0502686651585,801.0833333333334C3008.7604166666665,811,2524.3489583333335,822.5,2282.1432291666665,839.0416666666666C2039.9375,855.5833333333334,2039.9375,877.1666666666666,2039.9375,898.75C2039.9375,920.3333333333334,2039.9375,941.9166666666666,2039.9375,961.2916666666666C2039.9375,980.6666666666666,2039.9375,997.8333333333334,2039.9375,1015C2039.9375,1032.1666666666667,2039.9375,1049.3333333333333,2039.9375,1068.7083333333333C2039.9375,1088.0833333333333,2039.9375,1109.6666666666667,2039.9375,1131.25C2039.9375,1152.8333333333333,2039.9375,1174.4166666666667,2039.9375,1196C2039.9375,1217.5833333333333,2039.9375,1239.1666666666667,2039.9375,1260.75C2039.9375,1282.3333333333333,2039.9375,1303.9166666666667,2039.9375,1325.5C2039.9375,1347.0833333333333,2039.9375,1368.6666666666667,2039.9375,1390.25C2039.9375,1411.8333333333333,2039.9375,1433.4166666666667,2110.0631510416665,1452.954187953161C2180.1888020833335,1472.4917092396552,2320.4401041666665,1489.98341847931,2390.5657552083335,1498.7292730991378L2460.69140625,1507.4751277189655" id="edge14" class="transition" marker-end="url(#statediagram-barbEnd)"></path><path d="M3091.05859375,1142.1850642944764L3217.2122395833335,1151.154220245397C3343.3658854166665,1160.1233761963176,3595.6731770833335,1178.0616880981588,3728.2518651463965,1192.7808440490794C3860.8305532094596,1207.5,3873.6806376689187,1219,3880.1056798986488,1224.75L3886.5307221283783,1230.5" id="edge15" class="transition" marker-end="url(#statediagram-barbEnd)"></path><path d="M3645.14453125,911.7472330524463L3703.0677083333335,920.3726942103718C3760.9908854166665,928.9981553682975,3876.8372395833335,946.2490776841487,3934.7604166666665,963.4578721754077C3992.68359375,980.6666666666666,3992.68359375,997.8333333333334,3992.68359375,1015C3992.68359375,1032.1666666666667,3992.68359375,1049.3333333333333,3992.68359375,1068.7083333333333C3992.68359375,1088.0833333333333,3992.68359375,1109.6666666666667,3992.68359375,1131.25C3992.68359375,1152.8333333333333,3992.68359375,1174.4166666666667,3986.25855152027,1190.9583333333333C3979.8335092905404,1207.5,3966.9834248310813,1219,3960.5583826013512,1224.75L3954.1333403716217,1230.5" id="edge16" class="transition" marker-end="url(#statediagram-barbEnd)"></path><path d="M4074.13671875,1242.8742158187003L4091.8815104166665,1240.8118465155837C4109.626302083333,1238.749477212467,4145.115885416667,1234.6247386062334,4167.296875,1232.5623693031168C4189.477864583333,1230.5,4198.350260416667,1230.5,4207.22265625,1235.5416666666667C4216.095052083333,1240.5833333333333,4224.967447916667,1250.6666666666667,4224.967447916667,1260.75C4224.967447916667,1270.8333333333333,4216.095052083333,1280.9166666666667,4207.22265625,1285.9583333333333C4198.350260416667,1291,4189.477864583333,1291,4167.296875,1288.9376306968832C4145.115885416667,1286.8752613937666,4109.626302083333,1282.750522787533,4091.8815104166665,1280.6881534844163L4074.13671875,1278.6257841812997" id="edge17" class="transition" marker-end="url(#statediagram-barbEnd)"></path><path d="M3535.0174453883496,1032L3542.2769076152913,1037.75C3549.5363698422334,1043.5,3564.0552942961167,1055,3571.314756523058,1071.5416666666667C3578.57421875,1088.0833333333333,3578.57421875,1109.6666666666667,3578.57421875,1131.25C3578.57421875,1152.8333333333333,3578.57421875,1174.4166666666667,3578.57421875,1196C3578.57421875,1217.5833333333333,3578.57421875,1239.1666666666667,3578.57421875,1260.75C3578.57421875,1282.3333333333333,3578.57421875,1303.9166666666667,3596.961314551158,1320.4583333333333C3615.3484103523165,1337,3652.1226019546334,1348.5,3670.5096977557914,1354.25L3688.89679355695,1360" id="edge18" class="transition" marker-end="url(#statediagram-barbEnd)"></path><path d="M3091.05859375,1112.6765861671051L3107.1740451388887,1110.7304884725875C3123.289496527778,1108.78439077807,3155.520399305556,1104.8921953890351,3175.6647135416665,1102.9460976945174C3195.809027777778,1101,3203.866753472222,1101,3211.9244791666665,1106.0416666666667C3219.982204861111,1111.0833333333333,3228.039930555555,1121.1666666666667,3228.039930555555,1131.25C3228.039930555555,1141.3333333333333,3219.982204861111,1151.4166666666667,3211.9244791666665,1156.4583333333333C3203.866753472222,1161.5,3195.809027777778,1161.5,3175.6647135416665,1159.5539023054826C3155.520399305556,1157.6078046109649,3123.289496527778,1153.71560922193,3107.174045138889,1151.7695115274125L3091.05859375,1149.8234138328949" id="edge19" class="transition" marker-end="url(#statediagram-barbEnd)"></path><path d="M3470.58203125,906.8913450229873L3369.4342447916665,916.3261208524895C3268.2864583333335,925.7608966819915,3065.9908854166665,944.6304483409958,2964.8430989583335,962.6485575038313C2863.6953125,980.6666666666666,2863.6953125,997.8333333333334,2863.6953125,1015C2863.6953125,1032.1666666666667,2863.6953125,1049.3333333333333,2870.2275428330117,1063.6666666666667C2876.759773166023,1078,2889.8242338320465,1089.5,2896.356464165058,1095.25L2902.8886944980695,1101" id="edge20" class="transition" marker-end="url(#statediagram-barbEnd)"></path><path d="M3411.3671875,1031.4119431348902L3374.955078125,1037.2599526124084C3338.54296875,1043.1079620899268,3265.71875,1054.8039810449634,3206.604963501448,1066.4019905224816C3147.4911770028957,1078,3102.0878227557914,1089.5,3079.3861456322393,1095.25L3056.684468508687,1101" id="edge21" class="transition" marker-end="url(#statediagram-barbEnd)"></path><path d="M985.1930735518292,363L1001.247483168191,373.8333333333333C1017.3018927845528,384.6666666666667,1049.4107120172764,406.3333333333333,1356.0191580919716,422.9166666666667C1662.6276041666667,439.5,2243.7356770833335,451,2534.2897135416665,462.5C2824.84375,474,2824.84375,485.5,2824.84375,498.5416666666667C2824.84375,511.5833333333333,2824.84375,526.1666666666666,2824.84375,533.4583333333334L2824.84375,540.75" id="edge22" class="transition" marker-end="url(#statediagram-barbEnd)"></path><path d="M3537.1631274131273,929L3533.228387427606,934.75C3529.2936474420844,940.5,3521.4241674710424,952,3517.4894274855214,963.5C3513.5546875,975,3513.5546875,986.5,3513.5546875,992.25L3513.5546875,998" id="edge23" class="transition" marker-end="url(#statediagram-barbEnd)"></path><path d="M3852.9520541747106,1291L3840.144289937259,1296.75C3827.336525699807,1302.5,3801.720997224904,1314,3789.758943653475,1325.5C3777.7968900820465,1337,3779.4883114140925,1348.5,3780.334022080116,1354.25L3781.179732746139,1360" id="edge24" class="transition" marker-end="url(#statediagram-barbEnd)"></path><path d="M3615.7421875,1008.1743254443319L3641.12890625,1006.4786045369433C3666.515625,1004.7828836295545,3717.2890625,1001.3914418147773,3749.0224609375,999.6957209073886C3780.755859375,998,3793.44921875,998,3806.142578125,1000.8333333333334C3818.8359375,1003.6666666666666,3831.529296875,1009.3333333333334,3831.529296875,1015C3831.529296875,1020.6666666666666,3818.8359375,1026.3333333333333,3806.142578125,1029.1666666666667C3793.44921875,1032,3780.755859375,1032,3749.0224609375,1030.3042790926113C3717.2890625,1028.6085581852228,3666.515625,1025.2171163704454,3641.12890625,1023.5213954630568L3615.7421875,1021.8256745556681" id="edge25" class="transition" marker-end="url(#statediagram-barbEnd)"></path><path d="M3091.05859375,1119.6572385197874L3132.3138020833335,1116.5476987664895C3173.5690104166665,1113.4381590131916,3256.0794270833335,1107.2190795065958,3307.6484375,1104.109539753298C3359.2174479166665,1101,3379.8450520833335,1101,3400.47265625,1106.0416666666667C3421.1002604166665,1111.0833333333333,3441.7278645833335,1121.1666666666667,3441.7278645833335,1131.25C3441.7278645833335,1141.3333333333333,3421.1002604166665,1151.4166666666667,3400.47265625,1156.4583333333333C3379.8450520833335,1161.5,3359.2174479166665,1161.5,3307.6484375,1158.390460246702C3256.0794270833335,1155.2809204934042,3173.5690104166665,1149.0618409868084,3132.3138020833335,1145.9523012335105L3091.05859375,1142.8427614802126" id="edge26" class="transition" marker-end="url(#statediagram-barbEnd)"></path><path d="M3645.14453125,883.6421291053227L3659.7243923611113,881.1184409211023C3674.304253472222,878.5947527368818,3703.463975694444,873.547376368441,3721.6888020833326,871.0236881842205C3739.913628472222,868.5,3747.203559027778,868.5,3754.4934895833335,873.5416666666666C3761.783420138889,878.5833333333334,3769.073350694445,888.6666666666666,3769.073350694444,898.75C3769.073350694445,908.8333333333334,3761.783420138889,918.9166666666666,3754.493489583334,923.9583333333334C3747.203559027778,929,3739.913628472222,929,3721.6888020833335,926.4763118157795C3703.463975694444,923.952623631559,3674.304253472222,918.9052472631182,3659.7243923611113,916.3815590788977L3645.14453125,913.8578708946773" id="edge27" class="transition" marker-end="url(#statediagram-barbEnd)"></path><path d="M4074.13671875,1249.695772826551L4118.65060763889,1246.4964773554593C4163.164496527778,1243.2971818843673,4252.192274305556,1236.8985909421838,4307.834635416667,1233.699295471092C4363.476996527778,1230.5,4385.733940972223,1230.5,4407.990885416667,1235.5416666666667C4430.247829861111,1240.5833333333333,4452.504774305556,1250.6666666666667,4452.504774305556,1260.75C4452.504774305556,1270.8333333333333,4430.247829861111,1280.9166666666667,4407.990885416667,1285.9583333333333C4385.733940972223,1291,4363.476996527778,1291,4307.834635416667,1287.800704528908C4252.192274305556,1284.6014090578162,4163.164496527778,1278.2028181156327,4118.65060763889,1275.0035226445407L4074.13671875,1271.804227173449" id="edge28" class="transition" marker-end="url(#statediagram-barbEnd)"></path><path d="M2783.44921875,1148.9559810124385L2715.3404947916665,1156.7966508436987C2647.2317708333335,1164.637320674959,2511.0143229166665,1180.3186603374795,2442.9055989583335,1198.9509968354064C2374.796875,1217.5833333333333,2374.796875,1239.1666666666667,2374.796875,1260.75C2374.796875,1282.3333333333333,2374.796875,1303.9166666666667,2398.05078125,1321.0953548743441C2421.3046875,1338.2740430820215,2467.8125,1351.048086164043,2491.06640625,1357.435107705054L2514.3203125,1363.8221292460646" id="edge29" class="transition" marker-end="url(#statediagram-barbEnd)"></path><path d="M3968.1652087355214,1291L3977.2574656129345,1296.75C3986.3497224903476,1302.5,4004.534236245174,1314,3992.572182673745,1325.5C3980.6101291023165,1337,3938.5015082046334,1348.5,3917.4471977557914,1354.25L3896.39288730695,1360" id="edge30" class="transition" marker-end="url(#statediagram-barbEnd)"></path><path d="M2514.3203125,1403.9801527177563L2454.73046875,1412.4834605981303C2395.140625,1420.986768478504,2275.9609375,1437.993384239252,2267.0227864583335,1454.6484097262876C2258.0846354166665,1471.3034352133234,2359.3880208333335,1487.6068704266465,2410.0397135416665,1495.7585880333083L2460.69140625,1503.9103056399701" id="edge31" class="transition" marker-end="url(#statediagram-barbEnd)"></path><path d="M3656.79296875,1396.1448288759277L3442.4055989583335,1405.954024063273C3228.0182291666665,1415.7632192506182,2799.2434895833335,1435.3816096253092,2601.6083368524774,1450.9408048126545C2403.9731841216217,1466.5,2437.4776182432433,1478,2454.229835304054,1483.75L2470.982052364865,1489.5" id="edge32" class="transition" marker-end="url(#statediagram-barbEnd)"></path><path d="M2610.5390625,1420.5L2610.5390625,1426.25C2610.5390625,1432,2610.5390625,1443.5,2605.972294280888,1455C2601.405526061776,1466.5,2592.271989623552,1478,2587.70522140444,1483.75L2583.138453185328,1489.5" id="edge33" class="transition" marker-end="url(#statediagram-barbEnd)"></path><path d="M3656.79296875,1405.8993203385483L3589.4212239583335,1414.08276694879C3522.0494791666665,1422.266213559032,3387.3059895833335,1438.633106779516,3220.7630208333335,1456.0765490429033C3054.2200520833335,1473.5199913062909,2855.8776041666665,1492.0399826125815,2756.7063802083335,1501.299978265727L2657.53515625,1510.5599739188724" id="edge34" class="transition" marker-end="url(#statediagram-barbEnd)"></path><path d="M2706.7578125,1397.159209842315L2841.0078125,1406.7993415352623C2975.2578125,1416.43947322821,3243.7578125,1435.7197366141052,3235.5540364583335,1455.0371855409892C3227.3502604166665,1474.3546344678728,2942.4427083333335,1493.7092689357457,2799.9889322916665,1503.3865861696822L2657.53515625,1513.0639034036187" id="edge35" class="transition" marker-end="url(#statediagram-barbEnd)"></path><path d="M3905.375180984556,1420.5L3928.1368695704637,1426.25C3950.8985581563707,1432,3996.4219353281856,1443.5,3788.448597872426,1459.325377804999C3580.4752604166665,1475.150755609998,3119.0052083333335,1495.3015112199962,2888.2701822916665,1505.3768890249955L2657.53515625,1515.4522668299944" id="edge36" class="transition" marker-end="url(#statediagram-barbEnd)"></path><path d="M2633.691919039575,1360L2638.0928752413124,1354.25C2642.49383144305,1348.5,2651.295743846525,1337,2655.6967000482623,1320.4583333333333C2660.09765625,1303.9166666666667,2660.09765625,1282.3333333333333,2660.09765625,1260.75C2660.09765625,1239.1666666666667,2660.09765625,1217.5833333333333,2660.09765625,1196C2660.09765625,1174.4166666666667,2660.09765625,1152.8333333333333,2660.09765625,1131.25C2660.09765625,1109.6666666666667,2660.09765625,1088.0833333333333,2660.09765625,1068.7083333333333C2660.09765625,1049.3333333333333,2660.09765625,1032.1666666666667,2660.09765625,1015C2660.09765625,997.8333333333334,2660.09765625,980.6666666666666,2795.1783854166665,962.3408382210464C2930.2591145833335,944.0150097754263,3200.4205729166665,924.5300195508526,3335.5013020833335,914.7875244385656L3470.58203125,905.0450293262788" id="edge37" class="transition" marker-end="url(#statediagram-barbEnd)"></path><path d="M3914.46484375,1407.532666224265L3973.4401041666665,1415.443888520221C4032.4153645833335,1423.3551108161766,4150.365885416667,1439.1775554080884,4209.341145833333,1455.0471110373776C4268.31640625,1470.9166666666667,4268.31640625,1486.8333333333333,4268.31640625,1494.7916666666667L4268.31640625,1502.75" id="edge38" class="transition" marker-end="url(#statediagram-barbEnd)"></path><path d="M4268.31640625,1536.75L4268.31640625,1544.7083333333333C4268.31640625,1552.6666666666667,4268.31640625,1568.5833333333333,4268.31640625,1582.2916666666667C4268.31640625,1596,4268.31640625,1607.5,4268.31640625,1613.25L4268.31640625,1619" id="edge39" class="transition" marker-end="url(#statediagram-barbEnd)"></path><path d="M2559.11328125,1550L2559.11328125,1555.75C2559.11328125,1561.5,2559.11328125,1573,2559.11328125,1584.5C2559.11328125,1596,2559.11328125,1607.5,2559.11328125,1613.25L2559.11328125,1619" id="edge40" class="transition" marker-end="url(#statediagram-barbEnd)"></path><path d="M960,195L960,200.75C960,206.5,960,218,960,229.5C960,241,960,252.5,960,269.0833333333333C960,285.6666666666667,960,307.3333333333333,960,318.1666666666667L960,329" class="transition note-edge"></path><path d="M1747.33203125,620L1747.33203125,624.1666666666666C1747.33203125,628.3333333333334,1747.33203125,636.6666666666666,1747.33203125,646.5833333333334C1747.33203125,656.5,1747.33203125,668,1732.054777992278,679.5C1716.777524734556,691,1686.2230182191117,702.5,1670.9457649613898,708.25L1655.668511703668,714" class="transition note-edge"></path><path d="M3803.90234375,620L3803.90234375,624.1666666666666C3803.90234375,628.3333333333334,3803.90234375,636.6666666666666,3803.90234375,646.5833333333334C3803.90234375,656.5,3803.90234375,668,3775.230046452703,679.5C3746.5577491554054,691,3689.2131545608113,702.5,3660.5408572635138,708.25L3631.8685599662163,714" class="transition note-edge"></path><path d="M2978.609375,395L2978.609375,400.5C2978.609375,406,2978.609375,417,2978.609375,428.25C2978.609375,439.5,2978.609375,451,2978.609375,462.5C2978.609375,474,2978.609375,485.5,2963.4579198338965,498.5416666666667C2948.3064646677926,511.5833333333333,2918.0035543355857,526.1666666666666,2902.8520991694822,533.4583333333334L2887.7006440033783,540.75" class="transition note-edge"></path></g><g class="edgeLabels"><g class="edgeLabel"><g class="label" transform="translate(0, 0)"><rect rx="0" ry="0" width="0" height="0" style="fill:#e8e8e8;"></rect><text style=""></text></g></g><g class="edgeLabel"><g class="label" transform="translate(0, 0)"><rect rx="0" ry="0" width="0" height="0" style="fill:#e8e8e8;"></rect><text style=""></text></g></g><g class="edgeLabel" transform="translate(604.39453125, 146)"><g class="label" transform="translate(-60.0234375, -9.5)"><rect rx="0" ry="0" width="119.984375" height="19.03125" style="fill:#e8e8e8;"></rect><text style=""><tspan xml:space="preserve" dy="1em" x="0" class="row">ClientEventOpen</tspan></text></g></g><g class="edgeLabel" transform="translate(490.625, 229.5)"><g class="label" transform="translate(-89.9453125, -9.5)"><rect rx="0" ry="0" width="179.78125" height="19.03125" style="fill:#e8e8e8;"></rect><text style=""><tspan xml:space="preserve" dy="1em" x="0" class="row">ClientEventDealProposed</tspan></text></g></g><g class="edgeLabel" transform="translate(744.41796875, 462.5)"><g class="label" transform="translate(-89.546875, -9.5)"><rect rx="0" ry="0" width="178.984375" height="19.03125" style="fill:#e8e8e8;"></rect><text style=""><tspan xml:space="preserve" dy="1em" x="0" class="row">ClientEventDealRejected</tspan></text></g></g><g class="edgeLabel" transform="translate(967.45703125, 462.5)"><g class="label" transform="translate(-91.5390625, -9.5)"><rect rx="0" ry="0" width="182.96875" height="19.03125" style="fill:#e8e8e8;"></rect><text style=""><tspan xml:space="preserve" dy="1em" x="0" class="row">ClientEventDealNotFound</tspan></text></g></g><g class="edgeLabel" transform="translate(2580.3515625, 462.5)"><g class="label" transform="translate(-90.7265625, -9.5)"><rect rx="0" ry="0" width="181.34375" height="19.03125" style="fill:#e8e8e8;"></rect><text style=""><tspan xml:space="preserve" dy="1em" x="0" class="row">ClientEventDealAccepted</tspan></text></g></g><g class="edgeLabel" transform="translate(895.6640625, 1131.25)"><g class="label" transform="translate(-128.1484375, -9.5)"><rect rx="0" ry="0" width="256.140625" height="19.03125" style="fill:#e8e8e8;"></rect><text style=""><tspan xml:space="preserve" dy="1em" x="0" class="row">ClientEventPaymentChannelErrored</tspan></text></g></g><g class="edgeLabel" transform="translate(1043.8125, 1066.5)"><g class="label" transform="translate(-128.1484375, -9.5)"><rect rx="0" ry="0" width="256.140625" height="19.03125" style="fill:#e8e8e8;"></rect><text style=""><tspan xml:space="preserve" dy="1em" x="0" class="row">ClientEventPaymentChannelErrored</tspan></text></g></g><g class="edgeLabel" transform="translate(1288.65625, 679.5)"><g class="label" transform="translate(-155.9453125, -9.5)"><rect rx="0" ry="0" width="311.703125" height="19.03125" style="fill:#e8e8e8;"></rect><text style=""><tspan xml:space="preserve" dy="1em" x="0" class="row">ClientEventPaymentChannelCreateInitiated</tspan></text></g></g><g class="edgeLabel" transform="translate(3397.84765625, 679.5)"><g class="label" transform="translate(-146.359375, -9.5)"><rect rx="0" ry="0" width="292.546875" height="19.03125" style="fill:#e8e8e8;"></rect><text style=""><tspan xml:space="preserve" dy="1em" x="0" class="row">ClientEventPaymentChannelAddingFunds</tspan></text></g></g><g class="edgeLabel" transform="translate(2584.8984375, 834)"><g class="label" transform="translate(-123.046875, -9.5)"><rect rx="0" ry="0" width="245.953125" height="19.03125" style="fill:#e8e8e8;"></rect><text style=""><tspan xml:space="preserve" dy="1em" x="0" class="row">ClientEventPaymentChannelReady</tspan></text></g></g><g class="edgeLabel" transform="translate(3897.96484375, 834)"><g class="label" transform="translate(-123.046875, -9.5)"><rect rx="0" ry="0" width="245.953125" height="19.03125" style="fill:#e8e8e8;"></rect><text style=""><tspan xml:space="preserve" dy="1em" x="0" class="row">ClientEventPaymentChannelReady</tspan></text></g></g><g class="edgeLabel" transform="translate(1230.68359375, 1131.25)"><g class="label" transform="translate(-114.5859375, -9.5)"><rect rx="0" ry="0" width="229.03125" height="19.03125" style="fill:#e8e8e8;"></rect><text style=""><tspan xml:space="preserve" dy="1em" x="0" class="row">ClientEventAllocateLaneErrored</tspan></text></g></g><g class="edgeLabel" transform="translate(1742.9296875, 1131.25)"><g class="label" transform="translate(-114.5859375, -9.5)"><rect rx="0" ry="0" width="229.03125" height="19.03125" style="fill:#e8e8e8;"></rect><text style=""><tspan xml:space="preserve" dy="1em" x="0" class="row">ClientEventAllocateLaneErrored</tspan></text></g></g><g class="edgeLabel" transform="translate(2039.9375, 1131.25)"><g class="label" transform="translate(-162.421875, -9.5)"><rect rx="0" ry="0" width="324.640625" height="19.03125" style="fill:#e8e8e8;"></rect><text style=""><tspan xml:space="preserve" dy="1em" x="0" class="row">ClientEventPaymentChannelAddFundsErrored</tspan></text></g></g><g class="edgeLabel" transform="translate(3847.98046875, 1196)"><g class="label" transform="translate(-124.703125, -9.5)"><rect rx="0" ry="0" width="249.265625" height="19.03125" style="fill:#e8e8e8;"></rect><text style=""><tspan xml:space="preserve" dy="1em" x="0" class="row">ClientEventLastPaymentRequested</tspan></text></g></g><g class="edgeLabel" transform="translate(3992.68359375, 1066.5)"><g class="label" transform="translate(-124.703125, -9.5)"><rect rx="0" ry="0" width="249.265625" height="19.03125" style="fill:#e8e8e8;"></rect><text style=""><tspan xml:space="preserve" dy="1em" x="0" class="row">ClientEventLastPaymentRequested</tspan></text></g></g><g class="edgeLabel" transform="translate(4233.83984375, 1260.75)"><g class="label" transform="translate(-124.703125, -9.5)"><rect rx="0" ry="0" width="249.265625" height="19.03125" style="fill:#e8e8e8;"></rect><text style=""><tspan xml:space="preserve" dy="1em" x="0" class="row">ClientEventLastPaymentRequested</tspan></text></g></g><g class="edgeLabel" transform="translate(3578.57421875, 1196)"><g class="label" transform="translate(-124.703125, -9.5)"><rect rx="0" ry="0" width="249.265625" height="19.03125" style="fill:#e8e8e8;"></rect><text style=""><tspan xml:space="preserve" dy="1em" x="0" class="row">ClientEventLastPaymentRequested</tspan></text></g></g><g class="edgeLabel" transform="translate(3236.09765625, 1131.25)"><g class="label" transform="translate(-110.0390625, -9.5)"><rect rx="0" ry="0" width="219.953125" height="19.03125" style="fill:#e8e8e8;"></rect><text style=""><tspan xml:space="preserve" dy="1em" x="0" class="row">ClientEventPaymentRequested</tspan></text></g></g><g class="edgeLabel" transform="translate(2863.6953125, 1015)"><g class="label" transform="translate(-110.0390625, -9.5)"><rect rx="0" ry="0" width="219.953125" height="19.03125" style="fill:#e8e8e8;"></rect><text style=""><tspan xml:space="preserve" dy="1em" x="0" class="row">ClientEventPaymentRequested</tspan></text></g></g><g class="edgeLabel" transform="translate(3192.89453125, 1066.5)"><g class="label" transform="translate(-110.0390625, -9.5)"><rect rx="0" ry="0" width="219.953125" height="19.03125" style="fill:#e8e8e8;"></rect><text style=""><tspan xml:space="preserve" dy="1em" x="0" class="row">ClientEventPaymentRequested</tspan></text></g></g><g class="edgeLabel" transform="translate(2824.84375, 462.5)"><g class="label" transform="translate(-133.765625, -9.5)"><rect rx="0" ry="0" width="267.359375" height="19.03125" style="fill:#e8e8e8;"></rect><text style=""><tspan xml:space="preserve" dy="1em" x="0" class="row">ClientEventUnsealPaymentRequested</tspan></text></g></g><g class="edgeLabel" transform="translate(3513.5546875, 963.5)"><g class="label" transform="translate(-105.65625, -9.5)"><rect rx="0" ry="0" width="211.1875" height="19.03125" style="fill:#e8e8e8;"></rect><text style=""><tspan xml:space="preserve" dy="1em" x="0" class="row">ClientEventAllBlocksReceived</tspan></text></g></g><g class="edgeLabel" transform="translate(3776.10546875, 1325.5)"><g class="label" transform="translate(-105.65625, -9.5)"><rect rx="0" ry="0" width="211.1875" height="19.03125" style="fill:#e8e8e8;"></rect><text style=""><tspan xml:space="preserve" dy="1em" x="0" class="row">ClientEventAllBlocksReceived</tspan></text></g></g><g class="edgeLabel" transform="translate(3844.22265625, 1015)"><g class="label" transform="translate(-105.65625, -9.5)"><rect rx="0" ry="0" width="211.1875" height="19.03125" style="fill:#e8e8e8;"></rect><text style=""><tspan xml:space="preserve" dy="1em" x="0" class="row">ClientEventAllBlocksReceived</tspan></text></g></g><g class="edgeLabel" transform="translate(3462.35546875, 1131.25)"><g class="label" transform="translate(-96.21875, -9.5)"><rect rx="0" ry="0" width="192.328125" height="19.03125" style="fill:#e8e8e8;"></rect><text style=""><tspan xml:space="preserve" dy="1em" x="0" class="row">ClientEventBlocksReceived</tspan></text></g></g><g class="edgeLabel" transform="translate(3776.36328125, 898.75)"><g class="label" transform="translate(-96.21875, -9.5)"><rect rx="0" ry="0" width="192.328125" height="19.03125" style="fill:#e8e8e8;"></rect><text style=""><tspan xml:space="preserve" dy="1em" x="0" class="row">ClientEventBlocksReceived</tspan></text></g></g><g class="edgeLabel" transform="translate(4474.76171875, 1260.75)"><g class="label" transform="translate(-96.21875, -9.5)"><rect rx="0" ry="0" width="192.328125" height="19.03125" style="fill:#e8e8e8;"></rect><text style=""><tspan xml:space="preserve" dy="1em" x="0" class="row">ClientEventBlocksReceived</tspan></text></g></g><g class="edgeLabel" transform="translate(2374.796875, 1260.75)"><g class="label" transform="translate(-79.1171875, -9.5)"><rect rx="0" ry="0" width="158.140625" height="19.03125" style="fill:#e8e8e8;"></rect><text style=""><tspan xml:space="preserve" dy="1em" x="0" class="row">ClientEventSendFunds</tspan></text></g></g><g class="edgeLabel" transform="translate(4022.71875, 1325.5)"><g class="label" transform="translate(-79.1171875, -9.5)"><rect rx="0" ry="0" width="158.140625" height="19.03125" style="fill:#e8e8e8;"></rect><text style=""><tspan xml:space="preserve" dy="1em" x="0" class="row">ClientEventSendFunds</tspan></text></g></g><g class="edgeLabel" transform="translate(2156.78125, 1455)"><g class="label" transform="translate(-96.84375, -9.5)"><rect rx="0" ry="0" width="193.5625" height="19.03125" style="fill:#e8e8e8;"></rect><text style=""><tspan xml:space="preserve" dy="1em" x="0" class="row">ClientEventFundsExpended</tspan></text></g></g><g class="edgeLabel" transform="translate(2370.46875, 1455)"><g class="label" transform="translate(-96.84375, -9.5)"><rect rx="0" ry="0" width="193.5625" height="19.03125" style="fill:#e8e8e8;"></rect><text style=""><tspan xml:space="preserve" dy="1em" x="0" class="row">ClientEventFundsExpended</tspan></text></g></g><g class="edgeLabel" transform="translate(2610.5390625, 1455)"><g class="label" transform="translate(-123.2265625, -9.5)"><rect rx="0" ry="0" width="246.3125" height="19.03125" style="fill:#e8e8e8;"></rect><text style=""><tspan xml:space="preserve" dy="1em" x="0" class="row">ClientEventBadPaymentRequested</tspan></text></g></g><g class="edgeLabel" transform="translate(3252.5625, 1455)"><g class="label" transform="translate(-123.2265625, -9.5)"><rect rx="0" ry="0" width="246.3125" height="19.03125" style="fill:#e8e8e8;"></rect><text style=""><tspan xml:space="preserve" dy="1em" x="0" class="row">ClientEventBadPaymentRequested</tspan></text></g></g><g class="edgeLabel" transform="translate(3512.2578125, 1455)"><g class="label" transform="translate(-116.46875, -9.5)"><rect rx="0" ry="0" width="232.796875" height="19.03125" style="fill:#e8e8e8;"></rect><text style=""><tspan xml:space="preserve" dy="1em" x="0" class="row">ClientEventCreateVoucherFailed</tspan></text></g></g><g class="edgeLabel" transform="translate(4041.9453125, 1455)"><g class="label" transform="translate(-116.46875, -9.5)"><rect rx="0" ry="0" width="232.796875" height="19.03125" style="fill:#e8e8e8;"></rect><text style=""><tspan xml:space="preserve" dy="1em" x="0" class="row">ClientEventCreateVoucherFailed</tspan></text></g></g><g class="edgeLabel" transform="translate(2660.09765625, 1131.25)"><g class="label" transform="translate(-88.3515625, -9.5)"><rect rx="0" ry="0" width="176.59375" height="19.03125" style="fill:#e8e8e8;"></rect><text style=""><tspan xml:space="preserve" dy="1em" x="0" class="row">ClientEventPaymentSent</tspan></text></g></g><g class="edgeLabel" transform="translate(4268.31640625, 1455)"><g class="label" transform="translate(-88.3515625, -9.5)"><rect rx="0" ry="0" width="176.59375" height="19.03125" style="fill:#e8e8e8;"></rect><text style=""><tspan xml:space="preserve" dy="1em" x="0" class="row">ClientEventPaymentSent</tspan></text></g></g><g class="edgeLabel" transform="translate(4268.31640625, 1584.5)"><g class="label" transform="translate(-75.875, -9.5)"><rect rx="0" ry="0" width="151.65625" height="19.03125" style="fill:#e8e8e8;"></rect><text style=""><tspan xml:space="preserve" dy="1em" x="0" class="row">ClientEventComplete</tspan></text></g></g><g class="edgeLabel" transform="translate(2559.11328125, 1584.5)"><g class="label" transform="translate(-54.671875, -9.5)"><rect rx="0" ry="0" width="109.28125" height="19.03125" style="fill:#e8e8e8;"></rect><text style=""><tspan xml:space="preserve" dy="1em" x="0" class="row">&lt;invalid Value&gt;</tspan></text></g></g><g class="edgeLabel"><g class="label" transform="translate(0, 0)"><rect rx="0" ry="0" width="0" height="0" style="fill:#e8e8e8;"></rect><text style=""></text></g></g><g class="edgeLabel"><g class="label" transform="translate(0, 0)"><rect rx="0" ry="0" width="0" height="0" style="fill:#e8e8e8;"></rect><text style=""></text></g></g><g class="edgeLabel"><g class="label" transform="translate(0, 0)"><rect rx="0" ry="0" width="0" height="0" style="fill:#e8e8e8;"></rect><text style=""></text></g></g><g class="edgeLabel"><g class="label" transform="translate(0, 0)"><rect rx="0" ry="0" width="0" height="0" style="fill:#e8e8e8;"></rect><text style=""></text></g></g></g><g class="nodes"><g class="node statediagram-state" id="0" transform="translate(384.72265625, 146)"><rect class="outer title-state" x="-102.59375" y="-30.25" width="205.1875" height="60.5"></rect><line class="divider" x1="-102.59375" x2="102.59375" y1="-3.75" y2="-3.75"></line><g class="label" transform="translate(-95.09375, -27.25)"><text style=""><tspan xml:space="preserve" dy="1em" x="0" class="title-row">DealStatusNew</tspan></text><text style="" transform="translate( 0, 26.5)"><tspan xml:space="preserve" dy="1em" x="0" class="title-row">On entry runs ProposeDeal</tspan></text></g></g><g class="node statediagram-state" id="3" transform="translate(960, 346)"><rect class="outer title-state" x="-114.9453125" y="-17" width="229.890625" height="34"></rect><line class="divider" x1="-114.9453125" x2="114.9453125" y1="9.5" y2="9.5"></line><g class="label" transform="translate(-107.4453125, -14)"><text style=""><tspan xml:space="preserve" dy="1em" x="0" class="title-row">DealStatusWaitForAcceptance</tspan></text><text style="" transform="translate( 0, 26.5)"><tspan xml:space="preserve" dy="1em" x="0" class="title-row"></tspan></text></g></g><g class="node statediagram-state" id="4" transform="translate(1575.296875, 744.25)"><rect class="outer title-state" x="-170.59375" y="-30.25" width="341.1875" height="60.5"></rect><line class="divider" x1="-170.59375" x2="170.59375" y1="-3.75" y2="-3.75"></line><g class="label" transform="translate(-163.09375, -27.25)"><text style=""><tspan xml:space="preserve" dy="1em" x="0" class="title-row">DealStatusPaymentChannelCreating</tspan></text><text style="" transform="translate( 0, 26.5)"><tspan xml:space="preserve" dy="1em" x="0" class="title-row">On entry runs WaitForPaymentChannelCreate</tspan></text></g></g><g class="node statediagram-state" id="5" transform="translate(3481.02734375, 744.25)"><rect class="outer title-state" x="-180.8671875" y="-30.25" width="361.734375" height="60.5"></rect><line class="divider" x1="-180.8671875" x2="180.8671875" y1="-3.75" y2="-3.75"></line><g class="label" transform="translate(-173.3671875, -27.25)"><text style=""><tspan xml:space="preserve" dy="1em" x="0" class="title-row">DealStatusPaymentChannelAddingFunds</tspan></text><text style="" transform="translate( 0, 26.5)"><tspan xml:space="preserve" dy="1em" x="0" class="title-row">On entry runs WaitForPaymentChannelAddFunds</tspan></text></g></g><g class="node statediagram-state" id="6" transform="translate(2824.84375, 571)"><rect class="outer title-state" x="-156.2421875" y="-30.25" width="312.484375" height="60.5"></rect><line class="divider" x1="-156.2421875" x2="156.2421875" y1="-3.75" y2="-3.75"></line><g class="label" transform="translate(-148.7421875, -27.25)"><text style=""><tspan xml:space="preserve" dy="1em" x="0" class="title-row">DealStatusAccepted</tspan></text><text style="" transform="translate( 0, 26.5)"><tspan xml:space="preserve" dy="1em" x="0" class="title-row">On entry runs SetupPaymentChannelStart</tspan></text></g></g><g class="node statediagram-state" id="8" transform="translate(2559.11328125, 1519.75)"><rect class="outer title-state" x="-98.421875" y="-30.25" width="196.84375" height="60.5"></rect><line class="divider" x1="-98.421875" x2="98.421875" y1="-3.75" y2="-3.75"></line><g class="label" transform="translate(-90.921875, -27.25)"><text style=""><tspan xml:space="preserve" dy="1em" x="0" class="title-row">DealStatusFailing</tspan></text><text style="" transform="translate( 0, 26.5)"><tspan xml:space="preserve" dy="1em" x="0" class="title-row">On entry runs CancelDeal</tspan></text></g></g><g class="node statediagram-state" id="9" transform="translate(744.41796875, 571)"><rect class="outer title-state" x="-77.609375" y="-17" width="155.21875" height="34"></rect><line class="divider" x1="-77.609375" x2="77.609375" y1="9.5" y2="9.5"></line><g class="label" transform="translate(-70.109375, -14)"><text style=""><tspan xml:space="preserve" dy="1em" x="0" class="title-row">DealStatusRejected</tspan></text><text style="" transform="translate( 0, 26.5)"><tspan xml:space="preserve" dy="1em" x="0" class="title-row"></tspan></text></g></g><g class="node statediagram-state" id="10" transform="translate(2937.25390625, 1131.25)"><rect class="outer title-state" x="-153.8046875" y="-30.25" width="307.609375" height="60.5"></rect><line class="divider" x1="-153.8046875" x2="153.8046875" y1="-3.75" y2="-3.75"></line><g class="label" transform="translate(-146.3046875, -27.25)"><text style=""><tspan xml:space="preserve" dy="1em" x="0" class="title-row">DealStatusFundsNeeded</tspan></text><text style="" transform="translate( 0, 26.5)"><tspan xml:space="preserve" dy="1em" x="0" class="title-row">On entry runs ProcessPaymentRequested</tspan></text></g></g><g class="node statediagram-state" id="11" transform="translate(2610.5390625, 1390.25)"><rect class="outer title-state" x="-96.21875" y="-30.25" width="192.4375" height="60.5"></rect><line class="divider" x1="-96.21875" x2="96.21875" y1="-3.75" y2="-3.75"></line><g class="label" transform="translate(-88.71875, -27.25)"><text style=""><tspan xml:space="preserve" dy="1em" x="0" class="title-row">DealStatusSendFunds</tspan></text><text style="" transform="translate( 0, 26.5)"><tspan xml:space="preserve" dy="1em" x="0" class="title-row">On entry runs SendFunds</tspan></text></g></g><g class="node statediagram-state" id="12" transform="translate(3785.62890625, 1390.25)"><rect class="outer title-state" x="-128.8359375" y="-30.25" width="257.671875" height="60.5"></rect><line class="divider" x1="-128.8359375" x2="128.8359375" y1="-3.75" y2="-3.75"></line><g class="label" transform="translate(-121.3359375, -27.25)"><text style=""><tspan xml:space="preserve" dy="1em" x="0" class="title-row">DealStatusSendFundsLastPayment</tspan></text><text style="" transform="translate( 0, 26.5)"><tspan xml:space="preserve" dy="1em" x="0" class="title-row">On entry runs SendFunds</tspan></text></g></g><g class="node statediagram-state" id="13" transform="translate(3557.86328125, 898.75)"><rect class="outer title-state" x="-87.28125" y="-30.25" width="174.5625" height="60.5"></rect><line class="divider" x1="-87.28125" x2="87.28125" y1="-3.75" y2="-3.75"></line><g class="label" transform="translate(-79.78125, -27.25)"><text style=""><tspan xml:space="preserve" dy="1em" x="0" class="title-row">DealStatusOngoing</tspan></text><text style="" transform="translate( 0, 26.5)"><tspan xml:space="preserve" dy="1em" x="0" class="title-row">On entry runs Ongoing</tspan></text></g></g><g class="node statediagram-state" id="14" transform="translate(3920.33203125, 1260.75)"><rect class="outer title-state" x="-153.8046875" y="-30.25" width="307.609375" height="60.5"></rect><line class="divider" x1="-153.8046875" x2="153.8046875" y1="-3.75" y2="-3.75"></line><g class="label" transform="translate(-146.3046875, -27.25)"><text style=""><tspan xml:space="preserve" dy="1em" x="0" class="title-row">DealStatusFundsNeededLastPayment</tspan></text><text style="" transform="translate( 0, 26.5)"><tspan xml:space="preserve" dy="1em" x="0" class="title-row">On entry runs ProcessPaymentRequested</tspan></text></g></g><g class="node statediagram-state" id="15" transform="translate(4268.31640625, 1636)"><rect class="outer title-state" x="-84.2265625" y="-17" width="168.453125" height="34"></rect><line class="divider" x1="-84.2265625" x2="84.2265625" y1="9.5" y2="9.5"></line><g class="label" transform="translate(-76.7265625, -14)"><text style=""><tspan xml:space="preserve" dy="1em" x="0" class="title-row">DealStatusCompleted</tspan></text><text style="" transform="translate( 0, 26.5)"><tspan xml:space="preserve" dy="1em" x="0" class="title-row"></tspan></text></g></g><g class="node statediagram-state" id="16" transform="translate(967.45703125, 571)"><rect class="outer title-state" x="-95.4296875" y="-17" width="190.859375" height="34"></rect><line class="divider" x1="-95.4296875" x2="95.4296875" y1="9.5" y2="9.5"></line><g class="label" transform="translate(-87.9296875, -14)"><text style=""><tspan xml:space="preserve" dy="1em" x="0" class="title-row">DealStatusDealNotFound</tspan></text><text style="" transform="translate( 0, 26.5)"><tspan xml:space="preserve" dy="1em" x="0" class="title-row"></tspan></text></g></g><g class="node statediagram-state" id="17" transform="translate(2559.11328125, 1636)"><rect class="outer title-state" x="-72.0625" y="-17" width="144.125" height="34"></rect><line class="divider" x1="-72.0625" x2="72.0625" y1="9.5" y2="9.5"></line><g class="label" transform="translate(-64.5625, -14)"><text style=""><tspan xml:space="preserve" dy="1em" x="0" class="title-row">DealStatusErrored</tspan></text><text style="" transform="translate( 0, 26.5)"><tspan xml:space="preserve" dy="1em" x="0" class="title-row"></tspan></text></g></g><g class="node statediagram-state" id="18" transform="translate(3513.5546875, 1015)"><rect class="outer title-state" x="-102.1875" y="-17" width="204.375" height="34"></rect><line class="divider" x1="-102.1875" x2="102.1875" y1="9.5" y2="9.5"></line><g class="label" transform="translate(-94.6875, -14)"><text style=""><tspan xml:space="preserve" dy="1em" x="0" class="title-row">DealStatusBlocksComplete</tspan></text><text style="" transform="translate( 0, 26.5)"><tspan xml:space="preserve" dy="1em" x="0" class="title-row"></tspan></text></g></g><g class="node statediagram-state" id="19" transform="translate(4268.31640625, 1519.75)"><rect class="outer title-state" x="-79.5" y="-17" width="159" height="34"></rect><line class="divider" x1="-79.5" x2="79.5" y1="9.5" y2="9.5"></line><g class="label" transform="translate(-72, -14)"><text style=""><tspan xml:space="preserve" dy="1em" x="0" class="title-row">DealStatusFinalizing</tspan></text><text style="" transform="translate( 0, 26.5)"><tspan xml:space="preserve" dy="1em" x="0" class="title-row"></tspan></text></g></g><g class="node default" id="root_start" transform="translate(384.72265625, 15)"><circle class="state-start" r="7" width="14" height="14"></circle></g><g class="node statediagram-note" id="0----note" transform="translate(329.75, 346)"><rect x="-286.75" y="-57" width="573.5" height="114"></rect><g class="label" transform="translate(-279.25, -49.5)"><text style=""><tspan xml:space="preserve" dy="1em" x="0" class="row">The following events are not shown cause they can trigger from any state.</tspan><tspan xml:space="preserve" dy="1em" x="0" class="row"></tspan><tspan xml:space="preserve" dy="1em" x="0" class="row">ClientEventWriteDealProposalErrored - transitions state to DealStatusErrored</tspan><tspan xml:space="preserve" dy="1em" x="0" class="row">ClientEventUnknownResponseReceived - transitions state to DealStatusFailing</tspan><tspan xml:space="preserve" dy="1em" x="0" class="row">ClientEventDataTransferError - transitions state to DealStatusErrored</tspan><tspan xml:space="preserve" dy="1em" x="0" class="row">ClientEventWriteDealPaymentErrored - transitions state to DealStatusErrored</tspan><tspan xml:space="preserve" dy="1em" x="0" class="row">&lt;invalid reflect.Value&gt; - transitions state to DealStatusErrored</tspan></text></g></g><g class="node statediagram-note" id="3----note" transform="translate(960, 146)"><rect x="-173.125" y="-49" width="346.25" height="98"></rect><g class="label" transform="translate(-165.625, -41.5)"><text style=""><tspan xml:space="preserve" dy="1em" x="0" class="row">The following events only record in this state.</tspan><tspan xml:space="preserve" dy="1em" x="0" class="row"></tspan><tspan xml:space="preserve" dy="1em" x="0" class="row">ClientEventLastPaymentRequested</tspan><tspan xml:space="preserve" dy="1em" x="0" class="row">ClientEventPaymentRequested</tspan><tspan xml:space="preserve" dy="1em" x="0" class="row">ClientEventAllBlocksReceived</tspan><tspan xml:space="preserve" dy="1em" x="0" class="row">ClientEventBlocksReceived</tspan></text></g></g><g class="node statediagram-note" id="4----note" transform="translate(1747.33203125, 571)"><rect x="-173.125" y="-49" width="346.25" height="98"></rect><g class="label" transform="translate(-165.625, -41.5)"><text style=""><tspan xml:space="preserve" dy="1em" x="0" class="row">The following events only record in this state.</tspan><tspan xml:space="preserve" dy="1em" x="0" class="row"></tspan><tspan xml:space="preserve" dy="1em" x="0" class="row">ClientEventLastPaymentRequested</tspan><tspan xml:space="preserve" dy="1em" x="0" class="row">ClientEventPaymentRequested</tspan><tspan xml:space="preserve" dy="1em" x="0" class="row">ClientEventAllBlocksReceived</tspan><tspan xml:space="preserve" dy="1em" x="0" class="row">ClientEventBlocksReceived</tspan></text></g></g><g class="node statediagram-note" id="5----note" transform="translate(3803.90234375, 571)"><rect x="-173.125" y="-49" width="346.25" height="98"></rect><g class="label" transform="translate(-165.625, -41.5)"><text style=""><tspan xml:space="preserve" dy="1em" x="0" class="row">The following events only record in this state.</tspan><tspan xml:space="preserve" dy="1em" x="0" class="row"></tspan><tspan xml:space="preserve" dy="1em" x="0" class="row">ClientEventLastPaymentRequested</tspan><tspan xml:space="preserve" dy="1em" x="0" class="row">ClientEventPaymentRequested</tspan><tspan xml:space="preserve" dy="1em" x="0" class="row">ClientEventAllBlocksReceived</tspan><tspan xml:space="preserve" dy="1em" x="0" class="row">ClientEventBlocksReceived</tspan></text></g></g><g class="node statediagram-note" id="6----note" transform="translate(2978.609375, 346)"><rect x="-173.125" y="-49" width="346.25" height="98"></rect><g class="label" transform="translate(-165.625, -41.5)"><text style=""><tspan xml:space="preserve" dy="1em" x="0" class="row">The following events only record in this state.</tspan><tspan xml:space="preserve" dy="1em" x="0" class="row"></tspan><tspan xml:space="preserve" dy="1em" x="0" class="row">ClientEventLastPaymentRequested</tspan><tspan xml:space="preserve" dy="1em" x="0" class="row">ClientEventPaymentRequested</tspan><tspan xml:space="preserve" dy="1em" x="0" class="row">ClientEventAllBlocksReceived</tspan><tspan xml:space="preserve" dy="1em" x="0" class="row">ClientEventBlocksReceived</tspan></text></g></g></g></g></g></svg>