<svg id="mermaid-1594843607614" width="2089.64453125" xmlns="http://www.w3.org/2000/svg" class="statediagram" height="1094" viewBox="0 0 2089.64453125 1094"><style>#mermaid-1594843607614 .label{font-family:'trebuchet ms', verdana, arial;font-family:var(--mermaid-font-family);color:#333}#mermaid-1594843607614 .label text{fill:#333}#mermaid-1594843607614 .node rect,#mermaid-1594843607614 .node circle,#mermaid-1594843607614 .node ellipse,#mermaid-1594843607614 .node polygon,#mermaid-1594843607614 .node path{fill:#ECECFF;stroke:#9370db;stroke-width:1px}#mermaid-1594843607614 .node .label{text-align:center}#mermaid-1594843607614 .node.clickable{cursor:pointer}#mermaid-1594843607614 .arrowheadPath{fill:#333}#mermaid-1594843607614 .edgePath .path{stroke:#333;stroke-width:1.5px}#mermaid-1594843607614 .edgeLabel{background-color:#e8e8e8;text-align:center}#mermaid-1594843607614 .edgeLabel rect{opacity:0.5}#mermaid-1594843607614 .cluster rect{fill:#ffffde;stroke:#aa3;stroke-width:1px}#mermaid-1594843607614 .cluster text{fill:#333}#mermaid-1594843607614 div.mermaidTooltip{position:absolute;text-align:center;max-width:200px;padding:2px;font-family:'trebuchet ms', verdana, arial;font-family:var(--mermaid-font-family);font-size:12px;background:#ffffde;border:1px solid #aa3;border-radius:2px;pointer-events:none;z-index:100}#mermaid-1594843607614 .actor{stroke:#ccf;fill:#ECECFF}#mermaid-1594843607614 text.actor{fill:#000;stroke:none}#mermaid-1594843607614 .actor-line{stroke:grey}#mermaid-1594843607614 .messageLine0{stroke-width:1.5;stroke-dasharray:'2 2';stroke:#333}#mermaid-1594843607614 .messageLine1{stroke-width:1.5;stroke-dasharray:'2 2';stroke:#333}#mermaid-1594843607614 #arrowhead{fill:#333}#mermaid-1594843607614 .sequenceNumber{fill:#fff}#mermaid-1594843607614 #sequencenumber{fill:#333}#mermaid-1594843607614 #crosshead path{fill:#333 !important;stroke:#333 !important}#mermaid-1594843607614 .messageText{fill:#333;stroke:none}#mermaid-1594843607614 .labelBox{stroke:#ccf;fill:#ECECFF}#mermaid-1594843607614 .labelText{fill:#000;stroke:none}#mermaid-1594843607614 .loopText{fill:#000;stroke:none}#mermaid-1594843607614 .loopLine{stroke-width:2;stroke-dasharray:'2 2';stroke:#ccf}#mermaid-1594843607614 .note{stroke:#aa3;fill:#fff5ad}#mermaid-1594843607614 .noteText{fill:black;stroke:none;font-family:'trebuchet ms', verdana, arial;font-family:var(--mermaid-font-family);font-size:14px}#mermaid-1594843607614 .activation0{fill:#f4f4f4;stroke:#666}#mermaid-1594843607614 .activation1{fill:#f4f4f4;stroke:#666}#mermaid-1594843607614 .activation2{fill:#f4f4f4;stroke:#666}#mermaid-1594843607614 .mermaid-main-font{font-family:"trebuchet ms", verdana, arial;font-family:var(--mermaid-font-family)}#mermaid-1594843607614 .section{stroke:none;opacity:0.2}#mermaid-1594843607614 .section0{fill:rgba(102,102,255,0.49)}#mermaid-1594843607614 .section2{fill:#fff400}#mermaid-1594843607614 .section1,#mermaid-1594843607614 .section3{fill:#fff;opacity:0.2}#mermaid-1594843607614 .sectionTitle0{fill:#333}#mermaid-1594843607614 .sectionTitle1{fill:#333}#mermaid-1594843607614 .sectionTitle2{fill:#333}#mermaid-1594843607614 .sectionTitle3{fill:#333}#mermaid-1594843607614 .sectionTitle{text-anchor:start;font-size:11px;text-height:14px;font-family:'trebuchet ms', verdana, arial;font-family:var(--mermaid-font-family)}#mermaid-1594843607614 .grid .tick{stroke:#d3d3d3;opacity:0.8;shape-rendering:crispEdges}#mermaid-1594843607614 .grid .tick text{font-family:'trebuchet ms', verdana, arial;font-family:var(--mermaid-font-family)}#mermaid-1594843607614 .grid path{stroke-width:0}#mermaid-1594843607614 .today{fill:none;stroke:red;stroke-width:2px}#mermaid-1594843607614 .task{stroke-width:2}#mermaid-1594843607614 .taskText{text-anchor:middle;font-family:'trebuchet ms', verdana, arial;font-family:var(--mermaid-font-family)}#mermaid-1594843607614 .taskText:not([font-size]){font-size:11px}#mermaid-1594843607614 .taskTextOutsideRight{fill:#000;text-anchor:start;font-size:11px;font-family:'trebuchet ms', verdana, arial;font-family:var(--mermaid-font-family)}#mermaid-1594843607614 .taskTextOutsideLeft{fill:#000;text-anchor:end;font-size:11px}#mermaid-1594843607614 .task.clickable{cursor:pointer}#mermaid-1594843607614 .taskText.clickable{cursor:pointer;fill:#003163 !important;font-weight:bold}#mermaid-1594843607614 .taskTextOutsideLeft.clickable{cursor:pointer;fill:#003163 !important;font-weight:bold}#mermaid-1594843607614 .taskTextOutsideRight.clickable{cursor:pointer;fill:#003163 !important;font-weight:bold}#mermaid-1594843607614 .taskText0,#mermaid-1594843607614 .taskText1,#mermaid-1594843607614 .taskText2,#mermaid-1594843607614 .taskText3{fill:#fff}#mermaid-1594843607614 .task0,#mermaid-1594843607614 .task1,#mermaid-1594843607614 .task2,#mermaid-1594843607614 .task3{fill:#8a90dd;stroke:#534fbc}#mermaid-1594843607614 .taskTextOutside0,#mermaid-1594843607614 .taskTextOutside2{fill:#000}#mermaid-1594843607614 .taskTextOutside1,#mermaid-1594843607614 .taskTextOutside3{fill:#000}#mermaid-1594843607614 .active0,#mermaid-1594843607614 .active1,#mermaid-1594843607614 .active2,#mermaid-1594843607614 .active3{fill:#bfc7ff;stroke:#534fbc}#mermaid-1594843607614 .activeText0,#mermaid-1594843607614 .activeText1,#mermaid-1594843607614 .activeText2,#mermaid-1594843607614 .activeText3{fill:#000 !important}#mermaid-1594843607614 .done0,#mermaid-1594843607614 .done1,#mermaid-1594843607614 .done2,#mermaid-1594843607614 .done3{stroke:grey;fill:#d3d3d3;stroke-width:2}#mermaid-1594843607614 .doneText0,#mermaid-1594843607614 .doneText1,#mermaid-1594843607614 .doneText2,#mermaid-1594843607614 .doneText3{fill:#000 !important}#mermaid-1594843607614 .crit0,#mermaid-1594843607614 .crit1,#mermaid-1594843607614 .crit2,#mermaid-1594843607614 .crit3{stroke:#f88;fill:red;stroke-width:2}#mermaid-1594843607614 .activeCrit0,#mermaid-1594843607614 .activeCrit1,#mermaid-1594843607614 .activeCrit2,#mermaid-1594843607614 .activeCrit3{stroke:#f88;fill:#bfc7ff;stroke-width:2}#mermaid-1594843607614 .doneCrit0,#mermaid-1594843607614 .doneCrit1,#mermaid-1594843607614 .doneCrit2,#mermaid-1594843607614 .doneCrit3{stroke:#f88;fill:#d3d3d3;stroke-width:2;cursor:pointer;shape-rendering:crispEdges}#mermaid-1594843607614 .milestone{transform:rotate(45deg) scale(0.8, 0.8)}#mermaid-1594843607614 .milestoneText{font-style:italic}#mermaid-1594843607614 .doneCritText0,#mermaid-1594843607614 .doneCritText1,#mermaid-1594843607614 .doneCritText2,#mermaid-1594843607614 .doneCritText3{fill:#000 !important}#mermaid-1594843607614 .activeCritText0,#mermaid-1594843607614 .activeCritText1,#mermaid-1594843607614 .activeCritText2,#mermaid-1594843607614 .activeCritText3{fill:#000 !important}#mermaid-1594843607614 .titleText{text-anchor:middle;font-size:18px;fill:#000;font-family:'trebuchet ms', verdana, arial;font-family:var(--mermaid-font-family)}#mermaid-1594843607614 g.classGroup text{fill:#9370db;stroke:none;font-family:'trebuchet ms', verdana, arial;font-family:var(--mermaid-font-family);font-size:10px}#mermaid-1594843607614 g.classGroup text .title{font-weight:bolder}#mermaid-1594843607614 g.clickable{cursor:pointer}#mermaid-1594843607614 g.classGroup rect{fill:#ECECFF;stroke:#9370db}#mermaid-1594843607614 g.classGroup line{stroke:#9370db;stroke-width:1}#mermaid-1594843607614 .classLabel .box{stroke:none;stroke-width:0;fill:#ECECFF;opacity:0.5}#mermaid-1594843607614 .classLabel .label{fill:#9370db;font-size:10px}#mermaid-1594843607614 .relation{stroke:#9370db;stroke-width:1;fill:none}#mermaid-1594843607614 .dashed-line{stroke-dasharray:3}#mermaid-1594843607614 #compositionStart{fill:#9370db;stroke:#9370db;stroke-width:1}#mermaid-1594843607614 #compositionEnd{fill:#9370db;stroke:#9370db;stroke-width:1}#mermaid-1594843607614 #aggregationStart{fill:#ECECFF;stroke:#9370db;stroke-width:1}#mermaid-1594843607614 #aggregationEnd{fill:#ECECFF;stroke:#9370db;stroke-width:1}#mermaid-1594843607614 #dependencyStart{fill:#9370db;stroke:#9370db;stroke-width:1}#mermaid-1594843607614 #dependencyEnd{fill:#9370db;stroke:#9370db;stroke-width:1}#mermaid-1594843607614 #extensionStart{fill:#9370db;stroke:#9370db;stroke-width:1}#mermaid-1594843607614 #extensionEnd{fill:#9370db;stroke:#9370db;stroke-width:1}#mermaid-1594843607614 .commit-id,#mermaid-1594843607614 .commit-msg,#mermaid-1594843607614 .branch-label{fill:lightgrey;color:lightgrey;font-family:'trebuchet ms', verdana, arial;font-family:var(--mermaid-font-family)}#mermaid-1594843607614 .pieTitleText{text-anchor:middle;font-size:25px;fill:#000;font-family:'trebuchet ms', verdana, arial;font-family:var(--mermaid-font-family)}#mermaid-1594843607614 .slice{font-family:'trebuchet ms', verdana, arial;font-family:var(--mermaid-font-family)}#mermaid-1594843607614 g.stateGroup text{fill:#9370db;stroke:none;font-size:10px;font-family:'trebuchet ms', verdana, arial;font-family:var(--mermaid-font-family)}#mermaid-1594843607614 g.stateGroup text{fill:#9370db;stroke:none;font-size:10px}#mermaid-1594843607614 g.stateGroup .state-title{font-weight:bolder;fill:#000}#mermaid-1594843607614 g.stateGroup rect{fill:#ECECFF;stroke:#9370db}#mermaid-1594843607614 g.stateGroup line{stroke:#9370db;stroke-width:1}#mermaid-1594843607614 .transition{stroke:#9370db;stroke-width:1;fill:none}#mermaid-1594843607614 .stateGroup .composit{fill:white;border-bottom:1px}#mermaid-1594843607614 .stateGroup .alt-composit{fill:#e0e0e0;border-bottom:1px}#mermaid-1594843607614 .state-note{stroke:#aa3;fill:#fff5ad}#mermaid-1594843607614 .state-note text{fill:black;stroke:none;font-size:10px}#mermaid-1594843607614 .stateLabel .box{stroke:none;stroke-width:0;fill:#ECECFF;opacity:0.5}#mermaid-1594843607614 .stateLabel text{fill:#000;font-size:10px;font-weight:bold;font-family:'trebuchet ms', verdana, arial;font-family:var(--mermaid-font-family)}#mermaid-1594843607614 .node circle.state-start{fill:black;stroke:black}#mermaid-1594843607614 .node circle.state-end{fill:black;stroke:white;stroke-width:1.5}#mermaid-1594843607614 #statediagram-barbEnd{fill:#9370db}#mermaid-1594843607614 .statediagram-cluster rect{fill:#ECECFF;stroke:#9370db;stroke-width:1px}#mermaid-1594843607614 .statediagram-cluster rect.outer{rx:5px;ry:5px}#mermaid-1594843607614 .statediagram-state .divider{stroke:#9370db}#mermaid-1594843607614 .statediagram-state .title-state{rx:5px;ry:5px}#mermaid-1594843607614 .statediagram-cluster.statediagram-cluster .inner{fill:white}#mermaid-1594843607614 .statediagram-cluster.statediagram-cluster-alt .inner{fill:#e0e0e0}#mermaid-1594843607614 .statediagram-cluster .inner{rx:0;ry:0}#mermaid-1594843607614 .statediagram-state rect.basic{rx:5px;ry:5px}#mermaid-1594843607614 .statediagram-state rect.divider{stroke-dasharray:10,10;fill:#efefef}#mermaid-1594843607614 .note-edge{stroke-dasharray:5}#mermaid-1594843607614 .statediagram-note rect{fill:#fff5ad;stroke:#aa3;stroke-width:1px;rx:0;ry:0}:root{--mermaid-font-family: '"trebuchet ms", verdana, arial';--mermaid-font-family: "Comic Sans MS", "Comic Sans", cursive}

:root { --mermaid-font-family: "trebuchet ms", verdana, arial;}</style><style>#mermaid-1594843607614 {
    color: rgb(0, 0, 0);
    font: 16px "trebuchet ms", verdana, arial;
  }</style><g><defs><marker id="statediagram-barbEnd" refX="19" refY="7" markerWidth="20" markerHeight="14" markerUnits="0" orient="auto"><path d="M 19,7 L9,13 L14,7 L9,1 Z"></path></marker></defs><g class="root"><g class="clusters"><g class="note-cluster" id="0----parent"><rect x="8" y="72" width="651.33203125" height="213.5" fill="none"></rect></g></g><g class="edgePaths"><path d="M377.7421875,22L377.7421875,26.166666666666668C377.7421875,30.333333333333332,377.7421875,38.666666666666664,377.7421875,47C377.7421875,55.333333333333336,377.7421875,63.666666666666664,377.7421875,72C377.7421875,80.33333333333333,377.7421875,88.66666666666667,377.7421875,92.83333333333333L377.7421875,97" id="edge0" class="transition" marker-end="url(#statediagram-barbEnd)"></path><path d="M358.03693871359224,131L351.37192809466023,136.75C344.7069174757282,142.5,331.37689623786406,154,324.71188561893206,166.375C318.046875,178.75,318.046875,192,318.046875,198.625L318.046875,205.25" class="transition note-edge"></path><path d="M438.5,107.06110916724982L453.1827256944445,105.38425763937487C467.8654513888889,103.70740611149988,497.2309027777778,100.35370305574993,515.5843098958334,98.67685152787497C533.9377170138889,97,541.2790798611111,97,548.6204427083334,99.83333333333333C555.9618055555555,102.66666666666667,563.3031684027777,108.33333333333333,563.3031684027777,114C563.3031684027777,119.66666666666667,555.9618055555555,125.33333333333333,548.6204427083334,128.16666666666666C541.2790798611111,131,533.9377170138889,131,515.5843098958334,129.32314847212504C497.2309027777778,127.64629694425007,467.8654513888889,124.29259388850012,453.1827256944445,122.61574236062516L438.5,120.93889083275018" id="edge1" class="transition" marker-end="url(#statediagram-barbEnd)"></path><path d="M409.209723907767,131L419.8531553398058,136.75C430.4965867718447,142.5,451.78344963592235,154,530.0551362762945,168.42940536194968C608.3268229166666,182.85881072389932,743.5833333333334,200.21762144779868,811.2115885416666,208.89702680974833L878.83984375,217.576432171698" id="edge2" class="transition" marker-end="url(#statediagram-barbEnd)"></path><path d="M878.83984375,252.8528416998414L855.0677083333334,258.2940347498679C831.2955729166666,263.7352277998943,783.7513020833334,274.6176138999471,759.9791666666666,285.8088069499736C736.20703125,297,736.20703125,308.5,736.20703125,325.0416666666667C736.20703125,341.5833333333333,736.20703125,363.1666666666667,736.20703125,384.75C736.20703125,406.3333333333333,736.20703125,427.9166666666667,736.20703125,447.2916666666667C736.20703125,466.6666666666667,736.20703125,483.8333333333333,736.20703125,501C736.20703125,518.1666666666666,736.20703125,535.3333333333334,736.20703125,552.5C736.20703125,569.6666666666666,736.20703125,586.8333333333334,736.20703125,604C736.20703125,621.1666666666666,736.20703125,638.3333333333334,736.20703125,655.5C736.20703125,672.6666666666666,736.20703125,689.8333333333334,736.20703125,707C736.20703125,724.1666666666666,736.20703125,741.3333333333334,779.2369791666666,757.7298380618541C822.2669270833334,774.126342790375,908.3268229166666,789.75268558075,951.3567708333334,797.5658569759374L994.38671875,805.379028371125" id="edge3" class="transition" marker-end="url(#statediagram-barbEnd)"></path><path d="M1076.33984375,252.8528416998414L1100.1119791666667,258.2940347498679C1123.8841145833333,263.7352277998943,1171.4283854166667,274.6176138999471,1195.2005208333333,285.8088069499736C1218.97265625,297,1218.97265625,308.5,1218.97265625,320C1218.97265625,331.5,1218.97265625,343,1218.97265625,348.75L1218.97265625,354.5" id="edge4" class="transition" marker-end="url(#statediagram-barbEnd)"></path><path d="M1218.97265625,415L1218.97265625,420.75C1218.97265625,426.5,1218.97265625,438,1218.97265625,449.5C1218.97265625,461,1218.97265625,472.5,1218.97265625,478.25L1218.97265625,484" id="edge5" class="transition" marker-end="url(#statediagram-barbEnd)"></path><path d="M1293.05078125,492.82779599148273L1306.3875868055554,491.3564966595689C1319.724392361111,489.88519732765513,1346.3980034722222,486.94259866382754,1363.0690104166667,485.47129933191377C1379.740017361111,484,1386.408420138889,484,1393.0768229166667,486.8333333333333C1399.7452256944446,489.6666666666667,1406.4136284722224,495.3333333333333,1406.4136284722224,501C1406.4136284722224,506.6666666666667,1399.7452256944446,512.3333333333334,1393.0768229166667,515.1666666666666C1386.408420138889,518,1379.740017361111,518,1363.0690104166667,516.5287006680862C1346.3980034722222,515.0574013361725,1319.724392361111,512.1148026723448,1306.3875868055554,510.6435033404311L1293.05078125,509.17220400851727" id="edge6" class="transition" marker-end="url(#statediagram-barbEnd)"></path><path d="M1293.05078125,510.2164238260607L1349.6940104166667,517.2636865217172C1406.3372395833333,524.3109492173738,1519.6236979166667,538.4054746086869,1576.2669270833333,551.2027373043435C1632.91015625,564,1632.91015625,575.5,1632.91015625,581.25L1632.91015625,587" id="edge7" class="transition" marker-end="url(#statediagram-barbEnd)"></path><path d="M1144.89453125,516.1192953124032L1115.1861979166667,522.1827460936694C1085.4778645833333,528.2461968749354,1026.0611979166667,540.3730984374678,1010.4391434061489,552.1865492187338C994.8170888956311,564,1022.9896465412621,575.5,1037.0759253640776,581.25L1051.1622041868932,587" id="edge8" class="transition" marker-end="url(#statediagram-barbEnd)"></path><path d="M1632.91015625,621L1632.91015625,626.75C1632.91015625,632.5,1632.91015625,644,1632.91015625,655.5C1632.91015625,667,1632.91015625,678.5,1632.91015625,684.25L1632.91015625,690" id="edge9" class="transition" marker-end="url(#statediagram-barbEnd)"></path><path d="M1092.80859375,621L1092.80859375,626.75C1092.80859375,632.5,1092.80859375,644,1092.80859375,658.3333333333334C1092.80859375,672.6666666666666,1092.80859375,689.8333333333334,1092.80859375,707C1092.80859375,724.1666666666666,1092.80859375,741.3333333333334,1092.80859375,755.6666666666666C1092.80859375,770,1092.80859375,781.5,1092.80859375,787.25L1092.80859375,793" id="edge10" class="transition" marker-end="url(#statediagram-barbEnd)"></path><path d="M1566.4561969053398,724L1543.9791224211165,729.75C1521.5020479368932,735.5,1476.5478989684464,747,1414.0102776092233,760.4065350113573C1351.47265625,773.8130700227144,1271.3515625,789.126140045429,1231.291015625,796.782675056786L1191.23046875,804.4392100681433" id="edge11" class="transition" marker-end="url(#statediagram-barbEnd)"></path><path d="M1185.89453125,596.3930623536922L1205.0516493055554,594.8275519614102C1224.208767361111,593.2620415691282,1262.5230034722222,590.131020784564,1286.4694010416667,588.565510392282C1310.415798611111,587,1319.994357638889,587,1329.5729166666667,589.8333333333334C1339.1514756944446,592.6666666666666,1348.7300347222224,598.3333333333334,1348.7300347222224,604C1348.7300347222224,609.6666666666666,1339.1514756944446,615.3333333333334,1329.5729166666667,618.1666666666666C1319.994357638889,621,1310.415798611111,621,1286.4694010416667,619.434489607718C1262.5230034722222,617.868979215436,1224.208767361111,614.7379584308718,1205.0516493055554,613.1724480385898L1185.89453125,611.6069376463078" id="edge12" class="transition" marker-end="url(#statediagram-barbEnd)"></path><path d="M1771.81640625,697.6975933031043L1790.9735243055557,696.4146610859203C1810.130642361111,695.1317288687363,1848.444878472222,692.5658644343681,1872.3912760416663,691.2829322171841C1896.337673611111,690,1905.916232638889,690,1915.4947916666667,692.8333333333334C1925.0733506944446,695.6666666666666,1934.6519097222224,701.3333333333334,1934.651909722222,707C1934.6519097222224,712.6666666666666,1925.0733506944446,718.3333333333334,1915.494791666667,721.1666666666666C1905.916232638889,724,1896.337673611111,724,1872.3912760416667,722.7170677828159C1848.444878472222,721.4341355656319,1810.130642361111,718.8682711312637,1790.9735243055557,717.5853389140798L1771.81640625,716.3024066968957" id="edge13" class="transition" marker-end="url(#statediagram-barbEnd)"></path><path d="M1134.4549833131068,587L1148.5412621359224,581.25C1162.6275409587379,575.5,1190.800098604369,564,1204.8863774271845,552.5C1218.97265625,541,1218.97265625,529.5,1218.97265625,523.75L1218.97265625,518" id="edge14" class="transition" marker-end="url(#statediagram-barbEnd)"></path><path d="M1674.3528140169904,724L1688.3701835558252,729.75C1702.38755309466,735.5,1730.4222921723301,747,1744.4396617111652,760.7083333333334C1758.45703125,774.4166666666666,1758.45703125,790.3333333333334,1758.45703125,798.2916666666666L1758.45703125,806.25" id="edge15" class="transition" marker-end="url(#statediagram-barbEnd)"></path><path d="M1758.45703125,840.25L1758.45703125,848.2083333333334C1758.45703125,856.1666666666666,1758.45703125,872.0833333333334,1758.45703125,885.7916666666666C1758.45703125,899.5,1758.45703125,911,1758.45703125,916.75L1758.45703125,922.5" id="edge16" class="transition" marker-end="url(#statediagram-barbEnd)"></path><path d="M1758.45703125,983L1758.45703125,988.75C1758.45703125,994.5,1758.45703125,1006,1758.45703125,1017.5C1758.45703125,1029,1758.45703125,1040.5,1758.45703125,1046.25L1758.45703125,1052" id="edge17" class="transition" marker-end="url(#statediagram-barbEnd)"></path><path d="M1092.80859375,853.5L1092.80859375,859.25C1092.80859375,865,1092.80859375,876.5,1092.80859375,890.2083333333334C1092.80859375,903.9166666666666,1092.80859375,919.8333333333334,1092.80859375,927.7916666666666L1092.80859375,935.75" id="edge18" class="transition" marker-end="url(#statediagram-barbEnd)"></path></g><g class="edgeLabels"><g class="edgeLabel"><g class="label" transform="translate(0, 0)"><rect rx="0" ry="0" width="0" height="0" style="fill:#e8e8e8;"></rect><text style=""></text></g></g><g class="edgeLabel"><g class="label" transform="translate(0, 0)"><rect rx="0" ry="0" width="0" height="0" style="fill:#e8e8e8;"></rect><text style=""></text></g></g><g class="edgeLabel" transform="translate(570.64453125, 114)"><g class="label" transform="translate(-68.6875, -9.5)"><rect rx="0" ry="0" width="137.296875" height="19.03125" style="fill:#e8e8e8;"></rect><text style=""><tspan xml:space="preserve" dy="1em" x="0" class="row">ProviderEventOpen</tspan></text></g></g><g class="edgeLabel" transform="translate(473.0703125, 165.5)"><g class="label" transform="translate(-99.390625, -9.5)"><rect rx="0" ry="0" width="198.65625" height="19.03125" style="fill:#e8e8e8;"></rect><text style=""><tspan xml:space="preserve" dy="1em" x="0" class="row">ProviderEventDealAccepted</tspan></text></g></g><g class="edgeLabel" transform="translate(736.20703125, 552.5)"><g class="label" transform="translate(-91.734375, -9.5)"><rect rx="0" ry="0" width="183.359375" height="19.03125" style="fill:#e8e8e8;"></rect><text style=""><tspan xml:space="preserve" dy="1em" x="0" class="row">ProviderEventUnsealError</tspan></text></g></g><g class="edgeLabel" transform="translate(1218.97265625, 320)"><g class="label" transform="translate(-108.2578125, -9.5)"><rect rx="0" ry="0" width="216.390625" height="19.03125" style="fill:#e8e8e8;"></rect><text style=""><tspan xml:space="preserve" dy="1em" x="0" class="row">ProviderEventUnsealComplete</tspan></text></g></g><g class="edgeLabel" transform="translate(1218.97265625, 449.5)"><g class="label" transform="translate(-85.03125, -9.5)"><rect rx="0" ry="0" width="169.96875" height="19.03125" style="fill:#e8e8e8;"></rect><text style=""><tspan xml:space="preserve" dy="1em" x="0" class="row">ProviderEventBlockSent</tspan></text></g></g><g class="edgeLabel" transform="translate(1413.08203125, 501)"><g class="label" transform="translate(-85.03125, -9.5)"><rect rx="0" ry="0" width="169.96875" height="19.03125" style="fill:#e8e8e8;"></rect><text style=""><tspan xml:space="preserve" dy="1em" x="0" class="row">ProviderEventBlockSent</tspan></text></g></g><g class="edgeLabel" transform="translate(1632.91015625, 552.5)"><g class="label" transform="translate(-111.40625, -9.5)"><rect rx="0" ry="0" width="222.6875" height="19.03125" style="fill:#e8e8e8;"></rect><text style=""><tspan xml:space="preserve" dy="1em" x="0" class="row">ProviderEventBlocksCompleted</tspan></text></g></g><g class="edgeLabel" transform="translate(966.64453125, 552.5)"><g class="label" transform="translate(-118.703125, -9.5)"><rect rx="0" ry="0" width="237.265625" height="19.03125" style="fill:#e8e8e8;"></rect><text style=""><tspan xml:space="preserve" dy="1em" x="0" class="row">ProviderEventPaymentRequested</tspan></text></g></g><g class="edgeLabel" transform="translate(1632.91015625, 655.5)"><g class="label" transform="translate(-118.703125, -9.5)"><rect rx="0" ry="0" width="237.265625" height="19.03125" style="fill:#e8e8e8;"></rect><text style=""><tspan xml:space="preserve" dy="1em" x="0" class="row">ProviderEventPaymentRequested</tspan></text></g></g><g class="edgeLabel" transform="translate(1092.80859375, 707)"><g class="label" transform="translate(-117.46875, -9.5)"><rect rx="0" ry="0" width="234.796875" height="19.03125" style="fill:#e8e8e8;"></rect><text style=""><tspan xml:space="preserve" dy="1em" x="0" class="row">ProviderEventSaveVoucherFailed</tspan></text></g></g><g class="edgeLabel" transform="translate(1431.59375, 758.5)"><g class="label" transform="translate(-117.46875, -9.5)"><rect rx="0" ry="0" width="234.796875" height="19.03125" style="fill:#e8e8e8;"></rect><text style=""><tspan xml:space="preserve" dy="1em" x="0" class="row">ProviderEventSaveVoucherFailed</tspan></text></g></g><g class="edgeLabel" transform="translate(1358.30859375, 604)"><g class="label" transform="translate(-137.4140625, -9.5)"><rect rx="0" ry="0" width="274.65625" height="19.03125" style="fill:#e8e8e8;"></rect><text style=""><tspan xml:space="preserve" dy="1em" x="0" class="row">ProviderEventPartialPaymentReceived</tspan></text></g></g><g class="edgeLabel" transform="translate(1944.23046875, 707)"><g class="label" transform="translate(-137.4140625, -9.5)"><rect rx="0" ry="0" width="274.65625" height="19.03125" style="fill:#e8e8e8;"></rect><text style=""><tspan xml:space="preserve" dy="1em" x="0" class="row">ProviderEventPartialPaymentReceived</tspan></text></g></g><g class="edgeLabel" transform="translate(1218.97265625, 552.5)"><g class="label" transform="translate(-113.625, -9.5)"><rect rx="0" ry="0" width="227.109375" height="19.03125" style="fill:#e8e8e8;"></rect><text style=""><tspan xml:space="preserve" dy="1em" x="0" class="row">ProviderEventPaymentReceived</tspan></text></g></g><g class="edgeLabel" transform="translate(1758.45703125, 758.5)"><g class="label" transform="translate(-113.625, -9.5)"><rect rx="0" ry="0" width="227.109375" height="19.03125" style="fill:#e8e8e8;"></rect><text style=""><tspan xml:space="preserve" dy="1em" x="0" class="row">ProviderEventPaymentReceived</tspan></text></g></g><g class="edgeLabel" transform="translate(1758.45703125, 888)"><g class="label" transform="translate(-84.5390625, -9.5)"><rect rx="0" ry="0" width="168.96875" height="19.03125" style="fill:#e8e8e8;"></rect><text style=""><tspan xml:space="preserve" dy="1em" x="0" class="row">ProviderEventComplete</tspan></text></g></g><g class="edgeLabel" transform="translate(1758.45703125, 1017.5)"><g class="label" transform="translate(-113.4453125, -9.5)"><rect rx="0" ry="0" width="226.75" height="19.03125" style="fill:#e8e8e8;"></rect><text style=""><tspan xml:space="preserve" dy="1em" x="0" class="row">ProviderEventCleanupComplete</tspan></text></g></g><g class="edgeLabel" transform="translate(1092.80859375, 888)"><g class="label" transform="translate(-108.578125, -9.5)"><rect rx="0" ry="0" width="217.03125" height="19.03125" style="fill:#e8e8e8;"></rect><text style=""><tspan xml:space="preserve" dy="1em" x="0" class="row">ProviderEventCancelComplete</tspan></text></g></g></g><g class="nodes"><g class="node statediagram-state" id="0" transform="translate(377.7421875, 114)"><rect class="outer title-state" x="-60.7578125" y="-17" width="121.515625" height="34"></rect><line class="divider" x1="-60.7578125" x2="60.7578125" y1="9.5" y2="9.5"></line><g class="label" transform="translate(-53.2578125, -14)"><text style=""><tspan xml:space="preserve" dy="1em" x="0" class="title-row">DealStatusNew</tspan></text><text style="" transform="translate( 0, 26.5)"><tspan xml:space="preserve" dy="1em" x="0" class="title-row"></tspan></text></g></g><g class="node statediagram-state" id="1" transform="translate(977.58984375, 230.25)"><rect class="outer title-state" x="-98.75" y="-30.25" width="197.5" height="60.5"></rect><line class="divider" x1="-98.75" x2="98.75" y1="-3.75" y2="-3.75"></line><g class="label" transform="translate(-91.25, -27.25)"><text style=""><tspan xml:space="preserve" dy="1em" x="0" class="title-row">DealStatusUnsealing</tspan></text><text style="" transform="translate( 0, 26.5)"><tspan xml:space="preserve" dy="1em" x="0" class="title-row">On entry runs UnsealData</tspan></text></g></g><g class="node statediagram-state" id="2" transform="translate(1218.97265625, 384.75)"><rect class="outer title-state" x="-104.5703125" y="-30.25" width="209.140625" height="60.5"></rect><line class="divider" x1="-104.5703125" x2="104.5703125" y1="-3.75" y2="-3.75"></line><g class="label" transform="translate(-97.0703125, -27.25)"><text style=""><tspan xml:space="preserve" dy="1em" x="0" class="title-row">DealStatusUnsealed</tspan></text><text style="" transform="translate( 0, 26.5)"><tspan xml:space="preserve" dy="1em" x="0" class="title-row">On entry runs UnpauseDeal</tspan></text></g></g><g class="node statediagram-state" id="7" transform="translate(1092.80859375, 823.25)"><rect class="outer title-state" x="-98.421875" y="-30.25" width="196.84375" height="60.5"></rect><line class="divider" x1="-98.421875" x2="98.421875" y1="-3.75" y2="-3.75"></line><g class="label" transform="translate(-90.921875, -27.25)"><text style=""><tspan xml:space="preserve" dy="1em" x="0" class="title-row">DealStatusFailed</tspan></text><text style="" transform="translate( 0, 26.5)"><tspan xml:space="preserve" dy="1em" x="0" class="title-row">On entry runs CancelDeal</tspan></text></g></g><g class="node statediagram-state" id="9" transform="translate(1092.80859375, 604)"><rect class="outer title-state" x="-93.0859375" y="-17" width="186.171875" height="34"></rect><line class="divider" x1="-93.0859375" x2="93.0859375" y1="9.5" y2="9.5"></line><g class="label" transform="translate(-85.5859375, -14)"><text style=""><tspan xml:space="preserve" dy="1em" x="0" class="title-row">DealStatusFundsNeeded</tspan></text><text style="" transform="translate( 0, 26.5)"><tspan xml:space="preserve" dy="1em" x="0" class="title-row"></tspan></text></g></g><g class="node statediagram-state" id="12" transform="translate(1218.97265625, 501)"><rect class="outer title-state" x="-74.078125" y="-17" width="148.15625" height="34"></rect><line class="divider" x1="-74.078125" x2="74.078125" y1="9.5" y2="9.5"></line><g class="label" transform="translate(-66.578125, -14)"><text style=""><tspan xml:space="preserve" dy="1em" x="0" class="title-row">DealStatusOngoing</tspan></text><text style="" transform="translate( 0, 26.5)"><tspan xml:space="preserve" dy="1em" x="0" class="title-row"></tspan></text></g></g><g class="node statediagram-state" id="13" transform="translate(1632.91015625, 707)"><rect class="outer title-state" x="-138.90625" y="-17" width="277.8125" height="34"></rect><line class="divider" x1="-138.90625" x2="138.90625" y1="9.5" y2="9.5"></line><g class="label" transform="translate(-131.40625, -14)"><text style=""><tspan xml:space="preserve" dy="1em" x="0" class="title-row">DealStatusFundsNeededLastPayment</tspan></text><text style="" transform="translate( 0, 26.5)"><tspan xml:space="preserve" dy="1em" x="0" class="title-row"></tspan></text></g></g><g class="node statediagram-state" id="14" transform="translate(1758.45703125, 1069)"><rect class="outer title-state" x="-84.2265625" y="-17" width="168.453125" height="34"></rect><line class="divider" x1="-84.2265625" x2="84.2265625" y1="9.5" y2="9.5"></line><g class="label" transform="translate(-76.7265625, -14)"><text style=""><tspan xml:space="preserve" dy="1em" x="0" class="title-row">DealStatusCompleted</tspan></text><text style="" transform="translate( 0, 26.5)"><tspan xml:space="preserve" dy="1em" x="0" class="title-row"></tspan></text></g></g><g class="node statediagram-state" id="16" transform="translate(1092.80859375, 952.75)"><rect class="outer title-state" x="-72.0625" y="-17" width="144.125" height="34"></rect><line class="divider" x1="-72.0625" x2="72.0625" y1="9.5" y2="9.5"></line><g class="label" transform="translate(-64.5625, -14)"><text style=""><tspan xml:space="preserve" dy="1em" x="0" class="title-row">DealStatusErrored</tspan></text><text style="" transform="translate( 0, 26.5)"><tspan xml:space="preserve" dy="1em" x="0" class="title-row"></tspan></text></g></g><g class="node statediagram-state" id="17" transform="translate(1632.91015625, 604)"><rect class="outer title-state" x="-102.1875" y="-17" width="204.375" height="34"></rect><line class="divider" x1="-102.1875" x2="102.1875" y1="9.5" y2="9.5"></line><g class="label" transform="translate(-94.6875, -14)"><text style=""><tspan xml:space="preserve" dy="1em" x="0" class="title-row">DealStatusBlocksComplete</tspan></text><text style="" transform="translate( 0, 26.5)"><tspan xml:space="preserve" dy="1em" x="0" class="title-row"></tspan></text></g></g><g class="node statediagram-state" id="18" transform="translate(1758.45703125, 823.25)"><rect class="outer title-state" x="-79.5" y="-17" width="159" height="34"></rect><line class="divider" x1="-79.5" x2="79.5" y1="9.5" y2="9.5"></line><g class="label" transform="translate(-72, -14)"><text style=""><tspan xml:space="preserve" dy="1em" x="0" class="title-row">DealStatusFinalizing</tspan></text><text style="" transform="translate( 0, 26.5)"><tspan xml:space="preserve" dy="1em" x="0" class="title-row"></tspan></text></g></g><g class="node statediagram-state" id="19" transform="translate(1758.45703125, 952.75)"><rect class="outer title-state" x="-103.2890625" y="-30.25" width="206.578125" height="60.5"></rect><line class="divider" x1="-103.2890625" x2="103.2890625" y1="-3.75" y2="-3.75"></line><g class="label" transform="translate(-95.7890625, -27.25)"><text style=""><tspan xml:space="preserve" dy="1em" x="0" class="title-row">DealStatusCompleting</tspan></text><text style="" transform="translate( 0, 26.5)"><tspan xml:space="preserve" dy="1em" x="0" class="title-row">On entry runs CleanupDeal</tspan></text></g></g><g class="node default" id="root_start" transform="translate(377.7421875, 15)"><circle class="state-start" r="7" width="14" height="14"></circle></g><g class="node statediagram-note" id="0----note" transform="translate(318.046875, 230.25)"><rect x="-275.046875" y="-25" width="550.09375" height="50"></rect><g class="label" transform="translate(-267.546875, -17.5)"><text style=""><tspan xml:space="preserve" dy="1em" x="0" class="row">The following events are not shown cause they can trigger from any state.</tspan><tspan xml:space="preserve" dy="1em" x="0" class="row"></tspan><tspan xml:space="preserve" dy="1em" x="0" class="row">ProviderEventDataTransferError - transitions state to DealStatusErrored</tspan></text></g></g></g></g></g></svg>