<svg id="mermaid-1599198149699" width="2128.89453125" xmlns="http://www.w3.org/2000/svg" class="statediagram" height="1331" viewBox="0 0 2128.89453125 1331"><style>#mermaid-1599198149699 .label{font-family:'trebuchet ms', verdana, arial;font-family:var(--mermaid-font-family);color:#333}#mermaid-1599198149699 .label text{fill:#333}#mermaid-1599198149699 .node rect,#mermaid-1599198149699 .node circle,#mermaid-1599198149699 .node ellipse,#mermaid-1599198149699 .node polygon,#mermaid-1599198149699 .node path{fill:#ECECFF;stroke:#9370db;stroke-width:1px}#mermaid-1599198149699 .node .label{text-align:center}#mermaid-1599198149699 .node.clickable{cursor:pointer}#mermaid-1599198149699 .arrowheadPath{fill:#333}#mermaid-1599198149699 .edgePath .path{stroke:#333;stroke-width:1.5px}#mermaid-1599198149699 .edgeLabel{background-color:#e8e8e8;text-align:center}#mermaid-1599198149699 .edgeLabel rect{opacity:0.5}#mermaid-1599198149699 .cluster rect{fill:#ffffde;stroke:#aa3;stroke-width:1px}#mermaid-1599198149699 .cluster text{fill:#333}#mermaid-1599198149699 div.mermaidTooltip{position:absolute;text-align:center;max-width:200px;padding:2px;font-family:'trebuchet ms', verdana, arial;font-family:var(--mermaid-font-family);font-size:12px;background:#ffffde;border:1px solid #aa3;border-radius:2px;pointer-events:none;z-index:100}#mermaid-1599198149699 .actor{stroke:#ccf;fill:#ECECFF}#mermaid-1599198149699 text.actor{fill:#000;stroke:none}#mermaid-1599198149699 .actor-line{stroke:grey}#mermaid-1599198149699 .messageLine0{stroke-width:1.5;stroke-dasharray:'2 2';stroke:#333}#mermaid-1599198149699 .messageLine1{stroke-width:1.5;stroke-dasharray:'2 2';stroke:#333}#mermaid-1599198149699 #arrowhead{fill:#333}#mermaid-1599198149699 .sequenceNumber{fill:#fff}#mermaid-1599198149699 #sequencenumber{fill:#333}#mermaid-1599198149699 #crosshead path{fill:#333 !important;stroke:#333 !important}#mermaid-1599198149699 .messageText{fill:#333;stroke:none}#mermaid-1599198149699 .labelBox{stroke:#ccf;fill:#ECECFF}#mermaid-1599198149699 .labelText{fill:#000;stroke:none}#mermaid-1599198149699 .loopText{fill:#000;stroke:none}#mermaid-1599198149699 .loopLine{stroke-width:2;stroke-dasharray:'2 2';stroke:#ccf}#mermaid-1599198149699 .note{stroke:#aa3;fill:#fff5ad}#mermaid-1599198149699 .noteText{fill:black;stroke:none;font-family:'trebuchet ms', verdana, arial;font-family:var(--mermaid-font-family);font-size:14px}#mermaid-1599198149699 .activation0{fill:#f4f4f4;stroke:#666}#mermaid-1599198149699 .activation1{fill:#f4f4f4;stroke:#666}#mermaid-1599198149699 .activation2{fill:#f4f4f4;stroke:#666}#mermaid-1599198149699 .mermaid-main-font{font-family:"trebuchet ms", verdana, arial;font-family:var(--mermaid-font-family)}#mermaid-1599198149699 .section{stroke:none;opacity:0.2}#mermaid-1599198149699 .section0{fill:rgba(102,102,255,0.49)}#mermaid-1599198149699 .section2{fill:#fff400}#mermaid-1599198149699 .section1,#mermaid-1599198149699 .section3{fill:#fff;opacity:0.2}#mermaid-1599198149699 .sectionTitle0{fill:#333}#mermaid-1599198149699 .sectionTitle1{fill:#333}#mermaid-1599198149699 .sectionTitle2{fill:#333}#mermaid-1599198149699 .sectionTitle3{fill:#333}#mermaid-1599198149699 .sectionTitle{text-anchor:start;font-size:11px;text-height:14px;font-family:'trebuchet ms', verdana, arial;font-family:var(--mermaid-font-family)}#mermaid-1599198149699 .grid .tick{stroke:#d3d3d3;opacity:0.8;shape-rendering:crispEdges}#mermaid-1599198149699 .grid .tick text{font-family:'trebuchet ms', verdana, arial;font-family:var(--mermaid-font-family)}#mermaid-1599198149699 .grid path{stroke-width:0}#mermaid-1599198149699 .today{fill:none;stroke:red;stroke-width:2px}#mermaid-1599198149699 .task{stroke-width:2}#mermaid-1599198149699 .taskText{text-anchor:middle;font-family:'trebuchet ms', verdana, arial;font-family:var(--mermaid-font-family)}#mermaid-1599198149699 .taskText:not([font-size]){font-size:11px}#mermaid-1599198149699 .taskTextOutsideRight{fill:#000;text-anchor:start;font-size:11px;font-family:'trebuchet ms', verdana, arial;font-family:var(--mermaid-font-family)}#mermaid-1599198149699 .taskTextOutsideLeft{fill:#000;text-anchor:end;font-size:11px}#mermaid-1599198149699 .task.clickable{cursor:pointer}#mermaid-1599198149699 .taskText.clickable{cursor:pointer;fill:#003163 !important;font-weight:bold}#mermaid-1599198149699 .taskTextOutsideLeft.clickable{cursor:pointer;fill:#003163 !important;font-weight:bold}#mermaid-1599198149699 .taskTextOutsideRight.clickable{cursor:pointer;fill:#003163 !important;font-weight:bold}#mermaid-1599198149699 .taskText0,#mermaid-1599198149699 .taskText1,#mermaid-1599198149699 .taskText2,#mermaid-1599198149699 .taskText3{fill:#fff}#mermaid-1599198149699 .task0,#mermaid-1599198149699 .task1,#mermaid-1599198149699 .task2,#mermaid-1599198149699 .task3{fill:#8a90dd;stroke:#534fbc}#mermaid-1599198149699 .taskTextOutside0,#mermaid-1599198149699 .taskTextOutside2{fill:#000}#mermaid-1599198149699 .taskTextOutside1,#mermaid-1599198149699 .taskTextOutside3{fill:#000}#mermaid-1599198149699 .active0,#mermaid-1599198149699 .active1,#mermaid-1599198149699 .active2,#mermaid-1599198149699 .active3{fill:#bfc7ff;stroke:#534fbc}#mermaid-1599198149699 .activeText0,#mermaid-1599198149699 .activeText1,#mermaid-1599198149699 .activeText2,#mermaid-1599198149699 .activeText3{fill:#000 !important}#mermaid-1599198149699 .done0,#mermaid-1599198149699 .done1,#mermaid-1599198149699 .done2,#mermaid-1599198149699 .done3{stroke:grey;fill:#d3d3d3;stroke-width:2}#mermaid-1599198149699 .doneText0,#mermaid-1599198149699 .doneText1,#mermaid-1599198149699 .doneText2,#mermaid-1599198149699 .doneText3{fill:#000 !important}#mermaid-1599198149699 .crit0,#mermaid-1599198149699 .crit1,#mermaid-1599198149699 .crit2,#mermaid-1599198149699 .crit3{stroke:#f88;fill:red;stroke-width:2}#mermaid-1599198149699 .activeCrit0,#mermaid-1599198149699 .activeCrit1,#mermaid-1599198149699 .activeCrit2,#mermaid-1599198149699 .activeCrit3{stroke:#f88;fill:#bfc7ff;stroke-width:2}#mermaid-1599198149699 .doneCrit0,#mermaid-1599198149699 .doneCrit1,#mermaid-1599198149699 .doneCrit2,#mermaid-1599198149699 .doneCrit3{stroke:#f88;fill:#d3d3d3;stroke-width:2;cursor:pointer;shape-rendering:crispEdges}#mermaid-1599198149699 .milestone{transform:rotate(45deg) scale(0.8, 0.8)}#mermaid-1599198149699 .milestoneText{font-style:italic}#mermaid-1599198149699 .doneCritText0,#mermaid-1599198149699 .doneCritText1,#mermaid-1599198149699 .doneCritText2,#mermaid-1599198149699 .doneCritText3{fill:#000 !important}#mermaid-1599198149699 .activeCritText0,#mermaid-1599198149699 .activeCritText1,#mermaid-1599198149699 .activeCritText2,#mermaid-1599198149699 .activeCritText3{fill:#000 !important}#mermaid-1599198149699 .titleText{text-anchor:middle;font-size:18px;fill:#000;font-family:'trebuchet ms', verdana, arial;font-family:var(--mermaid-font-family)}#mermaid-1599198149699 g.classGroup text{fill:#9370db;stroke:none;font-family:'trebuchet ms', verdana, arial;font-family:var(--mermaid-font-family);font-size:10px}#mermaid-1599198149699 g.classGroup text .title{font-weight:bolder}#mermaid-1599198149699 g.clickable{cursor:pointer}#mermaid-1599198149699 g.classGroup rect{fill:#ECECFF;stroke:#9370db}#mermaid-1599198149699 g.classGroup line{stroke:#9370db;stroke-width:1}#mermaid-1599198149699 .classLabel .box{stroke:none;stroke-width:0;fill:#ECECFF;opacity:0.5}#mermaid-1599198149699 .classLabel .label{fill:#9370db;font-size:10px}#mermaid-1599198149699 .relation{stroke:#9370db;stroke-width:1;fill:none}#mermaid-1599198149699 .dashed-line{stroke-dasharray:3}#mermaid-1599198149699 #compositionStart{fill:#9370db;stroke:#9370db;stroke-width:1}#mermaid-1599198149699 #compositionEnd{fill:#9370db;stroke:#9370db;stroke-width:1}#mermaid-1599198149699 #aggregationStart{fill:#ECECFF;stroke:#9370db;stroke-width:1}#mermaid-1599198149699 #aggregationEnd{fill:#ECECFF;stroke:#9370db;stroke-width:1}#mermaid-1599198149699 #dependencyStart{fill:#9370db;stroke:#9370db;stroke-width:1}#mermaid-1599198149699 #dependencyEnd{fill:#9370db;stroke:#9370db;stroke-width:1}#mermaid-1599198149699 #extensionStart{fill:#9370db;stroke:#9370db;stroke-width:1}#mermaid-1599198149699 #extensionEnd{fill:#9370db;stroke:#9370db;stroke-width:1}#mermaid-1599198149699 .commit-id,#mermaid-1599198149699 .commit-msg,#mermaid-1599198149699 .branch-label{fill:lightgrey;color:lightgrey;font-family:'trebuchet ms', verdana, arial;font-family:var(--mermaid-font-family)}#mermaid-1599198149699 .pieTitleText{text-anchor:middle;font-size:25px;fill:#000;font-family:'trebuchet ms', verdana, arial;font-family:var(--mermaid-font-family)}#mermaid-1599198149699 .slice{font-family:'trebuchet ms', verdana, arial;font-family:var(--mermaid-font-family)}#mermaid-1599198149699 g.stateGroup text{fill:#9370db;stroke:none;font-size:10px;font-family:'trebuchet ms', verdana, arial;font-family:var(--mermaid-font-family)}#mermaid-1599198149699 g.stateGroup text{fill:#9370db;stroke:none;font-size:10px}#mermaid-1599198149699 g.stateGroup .state-title{font-weight:bolder;fill:#000}#mermaid-1599198149699 g.stateGroup rect{fill:#ECECFF;stroke:#9370db}#mermaid-1599198149699 g.stateGroup line{stroke:#9370db;stroke-width:1}#mermaid-1599198149699 .transition{stroke:#9370db;stroke-width:1;fill:none}#mermaid-1599198149699 .stateGroup .composit{fill:white;border-bottom:1px}#mermaid-1599198149699 .stateGroup .alt-composit{fill:#e0e0e0;border-bottom:1px}#mermaid-1599198149699 .state-note{stroke:#aa3;fill:#fff5ad}#mermaid-1599198149699 .state-note text{fill:black;stroke:none;font-size:10px}#mermaid-1599198149699 .stateLabel .box{stroke:none;stroke-width:0;fill:#ECECFF;opacity:0.5}#mermaid-1599198149699 .stateLabel text{fill:#000;font-size:10px;font-weight:bold;font-family:'trebuchet ms', verdana, arial;font-family:var(--mermaid-font-family)}#mermaid-1599198149699 .node circle.state-start{fill:black;stroke:black}#mermaid-1599198149699 .node circle.state-end{fill:black;stroke:white;stroke-width:1.5}#mermaid-1599198149699 #statediagram-barbEnd{fill:#9370db}#mermaid-1599198149699 .statediagram-cluster rect{fill:#ECECFF;stroke:#9370db;stroke-width:1px}#mermaid-1599198149699 .statediagram-cluster rect.outer{rx:5px;ry:5px}#mermaid-1599198149699 .statediagram-state .divider{stroke:#9370db}#mermaid-1599198149699 .statediagram-state .title-state{rx:5px;ry:5px}#mermaid-1599198149699 .statediagram-cluster.statediagram-cluster .inner{fill:white}#mermaid-1599198149699 .statediagram-cluster.statediagram-cluster-alt .inner{fill:#e0e0e0}#mermaid-1599198149699 .statediagram-cluster .inner{rx:0;ry:0}#mermaid-1599198149699 .statediagram-state rect.basic{rx:5px;ry:5px}#mermaid-1599198149699 .statediagram-state rect.divider{stroke-dasharray:10,10;fill:#efefef}#mermaid-1599198149699 .note-edge{stroke-dasharray:5}#mermaid-1599198149699 .statediagram-note rect{fill:#fff5ad;stroke:#aa3;stroke-width:1px;rx:0;ry:0}:root{--mermaid-font-family: '"trebuchet ms", verdana, arial';--mermaid-font-family: "Comic Sans MS", "Comic Sans", cursive}

:root { --mermaid-font-family: "trebuchet ms", verdana, arial;}</style><style>#mermaid-1599198149699 {
    color: rgb(0, 0, 0);
    font: 16px "trebuchet ms", verdana, arial;
  }</style><g><defs><marker id="statediagram-barbEnd" refX="19" refY="7" markerWidth="20" markerHeight="14" markerUnits="0" orient="auto"><path d="M 19,7 L9,13 L14,7 L9,1 Z"></path></marker></defs><g class="root"><g class="clusters"><g class="note-cluster" id="0----parent"><rect x="8" y="92" width="996.890625" height="235" fill="none"></rect></g><g class="note-cluster" id="8----parent"><rect x="301.03125" y="861" width="845.43359375" height="229.5" fill="none"></rect></g></g><g class="edgePaths"><path d="M522.765625,32L522.765625,37.833333333333336C522.765625,43.666666666666664,522.765625,55.333333333333336,522.765625,65.33333333333333C522.765625,75.33333333333333,522.765625,83.66666666666667,522.765625,92C522.765625,100.33333333333333,522.765625,108.66666666666667,522.765625,112.83333333333333L522.765625,117" id="edge0" class="transition" marker-end="url(#statediagram-barbEnd)"></path><path d="M462.0078125,149.28451763089603L438.0143229166667,155.32043135908003C414.0208333333333,161.35634508726403,366.0338541666667,173.42817254363203,342.0403645833333,185.214086271816C318.046875,197,318.046875,208.5,318.046875,214.25L318.046875,220" class="transition note-edge"></path><path d="M583.5234375,130.34435053503785L620.4878472222223,128.12029211253153C657.4522569444445,125.89623369002523,731.381076388889,121.44811684501262,777.5865885416666,119.2240584225063C823.7921006944445,117,842.2743055555557,117,860.7565104166666,119.83333333333333C879.2387152777778,122.66666666666667,897.720920138889,128.33333333333334,897.720920138889,134C897.720920138889,139.66666666666666,879.2387152777778,145.33333333333334,860.7565104166666,148.16666666666666C842.2743055555557,151,823.7921006944445,151,777.5865885416666,148.77594157749368C731.381076388889,146.5518831549874,657.4522569444445,142.10376630997476,620.4878472222223,139.87970788746847L583.5234375,137.65564946496215" id="edge1" class="transition" marker-end="url(#statediagram-barbEnd)"></path><path d="M583.5234375,149.28451763089603L607.5169270833334,155.32043135908003C631.5104166666666,161.35634508726403,679.4973958333334,173.42817254363203,703.4908854166666,192.04741960514934C727.484375,210.66666666666666,727.484375,235.83333333333334,727.484375,259.4166666666667C727.484375,283,727.484375,305,727.484375,321.75C727.484375,338.5,727.484375,350,727.484375,361.5C727.484375,373,727.484375,384.5,727.484375,390.25L727.484375,396" id="edge2" class="transition" marker-end="url(#statediagram-barbEnd)"></path><path d="M1273.5,243.88096634997538L1288.4322916666667,241.6924719583128C1303.3645833333333,239.50397756665026,1333.2291666666667,235.12698878332512,1351.89453125,232.93849439166254C1370.5598958333333,230.75,1378.0260416666667,230.75,1385.4921875,235.79166666666666C1392.9583333333333,240.83333333333334,1400.4244791666667,250.91666666666666,1400.4244791666667,261C1400.4244791666667,271.0833333333333,1392.9583333333333,281.1666666666667,1385.4921875,286.2083333333333C1378.0260416666667,291.25,1370.5598958333333,291.25,1351.89453125,289.0615056083374C1333.2291666666667,286.8730112166749,1303.3645833333333,282.49602243334976,1288.4322916666667,280.3075280416872L1273.5,278.1190336500246" id="edge3" class="transition" marker-end="url(#statediagram-barbEnd)"></path><path d="M628.734375,445.07033711224045L588.5690104166666,452.7252809268671C548.4036458333334,460.3802247414936,468.0729166666667,475.6901123707468,427.9075520833333,494.13672285204007C387.7421875,512.5833333333334,387.7421875,534.1666666666666,387.7421875,555.75C387.7421875,577.3333333333334,387.7421875,598.9166666666666,387.7421875,618.2916666666666C387.7421875,637.6666666666666,387.7421875,654.8333333333334,387.7421875,672C387.7421875,689.1666666666666,387.7421875,706.3333333333334,387.7421875,723.5C387.7421875,740.6666666666666,387.7421875,757.8333333333334,387.7421875,775C387.7421875,792.1666666666666,387.7421875,809.3333333333334,387.7421875,823.6666666666666C387.7421875,838,387.7421875,849.5,387.7421875,863.5833333333334C387.7421875,877.6666666666666,387.7421875,894.3333333333334,387.7421875,912.5833333333334C387.7421875,930.8333333333334,387.7421875,950.6666666666666,424.3411458333333,968.0351135786699C460.9401041666667,985.403560490673,534.1380208333334,1000.307120981346,570.7369791666666,1007.7589012266825L607.3359375,1015.2106814720189" id="edge4" class="transition" marker-end="url(#statediagram-barbEnd)"></path><path d="M792.6890383687258,456.5L805.0833132239383,462.25C817.4775880791507,468,842.2661377895753,479.5,854.6604126447877,491C867.0546875,502.5,867.0546875,514,867.0546875,519.75L867.0546875,525.5" id="edge5" class="transition" marker-end="url(#statediagram-barbEnd)"></path><path d="M971.625,577.6336165538835L1005.7643229166666,584.7780137949029C1039.9036458333333,591.9224110359223,1108.1822916666667,606.2112055179612,1142.3216145833333,619.1056027589806C1176.4609375,632,1176.4609375,643.5,1176.4609375,649.25L1176.4609375,655" id="edge6" class="transition" marker-end="url(#statediagram-barbEnd)"></path><path d="M1250.5390625,663.8277959914827L1263.8758680555554,662.356496659569C1277.212673611111,660.8851973276552,1303.8862847222222,657.9425986638275,1320.5572916666667,656.4712993319138C1337.228298611111,655,1343.896701388889,655,1350.5651041666667,657.8333333333334C1357.2335069444446,660.6666666666666,1363.9019097222224,666.3333333333334,1363.9019097222224,672C1363.9019097222224,677.6666666666666,1357.2335069444446,683.3333333333334,1350.5651041666667,686.1666666666666C1343.896701388889,689,1337.228298611111,689,1320.5572916666667,687.5287006680861C1303.8862847222222,686.0574013361725,1277.212673611111,683.1148026723449,1263.8758680555554,681.643503340431L1250.5390625,680.1722040085173" id="edge7" class="transition" marker-end="url(#statediagram-barbEnd)"></path><path d="M1250.5390625,682.0852549076302L1301.2389322916667,688.9877124230252C1351.9388020833333,695.8901699384202,1453.3385416666667,709.6950849692101,1504.0384114583333,722.347542484605C1554.73828125,735,1554.73828125,746.5,1554.73828125,752.25L1554.73828125,758" id="edge8" class="transition" marker-end="url(#statediagram-barbEnd)"></path><path d="M583.5234375,143.11132217116338L630.6341145833334,150.17610180930282C677.7447916666666,157.24088144744226,771.9661458333334,171.37044072372112,848.0955392866998,185.97688702852724C924.2249327400663,200.58333333333334,982.2623654801324,215.66666666666666,1011.2810818501656,223.20833333333334L1040.2997982201987,230.75" id="edge9" class="transition" marker-end="url(#statediagram-barbEnd)"></path><path d="M762.484375,575.6542027903772L723.216796875,583.1285023253143C683.94921875,590.6028018602515,605.4140625,605.5514009301257,566.146484375,621.6090337983961C526.87890625,637.6666666666666,526.87890625,654.8333333333334,526.87890625,672C526.87890625,689.1666666666666,526.87890625,706.3333333333334,536.4660194174758,720.6666666666666C546.0531325849514,735,565.2273589199029,746.5,574.8144720873787,752.25L584.4015852548544,758" id="edge10" class="transition" marker-end="url(#statediagram-barbEnd)"></path><path d="M1102.3828125,679.4675689108078L1029.5826822916667,686.8063074256733C956.7825520833334,694.1450459405386,811.1822916666666,708.8225229702693,732.4830033879449,721.9112614851347C653.7837151092233,735,641.9853989684466,746.5,636.0862408980582,752.25L630.1870828276699,758" id="edge11" class="transition" marker-end="url(#statediagram-barbEnd)"></path><path d="M1477.3743552791261,792L1451.2071450242718,797.75C1425.0399347694174,803.5,1372.7055142597085,815,1346.5383040048544,826.5C1320.37109375,838,1320.37109375,849.5,1320.37109375,860.75C1320.37109375,872,1320.37109375,883,1320.37109375,888.5L1320.37109375,894" id="edge12" class="transition" marker-end="url(#statediagram-barbEnd)"></path><path d="M612.74609375,792L612.74609375,797.75C612.74609375,803.5,612.74609375,815,612.74609375,826.5C612.74609375,838,612.74609375,849.5,612.74609375,863.5833333333334C612.74609375,877.6666666666666,612.74609375,894.3333333333334,612.74609375,912.5833333333334C612.74609375,930.8333333333334,612.74609375,950.6666666666666,621.0058216698841,966.3333333333334C629.2655495897683,982,645.7850054295367,993.5,654.0447333494208,999.25L662.304461269305,1005" id="edge13" class="transition" marker-end="url(#statediagram-barbEnd)"></path><path d="M1181.46484375,926.1697783131148L1113.8111979166667,933.5581485942622C1046.1575520833333,940.9465188754099,910.8502604166666,955.723259437705,836.9994771557272,968.8616297188524C763.1486938947877,982,750.7544190395753,993.5,744.5572816119692,999.25L738.360144184363,1005" id="edge14" class="transition" marker-end="url(#statediagram-barbEnd)"></path><path d="M705.83203125,769.0028719183625L734.2960069444445,767.1690599319687C762.7599826388888,765.3352479455749,819.6879340277777,761.6676239727875,855.2679036458331,759.8338119863938C890.8478732638888,758,905.0798611111112,758,919.3118489583334,760.8333333333334C933.5438368055557,763.6666666666666,947.7758246527778,769.3333333333334,947.7758246527777,775C947.7758246527778,780.6666666666666,933.5438368055557,786.3333333333334,919.3118489583335,789.1666666666666C905.0798611111112,792,890.8478732638888,792,855.2679036458334,790.1661880136062C819.6879340277777,788.3323760272125,762.7599826388888,784.6647520544251,734.2960069444443,782.8309400680313L705.83203125,780.9971280816375" id="edge15" class="transition" marker-end="url(#statediagram-barbEnd)"></path><path d="M1459.27734375,901.6975933031043L1478.4344618055557,900.4146610859202C1497.591579861111,899.1317288687363,1535.905815972222,896.5658644343681,1559.8522135416667,895.2829322171841C1583.798611111111,894,1593.377170138889,894,1602.9557291666667,896.8333333333334C1612.5342881944446,899.6666666666666,1622.1128472222224,905.3333333333334,1622.1128472222224,911C1622.1128472222224,916.6666666666666,1612.5342881944446,922.3333333333334,1602.9557291666667,925.1666666666666C1593.377170138889,928,1583.798611111111,928,1559.8522135416667,926.7170677828159C1535.905815972222,925.4341355656319,1497.591579861111,922.8682711312637,1478.4344618055554,921.5853389140797L1459.27734375,920.3024066968957" id="edge16" class="transition" marker-end="url(#statediagram-barbEnd)"></path><path d="M1156.6953125,291.25L1156.6953125,297.2083333333333C1156.6953125,303.1666666666667,1156.6953125,315.0833333333333,1156.6953125,326.7916666666667C1156.6953125,338.5,1156.6953125,350,1101.6184895833333,364.0587917205143C1046.5416666666667,378.11758344102856,936.3880208333334,394.73516688205706,881.3111979166666,403.04395860257137L826.234375,411.3527503230856" id="edge17" class="transition" marker-end="url(#statediagram-barbEnd)"></path><path d="M705.83203125,759.2906607613733L741.1783854166666,753.3255506344776C776.5247395833334,747.3604405075821,847.2174479166666,735.430220253791,913.3092447916666,723.3410122153595C979.4010416666666,711.2518041769276,1040.8919270833333,699.0036083538553,1071.6373697916667,692.8795104423192L1102.3828125,686.755412530783" id="edge18" class="transition" marker-end="url(#statediagram-barbEnd)"></path><path d="M1459.27734375,923.03223274911L1550.609375,930.943527290925C1641.94140625,938.85482183274,1824.60546875,954.6774109163699,1915.9375,970.5470387915184C2007.26953125,986.4166666666666,2007.26953125,1002.3333333333334,2007.26953125,1010.2916666666666L2007.26953125,1018.25" id="edge19" class="transition" marker-end="url(#statediagram-barbEnd)"></path><path d="M1632.1022072208739,792L1658.2694174757282,797.75C1684.4366277305826,803.5,1736.7710482402915,815,1762.9382584951456,826.5C1789.10546875,838,1789.10546875,849.5,1789.10546875,863.5833333333334C1789.10546875,877.6666666666666,1789.10546875,894.3333333333334,1789.10546875,912.5833333333334C1789.10546875,930.8333333333334,1789.10546875,950.6666666666666,1789.10546875,971.375C1789.10546875,992.0833333333334,1789.10546875,1013.6666666666666,1789.10546875,1033.6666666666667C1789.10546875,1053.6666666666667,1789.10546875,1072.0833333333333,1789.10546875,1087.0416666666667C1789.10546875,1102,1789.10546875,1113.5,1798.7922900579151,1125C1808.4791113658302,1136.5,1827.8527539816603,1148,1837.5395752895754,1153.75L1847.2263965974903,1159.5" id="edge20" class="transition" marker-end="url(#statediagram-barbEnd)"></path><path d="M2007.26953125,1052.25L2007.26953125,1058.625C2007.26953125,1065,2007.26953125,1077.75,2007.26953125,1089.875C2007.26953125,1102,2007.26953125,1113.5,1997.5827099420849,1125C1987.8958886341698,1136.5,1968.5222460183397,1148,1958.8354247104246,1153.75L1949.1486034025097,1159.5" id="edge21" class="transition" marker-end="url(#statediagram-barbEnd)"></path><path d="M1898.1875,1220L1898.1875,1225.75C1898.1875,1231.5,1898.1875,1243,1898.1875,1254.5C1898.1875,1266,1898.1875,1277.5,1898.1875,1283.25L1898.1875,1289" id="edge22" class="transition" marker-end="url(#statediagram-barbEnd)"></path><path d="M705.7578125,1065.5L705.7578125,1069.6666666666667C705.7578125,1073.8333333333333,705.7578125,1082.1666666666667,705.7578125,1092.0833333333333C705.7578125,1102,705.7578125,1113.5,705.7578125,1127.2083333333333C705.7578125,1140.9166666666667,705.7578125,1156.8333333333333,705.7578125,1164.7916666666667L705.7578125,1172.75" id="edge23" class="transition" marker-end="url(#statediagram-barbEnd)"></path><path d="M938.33984375,936L938.33984375,941.75C938.33984375,947.5,938.33984375,959,915.9798177083334,970.974950734228C893.6197916666666,982.9499014684558,848.8997395833334,995.3998029369118,826.5397135416666,1001.6247536711397L804.1796875,1007.8497044053677" class="transition note-edge"></path></g><g class="edgeLabels"><g class="edgeLabel"><g class="label" transform="translate(0, 0)"><rect rx="0" ry="0" width="0" height="0" style="fill:#e8e8e8;"></rect><text style=""></text></g></g><g class="edgeLabel"><g class="label" transform="translate(0, 0)"><rect rx="0" ry="0" width="0" height="0" style="fill:#e8e8e8;"></rect><text style=""></text></g></g><g class="edgeLabel" transform="translate(916.203125, 134)"><g class="label" transform="translate(-68.6875, -9.5)"><rect rx="0" ry="0" width="137.296875" height="19.03125" style="fill:#e8e8e8;"></rect><text style=""><tspan xml:space="preserve" dy="1em" x="0" class="row">ProviderEventOpen</tspan></text></g></g><g class="edgeLabel" transform="translate(727.484375, 261)"><g class="label" transform="translate(-99.390625, -9.5)"><rect rx="0" ry="0" width="198.65625" height="19.03125" style="fill:#e8e8e8;"></rect><text style=""><tspan xml:space="preserve" dy="1em" x="0" class="row">ProviderEventDealAccepted</tspan></text></g></g><g class="edgeLabel" transform="translate(1407.890625, 261)"><g class="label" transform="translate(-99.390625, -9.5)"><rect rx="0" ry="0" width="198.65625" height="19.03125" style="fill:#e8e8e8;"></rect><text style=""><tspan xml:space="preserve" dy="1em" x="0" class="row">ProviderEventDealAccepted</tspan></text></g></g><g class="edgeLabel" transform="translate(387.7421875, 723.5)"><g class="label" transform="translate(-91.734375, -9.5)"><rect rx="0" ry="0" width="183.359375" height="19.03125" style="fill:#e8e8e8;"></rect><text style=""><tspan xml:space="preserve" dy="1em" x="0" class="row">ProviderEventUnsealError</tspan></text></g></g><g class="edgeLabel" transform="translate(867.0546875, 491)"><g class="label" transform="translate(-108.2578125, -9.5)"><rect rx="0" ry="0" width="216.390625" height="19.03125" style="fill:#e8e8e8;"></rect><text style=""><tspan xml:space="preserve" dy="1em" x="0" class="row">ProviderEventUnsealComplete</tspan></text></g></g><g class="edgeLabel" transform="translate(1176.4609375, 620.5)"><g class="label" transform="translate(-85.03125, -9.5)"><rect rx="0" ry="0" width="169.96875" height="19.03125" style="fill:#e8e8e8;"></rect><text style=""><tspan xml:space="preserve" dy="1em" x="0" class="row">ProviderEventBlockSent</tspan></text></g></g><g class="edgeLabel" transform="translate(1370.5703125, 672)"><g class="label" transform="translate(-85.03125, -9.5)"><rect rx="0" ry="0" width="169.96875" height="19.03125" style="fill:#e8e8e8;"></rect><text style=""><tspan xml:space="preserve" dy="1em" x="0" class="row">ProviderEventBlockSent</tspan></text></g></g><g class="edgeLabel" transform="translate(1554.73828125, 723.5)"><g class="label" transform="translate(-111.40625, -9.5)"><rect rx="0" ry="0" width="222.6875" height="19.03125" style="fill:#e8e8e8;"></rect><text style=""><tspan xml:space="preserve" dy="1em" x="0" class="row">ProviderEventBlocksCompleted</tspan></text></g></g><g class="edgeLabel" transform="translate(866.1875, 185.5)"><g class="label" transform="translate(-118.703125, -9.5)"><rect rx="0" ry="0" width="237.265625" height="19.03125" style="fill:#e8e8e8;"></rect><text style=""><tspan xml:space="preserve" dy="1em" x="0" class="row">ProviderEventPaymentRequested</tspan></text></g></g><g class="edgeLabel" transform="translate(526.87890625, 672)"><g class="label" transform="translate(-118.703125, -9.5)"><rect rx="0" ry="0" width="237.265625" height="19.03125" style="fill:#e8e8e8;"></rect><text style=""><tspan xml:space="preserve" dy="1em" x="0" class="row">ProviderEventPaymentRequested</tspan></text></g></g><g class="edgeLabel" transform="translate(665.58203125, 723.5)"><g class="label" transform="translate(-118.703125, -9.5)"><rect rx="0" ry="0" width="237.265625" height="19.03125" style="fill:#e8e8e8;"></rect><text style=""><tspan xml:space="preserve" dy="1em" x="0" class="row">ProviderEventPaymentRequested</tspan></text></g></g><g class="edgeLabel" transform="translate(1320.37109375, 826.5)"><g class="label" transform="translate(-118.703125, -9.5)"><rect rx="0" ry="0" width="237.265625" height="19.03125" style="fill:#e8e8e8;"></rect><text style=""><tspan xml:space="preserve" dy="1em" x="0" class="row">ProviderEventPaymentRequested</tspan></text></g></g><g class="edgeLabel" transform="translate(612.74609375, 911)"><g class="label" transform="translate(-117.46875, -9.5)"><rect rx="0" ry="0" width="234.796875" height="19.03125" style="fill:#e8e8e8;"></rect><text style=""><tspan xml:space="preserve" dy="1em" x="0" class="row">ProviderEventSaveVoucherFailed</tspan></text></g></g><g class="edgeLabel" transform="translate(775.54296875, 970.5)"><g class="label" transform="translate(-117.46875, -9.5)"><rect rx="0" ry="0" width="234.796875" height="19.03125" style="fill:#e8e8e8;"></rect><text style=""><tspan xml:space="preserve" dy="1em" x="0" class="row">ProviderEventSaveVoucherFailed</tspan></text></g></g><g class="edgeLabel" transform="translate(962.0078125, 775)"><g class="label" transform="translate(-137.4140625, -9.5)"><rect rx="0" ry="0" width="274.65625" height="19.03125" style="fill:#e8e8e8;"></rect><text style=""><tspan xml:space="preserve" dy="1em" x="0" class="row">ProviderEventPartialPaymentReceived</tspan></text></g></g><g class="edgeLabel" transform="translate(1631.69140625, 911)"><g class="label" transform="translate(-137.4140625, -9.5)"><rect rx="0" ry="0" width="274.65625" height="19.03125" style="fill:#e8e8e8;"></rect><text style=""><tspan xml:space="preserve" dy="1em" x="0" class="row">ProviderEventPartialPaymentReceived</tspan></text></g></g><g class="edgeLabel" transform="translate(1156.6953125, 361.5)"><g class="label" transform="translate(-113.625, -9.5)"><rect rx="0" ry="0" width="227.109375" height="19.03125" style="fill:#e8e8e8;"></rect><text style=""><tspan xml:space="preserve" dy="1em" x="0" class="row">ProviderEventPaymentReceived</tspan></text></g></g><g class="edgeLabel" transform="translate(917.91015625, 723.5)"><g class="label" transform="translate(-113.625, -9.5)"><rect rx="0" ry="0" width="227.109375" height="19.03125" style="fill:#e8e8e8;"></rect><text style=""><tspan xml:space="preserve" dy="1em" x="0" class="row">ProviderEventPaymentReceived</tspan></text></g></g><g class="edgeLabel" transform="translate(2007.26953125, 970.5)"><g class="label" transform="translate(-113.625, -9.5)"><rect rx="0" ry="0" width="227.109375" height="19.03125" style="fill:#e8e8e8;"></rect><text style=""><tspan xml:space="preserve" dy="1em" x="0" class="row">ProviderEventPaymentReceived</tspan></text></g></g><g class="edgeLabel" transform="translate(1789.10546875, 970.5)"><g class="label" transform="translate(-84.5390625, -9.5)"><rect rx="0" ry="0" width="168.96875" height="19.03125" style="fill:#e8e8e8;"></rect><text style=""><tspan xml:space="preserve" dy="1em" x="0" class="row">ProviderEventComplete</tspan></text></g></g><g class="edgeLabel" transform="translate(2007.26953125, 1125)"><g class="label" transform="translate(-84.5390625, -9.5)"><rect rx="0" ry="0" width="168.96875" height="19.03125" style="fill:#e8e8e8;"></rect><text style=""><tspan xml:space="preserve" dy="1em" x="0" class="row">ProviderEventComplete</tspan></text></g></g><g class="edgeLabel" transform="translate(1898.1875, 1254.5)"><g class="label" transform="translate(-113.4453125, -9.5)"><rect rx="0" ry="0" width="226.75" height="19.03125" style="fill:#e8e8e8;"></rect><text style=""><tspan xml:space="preserve" dy="1em" x="0" class="row">ProviderEventCleanupComplete</tspan></text></g></g><g class="edgeLabel" transform="translate(705.7578125, 1125)"><g class="label" transform="translate(-108.578125, -9.5)"><rect rx="0" ry="0" width="217.03125" height="19.03125" style="fill:#e8e8e8;"></rect><text style=""><tspan xml:space="preserve" dy="1em" x="0" class="row">ProviderEventCancelComplete</tspan></text></g></g><g class="edgeLabel"><g class="label" transform="translate(0, 0)"><rect rx="0" ry="0" width="0" height="0" style="fill:#e8e8e8;"></rect><text style=""></text></g></g></g><g class="nodes"><g class="node statediagram-state" id="0" transform="translate(522.765625, 134)"><rect class="outer title-state" x="-60.7578125" y="-17" width="121.515625" height="34"></rect><line class="divider" x1="-60.7578125" x2="60.7578125" y1="9.5" y2="9.5"></line><g class="label" transform="translate(-53.2578125, -14)"><text style=""><tspan xml:space="preserve" dy="1em" x="0" class="title-row">DealStatusNew</tspan></text><text style="" transform="translate( 0, 26.5)"><tspan xml:space="preserve" dy="1em" x="0" class="title-row"></tspan></text></g></g><g class="node statediagram-state" id="1" transform="translate(727.484375, 426.25)"><rect class="outer title-state" x="-98.75" y="-30.25" width="197.5" height="60.5"></rect><line class="divider" x1="-98.75" x2="98.75" y1="-3.75" y2="-3.75"></line><g class="label" transform="translate(-91.25, -27.25)"><text style=""><tspan xml:space="preserve" dy="1em" x="0" class="title-row">DealStatusUnsealing</tspan></text><text style="" transform="translate( 0, 26.5)"><tspan xml:space="preserve" dy="1em" x="0" class="title-row">On entry runs UnsealData</tspan></text></g></g><g class="node statediagram-state" id="2" transform="translate(867.0546875, 555.75)"><rect class="outer title-state" x="-104.5703125" y="-30.25" width="209.140625" height="60.5"></rect><line class="divider" x1="-104.5703125" x2="104.5703125" y1="-3.75" y2="-3.75"></line><g class="label" transform="translate(-97.0703125, -27.25)"><text style=""><tspan xml:space="preserve" dy="1em" x="0" class="title-row">DealStatusUnsealed</tspan></text><text style="" transform="translate( 0, 26.5)"><tspan xml:space="preserve" dy="1em" x="0" class="title-row">On entry runs UnpauseDeal</tspan></text></g></g><g class="node statediagram-state" id="7" transform="translate(1156.6953125, 261)"><rect class="outer title-state" x="-116.8046875" y="-30.25" width="233.609375" height="60.5"></rect><line class="divider" x1="-116.8046875" x2="116.8046875" y1="-3.75" y2="-3.75"></line><g class="label" transform="translate(-109.3046875, -27.25)"><text style=""><tspan xml:space="preserve" dy="1em" x="0" class="title-row">DealStatusFundsNeededUnseal</tspan></text><text style="" transform="translate( 0, 26.5)"><tspan xml:space="preserve" dy="1em" x="0" class="title-row">On entry runs TrackTransfer</tspan></text></g></g><g class="node statediagram-state" id="8" transform="translate(705.7578125, 1035.25)"><rect class="outer title-state" x="-98.421875" y="-30.25" width="196.84375" height="60.5"></rect><line class="divider" x1="-98.421875" x2="98.421875" y1="-3.75" y2="-3.75"></line><g class="label" transform="translate(-90.921875, -27.25)"><text style=""><tspan xml:space="preserve" dy="1em" x="0" class="title-row">DealStatusFailing</tspan></text><text style="" transform="translate( 0, 26.5)"><tspan xml:space="preserve" dy="1em" x="0" class="title-row">On entry runs CancelDeal</tspan></text></g></g><g class="node statediagram-state" id="10" transform="translate(612.74609375, 775)"><rect class="outer title-state" x="-93.0859375" y="-17" width="186.171875" height="34"></rect><line class="divider" x1="-93.0859375" x2="93.0859375" y1="9.5" y2="9.5"></line><g class="label" transform="translate(-85.5859375, -14)"><text style=""><tspan xml:space="preserve" dy="1em" x="0" class="title-row">DealStatusFundsNeeded</tspan></text><text style="" transform="translate( 0, 26.5)"><tspan xml:space="preserve" dy="1em" x="0" class="title-row"></tspan></text></g></g><g class="node statediagram-state" id="13" transform="translate(1176.4609375, 672)"><rect class="outer title-state" x="-74.078125" y="-17" width="148.15625" height="34"></rect><line class="divider" x1="-74.078125" x2="74.078125" y1="9.5" y2="9.5"></line><g class="label" transform="translate(-66.578125, -14)"><text style=""><tspan xml:space="preserve" dy="1em" x="0" class="title-row">DealStatusOngoing</tspan></text><text style="" transform="translate( 0, 26.5)"><tspan xml:space="preserve" dy="1em" x="0" class="title-row"></tspan></text></g></g><g class="node statediagram-state" id="14" transform="translate(1320.37109375, 911)"><rect class="outer title-state" x="-138.90625" y="-17" width="277.8125" height="34"></rect><line class="divider" x1="-138.90625" x2="138.90625" y1="9.5" y2="9.5"></line><g class="label" transform="translate(-131.40625, -14)"><text style=""><tspan xml:space="preserve" dy="1em" x="0" class="title-row">DealStatusFundsNeededLastPayment</tspan></text><text style="" transform="translate( 0, 26.5)"><tspan xml:space="preserve" dy="1em" x="0" class="title-row"></tspan></text></g></g><g class="node statediagram-state" id="15" transform="translate(1898.1875, 1306)"><rect class="outer title-state" x="-84.2265625" y="-17" width="168.453125" height="34"></rect><line class="divider" x1="-84.2265625" x2="84.2265625" y1="9.5" y2="9.5"></line><g class="label" transform="translate(-76.7265625, -14)"><text style=""><tspan xml:space="preserve" dy="1em" x="0" class="title-row">DealStatusCompleted</tspan></text><text style="" transform="translate( 0, 26.5)"><tspan xml:space="preserve" dy="1em" x="0" class="title-row"></tspan></text></g></g><g class="node statediagram-state" id="17" transform="translate(705.7578125, 1189.75)"><rect class="outer title-state" x="-72.0625" y="-17" width="144.125" height="34"></rect><line class="divider" x1="-72.0625" x2="72.0625" y1="9.5" y2="9.5"></line><g class="label" transform="translate(-64.5625, -14)"><text style=""><tspan xml:space="preserve" dy="1em" x="0" class="title-row">DealStatusErrored</tspan></text><text style="" transform="translate( 0, 26.5)"><tspan xml:space="preserve" dy="1em" x="0" class="title-row"></tspan></text></g></g><g class="node statediagram-state" id="18" transform="translate(1554.73828125, 775)"><rect class="outer title-state" x="-102.1875" y="-17" width="204.375" height="34"></rect><line class="divider" x1="-102.1875" x2="102.1875" y1="9.5" y2="9.5"></line><g class="label" transform="translate(-94.6875, -14)"><text style=""><tspan xml:space="preserve" dy="1em" x="0" class="title-row">DealStatusBlocksComplete</tspan></text><text style="" transform="translate( 0, 26.5)"><tspan xml:space="preserve" dy="1em" x="0" class="title-row"></tspan></text></g></g><g class="node statediagram-state" id="19" transform="translate(2007.26953125, 1035.25)"><rect class="outer title-state" x="-79.5" y="-17" width="159" height="34"></rect><line class="divider" x1="-79.5" x2="79.5" y1="9.5" y2="9.5"></line><g class="label" transform="translate(-72, -14)"><text style=""><tspan xml:space="preserve" dy="1em" x="0" class="title-row">DealStatusFinalizing</tspan></text><text style="" transform="translate( 0, 26.5)"><tspan xml:space="preserve" dy="1em" x="0" class="title-row"></tspan></text></g></g><g class="node statediagram-state" id="20" transform="translate(1898.1875, 1189.75)"><rect class="outer title-state" x="-103.2890625" y="-30.25" width="206.578125" height="60.5"></rect><line class="divider" x1="-103.2890625" x2="103.2890625" y1="-3.75" y2="-3.75"></line><g class="label" transform="translate(-95.7890625, -27.25)"><text style=""><tspan xml:space="preserve" dy="1em" x="0" class="title-row">DealStatusCompleting</tspan></text><text style="" transform="translate( 0, 26.5)"><tspan xml:space="preserve" dy="1em" x="0" class="title-row">On entry runs CleanupDeal</tspan></text></g></g><g class="node statediagram-state" id="26" transform="translate(385.203125, 25)"><rect class="outer title-state" x="-80.5625" y="-17" width="161.125" height="34"></rect><line class="divider" x1="-80.5625" x2="80.5625" y1="9.5" y2="9.5"></line><g class="label" transform="translate(-73.0625, -14)"><text style=""><tspan xml:space="preserve" dy="1em" x="0" class="title-row">DealStatusCancelled</tspan></text><text style="" transform="translate( 0, 26.5)"><tspan xml:space="preserve" dy="1em" x="0" class="title-row"></tspan></text></g></g><g class="node default" id="root_start" transform="translate(522.765625, 25)"><circle class="state-start" r="7" width="14" height="14"></circle></g><g class="node statediagram-note" id="0----note" transform="translate(318.046875, 261)"><rect x="-275.046875" y="-41" width="550.09375" height="82"></rect><g class="label" transform="translate(-267.546875, -33.5)"><text style=""><tspan xml:space="preserve" dy="1em" x="0" class="row">The following events are not shown cause they can trigger from any state.</tspan><tspan xml:space="preserve" dy="1em" x="0" class="row"></tspan><tspan xml:space="preserve" dy="1em" x="0" class="row">ProviderEventDataTransferError - transitions state to DealStatusErrored</tspan><tspan xml:space="preserve" dy="1em" x="0" class="row">ProviderEventMultiStoreError - transitions state to DealStatusErrored</tspan><tspan xml:space="preserve" dy="1em" x="0" class="row">ProviderEventClientCancelled - transitions state to DealStatusCancelled</tspan></text></g></g><g class="node statediagram-note" id="8----note" transform="translate(938.33984375, 911)"><rect x="-173.125" y="-25" width="346.25" height="50"></rect><g class="label" transform="translate(-165.625, -17.5)"><text style=""><tspan xml:space="preserve" dy="1em" x="0" class="row">The following events only record in this state.</tspan><tspan xml:space="preserve" dy="1em" x="0" class="row"></tspan><tspan xml:space="preserve" dy="1em" x="0" class="row">ProviderEventClientCancelled</tspan></text></g></g></g></g></g></svg>