<svg id="mermaid-1599179395798" width="4531.91015625" xmlns="http://www.w3.org/2000/svg" class="statediagram" height="2253" viewBox="0 0 4531.91015625 2253"><style>#mermaid-1599179395798 .label{font-family:'trebuchet ms', verdana, arial;font-family:var(--mermaid-font-family);color:#333}#mermaid-1599179395798 .label text{fill:#333}#mermaid-1599179395798 .node rect,#mermaid-1599179395798 .node circle,#mermaid-1599179395798 .node ellipse,#mermaid-1599179395798 .node polygon,#mermaid-1599179395798 .node path{fill:#ECECFF;stroke:#9370db;stroke-width:1px}#mermaid-1599179395798 .node .label{text-align:center}#mermaid-1599179395798 .node.clickable{cursor:pointer}#mermaid-1599179395798 .arrowheadPath{fill:#333}#mermaid-1599179395798 .edgePath .path{stroke:#333;stroke-width:1.5px}#mermaid-1599179395798 .edgeLabel{background-color:#e8e8e8;text-align:center}#mermaid-1599179395798 .edgeLabel rect{opacity:0.5}#mermaid-1599179395798 .cluster rect{fill:#ffffde;stroke:#aa3;stroke-width:1px}#mermaid-1599179395798 .cluster text{fill:#333}#mermaid-1599179395798 div.mermaidTooltip{position:absolute;text-align:center;max-width:200px;padding:2px;font-family:'trebuchet ms', verdana, arial;font-family:var(--mermaid-font-family);font-size:12px;background:#ffffde;border:1px solid #aa3;border-radius:2px;pointer-events:none;z-index:100}#mermaid-1599179395798 .actor{stroke:#ccf;fill:#ECECFF}#mermaid-1599179395798 text.actor{fill:#000;stroke:none}#mermaid-1599179395798 .actor-line{stroke:grey}#mermaid-1599179395798 .messageLine0{stroke-width:1.5;stroke-dasharray:'2 2';stroke:#333}#mermaid-1599179395798 .messageLine1{stroke-width:1.5;stroke-dasharray:'2 2';stroke:#333}#mermaid-1599179395798 #arrowhead{fill:#333}#mermaid-1599179395798 .sequenceNumber{fill:#fff}#mermaid-1599179395798 #sequencenumber{fill:#333}#mermaid-1599179395798 #crosshead path{fill:#333 !important;stroke:#333 !important}#mermaid-1599179395798 .messageText{fill:#333;stroke:none}#mermaid-1599179395798 .labelBox{stroke:#ccf;fill:#ECECFF}#mermaid-1599179395798 .labelText{fill:#000;stroke:none}#mermaid-1599179395798 .loopText{fill:#000;stroke:none}#mermaid-1599179395798 .loopLine{stroke-width:2;stroke-dasharray:'2 2';stroke:#ccf}#mermaid-1599179395798 .note{stroke:#aa3;fill:#fff5ad}#mermaid-1599179395798 .noteText{fill:black;stroke:none;font-family:'trebuchet ms', verdana, arial;font-family:var(--mermaid-font-family);font-size:14px}#mermaid-1599179395798 .activation0{fill:#f4f4f4;stroke:#666}#mermaid-1599179395798 .activation1{fill:#f4f4f4;stroke:#666}#mermaid-1599179395798 .activation2{fill:#f4f4f4;stroke:#666}#mermaid-1599179395798 .mermaid-main-font{font-family:"trebuchet ms", verdana, arial;font-family:var(--mermaid-font-family)}#mermaid-1599179395798 .section{stroke:none;opacity:0.2}#mermaid-1599179395798 .section0{fill:rgba(102,102,255,0.49)}#mermaid-1599179395798 .section2{fill:#fff400}#mermaid-1599179395798 .section1,#mermaid-1599179395798 .section3{fill:#fff;opacity:0.2}#mermaid-1599179395798 .sectionTitle0{fill:#333}#mermaid-1599179395798 .sectionTitle1{fill:#333}#mermaid-1599179395798 .sectionTitle2{fill:#333}#mermaid-1599179395798 .sectionTitle3{fill:#333}#mermaid-1599179395798 .sectionTitle{text-anchor:start;font-size:11px;text-height:14px;font-family:'trebuchet ms', verdana, arial;font-family:var(--mermaid-font-family)}#mermaid-1599179395798 .grid .tick{stroke:#d3d3d3;opacity:0.8;shape-rendering:crispEdges}#mermaid-1599179395798 .grid .tick text{font-family:'trebuchet ms', verdana, arial;font-family:var(--mermaid-font-family)}#mermaid-1599179395798 .grid path{stroke-width:0}#mermaid-1599179395798 .today{fill:none;stroke:red;stroke-width:2px}#mermaid-1599179395798 .task{stroke-width:2}#mermaid-1599179395798 .taskText{text-anchor:middle;font-family:'trebuchet ms', verdana, arial;font-family:var(--mermaid-font-family)}#mermaid-1599179395798 .taskText:not([font-size]){font-size:11px}#mermaid-1599179395798 .taskTextOutsideRight{fill:#000;text-anchor:start;font-size:11px;font-family:'trebuchet ms', verdana, arial;font-family:var(--mermaid-font-family)}#mermaid-1599179395798 .taskTextOutsideLeft{fill:#000;text-anchor:end;font-size:11px}#mermaid-1599179395798 .task.clickable{cursor:pointer}#mermaid-1599179395798 .taskText.clickable{cursor:pointer;fill:#003163 !important;font-weight:bold}#mermaid-1599179395798 .taskTextOutsideLeft.clickable{cursor:pointer;fill:#003163 !important;font-weight:bold}#mermaid-1599179395798 .taskTextOutsideRight.clickable{cursor:pointer;fill:#003163 !important;font-weight:bold}#mermaid-1599179395798 .taskText0,#mermaid-1599179395798 .taskText1,#mermaid-1599179395798 .taskText2,#mermaid-1599179395798 .taskText3{fill:#fff}#mermaid-1599179395798 .task0,#mermaid-1599179395798 .task1,#mermaid-1599179395798 .task2,#mermaid-1599179395798 .task3{fill:#8a90dd;stroke:#534fbc}#mermaid-1599179395798 .taskTextOutside0,#mermaid-1599179395798 .taskTextOutside2{fill:#000}#mermaid-1599179395798 .taskTextOutside1,#mermaid-1599179395798 .taskTextOutside3{fill:#000}#mermaid-1599179395798 .active0,#mermaid-1599179395798 .active1,#mermaid-1599179395798 .active2,#mermaid-1599179395798 .active3{fill:#bfc7ff;stroke:#534fbc}#mermaid-1599179395798 .activeText0,#mermaid-1599179395798 .activeText1,#mermaid-1599179395798 .activeText2,#mermaid-1599179395798 .activeText3{fill:#000 !important}#mermaid-1599179395798 .done0,#mermaid-1599179395798 .done1,#mermaid-1599179395798 .done2,#mermaid-1599179395798 .done3{stroke:grey;fill:#d3d3d3;stroke-width:2}#mermaid-1599179395798 .doneText0,#mermaid-1599179395798 .doneText1,#mermaid-1599179395798 .doneText2,#mermaid-1599179395798 .doneText3{fill:#000 !important}#mermaid-1599179395798 .crit0,#mermaid-1599179395798 .crit1,#mermaid-1599179395798 .crit2,#mermaid-1599179395798 .crit3{stroke:#f88;fill:red;stroke-width:2}#mermaid-1599179395798 .activeCrit0,#mermaid-1599179395798 .activeCrit1,#mermaid-1599179395798 .activeCrit2,#mermaid-1599179395798 .activeCrit3{stroke:#f88;fill:#bfc7ff;stroke-width:2}#mermaid-1599179395798 .doneCrit0,#mermaid-1599179395798 .doneCrit1,#mermaid-1599179395798 .doneCrit2,#mermaid-1599179395798 .doneCrit3{stroke:#f88;fill:#d3d3d3;stroke-width:2;cursor:pointer;shape-rendering:crispEdges}#mermaid-1599179395798 .milestone{transform:rotate(45deg) scale(0.8, 0.8)}#mermaid-1599179395798 .milestoneText{font-style:italic}#mermaid-1599179395798 .doneCritText0,#mermaid-1599179395798 .doneCritText1,#mermaid-1599179395798 .doneCritText2,#mermaid-1599179395798 .doneCritText3{fill:#000 !important}#mermaid-1599179395798 .activeCritText0,#mermaid-1599179395798 .activeCritText1,#mermaid-1599179395798 .activeCritText2,#mermaid-1599179395798 .activeCritText3{fill:#000 !important}#mermaid-1599179395798 .titleText{text-anchor:middle;font-size:18px;fill:#000;font-family:'trebuchet ms', verdana, arial;font-family:var(--mermaid-font-family)}#mermaid-1599179395798 g.classGroup text{fill:#9370db;stroke:none;font-family:'trebuchet ms', verdana, arial;font-family:var(--mermaid-font-family);font-size:10px}#mermaid-1599179395798 g.classGroup text .title{font-weight:bolder}#mermaid-1599179395798 g.clickable{cursor:pointer}#mermaid-1599179395798 g.classGroup rect{fill:#ECECFF;stroke:#9370db}#mermaid-1599179395798 g.classGroup line{stroke:#9370db;stroke-width:1}#mermaid-1599179395798 .classLabel .box{stroke:none;stroke-width:0;fill:#ECECFF;opacity:0.5}#mermaid-1599179395798 .classLabel .label{fill:#9370db;font-size:10px}#mermaid-1599179395798 .relation{stroke:#9370db;stroke-width:1;fill:none}#mermaid-1599179395798 .dashed-line{stroke-dasharray:3}#mermaid-1599179395798 #compositionStart{fill:#9370db;stroke:#9370db;stroke-width:1}#mermaid-1599179395798 #compositionEnd{fill:#9370db;stroke:#9370db;stroke-width:1}#mermaid-1599179395798 #aggregationStart{fill:#ECECFF;stroke:#9370db;stroke-width:1}#mermaid-1599179395798 #aggregationEnd{fill:#ECECFF;stroke:#9370db;stroke-width:1}#mermaid-1599179395798 #dependencyStart{fill:#9370db;stroke:#9370db;stroke-width:1}#mermaid-1599179395798 #dependencyEnd{fill:#9370db;stroke:#9370db;stroke-width:1}#mermaid-1599179395798 #extensionStart{fill:#9370db;stroke:#9370db;stroke-width:1}#mermaid-1599179395798 #extensionEnd{fill:#9370db;stroke:#9370db;stroke-width:1}#mermaid-1599179395798 .commit-id,#mermaid-1599179395798 .commit-msg,#mermaid-1599179395798 .branch-label{fill:lightgrey;color:lightgrey;font-family:'trebuchet ms', verdana, arial;font-family:var(--mermaid-font-family)}#mermaid-1599179395798 .pieTitleText{text-anchor:middle;font-size:25px;fill:#000;font-family:'trebuchet ms', verdana, arial;font-family:var(--mermaid-font-family)}#mermaid-1599179395798 .slice{font-family:'trebuchet ms', verdana, arial;font-family:var(--mermaid-font-family)}#mermaid-1599179395798 g.stateGroup text{fill:#9370db;stroke:none;font-size:10px;font-family:'trebuchet ms', verdana, arial;font-family:var(--mermaid-font-family)}#mermaid-1599179395798 g.stateGroup text{fill:#9370db;stroke:none;font-size:10px}#mermaid-1599179395798 g.stateGroup .state-title{font-weight:bolder;fill:#000}#mermaid-1599179395798 g.stateGroup rect{fill:#ECECFF;stroke:#9370db}#mermaid-1599179395798 g.stateGroup line{stroke:#9370db;stroke-width:1}#mermaid-1599179395798 .transition{stroke:#9370db;stroke-width:1;fill:none}#mermaid-1599179395798 .stateGroup .composit{fill:white;border-bottom:1px}#mermaid-1599179395798 .stateGroup .alt-composit{fill:#e0e0e0;border-bottom:1px}#mermaid-1599179395798 .state-note{stroke:#aa3;fill:#fff5ad}#mermaid-1599179395798 .state-note text{fill:black;stroke:none;font-size:10px}#mermaid-1599179395798 .stateLabel .box{stroke:none;stroke-width:0;fill:#ECECFF;opacity:0.5}#mermaid-1599179395798 .stateLabel text{fill:#000;font-size:10px;font-weight:bold;font-family:'trebuchet ms', verdana, arial;font-family:var(--mermaid-font-family)}#mermaid-1599179395798 .node circle.state-start{fill:black;stroke:black}#mermaid-1599179395798 .node circle.state-end{fill:black;stroke:white;stroke-width:1.5}#mermaid-1599179395798 #statediagram-barbEnd{fill:#9370db}#mermaid-1599179395798 .statediagram-cluster rect{fill:#ECECFF;stroke:#9370db;stroke-width:1px}#mermaid-1599179395798 .statediagram-cluster rect.outer{rx:5px;ry:5px}#mermaid-1599179395798 .statediagram-state .divider{stroke:#9370db}#mermaid-1599179395798 .statediagram-state .title-state{rx:5px;ry:5px}#mermaid-1599179395798 .statediagram-cluster.statediagram-cluster .inner{fill:white}#mermaid-1599179395798 .statediagram-cluster.statediagram-cluster-alt .inner{fill:#e0e0e0}#mermaid-1599179395798 .statediagram-cluster .inner{rx:0;ry:0}#mermaid-1599179395798 .statediagram-state rect.basic{rx:5px;ry:5px}#mermaid-1599179395798 .statediagram-state rect.divider{stroke-dasharray:10,10;fill:#efefef}#mermaid-1599179395798 .note-edge{stroke-dasharray:5}#mermaid-1599179395798 .statediagram-note rect{fill:#fff5ad;stroke:#aa3;stroke-width:1px;rx:0;ry:0}:root{--mermaid-font-family: '"trebuchet ms", verdana, arial';--mermaid-font-family: "Comic Sans MS", "Comic Sans", cursive}

:root { --mermaid-font-family: "trebuchet ms", verdana, arial;}</style><style>#mermaid-1599179395798 {
    color: rgb(0, 0, 0);
    font: 16px "trebuchet ms", verdana, arial;
  }</style><g><defs><marker id="statediagram-barbEnd" refX="19" refY="7" markerWidth="20" markerHeight="14" markerUnits="0" orient="auto"><path d="M 19,7 L9,13 L14,7 L9,1 Z"></path></marker></defs><g class="root"><g class="clusters"><g class="note-cluster" id="0----parent"><rect x="1246.703125" y="72" width="643.5" height="356" fill="none"></rect></g><g class="note-cluster" id="3----parent"><rect x="3983.19921875" y="72" width="471.1640625" height="356" fill="none"></rect></g><g class="note-cluster" id="4----parent"><rect x="8" y="497" width="560.015625" height="365" fill="none"></rect></g><g class="note-cluster" id="6----parent"><rect x="3205.83203125" y="264" width="757.3671875" height="381" fill="none"></rect></g><g class="note-cluster" id="10----parent"><rect x="1554.0859375" y="1215" width="1060.48046875" height="229.5" fill="none"></rect></g><g class="note-cluster" id="11----parent"><rect x="798.78125" y="1513.5" width="766.55078125" height="240" fill="none"></rect></g><g class="note-cluster" id="24----parent"><rect x="1458.6171875" y="714" width="2382.40625" height="302.5" fill="none"></rect></g></g><g class="edgePaths"><path d="M1513.48046875,22L1513.48046875,26.166666666666668C1513.48046875,30.333333333333332,1513.48046875,38.666666666666664,1513.48046875,47C1513.48046875,55.333333333333336,1513.48046875,63.666666666666664,1513.48046875,75.125C1513.48046875,86.58333333333333,1513.48046875,101.16666666666667,1513.48046875,108.45833333333333L1513.48046875,115.75" id="edge0" class="transition" marker-end="url(#statediagram-barbEnd)"></path><path d="M1533.3957124812873,176.25L1539.2386145677394,185.125C1545.0815166541915,194,1556.767320827096,211.75,1562.610222913548,226.375C1568.453125,241,1568.453125,252.5,1568.453125,262.4166666666667C1568.453125,272.3333333333333,1568.453125,280.6666666666667,1568.453125,284.8333333333333L1568.453125,289" class="transition note-edge"></path><path d="M1616.07421875,131.71770472549468L1635.1909722222224,129.0564206045789C1654.3077256944446,126.39513648366312,1692.541232638889,121.07256824183156,1716.4371744791667,118.4112841209158C1740.3331163194446,115.75,1749.8914930555554,115.75,1759.4498697916667,120.79166666666667C1769.0082465277776,125.83333333333333,1778.5666232638887,135.91666666666666,1778.5666232638887,146C1778.5666232638887,156.08333333333334,1769.0082465277776,166.16666666666666,1759.4498697916667,171.20833333333334C1749.8914930555554,176.25,1740.3331163194446,176.25,1716.4371744791667,173.58871587908422C1692.541232638889,170.9274317581684,1654.3077256944446,165.60486351633688,1635.1909722222224,162.9435793954211L1616.07421875,160.28229527450532" id="edge1" class="transition" marker-end="url(#statediagram-barbEnd)"></path><path d="M1475.114649607036,176.25L1463.85856217253,185.125C1452.602474738024,194,1430.090299869012,211.75,1418.834212434506,226.375C1407.578125,241,1407.578125,252.5,1855.2877604166667,271.3558650393897C2302.9973958333335,290.2117300787794,3198.4166666666665,316.4234601575588,3646.1263020833335,329.5293251969485L4093.8359375,342.6351902363382" id="edge2" class="transition" marker-end="url(#statediagram-barbEnd)"></path><path d="M4255.548256478659,363L4285.350760607215,373.8333333333333C4315.153264735773,384.6666666666667,4374.758272992886,406.3333333333333,4404.560777121443,422.9166666666667C4434.36328125,439.5,4434.36328125,451,4434.36328125,462.5C4434.36328125,474,4434.36328125,485.5,4434.36328125,500.75C4434.36328125,516,4434.36328125,535,4434.36328125,544.5L4434.36328125,554" id="edge3" class="transition" marker-end="url(#statediagram-barbEnd)"></path><path d="M4209.3084508384145,363L4209.644412157012,373.8333333333333C4209.98037347561,384.6666666666667,4210.652296112805,406.3333333333333,4210.988257431402,422.9166666666667C4211.32421875,439.5,4211.32421875,451,4211.32421875,462.5C4211.32421875,474,4211.32421875,485.5,4211.32421875,500.75C4211.32421875,516,4211.32421875,535,4211.32421875,544.5L4211.32421875,554" id="edge4" class="transition" marker-end="url(#statediagram-barbEnd)"></path><path d="M4191.880859375,363L4181.111002604167,373.8333333333333C4170.341145833333,384.6666666666667,4148.801432291667,406.3333333333333,4085.5237630208335,422.9166666666667C4022.24609375,439.5,3917.23046875,451,3864.72265625,462.5C3812.21484375,474,3812.21484375,485.5,3787.635106542089,498.5416666666667C3763.0553693341776,511.5833333333333,3713.8958949183557,526.1666666666666,3689.3161577104443,533.4583333333334L3664.7364205025337,540.75" id="edge5" class="transition" marker-end="url(#statediagram-barbEnd)"></path><path d="M256.17463312922297,818.25L265.82847031601915,825.5416666666666C275.48230750281533,832.8333333333334,294.78998187640764,847.4166666666666,304.4438190632038,860.4583333333334C314.09765625,873.5,314.09765625,885,314.09765625,901.5416666666666C314.09765625,918.0833333333334,314.09765625,939.6666666666666,314.09765625,959.6666666666666C314.09765625,979.6666666666666,314.09765625,998.0833333333334,314.09765625,1013.0416666666666C314.09765625,1028,314.09765625,1039.5,314.09765625,1056.0416666666667C314.09765625,1072.5833333333333,314.09765625,1094.1666666666667,314.09765625,1115.75C314.09765625,1137.3333333333333,314.09765625,1158.9166666666667,314.09765625,1175.4583333333333C314.09765625,1192,314.09765625,1203.5,314.09765625,1217.5833333333333C314.09765625,1231.6666666666667,314.09765625,1248.3333333333333,314.09765625,1266.5833333333333C314.09765625,1284.8333333333333,314.09765625,1304.6666666666667,314.09765625,1325.375C314.09765625,1346.0833333333333,314.09765625,1367.6666666666667,314.09765625,1387.6666666666667C314.09765625,1407.6666666666667,314.09765625,1426.0833333333333,314.09765625,1441.0416666666667C314.09765625,1456,314.09765625,1467.5,314.09765625,1479C314.09765625,1490.5,314.09765625,1502,314.09765625,1516.9583333333333C314.09765625,1531.9166666666667,314.09765625,1550.3333333333333,314.09765625,1570.3333333333333C314.09765625,1590.3333333333333,314.09765625,1611.9166666666667,314.09765625,1633.5C314.09765625,1655.0833333333333,314.09765625,1676.6666666666667,314.09765625,1696.6666666666667C314.09765625,1716.6666666666667,314.09765625,1735.0833333333333,314.09765625,1750.0416666666667C314.09765625,1765,314.09765625,1776.5,314.09765625,1793.0416666666667C314.09765625,1809.5833333333333,314.09765625,1831.1666666666667,314.09765625,1852.75C314.09765625,1874.3333333333333,314.09765625,1895.9166666666667,314.09765625,1917.5C314.09765625,1939.0833333333333,314.09765625,1960.6666666666667,314.09765625,1982.25C314.09765625,2003.8333333333333,314.09765625,2025.4166666666667,546.5423177083334,2046.288632179668C778.9869791666666,2067.1605976926694,1243.8763020833333,2087.3211953853383,1476.3209635416667,2097.401494231673L1708.765625,2107.4817930780077" id="edge6" class="transition" marker-end="url(#statediagram-barbEnd)"></path><path d="M1352.15234375,2012.5L1352.15234375,2018.25C1352.15234375,2024,1352.15234375,2035.5,1411.587890625,2049.7074820369303C1471.0234375,2063.914964073861,1589.89453125,2080.829928147722,1649.330078125,2089.2874101846523L1708.765625,2097.744892221583" id="edge7" class="transition" marker-end="url(#statediagram-barbEnd)"></path><path d="M3718.280708931588,601.25L3755.7671272346565,608.5416666666666C3793.2535455377256,615.8333333333334,3868.226382143863,630.4166666666666,3905.712800446931,643.4583333333334C3943.19921875,656.5,3943.19921875,668,3943.19921875,679.5C3943.19921875,691,3943.19921875,702.5,3943.19921875,720.5833333333334C3943.19921875,738.6666666666666,3943.19921875,763.3333333333334,3943.19921875,788C3943.19921875,812.6666666666666,3943.19921875,837.3333333333334,3943.19921875,855.4166666666666C3943.19921875,873.5,3943.19921875,885,3943.19921875,901.5416666666666C3943.19921875,918.0833333333334,3943.19921875,939.6666666666666,3943.19921875,959.6666666666666C3943.19921875,979.6666666666666,3943.19921875,998.0833333333334,3943.19921875,1013.0416666666666C3943.19921875,1028,3943.19921875,1039.5,3943.19921875,1056.0416666666667C3943.19921875,1072.5833333333333,3943.19921875,1094.1666666666667,3943.19921875,1115.75C3943.19921875,1137.3333333333333,3943.19921875,1158.9166666666667,3943.19921875,1175.4583333333333C3943.19921875,1192,3943.19921875,1203.5,3943.19921875,1217.5833333333333C3943.19921875,1231.6666666666667,3943.19921875,1248.3333333333333,3943.19921875,1266.5833333333333C3943.19921875,1284.8333333333333,3943.19921875,1304.6666666666667,3943.19921875,1325.375C3943.19921875,1346.0833333333333,3943.19921875,1367.6666666666667,3943.19921875,1387.6666666666667C3943.19921875,1407.6666666666667,3943.19921875,1426.0833333333333,3943.19921875,1441.0416666666667C3943.19921875,1456,3943.19921875,1467.5,3943.19921875,1479C3943.19921875,1490.5,3943.19921875,1502,3943.19921875,1516.9583333333333C3943.19921875,1531.9166666666667,3943.19921875,1550.3333333333333,3943.19921875,1570.3333333333333C3943.19921875,1590.3333333333333,3943.19921875,1611.9166666666667,3943.19921875,1633.5C3943.19921875,1655.0833333333333,3943.19921875,1676.6666666666667,3943.19921875,1696.6666666666667C3943.19921875,1716.6666666666667,3943.19921875,1735.0833333333333,3943.19921875,1750.0416666666667C3943.19921875,1765,3943.19921875,1776.5,3943.19921875,1793.0416666666667C3943.19921875,1809.5833333333333,3943.19921875,1831.1666666666667,3943.19921875,1852.75C3943.19921875,1874.3333333333333,3943.19921875,1895.9166666666667,3943.19921875,1917.5C3943.19921875,1939.0833333333333,3943.19921875,1960.6666666666667,3943.19921875,1982.25C3943.19921875,2003.8333333333333,3943.19921875,2025.4166666666667,3603.6009114583335,2046.50274801473C3264.0026041666665,2067.5888293627936,2584.8059895833335,2088.1776587255868,2245.2076822916665,2098.472073406984L1905.609375,2108.7664880883804" id="edge8" class="transition" marker-end="url(#statediagram-barbEnd)"></path><path d="M3591.192066089527,601.25L3598.0441696579396,608.5416666666666C3604.8962732263512,615.8333333333334,3618.6004803631754,630.4166666666666,3085.413521431588,643.4583333333334C2552.2265625,656.5,1472.1484375,668,932.109375,679.5C392.0703125,691,392.0703125,702.5,374.7333588471284,715.5416666666666C357.3964051942567,728.5833333333334,322.7224978885135,743.1666666666666,305.3855442356419,750.4583333333334L288.04859058277026,757.75" id="edge9" class="transition" marker-end="url(#statediagram-barbEnd)"></path><path d="M3556.3496357685813,601.25L3554.8030818904845,608.5416666666666C3553.2565280123877,615.8333333333334,3550.163420256194,630.4166666666666,3548.616866378097,643.4583333333334C3547.0703125,656.5,3547.0703125,668,3547.0703125,679.5C3547.0703125,691,3547.0703125,702.5,3547.0703125,720.5833333333334C3547.0703125,738.6666666666666,3547.0703125,763.3333333333334,3547.0703125,788C3547.0703125,812.6666666666666,3547.0703125,837.3333333333334,3547.0703125,855.4166666666666C3547.0703125,873.5,3547.0703125,885,3407.3639322916665,899.8297890519525C3267.6575520833335,914.659578103905,2988.2447916666665,932.81915620781,2848.5384114583335,941.8989452597625L2708.83203125,950.9787343117151" id="edge10" class="transition" marker-end="url(#statediagram-barbEnd)"></path><path d="M2036.8841548021235,1883L2048.570780043436,1888.75C2060.257405284749,1894.5,2083.6306557673747,1906,1995.6128539253539,1920.3024916081047C1907.5950520833333,1934.6049832162091,1708.1861979166667,1951.709966432418,1608.4817708333333,1960.2624580405227L1508.77734375,1968.8149496486271" id="edge11" class="transition" marker-end="url(#statediagram-barbEnd)"></path><path d="M181.76161317567568,818.25L173.4784276463964,825.5416666666666C165.19524211711712,832.8333333333334,148.62887105855856,847.4166666666666,389.4452949042793,860.4583333333334C630.26171875,873.5,1128.4609375,885,1505.2428385416667,899.6961474298822C1882.0247395833333,914.3922948597643,2137.3893229166665,932.2845897195288,2265.0716145833335,941.2307371494109L2392.75390625,950.1768845792931" id="edge12" class="transition" marker-end="url(#statediagram-barbEnd)"></path><path d="M1195.52734375,1970.1520689655172L1081.91796875,1961.376724137931C968.30859375,1952.6013793103448,741.08984375,1935.0506896551724,627.48046875,1915.4836781609195C513.87109375,1895.9166666666667,513.87109375,1874.3333333333333,513.87109375,1852.75C513.87109375,1831.1666666666667,513.87109375,1809.5833333333333,513.87109375,1793.0416666666667C513.87109375,1776.5,513.87109375,1765,513.87109375,1750.0416666666667C513.87109375,1735.0833333333333,513.87109375,1716.6666666666667,513.87109375,1696.6666666666667C513.87109375,1676.6666666666667,513.87109375,1655.0833333333333,513.87109375,1633.5C513.87109375,1611.9166666666667,513.87109375,1590.3333333333333,513.87109375,1570.3333333333333C513.87109375,1550.3333333333333,513.87109375,1531.9166666666667,564.1451822916666,1516.9583333333333C614.4192708333334,1502,714.9674479166666,1490.5,765.2415364583334,1479C815.515625,1467.5,815.515625,1456,815.515625,1441.0416666666667C815.515625,1426.0833333333333,815.515625,1407.6666666666667,815.515625,1387.6666666666667C815.515625,1367.6666666666667,815.515625,1346.0833333333333,815.515625,1325.375C815.515625,1304.6666666666667,815.515625,1284.8333333333333,815.515625,1266.5833333333333C815.515625,1248.3333333333333,815.515625,1231.6666666666667,815.515625,1217.5833333333333C815.515625,1203.5,815.515625,1192,927.572265625,1176.6983070044173C1039.62890625,1161.3966140088346,1263.7421875,1142.2932280176692,1375.798828125,1132.7415350220865L1487.85546875,1123.1898420265038" id="edge13" class="transition" marker-end="url(#statediagram-barbEnd)"></path><path d="M2708.83203125,968.4554531564289L2884.4609375,976.4628776303574C3060.08984375,984.470302104286,3411.34765625,1000.485151052143,3586.9765625,1014.2425755260715C3762.60546875,1028,3762.60546875,1039.5,3762.60546875,1056.0416666666667C3762.60546875,1072.5833333333333,3762.60546875,1094.1666666666667,3762.60546875,1115.75C3762.60546875,1137.3333333333333,3762.60546875,1158.9166666666667,3762.60546875,1175.4583333333333C3762.60546875,1192,3762.60546875,1203.5,3762.60546875,1217.5833333333333C3762.60546875,1231.6666666666667,3762.60546875,1248.3333333333333,3762.60546875,1266.5833333333333C3762.60546875,1284.8333333333333,3762.60546875,1304.6666666666667,3762.60546875,1325.375C3762.60546875,1346.0833333333333,3762.60546875,1367.6666666666667,3762.60546875,1387.6666666666667C3762.60546875,1407.6666666666667,3762.60546875,1426.0833333333333,3762.60546875,1441.0416666666667C3762.60546875,1456,3762.60546875,1467.5,3762.60546875,1479C3762.60546875,1490.5,3762.60546875,1502,3762.60546875,1516.9583333333333C3762.60546875,1531.9166666666667,3762.60546875,1550.3333333333333,3762.60546875,1570.3333333333333C3762.60546875,1590.3333333333333,3762.60546875,1611.9166666666667,3762.60546875,1633.5C3762.60546875,1655.0833333333333,3762.60546875,1676.6666666666667,3762.60546875,1696.6666666666667C3762.60546875,1716.6666666666667,3762.60546875,1735.0833333333333,3762.60546875,1750.0416666666667C3762.60546875,1765,3762.60546875,1776.5,3762.60546875,1793.0416666666667C3762.60546875,1809.5833333333333,3762.60546875,1831.1666666666667,3762.60546875,1852.75C3762.60546875,1874.3333333333333,3762.60546875,1895.9166666666667,3762.60546875,1917.5C3762.60546875,1939.0833333333333,3762.60546875,1960.6666666666667,3762.60546875,1982.25C3762.60546875,2003.8333333333333,3762.60546875,2025.4166666666667,3453.1061197916665,2046.4568240219317C3143.6067708333335,2067.4969813771963,2524.6080729166665,2087.993962754393,2215.1087239583335,2098.2424534429915L1905.609375,2108.4909441315895" id="edge14" class="transition" marker-end="url(#statediagram-barbEnd)"></path><path d="M2392.75390625,970.1995231574901L2256.484375,977.9162692979085C2120.21484375,985.6330154383268,1847.67578125,1001.0665077191634,1711.40625,1014.5332538595817C1575.13671875,1028,1575.13671875,1039.5,1575.13671875,1051C1575.13671875,1062.5,1575.13671875,1074,1575.13671875,1079.75L1575.13671875,1085.5" id="edge15" class="transition" marker-end="url(#statediagram-barbEnd)"></path><path d="M2060.965533088235,1419.5L2073.048100490196,1423.6666666666667C2085.130667892157,1427.8333333333333,2109.295802696078,1436.1666666666667,2121.378370098039,1446.0833333333333C2133.4609375,1456,2133.4609375,1467.5,2133.4609375,1479C2133.4609375,1490.5,2133.4609375,1502,2188.892578125,1514.046530794992C2244.32421875,1526.0930615899836,2355.1875,1538.6861231799674,2410.619140625,1544.9826539749592L2466.05078125,1551.2791847699511" id="edge16" class="transition" marker-end="url(#statediagram-barbEnd)"></path><path d="M1662.41796875,1119.0309642597967L1934.9544270833333,1129.2758035498307C2207.4908854166665,1139.5206428398644,2752.5638020833335,1160.0103214199323,3025.1002604166665,1176.005160709966C3297.63671875,1192,3297.63671875,1203.5,3297.63671875,1217.5833333333333C3297.63671875,1231.6666666666667,3297.63671875,1248.3333333333333,3297.63671875,1266.5833333333333C3297.63671875,1284.8333333333333,3297.63671875,1304.6666666666667,3297.63671875,1325.375C3297.63671875,1346.0833333333333,3297.63671875,1367.6666666666667,3297.63671875,1387.6666666666667C3297.63671875,1407.6666666666667,3297.63671875,1426.0833333333333,3297.63671875,1441.0416666666667C3297.63671875,1456,3297.63671875,1467.5,3297.63671875,1479C3297.63671875,1490.5,3297.63671875,1502,3210.3072916666665,1514.8687434682713C3122.9778645833335,1527.7374869365424,2948.3190104166665,1541.9749738730845,2860.9895833333335,1549.0937173413558L2773.66015625,1556.212460809627" id="edge17" class="transition" marker-end="url(#statediagram-barbEnd)"></path><path d="M2773.66015625,1559.4190103881047L2831.12890625,1555.932508656754C2888.59765625,1552.446006925403,3003.53515625,1545.4730034627016,3075.37109375,1541.9865017313507C3147.20703125,1538.5,3175.94140625,1538.5,3204.67578125,1543.5416666666667C3233.41015625,1548.5833333333333,3262.14453125,1558.6666666666667,3262.14453125,1568.75C3262.14453125,1578.8333333333333,3233.41015625,1588.9166666666667,3204.67578125,1593.9583333333333C3175.94140625,1599,3147.20703125,1599,3075.37109375,1595.5134982686493C3003.53515625,1592.0269965372984,2888.59765625,1585.053993074597,2831.12890625,1581.567491343246L2773.66015625,1578.0809896118953" id="edge18" class="transition" marker-end="url(#statediagram-barbEnd)"></path><path d="M1185.5859375,1282L1185.5859375,1289.0833333333333C1185.5859375,1296.1666666666667,1185.5859375,1310.3333333333333,1185.5859375,1328.2083333333333C1185.5859375,1346.0833333333333,1185.5859375,1367.6666666666667,1185.5859375,1387.6666666666667C1185.5859375,1407.6666666666667,1185.5859375,1426.0833333333333,1185.5859375,1441.0416666666667C1185.5859375,1456,1185.5859375,1467.5,1318.2486979166667,1479C1450.9114583333333,1490.5,1716.2369791666667,1502,1848.8997395833333,1516.9583333333333C1981.5625,1531.9166666666667,1981.5625,1550.3333333333333,1981.5625,1570.3333333333333C1981.5625,1590.3333333333333,1981.5625,1611.9166666666667,2017.6419270833333,1629.4736340497739C2053.7213541666665,1647.0306014328808,2125.8802083333335,1660.5612028657615,2161.9596354166665,1667.3265035822021L2198.0390625,1674.0918042986425" id="edge19" class="transition" marker-end="url(#statediagram-barbEnd)"></path><path d="M2127.05078125,1370.6765861671051L2143.166232638889,1368.7304884725875C2159.281684027778,1366.78439077807,2191.5125868055557,1362.8921953890351,2211.6569010416665,1360.9460976945174C2231.801215277778,1359,2239.858940972222,1359,2247.9166666666665,1364.0416666666667C2255.974392361111,1369.0833333333333,2264.032118055555,1379.1666666666667,2264.032118055555,1389.25C2264.032118055555,1399.3333333333333,2255.974392361111,1409.4166666666667,2247.9166666666665,1414.4583333333333C2239.858940972222,1419.5,2231.801215277778,1419.5,2211.6569010416665,1417.5539023054826C2191.5125868055557,1415.607804610965,2159.281684027778,1411.71560922193,2143.166232638889,1409.7695115274125L2127.05078125,1407.8234138328949" id="edge20" class="transition" marker-end="url(#statediagram-barbEnd)"></path><path d="M1662.41796875,1124.394682122371L1756.8294270833333,1133.7455684353092C1851.2408854166667,1143.0964547482474,2040.0638020833333,1161.7982273741236,2134.4752604166665,1176.8991136870618C2228.88671875,1192,2228.88671875,1203.5,2228.88671875,1217.5833333333333C2228.88671875,1231.6666666666667,2228.88671875,1248.3333333333333,2228.88671875,1266.5833333333333C2228.88671875,1284.8333333333333,2228.88671875,1304.6666666666667,2206.185041626448,1320.3333333333333C2183.4833645028957,1336,2138.0800102557914,1347.5,2115.3783331322393,1353.25L2092.676656008687,1359" id="edge21" class="transition" marker-end="url(#statediagram-barbEnd)"></path><path d="M1287.7734375,1277.1959475342014L1353.83203125,1285.0799562785012C1419.890625,1292.963965022801,1552.0078125,1308.7319825114005,1643.7412524131275,1322.3659912557002C1735.4746923262549,1336,1786.82438465251,1347.5,1812.4992308156372,1353.25L1838.1740769787646,1359" id="edge22" class="transition" marker-end="url(#statediagram-barbEnd)"></path><path d="M4187.7345179115855,363L4174.322384717988,373.8333333333333C4160.91025152439,384.6666666666667,4134.085985137195,406.3333333333333,4030.7506748602646,422.9166666666667C3927.4153645833335,439.5,3747.5690104166665,451,3657.6458333333335,462.5C3567.72265625,474,3567.72265625,485.5,3567.2342100401183,498.5416666666667C3566.7457638302367,511.5833333333333,3565.7688714104734,526.1666666666666,3565.2804252005917,533.4583333333334L3564.7919789907096,540.75" id="edge23" class="transition" marker-end="url(#statediagram-barbEnd)"></path><path d="M1487.85546875,1130.2576359989973L1437.4772135416667,1138.6313633324978C1387.0989583333333,1147.0050906659983,1286.3424479166667,1163.752545332999,1235.9641927083333,1177.8762726664995C1185.5859375,1192,1185.5859375,1203.5,1185.5859375,1214.75C1185.5859375,1226,1185.5859375,1237,1185.5859375,1242.5L1185.5859375,1248" id="edge24" class="transition" marker-end="url(#statediagram-barbEnd)"></path><path d="M2773.66015625,1583.239721511793L2862.5768229166665,1591.6164345931609C2951.4934895833335,1599.9931476745287,3129.3268229166665,1616.7465738372641,3076.3352864583335,1634.4966372073316C3023.34375,1652.246700577399,2739.52734375,1670.9934011547978,2597.619140625,1680.3667514434974L2455.7109375,1689.7401017321968" id="edge25" class="transition" marker-end="url(#statediagram-barbEnd)"></path><path d="M1287.7734375,1256.1349138847545L1303.4019097222224,1254.779094903962C1319.0303819444446,1253.4232759231697,1350.287326388889,1250.7116379615848,1369.8229166666667,1249.3558189807925C1389.3585069444446,1248,1397.1727430555554,1248,1404.9869791666667,1250.8333333333333C1412.8012152777776,1253.6666666666667,1420.6154513888887,1259.3333333333333,1420.6154513888887,1265C1420.6154513888887,1270.6666666666667,1412.8012152777776,1276.3333333333333,1404.9869791666667,1279.1666666666667C1397.1727430555554,1282,1389.3585069444446,1282,1369.8229166666667,1280.6441810192075C1350.287326388889,1279.2883620384152,1319.0303819444446,1276.5767240768303,1303.4019097222224,1275.220905096038L1287.7734375,1273.8650861152455" id="edge26" class="transition" marker-end="url(#statediagram-barbEnd)"></path><path d="M2127.05078125,1377.6572385197874L2168.3059895833335,1374.5476987664895C2209.5611979166665,1371.4381590131916,2292.0716145833335,1365.2190795065958,2343.640625,1362.109539753298C2395.2096354166665,1359,2415.8372395833335,1359,2436.46484375,1364.0416666666667C2457.0924479166665,1369.0833333333333,2477.7200520833335,1379.1666666666667,2477.7200520833335,1389.25C2477.7200520833335,1399.3333333333333,2457.0924479166665,1409.4166666666667,2436.46484375,1414.4583333333333C2415.8372395833335,1419.5,2395.2096354166665,1419.5,2343.640625,1416.390460246702C2292.0716145833335,1413.2809204934044,2209.5611979166665,1407.0618409868084,2168.3059895833335,1403.9523012335105L2127.05078125,1400.8427614802126" id="edge27" class="transition" marker-end="url(#statediagram-barbEnd)"></path><path d="M1662.41796875,1113.1322656104765L1815.9717881944443,1108.5268880087303C1969.5256076388887,1103.9215104069842,2276.633246527778,1094.7107552034922,2468.5755208333335,1090.105377601746C2660.5177951388887,1085.5,2737.294704861111,1085.5,2814.0716145833335,1090.5416666666667C2890.848524305555,1095.5833333333333,2967.6254340277774,1105.6666666666667,2967.6254340277774,1115.75C2967.6254340277774,1125.8333333333333,2890.848524305555,1135.9166666666667,2814.0716145833335,1140.9583333333333C2737.294704861111,1146,2660.5177951388887,1146,2468.5755208333335,1141.394622398254C2276.633246527778,1136.7892447965078,1969.5256076388887,1127.5784895930158,1815.9717881944443,1122.9731119912697L1662.41796875,1118.3677343895235" id="edge28" class="transition" marker-end="url(#statediagram-barbEnd)"></path><path d="M2773.66015625,1561.6924035631753L2857.898003472222,1557.8270029693128C2942.135850694444,1553.9616023754504,3110.6115451388887,1546.230801187725,3215.9088541666665,1542.3654005938624C3321.206163194444,1538.5,3363.325086805555,1538.5,3405.4440104166665,1543.5416666666667C3447.5629340277774,1548.5833333333333,3489.6818576388887,1558.6666666666667,3489.681857638889,1568.75C3489.6818576388887,1578.8333333333333,3447.5629340277774,1588.9166666666667,3405.444010416666,1593.9583333333333C3363.325086805555,1599,3321.206163194444,1599,3215.9088541666665,1595.1345994061376C3110.6115451388887,1591.269198812275,2942.135850694444,1583.5383976245496,2857.898003472222,1579.6729970306872L2773.66015625,1575.8075964368247" id="edge29" class="transition" marker-end="url(#statediagram-barbEnd)"></path><path d="M1825.8992505656108,1419.5L1805.603542138009,1423.6666666666667C1785.307833710407,1427.8333333333333,1744.7164168552035,1436.1666666666667,1724.420708427602,1446.0833333333333C1704.125,1456,1704.125,1467.5,1639.12890625,1479C1574.1328125,1490.5,1444.140625,1502,1379.14453125,1516.9583333333333C1314.1484375,1531.9166666666667,1314.1484375,1550.3333333333333,1314.1484375,1570.3333333333333C1314.1484375,1590.3333333333333,1314.1484375,1611.9166666666667,1300.5064098696912,1628.4583333333333C1286.8643822393822,1645,1259.5803269787646,1656.5,1245.9382993484558,1662.25L1232.2962717181467,1668" id="edge30" class="transition" marker-end="url(#statediagram-barbEnd)"></path><path d="M2466.05078125,1588.8960817548934L2409.2962239583335,1596.3300681290777C2352.5416666666665,1603.764054503262,2239.0325520833335,1618.6320272516311,2200.1586354769947,1631.8160136258157C2161.2847188706564,1645,2197.046000241313,1656.5,2214.926640926641,1662.25L2232.8072816119693,1668" id="edge31" class="transition" marker-end="url(#statediagram-barbEnd)"></path><path d="M1913.9205326978765,1883L1902.2339074565637,1888.75C1890.5472822152508,1894.5,1867.1740317326255,1906,1901.3438455196267,1919.7083333333333C1935.513659306628,1933.4166666666667,2027.226537363256,1949.3333333333333,2073.08297639157,1957.2916666666667L2118.939415419884,1965.25" id="edge32" class="transition" marker-end="url(#statediagram-barbEnd)"></path><path d="M1256.74609375,1712.121065720809L1304.5846354166667,1719.0175547673407C1352.4231770833333,1725.9140438138727,1448.1002604166667,1739.7070219069362,1495.9388020833333,1752.353510953468C1543.77734375,1765,1543.77734375,1776.5,1543.77734375,1793.0416666666667C1543.77734375,1809.5833333333333,1543.77734375,1831.1666666666667,1543.77734375,1852.75C1543.77734375,1874.3333333333333,1543.77734375,1895.9166666666667,1543.77734375,1917.5C1543.77734375,1939.0833333333333,1543.77734375,1960.6666666666667,1543.77734375,1982.25C1543.77734375,2003.8333333333333,1543.77734375,2025.4166666666667,1571.275390625,2042.9677482340496C1598.7734375,2060.5188298014327,1653.76953125,2074.037659602865,1681.267578125,2080.7970745035814L1708.765625,2087.5564894042977" id="edge33" class="transition" marker-end="url(#statediagram-barbEnd)"></path><path d="M2455.7109375,1704.7131594814591L2617.7962239583335,1712.8442995678827C2779.8815104166665,1720.975439654306,3104.0520833333335,1737.2377198271531,3266.1373697916665,1751.1188599135767C3428.22265625,1765,3428.22265625,1776.5,3428.22265625,1793.0416666666667C3428.22265625,1809.5833333333333,3428.22265625,1831.1666666666667,3428.22265625,1852.75C3428.22265625,1874.3333333333333,3428.22265625,1895.9166666666667,3428.22265625,1917.5C3428.22265625,1939.0833333333333,3428.22265625,1960.6666666666667,3428.22265625,1982.25C3428.22265625,2003.8333333333333,3428.22265625,2025.4166666666667,3174.4537760416665,2046.3447791285628C2920.6848958333335,2067.272891590459,2413.1471354166665,2087.545783180918,2159.3782552083335,2097.6822289761476L1905.609375,2107.818674771377" id="edge34" class="transition" marker-end="url(#statediagram-barbEnd)"></path><path d="M1160.52734375,1728.5L1160.52734375,1732.6666666666667C1160.52734375,1736.8333333333333,1160.52734375,1745.1666666666667,1160.52734375,1755.0833333333333C1160.52734375,1765,1160.52734375,1776.5,1160.52734375,1793.0416666666667C1160.52734375,1809.5833333333333,1160.52734375,1831.1666666666667,1160.52734375,1852.75C1160.52734375,1874.3333333333333,1160.52734375,1895.9166666666667,1160.52734375,1917.5C1160.52734375,1939.0833333333333,1160.52734375,1960.6666666666667,1160.52734375,1982.25C1160.52734375,2003.8333333333333,1160.52734375,2025.4166666666667,1251.900390625,2045.3575050087086C1343.2734375,2065.2983433507507,1526.01953125,2083.596686701501,1617.392578125,2092.745858376876L1708.765625,2101.8950300522515" id="edge35" class="transition" marker-end="url(#statediagram-barbEnd)"></path><path d="M2455.7109375,1706.7073940769412L2574.513671875,1714.5061617307845C2693.31640625,1722.3049293846277,2930.921875,1737.9024646923137,3049.724609375,1751.4512323461568C3168.52734375,1765,3168.52734375,1776.5,3168.52734375,1793.0416666666667C3168.52734375,1809.5833333333333,3168.52734375,1831.1666666666667,3168.52734375,1852.75C3168.52734375,1874.3333333333333,3168.52734375,1895.9166666666667,3168.52734375,1917.5C3168.52734375,1939.0833333333333,3168.52734375,1960.6666666666667,3168.52734375,1982.25C3168.52734375,2003.8333333333333,3168.52734375,2025.4166666666667,2958.041015625,2046.2197862476553C2747.5546875,2067.022905828644,2326.58203125,2087.0458116572886,2116.095703125,2097.0572645716106L1905.609375,2107.0687174859327" id="edge36" class="transition" marker-end="url(#statediagram-barbEnd)"></path><path d="M1064.30859375,1716.0698268976444L1030.6243489583333,1722.3081890813703C996.9401041666666,1728.5465512650962,929.5716145833334,1741.0232756325483,895.8873697916666,1753.011637816274C862.203125,1765,862.203125,1776.5,1030.9537760416667,1792.06549795482C1199.7044270833333,1807.63099590964,1537.2057291666667,1827.2619918192802,1705.9563802083333,1837.0774897741003L1874.70703125,1846.8929877289204" id="edge37" class="transition" marker-end="url(#statediagram-barbEnd)"></path><path d="M2330.194287330317,1728.5L2330.6514894419306,1732.6666666666667C2331.1086915535448,1736.8333333333333,2332.023095776772,1745.1666666666667,2332.480297888386,1755.0833333333333C2332.9375,1765,2332.9375,1776.5,2290.130859375,1790.002328496979C2247.32421875,1803.504656993958,2161.7109375,1819.0093139879164,2118.904296875,1826.7616424848954L2076.09765625,1834.5139709818745" id="edge38" class="transition" marker-end="url(#statediagram-barbEnd)"></path><path d="M1185.9905586389962,1668L1190.83067386583,1662.25C1195.670789092664,1656.5,1205.351019546332,1645,1210.191134773166,1628.4583333333333C1215.03125,1611.9166666666667,1215.03125,1590.3333333333333,1215.03125,1570.3333333333333C1215.03125,1550.3333333333333,1215.03125,1531.9166666666667,1130.38671875,1516.9583333333333C1045.7421875,1502,876.453125,1490.5,791.80859375,1479C707.1640625,1467.5,707.1640625,1456,707.1640625,1441.0416666666667C707.1640625,1426.0833333333333,707.1640625,1407.6666666666667,707.1640625,1387.6666666666667C707.1640625,1367.6666666666667,707.1640625,1346.0833333333333,707.1640625,1325.375C707.1640625,1304.6666666666667,707.1640625,1284.8333333333333,707.1640625,1266.5833333333333C707.1640625,1248.3333333333333,707.1640625,1231.6666666666667,707.1640625,1217.5833333333333C707.1640625,1203.5,707.1640625,1192,837.279296875,1176.5435174684183C967.39453125,1161.0870349368363,1227.625,1141.6740698736728,1357.740234375,1131.967587342091L1487.85546875,1122.2611048105093" id="edge39" class="transition" marker-end="url(#statediagram-barbEnd)"></path><path d="M2198.0390625,1722.280482256597L2170.142578125,1727.4837352138309C2142.24609375,1732.6869881710645,2086.453125,1743.0934940855323,2058.556640625,1754.0467470427664C2030.66015625,1765,2030.66015625,1776.5,2070.5065104166665,1790.3486459201858C2110.3528645833335,1804.1972918403715,2190.0455729166665,1820.3945836807427,2229.8919270833335,1828.4932296009285L2269.73828125,1836.5918755211144" id="edge40" class="transition" marker-end="url(#statediagram-barbEnd)"></path><path d="M1487.85546875,1125.012732644869L1400.7141927083333,1134.260610537391C1313.5729166666667,1143.5084884299126,1139.2903645833333,1162.0042442149563,1052.1490885416667,1177.0021221074783C965.0078125,1192,965.0078125,1203.5,965.0078125,1217.5833333333333C965.0078125,1231.6666666666667,965.0078125,1248.3333333333333,965.0078125,1266.5833333333333C965.0078125,1284.8333333333333,965.0078125,1304.6666666666667,965.0078125,1325.375C965.0078125,1346.0833333333333,965.0078125,1367.6666666666667,965.0078125,1387.6666666666667C965.0078125,1407.6666666666667,965.0078125,1426.0833333333333,965.0078125,1441.0416666666667C965.0078125,1456,965.0078125,1467.5,914.7337239583334,1479C864.4596354166666,1490.5,763.9114583333334,1502,713.6373697916666,1516.9583333333333C663.36328125,1531.9166666666667,663.36328125,1550.3333333333333,663.36328125,1570.3333333333333C663.36328125,1590.3333333333333,663.36328125,1611.9166666666667,663.36328125,1633.5C663.36328125,1655.0833333333333,663.36328125,1676.6666666666667,663.36328125,1696.6666666666667C663.36328125,1716.6666666666667,663.36328125,1735.0833333333333,663.36328125,1750.0416666666667C663.36328125,1765,663.36328125,1776.5,663.36328125,1788C663.36328125,1799.5,663.36328125,1811,663.36328125,1816.75L663.36328125,1822.5" id="edge41" class="transition" marker-end="url(#statediagram-barbEnd)"></path><path d="M2349.23828125,1869.75L2349.23828125,1877.7083333333333C2349.23828125,1885.6666666666667,2349.23828125,1901.5833333333333,2301.09375,1917.8970958274003C2252.94921875,1934.2108583214674,2156.66015625,1950.921716642935,2108.515625,1959.2771458036686L2060.37109375,1967.6325749644025" id="edge42" class="transition" marker-end="url(#statediagram-barbEnd)"></path><path d="M692.4197785955598,1883L697.9429144546333,1888.75C703.4660503137065,1894.5,714.5123220318533,1906,914.4286870575934,1921.8148513717526C1114.3450520833333,1937.6297027435057,1503.1315104166667,1957.7594054870115,1697.5247395833333,1967.824256858764L1891.91796875,1977.889108230517" id="edge43" class="transition" marker-end="url(#statediagram-barbEnd)"></path><path d="M633.1151061776062,1883L627.3654530646719,1888.75C621.6157999517375,1894.5,610.1164937258687,1906,604.3668406129344,1922.5416666666667C598.6171875,1939.0833333333333,598.6171875,1960.6666666666667,598.6171875,1982.25C598.6171875,2003.8333333333333,598.6171875,2025.4166666666667,598.6171875,2047C598.6171875,2068.5833333333335,598.6171875,2090.1666666666665,598.6171875,2111.75C598.6171875,2133.3333333333335,598.6171875,2154.9166666666665,709.63671875,2173.4537454006017C820.65625,2191.990824134537,1042.6953125,2207.481648269074,1153.71484375,2215.2270603363427L1264.734375,2222.972472403611" id="edge44" class="transition" marker-end="url(#statediagram-barbEnd)"></path><path d="M1807.1875,2142L1807.1875,2147.75C1807.1875,2153.5,1807.1875,2165,1740.7994791666667,2178.018391186403C1674.4114583333333,2191.036782372806,1541.6354166666667,2205.5735647456127,1475.2473958333333,2212.8419559320155L1408.859375,2220.1103471184188" id="edge45" class="transition" marker-end="url(#statediagram-barbEnd)"></path><path d="M4208.78125,195L4208.78125,200.75C4208.78125,206.5,4208.78125,218,4208.78125,229.5C4208.78125,241,4208.78125,252.5,4208.78125,269.0833333333333C4208.78125,285.6666666666667,4208.78125,307.3333333333333,4208.78125,318.1666666666667L4208.78125,329" class="transition note-edge"></path><path d="M216.125,620L216.125,624.1666666666666C216.125,628.3333333333334,216.125,636.6666666666666,216.125,646.5833333333334C216.125,656.5,216.125,668,216.125,679.5C216.125,691,216.125,702.5,216.125,715.5416666666666C216.125,728.5833333333334,216.125,743.1666666666666,216.125,750.4583333333334L216.125,757.75" class="transition note-edge"></path><path d="M3413.95703125,395L3413.95703125,400.5C3413.95703125,406,3413.95703125,417,3413.95703125,428.25C3413.95703125,439.5,3413.95703125,451,3413.95703125,462.5C3413.95703125,474,3413.95703125,485.5,3428.620040206222,498.5416666666667C3443.283049162444,511.5833333333333,3472.6090670748877,526.1666666666666,3487.2720760311095,533.4583333333334L3501.9350849873313,540.75" class="transition note-edge"></path><path d="M1814.1640625,1290L1814.1640625,1295.75C1814.1640625,1301.5,1814.1640625,1313,1828.2910382480695,1324.5C1842.418013996139,1336,1870.671965492278,1347.5,1884.7989412403476,1353.25L1898.925916988417,1359" class="transition note-edge"></path><path d="M1006.90625,1593.75L1006.90625,1600.375C1006.90625,1607,1006.90625,1620.25,1020.5482776303088,1632.625C1034.1903052606178,1645,1061.4743605212354,1656.5,1075.1163881515442,1662.25L1088.7584157818533,1668" class="transition note-edge"></path><path d="M2117.34375,837L2117.34375,841.1666666666666C2117.34375,845.3333333333334,2117.34375,853.6666666666666,2117.34375,863.5833333333334C2117.34375,873.5,2117.34375,885,2163.2454427083335,897.606938423919C2209.1471354166665,910.2138768478382,2300.9505208333335,923.9277536956764,2346.8522135416665,930.7846921195954L2392.75390625,937.6416305435145" class="transition note-edge"></path></g><g class="edgeLabels"><g class="edgeLabel"><g class="label" transform="translate(0, 0)"><rect rx="0" ry="0" width="0" height="0" style="fill:#e8e8e8;"></rect><text style=""></text></g></g><g class="edgeLabel"><g class="label" transform="translate(0, 0)"><rect rx="0" ry="0" width="0" height="0" style="fill:#e8e8e8;"></rect><text style=""></text></g></g><g class="edgeLabel" transform="translate(1788.125, 146)"><g class="label" transform="translate(-60.0234375, -9.5)"><rect rx="0" ry="0" width="119.984375" height="19.03125" style="fill:#e8e8e8;"></rect><text style=""><tspan xml:space="preserve" dy="1em" x="0" class="row">ClientEventOpen</tspan></text></g></g><g class="edgeLabel" transform="translate(1407.578125, 229.5)"><g class="label" transform="translate(-89.9453125, -9.5)"><rect rx="0" ry="0" width="179.78125" height="19.03125" style="fill:#e8e8e8;"></rect><text style=""><tspan xml:space="preserve" dy="1em" x="0" class="row">ClientEventDealProposed</tspan></text></g></g><g class="edgeLabel" transform="translate(4434.36328125, 462.5)"><g class="label" transform="translate(-89.546875, -9.5)"><rect rx="0" ry="0" width="178.984375" height="19.03125" style="fill:#e8e8e8;"></rect><text style=""><tspan xml:space="preserve" dy="1em" x="0" class="row">ClientEventDealRejected</tspan></text></g></g><g class="edgeLabel" transform="translate(4211.32421875, 462.5)"><g class="label" transform="translate(-91.5390625, -9.5)"><rect rx="0" ry="0" width="182.96875" height="19.03125" style="fill:#e8e8e8;"></rect><text style=""><tspan xml:space="preserve" dy="1em" x="0" class="row">ClientEventDealNotFound</tspan></text></g></g><g class="edgeLabel" transform="translate(3812.21484375, 462.5)"><g class="label" transform="translate(-90.7265625, -9.5)"><rect rx="0" ry="0" width="181.34375" height="19.03125" style="fill:#e8e8e8;"></rect><text style=""><tspan xml:space="preserve" dy="1em" x="0" class="row">ClientEventDealAccepted</tspan></text></g></g><g class="edgeLabel" transform="translate(314.09765625, 1479)"><g class="label" transform="translate(-128.1484375, -9.5)"><rect rx="0" ry="0" width="256.140625" height="19.03125" style="fill:#e8e8e8;"></rect><text style=""><tspan xml:space="preserve" dy="1em" x="0" class="row">ClientEventPaymentChannelErrored</tspan></text></g></g><g class="edgeLabel" transform="translate(1352.15234375, 2047)"><g class="label" transform="translate(-128.1484375, -9.5)"><rect rx="0" ry="0" width="256.140625" height="19.03125" style="fill:#e8e8e8;"></rect><text style=""><tspan xml:space="preserve" dy="1em" x="0" class="row">ClientEventPaymentChannelErrored</tspan></text></g></g><g class="edgeLabel" transform="translate(3943.19921875, 1389.25)"><g class="label" transform="translate(-128.1484375, -9.5)"><rect rx="0" ry="0" width="256.140625" height="19.03125" style="fill:#e8e8e8;"></rect><text style=""><tspan xml:space="preserve" dy="1em" x="0" class="row">ClientEventPaymentChannelErrored</tspan></text></g></g><g class="edgeLabel" transform="translate(392.0703125, 679.5)"><g class="label" transform="translate(-155.9453125, -9.5)"><rect rx="0" ry="0" width="311.703125" height="19.03125" style="fill:#e8e8e8;"></rect><text style=""><tspan xml:space="preserve" dy="1em" x="0" class="row">ClientEventPaymentChannelCreateInitiated</tspan></text></g></g><g class="edgeLabel" transform="translate(3547.0703125, 788)"><g class="label" transform="translate(-146.359375, -9.5)"><rect rx="0" ry="0" width="292.546875" height="19.03125" style="fill:#e8e8e8;"></rect><text style=""><tspan xml:space="preserve" dy="1em" x="0" class="row">ClientEventPaymentChannelAddingFunds</tspan></text></g></g><g class="edgeLabel" transform="translate(2107.00390625, 1917.5)"><g class="label" transform="translate(-146.359375, -9.5)"><rect rx="0" ry="0" width="292.546875" height="19.03125" style="fill:#e8e8e8;"></rect><text style=""><tspan xml:space="preserve" dy="1em" x="0" class="row">ClientEventPaymentChannelAddingFunds</tspan></text></g></g><g class="edgeLabel" transform="translate(1626.66015625, 896.5)"><g class="label" transform="translate(-123.046875, -9.5)"><rect rx="0" ry="0" width="245.953125" height="19.03125" style="fill:#e8e8e8;"></rect><text style=""><tspan xml:space="preserve" dy="1em" x="0" class="row">ClientEventPaymentChannelReady</tspan></text></g></g><g class="edgeLabel" transform="translate(513.87109375, 1568.75)"><g class="label" transform="translate(-123.046875, -9.5)"><rect rx="0" ry="0" width="245.953125" height="19.03125" style="fill:#e8e8e8;"></rect><text style=""><tspan xml:space="preserve" dy="1em" x="0" class="row">ClientEventPaymentChannelReady</tspan></text></g></g><g class="edgeLabel" transform="translate(3762.60546875, 1568.75)"><g class="label" transform="translate(-114.5859375, -9.5)"><rect rx="0" ry="0" width="229.03125" height="19.03125" style="fill:#e8e8e8;"></rect><text style=""><tspan xml:space="preserve" dy="1em" x="0" class="row">ClientEventAllocateLaneErrored</tspan></text></g></g><g class="edgeLabel" transform="translate(1575.13671875, 1051)"><g class="label" transform="translate(-92.3203125, -9.5)"><rect rx="0" ry="0" width="184.53125" height="19.03125" style="fill:#e8e8e8;"></rect><text style=""><tspan xml:space="preserve" dy="1em" x="0" class="row">ClientEventLaneAllocated</tspan></text></g></g><g class="edgeLabel" transform="translate(2133.4609375, 1479)"><g class="label" transform="translate(-124.703125, -9.5)"><rect rx="0" ry="0" width="249.265625" height="19.03125" style="fill:#e8e8e8;"></rect><text style=""><tspan xml:space="preserve" dy="1em" x="0" class="row">ClientEventLastPaymentRequested</tspan></text></g></g><g class="edgeLabel" transform="translate(3297.63671875, 1324.5)"><g class="label" transform="translate(-124.703125, -9.5)"><rect rx="0" ry="0" width="249.265625" height="19.03125" style="fill:#e8e8e8;"></rect><text style=""><tspan xml:space="preserve" dy="1em" x="0" class="row">ClientEventLastPaymentRequested</tspan></text></g></g><g class="edgeLabel" transform="translate(3290.87890625, 1568.75)"><g class="label" transform="translate(-124.703125, -9.5)"><rect rx="0" ry="0" width="249.265625" height="19.03125" style="fill:#e8e8e8;"></rect><text style=""><tspan xml:space="preserve" dy="1em" x="0" class="row">ClientEventLastPaymentRequested</tspan></text></g></g><g class="edgeLabel" transform="translate(1185.5859375, 1479)"><g class="label" transform="translate(-124.703125, -9.5)"><rect rx="0" ry="0" width="249.265625" height="19.03125" style="fill:#e8e8e8;"></rect><text style=""><tspan xml:space="preserve" dy="1em" x="0" class="row">ClientEventLastPaymentRequested</tspan></text></g></g><g class="edgeLabel" transform="translate(2272.08984375, 1389.25)"><g class="label" transform="translate(-110.0390625, -9.5)"><rect rx="0" ry="0" width="219.953125" height="19.03125" style="fill:#e8e8e8;"></rect><text style=""><tspan xml:space="preserve" dy="1em" x="0" class="row">ClientEventPaymentRequested</tspan></text></g></g><g class="edgeLabel" transform="translate(2228.88671875, 1265)"><g class="label" transform="translate(-110.0390625, -9.5)"><rect rx="0" ry="0" width="219.953125" height="19.03125" style="fill:#e8e8e8;"></rect><text style=""><tspan xml:space="preserve" dy="1em" x="0" class="row">ClientEventPaymentRequested</tspan></text></g></g><g class="edgeLabel" transform="translate(1684.125, 1324.5)"><g class="label" transform="translate(-110.0390625, -9.5)"><rect rx="0" ry="0" width="219.953125" height="19.03125" style="fill:#e8e8e8;"></rect><text style=""><tspan xml:space="preserve" dy="1em" x="0" class="row">ClientEventPaymentRequested</tspan></text></g></g><g class="edgeLabel" transform="translate(3567.72265625, 462.5)"><g class="label" transform="translate(-133.765625, -9.5)"><rect rx="0" ry="0" width="267.359375" height="19.03125" style="fill:#e8e8e8;"></rect><text style=""><tspan xml:space="preserve" dy="1em" x="0" class="row">ClientEventUnsealPaymentRequested</tspan></text></g></g><g class="edgeLabel" transform="translate(1185.5859375, 1180.5)"><g class="label" transform="translate(-105.65625, -9.5)"><rect rx="0" ry="0" width="211.1875" height="19.03125" style="fill:#e8e8e8;"></rect><text style=""><tspan xml:space="preserve" dy="1em" x="0" class="row">ClientEventAllBlocksReceived</tspan></text></g></g><g class="edgeLabel" transform="translate(3307.16015625, 1633.5)"><g class="label" transform="translate(-105.65625, -9.5)"><rect rx="0" ry="0" width="211.1875" height="19.03125" style="fill:#e8e8e8;"></rect><text style=""><tspan xml:space="preserve" dy="1em" x="0" class="row">ClientEventAllBlocksReceived</tspan></text></g></g><g class="edgeLabel" transform="translate(1428.4296875, 1265)"><g class="label" transform="translate(-105.65625, -9.5)"><rect rx="0" ry="0" width="211.1875" height="19.03125" style="fill:#e8e8e8;"></rect><text style=""><tspan xml:space="preserve" dy="1em" x="0" class="row">ClientEventAllBlocksReceived</tspan></text></g></g><g class="edgeLabel" transform="translate(2498.34765625, 1389.25)"><g class="label" transform="translate(-96.21875, -9.5)"><rect rx="0" ry="0" width="192.328125" height="19.03125" style="fill:#e8e8e8;"></rect><text style=""><tspan xml:space="preserve" dy="1em" x="0" class="row">ClientEventBlocksReceived</tspan></text></g></g><g class="edgeLabel" transform="translate(3044.40234375, 1115.75)"><g class="label" transform="translate(-96.21875, -9.5)"><rect rx="0" ry="0" width="192.328125" height="19.03125" style="fill:#e8e8e8;"></rect><text style=""><tspan xml:space="preserve" dy="1em" x="0" class="row">ClientEventBlocksReceived</tspan></text></g></g><g class="edgeLabel" transform="translate(3531.80078125, 1568.75)"><g class="label" transform="translate(-96.21875, -9.5)"><rect rx="0" ry="0" width="192.328125" height="19.03125" style="fill:#e8e8e8;"></rect><text style=""><tspan xml:space="preserve" dy="1em" x="0" class="row">ClientEventBlocksReceived</tspan></text></g></g><g class="edgeLabel" transform="translate(1314.1484375, 1568.75)"><g class="label" transform="translate(-79.1171875, -9.5)"><rect rx="0" ry="0" width="158.140625" height="19.03125" style="fill:#e8e8e8;"></rect><text style=""><tspan xml:space="preserve" dy="1em" x="0" class="row">ClientEventSendFunds</tspan></text></g></g><g class="edgeLabel" transform="translate(2125.5234375, 1633.5)"><g class="label" transform="translate(-79.1171875, -9.5)"><rect rx="0" ry="0" width="158.140625" height="19.03125" style="fill:#e8e8e8;"></rect><text style=""><tspan xml:space="preserve" dy="1em" x="0" class="row">ClientEventSendFunds</tspan></text></g></g><g class="edgeLabel" transform="translate(1843.80078125, 1917.5)"><g class="label" transform="translate(-96.84375, -9.5)"><rect rx="0" ry="0" width="193.5625" height="19.03125" style="fill:#e8e8e8;"></rect><text style=""><tspan xml:space="preserve" dy="1em" x="0" class="row">ClientEventFundsExpended</tspan></text></g></g><g class="edgeLabel" transform="translate(1543.77734375, 1917.5)"><g class="label" transform="translate(-123.2265625, -9.5)"><rect rx="0" ry="0" width="246.3125" height="19.03125" style="fill:#e8e8e8;"></rect><text style=""><tspan xml:space="preserve" dy="1em" x="0" class="row">ClientEventBadPaymentRequested</tspan></text></g></g><g class="edgeLabel" transform="translate(3428.22265625, 1917.5)"><g class="label" transform="translate(-123.2265625, -9.5)"><rect rx="0" ry="0" width="246.3125" height="19.03125" style="fill:#e8e8e8;"></rect><text style=""><tspan xml:space="preserve" dy="1em" x="0" class="row">ClientEventBadPaymentRequested</tspan></text></g></g><g class="edgeLabel" transform="translate(1160.52734375, 1917.5)"><g class="label" transform="translate(-116.46875, -9.5)"><rect rx="0" ry="0" width="232.796875" height="19.03125" style="fill:#e8e8e8;"></rect><text style=""><tspan xml:space="preserve" dy="1em" x="0" class="row">ClientEventCreateVoucherFailed</tspan></text></g></g><g class="edgeLabel" transform="translate(3168.52734375, 1917.5)"><g class="label" transform="translate(-116.46875, -9.5)"><rect rx="0" ry="0" width="232.796875" height="19.03125" style="fill:#e8e8e8;"></rect><text style=""><tspan xml:space="preserve" dy="1em" x="0" class="row">ClientEventCreateVoucherFailed</tspan></text></g></g><g class="edgeLabel" transform="translate(862.203125, 1788)"><g class="label" transform="translate(-101.28125, -9.5)"><rect rx="0" ry="0" width="202.4375" height="19.03125" style="fill:#e8e8e8;"></rect><text style=""><tspan xml:space="preserve" dy="1em" x="0" class="row">ClientEventVoucherShortfall</tspan></text></g></g><g class="edgeLabel" transform="translate(2332.9375, 1788)"><g class="label" transform="translate(-101.28125, -9.5)"><rect rx="0" ry="0" width="202.4375" height="19.03125" style="fill:#e8e8e8;"></rect><text style=""><tspan xml:space="preserve" dy="1em" x="0" class="row">ClientEventVoucherShortfall</tspan></text></g></g><g class="edgeLabel" transform="translate(707.1640625, 1389.25)"><g class="label" transform="translate(-88.3515625, -9.5)"><rect rx="0" ry="0" width="176.59375" height="19.03125" style="fill:#e8e8e8;"></rect><text style=""><tspan xml:space="preserve" dy="1em" x="0" class="row">ClientEventPaymentSent</tspan></text></g></g><g class="edgeLabel" transform="translate(2030.66015625, 1788)"><g class="label" transform="translate(-88.3515625, -9.5)"><rect rx="0" ry="0" width="176.59375" height="19.03125" style="fill:#e8e8e8;"></rect><text style=""><tspan xml:space="preserve" dy="1em" x="0" class="row">ClientEventPaymentSent</tspan></text></g></g><g class="edgeLabel" transform="translate(965.0078125, 1479)"><g class="label" transform="translate(-75.875, -9.5)"><rect rx="0" ry="0" width="151.65625" height="19.03125" style="fill:#e8e8e8;"></rect><text style=""><tspan xml:space="preserve" dy="1em" x="0" class="row">ClientEventComplete</tspan></text></g></g><g class="edgeLabel" transform="translate(2349.23828125, 1917.5)"><g class="label" transform="translate(-75.875, -9.5)"><rect rx="0" ry="0" width="151.65625" height="19.03125" style="fill:#e8e8e8;"></rect><text style=""><tspan xml:space="preserve" dy="1em" x="0" class="row">ClientEventComplete</tspan></text></g></g><g class="edgeLabel" transform="translate(725.55859375, 1917.5)"><g class="label" transform="translate(-104.390625, -9.5)"><rect rx="0" ry="0" width="208.65625" height="19.03125" style="fill:#e8e8e8;"></rect><text style=""><tspan xml:space="preserve" dy="1em" x="0" class="row">ClientEventCompleteVerified</tspan></text></g></g><g class="edgeLabel" transform="translate(598.6171875, 2047)"><g class="label" transform="translate(-103.078125, -9.5)"><rect rx="0" ry="0" width="206.03125" height="19.03125" style="fill:#e8e8e8;"></rect><text style=""><tspan xml:space="preserve" dy="1em" x="0" class="row">ClientEventEarlyTermination</tspan></text></g></g><g class="edgeLabel" transform="translate(1807.1875, 2176.5)"><g class="label" transform="translate(-99.921875, -9.5)"><rect rx="0" ry="0" width="199.71875" height="19.03125" style="fill:#e8e8e8;"></rect><text style=""><tspan xml:space="preserve" dy="1em" x="0" class="row">ClientEventCancelComplete</tspan></text></g></g><g class="edgeLabel"><g class="label" transform="translate(0, 0)"><rect rx="0" ry="0" width="0" height="0" style="fill:#e8e8e8;"></rect><text style=""></text></g></g><g class="edgeLabel"><g class="label" transform="translate(0, 0)"><rect rx="0" ry="0" width="0" height="0" style="fill:#e8e8e8;"></rect><text style=""></text></g></g><g class="edgeLabel"><g class="label" transform="translate(0, 0)"><rect rx="0" ry="0" width="0" height="0" style="fill:#e8e8e8;"></rect><text style=""></text></g></g><g class="edgeLabel"><g class="label" transform="translate(0, 0)"><rect rx="0" ry="0" width="0" height="0" style="fill:#e8e8e8;"></rect><text style=""></text></g></g><g class="edgeLabel"><g class="label" transform="translate(0, 0)"><rect rx="0" ry="0" width="0" height="0" style="fill:#e8e8e8;"></rect><text style=""></text></g></g><g class="edgeLabel"><g class="label" transform="translate(0, 0)"><rect rx="0" ry="0" width="0" height="0" style="fill:#e8e8e8;"></rect><text style=""></text></g></g></g><g class="nodes"><g class="node statediagram-state" id="0" transform="translate(1513.48046875, 146)"><rect class="outer title-state" x="-102.59375" y="-30.25" width="205.1875" height="60.5"></rect><line class="divider" x1="-102.59375" x2="102.59375" y1="-3.75" y2="-3.75"></line><g class="label" transform="translate(-95.09375, -27.25)"><text style=""><tspan xml:space="preserve" dy="1em" x="0" class="title-row">DealStatusNew</tspan></text><text style="" transform="translate( 0, 26.5)"><tspan xml:space="preserve" dy="1em" x="0" class="title-row">On entry runs ProposeDeal</tspan></text></g></g><g class="node statediagram-state" id="3" transform="translate(4208.78125, 346)"><rect class="outer title-state" x="-114.9453125" y="-17" width="229.890625" height="34"></rect><line class="divider" x1="-114.9453125" x2="114.9453125" y1="9.5" y2="9.5"></line><g class="label" transform="translate(-107.4453125, -14)"><text style=""><tspan xml:space="preserve" dy="1em" x="0" class="title-row">DealStatusWaitForAcceptance</tspan></text><text style="" transform="translate( 0, 26.5)"><tspan xml:space="preserve" dy="1em" x="0" class="title-row"></tspan></text></g></g><g class="node statediagram-state" id="4" transform="translate(216.125, 788)"><rect class="outer title-state" x="-156.625" y="-30.25" width="313.25" height="60.5"></rect><line class="divider" x1="-156.625" x2="156.625" y1="-3.75" y2="-3.75"></line><g class="label" transform="translate(-149.125, -27.25)"><text style=""><tspan xml:space="preserve" dy="1em" x="0" class="title-row">DealStatusPaymentChannelCreating</tspan></text><text style="" transform="translate( 0, 26.5)"><tspan xml:space="preserve" dy="1em" x="0" class="title-row">On entry runs WaitPaymentChannelReady</tspan></text></g></g><g class="node statediagram-state" id="5" transform="translate(1352.15234375, 1982.25)"><rect class="outer title-state" x="-156.625" y="-30.25" width="313.25" height="60.5"></rect><line class="divider" x1="-156.625" x2="156.625" y1="-3.75" y2="-3.75"></line><g class="label" transform="translate(-149.125, -27.25)"><text style=""><tspan xml:space="preserve" dy="1em" x="0" class="title-row">DealStatusPaymentChannelAddingFunds</tspan></text><text style="" transform="translate( 0, 26.5)"><tspan xml:space="preserve" dy="1em" x="0" class="title-row">On entry runs WaitPaymentChannelReady</tspan></text></g></g><g class="node statediagram-state" id="6" transform="translate(3562.765625, 571)"><rect class="outer title-state" x="-156.2421875" y="-30.25" width="312.484375" height="60.5"></rect><line class="divider" x1="-156.2421875" x2="156.2421875" y1="-3.75" y2="-3.75"></line><g class="label" transform="translate(-148.7421875, -27.25)"><text style=""><tspan xml:space="preserve" dy="1em" x="0" class="title-row">DealStatusAccepted</tspan></text><text style="" transform="translate( 0, 26.5)"><tspan xml:space="preserve" dy="1em" x="0" class="title-row">On entry runs SetupPaymentChannelStart</tspan></text></g></g><g class="node statediagram-state" id="8" transform="translate(1807.1875, 2111.75)"><rect class="outer title-state" x="-98.421875" y="-30.25" width="196.84375" height="60.5"></rect><line class="divider" x1="-98.421875" x2="98.421875" y1="-3.75" y2="-3.75"></line><g class="label" transform="translate(-90.921875, -27.25)"><text style=""><tspan xml:space="preserve" dy="1em" x="0" class="title-row">DealStatusFailing</tspan></text><text style="" transform="translate( 0, 26.5)"><tspan xml:space="preserve" dy="1em" x="0" class="title-row">On entry runs CancelDeal</tspan></text></g></g><g class="node statediagram-state" id="9" transform="translate(4434.36328125, 571)"><rect class="outer title-state" x="-77.609375" y="-17" width="155.21875" height="34"></rect><line class="divider" x1="-77.609375" x2="77.609375" y1="9.5" y2="9.5"></line><g class="label" transform="translate(-70.109375, -14)"><text style=""><tspan xml:space="preserve" dy="1em" x="0" class="title-row">DealStatusRejected</tspan></text><text style="" transform="translate( 0, 26.5)"><tspan xml:space="preserve" dy="1em" x="0" class="title-row"></tspan></text></g></g><g class="node statediagram-state" id="10" transform="translate(1973.24609375, 1389.25)"><rect class="outer title-state" x="-153.8046875" y="-30.25" width="307.609375" height="60.5"></rect><line class="divider" x1="-153.8046875" x2="153.8046875" y1="-3.75" y2="-3.75"></line><g class="label" transform="translate(-146.3046875, -27.25)"><text style=""><tspan xml:space="preserve" dy="1em" x="0" class="title-row">DealStatusFundsNeeded</tspan></text><text style="" transform="translate( 0, 26.5)"><tspan xml:space="preserve" dy="1em" x="0" class="title-row">On entry runs ProcessPaymentRequested</tspan></text></g></g><g class="node statediagram-state" id="11" transform="translate(1160.52734375, 1698.25)"><rect class="outer title-state" x="-96.21875" y="-30.25" width="192.4375" height="60.5"></rect><line class="divider" x1="-96.21875" x2="96.21875" y1="-3.75" y2="-3.75"></line><g class="label" transform="translate(-88.71875, -27.25)"><text style=""><tspan xml:space="preserve" dy="1em" x="0" class="title-row">DealStatusSendFunds</tspan></text><text style="" transform="translate( 0, 26.5)"><tspan xml:space="preserve" dy="1em" x="0" class="title-row">On entry runs SendFunds</tspan></text></g></g><g class="node statediagram-state" id="12" transform="translate(2326.875, 1698.25)"><rect class="outer title-state" x="-128.8359375" y="-30.25" width="257.671875" height="60.5"></rect><line class="divider" x1="-128.8359375" x2="128.8359375" y1="-3.75" y2="-3.75"></line><g class="label" transform="translate(-121.3359375, -27.25)"><text style=""><tspan xml:space="preserve" dy="1em" x="0" class="title-row">DealStatusSendFundsLastPayment</tspan></text><text style="" transform="translate( 0, 26.5)"><tspan xml:space="preserve" dy="1em" x="0" class="title-row">On entry runs SendFunds</tspan></text></g></g><g class="node statediagram-state" id="13" transform="translate(1575.13671875, 1115.75)"><rect class="outer title-state" x="-87.28125" y="-30.25" width="174.5625" height="60.5"></rect><line class="divider" x1="-87.28125" x2="87.28125" y1="-3.75" y2="-3.75"></line><g class="label" transform="translate(-79.78125, -27.25)"><text style=""><tspan xml:space="preserve" dy="1em" x="0" class="title-row">DealStatusOngoing</tspan></text><text style="" transform="translate( 0, 26.5)"><tspan xml:space="preserve" dy="1em" x="0" class="title-row">On entry runs Ongoing</tspan></text></g></g><g class="node statediagram-state" id="14" transform="translate(2619.85546875, 1568.75)"><rect class="outer title-state" x="-153.8046875" y="-30.25" width="307.609375" height="60.5"></rect><line class="divider" x1="-153.8046875" x2="153.8046875" y1="-3.75" y2="-3.75"></line><g class="label" transform="translate(-146.3046875, -27.25)"><text style=""><tspan xml:space="preserve" dy="1em" x="0" class="title-row">DealStatusFundsNeededLastPayment</tspan></text><text style="" transform="translate( 0, 26.5)"><tspan xml:space="preserve" dy="1em" x="0" class="title-row">On entry runs ProcessPaymentRequested</tspan></text></g></g><g class="node statediagram-state" id="15" transform="translate(1976.14453125, 1982.25)"><rect class="outer title-state" x="-84.2265625" y="-17" width="168.453125" height="34"></rect><line class="divider" x1="-84.2265625" x2="84.2265625" y1="9.5" y2="9.5"></line><g class="label" transform="translate(-76.7265625, -14)"><text style=""><tspan xml:space="preserve" dy="1em" x="0" class="title-row">DealStatusCompleted</tspan></text><text style="" transform="translate( 0, 26.5)"><tspan xml:space="preserve" dy="1em" x="0" class="title-row"></tspan></text></g></g><g class="node statediagram-state" id="16" transform="translate(4211.32421875, 571)"><rect class="outer title-state" x="-95.4296875" y="-17" width="190.859375" height="34"></rect><line class="divider" x1="-95.4296875" x2="95.4296875" y1="9.5" y2="9.5"></line><g class="label" transform="translate(-87.9296875, -14)"><text style=""><tspan xml:space="preserve" dy="1em" x="0" class="title-row">DealStatusDealNotFound</tspan></text><text style="" transform="translate( 0, 26.5)"><tspan xml:space="preserve" dy="1em" x="0" class="title-row"></tspan></text></g></g><g class="node statediagram-state" id="17" transform="translate(1336.796875, 2228)"><rect class="outer title-state" x="-72.0625" y="-17" width="144.125" height="34"></rect><line class="divider" x1="-72.0625" x2="72.0625" y1="9.5" y2="9.5"></line><g class="label" transform="translate(-64.5625, -14)"><text style=""><tspan xml:space="preserve" dy="1em" x="0" class="title-row">DealStatusErrored</tspan></text><text style="" transform="translate( 0, 26.5)"><tspan xml:space="preserve" dy="1em" x="0" class="title-row"></tspan></text></g></g><g class="node statediagram-state" id="18" transform="translate(1185.5859375, 1265)"><rect class="outer title-state" x="-102.1875" y="-17" width="204.375" height="34"></rect><line class="divider" x1="-102.1875" x2="102.1875" y1="9.5" y2="9.5"></line><g class="label" transform="translate(-94.6875, -14)"><text style=""><tspan xml:space="preserve" dy="1em" x="0" class="title-row">DealStatusBlocksComplete</tspan></text><text style="" transform="translate( 0, 26.5)"><tspan xml:space="preserve" dy="1em" x="0" class="title-row"></tspan></text></g></g><g class="node statediagram-state" id="19" transform="translate(2349.23828125, 1852.75)"><rect class="outer title-state" x="-79.5" y="-17" width="159" height="34"></rect><line class="divider" x1="-79.5" x2="79.5" y1="9.5" y2="9.5"></line><g class="label" transform="translate(-72, -14)"><text style=""><tspan xml:space="preserve" dy="1em" x="0" class="title-row">DealStatusFinalizing</tspan></text><text style="" transform="translate( 0, 26.5)"><tspan xml:space="preserve" dy="1em" x="0" class="title-row"></tspan></text></g></g><g class="node statediagram-state" id="21" transform="translate(663.36328125, 1852.75)"><rect class="outer title-state" x="-114.4921875" y="-30.25" width="228.984375" height="60.5"></rect><line class="divider" x1="-114.4921875" x2="114.4921875" y1="-3.75" y2="-3.75"></line><g class="label" transform="translate(-106.9921875, -27.25)"><text style=""><tspan xml:space="preserve" dy="1em" x="0" class="title-row">DealStatusCheckComplete</tspan></text><text style="" transform="translate( 0, 26.5)"><tspan xml:space="preserve" dy="1em" x="0" class="title-row">On entry runs CheckComplete</tspan></text></g></g><g class="node statediagram-state" id="22" transform="translate(1975.40234375, 1852.75)"><rect class="outer title-state" x="-100.6953125" y="-30.25" width="201.390625" height="60.5"></rect><line class="divider" x1="-100.6953125" x2="100.6953125" y1="-3.75" y2="-3.75"></line><g class="label" transform="translate(-93.1953125, -27.25)"><text style=""><tspan xml:space="preserve" dy="1em" x="0" class="title-row">DealStatusCheckFunds</tspan></text><text style="" transform="translate( 0, 26.5)"><tspan xml:space="preserve" dy="1em" x="0" class="title-row">On entry runs CheckFunds</tspan></text></g></g><g class="node statediagram-state" id="23" transform="translate(2216.89453125, 1982.25)"><rect class="outer title-state" x="-106.5234375" y="-17" width="213.046875" height="34"></rect><line class="divider" x1="-106.5234375" x2="106.5234375" y1="9.5" y2="9.5"></line><g class="label" transform="translate(-99.0234375, -14)"><text style=""><tspan xml:space="preserve" dy="1em" x="0" class="title-row">DealStatusInsufficientFunds</tspan></text><text style="" transform="translate( 0, 26.5)"><tspan xml:space="preserve" dy="1em" x="0" class="title-row"></tspan></text></g></g><g class="node statediagram-state" id="24" transform="translate(2550.79296875, 961.25)"><rect class="outer title-state" x="-158.0390625" y="-30.25" width="316.078125" height="60.5"></rect><line class="divider" x1="-158.0390625" x2="158.0390625" y1="-3.75" y2="-3.75"></line><g class="label" transform="translate(-150.5390625, -27.25)"><text style=""><tspan xml:space="preserve" dy="1em" x="0" class="title-row">DealStatusPaymentChannelAllocatingLane</tspan></text><text style="" transform="translate( 0, 26.5)"><tspan xml:space="preserve" dy="1em" x="0" class="title-row">On entry runs AllocateLane</tspan></text></g></g><g class="node default" id="root_start" transform="translate(1513.48046875, 15)"><circle class="state-start" r="7" width="14" height="14"></circle></g><g class="node statediagram-note" id="0----note" transform="translate(1568.453125, 346)"><rect x="-286.75" y="-57" width="573.5" height="114"></rect><g class="label" transform="translate(-279.25, -49.5)"><text style=""><tspan xml:space="preserve" dy="1em" x="0" class="row">The following events are not shown cause they can trigger from any state.</tspan><tspan xml:space="preserve" dy="1em" x="0" class="row"></tspan><tspan xml:space="preserve" dy="1em" x="0" class="row">ClientEventWriteDealProposalErrored - transitions state to DealStatusErrored</tspan><tspan xml:space="preserve" dy="1em" x="0" class="row">ClientEventUnknownResponseReceived - transitions state to DealStatusFailing</tspan><tspan xml:space="preserve" dy="1em" x="0" class="row">ClientEventDataTransferError - transitions state to DealStatusErrored</tspan><tspan xml:space="preserve" dy="1em" x="0" class="row">ClientEventWriteDealPaymentErrored - transitions state to DealStatusErrored</tspan><tspan xml:space="preserve" dy="1em" x="0" class="row">ClientEventProviderCancelled - transitions state to DealStatusErrored</tspan></text></g></g><g class="node statediagram-note" id="3----note" transform="translate(4208.78125, 146)"><rect x="-173.125" y="-49" width="346.25" height="98"></rect><g class="label" transform="translate(-165.625, -41.5)"><text style=""><tspan xml:space="preserve" dy="1em" x="0" class="row">The following events only record in this state.</tspan><tspan xml:space="preserve" dy="1em" x="0" class="row"></tspan><tspan xml:space="preserve" dy="1em" x="0" class="row">ClientEventLastPaymentRequested</tspan><tspan xml:space="preserve" dy="1em" x="0" class="row">ClientEventPaymentRequested</tspan><tspan xml:space="preserve" dy="1em" x="0" class="row">ClientEventAllBlocksReceived</tspan><tspan xml:space="preserve" dy="1em" x="0" class="row">ClientEventBlocksReceived</tspan></text></g></g><g class="node statediagram-note" id="4----note" transform="translate(216.125, 571)"><rect x="-173.125" y="-49" width="346.25" height="98"></rect><g class="label" transform="translate(-165.625, -41.5)"><text style=""><tspan xml:space="preserve" dy="1em" x="0" class="row">The following events only record in this state.</tspan><tspan xml:space="preserve" dy="1em" x="0" class="row"></tspan><tspan xml:space="preserve" dy="1em" x="0" class="row">ClientEventLastPaymentRequested</tspan><tspan xml:space="preserve" dy="1em" x="0" class="row">ClientEventPaymentRequested</tspan><tspan xml:space="preserve" dy="1em" x="0" class="row">ClientEventAllBlocksReceived</tspan><tspan xml:space="preserve" dy="1em" x="0" class="row">ClientEventBlocksReceived</tspan></text></g></g><g class="node statediagram-note" id="6----note" transform="translate(3413.95703125, 346)"><rect x="-173.125" y="-49" width="346.25" height="98"></rect><g class="label" transform="translate(-165.625, -41.5)"><text style=""><tspan xml:space="preserve" dy="1em" x="0" class="row">The following events only record in this state.</tspan><tspan xml:space="preserve" dy="1em" x="0" class="row"></tspan><tspan xml:space="preserve" dy="1em" x="0" class="row">ClientEventLastPaymentRequested</tspan><tspan xml:space="preserve" dy="1em" x="0" class="row">ClientEventPaymentRequested</tspan><tspan xml:space="preserve" dy="1em" x="0" class="row">ClientEventAllBlocksReceived</tspan><tspan xml:space="preserve" dy="1em" x="0" class="row">ClientEventBlocksReceived</tspan></text></g></g><g class="node statediagram-note" id="10----note" transform="translate(1814.1640625, 1265)"><rect x="-173.125" y="-25" width="346.25" height="50"></rect><g class="label" transform="translate(-165.625, -17.5)"><text style=""><tspan xml:space="preserve" dy="1em" x="0" class="row">The following events only record in this state.</tspan><tspan xml:space="preserve" dy="1em" x="0" class="row"></tspan><tspan xml:space="preserve" dy="1em" x="0" class="row">ClientEventAllBlocksReceived</tspan></text></g></g><g class="node statediagram-note" id="11----note" transform="translate(1006.90625, 1568.75)"><rect x="-173.125" y="-25" width="346.25" height="50"></rect><g class="label" transform="translate(-165.625, -17.5)"><text style=""><tspan xml:space="preserve" dy="1em" x="0" class="row">The following events only record in this state.</tspan><tspan xml:space="preserve" dy="1em" x="0" class="row"></tspan><tspan xml:space="preserve" dy="1em" x="0" class="row">ClientEventAllBlocksReceived</tspan></text></g></g><g class="node statediagram-note" id="24----note" transform="translate(2117.34375, 788)"><rect x="-173.125" y="-49" width="346.25" height="98"></rect><g class="label" transform="translate(-165.625, -41.5)"><text style=""><tspan xml:space="preserve" dy="1em" x="0" class="row">The following events only record in this state.</tspan><tspan xml:space="preserve" dy="1em" x="0" class="row"></tspan><tspan xml:space="preserve" dy="1em" x="0" class="row">ClientEventLastPaymentRequested</tspan><tspan xml:space="preserve" dy="1em" x="0" class="row">ClientEventPaymentRequested</tspan><tspan xml:space="preserve" dy="1em" x="0" class="row">ClientEventAllBlocksReceived</tspan><tspan xml:space="preserve" dy="1em" x="0" class="row">ClientEventBlocksReceived</tspan></text></g></g></g></g></g></svg>