<svg id="mermaid-1598937451130" width="1977.79296875" xmlns="http://www.w3.org/2000/svg" class="statediagram" height="1229" viewBox="0 0 1977.79296875 1229"><style>#mermaid-1598937451130 .label{font-family:'trebuchet ms', verdana, arial;font-family:var(--mermaid-font-family);color:#333}#mermaid-1598937451130 .label text{fill:#333}#mermaid-1598937451130 .node rect,#mermaid-1598937451130 .node circle,#mermaid-1598937451130 .node ellipse,#mermaid-1598937451130 .node polygon,#mermaid-1598937451130 .node path{fill:#ECECFF;stroke:#9370db;stroke-width:1px}#mermaid-1598937451130 .node .label{text-align:center}#mermaid-1598937451130 .node.clickable{cursor:pointer}#mermaid-1598937451130 .arrowheadPath{fill:#333}#mermaid-1598937451130 .edgePath .path{stroke:#333;stroke-width:1.5px}#mermaid-1598937451130 .edgeLabel{background-color:#e8e8e8;text-align:center}#mermaid-1598937451130 .edgeLabel rect{opacity:0.5}#mermaid-1598937451130 .cluster rect{fill:#ffffde;stroke:#aa3;stroke-width:1px}#mermaid-1598937451130 .cluster text{fill:#333}#mermaid-1598937451130 div.mermaidTooltip{position:absolute;text-align:center;max-width:200px;padding:2px;font-family:'trebuchet ms', verdana, arial;font-family:var(--mermaid-font-family);font-size:12px;background:#ffffde;border:1px solid #aa3;border-radius:2px;pointer-events:none;z-index:100}#mermaid-1598937451130 .actor{stroke:#ccf;fill:#ECECFF}#mermaid-1598937451130 text.actor{fill:#000;stroke:none}#mermaid-1598937451130 .actor-line{stroke:grey}#mermaid-1598937451130 .messageLine0{stroke-width:1.5;stroke-dasharray:'2 2';stroke:#333}#mermaid-1598937451130 .messageLine1{stroke-width:1.5;stroke-dasharray:'2 2';stroke:#333}#mermaid-1598937451130 #arrowhead{fill:#333}#mermaid-1598937451130 .sequenceNumber{fill:#fff}#mermaid-1598937451130 #sequencenumber{fill:#333}#mermaid-1598937451130 #crosshead path{fill:#333 !important;stroke:#333 !important}#mermaid-1598937451130 .messageText{fill:#333;stroke:none}#mermaid-1598937451130 .labelBox{stroke:#ccf;fill:#ECECFF}#mermaid-1598937451130 .labelText{fill:#000;stroke:none}#mermaid-1598937451130 .loopText{fill:#000;stroke:none}#mermaid-1598937451130 .loopLine{stroke-width:2;stroke-dasharray:'2 2';stroke:#ccf}#mermaid-1598937451130 .note{stroke:#aa3;fill:#fff5ad}#mermaid-1598937451130 .noteText{fill:black;stroke:none;font-family:'trebuchet ms', verdana, arial;font-family:var(--mermaid-font-family);font-size:14px}#mermaid-1598937451130 .activation0{fill:#f4f4f4;stroke:#666}#mermaid-1598937451130 .activation1{fill:#f4f4f4;stroke:#666}#mermaid-1598937451130 .activation2{fill:#f4f4f4;stroke:#666}#mermaid-1598937451130 .mermaid-main-font{font-family:"trebuchet ms", verdana, arial;font-family:var(--mermaid-font-family)}#mermaid-1598937451130 .section{stroke:none;opacity:0.2}#mermaid-1598937451130 .section0{fill:rgba(102,102,255,0.49)}#mermaid-1598937451130 .section2{fill:#fff400}#mermaid-1598937451130 .section1,#mermaid-1598937451130 .section3{fill:#fff;opacity:0.2}#mermaid-1598937451130 .sectionTitle0{fill:#333}#mermaid-1598937451130 .sectionTitle1{fill:#333}#mermaid-1598937451130 .sectionTitle2{fill:#333}#mermaid-1598937451130 .sectionTitle3{fill:#333}#mermaid-1598937451130 .sectionTitle{text-anchor:start;font-size:11px;text-height:14px;font-family:'trebuchet ms', verdana, arial;font-family:var(--mermaid-font-family)}#mermaid-1598937451130 .grid .tick{stroke:#d3d3d3;opacity:0.8;shape-rendering:crispEdges}#mermaid-1598937451130 .grid .tick text{font-family:'trebuchet ms', verdana, arial;font-family:var(--mermaid-font-family)}#mermaid-1598937451130 .grid path{stroke-width:0}#mermaid-1598937451130 .today{fill:none;stroke:red;stroke-width:2px}#mermaid-1598937451130 .task{stroke-width:2}#mermaid-1598937451130 .taskText{text-anchor:middle;font-family:'trebuchet ms', verdana, arial;font-family:var(--mermaid-font-family)}#mermaid-1598937451130 .taskText:not([font-size]){font-size:11px}#mermaid-1598937451130 .taskTextOutsideRight{fill:#000;text-anchor:start;font-size:11px;font-family:'trebuchet ms', verdana, arial;font-family:var(--mermaid-font-family)}#mermaid-1598937451130 .taskTextOutsideLeft{fill:#000;text-anchor:end;font-size:11px}#mermaid-1598937451130 .task.clickable{cursor:pointer}#mermaid-1598937451130 .taskText.clickable{cursor:pointer;fill:#003163 !important;font-weight:bold}#mermaid-1598937451130 .taskTextOutsideLeft.clickable{cursor:pointer;fill:#003163 !important;font-weight:bold}#mermaid-1598937451130 .taskTextOutsideRight.clickable{cursor:pointer;fill:#003163 !important;font-weight:bold}#mermaid-1598937451130 .taskText0,#mermaid-1598937451130 .taskText1,#mermaid-1598937451130 .taskText2,#mermaid-1598937451130 .taskText3{fill:#fff}#mermaid-1598937451130 .task0,#mermaid-1598937451130 .task1,#mermaid-1598937451130 .task2,#mermaid-1598937451130 .task3{fill:#8a90dd;stroke:#534fbc}#mermaid-1598937451130 .taskTextOutside0,#mermaid-1598937451130 .taskTextOutside2{fill:#000}#mermaid-1598937451130 .taskTextOutside1,#mermaid-1598937451130 .taskTextOutside3{fill:#000}#mermaid-1598937451130 .active0,#mermaid-1598937451130 .active1,#mermaid-1598937451130 .active2,#mermaid-1598937451130 .active3{fill:#bfc7ff;stroke:#534fbc}#mermaid-1598937451130 .activeText0,#mermaid-1598937451130 .activeText1,#mermaid-1598937451130 .activeText2,#mermaid-1598937451130 .activeText3{fill:#000 !important}#mermaid-1598937451130 .done0,#mermaid-1598937451130 .done1,#mermaid-1598937451130 .done2,#mermaid-1598937451130 .done3{stroke:grey;fill:#d3d3d3;stroke-width:2}#mermaid-1598937451130 .doneText0,#mermaid-1598937451130 .doneText1,#mermaid-1598937451130 .doneText2,#mermaid-1598937451130 .doneText3{fill:#000 !important}#mermaid-1598937451130 .crit0,#mermaid-1598937451130 .crit1,#mermaid-1598937451130 .crit2,#mermaid-1598937451130 .crit3{stroke:#f88;fill:red;stroke-width:2}#mermaid-1598937451130 .activeCrit0,#mermaid-1598937451130 .activeCrit1,#mermaid-1598937451130 .activeCrit2,#mermaid-1598937451130 .activeCrit3{stroke:#f88;fill:#bfc7ff;stroke-width:2}#mermaid-1598937451130 .doneCrit0,#mermaid-1598937451130 .doneCrit1,#mermaid-1598937451130 .doneCrit2,#mermaid-1598937451130 .doneCrit3{stroke:#f88;fill:#d3d3d3;stroke-width:2;cursor:pointer;shape-rendering:crispEdges}#mermaid-1598937451130 .milestone{transform:rotate(45deg) scale(0.8, 0.8)}#mermaid-1598937451130 .milestoneText{font-style:italic}#mermaid-1598937451130 .doneCritText0,#mermaid-1598937451130 .doneCritText1,#mermaid-1598937451130 .doneCritText2,#mermaid-1598937451130 .doneCritText3{fill:#000 !important}#mermaid-1598937451130 .activeCritText0,#mermaid-1598937451130 .activeCritText1,#mermaid-1598937451130 .activeCritText2,#mermaid-1598937451130 .activeCritText3{fill:#000 !important}#mermaid-1598937451130 .titleText{text-anchor:middle;font-size:18px;fill:#000;font-family:'trebuchet ms', verdana, arial;font-family:var(--mermaid-font-family)}#mermaid-1598937451130 g.classGroup text{fill:#9370db;stroke:none;font-family:'trebuchet ms', verdana, arial;font-family:var(--mermaid-font-family);font-size:10px}#mermaid-1598937451130 g.classGroup text .title{font-weight:bolder}#mermaid-1598937451130 g.clickable{cursor:pointer}#mermaid-1598937451130 g.classGroup rect{fill:#ECECFF;stroke:#9370db}#mermaid-1598937451130 g.classGroup line{stroke:#9370db;stroke-width:1}#mermaid-1598937451130 .classLabel .box{stroke:none;stroke-width:0;fill:#ECECFF;opacity:0.5}#mermaid-1598937451130 .classLabel .label{fill:#9370db;font-size:10px}#mermaid-1598937451130 .relation{stroke:#9370db;stroke-width:1;fill:none}#mermaid-1598937451130 .dashed-line{stroke-dasharray:3}#mermaid-1598937451130 #compositionStart{fill:#9370db;stroke:#9370db;stroke-width:1}#mermaid-1598937451130 #compositionEnd{fill:#9370db;stroke:#9370db;stroke-width:1}#mermaid-1598937451130 #aggregationStart{fill:#ECECFF;stroke:#9370db;stroke-width:1}#mermaid-1598937451130 #aggregationEnd{fill:#ECECFF;stroke:#9370db;stroke-width:1}#mermaid-1598937451130 #dependencyStart{fill:#9370db;stroke:#9370db;stroke-width:1}#mermaid-1598937451130 #dependencyEnd{fill:#9370db;stroke:#9370db;stroke-width:1}#mermaid-1598937451130 #extensionStart{fill:#9370db;stroke:#9370db;stroke-width:1}#mermaid-1598937451130 #extensionEnd{fill:#9370db;stroke:#9370db;stroke-width:1}#mermaid-1598937451130 .commit-id,#mermaid-1598937451130 .commit-msg,#mermaid-1598937451130 .branch-label{fill:lightgrey;color:lightgrey;font-family:'trebuchet ms', verdana, arial;font-family:var(--mermaid-font-family)}#mermaid-1598937451130 .pieTitleText{text-anchor:middle;font-size:25px;fill:#000;font-family:'trebuchet ms', verdana, arial;font-family:var(--mermaid-font-family)}#mermaid-1598937451130 .slice{font-family:'trebuchet ms', verdana, arial;font-family:var(--mermaid-font-family)}#mermaid-1598937451130 g.stateGroup text{fill:#9370db;stroke:none;font-size:10px;font-family:'trebuchet ms', verdana, arial;font-family:var(--mermaid-font-family)}#mermaid-1598937451130 g.stateGroup text{fill:#9370db;stroke:none;font-size:10px}#mermaid-1598937451130 g.stateGroup .state-title{font-weight:bolder;fill:#000}#mermaid-1598937451130 g.stateGroup rect{fill:#ECECFF;stroke:#9370db}#mermaid-1598937451130 g.stateGroup line{stroke:#9370db;stroke-width:1}#mermaid-1598937451130 .transition{stroke:#9370db;stroke-width:1;fill:none}#mermaid-1598937451130 .stateGroup .composit{fill:white;border-bottom:1px}#mermaid-1598937451130 .stateGroup .alt-composit{fill:#e0e0e0;border-bottom:1px}#mermaid-1598937451130 .state-note{stroke:#aa3;fill:#fff5ad}#mermaid-1598937451130 .state-note text{fill:black;stroke:none;font-size:10px}#mermaid-1598937451130 .stateLabel .box{stroke:none;stroke-width:0;fill:#ECECFF;opacity:0.5}#mermaid-1598937451130 .stateLabel text{fill:#000;font-size:10px;font-weight:bold;font-family:'trebuchet ms', verdana, arial;font-family:var(--mermaid-font-family)}#mermaid-1598937451130 .node circle.state-start{fill:black;stroke:black}#mermaid-1598937451130 .node circle.state-end{fill:black;stroke:white;stroke-width:1.5}#mermaid-1598937451130 #statediagram-barbEnd{fill:#9370db}#mermaid-1598937451130 .statediagram-cluster rect{fill:#ECECFF;stroke:#9370db;stroke-width:1px}#mermaid-1598937451130 .statediagram-cluster rect.outer{rx:5px;ry:5px}#mermaid-1598937451130 .statediagram-state .divider{stroke:#9370db}#mermaid-1598937451130 .statediagram-state .title-state{rx:5px;ry:5px}#mermaid-1598937451130 .statediagram-cluster.statediagram-cluster .inner{fill:white}#mermaid-1598937451130 .statediagram-cluster.statediagram-cluster-alt .inner{fill:#e0e0e0}#mermaid-1598937451130 .statediagram-cluster .inner{rx:0;ry:0}#mermaid-1598937451130 .statediagram-state rect.basic{rx:5px;ry:5px}#mermaid-1598937451130 .statediagram-state rect.divider{stroke-dasharray:10,10;fill:#efefef}#mermaid-1598937451130 .note-edge{stroke-dasharray:5}#mermaid-1598937451130 .statediagram-note rect{fill:#fff5ad;stroke:#aa3;stroke-width:1px;rx:0;ry:0}:root{--mermaid-font-family: '"trebuchet ms", verdana, arial';--mermaid-font-family: "Comic Sans MS", "Comic Sans", cursive}

:root { --mermaid-font-family: "trebuchet ms", verdana, arial;}</style><style>#mermaid-1598937451130 {
    color: rgb(0, 0, 0);
    font: 16px "trebuchet ms", verdana, arial;
  }</style><g><defs><marker id="statediagram-barbEnd" refX="19" refY="7" markerWidth="20" markerHeight="14" markerUnits="0" orient="auto"><path d="M 19,7 L9,13 L14,7 L9,1 Z"></path></marker></defs><g class="root"><g class="clusters"><g class="note-cluster" id="0----parent"><rect x="8" y="72" width="996.890625" height="219" fill="none"></rect></g></g><g class="edgePaths"><path d="M522.765625,22L522.765625,26.166666666666668C522.765625,30.333333333333332,522.765625,38.666666666666664,522.765625,47C522.765625,55.333333333333336,522.765625,63.666666666666664,522.765625,72C522.765625,80.33333333333333,522.765625,88.66666666666667,522.765625,92.83333333333333L522.765625,97" id="edge0" class="transition" marker-end="url(#statediagram-barbEnd)"></path><path d="M462.0078125,129.28451763089603L438.0143229166667,135.32043135908003C414.0208333333333,141.35634508726403,366.0338541666667,153.42817254363203,342.0403645833333,165.214086271816C318.046875,177,318.046875,188.5,318.046875,194.25L318.046875,200" class="transition note-edge"></path><path d="M583.5234375,110.34435053503783L620.4878472222223,108.12029211253152C657.4522569444445,105.89623369002523,731.381076388889,101.44811684501262,777.5865885416666,99.2240584225063C823.7921006944445,97,842.2743055555557,97,860.7565104166666,99.83333333333333C879.2387152777778,102.66666666666667,897.720920138889,108.33333333333333,897.720920138889,114C897.720920138889,119.66666666666667,879.2387152777778,125.33333333333333,860.7565104166666,128.16666666666666C842.2743055555557,131,823.7921006944445,131,777.5865885416666,128.77594157749368C731.381076388889,126.55188315498738,657.4522569444445,122.10376630997477,620.4878472222223,119.87970788746846L583.5234375,117.65564946496217" id="edge1" class="transition" marker-end="url(#statediagram-barbEnd)"></path><path d="M583.5234375,129.28451763089603L607.5169270833334,135.32043135908003C631.5104166666666,141.35634508726403,679.4973958333334,153.42817254363203,703.4908854166666,170.714086271816C727.484375,188,727.484375,210.5,727.484375,231.41666666666666C727.484375,252.33333333333334,727.484375,271.6666666666667,727.484375,287.0833333333333C727.484375,302.5,727.484375,314,727.484375,325.5C727.484375,337,727.484375,348.5,727.484375,354.25L727.484375,360" id="edge2" class="transition" marker-end="url(#statediagram-barbEnd)"></path><path d="M1273.5,215.88096634997538L1288.4322916666667,213.6924719583128C1303.3645833333333,211.50397756665026,1333.2291666666667,207.12698878332512,1351.89453125,204.93849439166254C1370.5598958333333,202.75,1378.0260416666667,202.75,1385.4921875,207.79166666666666C1392.9583333333333,212.83333333333334,1400.4244791666667,222.91666666666666,1400.4244791666667,233C1400.4244791666667,243.08333333333334,1392.9583333333333,253.16666666666666,1385.4921875,258.2083333333333C1378.0260416666667,263.25,1370.5598958333333,263.25,1351.89453125,261.0615056083374C1333.2291666666667,258.8730112166749,1303.3645833333333,254.49602243334974,1288.4322916666667,252.3075280416872L1273.5,250.11903365002462" id="edge3" class="transition" marker-end="url(#statediagram-barbEnd)"></path><path d="M628.734375,416.1434446975449L604.0364583333334,422.61953724795404C579.3385416666666,429.0956297983633,529.9427083333334,442.0478148991817,505.2447916666667,459.3155741162575C480.546875,476.5833333333333,480.546875,498.1666666666667,480.546875,519.75C480.546875,541.3333333333334,480.546875,562.9166666666666,480.546875,582.2916666666666C480.546875,601.6666666666666,480.546875,618.8333333333334,480.546875,636C480.546875,653.1666666666666,480.546875,670.3333333333334,480.546875,687.5C480.546875,704.6666666666666,480.546875,721.8333333333334,480.546875,739C480.546875,756.1666666666666,480.546875,773.3333333333334,480.546875,790.5C480.546875,807.6666666666666,480.546875,824.8333333333334,480.546875,842C480.546875,859.1666666666666,480.546875,876.3333333333334,514.2942708333334,892.1785426835601C548.0416666666666,908.0237520337869,615.5364583333334,922.5475040675738,649.2838541666666,929.8093800844672L683.03125,937.0712561013605" id="edge4" class="transition" marker-end="url(#statediagram-barbEnd)"></path><path d="M792.6890383687258,420.5L805.0833132239383,426.25C817.4775880791507,432,842.2661377895753,443.5,854.6604126447877,455C867.0546875,466.5,867.0546875,478,867.0546875,483.75L867.0546875,489.5" id="edge5" class="transition" marker-end="url(#statediagram-barbEnd)"></path><path d="M971.625,541.6336165538835L1005.7643229166666,548.7780137949029C1039.9036458333333,555.9224110359223,1108.1822916666667,570.2112055179612,1142.3216145833333,583.1056027589806C1176.4609375,596,1176.4609375,607.5,1176.4609375,613.25L1176.4609375,619" id="edge6" class="transition" marker-end="url(#statediagram-barbEnd)"></path><path d="M1250.5390625,627.8277959914827L1263.8758680555554,626.356496659569C1277.212673611111,624.8851973276552,1303.8862847222222,621.9425986638275,1320.5572916666667,620.4712993319138C1337.228298611111,619,1343.896701388889,619,1350.5651041666667,621.8333333333334C1357.2335069444446,624.6666666666666,1363.9019097222224,630.3333333333334,1363.9019097222224,636C1363.9019097222224,641.6666666666666,1357.2335069444446,647.3333333333334,1350.5651041666667,650.1666666666666C1343.896701388889,653,1337.228298611111,653,1320.5572916666667,651.5287006680862C1303.8862847222222,650.0574013361725,1277.212673611111,647.1148026723448,1263.8758680555554,645.643503340431L1250.5390625,644.1722040085173" id="edge7" class="transition" marker-end="url(#statediagram-barbEnd)"></path><path d="M1250.5390625,652.7932665027425L1276.0553385416667,658.5777220856188C1301.5716145833333,664.3621776684951,1352.6041666666667,675.9310888342475,1378.1204427083333,687.4655444171236C1403.63671875,699,1403.63671875,710.5,1403.63671875,716.25L1403.63671875,722" id="edge8" class="transition" marker-end="url(#statediagram-barbEnd)"></path><path d="M583.5234375,123.11132217116338L630.6341145833334,130.17610180930282C677.7447916666666,137.24088144744226,771.9661458333334,151.37044072372112,848.02734375,165.16192467811712C924.0885416666666,178.9534086325131,981.9895833333334,192.4068172650262,1010.9401041666666,199.1335215812828L1039.890625,205.86022589753932" id="edge9" class="transition" marker-end="url(#statediagram-barbEnd)"></path><path d="M762.484375,547.1215397855575L738.6842447916666,553.3512831546312C714.8841145833334,559.581026523705,667.2838541666666,572.0405132618525,643.4837239583334,586.8535899642596C619.68359375,601.6666666666666,619.68359375,618.8333333333334,619.68359375,636C619.68359375,653.1666666666666,619.68359375,670.3333333333334,629.2707069174758,684.6666666666666C638.8578200849514,699,658.0320464199029,710.5,667.6191595873787,716.25L677.2062727548544,722" id="edge10" class="transition" marker-end="url(#statediagram-barbEnd)"></path><path d="M1102.3828125,645.1252300821288L1045.0501302083333,652.1876917351074C987.7174479166666,659.2501533880859,873.0520833333334,673.375076694043,809.8202429712783,686.1875383470215C746.5884026092232,699,734.7900864684466,710.5,728.8909283980582,716.25L722.9917703276699,722" id="edge11" class="transition" marker-end="url(#statediagram-barbEnd)"></path><path d="M1326.2727927791261,756L1300.1055825242718,761.75C1273.9383722694174,767.5,1221.6039517597087,779,1195.4367415048544,790.5C1169.26953125,802,1169.26953125,813.5,1169.26953125,819.25L1169.26953125,825" id="edge12" class="transition" marker-end="url(#statediagram-barbEnd)"></path><path d="M705.55078125,756L705.55078125,761.75C705.55078125,767.5,705.55078125,779,705.55078125,793.3333333333334C705.55078125,807.6666666666666,705.55078125,824.8333333333334,705.55078125,842C705.55078125,859.1666666666666,705.55078125,876.3333333333334,712.2911438223938,890.6666666666666C719.0315063947877,905,732.5122315395753,916.5,739.2525941119692,922.25L745.992956684363,928" id="edge13" class="transition" marker-end="url(#statediagram-barbEnd)"></path><path d="M1169.26953125,859L1169.26953125,864.75C1169.26953125,870.5,1169.26953125,882,1121.037109375,895.8029066488049C1072.8046875,909.6058132976099,976.33984375,925.7116265952196,928.107421875,933.7645332440246L879.875,941.8174398928295" id="edge14" class="transition" marker-end="url(#statediagram-barbEnd)"></path><path d="M798.63671875,732.4068420024738L823.125,730.6723683353948C847.61328125,728.9378946683158,896.58984375,725.4689473341579,927.2001953125,723.734473667079C957.810546875,722,970.0546875,722,982.298828125,724.8333333333334C994.54296875,727.6666666666666,1006.787109375,733.3333333333334,1006.787109375,739C1006.787109375,744.6666666666666,994.54296875,750.3333333333334,982.298828125,753.1666666666666C970.0546875,756,957.810546875,756,927.2001953125,754.265526332921C896.58984375,752.5310526658421,847.61328125,749.0621053316842,823.125,747.3276316646052L798.63671875,745.5931579975262" id="edge15" class="transition" marker-end="url(#statediagram-barbEnd)"></path><path d="M1308.17578125,832.6975933031043L1327.3328993055554,831.4146610859202C1346.490017361111,830.1317288687363,1384.804253472222,827.5658644343681,1408.7506510416667,826.2829322171841C1432.697048611111,825,1442.275607638889,825,1451.8541666666667,827.8333333333334C1461.4327256944446,830.6666666666666,1471.0112847222224,836.3333333333334,1471.0112847222224,842C1471.0112847222224,847.6666666666666,1461.4327256944446,853.3333333333334,1451.8541666666667,856.1666666666666C1442.275607638889,859,1432.697048611111,859,1408.7506510416667,857.7170677828159C1384.804253472222,856.4341355656319,1346.490017361111,853.8682711312637,1327.3328993055554,852.5853389140797L1308.17578125,851.3024066968957" id="edge16" class="transition" marker-end="url(#statediagram-barbEnd)"></path><path d="M1156.6953125,263.25L1156.6953125,267.875C1156.6953125,272.5,1156.6953125,281.75,1156.6953125,292.125C1156.6953125,302.5,1156.6953125,314,1101.6184895833333,328.0587917205143C1046.5416666666667,342.11758344102856,936.3880208333334,358.73516688205706,881.3111979166666,367.04395860257137L826.234375,375.3527503230856" id="edge17" class="transition" marker-end="url(#statediagram-barbEnd)"></path><path d="M798.63671875,723.2906607613733L833.9830729166666,717.3255506344776C869.3294270833334,711.3604405075821,940.0221354166666,699.430220253791,993.8741214097896,687.7151101268955C1047.7261074029127,676,1084.7373710558252,664.5,1103.2430028822816,658.75L1121.7486347087379,653" id="edge18" class="transition" marker-end="url(#statediagram-barbEnd)"></path><path d="M1308.17578125,852.4144535559524L1399.5078125,859.2620446299603C1490.83984375,866.1096357039683,1673.50390625,879.8048178519842,1764.8359375,894.6107422593254C1856.16796875,909.4166666666666,1856.16796875,925.3333333333334,1856.16796875,933.2916666666666L1856.16796875,941.25" id="edge19" class="transition" marker-end="url(#statediagram-barbEnd)"></path><path d="M1481.0006447208739,756L1507.1678549757282,761.75C1533.3350652305826,767.5,1585.6694857402915,779,1611.8366959951456,793.3333333333334C1638.00390625,807.6666666666666,1638.00390625,824.8333333333334,1638.00390625,842C1638.00390625,859.1666666666666,1638.00390625,876.3333333333334,1638.00390625,895.7083333333334C1638.00390625,915.0833333333334,1638.00390625,936.6666666666666,1638.00390625,958.25C1638.00390625,979.8333333333334,1638.00390625,1001.4166666666666,1647.6907275579151,1017.9583333333334C1657.3775488658302,1034.5,1676.7511914816603,1046,1686.4380127895754,1051.75L1696.1248340974903,1057.5" id="edge20" class="transition" marker-end="url(#statediagram-barbEnd)"></path><path d="M1856.16796875,975.25L1856.16796875,983.2083333333334C1856.16796875,991.1666666666666,1856.16796875,1007.0833333333334,1846.4811474420849,1020.7916666666666C1836.7943261341698,1034.5,1817.4206835183397,1046,1807.7338622104246,1051.75L1798.0470409025097,1057.5" id="edge21" class="transition" marker-end="url(#statediagram-barbEnd)"></path><path d="M1747.0859375,1118L1747.0859375,1123.75C1747.0859375,1129.5,1747.0859375,1141,1747.0859375,1152.5C1747.0859375,1164,1747.0859375,1175.5,1747.0859375,1181.25L1747.0859375,1187" id="edge22" class="transition" marker-end="url(#statediagram-barbEnd)"></path><path d="M781.453125,988.5L781.453125,994.25C781.453125,1000,781.453125,1011.5,781.453125,1025.2083333333333C781.453125,1038.9166666666667,781.453125,1054.8333333333333,781.453125,1062.7916666666667L781.453125,1070.75" id="edge23" class="transition" marker-end="url(#statediagram-barbEnd)"></path></g><g class="edgeLabels"><g class="edgeLabel"><g class="label" transform="translate(0, 0)"><rect rx="0" ry="0" width="0" height="0" style="fill:#e8e8e8;"></rect><text style=""></text></g></g><g class="edgeLabel"><g class="label" transform="translate(0, 0)"><rect rx="0" ry="0" width="0" height="0" style="fill:#e8e8e8;"></rect><text style=""></text></g></g><g class="edgeLabel" transform="translate(916.203125, 114)"><g class="label" transform="translate(-68.6875, -9.5)"><rect rx="0" ry="0" width="137.296875" height="19.03125" style="fill:#e8e8e8;"></rect><text style=""><tspan xml:space="preserve" dy="1em" x="0" class="row">ProviderEventOpen</tspan></text></g></g><g class="edgeLabel" transform="translate(727.484375, 233)"><g class="label" transform="translate(-99.390625, -9.5)"><rect rx="0" ry="0" width="198.65625" height="19.03125" style="fill:#e8e8e8;"></rect><text style=""><tspan xml:space="preserve" dy="1em" x="0" class="row">ProviderEventDealAccepted</tspan></text></g></g><g class="edgeLabel" transform="translate(1407.890625, 233)"><g class="label" transform="translate(-99.390625, -9.5)"><rect rx="0" ry="0" width="198.65625" height="19.03125" style="fill:#e8e8e8;"></rect><text style=""><tspan xml:space="preserve" dy="1em" x="0" class="row">ProviderEventDealAccepted</tspan></text></g></g><g class="edgeLabel" transform="translate(480.546875, 687.5)"><g class="label" transform="translate(-91.734375, -9.5)"><rect rx="0" ry="0" width="183.359375" height="19.03125" style="fill:#e8e8e8;"></rect><text style=""><tspan xml:space="preserve" dy="1em" x="0" class="row">ProviderEventUnsealError</tspan></text></g></g><g class="edgeLabel" transform="translate(867.0546875, 455)"><g class="label" transform="translate(-108.2578125, -9.5)"><rect rx="0" ry="0" width="216.390625" height="19.03125" style="fill:#e8e8e8;"></rect><text style=""><tspan xml:space="preserve" dy="1em" x="0" class="row">ProviderEventUnsealComplete</tspan></text></g></g><g class="edgeLabel" transform="translate(1176.4609375, 584.5)"><g class="label" transform="translate(-85.03125, -9.5)"><rect rx="0" ry="0" width="169.96875" height="19.03125" style="fill:#e8e8e8;"></rect><text style=""><tspan xml:space="preserve" dy="1em" x="0" class="row">ProviderEventBlockSent</tspan></text></g></g><g class="edgeLabel" transform="translate(1370.5703125, 636)"><g class="label" transform="translate(-85.03125, -9.5)"><rect rx="0" ry="0" width="169.96875" height="19.03125" style="fill:#e8e8e8;"></rect><text style=""><tspan xml:space="preserve" dy="1em" x="0" class="row">ProviderEventBlockSent</tspan></text></g></g><g class="edgeLabel" transform="translate(1403.63671875, 687.5)"><g class="label" transform="translate(-111.40625, -9.5)"><rect rx="0" ry="0" width="222.6875" height="19.03125" style="fill:#e8e8e8;"></rect><text style=""><tspan xml:space="preserve" dy="1em" x="0" class="row">ProviderEventBlocksCompleted</tspan></text></g></g><g class="edgeLabel" transform="translate(866.1875, 165.5)"><g class="label" transform="translate(-118.703125, -9.5)"><rect rx="0" ry="0" width="237.265625" height="19.03125" style="fill:#e8e8e8;"></rect><text style=""><tspan xml:space="preserve" dy="1em" x="0" class="row">ProviderEventPaymentRequested</tspan></text></g></g><g class="edgeLabel" transform="translate(619.68359375, 636)"><g class="label" transform="translate(-118.703125, -9.5)"><rect rx="0" ry="0" width="237.265625" height="19.03125" style="fill:#e8e8e8;"></rect><text style=""><tspan xml:space="preserve" dy="1em" x="0" class="row">ProviderEventPaymentRequested</tspan></text></g></g><g class="edgeLabel" transform="translate(758.38671875, 687.5)"><g class="label" transform="translate(-118.703125, -9.5)"><rect rx="0" ry="0" width="237.265625" height="19.03125" style="fill:#e8e8e8;"></rect><text style=""><tspan xml:space="preserve" dy="1em" x="0" class="row">ProviderEventPaymentRequested</tspan></text></g></g><g class="edgeLabel" transform="translate(1169.26953125, 790.5)"><g class="label" transform="translate(-118.703125, -9.5)"><rect rx="0" ry="0" width="237.265625" height="19.03125" style="fill:#e8e8e8;"></rect><text style=""><tspan xml:space="preserve" dy="1em" x="0" class="row">ProviderEventPaymentRequested</tspan></text></g></g><g class="edgeLabel" transform="translate(705.55078125, 842)"><g class="label" transform="translate(-117.46875, -9.5)"><rect rx="0" ry="0" width="234.796875" height="19.03125" style="fill:#e8e8e8;"></rect><text style=""><tspan xml:space="preserve" dy="1em" x="0" class="row">ProviderEventSaveVoucherFailed</tspan></text></g></g><g class="edgeLabel" transform="translate(1169.26953125, 893.5)"><g class="label" transform="translate(-117.46875, -9.5)"><rect rx="0" ry="0" width="234.796875" height="19.03125" style="fill:#e8e8e8;"></rect><text style=""><tspan xml:space="preserve" dy="1em" x="0" class="row">ProviderEventSaveVoucherFailed</tspan></text></g></g><g class="edgeLabel" transform="translate(1019.03125, 739)"><g class="label" transform="translate(-137.4140625, -9.5)"><rect rx="0" ry="0" width="274.65625" height="19.03125" style="fill:#e8e8e8;"></rect><text style=""><tspan xml:space="preserve" dy="1em" x="0" class="row">ProviderEventPartialPaymentReceived</tspan></text></g></g><g class="edgeLabel" transform="translate(1480.58984375, 842)"><g class="label" transform="translate(-137.4140625, -9.5)"><rect rx="0" ry="0" width="274.65625" height="19.03125" style="fill:#e8e8e8;"></rect><text style=""><tspan xml:space="preserve" dy="1em" x="0" class="row">ProviderEventPartialPaymentReceived</tspan></text></g></g><g class="edgeLabel" transform="translate(1156.6953125, 325.5)"><g class="label" transform="translate(-113.625, -9.5)"><rect rx="0" ry="0" width="227.109375" height="19.03125" style="fill:#e8e8e8;"></rect><text style=""><tspan xml:space="preserve" dy="1em" x="0" class="row">ProviderEventPaymentReceived</tspan></text></g></g><g class="edgeLabel" transform="translate(1010.71484375, 687.5)"><g class="label" transform="translate(-113.625, -9.5)"><rect rx="0" ry="0" width="227.109375" height="19.03125" style="fill:#e8e8e8;"></rect><text style=""><tspan xml:space="preserve" dy="1em" x="0" class="row">ProviderEventPaymentReceived</tspan></text></g></g><g class="edgeLabel" transform="translate(1856.16796875, 893.5)"><g class="label" transform="translate(-113.625, -9.5)"><rect rx="0" ry="0" width="227.109375" height="19.03125" style="fill:#e8e8e8;"></rect><text style=""><tspan xml:space="preserve" dy="1em" x="0" class="row">ProviderEventPaymentReceived</tspan></text></g></g><g class="edgeLabel" transform="translate(1638.00390625, 893.5)"><g class="label" transform="translate(-84.5390625, -9.5)"><rect rx="0" ry="0" width="168.96875" height="19.03125" style="fill:#e8e8e8;"></rect><text style=""><tspan xml:space="preserve" dy="1em" x="0" class="row">ProviderEventComplete</tspan></text></g></g><g class="edgeLabel" transform="translate(1856.16796875, 1023)"><g class="label" transform="translate(-84.5390625, -9.5)"><rect rx="0" ry="0" width="168.96875" height="19.03125" style="fill:#e8e8e8;"></rect><text style=""><tspan xml:space="preserve" dy="1em" x="0" class="row">ProviderEventComplete</tspan></text></g></g><g class="edgeLabel" transform="translate(1747.0859375, 1152.5)"><g class="label" transform="translate(-113.4453125, -9.5)"><rect rx="0" ry="0" width="226.75" height="19.03125" style="fill:#e8e8e8;"></rect><text style=""><tspan xml:space="preserve" dy="1em" x="0" class="row">ProviderEventCleanupComplete</tspan></text></g></g><g class="edgeLabel" transform="translate(781.453125, 1023)"><g class="label" transform="translate(-108.578125, -9.5)"><rect rx="0" ry="0" width="217.03125" height="19.03125" style="fill:#e8e8e8;"></rect><text style=""><tspan xml:space="preserve" dy="1em" x="0" class="row">ProviderEventCancelComplete</tspan></text></g></g></g><g class="nodes"><g class="node statediagram-state" id="0" transform="translate(522.765625, 114)"><rect class="outer title-state" x="-60.7578125" y="-17" width="121.515625" height="34"></rect><line class="divider" x1="-60.7578125" x2="60.7578125" y1="9.5" y2="9.5"></line><g class="label" transform="translate(-53.2578125, -14)"><text style=""><tspan xml:space="preserve" dy="1em" x="0" class="title-row">DealStatusNew</tspan></text><text style="" transform="translate( 0, 26.5)"><tspan xml:space="preserve" dy="1em" x="0" class="title-row"></tspan></text></g></g><g class="node statediagram-state" id="1" transform="translate(727.484375, 390.25)"><rect class="outer title-state" x="-98.75" y="-30.25" width="197.5" height="60.5"></rect><line class="divider" x1="-98.75" x2="98.75" y1="-3.75" y2="-3.75"></line><g class="label" transform="translate(-91.25, -27.25)"><text style=""><tspan xml:space="preserve" dy="1em" x="0" class="title-row">DealStatusUnsealing</tspan></text><text style="" transform="translate( 0, 26.5)"><tspan xml:space="preserve" dy="1em" x="0" class="title-row">On entry runs UnsealData</tspan></text></g></g><g class="node statediagram-state" id="2" transform="translate(867.0546875, 519.75)"><rect class="outer title-state" x="-104.5703125" y="-30.25" width="209.140625" height="60.5"></rect><line class="divider" x1="-104.5703125" x2="104.5703125" y1="-3.75" y2="-3.75"></line><g class="label" transform="translate(-97.0703125, -27.25)"><text style=""><tspan xml:space="preserve" dy="1em" x="0" class="title-row">DealStatusUnsealed</tspan></text><text style="" transform="translate( 0, 26.5)"><tspan xml:space="preserve" dy="1em" x="0" class="title-row">On entry runs UnpauseDeal</tspan></text></g></g><g class="node statediagram-state" id="7" transform="translate(1156.6953125, 233)"><rect class="outer title-state" x="-116.8046875" y="-30.25" width="233.609375" height="60.5"></rect><line class="divider" x1="-116.8046875" x2="116.8046875" y1="-3.75" y2="-3.75"></line><g class="label" transform="translate(-109.3046875, -27.25)"><text style=""><tspan xml:space="preserve" dy="1em" x="0" class="title-row">DealStatusFundsNeededUnseal</tspan></text><text style="" transform="translate( 0, 26.5)"><tspan xml:space="preserve" dy="1em" x="0" class="title-row">On entry runs TrackTransfer</tspan></text></g></g><g class="node statediagram-state" id="8" transform="translate(781.453125, 958.25)"><rect class="outer title-state" x="-98.421875" y="-30.25" width="196.84375" height="60.5"></rect><line class="divider" x1="-98.421875" x2="98.421875" y1="-3.75" y2="-3.75"></line><g class="label" transform="translate(-90.921875, -27.25)"><text style=""><tspan xml:space="preserve" dy="1em" x="0" class="title-row">DealStatusFailing</tspan></text><text style="" transform="translate( 0, 26.5)"><tspan xml:space="preserve" dy="1em" x="0" class="title-row">On entry runs CancelDeal</tspan></text></g></g><g class="node statediagram-state" id="10" transform="translate(705.55078125, 739)"><rect class="outer title-state" x="-93.0859375" y="-17" width="186.171875" height="34"></rect><line class="divider" x1="-93.0859375" x2="93.0859375" y1="9.5" y2="9.5"></line><g class="label" transform="translate(-85.5859375, -14)"><text style=""><tspan xml:space="preserve" dy="1em" x="0" class="title-row">DealStatusFundsNeeded</tspan></text><text style="" transform="translate( 0, 26.5)"><tspan xml:space="preserve" dy="1em" x="0" class="title-row"></tspan></text></g></g><g class="node statediagram-state" id="13" transform="translate(1176.4609375, 636)"><rect class="outer title-state" x="-74.078125" y="-17" width="148.15625" height="34"></rect><line class="divider" x1="-74.078125" x2="74.078125" y1="9.5" y2="9.5"></line><g class="label" transform="translate(-66.578125, -14)"><text style=""><tspan xml:space="preserve" dy="1em" x="0" class="title-row">DealStatusOngoing</tspan></text><text style="" transform="translate( 0, 26.5)"><tspan xml:space="preserve" dy="1em" x="0" class="title-row"></tspan></text></g></g><g class="node statediagram-state" id="14" transform="translate(1169.26953125, 842)"><rect class="outer title-state" x="-138.90625" y="-17" width="277.8125" height="34"></rect><line class="divider" x1="-138.90625" x2="138.90625" y1="9.5" y2="9.5"></line><g class="label" transform="translate(-131.40625, -14)"><text style=""><tspan xml:space="preserve" dy="1em" x="0" class="title-row">DealStatusFundsNeededLastPayment</tspan></text><text style="" transform="translate( 0, 26.5)"><tspan xml:space="preserve" dy="1em" x="0" class="title-row"></tspan></text></g></g><g class="node statediagram-state" id="15" transform="translate(1747.0859375, 1204)"><rect class="outer title-state" x="-84.2265625" y="-17" width="168.453125" height="34"></rect><line class="divider" x1="-84.2265625" x2="84.2265625" y1="9.5" y2="9.5"></line><g class="label" transform="translate(-76.7265625, -14)"><text style=""><tspan xml:space="preserve" dy="1em" x="0" class="title-row">DealStatusCompleted</tspan></text><text style="" transform="translate( 0, 26.5)"><tspan xml:space="preserve" dy="1em" x="0" class="title-row"></tspan></text></g></g><g class="node statediagram-state" id="17" transform="translate(781.453125, 1087.75)"><rect class="outer title-state" x="-72.0625" y="-17" width="144.125" height="34"></rect><line class="divider" x1="-72.0625" x2="72.0625" y1="9.5" y2="9.5"></line><g class="label" transform="translate(-64.5625, -14)"><text style=""><tspan xml:space="preserve" dy="1em" x="0" class="title-row">DealStatusErrored</tspan></text><text style="" transform="translate( 0, 26.5)"><tspan xml:space="preserve" dy="1em" x="0" class="title-row"></tspan></text></g></g><g class="node statediagram-state" id="18" transform="translate(1403.63671875, 739)"><rect class="outer title-state" x="-102.1875" y="-17" width="204.375" height="34"></rect><line class="divider" x1="-102.1875" x2="102.1875" y1="9.5" y2="9.5"></line><g class="label" transform="translate(-94.6875, -14)"><text style=""><tspan xml:space="preserve" dy="1em" x="0" class="title-row">DealStatusBlocksComplete</tspan></text><text style="" transform="translate( 0, 26.5)"><tspan xml:space="preserve" dy="1em" x="0" class="title-row"></tspan></text></g></g><g class="node statediagram-state" id="19" transform="translate(1856.16796875, 958.25)"><rect class="outer title-state" x="-79.5" y="-17" width="159" height="34"></rect><line class="divider" x1="-79.5" x2="79.5" y1="9.5" y2="9.5"></line><g class="label" transform="translate(-72, -14)"><text style=""><tspan xml:space="preserve" dy="1em" x="0" class="title-row">DealStatusFinalizing</tspan></text><text style="" transform="translate( 0, 26.5)"><tspan xml:space="preserve" dy="1em" x="0" class="title-row"></tspan></text></g></g><g class="node statediagram-state" id="20" transform="translate(1747.0859375, 1087.75)"><rect class="outer title-state" x="-103.2890625" y="-30.25" width="206.578125" height="60.5"></rect><line class="divider" x1="-103.2890625" x2="103.2890625" y1="-3.75" y2="-3.75"></line><g class="label" transform="translate(-95.7890625, -27.25)"><text style=""><tspan xml:space="preserve" dy="1em" x="0" class="title-row">DealStatusCompleting</tspan></text><text style="" transform="translate( 0, 26.5)"><tspan xml:space="preserve" dy="1em" x="0" class="title-row">On entry runs CleanupDeal</tspan></text></g></g><g class="node default" id="root_start" transform="translate(522.765625, 15)"><circle class="state-start" r="7" width="14" height="14"></circle></g><g class="node statediagram-note" id="0----note" transform="translate(318.046875, 233)"><rect x="-275.046875" y="-33" width="550.09375" height="66"></rect><g class="label" transform="translate(-267.546875, -25.5)"><text style=""><tspan xml:space="preserve" dy="1em" x="0" class="row">The following events are not shown cause they can trigger from any state.</tspan><tspan xml:space="preserve" dy="1em" x="0" class="row"></tspan><tspan xml:space="preserve" dy="1em" x="0" class="row">ProviderEventDataTransferError - transitions state to DealStatusErrored</tspan><tspan xml:space="preserve" dy="1em" x="0" class="row">ProviderEventMultiStoreError - transitions state to DealStatusErrored</tspan></text></g></g></g></g></g></svg>