<svg id="mermaid-1600758333710" width="4713.9921875" xmlns="http://www.w3.org/2000/svg" class="statediagram" height="1541.5" viewBox="0 0 4713.9921875 1541.5"><style>#mermaid-1600758333710 .label{font-family:'trebuchet ms', verdana, arial;font-family:var(--mermaid-font-family);color:#333}#mermaid-1600758333710 .label text{fill:#333}#mermaid-1600758333710 .node rect,#mermaid-1600758333710 .node circle,#mermaid-1600758333710 .node ellipse,#mermaid-1600758333710 .node polygon,#mermaid-1600758333710 .node path{fill:#ECECFF;stroke:#9370db;stroke-width:1px}#mermaid-1600758333710 .node .label{text-align:center}#mermaid-1600758333710 .node.clickable{cursor:pointer}#mermaid-1600758333710 .arrowheadPath{fill:#333}#mermaid-1600758333710 .edgePath .path{stroke:#333;stroke-width:1.5px}#mermaid-1600758333710 .edgeLabel{background-color:#e8e8e8;text-align:center}#mermaid-1600758333710 .edgeLabel rect{opacity:0.5}#mermaid-1600758333710 .cluster rect{fill:#ffffde;stroke:#aa3;stroke-width:1px}#mermaid-1600758333710 .cluster text{fill:#333}#mermaid-1600758333710 div.mermaidTooltip{position:absolute;text-align:center;max-width:200px;padding:2px;font-family:'trebuchet ms', verdana, arial;font-family:var(--mermaid-font-family);font-size:12px;background:#ffffde;border:1px solid #aa3;border-radius:2px;pointer-events:none;z-index:100}#mermaid-1600758333710 .actor{stroke:#ccf;fill:#ECECFF}#mermaid-1600758333710 text.actor{fill:#000;stroke:none}#mermaid-1600758333710 .actor-line{stroke:grey}#mermaid-1600758333710 .messageLine0{stroke-width:1.5;stroke-dasharray:'2 2';stroke:#333}#mermaid-1600758333710 .messageLine1{stroke-width:1.5;stroke-dasharray:'2 2';stroke:#333}#mermaid-1600758333710 #arrowhead{fill:#333}#mermaid-1600758333710 .sequenceNumber{fill:#fff}#mermaid-1600758333710 #sequencenumber{fill:#333}#mermaid-1600758333710 #crosshead path{fill:#333 !important;stroke:#333 !important}#mermaid-1600758333710 .messageText{fill:#333;stroke:none}#mermaid-1600758333710 .labelBox{stroke:#ccf;fill:#ECECFF}#mermaid-1600758333710 .labelText{fill:#000;stroke:none}#mermaid-1600758333710 .loopText{fill:#000;stroke:none}#mermaid-1600758333710 .loopLine{stroke-width:2;stroke-dasharray:'2 2';stroke:#ccf}#mermaid-1600758333710 .note{stroke:#aa3;fill:#fff5ad}#mermaid-1600758333710 .noteText{fill:black;stroke:none;font-family:'trebuchet ms', verdana, arial;font-family:var(--mermaid-font-family);font-size:14px}#mermaid-1600758333710 .activation0{fill:#f4f4f4;stroke:#666}#mermaid-1600758333710 .activation1{fill:#f4f4f4;stroke:#666}#mermaid-1600758333710 .activation2{fill:#f4f4f4;stroke:#666}#mermaid-1600758333710 .mermaid-main-font{font-family:"trebuchet ms", verdana, arial;font-family:var(--mermaid-font-family)}#mermaid-1600758333710 .section{stroke:none;opacity:0.2}#mermaid-1600758333710 .section0{fill:rgba(102,102,255,0.49)}#mermaid-1600758333710 .section2{fill:#fff400}#mermaid-1600758333710 .section1,#mermaid-1600758333710 .section3{fill:#fff;opacity:0.2}#mermaid-1600758333710 .sectionTitle0{fill:#333}#mermaid-1600758333710 .sectionTitle1{fill:#333}#mermaid-1600758333710 .sectionTitle2{fill:#333}#mermaid-1600758333710 .sectionTitle3{fill:#333}#mermaid-1600758333710 .sectionTitle{text-anchor:start;font-size:11px;text-height:14px;font-family:'trebuchet ms', verdana, arial;font-family:var(--mermaid-font-family)}#mermaid-1600758333710 .grid .tick{stroke:#d3d3d3;opacity:0.8;shape-rendering:crispEdges}#mermaid-1600758333710 .grid .tick text{font-family:'trebuchet ms', verdana, arial;font-family:var(--mermaid-font-family)}#mermaid-1600758333710 .grid path{stroke-width:0}#mermaid-1600758333710 .today{fill:none;stroke:red;stroke-width:2px}#mermaid-1600758333710 .task{stroke-width:2}#mermaid-1600758333710 .taskText{text-anchor:middle;font-family:'trebuchet ms', verdana, arial;font-family:var(--mermaid-font-family)}#mermaid-1600758333710 .taskText:not([font-size]){font-size:11px}#mermaid-1600758333710 .taskTextOutsideRight{fill:#000;text-anchor:start;font-size:11px;font-family:'trebuchet ms', verdana, arial;font-family:var(--mermaid-font-family)}#mermaid-1600758333710 .taskTextOutsideLeft{fill:#000;text-anchor:end;font-size:11px}#mermaid-1600758333710 .task.clickable{cursor:pointer}#mermaid-1600758333710 .taskText.clickable{cursor:pointer;fill:#003163 !important;font-weight:bold}#mermaid-1600758333710 .taskTextOutsideLeft.clickable{cursor:pointer;fill:#003163 !important;font-weight:bold}#mermaid-1600758333710 .taskTextOutsideRight.clickable{cursor:pointer;fill:#003163 !important;font-weight:bold}#mermaid-1600758333710 .taskText0,#mermaid-1600758333710 .taskText1,#mermaid-1600758333710 .taskText2,#mermaid-1600758333710 .taskText3{fill:#fff}#mermaid-1600758333710 .task0,#mermaid-1600758333710 .task1,#mermaid-1600758333710 .task2,#mermaid-1600758333710 .task3{fill:#8a90dd;stroke:#534fbc}#mermaid-1600758333710 .taskTextOutside0,#mermaid-1600758333710 .taskTextOutside2{fill:#000}#mermaid-1600758333710 .taskTextOutside1,#mermaid-1600758333710 .taskTextOutside3{fill:#000}#mermaid-1600758333710 .active0,#mermaid-1600758333710 .active1,#mermaid-1600758333710 .active2,#mermaid-1600758333710 .active3{fill:#bfc7ff;stroke:#534fbc}#mermaid-1600758333710 .activeText0,#mermaid-1600758333710 .activeText1,#mermaid-1600758333710 .activeText2,#mermaid-1600758333710 .activeText3{fill:#000 !important}#mermaid-1600758333710 .done0,#mermaid-1600758333710 .done1,#mermaid-1600758333710 .done2,#mermaid-1600758333710 .done3{stroke:grey;fill:#d3d3d3;stroke-width:2}#mermaid-1600758333710 .doneText0,#mermaid-1600758333710 .doneText1,#mermaid-1600758333710 .doneText2,#mermaid-1600758333710 .doneText3{fill:#000 !important}#mermaid-1600758333710 .crit0,#mermaid-1600758333710 .crit1,#mermaid-1600758333710 .crit2,#mermaid-1600758333710 .crit3{stroke:#f88;fill:red;stroke-width:2}#mermaid-1600758333710 .activeCrit0,#mermaid-1600758333710 .activeCrit1,#mermaid-1600758333710 .activeCrit2,#mermaid-1600758333710 .activeCrit3{stroke:#f88;fill:#bfc7ff;stroke-width:2}#mermaid-1600758333710 .doneCrit0,#mermaid-1600758333710 .doneCrit1,#mermaid-1600758333710 .doneCrit2,#mermaid-1600758333710 .doneCrit3{stroke:#f88;fill:#d3d3d3;stroke-width:2;cursor:pointer;shape-rendering:crispEdges}#mermaid-1600758333710 .milestone{transform:rotate(45deg) scale(0.8, 0.8)}#mermaid-1600758333710 .milestoneText{font-style:italic}#mermaid-1600758333710 .doneCritText0,#mermaid-1600758333710 .doneCritText1,#mermaid-1600758333710 .doneCritText2,#mermaid-1600758333710 .doneCritText3{fill:#000 !important}#mermaid-1600758333710 .activeCritText0,#mermaid-1600758333710 .activeCritText1,#mermaid-1600758333710 .activeCritText2,#mermaid-1600758333710 .activeCritText3{fill:#000 !important}#mermaid-1600758333710 .titleText{text-anchor:middle;font-size:18px;fill:#000;font-family:'trebuchet ms', verdana, arial;font-family:var(--mermaid-font-family)}#mermaid-1600758333710 g.classGroup text{fill:#9370db;stroke:none;font-family:'trebuchet ms', verdana, arial;font-family:var(--mermaid-font-family);font-size:10px}#mermaid-1600758333710 g.classGroup text .title{font-weight:bolder}#mermaid-1600758333710 g.clickable{cursor:pointer}#mermaid-1600758333710 g.classGroup rect{fill:#ECECFF;stroke:#9370db}#mermaid-1600758333710 g.classGroup line{stroke:#9370db;stroke-width:1}#mermaid-1600758333710 .classLabel .box{stroke:none;stroke-width:0;fill:#ECECFF;opacity:0.5}#mermaid-1600758333710 .classLabel .label{fill:#9370db;font-size:10px}#mermaid-1600758333710 .relation{stroke:#9370db;stroke-width:1;fill:none}#mermaid-1600758333710 .dashed-line{stroke-dasharray:3}#mermaid-1600758333710 #compositionStart{fill:#9370db;stroke:#9370db;stroke-width:1}#mermaid-1600758333710 #compositionEnd{fill:#9370db;stroke:#9370db;stroke-width:1}#mermaid-1600758333710 #aggregationStart{fill:#ECECFF;stroke:#9370db;stroke-width:1}#mermaid-1600758333710 #aggregationEnd{fill:#ECECFF;stroke:#9370db;stroke-width:1}#mermaid-1600758333710 #dependencyStart{fill:#9370db;stroke:#9370db;stroke-width:1}#mermaid-1600758333710 #dependencyEnd{fill:#9370db;stroke:#9370db;stroke-width:1}#mermaid-1600758333710 #extensionStart{fill:#9370db;stroke:#9370db;stroke-width:1}#mermaid-1600758333710 #extensionEnd{fill:#9370db;stroke:#9370db;stroke-width:1}#mermaid-1600758333710 .commit-id,#mermaid-1600758333710 .commit-msg,#mermaid-1600758333710 .branch-label{fill:lightgrey;color:lightgrey;font-family:'trebuchet ms', verdana, arial;font-family:var(--mermaid-font-family)}#mermaid-1600758333710 .pieTitleText{text-anchor:middle;font-size:25px;fill:#000;font-family:'trebuchet ms', verdana, arial;font-family:var(--mermaid-font-family)}#mermaid-1600758333710 .slice{font-family:'trebuchet ms', verdana, arial;font-family:var(--mermaid-font-family)}#mermaid-1600758333710 g.stateGroup text{fill:#9370db;stroke:none;font-size:10px;font-family:'trebuchet ms', verdana, arial;font-family:var(--mermaid-font-family)}#mermaid-1600758333710 g.stateGroup text{fill:#9370db;stroke:none;font-size:10px}#mermaid-1600758333710 g.stateGroup .state-title{font-weight:bolder;fill:#000}#mermaid-1600758333710 g.stateGroup rect{fill:#ECECFF;stroke:#9370db}#mermaid-1600758333710 g.stateGroup line{stroke:#9370db;stroke-width:1}#mermaid-1600758333710 .transition{stroke:#9370db;stroke-width:1;fill:none}#mermaid-1600758333710 .stateGroup .composit{fill:white;border-bottom:1px}#mermaid-1600758333710 .stateGroup .alt-composit{fill:#e0e0e0;border-bottom:1px}#mermaid-1600758333710 .state-note{stroke:#aa3;fill:#fff5ad}#mermaid-1600758333710 .state-note text{fill:black;stroke:none;font-size:10px}#mermaid-1600758333710 .stateLabel .box{stroke:none;stroke-width:0;fill:#ECECFF;opacity:0.5}#mermaid-1600758333710 .stateLabel text{fill:#000;font-size:10px;font-weight:bold;font-family:'trebuchet ms', verdana, arial;font-family:var(--mermaid-font-family)}#mermaid-1600758333710 .node circle.state-start{fill:black;stroke:black}#mermaid-1600758333710 .node circle.state-end{fill:black;stroke:white;stroke-width:1.5}#mermaid-1600758333710 #statediagram-barbEnd{fill:#9370db}#mermaid-1600758333710 .statediagram-cluster rect{fill:#ECECFF;stroke:#9370db;stroke-width:1px}#mermaid-1600758333710 .statediagram-cluster rect.outer{rx:5px;ry:5px}#mermaid-1600758333710 .statediagram-state .divider{stroke:#9370db}#mermaid-1600758333710 .statediagram-state .title-state{rx:5px;ry:5px}#mermaid-1600758333710 .statediagram-cluster.statediagram-cluster .inner{fill:white}#mermaid-1600758333710 .statediagram-cluster.statediagram-cluster-alt .inner{fill:#e0e0e0}#mermaid-1600758333710 .statediagram-cluster .inner{rx:0;ry:0}#mermaid-1600758333710 .statediagram-state rect.basic{rx:5px;ry:5px}#mermaid-1600758333710 .statediagram-state rect.divider{stroke-dasharray:10,10;fill:#efefef}#mermaid-1600758333710 .note-edge{stroke-dasharray:5}#mermaid-1600758333710 .statediagram-note rect{fill:#fff5ad;stroke:#aa3;stroke-width:1px;rx:0;ry:0}:root{--mermaid-font-family: '"trebuchet ms", verdana, arial';--mermaid-font-family: "Comic Sans MS", "Comic Sans", cursive}

:root { --mermaid-font-family: "trebuchet ms", verdana, arial;}</style><style>#mermaid-1600758333710 {
    color: rgb(0, 0, 0);
    font: 16px "trebuchet ms", verdana, arial;
  }</style><g><defs><marker id="statediagram-barbEnd" refX="19" refY="7" markerWidth="20" markerHeight="14" markerUnits="0" orient="auto"><path d="M 19,7 L9,13 L14,7 L9,1 Z"></path></marker></defs><g class="root"><g class="clusters"><g class="note-cluster" id="0----parent"><rect x="8" y="72" width="620.09375" height="235" fill="none"></rect></g><g class="note-cluster" id="3----parent"><rect x="216.08203125" y="867.5" width="777.11328125" height="240" fill="none"></rect></g><g class="note-cluster" id="11----parent"><rect x="2170.41796875" y="867.5" width="2288.65234375" height="240" fill="none"></rect></g><g class="note-cluster" id="23----parent"><rect x="1443.06640625" y="72" width="2939.84765625" height="235" fill="none"></rect></g></g><g class="edgePaths"><path d="M278.03515625,22L278.03515625,26.166666666666668C278.03515625,30.333333333333332,278.03515625,38.666666666666664,278.03515625,47C278.03515625,55.333333333333336,278.03515625,63.666666666666664,278.03515625,73.33333333333333C278.03515625,83,278.03515625,94,278.03515625,99.5L278.03515625,105" id="edge0" class="transition" marker-end="url(#statediagram-barbEnd)"></path><path d="M289.46707589285717,139L294.23037574404765,146.08333333333334C298.99367559523813,153.16666666666666,308.52027529761904,167.33333333333334,313.2835751488095,180.16666666666666C318.046875,193,318.046875,204.5,318.046875,210.25L318.046875,216" class="transition note-edge"></path><path d="M266.60323660714283,139L261.83993675595235,146.08333333333334C257.07663690476187,153.16666666666666,247.55003720238096,167.33333333333334,503.77957589285717,184.83965998987733C760.0091145833334,202.34598664642135,1281.9947916666667,223.1919732928427,1542.9876302083333,233.61496661605338L1803.98046875,244.03795993926408" id="edge1" class="transition" marker-end="url(#statediagram-barbEnd)"></path><path d="M2052.48046875,251.96733598831636L2436.5403645833335,261.1394466569303C2820.6002604166665,270.31155732554424,3588.7200520833335,288.6557786627721,3972.7799479166665,303.5778893313861C4356.83984375,318.5,4356.83984375,330,4356.83984375,341.5C4356.83984375,353,4356.83984375,364.5,4356.83984375,370.25L4356.83984375,376" id="edge2" class="transition" marker-end="url(#statediagram-barbEnd)"></path><path d="M1803.98046875,277.7308291285118L1782.8841145833333,282.6090242737598C1761.7877604166667,287.4872194190079,1719.5950520833333,297.2436097095039,1698.4986979166667,307.87180485475193C1677.40234375,318.5,1677.40234375,330,1677.40234375,346.5416666666667C1677.40234375,363.0833333333333,1677.40234375,384.6666666666667,1677.40234375,406.25C1677.40234375,427.8333333333333,1677.40234375,449.4166666666667,1677.40234375,471C1677.40234375,492.5833333333333,1677.40234375,514.1666666666666,1677.40234375,535.75C1677.40234375,557.3333333333334,1677.40234375,578.9166666666666,1677.40234375,600.5C1677.40234375,622.0833333333334,1677.40234375,643.6666666666666,1677.40234375,665.25C1677.40234375,686.8333333333334,1677.40234375,708.4166666666666,1677.40234375,727.7916666666666C1677.40234375,747.1666666666666,1677.40234375,764.3333333333334,1677.40234375,781.5C1677.40234375,798.6666666666666,1677.40234375,815.8333333333334,1927.9596354166667,830.1666666666666C2178.5169270833335,844.5,2679.6315104166665,856,2930.1888020833335,870.9583333333334C3180.74609375,885.9166666666666,3180.74609375,904.3333333333334,3180.74609375,924.3333333333334C3180.74609375,944.3333333333334,3180.74609375,965.9166666666666,3165.498672779923,982.4583333333334C3150.251251809846,999,3119.756409869691,1010.5,3104.508988899614,1016.25L3089.261567929537,1022" id="edge3" class="transition" marker-end="url(#statediagram-barbEnd)"></path><path d="M4382.48737632722,436.5L4387.362527147683,442.25C4392.237677968146,448,4401.987979609073,459.5,4406.863130429537,476.0416666666667C4411.73828125,492.5833333333333,4411.73828125,514.1666666666666,4411.73828125,535.75C4411.73828125,557.3333333333334,4411.73828125,578.9166666666666,4411.73828125,600.5C4411.73828125,622.0833333333334,4411.73828125,643.6666666666666,4411.73828125,665.25C4411.73828125,686.8333333333334,4411.73828125,708.4166666666666,4411.73828125,727.7916666666666C4411.73828125,747.1666666666666,4411.73828125,764.3333333333334,4411.73828125,781.5C4411.73828125,798.6666666666666,4411.73828125,815.8333333333334,4407.758463541667,830.1666666666666C4403.778645833333,844.5,4395.819010416667,856,4391.839192708333,870.9583333333334C4387.859375,885.9166666666666,4387.859375,904.3333333333334,4387.859375,924.3333333333334C4387.859375,944.3333333333334,4387.859375,965.9166666666666,4172.627604166667,986.8157679275645C3957.3958333333335,1007.7148691884622,3526.9322916666665,1027.9297383769247,3311.7005208333335,1038.0371729711558L3096.46875,1048.1446075653869" id="edge4" class="transition" marker-end="url(#statediagram-barbEnd)"></path><path d="M1803.98046875,268.9569892473118L1764.5052083333333,275.2974910394265C1725.0299479166667,281.6379928315412,1646.0794270833333,294.31899641577064,1606.6041666666667,306.4094982078853C1567.12890625,318.5,1567.12890625,330,1567.12890625,346.5416666666667C1567.12890625,363.0833333333333,1567.12890625,384.6666666666667,1567.12890625,406.25C1567.12890625,427.8333333333333,1567.12890625,449.4166666666667,1959.0260416666667,470.54883124435577C2350.9231770833335,491.68099582204485,3134.7174479166665,512.3619916440896,3526.6145833333335,522.702489555112L3918.51171875,533.0429874661344" id="edge5" class="transition" marker-end="url(#statediagram-barbEnd)"></path><path d="M4242.15234375,428.36872294875974L4205.311197916667,435.4739357906331C4168.470052083333,442.57914863250653,4094.7877604166665,456.78957431625327,4057.9466145833335,469.6447871581266C4021.10546875,482.5,4021.10546875,494,4021.10546875,499.75L4021.10546875,505.5" id="edge6" class="transition" marker-end="url(#statediagram-barbEnd)"></path><path d="M4123.69921875,561.4982398897755L4149.599609375,567.9985332414795C4175.5,574.4988265931837,4227.30078125,587.4994132965918,4253.201171875,604.7913733149626C4279.1015625,622.0833333333334,4279.1015625,643.6666666666666,4279.1015625,665.25C4279.1015625,686.8333333333334,4279.1015625,708.4166666666666,4279.1015625,727.7916666666666C4279.1015625,747.1666666666666,4279.1015625,764.3333333333334,4279.1015625,781.5C4279.1015625,798.6666666666666,4279.1015625,815.8333333333334,4331.33984375,830.1666666666666C4383.578125,844.5,4488.0546875,856,4540.29296875,870.9583333333334C4592.53125,885.9166666666666,4592.53125,904.3333333333334,4592.53125,924.3333333333334C4592.53125,944.3333333333334,4592.53125,965.9166666666666,4592.53125,987.5C4592.53125,1009.0833333333334,4592.53125,1030.6666666666667,4592.53125,1050.6666666666667C4592.53125,1070.6666666666667,4592.53125,1089.0833333333333,4592.53125,1104.0416666666667C4592.53125,1119,4592.53125,1130.5,4592.53125,1147.0416666666667C4592.53125,1163.5833333333333,4592.53125,1185.1666666666667,4592.53125,1206.75C4592.53125,1228.3333333333333,4592.53125,1249.9166666666667,4592.53125,1271.5C4592.53125,1293.0833333333333,4592.53125,1314.6666666666667,4592.53125,1336.25C4592.53125,1357.8333333333333,4592.53125,1379.4166666666667,3946.1927083333335,1398.6432366473116C3299.8541666666665,1417.8698066279567,2007.1770833333333,1434.7396132559134,1360.8385416666667,1443.1745165698915L714.5,1451.6094198838698" id="edge7" class="transition" marker-end="url(#statediagram-barbEnd)"></path><path d="M4070.2087958494208,566L4079.5424861245174,571.75C4088.876176399614,577.5,4107.543556949807,589,4116.877247224903,605.5416666666666C4126.2109375,622.0833333333334,4126.2109375,643.6666666666666,4126.2109375,665.25C4126.2109375,686.8333333333334,4126.2109375,708.4166666666666,4126.2109375,727.7916666666666C4126.2109375,747.1666666666666,4126.2109375,764.3333333333334,4126.2109375,781.5C4126.2109375,798.6666666666666,4126.2109375,815.8333333333334,4126.2109375,830.1666666666666C4126.2109375,844.5,4126.2109375,856,4126.2109375,870.9583333333334C4126.2109375,885.9166666666666,4126.2109375,904.3333333333334,4126.2109375,924.3333333333334C4126.2109375,944.3333333333334,4126.2109375,965.9166666666666,3954.5872395833335,986.6555155003252C3782.9635416666665,1007.3943643339838,3439.7161458333335,1027.2887286679675,3268.0924479166665,1037.2359108349594L3096.46875,1047.1830930019512" id="edge8" class="transition" marker-end="url(#statediagram-barbEnd)"></path><path d="M3943.0295909749034,566L3928.1887216457526,571.75C3913.3478523166027,577.5,3883.666113658301,589,3868.825244329151,605.5416666666666C3853.984375,622.0833333333334,3853.984375,643.6666666666666,3853.984375,665.25C3853.984375,686.8333333333334,3853.984375,708.4166666666666,3853.984375,727.7916666666666C3853.984375,747.1666666666666,3853.984375,764.3333333333334,3853.984375,781.5C3853.984375,798.6666666666666,3853.984375,815.8333333333334,3853.984375,830.1666666666666C3853.984375,844.5,3853.984375,856,3853.984375,870.9583333333334C3853.984375,885.9166666666666,3853.984375,904.3333333333334,3853.984375,924.3333333333334C3853.984375,944.3333333333334,3853.984375,965.9166666666666,3727.7317708333335,986.3834348879354C3601.4791666666665,1006.8502031092044,3348.9739583333335,1026.2004062184087,3222.7213541666665,1035.875507773011L3096.46875,1045.550609327613" id="edge9" class="transition" marker-end="url(#statediagram-barbEnd)"></path><path d="M3918.51171875,541.1241435975224L3729.5950520833335,551.020119664602C3540.6783854166665,560.9160957316816,3162.8450520833335,580.7080478658409,2973.9283854166665,596.3540239329204C2785.01171875,612,2785.01171875,623.5,2785.01171875,629.25L2785.01171875,635" id="edge10" class="transition" marker-end="url(#statediagram-barbEnd)"></path><path d="M3918.51171875,538.7702177349175L3569.0286458333335,549.0585147790979C3219.5455729166665,559.3468118232784,2520.5794270833335,579.9234059116392,2171.0963541666665,601.0033696224863C1821.61328125,622.0833333333334,1821.61328125,643.6666666666666,1821.61328125,665.25C1821.61328125,686.8333333333334,1821.61328125,708.4166666666666,1821.61328125,727.7916666666666C1821.61328125,747.1666666666666,1821.61328125,764.3333333333334,1821.61328125,781.5C1821.61328125,798.6666666666666,1821.61328125,815.8333333333334,2061.36328125,830.1666666666666C2301.11328125,844.5,2780.61328125,856,3020.36328125,870.9583333333334C3260.11328125,885.9166666666666,3260.11328125,904.3333333333334,3260.11328125,924.3333333333334C3260.11328125,944.3333333333334,3260.11328125,965.9166666666666,3232.8391927083335,983.7423179251008C3205.5651041666665,1001.5679691835348,3151.0169270833335,1015.6359383670697,3123.7428385416665,1022.6699229588371L3096.46875,1029.7039075506045" id="edge11" class="transition" marker-end="url(#statediagram-barbEnd)"></path><path d="M2916.10546875,674.570502867339L3046.0423177083335,683.8087523894492C3175.9791666666665,693.0470019115593,3435.8528645833335,711.5235009557797,3565.7897135416665,729.3450838112232C3695.7265625,747.1666666666666,3695.7265625,764.3333333333334,3695.7265625,781.5C3695.7265625,798.6666666666666,3695.7265625,815.8333333333334,3695.7265625,830.1666666666666C3695.7265625,844.5,3695.7265625,856,3695.7265625,870.9583333333334C3695.7265625,885.9166666666666,3695.7265625,904.3333333333334,3695.7265625,924.3333333333334C3695.7265625,944.3333333333334,3695.7265625,965.9166666666666,3595.8502604166665,986.1261021673587C3495.9739583333335,1006.335537668051,3296.2213541666665,1025.171075336102,3196.3450520833335,1034.5888441701272L3096.46875,1044.0066130041528" id="edge12" class="transition" marker-end="url(#statediagram-barbEnd)"></path><path d="M2809.89453125,787.2008991954567L2935.9016927083335,794.8340826628806C3061.9088541666665,802.4672661303044,3313.9231770833335,817.7336330651523,3439.9303385416665,831.1168165325762C3565.9375,844.5,3565.9375,856,3565.9375,870.9583333333334C3565.9375,885.9166666666666,3565.9375,904.3333333333334,3565.9375,924.3333333333334C3565.9375,944.3333333333334,3565.9375,965.9166666666666,3487.6927083333335,985.8059012092814C3409.4479166666665,1005.6951357518961,3252.9583333333335,1023.8902715037925,3174.7135416666665,1032.9878393797405L3096.46875,1042.0854072556888" id="edge13" class="transition" marker-end="url(#statediagram-barbEnd)"></path><path d="M1559.15234375,932.1921919047785L1686.98046875,941.4101599206488C1814.80859375,950.628127936519,2070.46484375,969.0640639682596,2297.5436197916665,987.6922487769197C2524.6223958333335,1006.3204335855798,2723.1236979166665,1025.1408671711597,2822.3743489583335,1034.5510839639496L2921.625,1043.9613007567395" id="edge14" class="transition" marker-end="url(#statediagram-barbEnd)"></path><path d="M2752.6703517133205,695.5L2746.5228191361007,701.25C2740.375286558881,707,2728.08022140444,718.5,2721.9326888272203,730C2715.78515625,741.5,2715.78515625,753,2715.78515625,758.75L2715.78515625,764.5" id="edge15" class="transition" marker-end="url(#statediagram-barbEnd)"></path><path d="M1475.0313383766968,892.5L1481.4798913555805,888.3333333333334C1487.9284443344648,884.1666666666666,1500.8255502922323,875.8333333333334,1634.9485824377828,865.9166666666666C1769.0716145833333,856,2024.4205729166667,844.5,2209.0794270833335,832.0192886579466C2393.73828125,819.5385773158932,2507.70703125,806.0771546317865,2564.69140625,799.346443289733L2621.67578125,792.6157319476796" id="edge16" class="transition" marker-end="url(#statediagram-barbEnd)"></path><path d="M2653.91796875,677.336378552756L2558.7161458333335,686.1136487939633C2463.5143229166665,694.8909190351706,2273.1106770833335,712.4454595175853,2177.9088541666665,729.806063092126C2082.70703125,747.1666666666666,2082.70703125,764.3333333333334,2082.70703125,781.5C2082.70703125,798.6666666666666,2082.70703125,815.8333333333334,1955.0325520833333,830.1666666666666C1827.3580729166667,844.5,1572.0091145833333,856,1493.0833333333333,867.8502723513938C1414.1575520833333,879.7005447027874,1511.6549479166667,891.901089405575,1560.4036458333333,898.0013617569688L1609.15234375,904.1016341083625" id="edge17" class="transition" marker-end="url(#statediagram-barbEnd)"></path><path d="M2710.4107630461167,798.5L2708.5929535800974,804.25C2706.7751441140776,810,2703.139525182039,821.5,2577.1205438410193,833C2451.1015625,844.5,2202.69921875,856,2063.707617482089,865.9166666666666C1924.716016214178,875.8333333333334,1895.135157428356,884.1666666666666,1880.3447280354449,888.3333333333334L1865.554298642534,892.5" id="edge18" class="transition" marker-end="url(#statediagram-barbEnd)"></path><path d="M1907.19921875,904.1038109805357L1922.6558159722224,902.1698424837797C1938.1124131944446,900.2358739870239,1969.025607638889,896.367936993512,1988.3463541666667,894.4339684967559C2007.6671006944446,892.5,2015.3953993055554,892.5,2023.1236979166667,897.5416666666666C2030.8519965277776,902.5833333333334,2038.5802951388887,912.6666666666666,2038.5802951388887,922.75C2038.5802951388887,932.8333333333334,2030.8519965277776,942.9166666666666,2023.1236979166667,947.9583333333334C2015.3953993055554,953,2007.6671006944446,953,1988.3463541666667,951.0660315032441C1969.025607638889,949.132063006488,1938.1124131944446,945.2641260129761,1922.6558159722224,943.3301575162201L1907.19921875,941.3961890194643" id="edge19" class="transition" marker-end="url(#statediagram-barbEnd)"></path><path d="M1907.19921875,931.8651752767528L2058.7942708333335,941.1376460639607C2210.3893229166665,950.4101168511685,2513.5794270833335,968.9550584255843,2682.650390625,984.1125973381264C2851.7213541666665,999.2701362506687,2886.6731770833335,1011.0402725013374,2904.1490885416665,1016.9253406266718L2921.625,1022.8104087520062" id="edge20" class="transition" marker-end="url(#statediagram-barbEnd)"></path><path d="M1907.19921875,934.6158671905773L2017.89453125,943.4298893254812C2128.58984375,952.2439114603849,2349.98046875,969.8719557301924,2519.0514322916665,987.3221043470157C2688.1223958333335,1004.7722529638389,2804.8736979166665,1022.044505927678,2863.2493489583335,1030.6806324095974L2921.625,1039.3167588915169" id="edge21" class="transition" marker-end="url(#statediagram-barbEnd)"></path><path d="M1609.15234375,933.7688307662112L1488.0384114583333,942.7240256385094C1366.9244791666667,951.6792205108073,1124.6966145833333,969.5896102554037,956.9720052083334,985.7625714979172C789.2473958333334,1001.9355327404306,696.0260416666666,1016.3710654808615,649.4153645833334,1023.5888318510769L602.8046875,1030.8065982212922" id="edge22" class="transition" marker-end="url(#statediagram-barbEnd)"></path><path d="M602.8046875,1067.2850234129116L664.5364583333334,1073.9875195107597C726.2682291666666,1080.6900156086078,849.7317708333334,1094.095007804304,911.4635416666666,1106.547503902152C973.1953125,1119,973.1953125,1130.5,973.1953125,1147.0416666666667C973.1953125,1163.5833333333333,973.1953125,1185.1666666666667,973.1953125,1206.75C973.1953125,1228.3333333333333,973.1953125,1249.9166666666667,973.1953125,1271.5C973.1953125,1293.0833333333333,973.1953125,1314.6666666666667,973.1953125,1336.25C973.1953125,1357.8333333333333,973.1953125,1379.4166666666667,930.0794270833334,1397.0000537660105C886.9635416666666,1414.5834408653539,800.7317708333334,1428.166881730708,757.6158854166666,1434.958602163385L714.5,1441.750322596062" id="edge23" class="transition" marker-end="url(#statediagram-barbEnd)"></path><path d="M442.3613723133484,1082.5L439.33564880279033,1086.6666666666667C436.30992529223226,1090.8333333333333,430.2584782711162,1099.1666666666667,427.23275476055807,1109.0833333333333C424.20703125,1119,424.20703125,1130.5,424.20703125,1142C424.20703125,1153.5,424.20703125,1165,424.20703125,1170.75L424.20703125,1176.5" id="edge24" class="transition" marker-end="url(#statediagram-barbEnd)"></path><path d="M554.18359375,1227.83505005823L599.044921875,1235.1125417151918C643.90625,1242.3900333721533,733.62890625,1256.9450166860768,778.490234375,1275.014175009705C823.3515625,1293.0833333333333,823.3515625,1314.6666666666667,823.3515625,1336.25C823.3515625,1357.8333333333333,823.3515625,1379.4166666666667,803.5789593446602,1395.9583333333333C783.8063561893205,1412.5,744.2611498786408,1424,724.488546723301,1429.75L704.7159435679612,1435.5" id="edge25" class="transition" marker-end="url(#statediagram-barbEnd)"></path><path d="M414.09510738416986,1237L412.1730061534749,1242.75C410.2509049227799,1248.5,406.4067024613899,1260,404.484601230695,1271.5C402.5625,1283,402.5625,1294.5,402.5625,1300.25L402.5625,1306" id="edge26" class="transition" marker-end="url(#statediagram-barbEnd)"></path><path d="M546.03125,1365.5851013963586L574.8984375,1371.4875844969654C603.765625,1377.3900675975722,661.5,1389.1950337987862,654.8138020833334,1401.4004406479587C648.1276041666666,1413.6058474971314,577.0208333333334,1426.2116949942629,541.4674479166666,1432.5146187428284L505.9140625,1438.817542491394" id="edge27" class="transition" marker-end="url(#statediagram-barbEnd)"></path><path d="M454.9780707046332,1366.5L464.94136100386095,1372.25C474.90465130308877,1378,494.8312319015444,1389.5,469.2606680341055,1401.5494612378086C443.6901041666667,1413.5989224756167,372.6223958333333,1426.1978449512335,337.0885416666667,1432.497306189042L301.5546875,1438.7967674268502" id="edge28" class="transition" marker-end="url(#statediagram-barbEnd)"></path><path d="M350.1469292953668,1366.5L340.183638996139,1372.25C330.22034869691123,1378,310.2937680984556,1389.5,348.2718840492278,1402.1874753040347C386.25,1414.8749506080694,482.1328125,1428.749901216139,530.07421875,1435.6873765201738L578.015625,1442.6248518242087" id="edge29" class="transition" marker-end="url(#statediagram-barbEnd)"></path><path d="M3009.046875,1082.5L3009.046875,1086.6666666666667C3009.046875,1090.8333333333333,3009.046875,1099.1666666666667,3009.046875,1109.0833333333333C3009.046875,1119,3009.046875,1130.5,3009.046875,1147.0416666666667C3009.046875,1163.5833333333333,3009.046875,1185.1666666666667,3009.046875,1206.75C3009.046875,1228.3333333333333,3009.046875,1249.9166666666667,3009.046875,1271.5C3009.046875,1293.0833333333333,3009.046875,1314.6666666666667,3009.046875,1336.25C3009.046875,1357.8333333333333,3009.046875,1379.4166666666667,2626.6223958333335,1398.5437624199421C2244.1979166666665,1417.6708581732173,1479.3489583333333,1434.3417163464346,1096.9244791666667,1442.6771454330435L714.5,1451.012574519652" id="edge30" class="transition" marker-end="url(#statediagram-barbEnd)"></path><path d="M2641.1832145024273,798.5L2615.9502047936894,804.25C2590.7171950849515,810,2540.2511756674758,821.5,2387.3436867920714,833C2234.4361979166665,844.5,1979.0872395833333,856,1823.9817708333333,866.8783992474511C1668.8763020833333,877.7567984949022,1614.0143229166667,888.0135969898043,1586.5833333333333,893.1419962372555L1559.15234375,898.2703954847067" id="edge31" class="transition" marker-end="url(#statediagram-barbEnd)"></path><path d="M424.20703125,947.75L424.20703125,954.375C424.20703125,961,424.20703125,974.25,427.7699083011583,986.625C431.33278535231665,999,438.45853945463324,1010.5,442.0214165057916,1016.25L445.58429355694983,1022" class="transition note-edge"></path><path d="M2972.62109375,947.75L2972.62109375,954.375C2972.62109375,961,2972.62109375,974.25,2975.8558156370655,986.625C2979.090537524131,999,2985.5599812982623,1010.5,2988.7947031853278,1016.25L2992.0294250723937,1022" class="transition note-edge"></path><path d="M1928.23046875,147L1928.23046875,152.75C1928.23046875,158.5,1928.23046875,170,1928.23046875,181.95833333333334C1928.23046875,193.91666666666666,1928.23046875,206.33333333333334,1928.23046875,212.54166666666666L1928.23046875,218.75" class="transition note-edge"></path><path d="M428.734375,1469.5L428.734375,1473.6666666666667C428.734375,1477.8333333333333,428.734375,1486.1666666666667,412.80806463282096,1495.3181778115334C396.88175426564186,1504.4696889564002,365.02913353128366,1514.4393779128004,349.1028231641046,1519.4242223910005L333.1765127969255,1524.4090668692006" id="edge32" class="transition" marker-end="url(#statediagram-barbEnd)"></path><path d="M224.2578125,1469.5L224.2578125,1473.6666666666667C224.2578125,1477.8333333333333,224.2578125,1486.1666666666667,240.18412286717907,1495.3181778115334C256.11043323435814,1504.4696889564002,287.96305396871634,1514.4393779128004,303.8893643358954,1519.4242223910005L319.8156747030745,1524.4090668692006" id="edge33" class="transition" marker-end="url(#statediagram-barbEnd)"></path><path d="M646.2578125,1469.5L646.2578125,1473.6666666666667C646.2578125,1477.8333333333333,646.2578125,1486.1666666666667,594.1250608621336,1495.5504933452733C541.9923092242672,1504.93432002388,437.72680594853426,1515.3686400477602,385.59405431066784,1520.5858000597002L333.4613026728014,1525.8029600716404" id="edge34" class="transition" marker-end="url(#statediagram-barbEnd)"></path></g><g class="edgeLabels"><g class="edgeLabel"><g class="label" transform="translate(0, 0)"><rect rx="0" ry="0" width="0" height="0" style="fill:#e8e8e8;"></rect><text style=""></text></g></g><g class="edgeLabel"><g class="label" transform="translate(0, 0)"><rect rx="0" ry="0" width="0" height="0" style="fill:#e8e8e8;"></rect><text style=""></text></g></g><g class="edgeLabel" transform="translate(238.0234375, 181.5)"><g class="label" transform="translate(-60.0234375, -9.5)"><rect rx="0" ry="0" width="119.984375" height="19.03125" style="fill:#e8e8e8;"></rect><text style=""><tspan xml:space="preserve" dy="1em" x="0" class="row">ClientEventOpen</tspan></text></g></g><g class="edgeLabel" transform="translate(4356.83984375, 341.5)"><g class="label" transform="translate(-100.0390625, -9.5)"><rect rx="0" ry="0" width="199.953125" height="19.03125" style="fill:#e8e8e8;"></rect><text style=""><tspan xml:space="preserve" dy="1em" x="0" class="row">ClientEventFundingInitiated</tspan></text></g></g><g class="edgeLabel" transform="translate(1677.40234375, 665.25)"><g class="label" transform="translate(-107.6796875, -9.5)"><rect rx="0" ry="0" width="215.234375" height="19.03125" style="fill:#e8e8e8;"></rect><text style=""><tspan xml:space="preserve" dy="1em" x="0" class="row">ClientEventEnsureFundsFailed</tspan></text></g></g><g class="edgeLabel" transform="translate(4411.73828125, 730)"><g class="label" transform="translate(-107.6796875, -9.5)"><rect rx="0" ry="0" width="215.234375" height="19.03125" style="fill:#e8e8e8;"></rect><text style=""><tspan xml:space="preserve" dy="1em" x="0" class="row">ClientEventEnsureFundsFailed</tspan></text></g></g><g class="edgeLabel" transform="translate(1567.12890625, 406.25)"><g class="label" transform="translate(-90.2734375, -9.5)"><rect rx="0" ry="0" width="180.4375" height="19.03125" style="fill:#e8e8e8;"></rect><text style=""><tspan xml:space="preserve" dy="1em" x="0" class="row">ClientEventFundsEnsured</tspan></text></g></g><g class="edgeLabel" transform="translate(4021.10546875, 471)"><g class="label" transform="translate(-90.2734375, -9.5)"><rect rx="0" ry="0" width="180.4375" height="19.03125" style="fill:#e8e8e8;"></rect><text style=""><tspan xml:space="preserve" dy="1em" x="0" class="row">ClientEventFundsEnsured</tspan></text></g></g><g class="edgeLabel" transform="translate(4592.53125, 987.5)"><g class="label" transform="translate(-113.4609375, -9.5)"><rect rx="0" ry="0" width="226.78125" height="19.03125" style="fill:#e8e8e8;"></rect><text style=""><tspan xml:space="preserve" dy="1em" x="0" class="row">ClientEventWriteProposalFailed</tspan></text></g></g><g class="edgeLabel" transform="translate(4126.2109375, 781.5)"><g class="label" transform="translate(-113.96875, -9.5)"><rect rx="0" ry="0" width="227.796875" height="19.03125" style="fill:#e8e8e8;"></rect><text style=""><tspan xml:space="preserve" dy="1em" x="0" class="row">ClientEventReadResponseFailed</tspan></text></g></g><g class="edgeLabel" transform="translate(3853.984375, 781.5)"><g class="label" transform="translate(-138.2578125, -9.5)"><rect rx="0" ry="0" width="276.34375" height="19.03125" style="fill:#e8e8e8;"></rect><text style=""><tspan xml:space="preserve" dy="1em" x="0" class="row">ClientEventResponseVerificationFailed</tspan></text></g></g><g class="edgeLabel" transform="translate(2785.01171875, 600.5)"><g class="label" transform="translate(-113.9921875, -9.5)"><rect rx="0" ry="0" width="227.84375" height="19.03125" style="fill:#e8e8e8;"></rect><text style=""><tspan xml:space="preserve" dy="1em" x="0" class="row">ClientEventInitiateDataTransfer</tspan></text></g></g><g class="edgeLabel" transform="translate(1821.61328125, 781.5)"><g class="label" transform="translate(-118.734375, -9.5)"><rect rx="0" ry="0" width="237.328125" height="19.03125" style="fill:#e8e8e8;"></rect><text style=""><tspan xml:space="preserve" dy="1em" x="0" class="row">ClientEventUnexpectedDealState</tspan></text></g></g><g class="edgeLabel" transform="translate(3695.7265625, 833)"><g class="label" transform="translate(-109.7890625, -9.5)"><rect rx="0" ry="0" width="219.4375" height="19.03125" style="fill:#e8e8e8;"></rect><text style=""><tspan xml:space="preserve" dy="1em" x="0" class="row">ClientEventDataTransferFailed</tspan></text></g></g><g class="edgeLabel" transform="translate(3565.9375, 922.75)"><g class="label" transform="translate(-109.7890625, -9.5)"><rect rx="0" ry="0" width="219.4375" height="19.03125" style="fill:#e8e8e8;"></rect><text style=""><tspan xml:space="preserve" dy="1em" x="0" class="row">ClientEventDataTransferFailed</tspan></text></g></g><g class="edgeLabel" transform="translate(2326.12109375, 987.5)"><g class="label" transform="translate(-135.703125, -9.5)"><rect rx="0" ry="0" width="271.234375" height="19.03125" style="fill:#e8e8e8;"></rect><text style=""><tspan xml:space="preserve" dy="1em" x="0" class="row">ClientEventDataTransferRestartFailed</tspan></text></g></g><g class="edgeLabel" transform="translate(2715.78515625, 730)"><g class="label" transform="translate(-118.453125, -9.5)"><rect rx="0" ry="0" width="236.765625" height="19.03125" style="fill:#e8e8e8;"></rect><text style=""><tspan xml:space="preserve" dy="1em" x="0" class="row">ClientEventDataTransferInitiated</tspan></text></g></g><g class="edgeLabel" transform="translate(2279.76953125, 833)"><g class="label" transform="translate(-122.65625, -9.5)"><rect rx="0" ry="0" width="245.171875" height="19.03125" style="fill:#e8e8e8;"></rect><text style=""><tspan xml:space="preserve" dy="1em" x="0" class="row">ClientEventDataTransferRestarted</tspan></text></g></g><g class="edgeLabel" transform="translate(2082.70703125, 781.5)"><g class="label" transform="translate(-122.359375, -9.5)"><rect rx="0" ry="0" width="244.5625" height="19.03125" style="fill:#e8e8e8;"></rect><text style=""><tspan xml:space="preserve" dy="1em" x="0" class="row">ClientEventDataTransferComplete</tspan></text></g></g><g class="edgeLabel" transform="translate(2699.50390625, 833)"><g class="label" transform="translate(-122.359375, -9.5)"><rect rx="0" ry="0" width="244.5625" height="19.03125" style="fill:#e8e8e8;"></rect><text style=""><tspan xml:space="preserve" dy="1em" x="0" class="row">ClientEventDataTransferComplete</tspan></text></g></g><g class="edgeLabel" transform="translate(2046.30859375, 922.75)"><g class="label" transform="translate(-104.109375, -9.5)"><rect rx="0" ry="0" width="208.09375" height="19.03125" style="fill:#e8e8e8;"></rect><text style=""><tspan xml:space="preserve" dy="1em" x="0" class="row">ClientEventWaitForDealState</tspan></text></g></g><g class="edgeLabel" transform="translate(2816.76953125, 987.5)"><g class="label" transform="translate(-135.8515625, -9.5)"><rect rx="0" ry="0" width="271.546875" height="19.03125" style="fill:#e8e8e8;"></rect><text style=""><tspan xml:space="preserve" dy="1em" x="0" class="row">ClientEventResponseDealDidNotMatch</tspan></text></g></g><g class="edgeLabel" transform="translate(2571.37109375, 987.5)"><g class="label" transform="translate(-89.546875, -9.5)"><rect rx="0" ry="0" width="178.984375" height="19.03125" style="fill:#e8e8e8;"></rect><text style=""><tspan xml:space="preserve" dy="1em" x="0" class="row">ClientEventDealRejected</tspan></text></g></g><g class="edgeLabel" transform="translate(882.46875, 987.5)"><g class="label" transform="translate(-90.7265625, -9.5)"><rect rx="0" ry="0" width="181.34375" height="19.03125" style="fill:#e8e8e8;"></rect><text style=""><tspan xml:space="preserve" dy="1em" x="0" class="row">ClientEventDealAccepted</tspan></text></g></g><g class="edgeLabel" transform="translate(973.1953125, 1271.5)"><g class="label" transform="translate(-104.6796875, -9.5)"><rect rx="0" ry="0" width="209.234375" height="19.03125" style="fill:#e8e8e8;"></rect><text style=""><tspan xml:space="preserve" dy="1em" x="0" class="row">ClientEventDealPublishFailed</tspan></text></g></g><g class="edgeLabel" transform="translate(424.20703125, 1142)"><g class="label" transform="translate(-91.6328125, -9.5)"><rect rx="0" ry="0" width="183.15625" height="19.03125" style="fill:#e8e8e8;"></rect><text style=""><tspan xml:space="preserve" dy="1em" x="0" class="row">ClientEventDealPublished</tspan></text></g></g><g class="edgeLabel" transform="translate(823.3515625, 1336.25)"><g class="label" transform="translate(-115.5078125, -9.5)"><rect rx="0" ry="0" width="230.875" height="19.03125" style="fill:#e8e8e8;"></rect><text style=""><tspan xml:space="preserve" dy="1em" x="0" class="row">ClientEventDealActivationFailed</tspan></text></g></g><g class="edgeLabel" transform="translate(402.5625, 1271.5)"><g class="label" transform="translate(-91.5234375, -9.5)"><rect rx="0" ry="0" width="182.9375" height="19.03125" style="fill:#e8e8e8;"></rect><text style=""><tspan xml:space="preserve" dy="1em" x="0" class="row">ClientEventDealActivated</tspan></text></g></g><g class="edgeLabel" transform="translate(719.234375, 1401)"><g class="label" transform="translate(-84.1171875, -9.5)"><rect rx="0" ry="0" width="168.125" height="19.03125" style="fill:#e8e8e8;"></rect><text style=""><tspan xml:space="preserve" dy="1em" x="0" class="row">ClientEventDealSlashed</tspan></text></g></g><g class="edgeLabel" transform="translate(514.7578125, 1401)"><g class="label" transform="translate(-84.234375, -9.5)"><rect rx="0" ry="0" width="168.375" height="19.03125" style="fill:#e8e8e8;"></rect><text style=""><tspan xml:space="preserve" dy="1em" x="0" class="row">ClientEventDealExpired</tspan></text></g></g><g class="edgeLabel" transform="translate(290.3671875, 1401)"><g class="label" transform="translate(-120.15625, -9.5)"><rect rx="0" ry="0" width="240.15625" height="19.03125" style="fill:#e8e8e8;"></rect><text style=""><tspan xml:space="preserve" dy="1em" x="0" class="row">ClientEventDealCompletionFailed</tspan></text></g></g><g class="edgeLabel" transform="translate(3009.046875, 1271.5)"><g class="label" transform="translate(-63.3046875, -9.5)"><rect rx="0" ry="0" width="126.53125" height="19.03125" style="fill:#e8e8e8;"></rect><text style=""><tspan xml:space="preserve" dy="1em" x="0" class="row">ClientEventFailed</tspan></text></g></g><g class="edgeLabel" transform="translate(2489.78515625, 833)"><g class="label" transform="translate(-67.359375, -9.5)"><rect rx="0" ry="0" width="134.640625" height="19.03125" style="fill:#e8e8e8;"></rect><text style=""><tspan xml:space="preserve" dy="1em" x="0" class="row">ClientEventRestart</tspan></text></g></g><g class="edgeLabel"><g class="label" transform="translate(0, 0)"><rect rx="0" ry="0" width="0" height="0" style="fill:#e8e8e8;"></rect><text style=""></text></g></g><g class="edgeLabel"><g class="label" transform="translate(0, 0)"><rect rx="0" ry="0" width="0" height="0" style="fill:#e8e8e8;"></rect><text style=""></text></g></g><g class="edgeLabel"><g class="label" transform="translate(0, 0)"><rect rx="0" ry="0" width="0" height="0" style="fill:#e8e8e8;"></rect><text style=""></text></g></g><g class="edgeLabel"><g class="label" transform="translate(0, 0)"><rect rx="0" ry="0" width="0" height="0" style="fill:#e8e8e8;"></rect><text style=""></text></g></g><g class="edgeLabel"><g class="label" transform="translate(0, 0)"><rect rx="0" ry="0" width="0" height="0" style="fill:#e8e8e8;"></rect><text style=""></text></g></g><g class="edgeLabel"><g class="label" transform="translate(0, 0)"><rect rx="0" ry="0" width="0" height="0" style="fill:#e8e8e8;"></rect><text style=""></text></g></g></g><g class="nodes"><g class="node statediagram-state" id="0" transform="translate(278.03515625, 122)"><rect class="outer title-state" x="-82.921875" y="-17" width="165.84375" height="34"></rect><line class="divider" x1="-82.921875" x2="82.921875" y1="9.5" y2="9.5"></line><g class="label" transform="translate(-75.421875, -14)"><text style=""><tspan xml:space="preserve" dy="1em" x="0" class="title-row">StorageDealUnknown</tspan></text><text style="" transform="translate( 0, 26.5)"><tspan xml:space="preserve" dy="1em" x="0" class="title-row"></tspan></text></g></g><g class="node statediagram-state" id="3" transform="translate(464.328125, 1052.25)"><rect class="outer title-state" x="-138.4765625" y="-30.25" width="276.953125" height="60.5"></rect><line class="divider" x1="-138.4765625" x2="138.4765625" y1="-3.75" y2="-3.75"></line><g class="label" transform="translate(-130.9765625, -27.25)"><text style=""><tspan xml:space="preserve" dy="1em" x="0" class="title-row">StorageDealProposalAccepted</tspan></text><text style="" transform="translate( 0, 26.5)"><tspan xml:space="preserve" dy="1em" x="0" class="title-row">On entry runs ValidateDealPublished</tspan></text></g></g><g class="node statediagram-state" id="5" transform="translate(424.20703125, 1206.75)"><rect class="outer title-state" x="-129.9765625" y="-30.25" width="259.953125" height="60.5"></rect><line class="divider" x1="-129.9765625" x2="129.9765625" y1="-3.75" y2="-3.75"></line><g class="label" transform="translate(-122.4765625, -27.25)"><text style=""><tspan xml:space="preserve" dy="1em" x="0" class="title-row">StorageDealSealing</tspan></text><text style="" transform="translate( 0, 26.5)"><tspan xml:space="preserve" dy="1em" x="0" class="title-row">On entry runs VerifyDealActivated</tspan></text></g></g><g class="node statediagram-state" id="7" transform="translate(402.5625, 1336.25)"><rect class="outer title-state" x="-143.46875" y="-30.25" width="286.9375" height="60.5"></rect><line class="divider" x1="-143.46875" x2="143.46875" y1="-3.75" y2="-3.75"></line><g class="label" transform="translate(-135.96875, -27.25)"><text style=""><tspan xml:space="preserve" dy="1em" x="0" class="title-row">StorageDealActive</tspan></text><text style="" transform="translate( 0, 26.5)"><tspan xml:space="preserve" dy="1em" x="0" class="title-row">On entry runs WaitForDealCompletion</tspan></text></g></g><g class="node statediagram-state" id="8" transform="translate(224.2578125, 1452.5)"><rect class="outer title-state" x="-77.296875" y="-17" width="154.59375" height="34"></rect><line class="divider" x1="-77.296875" x2="77.296875" y1="9.5" y2="9.5"></line><g class="label" transform="translate(-69.796875, -14)"><text style=""><tspan xml:space="preserve" dy="1em" x="0" class="title-row">StorageDealExpired</tspan></text><text style="" transform="translate( 0, 26.5)"><tspan xml:space="preserve" dy="1em" x="0" class="title-row"></tspan></text></g></g><g class="node statediagram-state" id="9" transform="translate(428.734375, 1452.5)"><rect class="outer title-state" x="-77.1796875" y="-17" width="154.359375" height="34"></rect><line class="divider" x1="-77.1796875" x2="77.1796875" y1="9.5" y2="9.5"></line><g class="label" transform="translate(-69.6796875, -14)"><text style=""><tspan xml:space="preserve" dy="1em" x="0" class="title-row">StorageDealSlashed</tspan></text><text style="" transform="translate( 0, 26.5)"><tspan xml:space="preserve" dy="1em" x="0" class="title-row"></tspan></text></g></g><g class="node statediagram-state" id="11" transform="translate(3009.046875, 1052.25)"><rect class="outer title-state" x="-87.421875" y="-30.25" width="174.84375" height="60.5"></rect><line class="divider" x1="-87.421875" x2="87.421875" y1="-3.75" y2="-3.75"></line><g class="label" transform="translate(-79.921875, -27.25)"><text style=""><tspan xml:space="preserve" dy="1em" x="0" class="title-row">StorageDealFailing</tspan></text><text style="" transform="translate( 0, 26.5)"><tspan xml:space="preserve" dy="1em" x="0" class="title-row">On entry runs FailDeal</tspan></text></g></g><g class="node statediagram-state" id="12" transform="translate(4021.10546875, 535.75)"><rect class="outer title-state" x="-102.59375" y="-30.25" width="205.1875" height="60.5"></rect><line class="divider" x1="-102.59375" x2="102.59375" y1="-3.75" y2="-3.75"></line><g class="label" transform="translate(-95.09375, -27.25)"><text style=""><tspan xml:space="preserve" dy="1em" x="0" class="title-row">StorageDealFundsEnsured</tspan></text><text style="" transform="translate( 0, 26.5)"><tspan xml:space="preserve" dy="1em" x="0" class="title-row">On entry runs ProposeDeal</tspan></text></g></g><g class="node statediagram-state" id="13" transform="translate(1758.17578125, 922.75)"><rect class="outer title-state" x="-149.0234375" y="-30.25" width="298.046875" height="60.5"></rect><line class="divider" x1="-149.0234375" x2="149.0234375" y1="-3.75" y2="-3.75"></line><g class="label" transform="translate(-141.5234375, -27.25)"><text style=""><tspan xml:space="preserve" dy="1em" x="0" class="title-row">StorageDealCheckForAcceptance</tspan></text><text style="" transform="translate( 0, 26.5)"><tspan xml:space="preserve" dy="1em" x="0" class="title-row">On entry runs CheckForDealAcceptance</tspan></text></g></g><g class="node statediagram-state" id="16" transform="translate(2785.01171875, 665.25)"><rect class="outer title-state" x="-131.09375" y="-30.25" width="262.1875" height="60.5"></rect><line class="divider" x1="-131.09375" x2="131.09375" y1="-3.75" y2="-3.75"></line><g class="label" transform="translate(-123.59375, -27.25)"><text style=""><tspan xml:space="preserve" dy="1em" x="0" class="title-row">StorageDealStartDataTransfer</tspan></text><text style="" transform="translate( 0, 26.5)"><tspan xml:space="preserve" dy="1em" x="0" class="title-row">On entry runs InitiateDataTransfer</tspan></text></g></g><g class="node statediagram-state" id="17" transform="translate(2715.78515625, 781.5)"><rect class="outer title-state" x="-94.109375" y="-17" width="188.21875" height="34"></rect><line class="divider" x1="-94.109375" x2="94.109375" y1="9.5" y2="9.5"></line><g class="label" transform="translate(-86.609375, -14)"><text style=""><tspan xml:space="preserve" dy="1em" x="0" class="title-row">StorageDealTransferring</tspan></text><text style="" transform="translate( 0, 26.5)"><tspan xml:space="preserve" dy="1em" x="0" class="title-row"></tspan></text></g></g><g class="node statediagram-state" id="19" transform="translate(1428.21484375, 922.75)"><rect class="outer title-state" x="-130.9375" y="-30.25" width="261.875" height="60.5"></rect><line class="divider" x1="-130.9375" x2="130.9375" y1="-3.75" y2="-3.75"></line><g class="label" transform="translate(-123.4375, -27.25)"><text style=""><tspan xml:space="preserve" dy="1em" x="0" class="title-row">StorageDealClientTransferRestart</tspan></text><text style="" transform="translate( 0, 26.5)"><tspan xml:space="preserve" dy="1em" x="0" class="title-row">On entry runs RestartDataTransfer</tspan></text></g></g><g class="node statediagram-state" id="23" transform="translate(1928.23046875, 249)"><rect class="outer title-state" x="-124.25" y="-30.25" width="248.5" height="60.5"></rect><line class="divider" x1="-124.25" x2="124.25" y1="-3.75" y2="-3.75"></line><g class="label" transform="translate(-116.75, -27.25)"><text style=""><tspan xml:space="preserve" dy="1em" x="0" class="title-row">StorageDealEnsureClientFunds</tspan></text><text style="" transform="translate( 0, 26.5)"><tspan xml:space="preserve" dy="1em" x="0" class="title-row">On entry runs EnsureClientFunds</tspan></text></g></g><g class="node statediagram-state" id="25" transform="translate(4356.83984375, 406.25)"><rect class="outer title-state" x="-114.6875" y="-30.25" width="229.375" height="60.5"></rect><line class="divider" x1="-114.6875" x2="114.6875" y1="-3.75" y2="-3.75"></line><g class="label" transform="translate(-107.1875, -27.25)"><text style=""><tspan xml:space="preserve" dy="1em" x="0" class="title-row">StorageDealClientFunding</tspan></text><text style="" transform="translate( 0, 26.5)"><tspan xml:space="preserve" dy="1em" x="0" class="title-row">On entry runs WaitForFunding</tspan></text></g></g><g class="node statediagram-state" id="28" transform="translate(646.2578125, 1452.5)"><rect class="outer title-state" x="-68.2421875" y="-17" width="136.484375" height="34"></rect><line class="divider" x1="-68.2421875" x2="68.2421875" y1="9.5" y2="9.5"></line><g class="label" transform="translate(-60.7421875, -14)"><text style=""><tspan xml:space="preserve" dy="1em" x="0" class="title-row">StorageDealError</tspan></text><text style="" transform="translate( 0, 26.5)"><tspan xml:space="preserve" dy="1em" x="0" class="title-row"></tspan></text></g></g><g class="node default" id="root_start" transform="translate(278.03515625, 15)"><circle class="state-start" r="7" width="14" height="14"></circle></g><g class="node statediagram-note" id="0----note" transform="translate(318.046875, 249)"><rect x="-275.046875" y="-33" width="550.09375" height="66"></rect><g class="label" transform="translate(-267.546875, -25.5)"><text style=""><tspan xml:space="preserve" dy="1em" x="0" class="row">The following events are not shown cause they can trigger from any state.</tspan><tspan xml:space="preserve" dy="1em" x="0" class="row"></tspan><tspan xml:space="preserve" dy="1em" x="0" class="row">ClientEventStreamCloseError - transitions state to StorageDealError</tspan><tspan xml:space="preserve" dy="1em" x="0" class="row">ClientEventRestart - does not transition state</tspan></text></g></g><g class="node statediagram-note" id="3----note" transform="translate(424.20703125, 922.75)"><rect x="-173.125" y="-25" width="346.25" height="50"></rect><g class="label" transform="translate(-165.625, -17.5)"><text style=""><tspan xml:space="preserve" dy="1em" x="0" class="row">The following events only record in this state.</tspan><tspan xml:space="preserve" dy="1em" x="0" class="row"></tspan><tspan xml:space="preserve" dy="1em" x="0" class="row">ClientEventFundsReleased</tspan></text></g></g><g class="node statediagram-note" id="11----note" transform="translate(2972.62109375, 922.75)"><rect x="-173.125" y="-25" width="346.25" height="50"></rect><g class="label" transform="translate(-165.625, -17.5)"><text style=""><tspan xml:space="preserve" dy="1em" x="0" class="row">The following events only record in this state.</tspan><tspan xml:space="preserve" dy="1em" x="0" class="row"></tspan><tspan xml:space="preserve" dy="1em" x="0" class="row">ClientEventFundsReleased</tspan></text></g></g><g class="node statediagram-note" id="23----note" transform="translate(1928.23046875, 122)"><rect x="-173.125" y="-25" width="346.25" height="50"></rect><g class="label" transform="translate(-165.625, -17.5)"><text style=""><tspan xml:space="preserve" dy="1em" x="0" class="row">The following events only record in this state.</tspan><tspan xml:space="preserve" dy="1em" x="0" class="row"></tspan><tspan xml:space="preserve" dy="1em" x="0" class="row">ClientEventFundsReserved</tspan></text></g></g><g class="node default" id="root_end" transform="translate(326.49609375, 1526.5)"><circle class="state-start" r="7" width="14" height="14"></circle><circle class="state-end" r="5" width="10" height="10"></circle></g></g></g></g></svg>