<svg id="mermaid-1600592058073" width="4811.56640625" xmlns="http://www.w3.org/2000/svg" class="statediagram" height="1541.5" viewBox="0 0 4811.56640625 1541.5"><style>#mermaid-1600592058073 .label{font-family:'trebuchet ms', verdana, arial;font-family:var(--mermaid-font-family);color:#333}#mermaid-1600592058073 .label text{fill:#333}#mermaid-1600592058073 .node rect,#mermaid-1600592058073 .node circle,#mermaid-1600592058073 .node ellipse,#mermaid-1600592058073 .node polygon,#mermaid-1600592058073 .node path{fill:#ECECFF;stroke:#9370db;stroke-width:1px}#mermaid-1600592058073 .node .label{text-align:center}#mermaid-1600592058073 .node.clickable{cursor:pointer}#mermaid-1600592058073 .arrowheadPath{fill:#333}#mermaid-1600592058073 .edgePath .path{stroke:#333;stroke-width:1.5px}#mermaid-1600592058073 .edgeLabel{background-color:#e8e8e8;text-align:center}#mermaid-1600592058073 .edgeLabel rect{opacity:0.5}#mermaid-1600592058073 .cluster rect{fill:#ffffde;stroke:#aa3;stroke-width:1px}#mermaid-1600592058073 .cluster text{fill:#333}#mermaid-1600592058073 div.mermaidTooltip{position:absolute;text-align:center;max-width:200px;padding:2px;font-family:'trebuchet ms', verdana, arial;font-family:var(--mermaid-font-family);font-size:12px;background:#ffffde;border:1px solid #aa3;border-radius:2px;pointer-events:none;z-index:100}#mermaid-1600592058073 .actor{stroke:#ccf;fill:#ECECFF}#mermaid-1600592058073 text.actor{fill:#000;stroke:none}#mermaid-1600592058073 .actor-line{stroke:grey}#mermaid-1600592058073 .messageLine0{stroke-width:1.5;stroke-dasharray:'2 2';stroke:#333}#mermaid-1600592058073 .messageLine1{stroke-width:1.5;stroke-dasharray:'2 2';stroke:#333}#mermaid-1600592058073 #arrowhead{fill:#333}#mermaid-1600592058073 .sequenceNumber{fill:#fff}#mermaid-1600592058073 #sequencenumber{fill:#333}#mermaid-1600592058073 #crosshead path{fill:#333 !important;stroke:#333 !important}#mermaid-1600592058073 .messageText{fill:#333;stroke:none}#mermaid-1600592058073 .labelBox{stroke:#ccf;fill:#ECECFF}#mermaid-1600592058073 .labelText{fill:#000;stroke:none}#mermaid-1600592058073 .loopText{fill:#000;stroke:none}#mermaid-1600592058073 .loopLine{stroke-width:2;stroke-dasharray:'2 2';stroke:#ccf}#mermaid-1600592058073 .note{stroke:#aa3;fill:#fff5ad}#mermaid-1600592058073 .noteText{fill:black;stroke:none;font-family:'trebuchet ms', verdana, arial;font-family:var(--mermaid-font-family);font-size:14px}#mermaid-1600592058073 .activation0{fill:#f4f4f4;stroke:#666}#mermaid-1600592058073 .activation1{fill:#f4f4f4;stroke:#666}#mermaid-1600592058073 .activation2{fill:#f4f4f4;stroke:#666}#mermaid-1600592058073 .mermaid-main-font{font-family:"trebuchet ms", verdana, arial;font-family:var(--mermaid-font-family)}#mermaid-1600592058073 .section{stroke:none;opacity:0.2}#mermaid-1600592058073 .section0{fill:rgba(102,102,255,0.49)}#mermaid-1600592058073 .section2{fill:#fff400}#mermaid-1600592058073 .section1,#mermaid-1600592058073 .section3{fill:#fff;opacity:0.2}#mermaid-1600592058073 .sectionTitle0{fill:#333}#mermaid-1600592058073 .sectionTitle1{fill:#333}#mermaid-1600592058073 .sectionTitle2{fill:#333}#mermaid-1600592058073 .sectionTitle3{fill:#333}#mermaid-1600592058073 .sectionTitle{text-anchor:start;font-size:11px;text-height:14px;font-family:'trebuchet ms', verdana, arial;font-family:var(--mermaid-font-family)}#mermaid-1600592058073 .grid .tick{stroke:#d3d3d3;opacity:0.8;shape-rendering:crispEdges}#mermaid-1600592058073 .grid .tick text{font-family:'trebuchet ms', verdana, arial;font-family:var(--mermaid-font-family)}#mermaid-1600592058073 .grid path{stroke-width:0}#mermaid-1600592058073 .today{fill:none;stroke:red;stroke-width:2px}#mermaid-1600592058073 .task{stroke-width:2}#mermaid-1600592058073 .taskText{text-anchor:middle;font-family:'trebuchet ms', verdana, arial;font-family:var(--mermaid-font-family)}#mermaid-1600592058073 .taskText:not([font-size]){font-size:11px}#mermaid-1600592058073 .taskTextOutsideRight{fill:#000;text-anchor:start;font-size:11px;font-family:'trebuchet ms', verdana, arial;font-family:var(--mermaid-font-family)}#mermaid-1600592058073 .taskTextOutsideLeft{fill:#000;text-anchor:end;font-size:11px}#mermaid-1600592058073 .task.clickable{cursor:pointer}#mermaid-1600592058073 .taskText.clickable{cursor:pointer;fill:#003163 !important;font-weight:bold}#mermaid-1600592058073 .taskTextOutsideLeft.clickable{cursor:pointer;fill:#003163 !important;font-weight:bold}#mermaid-1600592058073 .taskTextOutsideRight.clickable{cursor:pointer;fill:#003163 !important;font-weight:bold}#mermaid-1600592058073 .taskText0,#mermaid-1600592058073 .taskText1,#mermaid-1600592058073 .taskText2,#mermaid-1600592058073 .taskText3{fill:#fff}#mermaid-1600592058073 .task0,#mermaid-1600592058073 .task1,#mermaid-1600592058073 .task2,#mermaid-1600592058073 .task3{fill:#8a90dd;stroke:#534fbc}#mermaid-1600592058073 .taskTextOutside0,#mermaid-1600592058073 .taskTextOutside2{fill:#000}#mermaid-1600592058073 .taskTextOutside1,#mermaid-1600592058073 .taskTextOutside3{fill:#000}#mermaid-1600592058073 .active0,#mermaid-1600592058073 .active1,#mermaid-1600592058073 .active2,#mermaid-1600592058073 .active3{fill:#bfc7ff;stroke:#534fbc}#mermaid-1600592058073 .activeText0,#mermaid-1600592058073 .activeText1,#mermaid-1600592058073 .activeText2,#mermaid-1600592058073 .activeText3{fill:#000 !important}#mermaid-1600592058073 .done0,#mermaid-1600592058073 .done1,#mermaid-1600592058073 .done2,#mermaid-1600592058073 .done3{stroke:grey;fill:#d3d3d3;stroke-width:2}#mermaid-1600592058073 .doneText0,#mermaid-1600592058073 .doneText1,#mermaid-1600592058073 .doneText2,#mermaid-1600592058073 .doneText3{fill:#000 !important}#mermaid-1600592058073 .crit0,#mermaid-1600592058073 .crit1,#mermaid-1600592058073 .crit2,#mermaid-1600592058073 .crit3{stroke:#f88;fill:red;stroke-width:2}#mermaid-1600592058073 .activeCrit0,#mermaid-1600592058073 .activeCrit1,#mermaid-1600592058073 .activeCrit2,#mermaid-1600592058073 .activeCrit3{stroke:#f88;fill:#bfc7ff;stroke-width:2}#mermaid-1600592058073 .doneCrit0,#mermaid-1600592058073 .doneCrit1,#mermaid-1600592058073 .doneCrit2,#mermaid-1600592058073 .doneCrit3{stroke:#f88;fill:#d3d3d3;stroke-width:2;cursor:pointer;shape-rendering:crispEdges}#mermaid-1600592058073 .milestone{transform:rotate(45deg) scale(0.8, 0.8)}#mermaid-1600592058073 .milestoneText{font-style:italic}#mermaid-1600592058073 .doneCritText0,#mermaid-1600592058073 .doneCritText1,#mermaid-1600592058073 .doneCritText2,#mermaid-1600592058073 .doneCritText3{fill:#000 !important}#mermaid-1600592058073 .activeCritText0,#mermaid-1600592058073 .activeCritText1,#mermaid-1600592058073 .activeCritText2,#mermaid-1600592058073 .activeCritText3{fill:#000 !important}#mermaid-1600592058073 .titleText{text-anchor:middle;font-size:18px;fill:#000;font-family:'trebuchet ms', verdana, arial;font-family:var(--mermaid-font-family)}#mermaid-1600592058073 g.classGroup text{fill:#9370db;stroke:none;font-family:'trebuchet ms', verdana, arial;font-family:var(--mermaid-font-family);font-size:10px}#mermaid-1600592058073 g.classGroup text .title{font-weight:bolder}#mermaid-1600592058073 g.clickable{cursor:pointer}#mermaid-1600592058073 g.classGroup rect{fill:#ECECFF;stroke:#9370db}#mermaid-1600592058073 g.classGroup line{stroke:#9370db;stroke-width:1}#mermaid-1600592058073 .classLabel .box{stroke:none;stroke-width:0;fill:#ECECFF;opacity:0.5}#mermaid-1600592058073 .classLabel .label{fill:#9370db;font-size:10px}#mermaid-1600592058073 .relation{stroke:#9370db;stroke-width:1;fill:none}#mermaid-1600592058073 .dashed-line{stroke-dasharray:3}#mermaid-1600592058073 #compositionStart{fill:#9370db;stroke:#9370db;stroke-width:1}#mermaid-1600592058073 #compositionEnd{fill:#9370db;stroke:#9370db;stroke-width:1}#mermaid-1600592058073 #aggregationStart{fill:#ECECFF;stroke:#9370db;stroke-width:1}#mermaid-1600592058073 #aggregationEnd{fill:#ECECFF;stroke:#9370db;stroke-width:1}#mermaid-1600592058073 #dependencyStart{fill:#9370db;stroke:#9370db;stroke-width:1}#mermaid-1600592058073 #dependencyEnd{fill:#9370db;stroke:#9370db;stroke-width:1}#mermaid-1600592058073 #extensionStart{fill:#9370db;stroke:#9370db;stroke-width:1}#mermaid-1600592058073 #extensionEnd{fill:#9370db;stroke:#9370db;stroke-width:1}#mermaid-1600592058073 .commit-id,#mermaid-1600592058073 .commit-msg,#mermaid-1600592058073 .branch-label{fill:lightgrey;color:lightgrey;font-family:'trebuchet ms', verdana, arial;font-family:var(--mermaid-font-family)}#mermaid-1600592058073 .pieTitleText{text-anchor:middle;font-size:25px;fill:#000;font-family:'trebuchet ms', verdana, arial;font-family:var(--mermaid-font-family)}#mermaid-1600592058073 .slice{font-family:'trebuchet ms', verdana, arial;font-family:var(--mermaid-font-family)}#mermaid-1600592058073 g.stateGroup text{fill:#9370db;stroke:none;font-size:10px;font-family:'trebuchet ms', verdana, arial;font-family:var(--mermaid-font-family)}#mermaid-1600592058073 g.stateGroup text{fill:#9370db;stroke:none;font-size:10px}#mermaid-1600592058073 g.stateGroup .state-title{font-weight:bolder;fill:#000}#mermaid-1600592058073 g.stateGroup rect{fill:#ECECFF;stroke:#9370db}#mermaid-1600592058073 g.stateGroup line{stroke:#9370db;stroke-width:1}#mermaid-1600592058073 .transition{stroke:#9370db;stroke-width:1;fill:none}#mermaid-1600592058073 .stateGroup .composit{fill:white;border-bottom:1px}#mermaid-1600592058073 .stateGroup .alt-composit{fill:#e0e0e0;border-bottom:1px}#mermaid-1600592058073 .state-note{stroke:#aa3;fill:#fff5ad}#mermaid-1600592058073 .state-note text{fill:black;stroke:none;font-size:10px}#mermaid-1600592058073 .stateLabel .box{stroke:none;stroke-width:0;fill:#ECECFF;opacity:0.5}#mermaid-1600592058073 .stateLabel text{fill:#000;font-size:10px;font-weight:bold;font-family:'trebuchet ms', verdana, arial;font-family:var(--mermaid-font-family)}#mermaid-1600592058073 .node circle.state-start{fill:black;stroke:black}#mermaid-1600592058073 .node circle.state-end{fill:black;stroke:white;stroke-width:1.5}#mermaid-1600592058073 #statediagram-barbEnd{fill:#9370db}#mermaid-1600592058073 .statediagram-cluster rect{fill:#ECECFF;stroke:#9370db;stroke-width:1px}#mermaid-1600592058073 .statediagram-cluster rect.outer{rx:5px;ry:5px}#mermaid-1600592058073 .statediagram-state .divider{stroke:#9370db}#mermaid-1600592058073 .statediagram-state .title-state{rx:5px;ry:5px}#mermaid-1600592058073 .statediagram-cluster.statediagram-cluster .inner{fill:white}#mermaid-1600592058073 .statediagram-cluster.statediagram-cluster-alt .inner{fill:#e0e0e0}#mermaid-1600592058073 .statediagram-cluster .inner{rx:0;ry:0}#mermaid-1600592058073 .statediagram-state rect.basic{rx:5px;ry:5px}#mermaid-1600592058073 .statediagram-state rect.divider{stroke-dasharray:10,10;fill:#efefef}#mermaid-1600592058073 .note-edge{stroke-dasharray:5}#mermaid-1600592058073 .statediagram-note rect{fill:#fff5ad;stroke:#aa3;stroke-width:1px;rx:0;ry:0}:root{--mermaid-font-family: '"trebuchet ms", verdana, arial';--mermaid-font-family: "Comic Sans MS", "Comic Sans", cursive}

:root { --mermaid-font-family: "trebuchet ms", verdana, arial;}</style><style>#mermaid-1600592058073 {
    color: rgb(0, 0, 0);
    font: 16px "trebuchet ms", verdana, arial;
  }</style><g><defs><marker id="statediagram-barbEnd" refX="19" refY="7" markerWidth="20" markerHeight="14" markerUnits="0" orient="auto"><path d="M 19,7 L9,13 L14,7 L9,1 Z"></path></marker></defs><g class="root"><g class="clusters"><g class="note-cluster" id="0----parent"><rect x="8" y="72" width="620.09375" height="235" fill="none"></rect></g><g class="note-cluster" id="3----parent"><rect x="216.08203125" y="867.5" width="777.11328125" height="240" fill="none"></rect></g><g class="note-cluster" id="11----parent"><rect x="2307.0625" y="867.5" width="2249.58203125" height="240" fill="none"></rect></g><g class="note-cluster" id="22----parent"><rect x="1364.765625" y="72" width="3145.05859375" height="235" fill="none"></rect></g></g><g class="edgePaths"><path d="M278.03515625,22L278.03515625,26.166666666666668C278.03515625,30.333333333333332,278.03515625,38.666666666666664,278.03515625,47C278.03515625,55.333333333333336,278.03515625,63.666666666666664,278.03515625,73.33333333333333C278.03515625,83,278.03515625,94,278.03515625,99.5L278.03515625,105" id="edge0" class="transition" marker-end="url(#statediagram-barbEnd)"></path><path d="M289.46707589285717,139L294.23037574404765,146.08333333333334C298.99367559523813,153.16666666666666,308.52027529761904,167.33333333333334,313.2835751488095,180.16666666666666C318.046875,193,318.046875,204.5,318.046875,210.25L318.046875,216" class="transition note-edge"></path><path d="M266.60323660714283,139L261.83993675595235,146.08333333333334C257.07663690476187,153.16666666666666,247.55003720238096,167.33333333333334,495.16369047619054,184.81356779407125C742.77734375,202.29380225480918,1247.53125,223.08760450961836,1499.908203125,233.48450563702295L1752.28515625,243.8814067644275" id="edge1" class="transition" marker-end="url(#statediagram-barbEnd)"></path><path d="M2000.78515625,251.7925574749181L2410.1783854166665,260.9937978957651C2819.5716145833335,270.19503831661206,3638.3580729166665,288.59751915830606,4047.7513020833335,303.548759579153C4457.14453125,318.5,4457.14453125,330,4457.14453125,341.5C4457.14453125,353,4457.14453125,364.5,4457.14453125,370.25L4457.14453125,376" id="edge2" class="transition" marker-end="url(#statediagram-barbEnd)"></path><path d="M1752.28515625,274.97558537375215L1726.7545572916667,280.3129878114601C1701.2239583333333,285.6503902491681,1650.1627604166667,296.32519512458407,1624.6321614583333,307.41259756229204C1599.1015625,318.5,1599.1015625,330,1599.1015625,346.5416666666667C1599.1015625,363.0833333333333,1599.1015625,384.6666666666667,1599.1015625,406.25C1599.1015625,427.8333333333333,1599.1015625,449.4166666666667,1599.1015625,471C1599.1015625,492.5833333333333,1599.1015625,514.1666666666666,1599.1015625,535.75C1599.1015625,557.3333333333334,1599.1015625,578.9166666666666,1599.1015625,600.5C1599.1015625,622.0833333333334,1599.1015625,643.6666666666666,1599.1015625,665.25C1599.1015625,686.8333333333334,1599.1015625,708.4166666666666,1599.1015625,727.7916666666666C1599.1015625,747.1666666666666,1599.1015625,764.3333333333334,1599.1015625,781.5C1599.1015625,798.6666666666666,1599.1015625,815.8333333333334,1862.4518229166667,830.1666666666666C2125.8020833333335,844.5,2652.5026041666665,856,2915.8528645833335,870.9583333333334C3179.203125,885.9166666666666,3179.203125,904.3333333333334,3179.203125,924.3333333333334C3179.203125,944.3333333333334,3179.203125,965.9166666666666,3160.267578125,982.8071504906247C3141.33203125,999.6976343145828,3103.4609375,1011.8952686291655,3084.525390625,1017.9940857864568L3065.58984375,1024.0929029437482" id="edge3" class="transition" marker-end="url(#statediagram-barbEnd)"></path><path d="M4481.516439430502,436.5L4486.149116192085,442.25C4490.781792953668,448,4500.047146476834,459.5,4504.679823238417,476.0416666666667C4509.3125,492.5833333333333,4509.3125,514.1666666666666,4509.3125,535.75C4509.3125,557.3333333333334,4509.3125,578.9166666666666,4509.3125,600.5C4509.3125,622.0833333333334,4509.3125,643.6666666666666,4509.3125,665.25C4509.3125,686.8333333333334,4509.3125,708.4166666666666,4509.3125,727.7916666666666C4509.3125,747.1666666666666,4509.3125,764.3333333333334,4509.3125,781.5C4509.3125,798.6666666666666,4509.3125,815.8333333333334,4505.332682291667,830.1666666666666C4501.352864583333,844.5,4493.393229166667,856,4489.413411458333,870.9583333333334C4485.43359375,885.9166666666666,4485.43359375,904.3333333333334,4485.43359375,924.3333333333334C4485.43359375,944.3333333333334,4485.43359375,965.9166666666666,4248.79296875,986.8740799771937C4012.15234375,1007.831493287721,3538.87109375,1028.162986575442,3302.23046875,1038.3287332193022L3065.58984375,1048.4944798631627" id="edge4" class="transition" marker-end="url(#statediagram-barbEnd)"></path><path d="M1752.28515625,267.58748853938926L1708.3756510416667,274.156240449491C1664.4661458333333,280.7249923595928,1576.6471354166667,293.86249617979644,1532.7376302083333,306.1812480898982C1488.828125,318.5,1488.828125,330,1488.828125,346.5416666666667C1488.828125,363.0833333333333,1488.828125,384.6666666666667,1488.828125,406.25C1488.828125,427.8333333333333,1488.828125,449.4166666666667,1910.4928385416667,470.57944043568597C2332.1575520833335,491.7422142047053,3175.4869791666665,512.4844284094107,3597.1516927083335,522.8555355117634L4018.81640625,533.226642614116" id="edge5" class="transition" marker-end="url(#statediagram-barbEnd)"></path><path d="M4342.45703125,428.36872294875974L4305.615885416667,435.4739357906331C4268.774739583333,442.57914863250653,4195.092447916667,456.78957431625327,4158.251302083333,469.6447871581266C4121.41015625,482.5,4121.41015625,494,4121.41015625,499.75L4121.41015625,505.5" id="edge6" class="transition" marker-end="url(#statediagram-barbEnd)"></path><path d="M4224.00390625,561.7736579543367L4249.44921875,568.2280482952806C4274.89453125,574.6824386362244,4325.78515625,587.5912193181122,4351.23046875,604.8372763257228C4376.67578125,622.0833333333334,4376.67578125,643.6666666666666,4376.67578125,665.25C4376.67578125,686.8333333333334,4376.67578125,708.4166666666666,4376.67578125,727.7916666666666C4376.67578125,747.1666666666666,4376.67578125,764.3333333333334,4376.67578125,781.5C4376.67578125,798.6666666666666,4376.67578125,815.8333333333334,4428.9140625,830.1666666666666C4481.15234375,844.5,4585.62890625,856,4637.8671875,870.9583333333334C4690.10546875,885.9166666666666,4690.10546875,904.3333333333334,4690.10546875,924.3333333333334C4690.10546875,944.3333333333334,4690.10546875,965.9166666666666,4690.10546875,987.5C4690.10546875,1009.0833333333334,4690.10546875,1030.6666666666667,4690.10546875,1050.6666666666667C4690.10546875,1070.6666666666667,4690.10546875,1089.0833333333333,4690.10546875,1104.0416666666667C4690.10546875,1119,4690.10546875,1130.5,4690.10546875,1147.0416666666667C4690.10546875,1163.5833333333333,4690.10546875,1185.1666666666667,4690.10546875,1206.75C4690.10546875,1228.3333333333333,4690.10546875,1249.9166666666667,4690.10546875,1271.5C4690.10546875,1293.0833333333333,4690.10546875,1314.6666666666667,4690.10546875,1336.25C4690.10546875,1357.8333333333333,4690.10546875,1379.4166666666667,4027.5045572916665,1398.6468181232742C3364.9036458333335,1417.876969579882,2039.7018229166667,1434.7539391597638,1377.1009114583333,1443.192423949705L714.5,1451.630908739646" id="edge7" class="transition" marker-end="url(#statediagram-barbEnd)"></path><path d="M4169.2378589527025,566L4178.329075168919,571.75C4187.420291385135,577.5,4205.6027238175675,589,4214.693940033784,605.5416666666666C4223.78515625,622.0833333333334,4223.78515625,643.6666666666666,4223.78515625,665.25C4223.78515625,686.8333333333334,4223.78515625,708.4166666666666,4223.78515625,727.7916666666666C4223.78515625,747.1666666666666,4223.78515625,764.3333333333334,4223.78515625,781.5C4223.78515625,798.6666666666666,4223.78515625,815.8333333333334,4223.78515625,830.1666666666666C4223.78515625,844.5,4223.78515625,856,4223.78515625,870.9583333333334C4223.78515625,885.9166666666666,4223.78515625,904.3333333333334,4223.78515625,924.3333333333334C4223.78515625,944.3333333333334,4223.78515625,965.9166666666666,4030.7526041666665,986.7426021864161C3837.7200520833335,1007.5685377061656,3451.6549479166665,1027.6370754123311,3258.6223958333335,1037.6713442654138L3065.58984375,1047.7056131184968" id="edge8" class="transition" marker-end="url(#statediagram-barbEnd)"></path><path d="M4042.058654078185,566L4026.975310690154,571.75C4011.8919673021232,577.5,3981.7252805260614,589,3966.6419371380307,605.5416666666666C3951.55859375,622.0833333333334,3951.55859375,643.6666666666666,3951.55859375,665.25C3951.55859375,686.8333333333334,3951.55859375,708.4166666666666,3951.55859375,727.7916666666666C3951.55859375,747.1666666666666,3951.55859375,764.3333333333334,3951.55859375,781.5C3951.55859375,798.6666666666666,3951.55859375,815.8333333333334,3951.55859375,830.1666666666666C3951.55859375,844.5,3951.55859375,856,3951.55859375,870.9583333333334C3951.55859375,885.9166666666666,3951.55859375,904.3333333333334,3951.55859375,924.3333333333334C3951.55859375,944.3333333333334,3951.55859375,965.9166666666666,3803.8971354166665,986.5307819798705C3656.2356770833335,1007.1448972930745,3360.9127604166665,1026.7897945861491,3213.2513020833335,1036.6122432326863L3065.58984375,1046.4346918792237" id="edge9" class="transition" marker-end="url(#statediagram-barbEnd)"></path><path d="M4018.81640625,540.7719826949768L3815.453125,550.7266522458141C3612.08984375,560.6813217966512,3205.36328125,580.5906608983256,3002,596.2953304491629C2798.63671875,612,2798.63671875,623.5,2798.63671875,629.25L2798.63671875,635" id="edge10" class="transition" marker-end="url(#statediagram-barbEnd)"></path><path d="M4018.81640625,538.5433862577263L3639.5657552083335,548.8694885481053C3260.3151041666665,559.1955908384842,2501.8138020833335,579.8477954192421,2122.5631510416665,600.9655643762877C1743.3125,622.0833333333334,1743.3125,643.6666666666666,1743.3125,665.25C1743.3125,686.8333333333334,1743.3125,708.4166666666666,1743.3125,727.7916666666666C1743.3125,747.1666666666666,1743.3125,764.3333333333334,1743.3125,781.5C1743.3125,798.6666666666666,1743.3125,815.8333333333334,1995.85546875,830.1666666666666C2248.3984375,844.5,2753.484375,856,3006.02734375,870.9583333333334C3258.5703125,885.9166666666666,3258.5703125,904.3333333333334,3258.5703125,924.3333333333334C3258.5703125,944.3333333333334,3258.5703125,965.9166666666666,3226.4069010416665,984.135449897608C3194.2434895833335,1002.3542331285495,3129.9166666666665,1017.2084662570988,3097.7532552083335,1024.6355828213736L3065.58984375,1032.0626993856483" id="edge11" class="transition" marker-end="url(#statediagram-barbEnd)"></path><path d="M2929.73046875,673.7838564370822L3073.6588541666665,683.1532136975685C3217.5872395833335,692.5225709580549,3505.4440104166665,711.2612854790274,3649.3723958333335,729.213976072847C3793.30078125,747.1666666666666,3793.30078125,764.3333333333334,3793.30078125,781.5C3793.30078125,798.6666666666666,3793.30078125,815.8333333333334,3793.30078125,830.1666666666666C3793.30078125,844.5,3793.30078125,856,3793.30078125,870.9583333333334C3793.30078125,885.9166666666666,3793.30078125,904.3333333333334,3793.30078125,924.3333333333334C3793.30078125,944.3333333333334,3793.30078125,965.9166666666666,3672.015625,986.342608566472C3550.73046875,1006.7685504662776,3308.16015625,1026.0371009325552,3186.875,1035.6713761656938L3065.58984375,1045.3056513988327" id="edge12" class="transition" marker-end="url(#statediagram-barbEnd)"></path><path d="M2823.51953125,786.6885501610003L2963.5182291666665,794.4071251341669C3103.5169270833335,802.1257001073336,3383.5143229166665,817.5628500536668,3523.5130208333335,831.0314250268334C3663.51171875,844.5,3663.51171875,856,3663.51171875,870.9583333333334C3663.51171875,885.9166666666666,3663.51171875,904.3333333333334,3663.51171875,924.3333333333334C3663.51171875,944.3333333333334,3663.51171875,965.9166666666666,3563.8580729166665,986.1234240344717C3464.2044270833335,1006.3301814022767,3264.8971354166665,1025.1603628045536,3165.2434895833335,1034.575453505692L3065.58984375,1043.9905442068305" id="edge13" class="transition" marker-end="url(#statediagram-barbEnd)"></path><path d="M1695.796875,933.1868762405945L1814.0989583333333,942.2390635338288C1932.4010416666667,951.291250827063,2169.0052083333335,969.3956254135315,2368.1634114583335,987.5917393086193C2567.3216145833335,1005.787853203707,2729.0338541666665,1024.0757064074137,2809.8899739583335,1033.2196330092672L2890.74609375,1042.3635596111205" id="edge14" class="transition" marker-end="url(#statediagram-barbEnd)"></path><path d="M2766.2953517133205,695.5L2760.1478191361007,701.25C2754.000286558881,707,2741.70522140444,718.5,2735.5576888272203,730C2729.41015625,741.5,2729.41015625,753,2729.41015625,758.75L2729.41015625,764.5" id="edge15" class="transition" marker-end="url(#statediagram-barbEnd)"></path><path d="M1677.3507671097286,892.5L1693.5976444664404,888.3333333333334C1709.8445218231525,884.1666666666666,1742.3382765365761,875.8333333333334,1873.2095028516214,865.9166666666666C2004.0807291666667,856,2233.3294270833335,844.5,2377.7457018608416,833C2522.1619766383496,821.5,2581.745828276699,810,2611.537754095874,804.25L2641.3296799150485,798.5" id="edge16" class="transition" marker-end="url(#statediagram-barbEnd)"></path><path d="M1534.390430571267,892.5L1530.9458015177224,888.3333333333334C1527.501172464178,884.1666666666666,1520.6119143570888,875.8333333333334,1631.791634261878,865.9166666666666C1742.9713541666667,856,1972.2200520833333,844.5,2159.1497395833335,831.6967079285452C2346.0794270833335,818.8934158570904,2490.6901041666665,804.7868317141807,2562.9954427083335,797.7335396427258L2635.30078125,790.680247571271" id="edge17" class="transition" marker-end="url(#statediagram-barbEnd)"></path><path d="M2667.54296875,675.9374775603351L2557.0201822916665,684.947897966946C2446.4973958333335,693.9583183735567,2225.4518229166665,711.9791591867784,2114.9290364583335,729.5729129267226C2004.40625,747.1666666666666,2004.40625,764.3333333333334,2004.40625,781.5C2004.40625,798.6666666666666,2004.40625,815.8333333333334,1889.7819010416667,830.1666666666666C1775.1575520833333,844.5,1545.9088541666667,856,1502.8072916666667,868.584843095127C1459.7057291666667,881.1696861902542,1602.7513020833333,894.8393723805084,1674.2740885416667,901.6742154756354L1745.796875,908.5090585707626" id="edge18" class="transition" marker-end="url(#statediagram-barbEnd)"></path><path d="M2778.4953352548546,798.5L2795.097675212379,804.25C2811.700015169903,810,2844.9046950849515,821.5,2730.3123735841423,833C2615.7200520833335,844.5,2353.3307291666665,856,2207.345638315422,865.9166666666666C2061.3605474641777,875.8333333333334,2031.779688678356,884.1666666666666,2016.9892592854449,888.3333333333334L2002.198829892534,892.5" id="edge19" class="transition" marker-end="url(#statediagram-barbEnd)"></path><path d="M2043.84375,904.1038109805357L2059.300347222222,902.1698424837797C2074.756944444445,900.2358739870239,2105.670138888889,896.367936993512,2124.9908854166665,894.4339684967559C2144.311631944445,892.5,2152.039930555555,892.5,2159.7682291666665,897.5416666666666C2167.496527777778,902.5833333333334,2175.2248263888887,912.6666666666666,2175.2248263888887,922.75C2175.2248263888887,932.8333333333334,2167.496527777778,942.9166666666666,2159.7682291666665,947.9583333333334C2152.039930555555,953,2144.311631944445,953,2124.9908854166665,951.0660315032441C2105.670138888889,949.132063006488,2074.756944444445,945.2641260129761,2059.300347222222,943.3301575162201L2043.84375,941.3961890194643" id="edge20" class="transition" marker-end="url(#statediagram-barbEnd)"></path><path d="M2043.84375,933.2337049706312L2172.4075520833335,942.2780874755259C2300.9713541666665,951.3224699804208,2558.0989583333335,969.4112349902103,2701.1324605855857,984.2056174951052C2844.165962837838,999,2873.1053631756754,1010.5,2887.5750633445946,1016.25L2902.0447635135133,1022" id="edge21" class="transition" marker-end="url(#statediagram-barbEnd)"></path><path d="M2043.84375,937.0450457749332L2131.5078125,945.4542048124443C2219.171875,953.8633638499555,2394.5,970.6816819249776,2535.650390625,987.572109198008C2676.80078125,1004.4625364710383,2783.7734375,1021.4250729420768,2837.259765625,1029.906341177596L2890.74609375,1038.3876094131151" id="edge22" class="transition" marker-end="url(#statediagram-barbEnd)"></path><path d="M1745.796875,932.281538188469L1601.9088541666667,941.4846151570574C1458.0208333333333,950.6876921256459,1170.2447916666667,969.093846062823,979.291015625,985.5378756532369C788.3372395833334,1001.9819052436509,694.2057291666666,1016.4638104873015,647.1399739583334,1023.7047631091269L600.07421875,1030.9457157309523" id="edge23" class="transition" marker-end="url(#statediagram-barbEnd)"></path><path d="M600.07421875,1067.204779375272L662.2610677083334,1073.9206494793932C724.4479166666666,1080.6365195835147,848.8216145833334,1094.0682597917573,911.0084635416666,1106.5341298958786C973.1953125,1119,973.1953125,1130.5,973.1953125,1147.0416666666667C973.1953125,1163.5833333333333,973.1953125,1185.1666666666667,973.1953125,1206.75C973.1953125,1228.3333333333333,973.1953125,1249.9166666666667,973.1953125,1271.5C973.1953125,1293.0833333333333,973.1953125,1314.6666666666667,973.1953125,1336.25C973.1953125,1357.8333333333333,973.1953125,1379.4166666666667,930.0794270833334,1397.0000537660105C886.9635416666666,1414.5834408653539,800.7317708333334,1428.166881730708,757.6158854166666,1434.958602163385L714.5,1441.750322596062" id="edge24" class="transition" marker-end="url(#statediagram-barbEnd)"></path><path d="M441.12586609162895,1082.5L438.30606028469083,1086.6666666666667C435.48625447775265,1090.8333333333333,429.8466428638763,1099.1666666666667,427.0268370569382,1109.0833333333333C424.20703125,1119,424.20703125,1130.5,424.20703125,1142C424.20703125,1153.5,424.20703125,1165,424.20703125,1170.75L424.20703125,1176.5" id="edge25" class="transition" marker-end="url(#statediagram-barbEnd)"></path><path d="M554.18359375,1227.83505005823L599.044921875,1235.1125417151918C643.90625,1242.3900333721533,733.62890625,1256.9450166860768,778.490234375,1275.014175009705C823.3515625,1293.0833333333333,823.3515625,1314.6666666666667,823.3515625,1336.25C823.3515625,1357.8333333333333,823.3515625,1379.4166666666667,803.5789593446602,1395.9583333333333C783.8063561893205,1412.5,744.2611498786408,1424,724.488546723301,1429.75L704.7159435679612,1435.5" id="edge26" class="transition" marker-end="url(#statediagram-barbEnd)"></path><path d="M414.09510738416986,1237L412.1730061534749,1242.75C410.2509049227799,1248.5,406.4067024613899,1260,404.484601230695,1271.5C402.5625,1283,402.5625,1294.5,402.5625,1300.25L402.5625,1306" id="edge27" class="transition" marker-end="url(#statediagram-barbEnd)"></path><path d="M546.03125,1365.5851013963586L574.8984375,1371.4875844969654C603.765625,1377.3900675975722,661.5,1389.1950337987862,654.8138020833334,1401.4004406479587C648.1276041666666,1413.6058474971314,577.0208333333334,1426.2116949942629,541.4674479166666,1432.5146187428284L505.9140625,1438.817542491394" id="edge28" class="transition" marker-end="url(#statediagram-barbEnd)"></path><path d="M454.9780707046332,1366.5L464.94136100386095,1372.25C474.90465130308877,1378,494.8312319015444,1389.5,469.2606680341055,1401.5494612378086C443.6901041666667,1413.5989224756167,372.6223958333333,1426.1978449512335,337.0885416666667,1432.497306189042L301.5546875,1438.7967674268502" id="edge29" class="transition" marker-end="url(#statediagram-barbEnd)"></path><path d="M350.1469292953668,1366.5L340.183638996139,1372.25C330.22034869691123,1378,310.2937680984556,1389.5,348.2718840492278,1402.1874753040347C386.25,1414.8749506080694,482.1328125,1428.749901216139,530.07421875,1435.6873765201738L578.015625,1442.6248518242087" id="edge30" class="transition" marker-end="url(#statediagram-barbEnd)"></path><path d="M2978.16796875,1082.5L2978.16796875,1086.6666666666667C2978.16796875,1090.8333333333333,2978.16796875,1099.1666666666667,2978.16796875,1109.0833333333333C2978.16796875,1119,2978.16796875,1130.5,2978.16796875,1147.0416666666667C2978.16796875,1163.5833333333333,2978.16796875,1185.1666666666667,2978.16796875,1206.75C2978.16796875,1228.3333333333333,2978.16796875,1249.9166666666667,2978.16796875,1271.5C2978.16796875,1293.0833333333333,2978.16796875,1314.6666666666667,2978.16796875,1336.25C2978.16796875,1357.8333333333333,2978.16796875,1379.4166666666667,2600.8899739583335,1398.5404796982757C2223.6119791666665,1417.6642927298847,1469.0559895833333,1434.3285854597698,1091.7779947916667,1442.6607318247122L714.5,1450.9928781896547" id="edge31" class="transition" marker-end="url(#statediagram-barbEnd)"></path><path d="M2709.267786711165,798.5L2702.454926425971,804.25C2695.642066140777,810,2682.0163455703882,821.5,2549.3434592435274,833C2416.6705729166665,844.5,2164.9505208333335,856,2002.8515625,867.4086200012512C1840.7526041666667,878.8172400025023,1768.2747395833333,890.1344800050047,1732.0358072916667,895.7931000062558L1695.796875,901.4517200075071" id="edge32" class="transition" marker-end="url(#statediagram-barbEnd)"></path><path d="M424.20703125,947.75L424.20703125,954.375C424.20703125,961,424.20703125,974.25,427.52743424227793,986.625C430.847837234556,999,437.48864321911196,1010.5,440.8090462113899,1016.25L444.12944920366795,1022" class="transition note-edge"></path><path d="M2971.078125,947.75L2971.078125,954.375C2971.078125,961,2971.078125,974.25,2971.7077250241314,986.625C2972.3373250482623,999,2973.596525096525,1010.5,2974.2261251206564,1016.25L2974.855725144788,1022" class="transition note-edge"></path><path d="M1876.53515625,147L1876.53515625,152.75C1876.53515625,158.5,1876.53515625,170,1876.53515625,181.95833333333334C1876.53515625,193.91666666666666,1876.53515625,206.33333333333334,1876.53515625,212.54166666666666L1876.53515625,218.75" class="transition note-edge"></path><path d="M428.734375,1469.5L428.734375,1473.6666666666667C428.734375,1477.8333333333333,428.734375,1486.1666666666667,412.80806463282096,1495.3181778115334C396.88175426564186,1504.4696889564002,365.02913353128366,1514.4393779128004,349.1028231641046,1519.4242223910005L333.1765127969255,1524.4090668692006" id="edge33" class="transition" marker-end="url(#statediagram-barbEnd)"></path><path d="M224.2578125,1469.5L224.2578125,1473.6666666666667C224.2578125,1477.8333333333333,224.2578125,1486.1666666666667,240.18412286717907,1495.3181778115334C256.11043323435814,1504.4696889564002,287.96305396871634,1514.4393779128004,303.8893643358954,1519.4242223910005L319.8156747030745,1524.4090668692006" id="edge34" class="transition" marker-end="url(#statediagram-barbEnd)"></path><path d="M646.2578125,1469.5L646.2578125,1473.6666666666667C646.2578125,1477.8333333333333,646.2578125,1486.1666666666667,594.1250608621336,1495.5504933452733C541.9923092242672,1504.93432002388,437.72680594853426,1515.3686400477602,385.59405431066784,1520.5858000597002L333.4613026728014,1525.8029600716404" id="edge35" class="transition" marker-end="url(#statediagram-barbEnd)"></path></g><g class="edgeLabels"><g class="edgeLabel"><g class="label" transform="translate(0, 0)"><rect rx="0" ry="0" width="0" height="0" style="fill:#e8e8e8;"></rect><text style=""></text></g></g><g class="edgeLabel"><g class="label" transform="translate(0, 0)"><rect rx="0" ry="0" width="0" height="0" style="fill:#e8e8e8;"></rect><text style=""></text></g></g><g class="edgeLabel" transform="translate(238.0234375, 181.5)"><g class="label" transform="translate(-60.0234375, -9.5)"><rect rx="0" ry="0" width="119.984375" height="19.03125" style="fill:#e8e8e8;"></rect><text style=""><tspan xml:space="preserve" dy="1em" x="0" class="row">ClientEventOpen</tspan></text></g></g><g class="edgeLabel" transform="translate(4457.14453125, 341.5)"><g class="label" transform="translate(-100.0390625, -9.5)"><rect rx="0" ry="0" width="199.953125" height="19.03125" style="fill:#e8e8e8;"></rect><text style=""><tspan xml:space="preserve" dy="1em" x="0" class="row">ClientEventFundingInitiated</tspan></text></g></g><g class="edgeLabel" transform="translate(1599.1015625, 665.25)"><g class="label" transform="translate(-107.6796875, -9.5)"><rect rx="0" ry="0" width="215.234375" height="19.03125" style="fill:#e8e8e8;"></rect><text style=""><tspan xml:space="preserve" dy="1em" x="0" class="row">ClientEventEnsureFundsFailed</tspan></text></g></g><g class="edgeLabel" transform="translate(4509.3125, 730)"><g class="label" transform="translate(-107.6796875, -9.5)"><rect rx="0" ry="0" width="215.234375" height="19.03125" style="fill:#e8e8e8;"></rect><text style=""><tspan xml:space="preserve" dy="1em" x="0" class="row">ClientEventEnsureFundsFailed</tspan></text></g></g><g class="edgeLabel" transform="translate(1488.828125, 406.25)"><g class="label" transform="translate(-90.2734375, -9.5)"><rect rx="0" ry="0" width="180.4375" height="19.03125" style="fill:#e8e8e8;"></rect><text style=""><tspan xml:space="preserve" dy="1em" x="0" class="row">ClientEventFundsEnsured</tspan></text></g></g><g class="edgeLabel" transform="translate(4121.41015625, 471)"><g class="label" transform="translate(-90.2734375, -9.5)"><rect rx="0" ry="0" width="180.4375" height="19.03125" style="fill:#e8e8e8;"></rect><text style=""><tspan xml:space="preserve" dy="1em" x="0" class="row">ClientEventFundsEnsured</tspan></text></g></g><g class="edgeLabel" transform="translate(4690.10546875, 987.5)"><g class="label" transform="translate(-113.4609375, -9.5)"><rect rx="0" ry="0" width="226.78125" height="19.03125" style="fill:#e8e8e8;"></rect><text style=""><tspan xml:space="preserve" dy="1em" x="0" class="row">ClientEventWriteProposalFailed</tspan></text></g></g><g class="edgeLabel" transform="translate(4223.78515625, 781.5)"><g class="label" transform="translate(-113.96875, -9.5)"><rect rx="0" ry="0" width="227.796875" height="19.03125" style="fill:#e8e8e8;"></rect><text style=""><tspan xml:space="preserve" dy="1em" x="0" class="row">ClientEventReadResponseFailed</tspan></text></g></g><g class="edgeLabel" transform="translate(3951.55859375, 781.5)"><g class="label" transform="translate(-138.2578125, -9.5)"><rect rx="0" ry="0" width="276.34375" height="19.03125" style="fill:#e8e8e8;"></rect><text style=""><tspan xml:space="preserve" dy="1em" x="0" class="row">ClientEventResponseVerificationFailed</tspan></text></g></g><g class="edgeLabel" transform="translate(2798.63671875, 600.5)"><g class="label" transform="translate(-113.9921875, -9.5)"><rect rx="0" ry="0" width="227.84375" height="19.03125" style="fill:#e8e8e8;"></rect><text style=""><tspan xml:space="preserve" dy="1em" x="0" class="row">ClientEventInitiateDataTransfer</tspan></text></g></g><g class="edgeLabel" transform="translate(1743.3125, 781.5)"><g class="label" transform="translate(-118.734375, -9.5)"><rect rx="0" ry="0" width="237.328125" height="19.03125" style="fill:#e8e8e8;"></rect><text style=""><tspan xml:space="preserve" dy="1em" x="0" class="row">ClientEventUnexpectedDealState</tspan></text></g></g><g class="edgeLabel" transform="translate(3793.30078125, 833)"><g class="label" transform="translate(-109.7890625, -9.5)"><rect rx="0" ry="0" width="219.4375" height="19.03125" style="fill:#e8e8e8;"></rect><text style=""><tspan xml:space="preserve" dy="1em" x="0" class="row">ClientEventDataTransferFailed</tspan></text></g></g><g class="edgeLabel" transform="translate(3663.51171875, 922.75)"><g class="label" transform="translate(-109.7890625, -9.5)"><rect rx="0" ry="0" width="219.4375" height="19.03125" style="fill:#e8e8e8;"></rect><text style=""><tspan xml:space="preserve" dy="1em" x="0" class="row">ClientEventDataTransferFailed</tspan></text></g></g><g class="edgeLabel" transform="translate(2405.609375, 987.5)"><g class="label" transform="translate(-54.671875, -9.5)"><rect rx="0" ry="0" width="109.28125" height="19.03125" style="fill:#e8e8e8;"></rect><text style=""><tspan xml:space="preserve" dy="1em" x="0" class="row">&lt;invalid Value&gt;</tspan></text></g></g><g class="edgeLabel" transform="translate(2729.41015625, 730)"><g class="label" transform="translate(-118.453125, -9.5)"><rect rx="0" ry="0" width="236.765625" height="19.03125" style="fill:#e8e8e8;"></rect><text style=""><tspan xml:space="preserve" dy="1em" x="0" class="row">ClientEventDataTransferInitiated</tspan></text></g></g><g class="edgeLabel" transform="translate(2462.578125, 833)"><g class="label" transform="translate(-118.453125, -9.5)"><rect rx="0" ry="0" width="236.765625" height="19.03125" style="fill:#e8e8e8;"></rect><text style=""><tspan xml:space="preserve" dy="1em" x="0" class="row">ClientEventDataTransferInitiated</tspan></text></g></g><g class="edgeLabel" transform="translate(2201.46875, 833)"><g class="label" transform="translate(-122.65625, -9.5)"><rect rx="0" ry="0" width="245.171875" height="19.03125" style="fill:#e8e8e8;"></rect><text style=""><tspan xml:space="preserve" dy="1em" x="0" class="row">ClientEventDataTransferRestarted</tspan></text></g></g><g class="edgeLabel" transform="translate(2004.40625, 781.5)"><g class="label" transform="translate(-122.359375, -9.5)"><rect rx="0" ry="0" width="244.5625" height="19.03125" style="fill:#e8e8e8;"></rect><text style=""><tspan xml:space="preserve" dy="1em" x="0" class="row">ClientEventDataTransferComplete</tspan></text></g></g><g class="edgeLabel" transform="translate(2878.109375, 833)"><g class="label" transform="translate(-122.359375, -9.5)"><rect rx="0" ry="0" width="244.5625" height="19.03125" style="fill:#e8e8e8;"></rect><text style=""><tspan xml:space="preserve" dy="1em" x="0" class="row">ClientEventDataTransferComplete</tspan></text></g></g><g class="edgeLabel" transform="translate(2182.953125, 922.75)"><g class="label" transform="translate(-104.109375, -9.5)"><rect rx="0" ry="0" width="208.09375" height="19.03125" style="fill:#e8e8e8;"></rect><text style=""><tspan xml:space="preserve" dy="1em" x="0" class="row">ClientEventWaitForDealState</tspan></text></g></g><g class="edgeLabel" transform="translate(2815.2265625, 987.5)"><g class="label" transform="translate(-135.8515625, -9.5)"><rect rx="0" ry="0" width="271.546875" height="19.03125" style="fill:#e8e8e8;"></rect><text style=""><tspan xml:space="preserve" dy="1em" x="0" class="row">ClientEventResponseDealDidNotMatch</tspan></text></g></g><g class="edgeLabel" transform="translate(2569.828125, 987.5)"><g class="label" transform="translate(-89.546875, -9.5)"><rect rx="0" ry="0" width="178.984375" height="19.03125" style="fill:#e8e8e8;"></rect><text style=""><tspan xml:space="preserve" dy="1em" x="0" class="row">ClientEventDealRejected</tspan></text></g></g><g class="edgeLabel" transform="translate(882.46875, 987.5)"><g class="label" transform="translate(-90.7265625, -9.5)"><rect rx="0" ry="0" width="181.34375" height="19.03125" style="fill:#e8e8e8;"></rect><text style=""><tspan xml:space="preserve" dy="1em" x="0" class="row">ClientEventDealAccepted</tspan></text></g></g><g class="edgeLabel" transform="translate(973.1953125, 1271.5)"><g class="label" transform="translate(-104.6796875, -9.5)"><rect rx="0" ry="0" width="209.234375" height="19.03125" style="fill:#e8e8e8;"></rect><text style=""><tspan xml:space="preserve" dy="1em" x="0" class="row">ClientEventDealPublishFailed</tspan></text></g></g><g class="edgeLabel" transform="translate(424.20703125, 1142)"><g class="label" transform="translate(-91.6328125, -9.5)"><rect rx="0" ry="0" width="183.15625" height="19.03125" style="fill:#e8e8e8;"></rect><text style=""><tspan xml:space="preserve" dy="1em" x="0" class="row">ClientEventDealPublished</tspan></text></g></g><g class="edgeLabel" transform="translate(823.3515625, 1336.25)"><g class="label" transform="translate(-115.5078125, -9.5)"><rect rx="0" ry="0" width="230.875" height="19.03125" style="fill:#e8e8e8;"></rect><text style=""><tspan xml:space="preserve" dy="1em" x="0" class="row">ClientEventDealActivationFailed</tspan></text></g></g><g class="edgeLabel" transform="translate(402.5625, 1271.5)"><g class="label" transform="translate(-91.5234375, -9.5)"><rect rx="0" ry="0" width="182.9375" height="19.03125" style="fill:#e8e8e8;"></rect><text style=""><tspan xml:space="preserve" dy="1em" x="0" class="row">ClientEventDealActivated</tspan></text></g></g><g class="edgeLabel" transform="translate(719.234375, 1401)"><g class="label" transform="translate(-84.1171875, -9.5)"><rect rx="0" ry="0" width="168.125" height="19.03125" style="fill:#e8e8e8;"></rect><text style=""><tspan xml:space="preserve" dy="1em" x="0" class="row">ClientEventDealSlashed</tspan></text></g></g><g class="edgeLabel" transform="translate(514.7578125, 1401)"><g class="label" transform="translate(-84.234375, -9.5)"><rect rx="0" ry="0" width="168.375" height="19.03125" style="fill:#e8e8e8;"></rect><text style=""><tspan xml:space="preserve" dy="1em" x="0" class="row">ClientEventDealExpired</tspan></text></g></g><g class="edgeLabel" transform="translate(290.3671875, 1401)"><g class="label" transform="translate(-120.15625, -9.5)"><rect rx="0" ry="0" width="240.15625" height="19.03125" style="fill:#e8e8e8;"></rect><text style=""><tspan xml:space="preserve" dy="1em" x="0" class="row">ClientEventDealCompletionFailed</tspan></text></g></g><g class="edgeLabel" transform="translate(2978.16796875, 1271.5)"><g class="label" transform="translate(-63.3046875, -9.5)"><rect rx="0" ry="0" width="126.53125" height="19.03125" style="fill:#e8e8e8;"></rect><text style=""><tspan xml:space="preserve" dy="1em" x="0" class="row">ClientEventFailed</tspan></text></g></g><g class="edgeLabel" transform="translate(2668.390625, 833)"><g class="label" transform="translate(-67.359375, -9.5)"><rect rx="0" ry="0" width="134.640625" height="19.03125" style="fill:#e8e8e8;"></rect><text style=""><tspan xml:space="preserve" dy="1em" x="0" class="row">ClientEventRestart</tspan></text></g></g><g class="edgeLabel"><g class="label" transform="translate(0, 0)"><rect rx="0" ry="0" width="0" height="0" style="fill:#e8e8e8;"></rect><text style=""></text></g></g><g class="edgeLabel"><g class="label" transform="translate(0, 0)"><rect rx="0" ry="0" width="0" height="0" style="fill:#e8e8e8;"></rect><text style=""></text></g></g><g class="edgeLabel"><g class="label" transform="translate(0, 0)"><rect rx="0" ry="0" width="0" height="0" style="fill:#e8e8e8;"></rect><text style=""></text></g></g><g class="edgeLabel"><g class="label" transform="translate(0, 0)"><rect rx="0" ry="0" width="0" height="0" style="fill:#e8e8e8;"></rect><text style=""></text></g></g><g class="edgeLabel"><g class="label" transform="translate(0, 0)"><rect rx="0" ry="0" width="0" height="0" style="fill:#e8e8e8;"></rect><text style=""></text></g></g><g class="edgeLabel"><g class="label" transform="translate(0, 0)"><rect rx="0" ry="0" width="0" height="0" style="fill:#e8e8e8;"></rect><text style=""></text></g></g></g><g class="nodes"><g class="node statediagram-state" id="0" transform="translate(278.03515625, 122)"><rect class="outer title-state" x="-82.921875" y="-17" width="165.84375" height="34"></rect><line class="divider" x1="-82.921875" x2="82.921875" y1="9.5" y2="9.5"></line><g class="label" transform="translate(-75.421875, -14)"><text style=""><tspan xml:space="preserve" dy="1em" x="0" class="title-row">StorageDealUnknown</tspan></text><text style="" transform="translate( 0, 26.5)"><tspan xml:space="preserve" dy="1em" x="0" class="title-row"></tspan></text></g></g><g class="node statediagram-state" id="3" transform="translate(461.59765625, 1052.25)"><rect class="outer title-state" x="-138.4765625" y="-30.25" width="276.953125" height="60.5"></rect><line class="divider" x1="-138.4765625" x2="138.4765625" y1="-3.75" y2="-3.75"></line><g class="label" transform="translate(-130.9765625, -27.25)"><text style=""><tspan xml:space="preserve" dy="1em" x="0" class="title-row">StorageDealProposalAccepted</tspan></text><text style="" transform="translate( 0, 26.5)"><tspan xml:space="preserve" dy="1em" x="0" class="title-row">On entry runs ValidateDealPublished</tspan></text></g></g><g class="node statediagram-state" id="5" transform="translate(424.20703125, 1206.75)"><rect class="outer title-state" x="-129.9765625" y="-30.25" width="259.953125" height="60.5"></rect><line class="divider" x1="-129.9765625" x2="129.9765625" y1="-3.75" y2="-3.75"></line><g class="label" transform="translate(-122.4765625, -27.25)"><text style=""><tspan xml:space="preserve" dy="1em" x="0" class="title-row">StorageDealSealing</tspan></text><text style="" transform="translate( 0, 26.5)"><tspan xml:space="preserve" dy="1em" x="0" class="title-row">On entry runs VerifyDealActivated</tspan></text></g></g><g class="node statediagram-state" id="7" transform="translate(402.5625, 1336.25)"><rect class="outer title-state" x="-143.46875" y="-30.25" width="286.9375" height="60.5"></rect><line class="divider" x1="-143.46875" x2="143.46875" y1="-3.75" y2="-3.75"></line><g class="label" transform="translate(-135.96875, -27.25)"><text style=""><tspan xml:space="preserve" dy="1em" x="0" class="title-row">StorageDealActive</tspan></text><text style="" transform="translate( 0, 26.5)"><tspan xml:space="preserve" dy="1em" x="0" class="title-row">On entry runs WaitForDealCompletion</tspan></text></g></g><g class="node statediagram-state" id="8" transform="translate(224.2578125, 1452.5)"><rect class="outer title-state" x="-77.296875" y="-17" width="154.59375" height="34"></rect><line class="divider" x1="-77.296875" x2="77.296875" y1="9.5" y2="9.5"></line><g class="label" transform="translate(-69.796875, -14)"><text style=""><tspan xml:space="preserve" dy="1em" x="0" class="title-row">StorageDealExpired</tspan></text><text style="" transform="translate( 0, 26.5)"><tspan xml:space="preserve" dy="1em" x="0" class="title-row"></tspan></text></g></g><g class="node statediagram-state" id="9" transform="translate(428.734375, 1452.5)"><rect class="outer title-state" x="-77.1796875" y="-17" width="154.359375" height="34"></rect><line class="divider" x1="-77.1796875" x2="77.1796875" y1="9.5" y2="9.5"></line><g class="label" transform="translate(-69.6796875, -14)"><text style=""><tspan xml:space="preserve" dy="1em" x="0" class="title-row">StorageDealSlashed</tspan></text><text style="" transform="translate( 0, 26.5)"><tspan xml:space="preserve" dy="1em" x="0" class="title-row"></tspan></text></g></g><g class="node statediagram-state" id="11" transform="translate(2978.16796875, 1052.25)"><rect class="outer title-state" x="-87.421875" y="-30.25" width="174.84375" height="60.5"></rect><line class="divider" x1="-87.421875" x2="87.421875" y1="-3.75" y2="-3.75"></line><g class="label" transform="translate(-79.921875, -27.25)"><text style=""><tspan xml:space="preserve" dy="1em" x="0" class="title-row">StorageDealFailing</tspan></text><text style="" transform="translate( 0, 26.5)"><tspan xml:space="preserve" dy="1em" x="0" class="title-row">On entry runs FailDeal</tspan></text></g></g><g class="node statediagram-state" id="12" transform="translate(4121.41015625, 535.75)"><rect class="outer title-state" x="-102.59375" y="-30.25" width="205.1875" height="60.5"></rect><line class="divider" x1="-102.59375" x2="102.59375" y1="-3.75" y2="-3.75"></line><g class="label" transform="translate(-95.09375, -27.25)"><text style=""><tspan xml:space="preserve" dy="1em" x="0" class="title-row">StorageDealFundsEnsured</tspan></text><text style="" transform="translate( 0, 26.5)"><tspan xml:space="preserve" dy="1em" x="0" class="title-row">On entry runs ProposeDeal</tspan></text></g></g><g class="node statediagram-state" id="13" transform="translate(1894.8203125, 922.75)"><rect class="outer title-state" x="-149.0234375" y="-30.25" width="298.046875" height="60.5"></rect><line class="divider" x1="-149.0234375" x2="149.0234375" y1="-3.75" y2="-3.75"></line><g class="label" transform="translate(-141.5234375, -27.25)"><text style=""><tspan xml:space="preserve" dy="1em" x="0" class="title-row">StorageDealCheckForAcceptance</tspan></text><text style="" transform="translate( 0, 26.5)"><tspan xml:space="preserve" dy="1em" x="0" class="title-row">On entry runs CheckForDealAcceptance</tspan></text></g></g><g class="node statediagram-state" id="16" transform="translate(2798.63671875, 665.25)"><rect class="outer title-state" x="-131.09375" y="-30.25" width="262.1875" height="60.5"></rect><line class="divider" x1="-131.09375" x2="131.09375" y1="-3.75" y2="-3.75"></line><g class="label" transform="translate(-123.59375, -27.25)"><text style=""><tspan xml:space="preserve" dy="1em" x="0" class="title-row">StorageDealStartDataTransfer</tspan></text><text style="" transform="translate( 0, 26.5)"><tspan xml:space="preserve" dy="1em" x="0" class="title-row">On entry runs InitiateDataTransfer</tspan></text></g></g><g class="node statediagram-state" id="17" transform="translate(2729.41015625, 781.5)"><rect class="outer title-state" x="-94.109375" y="-17" width="188.21875" height="34"></rect><line class="divider" x1="-94.109375" x2="94.109375" y1="9.5" y2="9.5"></line><g class="label" transform="translate(-86.609375, -14)"><text style=""><tspan xml:space="preserve" dy="1em" x="0" class="title-row">StorageDealTransferring</tspan></text><text style="" transform="translate( 0, 26.5)"><tspan xml:space="preserve" dy="1em" x="0" class="title-row"></tspan></text></g></g><g class="node statediagram-state" id="18" transform="translate(1559.3984375, 922.75)"><rect class="outer title-state" x="-136.3984375" y="-30.25" width="272.796875" height="60.5"></rect><line class="divider" x1="-136.3984375" x2="136.3984375" y1="-3.75" y2="-3.75"></line><g class="label" transform="translate(-128.8984375, -27.25)"><text style=""><tspan xml:space="preserve" dy="1em" x="0" class="title-row">StorageDealClientTransferRestarted</tspan></text><text style="" transform="translate( 0, 26.5)"><tspan xml:space="preserve" dy="1em" x="0" class="title-row">On entry runs RestartDataTransfer</tspan></text></g></g><g class="node statediagram-state" id="22" transform="translate(1876.53515625, 249)"><rect class="outer title-state" x="-124.25" y="-30.25" width="248.5" height="60.5"></rect><line class="divider" x1="-124.25" x2="124.25" y1="-3.75" y2="-3.75"></line><g class="label" transform="translate(-116.75, -27.25)"><text style=""><tspan xml:space="preserve" dy="1em" x="0" class="title-row">StorageDealEnsureClientFunds</tspan></text><text style="" transform="translate( 0, 26.5)"><tspan xml:space="preserve" dy="1em" x="0" class="title-row">On entry runs EnsureClientFunds</tspan></text></g></g><g class="node statediagram-state" id="24" transform="translate(4457.14453125, 406.25)"><rect class="outer title-state" x="-114.6875" y="-30.25" width="229.375" height="60.5"></rect><line class="divider" x1="-114.6875" x2="114.6875" y1="-3.75" y2="-3.75"></line><g class="label" transform="translate(-107.1875, -27.25)"><text style=""><tspan xml:space="preserve" dy="1em" x="0" class="title-row">StorageDealClientFunding</tspan></text><text style="" transform="translate( 0, 26.5)"><tspan xml:space="preserve" dy="1em" x="0" class="title-row">On entry runs WaitForFunding</tspan></text></g></g><g class="node statediagram-state" id="27" transform="translate(646.2578125, 1452.5)"><rect class="outer title-state" x="-68.2421875" y="-17" width="136.484375" height="34"></rect><line class="divider" x1="-68.2421875" x2="68.2421875" y1="9.5" y2="9.5"></line><g class="label" transform="translate(-60.7421875, -14)"><text style=""><tspan xml:space="preserve" dy="1em" x="0" class="title-row">StorageDealError</tspan></text><text style="" transform="translate( 0, 26.5)"><tspan xml:space="preserve" dy="1em" x="0" class="title-row"></tspan></text></g></g><g class="node default" id="root_start" transform="translate(278.03515625, 15)"><circle class="state-start" r="7" width="14" height="14"></circle></g><g class="node statediagram-note" id="0----note" transform="translate(318.046875, 249)"><rect x="-275.046875" y="-33" width="550.09375" height="66"></rect><g class="label" transform="translate(-267.546875, -25.5)"><text style=""><tspan xml:space="preserve" dy="1em" x="0" class="row">The following events are not shown cause they can trigger from any state.</tspan><tspan xml:space="preserve" dy="1em" x="0" class="row"></tspan><tspan xml:space="preserve" dy="1em" x="0" class="row">ClientEventStreamCloseError - transitions state to StorageDealError</tspan><tspan xml:space="preserve" dy="1em" x="0" class="row">ClientEventRestart - does not transition state</tspan></text></g></g><g class="node statediagram-note" id="3----note" transform="translate(424.20703125, 922.75)"><rect x="-173.125" y="-25" width="346.25" height="50"></rect><g class="label" transform="translate(-165.625, -17.5)"><text style=""><tspan xml:space="preserve" dy="1em" x="0" class="row">The following events only record in this state.</tspan><tspan xml:space="preserve" dy="1em" x="0" class="row"></tspan><tspan xml:space="preserve" dy="1em" x="0" class="row">ClientEventFundsReleased</tspan></text></g></g><g class="node statediagram-note" id="11----note" transform="translate(2971.078125, 922.75)"><rect x="-173.125" y="-25" width="346.25" height="50"></rect><g class="label" transform="translate(-165.625, -17.5)"><text style=""><tspan xml:space="preserve" dy="1em" x="0" class="row">The following events only record in this state.</tspan><tspan xml:space="preserve" dy="1em" x="0" class="row"></tspan><tspan xml:space="preserve" dy="1em" x="0" class="row">ClientEventFundsReleased</tspan></text></g></g><g class="node statediagram-note" id="22----note" transform="translate(1876.53515625, 122)"><rect x="-173.125" y="-25" width="346.25" height="50"></rect><g class="label" transform="translate(-165.625, -17.5)"><text style=""><tspan xml:space="preserve" dy="1em" x="0" class="row">The following events only record in this state.</tspan><tspan xml:space="preserve" dy="1em" x="0" class="row"></tspan><tspan xml:space="preserve" dy="1em" x="0" class="row">ClientEventFundsReserved</tspan></text></g></g><g class="node default" id="root_end" transform="translate(326.49609375, 1526.5)"><circle class="state-start" r="7" width="14" height="14"></circle><circle class="state-end" r="5" width="10" height="10"></circle></g></g></g></g></svg>