<svg id="mermaid-1606212978121" width="5672.68359375" xmlns="http://www.w3.org/2000/svg" class="statediagram" height="2508" viewBox="0 0 5672.68359375 2508"><style>#mermaid-1606212978121 .label{font-family:'trebuchet ms', verdana, arial;font-family:var(--mermaid-font-family);color:#333}#mermaid-1606212978121 .label text{fill:#333}#mermaid-1606212978121 .node rect,#mermaid-1606212978121 .node circle,#mermaid-1606212978121 .node ellipse,#mermaid-1606212978121 .node polygon,#mermaid-1606212978121 .node path{fill:#ECECFF;stroke:#9370db;stroke-width:1px}#mermaid-1606212978121 .node .label{text-align:center}#mermaid-1606212978121 .node.clickable{cursor:pointer}#mermaid-1606212978121 .arrowheadPath{fill:#333}#mermaid-1606212978121 .edgePath .path{stroke:#333;stroke-width:1.5px}#mermaid-1606212978121 .edgeLabel{background-color:#e8e8e8;text-align:center}#mermaid-1606212978121 .edgeLabel rect{opacity:0.5}#mermaid-1606212978121 .cluster rect{fill:#ffffde;stroke:#aa3;stroke-width:1px}#mermaid-1606212978121 .cluster text{fill:#333}#mermaid-1606212978121 div.mermaidTooltip{position:absolute;text-align:center;max-width:200px;padding:2px;font-family:'trebuchet ms', verdana, arial;font-family:var(--mermaid-font-family);font-size:12px;background:#ffffde;border:1px solid #aa3;border-radius:2px;pointer-events:none;z-index:100}#mermaid-1606212978121 .actor{stroke:#ccf;fill:#ECECFF}#mermaid-1606212978121 text.actor{fill:#000;stroke:none}#mermaid-1606212978121 .actor-line{stroke:grey}#mermaid-1606212978121 .messageLine0{stroke-width:1.5;stroke-dasharray:'2 2';stroke:#333}#mermaid-1606212978121 .messageLine1{stroke-width:1.5;stroke-dasharray:'2 2';stroke:#333}#mermaid-1606212978121 #arrowhead{fill:#333}#mermaid-1606212978121 .sequenceNumber{fill:#fff}#mermaid-1606212978121 #sequencenumber{fill:#333}#mermaid-1606212978121 #crosshead path{fill:#333 !important;stroke:#333 !important}#mermaid-1606212978121 .messageText{fill:#333;stroke:none}#mermaid-1606212978121 .labelBox{stroke:#ccf;fill:#ECECFF}#mermaid-1606212978121 .labelText{fill:#000;stroke:none}#mermaid-1606212978121 .loopText{fill:#000;stroke:none}#mermaid-1606212978121 .loopLine{stroke-width:2;stroke-dasharray:'2 2';stroke:#ccf}#mermaid-1606212978121 .note{stroke:#aa3;fill:#fff5ad}#mermaid-1606212978121 .noteText{fill:black;stroke:none;font-family:'trebuchet ms', verdana, arial;font-family:var(--mermaid-font-family);font-size:14px}#mermaid-1606212978121 .activation0{fill:#f4f4f4;stroke:#666}#mermaid-1606212978121 .activation1{fill:#f4f4f4;stroke:#666}#mermaid-1606212978121 .activation2{fill:#f4f4f4;stroke:#666}#mermaid-1606212978121 .mermaid-main-font{font-family:"trebuchet ms", verdana, arial;font-family:var(--mermaid-font-family)}#mermaid-1606212978121 .section{stroke:none;opacity:0.2}#mermaid-1606212978121 .section0{fill:rgba(102,102,255,0.49)}#mermaid-1606212978121 .section2{fill:#fff400}#mermaid-1606212978121 .section1,#mermaid-1606212978121 .section3{fill:#fff;opacity:0.2}#mermaid-1606212978121 .sectionTitle0{fill:#333}#mermaid-1606212978121 .sectionTitle1{fill:#333}#mermaid-1606212978121 .sectionTitle2{fill:#333}#mermaid-1606212978121 .sectionTitle3{fill:#333}#mermaid-1606212978121 .sectionTitle{text-anchor:start;font-size:11px;text-height:14px;font-family:'trebuchet ms', verdana, arial;font-family:var(--mermaid-font-family)}#mermaid-1606212978121 .grid .tick{stroke:#d3d3d3;opacity:0.8;shape-rendering:crispEdges}#mermaid-1606212978121 .grid .tick text{font-family:'trebuchet ms', verdana, arial;font-family:var(--mermaid-font-family)}#mermaid-1606212978121 .grid path{stroke-width:0}#mermaid-1606212978121 .today{fill:none;stroke:red;stroke-width:2px}#mermaid-1606212978121 .task{stroke-width:2}#mermaid-1606212978121 .taskText{text-anchor:middle;font-family:'trebuchet ms', verdana, arial;font-family:var(--mermaid-font-family)}#mermaid-1606212978121 .taskText:not([font-size]){font-size:11px}#mermaid-1606212978121 .taskTextOutsideRight{fill:#000;text-anchor:start;font-size:11px;font-family:'trebuchet ms', verdana, arial;font-family:var(--mermaid-font-family)}#mermaid-1606212978121 .taskTextOutsideLeft{fill:#000;text-anchor:end;font-size:11px}#mermaid-1606212978121 .task.clickable{cursor:pointer}#mermaid-1606212978121 .taskText.clickable{cursor:pointer;fill:#003163 !important;font-weight:bold}#mermaid-1606212978121 .taskTextOutsideLeft.clickable{cursor:pointer;fill:#003163 !important;font-weight:bold}#mermaid-1606212978121 .taskTextOutsideRight.clickable{cursor:pointer;fill:#003163 !important;font-weight:bold}#mermaid-1606212978121 .taskText0,#mermaid-1606212978121 .taskText1,#mermaid-1606212978121 .taskText2,#mermaid-1606212978121 .taskText3{fill:#fff}#mermaid-1606212978121 .task0,#mermaid-1606212978121 .task1,#mermaid-1606212978121 .task2,#mermaid-1606212978121 .task3{fill:#8a90dd;stroke:#534fbc}#mermaid-1606212978121 .taskTextOutside0,#mermaid-1606212978121 .taskTextOutside2{fill:#000}#mermaid-1606212978121 .taskTextOutside1,#mermaid-1606212978121 .taskTextOutside3{fill:#000}#mermaid-1606212978121 .active0,#mermaid-1606212978121 .active1,#mermaid-1606212978121 .active2,#mermaid-1606212978121 .active3{fill:#bfc7ff;stroke:#534fbc}#mermaid-1606212978121 .activeText0,#mermaid-1606212978121 .activeText1,#mermaid-1606212978121 .activeText2,#mermaid-1606212978121 .activeText3{fill:#000 !important}#mermaid-1606212978121 .done0,#mermaid-1606212978121 .done1,#mermaid-1606212978121 .done2,#mermaid-1606212978121 .done3{stroke:grey;fill:#d3d3d3;stroke-width:2}#mermaid-1606212978121 .doneText0,#mermaid-1606212978121 .doneText1,#mermaid-1606212978121 .doneText2,#mermaid-1606212978121 .doneText3{fill:#000 !important}#mermaid-1606212978121 .crit0,#mermaid-1606212978121 .crit1,#mermaid-1606212978121 .crit2,#mermaid-1606212978121 .crit3{stroke:#f88;fill:red;stroke-width:2}#mermaid-1606212978121 .activeCrit0,#mermaid-1606212978121 .activeCrit1,#mermaid-1606212978121 .activeCrit2,#mermaid-1606212978121 .activeCrit3{stroke:#f88;fill:#bfc7ff;stroke-width:2}#mermaid-1606212978121 .doneCrit0,#mermaid-1606212978121 .doneCrit1,#mermaid-1606212978121 .doneCrit2,#mermaid-1606212978121 .doneCrit3{stroke:#f88;fill:#d3d3d3;stroke-width:2;cursor:pointer;shape-rendering:crispEdges}#mermaid-1606212978121 .milestone{transform:rotate(45deg) scale(0.8, 0.8)}#mermaid-1606212978121 .milestoneText{font-style:italic}#mermaid-1606212978121 .doneCritText0,#mermaid-1606212978121 .doneCritText1,#mermaid-1606212978121 .doneCritText2,#mermaid-1606212978121 .doneCritText3{fill:#000 !important}#mermaid-1606212978121 .activeCritText0,#mermaid-1606212978121 .activeCritText1,#mermaid-1606212978121 .activeCritText2,#mermaid-1606212978121 .activeCritText3{fill:#000 !important}#mermaid-1606212978121 .titleText{text-anchor:middle;font-size:18px;fill:#000;font-family:'trebuchet ms', verdana, arial;font-family:var(--mermaid-font-family)}#mermaid-1606212978121 g.classGroup text{fill:#9370db;stroke:none;font-family:'trebuchet ms', verdana, arial;font-family:var(--mermaid-font-family);font-size:10px}#mermaid-1606212978121 g.classGroup text .title{font-weight:bolder}#mermaid-1606212978121 g.clickable{cursor:pointer}#mermaid-1606212978121 g.classGroup rect{fill:#ECECFF;stroke:#9370db}#mermaid-1606212978121 g.classGroup line{stroke:#9370db;stroke-width:1}#mermaid-1606212978121 .classLabel .box{stroke:none;stroke-width:0;fill:#ECECFF;opacity:0.5}#mermaid-1606212978121 .classLabel .label{fill:#9370db;font-size:10px}#mermaid-1606212978121 .relation{stroke:#9370db;stroke-width:1;fill:none}#mermaid-1606212978121 .dashed-line{stroke-dasharray:3}#mermaid-1606212978121 #compositionStart{fill:#9370db;stroke:#9370db;stroke-width:1}#mermaid-1606212978121 #compositionEnd{fill:#9370db;stroke:#9370db;stroke-width:1}#mermaid-1606212978121 #aggregationStart{fill:#ECECFF;stroke:#9370db;stroke-width:1}#mermaid-1606212978121 #aggregationEnd{fill:#ECECFF;stroke:#9370db;stroke-width:1}#mermaid-1606212978121 #dependencyStart{fill:#9370db;stroke:#9370db;stroke-width:1}#mermaid-1606212978121 #dependencyEnd{fill:#9370db;stroke:#9370db;stroke-width:1}#mermaid-1606212978121 #extensionStart{fill:#9370db;stroke:#9370db;stroke-width:1}#mermaid-1606212978121 #extensionEnd{fill:#9370db;stroke:#9370db;stroke-width:1}#mermaid-1606212978121 .commit-id,#mermaid-1606212978121 .commit-msg,#mermaid-1606212978121 .branch-label{fill:lightgrey;color:lightgrey;font-family:'trebuchet ms', verdana, arial;font-family:var(--mermaid-font-family)}#mermaid-1606212978121 .pieTitleText{text-anchor:middle;font-size:25px;fill:#000;font-family:'trebuchet ms', verdana, arial;font-family:var(--mermaid-font-family)}#mermaid-1606212978121 .slice{font-family:'trebuchet ms', verdana, arial;font-family:var(--mermaid-font-family)}#mermaid-1606212978121 g.stateGroup text{fill:#9370db;stroke:none;font-size:10px;font-family:'trebuchet ms', verdana, arial;font-family:var(--mermaid-font-family)}#mermaid-1606212978121 g.stateGroup text{fill:#9370db;stroke:none;font-size:10px}#mermaid-1606212978121 g.stateGroup .state-title{font-weight:bolder;fill:#000}#mermaid-1606212978121 g.stateGroup rect{fill:#ECECFF;stroke:#9370db}#mermaid-1606212978121 g.stateGroup line{stroke:#9370db;stroke-width:1}#mermaid-1606212978121 .transition{stroke:#9370db;stroke-width:1;fill:none}#mermaid-1606212978121 .stateGroup .composit{fill:white;border-bottom:1px}#mermaid-1606212978121 .stateGroup .alt-composit{fill:#e0e0e0;border-bottom:1px}#mermaid-1606212978121 .state-note{stroke:#aa3;fill:#fff5ad}#mermaid-1606212978121 .state-note text{fill:black;stroke:none;font-size:10px}#mermaid-1606212978121 .stateLabel .box{stroke:none;stroke-width:0;fill:#ECECFF;opacity:0.5}#mermaid-1606212978121 .stateLabel text{fill:#000;font-size:10px;font-weight:bold;font-family:'trebuchet ms', verdana, arial;font-family:var(--mermaid-font-family)}#mermaid-1606212978121 .node circle.state-start{fill:black;stroke:black}#mermaid-1606212978121 .node circle.state-end{fill:black;stroke:white;stroke-width:1.5}#mermaid-1606212978121 #statediagram-barbEnd{fill:#9370db}#mermaid-1606212978121 .statediagram-cluster rect{fill:#ECECFF;stroke:#9370db;stroke-width:1px}#mermaid-1606212978121 .statediagram-cluster rect.outer{rx:5px;ry:5px}#mermaid-1606212978121 .statediagram-state .divider{stroke:#9370db}#mermaid-1606212978121 .statediagram-state .title-state{rx:5px;ry:5px}#mermaid-1606212978121 .statediagram-cluster.statediagram-cluster .inner{fill:white}#mermaid-1606212978121 .statediagram-cluster.statediagram-cluster-alt .inner{fill:#e0e0e0}#mermaid-1606212978121 .statediagram-cluster .inner{rx:0;ry:0}#mermaid-1606212978121 .statediagram-state rect.basic{rx:5px;ry:5px}#mermaid-1606212978121 .statediagram-state rect.divider{stroke-dasharray:10,10;fill:#efefef}#mermaid-1606212978121 .note-edge{stroke-dasharray:5}#mermaid-1606212978121 .statediagram-note rect{fill:#fff5ad;stroke:#aa3;stroke-width:1px;rx:0;ry:0}:root{--mermaid-font-family: '"trebuchet ms", verdana, arial';--mermaid-font-family: "Comic Sans MS", "Comic Sans", cursive}

:root { --mermaid-font-family: "trebuchet ms", verdana, arial;}</style><style>#mermaid-1606212978121 {
    color: rgb(0, 0, 0);
    font: 16px "trebuchet ms", verdana, arial;
  }</style><g><defs><marker id="statediagram-barbEnd" refX="19" refY="7" markerWidth="20" markerHeight="14" markerUnits="0" orient="auto"><path d="M 19,7 L9,13 L14,7 L9,1 Z"></path></marker></defs><g class="root"><g class="clusters"><g class="note-cluster" id="0----parent"><rect x="1431" y="72" width="620.09375" height="219" fill="none"></rect></g><g class="note-cluster" id="4----parent"><rect x="8" y="1370.5" width="1489.890625" height="265" fill="none"></rect></g><g class="note-cluster" id="12----parent"><rect x="1144.11328125" y="2093" width="3158.546875" height="240" fill="none"></rect></g><g class="note-cluster" id="18----parent"><rect x="2665.65625" y="489.5" width="1381.796875" height="219" fill="none"></rect></g><g class="note-cluster" id="21----parent"><rect x="4326.0859375" y="777.5" width="600.7890625" height="240" fill="none"></rect></g><g class="note-cluster" id="26----parent"><rect x="2308.203125" y="1216" width="494.703125" height="265" fill="none"></rect></g></g><g class="edgePaths"><path d="M1785.390625,22L1785.390625,26.166666666666668C1785.390625,30.333333333333332,1785.390625,38.666666666666664,1785.390625,47C1785.390625,55.333333333333336,1785.390625,63.666666666666664,1785.390625,72C1785.390625,80.33333333333333,1785.390625,88.66666666666667,1785.390625,92.83333333333333L1785.390625,97" id="edge0" class="transition" marker-end="url(#statediagram-barbEnd)"></path><path d="M1770.7528822815534,131L1765.8018810679612,136.75C1760.850879854369,142.5,1750.9488774271842,154,1745.9978762135922,165.5C1741.046875,177,1741.046875,188.5,1741.046875,194.25L1741.046875,200" class="transition note-edge"></path><path d="M1821.9256674757282,131L1834.2831083131068,136.75C1846.6405491504854,142.5,1871.3554308252426,154,2342.0449029126216,170.4753114005509C2812.734375,186.9506228011018,3729.3984375,208.4012456022036,4187.73046875,219.12655700275448L4646.0625,229.85186840330536" id="edge1" class="transition" marker-end="url(#statediagram-barbEnd)"></path><path d="M4646.0625,244.86774797255146L4558.904296875,252.5564566437929C4471.74609375,260.2451653150343,4297.4296875,275.62258265751717,4210.271484375,289.0612913287586C4123.11328125,302.5,4123.11328125,314,4123.11328125,330.5416666666667C4123.11328125,347.0833333333333,4123.11328125,368.6666666666667,4123.11328125,390.25C4123.11328125,411.8333333333333,4123.11328125,433.4166666666667,4123.11328125,449.9583333333333C4123.11328125,466.5,4123.11328125,478,4123.11328125,493.4166666666667C4123.11328125,508.8333333333333,4123.11328125,528.1666666666666,4123.11328125,549.0833333333334C4123.11328125,570,4123.11328125,592.5,4123.11328125,612.3333333333334C4123.11328125,632.1666666666666,4123.11328125,649.3333333333334,4123.11328125,664.9166666666666C4123.11328125,680.5,4123.11328125,694.5,4123.11328125,707.25C4123.11328125,720,4123.11328125,731.5,4123.11328125,743C4123.11328125,754.5,4123.11328125,766,4123.11328125,780.9583333333334C4123.11328125,795.9166666666666,4123.11328125,814.3333333333334,4123.11328125,834.3333333333334C4123.11328125,854.3333333333334,4123.11328125,875.9166666666666,4123.11328125,897.5C4123.11328125,919.0833333333334,4123.11328125,940.6666666666666,4123.11328125,960.6666666666666C4123.11328125,980.6666666666666,4123.11328125,999.0833333333334,4123.11328125,1014.0416666666666C4123.11328125,1029,4123.11328125,1040.5,4123.11328125,1057.0416666666667C4123.11328125,1073.5833333333333,4123.11328125,1095.1666666666667,4123.11328125,1116.75C4123.11328125,1138.3333333333333,4123.11328125,1159.9166666666667,4123.11328125,1176.4583333333333C4123.11328125,1193,4123.11328125,1204.5,4123.11328125,1219.4583333333333C4123.11328125,1234.4166666666667,4123.11328125,1252.8333333333333,4123.11328125,1272.8333333333333C4123.11328125,1292.8333333333333,4123.11328125,1314.4166666666667,4123.11328125,1330.9583333333333C4123.11328125,1347.5,4123.11328125,1359,4123.11328125,1373.9583333333333C4123.11328125,1388.9166666666667,4123.11328125,1407.3333333333333,4123.11328125,1425.75C4123.11328125,1444.1666666666667,4123.11328125,1462.5833333333333,4123.11328125,1477.5416666666667C4123.11328125,1492.5,4123.11328125,1504,4123.11328125,1520.5416666666667C4123.11328125,1537.0833333333333,4123.11328125,1558.6666666666667,4123.11328125,1578.6666666666667C4123.11328125,1598.6666666666667,4123.11328125,1617.0833333333333,4123.11328125,1632.0416666666667C4123.11328125,1647,4123.11328125,1658.5,4123.11328125,1675.0416666666667C4123.11328125,1691.5833333333333,4123.11328125,1713.1666666666667,4123.11328125,1734.75C4123.11328125,1756.3333333333333,4123.11328125,1777.9166666666667,4123.11328125,1799.5C4123.11328125,1821.0833333333333,4123.11328125,1842.6666666666667,4123.11328125,1864.25C4123.11328125,1885.8333333333333,4123.11328125,1907.4166666666667,4123.11328125,1929C4123.11328125,1950.5833333333333,4123.11328125,1972.1666666666667,4123.11328125,1993.75C4123.11328125,2015.3333333333333,4123.11328125,2036.9166666666667,4236.095052083333,2053.4583333333335C4349.076822916667,2070,4575.040364583333,2081.5,4647.571614583333,2093.8129550182007C4720.102864583333,2106.125910036402,4639.201822916667,2119.251820072803,4598.751302083333,2125.814775091004L4558.30078125,2132.3777301092045" id="edge2" class="transition" marker-end="url(#statediagram-barbEnd)"></path><path d="M4638.828125,406.1651906931744L4575.897135416667,414.30432557764533C4512.966145833333,422.44346046211626,4387.104166666667,438.7217302310581,4324.173177083333,452.61086511552907C4261.2421875,466.5,4261.2421875,478,4261.2421875,493.4166666666667C4261.2421875,508.8333333333333,4261.2421875,528.1666666666666,4261.2421875,549.0833333333334C4261.2421875,570,4261.2421875,592.5,4261.2421875,612.3333333333334C4261.2421875,632.1666666666666,4261.2421875,649.3333333333334,4261.2421875,664.9166666666666C4261.2421875,680.5,4261.2421875,694.5,4261.2421875,707.25C4261.2421875,720,4261.2421875,731.5,4261.2421875,743C4261.2421875,754.5,4261.2421875,766,4261.2421875,780.9583333333334C4261.2421875,795.9166666666666,4261.2421875,814.3333333333334,4261.2421875,834.3333333333334C4261.2421875,854.3333333333334,4261.2421875,875.9166666666666,4261.2421875,897.5C4261.2421875,919.0833333333334,4261.2421875,940.6666666666666,4261.2421875,960.6666666666666C4261.2421875,980.6666666666666,4261.2421875,999.0833333333334,4261.2421875,1014.0416666666666C4261.2421875,1029,4261.2421875,1040.5,4261.2421875,1057.0416666666667C4261.2421875,1073.5833333333333,4261.2421875,1095.1666666666667,4261.2421875,1116.75C4261.2421875,1138.3333333333333,4261.2421875,1159.9166666666667,4261.2421875,1176.4583333333333C4261.2421875,1193,4261.2421875,1204.5,4261.2421875,1219.4583333333333C4261.2421875,1234.4166666666667,4261.2421875,1252.8333333333333,4261.2421875,1272.8333333333333C4261.2421875,1292.8333333333333,4261.2421875,1314.4166666666667,4261.2421875,1330.9583333333333C4261.2421875,1347.5,4261.2421875,1359,4261.2421875,1373.9583333333333C4261.2421875,1388.9166666666667,4261.2421875,1407.3333333333333,4261.2421875,1425.75C4261.2421875,1444.1666666666667,4261.2421875,1462.5833333333333,4261.2421875,1477.5416666666667C4261.2421875,1492.5,4261.2421875,1504,4261.2421875,1520.5416666666667C4261.2421875,1537.0833333333333,4261.2421875,1558.6666666666667,4261.2421875,1578.6666666666667C4261.2421875,1598.6666666666667,4261.2421875,1617.0833333333333,4261.2421875,1632.0416666666667C4261.2421875,1647,4261.2421875,1658.5,4261.2421875,1675.0416666666667C4261.2421875,1691.5833333333333,4261.2421875,1713.1666666666667,4261.2421875,1734.75C4261.2421875,1756.3333333333333,4261.2421875,1777.9166666666667,4261.2421875,1799.5C4261.2421875,1821.0833333333333,4261.2421875,1842.6666666666667,4261.2421875,1864.25C4261.2421875,1885.8333333333333,4261.2421875,1907.4166666666667,4261.2421875,1929C4261.2421875,1950.5833333333333,4261.2421875,1972.1666666666667,4261.2421875,1993.75C4261.2421875,2015.3333333333333,4261.2421875,2036.9166666666667,4368.788411458333,2053.4583333333335C4476.334635416667,2070,4691.427083333333,2081.5,4740.936848958333,2094.438738454712C4790.446614583333,2107.377476909424,4674.373697916667,2121.754953818848,4616.337239583333,2128.9436922735604L4558.30078125,2136.1324307282725" id="edge3" class="transition" marker-end="url(#statediagram-barbEnd)"></path><path d="M3221.7573751206564,863L3215.078411558881,868.75C3208.3994479971043,874.5,3195.041520873552,886,3188.3625573117765,902.5416666666666C3181.68359375,919.0833333333334,3181.68359375,940.6666666666666,3181.68359375,960.6666666666666C3181.68359375,980.6666666666666,3181.68359375,999.0833333333334,3181.68359375,1014.0416666666666C3181.68359375,1029,3181.68359375,1040.5,3181.68359375,1057.0416666666667C3181.68359375,1073.5833333333333,3181.68359375,1095.1666666666667,3181.68359375,1116.75C3181.68359375,1138.3333333333333,3181.68359375,1159.9166666666667,3181.68359375,1176.4583333333333C3181.68359375,1193,3181.68359375,1204.5,3181.68359375,1219.4583333333333C3181.68359375,1234.4166666666667,3181.68359375,1252.8333333333333,3181.68359375,1272.8333333333333C3181.68359375,1292.8333333333333,3181.68359375,1314.4166666666667,3181.68359375,1330.9583333333333C3181.68359375,1347.5,3181.68359375,1359,3181.68359375,1373.9583333333333C3181.68359375,1388.9166666666667,3181.68359375,1407.3333333333333,3181.68359375,1425.75C3181.68359375,1444.1666666666667,3181.68359375,1462.5833333333333,3181.68359375,1477.5416666666667C3181.68359375,1492.5,3181.68359375,1504,3181.68359375,1520.5416666666667C3181.68359375,1537.0833333333333,3181.68359375,1558.6666666666667,3181.68359375,1578.6666666666667C3181.68359375,1598.6666666666667,3181.68359375,1617.0833333333333,3181.68359375,1632.0416666666667C3181.68359375,1647,3181.68359375,1658.5,3181.68359375,1675.0416666666667C3181.68359375,1691.5833333333333,3181.68359375,1713.1666666666667,3181.68359375,1734.75C3181.68359375,1756.3333333333333,3181.68359375,1777.9166666666667,3181.68359375,1799.5C3181.68359375,1821.0833333333333,3181.68359375,1842.6666666666667,3181.68359375,1864.25C3181.68359375,1885.8333333333333,3181.68359375,1907.4166666666667,3181.68359375,1929C3181.68359375,1950.5833333333333,3181.68359375,1972.1666666666667,3181.68359375,1993.75C3181.68359375,2015.3333333333333,3181.68359375,2036.9166666666667,3381.2486979166665,2053.4583333333335C3580.8138020833335,2070,3979.9440104166665,2081.5,4185.647759945325,2091.4166666666665C4391.351509473982,2101.3333333333335,4403.628800197964,2109.6666666666665,4409.767445559955,2113.8333333333335L4415.906090921946,2118" id="edge4" class="transition" marker-end="url(#statediagram-barbEnd)"></path><path d="M4362.64453125,2159.9363577399827L4288.610677083333,2168.780298116652C4214.576822916667,2177.6242384933216,4066.5091145833335,2195.312119246661,3698.787109375,2214.4376414932244C3331.0651041666665,2233.563163739788,2743.6888020833335,2254.126327479575,2450.0006510416665,2264.4079093494693L2156.3125,2274.689491219363" id="edge5" class="transition" marker-end="url(#statediagram-barbEnd)"></path><path d="M4770.835028286638,263.25L4769.342992322198,267.875C4767.850956357758,272.5,4764.8668844288795,281.75,4763.374848464439,292.125C4761.8828125,302.5,4761.8828125,314,4761.8828125,325.5C4761.8828125,337,4761.8828125,348.5,4761.8828125,354.25L4761.8828125,360" id="edge6" class="transition" marker-end="url(#statediagram-barbEnd)"></path><path d="M4829.6204753861,420.5L4842.496229488417,426.25C4855.371983590733,432,4881.123491795367,443.5,4893.999245897684,455C4906.875,466.5,4906.875,478,4906.875,490.5833333333333C4906.875,503.1666666666667,4906.875,516.8333333333334,4906.875,523.6666666666666L4906.875,530.5" id="edge7" class="transition" marker-end="url(#statediagram-barbEnd)"></path><path d="M3273.875,673.7514261143758L3198.7135416666665,679.5428550953133C3123.5520833333335,685.3342840762506,2973.2291666666665,696.9171420381253,2898.0677083333335,708.4585710190627C2822.90625,720,2822.90625,731.5,2822.90625,743C2822.90625,754.5,2822.90625,766,2822.90625,780.9583333333334C2822.90625,795.9166666666666,2822.90625,814.3333333333334,2822.90625,834.3333333333334C2822.90625,854.3333333333334,2822.90625,875.9166666666666,2822.90625,897.5C2822.90625,919.0833333333334,2822.90625,940.6666666666666,2822.90625,960.6666666666666C2822.90625,980.6666666666666,2822.90625,999.0833333333334,2822.90625,1014.0416666666666C2822.90625,1029,2822.90625,1040.5,2822.90625,1057.0416666666667C2822.90625,1073.5833333333333,2822.90625,1095.1666666666667,2822.90625,1116.75C2822.90625,1138.3333333333333,2822.90625,1159.9166666666667,2822.90625,1176.4583333333333C2822.90625,1193,2822.90625,1204.5,2822.90625,1219.4583333333333C2822.90625,1234.4166666666667,2822.90625,1252.8333333333333,2822.90625,1272.8333333333333C2822.90625,1292.8333333333333,2822.90625,1314.4166666666667,2822.90625,1330.9583333333333C2822.90625,1347.5,2822.90625,1359,2822.90625,1373.9583333333333C2822.90625,1388.9166666666667,2822.90625,1407.3333333333333,2822.90625,1425.75C2822.90625,1444.1666666666667,2822.90625,1462.5833333333333,2822.90625,1477.5416666666667C2822.90625,1492.5,2822.90625,1504,2822.90625,1520.5416666666667C2822.90625,1537.0833333333333,2822.90625,1558.6666666666667,2822.90625,1578.6666666666667C2822.90625,1598.6666666666667,2822.90625,1617.0833333333333,2822.90625,1632.0416666666667C2822.90625,1647,2822.90625,1658.5,2822.90625,1675.0416666666667C2822.90625,1691.5833333333333,2822.90625,1713.1666666666667,2822.90625,1734.75C2822.90625,1756.3333333333333,2822.90625,1777.9166666666667,2822.90625,1799.5C2822.90625,1821.0833333333333,2822.90625,1842.6666666666667,2822.90625,1864.25C2822.90625,1885.8333333333333,2822.90625,1907.4166666666667,2822.90625,1929C2822.90625,1950.5833333333333,2822.90625,1972.1666666666667,2822.90625,1993.75C2822.90625,2015.3333333333333,2822.90625,2036.9166666666667,2822.90625,2053.4583333333335C2822.90625,2070,2822.90625,2081.5,2822.90625,2096.4583333333335C2822.90625,2111.4166666666665,2822.90625,2129.8333333333335,2822.90625,2149.8333333333335C2822.90625,2169.8333333333335,2822.90625,2191.4166666666665,2711.8072916666665,2211.748795511532C2600.7083333333335,2232.0809243563976,2378.5104166666665,2251.161848712795,2267.4114583333335,2260.7023108909934L2156.3125,2270.242773069192" id="edge8" class="transition" marker-end="url(#statediagram-barbEnd)"></path><path d="M4801.3125,552.1302632781326L4562.424479166667,562.6085527317772C4323.536458333333,573.0868421854217,3845.7604166666665,594.0434210927109,3606.8723958333335,610.2717105463554C3367.984375,626.5,3367.984375,638,3367.984375,643.75L3367.984375,649.5" id="edge9" class="transition" marker-end="url(#statediagram-barbEnd)"></path><path d="M3708.91015625,863L3708.91015625,868.75C3708.91015625,874.5,3708.91015625,886,3708.91015625,902.5416666666666C3708.91015625,919.0833333333334,3708.91015625,940.6666666666666,3708.91015625,960.6666666666666C3708.91015625,980.6666666666666,3708.91015625,999.0833333333334,3708.91015625,1014.0416666666666C3708.91015625,1029,3708.91015625,1040.5,3708.91015625,1057.0416666666667C3708.91015625,1073.5833333333333,3708.91015625,1095.1666666666667,3708.91015625,1116.75C3708.91015625,1138.3333333333333,3708.91015625,1159.9166666666667,3708.91015625,1176.4583333333333C3708.91015625,1193,3708.91015625,1204.5,3708.91015625,1219.4583333333333C3708.91015625,1234.4166666666667,3708.91015625,1252.8333333333333,3708.91015625,1272.8333333333333C3708.91015625,1292.8333333333333,3708.91015625,1314.4166666666667,3708.91015625,1330.9583333333333C3708.91015625,1347.5,3708.91015625,1359,3708.91015625,1373.9583333333333C3708.91015625,1388.9166666666667,3708.91015625,1407.3333333333333,3708.91015625,1425.75C3708.91015625,1444.1666666666667,3708.91015625,1462.5833333333333,3708.91015625,1477.5416666666667C3708.91015625,1492.5,3708.91015625,1504,3708.91015625,1520.5416666666667C3708.91015625,1537.0833333333333,3708.91015625,1558.6666666666667,3708.91015625,1578.6666666666667C3708.91015625,1598.6666666666667,3708.91015625,1617.0833333333333,3708.91015625,1632.0416666666667C3708.91015625,1647,3708.91015625,1658.5,3708.91015625,1675.0416666666667C3708.91015625,1691.5833333333333,3708.91015625,1713.1666666666667,3708.91015625,1734.75C3708.91015625,1756.3333333333333,3708.91015625,1777.9166666666667,3708.91015625,1799.5C3708.91015625,1821.0833333333333,3708.91015625,1842.6666666666667,3708.91015625,1864.25C3708.91015625,1885.8333333333333,3708.91015625,1907.4166666666667,3708.91015625,1929C3708.91015625,1950.5833333333333,3708.91015625,1972.1666666666667,3708.91015625,1993.75C3708.91015625,2015.3333333333333,3708.91015625,2036.9166666666667,3635.0677083333335,2053.4583333333335C3561.2252604166665,2070,3413.5403645833335,2081.5,3339.6979166666665,2096.4583333333335C3265.85546875,2111.4166666666665,3265.85546875,2129.8333333333335,3265.85546875,2149.8333333333335C3265.85546875,2169.8333333333335,3265.85546875,2191.4166666666665,3080.931640625,2212.211816671725C2896.0078125,2233.0069666767836,2526.16015625,2253.0139333535667,2341.236328125,2263.0174166919587L2156.3125,2273.0209000303503" id="edge10" class="transition" marker-end="url(#statediagram-barbEnd)"></path><path d="M4801.3125,554.5497391304348L4650.44921875,564.6247826086957C4499.5859375,574.6998260869565,4197.859375,594.8499130434783,3974.65625,611.9788483608587C3751.453125,629.1077836782391,3606.7734375,643.2155673564782,3534.43359375,650.2694591955977L3462.09375,657.3233510347173" id="edge11" class="transition" marker-end="url(#statediagram-barbEnd)"></path><path d="M3771.1446549773755,802.5L3779.716899981146,798.3333333333334C3788.289144984917,794.1666666666666,3805.4336349924583,785.8333333333334,3814.0058799962294,775.9166666666666C3822.578125,766,3822.578125,754.5,3822.578125,743C3822.578125,731.5,3822.578125,720,3762.4973958333335,708.6991304048944C3702.4166666666665,697.398260809789,3582.2552083333335,686.296521619578,3522.1744791666665,680.7456520244724L3462.09375,675.1947824293669" id="edge12" class="transition" marker-end="url(#statediagram-barbEnd)"></path><path d="M3323.0194382440477,683.5L3311.9986204117063,687.6666666666666C3300.9778025793653,691.8333333333334,3278.9361669146824,700.1666666666666,3267.915349082341,710.0833333333334C3256.89453125,720,3256.89453125,731.5,3256.89453125,743C3256.89453125,754.5,3256.89453125,766,3256.89453125,775.9166666666666C3256.89453125,785.8333333333334,3256.89453125,794.1666666666666,3256.89453125,798.3333333333334L3256.89453125,802.5" id="edge13" class="transition" marker-end="url(#statediagram-barbEnd)"></path><path d="M3292.0316873793436,863L3298.710650941119,868.75C3305.3896145028957,874.5,3318.747541626448,886,3325.4265051882235,902.5416666666666C3332.10546875,919.0833333333334,3332.10546875,940.6666666666666,3332.10546875,960.6666666666666C3332.10546875,980.6666666666666,3332.10546875,999.0833333333334,3332.10546875,1014.0416666666666C3332.10546875,1029,3332.10546875,1040.5,3332.10546875,1057.0416666666667C3332.10546875,1073.5833333333333,3332.10546875,1095.1666666666667,3332.10546875,1116.75C3332.10546875,1138.3333333333333,3332.10546875,1159.9166666666667,3332.10546875,1176.4583333333333C3332.10546875,1193,3332.10546875,1204.5,3332.10546875,1219.4583333333333C3332.10546875,1234.4166666666667,3332.10546875,1252.8333333333333,3332.10546875,1272.8333333333333C3332.10546875,1292.8333333333333,3332.10546875,1314.4166666666667,3332.10546875,1330.9583333333333C3332.10546875,1347.5,3332.10546875,1359,3332.10546875,1373.9583333333333C3332.10546875,1388.9166666666667,3332.10546875,1407.3333333333333,3332.10546875,1425.75C3332.10546875,1444.1666666666667,3332.10546875,1462.5833333333333,3332.10546875,1477.5416666666667C3332.10546875,1492.5,3332.10546875,1504,3332.10546875,1520.5416666666667C3332.10546875,1537.0833333333333,3332.10546875,1558.6666666666667,3332.10546875,1578.6666666666667C3332.10546875,1598.6666666666667,3332.10546875,1617.0833333333333,3332.10546875,1632.0416666666667C3332.10546875,1647,3332.10546875,1658.5,3332.10546875,1675.0416666666667C3332.10546875,1691.5833333333333,3332.10546875,1713.1666666666667,3332.10546875,1734.75C3332.10546875,1756.3333333333333,3332.10546875,1777.9166666666667,3332.10546875,1799.5C3332.10546875,1821.0833333333333,3332.10546875,1842.6666666666667,3332.10546875,1864.25C3332.10546875,1885.8333333333333,3332.10546875,1907.4166666666667,3332.10546875,1929C3332.10546875,1950.5833333333333,3332.10546875,1972.1666666666667,3332.10546875,1993.75C3332.10546875,2015.3333333333333,3332.10546875,2036.9166666666667,3281.1614583333335,2053.4583333333335C3230.2174479166665,2070,3128.3294270833335,2081.5,3077.3854166666665,2096.4583333333335C3026.44140625,2111.4166666666665,3026.44140625,2129.8333333333335,3026.44140625,2149.8333333333335C3026.44140625,2169.8333333333335,3026.44140625,2191.4166666666665,2881.419921875,2212.014749136183C2736.3984375,2232.6128316056997,2446.35546875,2252.2256632113995,2301.333984375,2262.032079014249L2156.3125,2271.838494817099" id="edge14" class="transition" marker-end="url(#statediagram-barbEnd)"></path><path d="M4906.875,564.5L4906.875,572.9166666666666C4906.875,581.3333333333334,4906.875,598.1666666666666,4906.875,615.1666666666666C4906.875,632.1666666666666,4906.875,649.3333333333334,4906.875,664.9166666666666C4906.875,680.5,4906.875,694.5,4906.875,707.25C4906.875,720,4906.875,731.5,4906.875,743C4906.875,754.5,4906.875,766,4906.875,780.9583333333334C4906.875,795.9166666666666,4906.875,814.3333333333334,4906.875,834.3333333333334C4906.875,854.3333333333334,4906.875,875.9166666666666,4883.322062017374,892.4583333333334C4859.769124034749,909,4812.663248069498,920.5,4789.110310086872,926.25L4765.557372104247,932" id="edge15" class="transition" marker-end="url(#statediagram-barbEnd)"></path><path d="M3353.27734375,838.0196311419986L3534.595703125,847.9330259516655C3715.9140625,857.8464207613324,4078.55078125,877.6732103806662,4277.670691059363,893.3366051903331C4476.790600868726,909,4512.393701737452,920.5,4530.195252171815,926.25L4547.996802606178,932" id="edge16" class="transition" marker-end="url(#statediagram-barbEnd)"></path><path d="M4542.84403280543,992.5L4529.234610671192,996.6666666666666C4515.625188536954,1000.8333333333334,4488.406344268477,1009.1666666666666,4474.796922134238,1019.0833333333334C4461.1875,1029,4461.1875,1040.5,4461.1875,1052C4461.1875,1063.5,4461.1875,1075,4461.1875,1080.75L4461.1875,1086.5" id="edge17" class="transition" marker-end="url(#statediagram-barbEnd)"></path><path d="M4666.585866798642,992.5L4670.020774415535,996.6666666666666C4673.455682032428,1000.8333333333334,4680.325497266214,1009.1666666666666,4683.760404883107,1019.0833333333334C4687.1953125,1029,4687.1953125,1040.5,4687.1953125,1057.0416666666667C4687.1953125,1073.5833333333333,4687.1953125,1095.1666666666667,4687.1953125,1116.75C4687.1953125,1138.3333333333333,4687.1953125,1159.9166666666667,4687.1953125,1176.4583333333333C4687.1953125,1193,4687.1953125,1204.5,4678.673147624434,1214.4166666666667C4670.150982748869,1224.3333333333333,4653.106652997737,1232.6666666666667,4644.584488122172,1236.8333333333333L4636.062323246606,1241" id="edge18" class="transition" marker-end="url(#statediagram-barbEnd)"></path><path d="M4461.1875,1147L4461.1875,1152.75C4461.1875,1158.5,4461.1875,1170,4461.1875,1181.5C4461.1875,1193,4461.1875,1204.5,4469.709664875566,1214.4166666666667C4478.231829751131,1224.3333333333333,4495.276159502263,1232.6666666666667,4503.798324377828,1236.8333333333333L4512.320489253394,1241" id="edge19" class="transition" marker-end="url(#statediagram-barbEnd)"></path><path d="M4474.27734375,1274.6267730767584L4171.619140625,1284.855644230632C3868.9609375,1295.0845153845055,3263.64453125,1315.5422576922529,2960.986328125,1331.5211288461264C2658.328125,1347.5,2658.328125,1359,2652.973675527903,1368.9166666666667C2647.619226055807,1378.8333333333333,2636.910327111614,1387.1666666666667,2631.5558776395173,1391.3333333333333L2626.201428167421,1395.5" id="edge20" class="transition" marker-end="url(#statediagram-barbEnd)"></path><path d="M2581.853011877828,1456L2581.098864064857,1460.1666666666667C2580.3447162518855,1464.3333333333333,2578.8364206259425,1472.6666666666667,2578.0822728129715,1482.5833333333333C2577.328125,1492.5,2577.328125,1504,2577.328125,1520.5416666666667C2577.328125,1537.0833333333333,2577.328125,1558.6666666666667,2577.328125,1578.6666666666667C2577.328125,1598.6666666666667,2577.328125,1617.0833333333333,2577.328125,1632.0416666666667C2577.328125,1647,2577.328125,1658.5,2577.328125,1675.0416666666667C2577.328125,1691.5833333333333,2577.328125,1713.1666666666667,2577.328125,1734.75C2577.328125,1756.3333333333333,2577.328125,1777.9166666666667,2577.328125,1799.5C2577.328125,1821.0833333333333,2577.328125,1842.6666666666667,2577.328125,1864.25C2577.328125,1885.8333333333333,2577.328125,1907.4166666666667,2577.328125,1929C2577.328125,1950.5833333333333,2577.328125,1972.1666666666667,2577.328125,1993.75C2577.328125,2015.3333333333333,2577.328125,2036.9166666666667,2577.328125,2053.4583333333335C2577.328125,2070,2577.328125,2081.5,2577.328125,2096.4583333333335C2577.328125,2111.4166666666665,2577.328125,2129.8333333333335,2577.328125,2149.8333333333335C2577.328125,2169.8333333333335,2577.328125,2191.4166666666665,2507.1588541666665,2211.1444568223724C2436.9895833333335,2230.8722469780782,2296.6510416666665,2248.7444939561565,2226.4817708333335,2257.6806174451954L2156.3125,2266.6167409342347" id="edge21" class="transition" marker-end="url(#statediagram-barbEnd)"></path><path d="M4362.64453125,2169.37887632251L4328.983072916667,2176.6490636020917C4295.321614583333,2183.9192508816736,4227.998697916667,2198.4596254408366,3860.2766927083335,2216.0704637884915C3492.5546875,2233.6813021361463,2824.43359375,2254.362604272293,2490.373046875,2264.703255340366L2156.3125,2275.0439064084394" id="edge22" class="transition" marker-end="url(#statediagram-barbEnd)"></path><path d="M4884.9375,418.08355848479886L4912.139322916667,424.2362987373324C4939.341145833333,430.3890389898659,4993.744791666667,442.694519494933,5020.946614583333,454.59725974746647C5048.1484375,466.5,5048.1484375,478,5048.1484375,493.4166666666667C5048.1484375,508.8333333333333,5048.1484375,528.1666666666666,5048.1484375,549.0833333333334C5048.1484375,570,5048.1484375,592.5,5048.1484375,612.3333333333334C5048.1484375,632.1666666666666,5048.1484375,649.3333333333334,5048.1484375,664.9166666666666C5048.1484375,680.5,5048.1484375,694.5,5048.1484375,707.25C5048.1484375,720,5048.1484375,731.5,5048.1484375,743C5048.1484375,754.5,5048.1484375,766,5048.1484375,780.9583333333334C5048.1484375,795.9166666666666,5048.1484375,814.3333333333334,5048.1484375,834.3333333333334C5048.1484375,854.3333333333334,5048.1484375,875.9166666666666,5048.1484375,897.5C5048.1484375,919.0833333333334,5048.1484375,940.6666666666666,5048.1484375,960.6666666666666C5048.1484375,980.6666666666666,5048.1484375,999.0833333333334,5048.1484375,1014.0416666666666C5048.1484375,1029,5048.1484375,1040.5,5048.1484375,1057.0416666666667C5048.1484375,1073.5833333333333,5048.1484375,1095.1666666666667,5048.1484375,1116.75C5048.1484375,1138.3333333333333,5048.1484375,1159.9166666666667,5048.1484375,1176.4583333333333C5048.1484375,1193,5048.1484375,1204.5,5048.1484375,1219.4583333333333C5048.1484375,1234.4166666666667,5048.1484375,1252.8333333333333,5048.1484375,1272.8333333333333C5048.1484375,1292.8333333333333,5048.1484375,1314.4166666666667,5048.1484375,1330.9583333333333C5048.1484375,1347.5,5048.1484375,1359,5048.1484375,1373.9583333333333C5048.1484375,1388.9166666666667,5048.1484375,1407.3333333333333,5048.1484375,1425.75C5048.1484375,1444.1666666666667,5048.1484375,1462.5833333333333,5048.1484375,1477.5416666666667C5048.1484375,1492.5,5048.1484375,1504,5048.1484375,1520.5416666666667C5048.1484375,1537.0833333333333,5048.1484375,1558.6666666666667,5048.1484375,1578.6666666666667C5048.1484375,1598.6666666666667,5048.1484375,1617.0833333333333,5048.1484375,1632.0416666666667C5048.1484375,1647,5048.1484375,1658.5,5048.1484375,1675.0416666666667C5048.1484375,1691.5833333333333,5048.1484375,1713.1666666666667,5048.1484375,1734.75C5048.1484375,1756.3333333333333,5048.1484375,1777.9166666666667,5048.1484375,1799.5C5048.1484375,1821.0833333333333,5048.1484375,1842.6666666666667,5048.1484375,1864.25C5048.1484375,1885.8333333333333,5048.1484375,1907.4166666666667,5048.1484375,1929C5048.1484375,1950.5833333333333,5048.1484375,1972.1666666666667,5048.1484375,1993.75C5048.1484375,2015.3333333333333,5048.1484375,2036.9166666666667,4839.822265625,2053.4583333333335C4631.49609375,2070,4214.84375,2081.5,4006.517578125,2096.4583333333335C3798.19140625,2111.4166666666665,3798.19140625,2129.8333333333335,3798.19140625,2149.8333333333335C3798.19140625,2169.8333333333335,3798.19140625,2191.4166666666665,3524.544921875,2212.4544455512864C3250.8984375,2233.492224435906,2703.60546875,2253.9844488718118,2429.958984375,2264.2305610897647L2156.3125,2274.4766733077176" id="edge23" class="transition" marker-end="url(#statediagram-barbEnd)"></path><path d="M2659.5996182126696,1456L2669.5543693438913,1460.1666666666667C2679.509120475113,1464.3333333333333,2699.4186227375562,1472.6666666666667,2455.0393894937783,1482.5833333333333C2210.66015625,1492.5,1701.9921875,1504,1420.119140625,1516.401427946962C1138.24609375,1528.802855893924,1083.16796875,1542.105711787848,1055.62890625,1548.75713973481L1028.08984375,1555.4085676817717" id="edge24" class="transition" marker-end="url(#statediagram-barbEnd)"></path><path d="M822.38671875,1587.4142994686117L707.3326822916666,1595.4285828905097C592.2786458333334,1603.442866312408,362.1705729166667,1619.4714331562038,247.11653645833334,1633.235716578102C132.0625,1647,132.0625,1658.5,132.0625,1675.0416666666667C132.0625,1691.5833333333333,132.0625,1713.1666666666667,132.0625,1734.75C132.0625,1756.3333333333333,132.0625,1777.9166666666667,132.0625,1799.5C132.0625,1821.0833333333333,132.0625,1842.6666666666667,132.0625,1864.25C132.0625,1885.8333333333333,132.0625,1907.4166666666667,132.0625,1929C132.0625,1950.5833333333333,132.0625,1972.1666666666667,132.0625,1993.75C132.0625,2015.3333333333333,132.0625,2036.9166666666667,378.365234375,2053.4583333333335C624.66796875,2070,1117.2734375,2081.5,1363.576171875,2096.4583333333335C1609.87890625,2111.4166666666665,1609.87890625,2129.8333333333335,1609.87890625,2149.8333333333335C1609.87890625,2169.8333333333335,1609.87890625,2191.4166666666665,1671.810546875,2210.944654361017C1733.7421875,2230.472642055367,1857.60546875,2247.9452841107336,1919.537109375,2256.681605138417L1981.46875,2265.4179261661006" id="edge25" class="transition" marker-end="url(#statediagram-barbEnd)"></path><path d="M1271.49609375,1749.7469447102997L1189.95703125,1758.0391205919166C1108.41796875,1766.331296473533,945.33984375,1782.9156482367664,863.80078125,1801.9994907850498C782.26171875,1821.0833333333333,782.26171875,1842.6666666666667,782.26171875,1864.25C782.26171875,1885.8333333333333,782.26171875,1907.4166666666667,782.26171875,1929C782.26171875,1950.5833333333333,782.26171875,1972.1666666666667,782.26171875,1993.75C782.26171875,2015.3333333333333,782.26171875,2036.9166666666667,977.4563802083334,2053.4583333333335C1172.6510416666667,2070,1563.0403645833333,2081.5,1758.2350260416667,2096.4583333333335C1953.4296875,2111.4166666666665,1953.4296875,2129.8333333333335,1953.4296875,2149.8333333333335C1953.4296875,2169.8333333333335,1953.4296875,2191.4166666666665,1963.6829753861002,2207.9583333333335C1973.9362632722007,2224.5,1994.4428390444016,2236,2004.6961269305018,2241.75L2014.9494148166023,2247.5" id="edge26" class="transition" marker-end="url(#statediagram-barbEnd)"></path><path d="M1205.2212385376447,1894.5L1189.7930894063704,1900.25C1174.3649402750964,1906,1143.5086420125483,1917.5,1128.080492881274,1934.0416666666667C1112.65234375,1950.5833333333333,1112.65234375,1972.1666666666667,1112.65234375,1993.75C1112.65234375,2015.3333333333333,1112.65234375,2036.9166666666667,1282.1412760416667,2053.4583333333335C1451.6302083333333,2070,1790.6080729166667,2081.5,1960.0970052083333,2096.4583333333335C2129.5859375,2111.4166666666665,2129.5859375,2129.8333333333335,2129.5859375,2149.8333333333335C2129.5859375,2169.8333333333335,2129.5859375,2191.4166666666665,2124.1960062741314,2207.9583333333335C2118.8060750482623,2224.5,2108.026212596525,2236,2102.6362813706564,2241.75L2097.246350144788,2247.5" id="edge27" class="transition" marker-end="url(#statediagram-barbEnd)"></path><path d="M1003.0859375,2170.7257629313194L1048.060546875,2177.771469109433C1093.03515625,2184.8171752875464,1182.984375,2198.908587643773,1346.0481770833333,2215.56068578485C1509.1119791666667,2232.212783925928,1745.2903645833333,2251.4255678518552,1863.3795572916667,2261.0319598148194L1981.46875,2270.638351777783" id="edge28" class="transition" marker-end="url(#statediagram-barbEnd)"></path><path d="M822.38671875,1590.5540246208768L747.6139322916666,1598.0450205173972C672.8411458333334,1605.5360164139177,523.2955729166666,1620.518008206959,448.5227864583333,1633.7590041034794C373.75,1647,373.75,1658.5,373.75,1675.0416666666667C373.75,1691.5833333333333,373.75,1713.1666666666667,373.75,1734.75C373.75,1756.3333333333333,373.75,1777.9166666666667,373.75,1799.5C373.75,1821.0833333333333,373.75,1842.6666666666667,373.75,1864.25C373.75,1885.8333333333333,373.75,1907.4166666666667,373.75,1929C373.75,1950.5833333333333,373.75,1972.1666666666667,373.75,1993.75C373.75,2015.3333333333333,373.75,2036.9166666666667,601.5787760416666,2053.4583333333335C829.4075520833334,2070,1285.0651041666667,2081.5,1512.8938802083333,2096.4583333333335C1740.72265625,2111.4166666666665,1740.72265625,2129.8333333333335,1740.72265625,2149.8333333333335C1740.72265625,2169.8333333333335,1740.72265625,2191.4166666666665,1780.8470052083333,2210.1251681327444C1820.9713541666667,2228.8336695988223,1901.2200520833333,2244.6673391976447,1941.3444010416667,2252.584173997056L1981.46875,2260.501008796467" id="edge29" class="transition" marker-end="url(#statediagram-barbEnd)"></path><path d="M822.38671875,1599.0447507138151L789.1373697916666,1605.1206255948462C755.8880208333334,1611.1965004758767,689.3893229166666,1623.3482502379384,656.1399739583334,1635.1741251189694C622.890625,1647,622.890625,1658.5,622.890625,1675.0416666666667C622.890625,1691.5833333333333,622.890625,1713.1666666666667,622.890625,1734.75C622.890625,1756.3333333333333,622.890625,1777.9166666666667,622.890625,1799.5C622.890625,1821.0833333333333,622.890625,1842.6666666666667,622.890625,1864.25C622.890625,1885.8333333333333,622.890625,1907.4166666666667,622.890625,1929C622.890625,1950.5833333333333,622.890625,1972.1666666666667,622.890625,1993.75C622.890625,2015.3333333333333,622.890625,2036.9166666666667,831.6243489583334,2053.4583333333335C1040.3580729166667,2070,1457.8255208333333,2081.5,1666.5592447916667,2096.4583333333335C1875.29296875,2111.4166666666665,1875.29296875,2129.8333333333335,1875.29296875,2149.8333333333335C1875.29296875,2169.8333333333335,1875.29296875,2191.4166666666665,1892.9889322916667,2208.1268638647325C1910.6848958333333,2224.837061062798,1946.0768229166667,2236.674122125596,1963.7727864583333,2242.592652656995L1981.46875,2248.511183188394" id="edge30" class="transition" marker-end="url(#statediagram-barbEnd)"></path><path d="M1028.08984375,1591.7595059892083L1093.2356770833333,1599.0495883243402C1158.3815104166667,1606.3396706594722,1288.6731770833333,1620.919835329736,1353.8190104166667,1633.959917664868C1418.96484375,1647,1418.96484375,1658.5,1418.96484375,1670C1418.96484375,1681.5,1418.96484375,1693,1418.96484375,1698.75L1418.96484375,1704.5" id="edge31" class="transition" marker-end="url(#statediagram-barbEnd)"></path><path d="M1271.49609375,1755.8187800589544L1220.5390625,1763.0989833824622C1169.58203125,1770.3791867059697,1067.66796875,1784.939593352985,1016.7109375,1803.0114633431592C965.75390625,1821.0833333333333,965.75390625,1842.6666666666667,965.75390625,1864.25C965.75390625,1885.8333333333333,965.75390625,1907.4166666666667,965.75390625,1929C965.75390625,1950.5833333333333,965.75390625,1972.1666666666667,965.75390625,1993.75C965.75390625,2015.3333333333333,965.75390625,2036.9166666666667,1147.32421875,2053.4583333333335C1328.89453125,2070,1692.03515625,2081.5,1873.60546875,2096.4583333333335C2055.17578125,2111.4166666666665,2055.17578125,2129.8333333333335,2055.17578125,2149.8333333333335C2055.17578125,2169.8333333333335,2055.17578125,2191.4166666666665,2056.393701737452,2207.9583333333335C2057.6116222249034,2224.5,2060.047463199807,2236,2061.265383687259,2241.75L2062.4833041747106,2247.5" id="edge32" class="transition" marker-end="url(#statediagram-barbEnd)"></path><path d="M1357.026800796332,1765L1345.2534537886102,1770.75C1333.480106780888,1776.5,1309.933412765444,1788,1298.1600657577221,1799.5C1286.38671875,1811,1286.38671875,1822.5,1286.38671875,1828.25L1286.38671875,1834" id="edge33" class="transition" marker-end="url(#statediagram-barbEnd)"></path><path d="M1323.4144998793436,1894.5L1330.4528384411196,1900.25C1337.4911770028957,1906,1351.5678541264479,1917.5,1358.606192688224,1934.0416666666667C1365.64453125,1950.5833333333333,1365.64453125,1972.1666666666667,1365.64453125,1993.75C1365.64453125,2015.3333333333333,1365.64453125,2036.9166666666667,1515.7174479166667,2053.4583333333335C1665.7903645833333,2070,1965.9361979166667,2081.5,2116.0091145833335,2096.4583333333335C2266.08203125,2111.4166666666665,2266.08203125,2129.8333333333335,2266.08203125,2149.8333333333335C2266.08203125,2169.8333333333335,2266.08203125,2191.4166666666665,2247.787109375,2208.2156752045325C2229.4921875,2225.014683742398,2192.90234375,2237.0293674847962,2174.607421875,2243.0367093559953L2156.3125,2249.0440512271944" id="edge34" class="transition" marker-end="url(#statediagram-barbEnd)"></path><path d="M1566.43359375,1748.4408247734477L1658.0963541666667,1756.9506873112066C1749.7591145833333,1765.4605498489652,1933.0846354166667,1782.4802749244827,2024.7473958333333,1801.781804128908C2116.41015625,1821.0833333333333,2116.41015625,1842.6666666666667,2116.41015625,1864.25C2116.41015625,1885.8333333333333,2116.41015625,1907.4166666666667,2059.3196614583335,1926.4998181945623C2002.2291666666667,1945.5829697224583,1888.0481770833333,1962.1659394449168,1830.9576822916667,1970.4574243061459L1773.8671875,1978.748909167375" id="edge35" class="transition" marker-end="url(#statediagram-barbEnd)"></path><path d="M1410.5274191602316,1894.5L1434.124411800193,1900.25C1457.7214044401544,1906,1504.915389720077,1917.5,1539.0327732866797,1929C1573.150156853282,1940.5,1594.1909387065637,1952,1604.7113296332045,1957.75L1615.2317205598456,1963.5" id="edge36" class="transition" marker-end="url(#statediagram-barbEnd)"></path><path d="M1670.578125,2024L1670.578125,2029.75C1670.578125,2035.5,1670.578125,2047,1535.41796875,2058.5C1400.2578125,2070,1129.9375,2081.5,994.77734375,2091.4166666666665C859.6171875,2101.3333333333335,859.6171875,2109.6666666666665,859.6171875,2113.8333333333335L859.6171875,2118" id="edge37" class="transition" marker-end="url(#statediagram-barbEnd)"></path><path d="M716.1484375,2176.699689559881L685.638671875,2182.7497412999005C655.12890625,2188.7997930399206,594.109375,2200.8998965199603,563.599609375,2217.741614926647C533.08984375,2234.5833333333335,533.08984375,2256.1666666666665,533.08984375,2276.1666666666665C533.08984375,2296.1666666666665,533.08984375,2314.5833333333335,533.08984375,2329.5416666666665C533.08984375,2344.5,533.08984375,2356,533.08984375,2367.5C533.08984375,2379,533.08984375,2390.5,533.08984375,2396.25L533.08984375,2402" id="edge38" class="transition" marker-end="url(#statediagram-barbEnd)"></path><path d="M803.155752292471,2178.5L792.4234133687258,2184.25C781.6910744449806,2190,760.2263965974903,2201.5,749.494057673745,2218.0416666666665C738.76171875,2234.5833333333335,738.76171875,2256.1666666666665,738.76171875,2276.1666666666665C738.76171875,2296.1666666666665,738.76171875,2314.5833333333335,738.76171875,2329.5416666666665C738.76171875,2344.5,738.76171875,2356,738.76171875,2367.5C738.76171875,2379,738.76171875,2390.5,738.76171875,2396.25L738.76171875,2402" id="edge39" class="transition" marker-end="url(#statediagram-barbEnd)"></path><path d="M916.078622707529,2178.5L926.8109616312742,2184.25C937.5433005550194,2190,959.0079784025097,2201.5,969.7403173262547,2218.0416666666665C980.47265625,2234.5833333333335,980.47265625,2256.1666666666665,980.47265625,2276.1666666666665C980.47265625,2296.1666666666665,980.47265625,2314.5833333333335,980.47265625,2329.5416666666665C980.47265625,2344.5,980.47265625,2356,1568.1692708333333,2370.1703737634557C2155.8658854166665,2384.340747526912,3331.2591145833335,2401.1814950538233,3918.9557291666665,2409.6018688172794L4506.65234375,2418.022242580735" id="edge40" class="transition" marker-end="url(#statediagram-barbEnd)"></path><path d="M2068.890625,2308L2068.890625,2312.1666666666665C2068.890625,2316.3333333333335,2068.890625,2324.6666666666665,2068.890625,2334.5833333333335C2068.890625,2344.5,2068.890625,2356,2475.1842447916665,2370.099596489888C2881.4778645833335,2384.1991929797764,3694.0651041666665,2400.8983859595523,4100.358723958333,2409.2479824494408L4506.65234375,2417.5975789393287" id="edge41" class="transition" marker-end="url(#statediagram-barbEnd)"></path><path d="M4558.30078125,2155.2932646785443L4691.888020833333,2164.911053898787C4825.475260416667,2174.5288431190297,5092.649739583333,2193.764421559515,5226.236979166667,2214.1738774464243C5359.82421875,2234.5833333333335,5359.82421875,2256.1666666666665,5359.82421875,2276.1666666666665C5359.82421875,2296.1666666666665,5359.82421875,2314.5833333333335,5359.82421875,2329.5416666666665C5359.82421875,2344.5,5359.82421875,2356,5240.376302083333,2369.5870939541423C5120.928385416667,2383.174187908285,4882.032552083333,2398.8483758165708,4762.584635416667,2406.685469770713L4643.13671875,2414.522563724856" id="edge42" class="transition" marker-end="url(#statediagram-barbEnd)"></path><path d="M4915.125,242.6560592071234L5027.382161458333,250.71338267260285C5139.639322916667,258.7707061380823,5364.153645833333,274.8853530690412,5476.410807291667,288.69267653452056C5588.66796875,302.5,5588.66796875,314,5588.66796875,330.5416666666667C5588.66796875,347.0833333333333,5588.66796875,368.6666666666667,5588.66796875,390.25C5588.66796875,411.8333333333333,5588.66796875,433.4166666666667,5588.66796875,449.9583333333333C5588.66796875,466.5,5588.66796875,478,5588.66796875,493.4166666666667C5588.66796875,508.8333333333333,5588.66796875,528.1666666666666,5588.66796875,549.0833333333334C5588.66796875,570,5588.66796875,592.5,5588.66796875,612.3333333333334C5588.66796875,632.1666666666666,5588.66796875,649.3333333333334,5588.66796875,664.9166666666666C5588.66796875,680.5,5588.66796875,694.5,5588.66796875,707.25C5588.66796875,720,5588.66796875,731.5,5588.66796875,743C5588.66796875,754.5,5588.66796875,766,5588.66796875,780.9583333333334C5588.66796875,795.9166666666666,5588.66796875,814.3333333333334,5588.66796875,834.3333333333334C5588.66796875,854.3333333333334,5588.66796875,875.9166666666666,5588.66796875,897.5C5588.66796875,919.0833333333334,5588.66796875,940.6666666666666,5588.66796875,960.6666666666666C5588.66796875,980.6666666666666,5588.66796875,999.0833333333334,5588.66796875,1014.0416666666666C5588.66796875,1029,5588.66796875,1040.5,5588.66796875,1057.0416666666667C5588.66796875,1073.5833333333333,5588.66796875,1095.1666666666667,5588.66796875,1116.75C5588.66796875,1138.3333333333333,5588.66796875,1159.9166666666667,5588.66796875,1176.4583333333333C5588.66796875,1193,5588.66796875,1204.5,5588.66796875,1219.4583333333333C5588.66796875,1234.4166666666667,5588.66796875,1252.8333333333333,5588.66796875,1272.8333333333333C5588.66796875,1292.8333333333333,5588.66796875,1314.4166666666667,5588.66796875,1330.9583333333333C5588.66796875,1347.5,5588.66796875,1359,5588.66796875,1373.9583333333333C5588.66796875,1388.9166666666667,5588.66796875,1407.3333333333333,5588.66796875,1425.75C5588.66796875,1444.1666666666667,5588.66796875,1462.5833333333333,5588.66796875,1477.5416666666667C5588.66796875,1492.5,5588.66796875,1504,5588.66796875,1520.5416666666667C5588.66796875,1537.0833333333333,5588.66796875,1558.6666666666667,5588.66796875,1578.6666666666667C5588.66796875,1598.6666666666667,5588.66796875,1617.0833333333333,5588.66796875,1632.0416666666667C5588.66796875,1647,5588.66796875,1658.5,5588.66796875,1675.0416666666667C5588.66796875,1691.5833333333333,5588.66796875,1713.1666666666667,5588.66796875,1734.75C5588.66796875,1756.3333333333333,5588.66796875,1777.9166666666667,5588.66796875,1799.5C5588.66796875,1821.0833333333333,5588.66796875,1842.6666666666667,5588.66796875,1864.25C5588.66796875,1885.8333333333333,5588.66796875,1907.4166666666667,5588.66796875,1929C5588.66796875,1950.5833333333333,5588.66796875,1972.1666666666667,5588.66796875,1993.75C5588.66796875,2015.3333333333333,5588.66796875,2036.9166666666667,5588.66796875,2053.4583333333335C5588.66796875,2070,5588.66796875,2081.5,5588.66796875,2096.4583333333335C5588.66796875,2111.4166666666665,5588.66796875,2129.8333333333335,5588.66796875,2149.8333333333335C5588.66796875,2169.8333333333335,5588.66796875,2191.4166666666665,5588.66796875,2213C5588.66796875,2234.5833333333335,5588.66796875,2256.1666666666665,5588.66796875,2276.1666666666665C5588.66796875,2296.1666666666665,5588.66796875,2314.5833333333335,5588.66796875,2329.5416666666665C5588.66796875,2344.5,5588.66796875,2356,5431.079427083333,2369.7555460082353C5273.490885416667,2383.511092016471,4958.313802083333,2399.522184032942,4800.725260416667,2407.5277300411776L4643.13671875,2415.533276049413" id="edge43" class="transition" marker-end="url(#statediagram-barbEnd)"></path><path d="M4884.9375,401.15328848548995L4986.223307291667,410.127740404575C5087.509114583333,419.10219232365995,5290.080729166667,437.05109616183,5391.366536458333,451.77554808091503C5492.65234375,466.5,5492.65234375,478,5492.65234375,493.4166666666667C5492.65234375,508.8333333333333,5492.65234375,528.1666666666666,5492.65234375,549.0833333333334C5492.65234375,570,5492.65234375,592.5,5492.65234375,612.3333333333334C5492.65234375,632.1666666666666,5492.65234375,649.3333333333334,5492.65234375,664.9166666666666C5492.65234375,680.5,5492.65234375,694.5,5492.65234375,707.25C5492.65234375,720,5492.65234375,731.5,5492.65234375,743C5492.65234375,754.5,5492.65234375,766,5492.65234375,780.9583333333334C5492.65234375,795.9166666666666,5492.65234375,814.3333333333334,5492.65234375,834.3333333333334C5492.65234375,854.3333333333334,5492.65234375,875.9166666666666,5492.65234375,897.5C5492.65234375,919.0833333333334,5492.65234375,940.6666666666666,5492.65234375,960.6666666666666C5492.65234375,980.6666666666666,5492.65234375,999.0833333333334,5492.65234375,1014.0416666666666C5492.65234375,1029,5492.65234375,1040.5,5492.65234375,1057.0416666666667C5492.65234375,1073.5833333333333,5492.65234375,1095.1666666666667,5492.65234375,1116.75C5492.65234375,1138.3333333333333,5492.65234375,1159.9166666666667,5492.65234375,1176.4583333333333C5492.65234375,1193,5492.65234375,1204.5,5492.65234375,1219.4583333333333C5492.65234375,1234.4166666666667,5492.65234375,1252.8333333333333,5492.65234375,1272.8333333333333C5492.65234375,1292.8333333333333,5492.65234375,1314.4166666666667,5492.65234375,1330.9583333333333C5492.65234375,1347.5,5492.65234375,1359,5492.65234375,1373.9583333333333C5492.65234375,1388.9166666666667,5492.65234375,1407.3333333333333,5492.65234375,1425.75C5492.65234375,1444.1666666666667,5492.65234375,1462.5833333333333,5492.65234375,1477.5416666666667C5492.65234375,1492.5,5492.65234375,1504,5492.65234375,1520.5416666666667C5492.65234375,1537.0833333333333,5492.65234375,1558.6666666666667,5492.65234375,1578.6666666666667C5492.65234375,1598.6666666666667,5492.65234375,1617.0833333333333,5492.65234375,1632.0416666666667C5492.65234375,1647,5492.65234375,1658.5,5492.65234375,1675.0416666666667C5492.65234375,1691.5833333333333,5492.65234375,1713.1666666666667,5492.65234375,1734.75C5492.65234375,1756.3333333333333,5492.65234375,1777.9166666666667,5492.65234375,1799.5C5492.65234375,1821.0833333333333,5492.65234375,1842.6666666666667,5492.65234375,1864.25C5492.65234375,1885.8333333333333,5492.65234375,1907.4166666666667,5492.65234375,1929C5492.65234375,1950.5833333333333,5492.65234375,1972.1666666666667,5492.65234375,1993.75C5492.65234375,2015.3333333333333,5492.65234375,2036.9166666666667,5492.65234375,2053.4583333333335C5492.65234375,2070,5492.65234375,2081.5,5492.65234375,2096.4583333333335C5492.65234375,2111.4166666666665,5492.65234375,2129.8333333333335,5492.65234375,2149.8333333333335C5492.65234375,2169.8333333333335,5492.65234375,2191.4166666666665,5492.65234375,2213C5492.65234375,2234.5833333333335,5492.65234375,2256.1666666666665,5492.65234375,2276.1666666666665C5492.65234375,2296.1666666666665,5492.65234375,2314.5833333333335,5492.65234375,2329.5416666666665C5492.65234375,2344.5,5492.65234375,2356,5351.06640625,2369.6950980225242C5209.48046875,2383.390196045049,4926.30859375,2399.2803920900974,4784.72265625,2407.2254901126216L4643.13671875,2415.170588135146" id="edge44" class="transition" marker-end="url(#statediagram-barbEnd)"></path><path d="M3459.969680059524,683.5L3482.51509796627,687.6666666666666C3505.060515873016,691.8333333333334,3550.1513516865075,700.1666666666666,3572.696769593254,710.0833333333334C3595.2421875,720,3595.2421875,731.5,3595.2421875,743C3595.2421875,754.5,3595.2421875,766,3603.8144325037706,775.9166666666666C3612.3866775075417,785.8333333333334,3629.531167515083,794.1666666666666,3638.103412518854,798.3333333333334L3646.6756575226245,802.5" id="edge45" class="transition" marker-end="url(#statediagram-barbEnd)"></path><path d="M4729.887584841629,992.5L4742.041737368024,996.6666666666666C4754.195889894419,1000.8333333333334,4778.50419494721,1009.1666666666666,4790.658347473604,1019.0833333333334C4802.8125,1029,4802.8125,1040.5,4802.8125,1057.0416666666667C4802.8125,1073.5833333333333,4802.8125,1095.1666666666667,4802.8125,1116.75C4802.8125,1138.3333333333333,4802.8125,1159.9166666666667,4802.8125,1176.4583333333333C4802.8125,1193,4802.8125,1204.5,4802.8125,1219.4583333333333C4802.8125,1234.4166666666667,4802.8125,1252.8333333333333,4802.8125,1272.8333333333333C4802.8125,1292.8333333333333,4802.8125,1314.4166666666667,4802.8125,1330.9583333333333C4802.8125,1347.5,4802.8125,1359,4802.8125,1373.9583333333333C4802.8125,1388.9166666666667,4802.8125,1407.3333333333333,4802.8125,1425.75C4802.8125,1444.1666666666667,4802.8125,1462.5833333333333,4802.8125,1477.5416666666667C4802.8125,1492.5,4802.8125,1504,4802.8125,1520.5416666666667C4802.8125,1537.0833333333333,4802.8125,1558.6666666666667,4802.8125,1578.6666666666667C4802.8125,1598.6666666666667,4802.8125,1617.0833333333333,4802.8125,1632.0416666666667C4802.8125,1647,4802.8125,1658.5,4802.8125,1675.0416666666667C4802.8125,1691.5833333333333,4802.8125,1713.1666666666667,4802.8125,1734.75C4802.8125,1756.3333333333333,4802.8125,1777.9166666666667,4802.8125,1799.5C4802.8125,1821.0833333333333,4802.8125,1842.6666666666667,4802.8125,1864.25C4802.8125,1885.8333333333333,4802.8125,1907.4166666666667,4802.8125,1929C4802.8125,1950.5833333333333,4802.8125,1972.1666666666667,4802.8125,1993.75C4802.8125,2015.3333333333333,4802.8125,2036.9166666666667,4621.876953125,2053.4583333333335C4440.94140625,2070,4079.0703125,2081.5,3898.134765625,2096.4583333333335C3717.19921875,2111.4166666666665,3717.19921875,2129.8333333333335,3717.19921875,2149.8333333333335C3717.19921875,2169.8333333333335,3717.19921875,2191.4166666666665,3457.0514322916665,2212.427638891193C3196.9036458333335,2233.438611115719,2676.6080729166665,2253.8772222314383,2416.4602864583335,2264.096527789298L2156.3125,2274.3158333471574" id="edge46" class="transition" marker-end="url(#statediagram-barbEnd)"></path><path d="M216.125,1450.75L216.125,1455.7916666666667C216.125,1460.8333333333333,216.125,1470.9166666666667,216.125,1481.7083333333333C216.125,1492.5,216.125,1504,317.1686197916667,1518.9764163632324C418.2122395833333,1533.952832726465,620.2994791666666,1552.4056654529297,721.3430989583334,1561.632081816162L822.38671875,1570.8584981793945" class="transition note-edge"></path><path d="M1401.75390625,2173.25L1401.75390625,2179.875C1401.75390625,2186.5,1401.75390625,2199.75,1498.373046875,2215.7525221474702C1594.9921875,2231.7550442949405,1788.23046875,2250.510088589881,1884.849609375,2259.887610737351L1981.46875,2269.2651328848215" class="transition note-edge"></path><path d="M2873.78125,580.5L2873.78125,586.25C2873.78125,592,2873.78125,603.5,2940.4635416666665,616.1988391455099C3007.1458333333335,628.8976782910198,3140.5104166666665,642.7953565820397,3207.1927083333335,649.7441957275496L3273.875,656.6930348730596" class="transition note-edge"></path><path d="M4641.6484375,857.75L4641.6484375,864.375C4641.6484375,871,4641.6484375,884.25,4641.6484375,896.625C4641.6484375,909,4641.6484375,920.5,4641.6484375,926.25L4641.6484375,932" class="transition note-edge"></path><path d="M2516.328125,1296.25L2516.328125,1302.875C2516.328125,1309.5,2516.328125,1322.75,2516.328125,1335.125C2516.328125,1347.5,2516.328125,1359,2521.682574472097,1368.9166666666667C2527.037023944193,1378.8333333333333,2537.745922888386,1387.1666666666667,2543.1003723604827,1391.3333333333333L2548.454821832579,1395.5" class="transition note-edge"></path><path d="M4574.89453125,2436L4574.89453125,2440.1666666666665C4574.89453125,2444.3333333333335,4574.89453125,2452.6666666666665,3976.687453815835,2462.1562858709653C3378.4803763816694,2471.645905075264,2182.066221513339,2482.291810150529,1583.8591440791736,2487.614762688161L985.6520666450082,2492.9377152257935" id="edge47" class="transition" marker-end="url(#statediagram-barbEnd)"></path><path d="M533.08984375,2436L533.08984375,2440.1666666666665C533.08984375,2444.3333333333335,533.08984375,2452.6666666666665,606.1865910027815,2462.0830927096026C679.2833382555631,2471.4995187525387,825.476832761126,2481.9990375050775,898.5735800139076,2487.248796881347L971.6703272666891,2492.498556257616" id="edge48" class="transition" marker-end="url(#statediagram-barbEnd)"></path><path d="M738.76171875,2436L738.76171875,2440.1666666666665C738.76171875,2444.3333333333335,738.76171875,2452.6666666666665,777.5870662443139,2462.0124065873133C816.4124137386276,2471.35814650796,894.0631087272553,2481.7162930159197,932.8884562215691,2486.8953662699L971.713803715883,2492.07443952388" id="edge49" class="transition" marker-end="url(#statediagram-barbEnd)"></path></g><g class="edgeLabels"><g class="edgeLabel"><g class="label" transform="translate(0, 0)"><rect rx="0" ry="0" width="0" height="0" style="fill:#e8e8e8;"></rect><text style=""></text></g></g><g class="edgeLabel"><g class="label" transform="translate(0, 0)"><rect rx="0" ry="0" width="0" height="0" style="fill:#e8e8e8;"></rect><text style=""></text></g></g><g class="edgeLabel" transform="translate(1896.0703125, 165.5)"><g class="label" transform="translate(-68.6875, -9.5)"><rect rx="0" ry="0" width="137.296875" height="19.03125" style="fill:#e8e8e8;"></rect><text style=""><tspan xml:space="preserve" dy="1em" x="0" class="row">ProviderEventOpen</tspan></text></g></g><g class="edgeLabel" transform="translate(4123.11328125, 1181.5)"><g class="label" transform="translate(-98.203125, -9.5)"><rect rx="0" ry="0" width="196.296875" height="19.03125" style="fill:#e8e8e8;"></rect><text style=""><tspan xml:space="preserve" dy="1em" x="0" class="row">ProviderEventDealRejected</tspan></text></g></g><g class="edgeLabel" transform="translate(4261.2421875, 1271.25)"><g class="label" transform="translate(-98.203125, -9.5)"><rect rx="0" ry="0" width="196.296875" height="19.03125" style="fill:#e8e8e8;"></rect><text style=""><tspan xml:space="preserve" dy="1em" x="0" class="row">ProviderEventDealRejected</tspan></text></g></g><g class="edgeLabel" transform="translate(3181.68359375, 1515.5)"><g class="label" transform="translate(-98.203125, -9.5)"><rect rx="0" ry="0" width="196.296875" height="19.03125" style="fill:#e8e8e8;"></rect><text style=""><tspan xml:space="preserve" dy="1em" x="0" class="row">ProviderEventDealRejected</tspan></text></g></g><g class="edgeLabel" transform="translate(3918.44140625, 2213)"><g class="label" transform="translate(-100.25, -9.5)"><rect rx="0" ry="0" width="200.375" height="19.03125" style="fill:#e8e8e8;"></rect><text style=""><tspan xml:space="preserve" dy="1em" x="0" class="row">ProviderEventRejectionSent</tspan></text></g></g><g class="edgeLabel" transform="translate(4761.8828125, 325.5)"><g class="label" transform="translate(-96.5703125, -9.5)"><rect rx="0" ry="0" width="193.03125" height="19.03125" style="fill:#e8e8e8;"></rect><text style=""><tspan xml:space="preserve" dy="1em" x="0" class="row">ProviderEventDealDeciding</tspan></text></g></g><g class="edgeLabel" transform="translate(4906.875, 455)"><g class="label" transform="translate(-104.03125, -9.5)"><rect rx="0" ry="0" width="207.9375" height="19.03125" style="fill:#e8e8e8;"></rect><text style=""><tspan xml:space="preserve" dy="1em" x="0" class="row">ProviderEventDataRequested</tspan></text></g></g><g class="edgeLabel" transform="translate(2822.90625, 1515.5)"><g class="label" transform="translate(-118.4453125, -9.5)"><rect rx="0" ry="0" width="236.75" height="19.03125" style="fill:#e8e8e8;"></rect><text style=""><tspan xml:space="preserve" dy="1em" x="0" class="row">ProviderEventDataTransferFailed</tspan></text></g></g><g class="edgeLabel" transform="translate(3367.984375, 615)"><g class="label" transform="translate(-127.109375, -9.5)"><rect rx="0" ry="0" width="254.0625" height="19.03125" style="fill:#e8e8e8;"></rect><text style=""><tspan xml:space="preserve" dy="1em" x="0" class="row">ProviderEventDataTransferInitiated</tspan></text></g></g><g class="edgeLabel" transform="translate(3708.91015625, 1580.25)"><g class="label" transform="translate(-144.359375, -9.5)"><rect rx="0" ry="0" width="288.546875" height="19.03125" style="fill:#e8e8e8;"></rect><text style=""><tspan xml:space="preserve" dy="1em" x="0" class="row">ProviderEventDataTransferRestartFailed</tspan></text></g></g><g class="edgeLabel" transform="translate(3896.1328125, 615)"><g class="label" transform="translate(-131.3203125, -9.5)"><rect rx="0" ry="0" width="262.484375" height="19.03125" style="fill:#e8e8e8;"></rect><text style=""><tspan xml:space="preserve" dy="1em" x="0" class="row">ProviderEventDataTransferRestarted</tspan></text></g></g><g class="edgeLabel" transform="translate(3822.578125, 743)"><g class="label" transform="translate(-131.3203125, -9.5)"><rect rx="0" ry="0" width="262.484375" height="19.03125" style="fill:#e8e8e8;"></rect><text style=""><tspan xml:space="preserve" dy="1em" x="0" class="row">ProviderEventDataTransferRestarted</tspan></text></g></g><g class="edgeLabel" transform="translate(3256.89453125, 743)"><g class="label" transform="translate(-135.4765625, -9.5)"><rect rx="0" ry="0" width="270.78125" height="19.03125" style="fill:#e8e8e8;"></rect><text style=""><tspan xml:space="preserve" dy="1em" x="0" class="row">ProviderEventDataTransferCompleted</tspan></text></g></g><g class="edgeLabel" transform="translate(3332.10546875, 1580.25)"><g class="label" transform="translate(-130.421875, -9.5)"><rect rx="0" ry="0" width="260.6875" height="19.03125" style="fill:#e8e8e8;"></rect><text style=""><tspan xml:space="preserve" dy="1em" x="0" class="row">ProviderEventDataVerificationFailed</tspan></text></g></g><g class="edgeLabel" transform="translate(4906.875, 743)"><g class="label" transform="translate(-95.1015625, -9.5)"><rect rx="0" ry="0" width="190.078125" height="19.03125" style="fill:#e8e8e8;"></rect><text style=""><tspan xml:space="preserve" dy="1em" x="0" class="row">ProviderEventVerifiedData</tspan></text></g></g><g class="edgeLabel" transform="translate(4441.1875, 897.5)"><g class="label" transform="translate(-95.1015625, -9.5)"><rect rx="0" ry="0" width="190.078125" height="19.03125" style="fill:#e8e8e8;"></rect><text style=""><tspan xml:space="preserve" dy="1em" x="0" class="row">ProviderEventVerifiedData</tspan></text></g></g><g class="edgeLabel" transform="translate(4461.1875, 1052)"><g class="label" transform="translate(-108.6953125, -9.5)"><rect rx="0" ry="0" width="217.265625" height="19.03125" style="fill:#e8e8e8;"></rect><text style=""><tspan xml:space="preserve" dy="1em" x="0" class="row">ProviderEventFundingInitiated</tspan></text></g></g><g class="edgeLabel" transform="translate(4687.1953125, 1116.75)"><g class="label" transform="translate(-76.3203125, -9.5)"><rect rx="0" ry="0" width="152.546875" height="19.03125" style="fill:#e8e8e8;"></rect><text style=""><tspan xml:space="preserve" dy="1em" x="0" class="row">ProviderEventFunded</tspan></text></g></g><g class="edgeLabel" transform="translate(4461.1875, 1181.5)"><g class="label" transform="translate(-76.3203125, -9.5)"><rect rx="0" ry="0" width="152.546875" height="19.03125" style="fill:#e8e8e8;"></rect><text style=""><tspan xml:space="preserve" dy="1em" x="0" class="row">ProviderEventFunded</tspan></text></g></g><g class="edgeLabel" transform="translate(2658.328125, 1336)"><g class="label" transform="translate(-122, -9.5)"><rect rx="0" ry="0" width="243.859375" height="19.03125" style="fill:#e8e8e8;"></rect><text style=""><tspan xml:space="preserve" dy="1em" x="0" class="row">ProviderEventDealPublishInitiated</tspan></text></g></g><g class="edgeLabel" transform="translate(2577.328125, 1864.25)"><g class="label" transform="translate(-109.3828125, -9.5)"><rect rx="0" ry="0" width="218.625" height="19.03125" style="fill:#e8e8e8;"></rect><text style=""><tspan xml:space="preserve" dy="1em" x="0" class="row">ProviderEventDealPublishError</tspan></text></g></g><g class="edgeLabel" transform="translate(4160.67578125, 2213)"><g class="label" transform="translate(-121.984375, -9.5)"><rect rx="0" ry="0" width="243.828125" height="19.03125" style="fill:#e8e8e8;"></rect><text style=""><tspan xml:space="preserve" dy="1em" x="0" class="row">ProviderEventSendResponseFailed</tspan></text></g></g><g class="edgeLabel" transform="translate(5048.1484375, 1336)"><g class="label" transform="translate(-121.984375, -9.5)"><rect rx="0" ry="0" width="243.828125" height="19.03125" style="fill:#e8e8e8;"></rect><text style=""><tspan xml:space="preserve" dy="1em" x="0" class="row">ProviderEventSendResponseFailed</tspan></text></g></g><g class="edgeLabel" transform="translate(1193.32421875, 1515.5)"><g class="label" transform="translate(-100.296875, -9.5)"><rect rx="0" ry="0" width="200.46875" height="19.03125" style="fill:#e8e8e8;"></rect><text style=""><tspan xml:space="preserve" dy="1em" x="0" class="row">ProviderEventDealPublished</tspan></text></g></g><g class="edgeLabel" transform="translate(132.0625, 1929)"><g class="label" transform="translate(-108.8203125, -9.5)"><rect rx="0" ry="0" width="217.5" height="19.03125" style="fill:#e8e8e8;"></rect><text style=""><tspan xml:space="preserve" dy="1em" x="0" class="row">ProviderEventFileStoreErrored</tspan></text></g></g><g class="edgeLabel" transform="translate(782.26171875, 1993.75)"><g class="label" transform="translate(-108.8203125, -9.5)"><rect rx="0" ry="0" width="217.5" height="19.03125" style="fill:#e8e8e8;"></rect><text style=""><tspan xml:space="preserve" dy="1em" x="0" class="row">ProviderEventFileStoreErrored</tspan></text></g></g><g class="edgeLabel" transform="translate(1112.65234375, 2058.5)"><g class="label" transform="translate(-108.8203125, -9.5)"><rect rx="0" ry="0" width="217.5" height="19.03125" style="fill:#e8e8e8;"></rect><text style=""><tspan xml:space="preserve" dy="1em" x="0" class="row">ProviderEventFileStoreErrored</tspan></text></g></g><g class="edgeLabel" transform="translate(1272.93359375, 2213)"><g class="label" transform="translate(-108.8203125, -9.5)"><rect rx="0" ry="0" width="217.5" height="19.03125" style="fill:#e8e8e8;"></rect><text style=""><tspan xml:space="preserve" dy="1em" x="0" class="row">ProviderEventFileStoreErrored</tspan></text></g></g><g class="edgeLabel" transform="translate(373.75, 1929)"><g class="label" transform="translate(-112.8671875, -9.5)"><rect rx="0" ry="0" width="225.59375" height="19.03125" style="fill:#e8e8e8;"></rect><text style=""><tspan xml:space="preserve" dy="1em" x="0" class="row">ProviderEventMultistoreErrored</tspan></text></g></g><g class="edgeLabel" transform="translate(622.890625, 1929)"><g class="label" transform="translate(-116.2734375, -9.5)"><rect rx="0" ry="0" width="232.40625" height="19.03125" style="fill:#e8e8e8;"></rect><text style=""><tspan xml:space="preserve" dy="1em" x="0" class="row">ProviderEventDealHandoffFailed</tspan></text></g></g><g class="edgeLabel" transform="translate(1418.96484375, 1670)"><g class="label" transform="translate(-104.3671875, -9.5)"><rect rx="0" ry="0" width="208.609375" height="19.03125" style="fill:#e8e8e8;"></rect><text style=""><tspan xml:space="preserve" dy="1em" x="0" class="row">ProviderEventDealHandedOff</tspan></text></g></g><g class="edgeLabel" transform="translate(965.75390625, 1993.75)"><g class="label" transform="translate(-54.671875, -9.5)"><rect rx="0" ry="0" width="109.28125" height="19.03125" style="fill:#e8e8e8;"></rect><text style=""><tspan xml:space="preserve" dy="1em" x="0" class="row">&lt;invalid Value&gt;</tspan></text></g></g><g class="edgeLabel" transform="translate(1286.38671875, 1799.5)"><g class="label" transform="translate(-54.671875, -9.5)"><rect rx="0" ry="0" width="109.28125" height="19.03125" style="fill:#e8e8e8;"></rect><text style=""><tspan xml:space="preserve" dy="1em" x="0" class="row">&lt;invalid Value&gt;</tspan></text></g></g><g class="edgeLabel" transform="translate(1365.64453125, 2058.5)"><g class="label" transform="translate(-124.171875, -9.5)"><rect rx="0" ry="0" width="248.1875" height="19.03125" style="fill:#e8e8e8;"></rect><text style=""><tspan xml:space="preserve" dy="1em" x="0" class="row">ProviderEventDealActivationFailed</tspan></text></g></g><g class="edgeLabel" transform="translate(2116.41015625, 1864.25)"><g class="label" transform="translate(-100.1796875, -9.5)"><rect rx="0" ry="0" width="200.25" height="19.03125" style="fill:#e8e8e8;"></rect><text style=""><tspan xml:space="preserve" dy="1em" x="0" class="row">ProviderEventDealActivated</tspan></text></g></g><g class="edgeLabel" transform="translate(1552.109375, 1929)"><g class="label" transform="translate(-100.1796875, -9.5)"><rect rx="0" ry="0" width="200.25" height="19.03125" style="fill:#e8e8e8;"></rect><text style=""><tspan xml:space="preserve" dy="1em" x="0" class="row">ProviderEventDealActivated</tspan></text></g></g><g class="edgeLabel" transform="translate(1670.578125, 2058.5)"><g class="label" transform="translate(-108.578125, -9.5)"><rect rx="0" ry="0" width="217.015625" height="19.03125" style="fill:#e8e8e8;"></rect><text style=""><tspan xml:space="preserve" dy="1em" x="0" class="row">ProviderEventCleanupFinished</tspan></text></g></g><g class="edgeLabel" transform="translate(533.08984375, 2277.75)"><g class="label" transform="translate(-92.7734375, -9.5)"><rect rx="0" ry="0" width="185.4375" height="19.03125" style="fill:#e8e8e8;"></rect><text style=""><tspan xml:space="preserve" dy="1em" x="0" class="row">ProviderEventDealSlashed</tspan></text></g></g><g class="edgeLabel" transform="translate(738.76171875, 2277.75)"><g class="label" transform="translate(-92.8984375, -9.5)"><rect rx="0" ry="0" width="185.6875" height="19.03125" style="fill:#e8e8e8;"></rect><text style=""><tspan xml:space="preserve" dy="1em" x="0" class="row">ProviderEventDealExpired</tspan></text></g></g><g class="edgeLabel" transform="translate(980.47265625, 2277.75)"><g class="label" transform="translate(-128.8125, -9.5)"><rect rx="0" ry="0" width="257.46875" height="19.03125" style="fill:#e8e8e8;"></rect><text style=""><tspan xml:space="preserve" dy="1em" x="0" class="row">ProviderEventDealCompletionFailed</tspan></text></g></g><g class="edgeLabel" transform="translate(2068.890625, 2367.5)"><g class="label" transform="translate(-71.96875, -9.5)"><rect rx="0" ry="0" width="143.84375" height="19.03125" style="fill:#e8e8e8;"></rect><text style=""><tspan xml:space="preserve" dy="1em" x="0" class="row">ProviderEventFailed</tspan></text></g></g><g class="edgeLabel" transform="translate(5359.82421875, 2277.75)"><g class="label" transform="translate(-76.015625, -9.5)"><rect rx="0" ry="0" width="151.9375" height="19.03125" style="fill:#e8e8e8;"></rect><text style=""><tspan xml:space="preserve" dy="1em" x="0" class="row">ProviderEventRestart</tspan></text></g></g><g class="edgeLabel" transform="translate(5588.66796875, 1336)"><g class="label" transform="translate(-76.015625, -9.5)"><rect rx="0" ry="0" width="151.9375" height="19.03125" style="fill:#e8e8e8;"></rect><text style=""><tspan xml:space="preserve" dy="1em" x="0" class="row">ProviderEventRestart</tspan></text></g></g><g class="edgeLabel" transform="translate(5492.65234375, 1425.75)"><g class="label" transform="translate(-76.015625, -9.5)"><rect rx="0" ry="0" width="151.9375" height="19.03125" style="fill:#e8e8e8;"></rect><text style=""><tspan xml:space="preserve" dy="1em" x="0" class="row">ProviderEventRestart</tspan></text></g></g><g class="edgeLabel" transform="translate(3595.2421875, 743)"><g class="label" transform="translate(-76.015625, -9.5)"><rect rx="0" ry="0" width="151.9375" height="19.03125" style="fill:#e8e8e8;"></rect><text style=""><tspan xml:space="preserve" dy="1em" x="0" class="row">ProviderEventRestart</tspan></text></g></g><g class="edgeLabel" transform="translate(4802.8125, 1670)"><g class="label" transform="translate(-112.5546875, -9.5)"><rect rx="0" ry="0" width="224.984375" height="19.03125" style="fill:#e8e8e8;"></rect><text style=""><tspan xml:space="preserve" dy="1em" x="0" class="row">ProviderEventTrackFundsFailed</tspan></text></g></g><g class="edgeLabel"><g class="label" transform="translate(0, 0)"><rect rx="0" ry="0" width="0" height="0" style="fill:#e8e8e8;"></rect><text style=""></text></g></g><g class="edgeLabel"><g class="label" transform="translate(0, 0)"><rect rx="0" ry="0" width="0" height="0" style="fill:#e8e8e8;"></rect><text style=""></text></g></g><g class="edgeLabel"><g class="label" transform="translate(0, 0)"><rect rx="0" ry="0" width="0" height="0" style="fill:#e8e8e8;"></rect><text style=""></text></g></g><g class="edgeLabel"><g class="label" transform="translate(0, 0)"><rect rx="0" ry="0" width="0" height="0" style="fill:#e8e8e8;"></rect><text style=""></text></g></g><g class="edgeLabel"><g class="label" transform="translate(0, 0)"><rect rx="0" ry="0" width="0" height="0" style="fill:#e8e8e8;"></rect><text style=""></text></g></g><g class="edgeLabel"><g class="label" transform="translate(0, 0)"><rect rx="0" ry="0" width="0" height="0" style="fill:#e8e8e8;"></rect><text style=""></text></g></g><g class="edgeLabel"><g class="label" transform="translate(0, 0)"><rect rx="0" ry="0" width="0" height="0" style="fill:#e8e8e8;"></rect><text style=""></text></g></g><g class="edgeLabel"><g class="label" transform="translate(0, 0)"><rect rx="0" ry="0" width="0" height="0" style="fill:#e8e8e8;"></rect><text style=""></text></g></g></g><g class="nodes"><g class="node statediagram-state" id="0" transform="translate(1785.390625, 114)"><rect class="outer title-state" x="-82.921875" y="-17" width="165.84375" height="34"></rect><line class="divider" x1="-82.921875" x2="82.921875" y1="9.5" y2="9.5"></line><g class="label" transform="translate(-75.421875, -14)"><text style=""><tspan xml:space="preserve" dy="1em" x="0" class="title-row">StorageDealUnknown</tspan></text><text style="" transform="translate( 0, 26.5)"><tspan xml:space="preserve" dy="1em" x="0" class="title-row"></tspan></text></g></g><g class="node statediagram-state" id="4" transform="translate(925.23828125, 1580.25)"><rect class="outer title-state" x="-102.8515625" y="-30.25" width="205.703125" height="60.5"></rect><line class="divider" x1="-102.8515625" x2="102.8515625" y1="-3.75" y2="-3.75"></line><g class="label" transform="translate(-95.3515625, -27.25)"><text style=""><tspan xml:space="preserve" dy="1em" x="0" class="title-row">StorageDealStaged</tspan></text><text style="" transform="translate( 0, 26.5)"><tspan xml:space="preserve" dy="1em" x="0" class="title-row">On entry runs HandoffDeal</tspan></text></g></g><g class="node statediagram-state" id="5" transform="translate(1418.96484375, 1734.75)"><rect class="outer title-state" x="-147.46875" y="-30.25" width="294.9375" height="60.5"></rect><line class="divider" x1="-147.46875" x2="147.46875" y1="-3.75" y2="-3.75"></line><g class="label" transform="translate(-139.96875, -27.25)"><text style=""><tspan xml:space="preserve" dy="1em" x="0" class="title-row">StorageDealAwaitingPreCommit</tspan></text><text style="" transform="translate( 0, 26.5)"><tspan xml:space="preserve" dy="1em" x="0" class="title-row">On entry runs VerifyDealPreCommitted</tspan></text></g></g><g class="node statediagram-state" id="6" transform="translate(1286.38671875, 1864.25)"><rect class="outer title-state" x="-129.9765625" y="-30.25" width="259.953125" height="60.5"></rect><line class="divider" x1="-129.9765625" x2="129.9765625" y1="-3.75" y2="-3.75"></line><g class="label" transform="translate(-122.4765625, -27.25)"><text style=""><tspan xml:space="preserve" dy="1em" x="0" class="title-row">StorageDealSealing</tspan></text><text style="" transform="translate( 0, 26.5)"><tspan xml:space="preserve" dy="1em" x="0" class="title-row">On entry runs VerifyDealActivated</tspan></text></g></g><g class="node statediagram-state" id="7" transform="translate(1670.578125, 1993.75)"><rect class="outer title-state" x="-103.2890625" y="-30.25" width="206.578125" height="60.5"></rect><line class="divider" x1="-103.2890625" x2="103.2890625" y1="-3.75" y2="-3.75"></line><g class="label" transform="translate(-95.7890625, -27.25)"><text style=""><tspan xml:space="preserve" dy="1em" x="0" class="title-row">StorageDealFinalizing</tspan></text><text style="" transform="translate( 0, 26.5)"><tspan xml:space="preserve" dy="1em" x="0" class="title-row">On entry runs CleanupDeal</tspan></text></g></g><g class="node statediagram-state" id="8" transform="translate(859.6171875, 2148.25)"><rect class="outer title-state" x="-143.46875" y="-30.25" width="286.9375" height="60.5"></rect><line class="divider" x1="-143.46875" x2="143.46875" y1="-3.75" y2="-3.75"></line><g class="label" transform="translate(-135.96875, -27.25)"><text style=""><tspan xml:space="preserve" dy="1em" x="0" class="title-row">StorageDealActive</tspan></text><text style="" transform="translate( 0, 26.5)"><tspan xml:space="preserve" dy="1em" x="0" class="title-row">On entry runs WaitForDealCompletion</tspan></text></g></g><g class="node statediagram-state" id="9" transform="translate(738.76171875, 2419)"><rect class="outer title-state" x="-77.296875" y="-17" width="154.59375" height="34"></rect><line class="divider" x1="-77.296875" x2="77.296875" y1="9.5" y2="9.5"></line><g class="label" transform="translate(-69.796875, -14)"><text style=""><tspan xml:space="preserve" dy="1em" x="0" class="title-row">StorageDealExpired</tspan></text><text style="" transform="translate( 0, 26.5)"><tspan xml:space="preserve" dy="1em" x="0" class="title-row"></tspan></text></g></g><g class="node statediagram-state" id="10" transform="translate(533.08984375, 2419)"><rect class="outer title-state" x="-77.1796875" y="-17" width="154.359375" height="34"></rect><line class="divider" x1="-77.1796875" x2="77.1796875" y1="9.5" y2="9.5"></line><g class="label" transform="translate(-69.6796875, -14)"><text style=""><tspan xml:space="preserve" dy="1em" x="0" class="title-row">StorageDealSlashed</tspan></text><text style="" transform="translate( 0, 26.5)"><tspan xml:space="preserve" dy="1em" x="0" class="title-row"></tspan></text></g></g><g class="node statediagram-state" id="11" transform="translate(4460.47265625, 2148.25)"><rect class="outer title-state" x="-97.828125" y="-30.25" width="195.65625" height="60.5"></rect><line class="divider" x1="-97.828125" x2="97.828125" y1="-3.75" y2="-3.75"></line><g class="label" transform="translate(-90.328125, -27.25)"><text style=""><tspan xml:space="preserve" dy="1em" x="0" class="title-row">StorageDealRejecting</tspan></text><text style="" transform="translate( 0, 26.5)"><tspan xml:space="preserve" dy="1em" x="0" class="title-row">On entry runs RejectDeal</tspan></text></g></g><g class="node statediagram-state" id="12" transform="translate(2068.890625, 2277.75)"><rect class="outer title-state" x="-87.421875" y="-30.25" width="174.84375" height="60.5"></rect><line class="divider" x1="-87.421875" x2="87.421875" y1="-3.75" y2="-3.75"></line><g class="label" transform="translate(-79.921875, -27.25)"><text style=""><tspan xml:space="preserve" dy="1em" x="0" class="title-row">StorageDealFailing</tspan></text><text style="" transform="translate( 0, 26.5)"><tspan xml:space="preserve" dy="1em" x="0" class="title-row">On entry runs FailDeal</tspan></text></g></g><g class="node statediagram-state" id="15" transform="translate(4780.59375, 233)"><rect class="outer title-state" x="-134.53125" y="-30.25" width="269.0625" height="60.5"></rect><line class="divider" x1="-134.53125" x2="134.53125" y1="-3.75" y2="-3.75"></line><g class="label" transform="translate(-127.03125, -27.25)"><text style=""><tspan xml:space="preserve" dy="1em" x="0" class="title-row">StorageDealValidating</tspan></text><text style="" transform="translate( 0, 26.5)"><tspan xml:space="preserve" dy="1em" x="0" class="title-row">On entry runs ValidateDealProposal</tspan></text></g></g><g class="node statediagram-state" id="16" transform="translate(4761.8828125, 390.25)"><rect class="outer title-state" x="-123.0546875" y="-30.25" width="246.109375" height="60.5"></rect><line class="divider" x1="-123.0546875" x2="123.0546875" y1="-3.75" y2="-3.75"></line><g class="label" transform="translate(-115.5546875, -27.25)"><text style=""><tspan xml:space="preserve" dy="1em" x="0" class="title-row">StorageDealAcceptWait</tspan></text><text style="" transform="translate( 0, 26.5)"><tspan xml:space="preserve" dy="1em" x="0" class="title-row">On entry runs DecideOnProposal</tspan></text></g></g><g class="node statediagram-state" id="18" transform="translate(3367.984375, 666.5)"><rect class="outer title-state" x="-94.109375" y="-17" width="188.21875" height="34"></rect><line class="divider" x1="-94.109375" x2="94.109375" y1="9.5" y2="9.5"></line><g class="label" transform="translate(-86.609375, -14)"><text style=""><tspan xml:space="preserve" dy="1em" x="0" class="title-row">StorageDealTransferring</tspan></text><text style="" transform="translate( 0, 26.5)"><tspan xml:space="preserve" dy="1em" x="0" class="title-row"></tspan></text></g></g><g class="node statediagram-state" id="19" transform="translate(4906.875, 547.5)"><rect class="outer title-state" x="-105.5625" y="-17" width="211.125" height="34"></rect><line class="divider" x1="-105.5625" x2="105.5625" y1="9.5" y2="9.5"></line><g class="label" transform="translate(-98.0625, -14)"><text style=""><tspan xml:space="preserve" dy="1em" x="0" class="title-row">StorageDealWaitingForData</tspan></text><text style="" transform="translate( 0, 26.5)"><tspan xml:space="preserve" dy="1em" x="0" class="title-row"></tspan></text></g></g><g class="node statediagram-state" id="20" transform="translate(3256.89453125, 832.75)"><rect class="outer title-state" x="-96.3828125" y="-30.25" width="192.765625" height="60.5"></rect><line class="divider" x1="-96.3828125" x2="96.3828125" y1="-3.75" y2="-3.75"></line><g class="label" transform="translate(-88.8828125, -27.25)"><text style=""><tspan xml:space="preserve" dy="1em" x="0" class="title-row">StorageDealVerifyData</tspan></text><text style="" transform="translate( 0, 26.5)"><tspan xml:space="preserve" dy="1em" x="0" class="title-row">On entry runs VerifyData</tspan></text></g></g><g class="node statediagram-state" id="21" transform="translate(4641.6484375, 962.25)"><rect class="outer title-state" x="-137.1875" y="-30.25" width="274.375" height="60.5"></rect><line class="divider" x1="-137.1875" x2="137.1875" y1="-3.75" y2="-3.75"></line><g class="label" transform="translate(-129.6875, -27.25)"><text style=""><tspan xml:space="preserve" dy="1em" x="0" class="title-row">StorageDealReserveProviderFunds</tspan></text><text style="" transform="translate( 0, 26.5)"><tspan xml:space="preserve" dy="1em" x="0" class="title-row">On entry runs ReserveProviderFunds</tspan></text></g></g><g class="node statediagram-state" id="23" transform="translate(4461.1875, 1116.75)"><rect class="outer title-state" x="-114.6875" y="-30.25" width="229.375" height="60.5"></rect><line class="divider" x1="-114.6875" x2="114.6875" y1="-3.75" y2="-3.75"></line><g class="label" transform="translate(-107.1875, -27.25)"><text style=""><tspan xml:space="preserve" dy="1em" x="0" class="title-row">StorageDealProviderFunding</tspan></text><text style="" transform="translate( 0, 26.5)"><tspan xml:space="preserve" dy="1em" x="0" class="title-row">On entry runs WaitForFunding</tspan></text></g></g><g class="node statediagram-state" id="25" transform="translate(4574.19140625, 1271.25)"><rect class="outer title-state" x="-99.9140625" y="-30.25" width="199.828125" height="60.5"></rect><line class="divider" x1="-99.9140625" x2="99.9140625" y1="-3.75" y2="-3.75"></line><g class="label" transform="translate(-92.4140625, -27.25)"><text style=""><tspan xml:space="preserve" dy="1em" x="0" class="title-row">StorageDealPublish</tspan></text><text style="" transform="translate( 0, 26.5)"><tspan xml:space="preserve" dy="1em" x="0" class="title-row">On entry runs PublishDeal</tspan></text></g></g><g class="node statediagram-state" id="26" transform="translate(2587.328125, 1425.75)"><rect class="outer title-state" x="-112.15625" y="-30.25" width="224.3125" height="60.5"></rect><line class="divider" x1="-112.15625" x2="112.15625" y1="-3.75" y2="-3.75"></line><g class="label" transform="translate(-104.65625, -27.25)"><text style=""><tspan xml:space="preserve" dy="1em" x="0" class="title-row">StorageDealPublishing</tspan></text><text style="" transform="translate( 0, 26.5)"><tspan xml:space="preserve" dy="1em" x="0" class="title-row">On entry runs WaitForPublish</tspan></text></g></g><g class="node statediagram-state" id="27" transform="translate(4574.89453125, 2419)"><rect class="outer title-state" x="-68.2421875" y="-17" width="136.484375" height="34"></rect><line class="divider" x1="-68.2421875" x2="68.2421875" y1="9.5" y2="9.5"></line><g class="label" transform="translate(-60.7421875, -14)"><text style=""><tspan xml:space="preserve" dy="1em" x="0" class="title-row">StorageDealError</tspan></text><text style="" transform="translate( 0, 26.5)"><tspan xml:space="preserve" dy="1em" x="0" class="title-row"></tspan></text></g></g><g class="node statediagram-state" id="28" transform="translate(3708.91015625, 832.75)"><rect class="outer title-state" x="-136.2421875" y="-30.25" width="272.484375" height="60.5"></rect><line class="divider" x1="-136.2421875" x2="136.2421875" y1="-3.75" y2="-3.75"></line><g class="label" transform="translate(-128.7421875, -27.25)"><text style=""><tspan xml:space="preserve" dy="1em" x="0" class="title-row">StorageDealProviderTransferRestart</tspan></text><text style="" transform="translate( 0, 26.5)"><tspan xml:space="preserve" dy="1em" x="0" class="title-row">On entry runs RestartDataTransfer</tspan></text></g></g><g class="node default" id="root_start" transform="translate(1785.390625, 15)"><circle class="state-start" r="7" width="14" height="14"></circle></g><g class="node statediagram-note" id="0----note" transform="translate(1741.046875, 233)"><rect x="-275.046875" y="-33" width="550.09375" height="66"></rect><g class="label" transform="translate(-267.546875, -25.5)"><text style=""><tspan xml:space="preserve" dy="1em" x="0" class="row">The following events are not shown cause they can trigger from any state.</tspan><tspan xml:space="preserve" dy="1em" x="0" class="row"></tspan><tspan xml:space="preserve" dy="1em" x="0" class="row">ProviderEventNodeErrored - transitions state to StorageDealFailing</tspan><tspan xml:space="preserve" dy="1em" x="0" class="row">ProviderEventRestart - does not transition state</tspan></text></g></g><g class="node statediagram-note" id="4----note" transform="translate(216.125, 1425.75)"><rect x="-173.125" y="-25" width="346.25" height="50"></rect><g class="label" transform="translate(-165.625, -17.5)"><text style=""><tspan xml:space="preserve" dy="1em" x="0" class="row">The following events only record in this state.</tspan><tspan xml:space="preserve" dy="1em" x="0" class="row"></tspan><tspan xml:space="preserve" dy="1em" x="0" class="row">ProviderEventPieceStoreErrored</tspan></text></g></g><g class="node statediagram-note" id="12----note" transform="translate(1401.75390625, 2148.25)"><rect x="-173.125" y="-25" width="346.25" height="50"></rect><g class="label" transform="translate(-165.625, -17.5)"><text style=""><tspan xml:space="preserve" dy="1em" x="0" class="row">The following events only record in this state.</tspan><tspan xml:space="preserve" dy="1em" x="0" class="row"></tspan><tspan xml:space="preserve" dy="1em" x="0" class="row">ProviderEventFundsReleased</tspan></text></g></g><g class="node statediagram-note" id="18----note" transform="translate(2873.78125, 547.5)"><rect x="-173.125" y="-33" width="346.25" height="66"></rect><g class="label" transform="translate(-165.625, -25.5)"><text style=""><tspan xml:space="preserve" dy="1em" x="0" class="row">The following events only record in this state.</tspan><tspan xml:space="preserve" dy="1em" x="0" class="row"></tspan><tspan xml:space="preserve" dy="1em" x="0" class="row">ProviderEventDataTransferRestarted</tspan><tspan xml:space="preserve" dy="1em" x="0" class="row">ProviderEventDataTransferStalled</tspan></text></g></g><g class="node statediagram-note" id="21----note" transform="translate(4641.6484375, 832.75)"><rect x="-173.125" y="-25" width="346.25" height="50"></rect><g class="label" transform="translate(-165.625, -17.5)"><text style=""><tspan xml:space="preserve" dy="1em" x="0" class="row">The following events only record in this state.</tspan><tspan xml:space="preserve" dy="1em" x="0" class="row"></tspan><tspan xml:space="preserve" dy="1em" x="0" class="row">ProviderEventFundsReserved</tspan></text></g></g><g class="node statediagram-note" id="26----note" transform="translate(2516.328125, 1271.25)"><rect x="-173.125" y="-25" width="346.25" height="50"></rect><g class="label" transform="translate(-165.625, -17.5)"><text style=""><tspan xml:space="preserve" dy="1em" x="0" class="row">The following events only record in this state.</tspan><tspan xml:space="preserve" dy="1em" x="0" class="row"></tspan><tspan xml:space="preserve" dy="1em" x="0" class="row">ProviderEventFundsReleased</tspan></text></g></g><g class="node default" id="root_end" transform="translate(978.65234375, 2493)"><circle class="state-start" r="7" width="14" height="14"></circle><circle class="state-end" r="5" width="10" height="10"></circle></g></g></g></g></svg>