<svg id="mermaid-1606245405427" width="4773.6875" xmlns="http://www.w3.org/2000/svg" class="statediagram" height="1726.5" viewBox="0 0 4773.6875 1726.5"><style>#mermaid-1606245405427 .label{font-family:'trebuchet ms', verdana, arial;font-family:var(--mermaid-font-family);color:#333}#mermaid-1606245405427 .label text{fill:#333}#mermaid-1606245405427 .node rect,#mermaid-1606245405427 .node circle,#mermaid-1606245405427 .node ellipse,#mermaid-1606245405427 .node polygon,#mermaid-1606245405427 .node path{fill:#ECECFF;stroke:#9370db;stroke-width:1px}#mermaid-1606245405427 .node .label{text-align:center}#mermaid-1606245405427 .node.clickable{cursor:pointer}#mermaid-1606245405427 .arrowheadPath{fill:#333}#mermaid-1606245405427 .edgePath .path{stroke:#333;stroke-width:1.5px}#mermaid-1606245405427 .edgeLabel{background-color:#e8e8e8;text-align:center}#mermaid-1606245405427 .edgeLabel rect{opacity:0.5}#mermaid-1606245405427 .cluster rect{fill:#ffffde;stroke:#aa3;stroke-width:1px}#mermaid-1606245405427 .cluster text{fill:#333}#mermaid-1606245405427 div.mermaidTooltip{position:absolute;text-align:center;max-width:200px;padding:2px;font-family:'trebuchet ms', verdana, arial;font-family:var(--mermaid-font-family);font-size:12px;background:#ffffde;border:1px solid #aa3;border-radius:2px;pointer-events:none;z-index:100}#mermaid-1606245405427 .actor{stroke:#ccf;fill:#ECECFF}#mermaid-1606245405427 text.actor{fill:#000;stroke:none}#mermaid-1606245405427 .actor-line{stroke:grey}#mermaid-1606245405427 .messageLine0{stroke-width:1.5;stroke-dasharray:'2 2';stroke:#333}#mermaid-1606245405427 .messageLine1{stroke-width:1.5;stroke-dasharray:'2 2';stroke:#333}#mermaid-1606245405427 #arrowhead{fill:#333}#mermaid-1606245405427 .sequenceNumber{fill:#fff}#mermaid-1606245405427 #sequencenumber{fill:#333}#mermaid-1606245405427 #crosshead path{fill:#333 !important;stroke:#333 !important}#mermaid-1606245405427 .messageText{fill:#333;stroke:none}#mermaid-1606245405427 .labelBox{stroke:#ccf;fill:#ECECFF}#mermaid-1606245405427 .labelText{fill:#000;stroke:none}#mermaid-1606245405427 .loopText{fill:#000;stroke:none}#mermaid-1606245405427 .loopLine{stroke-width:2;stroke-dasharray:'2 2';stroke:#ccf}#mermaid-1606245405427 .note{stroke:#aa3;fill:#fff5ad}#mermaid-1606245405427 .noteText{fill:black;stroke:none;font-family:'trebuchet ms', verdana, arial;font-family:var(--mermaid-font-family);font-size:14px}#mermaid-1606245405427 .activation0{fill:#f4f4f4;stroke:#666}#mermaid-1606245405427 .activation1{fill:#f4f4f4;stroke:#666}#mermaid-1606245405427 .activation2{fill:#f4f4f4;stroke:#666}#mermaid-1606245405427 .mermaid-main-font{font-family:"trebuchet ms", verdana, arial;font-family:var(--mermaid-font-family)}#mermaid-1606245405427 .section{stroke:none;opacity:0.2}#mermaid-1606245405427 .section0{fill:rgba(102,102,255,0.49)}#mermaid-1606245405427 .section2{fill:#fff400}#mermaid-1606245405427 .section1,#mermaid-1606245405427 .section3{fill:#fff;opacity:0.2}#mermaid-1606245405427 .sectionTitle0{fill:#333}#mermaid-1606245405427 .sectionTitle1{fill:#333}#mermaid-1606245405427 .sectionTitle2{fill:#333}#mermaid-1606245405427 .sectionTitle3{fill:#333}#mermaid-1606245405427 .sectionTitle{text-anchor:start;font-size:11px;text-height:14px;font-family:'trebuchet ms', verdana, arial;font-family:var(--mermaid-font-family)}#mermaid-1606245405427 .grid .tick{stroke:#d3d3d3;opacity:0.8;shape-rendering:crispEdges}#mermaid-1606245405427 .grid .tick text{font-family:'trebuchet ms', verdana, arial;font-family:var(--mermaid-font-family)}#mermaid-1606245405427 .grid path{stroke-width:0}#mermaid-1606245405427 .today{fill:none;stroke:red;stroke-width:2px}#mermaid-1606245405427 .task{stroke-width:2}#mermaid-1606245405427 .taskText{text-anchor:middle;font-family:'trebuchet ms', verdana, arial;font-family:var(--mermaid-font-family)}#mermaid-1606245405427 .taskText:not([font-size]){font-size:11px}#mermaid-1606245405427 .taskTextOutsideRight{fill:#000;text-anchor:start;font-size:11px;font-family:'trebuchet ms', verdana, arial;font-family:var(--mermaid-font-family)}#mermaid-1606245405427 .taskTextOutsideLeft{fill:#000;text-anchor:end;font-size:11px}#mermaid-1606245405427 .task.clickable{cursor:pointer}#mermaid-1606245405427 .taskText.clickable{cursor:pointer;fill:#003163 !important;font-weight:bold}#mermaid-1606245405427 .taskTextOutsideLeft.clickable{cursor:pointer;fill:#003163 !important;font-weight:bold}#mermaid-1606245405427 .taskTextOutsideRight.clickable{cursor:pointer;fill:#003163 !important;font-weight:bold}#mermaid-1606245405427 .taskText0,#mermaid-1606245405427 .taskText1,#mermaid-1606245405427 .taskText2,#mermaid-1606245405427 .taskText3{fill:#fff}#mermaid-1606245405427 .task0,#mermaid-1606245405427 .task1,#mermaid-1606245405427 .task2,#mermaid-1606245405427 .task3{fill:#8a90dd;stroke:#534fbc}#mermaid-1606245405427 .taskTextOutside0,#mermaid-1606245405427 .taskTextOutside2{fill:#000}#mermaid-1606245405427 .taskTextOutside1,#mermaid-1606245405427 .taskTextOutside3{fill:#000}#mermaid-1606245405427 .active0,#mermaid-1606245405427 .active1,#mermaid-1606245405427 .active2,#mermaid-1606245405427 .active3{fill:#bfc7ff;stroke:#534fbc}#mermaid-1606245405427 .activeText0,#mermaid-1606245405427 .activeText1,#mermaid-1606245405427 .activeText2,#mermaid-1606245405427 .activeText3{fill:#000 !important}#mermaid-1606245405427 .done0,#mermaid-1606245405427 .done1,#mermaid-1606245405427 .done2,#mermaid-1606245405427 .done3{stroke:grey;fill:#d3d3d3;stroke-width:2}#mermaid-1606245405427 .doneText0,#mermaid-1606245405427 .doneText1,#mermaid-1606245405427 .doneText2,#mermaid-1606245405427 .doneText3{fill:#000 !important}#mermaid-1606245405427 .crit0,#mermaid-1606245405427 .crit1,#mermaid-1606245405427 .crit2,#mermaid-1606245405427 .crit3{stroke:#f88;fill:red;stroke-width:2}#mermaid-1606245405427 .activeCrit0,#mermaid-1606245405427 .activeCrit1,#mermaid-1606245405427 .activeCrit2,#mermaid-1606245405427 .activeCrit3{stroke:#f88;fill:#bfc7ff;stroke-width:2}#mermaid-1606245405427 .doneCrit0,#mermaid-1606245405427 .doneCrit1,#mermaid-1606245405427 .doneCrit2,#mermaid-1606245405427 .doneCrit3{stroke:#f88;fill:#d3d3d3;stroke-width:2;cursor:pointer;shape-rendering:crispEdges}#mermaid-1606245405427 .milestone{transform:rotate(45deg) scale(0.8, 0.8)}#mermaid-1606245405427 .milestoneText{font-style:italic}#mermaid-1606245405427 .doneCritText0,#mermaid-1606245405427 .doneCritText1,#mermaid-1606245405427 .doneCritText2,#mermaid-1606245405427 .doneCritText3{fill:#000 !important}#mermaid-1606245405427 .activeCritText0,#mermaid-1606245405427 .activeCritText1,#mermaid-1606245405427 .activeCritText2,#mermaid-1606245405427 .activeCritText3{fill:#000 !important}#mermaid-1606245405427 .titleText{text-anchor:middle;font-size:18px;fill:#000;font-family:'trebuchet ms', verdana, arial;font-family:var(--mermaid-font-family)}#mermaid-1606245405427 g.classGroup text{fill:#9370db;stroke:none;font-family:'trebuchet ms', verdana, arial;font-family:var(--mermaid-font-family);font-size:10px}#mermaid-1606245405427 g.classGroup text .title{font-weight:bolder}#mermaid-1606245405427 g.clickable{cursor:pointer}#mermaid-1606245405427 g.classGroup rect{fill:#ECECFF;stroke:#9370db}#mermaid-1606245405427 g.classGroup line{stroke:#9370db;stroke-width:1}#mermaid-1606245405427 .classLabel .box{stroke:none;stroke-width:0;fill:#ECECFF;opacity:0.5}#mermaid-1606245405427 .classLabel .label{fill:#9370db;font-size:10px}#mermaid-1606245405427 .relation{stroke:#9370db;stroke-width:1;fill:none}#mermaid-1606245405427 .dashed-line{stroke-dasharray:3}#mermaid-1606245405427 #compositionStart{fill:#9370db;stroke:#9370db;stroke-width:1}#mermaid-1606245405427 #compositionEnd{fill:#9370db;stroke:#9370db;stroke-width:1}#mermaid-1606245405427 #aggregationStart{fill:#ECECFF;stroke:#9370db;stroke-width:1}#mermaid-1606245405427 #aggregationEnd{fill:#ECECFF;stroke:#9370db;stroke-width:1}#mermaid-1606245405427 #dependencyStart{fill:#9370db;stroke:#9370db;stroke-width:1}#mermaid-1606245405427 #dependencyEnd{fill:#9370db;stroke:#9370db;stroke-width:1}#mermaid-1606245405427 #extensionStart{fill:#9370db;stroke:#9370db;stroke-width:1}#mermaid-1606245405427 #extensionEnd{fill:#9370db;stroke:#9370db;stroke-width:1}#mermaid-1606245405427 .commit-id,#mermaid-1606245405427 .commit-msg,#mermaid-1606245405427 .branch-label{fill:lightgrey;color:lightgrey;font-family:'trebuchet ms', verdana, arial;font-family:var(--mermaid-font-family)}#mermaid-1606245405427 .pieTitleText{text-anchor:middle;font-size:25px;fill:#000;font-family:'trebuchet ms', verdana, arial;font-family:var(--mermaid-font-family)}#mermaid-1606245405427 .slice{font-family:'trebuchet ms', verdana, arial;font-family:var(--mermaid-font-family)}#mermaid-1606245405427 g.stateGroup text{fill:#9370db;stroke:none;font-size:10px;font-family:'trebuchet ms', verdana, arial;font-family:var(--mermaid-font-family)}#mermaid-1606245405427 g.stateGroup text{fill:#9370db;stroke:none;font-size:10px}#mermaid-1606245405427 g.stateGroup .state-title{font-weight:bolder;fill:#000}#mermaid-1606245405427 g.stateGroup rect{fill:#ECECFF;stroke:#9370db}#mermaid-1606245405427 g.stateGroup line{stroke:#9370db;stroke-width:1}#mermaid-1606245405427 .transition{stroke:#9370db;stroke-width:1;fill:none}#mermaid-1606245405427 .stateGroup .composit{fill:white;border-bottom:1px}#mermaid-1606245405427 .stateGroup .alt-composit{fill:#e0e0e0;border-bottom:1px}#mermaid-1606245405427 .state-note{stroke:#aa3;fill:#fff5ad}#mermaid-1606245405427 .state-note text{fill:black;stroke:none;font-size:10px}#mermaid-1606245405427 .stateLabel .box{stroke:none;stroke-width:0;fill:#ECECFF;opacity:0.5}#mermaid-1606245405427 .stateLabel text{fill:#000;font-size:10px;font-weight:bold;font-family:'trebuchet ms', verdana, arial;font-family:var(--mermaid-font-family)}#mermaid-1606245405427 .node circle.state-start{fill:black;stroke:black}#mermaid-1606245405427 .node circle.state-end{fill:black;stroke:white;stroke-width:1.5}#mermaid-1606245405427 #statediagram-barbEnd{fill:#9370db}#mermaid-1606245405427 .statediagram-cluster rect{fill:#ECECFF;stroke:#9370db;stroke-width:1px}#mermaid-1606245405427 .statediagram-cluster rect.outer{rx:5px;ry:5px}#mermaid-1606245405427 .statediagram-state .divider{stroke:#9370db}#mermaid-1606245405427 .statediagram-state .title-state{rx:5px;ry:5px}#mermaid-1606245405427 .statediagram-cluster.statediagram-cluster .inner{fill:white}#mermaid-1606245405427 .statediagram-cluster.statediagram-cluster-alt .inner{fill:#e0e0e0}#mermaid-1606245405427 .statediagram-cluster .inner{rx:0;ry:0}#mermaid-1606245405427 .statediagram-state rect.basic{rx:5px;ry:5px}#mermaid-1606245405427 .statediagram-state rect.divider{stroke-dasharray:10,10;fill:#efefef}#mermaid-1606245405427 .note-edge{stroke-dasharray:5}#mermaid-1606245405427 .statediagram-note rect{fill:#fff5ad;stroke:#aa3;stroke-width:1px;rx:0;ry:0}:root{--mermaid-font-family: '"trebuchet ms", verdana, arial';--mermaid-font-family: "Comic Sans MS", "Comic Sans", cursive}

:root { --mermaid-font-family: "trebuchet ms", verdana, arial;}</style><style>#mermaid-1606245405427 {
    color: rgb(0, 0, 0);
    font: 16px "trebuchet ms", verdana, arial;
  }</style><g><defs><marker id="statediagram-barbEnd" refX="19" refY="7" markerWidth="20" markerHeight="14" markerUnits="0" orient="auto"><path d="M 19,7 L9,13 L14,7 L9,1 Z"></path></marker></defs><g class="root"><g class="clusters"><g class="note-cluster" id="0----parent"><rect x="465.06640625" y="72" width="620.09375" height="235" fill="none"></rect></g><g class="note-cluster" id="3----parent"><rect x="270.5859375" y="923" width="762.21484375" height="240" fill="none"></rect></g><g class="note-cluster" id="11----parent"><rect x="2430.41796875" y="923" width="2088.34765625" height="240" fill="none"></rect></g><g class="note-cluster" id="17----parent"><rect x="854.30078125" y="635" width="1630.42578125" height="219" fill="none"></rect></g><g class="note-cluster" id="21----parent"><rect x="2368.671875" y="72" width="2061.16015625" height="235" fill="none"></rect></g></g><g class="edgePaths"><path d="M735.1015625,22L735.1015625,26.166666666666668C735.1015625,30.333333333333332,735.1015625,38.666666666666664,735.1015625,47C735.1015625,55.333333333333336,735.1015625,63.666666666666664,735.1015625,73.33333333333333C735.1015625,83,735.1015625,94,735.1015625,99.5L735.1015625,105" id="edge0" class="transition" marker-end="url(#statediagram-barbEnd)"></path><path d="M746.5334821428571,139L751.2967819940476,146.08333333333334C756.0600818452381,153.16666666666666,765.5866815476189,167.33333333333334,770.3499813988095,180.16666666666666C775.11328125,193,775.11328125,204.5,775.11328125,210.25L775.11328125,216" class="transition note-edge"></path><path d="M702.2410714285714,139L688.5492001488095,146.08333333333334C674.8573288690476,153.16666666666666,647.4735863095239,167.33333333333334,982.3962983630953,185.0154273418559C1317.3190104166667,202.69752135037845,2014.5481770833333,223.8950427007569,2363.1627604166665,234.49380337594616L2711.77734375,245.09256405113535" id="edge1" class="transition" marker-end="url(#statediagram-barbEnd)"></path><path d="M2968.82421875,253.74941762070682L3208.9921875,262.62451468392237C3449.16015625,271.49961174713786,3929.49609375,289.24980587356896,4169.6640625,303.8749029367845C4409.83203125,318.5,4409.83203125,330,4409.83203125,341.5C4409.83203125,353,4409.83203125,364.5,4409.83203125,370.25L4409.83203125,376" id="edge2" class="transition" marker-end="url(#statediagram-barbEnd)"></path><path d="M2723.6708142510774,279.25L2705.8389597925648,283.875C2688.0071053340516,288.5,2652.343396417026,297.75,2634.511541958513,308.125C2616.6796875,318.5,2616.6796875,330,2616.6796875,346.5416666666667C2616.6796875,363.0833333333333,2616.6796875,384.6666666666667,2616.6796875,406.25C2616.6796875,427.8333333333333,2616.6796875,449.4166666666667,2616.6796875,471C2616.6796875,492.5833333333333,2616.6796875,514.1666666666666,2616.6796875,535.75C2616.6796875,557.3333333333334,2616.6796875,578.9166666666666,2616.6796875,595.4583333333334C2616.6796875,612,2616.6796875,623.5,2616.6796875,638.9166666666666C2616.6796875,654.3333333333334,2616.6796875,673.6666666666666,2616.6796875,694.5833333333334C2616.6796875,715.5,2616.6796875,738,2616.6796875,757.8333333333334C2616.6796875,777.6666666666666,2616.6796875,794.8333333333334,2616.6796875,810.4166666666666C2616.6796875,826,2616.6796875,840,2616.6796875,852.75C2616.6796875,865.5,2616.6796875,877,2795.80078125,888.5C2974.921875,900,3333.1640625,911.5,3512.28515625,926.4583333333334C3691.40625,941.4166666666666,3691.40625,959.8333333333334,3691.40625,979.8333333333334C3691.40625,999.8333333333334,3691.40625,1021.4166666666666,3666.9127604166665,1038.9748425052499C3642.4192708333335,1056.533018343833,3593.4322916666665,1070.066036687666,3568.9388020833335,1076.8325458595825L3544.4453125,1083.599055031499" id="edge3" class="transition" marker-end="url(#statediagram-barbEnd)"></path><path d="M4438.611139599421,436.5L4444.081548624518,442.25C4449.551957649614,448,4460.492775699807,459.5,4465.963184724904,476.0416666666667C4471.43359375,492.5833333333333,4471.43359375,514.1666666666666,4471.43359375,535.75C4471.43359375,557.3333333333334,4471.43359375,578.9166666666666,4471.43359375,595.4583333333334C4471.43359375,612,4471.43359375,623.5,4471.43359375,638.9166666666666C4471.43359375,654.3333333333334,4471.43359375,673.6666666666666,4471.43359375,694.5833333333334C4471.43359375,715.5,4471.43359375,738,4471.43359375,757.8333333333334C4471.43359375,777.6666666666666,4471.43359375,794.8333333333334,4471.43359375,810.4166666666666C4471.43359375,826,4471.43359375,840,4471.43359375,852.75C4471.43359375,865.5,4471.43359375,877,4467.453776041667,888.5C4463.473958333333,900,4455.514322916667,911.5,4451.534505208333,926.4583333333334C4447.5546875,941.4166666666666,4447.5546875,959.8333333333334,4447.5546875,979.8333333333334C4447.5546875,999.8333333333334,4447.5546875,1021.4166666666666,4297.036458333333,1042.0475537905795C4146.518229166667,1062.6784409144923,3845.4817708333335,1082.3568818289848,3694.9635416666665,1092.196102286231L3544.4453125,1102.0353227434773" id="edge4" class="transition" marker-end="url(#statediagram-barbEnd)"></path><path d="M2711.77734375,270.44729536846603L2675.2701822916665,276.53941280705504C2638.7630208333335,282.631530245644,2565.7486979166665,294.81576512282203,2529.2415364583335,306.657882561411C2492.734375,318.5,2492.734375,330,2492.734375,346.5416666666667C2492.734375,363.0833333333333,2492.734375,384.6666666666667,2492.734375,406.25C2492.734375,427.8333333333333,2492.734375,449.4166666666667,2740.3587239583335,470.29753752358664C2987.9830729166665,491.17840838050665,3483.2317708333335,511.3568167610133,3730.8561197916665,521.4460209512666L3978.48046875,531.53522514152" id="edge5" class="transition" marker-end="url(#statediagram-barbEnd)"></path><path d="M4295.14453125,428.8967645096731L4259.608072916667,435.91397042472755C4224.071614583333,442.9311763397821,4152.998697916667,456.9655881698911,4117.462239583333,469.7327940849455C4081.92578125,482.5,4081.92578125,494,4081.92578125,499.75L4081.92578125,505.5" id="edge6" class="transition" marker-end="url(#statediagram-barbEnd)"></path><path d="M4185.37109375,562.0884099043055L4210.514973958333,568.4903415869213C4235.658854166667,574.892273269537,4285.946614583333,587.6961366347685,4311.090494791667,599.8480683173842C4336.234375,612,4336.234375,623.5,4336.234375,638.9166666666666C4336.234375,654.3333333333334,4336.234375,673.6666666666666,4336.234375,694.5833333333334C4336.234375,715.5,4336.234375,738,4336.234375,757.8333333333334C4336.234375,777.6666666666666,4336.234375,794.8333333333334,4336.234375,810.4166666666666C4336.234375,826,4336.234375,840,4336.234375,852.75C4336.234375,865.5,4336.234375,877,4388.899739583333,888.5C4441.565104166667,900,4546.895833333333,911.5,4599.561197916667,926.4583333333334C4652.2265625,941.4166666666666,4652.2265625,959.8333333333334,4652.2265625,979.8333333333334C4652.2265625,999.8333333333334,4652.2265625,1021.4166666666666,4652.2265625,1043C4652.2265625,1064.5833333333333,4652.2265625,1086.1666666666667,4652.2265625,1106.1666666666667C4652.2265625,1126.1666666666667,4652.2265625,1144.5833333333333,4652.2265625,1159.5416666666667C4652.2265625,1174.5,4652.2265625,1186,4652.2265625,1202.5416666666667C4652.2265625,1219.0833333333333,4652.2265625,1240.6666666666667,4652.2265625,1262.25C4652.2265625,1283.8333333333333,4652.2265625,1305.4166666666667,4652.2265625,1327C4652.2265625,1348.5833333333333,4652.2265625,1370.1666666666667,4652.2265625,1391.75C4652.2265625,1413.3333333333333,4652.2265625,1434.9166666666667,4652.2265625,1456.5C4652.2265625,1478.0833333333333,4652.2265625,1499.6666666666667,4652.2265625,1521.25C4652.2265625,1542.8333333333333,4652.2265625,1564.4166666666667,4024.6705729166665,1583.6388732648866C3397.1145833333335,1602.8610798631064,2142.0026041666665,1619.722159726213,1514.4466145833333,1628.1526996577666L886.890625,1636.5832395893196" id="edge7" class="transition" marker-end="url(#statediagram-barbEnd)"></path><path d="M4128.921316964285,566L4137.854352678572,571.75C4146.787388392857,577.5,4164.653459821428,589,4173.586495535715,600.5C4182.51953125,612,4182.51953125,623.5,4182.51953125,638.9166666666666C4182.51953125,654.3333333333334,4182.51953125,673.6666666666666,4182.51953125,694.5833333333334C4182.51953125,715.5,4182.51953125,738,4182.51953125,757.8333333333334C4182.51953125,777.6666666666666,4182.51953125,794.8333333333334,4182.51953125,810.4166666666666C4182.51953125,826,4182.51953125,840,4182.51953125,852.75C4182.51953125,865.5,4182.51953125,877,4182.51953125,888.5C4182.51953125,900,4182.51953125,911.5,4182.51953125,926.4583333333334C4182.51953125,941.4166666666666,4182.51953125,959.8333333333334,4182.51953125,979.8333333333334C4182.51953125,999.8333333333334,4182.51953125,1021.4166666666666,4076.173828125,1041.6996101805337C3969.828125,1061.9825536944008,3757.13671875,1080.965107388802,3650.791015625,1090.4563842360024L3544.4453125,1099.9476610832028" id="edge8" class="transition" marker-end="url(#statediagram-barbEnd)"></path><path d="M4001.7421120897684,566L3986.500588199807,571.75C3971.259064309846,577.5,3940.776016529923,589,3925.534492639961,600.5C3910.29296875,612,3910.29296875,623.5,3910.29296875,638.9166666666666C3910.29296875,654.3333333333334,3910.29296875,673.6666666666666,3910.29296875,694.5833333333334C3910.29296875,715.5,3910.29296875,738,3910.29296875,757.8333333333334C3910.29296875,777.6666666666666,3910.29296875,794.8333333333334,3910.29296875,810.4166666666666C3910.29296875,826,3910.29296875,840,3910.29296875,852.75C3910.29296875,865.5,3910.29296875,877,3910.29296875,888.5C3910.29296875,900,3910.29296875,911.5,3910.29296875,926.4583333333334C3910.29296875,941.4166666666666,3910.29296875,959.8333333333334,3910.29296875,979.8333333333334C3910.29296875,999.8333333333334,3910.29296875,1021.4166666666666,3849.318359375,1040.9186164757793C3788.34375,1060.420566284892,3666.39453125,1077.8411325697837,3605.419921875,1086.5514157122298L3544.4453125,1095.2616988546756" id="edge9" class="transition" marker-end="url(#statediagram-barbEnd)"></path><path d="M3978.48046875,542.5242145123121L3830.927734375,552.1868454269268C3683.375,561.8494763415414,3388.26953125,581.1747381707706,3240.716796875,596.5873690853854C3093.1640625,612,3093.1640625,623.5,3093.1640625,633.875C3093.1640625,644.25,3093.1640625,653.5,3093.1640625,658.125L3093.1640625,662.75" id="edge10" class="transition" marker-end="url(#statediagram-barbEnd)"></path><path d="M3978.48046875,540.8203298490471L3775.548828125,550.7669415408726C3572.6171875,560.713553232698,3166.75390625,580.6067766163491,2963.822265625,596.3033883081745C2760.890625,612,2760.890625,623.5,2760.890625,638.9166666666666C2760.890625,654.3333333333334,2760.890625,673.6666666666666,2760.890625,694.5833333333334C2760.890625,715.5,2760.890625,738,2760.890625,757.8333333333334C2760.890625,777.6666666666666,2760.890625,794.8333333333334,2760.890625,810.4166666666666C2760.890625,826,2760.890625,840,2760.890625,852.75C2760.890625,865.5,2760.890625,877,2922.6002604166665,888.5C3084.3098958333335,900,3407.7291666666665,911.5,3569.4388020833335,926.4583333333334C3731.1484375,941.4166666666666,3731.1484375,959.8333333333334,3731.1484375,979.8333333333334C3731.1484375,999.8333333333334,3731.1484375,1021.4166666666666,3700.03125,1039.5584031577748C3668.9140625,1057.700139648883,3606.6796875,1072.4002792977656,3575.5625,1079.7503491222071L3544.4453125,1087.1004189466485" id="edge11" class="transition" marker-end="url(#statediagram-barbEnd)"></path><path d="M3224.2578125,706.448386407352L3312.0729166666665,715.4569886727933C3399.8880208333335,724.4655909382346,3575.5182291666665,742.4827954691173,3663.3333333333335,760.074731067892C3751.1484375,777.6666666666666,3751.1484375,794.8333333333334,3751.1484375,810.4166666666666C3751.1484375,826,3751.1484375,840,3751.1484375,852.75C3751.1484375,865.5,3751.1484375,877,3751.1484375,888.5C3751.1484375,900,3751.1484375,911.5,3751.1484375,926.4583333333334C3751.1484375,941.4166666666666,3751.1484375,959.8333333333334,3751.1484375,979.8333333333334C3751.1484375,999.8333333333334,3751.1484375,1021.4166666666666,3716.6979166666665,1039.7924258924777C3682.2473958333335,1058.1681851182886,3613.3463541666665,1073.3363702365775,3578.8958333333335,1080.9204627957217L3544.4453125,1088.5045553548662" id="edge12" class="transition" marker-end="url(#statediagram-barbEnd)"></path><path d="M1692.34375,817.8408894122537L1789.4440104166667,823.8674078435447C1886.5442708333333,829.8939262748357,2080.7447916666665,841.9469631374178,2177.8450520833335,853.723481568709C2274.9453125,865.5,2274.9453125,877,2487.5436197916665,888.5C2700.1419270833335,900,3125.3385416666665,911.5,3337.9368489583335,926.4583333333334C3550.53515625,941.4166666666666,3550.53515625,959.8333333333334,3550.53515625,979.8333333333334C3550.53515625,999.8333333333334,3550.53515625,1021.4166666666666,3542.231026785714,1037.9583333333333C3533.926897321429,1054.5,3517.3186383928573,1066,3509.014508928572,1071.75L3500.710379464286,1077.5" id="edge13" class="transition" marker-end="url(#statediagram-barbEnd)"></path><path d="M1361.71484375,984.50538954601L1565.7825520833333,994.2544912883417C1769.8502604166667,1004.0035930306734,2177.9856770833335,1023.5017965153367,2512.6334635416665,1042.9592887784554C2847.28125,1062.416781041574,3108.44140625,1081.8335620831483,3239.021484375,1091.5419526039354L3369.6015625,1101.2503431247226" id="edge14" class="transition" marker-end="url(#statediagram-barbEnd)"></path><path d="M2962.0703125,704.8475554904709L2859.4375,714.1229629087256C2756.8046875,723.3983703269805,2551.5390625,741.9491851634903,2339.91796875,758.7280730358492C2128.296875,775.5069609082079,1910.3203125,790.5139218164159,1801.33203125,798.0174022705199L1692.34375,805.5208827246238" id="edge15" class="transition" marker-end="url(#statediagram-barbEnd)"></path><path d="M2962.0703125,701.0497633363183L2800.7083333333335,710.9581361135985C2639.3463541666665,720.8665088908789,2316.6223958333335,740.6832544454395,2105.0013020833335,757.1334000202977C1893.3802083333333,773.5835455951559,1792.8619791666667,786.6670911903117,1742.6028645833333,793.2088639878895L1692.34375,799.7506367854675" id="edge16" class="transition" marker-end="url(#statediagram-barbEnd)"></path><path d="M1173.2843785350678,948L1165.36523732089,943.8333333333334C1157.4460961067118,939.6666666666666,1141.607813678356,931.3333333333334,1133.688672464178,921.4166666666666C1125.76953125,911.5,1125.76953125,900,1125.76953125,888.5C1125.76953125,877,1125.76953125,865.5,1188.8287760416667,854.1443167067655C1251.8880208333333,842.7886334135311,1378.0065104166667,831.5772668270623,1441.0657552083333,825.9715835338278L1504.125,820.3659002405933" id="edge17" class="transition" marker-end="url(#statediagram-barbEnd)"></path><path d="M3061.265017361111,723.25L3054.718243634259,729.4583333333334C3048.1714699074073,735.6666666666666,3035.0779224537036,748.0833333333334,3028.531148726852,762.875C3021.984375,777.6666666666666,3021.984375,794.8333333333334,3021.984375,810.4166666666666C3021.984375,826,3021.984375,840,3021.984375,852.75C3021.984375,865.5,3021.984375,877,2887.3697916666665,888.5C2752.7552083333335,900,2483.5260416666665,911.5,2320.1282552083335,922.1929903109482C2156.73046875,932.8859806218962,2099.1640625,942.7719612437926,2070.380859375,947.7149515547408L2041.59765625,952.6579418656888" id="edge18" class="transition" marker-end="url(#statediagram-barbEnd)"></path><path d="M1576.891090029762,829L1571.659892733135,833.1666666666666C1566.428695436508,837.3333333333334,1555.9663008432537,845.6666666666666,1550.735103546627,855.5833333333334C1545.50390625,865.5,1545.50390625,877,1545.50390625,888.5C1545.50390625,900,1545.50390625,911.5,1578.51171875,922.5045019696117C1611.51953125,933.5090039392235,1677.53515625,944.0180078784468,1710.54296875,949.2725098480586L1743.55078125,954.5270118176702" id="edge19" class="transition" marker-end="url(#statediagram-barbEnd)"></path><path d="M2041.59765625,964.4005528398045L2071.0099826388887,961.6671273665038C2100.422309027778,958.933701893203,2159.246961805555,953.4668509466015,2196.0123697916665,950.7334254733008C2232.7777777777774,948,2247.483940972222,948,2262.1901041666665,953.0416666666666C2276.896267361111,958.0833333333334,2291.602430555555,968.1666666666666,2291.602430555555,978.25C2291.602430555555,988.3333333333334,2276.896267361111,998.4166666666666,2262.1901041666665,1003.4583333333334C2247.483940972222,1008.5,2232.7777777777774,1008.5,2196.0123697916665,1005.7665745266992C2159.246961805555,1003.0331490533985,2100.422309027778,997.566298106797,2071.0099826388887,994.8328726334962L2041.59765625,992.0994471601955" id="edge20" class="transition" marker-end="url(#statediagram-barbEnd)"></path><path d="M2041.59765625,986.3983750832911L2214.1263020833335,995.8319792360759C2386.6549479166665,1005.2655833888607,2731.7122395833335,1024.1327916944304,2953.0462239583335,1041.8770157215454C3174.3802083333335,1059.6212397486604,3271.9908854166665,1076.2424794973206,3320.7962239583335,1084.5530993716507L3369.6015625,1092.8637192459807" id="edge21" class="transition" marker-end="url(#statediagram-barbEnd)"></path><path d="M2041.59765625,988.528333721685L2173.2265625,997.6069447680708C2304.85546875,1006.6855558144567,2568.11328125,1024.8427779072283,2789.447265625,1043.2051451268583C3010.78125,1061.5675123464882,3190.19140625,1080.1350246929767,3279.896484375,1089.418780866221L3369.6015625,1098.7025370394651" id="edge22" class="transition" marker-end="url(#statediagram-barbEnd)"></path><path d="M1743.55078125,987.8812090611353L1601.4088541666667,997.0676742176128C1459.2669270833333,1006.2541393740903,1174.9830729166667,1024.6270696870452,997.3834635416666,1040.3503709146878C819.7838541666666,1056.0736721423302,748.8684895833334,1069.1473442846602,713.4108072916666,1075.6841803558254L677.953125,1082.2210164269904" id="edge23" class="transition" marker-end="url(#statediagram-barbEnd)"></path><path d="M677.953125,1127.041733152099L720.9713541666666,1133.034777626749C763.9895833333334,1139.0278221013994,850.0260416666666,1151.0139110506996,893.0442708333334,1162.7569555253497C936.0625,1174.5,936.0625,1186,936.0625,1202.5416666666667C936.0625,1219.0833333333333,936.0625,1240.6666666666667,936.0625,1262.25C936.0625,1283.8333333333333,936.0625,1305.4166666666667,936.0625,1327C936.0625,1348.5833333333333,936.0625,1370.1666666666667,936.0625,1391.75C936.0625,1413.3333333333333,936.0625,1434.9166666666667,936.0625,1456.5C936.0625,1478.0833333333333,936.0625,1499.6666666666667,936.0625,1521.25C936.0625,1542.8333333333333,936.0625,1564.4166666666667,922.9531629247573,1580.9583333333333C909.8438258495145,1597.5,883.6251516990291,1609,870.5158146237864,1614.75L857.4064775485436,1620.5" id="edge24" class="transition" marker-end="url(#statediagram-barbEnd)"></path><path d="M460.18152573529414,1138L449.25934436274514,1142.1666666666667C438.3371629901961,1146.3333333333333,416.49280024509807,1154.6666666666667,405.570618872549,1164.5833333333333C394.6484375,1174.5,394.6484375,1186,394.6484375,1197.5C394.6484375,1209,394.6484375,1220.5,394.6484375,1226.25L394.6484375,1232" id="edge25" class="transition" marker-end="url(#statediagram-barbEnd)"></path><path d="M542.1171875,1285.1629204004348L586.9947916666666,1292.1357670003624C631.8723958333334,1299.1086136002898,721.6276041666666,1313.054306800145,766.5052083333334,1330.8188200667391C811.3828125,1348.5833333333333,811.3828125,1370.1666666666667,811.3828125,1391.75C811.3828125,1413.3333333333333,811.3828125,1434.9166666666667,811.3828125,1456.5C811.3828125,1478.0833333333333,811.3828125,1499.6666666666667,811.3828125,1521.25C811.3828125,1542.8333333333333,811.3828125,1564.4166666666667,812.1940230582524,1580.9583333333333C813.0052336165048,1597.5,814.6276547330098,1609,815.4388652912621,1614.75L816.2500758495146,1620.5" id="edge26" class="transition" marker-end="url(#statediagram-barbEnd)"></path><path d="M493.0978070704633,1292.5L511.81132360038606,1298.25C530.5248401303089,1304,567.9518731901544,1315.5,586.6653897200772,1327C605.37890625,1338.5,605.37890625,1350,605.37890625,1355.75L605.37890625,1361.5" id="edge27" class="transition" marker-end="url(#statediagram-barbEnd)"></path><path d="M631.4297478281853,1422L636.3815606901544,1427.75C641.3333735521236,1433.5,651.2369992760617,1445,656.1888121380308,1461.5416666666667C661.140625,1478.0833333333333,661.140625,1499.6666666666667,661.140625,1521.25C661.140625,1542.8333333333333,661.140625,1564.4166666666667,678.7264487257281,1580.9583333333333C696.3122724514564,1597.5,731.4839199029126,1609,749.0697436286408,1614.75L766.6555673543689,1620.5" id="edge28" class="transition" marker-end="url(#statediagram-barbEnd)"></path><path d="M533.2942658059845,1422L519.5922267133204,1427.75C505.8901876206564,1433.5,478.4861094353282,1445,446.0705538127413,1456.5C413.6549981901544,1468,376.22796513030886,1479.5,357.51444860038606,1485.25L338.8009320704633,1491" id="edge29" class="transition" marker-end="url(#statediagram-barbEnd)"></path><path d="M296.5129554777992,1292.5L277.85910352316597,1298.25C259.2052515685328,1304,221.8975476592664,1315.5,203.24369570463318,1332.0416666666667C184.58984375,1348.5833333333333,184.58984375,1370.1666666666667,184.58984375,1391.75C184.58984375,1413.3333333333333,184.58984375,1434.9166666666667,189.5416566119691,1451.4583333333333C194.49346947393823,1468,204.39709519787644,1479.5,209.34890805984557,1485.25L214.30072092181467,1491" id="edge30" class="transition" marker-end="url(#statediagram-barbEnd)"></path><path d="M383.8203125,1550.5851013963586L412.6875,1556.4875844969654C441.5546875,1562.3900675975722,499.2890625,1574.1950337987862,504.01096025485435,1585.847516899393C508.7328580097087,1597.5,460.44227851941747,1609,436.2969887742718,1614.75L412.15169902912623,1620.5" id="edge31" class="transition" marker-end="url(#statediagram-barbEnd)"></path><path d="M292.7671332046332,1551.5L302.730423503861,1557.25C312.69371380308877,1563,332.6202944015444,1574.5,318.4382949556266,1586C304.25629550970876,1597.5,255.9657160194175,1609,231.82042627427185,1614.75L207.67513652912623,1620.5" id="edge32" class="transition" marker-end="url(#statediagram-barbEnd)"></path><path d="M187.9359917953668,1551.5L177.97270149613897,1557.25C168.0094111969112,1563,148.08283059845562,1574.5,241.82787363256114,1587.9850320008748C335.5729166666667,1601.47006400175,542.9895833333334,1616.9401280035,646.6979166666666,1624.6751600043747L750.40625,1632.4101920052499" id="edge33" class="transition" marker-end="url(#statediagram-barbEnd)"></path><path d="M3457.0234375,1138L3457.0234375,1142.1666666666667C3457.0234375,1146.3333333333333,3457.0234375,1154.6666666666667,3457.0234375,1164.5833333333333C3457.0234375,1174.5,3457.0234375,1186,3457.0234375,1202.5416666666667C3457.0234375,1219.0833333333333,3457.0234375,1240.6666666666667,3457.0234375,1262.25C3457.0234375,1283.8333333333333,3457.0234375,1305.4166666666667,3457.0234375,1327C3457.0234375,1348.5833333333333,3457.0234375,1370.1666666666667,3457.0234375,1391.75C3457.0234375,1413.3333333333333,3457.0234375,1434.9166666666667,3457.0234375,1456.5C3457.0234375,1478.0833333333333,3457.0234375,1499.6666666666667,3457.0234375,1521.25C3457.0234375,1542.8333333333333,3457.0234375,1564.4166666666667,3028.66796875,1583.5696567390753C2600.3125,1602.7226468114843,1743.6015625,1619.4452936229688,1315.24609375,1627.806617028711L886.890625,1636.167940434453" id="edge34" class="transition" marker-end="url(#statediagram-barbEnd)"></path><path d="M1504.125,827.0604134728444L1476.068359375,831.5503445607037C1448.01171875,836.0402756485629,1391.8984375,845.0201378242815,1363.841796875,855.2600689121408C1335.78515625,865.5,1335.78515625,877,1335.78515625,888.5C1335.78515625,900,1335.78515625,911.5,1327.866015035822,921.4166666666666C1319.946873821644,931.3333333333334,1304.1085913932882,939.6666666666666,1296.18945017911,943.8333333333334L1288.2703089649322,948" id="edge35" class="transition" marker-end="url(#statediagram-barbEnd)"></path><path d="M478.7109375,1003.25L478.7109375,1009.875C478.7109375,1016.5,478.7109375,1029.75,484.10711269305017,1042.125C489.5032878861004,1054.5,500.29563827220073,1066,505.69181346525096,1071.75L511.08798865830113,1077.5" class="transition note-edge"></path><path d="M3232.62109375,1003.25L3232.62109375,1009.875C3232.62109375,1016.5,3232.62109375,1029.75,3255.451171875,1042.96248716208C3278.28125,1056.1749743241596,3323.94140625,1069.3499486483195,3346.771484375,1075.9374358103994L3369.6015625,1082.524922972479" class="transition note-edge"></path><path d="M1062.42578125,726L1062.42578125,731.75C1062.42578125,737.5,1062.42578125,749,1136.0423177083333,761.8257574100671C1209.6588541666667,774.6515148201341,1356.8919270833333,788.8030296402682,1430.5084635416667,795.8787870503353L1504.125,802.9545444604023" class="transition note-edge"></path><path d="M2840.30078125,147L2840.30078125,152.75C2840.30078125,158.5,2840.30078125,170,2840.30078125,181.95833333333334C2840.30078125,193.91666666666666,2840.30078125,206.33333333333334,2840.30078125,212.54166666666666L2840.30078125,218.75" class="transition note-edge"></path><path d="M340.765625,1654.5L340.765625,1658.6666666666667C340.765625,1662.8333333333333,340.765625,1671.1666666666667,365.97565542460256,1680.4352520872142C391.18568584920513,1689.7038375077618,441.60574669841026,1699.9076750155236,466.8157771230128,1705.0095937694043L492.0258075476154,1710.1115125232852" id="edge36" class="transition" marker-end="url(#statediagram-barbEnd)"></path><path d="M136.2890625,1654.5L136.2890625,1658.6666666666667C136.2890625,1662.8333333333333,136.2890625,1671.1666666666667,195.55985542550835,1680.5641045226223C254.83064835101672,1689.9615423785783,373.37223420203344,1700.4230847571569,432.64302712754176,1705.653855946446L491.9138200530501,1710.884627135735" id="edge37" class="transition" marker-end="url(#statediagram-barbEnd)"></path><path d="M818.6484375,1654.5L818.6484375,1658.6666666666667C818.6484375,1662.8333333333333,818.6484375,1671.1666666666667,766.5156858621335,1680.5504933452733C714.3829342242672,1689.93432002388,610.1174309485342,1700.3686400477602,557.9846793106678,1705.5858000597002L505.8519276728014,1710.8029600716404" id="edge38" class="transition" marker-end="url(#statediagram-barbEnd)"></path></g><g class="edgeLabels"><g class="edgeLabel"><g class="label" transform="translate(0, 0)"><rect rx="0" ry="0" width="0" height="0" style="fill:#e8e8e8;"></rect><text style=""></text></g></g><g class="edgeLabel"><g class="label" transform="translate(0, 0)"><rect rx="0" ry="0" width="0" height="0" style="fill:#e8e8e8;"></rect><text style=""></text></g></g><g class="edgeLabel" transform="translate(620.08984375, 181.5)"><g class="label" transform="translate(-60.0234375, -9.5)"><rect rx="0" ry="0" width="120.046875" height="19" style="fill:#e8e8e8;"></rect><text style=""><tspan xml:space="preserve" dy="1em" x="0" class="row">ClientEventOpen</tspan></text></g></g><g class="edgeLabel" transform="translate(4409.83203125, 341.5)"><g class="label" transform="translate(-100.0390625, -9.5)"><rect rx="0" ry="0" width="200.078125" height="19" style="fill:#e8e8e8;"></rect><text style=""><tspan xml:space="preserve" dy="1em" x="0" class="row">ClientEventFundingInitiated</tspan></text></g></g><g class="edgeLabel" transform="translate(2616.6796875, 693)"><g class="label" transform="translate(-111.953125, -9.5)"><rect rx="0" ry="0" width="223.90625" height="19" style="fill:#e8e8e8;"></rect><text style=""><tspan xml:space="preserve" dy="1em" x="0" class="row">ClientEventReserveFundsFailed</tspan></text></g></g><g class="edgeLabel" transform="translate(4471.43359375, 760.5)"><g class="label" transform="translate(-111.953125, -9.5)"><rect rx="0" ry="0" width="223.90625" height="19" style="fill:#e8e8e8;"></rect><text style=""><tspan xml:space="preserve" dy="1em" x="0" class="row">ClientEventReserveFundsFailed</tspan></text></g></g><g class="edgeLabel" transform="translate(2492.734375, 406.25)"><g class="label" transform="translate(-103.9453125, -9.5)"><rect rx="0" ry="0" width="207.890625" height="19" style="fill:#e8e8e8;"></rect><text style=""><tspan xml:space="preserve" dy="1em" x="0" class="row">ClientEventFundingComplete</tspan></text></g></g><g class="edgeLabel" transform="translate(4081.92578125, 471)"><g class="label" transform="translate(-103.9453125, -9.5)"><rect rx="0" ry="0" width="207.890625" height="19" style="fill:#e8e8e8;"></rect><text style=""><tspan xml:space="preserve" dy="1em" x="0" class="row">ClientEventFundingComplete</tspan></text></g></g><g class="edgeLabel" transform="translate(4652.2265625, 1107.75)"><g class="label" transform="translate(-113.4609375, -9.5)"><rect rx="0" ry="0" width="226.921875" height="19" style="fill:#e8e8e8;"></rect><text style=""><tspan xml:space="preserve" dy="1em" x="0" class="row">ClientEventWriteProposalFailed</tspan></text></g></g><g class="edgeLabel" transform="translate(4182.51953125, 812)"><g class="label" transform="translate(-113.96875, -9.5)"><rect rx="0" ry="0" width="227.9375" height="19" style="fill:#e8e8e8;"></rect><text style=""><tspan xml:space="preserve" dy="1em" x="0" class="row">ClientEventReadResponseFailed</tspan></text></g></g><g class="edgeLabel" transform="translate(3910.29296875, 812)"><g class="label" transform="translate(-138.2578125, -9.5)"><rect rx="0" ry="0" width="276.515625" height="19" style="fill:#e8e8e8;"></rect><text style=""><tspan xml:space="preserve" dy="1em" x="0" class="row">ClientEventResponseVerificationFailed</tspan></text></g></g><g class="edgeLabel" transform="translate(3093.1640625, 600.5)"><g class="label" transform="translate(-113.9921875, -9.5)"><rect rx="0" ry="0" width="227.984375" height="19" style="fill:#e8e8e8;"></rect><text style=""><tspan xml:space="preserve" dy="1em" x="0" class="row">ClientEventInitiateDataTransfer</tspan></text></g></g><g class="edgeLabel" transform="translate(2760.890625, 812)"><g class="label" transform="translate(-118.734375, -9.5)"><rect rx="0" ry="0" width="237.46875" height="19" style="fill:#e8e8e8;"></rect><text style=""><tspan xml:space="preserve" dy="1em" x="0" class="row">ClientEventUnexpectedDealState</tspan></text></g></g><g class="edgeLabel" transform="translate(3751.1484375, 888.5)"><g class="label" transform="translate(-109.7890625, -9.5)"><rect rx="0" ry="0" width="219.578125" height="19" style="fill:#e8e8e8;"></rect><text style=""><tspan xml:space="preserve" dy="1em" x="0" class="row">ClientEventDataTransferFailed</tspan></text></g></g><g class="edgeLabel" transform="translate(3550.53515625, 978.25)"><g class="label" transform="translate(-109.7890625, -9.5)"><rect rx="0" ry="0" width="219.578125" height="19" style="fill:#e8e8e8;"></rect><text style=""><tspan xml:space="preserve" dy="1em" x="0" class="row">ClientEventDataTransferFailed</tspan></text></g></g><g class="edgeLabel" transform="translate(2586.12109375, 1043)"><g class="label" transform="translate(-135.703125, -9.5)"><rect rx="0" ry="0" width="271.40625" height="19" style="fill:#e8e8e8;"></rect><text style=""><tspan xml:space="preserve" dy="1em" x="0" class="row">ClientEventDataTransferRestartFailed</tspan></text></g></g><g class="edgeLabel" transform="translate(2346.2734375, 760.5)"><g class="label" transform="translate(-118.453125, -9.5)"><rect rx="0" ry="0" width="236.90625" height="19" style="fill:#e8e8e8;"></rect><text style=""><tspan xml:space="preserve" dy="1em" x="0" class="row">ClientEventDataTransferInitiated</tspan></text></g></g><g class="edgeLabel" transform="translate(1993.8984375, 760.5)"><g class="label" transform="translate(-122.65625, -9.5)"><rect rx="0" ry="0" width="245.3125" height="19" style="fill:#e8e8e8;"></rect><text style=""><tspan xml:space="preserve" dy="1em" x="0" class="row">ClientEventDataTransferRestarted</tspan></text></g></g><g class="edgeLabel" transform="translate(1125.76953125, 888.5)"><g class="label" transform="translate(-122.65625, -9.5)"><rect rx="0" ry="0" width="245.3125" height="19" style="fill:#e8e8e8;"></rect><text style=""><tspan xml:space="preserve" dy="1em" x="0" class="row">ClientEventDataTransferRestarted</tspan></text></g></g><g class="edgeLabel" transform="translate(3021.984375, 812)"><g class="label" transform="translate(-122.359375, -9.5)"><rect rx="0" ry="0" width="244.71875" height="19" style="fill:#e8e8e8;"></rect><text style=""><tspan xml:space="preserve" dy="1em" x="0" class="row">ClientEventDataTransferComplete</tspan></text></g></g><g class="edgeLabel" transform="translate(1545.50390625, 888.5)"><g class="label" transform="translate(-122.359375, -9.5)"><rect rx="0" ry="0" width="244.71875" height="19" style="fill:#e8e8e8;"></rect><text style=""><tspan xml:space="preserve" dy="1em" x="0" class="row">ClientEventDataTransferComplete</tspan></text></g></g><g class="edgeLabel" transform="translate(2306.30859375, 978.25)"><g class="label" transform="translate(-104.109375, -9.5)"><rect rx="0" ry="0" width="208.21875" height="19" style="fill:#e8e8e8;"></rect><text style=""><tspan xml:space="preserve" dy="1em" x="0" class="row">ClientEventWaitForDealState</tspan></text></g></g><g class="edgeLabel" transform="translate(3076.76953125, 1043)"><g class="label" transform="translate(-135.8515625, -9.5)"><rect rx="0" ry="0" width="271.703125" height="19" style="fill:#e8e8e8;"></rect><text style=""><tspan xml:space="preserve" dy="1em" x="0" class="row">ClientEventResponseDealDidNotMatch</tspan></text></g></g><g class="edgeLabel" transform="translate(2831.37109375, 1043)"><g class="label" transform="translate(-89.546875, -9.5)"><rect rx="0" ry="0" width="179.09375" height="19" style="fill:#e8e8e8;"></rect><text style=""><tspan xml:space="preserve" dy="1em" x="0" class="row">ClientEventDealRejected</tspan></text></g></g><g class="edgeLabel" transform="translate(890.69921875, 1043)"><g class="label" transform="translate(-90.7265625, -9.5)"><rect rx="0" ry="0" width="181.453125" height="19" style="fill:#e8e8e8;"></rect><text style=""><tspan xml:space="preserve" dy="1em" x="0" class="row">ClientEventDealAccepted</tspan></text></g></g><g class="edgeLabel" transform="translate(936.0625, 1391.75)"><g class="label" transform="translate(-104.6796875, -9.5)"><rect rx="0" ry="0" width="209.359375" height="19" style="fill:#e8e8e8;"></rect><text style=""><tspan xml:space="preserve" dy="1em" x="0" class="row">ClientEventDealPublishFailed</tspan></text></g></g><g class="edgeLabel" transform="translate(394.6484375, 1197.5)"><g class="label" transform="translate(-91.6328125, -9.5)"><rect rx="0" ry="0" width="183.265625" height="19" style="fill:#e8e8e8;"></rect><text style=""><tspan xml:space="preserve" dy="1em" x="0" class="row">ClientEventDealPublished</tspan></text></g></g><g class="edgeLabel" transform="translate(811.3828125, 1456.5)"><g class="label" transform="translate(-54.671875, -9.5)"><rect rx="0" ry="0" width="109.34375" height="19" style="fill:#e8e8e8;"></rect><text style=""><tspan xml:space="preserve" dy="1em" x="0" class="row">&lt;invalid Value&gt;</tspan></text></g></g><g class="edgeLabel" transform="translate(605.37890625, 1327)"><g class="label" transform="translate(-54.671875, -9.5)"><rect rx="0" ry="0" width="109.34375" height="19" style="fill:#e8e8e8;"></rect><text style=""><tspan xml:space="preserve" dy="1em" x="0" class="row">&lt;invalid Value&gt;</tspan></text></g></g><g class="edgeLabel" transform="translate(661.140625, 1521.25)"><g class="label" transform="translate(-115.5078125, -9.5)"><rect rx="0" ry="0" width="231.015625" height="19" style="fill:#e8e8e8;"></rect><text style=""><tspan xml:space="preserve" dy="1em" x="0" class="row">ClientEventDealActivationFailed</tspan></text></g></g><g class="edgeLabel" transform="translate(451.08203125, 1456.5)"><g class="label" transform="translate(-91.5234375, -9.5)"><rect rx="0" ry="0" width="183.046875" height="19" style="fill:#e8e8e8;"></rect><text style=""><tspan xml:space="preserve" dy="1em" x="0" class="row">ClientEventDealActivated</tspan></text></g></g><g class="edgeLabel" transform="translate(184.58984375, 1391.75)"><g class="label" transform="translate(-91.5234375, -9.5)"><rect rx="0" ry="0" width="183.046875" height="19" style="fill:#e8e8e8;"></rect><text style=""><tspan xml:space="preserve" dy="1em" x="0" class="row">ClientEventDealActivated</tspan></text></g></g><g class="edgeLabel" transform="translate(557.0234375, 1586)"><g class="label" transform="translate(-84.1171875, -9.5)"><rect rx="0" ry="0" width="168.234375" height="19" style="fill:#e8e8e8;"></rect><text style=""><tspan xml:space="preserve" dy="1em" x="0" class="row">ClientEventDealSlashed</tspan></text></g></g><g class="edgeLabel" transform="translate(352.546875, 1586)"><g class="label" transform="translate(-84.234375, -9.5)"><rect rx="0" ry="0" width="168.46875" height="19" style="fill:#e8e8e8;"></rect><text style=""><tspan xml:space="preserve" dy="1em" x="0" class="row">ClientEventDealExpired</tspan></text></g></g><g class="edgeLabel" transform="translate(128.15625, 1586)"><g class="label" transform="translate(-120.15625, -9.5)"><rect rx="0" ry="0" width="240.3125" height="19" style="fill:#e8e8e8;"></rect><text style=""><tspan xml:space="preserve" dy="1em" x="0" class="row">ClientEventDealCompletionFailed</tspan></text></g></g><g class="edgeLabel" transform="translate(3457.0234375, 1391.75)"><g class="label" transform="translate(-63.3046875, -9.5)"><rect rx="0" ry="0" width="126.609375" height="19" style="fill:#e8e8e8;"></rect><text style=""><tspan xml:space="preserve" dy="1em" x="0" class="row">ClientEventFailed</tspan></text></g></g><g class="edgeLabel" transform="translate(1335.78515625, 888.5)"><g class="label" transform="translate(-67.359375, -9.5)"><rect rx="0" ry="0" width="134.71875" height="19" style="fill:#e8e8e8;"></rect><text style=""><tspan xml:space="preserve" dy="1em" x="0" class="row">ClientEventRestart</tspan></text></g></g><g class="edgeLabel"><g class="label" transform="translate(0, 0)"><rect rx="0" ry="0" width="0" height="0" style="fill:#e8e8e8;"></rect><text style=""></text></g></g><g class="edgeLabel"><g class="label" transform="translate(0, 0)"><rect rx="0" ry="0" width="0" height="0" style="fill:#e8e8e8;"></rect><text style=""></text></g></g><g class="edgeLabel"><g class="label" transform="translate(0, 0)"><rect rx="0" ry="0" width="0" height="0" style="fill:#e8e8e8;"></rect><text style=""></text></g></g><g class="edgeLabel"><g class="label" transform="translate(0, 0)"><rect rx="0" ry="0" width="0" height="0" style="fill:#e8e8e8;"></rect><text style=""></text></g></g><g class="edgeLabel"><g class="label" transform="translate(0, 0)"><rect rx="0" ry="0" width="0" height="0" style="fill:#e8e8e8;"></rect><text style=""></text></g></g><g class="edgeLabel"><g class="label" transform="translate(0, 0)"><rect rx="0" ry="0" width="0" height="0" style="fill:#e8e8e8;"></rect><text style=""></text></g></g><g class="edgeLabel"><g class="label" transform="translate(0, 0)"><rect rx="0" ry="0" width="0" height="0" style="fill:#e8e8e8;"></rect><text style=""></text></g></g></g><g class="nodes"><g class="node statediagram-state" id="0" transform="translate(735.1015625, 122)"><rect class="outer title-state" x="-82.921875" y="-17" width="165.84375" height="34"></rect><line class="divider" x1="-82.921875" x2="82.921875" y1="9.5" y2="9.5"></line><g class="label" transform="translate(-75.421875, -14)"><text style=""><tspan xml:space="preserve" dy="1em" x="0" class="title-row">StorageDealUnknown</tspan></text><text style="" transform="translate( 0, 26.5)"><tspan xml:space="preserve" dy="1em" x="0" class="title-row"></tspan></text></g></g><g class="node statediagram-state" id="3" transform="translate(539.4765625, 1107.75)"><rect class="outer title-state" x="-138.4765625" y="-30.25" width="276.953125" height="60.5"></rect><line class="divider" x1="-138.4765625" x2="138.4765625" y1="-3.75" y2="-3.75"></line><g class="label" transform="translate(-130.9765625, -27.25)"><text style=""><tspan xml:space="preserve" dy="1em" x="0" class="title-row">StorageDealProposalAccepted</tspan></text><text style="" transform="translate( 0, 26.5)"><tspan xml:space="preserve" dy="1em" x="0" class="title-row">On entry runs ValidateDealPublished</tspan></text></g></g><g class="node statediagram-state" id="5" transform="translate(605.37890625, 1391.75)"><rect class="outer title-state" x="-129.9765625" y="-30.25" width="259.953125" height="60.5"></rect><line class="divider" x1="-129.9765625" x2="129.9765625" y1="-3.75" y2="-3.75"></line><g class="label" transform="translate(-122.4765625, -27.25)"><text style=""><tspan xml:space="preserve" dy="1em" x="0" class="title-row">StorageDealSealing</tspan></text><text style="" transform="translate( 0, 26.5)"><tspan xml:space="preserve" dy="1em" x="0" class="title-row">On entry runs VerifyDealActivated</tspan></text></g></g><g class="node statediagram-state" id="7" transform="translate(240.3515625, 1521.25)"><rect class="outer title-state" x="-143.46875" y="-30.25" width="286.9375" height="60.5"></rect><line class="divider" x1="-143.46875" x2="143.46875" y1="-3.75" y2="-3.75"></line><g class="label" transform="translate(-135.96875, -27.25)"><text style=""><tspan xml:space="preserve" dy="1em" x="0" class="title-row">StorageDealActive</tspan></text><text style="" transform="translate( 0, 26.5)"><tspan xml:space="preserve" dy="1em" x="0" class="title-row">On entry runs WaitForDealCompletion</tspan></text></g></g><g class="node statediagram-state" id="8" transform="translate(136.2890625, 1637.5)"><rect class="outer title-state" x="-77.296875" y="-17" width="154.59375" height="34"></rect><line class="divider" x1="-77.296875" x2="77.296875" y1="9.5" y2="9.5"></line><g class="label" transform="translate(-69.796875, -14)"><text style=""><tspan xml:space="preserve" dy="1em" x="0" class="title-row">StorageDealExpired</tspan></text><text style="" transform="translate( 0, 26.5)"><tspan xml:space="preserve" dy="1em" x="0" class="title-row"></tspan></text></g></g><g class="node statediagram-state" id="9" transform="translate(340.765625, 1637.5)"><rect class="outer title-state" x="-77.1796875" y="-17" width="154.359375" height="34"></rect><line class="divider" x1="-77.1796875" x2="77.1796875" y1="9.5" y2="9.5"></line><g class="label" transform="translate(-69.6796875, -14)"><text style=""><tspan xml:space="preserve" dy="1em" x="0" class="title-row">StorageDealSlashed</tspan></text><text style="" transform="translate( 0, 26.5)"><tspan xml:space="preserve" dy="1em" x="0" class="title-row"></tspan></text></g></g><g class="node statediagram-state" id="11" transform="translate(3457.0234375, 1107.75)"><rect class="outer title-state" x="-87.421875" y="-30.25" width="174.84375" height="60.5"></rect><line class="divider" x1="-87.421875" x2="87.421875" y1="-3.75" y2="-3.75"></line><g class="label" transform="translate(-79.921875, -27.25)"><text style=""><tspan xml:space="preserve" dy="1em" x="0" class="title-row">StorageDealFailing</tspan></text><text style="" transform="translate( 0, 26.5)"><tspan xml:space="preserve" dy="1em" x="0" class="title-row">On entry runs FailDeal</tspan></text></g></g><g class="node statediagram-state" id="12" transform="translate(4081.92578125, 535.75)"><rect class="outer title-state" x="-103.4453125" y="-30.25" width="206.890625" height="60.5"></rect><line class="divider" x1="-103.4453125" x2="103.4453125" y1="-3.75" y2="-3.75"></line><g class="label" transform="translate(-95.9453125, -27.25)"><text style=""><tspan xml:space="preserve" dy="1em" x="0" class="title-row">StorageDealFundsReserved</tspan></text><text style="" transform="translate( 0, 26.5)"><tspan xml:space="preserve" dy="1em" x="0" class="title-row">On entry runs ProposeDeal</tspan></text></g></g><g class="node statediagram-state" id="13" transform="translate(1892.57421875, 978.25)"><rect class="outer title-state" x="-149.0234375" y="-30.25" width="298.046875" height="60.5"></rect><line class="divider" x1="-149.0234375" x2="149.0234375" y1="-3.75" y2="-3.75"></line><g class="label" transform="translate(-141.5234375, -27.25)"><text style=""><tspan xml:space="preserve" dy="1em" x="0" class="title-row">StorageDealCheckForAcceptance</tspan></text><text style="" transform="translate( 0, 26.5)"><tspan xml:space="preserve" dy="1em" x="0" class="title-row">On entry runs CheckForDealAcceptance</tspan></text></g></g><g class="node statediagram-state" id="16" transform="translate(3093.1640625, 693)"><rect class="outer title-state" x="-131.09375" y="-30.25" width="262.1875" height="60.5"></rect><line class="divider" x1="-131.09375" x2="131.09375" y1="-3.75" y2="-3.75"></line><g class="label" transform="translate(-123.59375, -27.25)"><text style=""><tspan xml:space="preserve" dy="1em" x="0" class="title-row">StorageDealStartDataTransfer</tspan></text><text style="" transform="translate( 0, 26.5)"><tspan xml:space="preserve" dy="1em" x="0" class="title-row">On entry runs InitiateDataTransfer</tspan></text></g></g><g class="node statediagram-state" id="17" transform="translate(1598.234375, 812)"><rect class="outer title-state" x="-94.109375" y="-17" width="188.21875" height="34"></rect><line class="divider" x1="-94.109375" x2="94.109375" y1="9.5" y2="9.5"></line><g class="label" transform="translate(-86.609375, -14)"><text style=""><tspan xml:space="preserve" dy="1em" x="0" class="title-row">StorageDealTransferring</tspan></text><text style="" transform="translate( 0, 26.5)"><tspan xml:space="preserve" dy="1em" x="0" class="title-row"></tspan></text></g></g><g class="node statediagram-state" id="21" transform="translate(2840.30078125, 249)"><rect class="outer title-state" x="-128.5234375" y="-30.25" width="257.046875" height="60.5"></rect><line class="divider" x1="-128.5234375" x2="128.5234375" y1="-3.75" y2="-3.75"></line><g class="label" transform="translate(-121.0234375, -27.25)"><text style=""><tspan xml:space="preserve" dy="1em" x="0" class="title-row">StorageDealReserveClientFunds</tspan></text><text style="" transform="translate( 0, 26.5)"><tspan xml:space="preserve" dy="1em" x="0" class="title-row">On entry runs ReserveClientFunds</tspan></text></g></g><g class="node statediagram-state" id="23" transform="translate(4409.83203125, 406.25)"><rect class="outer title-state" x="-114.6875" y="-30.25" width="229.375" height="60.5"></rect><line class="divider" x1="-114.6875" x2="114.6875" y1="-3.75" y2="-3.75"></line><g class="label" transform="translate(-107.1875, -27.25)"><text style=""><tspan xml:space="preserve" dy="1em" x="0" class="title-row">StorageDealClientFunding</tspan></text><text style="" transform="translate( 0, 26.5)"><tspan xml:space="preserve" dy="1em" x="0" class="title-row">On entry runs WaitForFunding</tspan></text></g></g><g class="node statediagram-state" id="26" transform="translate(818.6484375, 1637.5)"><rect class="outer title-state" x="-68.2421875" y="-17" width="136.484375" height="34"></rect><line class="divider" x1="-68.2421875" x2="68.2421875" y1="9.5" y2="9.5"></line><g class="label" transform="translate(-60.7421875, -14)"><text style=""><tspan xml:space="preserve" dy="1em" x="0" class="title-row">StorageDealError</tspan></text><text style="" transform="translate( 0, 26.5)"><tspan xml:space="preserve" dy="1em" x="0" class="title-row"></tspan></text></g></g><g class="node statediagram-state" id="28" transform="translate(1230.77734375, 978.25)"><rect class="outer title-state" x="-130.9375" y="-30.25" width="261.875" height="60.5"></rect><line class="divider" x1="-130.9375" x2="130.9375" y1="-3.75" y2="-3.75"></line><g class="label" transform="translate(-123.4375, -27.25)"><text style=""><tspan xml:space="preserve" dy="1em" x="0" class="title-row">StorageDealClientTransferRestart</tspan></text><text style="" transform="translate( 0, 26.5)"><tspan xml:space="preserve" dy="1em" x="0" class="title-row">On entry runs RestartDataTransfer</tspan></text></g></g><g class="node statediagram-state" id="29" transform="translate(394.6484375, 1262.25)"><rect class="outer title-state" x="-147.46875" y="-30.25" width="294.9375" height="60.5"></rect><line class="divider" x1="-147.46875" x2="147.46875" y1="-3.75" y2="-3.75"></line><g class="label" transform="translate(-139.96875, -27.25)"><text style=""><tspan xml:space="preserve" dy="1em" x="0" class="title-row">StorageDealAwaitingPreCommit</tspan></text><text style="" transform="translate( 0, 26.5)"><tspan xml:space="preserve" dy="1em" x="0" class="title-row">On entry runs VerifyDealPreCommitted</tspan></text></g></g><g class="node default" id="root_start" transform="translate(735.1015625, 15)"><circle class="state-start" r="7" width="14" height="14"></circle></g><g class="node statediagram-note" id="0----note" transform="translate(775.11328125, 249)"><rect x="-275.046875" y="-33" width="550.09375" height="66"></rect><g class="label" transform="translate(-267.546875, -25.5)"><text style=""><tspan xml:space="preserve" dy="1em" x="0" class="row">The following events are not shown cause they can trigger from any state.</tspan><tspan xml:space="preserve" dy="1em" x="0" class="row"></tspan><tspan xml:space="preserve" dy="1em" x="0" class="row">ClientEventStreamCloseError - transitions state to StorageDealError</tspan><tspan xml:space="preserve" dy="1em" x="0" class="row">ClientEventRestart - does not transition state</tspan></text></g></g><g class="node statediagram-note" id="3----note" transform="translate(478.7109375, 978.25)"><rect x="-173.125" y="-25" width="346.25" height="50"></rect><g class="label" transform="translate(-165.625, -17.5)"><text style=""><tspan xml:space="preserve" dy="1em" x="0" class="row">The following events only record in this state.</tspan><tspan xml:space="preserve" dy="1em" x="0" class="row"></tspan><tspan xml:space="preserve" dy="1em" x="0" class="row">ClientEventFundsReleased</tspan></text></g></g><g class="node statediagram-note" id="11----note" transform="translate(3232.62109375, 978.25)"><rect x="-173.125" y="-25" width="346.25" height="50"></rect><g class="label" transform="translate(-165.625, -17.5)"><text style=""><tspan xml:space="preserve" dy="1em" x="0" class="row">The following events only record in this state.</tspan><tspan xml:space="preserve" dy="1em" x="0" class="row"></tspan><tspan xml:space="preserve" dy="1em" x="0" class="row">ClientEventFundsReleased</tspan></text></g></g><g class="node statediagram-note" id="17----note" transform="translate(1062.42578125, 693)"><rect x="-173.125" y="-33" width="346.25" height="66"></rect><g class="label" transform="translate(-165.625, -25.5)"><text style=""><tspan xml:space="preserve" dy="1em" x="0" class="row">The following events only record in this state.</tspan><tspan xml:space="preserve" dy="1em" x="0" class="row"></tspan><tspan xml:space="preserve" dy="1em" x="0" class="row">ClientEventDataTransferRestarted</tspan><tspan xml:space="preserve" dy="1em" x="0" class="row">ClientEventDataTransferStalled</tspan></text></g></g><g class="node statediagram-note" id="21----note" transform="translate(2840.30078125, 122)"><rect x="-173.125" y="-25" width="346.25" height="50"></rect><g class="label" transform="translate(-165.625, -17.5)"><text style=""><tspan xml:space="preserve" dy="1em" x="0" class="row">The following events only record in this state.</tspan><tspan xml:space="preserve" dy="1em" x="0" class="row"></tspan><tspan xml:space="preserve" dy="1em" x="0" class="row">ClientEventFundsReserved</tspan></text></g></g><g class="node default" id="root_end" transform="translate(498.88671875, 1711.5)"><circle class="state-start" r="7" width="14" height="14"></circle><circle class="state-end" r="5" width="10" height="10"></circle></g></g></g></g></svg>