<svg id="mermaid-1602643015550" width="4640.4609375" xmlns="http://www.w3.org/2000/svg" class="statediagram" height="1597" viewBox="0 0 4640.4609375 1597"><style>#mermaid-1602643015550 .label{font-family:'trebuchet ms', verdana, arial;font-family:var(--mermaid-font-family);color:#333}#mermaid-1602643015550 .label text{fill:#333}#mermaid-1602643015550 .node rect,#mermaid-1602643015550 .node circle,#mermaid-1602643015550 .node ellipse,#mermaid-1602643015550 .node polygon,#mermaid-1602643015550 .node path{fill:#ECECFF;stroke:#9370db;stroke-width:1px}#mermaid-1602643015550 .node .label{text-align:center}#mermaid-1602643015550 .node.clickable{cursor:pointer}#mermaid-1602643015550 .arrowheadPath{fill:#333}#mermaid-1602643015550 .edgePath .path{stroke:#333;stroke-width:1.5px}#mermaid-1602643015550 .edgeLabel{background-color:#e8e8e8;text-align:center}#mermaid-1602643015550 .edgeLabel rect{opacity:0.5}#mermaid-1602643015550 .cluster rect{fill:#ffffde;stroke:#aa3;stroke-width:1px}#mermaid-1602643015550 .cluster text{fill:#333}#mermaid-1602643015550 div.mermaidTooltip{position:absolute;text-align:center;max-width:200px;padding:2px;font-family:'trebuchet ms', verdana, arial;font-family:var(--mermaid-font-family);font-size:12px;background:#ffffde;border:1px solid #aa3;border-radius:2px;pointer-events:none;z-index:100}#mermaid-1602643015550 .actor{stroke:#ccf;fill:#ECECFF}#mermaid-1602643015550 text.actor{fill:#000;stroke:none}#mermaid-1602643015550 .actor-line{stroke:grey}#mermaid-1602643015550 .messageLine0{stroke-width:1.5;stroke-dasharray:'2 2';stroke:#333}#mermaid-1602643015550 .messageLine1{stroke-width:1.5;stroke-dasharray:'2 2';stroke:#333}#mermaid-1602643015550 #arrowhead{fill:#333}#mermaid-1602643015550 .sequenceNumber{fill:#fff}#mermaid-1602643015550 #sequencenumber{fill:#333}#mermaid-1602643015550 #crosshead path{fill:#333 !important;stroke:#333 !important}#mermaid-1602643015550 .messageText{fill:#333;stroke:none}#mermaid-1602643015550 .labelBox{stroke:#ccf;fill:#ECECFF}#mermaid-1602643015550 .labelText{fill:#000;stroke:none}#mermaid-1602643015550 .loopText{fill:#000;stroke:none}#mermaid-1602643015550 .loopLine{stroke-width:2;stroke-dasharray:'2 2';stroke:#ccf}#mermaid-1602643015550 .note{stroke:#aa3;fill:#fff5ad}#mermaid-1602643015550 .noteText{fill:black;stroke:none;font-family:'trebuchet ms', verdana, arial;font-family:var(--mermaid-font-family);font-size:14px}#mermaid-1602643015550 .activation0{fill:#f4f4f4;stroke:#666}#mermaid-1602643015550 .activation1{fill:#f4f4f4;stroke:#666}#mermaid-1602643015550 .activation2{fill:#f4f4f4;stroke:#666}#mermaid-1602643015550 .mermaid-main-font{font-family:"trebuchet ms", verdana, arial;font-family:var(--mermaid-font-family)}#mermaid-1602643015550 .section{stroke:none;opacity:0.2}#mermaid-1602643015550 .section0{fill:rgba(102,102,255,0.49)}#mermaid-1602643015550 .section2{fill:#fff400}#mermaid-1602643015550 .section1,#mermaid-1602643015550 .section3{fill:#fff;opacity:0.2}#mermaid-1602643015550 .sectionTitle0{fill:#333}#mermaid-1602643015550 .sectionTitle1{fill:#333}#mermaid-1602643015550 .sectionTitle2{fill:#333}#mermaid-1602643015550 .sectionTitle3{fill:#333}#mermaid-1602643015550 .sectionTitle{text-anchor:start;font-size:11px;text-height:14px;font-family:'trebuchet ms', verdana, arial;font-family:var(--mermaid-font-family)}#mermaid-1602643015550 .grid .tick{stroke:#d3d3d3;opacity:0.8;shape-rendering:crispEdges}#mermaid-1602643015550 .grid .tick text{font-family:'trebuchet ms', verdana, arial;font-family:var(--mermaid-font-family)}#mermaid-1602643015550 .grid path{stroke-width:0}#mermaid-1602643015550 .today{fill:none;stroke:red;stroke-width:2px}#mermaid-1602643015550 .task{stroke-width:2}#mermaid-1602643015550 .taskText{text-anchor:middle;font-family:'trebuchet ms', verdana, arial;font-family:var(--mermaid-font-family)}#mermaid-1602643015550 .taskText:not([font-size]){font-size:11px}#mermaid-1602643015550 .taskTextOutsideRight{fill:#000;text-anchor:start;font-size:11px;font-family:'trebuchet ms', verdana, arial;font-family:var(--mermaid-font-family)}#mermaid-1602643015550 .taskTextOutsideLeft{fill:#000;text-anchor:end;font-size:11px}#mermaid-1602643015550 .task.clickable{cursor:pointer}#mermaid-1602643015550 .taskText.clickable{cursor:pointer;fill:#003163 !important;font-weight:bold}#mermaid-1602643015550 .taskTextOutsideLeft.clickable{cursor:pointer;fill:#003163 !important;font-weight:bold}#mermaid-1602643015550 .taskTextOutsideRight.clickable{cursor:pointer;fill:#003163 !important;font-weight:bold}#mermaid-1602643015550 .taskText0,#mermaid-1602643015550 .taskText1,#mermaid-1602643015550 .taskText2,#mermaid-1602643015550 .taskText3{fill:#fff}#mermaid-1602643015550 .task0,#mermaid-1602643015550 .task1,#mermaid-1602643015550 .task2,#mermaid-1602643015550 .task3{fill:#8a90dd;stroke:#534fbc}#mermaid-1602643015550 .taskTextOutside0,#mermaid-1602643015550 .taskTextOutside2{fill:#000}#mermaid-1602643015550 .taskTextOutside1,#mermaid-1602643015550 .taskTextOutside3{fill:#000}#mermaid-1602643015550 .active0,#mermaid-1602643015550 .active1,#mermaid-1602643015550 .active2,#mermaid-1602643015550 .active3{fill:#bfc7ff;stroke:#534fbc}#mermaid-1602643015550 .activeText0,#mermaid-1602643015550 .activeText1,#mermaid-1602643015550 .activeText2,#mermaid-1602643015550 .activeText3{fill:#000 !important}#mermaid-1602643015550 .done0,#mermaid-1602643015550 .done1,#mermaid-1602643015550 .done2,#mermaid-1602643015550 .done3{stroke:grey;fill:#d3d3d3;stroke-width:2}#mermaid-1602643015550 .doneText0,#mermaid-1602643015550 .doneText1,#mermaid-1602643015550 .doneText2,#mermaid-1602643015550 .doneText3{fill:#000 !important}#mermaid-1602643015550 .crit0,#mermaid-1602643015550 .crit1,#mermaid-1602643015550 .crit2,#mermaid-1602643015550 .crit3{stroke:#f88;fill:red;stroke-width:2}#mermaid-1602643015550 .activeCrit0,#mermaid-1602643015550 .activeCrit1,#mermaid-1602643015550 .activeCrit2,#mermaid-1602643015550 .activeCrit3{stroke:#f88;fill:#bfc7ff;stroke-width:2}#mermaid-1602643015550 .doneCrit0,#mermaid-1602643015550 .doneCrit1,#mermaid-1602643015550 .doneCrit2,#mermaid-1602643015550 .doneCrit3{stroke:#f88;fill:#d3d3d3;stroke-width:2;cursor:pointer;shape-rendering:crispEdges}#mermaid-1602643015550 .milestone{transform:rotate(45deg) scale(0.8, 0.8)}#mermaid-1602643015550 .milestoneText{font-style:italic}#mermaid-1602643015550 .doneCritText0,#mermaid-1602643015550 .doneCritText1,#mermaid-1602643015550 .doneCritText2,#mermaid-1602643015550 .doneCritText3{fill:#000 !important}#mermaid-1602643015550 .activeCritText0,#mermaid-1602643015550 .activeCritText1,#mermaid-1602643015550 .activeCritText2,#mermaid-1602643015550 .activeCritText3{fill:#000 !important}#mermaid-1602643015550 .titleText{text-anchor:middle;font-size:18px;fill:#000;font-family:'trebuchet ms', verdana, arial;font-family:var(--mermaid-font-family)}#mermaid-1602643015550 g.classGroup text{fill:#9370db;stroke:none;font-family:'trebuchet ms', verdana, arial;font-family:var(--mermaid-font-family);font-size:10px}#mermaid-1602643015550 g.classGroup text .title{font-weight:bolder}#mermaid-1602643015550 g.clickable{cursor:pointer}#mermaid-1602643015550 g.classGroup rect{fill:#ECECFF;stroke:#9370db}#mermaid-1602643015550 g.classGroup line{stroke:#9370db;stroke-width:1}#mermaid-1602643015550 .classLabel .box{stroke:none;stroke-width:0;fill:#ECECFF;opacity:0.5}#mermaid-1602643015550 .classLabel .label{fill:#9370db;font-size:10px}#mermaid-1602643015550 .relation{stroke:#9370db;stroke-width:1;fill:none}#mermaid-1602643015550 .dashed-line{stroke-dasharray:3}#mermaid-1602643015550 #compositionStart{fill:#9370db;stroke:#9370db;stroke-width:1}#mermaid-1602643015550 #compositionEnd{fill:#9370db;stroke:#9370db;stroke-width:1}#mermaid-1602643015550 #aggregationStart{fill:#ECECFF;stroke:#9370db;stroke-width:1}#mermaid-1602643015550 #aggregationEnd{fill:#ECECFF;stroke:#9370db;stroke-width:1}#mermaid-1602643015550 #dependencyStart{fill:#9370db;stroke:#9370db;stroke-width:1}#mermaid-1602643015550 #dependencyEnd{fill:#9370db;stroke:#9370db;stroke-width:1}#mermaid-1602643015550 #extensionStart{fill:#9370db;stroke:#9370db;stroke-width:1}#mermaid-1602643015550 #extensionEnd{fill:#9370db;stroke:#9370db;stroke-width:1}#mermaid-1602643015550 .commit-id,#mermaid-1602643015550 .commit-msg,#mermaid-1602643015550 .branch-label{fill:lightgrey;color:lightgrey;font-family:'trebuchet ms', verdana, arial;font-family:var(--mermaid-font-family)}#mermaid-1602643015550 .pieTitleText{text-anchor:middle;font-size:25px;fill:#000;font-family:'trebuchet ms', verdana, arial;font-family:var(--mermaid-font-family)}#mermaid-1602643015550 .slice{font-family:'trebuchet ms', verdana, arial;font-family:var(--mermaid-font-family)}#mermaid-1602643015550 g.stateGroup text{fill:#9370db;stroke:none;font-size:10px;font-family:'trebuchet ms', verdana, arial;font-family:var(--mermaid-font-family)}#mermaid-1602643015550 g.stateGroup text{fill:#9370db;stroke:none;font-size:10px}#mermaid-1602643015550 g.stateGroup .state-title{font-weight:bolder;fill:#000}#mermaid-1602643015550 g.stateGroup rect{fill:#ECECFF;stroke:#9370db}#mermaid-1602643015550 g.stateGroup line{stroke:#9370db;stroke-width:1}#mermaid-1602643015550 .transition{stroke:#9370db;stroke-width:1;fill:none}#mermaid-1602643015550 .stateGroup .composit{fill:white;border-bottom:1px}#mermaid-1602643015550 .stateGroup .alt-composit{fill:#e0e0e0;border-bottom:1px}#mermaid-1602643015550 .state-note{stroke:#aa3;fill:#fff5ad}#mermaid-1602643015550 .state-note text{fill:black;stroke:none;font-size:10px}#mermaid-1602643015550 .stateLabel .box{stroke:none;stroke-width:0;fill:#ECECFF;opacity:0.5}#mermaid-1602643015550 .stateLabel text{fill:#000;font-size:10px;font-weight:bold;font-family:'trebuchet ms', verdana, arial;font-family:var(--mermaid-font-family)}#mermaid-1602643015550 .node circle.state-start{fill:black;stroke:black}#mermaid-1602643015550 .node circle.state-end{fill:black;stroke:white;stroke-width:1.5}#mermaid-1602643015550 #statediagram-barbEnd{fill:#9370db}#mermaid-1602643015550 .statediagram-cluster rect{fill:#ECECFF;stroke:#9370db;stroke-width:1px}#mermaid-1602643015550 .statediagram-cluster rect.outer{rx:5px;ry:5px}#mermaid-1602643015550 .statediagram-state .divider{stroke:#9370db}#mermaid-1602643015550 .statediagram-state .title-state{rx:5px;ry:5px}#mermaid-1602643015550 .statediagram-cluster.statediagram-cluster .inner{fill:white}#mermaid-1602643015550 .statediagram-cluster.statediagram-cluster-alt .inner{fill:#e0e0e0}#mermaid-1602643015550 .statediagram-cluster .inner{rx:0;ry:0}#mermaid-1602643015550 .statediagram-state rect.basic{rx:5px;ry:5px}#mermaid-1602643015550 .statediagram-state rect.divider{stroke-dasharray:10,10;fill:#efefef}#mermaid-1602643015550 .note-edge{stroke-dasharray:5}#mermaid-1602643015550 .statediagram-note rect{fill:#fff5ad;stroke:#aa3;stroke-width:1px;rx:0;ry:0}:root{--mermaid-font-family: '"trebuchet ms", verdana, arial';--mermaid-font-family: "Comic Sans MS", "Comic Sans", cursive}

:root { --mermaid-font-family: "trebuchet ms", verdana, arial;}</style><style>#mermaid-1602643015550 {
    color: rgb(0, 0, 0);
    font: 16px "trebuchet ms", verdana, arial;
  }</style><g><defs><marker id="statediagram-barbEnd" refX="19" refY="7" markerWidth="20" markerHeight="14" markerUnits="0" orient="auto"><path d="M 19,7 L9,13 L14,7 L9,1 Z"></path></marker></defs><g class="root"><g class="clusters"><g class="note-cluster" id="0----parent"><rect x="400.58984375" y="72" width="620.09375" height="235" fill="none"></rect></g><g class="note-cluster" id="3----parent"><rect x="213.6484375" y="923" width="694.47265625" height="240" fill="none"></rect></g><g class="note-cluster" id="11----parent"><rect x="2266.578125" y="923" width="2118.9609375" height="240" fill="none"></rect></g><g class="note-cluster" id="17----parent"><rect x="729.62109375" y="635" width="1628.71484375" height="219" fill="none"></rect></g><g class="note-cluster" id="21----parent"><rect x="2251.6796875" y="72" width="2010.0390625" height="235" fill="none"></rect></g></g><g class="edgePaths"><path d="M670.625,22L670.625,26.166666666666668C670.625,30.333333333333332,670.625,38.666666666666664,670.625,47C670.625,55.333333333333336,670.625,63.666666666666664,670.625,73.33333333333333C670.625,83,670.625,94,670.625,99.5L670.625,105" id="edge0" class="transition" marker-end="url(#statediagram-barbEnd)"></path><path d="M682.0569196428571,139L686.8202194940476,146.08333333333334C691.5835193452381,153.16666666666666,701.1101190476189,167.33333333333334,705.8734188988095,180.16666666666666C710.63671875,193,710.63671875,204.5,710.63671875,210.25L710.63671875,216" class="transition note-edge"></path><path d="M637.7645089285714,139L624.0726376488095,146.08333333333334C610.3807663690476,153.16666666666666,582.9970238095239,167.33333333333334,902.8546316964286,185.00904179071563C1222.7122395833333,202.6847502480979,1889.8111979166667,223.86950049619585,2223.3606770833335,234.4618756202448L2556.91015625,245.05425074429374" id="edge1" class="transition" marker-end="url(#statediagram-barbEnd)"></path><path d="M2805.41015625,253.6178977379394L3044.794921875,262.51491478161614C3284.1796875,271.4119318252929,3762.94921875,289.2059659126465,4002.333984375,303.8529829563232C4241.71875,318.5,4241.71875,330,4241.71875,341.5C4241.71875,353,4241.71875,364.5,4241.71875,370.25L4241.71875,376" id="edge2" class="transition" marker-end="url(#statediagram-barbEnd)"></path><path d="M2579.382189520474,279.25L2563.8210954337287,283.875C2548.260001346983,288.5,2517.1378131734914,297.75,2501.576719086746,308.125C2486.015625,318.5,2486.015625,330,2486.015625,346.5416666666667C2486.015625,363.0833333333333,2486.015625,384.6666666666667,2486.015625,406.25C2486.015625,427.8333333333333,2486.015625,449.4166666666667,2486.015625,471C2486.015625,492.5833333333333,2486.015625,514.1666666666666,2486.015625,535.75C2486.015625,557.3333333333334,2486.015625,578.9166666666666,2486.015625,595.4583333333334C2486.015625,612,2486.015625,623.5,2486.015625,638.9166666666666C2486.015625,654.3333333333334,2486.015625,673.6666666666666,2486.015625,694.5833333333334C2486.015625,715.5,2486.015625,738,2486.015625,757.8333333333334C2486.015625,777.6666666666666,2486.015625,794.8333333333334,2486.015625,810.4166666666666C2486.015625,826,2486.015625,840,2486.015625,852.75C2486.015625,865.5,2486.015625,877,2659.2513020833335,888.5C2832.4869791666665,900,3178.9583333333335,911.5,3352.1940104166665,926.4583333333334C3525.4296875,941.4166666666666,3525.4296875,959.8333333333334,3525.4296875,979.8333333333334C3525.4296875,999.8333333333334,3525.4296875,1021.4166666666666,3506.8216145833335,1038.2608316000158C3488.2135416666665,1055.1049965333648,3450.9973958333335,1067.2099930667293,3432.3893229166665,1073.2624913334118L3413.78125,1079.3149896000941" id="edge3" class="transition" marker-end="url(#statediagram-barbEnd)"></path><path d="M4286.796286800193,436.5L4295.364744208494,442.25C4303.9332016167955,448,4321.070116433398,459.5,4329.638573841698,476.0416666666667C4338.20703125,492.5833333333333,4338.20703125,514.1666666666666,4338.20703125,535.75C4338.20703125,557.3333333333334,4338.20703125,578.9166666666666,4338.20703125,595.4583333333334C4338.20703125,612,4338.20703125,623.5,4338.20703125,638.9166666666666C4338.20703125,654.3333333333334,4338.20703125,673.6666666666666,4338.20703125,694.5833333333334C4338.20703125,715.5,4338.20703125,738,4338.20703125,757.8333333333334C4338.20703125,777.6666666666666,4338.20703125,794.8333333333334,4338.20703125,810.4166666666666C4338.20703125,826,4338.20703125,840,4338.20703125,852.75C4338.20703125,865.5,4338.20703125,877,4334.227213541667,888.5C4330.247395833333,900,4322.287760416667,911.5,4318.307942708333,926.4583333333334C4314.328125,941.4166666666666,4314.328125,959.8333333333334,4314.328125,979.8333333333334C4314.328125,999.8333333333334,4314.328125,1021.4166666666666,4164.236979166667,1042.0450834255892C4014.1458333333335,1062.6735001845116,3713.9635416666665,1082.3470003690231,3563.8723958333335,1092.1837504612788L3413.78125,1102.0205005535347" id="edge4" class="transition" marker-end="url(#statediagram-barbEnd)"></path><path d="M2556.91015625,272.5955337843887L2526.7154947916665,278.3296114869906C2496.5208333333335,284.0636891895925,2436.1315104166665,295.5318445947962,2405.9368489583335,307.0159222973981C2375.7421875,318.5,2375.7421875,330,2375.7421875,346.5416666666667C2375.7421875,363.0833333333333,2375.7421875,384.6666666666667,2375.7421875,406.25C2375.7421875,427.8333333333333,2375.7421875,449.4166666666667,2621.2298177083335,470.2972746258468C2866.7174479166665,491.17788258502696,3357.6927083333335,511.35576517005387,3603.1803385416665,521.4447064625673L3848.66796875,531.5336477550808" id="edge5" class="transition" marker-end="url(#statediagram-barbEnd)"></path><path d="M4127.03125,431.81665814919916L4097.736328125,438.34721512433265C4068.44140625,444.8777720994661,4009.8515625,457.93888604973307,3980.556640625,470.2194430248665C3951.26171875,482.5,3951.26171875,494,3951.26171875,499.75L3951.26171875,505.5" id="edge6" class="transition" marker-end="url(#statediagram-barbEnd)"></path><path d="M4053.85546875,561.8715919389275L4079.1412760416665,568.3096599491063C4104.427083333333,574.747727959285,4154.998697916667,587.6238639796425,4180.284505208333,599.8119319898212C4205.5703125,612,4205.5703125,623.5,4205.5703125,638.9166666666666C4205.5703125,654.3333333333334,4205.5703125,673.6666666666666,4205.5703125,694.5833333333334C4205.5703125,715.5,4205.5703125,738,4205.5703125,757.8333333333334C4205.5703125,777.6666666666666,4205.5703125,794.8333333333334,4205.5703125,810.4166666666666C4205.5703125,826,4205.5703125,840,4205.5703125,852.75C4205.5703125,865.5,4205.5703125,877,4257.80859375,888.5C4310.046875,900,4414.5234375,911.5,4466.76171875,926.4583333333334C4519,941.4166666666666,4519,959.8333333333334,4519,979.8333333333334C4519,999.8333333333334,4519,1021.4166666666666,4519,1043C4519,1064.5833333333333,4519,1086.1666666666667,4519,1106.1666666666667C4519,1126.1666666666667,4519,1144.5833333333333,4519,1159.5416666666667C4519,1174.5,4519,1186,4519,1202.5416666666667C4519,1219.0833333333333,4519,1240.6666666666667,4519,1262.25C4519,1283.8333333333333,4519,1305.4166666666667,4519,1327C4519,1348.5833333333333,4519,1370.1666666666667,4519,1391.75C4519,1413.3333333333333,4519,1434.9166666666667,3913.6484375,1454.1333721282115C3308.296875,1473.3500775897562,2097.59375,1490.2001551795122,1492.2421875,1498.62519397439L886.890625,1507.0502327692682" id="edge7" class="transition" marker-end="url(#statediagram-barbEnd)"></path><path d="M3998.642314189189,566L4007.6485430743246,571.75C4016.6547719594596,577.5,4034.66722972973,589,4043.673458614865,600.5C4052.6796875,612,4052.6796875,623.5,4052.6796875,638.9166666666666C4052.6796875,654.3333333333334,4052.6796875,673.6666666666666,4052.6796875,694.5833333333334C4052.6796875,715.5,4052.6796875,738,4052.6796875,757.8333333333334C4052.6796875,777.6666666666666,4052.6796875,794.8333333333334,4052.6796875,810.4166666666666C4052.6796875,826,4052.6796875,840,4052.6796875,852.75C4052.6796875,865.5,4052.6796875,877,4052.6796875,888.5C4052.6796875,900,4052.6796875,911.5,4052.6796875,926.4583333333334C4052.6796875,941.4166666666666,4052.6796875,959.8333333333334,4052.6796875,979.8333333333334C4052.6796875,999.8333333333334,4052.6796875,1021.4166666666666,3946.1966145833335,1041.7010858458195C3839.7135416666665,1061.9855050249726,3626.7473958333335,1080.9710100499449,3520.2643229166665,1090.4637625624312L3413.78125,1099.9565150749174" id="edge8" class="transition" marker-end="url(#statediagram-barbEnd)"></path><path d="M3871.463109314672,566L3856.29477859556,571.75C3841.126447876448,577.5,3810.7897864382235,589,3795.621455719112,600.5C3780.453125,612,3780.453125,623.5,3780.453125,638.9166666666666C3780.453125,654.3333333333334,3780.453125,673.6666666666666,3780.453125,694.5833333333334C3780.453125,715.5,3780.453125,738,3780.453125,757.8333333333334C3780.453125,777.6666666666666,3780.453125,794.8333333333334,3780.453125,810.4166666666666C3780.453125,826,3780.453125,840,3780.453125,852.75C3780.453125,865.5,3780.453125,877,3780.453125,888.5C3780.453125,900,3780.453125,911.5,3780.453125,926.4583333333334C3780.453125,941.4166666666666,3780.453125,959.8333333333334,3780.453125,979.8333333333334C3780.453125,999.8333333333334,3780.453125,1021.4166666666666,3719.3411458333335,1040.922394363774C3658.2291666666665,1060.4281220608812,3536.0052083333335,1077.8562441217625,3474.8932291666665,1086.5703051522032L3413.78125,1095.284366182644" id="edge9" class="transition" marker-end="url(#statediagram-barbEnd)"></path><path d="M3848.66796875,542.4684491334252L3700.9733072916665,552.1403742778543C3553.2786458333335,561.8122994222834,3257.8893229166665,581.1561497111417,3110.1946614583335,596.5780748555709C2962.5,612,2962.5,623.5,2962.5,633.875C2962.5,644.25,2962.5,653.5,2962.5,658.125L2962.5,662.75" id="edge10" class="transition" marker-end="url(#statediagram-barbEnd)"></path><path d="M3848.66796875,540.7785908600322L3645.5944010416665,550.7321590500268C3442.5208333333335,560.6857272400215,3036.3736979166665,580.5928636200107,2833.3001302083335,596.2964318100054C2630.2265625,612,2630.2265625,623.5,2630.2265625,638.9166666666666C2630.2265625,654.3333333333334,2630.2265625,673.6666666666666,2630.2265625,694.5833333333334C2630.2265625,715.5,2630.2265625,738,2630.2265625,757.8333333333334C2630.2265625,777.6666666666666,2630.2265625,794.8333333333334,2630.2265625,810.4166666666666C2630.2265625,826,2630.2265625,840,2630.2265625,852.75C2630.2265625,865.5,2630.2265625,877,2792.2213541666665,888.5C2954.2161458333335,900,3278.2057291666665,911.5,3440.2005208333335,926.4583333333334C3602.1953125,941.4166666666666,3602.1953125,959.8333333333334,3602.1953125,979.8333333333334C3602.1953125,999.8333333333334,3602.1953125,1021.4166666666666,3570.79296875,1039.5797504744103C3539.390625,1057.7428342821538,3476.5859375,1072.4856685643074,3445.18359375,1079.8570857053842L3413.78125,1087.228502846461" id="edge11" class="transition" marker-end="url(#statediagram-barbEnd)"></path><path d="M3093.59375,706.4135076562334L3181.6940104166665,715.4279230468611C3269.7942708333335,724.442338437489,3445.9947916666665,742.4711692187444,3534.0950520833335,760.0689179427055C3622.1953125,777.6666666666666,3622.1953125,794.8333333333334,3622.1953125,810.4166666666666C3622.1953125,826,3622.1953125,840,3622.1953125,852.75C3622.1953125,865.5,3622.1953125,877,3622.1953125,888.5C3622.1953125,900,3622.1953125,911.5,3622.1953125,926.4583333333334C3622.1953125,941.4166666666666,3622.1953125,959.8333333333334,3622.1953125,979.8333333333334C3622.1953125,999.8333333333334,3622.1953125,1021.4166666666666,3587.4596354166665,1039.8109765759104C3552.7239583333335,1058.2052864851541,3483.2526041666665,1073.4105729703083,3448.5169270833335,1081.0132162128855L3413.78125,1088.6158594554624" id="edge12" class="transition" marker-end="url(#statediagram-barbEnd)"></path><path d="M1530.640625,817.5512129823676L1633.6263020833333,823.6260108186397C1736.6119791666667,829.7008086549117,1942.5833333333333,841.8504043274557,2045.5690104166667,853.6752021637279C2148.5546875,865.5,2148.5546875,877,2354.9114583333335,888.5C2561.2682291666665,900,2973.9817708333335,911.5,3180.3385416666665,926.4583333333334C3386.6953125,941.4166666666666,3386.6953125,959.8333333333334,3386.6953125,979.8333333333334C3386.6953125,999.8333333333334,3386.6953125,1021.4166666666666,3381.3372948841698,1037.9583333333333C3375.9792772683395,1054.5,3365.2632420366795,1066,3359.905224420849,1071.75L3354.5472068050194,1077.5" id="edge13" class="transition" marker-end="url(#statediagram-barbEnd)"></path><path d="M1237.03515625,984.6915049429725L1434.576171875,994.409587452477C1632.1171875,1004.1276699619817,2027.19921875,1023.5638349809909,2360.849609375,1043.030059589664C2694.5,1062.4962841983372,2966.71875,1081.9925683966746,3102.828125,1091.7407104958434L3238.9375,1101.488852595012" id="edge14" class="transition" marker-end="url(#statediagram-barbEnd)"></path><path d="M2831.40625,704.9157329966861L2729.4856770833335,714.1797774972383C2627.5651041666665,723.4438219977907,2423.7239583333335,741.9719109988954,2206.9296875,758.7881143587828C1990.1354166666667,775.6043177186701,1760.3880208333333,790.7086354373401,1645.5143229166667,798.2607942966752L1530.640625,805.8129531560103" id="edge15" class="transition" marker-end="url(#statediagram-barbEnd)"></path><path d="M2831.40625,701.0811792321578L2670.7565104166665,710.9843160267982C2510.1067708333335,720.8874528214386,2188.8072916666665,740.6937264107193,1972.0130208333333,757.3059133277198C1755.21875,773.9181002447203,1642.9296875,787.3362004894407,1586.78515625,794.045250611801L1530.640625,800.7543007341611" id="edge16" class="transition" marker-end="url(#statediagram-barbEnd)"></path><path d="M1048.6046910350678,948L1040.68554982089,943.8333333333334C1032.7664086067118,939.6666666666666,1016.9281261783559,931.3333333333334,1009.008984964178,921.4166666666666C1001.08984375,911.5,1001.08984375,900,1001.08984375,888.5C1001.08984375,877,1001.08984375,865.5,1057.978515625,854.2628685870121C1114.8671875,843.0257371740241,1228.64453125,832.0514743480484,1285.533203125,826.5643429350604L1342.421875,821.0772115220726" id="edge17" class="transition" marker-end="url(#statediagram-barbEnd)"></path><path d="M2930.600954861111,723.25L2924.054181134259,729.4583333333334C2917.5074074074073,735.6666666666666,2904.4138599537036,748.0833333333334,2897.867086226852,762.875C2891.3203125,777.6666666666666,2891.3203125,794.8333333333334,2891.3203125,810.4166666666666C2891.3203125,826,2891.3203125,840,2891.3203125,852.75C2891.3203125,865.5,2891.3203125,877,2751.1764322916665,888.5C2611.0325520833335,900,2330.7447916666665,911.5,2165.5716145833335,921.8718992754096C2000.3984375,932.2437985508192,1950.33984375,941.4875971016385,1925.310546875,946.109496377048L1900.28125,950.7313956524578" id="edge18" class="transition" marker-end="url(#statediagram-barbEnd)"></path><path d="M1430.1736421130952,829L1428.6154048859128,833.1666666666666C1427.0571676587304,837.3333333333334,1423.940693204365,845.6666666666666,1422.3824559771826,855.5833333333334C1420.82421875,865.5,1420.82421875,877,1420.82421875,888.5C1420.82421875,900,1420.82421875,911.5,1451.0592447916667,922.3054338917063C1481.2942708333333,933.1108677834127,1541.7643229166667,943.2217355668254,1571.9993489583333,948.2771694585317L1602.234375,953.3326033502382" id="edge19" class="transition" marker-end="url(#statediagram-barbEnd)"></path><path d="M1900.28125,963.7307611658629L1927.190972222222,961.108967638219C1954.1006944444443,958.4871741105753,2007.9201388888887,953.2435870552877,2041.5572916666667,950.6217935276437C2075.1944444444443,948,2088.6493055555557,948,2102.1041666666665,953.0416666666666C2115.559027777778,958.0833333333334,2129.013888888889,968.1666666666666,2129.013888888889,978.25C2129.013888888889,988.3333333333334,2115.559027777778,998.4166666666666,2102.1041666666665,1003.4583333333334C2088.6493055555557,1008.5,2075.1944444444443,1008.5,2041.5572916666667,1005.8782064723563C2007.9201388888887,1003.2564129447123,1954.1006944444443,998.0128258894247,1927.190972222222,995.391032361781L1900.28125,992.7692388341371" id="edge20" class="transition" marker-end="url(#statediagram-barbEnd)"></path><path d="M1900.28125,986.5563623952547L2069.0559895833335,995.9636353293789C2237.8307291666665,1005.3709082635032,2575.3802083333335,1024.1854541317516,2798.4895833333335,1042.1024392360478C3021.5989583333335,1060.0194243403441,3130.2682291666665,1077.038848680688,3184.6028645833335,1085.54856085086L3238.9375,1094.0582730210322" id="edge21" class="transition" marker-end="url(#statediagram-barbEnd)"></path><path d="M1900.28125,988.7809912775083L2028.15625,997.817492731257C2156.03125,1006.8539941850055,2411.78125,1024.9269970925027,2634.890625,1043.323186676217C2858,1061.719376259931,3048.46875,1080.4387525198624,3143.703125,1089.798440649828L3238.9375,1099.1581287797937" id="edge22" class="transition" marker-end="url(#statediagram-barbEnd)"></path><path d="M1602.234375,988.0438415120074L1462.865234375,997.2032012600062C1323.49609375,1006.362561008005,1044.7578125,1024.6812805040024,879.7349858228764,1039.590640252001C714.7121591457529,1054.5,663.4047870415058,1066,637.7511009893823,1071.75L612.0974149372587,1077.5" id="edge23" class="transition" marker-end="url(#statediagram-barbEnd)"></path><path d="M615.61328125,1130.6398114927483L648.2415364583334,1136.033176243957C680.8697916666666,1141.4265409951656,746.1263020833334,1152.2132704975827,778.7545572916666,1163.3566352487915C811.3828125,1174.5,811.3828125,1186,811.3828125,1202.5416666666667C811.3828125,1219.0833333333333,811.3828125,1240.6666666666667,811.3828125,1262.25C811.3828125,1283.8333333333333,811.3828125,1305.4166666666667,811.3828125,1327C811.3828125,1348.5833333333333,811.3828125,1370.1666666666667,811.3828125,1391.75C811.3828125,1413.3333333333333,811.3828125,1434.9166666666667,812.1940230582524,1451.4583333333333C813.0052336165048,1468,814.6276547330098,1479.5,815.4388652912621,1485.25L816.2500758495146,1491" id="edge24" class="transition" marker-end="url(#statediagram-barbEnd)"></path><path d="M431.9734516402715,1138L425.75261595022624,1142.1666666666667C419.531780260181,1146.3333333333333,407.09010888009044,1154.6666666666667,400.86927319004525,1164.5833333333333C394.6484375,1174.5,394.6484375,1186,394.6484375,1197.5C394.6484375,1209,394.6484375,1220.5,394.6484375,1226.25L394.6484375,1232" id="edge25" class="transition" marker-end="url(#statediagram-barbEnd)"></path><path d="M519.1486486486486,1292.5L542.8139780405405,1298.25C566.4793074324324,1304,613.8099662162163,1315.5,637.4752956081081,1332.0416666666667C661.140625,1348.5833333333333,661.140625,1370.1666666666667,661.140625,1391.75C661.140625,1413.3333333333333,661.140625,1434.9166666666667,678.7264487257281,1451.4583333333333C696.3122724514564,1468,731.4839199029126,1479.5,749.0697436286408,1485.25L766.6555673543689,1491" id="edge26" class="transition" marker-end="url(#statediagram-barbEnd)"></path><path d="M322.56379705598454,1292.5L308.8617579633205,1298.25C295.1597188706564,1304,267.75564068532816,1315.5,254.0536015926641,1327C240.3515625,1338.5,240.3515625,1350,240.3515625,1355.75L240.3515625,1361.5" id="edge27" class="transition" marker-end="url(#statediagram-barbEnd)"></path><path d="M383.8203125,1421.0851013963586L412.6875,1426.9875844969654C441.5546875,1432.8900675975722,499.2890625,1444.6950337987862,504.01096025485435,1456.347516899393C508.7328580097087,1468,460.44227851941747,1479.5,436.2969887742718,1485.25L412.15169902912623,1491" id="edge28" class="transition" marker-end="url(#statediagram-barbEnd)"></path><path d="M292.7671332046332,1422L302.730423503861,1427.75C312.69371380308877,1433.5,332.6202944015444,1445,318.4382949556266,1456.5C304.25629550970876,1468,255.9657160194175,1479.5,231.82042627427185,1485.25L207.67513652912623,1491" id="edge29" class="transition" marker-end="url(#statediagram-barbEnd)"></path><path d="M187.9359917953668,1422L177.97270149613897,1427.75C168.0094111969112,1433.5,148.08283059845562,1445,241.82787363256114,1458.4850320008748C335.5729166666667,1471.97006400175,542.9895833333334,1487.4401280035,646.6979166666666,1495.1751600043747L750.40625,1502.9101920052499" id="edge30" class="transition" marker-end="url(#statediagram-barbEnd)"></path><path d="M3326.359375,1138L3326.359375,1142.1666666666667C3326.359375,1146.3333333333333,3326.359375,1154.6666666666667,3326.359375,1164.5833333333333C3326.359375,1174.5,3326.359375,1186,3326.359375,1202.5416666666667C3326.359375,1219.0833333333333,3326.359375,1240.6666666666667,3326.359375,1262.25C3326.359375,1283.8333333333333,3326.359375,1305.4166666666667,3326.359375,1327C3326.359375,1348.5833333333333,3326.359375,1370.1666666666667,3326.359375,1391.75C3326.359375,1413.3333333333333,3326.359375,1434.9166666666667,2919.78125,1454.0580889309122C2513.203125,1473.1995111951574,1700.046875,1489.8990223903147,1293.46875,1498.2487779878936L886.890625,1506.5985335854723" id="edge31" class="transition" marker-end="url(#statediagram-barbEnd)"></path><path d="M1345.2874813988096,829L1322.923812624008,833.1666666666666C1300.5601438492065,837.3333333333334,1255.8328062996031,845.6666666666666,1233.4691375248015,855.5833333333334C1211.10546875,865.5,1211.10546875,877,1211.10546875,888.5C1211.10546875,900,1211.10546875,911.5,1203.186327535822,921.4166666666666C1195.267186321644,931.3333333333334,1179.4289038932882,939.6666666666666,1171.50976267911,943.8333333333334L1163.5906214649322,948" id="edge32" class="transition" marker-end="url(#statediagram-barbEnd)"></path><path d="M421.7734375,1003.25L421.7734375,1009.875C421.7734375,1016.5,421.7734375,1029.75,426.6898678812741,1042.125C431.60629826254825,1054.5,441.43915902509656,1066,446.35558940637065,1071.75L451.2720197876448,1077.5" class="transition note-edge"></path><path d="M3068.78125,1003.25L3068.78125,1009.875C3068.78125,1016.5,3068.78125,1029.75,3097.140625,1043.5039808917197C3125.5,1057.2579617834397,3182.21875,1071.515923566879,3210.578125,1078.6449044585988L3238.9375,1085.7738853503186" class="transition note-edge"></path><path d="M937.74609375,726L937.74609375,731.75C937.74609375,737.5,937.74609375,749,1005.1920572916666,761.7138542343768C1072.6380208333333,774.4277084687534,1207.5299479166667,788.355416937507,1274.9759114583333,795.3192711718838L1342.421875,802.2831254062605" class="transition note-edge"></path><path d="M2681.16015625,147L2681.16015625,152.75C2681.16015625,158.5,2681.16015625,170,2681.16015625,181.95833333333334C2681.16015625,193.91666666666666,2681.16015625,206.33333333333334,2681.16015625,212.54166666666666L2681.16015625,218.75" class="transition note-edge"></path><path d="M340.765625,1525L340.765625,1529.1666666666667C340.765625,1533.3333333333333,340.765625,1541.6666666666667,365.97565542460256,1550.9352520872142C391.18568584920513,1560.2038375077618,441.60574669841026,1570.4076750155236,466.8157771230128,1575.5095937694043L492.0258075476154,1580.6115125232852" id="edge33" class="transition" marker-end="url(#statediagram-barbEnd)"></path><path d="M136.2890625,1525L136.2890625,1529.1666666666667C136.2890625,1533.3333333333333,136.2890625,1541.6666666666667,195.55985542550835,1551.0641045226223C254.83064835101672,1560.4615423785783,373.37223420203344,1570.9230847571569,432.64302712754176,1576.153855946446L491.9138200530501,1581.384627135735" id="edge34" class="transition" marker-end="url(#statediagram-barbEnd)"></path><path d="M818.6484375,1525L818.6484375,1529.1666666666667C818.6484375,1533.3333333333333,818.6484375,1541.6666666666667,766.5156858621335,1551.0504933452733C714.3829342242672,1560.43432002388,610.1174309485342,1570.8686400477602,557.9846793106678,1576.0858000597002L505.8519276728014,1581.3029600716404" id="edge35" class="transition" marker-end="url(#statediagram-barbEnd)"></path></g><g class="edgeLabels"><g class="edgeLabel"><g class="label" transform="translate(0, 0)"><rect rx="0" ry="0" width="0" height="0" style="fill:#e8e8e8;"></rect><text style=""></text></g></g><g class="edgeLabel"><g class="label" transform="translate(0, 0)"><rect rx="0" ry="0" width="0" height="0" style="fill:#e8e8e8;"></rect><text style=""></text></g></g><g class="edgeLabel" transform="translate(555.61328125, 181.5)"><g class="label" transform="translate(-60.0234375, -9.5)"><rect rx="0" ry="0" width="119.984375" height="19.03125" style="fill:#e8e8e8;"></rect><text style=""><tspan xml:space="preserve" dy="1em" x="0" class="row">ClientEventOpen</tspan></text></g></g><g class="edgeLabel" transform="translate(4241.71875, 341.5)"><g class="label" transform="translate(-100.0390625, -9.5)"><rect rx="0" ry="0" width="199.953125" height="19.03125" style="fill:#e8e8e8;"></rect><text style=""><tspan xml:space="preserve" dy="1em" x="0" class="row">ClientEventFundingInitiated</tspan></text></g></g><g class="edgeLabel" transform="translate(2486.015625, 693)"><g class="label" transform="translate(-107.6796875, -9.5)"><rect rx="0" ry="0" width="215.234375" height="19.03125" style="fill:#e8e8e8;"></rect><text style=""><tspan xml:space="preserve" dy="1em" x="0" class="row">ClientEventEnsureFundsFailed</tspan></text></g></g><g class="edgeLabel" transform="translate(4338.20703125, 760.5)"><g class="label" transform="translate(-107.6796875, -9.5)"><rect rx="0" ry="0" width="215.234375" height="19.03125" style="fill:#e8e8e8;"></rect><text style=""><tspan xml:space="preserve" dy="1em" x="0" class="row">ClientEventEnsureFundsFailed</tspan></text></g></g><g class="edgeLabel" transform="translate(2375.7421875, 406.25)"><g class="label" transform="translate(-90.2734375, -9.5)"><rect rx="0" ry="0" width="180.4375" height="19.03125" style="fill:#e8e8e8;"></rect><text style=""><tspan xml:space="preserve" dy="1em" x="0" class="row">ClientEventFundsEnsured</tspan></text></g></g><g class="edgeLabel" transform="translate(3951.26171875, 471)"><g class="label" transform="translate(-90.2734375, -9.5)"><rect rx="0" ry="0" width="180.4375" height="19.03125" style="fill:#e8e8e8;"></rect><text style=""><tspan xml:space="preserve" dy="1em" x="0" class="row">ClientEventFundsEnsured</tspan></text></g></g><g class="edgeLabel" transform="translate(4519, 1043)"><g class="label" transform="translate(-113.4609375, -9.5)"><rect rx="0" ry="0" width="226.78125" height="19.03125" style="fill:#e8e8e8;"></rect><text style=""><tspan xml:space="preserve" dy="1em" x="0" class="row">ClientEventWriteProposalFailed</tspan></text></g></g><g class="edgeLabel" transform="translate(4052.6796875, 812)"><g class="label" transform="translate(-113.96875, -9.5)"><rect rx="0" ry="0" width="227.796875" height="19.03125" style="fill:#e8e8e8;"></rect><text style=""><tspan xml:space="preserve" dy="1em" x="0" class="row">ClientEventReadResponseFailed</tspan></text></g></g><g class="edgeLabel" transform="translate(3780.453125, 812)"><g class="label" transform="translate(-138.2578125, -9.5)"><rect rx="0" ry="0" width="276.34375" height="19.03125" style="fill:#e8e8e8;"></rect><text style=""><tspan xml:space="preserve" dy="1em" x="0" class="row">ClientEventResponseVerificationFailed</tspan></text></g></g><g class="edgeLabel" transform="translate(2962.5, 600.5)"><g class="label" transform="translate(-113.9921875, -9.5)"><rect rx="0" ry="0" width="227.84375" height="19.03125" style="fill:#e8e8e8;"></rect><text style=""><tspan xml:space="preserve" dy="1em" x="0" class="row">ClientEventInitiateDataTransfer</tspan></text></g></g><g class="edgeLabel" transform="translate(2630.2265625, 812)"><g class="label" transform="translate(-118.734375, -9.5)"><rect rx="0" ry="0" width="237.328125" height="19.03125" style="fill:#e8e8e8;"></rect><text style=""><tspan xml:space="preserve" dy="1em" x="0" class="row">ClientEventUnexpectedDealState</tspan></text></g></g><g class="edgeLabel" transform="translate(3622.1953125, 888.5)"><g class="label" transform="translate(-109.7890625, -9.5)"><rect rx="0" ry="0" width="219.4375" height="19.03125" style="fill:#e8e8e8;"></rect><text style=""><tspan xml:space="preserve" dy="1em" x="0" class="row">ClientEventDataTransferFailed</tspan></text></g></g><g class="edgeLabel" transform="translate(3386.6953125, 978.25)"><g class="label" transform="translate(-109.7890625, -9.5)"><rect rx="0" ry="0" width="219.4375" height="19.03125" style="fill:#e8e8e8;"></rect><text style=""><tspan xml:space="preserve" dy="1em" x="0" class="row">ClientEventDataTransferFailed</tspan></text></g></g><g class="edgeLabel" transform="translate(2422.28125, 1043)"><g class="label" transform="translate(-135.703125, -9.5)"><rect rx="0" ry="0" width="271.234375" height="19.03125" style="fill:#e8e8e8;"></rect><text style=""><tspan xml:space="preserve" dy="1em" x="0" class="row">ClientEventDataTransferRestartFailed</tspan></text></g></g><g class="edgeLabel" transform="translate(2219.8828125, 760.5)"><g class="label" transform="translate(-118.453125, -9.5)"><rect rx="0" ry="0" width="236.765625" height="19.03125" style="fill:#e8e8e8;"></rect><text style=""><tspan xml:space="preserve" dy="1em" x="0" class="row">ClientEventDataTransferInitiated</tspan></text></g></g><g class="edgeLabel" transform="translate(1867.5078125, 760.5)"><g class="label" transform="translate(-122.65625, -9.5)"><rect rx="0" ry="0" width="245.171875" height="19.03125" style="fill:#e8e8e8;"></rect><text style=""><tspan xml:space="preserve" dy="1em" x="0" class="row">ClientEventDataTransferRestarted</tspan></text></g></g><g class="edgeLabel" transform="translate(1001.08984375, 888.5)"><g class="label" transform="translate(-122.65625, -9.5)"><rect rx="0" ry="0" width="245.171875" height="19.03125" style="fill:#e8e8e8;"></rect><text style=""><tspan xml:space="preserve" dy="1em" x="0" class="row">ClientEventDataTransferRestarted</tspan></text></g></g><g class="edgeLabel" transform="translate(2891.3203125, 812)"><g class="label" transform="translate(-122.359375, -9.5)"><rect rx="0" ry="0" width="244.5625" height="19.03125" style="fill:#e8e8e8;"></rect><text style=""><tspan xml:space="preserve" dy="1em" x="0" class="row">ClientEventDataTransferComplete</tspan></text></g></g><g class="edgeLabel" transform="translate(1420.82421875, 888.5)"><g class="label" transform="translate(-122.359375, -9.5)"><rect rx="0" ry="0" width="244.5625" height="19.03125" style="fill:#e8e8e8;"></rect><text style=""><tspan xml:space="preserve" dy="1em" x="0" class="row">ClientEventDataTransferComplete</tspan></text></g></g><g class="edgeLabel" transform="translate(2142.46875, 978.25)"><g class="label" transform="translate(-104.109375, -9.5)"><rect rx="0" ry="0" width="208.09375" height="19.03125" style="fill:#e8e8e8;"></rect><text style=""><tspan xml:space="preserve" dy="1em" x="0" class="row">ClientEventWaitForDealState</tspan></text></g></g><g class="edgeLabel" transform="translate(2912.9296875, 1043)"><g class="label" transform="translate(-135.8515625, -9.5)"><rect rx="0" ry="0" width="271.546875" height="19.03125" style="fill:#e8e8e8;"></rect><text style=""><tspan xml:space="preserve" dy="1em" x="0" class="row">ClientEventResponseDealDidNotMatch</tspan></text></g></g><g class="edgeLabel" transform="translate(2667.53125, 1043)"><g class="label" transform="translate(-89.546875, -9.5)"><rect rx="0" ry="0" width="178.984375" height="19.03125" style="fill:#e8e8e8;"></rect><text style=""><tspan xml:space="preserve" dy="1em" x="0" class="row">ClientEventDealRejected</tspan></text></g></g><g class="edgeLabel" transform="translate(766.01953125, 1043)"><g class="label" transform="translate(-90.7265625, -9.5)"><rect rx="0" ry="0" width="181.34375" height="19.03125" style="fill:#e8e8e8;"></rect><text style=""><tspan xml:space="preserve" dy="1em" x="0" class="row">ClientEventDealAccepted</tspan></text></g></g><g class="edgeLabel" transform="translate(811.3828125, 1327)"><g class="label" transform="translate(-104.6796875, -9.5)"><rect rx="0" ry="0" width="209.234375" height="19.03125" style="fill:#e8e8e8;"></rect><text style=""><tspan xml:space="preserve" dy="1em" x="0" class="row">ClientEventDealPublishFailed</tspan></text></g></g><g class="edgeLabel" transform="translate(394.6484375, 1197.5)"><g class="label" transform="translate(-91.6328125, -9.5)"><rect rx="0" ry="0" width="183.15625" height="19.03125" style="fill:#e8e8e8;"></rect><text style=""><tspan xml:space="preserve" dy="1em" x="0" class="row">ClientEventDealPublished</tspan></text></g></g><g class="edgeLabel" transform="translate(661.140625, 1391.75)"><g class="label" transform="translate(-115.5078125, -9.5)"><rect rx="0" ry="0" width="230.875" height="19.03125" style="fill:#e8e8e8;"></rect><text style=""><tspan xml:space="preserve" dy="1em" x="0" class="row">ClientEventDealActivationFailed</tspan></text></g></g><g class="edgeLabel" transform="translate(240.3515625, 1327)"><g class="label" transform="translate(-91.5234375, -9.5)"><rect rx="0" ry="0" width="182.9375" height="19.03125" style="fill:#e8e8e8;"></rect><text style=""><tspan xml:space="preserve" dy="1em" x="0" class="row">ClientEventDealActivated</tspan></text></g></g><g class="edgeLabel" transform="translate(557.0234375, 1456.5)"><g class="label" transform="translate(-84.1171875, -9.5)"><rect rx="0" ry="0" width="168.125" height="19.03125" style="fill:#e8e8e8;"></rect><text style=""><tspan xml:space="preserve" dy="1em" x="0" class="row">ClientEventDealSlashed</tspan></text></g></g><g class="edgeLabel" transform="translate(352.546875, 1456.5)"><g class="label" transform="translate(-84.234375, -9.5)"><rect rx="0" ry="0" width="168.375" height="19.03125" style="fill:#e8e8e8;"></rect><text style=""><tspan xml:space="preserve" dy="1em" x="0" class="row">ClientEventDealExpired</tspan></text></g></g><g class="edgeLabel" transform="translate(128.15625, 1456.5)"><g class="label" transform="translate(-120.15625, -9.5)"><rect rx="0" ry="0" width="240.15625" height="19.03125" style="fill:#e8e8e8;"></rect><text style=""><tspan xml:space="preserve" dy="1em" x="0" class="row">ClientEventDealCompletionFailed</tspan></text></g></g><g class="edgeLabel" transform="translate(3326.359375, 1327)"><g class="label" transform="translate(-63.3046875, -9.5)"><rect rx="0" ry="0" width="126.53125" height="19.03125" style="fill:#e8e8e8;"></rect><text style=""><tspan xml:space="preserve" dy="1em" x="0" class="row">ClientEventFailed</tspan></text></g></g><g class="edgeLabel" transform="translate(1211.10546875, 888.5)"><g class="label" transform="translate(-67.359375, -9.5)"><rect rx="0" ry="0" width="134.640625" height="19.03125" style="fill:#e8e8e8;"></rect><text style=""><tspan xml:space="preserve" dy="1em" x="0" class="row">ClientEventRestart</tspan></text></g></g><g class="edgeLabel"><g class="label" transform="translate(0, 0)"><rect rx="0" ry="0" width="0" height="0" style="fill:#e8e8e8;"></rect><text style=""></text></g></g><g class="edgeLabel"><g class="label" transform="translate(0, 0)"><rect rx="0" ry="0" width="0" height="0" style="fill:#e8e8e8;"></rect><text style=""></text></g></g><g class="edgeLabel"><g class="label" transform="translate(0, 0)"><rect rx="0" ry="0" width="0" height="0" style="fill:#e8e8e8;"></rect><text style=""></text></g></g><g class="edgeLabel"><g class="label" transform="translate(0, 0)"><rect rx="0" ry="0" width="0" height="0" style="fill:#e8e8e8;"></rect><text style=""></text></g></g><g class="edgeLabel"><g class="label" transform="translate(0, 0)"><rect rx="0" ry="0" width="0" height="0" style="fill:#e8e8e8;"></rect><text style=""></text></g></g><g class="edgeLabel"><g class="label" transform="translate(0, 0)"><rect rx="0" ry="0" width="0" height="0" style="fill:#e8e8e8;"></rect><text style=""></text></g></g><g class="edgeLabel"><g class="label" transform="translate(0, 0)"><rect rx="0" ry="0" width="0" height="0" style="fill:#e8e8e8;"></rect><text style=""></text></g></g></g><g class="nodes"><g class="node statediagram-state" id="0" transform="translate(670.625, 122)"><rect class="outer title-state" x="-82.921875" y="-17" width="165.84375" height="34"></rect><line class="divider" x1="-82.921875" x2="82.921875" y1="9.5" y2="9.5"></line><g class="label" transform="translate(-75.421875, -14)"><text style=""><tspan xml:space="preserve" dy="1em" x="0" class="title-row">StorageDealUnknown</tspan></text><text style="" transform="translate( 0, 26.5)"><tspan xml:space="preserve" dy="1em" x="0" class="title-row"></tspan></text></g></g><g class="node statediagram-state" id="3" transform="translate(477.13671875, 1107.75)"><rect class="outer title-state" x="-138.4765625" y="-30.25" width="276.953125" height="60.5"></rect><line class="divider" x1="-138.4765625" x2="138.4765625" y1="-3.75" y2="-3.75"></line><g class="label" transform="translate(-130.9765625, -27.25)"><text style=""><tspan xml:space="preserve" dy="1em" x="0" class="title-row">StorageDealProposalAccepted</tspan></text><text style="" transform="translate( 0, 26.5)"><tspan xml:space="preserve" dy="1em" x="0" class="title-row">On entry runs ValidateDealPublished</tspan></text></g></g><g class="node statediagram-state" id="5" transform="translate(394.6484375, 1262.25)"><rect class="outer title-state" x="-129.9765625" y="-30.25" width="259.953125" height="60.5"></rect><line class="divider" x1="-129.9765625" x2="129.9765625" y1="-3.75" y2="-3.75"></line><g class="label" transform="translate(-122.4765625, -27.25)"><text style=""><tspan xml:space="preserve" dy="1em" x="0" class="title-row">StorageDealSealing</tspan></text><text style="" transform="translate( 0, 26.5)"><tspan xml:space="preserve" dy="1em" x="0" class="title-row">On entry runs VerifyDealActivated</tspan></text></g></g><g class="node statediagram-state" id="7" transform="translate(240.3515625, 1391.75)"><rect class="outer title-state" x="-143.46875" y="-30.25" width="286.9375" height="60.5"></rect><line class="divider" x1="-143.46875" x2="143.46875" y1="-3.75" y2="-3.75"></line><g class="label" transform="translate(-135.96875, -27.25)"><text style=""><tspan xml:space="preserve" dy="1em" x="0" class="title-row">StorageDealActive</tspan></text><text style="" transform="translate( 0, 26.5)"><tspan xml:space="preserve" dy="1em" x="0" class="title-row">On entry runs WaitForDealCompletion</tspan></text></g></g><g class="node statediagram-state" id="8" transform="translate(136.2890625, 1508)"><rect class="outer title-state" x="-77.296875" y="-17" width="154.59375" height="34"></rect><line class="divider" x1="-77.296875" x2="77.296875" y1="9.5" y2="9.5"></line><g class="label" transform="translate(-69.796875, -14)"><text style=""><tspan xml:space="preserve" dy="1em" x="0" class="title-row">StorageDealExpired</tspan></text><text style="" transform="translate( 0, 26.5)"><tspan xml:space="preserve" dy="1em" x="0" class="title-row"></tspan></text></g></g><g class="node statediagram-state" id="9" transform="translate(340.765625, 1508)"><rect class="outer title-state" x="-77.1796875" y="-17" width="154.359375" height="34"></rect><line class="divider" x1="-77.1796875" x2="77.1796875" y1="9.5" y2="9.5"></line><g class="label" transform="translate(-69.6796875, -14)"><text style=""><tspan xml:space="preserve" dy="1em" x="0" class="title-row">StorageDealSlashed</tspan></text><text style="" transform="translate( 0, 26.5)"><tspan xml:space="preserve" dy="1em" x="0" class="title-row"></tspan></text></g></g><g class="node statediagram-state" id="11" transform="translate(3326.359375, 1107.75)"><rect class="outer title-state" x="-87.421875" y="-30.25" width="174.84375" height="60.5"></rect><line class="divider" x1="-87.421875" x2="87.421875" y1="-3.75" y2="-3.75"></line><g class="label" transform="translate(-79.921875, -27.25)"><text style=""><tspan xml:space="preserve" dy="1em" x="0" class="title-row">StorageDealFailing</tspan></text><text style="" transform="translate( 0, 26.5)"><tspan xml:space="preserve" dy="1em" x="0" class="title-row">On entry runs FailDeal</tspan></text></g></g><g class="node statediagram-state" id="12" transform="translate(3951.26171875, 535.75)"><rect class="outer title-state" x="-102.59375" y="-30.25" width="205.1875" height="60.5"></rect><line class="divider" x1="-102.59375" x2="102.59375" y1="-3.75" y2="-3.75"></line><g class="label" transform="translate(-95.09375, -27.25)"><text style=""><tspan xml:space="preserve" dy="1em" x="0" class="title-row">StorageDealFundsEnsured</tspan></text><text style="" transform="translate( 0, 26.5)"><tspan xml:space="preserve" dy="1em" x="0" class="title-row">On entry runs ProposeDeal</tspan></text></g></g><g class="node statediagram-state" id="13" transform="translate(1751.2578125, 978.25)"><rect class="outer title-state" x="-149.0234375" y="-30.25" width="298.046875" height="60.5"></rect><line class="divider" x1="-149.0234375" x2="149.0234375" y1="-3.75" y2="-3.75"></line><g class="label" transform="translate(-141.5234375, -27.25)"><text style=""><tspan xml:space="preserve" dy="1em" x="0" class="title-row">StorageDealCheckForAcceptance</tspan></text><text style="" transform="translate( 0, 26.5)"><tspan xml:space="preserve" dy="1em" x="0" class="title-row">On entry runs CheckForDealAcceptance</tspan></text></g></g><g class="node statediagram-state" id="16" transform="translate(2962.5, 693)"><rect class="outer title-state" x="-131.09375" y="-30.25" width="262.1875" height="60.5"></rect><line class="divider" x1="-131.09375" x2="131.09375" y1="-3.75" y2="-3.75"></line><g class="label" transform="translate(-123.59375, -27.25)"><text style=""><tspan xml:space="preserve" dy="1em" x="0" class="title-row">StorageDealStartDataTransfer</tspan></text><text style="" transform="translate( 0, 26.5)"><tspan xml:space="preserve" dy="1em" x="0" class="title-row">On entry runs InitiateDataTransfer</tspan></text></g></g><g class="node statediagram-state" id="17" transform="translate(1436.53125, 812)"><rect class="outer title-state" x="-94.109375" y="-17" width="188.21875" height="34"></rect><line class="divider" x1="-94.109375" x2="94.109375" y1="9.5" y2="9.5"></line><g class="label" transform="translate(-86.609375, -14)"><text style=""><tspan xml:space="preserve" dy="1em" x="0" class="title-row">StorageDealTransferring</tspan></text><text style="" transform="translate( 0, 26.5)"><tspan xml:space="preserve" dy="1em" x="0" class="title-row"></tspan></text></g></g><g class="node statediagram-state" id="21" transform="translate(2681.16015625, 249)"><rect class="outer title-state" x="-124.25" y="-30.25" width="248.5" height="60.5"></rect><line class="divider" x1="-124.25" x2="124.25" y1="-3.75" y2="-3.75"></line><g class="label" transform="translate(-116.75, -27.25)"><text style=""><tspan xml:space="preserve" dy="1em" x="0" class="title-row">StorageDealEnsureClientFunds</tspan></text><text style="" transform="translate( 0, 26.5)"><tspan xml:space="preserve" dy="1em" x="0" class="title-row">On entry runs EnsureClientFunds</tspan></text></g></g><g class="node statediagram-state" id="23" transform="translate(4241.71875, 406.25)"><rect class="outer title-state" x="-114.6875" y="-30.25" width="229.375" height="60.5"></rect><line class="divider" x1="-114.6875" x2="114.6875" y1="-3.75" y2="-3.75"></line><g class="label" transform="translate(-107.1875, -27.25)"><text style=""><tspan xml:space="preserve" dy="1em" x="0" class="title-row">StorageDealClientFunding</tspan></text><text style="" transform="translate( 0, 26.5)"><tspan xml:space="preserve" dy="1em" x="0" class="title-row">On entry runs WaitForFunding</tspan></text></g></g><g class="node statediagram-state" id="26" transform="translate(818.6484375, 1508)"><rect class="outer title-state" x="-68.2421875" y="-17" width="136.484375" height="34"></rect><line class="divider" x1="-68.2421875" x2="68.2421875" y1="9.5" y2="9.5"></line><g class="label" transform="translate(-60.7421875, -14)"><text style=""><tspan xml:space="preserve" dy="1em" x="0" class="title-row">StorageDealError</tspan></text><text style="" transform="translate( 0, 26.5)"><tspan xml:space="preserve" dy="1em" x="0" class="title-row"></tspan></text></g></g><g class="node statediagram-state" id="28" transform="translate(1106.09765625, 978.25)"><rect class="outer title-state" x="-130.9375" y="-30.25" width="261.875" height="60.5"></rect><line class="divider" x1="-130.9375" x2="130.9375" y1="-3.75" y2="-3.75"></line><g class="label" transform="translate(-123.4375, -27.25)"><text style=""><tspan xml:space="preserve" dy="1em" x="0" class="title-row">StorageDealClientTransferRestart</tspan></text><text style="" transform="translate( 0, 26.5)"><tspan xml:space="preserve" dy="1em" x="0" class="title-row">On entry runs RestartDataTransfer</tspan></text></g></g><g class="node default" id="root_start" transform="translate(670.625, 15)"><circle class="state-start" r="7" width="14" height="14"></circle></g><g class="node statediagram-note" id="0----note" transform="translate(710.63671875, 249)"><rect x="-275.046875" y="-33" width="550.09375" height="66"></rect><g class="label" transform="translate(-267.546875, -25.5)"><text style=""><tspan xml:space="preserve" dy="1em" x="0" class="row">The following events are not shown cause they can trigger from any state.</tspan><tspan xml:space="preserve" dy="1em" x="0" class="row"></tspan><tspan xml:space="preserve" dy="1em" x="0" class="row">ClientEventStreamCloseError - transitions state to StorageDealError</tspan><tspan xml:space="preserve" dy="1em" x="0" class="row">ClientEventRestart - does not transition state</tspan></text></g></g><g class="node statediagram-note" id="3----note" transform="translate(421.7734375, 978.25)"><rect x="-173.125" y="-25" width="346.25" height="50"></rect><g class="label" transform="translate(-165.625, -17.5)"><text style=""><tspan xml:space="preserve" dy="1em" x="0" class="row">The following events only record in this state.</tspan><tspan xml:space="preserve" dy="1em" x="0" class="row"></tspan><tspan xml:space="preserve" dy="1em" x="0" class="row">ClientEventFundsReleased</tspan></text></g></g><g class="node statediagram-note" id="11----note" transform="translate(3068.78125, 978.25)"><rect x="-173.125" y="-25" width="346.25" height="50"></rect><g class="label" transform="translate(-165.625, -17.5)"><text style=""><tspan xml:space="preserve" dy="1em" x="0" class="row">The following events only record in this state.</tspan><tspan xml:space="preserve" dy="1em" x="0" class="row"></tspan><tspan xml:space="preserve" dy="1em" x="0" class="row">ClientEventFundsReleased</tspan></text></g></g><g class="node statediagram-note" id="17----note" transform="translate(937.74609375, 693)"><rect x="-173.125" y="-33" width="346.25" height="66"></rect><g class="label" transform="translate(-165.625, -25.5)"><text style=""><tspan xml:space="preserve" dy="1em" x="0" class="row">The following events only record in this state.</tspan><tspan xml:space="preserve" dy="1em" x="0" class="row"></tspan><tspan xml:space="preserve" dy="1em" x="0" class="row">ClientEventDataTransferRestarted</tspan><tspan xml:space="preserve" dy="1em" x="0" class="row">ClientEventDataTransferStalled</tspan></text></g></g><g class="node statediagram-note" id="21----note" transform="translate(2681.16015625, 122)"><rect x="-173.125" y="-25" width="346.25" height="50"></rect><g class="label" transform="translate(-165.625, -17.5)"><text style=""><tspan xml:space="preserve" dy="1em" x="0" class="row">The following events only record in this state.</tspan><tspan xml:space="preserve" dy="1em" x="0" class="row"></tspan><tspan xml:space="preserve" dy="1em" x="0" class="row">ClientEventFundsReserved</tspan></text></g></g><g class="node default" id="root_end" transform="translate(498.88671875, 1582)"><circle class="state-start" r="7" width="14" height="14"></circle><circle class="state-end" r="5" width="10" height="10"></circle></g></g></g></g></svg>