<svg id="mermaid-1596084328529" width="6147.19140625" xmlns="http://www.w3.org/2000/svg" class="statediagram" height="2246.5" viewBox="0 0 6147.19140625 2246.5"><style>#mermaid-1596084328529 .label{font-family:'trebuchet ms', verdana, arial;font-family:var(--mermaid-font-family);color:#333}#mermaid-1596084328529 .label text{fill:#333}#mermaid-1596084328529 .node rect,#mermaid-1596084328529 .node circle,#mermaid-1596084328529 .node ellipse,#mermaid-1596084328529 .node polygon,#mermaid-1596084328529 .node path{fill:#ECECFF;stroke:#9370db;stroke-width:1px}#mermaid-1596084328529 .node .label{text-align:center}#mermaid-1596084328529 .node.clickable{cursor:pointer}#mermaid-1596084328529 .arrowheadPath{fill:#333}#mermaid-1596084328529 .edgePath .path{stroke:#333;stroke-width:1.5px}#mermaid-1596084328529 .edgeLabel{background-color:#e8e8e8;text-align:center}#mermaid-1596084328529 .edgeLabel rect{opacity:0.5}#mermaid-1596084328529 .cluster rect{fill:#ffffde;stroke:#aa3;stroke-width:1px}#mermaid-1596084328529 .cluster text{fill:#333}#mermaid-1596084328529 div.mermaidTooltip{position:absolute;text-align:center;max-width:200px;padding:2px;font-family:'trebuchet ms', verdana, arial;font-family:var(--mermaid-font-family);font-size:12px;background:#ffffde;border:1px solid #aa3;border-radius:2px;pointer-events:none;z-index:100}#mermaid-1596084328529 .actor{stroke:#ccf;fill:#ECECFF}#mermaid-1596084328529 text.actor{fill:#000;stroke:none}#mermaid-1596084328529 .actor-line{stroke:grey}#mermaid-1596084328529 .messageLine0{stroke-width:1.5;stroke-dasharray:'2 2';stroke:#333}#mermaid-1596084328529 .messageLine1{stroke-width:1.5;stroke-dasharray:'2 2';stroke:#333}#mermaid-1596084328529 #arrowhead{fill:#333}#mermaid-1596084328529 .sequenceNumber{fill:#fff}#mermaid-1596084328529 #sequencenumber{fill:#333}#mermaid-1596084328529 #crosshead path{fill:#333 !important;stroke:#333 !important}#mermaid-1596084328529 .messageText{fill:#333;stroke:none}#mermaid-1596084328529 .labelBox{stroke:#ccf;fill:#ECECFF}#mermaid-1596084328529 .labelText{fill:#000;stroke:none}#mermaid-1596084328529 .loopText{fill:#000;stroke:none}#mermaid-1596084328529 .loopLine{stroke-width:2;stroke-dasharray:'2 2';stroke:#ccf}#mermaid-1596084328529 .note{stroke:#aa3;fill:#fff5ad}#mermaid-1596084328529 .noteText{fill:black;stroke:none;font-family:'trebuchet ms', verdana, arial;font-family:var(--mermaid-font-family);font-size:14px}#mermaid-1596084328529 .activation0{fill:#f4f4f4;stroke:#666}#mermaid-1596084328529 .activation1{fill:#f4f4f4;stroke:#666}#mermaid-1596084328529 .activation2{fill:#f4f4f4;stroke:#666}#mermaid-1596084328529 .mermaid-main-font{font-family:"trebuchet ms", verdana, arial;font-family:var(--mermaid-font-family)}#mermaid-1596084328529 .section{stroke:none;opacity:0.2}#mermaid-1596084328529 .section0{fill:rgba(102,102,255,0.49)}#mermaid-1596084328529 .section2{fill:#fff400}#mermaid-1596084328529 .section1,#mermaid-1596084328529 .section3{fill:#fff;opacity:0.2}#mermaid-1596084328529 .sectionTitle0{fill:#333}#mermaid-1596084328529 .sectionTitle1{fill:#333}#mermaid-1596084328529 .sectionTitle2{fill:#333}#mermaid-1596084328529 .sectionTitle3{fill:#333}#mermaid-1596084328529 .sectionTitle{text-anchor:start;font-size:11px;text-height:14px;font-family:'trebuchet ms', verdana, arial;font-family:var(--mermaid-font-family)}#mermaid-1596084328529 .grid .tick{stroke:#d3d3d3;opacity:0.8;shape-rendering:crispEdges}#mermaid-1596084328529 .grid .tick text{font-family:'trebuchet ms', verdana, arial;font-family:var(--mermaid-font-family)}#mermaid-1596084328529 .grid path{stroke-width:0}#mermaid-1596084328529 .today{fill:none;stroke:red;stroke-width:2px}#mermaid-1596084328529 .task{stroke-width:2}#mermaid-1596084328529 .taskText{text-anchor:middle;font-family:'trebuchet ms', verdana, arial;font-family:var(--mermaid-font-family)}#mermaid-1596084328529 .taskText:not([font-size]){font-size:11px}#mermaid-1596084328529 .taskTextOutsideRight{fill:#000;text-anchor:start;font-size:11px;font-family:'trebuchet ms', verdana, arial;font-family:var(--mermaid-font-family)}#mermaid-1596084328529 .taskTextOutsideLeft{fill:#000;text-anchor:end;font-size:11px}#mermaid-1596084328529 .task.clickable{cursor:pointer}#mermaid-1596084328529 .taskText.clickable{cursor:pointer;fill:#003163 !important;font-weight:bold}#mermaid-1596084328529 .taskTextOutsideLeft.clickable{cursor:pointer;fill:#003163 !important;font-weight:bold}#mermaid-1596084328529 .taskTextOutsideRight.clickable{cursor:pointer;fill:#003163 !important;font-weight:bold}#mermaid-1596084328529 .taskText0,#mermaid-1596084328529 .taskText1,#mermaid-1596084328529 .taskText2,#mermaid-1596084328529 .taskText3{fill:#fff}#mermaid-1596084328529 .task0,#mermaid-1596084328529 .task1,#mermaid-1596084328529 .task2,#mermaid-1596084328529 .task3{fill:#8a90dd;stroke:#534fbc}#mermaid-1596084328529 .taskTextOutside0,#mermaid-1596084328529 .taskTextOutside2{fill:#000}#mermaid-1596084328529 .taskTextOutside1,#mermaid-1596084328529 .taskTextOutside3{fill:#000}#mermaid-1596084328529 .active0,#mermaid-1596084328529 .active1,#mermaid-1596084328529 .active2,#mermaid-1596084328529 .active3{fill:#bfc7ff;stroke:#534fbc}#mermaid-1596084328529 .activeText0,#mermaid-1596084328529 .activeText1,#mermaid-1596084328529 .activeText2,#mermaid-1596084328529 .activeText3{fill:#000 !important}#mermaid-1596084328529 .done0,#mermaid-1596084328529 .done1,#mermaid-1596084328529 .done2,#mermaid-1596084328529 .done3{stroke:grey;fill:#d3d3d3;stroke-width:2}#mermaid-1596084328529 .doneText0,#mermaid-1596084328529 .doneText1,#mermaid-1596084328529 .doneText2,#mermaid-1596084328529 .doneText3{fill:#000 !important}#mermaid-1596084328529 .crit0,#mermaid-1596084328529 .crit1,#mermaid-1596084328529 .crit2,#mermaid-1596084328529 .crit3{stroke:#f88;fill:red;stroke-width:2}#mermaid-1596084328529 .activeCrit0,#mermaid-1596084328529 .activeCrit1,#mermaid-1596084328529 .activeCrit2,#mermaid-1596084328529 .activeCrit3{stroke:#f88;fill:#bfc7ff;stroke-width:2}#mermaid-1596084328529 .doneCrit0,#mermaid-1596084328529 .doneCrit1,#mermaid-1596084328529 .doneCrit2,#mermaid-1596084328529 .doneCrit3{stroke:#f88;fill:#d3d3d3;stroke-width:2;cursor:pointer;shape-rendering:crispEdges}#mermaid-1596084328529 .milestone{transform:rotate(45deg) scale(0.8, 0.8)}#mermaid-1596084328529 .milestoneText{font-style:italic}#mermaid-1596084328529 .doneCritText0,#mermaid-1596084328529 .doneCritText1,#mermaid-1596084328529 .doneCritText2,#mermaid-1596084328529 .doneCritText3{fill:#000 !important}#mermaid-1596084328529 .activeCritText0,#mermaid-1596084328529 .activeCritText1,#mermaid-1596084328529 .activeCritText2,#mermaid-1596084328529 .activeCritText3{fill:#000 !important}#mermaid-1596084328529 .titleText{text-anchor:middle;font-size:18px;fill:#000;font-family:'trebuchet ms', verdana, arial;font-family:var(--mermaid-font-family)}#mermaid-1596084328529 g.classGroup text{fill:#9370db;stroke:none;font-family:'trebuchet ms', verdana, arial;font-family:var(--mermaid-font-family);font-size:10px}#mermaid-1596084328529 g.classGroup text .title{font-weight:bolder}#mermaid-1596084328529 g.clickable{cursor:pointer}#mermaid-1596084328529 g.classGroup rect{fill:#ECECFF;stroke:#9370db}#mermaid-1596084328529 g.classGroup line{stroke:#9370db;stroke-width:1}#mermaid-1596084328529 .classLabel .box{stroke:none;stroke-width:0;fill:#ECECFF;opacity:0.5}#mermaid-1596084328529 .classLabel .label{fill:#9370db;font-size:10px}#mermaid-1596084328529 .relation{stroke:#9370db;stroke-width:1;fill:none}#mermaid-1596084328529 .dashed-line{stroke-dasharray:3}#mermaid-1596084328529 #compositionStart{fill:#9370db;stroke:#9370db;stroke-width:1}#mermaid-1596084328529 #compositionEnd{fill:#9370db;stroke:#9370db;stroke-width:1}#mermaid-1596084328529 #aggregationStart{fill:#ECECFF;stroke:#9370db;stroke-width:1}#mermaid-1596084328529 #aggregationEnd{fill:#ECECFF;stroke:#9370db;stroke-width:1}#mermaid-1596084328529 #dependencyStart{fill:#9370db;stroke:#9370db;stroke-width:1}#mermaid-1596084328529 #dependencyEnd{fill:#9370db;stroke:#9370db;stroke-width:1}#mermaid-1596084328529 #extensionStart{fill:#9370db;stroke:#9370db;stroke-width:1}#mermaid-1596084328529 #extensionEnd{fill:#9370db;stroke:#9370db;stroke-width:1}#mermaid-1596084328529 .commit-id,#mermaid-1596084328529 .commit-msg,#mermaid-1596084328529 .branch-label{fill:lightgrey;color:lightgrey;font-family:'trebuchet ms', verdana, arial;font-family:var(--mermaid-font-family)}#mermaid-1596084328529 .pieTitleText{text-anchor:middle;font-size:25px;fill:#000;font-family:'trebuchet ms', verdana, arial;font-family:var(--mermaid-font-family)}#mermaid-1596084328529 .slice{font-family:'trebuchet ms', verdana, arial;font-family:var(--mermaid-font-family)}#mermaid-1596084328529 g.stateGroup text{fill:#9370db;stroke:none;font-size:10px;font-family:'trebuchet ms', verdana, arial;font-family:var(--mermaid-font-family)}#mermaid-1596084328529 g.stateGroup text{fill:#9370db;stroke:none;font-size:10px}#mermaid-1596084328529 g.stateGroup .state-title{font-weight:bolder;fill:#000}#mermaid-1596084328529 g.stateGroup rect{fill:#ECECFF;stroke:#9370db}#mermaid-1596084328529 g.stateGroup line{stroke:#9370db;stroke-width:1}#mermaid-1596084328529 .transition{stroke:#9370db;stroke-width:1;fill:none}#mermaid-1596084328529 .stateGroup .composit{fill:white;border-bottom:1px}#mermaid-1596084328529 .stateGroup .alt-composit{fill:#e0e0e0;border-bottom:1px}#mermaid-1596084328529 .state-note{stroke:#aa3;fill:#fff5ad}#mermaid-1596084328529 .state-note text{fill:black;stroke:none;font-size:10px}#mermaid-1596084328529 .stateLabel .box{stroke:none;stroke-width:0;fill:#ECECFF;opacity:0.5}#mermaid-1596084328529 .stateLabel text{fill:#000;font-size:10px;font-weight:bold;font-family:'trebuchet ms', verdana, arial;font-family:var(--mermaid-font-family)}#mermaid-1596084328529 .node circle.state-start{fill:black;stroke:black}#mermaid-1596084328529 .node circle.state-end{fill:black;stroke:white;stroke-width:1.5}#mermaid-1596084328529 #statediagram-barbEnd{fill:#9370db}#mermaid-1596084328529 .statediagram-cluster rect{fill:#ECECFF;stroke:#9370db;stroke-width:1px}#mermaid-1596084328529 .statediagram-cluster rect.outer{rx:5px;ry:5px}#mermaid-1596084328529 .statediagram-state .divider{stroke:#9370db}#mermaid-1596084328529 .statediagram-state .title-state{rx:5px;ry:5px}#mermaid-1596084328529 .statediagram-cluster.statediagram-cluster .inner{fill:white}#mermaid-1596084328529 .statediagram-cluster.statediagram-cluster-alt .inner{fill:#e0e0e0}#mermaid-1596084328529 .statediagram-cluster .inner{rx:0;ry:0}#mermaid-1596084328529 .statediagram-state rect.basic{rx:5px;ry:5px}#mermaid-1596084328529 .statediagram-state rect.divider{stroke-dasharray:10,10;fill:#efefef}#mermaid-1596084328529 .note-edge{stroke-dasharray:5}#mermaid-1596084328529 .statediagram-note rect{fill:#fff5ad;stroke:#aa3;stroke-width:1px;rx:0;ry:0}:root{--mermaid-font-family: '"trebuchet ms", verdana, arial';--mermaid-font-family: "Comic Sans MS", "Comic Sans", cursive}

:root { --mermaid-font-family: "trebuchet ms", verdana, arial;}</style><style>#mermaid-1596084328529 {
    color: rgb(0, 0, 0);
    font: 16px "trebuchet ms", verdana, arial;
  }</style><g><defs><marker id="statediagram-barbEnd" refX="19" refY="7" markerWidth="20" markerHeight="14" markerUnits="0" orient="auto"><path d="M 19,7 L9,13 L14,7 L9,1 Z"></path></marker></defs><g class="root"><g class="clusters"><g class="note-cluster" id="0----parent"><rect x="5519.09765625" y="72" width="620.09375" height="219" fill="none"></rect></g><g class="note-cluster" id="20----parent"><rect x="3707.4140625" y="695.5" width="721.8125" height="240" fill="none"></rect></g><g class="note-cluster" id="11----parent"><rect x="729.81640625" y="1831.5" width="3796.015625" height="240" fill="none"></rect></g><g class="note-cluster" id="25----parent"><rect x="2462.08203125" y="1134" width="658.93359375" height="240" fill="none"></rect></g></g><g class="edgePaths"><path d="M5784.80078125,22L5784.80078125,26.166666666666668C5784.80078125,30.333333333333332,5784.80078125,38.666666666666664,5784.80078125,47C5784.80078125,55.333333333333336,5784.80078125,63.666666666666664,5784.80078125,72C5784.80078125,80.33333333333333,5784.80078125,88.66666666666667,5784.80078125,92.83333333333333L5784.80078125,97" id="edge0" class="transition" marker-end="url(#statediagram-barbEnd)"></path><path d="M5799.438523968447,131L5804.3895251820395,136.75C5809.340526395631,142.5,5819.242528822816,154,5824.193530036408,165.5C5829.14453125,177,5829.14453125,188.5,5829.14453125,194.25L5829.14453125,200" class="transition note-edge"></path><path d="M5748.265738774272,131L5735.908297936893,136.75C5723.550857099515,142.5,5698.835975424758,154,5496.798847087379,169.81072967696784C5294.76171875,185.6214593539357,4915.40234375,205.74291870787138,4725.72265625,215.80364838483922L4536.04296875,225.86437806180706" id="edge1" class="transition" marker-end="url(#statediagram-barbEnd)"></path><path d="M4536.04296875,240.10906748474991L4696.552083333333,248.5908895706249C4857.061197916667,257.07271165649996,5178.079427083333,274.03635582824995,5338.588541666667,288.268177914125C5499.09765625,302.5,5499.09765625,314,5499.09765625,330.5416666666667C5499.09765625,347.0833333333333,5499.09765625,368.6666666666667,5499.09765625,390.25C5499.09765625,411.8333333333333,5499.09765625,433.4166666666667,5499.09765625,452.7916666666667C5499.09765625,472.1666666666667,5499.09765625,489.3333333333333,5499.09765625,506.5C5499.09765625,523.6666666666666,5499.09765625,540.8333333333334,5499.09765625,558C5499.09765625,575.1666666666666,5499.09765625,592.3333333333334,5499.09765625,609.5C5499.09765625,626.6666666666666,5499.09765625,643.8333333333334,5499.09765625,658.1666666666666C5499.09765625,672.5,5499.09765625,684,5499.09765625,698.9583333333334C5499.09765625,713.9166666666666,5499.09765625,732.3333333333334,5499.09765625,752.3333333333334C5499.09765625,772.3333333333334,5499.09765625,793.9166666666666,5499.09765625,815.5C5499.09765625,837.0833333333334,5499.09765625,858.6666666666666,5499.09765625,878.6666666666666C5499.09765625,898.6666666666666,5499.09765625,917.0833333333334,5499.09765625,932.0416666666666C5499.09765625,947,5499.09765625,958.5,5499.09765625,975.0416666666666C5499.09765625,991.5833333333334,5499.09765625,1013.1666666666666,5499.09765625,1034.75C5499.09765625,1056.3333333333333,5499.09765625,1077.9166666666667,5499.09765625,1094.4583333333333C5499.09765625,1111,5499.09765625,1122.5,5499.09765625,1137.4583333333333C5499.09765625,1152.4166666666667,5499.09765625,1170.8333333333333,5499.09765625,1190.8333333333333C5499.09765625,1210.8333333333333,5499.09765625,1232.4166666666667,5499.09765625,1254C5499.09765625,1275.5833333333333,5499.09765625,1297.1666666666667,5499.09765625,1317.1666666666667C5499.09765625,1337.1666666666667,5499.09765625,1355.5833333333333,5499.09765625,1370.5416666666667C5499.09765625,1385.5,5499.09765625,1397,5499.09765625,1413.5416666666667C5499.09765625,1430.0833333333333,5499.09765625,1451.6666666666667,5499.09765625,1473.25C5499.09765625,1494.8333333333333,5499.09765625,1516.4166666666667,5499.09765625,1538C5499.09765625,1559.5833333333333,5499.09765625,1581.1666666666667,5499.09765625,1602.75C5499.09765625,1624.3333333333333,5499.09765625,1645.9166666666667,5499.09765625,1667.5C5499.09765625,1689.0833333333333,5499.09765625,1710.6666666666667,5499.09765625,1732.25C5499.09765625,1753.8333333333333,5499.09765625,1775.4166666666667,5499.09765625,1791.9583333333333C5499.09765625,1808.5,5499.09765625,1820,5474.294270833333,1831.306033754606C5449.490885416667,1842.6120675092122,5399.884114583333,1853.724135018424,5375.080729166667,1859.28016877303L5350.27734375,1864.836202527636" id="edge2" class="transition" marker-end="url(#statediagram-barbEnd)"></path><path d="M4524.56640625,398.3855226107003L4667.287760416667,407.8212688422503C4810.009114583333,417.2570150738002,5095.451822916667,436.1285075369001,5238.173177083333,454.14758710178336C5380.89453125,472.1666666666667,5380.89453125,489.3333333333333,5380.89453125,506.5C5380.89453125,523.6666666666666,5380.89453125,540.8333333333334,5380.89453125,558C5380.89453125,575.1666666666666,5380.89453125,592.3333333333334,5380.89453125,609.5C5380.89453125,626.6666666666666,5380.89453125,643.8333333333334,5380.89453125,658.1666666666666C5380.89453125,672.5,5380.89453125,684,5380.89453125,698.9583333333334C5380.89453125,713.9166666666666,5380.89453125,732.3333333333334,5380.89453125,752.3333333333334C5380.89453125,772.3333333333334,5380.89453125,793.9166666666666,5380.89453125,815.5C5380.89453125,837.0833333333334,5380.89453125,858.6666666666666,5380.89453125,878.6666666666666C5380.89453125,898.6666666666666,5380.89453125,917.0833333333334,5380.89453125,932.0416666666666C5380.89453125,947,5380.89453125,958.5,5380.89453125,975.0416666666666C5380.89453125,991.5833333333334,5380.89453125,1013.1666666666666,5380.89453125,1034.75C5380.89453125,1056.3333333333333,5380.89453125,1077.9166666666667,5380.89453125,1094.4583333333333C5380.89453125,1111,5380.89453125,1122.5,5380.89453125,1137.4583333333333C5380.89453125,1152.4166666666667,5380.89453125,1170.8333333333333,5380.89453125,1190.8333333333333C5380.89453125,1210.8333333333333,5380.89453125,1232.4166666666667,5380.89453125,1254C5380.89453125,1275.5833333333333,5380.89453125,1297.1666666666667,5380.89453125,1317.1666666666667C5380.89453125,1337.1666666666667,5380.89453125,1355.5833333333333,5380.89453125,1370.5416666666667C5380.89453125,1385.5,5380.89453125,1397,5380.89453125,1413.5416666666667C5380.89453125,1430.0833333333333,5380.89453125,1451.6666666666667,5380.89453125,1473.25C5380.89453125,1494.8333333333333,5380.89453125,1516.4166666666667,5380.89453125,1538C5380.89453125,1559.5833333333333,5380.89453125,1581.1666666666667,5380.89453125,1602.75C5380.89453125,1624.3333333333333,5380.89453125,1645.9166666666667,5380.89453125,1667.5C5380.89453125,1689.0833333333333,5380.89453125,1710.6666666666667,5380.89453125,1732.25C5380.89453125,1753.8333333333333,5380.89453125,1775.4166666666667,5380.89453125,1791.9583333333333C5380.89453125,1808.5,5380.89453125,1820,5371.20785609917,1829.9166666666667C5361.521180948341,1839.8333333333333,5342.1478306466815,1848.1666666666667,5332.461155495852,1852.3333333333333L5322.774480345022,1856.5" id="edge3" class="transition" marker-end="url(#statediagram-barbEnd)"></path><path d="M4615.266062379344,781L4621.94502594112,786.75C4628.623989502896,792.5,4641.981916626448,804,4648.660880188224,820.5416666666666C4655.33984375,837.0833333333334,4655.33984375,858.6666666666666,4655.33984375,878.6666666666666C4655.33984375,898.6666666666666,4655.33984375,917.0833333333334,4655.33984375,932.0416666666666C4655.33984375,947,4655.33984375,958.5,4655.33984375,975.0416666666666C4655.33984375,991.5833333333334,4655.33984375,1013.1666666666666,4655.33984375,1034.75C4655.33984375,1056.3333333333333,4655.33984375,1077.9166666666667,4655.33984375,1094.4583333333333C4655.33984375,1111,4655.33984375,1122.5,4655.33984375,1137.4583333333333C4655.33984375,1152.4166666666667,4655.33984375,1170.8333333333333,4655.33984375,1190.8333333333333C4655.33984375,1210.8333333333333,4655.33984375,1232.4166666666667,4655.33984375,1254C4655.33984375,1275.5833333333333,4655.33984375,1297.1666666666667,4655.33984375,1317.1666666666667C4655.33984375,1337.1666666666667,4655.33984375,1355.5833333333333,4655.33984375,1370.5416666666667C4655.33984375,1385.5,4655.33984375,1397,4655.33984375,1413.5416666666667C4655.33984375,1430.0833333333333,4655.33984375,1451.6666666666667,4655.33984375,1473.25C4655.33984375,1494.8333333333333,4655.33984375,1516.4166666666667,4655.33984375,1538C4655.33984375,1559.5833333333333,4655.33984375,1581.1666666666667,4655.33984375,1602.75C4655.33984375,1624.3333333333333,4655.33984375,1645.9166666666667,4655.33984375,1667.5C4655.33984375,1689.0833333333333,4655.33984375,1710.6666666666667,4655.33984375,1732.25C4655.33984375,1753.8333333333333,4655.33984375,1775.4166666666667,4743.341145833333,1791.9583333333333C4831.342447916667,1808.5,5007.345052083333,1820,5100.557633389894,1829.9166666666667C5193.770214696456,1839.8333333333333,5204.1927731429105,1848.1666666666667,5209.404052366139,1852.3333333333333L5214.615331589366,1856.5" id="edge4" class="transition" marker-end="url(#statediagram-barbEnd)"></path><path d="M5154.62109375,1894.2201901638136L5029.600260416667,1903.7668251365114C4904.579427083333,1913.313460109209,4654.537760416667,1932.4067300546046,4253.693359375,1952.2035672677341C3852.8489583333335,1972.0004044808632,3301.2018229166665,1992.5008089617265,3025.3782552083335,2002.7510112021582L2749.5546875,2013.00121344259" id="edge5" class="transition" marker-end="url(#statediagram-barbEnd)"></path><path d="M4401.51171875,263.25L4401.51171875,267.875C4401.51171875,272.5,4401.51171875,281.75,4401.51171875,292.125C4401.51171875,302.5,4401.51171875,314,4401.51171875,325.5C4401.51171875,337,4401.51171875,348.5,4401.51171875,354.25L4401.51171875,360" id="edge6" class="transition" marker-end="url(#statediagram-barbEnd)"></path><path d="M4514.808699324324,420.5L4536.34448902027,426.25C4557.880278716216,432,4600.951858108107,443.5,4622.487647804054,455C4644.0234375,466.5,4644.0234375,478,4644.0234375,483.75L4644.0234375,489.5" id="edge7" class="transition" marker-end="url(#statediagram-barbEnd)"></path><path d="M4835.412886832524,626.5L4844.842119235437,632.25C4854.271351638349,638,4873.129816444175,649.5,4882.559048847087,661C4891.98828125,672.5,4891.98828125,684,4891.98828125,698.9583333333334C4891.98828125,713.9166666666666,4891.98828125,732.3333333333334,4891.98828125,752.3333333333334C4891.98828125,772.3333333333334,4891.98828125,793.9166666666666,4891.98828125,815.5C4891.98828125,837.0833333333334,4891.98828125,858.6666666666666,4891.98828125,878.6666666666666C4891.98828125,898.6666666666666,4891.98828125,917.0833333333334,4891.98828125,932.0416666666666C4891.98828125,947,4891.98828125,958.5,4891.98828125,975.0416666666666C4891.98828125,991.5833333333334,4891.98828125,1013.1666666666666,4891.98828125,1034.75C4891.98828125,1056.3333333333333,4891.98828125,1077.9166666666667,4891.98828125,1094.4583333333333C4891.98828125,1111,4891.98828125,1122.5,4891.98828125,1137.4583333333333C4891.98828125,1152.4166666666667,4891.98828125,1170.8333333333333,4891.98828125,1190.8333333333333C4891.98828125,1210.8333333333333,4891.98828125,1232.4166666666667,4891.98828125,1254C4891.98828125,1275.5833333333333,4891.98828125,1297.1666666666667,4891.98828125,1317.1666666666667C4891.98828125,1337.1666666666667,4891.98828125,1355.5833333333333,4891.98828125,1370.5416666666667C4891.98828125,1385.5,4891.98828125,1397,4891.98828125,1413.5416666666667C4891.98828125,1430.0833333333333,4891.98828125,1451.6666666666667,4891.98828125,1473.25C4891.98828125,1494.8333333333333,4891.98828125,1516.4166666666667,4891.98828125,1538C4891.98828125,1559.5833333333333,4891.98828125,1581.1666666666667,4891.98828125,1602.75C4891.98828125,1624.3333333333333,4891.98828125,1645.9166666666667,4891.98828125,1667.5C4891.98828125,1689.0833333333333,4891.98828125,1710.6666666666667,4891.98828125,1732.25C4891.98828125,1753.8333333333333,4891.98828125,1775.4166666666667,4746.703125,1791.9583333333333C4601.41796875,1808.5,4310.84765625,1820,4165.5625,1834.9583333333333C4020.27734375,1849.9166666666667,4020.27734375,1868.3333333333333,4020.27734375,1888.3333333333333C4020.27734375,1908.3333333333333,4020.27734375,1929.9166666666667,3808.490234375,1950.8053554222931C3596.703125,1971.6940441779197,3173.12890625,1991.8880883558395,2961.341796875,2001.9851104447991L2749.5546875,2012.082132533759" id="edge8" class="transition" marker-end="url(#statediagram-barbEnd)"></path><path d="M4697.998179611651,523.5L4716.254342384709,529.25C4734.5105051577675,535,4771.022830703884,546.5,4789.278993476942,558C4807.53515625,569.5,4807.53515625,581,4807.53515625,586.75L4807.53515625,592.5" id="edge9" class="transition" marker-end="url(#statediagram-barbEnd)"></path><path d="M4732.469015473301,626.5L4707.078997269417,632.25C4681.688979065534,638,4630.908942657767,649.5,4605.518924453883,661C4580.12890625,672.5,4580.12890625,684,4580.12890625,693.9166666666666C4580.12890625,703.8333333333334,4580.12890625,712.1666666666666,4580.12890625,716.3333333333334L4580.12890625,720.5" id="edge10" class="transition" marker-end="url(#statediagram-barbEnd)"></path><path d="M4544.991750120656,781L4538.31278655888,786.75C4531.633822997104,792.5,4518.275895873552,804,4511.596932311776,820.5416666666666C4504.91796875,837.0833333333334,4504.91796875,858.6666666666666,4504.91796875,878.6666666666666C4504.91796875,898.6666666666666,4504.91796875,917.0833333333334,4504.91796875,932.0416666666666C4504.91796875,947,4504.91796875,958.5,4504.91796875,975.0416666666666C4504.91796875,991.5833333333334,4504.91796875,1013.1666666666666,4504.91796875,1034.75C4504.91796875,1056.3333333333333,4504.91796875,1077.9166666666667,4504.91796875,1094.4583333333333C4504.91796875,1111,4504.91796875,1122.5,4504.91796875,1137.4583333333333C4504.91796875,1152.4166666666667,4504.91796875,1170.8333333333333,4504.91796875,1190.8333333333333C4504.91796875,1210.8333333333333,4504.91796875,1232.4166666666667,4504.91796875,1254C4504.91796875,1275.5833333333333,4504.91796875,1297.1666666666667,4504.91796875,1317.1666666666667C4504.91796875,1337.1666666666667,4504.91796875,1355.5833333333333,4504.91796875,1370.5416666666667C4504.91796875,1385.5,4504.91796875,1397,4504.91796875,1413.5416666666667C4504.91796875,1430.0833333333333,4504.91796875,1451.6666666666667,4504.91796875,1473.25C4504.91796875,1494.8333333333333,4504.91796875,1516.4166666666667,4504.91796875,1538C4504.91796875,1559.5833333333333,4504.91796875,1581.1666666666667,4504.91796875,1602.75C4504.91796875,1624.3333333333333,4504.91796875,1645.9166666666667,4504.91796875,1667.5C4504.91796875,1689.0833333333333,4504.91796875,1710.6666666666667,4504.91796875,1732.25C4504.91796875,1753.8333333333333,4504.91796875,1775.4166666666667,4390.222005208333,1791.9583333333333C4275.526041666667,1808.5,4046.1341145833335,1820,3931.4381510416665,1834.9583333333333C3816.7421875,1849.9166666666667,3816.7421875,1868.3333333333333,3816.7421875,1888.3333333333333C3816.7421875,1908.3333333333333,3816.7421875,1929.9166666666667,3638.8776041666665,1950.682903105758C3461.0130208333335,1971.4491395448497,3105.2838541666665,1991.3982790896996,2927.4192708333335,2001.3728488621243L2749.5546875,2011.347418634549" id="edge11" class="transition" marker-end="url(#statediagram-barbEnd)"></path><path d="M4538.4609375,516.9475272497973L4469.328125,523.7896060414978C4400.1953125,530.6316848331982,4261.9296875,544.3158424165991,4192.796875,559.7412545416329C4123.6640625,575.1666666666666,4123.6640625,592.3333333333334,4123.6640625,609.5C4123.6640625,626.6666666666666,4123.6640625,643.8333333333334,4123.6640625,658.1666666666666C4123.6640625,672.5,4123.6640625,684,4123.6640625,698.9583333333334C4123.6640625,713.9166666666666,4123.6640625,732.3333333333334,4123.6640625,752.3333333333334C4123.6640625,772.3333333333334,4123.6640625,793.9166666666666,4123.6640625,810.4583333333334C4123.6640625,827,4123.6640625,838.5,4123.6640625,844.25L4123.6640625,850" id="edge12" class="transition" marker-end="url(#statediagram-barbEnd)"></path><path d="M4483.74609375,774.2112611421942L4455.475911458333,781.0927176184952C4427.205729166667,787.9741740947961,4370.665364583333,801.7370870473982,4325.481662745335,814.368543523699C4280.297960907336,827,4246.470921814672,838.5,4229.55740226834,844.25L4212.643882722008,850" id="edge13" class="transition" marker-end="url(#statediagram-barbEnd)"></path><path d="M4222.46846719457,910.5L4236.077889328808,914.6666666666666C4249.687311463046,918.8333333333334,4276.906155731523,927.1666666666666,4290.515577865762,937.0833333333334C4304.125,947,4304.125,958.5,4304.125,970C4304.125,981.5,4304.125,993,4304.125,998.75L4304.125,1004.5" id="edge14" class="transition" marker-end="url(#statediagram-barbEnd)"></path><path d="M4098.726633201358,910.5L4095.2917255844645,914.6666666666666C4091.8568179675717,918.8333333333334,4084.9870027337856,927.1666666666666,4081.552095116893,937.0833333333334C4078.1171875,947,4078.1171875,958.5,4078.1171875,975.0416666666666C4078.1171875,991.5833333333334,4078.1171875,1013.1666666666666,4078.1171875,1034.75C4078.1171875,1056.3333333333333,4078.1171875,1077.9166666666667,4078.1171875,1094.4583333333333C4078.1171875,1111,4078.1171875,1122.5,4088.7925032993967,1132.4166666666667C4099.467819098793,1142.3333333333333,4120.818450697587,1150.6666666666667,4131.493766496983,1154.8333333333333L4142.16908229638,1159" id="edge15" class="transition" marker-end="url(#statediagram-barbEnd)"></path><path d="M4304.125,1065L4304.125,1070.75C4304.125,1076.5,4304.125,1088,4304.125,1099.5C4304.125,1111,4304.125,1122.5,4297.755986048265,1132.4166666666667C4291.386972096531,1142.3333333333333,4278.648944193062,1150.6666666666667,4272.279930241327,1154.8333333333333L4265.910916289593,1159" id="edge16" class="transition" marker-end="url(#statediagram-barbEnd)"></path><path d="M4119.7578125,1194.4537135370192L3929.2044270833335,1204.3780946141826C3738.6510416666665,1214.3024756913462,3357.5442708333335,1234.151237845673,3148.807759210103,1249.8256189228366C2940.0712475868727,1265.5,2903.704995173745,1277,2885.5218689671815,1282.75L2867.3387427606176,1288.5" id="edge17" class="transition" marker-end="url(#statediagram-barbEnd)"></path><path d="M2883.8359375,1342.0668415792104L2909.4361979166665,1347.389034649342C2935.0364583333335,1352.7112277194735,2986.2369791666665,1363.3556138597369,3011.8372395833335,1374.4278069298682C3037.4375,1385.5,3037.4375,1397,3037.4375,1413.5416666666667C3037.4375,1430.0833333333333,3037.4375,1451.6666666666667,3037.4375,1473.25C3037.4375,1494.8333333333333,3037.4375,1516.4166666666667,3037.4375,1538C3037.4375,1559.5833333333333,3037.4375,1581.1666666666667,3037.4375,1602.75C3037.4375,1624.3333333333333,3037.4375,1645.9166666666667,3037.4375,1667.5C3037.4375,1689.0833333333333,3037.4375,1710.6666666666667,3037.4375,1732.25C3037.4375,1753.8333333333333,3037.4375,1775.4166666666667,3037.4375,1791.9583333333333C3037.4375,1808.5,3037.4375,1820,3037.4375,1834.9583333333333C3037.4375,1849.9166666666667,3037.4375,1868.3333333333333,3037.4375,1888.3333333333333C3037.4375,1908.3333333333333,3037.4375,1929.9166666666667,2989.45703125,1948.98623514228C2941.4765625,1968.0558036178936,2845.515625,1984.6116072357875,2797.53515625,1992.8895090447343L2749.5546875,2001.1674108536813" id="edge18" class="transition" marker-end="url(#statediagram-barbEnd)"></path><path d="M5154.62109375,1892.5603501404576L4989.227864583333,1902.383625117048C4823.834635416667,1912.2069000936383,4493.048177083333,1931.8534500468193,4092.2037760416665,1951.8394939130624C3691.359375,1971.8255377793055,3220.45703125,1992.1510755586107,2985.005859375,2002.3138444482636L2749.5546875,2012.4766133379162" id="edge19" class="transition" marker-end="url(#statediagram-barbEnd)"></path><path d="M4278.45703125,401.19283024232703L4177.611328125,410.16069186860585C4076.765625,419.1285534948847,3875.07421875,437.06427674744236,3774.228515625,454.6154717070545C3673.3828125,472.1666666666667,3673.3828125,489.3333333333333,3673.3828125,506.5C3673.3828125,523.6666666666666,3673.3828125,540.8333333333334,3673.3828125,558C3673.3828125,575.1666666666666,3673.3828125,592.3333333333334,3673.3828125,609.5C3673.3828125,626.6666666666666,3673.3828125,643.8333333333334,3673.3828125,658.1666666666666C3673.3828125,672.5,3673.3828125,684,3673.3828125,698.9583333333334C3673.3828125,713.9166666666666,3673.3828125,732.3333333333334,3673.3828125,752.3333333333334C3673.3828125,772.3333333333334,3673.3828125,793.9166666666666,3673.3828125,815.5C3673.3828125,837.0833333333334,3673.3828125,858.6666666666666,3673.3828125,878.6666666666666C3673.3828125,898.6666666666666,3673.3828125,917.0833333333334,3673.3828125,932.0416666666666C3673.3828125,947,3673.3828125,958.5,3673.3828125,975.0416666666666C3673.3828125,991.5833333333334,3673.3828125,1013.1666666666666,3673.3828125,1034.75C3673.3828125,1056.3333333333333,3673.3828125,1077.9166666666667,3673.3828125,1094.4583333333333C3673.3828125,1111,3673.3828125,1122.5,3673.3828125,1137.4583333333333C3673.3828125,1152.4166666666667,3673.3828125,1170.8333333333333,3673.3828125,1190.8333333333333C3673.3828125,1210.8333333333333,3673.3828125,1232.4166666666667,3673.3828125,1254C3673.3828125,1275.5833333333333,3673.3828125,1297.1666666666667,3673.3828125,1317.1666666666667C3673.3828125,1337.1666666666667,3673.3828125,1355.5833333333333,3673.3828125,1370.5416666666667C3673.3828125,1385.5,3673.3828125,1397,3673.3828125,1413.5416666666667C3673.3828125,1430.0833333333333,3673.3828125,1451.6666666666667,3673.3828125,1473.25C3673.3828125,1494.8333333333333,3673.3828125,1516.4166666666667,3673.3828125,1538C3673.3828125,1559.5833333333333,3673.3828125,1581.1666666666667,3673.3828125,1602.75C3673.3828125,1624.3333333333333,3673.3828125,1645.9166666666667,3673.3828125,1667.5C3673.3828125,1689.0833333333333,3673.3828125,1710.6666666666667,3673.3828125,1732.25C3673.3828125,1753.8333333333333,3673.3828125,1775.4166666666667,3616.5475260416665,1791.9583333333333C3559.7122395833335,1808.5,3446.0416666666665,1820,3389.2063802083335,1834.9583333333333C3332.37109375,1849.9166666666667,3332.37109375,1868.3333333333333,3332.37109375,1888.3333333333333C3332.37109375,1908.3333333333333,3332.37109375,1929.9166666666667,3235.2350260416665,1950.092399508104C3138.0989583333335,1970.2681323495415,2943.8268229166665,1989.0362646990827,2846.6907552083335,1998.4203308738536L2749.5546875,2007.8043970486242" id="edge20" class="transition" marker-end="url(#statediagram-barbEnd)"></path><path d="M2670.0970906391403,1349L2656.1049974076172,1353.1666666666667C2642.1129041760937,1357.3333333333333,2614.1287177130466,1365.6666666666667,2600.1366244815235,1375.5833333333333C2586.14453125,1385.5,2586.14453125,1397,2586.14453125,1408.5C2586.14453125,1420,2586.14453125,1431.5,2586.14453125,1437.25L2586.14453125,1443" id="edge21" class="transition" marker-end="url(#statediagram-barbEnd)"></path><path d="M2688.99609375,1494.2136335690132L2724.8001302083335,1501.511361307511C2760.6041666666665,1508.8090890460087,2832.2122395833335,1523.4045445230042,2868.0162760416665,1541.4939389281687C2903.8203125,1559.5833333333333,2903.8203125,1581.1666666666667,2903.8203125,1602.75C2903.8203125,1624.3333333333333,2903.8203125,1645.9166666666667,2903.8203125,1667.5C2903.8203125,1689.0833333333333,2903.8203125,1710.6666666666667,2903.8203125,1732.25C2903.8203125,1753.8333333333333,2903.8203125,1775.4166666666667,2903.8203125,1791.9583333333333C2903.8203125,1808.5,2903.8203125,1820,2903.8203125,1834.9583333333333C2903.8203125,1849.9166666666667,2903.8203125,1868.3333333333333,2903.8203125,1888.3333333333333C2903.8203125,1908.3333333333333,2903.8203125,1929.9166666666667,2878.109375,1947.596497607965C2852.3984375,1965.276328549263,2800.9765625,1979.052657098526,2775.265625,1985.9408213731576L2749.5546875,1992.828985647789" id="edge22" class="transition" marker-end="url(#statediagram-barbEnd)"></path><path d="M2141.461088320463,1633L2161.612104850386,1638.75C2181.763121380309,1644.5,2222.0651544401544,1656,2242.216170970077,1672.5416666666667C2262.3671875,1689.0833333333333,2262.3671875,1710.6666666666667,2262.3671875,1732.25C2262.3671875,1753.8333333333333,2262.3671875,1775.4166666666667,2262.3671875,1791.9583333333333C2262.3671875,1808.5,2262.3671875,1820,2262.3671875,1834.9583333333333C2262.3671875,1849.9166666666667,2262.3671875,1868.3333333333333,2262.3671875,1888.3333333333333C2262.3671875,1908.3333333333333,2262.3671875,1929.9166666666667,2314.4244791666665,1949.140047879617C2366.4817708333335,1968.3634290925672,2470.5963541666665,1985.2268581851342,2522.6536458333335,1993.658572731418L2574.7109375,2002.0902872777017" id="edge23" class="transition" marker-end="url(#statediagram-barbEnd)"></path><path d="M594.39453125,1909.5347739858585L638.4348958333334,1916.5289783215487C682.4752604166666,1923.523182657239,770.5559895833334,1937.5115913286197,1100.6087239583333,1954.7743518359528C1430.6614583333333,1972.0371123432858,2002.6861979166667,1992.5742246865714,2288.6985677083335,2002.8427808582144L2574.7109375,2013.1113370298574" id="edge24" class="transition" marker-end="url(#statediagram-barbEnd)"></path><path d="M2621.644847972973,1503.5L2628.392842060811,1509.25C2635.1408361486488,1515,2648.6368243243246,1526.5,2655.384818412162,1543.0416666666667C2662.1328125,1559.5833333333333,2662.1328125,1581.1666666666667,2662.1328125,1602.75C2662.1328125,1624.3333333333333,2662.1328125,1645.9166666666667,2662.1328125,1667.5C2662.1328125,1689.0833333333333,2662.1328125,1710.6666666666667,2662.1328125,1732.25C2662.1328125,1753.8333333333333,2662.1328125,1775.4166666666667,2662.1328125,1791.9583333333333C2662.1328125,1808.5,2662.1328125,1820,2662.1328125,1834.9583333333333C2662.1328125,1849.9166666666667,2662.1328125,1868.3333333333333,2662.1328125,1888.3333333333333C2662.1328125,1908.3333333333333,2662.1328125,1929.9166666666667,2662.1328125,1946.4583333333333C2662.1328125,1963,2662.1328125,1974.5,2662.1328125,1980.25L2662.1328125,1986" id="edge25" class="transition" marker-end="url(#statediagram-barbEnd)"></path><path d="M2505.2509652509652,1503.5L2489.874502292471,1509.25C2474.498039333977,1515,2443.7451134169883,1526.5,2428.3686504584944,1543.0416666666667C2412.9921875,1559.5833333333333,2412.9921875,1581.1666666666667,2412.9921875,1602.75C2412.9921875,1624.3333333333333,2412.9921875,1645.9166666666667,2412.9921875,1667.5C2412.9921875,1689.0833333333333,2412.9921875,1710.6666666666667,2412.9921875,1732.25C2412.9921875,1753.8333333333333,2412.9921875,1775.4166666666667,2412.9921875,1791.9583333333333C2412.9921875,1808.5,2412.9921875,1820,2412.9921875,1834.9583333333333C2412.9921875,1849.9166666666667,2412.9921875,1868.3333333333333,2412.9921875,1888.3333333333333C2412.9921875,1908.3333333333333,2412.9921875,1929.9166666666667,2439.9453125,1947.713272185638C2466.8984375,1965.5098777046096,2520.8046875,1979.5197554092192,2547.7578125,1986.524694261524L2574.7109375,1993.5296331138288" id="edge26" class="transition" marker-end="url(#statediagram-barbEnd)"></path><path d="M2483.29296875,1485.3431457390516L2408.65234375,1494.119288115876C2334.01171875,1502.895430492701,2184.73046875,1520.4477152463505,2110.08984375,1534.973857623175C2035.44921875,1549.5,2035.44921875,1561,2035.44921875,1566.75L2035.44921875,1572.5" id="edge27" class="transition" marker-end="url(#statediagram-barbEnd)"></path><path d="M2023.2678269787646,1633L2020.952355815637,1638.75C2018.63688465251,1644.5,2014.0059423262549,1656,2011.6904711631275,1672.5416666666667C2009.375,1689.0833333333333,2009.375,1710.6666666666667,2009.375,1732.25C2009.375,1753.8333333333333,2009.375,1775.4166666666667,2009.375,1791.9583333333333C2009.375,1808.5,2009.375,1820,2009.375,1834.9583333333333C2009.375,1849.9166666666667,2009.375,1868.3333333333333,2009.375,1888.3333333333333C2009.375,1908.3333333333333,2009.375,1929.9166666666667,2103.59765625,1950.054704798152C2197.8203125,1970.1927429296375,2386.265625,1988.885485859275,2480.48828125,1998.2318573240937L2574.7109375,2007.5782287889124" id="edge28" class="transition" marker-end="url(#statediagram-barbEnd)"></path><path d="M1905.47265625,1619.3325784106214L1842.548828125,1627.3604820088512C1779.625,1635.3883856070809,1653.77734375,1651.4441928035405,1590.853515625,1665.2220964017704C1527.9296875,1679,1527.9296875,1690.5,1527.9296875,1696.25L1527.9296875,1702" id="edge29" class="transition" marker-end="url(#statediagram-barbEnd)"></path><path d="M1644.59375,1754.8988118243678L1680.7376302083333,1761.9156765203068C1716.8815104166667,1768.9325412162452,1789.1692708333333,1782.9662706081226,1825.3131510416667,1795.7331353040615C1861.45703125,1808.5,1861.45703125,1820,1861.45703125,1834.9583333333333C1861.45703125,1849.9166666666667,1861.45703125,1868.3333333333333,1861.45703125,1888.3333333333333C1861.45703125,1908.3333333333333,1861.45703125,1929.9166666666667,1980.3326822916667,1950.3217106643315C2099.2083333333335,1970.7267546619962,2336.9596354166665,1989.9535093239922,2455.8352864583335,1999.5668866549904L2574.7109375,2009.1802639859884" id="edge30" class="transition" marker-end="url(#statediagram-barbEnd)"></path><path d="M1561.1123461631273,1762.5L1567.419793677606,1768.25C1573.7272411920849,1774,1586.3421362210422,1785.5,1592.6495837355212,1797C1598.95703125,1808.5,1598.95703125,1820,1598.95703125,1834.9583333333333C1598.95703125,1849.9166666666667,1598.95703125,1868.3333333333333,1598.95703125,1888.3333333333333C1598.95703125,1908.3333333333333,1598.95703125,1929.9166666666667,1761.5826822916667,1950.6126324065945C1924.2083333333333,1971.308598146522,2249.4596354166665,1991.117196293044,2412.0852864583335,2001.021495366305L2574.7109375,2010.925794439566" id="edge31" class="transition" marker-end="url(#statediagram-barbEnd)"></path><path d="M1432.444000361969,1762.5L1414.2938284266409,1768.25C1396.1436564913129,1774,1359.8433126206564,1785.5,1341.6931406853282,1797C1323.54296875,1808.5,1323.54296875,1820,1323.54296875,1834.9583333333333C1323.54296875,1849.9166666666667,1323.54296875,1868.3333333333333,1323.54296875,1888.3333333333333C1323.54296875,1908.3333333333333,1323.54296875,1929.9166666666667,1532.0709635416667,1950.795207760032C1740.5989583333333,1971.6737488533972,2157.6549479166665,1991.8474977067945,2366.1829427083335,2001.9343721334933L2574.7109375,2012.021246560192" id="edge32" class="transition" marker-end="url(#statediagram-barbEnd)"></path><path d="M1411.265625,1739.2639003238876L1251.208984375,1748.8865836032398C1091.15234375,1758.5092668825916,771.0390625,1777.7546334412957,610.982421875,1793.127316720648C450.92578125,1808.5,450.92578125,1820,450.92578125,1829.9166666666667C450.92578125,1839.8333333333333,450.92578125,1848.1666666666667,450.92578125,1852.3333333333333L450.92578125,1856.5" id="edge33" class="transition" marker-end="url(#statediagram-barbEnd)"></path><path d="M513.1868363899614,1917L525.0215824083011,1922.75C536.856328426641,1928.5,560.5258204633204,1940,572.3605664816602,1956.5416666666667C584.1953125,1973.0833333333333,584.1953125,1994.6666666666667,584.1953125,2014.6666666666667C584.1953125,2034.6666666666667,584.1953125,2053.0833333333335,584.1953125,2068.0416666666665C584.1953125,2083,584.1953125,2094.5,569.3157046419902,2106C554.4360967839806,2117.5,524.6768810679612,2129,509.79727320995147,2134.75L494.91766535194176,2140.5" id="edge34" class="transition" marker-end="url(#statediagram-barbEnd)"></path><path d="M417.1007480694981,1917L410.67119630791507,1922.75C404.24164454633205,1928.5,391.38254102316597,1940,384.952989261583,1956.5416666666667C378.5234375,1973.0833333333333,378.5234375,1994.6666666666667,378.5234375,2014.6666666666667C378.5234375,2034.6666666666667,378.5234375,2053.0833333333335,378.5234375,2068.0416666666665C378.5234375,2083,378.5234375,2094.5,363.6438296419903,2106C348.76422178398053,2117.5,319.0050060679612,2129,304.12539820995147,2134.75L289.24579035194176,2140.5" id="edge35" class="transition" marker-end="url(#statediagram-barbEnd)"></path><path d="M307.45703125,1916.3240489721811L279.0162760416667,1922.1867074768177C250.57552083333334,1928.049365981454,193.69401041666666,1939.7746829907271,165.25325520833334,1956.4290081620302C136.8125,1973.0833333333333,136.8125,1994.6666666666667,136.8125,2014.6666666666667C136.8125,2034.6666666666667,136.8125,2053.0833333333335,136.8125,2068.0416666666665C136.8125,2083,136.8125,2094.5,845.8151041666666,2108.6978149380598C1554.8177083333333,2122.89562987612,2972.8229166666665,2139.7912597522395,3681.8255208333335,2148.2390746902993L4390.828125,2156.686889628359" id="edge36" class="transition" marker-end="url(#statediagram-barbEnd)"></path><path d="M2662.1328125,2046.5L2662.1328125,2050.6666666666665C2662.1328125,2054.8333333333335,2662.1328125,2063.1666666666665,2662.1328125,2073.0833333333335C2662.1328125,2083,2662.1328125,2094.5,2950.2486979166665,2108.5073645989123C3238.3645833333335,2122.514729197825,3814.5963541666665,2139.0294583956497,4102.712239583333,2147.286822994562L4390.828125,2155.544187593475" id="edge37" class="transition" marker-end="url(#statediagram-barbEnd)"></path><path d="M5229.075545970078,1917L5224.632616433398,1922.75C5220.189686896719,1928.5,5211.303827823359,1940,5206.86089828668,1956.5416666666667C5202.41796875,1973.0833333333333,5202.41796875,1994.6666666666667,5202.41796875,2014.6666666666667C5202.41796875,2034.6666666666667,5202.41796875,2053.0833333333335,5202.41796875,2068.0416666666665C5202.41796875,2083,5202.41796875,2094.5,5089.900390625,2108.045350163166C4977.3828125,2121.5907003263324,4752.34765625,2137.1814006526643,4639.830078125,2144.97675081583L4527.3125,2152.772100978996" id="edge38" class="transition" marker-end="url(#statediagram-barbEnd)"></path><path d="M4266.98046875,240.82512633681984L4123.2109375,249.1876052806832C3979.44140625,257.55008422454654,3691.90234375,274.2750421122733,3548.1328125,288.3875210561366C3404.36328125,302.5,3404.36328125,314,3404.36328125,330.5416666666667C3404.36328125,347.0833333333333,3404.36328125,368.6666666666667,3404.36328125,390.25C3404.36328125,411.8333333333333,3404.36328125,433.4166666666667,3404.36328125,452.7916666666667C3404.36328125,472.1666666666667,3404.36328125,489.3333333333333,3404.36328125,506.5C3404.36328125,523.6666666666666,3404.36328125,540.8333333333334,3404.36328125,558C3404.36328125,575.1666666666666,3404.36328125,592.3333333333334,3404.36328125,609.5C3404.36328125,626.6666666666666,3404.36328125,643.8333333333334,3404.36328125,658.1666666666666C3404.36328125,672.5,3404.36328125,684,3404.36328125,698.9583333333334C3404.36328125,713.9166666666666,3404.36328125,732.3333333333334,3404.36328125,752.3333333333334C3404.36328125,772.3333333333334,3404.36328125,793.9166666666666,3404.36328125,815.5C3404.36328125,837.0833333333334,3404.36328125,858.6666666666666,3404.36328125,878.6666666666666C3404.36328125,898.6666666666666,3404.36328125,917.0833333333334,3404.36328125,932.0416666666666C3404.36328125,947,3404.36328125,958.5,3404.36328125,975.0416666666666C3404.36328125,991.5833333333334,3404.36328125,1013.1666666666666,3404.36328125,1034.75C3404.36328125,1056.3333333333333,3404.36328125,1077.9166666666667,3404.36328125,1094.4583333333333C3404.36328125,1111,3404.36328125,1122.5,3404.36328125,1137.4583333333333C3404.36328125,1152.4166666666667,3404.36328125,1170.8333333333333,3404.36328125,1190.8333333333333C3404.36328125,1210.8333333333333,3404.36328125,1232.4166666666667,3404.36328125,1254C3404.36328125,1275.5833333333333,3404.36328125,1297.1666666666667,3404.36328125,1317.1666666666667C3404.36328125,1337.1666666666667,3404.36328125,1355.5833333333333,3404.36328125,1370.5416666666667C3404.36328125,1385.5,3404.36328125,1397,3404.36328125,1413.5416666666667C3404.36328125,1430.0833333333333,3404.36328125,1451.6666666666667,3404.36328125,1473.25C3404.36328125,1494.8333333333333,3404.36328125,1516.4166666666667,3404.36328125,1538C3404.36328125,1559.5833333333333,3404.36328125,1581.1666666666667,3404.36328125,1602.75C3404.36328125,1624.3333333333333,3404.36328125,1645.9166666666667,3404.36328125,1667.5C3404.36328125,1689.0833333333333,3404.36328125,1710.6666666666667,3404.36328125,1732.25C3404.36328125,1753.8333333333333,3404.36328125,1775.4166666666667,3594.6080729166665,1791.9583333333333C3784.8528645833335,1808.5,4165.342447916667,1820,4355.587239583333,1834.9583333333333C4545.83203125,1849.9166666666667,4545.83203125,1868.3333333333333,4545.83203125,1888.3333333333333C4545.83203125,1908.3333333333333,4545.83203125,1929.9166666666667,4545.83203125,1951.5C4545.83203125,1973.0833333333333,4545.83203125,1994.6666666666667,4545.83203125,2014.6666666666667C4545.83203125,2034.6666666666667,4545.83203125,2053.0833333333335,4545.83203125,2068.0416666666665C4545.83203125,2083,4545.83203125,2094.5,4536.1450432342235,2106C4526.458055218446,2117.5,4507.084079186893,2129,4497.397091171117,2134.75L4487.71010315534,2140.5" id="edge39" class="transition" marker-end="url(#statediagram-barbEnd)"></path><path d="M4278.45703125,399.40718813552473L4153.947265625,408.672656779604C4029.4375,417.9381254236832,3780.41796875,436.4690627118416,3655.908203125,454.3178646892541C3531.3984375,472.1666666666667,3531.3984375,489.3333333333333,3531.3984375,506.5C3531.3984375,523.6666666666666,3531.3984375,540.8333333333334,3531.3984375,558C3531.3984375,575.1666666666666,3531.3984375,592.3333333333334,3531.3984375,609.5C3531.3984375,626.6666666666666,3531.3984375,643.8333333333334,3531.3984375,658.1666666666666C3531.3984375,672.5,3531.3984375,684,3531.3984375,698.9583333333334C3531.3984375,713.9166666666666,3531.3984375,732.3333333333334,3531.3984375,752.3333333333334C3531.3984375,772.3333333333334,3531.3984375,793.9166666666666,3531.3984375,815.5C3531.3984375,837.0833333333334,3531.3984375,858.6666666666666,3531.3984375,878.6666666666666C3531.3984375,898.6666666666666,3531.3984375,917.0833333333334,3531.3984375,932.0416666666666C3531.3984375,947,3531.3984375,958.5,3531.3984375,975.0416666666666C3531.3984375,991.5833333333334,3531.3984375,1013.1666666666666,3531.3984375,1034.75C3531.3984375,1056.3333333333333,3531.3984375,1077.9166666666667,3531.3984375,1094.4583333333333C3531.3984375,1111,3531.3984375,1122.5,3531.3984375,1137.4583333333333C3531.3984375,1152.4166666666667,3531.3984375,1170.8333333333333,3531.3984375,1190.8333333333333C3531.3984375,1210.8333333333333,3531.3984375,1232.4166666666667,3531.3984375,1254C3531.3984375,1275.5833333333333,3531.3984375,1297.1666666666667,3531.3984375,1317.1666666666667C3531.3984375,1337.1666666666667,3531.3984375,1355.5833333333333,3531.3984375,1370.5416666666667C3531.3984375,1385.5,3531.3984375,1397,3531.3984375,1413.5416666666667C3531.3984375,1430.0833333333333,3531.3984375,1451.6666666666667,3531.3984375,1473.25C3531.3984375,1494.8333333333333,3531.3984375,1516.4166666666667,3531.3984375,1538C3531.3984375,1559.5833333333333,3531.3984375,1581.1666666666667,3531.3984375,1602.75C3531.3984375,1624.3333333333333,3531.3984375,1645.9166666666667,3531.3984375,1667.5C3531.3984375,1689.0833333333333,3531.3984375,1710.6666666666667,3531.3984375,1732.25C3531.3984375,1753.8333333333333,3531.3984375,1775.4166666666667,3710.138671875,1791.9583333333333C3888.87890625,1808.5,4246.359375,1820,4425.099609375,1834.9583333333333C4603.83984375,1849.9166666666667,4603.83984375,1868.3333333333333,4603.83984375,1888.3333333333333C4603.83984375,1908.3333333333333,4603.83984375,1929.9166666666667,4603.83984375,1951.5C4603.83984375,1973.0833333333333,4603.83984375,1994.6666666666667,4603.83984375,2014.6666666666667C4603.83984375,2034.6666666666667,4603.83984375,2053.0833333333335,4603.83984375,2068.0416666666665C4603.83984375,2083,4603.83984375,2094.5,4587.676255309466,2106C4571.512666868933,2117.5,4539.1854899878645,2129,4523.02190154733,2134.75L4506.858313106796,2140.5" id="edge40" class="transition" marker-end="url(#statediagram-barbEnd)"></path><path d="M4035.424915158371,910.5L4023.2707626319757,914.6666666666666C4011.1166101055805,918.8333333333334,3986.8083050527907,927.1666666666666,3974.654152526395,937.0833333333334C3962.5,947,3962.5,958.5,3962.5,975.0416666666666C3962.5,991.5833333333334,3962.5,1013.1666666666666,3962.5,1034.75C3962.5,1056.3333333333333,3962.5,1077.9166666666667,3962.5,1094.4583333333333C3962.5,1111,3962.5,1122.5,3962.5,1137.4583333333333C3962.5,1152.4166666666667,3962.5,1170.8333333333333,3962.5,1190.8333333333333C3962.5,1210.8333333333333,3962.5,1232.4166666666667,3962.5,1254C3962.5,1275.5833333333333,3962.5,1297.1666666666667,3962.5,1317.1666666666667C3962.5,1337.1666666666667,3962.5,1355.5833333333333,3962.5,1370.5416666666667C3962.5,1385.5,3962.5,1397,3962.5,1413.5416666666667C3962.5,1430.0833333333333,3962.5,1451.6666666666667,3962.5,1473.25C3962.5,1494.8333333333333,3962.5,1516.4166666666667,3962.5,1538C3962.5,1559.5833333333333,3962.5,1581.1666666666667,3962.5,1602.75C3962.5,1624.3333333333333,3962.5,1645.9166666666667,3962.5,1667.5C3962.5,1689.0833333333333,3962.5,1710.6666666666667,3962.5,1732.25C3962.5,1753.8333333333333,3962.5,1775.4166666666667,3870.9772135416665,1791.9583333333333C3779.4544270833335,1808.5,3596.4088541666665,1820,3504.8860677083335,1834.9583333333333C3413.36328125,1849.9166666666667,3413.36328125,1868.3333333333333,3413.36328125,1888.3333333333333C3413.36328125,1908.3333333333333,3413.36328125,1929.9166666666667,3302.728515625,1950.2441567220446C3192.09375,1970.5716467774225,2970.82421875,1989.6432935548448,2860.189453125,1999.1791169435562L2749.5546875,2008.7149403322674" id="edge41" class="transition" marker-end="url(#statediagram-barbEnd)"></path><path d="M3915.5390625,775.75L3915.5390625,782.375C3915.5390625,789,3915.5390625,802.25,3934.021205357143,814.625C3952.503348214286,827,3989.467633928571,838.5,4007.949776785714,844.25L4026.4319196428573,850" class="transition note-edge"></path><path d="M987.45703125,1911.75L987.45703125,1918.375C987.45703125,1925,987.45703125,1938.25,1251.9993489583333,1955.103317184374C1516.5416666666667,1971.9566343687484,2045.6263020833333,1992.4132687374968,2310.1686197916665,2002.6415859218707L2574.7109375,2012.869903106245" class="transition note-edge"></path><path d="M2670.20703125,1214.25L2670.20703125,1220.875C2670.20703125,1227.5,2670.20703125,1240.75,2679.2181165540537,1253.125C2688.229201858108,1265.5,2706.2513724662163,1277,2715.26245777027,1282.75L2724.273543074324,1288.5" class="transition note-edge"></path><path d="M4459.0703125,2174.5L4459.0703125,2178.6666666666665C4459.0703125,2182.8333333333335,4459.0703125,2191.1666666666665,3814.424439385351,2200.6570322757943C3169.7785662707015,2210.147397884922,1880.486820041404,2220.7947957698443,1235.8409469267547,2226.118494712305L591.1950738121056,2231.4421936547665" id="edge42" class="transition" marker-end="url(#statediagram-barbEnd)"></path><path d="M450.92578125,2174.5L450.92578125,2178.6666666666665C450.92578125,2182.8333333333335,450.92578125,2191.1666666666665,472.00294752479766,2200.3942749789394C493.08011379959527,2209.6218832912123,535.2344463491906,2219.743766582424,556.3116126239883,2224.8047082280304L577.388778898786,2229.8656498736364" id="edge43" class="transition" marker-end="url(#statediagram-barbEnd)"></path><path d="M245.25390625,2174.5L245.25390625,2178.6666666666665C245.25390625,2182.8333333333335,245.25390625,2191.1666666666665,300.5826390253613,2200.557007443854C355.91137180072263,2209.947348221041,466.5688373514453,2220.3946964420825,521.8975701268066,2225.618370552603L577.226302902168,2230.8420446631235" id="edge44" class="transition" marker-end="url(#statediagram-barbEnd)"></path></g><g class="edgeLabels"><g class="edgeLabel"><g class="label" transform="translate(0, 0)"><rect rx="0" ry="0" width="0" height="0" style="fill:#e8e8e8;"></rect><text style=""></text></g></g><g class="edgeLabel"><g class="label" transform="translate(0, 0)"><rect rx="0" ry="0" width="0" height="0" style="fill:#e8e8e8;"></rect><text style=""></text></g></g><g class="edgeLabel" transform="translate(5674.12109375, 165.5)"><g class="label" transform="translate(-68.6875, -9.5)"><rect rx="0" ry="0" width="137.296875" height="19.03125" style="fill:#e8e8e8;"></rect><text style=""><tspan xml:space="preserve" dy="1em" x="0" class="row">ProviderEventOpen</tspan></text></g></g><g class="edgeLabel" transform="translate(5499.09765625, 1034.75)"><g class="label" transform="translate(-98.203125, -9.5)"><rect rx="0" ry="0" width="196.296875" height="19.03125" style="fill:#e8e8e8;"></rect><text style=""><tspan xml:space="preserve" dy="1em" x="0" class="row">ProviderEventDealRejected</tspan></text></g></g><g class="edgeLabel" transform="translate(5380.89453125, 1099.5)"><g class="label" transform="translate(-98.203125, -9.5)"><rect rx="0" ry="0" width="196.296875" height="19.03125" style="fill:#e8e8e8;"></rect><text style=""><tspan xml:space="preserve" dy="1em" x="0" class="row">ProviderEventDealRejected</tspan></text></g></g><g class="edgeLabel" transform="translate(4655.33984375, 1318.75)"><g class="label" transform="translate(-98.203125, -9.5)"><rect rx="0" ry="0" width="196.296875" height="19.03125" style="fill:#e8e8e8;"></rect><text style=""><tspan xml:space="preserve" dy="1em" x="0" class="row">ProviderEventDealRejected</tspan></text></g></g><g class="edgeLabel" transform="translate(4404.49609375, 1951.5)"><g class="label" transform="translate(-100.25, -9.5)"><rect rx="0" ry="0" width="200.375" height="19.03125" style="fill:#e8e8e8;"></rect><text style=""><tspan xml:space="preserve" dy="1em" x="0" class="row">ProviderEventRejectionSent</tspan></text></g></g><g class="edgeLabel" transform="translate(4401.51171875, 325.5)"><g class="label" transform="translate(-96.5703125, -9.5)"><rect rx="0" ry="0" width="193.03125" height="19.03125" style="fill:#e8e8e8;"></rect><text style=""><tspan xml:space="preserve" dy="1em" x="0" class="row">ProviderEventDealDeciding</tspan></text></g></g><g class="edgeLabel" transform="translate(4644.0234375, 455)"><g class="label" transform="translate(-104.03125, -9.5)"><rect rx="0" ry="0" width="207.9375" height="19.03125" style="fill:#e8e8e8;"></rect><text style=""><tspan xml:space="preserve" dy="1em" x="0" class="row">ProviderEventDataRequested</tspan></text></g></g><g class="edgeLabel" transform="translate(4891.98828125, 1318.75)"><g class="label" transform="translate(-118.4453125, -9.5)"><rect rx="0" ry="0" width="236.75" height="19.03125" style="fill:#e8e8e8;"></rect><text style=""><tspan xml:space="preserve" dy="1em" x="0" class="row">ProviderEventDataTransferFailed</tspan></text></g></g><g class="edgeLabel" transform="translate(4807.53515625, 558)"><g class="label" transform="translate(-127.109375, -9.5)"><rect rx="0" ry="0" width="254.0625" height="19.03125" style="fill:#e8e8e8;"></rect><text style=""><tspan xml:space="preserve" dy="1em" x="0" class="row">ProviderEventDataTransferInitiated</tspan></text></g></g><g class="edgeLabel" transform="translate(4580.12890625, 661)"><g class="label" transform="translate(-135.4765625, -9.5)"><rect rx="0" ry="0" width="270.78125" height="19.03125" style="fill:#e8e8e8;"></rect><text style=""><tspan xml:space="preserve" dy="1em" x="0" class="row">ProviderEventDataTransferCompleted</tspan></text></g></g><g class="edgeLabel" transform="translate(4504.91796875, 1408.5)"><g class="label" transform="translate(-130.421875, -9.5)"><rect rx="0" ry="0" width="260.6875" height="19.03125" style="fill:#e8e8e8;"></rect><text style=""><tspan xml:space="preserve" dy="1em" x="0" class="row">ProviderEventDataVerificationFailed</tspan></text></g></g><g class="edgeLabel" transform="translate(4123.6640625, 661)"><g class="label" transform="translate(-95.1015625, -9.5)"><rect rx="0" ry="0" width="190.078125" height="19.03125" style="fill:#e8e8e8;"></rect><text style=""><tspan xml:space="preserve" dy="1em" x="0" class="row">ProviderEventVerifiedData</tspan></text></g></g><g class="edgeLabel" transform="translate(4314.125, 815.5)"><g class="label" transform="translate(-95.1015625, -9.5)"><rect rx="0" ry="0" width="190.078125" height="19.03125" style="fill:#e8e8e8;"></rect><text style=""><tspan xml:space="preserve" dy="1em" x="0" class="row">ProviderEventVerifiedData</tspan></text></g></g><g class="edgeLabel" transform="translate(4304.125, 970)"><g class="label" transform="translate(-108.6953125, -9.5)"><rect rx="0" ry="0" width="217.265625" height="19.03125" style="fill:#e8e8e8;"></rect><text style=""><tspan xml:space="preserve" dy="1em" x="0" class="row">ProviderEventFundingInitiated</tspan></text></g></g><g class="edgeLabel" transform="translate(4078.1171875, 1034.75)"><g class="label" transform="translate(-76.3203125, -9.5)"><rect rx="0" ry="0" width="152.546875" height="19.03125" style="fill:#e8e8e8;"></rect><text style=""><tspan xml:space="preserve" dy="1em" x="0" class="row">ProviderEventFunded</tspan></text></g></g><g class="edgeLabel" transform="translate(4304.125, 1099.5)"><g class="label" transform="translate(-76.3203125, -9.5)"><rect rx="0" ry="0" width="152.546875" height="19.03125" style="fill:#e8e8e8;"></rect><text style=""><tspan xml:space="preserve" dy="1em" x="0" class="row">ProviderEventFunded</tspan></text></g></g><g class="edgeLabel" transform="translate(2976.4375, 1254)"><g class="label" transform="translate(-122, -9.5)"><rect rx="0" ry="0" width="243.859375" height="19.03125" style="fill:#e8e8e8;"></rect><text style=""><tspan xml:space="preserve" dy="1em" x="0" class="row">ProviderEventDealPublishInitiated</tspan></text></g></g><g class="edgeLabel" transform="translate(3037.4375, 1667.5)"><g class="label" transform="translate(-109.3828125, -9.5)"><rect rx="0" ry="0" width="218.625" height="19.03125" style="fill:#e8e8e8;"></rect><text style=""><tspan xml:space="preserve" dy="1em" x="0" class="row">ProviderEventDealPublishError</tspan></text></g></g><g class="edgeLabel" transform="translate(4162.26171875, 1951.5)"><g class="label" transform="translate(-121.984375, -9.5)"><rect rx="0" ry="0" width="243.828125" height="19.03125" style="fill:#e8e8e8;"></rect><text style=""><tspan xml:space="preserve" dy="1em" x="0" class="row">ProviderEventSendResponseFailed</tspan></text></g></g><g class="edgeLabel" transform="translate(3673.3828125, 1189.25)"><g class="label" transform="translate(-121.984375, -9.5)"><rect rx="0" ry="0" width="243.828125" height="19.03125" style="fill:#e8e8e8;"></rect><text style=""><tspan xml:space="preserve" dy="1em" x="0" class="row">ProviderEventSendResponseFailed</tspan></text></g></g><g class="edgeLabel" transform="translate(2586.14453125, 1408.5)"><g class="label" transform="translate(-100.296875, -9.5)"><rect rx="0" ry="0" width="200.46875" height="19.03125" style="fill:#e8e8e8;"></rect><text style=""><tspan xml:space="preserve" dy="1em" x="0" class="row">ProviderEventDealPublished</tspan></text></g></g><g class="edgeLabel" transform="translate(2903.8203125, 1732.25)"><g class="label" transform="translate(-108.8203125, -9.5)"><rect rx="0" ry="0" width="217.5" height="19.03125" style="fill:#e8e8e8;"></rect><text style=""><tspan xml:space="preserve" dy="1em" x="0" class="row">ProviderEventFileStoreErrored</tspan></text></g></g><g class="edgeLabel" transform="translate(2262.3671875, 1797)"><g class="label" transform="translate(-108.8203125, -9.5)"><rect rx="0" ry="0" width="217.5" height="19.03125" style="fill:#e8e8e8;"></rect><text style=""><tspan xml:space="preserve" dy="1em" x="0" class="row">ProviderEventFileStoreErrored</tspan></text></g></g><g class="edgeLabel" transform="translate(858.63671875, 1951.5)"><g class="label" transform="translate(-108.8203125, -9.5)"><rect rx="0" ry="0" width="217.5" height="19.03125" style="fill:#e8e8e8;"></rect><text style=""><tspan xml:space="preserve" dy="1em" x="0" class="row">ProviderEventFileStoreErrored</tspan></text></g></g><g class="edgeLabel" transform="translate(2662.1328125, 1732.25)"><g class="label" transform="translate(-112.8671875, -9.5)"><rect rx="0" ry="0" width="225.59375" height="19.03125" style="fill:#e8e8e8;"></rect><text style=""><tspan xml:space="preserve" dy="1em" x="0" class="row">ProviderEventMultistoreErrored</tspan></text></g></g><g class="edgeLabel" transform="translate(2412.9921875, 1732.25)"><g class="label" transform="translate(-116.2734375, -9.5)"><rect rx="0" ry="0" width="232.40625" height="19.03125" style="fill:#e8e8e8;"></rect><text style=""><tspan xml:space="preserve" dy="1em" x="0" class="row">ProviderEventDealHandoffFailed</tspan></text></g></g><g class="edgeLabel" transform="translate(2035.44921875, 1538)"><g class="label" transform="translate(-104.3671875, -9.5)"><rect rx="0" ry="0" width="208.609375" height="19.03125" style="fill:#e8e8e8;"></rect><text style=""><tspan xml:space="preserve" dy="1em" x="0" class="row">ProviderEventDealHandedOff</tspan></text></g></g><g class="edgeLabel" transform="translate(2009.375, 1797)"><g class="label" transform="translate(-124.171875, -9.5)"><rect rx="0" ry="0" width="248.1875" height="19.03125" style="fill:#e8e8e8;"></rect><text style=""><tspan xml:space="preserve" dy="1em" x="0" class="row">ProviderEventDealActivationFailed</tspan></text></g></g><g class="edgeLabel" transform="translate(1527.9296875, 1667.5)"><g class="label" transform="translate(-100.1796875, -9.5)"><rect rx="0" ry="0" width="200.234375" height="19.03125" style="fill:#e8e8e8;"></rect><text style=""><tspan xml:space="preserve" dy="1em" x="0" class="row">ProviderEventDealActivated</tspan></text></g></g><g class="edgeLabel" transform="translate(1861.45703125, 1886.75)"><g class="label" transform="translate(-115.046875, -9.5)"><rect rx="0" ry="0" width="229.953125" height="19.03125" style="fill:#e8e8e8;"></rect><text style=""><tspan xml:space="preserve" dy="1em" x="0" class="row">ProviderEventPieceStoreErrored</tspan></text></g></g><g class="edgeLabel" transform="translate(1598.95703125, 1886.75)"><g class="label" transform="translate(-127.453125, -9.5)"><rect rx="0" ry="0" width="254.75" height="19.03125" style="fill:#e8e8e8;"></rect><text style=""><tspan xml:space="preserve" dy="1em" x="0" class="row">ProviderEventUnableToLocatePiece</tspan></text></g></g><g class="edgeLabel" transform="translate(1323.54296875, 1886.75)"><g class="label" transform="translate(-127.9609375, -9.5)"><rect rx="0" ry="0" width="255.765625" height="19.03125" style="fill:#e8e8e8;"></rect><text style=""><tspan xml:space="preserve" dy="1em" x="0" class="row">ProviderEventReadMetadataErrored</tspan></text></g></g><g class="edgeLabel" transform="translate(450.92578125, 1797)"><g class="label" transform="translate(-103.1953125, -9.5)"><rect rx="0" ry="0" width="206.265625" height="19.03125" style="fill:#e8e8e8;"></rect><text style=""><tspan xml:space="preserve" dy="1em" x="0" class="row">ProviderEventPieceRecorded</tspan></text></g></g><g class="edgeLabel" transform="translate(584.1953125, 2016.25)"><g class="label" transform="translate(-92.7734375, -9.5)"><rect rx="0" ry="0" width="185.4375" height="19.03125" style="fill:#e8e8e8;"></rect><text style=""><tspan xml:space="preserve" dy="1em" x="0" class="row">ProviderEventDealSlashed</tspan></text></g></g><g class="edgeLabel" transform="translate(378.5234375, 2016.25)"><g class="label" transform="translate(-92.8984375, -9.5)"><rect rx="0" ry="0" width="185.6875" height="19.03125" style="fill:#e8e8e8;"></rect><text style=""><tspan xml:space="preserve" dy="1em" x="0" class="row">ProviderEventDealExpired</tspan></text></g></g><g class="edgeLabel" transform="translate(136.8125, 2016.25)"><g class="label" transform="translate(-128.8125, -9.5)"><rect rx="0" ry="0" width="257.46875" height="19.03125" style="fill:#e8e8e8;"></rect><text style=""><tspan xml:space="preserve" dy="1em" x="0" class="row">ProviderEventDealCompletionFailed</tspan></text></g></g><g class="edgeLabel" transform="translate(2662.1328125, 2106)"><g class="label" transform="translate(-71.96875, -9.5)"><rect rx="0" ry="0" width="143.84375" height="19.03125" style="fill:#e8e8e8;"></rect><text style=""><tspan xml:space="preserve" dy="1em" x="0" class="row">ProviderEventFailed</tspan></text></g></g><g class="edgeLabel" transform="translate(5202.41796875, 2016.25)"><g class="label" transform="translate(-76.015625, -9.5)"><rect rx="0" ry="0" width="151.9375" height="19.03125" style="fill:#e8e8e8;"></rect><text style=""><tspan xml:space="preserve" dy="1em" x="0" class="row">ProviderEventRestart</tspan></text></g></g><g class="edgeLabel" transform="translate(3404.36328125, 1189.25)"><g class="label" transform="translate(-76.015625, -9.5)"><rect rx="0" ry="0" width="151.9375" height="19.03125" style="fill:#e8e8e8;"></rect><text style=""><tspan xml:space="preserve" dy="1em" x="0" class="row">ProviderEventRestart</tspan></text></g></g><g class="edgeLabel" transform="translate(3531.3984375, 1254)"><g class="label" transform="translate(-76.015625, -9.5)"><rect rx="0" ry="0" width="151.9375" height="19.03125" style="fill:#e8e8e8;"></rect><text style=""><tspan xml:space="preserve" dy="1em" x="0" class="row">ProviderEventRestart</tspan></text></g></g><g class="edgeLabel" transform="translate(3962.5, 1473.25)"><g class="label" transform="translate(-112.5546875, -9.5)"><rect rx="0" ry="0" width="224.96875" height="19.03125" style="fill:#e8e8e8;"></rect><text style=""><tspan xml:space="preserve" dy="1em" x="0" class="row">ProviderEventTrackFundsFailed</tspan></text></g></g><g class="edgeLabel"><g class="label" transform="translate(0, 0)"><rect rx="0" ry="0" width="0" height="0" style="fill:#e8e8e8;"></rect><text style=""></text></g></g><g class="edgeLabel"><g class="label" transform="translate(0, 0)"><rect rx="0" ry="0" width="0" height="0" style="fill:#e8e8e8;"></rect><text style=""></text></g></g><g class="edgeLabel"><g class="label" transform="translate(0, 0)"><rect rx="0" ry="0" width="0" height="0" style="fill:#e8e8e8;"></rect><text style=""></text></g></g><g class="edgeLabel"><g class="label" transform="translate(0, 0)"><rect rx="0" ry="0" width="0" height="0" style="fill:#e8e8e8;"></rect><text style=""></text></g></g><g class="edgeLabel"><g class="label" transform="translate(0, 0)"><rect rx="0" ry="0" width="0" height="0" style="fill:#e8e8e8;"></rect><text style=""></text></g></g><g class="edgeLabel"><g class="label" transform="translate(0, 0)"><rect rx="0" ry="0" width="0" height="0" style="fill:#e8e8e8;"></rect><text style=""></text></g></g></g><g class="nodes"><g class="node statediagram-state" id="0" transform="translate(5784.80078125, 114)"><rect class="outer title-state" x="-82.921875" y="-17" width="165.84375" height="34"></rect><line class="divider" x1="-82.921875" x2="82.921875" y1="9.5" y2="9.5"></line><g class="label" transform="translate(-75.421875, -14)"><text style=""><tspan xml:space="preserve" dy="1em" x="0" class="title-row">StorageDealUnknown</tspan></text><text style="" transform="translate( 0, 26.5)"><tspan xml:space="preserve" dy="1em" x="0" class="title-row"></tspan></text></g></g><g class="node statediagram-state" id="4" transform="translate(2586.14453125, 1473.25)"><rect class="outer title-state" x="-102.8515625" y="-30.25" width="205.703125" height="60.5"></rect><line class="divider" x1="-102.8515625" x2="102.8515625" y1="-3.75" y2="-3.75"></line><g class="label" transform="translate(-95.3515625, -27.25)"><text style=""><tspan xml:space="preserve" dy="1em" x="0" class="title-row">StorageDealStaged</tspan></text><text style="" transform="translate( 0, 26.5)"><tspan xml:space="preserve" dy="1em" x="0" class="title-row">On entry runs HandoffDeal</tspan></text></g></g><g class="node statediagram-state" id="5" transform="translate(2035.44921875, 1602.75)"><rect class="outer title-state" x="-129.9765625" y="-30.25" width="259.953125" height="60.5"></rect><line class="divider" x1="-129.9765625" x2="129.9765625" y1="-3.75" y2="-3.75"></line><g class="label" transform="translate(-122.4765625, -27.25)"><text style=""><tspan xml:space="preserve" dy="1em" x="0" class="title-row">StorageDealSealing</tspan></text><text style="" transform="translate( 0, 26.5)"><tspan xml:space="preserve" dy="1em" x="0" class="title-row">On entry runs VerifyDealActivated</tspan></text></g></g><g class="node statediagram-state" id="6" transform="translate(1527.9296875, 1732.25)"><rect class="outer title-state" x="-116.6640625" y="-30.25" width="233.328125" height="60.5"></rect><line class="divider" x1="-116.6640625" x2="116.6640625" y1="-3.75" y2="-3.75"></line><g class="label" transform="translate(-109.1640625, -27.25)"><text style=""><tspan xml:space="preserve" dy="1em" x="0" class="title-row">&lt;invalid Value&gt;</tspan></text><text style="" transform="translate( 0, 26.5)"><tspan xml:space="preserve" dy="1em" x="0" class="title-row">On entry runs RecordPieceInfo</tspan></text></g></g><g class="node statediagram-state" id="7" transform="translate(450.92578125, 1886.75)"><rect class="outer title-state" x="-143.46875" y="-30.25" width="286.9375" height="60.5"></rect><line class="divider" x1="-143.46875" x2="143.46875" y1="-3.75" y2="-3.75"></line><g class="label" transform="translate(-135.96875, -27.25)"><text style=""><tspan xml:space="preserve" dy="1em" x="0" class="title-row">StorageDealActive</tspan></text><text style="" transform="translate( 0, 26.5)"><tspan xml:space="preserve" dy="1em" x="0" class="title-row">On entry runs WaitForDealCompletion</tspan></text></g></g><g class="node statediagram-state" id="8" transform="translate(245.25390625, 2157.5)"><rect class="outer title-state" x="-77.296875" y="-17" width="154.59375" height="34"></rect><line class="divider" x1="-77.296875" x2="77.296875" y1="9.5" y2="9.5"></line><g class="label" transform="translate(-69.796875, -14)"><text style=""><tspan xml:space="preserve" dy="1em" x="0" class="title-row">StorageDealExpired</tspan></text><text style="" transform="translate( 0, 26.5)"><tspan xml:space="preserve" dy="1em" x="0" class="title-row"></tspan></text></g></g><g class="node statediagram-state" id="9" transform="translate(450.92578125, 2157.5)"><rect class="outer title-state" x="-77.1796875" y="-17" width="154.359375" height="34"></rect><line class="divider" x1="-77.1796875" x2="77.1796875" y1="9.5" y2="9.5"></line><g class="label" transform="translate(-69.6796875, -14)"><text style=""><tspan xml:space="preserve" dy="1em" x="0" class="title-row">StorageDealSlashed</tspan></text><text style="" transform="translate( 0, 26.5)"><tspan xml:space="preserve" dy="1em" x="0" class="title-row"></tspan></text></g></g><g class="node statediagram-state" id="10" transform="translate(5252.44921875, 1886.75)"><rect class="outer title-state" x="-97.828125" y="-30.25" width="195.65625" height="60.5"></rect><line class="divider" x1="-97.828125" x2="97.828125" y1="-3.75" y2="-3.75"></line><g class="label" transform="translate(-90.328125, -27.25)"><text style=""><tspan xml:space="preserve" dy="1em" x="0" class="title-row">StorageDealRejecting</tspan></text><text style="" transform="translate( 0, 26.5)"><tspan xml:space="preserve" dy="1em" x="0" class="title-row">On entry runs RejectDeal</tspan></text></g></g><g class="node statediagram-state" id="11" transform="translate(2662.1328125, 2016.25)"><rect class="outer title-state" x="-87.421875" y="-30.25" width="174.84375" height="60.5"></rect><line class="divider" x1="-87.421875" x2="87.421875" y1="-3.75" y2="-3.75"></line><g class="label" transform="translate(-79.921875, -27.25)"><text style=""><tspan xml:space="preserve" dy="1em" x="0" class="title-row">StorageDealFailing</tspan></text><text style="" transform="translate( 0, 26.5)"><tspan xml:space="preserve" dy="1em" x="0" class="title-row">On entry runs FailDeal</tspan></text></g></g><g class="node statediagram-state" id="14" transform="translate(4401.51171875, 233)"><rect class="outer title-state" x="-134.53125" y="-30.25" width="269.0625" height="60.5"></rect><line class="divider" x1="-134.53125" x2="134.53125" y1="-3.75" y2="-3.75"></line><g class="label" transform="translate(-127.03125, -27.25)"><text style=""><tspan xml:space="preserve" dy="1em" x="0" class="title-row">StorageDealValidating</tspan></text><text style="" transform="translate( 0, 26.5)"><tspan xml:space="preserve" dy="1em" x="0" class="title-row">On entry runs ValidateDealProposal</tspan></text></g></g><g class="node statediagram-state" id="15" transform="translate(4401.51171875, 390.25)"><rect class="outer title-state" x="-123.0546875" y="-30.25" width="246.109375" height="60.5"></rect><line class="divider" x1="-123.0546875" x2="123.0546875" y1="-3.75" y2="-3.75"></line><g class="label" transform="translate(-115.5546875, -27.25)"><text style=""><tspan xml:space="preserve" dy="1em" x="0" class="title-row">StorageDealAcceptWait</tspan></text><text style="" transform="translate( 0, 26.5)"><tspan xml:space="preserve" dy="1em" x="0" class="title-row">On entry runs DecideOnProposal</tspan></text></g></g><g class="node statediagram-state" id="17" transform="translate(4807.53515625, 609.5)"><rect class="outer title-state" x="-94.109375" y="-17" width="188.21875" height="34"></rect><line class="divider" x1="-94.109375" x2="94.109375" y1="9.5" y2="9.5"></line><g class="label" transform="translate(-86.609375, -14)"><text style=""><tspan xml:space="preserve" dy="1em" x="0" class="title-row">StorageDealTransferring</tspan></text><text style="" transform="translate( 0, 26.5)"><tspan xml:space="preserve" dy="1em" x="0" class="title-row"></tspan></text></g></g><g class="node statediagram-state" id="18" transform="translate(4644.0234375, 506.5)"><rect class="outer title-state" x="-105.5625" y="-17" width="211.125" height="34"></rect><line class="divider" x1="-105.5625" x2="105.5625" y1="9.5" y2="9.5"></line><g class="label" transform="translate(-98.0625, -14)"><text style=""><tspan xml:space="preserve" dy="1em" x="0" class="title-row">StorageDealWaitingForData</tspan></text><text style="" transform="translate( 0, 26.5)"><tspan xml:space="preserve" dy="1em" x="0" class="title-row"></tspan></text></g></g><g class="node statediagram-state" id="19" transform="translate(4580.12890625, 750.75)"><rect class="outer title-state" x="-96.3828125" y="-30.25" width="192.765625" height="60.5"></rect><line class="divider" x1="-96.3828125" x2="96.3828125" y1="-3.75" y2="-3.75"></line><g class="label" transform="translate(-88.8828125, -27.25)"><text style=""><tspan xml:space="preserve" dy="1em" x="0" class="title-row">StorageDealVerifyData</tspan></text><text style="" transform="translate( 0, 26.5)"><tspan xml:space="preserve" dy="1em" x="0" class="title-row">On entry runs VerifyData</tspan></text></g></g><g class="node statediagram-state" id="20" transform="translate(4123.6640625, 880.25)"><rect class="outer title-state" x="-132.9140625" y="-30.25" width="265.828125" height="60.5"></rect><line class="divider" x1="-132.9140625" x2="132.9140625" y1="-3.75" y2="-3.75"></line><g class="label" transform="translate(-125.4140625, -27.25)"><text style=""><tspan xml:space="preserve" dy="1em" x="0" class="title-row">StorageDealEnsureProviderFunds</tspan></text><text style="" transform="translate( 0, 26.5)"><tspan xml:space="preserve" dy="1em" x="0" class="title-row">On entry runs EnsureProviderFunds</tspan></text></g></g><g class="node statediagram-state" id="22" transform="translate(4304.125, 1034.75)"><rect class="outer title-state" x="-114.6875" y="-30.25" width="229.375" height="60.5"></rect><line class="divider" x1="-114.6875" x2="114.6875" y1="-3.75" y2="-3.75"></line><g class="label" transform="translate(-107.1875, -27.25)"><text style=""><tspan xml:space="preserve" dy="1em" x="0" class="title-row">StorageDealProviderFunding</tspan></text><text style="" transform="translate( 0, 26.5)"><tspan xml:space="preserve" dy="1em" x="0" class="title-row">On entry runs WaitForFunding</tspan></text></g></g><g class="node statediagram-state" id="24" transform="translate(4219.671875, 1189.25)"><rect class="outer title-state" x="-99.9140625" y="-30.25" width="199.828125" height="60.5"></rect><line class="divider" x1="-99.9140625" x2="99.9140625" y1="-3.75" y2="-3.75"></line><g class="label" transform="translate(-92.4140625, -27.25)"><text style=""><tspan xml:space="preserve" dy="1em" x="0" class="title-row">StorageDealPublish</tspan></text><text style="" transform="translate( 0, 26.5)"><tspan xml:space="preserve" dy="1em" x="0" class="title-row">On entry runs PublishDeal</tspan></text></g></g><g class="node statediagram-state" id="25" transform="translate(2771.6796875, 1318.75)"><rect class="outer title-state" x="-112.15625" y="-30.25" width="224.3125" height="60.5"></rect><line class="divider" x1="-112.15625" x2="112.15625" y1="-3.75" y2="-3.75"></line><g class="label" transform="translate(-104.65625, -27.25)"><text style=""><tspan xml:space="preserve" dy="1em" x="0" class="title-row">StorageDealPublishing</tspan></text><text style="" transform="translate( 0, 26.5)"><tspan xml:space="preserve" dy="1em" x="0" class="title-row">On entry runs WaitForPublish</tspan></text></g></g><g class="node statediagram-state" id="26" transform="translate(4459.0703125, 2157.5)"><rect class="outer title-state" x="-68.2421875" y="-17" width="136.484375" height="34"></rect><line class="divider" x1="-68.2421875" x2="68.2421875" y1="9.5" y2="9.5"></line><g class="label" transform="translate(-60.7421875, -14)"><text style=""><tspan xml:space="preserve" dy="1em" x="0" class="title-row">StorageDealError</tspan></text><text style="" transform="translate( 0, 26.5)"><tspan xml:space="preserve" dy="1em" x="0" class="title-row"></tspan></text></g></g><g class="node default" id="root_start" transform="translate(5784.80078125, 15)"><circle class="state-start" r="7" width="14" height="14"></circle></g><g class="node statediagram-note" id="0----note" transform="translate(5829.14453125, 233)"><rect x="-275.046875" y="-33" width="550.09375" height="66"></rect><g class="label" transform="translate(-267.546875, -25.5)"><text style=""><tspan xml:space="preserve" dy="1em" x="0" class="row">The following events are not shown cause they can trigger from any state.</tspan><tspan xml:space="preserve" dy="1em" x="0" class="row"></tspan><tspan xml:space="preserve" dy="1em" x="0" class="row">ProviderEventNodeErrored - transitions state to StorageDealFailing</tspan><tspan xml:space="preserve" dy="1em" x="0" class="row">ProviderEventRestart - does not transition state</tspan></text></g></g><g class="node statediagram-note" id="20----note" transform="translate(3915.5390625, 750.75)"><rect x="-173.125" y="-25" width="346.25" height="50"></rect><g class="label" transform="translate(-165.625, -17.5)"><text style=""><tspan xml:space="preserve" dy="1em" x="0" class="row">The following events only record in this state.</tspan><tspan xml:space="preserve" dy="1em" x="0" class="row"></tspan><tspan xml:space="preserve" dy="1em" x="0" class="row">ProviderEventFundsReserved</tspan></text></g></g><g class="node statediagram-note" id="11----note" transform="translate(987.45703125, 1886.75)"><rect x="-173.125" y="-25" width="346.25" height="50"></rect><g class="label" transform="translate(-165.625, -17.5)"><text style=""><tspan xml:space="preserve" dy="1em" x="0" class="row">The following events only record in this state.</tspan><tspan xml:space="preserve" dy="1em" x="0" class="row"></tspan><tspan xml:space="preserve" dy="1em" x="0" class="row">ProviderEventFundsReleased</tspan></text></g></g><g class="node statediagram-note" id="25----note" transform="translate(2670.20703125, 1189.25)"><rect x="-173.125" y="-25" width="346.25" height="50"></rect><g class="label" transform="translate(-165.625, -17.5)"><text style=""><tspan xml:space="preserve" dy="1em" x="0" class="row">The following events only record in this state.</tspan><tspan xml:space="preserve" dy="1em" x="0" class="row"></tspan><tspan xml:space="preserve" dy="1em" x="0" class="row">ProviderEventFundsReleased</tspan></text></g></g><g class="node default" id="root_end" transform="translate(584.1953125, 2231.5)"><circle class="state-start" r="7" width="14" height="14"></circle><circle class="state-end" r="5" width="10" height="10"></circle></g></g></g></g></svg>