<svg id="mermaid-1600834226552" width="5369.6640625" xmlns="http://www.w3.org/2000/svg" class="statediagram" height="2362.5" viewBox="0 0 5369.6640625 2362.5"><style>#mermaid-1600834226552 .label{font-family:'trebuchet ms', verdana, arial;font-family:var(--mermaid-font-family);color:#333}#mermaid-1600834226552 .label text{fill:#333}#mermaid-1600834226552 .node rect,#mermaid-1600834226552 .node circle,#mermaid-1600834226552 .node ellipse,#mermaid-1600834226552 .node polygon,#mermaid-1600834226552 .node path{fill:#ECECFF;stroke:#9370db;stroke-width:1px}#mermaid-1600834226552 .node .label{text-align:center}#mermaid-1600834226552 .node.clickable{cursor:pointer}#mermaid-1600834226552 .arrowheadPath{fill:#333}#mermaid-1600834226552 .edgePath .path{stroke:#333;stroke-width:1.5px}#mermaid-1600834226552 .edgeLabel{background-color:#e8e8e8;text-align:center}#mermaid-1600834226552 .edgeLabel rect{opacity:0.5}#mermaid-1600834226552 .cluster rect{fill:#ffffde;stroke:#aa3;stroke-width:1px}#mermaid-1600834226552 .cluster text{fill:#333}#mermaid-1600834226552 div.mermaidTooltip{position:absolute;text-align:center;max-width:200px;padding:2px;font-family:'trebuchet ms', verdana, arial;font-family:var(--mermaid-font-family);font-size:12px;background:#ffffde;border:1px solid #aa3;border-radius:2px;pointer-events:none;z-index:100}#mermaid-1600834226552 .actor{stroke:#ccf;fill:#ECECFF}#mermaid-1600834226552 text.actor{fill:#000;stroke:none}#mermaid-1600834226552 .actor-line{stroke:grey}#mermaid-1600834226552 .messageLine0{stroke-width:1.5;stroke-dasharray:'2 2';stroke:#333}#mermaid-1600834226552 .messageLine1{stroke-width:1.5;stroke-dasharray:'2 2';stroke:#333}#mermaid-1600834226552 #arrowhead{fill:#333}#mermaid-1600834226552 .sequenceNumber{fill:#fff}#mermaid-1600834226552 #sequencenumber{fill:#333}#mermaid-1600834226552 #crosshead path{fill:#333 !important;stroke:#333 !important}#mermaid-1600834226552 .messageText{fill:#333;stroke:none}#mermaid-1600834226552 .labelBox{stroke:#ccf;fill:#ECECFF}#mermaid-1600834226552 .labelText{fill:#000;stroke:none}#mermaid-1600834226552 .loopText{fill:#000;stroke:none}#mermaid-1600834226552 .loopLine{stroke-width:2;stroke-dasharray:'2 2';stroke:#ccf}#mermaid-1600834226552 .note{stroke:#aa3;fill:#fff5ad}#mermaid-1600834226552 .noteText{fill:black;stroke:none;font-family:'trebuchet ms', verdana, arial;font-family:var(--mermaid-font-family);font-size:14px}#mermaid-1600834226552 .activation0{fill:#f4f4f4;stroke:#666}#mermaid-1600834226552 .activation1{fill:#f4f4f4;stroke:#666}#mermaid-1600834226552 .activation2{fill:#f4f4f4;stroke:#666}#mermaid-1600834226552 .mermaid-main-font{font-family:"trebuchet ms", verdana, arial;font-family:var(--mermaid-font-family)}#mermaid-1600834226552 .section{stroke:none;opacity:0.2}#mermaid-1600834226552 .section0{fill:rgba(102,102,255,0.49)}#mermaid-1600834226552 .section2{fill:#fff400}#mermaid-1600834226552 .section1,#mermaid-1600834226552 .section3{fill:#fff;opacity:0.2}#mermaid-1600834226552 .sectionTitle0{fill:#333}#mermaid-1600834226552 .sectionTitle1{fill:#333}#mermaid-1600834226552 .sectionTitle2{fill:#333}#mermaid-1600834226552 .sectionTitle3{fill:#333}#mermaid-1600834226552 .sectionTitle{text-anchor:start;font-size:11px;text-height:14px;font-family:'trebuchet ms', verdana, arial;font-family:var(--mermaid-font-family)}#mermaid-1600834226552 .grid .tick{stroke:#d3d3d3;opacity:0.8;shape-rendering:crispEdges}#mermaid-1600834226552 .grid .tick text{font-family:'trebuchet ms', verdana, arial;font-family:var(--mermaid-font-family)}#mermaid-1600834226552 .grid path{stroke-width:0}#mermaid-1600834226552 .today{fill:none;stroke:red;stroke-width:2px}#mermaid-1600834226552 .task{stroke-width:2}#mermaid-1600834226552 .taskText{text-anchor:middle;font-family:'trebuchet ms', verdana, arial;font-family:var(--mermaid-font-family)}#mermaid-1600834226552 .taskText:not([font-size]){font-size:11px}#mermaid-1600834226552 .taskTextOutsideRight{fill:#000;text-anchor:start;font-size:11px;font-family:'trebuchet ms', verdana, arial;font-family:var(--mermaid-font-family)}#mermaid-1600834226552 .taskTextOutsideLeft{fill:#000;text-anchor:end;font-size:11px}#mermaid-1600834226552 .task.clickable{cursor:pointer}#mermaid-1600834226552 .taskText.clickable{cursor:pointer;fill:#003163 !important;font-weight:bold}#mermaid-1600834226552 .taskTextOutsideLeft.clickable{cursor:pointer;fill:#003163 !important;font-weight:bold}#mermaid-1600834226552 .taskTextOutsideRight.clickable{cursor:pointer;fill:#003163 !important;font-weight:bold}#mermaid-1600834226552 .taskText0,#mermaid-1600834226552 .taskText1,#mermaid-1600834226552 .taskText2,#mermaid-1600834226552 .taskText3{fill:#fff}#mermaid-1600834226552 .task0,#mermaid-1600834226552 .task1,#mermaid-1600834226552 .task2,#mermaid-1600834226552 .task3{fill:#8a90dd;stroke:#534fbc}#mermaid-1600834226552 .taskTextOutside0,#mermaid-1600834226552 .taskTextOutside2{fill:#000}#mermaid-1600834226552 .taskTextOutside1,#mermaid-1600834226552 .taskTextOutside3{fill:#000}#mermaid-1600834226552 .active0,#mermaid-1600834226552 .active1,#mermaid-1600834226552 .active2,#mermaid-1600834226552 .active3{fill:#bfc7ff;stroke:#534fbc}#mermaid-1600834226552 .activeText0,#mermaid-1600834226552 .activeText1,#mermaid-1600834226552 .activeText2,#mermaid-1600834226552 .activeText3{fill:#000 !important}#mermaid-1600834226552 .done0,#mermaid-1600834226552 .done1,#mermaid-1600834226552 .done2,#mermaid-1600834226552 .done3{stroke:grey;fill:#d3d3d3;stroke-width:2}#mermaid-1600834226552 .doneText0,#mermaid-1600834226552 .doneText1,#mermaid-1600834226552 .doneText2,#mermaid-1600834226552 .doneText3{fill:#000 !important}#mermaid-1600834226552 .crit0,#mermaid-1600834226552 .crit1,#mermaid-1600834226552 .crit2,#mermaid-1600834226552 .crit3{stroke:#f88;fill:red;stroke-width:2}#mermaid-1600834226552 .activeCrit0,#mermaid-1600834226552 .activeCrit1,#mermaid-1600834226552 .activeCrit2,#mermaid-1600834226552 .activeCrit3{stroke:#f88;fill:#bfc7ff;stroke-width:2}#mermaid-1600834226552 .doneCrit0,#mermaid-1600834226552 .doneCrit1,#mermaid-1600834226552 .doneCrit2,#mermaid-1600834226552 .doneCrit3{stroke:#f88;fill:#d3d3d3;stroke-width:2;cursor:pointer;shape-rendering:crispEdges}#mermaid-1600834226552 .milestone{transform:rotate(45deg) scale(0.8, 0.8)}#mermaid-1600834226552 .milestoneText{font-style:italic}#mermaid-1600834226552 .doneCritText0,#mermaid-1600834226552 .doneCritText1,#mermaid-1600834226552 .doneCritText2,#mermaid-1600834226552 .doneCritText3{fill:#000 !important}#mermaid-1600834226552 .activeCritText0,#mermaid-1600834226552 .activeCritText1,#mermaid-1600834226552 .activeCritText2,#mermaid-1600834226552 .activeCritText3{fill:#000 !important}#mermaid-1600834226552 .titleText{text-anchor:middle;font-size:18px;fill:#000;font-family:'trebuchet ms', verdana, arial;font-family:var(--mermaid-font-family)}#mermaid-1600834226552 g.classGroup text{fill:#9370db;stroke:none;font-family:'trebuchet ms', verdana, arial;font-family:var(--mermaid-font-family);font-size:10px}#mermaid-1600834226552 g.classGroup text .title{font-weight:bolder}#mermaid-1600834226552 g.clickable{cursor:pointer}#mermaid-1600834226552 g.classGroup rect{fill:#ECECFF;stroke:#9370db}#mermaid-1600834226552 g.classGroup line{stroke:#9370db;stroke-width:1}#mermaid-1600834226552 .classLabel .box{stroke:none;stroke-width:0;fill:#ECECFF;opacity:0.5}#mermaid-1600834226552 .classLabel .label{fill:#9370db;font-size:10px}#mermaid-1600834226552 .relation{stroke:#9370db;stroke-width:1;fill:none}#mermaid-1600834226552 .dashed-line{stroke-dasharray:3}#mermaid-1600834226552 #compositionStart{fill:#9370db;stroke:#9370db;stroke-width:1}#mermaid-1600834226552 #compositionEnd{fill:#9370db;stroke:#9370db;stroke-width:1}#mermaid-1600834226552 #aggregationStart{fill:#ECECFF;stroke:#9370db;stroke-width:1}#mermaid-1600834226552 #aggregationEnd{fill:#ECECFF;stroke:#9370db;stroke-width:1}#mermaid-1600834226552 #dependencyStart{fill:#9370db;stroke:#9370db;stroke-width:1}#mermaid-1600834226552 #dependencyEnd{fill:#9370db;stroke:#9370db;stroke-width:1}#mermaid-1600834226552 #extensionStart{fill:#9370db;stroke:#9370db;stroke-width:1}#mermaid-1600834226552 #extensionEnd{fill:#9370db;stroke:#9370db;stroke-width:1}#mermaid-1600834226552 .commit-id,#mermaid-1600834226552 .commit-msg,#mermaid-1600834226552 .branch-label{fill:lightgrey;color:lightgrey;font-family:'trebuchet ms', verdana, arial;font-family:var(--mermaid-font-family)}#mermaid-1600834226552 .pieTitleText{text-anchor:middle;font-size:25px;fill:#000;font-family:'trebuchet ms', verdana, arial;font-family:var(--mermaid-font-family)}#mermaid-1600834226552 .slice{font-family:'trebuchet ms', verdana, arial;font-family:var(--mermaid-font-family)}#mermaid-1600834226552 g.stateGroup text{fill:#9370db;stroke:none;font-size:10px;font-family:'trebuchet ms', verdana, arial;font-family:var(--mermaid-font-family)}#mermaid-1600834226552 g.stateGroup text{fill:#9370db;stroke:none;font-size:10px}#mermaid-1600834226552 g.stateGroup .state-title{font-weight:bolder;fill:#000}#mermaid-1600834226552 g.stateGroup rect{fill:#ECECFF;stroke:#9370db}#mermaid-1600834226552 g.stateGroup line{stroke:#9370db;stroke-width:1}#mermaid-1600834226552 .transition{stroke:#9370db;stroke-width:1;fill:none}#mermaid-1600834226552 .stateGroup .composit{fill:white;border-bottom:1px}#mermaid-1600834226552 .stateGroup .alt-composit{fill:#e0e0e0;border-bottom:1px}#mermaid-1600834226552 .state-note{stroke:#aa3;fill:#fff5ad}#mermaid-1600834226552 .state-note text{fill:black;stroke:none;font-size:10px}#mermaid-1600834226552 .stateLabel .box{stroke:none;stroke-width:0;fill:#ECECFF;opacity:0.5}#mermaid-1600834226552 .stateLabel text{fill:#000;font-size:10px;font-weight:bold;font-family:'trebuchet ms', verdana, arial;font-family:var(--mermaid-font-family)}#mermaid-1600834226552 .node circle.state-start{fill:black;stroke:black}#mermaid-1600834226552 .node circle.state-end{fill:black;stroke:white;stroke-width:1.5}#mermaid-1600834226552 #statediagram-barbEnd{fill:#9370db}#mermaid-1600834226552 .statediagram-cluster rect{fill:#ECECFF;stroke:#9370db;stroke-width:1px}#mermaid-1600834226552 .statediagram-cluster rect.outer{rx:5px;ry:5px}#mermaid-1600834226552 .statediagram-state .divider{stroke:#9370db}#mermaid-1600834226552 .statediagram-state .title-state{rx:5px;ry:5px}#mermaid-1600834226552 .statediagram-cluster.statediagram-cluster .inner{fill:white}#mermaid-1600834226552 .statediagram-cluster.statediagram-cluster-alt .inner{fill:#e0e0e0}#mermaid-1600834226552 .statediagram-cluster .inner{rx:0;ry:0}#mermaid-1600834226552 .statediagram-state rect.basic{rx:5px;ry:5px}#mermaid-1600834226552 .statediagram-state rect.divider{stroke-dasharray:10,10;fill:#efefef}#mermaid-1600834226552 .note-edge{stroke-dasharray:5}#mermaid-1600834226552 .statediagram-note rect{fill:#fff5ad;stroke:#aa3;stroke-width:1px;rx:0;ry:0}:root{--mermaid-font-family: '"trebuchet ms", verdana, arial';--mermaid-font-family: "Comic Sans MS", "Comic Sans", cursive}

:root { --mermaid-font-family: "trebuchet ms", verdana, arial;}</style><style>#mermaid-1600834226552 {
    color: rgb(0, 0, 0);
    font: 16px "trebuchet ms", verdana, arial;
  }</style><g><defs><marker id="statediagram-barbEnd" refX="19" refY="7" markerWidth="20" markerHeight="14" markerUnits="0" orient="auto"><path d="M 19,7 L9,13 L14,7 L9,1 Z"></path></marker></defs><g class="root"><g class="clusters"><g class="note-cluster" id="0----parent"><rect x="1304.30078125" y="72" width="620.09375" height="219" fill="none"></rect></g><g class="note-cluster" id="4----parent"><rect x="8" y="1354.5" width="1125.39453125" height="265" fill="none"></rect></g><g class="note-cluster" id="11----parent"><rect x="978.19140625" y="1947.5" width="3040.74609375" height="240" fill="none"></rect></g><g class="note-cluster" id="17----parent"><rect x="2395.19921875" y="489.5" width="1359.37890625" height="203" fill="none"></rect></g><g class="note-cluster" id="22----parent"><rect x="4055.62890625" y="761.5" width="600.7890625" height="240" fill="none"></rect></g><g class="note-cluster" id="27----parent"><rect x="1906.03515625" y="1200" width="494.703125" height="265" fill="none"></rect></g></g><g class="edgePaths"><path d="M1658.69140625,22L1658.69140625,26.166666666666668C1658.69140625,30.333333333333332,1658.69140625,38.666666666666664,1658.69140625,47C1658.69140625,55.333333333333336,1658.69140625,63.666666666666664,1658.69140625,72C1658.69140625,80.33333333333333,1658.69140625,88.66666666666667,1658.69140625,92.83333333333333L1658.69140625,97" id="edge0" class="transition" marker-end="url(#statediagram-barbEnd)"></path><path d="M1644.0536635315534,131L1639.1026623179612,136.75C1634.151661104369,142.5,1624.2496586771842,154,1619.2986574635922,165.5C1614.34765625,177,1614.34765625,188.5,1614.34765625,194.25L1614.34765625,200" class="transition note-edge"></path><path d="M1695.2264487257282,131L1707.5838895631068,136.75C1719.9413304004854,142.5,1744.6562120752426,154,2194.822897704288,170.45191430369988C2644.9895833333335,186.90382860739976,3520.6080729166665,208.30765721479952,3958.4173177083335,219.00957151849943L4396.2265625,229.71148582219928" id="edge1" class="transition" marker-end="url(#statediagram-barbEnd)"></path><path d="M4396.2265625,244.13860806432726L4301.895182291667,251.94884005360606C4207.563802083333,259.75907204288484,4018.9010416666665,275.37953602144245,3924.5696614583335,288.9397680107212C3830.23828125,302.5,3830.23828125,314,3830.23828125,330.5416666666667C3830.23828125,347.0833333333333,3830.23828125,368.6666666666667,3830.23828125,390.25C3830.23828125,411.8333333333333,3830.23828125,433.4166666666667,3830.23828125,449.9583333333333C3830.23828125,466.5,3830.23828125,478,3830.23828125,492.0833333333333C3830.23828125,506.1666666666667,3830.23828125,522.8333333333334,3830.23828125,541.0833333333334C3830.23828125,559.3333333333334,3830.23828125,579.1666666666666,3830.23828125,597.6666666666666C3830.23828125,616.1666666666666,3830.23828125,633.3333333333334,3830.23828125,648.9166666666666C3830.23828125,664.5,3830.23828125,678.5,3830.23828125,691.25C3830.23828125,704,3830.23828125,715.5,3830.23828125,727C3830.23828125,738.5,3830.23828125,750,3830.23828125,764.9583333333334C3830.23828125,779.9166666666666,3830.23828125,798.3333333333334,3830.23828125,818.3333333333334C3830.23828125,838.3333333333334,3830.23828125,859.9166666666666,3830.23828125,881.5C3830.23828125,903.0833333333334,3830.23828125,924.6666666666666,3830.23828125,944.6666666666666C3830.23828125,964.6666666666666,3830.23828125,983.0833333333334,3830.23828125,998.0416666666666C3830.23828125,1013,3830.23828125,1024.5,3830.23828125,1041.0416666666667C3830.23828125,1057.5833333333333,3830.23828125,1079.1666666666667,3830.23828125,1100.75C3830.23828125,1122.3333333333333,3830.23828125,1143.9166666666667,3830.23828125,1160.4583333333333C3830.23828125,1177,3830.23828125,1188.5,3830.23828125,1203.4583333333333C3830.23828125,1218.4166666666667,3830.23828125,1236.8333333333333,3830.23828125,1256.8333333333333C3830.23828125,1276.8333333333333,3830.23828125,1298.4166666666667,3830.23828125,1314.9583333333333C3830.23828125,1331.5,3830.23828125,1343,3830.23828125,1357.9583333333333C3830.23828125,1372.9166666666667,3830.23828125,1391.3333333333333,3830.23828125,1409.75C3830.23828125,1428.1666666666667,3830.23828125,1446.5833333333333,3830.23828125,1461.5416666666667C3830.23828125,1476.5,3830.23828125,1488,3830.23828125,1504.5416666666667C3830.23828125,1521.0833333333333,3830.23828125,1542.6666666666667,3830.23828125,1562.6666666666667C3830.23828125,1582.6666666666667,3830.23828125,1601.0833333333333,3830.23828125,1616.0416666666667C3830.23828125,1631,3830.23828125,1642.5,3830.23828125,1659.0416666666667C3830.23828125,1675.5833333333333,3830.23828125,1697.1666666666667,3830.23828125,1718.75C3830.23828125,1740.3333333333333,3830.23828125,1761.9166666666667,3830.23828125,1783.5C3830.23828125,1805.0833333333333,3830.23828125,1826.6666666666667,3830.23828125,1848.25C3830.23828125,1869.8333333333333,3830.23828125,1891.4166666666667,3944.7454427083335,1907.9583333333333C4059.2526041666665,1924.5,4288.266927083333,1936,4364.235026041667,1948.2207561728394C4440.203125,1960.441512345679,4363.125,1973.3830246913578,4324.5859375,1979.8537808641975L4286.046875,1986.324537037037" id="edge2" class="transition" marker-end="url(#statediagram-barbEnd)"></path><path d="M4368.37109375,405.4830754352031L4301.703776041667,413.7358961960026C4235.036458333333,421.9887169568021,4101.701822916667,438.494358478401,4035.0345052083335,452.49717923920053C3968.3671875,466.5,3968.3671875,478,3968.3671875,492.0833333333333C3968.3671875,506.1666666666667,3968.3671875,522.8333333333334,3968.3671875,541.0833333333334C3968.3671875,559.3333333333334,3968.3671875,579.1666666666666,3968.3671875,597.6666666666666C3968.3671875,616.1666666666666,3968.3671875,633.3333333333334,3968.3671875,648.9166666666666C3968.3671875,664.5,3968.3671875,678.5,3968.3671875,691.25C3968.3671875,704,3968.3671875,715.5,3968.3671875,727C3968.3671875,738.5,3968.3671875,750,3968.3671875,764.9583333333334C3968.3671875,779.9166666666666,3968.3671875,798.3333333333334,3968.3671875,818.3333333333334C3968.3671875,838.3333333333334,3968.3671875,859.9166666666666,3968.3671875,881.5C3968.3671875,903.0833333333334,3968.3671875,924.6666666666666,3968.3671875,944.6666666666666C3968.3671875,964.6666666666666,3968.3671875,983.0833333333334,3968.3671875,998.0416666666666C3968.3671875,1013,3968.3671875,1024.5,3968.3671875,1041.0416666666667C3968.3671875,1057.5833333333333,3968.3671875,1079.1666666666667,3968.3671875,1100.75C3968.3671875,1122.3333333333333,3968.3671875,1143.9166666666667,3968.3671875,1160.4583333333333C3968.3671875,1177,3968.3671875,1188.5,3968.3671875,1203.4583333333333C3968.3671875,1218.4166666666667,3968.3671875,1236.8333333333333,3968.3671875,1256.8333333333333C3968.3671875,1276.8333333333333,3968.3671875,1298.4166666666667,3968.3671875,1314.9583333333333C3968.3671875,1331.5,3968.3671875,1343,3968.3671875,1357.9583333333333C3968.3671875,1372.9166666666667,3968.3671875,1391.3333333333333,3968.3671875,1409.75C3968.3671875,1428.1666666666667,3968.3671875,1446.5833333333333,3968.3671875,1461.5416666666667C3968.3671875,1476.5,3968.3671875,1488,3968.3671875,1504.5416666666667C3968.3671875,1521.0833333333333,3968.3671875,1542.6666666666667,3968.3671875,1562.6666666666667C3968.3671875,1582.6666666666667,3968.3671875,1601.0833333333333,3968.3671875,1616.0416666666667C3968.3671875,1631,3968.3671875,1642.5,3968.3671875,1659.0416666666667C3968.3671875,1675.5833333333333,3968.3671875,1697.1666666666667,3968.3671875,1718.75C3968.3671875,1740.3333333333333,3968.3671875,1761.9166666666667,3968.3671875,1783.5C3968.3671875,1805.0833333333333,3968.3671875,1826.6666666666667,3968.3671875,1848.25C3968.3671875,1869.8333333333333,3968.3671875,1891.4166666666667,4077.4388020833335,1907.9583333333333C4186.510416666667,1924.5,4404.653645833333,1936,4457.600260416667,1948.885440261748C4510.546875,1961.770880523496,4398.296875,1976.0417610469924,4342.171875,1983.1772013087405L4286.046875,1990.3126415704887" id="edge3" class="transition" marker-end="url(#statediagram-barbEnd)"></path><path d="M2928.8823751206564,847L2922.203411558881,852.75C2915.5244479971043,858.5,2902.166520873552,870,2895.4875573117765,886.5416666666666C2888.80859375,903.0833333333334,2888.80859375,924.6666666666666,2888.80859375,944.6666666666666C2888.80859375,964.6666666666666,2888.80859375,983.0833333333334,2888.80859375,998.0416666666666C2888.80859375,1013,2888.80859375,1024.5,2888.80859375,1041.0416666666667C2888.80859375,1057.5833333333333,2888.80859375,1079.1666666666667,2888.80859375,1100.75C2888.80859375,1122.3333333333333,2888.80859375,1143.9166666666667,2888.80859375,1160.4583333333333C2888.80859375,1177,2888.80859375,1188.5,2888.80859375,1203.4583333333333C2888.80859375,1218.4166666666667,2888.80859375,1236.8333333333333,2888.80859375,1256.8333333333333C2888.80859375,1276.8333333333333,2888.80859375,1298.4166666666667,2888.80859375,1314.9583333333333C2888.80859375,1331.5,2888.80859375,1343,2888.80859375,1357.9583333333333C2888.80859375,1372.9166666666667,2888.80859375,1391.3333333333333,2888.80859375,1409.75C2888.80859375,1428.1666666666667,2888.80859375,1446.5833333333333,2888.80859375,1461.5416666666667C2888.80859375,1476.5,2888.80859375,1488,2888.80859375,1504.5416666666667C2888.80859375,1521.0833333333333,2888.80859375,1542.6666666666667,2888.80859375,1562.6666666666667C2888.80859375,1582.6666666666667,2888.80859375,1601.0833333333333,2888.80859375,1616.0416666666667C2888.80859375,1631,2888.80859375,1642.5,2888.80859375,1659.0416666666667C2888.80859375,1675.5833333333333,2888.80859375,1697.1666666666667,2888.80859375,1718.75C2888.80859375,1740.3333333333333,2888.80859375,1761.9166666666667,2888.80859375,1783.5C2888.80859375,1805.0833333333333,2888.80859375,1826.6666666666667,2888.80859375,1848.25C2888.80859375,1869.8333333333333,2888.80859375,1891.4166666666667,3089.8990885416665,1907.9583333333333C3290.9895833333335,1924.5,3693.1705729166665,1936,3901.2646263433257,1945.9166666666667C4109.358679769985,1955.8333333333333,4123.36579703997,1964.1666666666667,4130.369355674962,1968.3333333333333L4137.3729143099545,1972.5" id="edge4" class="transition" marker-end="url(#statediagram-barbEnd)"></path><path d="M4090.390625,2014.1942115514905L4014.4453125,2023.0785096262423C3938.5,2031.9628077009936,3786.609375,2049.731403850497,3448.6178385416665,2068.8389356350776C3110.6263020833335,2087.9464674196583,2586.5338541666665,2108.3929348393167,2324.4876302083335,2118.6161685491456L2062.44140625,2128.839402258975" id="edge5" class="transition" marker-end="url(#statediagram-barbEnd)"></path><path d="M4510.244123787716,263.25L4507.107733364763,267.875C4503.971342941811,272.5,4497.698562095905,281.75,4494.562171672952,292.125C4491.42578125,302.5,4491.42578125,314,4491.42578125,325.5C4491.42578125,337,4491.42578125,348.5,4491.42578125,354.25L4491.42578125,360" id="edge6" class="transition" marker-end="url(#statediagram-barbEnd)"></path><path d="M4559.1634441361,420.5L4572.039198238417,426.25C4584.914952340733,432,4610.666460545367,443.5,4623.542214647684,455C4636.41796875,466.5,4636.41796875,478,4636.41796875,489.25C4636.41796875,500.5,4636.41796875,511.5,4636.41796875,517L4636.41796875,522.5" id="edge7" class="transition" marker-end="url(#statediagram-barbEnd)"></path><path d="M2981,657.8752633075068L2907.3639322916665,663.6460527562557C2833.7278645833335,669.4168422050045,2686.4557291666665,680.9584211025023,2612.8196614583335,692.4792105512512C2539.18359375,704,2539.18359375,715.5,2539.18359375,727C2539.18359375,738.5,2539.18359375,750,2539.18359375,764.9583333333334C2539.18359375,779.9166666666666,2539.18359375,798.3333333333334,2539.18359375,818.3333333333334C2539.18359375,838.3333333333334,2539.18359375,859.9166666666666,2539.18359375,881.5C2539.18359375,903.0833333333334,2539.18359375,924.6666666666666,2539.18359375,944.6666666666666C2539.18359375,964.6666666666666,2539.18359375,983.0833333333334,2539.18359375,998.0416666666666C2539.18359375,1013,2539.18359375,1024.5,2539.18359375,1041.0416666666667C2539.18359375,1057.5833333333333,2539.18359375,1079.1666666666667,2539.18359375,1100.75C2539.18359375,1122.3333333333333,2539.18359375,1143.9166666666667,2539.18359375,1160.4583333333333C2539.18359375,1177,2539.18359375,1188.5,2539.18359375,1203.4583333333333C2539.18359375,1218.4166666666667,2539.18359375,1236.8333333333333,2539.18359375,1256.8333333333333C2539.18359375,1276.8333333333333,2539.18359375,1298.4166666666667,2539.18359375,1314.9583333333333C2539.18359375,1331.5,2539.18359375,1343,2539.18359375,1357.9583333333333C2539.18359375,1372.9166666666667,2539.18359375,1391.3333333333333,2539.18359375,1409.75C2539.18359375,1428.1666666666667,2539.18359375,1446.5833333333333,2539.18359375,1461.5416666666667C2539.18359375,1476.5,2539.18359375,1488,2539.18359375,1504.5416666666667C2539.18359375,1521.0833333333333,2539.18359375,1542.6666666666667,2539.18359375,1562.6666666666667C2539.18359375,1582.6666666666667,2539.18359375,1601.0833333333333,2539.18359375,1616.0416666666667C2539.18359375,1631,2539.18359375,1642.5,2539.18359375,1659.0416666666667C2539.18359375,1675.5833333333333,2539.18359375,1697.1666666666667,2539.18359375,1718.75C2539.18359375,1740.3333333333333,2539.18359375,1761.9166666666667,2539.18359375,1783.5C2539.18359375,1805.0833333333333,2539.18359375,1826.6666666666667,2539.18359375,1848.25C2539.18359375,1869.8333333333333,2539.18359375,1891.4166666666667,2539.18359375,1907.9583333333333C2539.18359375,1924.5,2539.18359375,1936,2539.18359375,1950.9583333333333C2539.18359375,1965.9166666666667,2539.18359375,1984.3333333333333,2539.18359375,2004.3333333333333C2539.18359375,2024.3333333333333,2539.18359375,2045.9166666666667,2459.7265625,2065.827742234778C2380.26953125,2085.7388178028887,2221.35546875,2103.9776356057773,2141.8984375,2113.0970445072217L2062.44140625,2122.216453408666" id="edge8" class="transition" marker-end="url(#statediagram-barbEnd)"></path><path d="M4530.85546875,543.5228874516819L4288.231119791667,552.7690728764015C4045.6067708333335,562.0152583011212,3560.3580729166665,580.5076291505607,3317.7337239583335,595.5038145752803C3075.109375,610.5,3075.109375,622,3075.109375,627.75L3075.109375,633.5" id="edge9" class="transition" marker-end="url(#statediagram-barbEnd)"></path><path d="M3416.03515625,847L3416.03515625,852.75C3416.03515625,858.5,3416.03515625,870,3416.03515625,886.5416666666666C3416.03515625,903.0833333333334,3416.03515625,924.6666666666666,3416.03515625,944.6666666666666C3416.03515625,964.6666666666666,3416.03515625,983.0833333333334,3416.03515625,998.0416666666666C3416.03515625,1013,3416.03515625,1024.5,3416.03515625,1041.0416666666667C3416.03515625,1057.5833333333333,3416.03515625,1079.1666666666667,3416.03515625,1100.75C3416.03515625,1122.3333333333333,3416.03515625,1143.9166666666667,3416.03515625,1160.4583333333333C3416.03515625,1177,3416.03515625,1188.5,3416.03515625,1203.4583333333333C3416.03515625,1218.4166666666667,3416.03515625,1236.8333333333333,3416.03515625,1256.8333333333333C3416.03515625,1276.8333333333333,3416.03515625,1298.4166666666667,3416.03515625,1314.9583333333333C3416.03515625,1331.5,3416.03515625,1343,3416.03515625,1357.9583333333333C3416.03515625,1372.9166666666667,3416.03515625,1391.3333333333333,3416.03515625,1409.75C3416.03515625,1428.1666666666667,3416.03515625,1446.5833333333333,3416.03515625,1461.5416666666667C3416.03515625,1476.5,3416.03515625,1488,3416.03515625,1504.5416666666667C3416.03515625,1521.0833333333333,3416.03515625,1542.6666666666667,3416.03515625,1562.6666666666667C3416.03515625,1582.6666666666667,3416.03515625,1601.0833333333333,3416.03515625,1616.0416666666667C3416.03515625,1631,3416.03515625,1642.5,3416.03515625,1659.0416666666667C3416.03515625,1675.5833333333333,3416.03515625,1697.1666666666667,3416.03515625,1718.75C3416.03515625,1740.3333333333333,3416.03515625,1761.9166666666667,3416.03515625,1783.5C3416.03515625,1805.0833333333333,3416.03515625,1826.6666666666667,3416.03515625,1848.25C3416.03515625,1869.8333333333333,3416.03515625,1891.4166666666667,3343.7180989583335,1907.9583333333333C3271.4010416666665,1924.5,3126.7669270833335,1936,3054.4498697916665,1950.9583333333333C2982.1328125,1965.9166666666667,2982.1328125,1984.3333333333333,2982.1328125,2004.3333333333333C2982.1328125,2024.3333333333333,2982.1328125,2045.9166666666667,2828.8509114583335,2066.563235733319C2675.5690104166665,2087.209804799971,2369.0052083333335,2106.919609599942,2215.7233072916665,2116.7745119999277L2062.44140625,2126.629414399913" id="edge10" class="transition" marker-end="url(#statediagram-barbEnd)"></path><path d="M3478.2696549773755,786.5L3486.841899981146,782.3333333333334C3495.414144984917,778.1666666666666,3512.5586349924583,769.8333333333334,3521.1308799962294,759.9166666666666C3529.703125,750,3529.703125,738.5,3529.703125,727C3529.703125,715.5,3529.703125,704,3469.6223958333335,692.6991304048944C3409.5416666666665,681.398260809789,3289.3802083333335,670.2965216195779,3229.2994791666665,664.7456520244724L3169.21875,659.1947824293669" id="edge11" class="transition" marker-end="url(#statediagram-barbEnd)"></path><path d="M4530.85546875,545.579375701825L4376.255859375,554.4828130848542C4221.65625,563.3862504678833,3912.45703125,581.1931252339417,3685.517578125,597.1504544560904C3458.578125,613.1077836782391,3313.8984375,627.2155673564782,3241.55859375,634.2694591955977L3169.21875,641.3233510347173" id="edge12" class="transition" marker-end="url(#statediagram-barbEnd)"></path><path d="M3030.1444382440477,667.5L3019.1236204117063,671.6666666666666C3008.1028025793653,675.8333333333334,2986.0611669146824,684.1666666666666,2975.040349082341,694.0833333333334C2964.01953125,704,2964.01953125,715.5,2964.01953125,727C2964.01953125,738.5,2964.01953125,750,2964.01953125,759.9166666666666C2964.01953125,769.8333333333334,2964.01953125,778.1666666666666,2964.01953125,782.3333333333334L2964.01953125,786.5" id="edge13" class="transition" marker-end="url(#statediagram-barbEnd)"></path><path d="M2999.1566873793436,847L3005.835650941119,852.75C3012.5146145028957,858.5,3025.872541626448,870,3032.5515051882235,886.5416666666666C3039.23046875,903.0833333333334,3039.23046875,924.6666666666666,3039.23046875,944.6666666666666C3039.23046875,964.6666666666666,3039.23046875,983.0833333333334,3039.23046875,998.0416666666666C3039.23046875,1013,3039.23046875,1024.5,3039.23046875,1041.0416666666667C3039.23046875,1057.5833333333333,3039.23046875,1079.1666666666667,3039.23046875,1100.75C3039.23046875,1122.3333333333333,3039.23046875,1143.9166666666667,3039.23046875,1160.4583333333333C3039.23046875,1177,3039.23046875,1188.5,3039.23046875,1203.4583333333333C3039.23046875,1218.4166666666667,3039.23046875,1236.8333333333333,3039.23046875,1256.8333333333333C3039.23046875,1276.8333333333333,3039.23046875,1298.4166666666667,3039.23046875,1314.9583333333333C3039.23046875,1331.5,3039.23046875,1343,3039.23046875,1357.9583333333333C3039.23046875,1372.9166666666667,3039.23046875,1391.3333333333333,3039.23046875,1409.75C3039.23046875,1428.1666666666667,3039.23046875,1446.5833333333333,3039.23046875,1461.5416666666667C3039.23046875,1476.5,3039.23046875,1488,3039.23046875,1504.5416666666667C3039.23046875,1521.0833333333333,3039.23046875,1542.6666666666667,3039.23046875,1562.6666666666667C3039.23046875,1582.6666666666667,3039.23046875,1601.0833333333333,3039.23046875,1616.0416666666667C3039.23046875,1631,3039.23046875,1642.5,3039.23046875,1659.0416666666667C3039.23046875,1675.5833333333333,3039.23046875,1697.1666666666667,3039.23046875,1718.75C3039.23046875,1740.3333333333333,3039.23046875,1761.9166666666667,3039.23046875,1783.5C3039.23046875,1805.0833333333333,3039.23046875,1826.6666666666667,3039.23046875,1848.25C3039.23046875,1869.8333333333333,3039.23046875,1891.4166666666667,2989.8118489583335,1907.9583333333333C2940.3932291666665,1924.5,2841.5559895833335,1936,2792.1373697916665,1950.9583333333333C2742.71875,1965.9166666666667,2742.71875,1984.3333333333333,2742.71875,2004.3333333333333C2742.71875,2024.3333333333333,2742.71875,2045.9166666666667,2629.3391927083335,2066.2710971805973C2515.9596354166665,2086.625527694528,2289.2005208333335,2105.7510553890565,2175.8209635416665,2115.3138192363203L2062.44140625,2124.8765830835846" id="edge14" class="transition" marker-end="url(#statediagram-barbEnd)"></path><path d="M4636.41796875,556.5L4636.41796875,563.5833333333334C4636.41796875,570.6666666666666,4636.41796875,584.8333333333334,4636.41796875,600.5C4636.41796875,616.1666666666666,4636.41796875,633.3333333333334,4636.41796875,648.9166666666666C4636.41796875,664.5,4636.41796875,678.5,4636.41796875,691.25C4636.41796875,704,4636.41796875,715.5,4636.41796875,727C4636.41796875,738.5,4636.41796875,750,4636.41796875,764.9583333333334C4636.41796875,779.9166666666666,4636.41796875,798.3333333333334,4636.41796875,818.3333333333334C4636.41796875,838.3333333333334,4636.41796875,859.9166666666666,4612.865030767374,876.4583333333334C4589.312092784749,893,4542.206216819498,904.5,4518.653278836872,910.25L4495.100340854247,916" id="edge15" class="transition" marker-end="url(#statediagram-barbEnd)"></path><path d="M3060.40234375,821.9217332754971L3245.45703125,831.8514443962476C3430.51171875,841.781155516998,3800.62109375,861.640577758499,4003.4773316843625,877.3202888792495C4206.333569618726,893,4241.936670487452,904.5,4259.738220921815,910.25L4277.539771356178,916" id="edge16" class="transition" marker-end="url(#statediagram-barbEnd)"></path><path d="M4272.38700155543,976.5L4258.777579421192,980.6666666666666C4245.168157286954,984.8333333333334,4217.949313018477,993.1666666666666,4204.339890884238,1003.0833333333334C4190.73046875,1013,4190.73046875,1024.5,4190.73046875,1036C4190.73046875,1047.5,4190.73046875,1059,4190.73046875,1064.75L4190.73046875,1070.5" id="edge17" class="transition" marker-end="url(#statediagram-barbEnd)"></path><path d="M4396.128835548642,976.5L4399.563743165535,980.6666666666666C4402.998650782428,984.8333333333334,4409.868466016214,993.1666666666666,4413.303373633107,1003.0833333333334C4416.73828125,1013,4416.73828125,1024.5,4416.73828125,1041.0416666666667C4416.73828125,1057.5833333333333,4416.73828125,1079.1666666666667,4416.73828125,1100.75C4416.73828125,1122.3333333333333,4416.73828125,1143.9166666666667,4416.73828125,1160.4583333333333C4416.73828125,1177,4416.73828125,1188.5,4408.216116374434,1198.4166666666667C4399.693951498869,1208.3333333333333,4382.649621747737,1216.6666666666667,4374.127456872172,1220.8333333333333L4365.605291996606,1225" id="edge18" class="transition" marker-end="url(#statediagram-barbEnd)"></path><path d="M4190.73046875,1131L4190.73046875,1136.75C4190.73046875,1142.5,4190.73046875,1154,4190.73046875,1165.5C4190.73046875,1177,4190.73046875,1188.5,4199.252633625566,1198.4166666666667C4207.774798501131,1208.3333333333333,4224.819128252263,1216.6666666666667,4233.341293127828,1220.8333333333333L4241.863458003394,1225" id="edge19" class="transition" marker-end="url(#statediagram-barbEnd)"></path><path d="M4203.8203125,1258.409560951507L3879.2102864583335,1268.6746341262558C3554.6002604166665,1278.9397073010048,2905.3802083333335,1299.4698536505023,2580.7701822916665,1315.4849268252513C2256.16015625,1331.5,2256.16015625,1343,2250.805706777903,1352.9166666666667C2245.451257305807,1362.8333333333333,2234.742358361614,1371.1666666666667,2229.3879088895173,1375.3333333333333L2224.033459417421,1379.5" id="edge20" class="transition" marker-end="url(#statediagram-barbEnd)"></path><path d="M2179.685043127828,1440L2178.930895314857,1444.1666666666667C2178.1767475018855,1448.3333333333333,2176.6684518759425,1456.6666666666667,2175.9143040629715,1466.5833333333333C2175.16015625,1476.5,2175.16015625,1488,2175.16015625,1504.5416666666667C2175.16015625,1521.0833333333333,2175.16015625,1542.6666666666667,2175.16015625,1562.6666666666667C2175.16015625,1582.6666666666667,2175.16015625,1601.0833333333333,2175.16015625,1616.0416666666667C2175.16015625,1631,2175.16015625,1642.5,2175.16015625,1659.0416666666667C2175.16015625,1675.5833333333333,2175.16015625,1697.1666666666667,2175.16015625,1718.75C2175.16015625,1740.3333333333333,2175.16015625,1761.9166666666667,2175.16015625,1783.5C2175.16015625,1805.0833333333333,2175.16015625,1826.6666666666667,2175.16015625,1848.25C2175.16015625,1869.8333333333333,2175.16015625,1891.4166666666667,2175.16015625,1907.9583333333333C2175.16015625,1924.5,2175.16015625,1936,2175.16015625,1950.9583333333333C2175.16015625,1965.9166666666667,2175.16015625,1984.3333333333333,2175.16015625,2004.3333333333333C2175.16015625,2024.3333333333333,2175.16015625,2045.9166666666667,2156.3736979166665,2062.786175735811C2137.5872395833335,2079.655684804955,2100.0143229166665,2091.8113696099094,2081.2278645833335,2097.889212012387L2062.44140625,2103.9670544148644" id="edge21" class="transition" marker-end="url(#statediagram-barbEnd)"></path><path d="M4090.390625,2023.1003714672959L4054.8177083333335,2030.5003095560799C4019.2447916666665,2037.900247644864,3948.0989583333335,2052.700123822432,3610.107421875,2070.3956924715353C3272.1158854166665,2088.0912611206386,2667.2786458333335,2108.682522241277,2364.8600260416665,2118.9781528015965L2062.44140625,2129.273783361916" id="edge22" class="transition" marker-end="url(#statediagram-barbEnd)"></path><path d="M4614.48046875,418.08355848479886L4641.682291666667,424.2362987373324C4668.884114583333,430.3890389898659,4723.287760416667,442.694519494933,4750.489583333333,454.59725974746647C4777.69140625,466.5,4777.69140625,478,4777.69140625,492.0833333333333C4777.69140625,506.1666666666667,4777.69140625,522.8333333333334,4777.69140625,541.0833333333334C4777.69140625,559.3333333333334,4777.69140625,579.1666666666666,4777.69140625,597.6666666666666C4777.69140625,616.1666666666666,4777.69140625,633.3333333333334,4777.69140625,648.9166666666666C4777.69140625,664.5,4777.69140625,678.5,4777.69140625,691.25C4777.69140625,704,4777.69140625,715.5,4777.69140625,727C4777.69140625,738.5,4777.69140625,750,4777.69140625,764.9583333333334C4777.69140625,779.9166666666666,4777.69140625,798.3333333333334,4777.69140625,818.3333333333334C4777.69140625,838.3333333333334,4777.69140625,859.9166666666666,4777.69140625,881.5C4777.69140625,903.0833333333334,4777.69140625,924.6666666666666,4777.69140625,944.6666666666666C4777.69140625,964.6666666666666,4777.69140625,983.0833333333334,4777.69140625,998.0416666666666C4777.69140625,1013,4777.69140625,1024.5,4777.69140625,1041.0416666666667C4777.69140625,1057.5833333333333,4777.69140625,1079.1666666666667,4777.69140625,1100.75C4777.69140625,1122.3333333333333,4777.69140625,1143.9166666666667,4777.69140625,1160.4583333333333C4777.69140625,1177,4777.69140625,1188.5,4777.69140625,1203.4583333333333C4777.69140625,1218.4166666666667,4777.69140625,1236.8333333333333,4777.69140625,1256.8333333333333C4777.69140625,1276.8333333333333,4777.69140625,1298.4166666666667,4777.69140625,1314.9583333333333C4777.69140625,1331.5,4777.69140625,1343,4777.69140625,1357.9583333333333C4777.69140625,1372.9166666666667,4777.69140625,1391.3333333333333,4777.69140625,1409.75C4777.69140625,1428.1666666666667,4777.69140625,1446.5833333333333,4777.69140625,1461.5416666666667C4777.69140625,1476.5,4777.69140625,1488,4777.69140625,1504.5416666666667C4777.69140625,1521.0833333333333,4777.69140625,1542.6666666666667,4777.69140625,1562.6666666666667C4777.69140625,1582.6666666666667,4777.69140625,1601.0833333333333,4777.69140625,1616.0416666666667C4777.69140625,1631,4777.69140625,1642.5,4777.69140625,1659.0416666666667C4777.69140625,1675.5833333333333,4777.69140625,1697.1666666666667,4777.69140625,1718.75C4777.69140625,1740.3333333333333,4777.69140625,1761.9166666666667,4777.69140625,1783.5C4777.69140625,1805.0833333333333,4777.69140625,1826.6666666666667,4777.69140625,1848.25C4777.69140625,1869.8333333333333,4777.69140625,1891.4166666666667,4567.154296875,1907.9583333333333C4356.6171875,1924.5,3935.54296875,1936,3725.005859375,1950.9583333333333C3514.46875,1965.9166666666667,3514.46875,1984.3333333333333,3514.46875,2004.3333333333333C3514.46875,2024.3333333333333,3514.46875,2045.9166666666667,3272.4641927083335,2066.887165407677C3030.4596354166665,2087.857664148687,2546.4505208333335,2108.2153282973736,2304.4459635416665,2118.394160371717L2062.44140625,2128.5729924460607" id="edge23" class="transition" marker-end="url(#statediagram-barbEnd)"></path><path d="M2257.4316494626696,1440L2267.3864005938913,1444.1666666666667C2277.341151725113,1448.3333333333333,2297.2506539875562,1456.6666666666667,2083.7184259521114,1466.5833333333333C1870.1861979166667,1476.5,1423.2122395833333,1488,1189.3883727477478,1499.5C955.5645059121622,1511,934.8907305743243,1522.5,924.5538429054054,1528.25L914.2169552364865,1534" id="edge24" class="transition" marker-end="url(#statediagram-barbEnd)"></path><path d="M756.984375,1572.05812892491L652.8307291666666,1579.965107437425C548.6770833333334,1587.8720859499401,340.3697916666667,1603.6860429749702,236.21614583333334,1617.343021487485C132.0625,1631,132.0625,1642.5,132.0625,1659.0416666666667C132.0625,1675.5833333333333,132.0625,1697.1666666666667,132.0625,1718.75C132.0625,1740.3333333333333,132.0625,1761.9166666666667,132.0625,1783.5C132.0625,1805.0833333333333,132.0625,1826.6666666666667,132.0625,1848.25C132.0625,1869.8333333333333,132.0625,1891.4166666666667,350.7115885416667,1907.9583333333333C569.3606770833334,1924.5,1006.6588541666666,1936,1225.3079427083333,1950.9583333333333C1443.95703125,1965.9166666666667,1443.95703125,1984.3333333333333,1443.95703125,2004.3333333333333C1443.95703125,2024.3333333333333,1443.95703125,2045.9166666666667,1517.8971354166667,2065.7235090326C1591.8372395833333,2085.5303513985327,1739.7174479166667,2103.560702797066,1813.6575520833333,2112.5758784963323L1887.59765625,2121.5910541955986" id="edge25" class="transition" marker-end="url(#statediagram-barbEnd)"></path><path d="M924.4921875,1748.7051123408041L899.3294270833334,1754.5042602840033C874.1666666666666,1760.3034082272027,823.8411458333334,1771.9017041136012,798.6783854166666,1788.4925187234674C773.515625,1805.0833333333333,773.515625,1826.6666666666667,773.515625,1848.25C773.515625,1869.8333333333333,773.515625,1891.4166666666667,942.5143229166666,1907.9583333333333C1111.5130208333333,1924.5,1449.5104166666667,1936,1618.5091145833333,1950.9583333333333C1787.5078125,1965.9166666666667,1787.5078125,1984.3333333333333,1787.5078125,2004.3333333333333C1787.5078125,2024.3333333333333,1787.5078125,2045.9166666666667,1804.189453125,2062.4686998729244C1820.87109375,2079.0207330791823,1854.234375,2090.541466158365,1870.916015625,2096.3018326979563L1887.59765625,2102.0621992375477" id="edge26" class="transition" marker-end="url(#statediagram-barbEnd)"></path><path d="M837.1640625,2025.2257629313197L882.138671875,2032.2714691094332C927.11328125,2039.3171752875467,1017.0625,2053.4085876437734,1192.134765625,2070.159071959684C1367.20703125,2086.909556275595,1627.40234375,2106.3191125511903,1757.5,2116.0238906889876L1887.59765625,2125.7286688267855" id="edge27" class="transition" marker-end="url(#statediagram-barbEnd)"></path><path d="M756.984375,1575.9404201288996L693.1119791666666,1583.2003501074166C629.2395833333334,1590.4602800859332,501.4947916666667,1604.9801400429667,437.6223958333333,1617.9900700214832C373.75,1631,373.75,1642.5,373.75,1659.0416666666667C373.75,1675.5833333333333,373.75,1697.1666666666667,373.75,1718.75C373.75,1740.3333333333333,373.75,1761.9166666666667,373.75,1783.5C373.75,1805.0833333333333,373.75,1826.6666666666667,373.75,1848.25C373.75,1869.8333333333333,373.75,1891.4166666666667,573.9251302083334,1907.9583333333333C774.1002604166666,1924.5,1174.4505208333333,1936,1374.6256510416667,1950.9583333333333C1574.80078125,1965.9166666666667,1574.80078125,1984.3333333333333,1574.80078125,2004.3333333333333C1574.80078125,2024.3333333333333,1574.80078125,2045.9166666666667,1626.93359375,2065.142719801671C1679.06640625,2084.368772936675,1783.33203125,2101.2375458733504,1835.46484375,2109.671932341688L1887.59765625,2118.1063188100256" id="edge28" class="transition" marker-end="url(#statediagram-barbEnd)"></path><path d="M756.984375,1588.2325332190312L734.6354166666666,1593.443777682526C712.2864583333334,1598.6550221460209,667.5885416666666,1609.0775110730103,645.2395833333334,1620.038755536505C622.890625,1631,622.890625,1642.5,622.890625,1659.0416666666667C622.890625,1675.5833333333333,622.890625,1697.1666666666667,622.890625,1718.75C622.890625,1740.3333333333333,622.890625,1761.9166666666667,622.890625,1783.5C622.890625,1805.0833333333333,622.890625,1826.6666666666667,622.890625,1848.25C622.890625,1869.8333333333333,622.890625,1891.4166666666667,803.970703125,1907.9583333333333C985.05078125,1924.5,1347.2109375,1936,1528.291015625,1950.9583333333333C1709.37109375,1965.9166666666667,1709.37109375,1984.3333333333333,1709.37109375,2004.3333333333333C1709.37109375,2024.3333333333333,1709.37109375,2045.9166666666667,1739.0755208333333,2063.948585418934C1768.7799479166667,2081.9805041712007,1828.1888020833333,2096.461008342401,1857.8932291666667,2103.701260428001L1887.59765625,2110.9415125136015" id="edge29" class="transition" marker-end="url(#statediagram-barbEnd)"></path><path d="M962.6875,1593.4462529603018L977.984375,1597.7885441335848C993.28125,1602.1308353068678,1023.875,1610.8154176534338,1039.171875,1620.9077088267168C1054.46875,1631,1054.46875,1642.5,1054.46875,1654C1054.46875,1665.5,1054.46875,1677,1054.46875,1682.75L1054.46875,1688.5" id="edge30" class="transition" marker-end="url(#statediagram-barbEnd)"></path><path d="M1041.4059181949806,1749L1038.9229005791506,1754.75C1036.4398829633203,1760.5,1031.4738477316603,1772,1028.99083011583,1788.5416666666667C1026.5078125,1805.0833333333333,1026.5078125,1826.6666666666667,1026.5078125,1848.25C1026.5078125,1869.8333333333333,1026.5078125,1891.4166666666667,1176.0904947916667,1907.9583333333333C1325.6731770833333,1924.5,1624.8385416666667,1936,1774.4212239583333,1950.9583333333333C1924.00390625,1965.9166666666667,1924.00390625,1984.3333333333333,1924.00390625,2004.3333333333333C1924.00390625,2024.3333333333333,1924.00390625,2045.9166666666667,1928.53425132722,2062.4583333333335C1933.0645964044404,2079,1942.1252865588804,2090.5,1946.6556316361005,2096.25L1951.1859767133205,2102" id="edge31" class="transition" marker-end="url(#statediagram-barbEnd)"></path><path d="M1159.4860340250966,1749L1179.4479971042472,1754.75C1199.4099601833977,1760.5,1239.3338863416989,1772,1259.2958494208494,1783.5C1279.2578125,1795,1279.2578125,1806.5,1279.2578125,1812.25L1279.2578125,1818" id="edge32" class="transition" marker-end="url(#statediagram-barbEnd)"></path><path d="M1279.2578125,1878.5L1279.2578125,1884.25C1279.2578125,1890,1279.2578125,1901.5,1181.6640625,1913C1084.0703125,1924.5,888.8828125,1936,791.2890625,1945.9166666666667C693.6953125,1955.8333333333333,693.6953125,1964.1666666666667,693.6953125,1968.3333333333333L693.6953125,1972.5" id="edge33" class="transition" marker-end="url(#statediagram-barbEnd)"></path><path d="M550.2265625,2031.1996895598809L519.716796875,2037.2497412999007C489.20703125,2043.2997930399206,428.1875,2055.3998965199603,397.677734375,2072.241614926647C367.16796875,2089.0833333333335,367.16796875,2110.6666666666665,367.16796875,2130.6666666666665C367.16796875,2150.6666666666665,367.16796875,2169.0833333333335,367.16796875,2184.0416666666665C367.16796875,2199,367.16796875,2210.5,367.16796875,2222C367.16796875,2233.5,367.16796875,2245,367.16796875,2250.75L367.16796875,2256.5" id="edge34" class="transition" marker-end="url(#statediagram-barbEnd)"></path><path d="M637.233877292471,2033L626.5015383687258,2038.75C615.7691994449807,2044.5,594.3045215974903,2056,583.5721826737451,2072.5416666666665C572.83984375,2089.0833333333335,572.83984375,2110.6666666666665,572.83984375,2130.6666666666665C572.83984375,2150.6666666666665,572.83984375,2169.0833333333335,572.83984375,2184.0416666666665C572.83984375,2199,572.83984375,2210.5,572.83984375,2222C572.83984375,2233.5,572.83984375,2245,572.83984375,2250.75L572.83984375,2256.5" id="edge35" class="transition" marker-end="url(#statediagram-barbEnd)"></path><path d="M750.156747707529,2033L760.8890866312742,2038.75C771.6214255550194,2044.5,793.0861034025097,2056,803.818442326255,2072.5416666666665C814.55078125,2089.0833333333335,814.55078125,2110.6666666666665,814.55078125,2130.6666666666665C814.55078125,2150.6666666666665,814.55078125,2169.0833333333335,814.55078125,2184.0416666666665C814.55078125,2199,814.55078125,2210.5,1384.525390625,2224.6654060525157C1954.5,2238.830812105032,3094.44921875,2255.661624210063,3664.423828125,2264.077030262579L4234.3984375,2272.4924363150944" id="edge36" class="transition" marker-end="url(#statediagram-barbEnd)"></path><path d="M1975.01953125,2162.5L1975.01953125,2166.6666666666665C1975.01953125,2170.8333333333335,1975.01953125,2179.1666666666665,1975.01953125,2189.0833333333335C1975.01953125,2199,1975.01953125,2210.5,2351.5826822916665,2224.5816835075602C2728.1458333333335,2238.66336701512,3481.2721354166665,2255.3267340302405,3857.8352864583335,2263.6584175378007L4234.3984375,2271.9901010453605" id="edge37" class="transition" marker-end="url(#statediagram-barbEnd)"></path><path d="M4286.046875,2010.0427396360824L4414.506510416667,2019.6189496967354C4542.966145833333,2029.1951597573882,4799.885416666667,2048.3475798786944,4928.345052083333,2068.715456606014C5056.8046875,2089.0833333333335,5056.8046875,2110.6666666666665,5056.8046875,2130.6666666666665C5056.8046875,2150.6666666666665,5056.8046875,2169.0833333333335,5056.8046875,2184.0416666666665C5056.8046875,2199,5056.8046875,2210.5,4942.484375,2224.0566516113663C4828.1640625,2237.613303222732,4599.5234375,2253.2266064454643,4485.203125,2261.0332580568306L4370.8828125,2268.8399096681965" id="edge38" class="transition" marker-end="url(#statediagram-barbEnd)"></path><path d="M4665.2890625,243.33634839484196L4768.682291666667,251.28029032903498C4872.075520833333,259.224232263228,5078.861979166667,275.11211613161396,5182.255208333333,288.806058065807C5285.6484375,302.5,5285.6484375,314,5285.6484375,330.5416666666667C5285.6484375,347.0833333333333,5285.6484375,368.6666666666667,5285.6484375,390.25C5285.6484375,411.8333333333333,5285.6484375,433.4166666666667,5285.6484375,449.9583333333333C5285.6484375,466.5,5285.6484375,478,5285.6484375,492.0833333333333C5285.6484375,506.1666666666667,5285.6484375,522.8333333333334,5285.6484375,541.0833333333334C5285.6484375,559.3333333333334,5285.6484375,579.1666666666666,5285.6484375,597.6666666666666C5285.6484375,616.1666666666666,5285.6484375,633.3333333333334,5285.6484375,648.9166666666666C5285.6484375,664.5,5285.6484375,678.5,5285.6484375,691.25C5285.6484375,704,5285.6484375,715.5,5285.6484375,727C5285.6484375,738.5,5285.6484375,750,5285.6484375,764.9583333333334C5285.6484375,779.9166666666666,5285.6484375,798.3333333333334,5285.6484375,818.3333333333334C5285.6484375,838.3333333333334,5285.6484375,859.9166666666666,5285.6484375,881.5C5285.6484375,903.0833333333334,5285.6484375,924.6666666666666,5285.6484375,944.6666666666666C5285.6484375,964.6666666666666,5285.6484375,983.0833333333334,5285.6484375,998.0416666666666C5285.6484375,1013,5285.6484375,1024.5,5285.6484375,1041.0416666666667C5285.6484375,1057.5833333333333,5285.6484375,1079.1666666666667,5285.6484375,1100.75C5285.6484375,1122.3333333333333,5285.6484375,1143.9166666666667,5285.6484375,1160.4583333333333C5285.6484375,1177,5285.6484375,1188.5,5285.6484375,1203.4583333333333C5285.6484375,1218.4166666666667,5285.6484375,1236.8333333333333,5285.6484375,1256.8333333333333C5285.6484375,1276.8333333333333,5285.6484375,1298.4166666666667,5285.6484375,1314.9583333333333C5285.6484375,1331.5,5285.6484375,1343,5285.6484375,1357.9583333333333C5285.6484375,1372.9166666666667,5285.6484375,1391.3333333333333,5285.6484375,1409.75C5285.6484375,1428.1666666666667,5285.6484375,1446.5833333333333,5285.6484375,1461.5416666666667C5285.6484375,1476.5,5285.6484375,1488,5285.6484375,1504.5416666666667C5285.6484375,1521.0833333333333,5285.6484375,1542.6666666666667,5285.6484375,1562.6666666666667C5285.6484375,1582.6666666666667,5285.6484375,1601.0833333333333,5285.6484375,1616.0416666666667C5285.6484375,1631,5285.6484375,1642.5,5285.6484375,1659.0416666666667C5285.6484375,1675.5833333333333,5285.6484375,1697.1666666666667,5285.6484375,1718.75C5285.6484375,1740.3333333333333,5285.6484375,1761.9166666666667,5285.6484375,1783.5C5285.6484375,1805.0833333333333,5285.6484375,1826.6666666666667,5285.6484375,1848.25C5285.6484375,1869.8333333333333,5285.6484375,1891.4166666666667,5285.6484375,1907.9583333333333C5285.6484375,1924.5,5285.6484375,1936,5285.6484375,1950.9583333333333C5285.6484375,1965.9166666666667,5285.6484375,1984.3333333333333,5285.6484375,2004.3333333333333C5285.6484375,2024.3333333333333,5285.6484375,2045.9166666666667,5285.6484375,2067.5C5285.6484375,2089.0833333333335,5285.6484375,2110.6666666666665,5285.6484375,2130.6666666666665C5285.6484375,2150.6666666666665,5285.6484375,2169.0833333333335,5285.6484375,2184.0416666666665C5285.6484375,2199,5285.6484375,2210.5,5133.1875,2224.237462745877C4980.7265625,2237.9749254917547,4675.8046875,2253.949850983509,4523.34375,2261.937313729386L4370.8828125,2269.924776475263" id="edge39" class="transition" marker-end="url(#statediagram-barbEnd)"></path><path d="M4614.48046875,401.66178856557815L4710.339192708333,410.55149047131516C4806.197916666667,419.4411923770521,4997.915364583333,437.2205961885261,5093.774088541667,451.86029809426304C5189.6328125,466.5,5189.6328125,478,5189.6328125,492.0833333333333C5189.6328125,506.1666666666667,5189.6328125,522.8333333333334,5189.6328125,541.0833333333334C5189.6328125,559.3333333333334,5189.6328125,579.1666666666666,5189.6328125,597.6666666666666C5189.6328125,616.1666666666666,5189.6328125,633.3333333333334,5189.6328125,648.9166666666666C5189.6328125,664.5,5189.6328125,678.5,5189.6328125,691.25C5189.6328125,704,5189.6328125,715.5,5189.6328125,727C5189.6328125,738.5,5189.6328125,750,5189.6328125,764.9583333333334C5189.6328125,779.9166666666666,5189.6328125,798.3333333333334,5189.6328125,818.3333333333334C5189.6328125,838.3333333333334,5189.6328125,859.9166666666666,5189.6328125,881.5C5189.6328125,903.0833333333334,5189.6328125,924.6666666666666,5189.6328125,944.6666666666666C5189.6328125,964.6666666666666,5189.6328125,983.0833333333334,5189.6328125,998.0416666666666C5189.6328125,1013,5189.6328125,1024.5,5189.6328125,1041.0416666666667C5189.6328125,1057.5833333333333,5189.6328125,1079.1666666666667,5189.6328125,1100.75C5189.6328125,1122.3333333333333,5189.6328125,1143.9166666666667,5189.6328125,1160.4583333333333C5189.6328125,1177,5189.6328125,1188.5,5189.6328125,1203.4583333333333C5189.6328125,1218.4166666666667,5189.6328125,1236.8333333333333,5189.6328125,1256.8333333333333C5189.6328125,1276.8333333333333,5189.6328125,1298.4166666666667,5189.6328125,1314.9583333333333C5189.6328125,1331.5,5189.6328125,1343,5189.6328125,1357.9583333333333C5189.6328125,1372.9166666666667,5189.6328125,1391.3333333333333,5189.6328125,1409.75C5189.6328125,1428.1666666666667,5189.6328125,1446.5833333333333,5189.6328125,1461.5416666666667C5189.6328125,1476.5,5189.6328125,1488,5189.6328125,1504.5416666666667C5189.6328125,1521.0833333333333,5189.6328125,1542.6666666666667,5189.6328125,1562.6666666666667C5189.6328125,1582.6666666666667,5189.6328125,1601.0833333333333,5189.6328125,1616.0416666666667C5189.6328125,1631,5189.6328125,1642.5,5189.6328125,1659.0416666666667C5189.6328125,1675.5833333333333,5189.6328125,1697.1666666666667,5189.6328125,1718.75C5189.6328125,1740.3333333333333,5189.6328125,1761.9166666666667,5189.6328125,1783.5C5189.6328125,1805.0833333333333,5189.6328125,1826.6666666666667,5189.6328125,1848.25C5189.6328125,1869.8333333333333,5189.6328125,1891.4166666666667,5189.6328125,1907.9583333333333C5189.6328125,1924.5,5189.6328125,1936,5189.6328125,1950.9583333333333C5189.6328125,1965.9166666666667,5189.6328125,1984.3333333333333,5189.6328125,2004.3333333333333C5189.6328125,2024.3333333333333,5189.6328125,2045.9166666666667,5189.6328125,2067.5C5189.6328125,2089.0833333333335,5189.6328125,2110.6666666666665,5189.6328125,2130.6666666666665C5189.6328125,2150.6666666666665,5189.6328125,2169.0833333333335,5189.6328125,2184.0416666666665C5189.6328125,2199,5189.6328125,2210.5,5053.174479166667,2224.172960614201C4916.716145833333,2237.8459212284024,4643.799479166667,2253.691842456805,4507.341145833333,2261.614803071006L4370.8828125,2269.537763685207" id="edge40" class="transition" marker-end="url(#statediagram-barbEnd)"></path><path d="M3167.094680059524,667.5L3189.64009796627,671.6666666666666C3212.185515873016,675.8333333333334,3257.2763516865075,684.1666666666666,3279.821769593254,694.0833333333334C3302.3671875,704,3302.3671875,715.5,3302.3671875,727C3302.3671875,738.5,3302.3671875,750,3310.9394325037706,759.9166666666666C3319.5116775075417,769.8333333333334,3336.656167515083,778.1666666666666,3345.228412518854,782.3333333333334L3353.8006575226245,786.5" id="edge41" class="transition" marker-end="url(#statediagram-barbEnd)"></path><path d="M4459.430553591629,976.5L4471.584706118024,980.6666666666666C4483.738858644419,984.8333333333334,4508.04716369721,993.1666666666666,4520.201316223604,1003.0833333333334C4532.35546875,1013,4532.35546875,1024.5,4532.35546875,1041.0416666666667C4532.35546875,1057.5833333333333,4532.35546875,1079.1666666666667,4532.35546875,1100.75C4532.35546875,1122.3333333333333,4532.35546875,1143.9166666666667,4532.35546875,1160.4583333333333C4532.35546875,1177,4532.35546875,1188.5,4532.35546875,1203.4583333333333C4532.35546875,1218.4166666666667,4532.35546875,1236.8333333333333,4532.35546875,1256.8333333333333C4532.35546875,1276.8333333333333,4532.35546875,1298.4166666666667,4532.35546875,1314.9583333333333C4532.35546875,1331.5,4532.35546875,1343,4532.35546875,1357.9583333333333C4532.35546875,1372.9166666666667,4532.35546875,1391.3333333333333,4532.35546875,1409.75C4532.35546875,1428.1666666666667,4532.35546875,1446.5833333333333,4532.35546875,1461.5416666666667C4532.35546875,1476.5,4532.35546875,1488,4532.35546875,1504.5416666666667C4532.35546875,1521.0833333333333,4532.35546875,1542.6666666666667,4532.35546875,1562.6666666666667C4532.35546875,1582.6666666666667,4532.35546875,1601.0833333333333,4532.35546875,1616.0416666666667C4532.35546875,1631,4532.35546875,1642.5,4532.35546875,1659.0416666666667C4532.35546875,1675.5833333333333,4532.35546875,1697.1666666666667,4532.35546875,1718.75C4532.35546875,1740.3333333333333,4532.35546875,1761.9166666666667,4532.35546875,1783.5C4532.35546875,1805.0833333333333,4532.35546875,1826.6666666666667,4532.35546875,1848.25C4532.35546875,1869.8333333333333,4532.35546875,1891.4166666666667,4349.208984375,1907.9583333333333C4166.0625,1924.5,3799.76953125,1936,3616.623046875,1950.9583333333333C3433.4765625,1965.9166666666667,3433.4765625,1984.3333333333333,3433.4765625,2004.3333333333333C3433.4765625,2024.3333333333333,3433.4765625,2045.9166666666667,3204.970703125,2066.8531329931834C2976.46484375,2087.7895993197003,2519.453125,2108.079198639401,2290.947265625,2118.2239982992514L2062.44140625,2128.368797959102" id="edge42" class="transition" marker-end="url(#statediagram-barbEnd)"></path><path d="M216.125,1434.75L216.125,1439.7916666666667C216.125,1444.8333333333333,216.125,1454.9166666666667,216.125,1465.7083333333333C216.125,1476.5,216.125,1488,306.2682291666667,1502.8173837409229C396.4114583333333,1517.6347674818455,576.6979166666666,1535.7695349636913,666.8411458333334,1544.836918704614L756.984375,1553.9043024455368" class="transition note-edge"></path><path d="M1235.83203125,2027.75L1235.83203125,2034.375C1235.83203125,2041,1235.83203125,2054.25,1344.4596354166667,2070.390362975959C1453.0872395833333,2086.5307259519177,1670.3424479166667,2105.561451903836,1778.9700520833333,2115.0768148797947L1887.59765625,2124.5921778557536" class="transition note-edge"></path><path d="M2603.32421875,564.5L2603.32421875,570.25C2603.32421875,576,2603.32421875,587.5,2666.2701822916665,600.1211723534558C2729.2161458333335,612.7423447069117,2855.1080729166665,626.4846894138233,2918.0540364583335,633.3558617672791L2981,640.2270341207349" class="transition note-edge"></path><path d="M4371.19140625,841.75L4371.19140625,848.375C4371.19140625,855,4371.19140625,868.25,4371.19140625,880.625C4371.19140625,893,4371.19140625,904.5,4371.19140625,910.25L4371.19140625,916" class="transition note-edge"></path><path d="M2114.16015625,1280.25L2114.16015625,1286.875C2114.16015625,1293.5,2114.16015625,1306.75,2114.16015625,1319.125C2114.16015625,1331.5,2114.16015625,1343,2119.514605722097,1352.9166666666667C2124.869055194193,1362.8333333333333,2135.577954138386,1371.1666666666667,2140.9324036104827,1375.3333333333333L2146.286853082579,1379.5" class="transition note-edge"></path><path d="M4302.640625,2290.5L4302.640625,2294.6666666666665C4302.640625,2298.8333333333335,4302.640625,2307.1666666666665,3718.7187015332383,2316.656032440751C3134.796778066477,2326.145398214835,1966.9529311329545,2336.79079642967,1383.0310076661933,2342.1134955370876L799.1090841994318,2347.436194644505" id="edge43" class="transition" marker-end="url(#statediagram-barbEnd)"></path><path d="M367.16796875,2290.5L367.16796875,2294.6666666666665C367.16796875,2298.8333333333335,367.16796875,2307.1666666666665,436.8281637366811,2316.5790594658965C506.48835872336235,2325.9914522651266,645.8087486967247,2336.482904530253,715.4689436834059,2341.728630662816L785.1291386700871,2346.9743567953797" id="edge44" class="transition" marker-end="url(#statediagram-barbEnd)"></path><path d="M572.83984375,2290.5L572.83984375,2294.6666666666665C572.83984375,2298.8333333333335,572.83984375,2307.1666666666665,608.2303279236764,2316.4981890572526C643.6208120973529,2325.8297114478387,714.4017804447058,2336.159422895677,749.7922646183821,2341.324278619596L785.1827487920586,2346.489134343515" id="edge45" class="transition" marker-end="url(#statediagram-barbEnd)"></path></g><g class="edgeLabels"><g class="edgeLabel"><g class="label" transform="translate(0, 0)"><rect rx="0" ry="0" width="0" height="0" style="fill:#e8e8e8;"></rect><text style=""></text></g></g><g class="edgeLabel"><g class="label" transform="translate(0, 0)"><rect rx="0" ry="0" width="0" height="0" style="fill:#e8e8e8;"></rect><text style=""></text></g></g><g class="edgeLabel" transform="translate(1769.37109375, 165.5)"><g class="label" transform="translate(-68.6875, -9.5)"><rect rx="0" ry="0" width="137.296875" height="19.03125" style="fill:#e8e8e8;"></rect><text style=""><tspan xml:space="preserve" dy="1em" x="0" class="row">ProviderEventOpen</tspan></text></g></g><g class="edgeLabel" transform="translate(3830.23828125, 1100.75)"><g class="label" transform="translate(-98.203125, -9.5)"><rect rx="0" ry="0" width="196.296875" height="19.03125" style="fill:#e8e8e8;"></rect><text style=""><tspan xml:space="preserve" dy="1em" x="0" class="row">ProviderEventDealRejected</tspan></text></g></g><g class="edgeLabel" transform="translate(3968.3671875, 1165.5)"><g class="label" transform="translate(-98.203125, -9.5)"><rect rx="0" ry="0" width="196.296875" height="19.03125" style="fill:#e8e8e8;"></rect><text style=""><tspan xml:space="preserve" dy="1em" x="0" class="row">ProviderEventDealRejected</tspan></text></g></g><g class="edgeLabel" transform="translate(2888.80859375, 1409.75)"><g class="label" transform="translate(-98.203125, -9.5)"><rect rx="0" ry="0" width="196.296875" height="19.03125" style="fill:#e8e8e8;"></rect><text style=""><tspan xml:space="preserve" dy="1em" x="0" class="row">ProviderEventDealRejected</tspan></text></g></g><g class="edgeLabel" transform="translate(3634.71875, 2067.5)"><g class="label" transform="translate(-100.25, -9.5)"><rect rx="0" ry="0" width="200.375" height="19.03125" style="fill:#e8e8e8;"></rect><text style=""><tspan xml:space="preserve" dy="1em" x="0" class="row">ProviderEventRejectionSent</tspan></text></g></g><g class="edgeLabel" transform="translate(4491.42578125, 325.5)"><g class="label" transform="translate(-96.5703125, -9.5)"><rect rx="0" ry="0" width="193.03125" height="19.03125" style="fill:#e8e8e8;"></rect><text style=""><tspan xml:space="preserve" dy="1em" x="0" class="row">ProviderEventDealDeciding</tspan></text></g></g><g class="edgeLabel" transform="translate(4636.41796875, 455)"><g class="label" transform="translate(-104.03125, -9.5)"><rect rx="0" ry="0" width="207.9375" height="19.03125" style="fill:#e8e8e8;"></rect><text style=""><tspan xml:space="preserve" dy="1em" x="0" class="row">ProviderEventDataRequested</tspan></text></g></g><g class="edgeLabel" transform="translate(2539.18359375, 1409.75)"><g class="label" transform="translate(-118.4453125, -9.5)"><rect rx="0" ry="0" width="236.75" height="19.03125" style="fill:#e8e8e8;"></rect><text style=""><tspan xml:space="preserve" dy="1em" x="0" class="row">ProviderEventDataTransferFailed</tspan></text></g></g><g class="edgeLabel" transform="translate(3075.109375, 599)"><g class="label" transform="translate(-127.109375, -9.5)"><rect rx="0" ry="0" width="254.0625" height="19.03125" style="fill:#e8e8e8;"></rect><text style=""><tspan xml:space="preserve" dy="1em" x="0" class="row">ProviderEventDataTransferInitiated</tspan></text></g></g><g class="edgeLabel" transform="translate(3416.03515625, 1499.5)"><g class="label" transform="translate(-144.359375, -9.5)"><rect rx="0" ry="0" width="288.546875" height="19.03125" style="fill:#e8e8e8;"></rect><text style=""><tspan xml:space="preserve" dy="1em" x="0" class="row">ProviderEventDataTransferRestartFailed</tspan></text></g></g><g class="edgeLabel" transform="translate(3529.703125, 727)"><g class="label" transform="translate(-131.3203125, -9.5)"><rect rx="0" ry="0" width="262.484375" height="19.03125" style="fill:#e8e8e8;"></rect><text style=""><tspan xml:space="preserve" dy="1em" x="0" class="row">ProviderEventDataTransferRestarted</tspan></text></g></g><g class="edgeLabel" transform="translate(3603.2578125, 599)"><g class="label" transform="translate(-131.3203125, -9.5)"><rect rx="0" ry="0" width="262.484375" height="19.03125" style="fill:#e8e8e8;"></rect><text style=""><tspan xml:space="preserve" dy="1em" x="0" class="row">ProviderEventDataTransferRestarted</tspan></text></g></g><g class="edgeLabel" transform="translate(2964.01953125, 727)"><g class="label" transform="translate(-135.4765625, -9.5)"><rect rx="0" ry="0" width="270.78125" height="19.03125" style="fill:#e8e8e8;"></rect><text style=""><tspan xml:space="preserve" dy="1em" x="0" class="row">ProviderEventDataTransferCompleted</tspan></text></g></g><g class="edgeLabel" transform="translate(3039.23046875, 1499.5)"><g class="label" transform="translate(-130.421875, -9.5)"><rect rx="0" ry="0" width="260.6875" height="19.03125" style="fill:#e8e8e8;"></rect><text style=""><tspan xml:space="preserve" dy="1em" x="0" class="row">ProviderEventDataVerificationFailed</tspan></text></g></g><g class="edgeLabel" transform="translate(4636.41796875, 727)"><g class="label" transform="translate(-95.1015625, -9.5)"><rect rx="0" ry="0" width="190.078125" height="19.03125" style="fill:#e8e8e8;"></rect><text style=""><tspan xml:space="preserve" dy="1em" x="0" class="row">ProviderEventVerifiedData</tspan></text></g></g><g class="edgeLabel" transform="translate(4170.73046875, 881.5)"><g class="label" transform="translate(-95.1015625, -9.5)"><rect rx="0" ry="0" width="190.078125" height="19.03125" style="fill:#e8e8e8;"></rect><text style=""><tspan xml:space="preserve" dy="1em" x="0" class="row">ProviderEventVerifiedData</tspan></text></g></g><g class="edgeLabel" transform="translate(4190.73046875, 1036)"><g class="label" transform="translate(-108.6953125, -9.5)"><rect rx="0" ry="0" width="217.265625" height="19.03125" style="fill:#e8e8e8;"></rect><text style=""><tspan xml:space="preserve" dy="1em" x="0" class="row">ProviderEventFundingInitiated</tspan></text></g></g><g class="edgeLabel" transform="translate(4416.73828125, 1100.75)"><g class="label" transform="translate(-76.3203125, -9.5)"><rect rx="0" ry="0" width="152.546875" height="19.03125" style="fill:#e8e8e8;"></rect><text style=""><tspan xml:space="preserve" dy="1em" x="0" class="row">ProviderEventFunded</tspan></text></g></g><g class="edgeLabel" transform="translate(4190.73046875, 1165.5)"><g class="label" transform="translate(-76.3203125, -9.5)"><rect rx="0" ry="0" width="152.546875" height="19.03125" style="fill:#e8e8e8;"></rect><text style=""><tspan xml:space="preserve" dy="1em" x="0" class="row">ProviderEventFunded</tspan></text></g></g><g class="edgeLabel" transform="translate(2256.16015625, 1320)"><g class="label" transform="translate(-122, -9.5)"><rect rx="0" ry="0" width="243.859375" height="19.03125" style="fill:#e8e8e8;"></rect><text style=""><tspan xml:space="preserve" dy="1em" x="0" class="row">ProviderEventDealPublishInitiated</tspan></text></g></g><g class="edgeLabel" transform="translate(2175.16015625, 1783.5)"><g class="label" transform="translate(-109.3828125, -9.5)"><rect rx="0" ry="0" width="218.625" height="19.03125" style="fill:#e8e8e8;"></rect><text style=""><tspan xml:space="preserve" dy="1em" x="0" class="row">ProviderEventDealPublishError</tspan></text></g></g><g class="edgeLabel" transform="translate(3876.953125, 2067.5)"><g class="label" transform="translate(-121.984375, -9.5)"><rect rx="0" ry="0" width="243.828125" height="19.03125" style="fill:#e8e8e8;"></rect><text style=""><tspan xml:space="preserve" dy="1em" x="0" class="row">ProviderEventSendResponseFailed</tspan></text></g></g><g class="edgeLabel" transform="translate(4777.69140625, 1255.25)"><g class="label" transform="translate(-121.984375, -9.5)"><rect rx="0" ry="0" width="243.828125" height="19.03125" style="fill:#e8e8e8;"></rect><text style=""><tspan xml:space="preserve" dy="1em" x="0" class="row">ProviderEventSendResponseFailed</tspan></text></g></g><g class="edgeLabel" transform="translate(976.23828125, 1499.5)"><g class="label" transform="translate(-100.296875, -9.5)"><rect rx="0" ry="0" width="200.46875" height="19.03125" style="fill:#e8e8e8;"></rect><text style=""><tspan xml:space="preserve" dy="1em" x="0" class="row">ProviderEventDealPublished</tspan></text></g></g><g class="edgeLabel" transform="translate(132.0625, 1848.25)"><g class="label" transform="translate(-108.8203125, -9.5)"><rect rx="0" ry="0" width="217.5" height="19.03125" style="fill:#e8e8e8;"></rect><text style=""><tspan xml:space="preserve" dy="1em" x="0" class="row">ProviderEventFileStoreErrored</tspan></text></g></g><g class="edgeLabel" transform="translate(773.515625, 1913)"><g class="label" transform="translate(-108.8203125, -9.5)"><rect rx="0" ry="0" width="217.5" height="19.03125" style="fill:#e8e8e8;"></rect><text style=""><tspan xml:space="preserve" dy="1em" x="0" class="row">ProviderEventFileStoreErrored</tspan></text></g></g><g class="edgeLabel" transform="translate(1107.01171875, 2067.5)"><g class="label" transform="translate(-108.8203125, -9.5)"><rect rx="0" ry="0" width="217.5" height="19.03125" style="fill:#e8e8e8;"></rect><text style=""><tspan xml:space="preserve" dy="1em" x="0" class="row">ProviderEventFileStoreErrored</tspan></text></g></g><g class="edgeLabel" transform="translate(373.75, 1848.25)"><g class="label" transform="translate(-112.8671875, -9.5)"><rect rx="0" ry="0" width="225.59375" height="19.03125" style="fill:#e8e8e8;"></rect><text style=""><tspan xml:space="preserve" dy="1em" x="0" class="row">ProviderEventMultistoreErrored</tspan></text></g></g><g class="edgeLabel" transform="translate(622.890625, 1848.25)"><g class="label" transform="translate(-116.2734375, -9.5)"><rect rx="0" ry="0" width="232.40625" height="19.03125" style="fill:#e8e8e8;"></rect><text style=""><tspan xml:space="preserve" dy="1em" x="0" class="row">ProviderEventDealHandoffFailed</tspan></text></g></g><g class="edgeLabel" transform="translate(1054.46875, 1654)"><g class="label" transform="translate(-104.3671875, -9.5)"><rect rx="0" ry="0" width="208.609375" height="19.03125" style="fill:#e8e8e8;"></rect><text style=""><tspan xml:space="preserve" dy="1em" x="0" class="row">ProviderEventDealHandedOff</tspan></text></g></g><g class="edgeLabel" transform="translate(1026.5078125, 1913)"><g class="label" transform="translate(-124.171875, -9.5)"><rect rx="0" ry="0" width="248.1875" height="19.03125" style="fill:#e8e8e8;"></rect><text style=""><tspan xml:space="preserve" dy="1em" x="0" class="row">ProviderEventDealActivationFailed</tspan></text></g></g><g class="edgeLabel" transform="translate(1279.2578125, 1783.5)"><g class="label" transform="translate(-100.1796875, -9.5)"><rect rx="0" ry="0" width="200.234375" height="19.03125" style="fill:#e8e8e8;"></rect><text style=""><tspan xml:space="preserve" dy="1em" x="0" class="row">ProviderEventDealActivated</tspan></text></g></g><g class="edgeLabel" transform="translate(1279.2578125, 1913)"><g class="label" transform="translate(-108.578125, -9.5)"><rect rx="0" ry="0" width="217.015625" height="19.03125" style="fill:#e8e8e8;"></rect><text style=""><tspan xml:space="preserve" dy="1em" x="0" class="row">ProviderEventCleanupFinished</tspan></text></g></g><g class="edgeLabel" transform="translate(367.16796875, 2132.25)"><g class="label" transform="translate(-92.7734375, -9.5)"><rect rx="0" ry="0" width="185.4375" height="19.03125" style="fill:#e8e8e8;"></rect><text style=""><tspan xml:space="preserve" dy="1em" x="0" class="row">ProviderEventDealSlashed</tspan></text></g></g><g class="edgeLabel" transform="translate(572.83984375, 2132.25)"><g class="label" transform="translate(-92.8984375, -9.5)"><rect rx="0" ry="0" width="185.6875" height="19.03125" style="fill:#e8e8e8;"></rect><text style=""><tspan xml:space="preserve" dy="1em" x="0" class="row">ProviderEventDealExpired</tspan></text></g></g><g class="edgeLabel" transform="translate(814.55078125, 2132.25)"><g class="label" transform="translate(-128.8125, -9.5)"><rect rx="0" ry="0" width="257.46875" height="19.03125" style="fill:#e8e8e8;"></rect><text style=""><tspan xml:space="preserve" dy="1em" x="0" class="row">ProviderEventDealCompletionFailed</tspan></text></g></g><g class="edgeLabel" transform="translate(1975.01953125, 2222)"><g class="label" transform="translate(-71.96875, -9.5)"><rect rx="0" ry="0" width="143.84375" height="19.03125" style="fill:#e8e8e8;"></rect><text style=""><tspan xml:space="preserve" dy="1em" x="0" class="row">ProviderEventFailed</tspan></text></g></g><g class="edgeLabel" transform="translate(5056.8046875, 2132.25)"><g class="label" transform="translate(-76.015625, -9.5)"><rect rx="0" ry="0" width="151.9375" height="19.03125" style="fill:#e8e8e8;"></rect><text style=""><tspan xml:space="preserve" dy="1em" x="0" class="row">ProviderEventRestart</tspan></text></g></g><g class="edgeLabel" transform="translate(5285.6484375, 1255.25)"><g class="label" transform="translate(-76.015625, -9.5)"><rect rx="0" ry="0" width="151.9375" height="19.03125" style="fill:#e8e8e8;"></rect><text style=""><tspan xml:space="preserve" dy="1em" x="0" class="row">ProviderEventRestart</tspan></text></g></g><g class="edgeLabel" transform="translate(5189.6328125, 1320)"><g class="label" transform="translate(-76.015625, -9.5)"><rect rx="0" ry="0" width="151.9375" height="19.03125" style="fill:#e8e8e8;"></rect><text style=""><tspan xml:space="preserve" dy="1em" x="0" class="row">ProviderEventRestart</tspan></text></g></g><g class="edgeLabel" transform="translate(3302.3671875, 727)"><g class="label" transform="translate(-76.015625, -9.5)"><rect rx="0" ry="0" width="151.9375" height="19.03125" style="fill:#e8e8e8;"></rect><text style=""><tspan xml:space="preserve" dy="1em" x="0" class="row">ProviderEventRestart</tspan></text></g></g><g class="edgeLabel" transform="translate(4532.35546875, 1564.25)"><g class="label" transform="translate(-112.5546875, -9.5)"><rect rx="0" ry="0" width="224.984375" height="19.03125" style="fill:#e8e8e8;"></rect><text style=""><tspan xml:space="preserve" dy="1em" x="0" class="row">ProviderEventTrackFundsFailed</tspan></text></g></g><g class="edgeLabel"><g class="label" transform="translate(0, 0)"><rect rx="0" ry="0" width="0" height="0" style="fill:#e8e8e8;"></rect><text style=""></text></g></g><g class="edgeLabel"><g class="label" transform="translate(0, 0)"><rect rx="0" ry="0" width="0" height="0" style="fill:#e8e8e8;"></rect><text style=""></text></g></g><g class="edgeLabel"><g class="label" transform="translate(0, 0)"><rect rx="0" ry="0" width="0" height="0" style="fill:#e8e8e8;"></rect><text style=""></text></g></g><g class="edgeLabel"><g class="label" transform="translate(0, 0)"><rect rx="0" ry="0" width="0" height="0" style="fill:#e8e8e8;"></rect><text style=""></text></g></g><g class="edgeLabel"><g class="label" transform="translate(0, 0)"><rect rx="0" ry="0" width="0" height="0" style="fill:#e8e8e8;"></rect><text style=""></text></g></g><g class="edgeLabel"><g class="label" transform="translate(0, 0)"><rect rx="0" ry="0" width="0" height="0" style="fill:#e8e8e8;"></rect><text style=""></text></g></g><g class="edgeLabel"><g class="label" transform="translate(0, 0)"><rect rx="0" ry="0" width="0" height="0" style="fill:#e8e8e8;"></rect><text style=""></text></g></g><g class="edgeLabel"><g class="label" transform="translate(0, 0)"><rect rx="0" ry="0" width="0" height="0" style="fill:#e8e8e8;"></rect><text style=""></text></g></g></g><g class="nodes"><g class="node statediagram-state" id="0" transform="translate(1658.69140625, 114)"><rect class="outer title-state" x="-82.921875" y="-17" width="165.84375" height="34"></rect><line class="divider" x1="-82.921875" x2="82.921875" y1="9.5" y2="9.5"></line><g class="label" transform="translate(-75.421875, -14)"><text style=""><tspan xml:space="preserve" dy="1em" x="0" class="title-row">StorageDealUnknown</tspan></text><text style="" transform="translate( 0, 26.5)"><tspan xml:space="preserve" dy="1em" x="0" class="title-row"></tspan></text></g></g><g class="node statediagram-state" id="4" transform="translate(859.8359375, 1564.25)"><rect class="outer title-state" x="-102.8515625" y="-30.25" width="205.703125" height="60.5"></rect><line class="divider" x1="-102.8515625" x2="102.8515625" y1="-3.75" y2="-3.75"></line><g class="label" transform="translate(-95.3515625, -27.25)"><text style=""><tspan xml:space="preserve" dy="1em" x="0" class="title-row">StorageDealStaged</tspan></text><text style="" transform="translate( 0, 26.5)"><tspan xml:space="preserve" dy="1em" x="0" class="title-row">On entry runs HandoffDeal</tspan></text></g></g><g class="node statediagram-state" id="5" transform="translate(1054.46875, 1718.75)"><rect class="outer title-state" x="-129.9765625" y="-30.25" width="259.953125" height="60.5"></rect><line class="divider" x1="-129.9765625" x2="129.9765625" y1="-3.75" y2="-3.75"></line><g class="label" transform="translate(-122.4765625, -27.25)"><text style=""><tspan xml:space="preserve" dy="1em" x="0" class="title-row">StorageDealSealing</tspan></text><text style="" transform="translate( 0, 26.5)"><tspan xml:space="preserve" dy="1em" x="0" class="title-row">On entry runs VerifyDealActivated</tspan></text></g></g><g class="node statediagram-state" id="6" transform="translate(1279.2578125, 1848.25)"><rect class="outer title-state" x="-103.2890625" y="-30.25" width="206.578125" height="60.5"></rect><line class="divider" x1="-103.2890625" x2="103.2890625" y1="-3.75" y2="-3.75"></line><g class="label" transform="translate(-95.7890625, -27.25)"><text style=""><tspan xml:space="preserve" dy="1em" x="0" class="title-row">StorageDealFinalizing</tspan></text><text style="" transform="translate( 0, 26.5)"><tspan xml:space="preserve" dy="1em" x="0" class="title-row">On entry runs CleanupDeal</tspan></text></g></g><g class="node statediagram-state" id="7" transform="translate(693.6953125, 2002.75)"><rect class="outer title-state" x="-143.46875" y="-30.25" width="286.9375" height="60.5"></rect><line class="divider" x1="-143.46875" x2="143.46875" y1="-3.75" y2="-3.75"></line><g class="label" transform="translate(-135.96875, -27.25)"><text style=""><tspan xml:space="preserve" dy="1em" x="0" class="title-row">StorageDealActive</tspan></text><text style="" transform="translate( 0, 26.5)"><tspan xml:space="preserve" dy="1em" x="0" class="title-row">On entry runs WaitForDealCompletion</tspan></text></g></g><g class="node statediagram-state" id="8" transform="translate(572.83984375, 2273.5)"><rect class="outer title-state" x="-77.296875" y="-17" width="154.59375" height="34"></rect><line class="divider" x1="-77.296875" x2="77.296875" y1="9.5" y2="9.5"></line><g class="label" transform="translate(-69.796875, -14)"><text style=""><tspan xml:space="preserve" dy="1em" x="0" class="title-row">StorageDealExpired</tspan></text><text style="" transform="translate( 0, 26.5)"><tspan xml:space="preserve" dy="1em" x="0" class="title-row"></tspan></text></g></g><g class="node statediagram-state" id="9" transform="translate(367.16796875, 2273.5)"><rect class="outer title-state" x="-77.1796875" y="-17" width="154.359375" height="34"></rect><line class="divider" x1="-77.1796875" x2="77.1796875" y1="9.5" y2="9.5"></line><g class="label" transform="translate(-69.6796875, -14)"><text style=""><tspan xml:space="preserve" dy="1em" x="0" class="title-row">StorageDealSlashed</tspan></text><text style="" transform="translate( 0, 26.5)"><tspan xml:space="preserve" dy="1em" x="0" class="title-row"></tspan></text></g></g><g class="node statediagram-state" id="10" transform="translate(4188.21875, 2002.75)"><rect class="outer title-state" x="-97.828125" y="-30.25" width="195.65625" height="60.5"></rect><line class="divider" x1="-97.828125" x2="97.828125" y1="-3.75" y2="-3.75"></line><g class="label" transform="translate(-90.328125, -27.25)"><text style=""><tspan xml:space="preserve" dy="1em" x="0" class="title-row">StorageDealRejecting</tspan></text><text style="" transform="translate( 0, 26.5)"><tspan xml:space="preserve" dy="1em" x="0" class="title-row">On entry runs RejectDeal</tspan></text></g></g><g class="node statediagram-state" id="11" transform="translate(1975.01953125, 2132.25)"><rect class="outer title-state" x="-87.421875" y="-30.25" width="174.84375" height="60.5"></rect><line class="divider" x1="-87.421875" x2="87.421875" y1="-3.75" y2="-3.75"></line><g class="label" transform="translate(-79.921875, -27.25)"><text style=""><tspan xml:space="preserve" dy="1em" x="0" class="title-row">StorageDealFailing</tspan></text><text style="" transform="translate( 0, 26.5)"><tspan xml:space="preserve" dy="1em" x="0" class="title-row">On entry runs FailDeal</tspan></text></g></g><g class="node statediagram-state" id="14" transform="translate(4530.7578125, 233)"><rect class="outer title-state" x="-134.53125" y="-30.25" width="269.0625" height="60.5"></rect><line class="divider" x1="-134.53125" x2="134.53125" y1="-3.75" y2="-3.75"></line><g class="label" transform="translate(-127.03125, -27.25)"><text style=""><tspan xml:space="preserve" dy="1em" x="0" class="title-row">StorageDealValidating</tspan></text><text style="" transform="translate( 0, 26.5)"><tspan xml:space="preserve" dy="1em" x="0" class="title-row">On entry runs ValidateDealProposal</tspan></text></g></g><g class="node statediagram-state" id="15" transform="translate(4491.42578125, 390.25)"><rect class="outer title-state" x="-123.0546875" y="-30.25" width="246.109375" height="60.5"></rect><line class="divider" x1="-123.0546875" x2="123.0546875" y1="-3.75" y2="-3.75"></line><g class="label" transform="translate(-115.5546875, -27.25)"><text style=""><tspan xml:space="preserve" dy="1em" x="0" class="title-row">StorageDealAcceptWait</tspan></text><text style="" transform="translate( 0, 26.5)"><tspan xml:space="preserve" dy="1em" x="0" class="title-row">On entry runs DecideOnProposal</tspan></text></g></g><g class="node statediagram-state" id="17" transform="translate(3075.109375, 650.5)"><rect class="outer title-state" x="-94.109375" y="-17" width="188.21875" height="34"></rect><line class="divider" x1="-94.109375" x2="94.109375" y1="9.5" y2="9.5"></line><g class="label" transform="translate(-86.609375, -14)"><text style=""><tspan xml:space="preserve" dy="1em" x="0" class="title-row">StorageDealTransferring</tspan></text><text style="" transform="translate( 0, 26.5)"><tspan xml:space="preserve" dy="1em" x="0" class="title-row"></tspan></text></g></g><g class="node statediagram-state" id="18" transform="translate(3416.03515625, 816.75)"><rect class="outer title-state" x="-136.2421875" y="-30.25" width="272.484375" height="60.5"></rect><line class="divider" x1="-136.2421875" x2="136.2421875" y1="-3.75" y2="-3.75"></line><g class="label" transform="translate(-128.7421875, -27.25)"><text style=""><tspan xml:space="preserve" dy="1em" x="0" class="title-row">StorageDealProviderTransferRestart</tspan></text><text style="" transform="translate( 0, 26.5)"><tspan xml:space="preserve" dy="1em" x="0" class="title-row">On entry runs RestartDataTransfer</tspan></text></g></g><g class="node statediagram-state" id="20" transform="translate(4636.41796875, 539.5)"><rect class="outer title-state" x="-105.5625" y="-17" width="211.125" height="34"></rect><line class="divider" x1="-105.5625" x2="105.5625" y1="9.5" y2="9.5"></line><g class="label" transform="translate(-98.0625, -14)"><text style=""><tspan xml:space="preserve" dy="1em" x="0" class="title-row">StorageDealWaitingForData</tspan></text><text style="" transform="translate( 0, 26.5)"><tspan xml:space="preserve" dy="1em" x="0" class="title-row"></tspan></text></g></g><g class="node statediagram-state" id="21" transform="translate(2964.01953125, 816.75)"><rect class="outer title-state" x="-96.3828125" y="-30.25" width="192.765625" height="60.5"></rect><line class="divider" x1="-96.3828125" x2="96.3828125" y1="-3.75" y2="-3.75"></line><g class="label" transform="translate(-88.8828125, -27.25)"><text style=""><tspan xml:space="preserve" dy="1em" x="0" class="title-row">StorageDealVerifyData</tspan></text><text style="" transform="translate( 0, 26.5)"><tspan xml:space="preserve" dy="1em" x="0" class="title-row">On entry runs VerifyData</tspan></text></g></g><g class="node statediagram-state" id="22" transform="translate(4371.19140625, 946.25)"><rect class="outer title-state" x="-132.9140625" y="-30.25" width="265.828125" height="60.5"></rect><line class="divider" x1="-132.9140625" x2="132.9140625" y1="-3.75" y2="-3.75"></line><g class="label" transform="translate(-125.4140625, -27.25)"><text style=""><tspan xml:space="preserve" dy="1em" x="0" class="title-row">StorageDealEnsureProviderFunds</tspan></text><text style="" transform="translate( 0, 26.5)"><tspan xml:space="preserve" dy="1em" x="0" class="title-row">On entry runs EnsureProviderFunds</tspan></text></g></g><g class="node statediagram-state" id="24" transform="translate(4190.73046875, 1100.75)"><rect class="outer title-state" x="-114.6875" y="-30.25" width="229.375" height="60.5"></rect><line class="divider" x1="-114.6875" x2="114.6875" y1="-3.75" y2="-3.75"></line><g class="label" transform="translate(-107.1875, -27.25)"><text style=""><tspan xml:space="preserve" dy="1em" x="0" class="title-row">StorageDealProviderFunding</tspan></text><text style="" transform="translate( 0, 26.5)"><tspan xml:space="preserve" dy="1em" x="0" class="title-row">On entry runs WaitForFunding</tspan></text></g></g><g class="node statediagram-state" id="26" transform="translate(4303.734375, 1255.25)"><rect class="outer title-state" x="-99.9140625" y="-30.25" width="199.828125" height="60.5"></rect><line class="divider" x1="-99.9140625" x2="99.9140625" y1="-3.75" y2="-3.75"></line><g class="label" transform="translate(-92.4140625, -27.25)"><text style=""><tspan xml:space="preserve" dy="1em" x="0" class="title-row">StorageDealPublish</tspan></text><text style="" transform="translate( 0, 26.5)"><tspan xml:space="preserve" dy="1em" x="0" class="title-row">On entry runs PublishDeal</tspan></text></g></g><g class="node statediagram-state" id="27" transform="translate(2185.16015625, 1409.75)"><rect class="outer title-state" x="-112.15625" y="-30.25" width="224.3125" height="60.5"></rect><line class="divider" x1="-112.15625" x2="112.15625" y1="-3.75" y2="-3.75"></line><g class="label" transform="translate(-104.65625, -27.25)"><text style=""><tspan xml:space="preserve" dy="1em" x="0" class="title-row">StorageDealPublishing</tspan></text><text style="" transform="translate( 0, 26.5)"><tspan xml:space="preserve" dy="1em" x="0" class="title-row">On entry runs WaitForPublish</tspan></text></g></g><g class="node statediagram-state" id="28" transform="translate(4302.640625, 2273.5)"><rect class="outer title-state" x="-68.2421875" y="-17" width="136.484375" height="34"></rect><line class="divider" x1="-68.2421875" x2="68.2421875" y1="9.5" y2="9.5"></line><g class="label" transform="translate(-60.7421875, -14)"><text style=""><tspan xml:space="preserve" dy="1em" x="0" class="title-row">StorageDealError</tspan></text><text style="" transform="translate( 0, 26.5)"><tspan xml:space="preserve" dy="1em" x="0" class="title-row"></tspan></text></g></g><g class="node default" id="root_start" transform="translate(1658.69140625, 15)"><circle class="state-start" r="7" width="14" height="14"></circle></g><g class="node statediagram-note" id="0----note" transform="translate(1614.34765625, 233)"><rect x="-275.046875" y="-33" width="550.09375" height="66"></rect><g class="label" transform="translate(-267.546875, -25.5)"><text style=""><tspan xml:space="preserve" dy="1em" x="0" class="row">The following events are not shown cause they can trigger from any state.</tspan><tspan xml:space="preserve" dy="1em" x="0" class="row"></tspan><tspan xml:space="preserve" dy="1em" x="0" class="row">ProviderEventNodeErrored - transitions state to StorageDealFailing</tspan><tspan xml:space="preserve" dy="1em" x="0" class="row">ProviderEventRestart - does not transition state</tspan></text></g></g><g class="node statediagram-note" id="4----note" transform="translate(216.125, 1409.75)"><rect x="-173.125" y="-25" width="346.25" height="50"></rect><g class="label" transform="translate(-165.625, -17.5)"><text style=""><tspan xml:space="preserve" dy="1em" x="0" class="row">The following events only record in this state.</tspan><tspan xml:space="preserve" dy="1em" x="0" class="row"></tspan><tspan xml:space="preserve" dy="1em" x="0" class="row">ProviderEventPieceStoreErrored</tspan></text></g></g><g class="node statediagram-note" id="11----note" transform="translate(1235.83203125, 2002.75)"><rect x="-173.125" y="-25" width="346.25" height="50"></rect><g class="label" transform="translate(-165.625, -17.5)"><text style=""><tspan xml:space="preserve" dy="1em" x="0" class="row">The following events only record in this state.</tspan><tspan xml:space="preserve" dy="1em" x="0" class="row"></tspan><tspan xml:space="preserve" dy="1em" x="0" class="row">ProviderEventFundsReleased</tspan></text></g></g><g class="node statediagram-note" id="17----note" transform="translate(2603.32421875, 539.5)"><rect x="-173.125" y="-25" width="346.25" height="50"></rect><g class="label" transform="translate(-165.625, -17.5)"><text style=""><tspan xml:space="preserve" dy="1em" x="0" class="row">The following events only record in this state.</tspan><tspan xml:space="preserve" dy="1em" x="0" class="row"></tspan><tspan xml:space="preserve" dy="1em" x="0" class="row">ProviderEventDataTransferRestarted</tspan></text></g></g><g class="node statediagram-note" id="22----note" transform="translate(4371.19140625, 816.75)"><rect x="-173.125" y="-25" width="346.25" height="50"></rect><g class="label" transform="translate(-165.625, -17.5)"><text style=""><tspan xml:space="preserve" dy="1em" x="0" class="row">The following events only record in this state.</tspan><tspan xml:space="preserve" dy="1em" x="0" class="row"></tspan><tspan xml:space="preserve" dy="1em" x="0" class="row">ProviderEventFundsReserved</tspan></text></g></g><g class="node statediagram-note" id="27----note" transform="translate(2114.16015625, 1255.25)"><rect x="-173.125" y="-25" width="346.25" height="50"></rect><g class="label" transform="translate(-165.625, -17.5)"><text style=""><tspan xml:space="preserve" dy="1em" x="0" class="row">The following events only record in this state.</tspan><tspan xml:space="preserve" dy="1em" x="0" class="row"></tspan><tspan xml:space="preserve" dy="1em" x="0" class="row">ProviderEventFundsReleased</tspan></text></g></g><g class="node default" id="root_end" transform="translate(792.109375, 2347.5)"><circle class="state-start" r="7" width="14" height="14"></circle><circle class="state-end" r="5" width="10" height="10"></circle></g></g></g></g></svg>