<svg id="mermaid-1600597259892" width="4861.26953125" xmlns="http://www.w3.org/2000/svg" class="statediagram" height="2362.5" viewBox="0 0 4861.26953125 2362.5"><style>#mermaid-1600597259892 .label{font-family:'trebuchet ms', verdana, arial;font-family:var(--mermaid-font-family);color:#333}#mermaid-1600597259892 .label text{fill:#333}#mermaid-1600597259892 .node rect,#mermaid-1600597259892 .node circle,#mermaid-1600597259892 .node ellipse,#mermaid-1600597259892 .node polygon,#mermaid-1600597259892 .node path{fill:#ECECFF;stroke:#9370db;stroke-width:1px}#mermaid-1600597259892 .node .label{text-align:center}#mermaid-1600597259892 .node.clickable{cursor:pointer}#mermaid-1600597259892 .arrowheadPath{fill:#333}#mermaid-1600597259892 .edgePath .path{stroke:#333;stroke-width:1.5px}#mermaid-1600597259892 .edgeLabel{background-color:#e8e8e8;text-align:center}#mermaid-1600597259892 .edgeLabel rect{opacity:0.5}#mermaid-1600597259892 .cluster rect{fill:#ffffde;stroke:#aa3;stroke-width:1px}#mermaid-1600597259892 .cluster text{fill:#333}#mermaid-1600597259892 div.mermaidTooltip{position:absolute;text-align:center;max-width:200px;padding:2px;font-family:'trebuchet ms', verdana, arial;font-family:var(--mermaid-font-family);font-size:12px;background:#ffffde;border:1px solid #aa3;border-radius:2px;pointer-events:none;z-index:100}#mermaid-1600597259892 .actor{stroke:#ccf;fill:#ECECFF}#mermaid-1600597259892 text.actor{fill:#000;stroke:none}#mermaid-1600597259892 .actor-line{stroke:grey}#mermaid-1600597259892 .messageLine0{stroke-width:1.5;stroke-dasharray:'2 2';stroke:#333}#mermaid-1600597259892 .messageLine1{stroke-width:1.5;stroke-dasharray:'2 2';stroke:#333}#mermaid-1600597259892 #arrowhead{fill:#333}#mermaid-1600597259892 .sequenceNumber{fill:#fff}#mermaid-1600597259892 #sequencenumber{fill:#333}#mermaid-1600597259892 #crosshead path{fill:#333 !important;stroke:#333 !important}#mermaid-1600597259892 .messageText{fill:#333;stroke:none}#mermaid-1600597259892 .labelBox{stroke:#ccf;fill:#ECECFF}#mermaid-1600597259892 .labelText{fill:#000;stroke:none}#mermaid-1600597259892 .loopText{fill:#000;stroke:none}#mermaid-1600597259892 .loopLine{stroke-width:2;stroke-dasharray:'2 2';stroke:#ccf}#mermaid-1600597259892 .note{stroke:#aa3;fill:#fff5ad}#mermaid-1600597259892 .noteText{fill:black;stroke:none;font-family:'trebuchet ms', verdana, arial;font-family:var(--mermaid-font-family);font-size:14px}#mermaid-1600597259892 .activation0{fill:#f4f4f4;stroke:#666}#mermaid-1600597259892 .activation1{fill:#f4f4f4;stroke:#666}#mermaid-1600597259892 .activation2{fill:#f4f4f4;stroke:#666}#mermaid-1600597259892 .mermaid-main-font{font-family:"trebuchet ms", verdana, arial;font-family:var(--mermaid-font-family)}#mermaid-1600597259892 .section{stroke:none;opacity:0.2}#mermaid-1600597259892 .section0{fill:rgba(102,102,255,0.49)}#mermaid-1600597259892 .section2{fill:#fff400}#mermaid-1600597259892 .section1,#mermaid-1600597259892 .section3{fill:#fff;opacity:0.2}#mermaid-1600597259892 .sectionTitle0{fill:#333}#mermaid-1600597259892 .sectionTitle1{fill:#333}#mermaid-1600597259892 .sectionTitle2{fill:#333}#mermaid-1600597259892 .sectionTitle3{fill:#333}#mermaid-1600597259892 .sectionTitle{text-anchor:start;font-size:11px;text-height:14px;font-family:'trebuchet ms', verdana, arial;font-family:var(--mermaid-font-family)}#mermaid-1600597259892 .grid .tick{stroke:#d3d3d3;opacity:0.8;shape-rendering:crispEdges}#mermaid-1600597259892 .grid .tick text{font-family:'trebuchet ms', verdana, arial;font-family:var(--mermaid-font-family)}#mermaid-1600597259892 .grid path{stroke-width:0}#mermaid-1600597259892 .today{fill:none;stroke:red;stroke-width:2px}#mermaid-1600597259892 .task{stroke-width:2}#mermaid-1600597259892 .taskText{text-anchor:middle;font-family:'trebuchet ms', verdana, arial;font-family:var(--mermaid-font-family)}#mermaid-1600597259892 .taskText:not([font-size]){font-size:11px}#mermaid-1600597259892 .taskTextOutsideRight{fill:#000;text-anchor:start;font-size:11px;font-family:'trebuchet ms', verdana, arial;font-family:var(--mermaid-font-family)}#mermaid-1600597259892 .taskTextOutsideLeft{fill:#000;text-anchor:end;font-size:11px}#mermaid-1600597259892 .task.clickable{cursor:pointer}#mermaid-1600597259892 .taskText.clickable{cursor:pointer;fill:#003163 !important;font-weight:bold}#mermaid-1600597259892 .taskTextOutsideLeft.clickable{cursor:pointer;fill:#003163 !important;font-weight:bold}#mermaid-1600597259892 .taskTextOutsideRight.clickable{cursor:pointer;fill:#003163 !important;font-weight:bold}#mermaid-1600597259892 .taskText0,#mermaid-1600597259892 .taskText1,#mermaid-1600597259892 .taskText2,#mermaid-1600597259892 .taskText3{fill:#fff}#mermaid-1600597259892 .task0,#mermaid-1600597259892 .task1,#mermaid-1600597259892 .task2,#mermaid-1600597259892 .task3{fill:#8a90dd;stroke:#534fbc}#mermaid-1600597259892 .taskTextOutside0,#mermaid-1600597259892 .taskTextOutside2{fill:#000}#mermaid-1600597259892 .taskTextOutside1,#mermaid-1600597259892 .taskTextOutside3{fill:#000}#mermaid-1600597259892 .active0,#mermaid-1600597259892 .active1,#mermaid-1600597259892 .active2,#mermaid-1600597259892 .active3{fill:#bfc7ff;stroke:#534fbc}#mermaid-1600597259892 .activeText0,#mermaid-1600597259892 .activeText1,#mermaid-1600597259892 .activeText2,#mermaid-1600597259892 .activeText3{fill:#000 !important}#mermaid-1600597259892 .done0,#mermaid-1600597259892 .done1,#mermaid-1600597259892 .done2,#mermaid-1600597259892 .done3{stroke:grey;fill:#d3d3d3;stroke-width:2}#mermaid-1600597259892 .doneText0,#mermaid-1600597259892 .doneText1,#mermaid-1600597259892 .doneText2,#mermaid-1600597259892 .doneText3{fill:#000 !important}#mermaid-1600597259892 .crit0,#mermaid-1600597259892 .crit1,#mermaid-1600597259892 .crit2,#mermaid-1600597259892 .crit3{stroke:#f88;fill:red;stroke-width:2}#mermaid-1600597259892 .activeCrit0,#mermaid-1600597259892 .activeCrit1,#mermaid-1600597259892 .activeCrit2,#mermaid-1600597259892 .activeCrit3{stroke:#f88;fill:#bfc7ff;stroke-width:2}#mermaid-1600597259892 .doneCrit0,#mermaid-1600597259892 .doneCrit1,#mermaid-1600597259892 .doneCrit2,#mermaid-1600597259892 .doneCrit3{stroke:#f88;fill:#d3d3d3;stroke-width:2;cursor:pointer;shape-rendering:crispEdges}#mermaid-1600597259892 .milestone{transform:rotate(45deg) scale(0.8, 0.8)}#mermaid-1600597259892 .milestoneText{font-style:italic}#mermaid-1600597259892 .doneCritText0,#mermaid-1600597259892 .doneCritText1,#mermaid-1600597259892 .doneCritText2,#mermaid-1600597259892 .doneCritText3{fill:#000 !important}#mermaid-1600597259892 .activeCritText0,#mermaid-1600597259892 .activeCritText1,#mermaid-1600597259892 .activeCritText2,#mermaid-1600597259892 .activeCritText3{fill:#000 !important}#mermaid-1600597259892 .titleText{text-anchor:middle;font-size:18px;fill:#000;font-family:'trebuchet ms', verdana, arial;font-family:var(--mermaid-font-family)}#mermaid-1600597259892 g.classGroup text{fill:#9370db;stroke:none;font-family:'trebuchet ms', verdana, arial;font-family:var(--mermaid-font-family);font-size:10px}#mermaid-1600597259892 g.classGroup text .title{font-weight:bolder}#mermaid-1600597259892 g.clickable{cursor:pointer}#mermaid-1600597259892 g.classGroup rect{fill:#ECECFF;stroke:#9370db}#mermaid-1600597259892 g.classGroup line{stroke:#9370db;stroke-width:1}#mermaid-1600597259892 .classLabel .box{stroke:none;stroke-width:0;fill:#ECECFF;opacity:0.5}#mermaid-1600597259892 .classLabel .label{fill:#9370db;font-size:10px}#mermaid-1600597259892 .relation{stroke:#9370db;stroke-width:1;fill:none}#mermaid-1600597259892 .dashed-line{stroke-dasharray:3}#mermaid-1600597259892 #compositionStart{fill:#9370db;stroke:#9370db;stroke-width:1}#mermaid-1600597259892 #compositionEnd{fill:#9370db;stroke:#9370db;stroke-width:1}#mermaid-1600597259892 #aggregationStart{fill:#ECECFF;stroke:#9370db;stroke-width:1}#mermaid-1600597259892 #aggregationEnd{fill:#ECECFF;stroke:#9370db;stroke-width:1}#mermaid-1600597259892 #dependencyStart{fill:#9370db;stroke:#9370db;stroke-width:1}#mermaid-1600597259892 #dependencyEnd{fill:#9370db;stroke:#9370db;stroke-width:1}#mermaid-1600597259892 #extensionStart{fill:#9370db;stroke:#9370db;stroke-width:1}#mermaid-1600597259892 #extensionEnd{fill:#9370db;stroke:#9370db;stroke-width:1}#mermaid-1600597259892 .commit-id,#mermaid-1600597259892 .commit-msg,#mermaid-1600597259892 .branch-label{fill:lightgrey;color:lightgrey;font-family:'trebuchet ms', verdana, arial;font-family:var(--mermaid-font-family)}#mermaid-1600597259892 .pieTitleText{text-anchor:middle;font-size:25px;fill:#000;font-family:'trebuchet ms', verdana, arial;font-family:var(--mermaid-font-family)}#mermaid-1600597259892 .slice{font-family:'trebuchet ms', verdana, arial;font-family:var(--mermaid-font-family)}#mermaid-1600597259892 g.stateGroup text{fill:#9370db;stroke:none;font-size:10px;font-family:'trebuchet ms', verdana, arial;font-family:var(--mermaid-font-family)}#mermaid-1600597259892 g.stateGroup text{fill:#9370db;stroke:none;font-size:10px}#mermaid-1600597259892 g.stateGroup .state-title{font-weight:bolder;fill:#000}#mermaid-1600597259892 g.stateGroup rect{fill:#ECECFF;stroke:#9370db}#mermaid-1600597259892 g.stateGroup line{stroke:#9370db;stroke-width:1}#mermaid-1600597259892 .transition{stroke:#9370db;stroke-width:1;fill:none}#mermaid-1600597259892 .stateGroup .composit{fill:white;border-bottom:1px}#mermaid-1600597259892 .stateGroup .alt-composit{fill:#e0e0e0;border-bottom:1px}#mermaid-1600597259892 .state-note{stroke:#aa3;fill:#fff5ad}#mermaid-1600597259892 .state-note text{fill:black;stroke:none;font-size:10px}#mermaid-1600597259892 .stateLabel .box{stroke:none;stroke-width:0;fill:#ECECFF;opacity:0.5}#mermaid-1600597259892 .stateLabel text{fill:#000;font-size:10px;font-weight:bold;font-family:'trebuchet ms', verdana, arial;font-family:var(--mermaid-font-family)}#mermaid-1600597259892 .node circle.state-start{fill:black;stroke:black}#mermaid-1600597259892 .node circle.state-end{fill:black;stroke:white;stroke-width:1.5}#mermaid-1600597259892 #statediagram-barbEnd{fill:#9370db}#mermaid-1600597259892 .statediagram-cluster rect{fill:#ECECFF;stroke:#9370db;stroke-width:1px}#mermaid-1600597259892 .statediagram-cluster rect.outer{rx:5px;ry:5px}#mermaid-1600597259892 .statediagram-state .divider{stroke:#9370db}#mermaid-1600597259892 .statediagram-state .title-state{rx:5px;ry:5px}#mermaid-1600597259892 .statediagram-cluster.statediagram-cluster .inner{fill:white}#mermaid-1600597259892 .statediagram-cluster.statediagram-cluster-alt .inner{fill:#e0e0e0}#mermaid-1600597259892 .statediagram-cluster .inner{rx:0;ry:0}#mermaid-1600597259892 .statediagram-state rect.basic{rx:5px;ry:5px}#mermaid-1600597259892 .statediagram-state rect.divider{stroke-dasharray:10,10;fill:#efefef}#mermaid-1600597259892 .note-edge{stroke-dasharray:5}#mermaid-1600597259892 .statediagram-note rect{fill:#fff5ad;stroke:#aa3;stroke-width:1px;rx:0;ry:0}:root{--mermaid-font-family: '"trebuchet ms", verdana, arial';--mermaid-font-family: "Comic Sans MS", "Comic Sans", cursive}

:root { --mermaid-font-family: "trebuchet ms", verdana, arial;}</style><style>#mermaid-1600597259892 {
    color: rgb(0, 0, 0);
    font: 16px "trebuchet ms", verdana, arial;
  }</style><g><defs><marker id="statediagram-barbEnd" refX="19" refY="7" markerWidth="20" markerHeight="14" markerUnits="0" orient="auto"><path d="M 19,7 L9,13 L14,7 L9,1 Z"></path></marker></defs><g class="root"><g class="clusters"><g class="note-cluster" id="0----parent"><rect x="1064.88671875" y="72" width="620.09375" height="219" fill="none"></rect></g><g class="note-cluster" id="4----parent"><rect x="8" y="1354.5" width="1125.39453125" height="265" fill="none"></rect></g><g class="note-cluster" id="11----parent"><rect x="968.15234375" y="1947.5" width="2801.37109375" height="240" fill="none"></rect></g><g class="note-cluster" id="17----parent"><rect x="2281.86328125" y="489.5" width="983.58203125" height="203" fill="none"></rect></g><g class="note-cluster" id="21----parent"><rect x="3554.70703125" y="761.5" width="600.7890625" height="240" fill="none"></rect></g><g class="note-cluster" id="26----parent"><rect x="1895.99609375" y="1200" width="494.703125" height="265" fill="none"></rect></g></g><g class="edgePaths"><path d="M1419.27734375,22L1419.27734375,26.166666666666668C1419.27734375,30.333333333333332,1419.27734375,38.666666666666664,1419.27734375,47C1419.27734375,55.333333333333336,1419.27734375,63.666666666666664,1419.27734375,72C1419.27734375,80.33333333333333,1419.27734375,88.66666666666667,1419.27734375,92.83333333333333L1419.27734375,97" id="edge0" class="transition" marker-end="url(#statediagram-barbEnd)"></path><path d="M1404.6396010315534,131L1399.6885998179612,136.75C1394.737598604369,142.5,1384.8355961771842,154,1379.8845949635922,165.5C1374.93359375,177,1374.93359375,188.5,1374.93359375,194.25L1374.93359375,200" class="transition note-edge"></path><path d="M1455.8123862257282,131L1468.1698270631068,136.75C1480.5272679004854,142.5,1505.2421495752426,154,1917.1796685376212,170.40226320783097C2329.1171875,186.80452641566194,3128.27734375,208.10905283132388,3527.857421875,218.76131603915485L3927.4375,229.41357924698585" id="edge1" class="transition" marker-end="url(#statediagram-barbEnd)"></path><path d="M3927.4375,243.6500887720664L3827.7506510416665,251.54174064338864C3728.0638020833335,259.43339251471093,3528.6901041666665,275.21669625735547,3429.0032552083335,288.85834812867773C3329.31640625,302.5,3329.31640625,314,3329.31640625,330.5416666666667C3329.31640625,347.0833333333333,3329.31640625,368.6666666666667,3329.31640625,390.25C3329.31640625,411.8333333333333,3329.31640625,433.4166666666667,3329.31640625,449.9583333333333C3329.31640625,466.5,3329.31640625,478,3329.31640625,492.0833333333333C3329.31640625,506.1666666666667,3329.31640625,522.8333333333334,3329.31640625,541.0833333333334C3329.31640625,559.3333333333334,3329.31640625,579.1666666666666,3329.31640625,597.6666666666666C3329.31640625,616.1666666666666,3329.31640625,633.3333333333334,3329.31640625,648.9166666666666C3329.31640625,664.5,3329.31640625,678.5,3329.31640625,691.25C3329.31640625,704,3329.31640625,715.5,3329.31640625,727C3329.31640625,738.5,3329.31640625,750,3329.31640625,764.9583333333334C3329.31640625,779.9166666666666,3329.31640625,798.3333333333334,3329.31640625,818.3333333333334C3329.31640625,838.3333333333334,3329.31640625,859.9166666666666,3329.31640625,881.5C3329.31640625,903.0833333333334,3329.31640625,924.6666666666666,3329.31640625,944.6666666666666C3329.31640625,964.6666666666666,3329.31640625,983.0833333333334,3329.31640625,998.0416666666666C3329.31640625,1013,3329.31640625,1024.5,3329.31640625,1041.0416666666667C3329.31640625,1057.5833333333333,3329.31640625,1079.1666666666667,3329.31640625,1100.75C3329.31640625,1122.3333333333333,3329.31640625,1143.9166666666667,3329.31640625,1160.4583333333333C3329.31640625,1177,3329.31640625,1188.5,3329.31640625,1203.4583333333333C3329.31640625,1218.4166666666667,3329.31640625,1236.8333333333333,3329.31640625,1256.8333333333333C3329.31640625,1276.8333333333333,3329.31640625,1298.4166666666667,3329.31640625,1314.9583333333333C3329.31640625,1331.5,3329.31640625,1343,3329.31640625,1357.9583333333333C3329.31640625,1372.9166666666667,3329.31640625,1391.3333333333333,3329.31640625,1409.75C3329.31640625,1428.1666666666667,3329.31640625,1446.5833333333333,3329.31640625,1461.5416666666667C3329.31640625,1476.5,3329.31640625,1488,3329.31640625,1504.5416666666667C3329.31640625,1521.0833333333333,3329.31640625,1542.6666666666667,3329.31640625,1562.6666666666667C3329.31640625,1582.6666666666667,3329.31640625,1601.0833333333333,3329.31640625,1616.0416666666667C3329.31640625,1631,3329.31640625,1642.5,3329.31640625,1659.0416666666667C3329.31640625,1675.5833333333333,3329.31640625,1697.1666666666667,3329.31640625,1718.75C3329.31640625,1740.3333333333333,3329.31640625,1761.9166666666667,3329.31640625,1783.5C3329.31640625,1805.0833333333333,3329.31640625,1826.6666666666667,3329.31640625,1848.25C3329.31640625,1869.8333333333333,3329.31640625,1891.4166666666667,3442.578125,1907.9583333333333C3555.83984375,1924.5,3782.36328125,1936,3887.5906744909503,1945.9166666666667C3992.8180677319,1955.8333333333333,3976.7494167138007,1964.1666666666667,3968.715091204751,1968.3333333333333L3960.680765695701,1972.5" id="edge2" class="transition" marker-end="url(#statediagram-barbEnd)"></path><path d="M3867.44921875,405.4830754352031L3800.7819010416665,413.7358961960026C3734.1145833333335,421.9887169568021,3600.7799479166665,438.494358478401,3534.1126302083335,452.49717923920053C3467.4453125,466.5,3467.4453125,478,3467.4453125,492.0833333333333C3467.4453125,506.1666666666667,3467.4453125,522.8333333333334,3467.4453125,541.0833333333334C3467.4453125,559.3333333333334,3467.4453125,579.1666666666666,3467.4453125,597.6666666666666C3467.4453125,616.1666666666666,3467.4453125,633.3333333333334,3467.4453125,648.9166666666666C3467.4453125,664.5,3467.4453125,678.5,3467.4453125,691.25C3467.4453125,704,3467.4453125,715.5,3467.4453125,727C3467.4453125,738.5,3467.4453125,750,3467.4453125,764.9583333333334C3467.4453125,779.9166666666666,3467.4453125,798.3333333333334,3467.4453125,818.3333333333334C3467.4453125,838.3333333333334,3467.4453125,859.9166666666666,3467.4453125,881.5C3467.4453125,903.0833333333334,3467.4453125,924.6666666666666,3467.4453125,944.6666666666666C3467.4453125,964.6666666666666,3467.4453125,983.0833333333334,3467.4453125,998.0416666666666C3467.4453125,1013,3467.4453125,1024.5,3467.4453125,1041.0416666666667C3467.4453125,1057.5833333333333,3467.4453125,1079.1666666666667,3467.4453125,1100.75C3467.4453125,1122.3333333333333,3467.4453125,1143.9166666666667,3467.4453125,1160.4583333333333C3467.4453125,1177,3467.4453125,1188.5,3467.4453125,1203.4583333333333C3467.4453125,1218.4166666666667,3467.4453125,1236.8333333333333,3467.4453125,1256.8333333333333C3467.4453125,1276.8333333333333,3467.4453125,1298.4166666666667,3467.4453125,1314.9583333333333C3467.4453125,1331.5,3467.4453125,1343,3467.4453125,1357.9583333333333C3467.4453125,1372.9166666666667,3467.4453125,1391.3333333333333,3467.4453125,1409.75C3467.4453125,1428.1666666666667,3467.4453125,1446.5833333333333,3467.4453125,1461.5416666666667C3467.4453125,1476.5,3467.4453125,1488,3467.4453125,1504.5416666666667C3467.4453125,1521.0833333333333,3467.4453125,1542.6666666666667,3467.4453125,1562.6666666666667C3467.4453125,1582.6666666666667,3467.4453125,1601.0833333333333,3467.4453125,1616.0416666666667C3467.4453125,1631,3467.4453125,1642.5,3467.4453125,1659.0416666666667C3467.4453125,1675.5833333333333,3467.4453125,1697.1666666666667,3467.4453125,1718.75C3467.4453125,1740.3333333333333,3467.4453125,1761.9166666666667,3467.4453125,1783.5C3467.4453125,1805.0833333333333,3467.4453125,1826.6666666666667,3467.4453125,1848.25C3467.4453125,1869.8333333333333,3467.4453125,1891.4166666666667,3575.271484375,1907.9583333333333C3683.09765625,1924.5,3898.75,1936,3987.5390625,1946.7101340149213C4076.328125,1957.4202680298424,4038.25390625,1967.340536059685,4019.216796875,1972.3006700746064L4000.1796875,1977.2608040895275" id="edge3" class="transition" marker-end="url(#statediagram-barbEnd)"></path><path d="M2918.8823751206564,847L2912.203411558881,852.75C2905.5244479971043,858.5,2892.166520873552,870,2885.4875573117765,886.5416666666666C2878.80859375,903.0833333333334,2878.80859375,924.6666666666666,2878.80859375,944.6666666666666C2878.80859375,964.6666666666666,2878.80859375,983.0833333333334,2878.80859375,998.0416666666666C2878.80859375,1013,2878.80859375,1024.5,2878.80859375,1041.0416666666667C2878.80859375,1057.5833333333333,2878.80859375,1079.1666666666667,2878.80859375,1100.75C2878.80859375,1122.3333333333333,2878.80859375,1143.9166666666667,2878.80859375,1160.4583333333333C2878.80859375,1177,2878.80859375,1188.5,2878.80859375,1203.4583333333333C2878.80859375,1218.4166666666667,2878.80859375,1236.8333333333333,2878.80859375,1256.8333333333333C2878.80859375,1276.8333333333333,2878.80859375,1298.4166666666667,2878.80859375,1314.9583333333333C2878.80859375,1331.5,2878.80859375,1343,2878.80859375,1357.9583333333333C2878.80859375,1372.9166666666667,2878.80859375,1391.3333333333333,2878.80859375,1409.75C2878.80859375,1428.1666666666667,2878.80859375,1446.5833333333333,2878.80859375,1461.5416666666667C2878.80859375,1476.5,2878.80859375,1488,2878.80859375,1504.5416666666667C2878.80859375,1521.0833333333333,2878.80859375,1542.6666666666667,2878.80859375,1562.6666666666667C2878.80859375,1582.6666666666667,2878.80859375,1601.0833333333333,2878.80859375,1616.0416666666667C2878.80859375,1631,2878.80859375,1642.5,2878.80859375,1659.0416666666667C2878.80859375,1675.5833333333333,2878.80859375,1697.1666666666667,2878.80859375,1718.75C2878.80859375,1740.3333333333333,2878.80859375,1761.9166666666667,2878.80859375,1783.5C2878.80859375,1805.0833333333333,2878.80859375,1826.6666666666667,2878.80859375,1848.25C2878.80859375,1869.8333333333333,2878.80859375,1891.4166666666667,3039.9967447916665,1907.9583333333333C3201.1848958333335,1924.5,3523.5611979166665,1936,3689.003803143854,1945.9166666666667C3854.446408371041,1955.8333333333333,3862.955316742082,1964.1666666666667,3867.209770927602,1968.3333333333333L3871.464225113122,1972.5" id="edge4" class="transition" marker-end="url(#statediagram-barbEnd)"></path><path d="M3804.5234375,2015.001057689402L3734.6536458333335,2023.7508814078349C3664.7838541666665,2032.500705126268,3525.0442708333335,2050.000352563134,3233.0305989583335,2068.8775906111423C2941.0169270833335,2087.754828659151,2496.7291666666665,2108.009657318302,2274.5852864583335,2118.1370716478773L2052.44140625,2128.2644859774528" id="edge5" class="transition" marker-end="url(#statediagram-barbEnd)"></path><path d="M4024.6961375269398,263.25L4018.9974323141164,267.875C4013.2987271012935,272.5,4001.9013166756467,281.75,3996.202611462823,292.125C3990.50390625,302.5,3990.50390625,314,3990.50390625,325.5C3990.50390625,337,3990.50390625,348.5,3990.50390625,354.25L3990.50390625,360" id="edge6" class="transition" marker-end="url(#statediagram-barbEnd)"></path><path d="M4058.2415691361,420.5L4071.117323238417,426.25C4083.9930773407336,432,4109.744585545367,443.5,4122.620339647684,455C4135.49609375,466.5,4135.49609375,478,4135.49609375,489.25C4135.49609375,500.5,4135.49609375,511.5,4135.49609375,517L4135.49609375,522.5" id="edge7" class="transition" marker-end="url(#statediagram-barbEnd)"></path><path d="M2687.953125,666.1279673189491L2661.4850260416665,670.5233060991243C2635.0169270833335,674.9186448792994,2582.0807291666665,683.7093224396498,2555.6126302083335,693.8546612198248C2529.14453125,704,2529.14453125,715.5,2529.14453125,727C2529.14453125,738.5,2529.14453125,750,2529.14453125,764.9583333333334C2529.14453125,779.9166666666666,2529.14453125,798.3333333333334,2529.14453125,818.3333333333334C2529.14453125,838.3333333333334,2529.14453125,859.9166666666666,2529.14453125,881.5C2529.14453125,903.0833333333334,2529.14453125,924.6666666666666,2529.14453125,944.6666666666666C2529.14453125,964.6666666666666,2529.14453125,983.0833333333334,2529.14453125,998.0416666666666C2529.14453125,1013,2529.14453125,1024.5,2529.14453125,1041.0416666666667C2529.14453125,1057.5833333333333,2529.14453125,1079.1666666666667,2529.14453125,1100.75C2529.14453125,1122.3333333333333,2529.14453125,1143.9166666666667,2529.14453125,1160.4583333333333C2529.14453125,1177,2529.14453125,1188.5,2529.14453125,1203.4583333333333C2529.14453125,1218.4166666666667,2529.14453125,1236.8333333333333,2529.14453125,1256.8333333333333C2529.14453125,1276.8333333333333,2529.14453125,1298.4166666666667,2529.14453125,1314.9583333333333C2529.14453125,1331.5,2529.14453125,1343,2529.14453125,1357.9583333333333C2529.14453125,1372.9166666666667,2529.14453125,1391.3333333333333,2529.14453125,1409.75C2529.14453125,1428.1666666666667,2529.14453125,1446.5833333333333,2529.14453125,1461.5416666666667C2529.14453125,1476.5,2529.14453125,1488,2529.14453125,1504.5416666666667C2529.14453125,1521.0833333333333,2529.14453125,1542.6666666666667,2529.14453125,1562.6666666666667C2529.14453125,1582.6666666666667,2529.14453125,1601.0833333333333,2529.14453125,1616.0416666666667C2529.14453125,1631,2529.14453125,1642.5,2529.14453125,1659.0416666666667C2529.14453125,1675.5833333333333,2529.14453125,1697.1666666666667,2529.14453125,1718.75C2529.14453125,1740.3333333333333,2529.14453125,1761.9166666666667,2529.14453125,1783.5C2529.14453125,1805.0833333333333,2529.14453125,1826.6666666666667,2529.14453125,1848.25C2529.14453125,1869.8333333333333,2529.14453125,1891.4166666666667,2529.14453125,1907.9583333333333C2529.14453125,1924.5,2529.14453125,1936,2529.14453125,1950.9583333333333C2529.14453125,1965.9166666666667,2529.14453125,1984.3333333333333,2529.14453125,2004.3333333333333C2529.14453125,2024.3333333333333,2529.14453125,2045.9166666666667,2449.6940104166665,2065.8276264402834C2370.2434895833335,2085.7385862139004,2211.3424479166665,2103.977172427801,2131.8919270833335,2113.096465534751L2052.44140625,2122.2157586417015" id="edge8" class="transition" marker-end="url(#statediagram-barbEnd)"></path><path d="M4029.93359375,544.3322549429149L3830.8938802083335,553.4435457857625C3631.8541666666665,562.5548366286099,3233.7747395833335,580.777418314305,3028.746896490696,595.6387091571524C2823.719053398058,610.5,2811.7427942961162,622,2805.7546647451454,627.75L2799.7665351941746,633.5" id="edge9" class="transition" marker-end="url(#statediagram-barbEnd)"></path><path d="M4029.93359375,545.649546221187L3877.298828125,554.5412885176559C3724.6640625,563.4330308141247,3419.39453125,581.2165154070623,3227.1009114583335,596.2590003787303C3034.8072916666665,611.3014853503984,2955.4895833333335,623.6029707007968,2915.8307291666665,629.753713375996L2876.171875,635.9044560511952" id="edge10" class="transition" marker-end="url(#statediagram-barbEnd)"></path><path d="M2851.6641555059523,667.5L2868.723384796627,671.6666666666666C2885.7826140873017,675.8333333333334,2919.9010726686506,684.1666666666666,2936.9603019593255,694.0833333333334C2954.01953125,704,2954.01953125,715.5,2954.01953125,727C2954.01953125,738.5,2954.01953125,750,2954.01953125,759.9166666666666C2954.01953125,769.8333333333334,2954.01953125,778.1666666666666,2954.01953125,782.3333333333334L2954.01953125,786.5" id="edge11" class="transition" marker-end="url(#statediagram-barbEnd)"></path><path d="M2989.1566873793436,847L2995.835650941119,852.75C3002.5146145028957,858.5,3015.872541626448,870,3022.5515051882235,886.5416666666666C3029.23046875,903.0833333333334,3029.23046875,924.6666666666666,3029.23046875,944.6666666666666C3029.23046875,964.6666666666666,3029.23046875,983.0833333333334,3029.23046875,998.0416666666666C3029.23046875,1013,3029.23046875,1024.5,3029.23046875,1041.0416666666667C3029.23046875,1057.5833333333333,3029.23046875,1079.1666666666667,3029.23046875,1100.75C3029.23046875,1122.3333333333333,3029.23046875,1143.9166666666667,3029.23046875,1160.4583333333333C3029.23046875,1177,3029.23046875,1188.5,3029.23046875,1203.4583333333333C3029.23046875,1218.4166666666667,3029.23046875,1236.8333333333333,3029.23046875,1256.8333333333333C3029.23046875,1276.8333333333333,3029.23046875,1298.4166666666667,3029.23046875,1314.9583333333333C3029.23046875,1331.5,3029.23046875,1343,3029.23046875,1357.9583333333333C3029.23046875,1372.9166666666667,3029.23046875,1391.3333333333333,3029.23046875,1409.75C3029.23046875,1428.1666666666667,3029.23046875,1446.5833333333333,3029.23046875,1461.5416666666667C3029.23046875,1476.5,3029.23046875,1488,3029.23046875,1504.5416666666667C3029.23046875,1521.0833333333333,3029.23046875,1542.6666666666667,3029.23046875,1562.6666666666667C3029.23046875,1582.6666666666667,3029.23046875,1601.0833333333333,3029.23046875,1616.0416666666667C3029.23046875,1631,3029.23046875,1642.5,3029.23046875,1659.0416666666667C3029.23046875,1675.5833333333333,3029.23046875,1697.1666666666667,3029.23046875,1718.75C3029.23046875,1740.3333333333333,3029.23046875,1761.9166666666667,3029.23046875,1783.5C3029.23046875,1805.0833333333333,3029.23046875,1826.6666666666667,3029.23046875,1848.25C3029.23046875,1869.8333333333333,3029.23046875,1891.4166666666667,2979.8053385416665,1907.9583333333333C2930.3802083333335,1924.5,2831.5299479166665,1936,2782.1048177083335,1950.9583333333333C2732.6796875,1965.9166666666667,2732.6796875,1984.3333333333333,2732.6796875,2004.3333333333333C2732.6796875,2024.3333333333333,2732.6796875,2045.9166666666667,2619.306640625,2066.2710346476965C2505.93359375,2086.6254026287265,2279.1875,2105.7508052574535,2165.814453125,2115.3135065718166L2052.44140625,2124.87620788618" id="edge12" class="transition" marker-end="url(#statediagram-barbEnd)"></path><path d="M4135.49609375,556.5L4135.49609375,563.5833333333334C4135.49609375,570.6666666666666,4135.49609375,584.8333333333334,4135.49609375,600.5C4135.49609375,616.1666666666666,4135.49609375,633.3333333333334,4135.49609375,648.9166666666666C4135.49609375,664.5,4135.49609375,678.5,4135.49609375,691.25C4135.49609375,704,4135.49609375,715.5,4135.49609375,727C4135.49609375,738.5,4135.49609375,750,4135.49609375,764.9583333333334C4135.49609375,779.9166666666666,4135.49609375,798.3333333333334,4135.49609375,818.3333333333334C4135.49609375,838.3333333333334,4135.49609375,859.9166666666666,4111.943155767374,876.4583333333334C4088.390217784749,893,4041.2843418194984,904.5,4017.7314038368727,910.25L3994.178465854247,916" id="edge13" class="transition" marker-end="url(#statediagram-barbEnd)"></path><path d="M3050.40234375,825.4687517053951L3153.63671875,834.8072930878293C3256.87109375,844.1458344702634,3463.33984375,862.8229172351317,3584.3757691843625,877.9114586175659C3705.411694618726,893,3741.014795487452,904.5,3758.8163459218144,910.25L3776.6178963561774,916" id="edge14" class="transition" marker-end="url(#statediagram-barbEnd)"></path><path d="M3771.46512655543,976.5L3757.8557044211916,980.6666666666666C3744.246282286953,984.8333333333334,3717.0274380184765,993.1666666666666,3703.4180158842387,1003.0833333333334C3689.80859375,1013,3689.80859375,1024.5,3689.80859375,1036C3689.80859375,1047.5,3689.80859375,1059,3689.80859375,1064.75L3689.80859375,1070.5" id="edge15" class="transition" marker-end="url(#statediagram-barbEnd)"></path><path d="M3895.2069605486427,976.5L3898.6418681655355,980.6666666666666C3902.0767757824287,984.8333333333334,3908.9465910162144,993.1666666666666,3912.381498633107,1003.0833333333334C3915.81640625,1013,3915.81640625,1024.5,3915.81640625,1041.0416666666667C3915.81640625,1057.5833333333333,3915.81640625,1079.1666666666667,3915.81640625,1100.75C3915.81640625,1122.3333333333333,3915.81640625,1143.9166666666667,3915.81640625,1160.4583333333333C3915.81640625,1177,3915.81640625,1188.5,3907.2942413744345,1198.4166666666667C3898.7720764988685,1208.3333333333333,3881.7277467477375,1216.6666666666667,3873.2055818721715,1220.8333333333333L3864.6834169966064,1225" id="edge16" class="transition" marker-end="url(#statediagram-barbEnd)"></path><path d="M3689.80859375,1131L3689.80859375,1136.75C3689.80859375,1142.5,3689.80859375,1154,3689.80859375,1165.5C3689.80859375,1177,3689.80859375,1188.5,3698.3307586255655,1198.4166666666667C3706.8529235011315,1208.3333333333333,3723.8972532522625,1216.6666666666667,3732.4194181278285,1220.8333333333333L3740.9415830033936,1225" id="edge17" class="transition" marker-end="url(#statediagram-barbEnd)"></path><path d="M3702.8984375,1259.4058882646236L3460.1022135416665,1269.5049068871865C3217.3059895833335,1279.6039255097492,2731.7135416666665,1299.8019627548745,2488.9173177083335,1315.6509813774373C2246.12109375,1331.5,2246.12109375,1343,2240.766644277903,1352.9166666666667C2235.412194805807,1362.8333333333333,2224.703295861614,1371.1666666666667,2219.3488463895173,1375.3333333333333L2213.994396917421,1379.5" id="edge18" class="transition" marker-end="url(#statediagram-barbEnd)"></path><path d="M2169.645980627828,1440L2168.891832814857,1444.1666666666667C2168.1376850018855,1448.3333333333333,2166.6293893759425,1456.6666666666667,2165.8752415629715,1466.5833333333333C2165.12109375,1476.5,2165.12109375,1488,2165.12109375,1504.5416666666667C2165.12109375,1521.0833333333333,2165.12109375,1542.6666666666667,2165.12109375,1562.6666666666667C2165.12109375,1582.6666666666667,2165.12109375,1601.0833333333333,2165.12109375,1616.0416666666667C2165.12109375,1631,2165.12109375,1642.5,2165.12109375,1659.0416666666667C2165.12109375,1675.5833333333333,2165.12109375,1697.1666666666667,2165.12109375,1718.75C2165.12109375,1740.3333333333333,2165.12109375,1761.9166666666667,2165.12109375,1783.5C2165.12109375,1805.0833333333333,2165.12109375,1826.6666666666667,2165.12109375,1848.25C2165.12109375,1869.8333333333333,2165.12109375,1891.4166666666667,2165.12109375,1907.9583333333333C2165.12109375,1924.5,2165.12109375,1936,2165.12109375,1950.9583333333333C2165.12109375,1965.9166666666667,2165.12109375,1984.3333333333333,2165.12109375,2004.3333333333333C2165.12109375,2024.3333333333333,2165.12109375,2045.9166666666667,2146.3411458333335,2062.7852555342993C2127.5611979166665,2079.653844401931,2090.0013020833335,2091.8076888038627,2071.2213541666665,2097.8846110048285L2052.44140625,2103.961533205794" id="edge19" class="transition" marker-end="url(#statediagram-barbEnd)"></path><path d="M3804.5234375,2025.79979247214L3775.0260416666665,2032.7498270601166C3745.5286458333335,2039.6998616480935,3686.5338541666665,2053.5999308240466,3394.5201822916665,2070.7741634164327C3102.5065104166665,2087.9483960088187,2577.4739583333335,2108.396792017638,2314.9576822916665,2118.620990022047L2052.44140625,2128.8451880264565" id="edge20" class="transition" marker-end="url(#statediagram-barbEnd)"></path><path d="M4113.55859375,418.08355848479886L4140.760416666667,424.2362987373324C4167.962239583333,430.3890389898659,4222.365885416667,442.694519494933,4249.567708333333,454.59725974746647C4276.76953125,466.5,4276.76953125,478,4276.76953125,492.0833333333333C4276.76953125,506.1666666666667,4276.76953125,522.8333333333334,4276.76953125,541.0833333333334C4276.76953125,559.3333333333334,4276.76953125,579.1666666666666,4276.76953125,597.6666666666666C4276.76953125,616.1666666666666,4276.76953125,633.3333333333334,4276.76953125,648.9166666666666C4276.76953125,664.5,4276.76953125,678.5,4276.76953125,691.25C4276.76953125,704,4276.76953125,715.5,4276.76953125,727C4276.76953125,738.5,4276.76953125,750,4276.76953125,764.9583333333334C4276.76953125,779.9166666666666,4276.76953125,798.3333333333334,4276.76953125,818.3333333333334C4276.76953125,838.3333333333334,4276.76953125,859.9166666666666,4276.76953125,881.5C4276.76953125,903.0833333333334,4276.76953125,924.6666666666666,4276.76953125,944.6666666666666C4276.76953125,964.6666666666666,4276.76953125,983.0833333333334,4276.76953125,998.0416666666666C4276.76953125,1013,4276.76953125,1024.5,4276.76953125,1041.0416666666667C4276.76953125,1057.5833333333333,4276.76953125,1079.1666666666667,4276.76953125,1100.75C4276.76953125,1122.3333333333333,4276.76953125,1143.9166666666667,4276.76953125,1160.4583333333333C4276.76953125,1177,4276.76953125,1188.5,4276.76953125,1203.4583333333333C4276.76953125,1218.4166666666667,4276.76953125,1236.8333333333333,4276.76953125,1256.8333333333333C4276.76953125,1276.8333333333333,4276.76953125,1298.4166666666667,4276.76953125,1314.9583333333333C4276.76953125,1331.5,4276.76953125,1343,4276.76953125,1357.9583333333333C4276.76953125,1372.9166666666667,4276.76953125,1391.3333333333333,4276.76953125,1409.75C4276.76953125,1428.1666666666667,4276.76953125,1446.5833333333333,4276.76953125,1461.5416666666667C4276.76953125,1476.5,4276.76953125,1488,4276.76953125,1504.5416666666667C4276.76953125,1521.0833333333333,4276.76953125,1542.6666666666667,4276.76953125,1562.6666666666667C4276.76953125,1582.6666666666667,4276.76953125,1601.0833333333333,4276.76953125,1616.0416666666667C4276.76953125,1631,4276.76953125,1642.5,4276.76953125,1659.0416666666667C4276.76953125,1675.5833333333333,4276.76953125,1697.1666666666667,4276.76953125,1718.75C4276.76953125,1740.3333333333333,4276.76953125,1761.9166666666667,4276.76953125,1783.5C4276.76953125,1805.0833333333333,4276.76953125,1826.6666666666667,4276.76953125,1848.25C4276.76953125,1869.8333333333333,4276.76953125,1891.4166666666667,4108.150390625,1907.9583333333333C3939.53125,1924.5,3602.29296875,1936,3433.673828125,1950.9583333333333C3265.0546875,1965.9166666666667,3265.0546875,1984.3333333333333,3265.0546875,2004.3333333333333C3265.0546875,2024.3333333333333,3265.0546875,2045.9166666666667,3062.9524739583335,2066.774305983312C2860.8502604166665,2087.631945299957,2456.6458333333335,2107.763890599914,2254.5436197916665,2117.8298632498922L2052.44140625,2127.8958358998707" id="edge21" class="transition" marker-end="url(#statediagram-barbEnd)"></path><path d="M2247.3925869626696,1440L2257.3473380938913,1444.1666666666667C2267.302089225113,1448.3333333333333,2287.2115914875562,1456.6666666666667,2075.352540535445,1466.5833333333333C1863.4934895833333,1476.5,1419.8658854166667,1488,1187.7151956644145,1499.5C955.5645059121622,1511,934.8907305743243,1522.5,924.5538429054054,1528.25L914.2169552364865,1534" id="edge22" class="transition" marker-end="url(#statediagram-barbEnd)"></path><path d="M756.984375,1572.05812892491L652.8307291666666,1579.965107437425C548.6770833333334,1587.8720859499401,340.3697916666667,1603.6860429749702,236.21614583333334,1617.343021487485C132.0625,1631,132.0625,1642.5,132.0625,1659.0416666666667C132.0625,1675.5833333333333,132.0625,1697.1666666666667,132.0625,1718.75C132.0625,1740.3333333333333,132.0625,1761.9166666666667,132.0625,1783.5C132.0625,1805.0833333333333,132.0625,1826.6666666666667,132.0625,1848.25C132.0625,1869.8333333333333,132.0625,1891.4166666666667,349.0384114583333,1907.9583333333333C566.0143229166666,1924.5,999.9661458333334,1936,1216.9420572916667,1950.9583333333333C1433.91796875,1965.9166666666667,1433.91796875,1984.3333333333333,1433.91796875,2004.3333333333333C1433.91796875,2024.3333333333333,1433.91796875,2045.9166666666667,1507.8645833333333,2065.7236396934436C1581.8111979166667,2085.5306127202207,1729.7044270833333,2103.561225440442,1803.6510416666667,2112.576531800552L1877.59765625,2121.5918381606625" id="edge23" class="transition" marker-end="url(#statediagram-barbEnd)"></path><path d="M924.4921875,1748.7051123408041L899.3294270833334,1754.5042602840033C874.1666666666666,1760.3034082272027,823.8411458333334,1771.9017041136012,798.6783854166666,1788.4925187234674C773.515625,1805.0833333333333,773.515625,1826.6666666666667,773.515625,1848.25C773.515625,1869.8333333333333,773.515625,1891.4166666666667,940.8411458333334,1907.9583333333333C1108.1666666666667,1924.5,1442.8177083333333,1936,1610.1432291666667,1950.9583333333333C1777.46875,1965.9166666666667,1777.46875,1984.3333333333333,1777.46875,2004.3333333333333C1777.46875,2024.3333333333333,1777.46875,2045.9166666666667,1794.1569010416667,2062.469747776644C1810.8450520833333,2079.022828886621,1844.2213541666667,2090.545657773242,1860.9095052083333,2096.3070722165526L1877.59765625,2102.068486659863" id="edge24" class="transition" marker-end="url(#statediagram-barbEnd)"></path><path d="M827.125,2025.2257629313197L872.099609375,2032.2714691094332C917.07421875,2039.3171752875467,1007.0234375,2053.4085876437734,1182.1022135416667,2070.159120870157C1357.1809895833333,2086.9096540965406,1617.3893229166667,2106.3193081930817,1747.4934895833333,2116.0241352413523L1877.59765625,2125.728962289623" id="edge25" class="transition" marker-end="url(#statediagram-barbEnd)"></path><path d="M756.984375,1575.9404201288996L693.1119791666666,1583.2003501074166C629.2395833333334,1590.4602800859332,501.4947916666667,1604.9801400429667,437.6223958333333,1617.9900700214832C373.75,1631,373.75,1642.5,373.75,1659.0416666666667C373.75,1675.5833333333333,373.75,1697.1666666666667,373.75,1718.75C373.75,1740.3333333333333,373.75,1761.9166666666667,373.75,1783.5C373.75,1805.0833333333333,373.75,1826.6666666666667,373.75,1848.25C373.75,1869.8333333333333,373.75,1891.4166666666667,572.251953125,1907.9583333333333C770.75390625,1924.5,1167.7578125,1936,1366.259765625,1950.9583333333333C1564.76171875,1965.9166666666667,1564.76171875,1984.3333333333333,1564.76171875,2004.3333333333333C1564.76171875,2024.3333333333333,1564.76171875,2045.9166666666667,1616.9010416666667,2065.1429498565376C1669.0403645833333,2084.3692330464087,1773.3190104166667,2101.238466092818,1825.4583333333333,2109.673082616022L1877.59765625,2118.1076991392265" id="edge26" class="transition" marker-end="url(#statediagram-barbEnd)"></path><path d="M756.984375,1588.2325332190312L734.6354166666666,1593.443777682526C712.2864583333334,1598.6550221460209,667.5885416666666,1609.0775110730103,645.2395833333334,1620.038755536505C622.890625,1631,622.890625,1642.5,622.890625,1659.0416666666667C622.890625,1675.5833333333333,622.890625,1697.1666666666667,622.890625,1718.75C622.890625,1740.3333333333333,622.890625,1761.9166666666667,622.890625,1783.5C622.890625,1805.0833333333333,622.890625,1826.6666666666667,622.890625,1848.25C622.890625,1869.8333333333333,622.890625,1891.4166666666667,802.2975260416666,1907.9583333333333C981.7044270833334,1924.5,1340.5182291666667,1936,1519.9251302083333,1950.9583333333333C1699.33203125,1965.9166666666667,1699.33203125,1984.3333333333333,1699.33203125,2004.3333333333333C1699.33203125,2024.3333333333333,1699.33203125,2045.9166666666667,1729.04296875,2063.949107562926C1758.75390625,2081.981548459186,1818.17578125,2096.4630969183722,1847.88671875,2103.703871147965L1877.59765625,2110.944645377558" id="edge27" class="transition" marker-end="url(#statediagram-barbEnd)"></path><path d="M962.6875,1593.4462529603018L977.984375,1597.7885441335848C993.28125,1602.1308353068678,1023.875,1610.8154176534338,1039.171875,1620.9077088267168C1054.46875,1631,1054.46875,1642.5,1054.46875,1654C1054.46875,1665.5,1054.46875,1677,1054.46875,1682.75L1054.46875,1688.5" id="edge28" class="transition" marker-end="url(#statediagram-barbEnd)"></path><path d="M1041.4059181949806,1749L1038.9229005791506,1754.75C1036.4398829633203,1760.5,1031.4738477316603,1772,1028.99083011583,1788.5416666666667C1026.5078125,1805.0833333333333,1026.5078125,1826.6666666666667,1026.5078125,1848.25C1026.5078125,1869.8333333333333,1026.5078125,1891.4166666666667,1174.4173177083333,1907.9583333333333C1322.3268229166667,1924.5,1618.1458333333333,1936,1766.0553385416667,1950.9583333333333C1913.96484375,1965.9166666666667,1913.96484375,1984.3333333333333,1913.96484375,2004.3333333333333C1913.96484375,2024.3333333333333,1913.96484375,2045.9166666666667,1918.4986576978765,2062.4583333333335C1923.0324716457528,2079,1932.1000995415059,2090.5,1936.6339134893824,2096.25L1941.1677274372587,2102" id="edge29" class="transition" marker-end="url(#statediagram-barbEnd)"></path><path d="M1159.4860340250966,1749L1179.4479971042472,1754.75C1199.4099601833977,1760.5,1239.3338863416989,1772,1259.2958494208494,1783.5C1279.2578125,1795,1279.2578125,1806.5,1279.2578125,1812.25L1279.2578125,1818" id="edge30" class="transition" marker-end="url(#statediagram-barbEnd)"></path><path d="M1279.2578125,1878.5L1279.2578125,1884.25C1279.2578125,1890,1279.2578125,1901.5,1179.9908854166667,1913C1080.7239583333333,1924.5,882.1901041666666,1936,782.9231770833334,1945.9166666666667C683.65625,1955.8333333333333,683.65625,1964.1666666666667,683.65625,1968.3333333333333L683.65625,1972.5" id="edge31" class="transition" marker-end="url(#statediagram-barbEnd)"></path><path d="M540.1875,2031.1996895598809L509.677734375,2037.2497412999007C479.16796875,2043.2997930399206,418.1484375,2055.3998965199603,387.638671875,2072.241614926647C357.12890625,2089.0833333333335,357.12890625,2110.6666666666665,357.12890625,2130.6666666666665C357.12890625,2150.6666666666665,357.12890625,2169.0833333333335,357.12890625,2184.0416666666665C357.12890625,2199,357.12890625,2210.5,357.12890625,2222C357.12890625,2233.5,357.12890625,2245,357.12890625,2250.75L357.12890625,2256.5" id="edge32" class="transition" marker-end="url(#statediagram-barbEnd)"></path><path d="M627.194814792471,2033L616.4624758687258,2038.75C605.7301369449807,2044.5,584.2654590974903,2056,573.5331201737451,2072.5416666666665C562.80078125,2089.0833333333335,562.80078125,2110.6666666666665,562.80078125,2130.6666666666665C562.80078125,2150.6666666666665,562.80078125,2169.0833333333335,562.80078125,2184.0416666666665C562.80078125,2199,562.80078125,2210.5,562.80078125,2222C562.80078125,2233.5,562.80078125,2245,562.80078125,2250.75L562.80078125,2256.5" id="edge33" class="transition" marker-end="url(#statediagram-barbEnd)"></path><path d="M740.117685207529,2033L750.8500241312742,2038.75C761.5823630550194,2044.5,783.0470409025097,2056,793.779379826255,2072.5416666666665C804.51171875,2089.0833333333335,804.51171875,2110.6666666666665,804.51171875,2130.6666666666665C804.51171875,2150.6666666666665,804.51171875,2169.0833333333335,804.51171875,2184.0416666666665C804.51171875,2199,804.51171875,2210.5,1298.0279947916667,2224.6399758782704C1791.5442708333333,2238.7799517565404,2778.5768229166665,2255.5599035130813,3272.0930989583335,2263.9498793913517L3765.609375,2272.339855269622" id="edge34" class="transition" marker-end="url(#statediagram-barbEnd)"></path><path d="M1965.01953125,2162.5L1965.01953125,2166.6666666666665C1965.01953125,2170.8333333333335,1965.01953125,2179.1666666666665,1965.01953125,2189.0833333333335C1965.01953125,2199,1965.01953125,2210.5,2265.1178385416665,2224.5199047143274C2565.2161458333335,2238.539809428655,3165.4127604166665,2255.0796188573104,3465.5110677083335,2263.3495235716377L3765.609375,2271.6194282859656" id="edge35" class="transition" marker-end="url(#statediagram-barbEnd)"></path><path d="M4000.1796875,2012.5546387046454L4091.5514322916665,2021.712198920538C4182.923177083333,2030.86975913643,4365.666666666667,2049.184879568215,4457.038411458333,2069.134106450774C4548.41015625,2089.0833333333335,4548.41015625,2110.6666666666665,4548.41015625,2130.6666666666665C4548.41015625,2150.6666666666665,4548.41015625,2169.0833333333335,4548.41015625,2184.0416666666665C4548.41015625,2199,4548.41015625,2210.5,4440.690755208333,2224.013602876193C4332.971354166667,2237.5272057523857,4117.532552083333,2253.0544115047715,4009.8131510416665,2260.8180143809645L3902.09375,2268.581617257157" id="edge36" class="transition" marker-end="url(#statediagram-barbEnd)"></path><path d="M4196.5,243.90867387897092L4293.292317708333,251.75722823247577C4390.084635416667,259.60578258598065,4583.669270833333,275.3028912929903,4680.461588541667,288.9014456464951C4777.25390625,302.5,4777.25390625,314,4777.25390625,330.5416666666667C4777.25390625,347.0833333333333,4777.25390625,368.6666666666667,4777.25390625,390.25C4777.25390625,411.8333333333333,4777.25390625,433.4166666666667,4777.25390625,449.9583333333333C4777.25390625,466.5,4777.25390625,478,4777.25390625,492.0833333333333C4777.25390625,506.1666666666667,4777.25390625,522.8333333333334,4777.25390625,541.0833333333334C4777.25390625,559.3333333333334,4777.25390625,579.1666666666666,4777.25390625,597.6666666666666C4777.25390625,616.1666666666666,4777.25390625,633.3333333333334,4777.25390625,648.9166666666666C4777.25390625,664.5,4777.25390625,678.5,4777.25390625,691.25C4777.25390625,704,4777.25390625,715.5,4777.25390625,727C4777.25390625,738.5,4777.25390625,750,4777.25390625,764.9583333333334C4777.25390625,779.9166666666666,4777.25390625,798.3333333333334,4777.25390625,818.3333333333334C4777.25390625,838.3333333333334,4777.25390625,859.9166666666666,4777.25390625,881.5C4777.25390625,903.0833333333334,4777.25390625,924.6666666666666,4777.25390625,944.6666666666666C4777.25390625,964.6666666666666,4777.25390625,983.0833333333334,4777.25390625,998.0416666666666C4777.25390625,1013,4777.25390625,1024.5,4777.25390625,1041.0416666666667C4777.25390625,1057.5833333333333,4777.25390625,1079.1666666666667,4777.25390625,1100.75C4777.25390625,1122.3333333333333,4777.25390625,1143.9166666666667,4777.25390625,1160.4583333333333C4777.25390625,1177,4777.25390625,1188.5,4777.25390625,1203.4583333333333C4777.25390625,1218.4166666666667,4777.25390625,1236.8333333333333,4777.25390625,1256.8333333333333C4777.25390625,1276.8333333333333,4777.25390625,1298.4166666666667,4777.25390625,1314.9583333333333C4777.25390625,1331.5,4777.25390625,1343,4777.25390625,1357.9583333333333C4777.25390625,1372.9166666666667,4777.25390625,1391.3333333333333,4777.25390625,1409.75C4777.25390625,1428.1666666666667,4777.25390625,1446.5833333333333,4777.25390625,1461.5416666666667C4777.25390625,1476.5,4777.25390625,1488,4777.25390625,1504.5416666666667C4777.25390625,1521.0833333333333,4777.25390625,1542.6666666666667,4777.25390625,1562.6666666666667C4777.25390625,1582.6666666666667,4777.25390625,1601.0833333333333,4777.25390625,1616.0416666666667C4777.25390625,1631,4777.25390625,1642.5,4777.25390625,1659.0416666666667C4777.25390625,1675.5833333333333,4777.25390625,1697.1666666666667,4777.25390625,1718.75C4777.25390625,1740.3333333333333,4777.25390625,1761.9166666666667,4777.25390625,1783.5C4777.25390625,1805.0833333333333,4777.25390625,1826.6666666666667,4777.25390625,1848.25C4777.25390625,1869.8333333333333,4777.25390625,1891.4166666666667,4777.25390625,1907.9583333333333C4777.25390625,1924.5,4777.25390625,1936,4777.25390625,1950.9583333333333C4777.25390625,1965.9166666666667,4777.25390625,1984.3333333333333,4777.25390625,2004.3333333333333C4777.25390625,2024.3333333333333,4777.25390625,2045.9166666666667,4777.25390625,2067.5C4777.25390625,2089.0833333333335,4777.25390625,2110.6666666666665,4777.25390625,2130.6666666666665C4777.25390625,2150.6666666666665,4777.25390625,2169.0833333333335,4777.25390625,2184.0416666666665C4777.25390625,2199,4777.25390625,2210.5,4631.393880208333,2224.212447190121C4485.533854166667,2237.924894380242,4193.813802083333,2253.8497887604844,4047.9537760416665,2261.8122359506056L3902.09375,2269.7746831407267" id="edge37" class="transition" marker-end="url(#statediagram-barbEnd)"></path><path d="M4113.55859375,401.7852461148687L4208.171875,410.65437176239055C4302.78515625,419.5234974099124,4492.01171875,437.26174870495623,4586.625,451.8808743524781C4681.23828125,466.5,4681.23828125,478,4681.23828125,492.0833333333333C4681.23828125,506.1666666666667,4681.23828125,522.8333333333334,4681.23828125,541.0833333333334C4681.23828125,559.3333333333334,4681.23828125,579.1666666666666,4681.23828125,597.6666666666666C4681.23828125,616.1666666666666,4681.23828125,633.3333333333334,4681.23828125,648.9166666666666C4681.23828125,664.5,4681.23828125,678.5,4681.23828125,691.25C4681.23828125,704,4681.23828125,715.5,4681.23828125,727C4681.23828125,738.5,4681.23828125,750,4681.23828125,764.9583333333334C4681.23828125,779.9166666666666,4681.23828125,798.3333333333334,4681.23828125,818.3333333333334C4681.23828125,838.3333333333334,4681.23828125,859.9166666666666,4681.23828125,881.5C4681.23828125,903.0833333333334,4681.23828125,924.6666666666666,4681.23828125,944.6666666666666C4681.23828125,964.6666666666666,4681.23828125,983.0833333333334,4681.23828125,998.0416666666666C4681.23828125,1013,4681.23828125,1024.5,4681.23828125,1041.0416666666667C4681.23828125,1057.5833333333333,4681.23828125,1079.1666666666667,4681.23828125,1100.75C4681.23828125,1122.3333333333333,4681.23828125,1143.9166666666667,4681.23828125,1160.4583333333333C4681.23828125,1177,4681.23828125,1188.5,4681.23828125,1203.4583333333333C4681.23828125,1218.4166666666667,4681.23828125,1236.8333333333333,4681.23828125,1256.8333333333333C4681.23828125,1276.8333333333333,4681.23828125,1298.4166666666667,4681.23828125,1314.9583333333333C4681.23828125,1331.5,4681.23828125,1343,4681.23828125,1357.9583333333333C4681.23828125,1372.9166666666667,4681.23828125,1391.3333333333333,4681.23828125,1409.75C4681.23828125,1428.1666666666667,4681.23828125,1446.5833333333333,4681.23828125,1461.5416666666667C4681.23828125,1476.5,4681.23828125,1488,4681.23828125,1504.5416666666667C4681.23828125,1521.0833333333333,4681.23828125,1542.6666666666667,4681.23828125,1562.6666666666667C4681.23828125,1582.6666666666667,4681.23828125,1601.0833333333333,4681.23828125,1616.0416666666667C4681.23828125,1631,4681.23828125,1642.5,4681.23828125,1659.0416666666667C4681.23828125,1675.5833333333333,4681.23828125,1697.1666666666667,4681.23828125,1718.75C4681.23828125,1740.3333333333333,4681.23828125,1761.9166666666667,4681.23828125,1783.5C4681.23828125,1805.0833333333333,4681.23828125,1826.6666666666667,4681.23828125,1848.25C4681.23828125,1869.8333333333333,4681.23828125,1891.4166666666667,4681.23828125,1907.9583333333333C4681.23828125,1924.5,4681.23828125,1936,4681.23828125,1950.9583333333333C4681.23828125,1965.9166666666667,4681.23828125,1984.3333333333333,4681.23828125,2004.3333333333333C4681.23828125,2024.3333333333333,4681.23828125,2045.9166666666667,4681.23828125,2067.5C4681.23828125,2089.0833333333335,4681.23828125,2110.6666666666665,4681.23828125,2130.6666666666665C4681.23828125,2150.6666666666665,4681.23828125,2169.0833333333335,4681.23828125,2184.0416666666665C4681.23828125,2199,4681.23828125,2210.5,4551.380859375,2224.142095873803C4421.5234375,2237.7841917476067,4161.80859375,2253.568383495213,4031.951171875,2261.460479369016L3902.09375,2269.352575242819" id="edge38" class="transition" marker-end="url(#statediagram-barbEnd)"></path><path d="M3958.508678591629,976.5L3970.6628311180243,980.6666666666666C3982.8169836444195,984.8333333333334,4007.1252886972093,993.1666666666666,4019.279441223605,1003.0833333333334C4031.43359375,1013,4031.43359375,1024.5,4031.43359375,1041.0416666666667C4031.43359375,1057.5833333333333,4031.43359375,1079.1666666666667,4031.43359375,1100.75C4031.43359375,1122.3333333333333,4031.43359375,1143.9166666666667,4031.43359375,1160.4583333333333C4031.43359375,1177,4031.43359375,1188.5,4031.43359375,1203.4583333333333C4031.43359375,1218.4166666666667,4031.43359375,1236.8333333333333,4031.43359375,1256.8333333333333C4031.43359375,1276.8333333333333,4031.43359375,1298.4166666666667,4031.43359375,1314.9583333333333C4031.43359375,1331.5,4031.43359375,1343,4031.43359375,1357.9583333333333C4031.43359375,1372.9166666666667,4031.43359375,1391.3333333333333,4031.43359375,1409.75C4031.43359375,1428.1666666666667,4031.43359375,1446.5833333333333,4031.43359375,1461.5416666666667C4031.43359375,1476.5,4031.43359375,1488,4031.43359375,1504.5416666666667C4031.43359375,1521.0833333333333,4031.43359375,1542.6666666666667,4031.43359375,1562.6666666666667C4031.43359375,1582.6666666666667,4031.43359375,1601.0833333333333,4031.43359375,1616.0416666666667C4031.43359375,1631,4031.43359375,1642.5,4031.43359375,1659.0416666666667C4031.43359375,1675.5833333333333,4031.43359375,1697.1666666666667,4031.43359375,1718.75C4031.43359375,1740.3333333333333,4031.43359375,1761.9166666666667,4031.43359375,1783.5C4031.43359375,1805.0833333333333,4031.43359375,1826.6666666666667,4031.43359375,1848.25C4031.43359375,1869.8333333333333,4031.43359375,1891.4166666666667,3890.205078125,1907.9583333333333C3748.9765625,1924.5,3466.51953125,1936,3325.291015625,1950.9583333333333C3184.0625,1965.9166666666667,3184.0625,1984.3333333333333,3184.0625,2004.3333333333333C3184.0625,2024.3333333333333,3184.0625,2045.9166666666667,2995.458984375,2066.7260914844187C2806.85546875,2087.535516302171,2429.6484375,2107.571032604342,2241.044921875,2117.5887907554275L2052.44140625,2127.6065489065127" id="edge39" class="transition" marker-end="url(#statediagram-barbEnd)"></path><path d="M216.125,1434.75L216.125,1439.7916666666667C216.125,1444.8333333333333,216.125,1454.9166666666667,216.125,1465.7083333333333C216.125,1476.5,216.125,1488,306.2682291666667,1502.8173837409229C396.4114583333333,1517.6347674818455,576.6979166666666,1535.7695349636913,666.8411458333334,1544.836918704614L756.984375,1553.9043024455368" class="transition note-edge"></path><path d="M1225.79296875,2027.75L1225.79296875,2034.375C1225.79296875,2041,1225.79296875,2054.25,1334.4270833333333,2070.3904304188995C1443.0611979166667,2086.5308608377986,1660.3294270833333,2105.561721675597,1768.9635416666667,2115.0771520944963L1877.59765625,2124.5925825133954" class="transition note-edge"></path><path d="M2489.98828125,564.5L2489.98828125,570.25C2489.98828125,576,2489.98828125,587.5,2522.982421875,599.0676933570502C2555.9765625,610.6353867141004,2621.96484375,622.2707734282008,2654.958984375,628.088466785251L2687.953125,633.9061601423011" class="transition note-edge"></path><path d="M3870.26953125,841.75L3870.26953125,848.375C3870.26953125,855,3870.26953125,868.25,3870.26953125,880.625C3870.26953125,893,3870.26953125,904.5,3870.26953125,910.25L3870.26953125,916" class="transition note-edge"></path><path d="M2104.12109375,1280.25L2104.12109375,1286.875C2104.12109375,1293.5,2104.12109375,1306.75,2104.12109375,1319.125C2104.12109375,1331.5,2104.12109375,1343,2109.475543222097,1352.9166666666667C2114.829992694193,1362.8333333333333,2125.538891638386,1371.1666666666667,2130.8933411104827,1375.3333333333333L2136.247790582579,1379.5" class="transition note-edge"></path><path d="M3833.8515625,2290.5L3833.8515625,2294.6666666666665C3833.8515625,2298.8333333333335,3833.8515625,2307.1666666666665,3326.3879567014287,2316.6544340464184C2818.924350902857,2326.14220142617,1803.9971393057142,2336.78440285234,1296.533533507143,2342.105503565425L789.0699277085716,2347.42660427851" id="edge40" class="transition" marker-end="url(#statediagram-barbEnd)"></path><path d="M357.12890625,2290.5L357.12890625,2294.6666666666665C357.12890625,2298.8333333333335,357.12890625,2307.1666666666665,426.7891012366811,2316.5790594658965C496.44929622336235,2325.9914522651266,635.7696861967247,2336.482904530253,705.4298811834059,2341.728630662816L775.0900761700871,2346.9743567953797" id="edge41" class="transition" marker-end="url(#statediagram-barbEnd)"></path><path d="M562.80078125,2290.5L562.80078125,2294.6666666666665C562.80078125,2298.8333333333335,562.80078125,2307.1666666666665,598.1912654236764,2316.4981890572526C633.5817495973529,2325.8297114478387,704.3627179447058,2336.159422895677,739.7532021183821,2341.324278619596L775.1436862920586,2346.489134343515" id="edge42" class="transition" marker-end="url(#statediagram-barbEnd)"></path></g><g class="edgeLabels"><g class="edgeLabel"><g class="label" transform="translate(0, 0)"><rect rx="0" ry="0" width="0" height="0" style="fill:#e8e8e8;"></rect><text style=""></text></g></g><g class="edgeLabel"><g class="label" transform="translate(0, 0)"><rect rx="0" ry="0" width="0" height="0" style="fill:#e8e8e8;"></rect><text style=""></text></g></g><g class="edgeLabel" transform="translate(1529.95703125, 165.5)"><g class="label" transform="translate(-68.6875, -9.5)"><rect rx="0" ry="0" width="137.296875" height="19.03125" style="fill:#e8e8e8;"></rect><text style=""><tspan xml:space="preserve" dy="1em" x="0" class="row">ProviderEventOpen</tspan></text></g></g><g class="edgeLabel" transform="translate(3329.31640625, 1100.75)"><g class="label" transform="translate(-98.203125, -9.5)"><rect rx="0" ry="0" width="196.296875" height="19.03125" style="fill:#e8e8e8;"></rect><text style=""><tspan xml:space="preserve" dy="1em" x="0" class="row">ProviderEventDealRejected</tspan></text></g></g><g class="edgeLabel" transform="translate(3467.4453125, 1165.5)"><g class="label" transform="translate(-98.203125, -9.5)"><rect rx="0" ry="0" width="196.296875" height="19.03125" style="fill:#e8e8e8;"></rect><text style=""><tspan xml:space="preserve" dy="1em" x="0" class="row">ProviderEventDealRejected</tspan></text></g></g><g class="edgeLabel" transform="translate(2878.80859375, 1409.75)"><g class="label" transform="translate(-98.203125, -9.5)"><rect rx="0" ry="0" width="196.296875" height="19.03125" style="fill:#e8e8e8;"></rect><text style=""><tspan xml:space="preserve" dy="1em" x="0" class="row">ProviderEventDealRejected</tspan></text></g></g><g class="edgeLabel" transform="translate(3385.3046875, 2067.5)"><g class="label" transform="translate(-100.25, -9.5)"><rect rx="0" ry="0" width="200.375" height="19.03125" style="fill:#e8e8e8;"></rect><text style=""><tspan xml:space="preserve" dy="1em" x="0" class="row">ProviderEventRejectionSent</tspan></text></g></g><g class="edgeLabel" transform="translate(3990.50390625, 325.5)"><g class="label" transform="translate(-96.5703125, -9.5)"><rect rx="0" ry="0" width="193.03125" height="19.03125" style="fill:#e8e8e8;"></rect><text style=""><tspan xml:space="preserve" dy="1em" x="0" class="row">ProviderEventDealDeciding</tspan></text></g></g><g class="edgeLabel" transform="translate(4135.49609375, 455)"><g class="label" transform="translate(-104.03125, -9.5)"><rect rx="0" ry="0" width="207.9375" height="19.03125" style="fill:#e8e8e8;"></rect><text style=""><tspan xml:space="preserve" dy="1em" x="0" class="row">ProviderEventDataRequested</tspan></text></g></g><g class="edgeLabel" transform="translate(2529.14453125, 1409.75)"><g class="label" transform="translate(-118.4453125, -9.5)"><rect rx="0" ry="0" width="236.75" height="19.03125" style="fill:#e8e8e8;"></rect><text style=""><tspan xml:space="preserve" dy="1em" x="0" class="row">ProviderEventDataTransferFailed</tspan></text></g></g><g class="edgeLabel" transform="translate(2835.6953125, 599)"><g class="label" transform="translate(-127.109375, -9.5)"><rect rx="0" ry="0" width="254.0625" height="19.03125" style="fill:#e8e8e8;"></rect><text style=""><tspan xml:space="preserve" dy="1em" x="0" class="row">ProviderEventDataTransferInitiated</tspan></text></g></g><g class="edgeLabel" transform="translate(3114.125, 599)"><g class="label" transform="translate(-131.3203125, -9.5)"><rect rx="0" ry="0" width="262.46875" height="19.03125" style="fill:#e8e8e8;"></rect><text style=""><tspan xml:space="preserve" dy="1em" x="0" class="row">ProviderEventDataTransferRestarted</tspan></text></g></g><g class="edgeLabel" transform="translate(2954.01953125, 727)"><g class="label" transform="translate(-135.4765625, -9.5)"><rect rx="0" ry="0" width="270.78125" height="19.03125" style="fill:#e8e8e8;"></rect><text style=""><tspan xml:space="preserve" dy="1em" x="0" class="row">ProviderEventDataTransferCompleted</tspan></text></g></g><g class="edgeLabel" transform="translate(3029.23046875, 1499.5)"><g class="label" transform="translate(-130.421875, -9.5)"><rect rx="0" ry="0" width="260.6875" height="19.03125" style="fill:#e8e8e8;"></rect><text style=""><tspan xml:space="preserve" dy="1em" x="0" class="row">ProviderEventDataVerificationFailed</tspan></text></g></g><g class="edgeLabel" transform="translate(4135.49609375, 727)"><g class="label" transform="translate(-95.1015625, -9.5)"><rect rx="0" ry="0" width="190.078125" height="19.03125" style="fill:#e8e8e8;"></rect><text style=""><tspan xml:space="preserve" dy="1em" x="0" class="row">ProviderEventVerifiedData</tspan></text></g></g><g class="edgeLabel" transform="translate(3669.80859375, 881.5)"><g class="label" transform="translate(-95.1015625, -9.5)"><rect rx="0" ry="0" width="190.078125" height="19.03125" style="fill:#e8e8e8;"></rect><text style=""><tspan xml:space="preserve" dy="1em" x="0" class="row">ProviderEventVerifiedData</tspan></text></g></g><g class="edgeLabel" transform="translate(3689.80859375, 1036)"><g class="label" transform="translate(-108.6953125, -9.5)"><rect rx="0" ry="0" width="217.265625" height="19.03125" style="fill:#e8e8e8;"></rect><text style=""><tspan xml:space="preserve" dy="1em" x="0" class="row">ProviderEventFundingInitiated</tspan></text></g></g><g class="edgeLabel" transform="translate(3915.81640625, 1100.75)"><g class="label" transform="translate(-76.3203125, -9.5)"><rect rx="0" ry="0" width="152.546875" height="19.03125" style="fill:#e8e8e8;"></rect><text style=""><tspan xml:space="preserve" dy="1em" x="0" class="row">ProviderEventFunded</tspan></text></g></g><g class="edgeLabel" transform="translate(3689.80859375, 1165.5)"><g class="label" transform="translate(-76.3203125, -9.5)"><rect rx="0" ry="0" width="152.546875" height="19.03125" style="fill:#e8e8e8;"></rect><text style=""><tspan xml:space="preserve" dy="1em" x="0" class="row">ProviderEventFunded</tspan></text></g></g><g class="edgeLabel" transform="translate(2246.12109375, 1320)"><g class="label" transform="translate(-122, -9.5)"><rect rx="0" ry="0" width="243.859375" height="19.03125" style="fill:#e8e8e8;"></rect><text style=""><tspan xml:space="preserve" dy="1em" x="0" class="row">ProviderEventDealPublishInitiated</tspan></text></g></g><g class="edgeLabel" transform="translate(2165.12109375, 1783.5)"><g class="label" transform="translate(-109.3828125, -9.5)"><rect rx="0" ry="0" width="218.625" height="19.03125" style="fill:#e8e8e8;"></rect><text style=""><tspan xml:space="preserve" dy="1em" x="0" class="row">ProviderEventDealPublishError</tspan></text></g></g><g class="edgeLabel" transform="translate(3627.5390625, 2067.5)"><g class="label" transform="translate(-121.984375, -9.5)"><rect rx="0" ry="0" width="243.828125" height="19.03125" style="fill:#e8e8e8;"></rect><text style=""><tspan xml:space="preserve" dy="1em" x="0" class="row">ProviderEventSendResponseFailed</tspan></text></g></g><g class="edgeLabel" transform="translate(4276.76953125, 1255.25)"><g class="label" transform="translate(-121.984375, -9.5)"><rect rx="0" ry="0" width="243.828125" height="19.03125" style="fill:#e8e8e8;"></rect><text style=""><tspan xml:space="preserve" dy="1em" x="0" class="row">ProviderEventSendResponseFailed</tspan></text></g></g><g class="edgeLabel" transform="translate(976.23828125, 1499.5)"><g class="label" transform="translate(-100.296875, -9.5)"><rect rx="0" ry="0" width="200.46875" height="19.03125" style="fill:#e8e8e8;"></rect><text style=""><tspan xml:space="preserve" dy="1em" x="0" class="row">ProviderEventDealPublished</tspan></text></g></g><g class="edgeLabel" transform="translate(132.0625, 1848.25)"><g class="label" transform="translate(-108.8203125, -9.5)"><rect rx="0" ry="0" width="217.5" height="19.03125" style="fill:#e8e8e8;"></rect><text style=""><tspan xml:space="preserve" dy="1em" x="0" class="row">ProviderEventFileStoreErrored</tspan></text></g></g><g class="edgeLabel" transform="translate(773.515625, 1913)"><g class="label" transform="translate(-108.8203125, -9.5)"><rect rx="0" ry="0" width="217.5" height="19.03125" style="fill:#e8e8e8;"></rect><text style=""><tspan xml:space="preserve" dy="1em" x="0" class="row">ProviderEventFileStoreErrored</tspan></text></g></g><g class="edgeLabel" transform="translate(1096.97265625, 2067.5)"><g class="label" transform="translate(-108.8203125, -9.5)"><rect rx="0" ry="0" width="217.5" height="19.03125" style="fill:#e8e8e8;"></rect><text style=""><tspan xml:space="preserve" dy="1em" x="0" class="row">ProviderEventFileStoreErrored</tspan></text></g></g><g class="edgeLabel" transform="translate(373.75, 1848.25)"><g class="label" transform="translate(-112.8671875, -9.5)"><rect rx="0" ry="0" width="225.59375" height="19.03125" style="fill:#e8e8e8;"></rect><text style=""><tspan xml:space="preserve" dy="1em" x="0" class="row">ProviderEventMultistoreErrored</tspan></text></g></g><g class="edgeLabel" transform="translate(622.890625, 1848.25)"><g class="label" transform="translate(-116.2734375, -9.5)"><rect rx="0" ry="0" width="232.40625" height="19.03125" style="fill:#e8e8e8;"></rect><text style=""><tspan xml:space="preserve" dy="1em" x="0" class="row">ProviderEventDealHandoffFailed</tspan></text></g></g><g class="edgeLabel" transform="translate(1054.46875, 1654)"><g class="label" transform="translate(-104.3671875, -9.5)"><rect rx="0" ry="0" width="208.609375" height="19.03125" style="fill:#e8e8e8;"></rect><text style=""><tspan xml:space="preserve" dy="1em" x="0" class="row">ProviderEventDealHandedOff</tspan></text></g></g><g class="edgeLabel" transform="translate(1026.5078125, 1913)"><g class="label" transform="translate(-124.171875, -9.5)"><rect rx="0" ry="0" width="248.1875" height="19.03125" style="fill:#e8e8e8;"></rect><text style=""><tspan xml:space="preserve" dy="1em" x="0" class="row">ProviderEventDealActivationFailed</tspan></text></g></g><g class="edgeLabel" transform="translate(1279.2578125, 1783.5)"><g class="label" transform="translate(-100.1796875, -9.5)"><rect rx="0" ry="0" width="200.234375" height="19.03125" style="fill:#e8e8e8;"></rect><text style=""><tspan xml:space="preserve" dy="1em" x="0" class="row">ProviderEventDealActivated</tspan></text></g></g><g class="edgeLabel" transform="translate(1279.2578125, 1913)"><g class="label" transform="translate(-108.578125, -9.5)"><rect rx="0" ry="0" width="217.015625" height="19.03125" style="fill:#e8e8e8;"></rect><text style=""><tspan xml:space="preserve" dy="1em" x="0" class="row">ProviderEventCleanupFinished</tspan></text></g></g><g class="edgeLabel" transform="translate(357.12890625, 2132.25)"><g class="label" transform="translate(-92.7734375, -9.5)"><rect rx="0" ry="0" width="185.4375" height="19.03125" style="fill:#e8e8e8;"></rect><text style=""><tspan xml:space="preserve" dy="1em" x="0" class="row">ProviderEventDealSlashed</tspan></text></g></g><g class="edgeLabel" transform="translate(562.80078125, 2132.25)"><g class="label" transform="translate(-92.8984375, -9.5)"><rect rx="0" ry="0" width="185.6875" height="19.03125" style="fill:#e8e8e8;"></rect><text style=""><tspan xml:space="preserve" dy="1em" x="0" class="row">ProviderEventDealExpired</tspan></text></g></g><g class="edgeLabel" transform="translate(804.51171875, 2132.25)"><g class="label" transform="translate(-128.8125, -9.5)"><rect rx="0" ry="0" width="257.46875" height="19.03125" style="fill:#e8e8e8;"></rect><text style=""><tspan xml:space="preserve" dy="1em" x="0" class="row">ProviderEventDealCompletionFailed</tspan></text></g></g><g class="edgeLabel" transform="translate(1965.01953125, 2222)"><g class="label" transform="translate(-71.96875, -9.5)"><rect rx="0" ry="0" width="143.84375" height="19.03125" style="fill:#e8e8e8;"></rect><text style=""><tspan xml:space="preserve" dy="1em" x="0" class="row">ProviderEventFailed</tspan></text></g></g><g class="edgeLabel" transform="translate(4548.41015625, 2132.25)"><g class="label" transform="translate(-76.015625, -9.5)"><rect rx="0" ry="0" width="151.9375" height="19.03125" style="fill:#e8e8e8;"></rect><text style=""><tspan xml:space="preserve" dy="1em" x="0" class="row">ProviderEventRestart</tspan></text></g></g><g class="edgeLabel" transform="translate(4777.25390625, 1255.25)"><g class="label" transform="translate(-76.015625, -9.5)"><rect rx="0" ry="0" width="151.9375" height="19.03125" style="fill:#e8e8e8;"></rect><text style=""><tspan xml:space="preserve" dy="1em" x="0" class="row">ProviderEventRestart</tspan></text></g></g><g class="edgeLabel" transform="translate(4681.23828125, 1320)"><g class="label" transform="translate(-76.015625, -9.5)"><rect rx="0" ry="0" width="151.9375" height="19.03125" style="fill:#e8e8e8;"></rect><text style=""><tspan xml:space="preserve" dy="1em" x="0" class="row">ProviderEventRestart</tspan></text></g></g><g class="edgeLabel" transform="translate(4031.43359375, 1564.25)"><g class="label" transform="translate(-112.5546875, -9.5)"><rect rx="0" ry="0" width="224.96875" height="19.03125" style="fill:#e8e8e8;"></rect><text style=""><tspan xml:space="preserve" dy="1em" x="0" class="row">ProviderEventTrackFundsFailed</tspan></text></g></g><g class="edgeLabel"><g class="label" transform="translate(0, 0)"><rect rx="0" ry="0" width="0" height="0" style="fill:#e8e8e8;"></rect><text style=""></text></g></g><g class="edgeLabel"><g class="label" transform="translate(0, 0)"><rect rx="0" ry="0" width="0" height="0" style="fill:#e8e8e8;"></rect><text style=""></text></g></g><g class="edgeLabel"><g class="label" transform="translate(0, 0)"><rect rx="0" ry="0" width="0" height="0" style="fill:#e8e8e8;"></rect><text style=""></text></g></g><g class="edgeLabel"><g class="label" transform="translate(0, 0)"><rect rx="0" ry="0" width="0" height="0" style="fill:#e8e8e8;"></rect><text style=""></text></g></g><g class="edgeLabel"><g class="label" transform="translate(0, 0)"><rect rx="0" ry="0" width="0" height="0" style="fill:#e8e8e8;"></rect><text style=""></text></g></g><g class="edgeLabel"><g class="label" transform="translate(0, 0)"><rect rx="0" ry="0" width="0" height="0" style="fill:#e8e8e8;"></rect><text style=""></text></g></g><g class="edgeLabel"><g class="label" transform="translate(0, 0)"><rect rx="0" ry="0" width="0" height="0" style="fill:#e8e8e8;"></rect><text style=""></text></g></g><g class="edgeLabel"><g class="label" transform="translate(0, 0)"><rect rx="0" ry="0" width="0" height="0" style="fill:#e8e8e8;"></rect><text style=""></text></g></g></g><g class="nodes"><g class="node statediagram-state" id="0" transform="translate(1419.27734375, 114)"><rect class="outer title-state" x="-82.921875" y="-17" width="165.84375" height="34"></rect><line class="divider" x1="-82.921875" x2="82.921875" y1="9.5" y2="9.5"></line><g class="label" transform="translate(-75.421875, -14)"><text style=""><tspan xml:space="preserve" dy="1em" x="0" class="title-row">StorageDealUnknown</tspan></text><text style="" transform="translate( 0, 26.5)"><tspan xml:space="preserve" dy="1em" x="0" class="title-row"></tspan></text></g></g><g class="node statediagram-state" id="4" transform="translate(859.8359375, 1564.25)"><rect class="outer title-state" x="-102.8515625" y="-30.25" width="205.703125" height="60.5"></rect><line class="divider" x1="-102.8515625" x2="102.8515625" y1="-3.75" y2="-3.75"></line><g class="label" transform="translate(-95.3515625, -27.25)"><text style=""><tspan xml:space="preserve" dy="1em" x="0" class="title-row">StorageDealStaged</tspan></text><text style="" transform="translate( 0, 26.5)"><tspan xml:space="preserve" dy="1em" x="0" class="title-row">On entry runs HandoffDeal</tspan></text></g></g><g class="node statediagram-state" id="5" transform="translate(1054.46875, 1718.75)"><rect class="outer title-state" x="-129.9765625" y="-30.25" width="259.953125" height="60.5"></rect><line class="divider" x1="-129.9765625" x2="129.9765625" y1="-3.75" y2="-3.75"></line><g class="label" transform="translate(-122.4765625, -27.25)"><text style=""><tspan xml:space="preserve" dy="1em" x="0" class="title-row">StorageDealSealing</tspan></text><text style="" transform="translate( 0, 26.5)"><tspan xml:space="preserve" dy="1em" x="0" class="title-row">On entry runs VerifyDealActivated</tspan></text></g></g><g class="node statediagram-state" id="6" transform="translate(1279.2578125, 1848.25)"><rect class="outer title-state" x="-103.2890625" y="-30.25" width="206.578125" height="60.5"></rect><line class="divider" x1="-103.2890625" x2="103.2890625" y1="-3.75" y2="-3.75"></line><g class="label" transform="translate(-95.7890625, -27.25)"><text style=""><tspan xml:space="preserve" dy="1em" x="0" class="title-row">StorageDealFinalizing</tspan></text><text style="" transform="translate( 0, 26.5)"><tspan xml:space="preserve" dy="1em" x="0" class="title-row">On entry runs CleanupDeal</tspan></text></g></g><g class="node statediagram-state" id="7" transform="translate(683.65625, 2002.75)"><rect class="outer title-state" x="-143.46875" y="-30.25" width="286.9375" height="60.5"></rect><line class="divider" x1="-143.46875" x2="143.46875" y1="-3.75" y2="-3.75"></line><g class="label" transform="translate(-135.96875, -27.25)"><text style=""><tspan xml:space="preserve" dy="1em" x="0" class="title-row">StorageDealActive</tspan></text><text style="" transform="translate( 0, 26.5)"><tspan xml:space="preserve" dy="1em" x="0" class="title-row">On entry runs WaitForDealCompletion</tspan></text></g></g><g class="node statediagram-state" id="8" transform="translate(562.80078125, 2273.5)"><rect class="outer title-state" x="-77.296875" y="-17" width="154.59375" height="34"></rect><line class="divider" x1="-77.296875" x2="77.296875" y1="9.5" y2="9.5"></line><g class="label" transform="translate(-69.796875, -14)"><text style=""><tspan xml:space="preserve" dy="1em" x="0" class="title-row">StorageDealExpired</tspan></text><text style="" transform="translate( 0, 26.5)"><tspan xml:space="preserve" dy="1em" x="0" class="title-row"></tspan></text></g></g><g class="node statediagram-state" id="9" transform="translate(357.12890625, 2273.5)"><rect class="outer title-state" x="-77.1796875" y="-17" width="154.359375" height="34"></rect><line class="divider" x1="-77.1796875" x2="77.1796875" y1="9.5" y2="9.5"></line><g class="label" transform="translate(-69.6796875, -14)"><text style=""><tspan xml:space="preserve" dy="1em" x="0" class="title-row">StorageDealSlashed</tspan></text><text style="" transform="translate( 0, 26.5)"><tspan xml:space="preserve" dy="1em" x="0" class="title-row"></tspan></text></g></g><g class="node statediagram-state" id="10" transform="translate(3902.3515625, 2002.75)"><rect class="outer title-state" x="-97.828125" y="-30.25" width="195.65625" height="60.5"></rect><line class="divider" x1="-97.828125" x2="97.828125" y1="-3.75" y2="-3.75"></line><g class="label" transform="translate(-90.328125, -27.25)"><text style=""><tspan xml:space="preserve" dy="1em" x="0" class="title-row">StorageDealRejecting</tspan></text><text style="" transform="translate( 0, 26.5)"><tspan xml:space="preserve" dy="1em" x="0" class="title-row">On entry runs RejectDeal</tspan></text></g></g><g class="node statediagram-state" id="11" transform="translate(1965.01953125, 2132.25)"><rect class="outer title-state" x="-87.421875" y="-30.25" width="174.84375" height="60.5"></rect><line class="divider" x1="-87.421875" x2="87.421875" y1="-3.75" y2="-3.75"></line><g class="label" transform="translate(-79.921875, -27.25)"><text style=""><tspan xml:space="preserve" dy="1em" x="0" class="title-row">StorageDealFailing</tspan></text><text style="" transform="translate( 0, 26.5)"><tspan xml:space="preserve" dy="1em" x="0" class="title-row">On entry runs FailDeal</tspan></text></g></g><g class="node statediagram-state" id="14" transform="translate(4061.96875, 233)"><rect class="outer title-state" x="-134.53125" y="-30.25" width="269.0625" height="60.5"></rect><line class="divider" x1="-134.53125" x2="134.53125" y1="-3.75" y2="-3.75"></line><g class="label" transform="translate(-127.03125, -27.25)"><text style=""><tspan xml:space="preserve" dy="1em" x="0" class="title-row">StorageDealValidating</tspan></text><text style="" transform="translate( 0, 26.5)"><tspan xml:space="preserve" dy="1em" x="0" class="title-row">On entry runs ValidateDealProposal</tspan></text></g></g><g class="node statediagram-state" id="15" transform="translate(3990.50390625, 390.25)"><rect class="outer title-state" x="-123.0546875" y="-30.25" width="246.109375" height="60.5"></rect><line class="divider" x1="-123.0546875" x2="123.0546875" y1="-3.75" y2="-3.75"></line><g class="label" transform="translate(-115.5546875, -27.25)"><text style=""><tspan xml:space="preserve" dy="1em" x="0" class="title-row">StorageDealAcceptWait</tspan></text><text style="" transform="translate( 0, 26.5)"><tspan xml:space="preserve" dy="1em" x="0" class="title-row">On entry runs DecideOnProposal</tspan></text></g></g><g class="node statediagram-state" id="17" transform="translate(2782.0625, 650.5)"><rect class="outer title-state" x="-94.109375" y="-17" width="188.21875" height="34"></rect><line class="divider" x1="-94.109375" x2="94.109375" y1="9.5" y2="9.5"></line><g class="label" transform="translate(-86.609375, -14)"><text style=""><tspan xml:space="preserve" dy="1em" x="0" class="title-row">StorageDealTransferring</tspan></text><text style="" transform="translate( 0, 26.5)"><tspan xml:space="preserve" dy="1em" x="0" class="title-row"></tspan></text></g></g><g class="node statediagram-state" id="19" transform="translate(4135.49609375, 539.5)"><rect class="outer title-state" x="-105.5625" y="-17" width="211.125" height="34"></rect><line class="divider" x1="-105.5625" x2="105.5625" y1="9.5" y2="9.5"></line><g class="label" transform="translate(-98.0625, -14)"><text style=""><tspan xml:space="preserve" dy="1em" x="0" class="title-row">StorageDealWaitingForData</tspan></text><text style="" transform="translate( 0, 26.5)"><tspan xml:space="preserve" dy="1em" x="0" class="title-row"></tspan></text></g></g><g class="node statediagram-state" id="20" transform="translate(2954.01953125, 816.75)"><rect class="outer title-state" x="-96.3828125" y="-30.25" width="192.765625" height="60.5"></rect><line class="divider" x1="-96.3828125" x2="96.3828125" y1="-3.75" y2="-3.75"></line><g class="label" transform="translate(-88.8828125, -27.25)"><text style=""><tspan xml:space="preserve" dy="1em" x="0" class="title-row">StorageDealVerifyData</tspan></text><text style="" transform="translate( 0, 26.5)"><tspan xml:space="preserve" dy="1em" x="0" class="title-row">On entry runs VerifyData</tspan></text></g></g><g class="node statediagram-state" id="21" transform="translate(3870.26953125, 946.25)"><rect class="outer title-state" x="-132.9140625" y="-30.25" width="265.828125" height="60.5"></rect><line class="divider" x1="-132.9140625" x2="132.9140625" y1="-3.75" y2="-3.75"></line><g class="label" transform="translate(-125.4140625, -27.25)"><text style=""><tspan xml:space="preserve" dy="1em" x="0" class="title-row">StorageDealEnsureProviderFunds</tspan></text><text style="" transform="translate( 0, 26.5)"><tspan xml:space="preserve" dy="1em" x="0" class="title-row">On entry runs EnsureProviderFunds</tspan></text></g></g><g class="node statediagram-state" id="23" transform="translate(3689.80859375, 1100.75)"><rect class="outer title-state" x="-114.6875" y="-30.25" width="229.375" height="60.5"></rect><line class="divider" x1="-114.6875" x2="114.6875" y1="-3.75" y2="-3.75"></line><g class="label" transform="translate(-107.1875, -27.25)"><text style=""><tspan xml:space="preserve" dy="1em" x="0" class="title-row">StorageDealProviderFunding</tspan></text><text style="" transform="translate( 0, 26.5)"><tspan xml:space="preserve" dy="1em" x="0" class="title-row">On entry runs WaitForFunding</tspan></text></g></g><g class="node statediagram-state" id="25" transform="translate(3802.8125, 1255.25)"><rect class="outer title-state" x="-99.9140625" y="-30.25" width="199.828125" height="60.5"></rect><line class="divider" x1="-99.9140625" x2="99.9140625" y1="-3.75" y2="-3.75"></line><g class="label" transform="translate(-92.4140625, -27.25)"><text style=""><tspan xml:space="preserve" dy="1em" x="0" class="title-row">StorageDealPublish</tspan></text><text style="" transform="translate( 0, 26.5)"><tspan xml:space="preserve" dy="1em" x="0" class="title-row">On entry runs PublishDeal</tspan></text></g></g><g class="node statediagram-state" id="26" transform="translate(2175.12109375, 1409.75)"><rect class="outer title-state" x="-112.15625" y="-30.25" width="224.3125" height="60.5"></rect><line class="divider" x1="-112.15625" x2="112.15625" y1="-3.75" y2="-3.75"></line><g class="label" transform="translate(-104.65625, -27.25)"><text style=""><tspan xml:space="preserve" dy="1em" x="0" class="title-row">StorageDealPublishing</tspan></text><text style="" transform="translate( 0, 26.5)"><tspan xml:space="preserve" dy="1em" x="0" class="title-row">On entry runs WaitForPublish</tspan></text></g></g><g class="node statediagram-state" id="27" transform="translate(3833.8515625, 2273.5)"><rect class="outer title-state" x="-68.2421875" y="-17" width="136.484375" height="34"></rect><line class="divider" x1="-68.2421875" x2="68.2421875" y1="9.5" y2="9.5"></line><g class="label" transform="translate(-60.7421875, -14)"><text style=""><tspan xml:space="preserve" dy="1em" x="0" class="title-row">StorageDealError</tspan></text><text style="" transform="translate( 0, 26.5)"><tspan xml:space="preserve" dy="1em" x="0" class="title-row"></tspan></text></g></g><g class="node default" id="root_start" transform="translate(1419.27734375, 15)"><circle class="state-start" r="7" width="14" height="14"></circle></g><g class="node statediagram-note" id="0----note" transform="translate(1374.93359375, 233)"><rect x="-275.046875" y="-33" width="550.09375" height="66"></rect><g class="label" transform="translate(-267.546875, -25.5)"><text style=""><tspan xml:space="preserve" dy="1em" x="0" class="row">The following events are not shown cause they can trigger from any state.</tspan><tspan xml:space="preserve" dy="1em" x="0" class="row"></tspan><tspan xml:space="preserve" dy="1em" x="0" class="row">ProviderEventNodeErrored - transitions state to StorageDealFailing</tspan><tspan xml:space="preserve" dy="1em" x="0" class="row">ProviderEventRestart - does not transition state</tspan></text></g></g><g class="node statediagram-note" id="4----note" transform="translate(216.125, 1409.75)"><rect x="-173.125" y="-25" width="346.25" height="50"></rect><g class="label" transform="translate(-165.625, -17.5)"><text style=""><tspan xml:space="preserve" dy="1em" x="0" class="row">The following events only record in this state.</tspan><tspan xml:space="preserve" dy="1em" x="0" class="row"></tspan><tspan xml:space="preserve" dy="1em" x="0" class="row">ProviderEventPieceStoreErrored</tspan></text></g></g><g class="node statediagram-note" id="11----note" transform="translate(1225.79296875, 2002.75)"><rect x="-173.125" y="-25" width="346.25" height="50"></rect><g class="label" transform="translate(-165.625, -17.5)"><text style=""><tspan xml:space="preserve" dy="1em" x="0" class="row">The following events only record in this state.</tspan><tspan xml:space="preserve" dy="1em" x="0" class="row"></tspan><tspan xml:space="preserve" dy="1em" x="0" class="row">ProviderEventFundsReleased</tspan></text></g></g><g class="node statediagram-note" id="17----note" transform="translate(2489.98828125, 539.5)"><rect x="-173.125" y="-25" width="346.25" height="50"></rect><g class="label" transform="translate(-165.625, -17.5)"><text style=""><tspan xml:space="preserve" dy="1em" x="0" class="row">The following events only record in this state.</tspan><tspan xml:space="preserve" dy="1em" x="0" class="row"></tspan><tspan xml:space="preserve" dy="1em" x="0" class="row">ProviderEventDataTransferRestarted</tspan></text></g></g><g class="node statediagram-note" id="21----note" transform="translate(3870.26953125, 816.75)"><rect x="-173.125" y="-25" width="346.25" height="50"></rect><g class="label" transform="translate(-165.625, -17.5)"><text style=""><tspan xml:space="preserve" dy="1em" x="0" class="row">The following events only record in this state.</tspan><tspan xml:space="preserve" dy="1em" x="0" class="row"></tspan><tspan xml:space="preserve" dy="1em" x="0" class="row">ProviderEventFundsReserved</tspan></text></g></g><g class="node statediagram-note" id="26----note" transform="translate(2104.12109375, 1255.25)"><rect x="-173.125" y="-25" width="346.25" height="50"></rect><g class="label" transform="translate(-165.625, -17.5)"><text style=""><tspan xml:space="preserve" dy="1em" x="0" class="row">The following events only record in this state.</tspan><tspan xml:space="preserve" dy="1em" x="0" class="row"></tspan><tspan xml:space="preserve" dy="1em" x="0" class="row">ProviderEventFundsReleased</tspan></text></g></g><g class="node default" id="root_end" transform="translate(782.0703125, 2347.5)"><circle class="state-start" r="7" width="14" height="14"></circle><circle class="state-end" r="5" width="10" height="10"></circle></g></g></g></g></svg>