<svg id="mermaid-1606815941142" width="5579.21875" xmlns="http://www.w3.org/2000/svg" class="statediagram" height="1726.5" viewBox="0 0 5579.21875 1726.5"><style>#mermaid-1606815941142 .label{font-family:'trebuchet ms', verdana, arial;font-family:var(--mermaid-font-family);color:#333}#mermaid-1606815941142 .label text{fill:#333}#mermaid-1606815941142 .node rect,#mermaid-1606815941142 .node circle,#mermaid-1606815941142 .node ellipse,#mermaid-1606815941142 .node polygon,#mermaid-1606815941142 .node path{fill:#ECECFF;stroke:#9370db;stroke-width:1px}#mermaid-1606815941142 .node .label{text-align:center}#mermaid-1606815941142 .node.clickable{cursor:pointer}#mermaid-1606815941142 .arrowheadPath{fill:#333}#mermaid-1606815941142 .edgePath .path{stroke:#333;stroke-width:1.5px}#mermaid-1606815941142 .edgeLabel{background-color:#e8e8e8;text-align:center}#mermaid-1606815941142 .edgeLabel rect{opacity:0.5}#mermaid-1606815941142 .cluster rect{fill:#ffffde;stroke:#aa3;stroke-width:1px}#mermaid-1606815941142 .cluster text{fill:#333}#mermaid-1606815941142 div.mermaidTooltip{position:absolute;text-align:center;max-width:200px;padding:2px;font-family:'trebuchet ms', verdana, arial;font-family:var(--mermaid-font-family);font-size:12px;background:#ffffde;border:1px solid #aa3;border-radius:2px;pointer-events:none;z-index:100}#mermaid-1606815941142 .actor{stroke:#ccf;fill:#ECECFF}#mermaid-1606815941142 text.actor{fill:#000;stroke:none}#mermaid-1606815941142 .actor-line{stroke:grey}#mermaid-1606815941142 .messageLine0{stroke-width:1.5;stroke-dasharray:'2 2';stroke:#333}#mermaid-1606815941142 .messageLine1{stroke-width:1.5;stroke-dasharray:'2 2';stroke:#333}#mermaid-1606815941142 #arrowhead{fill:#333}#mermaid-1606815941142 .sequenceNumber{fill:#fff}#mermaid-1606815941142 #sequencenumber{fill:#333}#mermaid-1606815941142 #crosshead path{fill:#333 !important;stroke:#333 !important}#mermaid-1606815941142 .messageText{fill:#333;stroke:none}#mermaid-1606815941142 .labelBox{stroke:#ccf;fill:#ECECFF}#mermaid-1606815941142 .labelText{fill:#000;stroke:none}#mermaid-1606815941142 .loopText{fill:#000;stroke:none}#mermaid-1606815941142 .loopLine{stroke-width:2;stroke-dasharray:'2 2';stroke:#ccf}#mermaid-1606815941142 .note{stroke:#aa3;fill:#fff5ad}#mermaid-1606815941142 .noteText{fill:black;stroke:none;font-family:'trebuchet ms', verdana, arial;font-family:var(--mermaid-font-family);font-size:14px}#mermaid-1606815941142 .activation0{fill:#f4f4f4;stroke:#666}#mermaid-1606815941142 .activation1{fill:#f4f4f4;stroke:#666}#mermaid-1606815941142 .activation2{fill:#f4f4f4;stroke:#666}#mermaid-1606815941142 .mermaid-main-font{font-family:"trebuchet ms", verdana, arial;font-family:var(--mermaid-font-family)}#mermaid-1606815941142 .section{stroke:none;opacity:0.2}#mermaid-1606815941142 .section0{fill:rgba(102,102,255,0.49)}#mermaid-1606815941142 .section2{fill:#fff400}#mermaid-1606815941142 .section1,#mermaid-1606815941142 .section3{fill:#fff;opacity:0.2}#mermaid-1606815941142 .sectionTitle0{fill:#333}#mermaid-1606815941142 .sectionTitle1{fill:#333}#mermaid-1606815941142 .sectionTitle2{fill:#333}#mermaid-1606815941142 .sectionTitle3{fill:#333}#mermaid-1606815941142 .sectionTitle{text-anchor:start;font-size:11px;text-height:14px;font-family:'trebuchet ms', verdana, arial;font-family:var(--mermaid-font-family)}#mermaid-1606815941142 .grid .tick{stroke:#d3d3d3;opacity:0.8;shape-rendering:crispEdges}#mermaid-1606815941142 .grid .tick text{font-family:'trebuchet ms', verdana, arial;font-family:var(--mermaid-font-family)}#mermaid-1606815941142 .grid path{stroke-width:0}#mermaid-1606815941142 .today{fill:none;stroke:red;stroke-width:2px}#mermaid-1606815941142 .task{stroke-width:2}#mermaid-1606815941142 .taskText{text-anchor:middle;font-family:'trebuchet ms', verdana, arial;font-family:var(--mermaid-font-family)}#mermaid-1606815941142 .taskText:not([font-size]){font-size:11px}#mermaid-1606815941142 .taskTextOutsideRight{fill:#000;text-anchor:start;font-size:11px;font-family:'trebuchet ms', verdana, arial;font-family:var(--mermaid-font-family)}#mermaid-1606815941142 .taskTextOutsideLeft{fill:#000;text-anchor:end;font-size:11px}#mermaid-1606815941142 .task.clickable{cursor:pointer}#mermaid-1606815941142 .taskText.clickable{cursor:pointer;fill:#003163 !important;font-weight:bold}#mermaid-1606815941142 .taskTextOutsideLeft.clickable{cursor:pointer;fill:#003163 !important;font-weight:bold}#mermaid-1606815941142 .taskTextOutsideRight.clickable{cursor:pointer;fill:#003163 !important;font-weight:bold}#mermaid-1606815941142 .taskText0,#mermaid-1606815941142 .taskText1,#mermaid-1606815941142 .taskText2,#mermaid-1606815941142 .taskText3{fill:#fff}#mermaid-1606815941142 .task0,#mermaid-1606815941142 .task1,#mermaid-1606815941142 .task2,#mermaid-1606815941142 .task3{fill:#8a90dd;stroke:#534fbc}#mermaid-1606815941142 .taskTextOutside0,#mermaid-1606815941142 .taskTextOutside2{fill:#000}#mermaid-1606815941142 .taskTextOutside1,#mermaid-1606815941142 .taskTextOutside3{fill:#000}#mermaid-1606815941142 .active0,#mermaid-1606815941142 .active1,#mermaid-1606815941142 .active2,#mermaid-1606815941142 .active3{fill:#bfc7ff;stroke:#534fbc}#mermaid-1606815941142 .activeText0,#mermaid-1606815941142 .activeText1,#mermaid-1606815941142 .activeText2,#mermaid-1606815941142 .activeText3{fill:#000 !important}#mermaid-1606815941142 .done0,#mermaid-1606815941142 .done1,#mermaid-1606815941142 .done2,#mermaid-1606815941142 .done3{stroke:grey;fill:#d3d3d3;stroke-width:2}#mermaid-1606815941142 .doneText0,#mermaid-1606815941142 .doneText1,#mermaid-1606815941142 .doneText2,#mermaid-1606815941142 .doneText3{fill:#000 !important}#mermaid-1606815941142 .crit0,#mermaid-1606815941142 .crit1,#mermaid-1606815941142 .crit2,#mermaid-1606815941142 .crit3{stroke:#f88;fill:red;stroke-width:2}#mermaid-1606815941142 .activeCrit0,#mermaid-1606815941142 .activeCrit1,#mermaid-1606815941142 .activeCrit2,#mermaid-1606815941142 .activeCrit3{stroke:#f88;fill:#bfc7ff;stroke-width:2}#mermaid-1606815941142 .doneCrit0,#mermaid-1606815941142 .doneCrit1,#mermaid-1606815941142 .doneCrit2,#mermaid-1606815941142 .doneCrit3{stroke:#f88;fill:#d3d3d3;stroke-width:2;cursor:pointer;shape-rendering:crispEdges}#mermaid-1606815941142 .milestone{transform:rotate(45deg) scale(0.8, 0.8)}#mermaid-1606815941142 .milestoneText{font-style:italic}#mermaid-1606815941142 .doneCritText0,#mermaid-1606815941142 .doneCritText1,#mermaid-1606815941142 .doneCritText2,#mermaid-1606815941142 .doneCritText3{fill:#000 !important}#mermaid-1606815941142 .activeCritText0,#mermaid-1606815941142 .activeCritText1,#mermaid-1606815941142 .activeCritText2,#mermaid-1606815941142 .activeCritText3{fill:#000 !important}#mermaid-1606815941142 .titleText{text-anchor:middle;font-size:18px;fill:#000;font-family:'trebuchet ms', verdana, arial;font-family:var(--mermaid-font-family)}#mermaid-1606815941142 g.classGroup text{fill:#9370db;stroke:none;font-family:'trebuchet ms', verdana, arial;font-family:var(--mermaid-font-family);font-size:10px}#mermaid-1606815941142 g.classGroup text .title{font-weight:bolder}#mermaid-1606815941142 g.clickable{cursor:pointer}#mermaid-1606815941142 g.classGroup rect{fill:#ECECFF;stroke:#9370db}#mermaid-1606815941142 g.classGroup line{stroke:#9370db;stroke-width:1}#mermaid-1606815941142 .classLabel .box{stroke:none;stroke-width:0;fill:#ECECFF;opacity:0.5}#mermaid-1606815941142 .classLabel .label{fill:#9370db;font-size:10px}#mermaid-1606815941142 .relation{stroke:#9370db;stroke-width:1;fill:none}#mermaid-1606815941142 .dashed-line{stroke-dasharray:3}#mermaid-1606815941142 #compositionStart{fill:#9370db;stroke:#9370db;stroke-width:1}#mermaid-1606815941142 #compositionEnd{fill:#9370db;stroke:#9370db;stroke-width:1}#mermaid-1606815941142 #aggregationStart{fill:#ECECFF;stroke:#9370db;stroke-width:1}#mermaid-1606815941142 #aggregationEnd{fill:#ECECFF;stroke:#9370db;stroke-width:1}#mermaid-1606815941142 #dependencyStart{fill:#9370db;stroke:#9370db;stroke-width:1}#mermaid-1606815941142 #dependencyEnd{fill:#9370db;stroke:#9370db;stroke-width:1}#mermaid-1606815941142 #extensionStart{fill:#9370db;stroke:#9370db;stroke-width:1}#mermaid-1606815941142 #extensionEnd{fill:#9370db;stroke:#9370db;stroke-width:1}#mermaid-1606815941142 .commit-id,#mermaid-1606815941142 .commit-msg,#mermaid-1606815941142 .branch-label{fill:lightgrey;color:lightgrey;font-family:'trebuchet ms', verdana, arial;font-family:var(--mermaid-font-family)}#mermaid-1606815941142 .pieTitleText{text-anchor:middle;font-size:25px;fill:#000;font-family:'trebuchet ms', verdana, arial;font-family:var(--mermaid-font-family)}#mermaid-1606815941142 .slice{font-family:'trebuchet ms', verdana, arial;font-family:var(--mermaid-font-family)}#mermaid-1606815941142 g.stateGroup text{fill:#9370db;stroke:none;font-size:10px;font-family:'trebuchet ms', verdana, arial;font-family:var(--mermaid-font-family)}#mermaid-1606815941142 g.stateGroup text{fill:#9370db;stroke:none;font-size:10px}#mermaid-1606815941142 g.stateGroup .state-title{font-weight:bolder;fill:#000}#mermaid-1606815941142 g.stateGroup rect{fill:#ECECFF;stroke:#9370db}#mermaid-1606815941142 g.stateGroup line{stroke:#9370db;stroke-width:1}#mermaid-1606815941142 .transition{stroke:#9370db;stroke-width:1;fill:none}#mermaid-1606815941142 .stateGroup .composit{fill:white;border-bottom:1px}#mermaid-1606815941142 .stateGroup .alt-composit{fill:#e0e0e0;border-bottom:1px}#mermaid-1606815941142 .state-note{stroke:#aa3;fill:#fff5ad}#mermaid-1606815941142 .state-note text{fill:black;stroke:none;font-size:10px}#mermaid-1606815941142 .stateLabel .box{stroke:none;stroke-width:0;fill:#ECECFF;opacity:0.5}#mermaid-1606815941142 .stateLabel text{fill:#000;font-size:10px;font-weight:bold;font-family:'trebuchet ms', verdana, arial;font-family:var(--mermaid-font-family)}#mermaid-1606815941142 .node circle.state-start{fill:black;stroke:black}#mermaid-1606815941142 .node circle.state-end{fill:black;stroke:white;stroke-width:1.5}#mermaid-1606815941142 #statediagram-barbEnd{fill:#9370db}#mermaid-1606815941142 .statediagram-cluster rect{fill:#ECECFF;stroke:#9370db;stroke-width:1px}#mermaid-1606815941142 .statediagram-cluster rect.outer{rx:5px;ry:5px}#mermaid-1606815941142 .statediagram-state .divider{stroke:#9370db}#mermaid-1606815941142 .statediagram-state .title-state{rx:5px;ry:5px}#mermaid-1606815941142 .statediagram-cluster.statediagram-cluster .inner{fill:white}#mermaid-1606815941142 .statediagram-cluster.statediagram-cluster-alt .inner{fill:#e0e0e0}#mermaid-1606815941142 .statediagram-cluster .inner{rx:0;ry:0}#mermaid-1606815941142 .statediagram-state rect.basic{rx:5px;ry:5px}#mermaid-1606815941142 .statediagram-state rect.divider{stroke-dasharray:10,10;fill:#efefef}#mermaid-1606815941142 .note-edge{stroke-dasharray:5}#mermaid-1606815941142 .statediagram-note rect{fill:#fff5ad;stroke:#aa3;stroke-width:1px;rx:0;ry:0}:root{--mermaid-font-family: '"trebuchet ms", verdana, arial';--mermaid-font-family: "Comic Sans MS", "Comic Sans", cursive}

:root { --mermaid-font-family: "trebuchet ms", verdana, arial;}</style><style>#mermaid-1606815941142 {
    color: rgb(0, 0, 0);
    font: 16px "trebuchet ms", verdana, arial;
  }</style><g><defs><marker id="statediagram-barbEnd" refX="19" refY="7" markerWidth="20" markerHeight="14" markerUnits="0" orient="auto"><path d="M 19,7 L9,13 L14,7 L9,1 Z"></path></marker></defs><g class="root"><g class="clusters"><g class="note-cluster" id="0----parent"><rect x="475.06640625" y="72" width="620.09375" height="235" fill="none"></rect></g><g class="note-cluster" id="3----parent"><rect x="270.5859375" y="923" width="762.21484375" height="240" fill="none"></rect></g><g class="note-cluster" id="11----parent"><rect x="2440.41796875" y="923" width="2883.87890625" height="240" fill="none"></rect></g><g class="note-cluster" id="17----parent"><rect x="854.30078125" y="635" width="1916.328125" height="219" fill="none"></rect></g><g class="note-cluster" id="21----parent"><rect x="2654.57421875" y="72" width="2571.18359375" height="235" fill="none"></rect></g></g><g class="edgePaths"><path d="M745.1015625,22L745.1015625,26.166666666666668C745.1015625,30.333333333333332,745.1015625,38.666666666666664,745.1015625,47C745.1015625,55.333333333333336,745.1015625,63.666666666666664,745.1015625,73.33333333333333C745.1015625,83,745.1015625,94,745.1015625,99.5L745.1015625,105" id="edge0" class="transition" marker-end="url(#statediagram-barbEnd)"></path><path d="M756.5334821428571,139L761.2967819940476,146.08333333333334C766.0600818452381,153.16666666666666,775.5866815476189,167.33333333333334,780.3499813988095,180.16666666666666C785.11328125,193,785.11328125,204.5,785.11328125,210.25L785.11328125,216" class="transition note-edge"></path><path d="M712.2410714285714,139L698.5492001488095,146.08333333333334C684.8573288690477,153.16666666666666,657.4735863095239,167.33333333333334,1036.7791108630952,185.0851729490092C1416.0846354166667,202.837012564685,2202.0794270833335,224.17402512937005,2595.0768229166665,234.84253141171257L2988.07421875,245.5110376940551" id="edge1" class="transition" marker-end="url(#statediagram-barbEnd)"></path><path d="M3245.12109375,252.56811293413733L3571.8938802083335,261.64009411178114C3898.6666666666665,270.7120752894249,4552.212239583333,288.85603764471244,4878.985026041667,303.67801882235625C5205.7578125,318.5,5205.7578125,330,5205.7578125,341.5C5205.7578125,353,5205.7578125,364.5,5205.7578125,370.25L5205.7578125,376" id="edge2" class="transition" marker-end="url(#statediagram-barbEnd)"></path><path d="M3004.977438038793,279.25L2987.9115369073274,283.875C2970.8456357758623,288.5,2936.713833512931,297.75,2919.6479323814656,308.125C2902.58203125,318.5,2902.58203125,330,2902.58203125,346.5416666666667C2902.58203125,363.0833333333333,2902.58203125,384.6666666666667,2902.58203125,406.25C2902.58203125,427.8333333333333,2902.58203125,449.4166666666667,2902.58203125,471C2902.58203125,492.5833333333333,2902.58203125,514.1666666666666,2902.58203125,535.75C2902.58203125,557.3333333333334,2902.58203125,578.9166666666666,2902.58203125,595.4583333333334C2902.58203125,612,2902.58203125,623.5,2902.58203125,638.9166666666666C2902.58203125,654.3333333333334,2902.58203125,673.6666666666666,2902.58203125,694.5833333333334C2902.58203125,715.5,2902.58203125,738,2902.58203125,757.8333333333334C2902.58203125,777.6666666666666,2902.58203125,794.8333333333334,2902.58203125,810.4166666666666C2902.58203125,826,2902.58203125,840,2902.58203125,852.75C2902.58203125,865.5,2902.58203125,877,3124.4850260416665,888.5C3346.3880208333335,900,3790.1940104166665,911.5,4012.0970052083335,926.4583333333334C4234,941.4166666666666,4234,959.8333333333334,4234,979.8333333333334C4234,999.8333333333334,4234,1021.4166666666666,4200.291666666667,1039.7431158638547C4166.583333333333,1058.0695650610426,4099.166666666667,1073.139130122085,4065.4583333333335,1080.6739126526063L4031.75,1088.2086951831275" id="edge3" class="transition" marker-end="url(#statediagram-barbEnd)"></path><path d="M5239.024417833011,436.5L5245.347822152509,442.25C5251.671226472007,448,5264.318035111003,459.5,5270.641439430502,476.0416666666667C5276.96484375,492.5833333333333,5276.96484375,514.1666666666666,5276.96484375,535.75C5276.96484375,557.3333333333334,5276.96484375,578.9166666666666,5276.96484375,595.4583333333334C5276.96484375,612,5276.96484375,623.5,5276.96484375,638.9166666666666C5276.96484375,654.3333333333334,5276.96484375,673.6666666666666,5276.96484375,694.5833333333334C5276.96484375,715.5,5276.96484375,738,5276.96484375,757.8333333333334C5276.96484375,777.6666666666666,5276.96484375,794.8333333333334,5276.96484375,810.4166666666666C5276.96484375,826,5276.96484375,840,5276.96484375,852.75C5276.96484375,865.5,5276.96484375,877,5272.985026041667,888.5C5269.005208333333,900,5261.045572916667,911.5,5257.065755208333,926.4583333333334C5253.0859375,941.4166666666666,5253.0859375,959.8333333333334,5253.0859375,979.8333333333334C5253.0859375,999.8333333333334,5253.0859375,1021.4166666666666,5049.529947916667,1042.2791426149558C4845.973958333333,1063.141618563245,4438.861979166667,1083.2832371264897,4235.305989583333,1093.354046408112L4031.75,1103.4248556897344" id="edge4" class="transition" marker-end="url(#statediagram-barbEnd)"></path><path d="M2988.07421875,271.05686677916736L2953.16796875,277.04738898263946C2918.26171875,283.03791118611156,2848.44921875,295.0189555930558,2813.54296875,306.7594777965279C2778.63671875,318.5,2778.63671875,330,2778.63671875,346.5416666666667C2778.63671875,363.0833333333333,2778.63671875,384.6666666666667,2778.63671875,406.25C2778.63671875,427.8333333333333,2778.63671875,449.4166666666667,3112.8658854166665,470.4706294679959C3447.0950520833335,491.52459226932507,4115.553385416667,512.0491845386503,4449.782552083333,522.3114806733128L4784.01171875,532.5737768079754" id="edge5" class="transition" marker-end="url(#statediagram-barbEnd)"></path><path d="M5091.0703125,429.5801834693502L5057.134765625,436.48348622445843C5023.19921875,443.3867889795668,4955.328125,457.19339448978343,4921.392578125,469.8466972448917C4887.45703125,482.5,4887.45703125,494,4887.45703125,499.75L4887.45703125,505.5" id="edge6" class="transition" marker-end="url(#statediagram-barbEnd)"></path><path d="M4990.90234375,562.0884099043055L5016.046223958333,568.4903415869213C5041.190104166667,574.892273269537,5091.477864583333,587.6961366347685,5116.621744791667,599.8480683173842C5141.765625,612,5141.765625,623.5,5141.765625,638.9166666666666C5141.765625,654.3333333333334,5141.765625,673.6666666666666,5141.765625,694.5833333333334C5141.765625,715.5,5141.765625,738,5141.765625,757.8333333333334C5141.765625,777.6666666666666,5141.765625,794.8333333333334,5141.765625,810.4166666666666C5141.765625,826,5141.765625,840,5141.765625,852.75C5141.765625,865.5,5141.765625,877,5194.430989583333,888.5C5247.096354166667,900,5352.427083333333,911.5,5405.092447916667,926.4583333333334C5457.7578125,941.4166666666666,5457.7578125,959.8333333333334,5457.7578125,979.8333333333334C5457.7578125,999.8333333333334,5457.7578125,1021.4166666666666,5457.7578125,1043C5457.7578125,1064.5833333333333,5457.7578125,1086.1666666666667,5457.7578125,1106.1666666666667C5457.7578125,1126.1666666666667,5457.7578125,1144.5833333333333,5457.7578125,1159.5416666666667C5457.7578125,1174.5,5457.7578125,1186,5457.7578125,1202.5416666666667C5457.7578125,1219.0833333333333,5457.7578125,1240.6666666666667,5457.7578125,1262.25C5457.7578125,1283.8333333333333,5457.7578125,1305.4166666666667,5457.7578125,1327C5457.7578125,1348.5833333333333,5457.7578125,1370.1666666666667,5457.7578125,1391.75C5457.7578125,1413.3333333333333,5457.7578125,1434.9166666666667,5457.7578125,1456.5C5457.7578125,1478.0833333333333,5457.7578125,1499.6666666666667,5457.7578125,1521.25C5457.7578125,1542.8333333333333,5457.7578125,1564.4166666666667,4695.946614583333,1583.665404189247C3934.1354166666665,1602.9141417118274,2410.5130208333335,1619.8282834236545,1648.7018229166667,1628.2853542795683L886.890625,1636.7424251354819" id="edge7" class="transition" marker-end="url(#statediagram-barbEnd)"></path><path d="M4934.452566964285,566L4943.385602678572,571.75C4952.318638392857,577.5,4970.184709821428,589,4979.117745535715,600.5C4988.05078125,612,4988.05078125,623.5,4988.05078125,638.9166666666666C4988.05078125,654.3333333333334,4988.05078125,673.6666666666666,4988.05078125,694.5833333333334C4988.05078125,715.5,4988.05078125,738,4988.05078125,757.8333333333334C4988.05078125,777.6666666666666,4988.05078125,794.8333333333334,4988.05078125,810.4166666666666C4988.05078125,826,4988.05078125,840,4988.05078125,852.75C4988.05078125,865.5,4988.05078125,877,4988.05078125,888.5C4988.05078125,900,4988.05078125,911.5,4988.05078125,926.4583333333334C4988.05078125,941.4166666666666,4988.05078125,959.8333333333334,4988.05078125,979.8333333333334C4988.05078125,999.8333333333334,4988.05078125,1021.4166666666666,4828.667317708333,1042.0960934605323C4669.283854166667,1062.7755202543979,4350.516927083333,1082.5510405087957,4191.133463541667,1092.4388006359948L4031.75,1102.3265607631936" id="edge8" class="transition" marker-end="url(#statediagram-barbEnd)"></path><path d="M4807.273362089768,566L4792.031838199807,571.75C4776.790314309846,577.5,4746.307266529922,589,4731.065742639961,600.5C4715.82421875,612,4715.82421875,623.5,4715.82421875,638.9166666666666C4715.82421875,654.3333333333334,4715.82421875,673.6666666666666,4715.82421875,694.5833333333334C4715.82421875,715.5,4715.82421875,738,4715.82421875,757.8333333333334C4715.82421875,777.6666666666666,4715.82421875,794.8333333333334,4715.82421875,810.4166666666666C4715.82421875,826,4715.82421875,840,4715.82421875,852.75C4715.82421875,865.5,4715.82421875,877,4715.82421875,888.5C4715.82421875,900,4715.82421875,911.5,4715.82421875,926.4583333333334C4715.82421875,941.4166666666666,4715.82421875,959.8333333333334,4715.82421875,979.8333333333334C4715.82421875,999.8333333333334,4715.82421875,1021.4166666666666,4601.811848958333,1041.7771451572887C4487.799479166667,1062.137623647911,4259.774739583333,1081.2752472958216,4145.762369791667,1090.844059119777L4031.75,1100.4128709437325" id="edge9" class="transition" marker-end="url(#statediagram-barbEnd)"></path><path d="M4784.01171875,540.5983180696184L4570.998046875,550.581931724682C4357.984375,560.5655453797456,3931.95703125,580.5327726898728,3718.943359375,596.2663863449364C3505.9296875,612,3505.9296875,623.5,3505.9296875,633.875C3505.9296875,644.25,3505.9296875,653.5,3505.9296875,658.125L3505.9296875,662.75" id="edge10" class="transition" marker-end="url(#statediagram-barbEnd)"></path><path d="M4784.01171875,539.3889497251756L4494.475260416667,549.5741247709797C4204.938802083333,559.7592998167837,3625.8658854166665,580.1296499083919,3336.3294270833335,596.064824954196C3046.79296875,612,3046.79296875,623.5,3046.79296875,638.9166666666666C3046.79296875,654.3333333333334,3046.79296875,673.6666666666666,3046.79296875,694.5833333333334C3046.79296875,715.5,3046.79296875,738,3046.79296875,757.8333333333334C3046.79296875,777.6666666666666,3046.79296875,794.8333333333334,3046.79296875,810.4166666666666C3046.79296875,826,3046.79296875,840,3046.79296875,852.75C3046.79296875,865.5,3046.79296875,877,3252.951171875,888.5C3459.109375,900,3871.42578125,911.5,4077.583984375,926.4583333333334C4283.7421875,941.4166666666666,4283.7421875,959.8333333333334,4283.7421875,979.8333333333334C4283.7421875,999.8333333333334,4283.7421875,1021.4166666666666,4241.743489583333,1040.2204223731153C4199.744791666667,1059.0241780795643,4115.747395833333,1075.0483561591284,4073.7486979166665,1083.0604451989104L4031.75,1091.0725342386927" id="edge11" class="transition" marker-end="url(#statediagram-barbEnd)"></path><path d="M3637.0234375,701.4214400428266L3790.2994791666665,711.2678667023555C3943.5755208333335,721.1142933618844,4250.127604166667,740.8071466809421,4403.403645833333,759.2369066738044C4556.6796875,777.6666666666666,4556.6796875,794.8333333333334,4556.6796875,810.4166666666666C4556.6796875,826,4556.6796875,840,4556.6796875,852.75C4556.6796875,865.5,4556.6796875,877,4556.6796875,888.5C4556.6796875,900,4556.6796875,911.5,4556.6796875,926.4583333333334C4556.6796875,941.4166666666666,4556.6796875,959.8333333333334,4556.6796875,979.8333333333334C4556.6796875,999.8333333333334,4556.6796875,1021.4166666666666,4469.19140625,1041.4593364463326C4381.703125,1061.5020062259987,4206.7265625,1080.0040124519974,4119.23828125,1089.2550155649967L4031.75,1098.506018677996" id="edge12" class="transition" marker-end="url(#statediagram-barbEnd)"></path><path d="M1797.203125,816.6080743220165L1924.4772135416667,822.8400619350138C2051.7513020833335,829.0720495480109,2306.2994791666665,841.5360247740055,2433.5735677083335,853.5180123870027C2560.84765625,865.5,2560.84765625,877,2816.2278645833335,888.5C3071.6080729166665,900,3582.3684895833335,911.5,3837.7486979166665,926.4583333333334C4093.12890625,941.4166666666666,4093.12890625,959.8333333333334,4093.12890625,979.8333333333334C4093.12890625,999.8333333333334,4093.12890625,1021.4166666666666,4079.914937258687,1037.9583333333333C4066.7009682673743,1054.5,4040.273030284749,1066,4027.059061293436,1071.75L4013.8450923021237,1077.5" id="edge13" class="transition" marker-end="url(#statediagram-barbEnd)"></path><path d="M1361.71484375,983.4461216183864L1611.83203125,993.3717680153221C1861.94921875,1003.2974144122576,2362.18359375,1023.1487072061287,2778.048828125,1042.9940183489384C3193.9140625,1062.839329491748,3525.41015625,1082.6786589834962,3691.158203125,1092.5983237293703L3856.90625,1102.5179884752445" id="edge14" class="transition" marker-end="url(#statediagram-barbEnd)"></path><path d="M3374.8359375,703.1273688869417L3251.0592447916665,712.6894740724514C3127.2825520833335,722.2515792579611,2879.7291666666665,741.3757896289804,2616.7903645833335,758.6517977765034C2353.8515625,775.9278059240261,2075.52734375,791.3556118480523,1936.365234375,799.0695148100654L1797.203125,806.7834177720785" id="edge15" class="transition" marker-end="url(#statediagram-barbEnd)"></path><path d="M3374.8359375,700.1584994738489L3190.6634114583335,710.2154162282073C3006.4908854166665,720.2723329825659,2638.1458333333335,740.3861664912829,2375.20703125,757.6010378720352C2112.2682291666665,774.8159092527876,1954.7356770833333,789.1318185055752,1875.9694010416667,796.289773131969L1797.203125,803.4477277583628" id="edge16" class="transition" marker-end="url(#statediagram-barbEnd)"></path><path d="M1173.2843785350678,948L1165.36523732089,943.8333333333334C1157.4460961067118,939.6666666666666,1141.607813678356,931.3333333333334,1133.688672464178,921.4166666666666C1125.76953125,911.5,1125.76953125,900,1125.76953125,888.5C1125.76953125,877,1125.76953125,865.5,1206.3053385416667,853.8910670185054C1286.8411458333333,842.2821340370107,1447.9127604166667,830.5642680740215,1528.4485677083333,824.7053350925268L1608.984375,818.8464021110321" id="edge17" class="transition" marker-end="url(#statediagram-barbEnd)"></path><path d="M3637.0234375,704.0913631022327L3748.1432291666665,713.4928025851938C3859.2630208333335,722.8942420681551,4081.5026041666665,741.6971210340776,4192.622395833333,759.681893850372C4303.7421875,777.6666666666666,4303.7421875,794.8333333333334,4303.7421875,810.4166666666666C4303.7421875,826,4303.7421875,840,4303.7421875,852.75C4303.7421875,865.5,4303.7421875,877,4303.7421875,888.5C4303.7421875,900,4303.7421875,911.5,4303.7421875,926.4583333333334C4303.7421875,941.4166666666666,4303.7421875,959.8333333333334,4303.7421875,979.8333333333334C4303.7421875,999.8333333333334,4303.7421875,1021.4166666666666,4258.41015625,1040.3750950983588C4213.078125,1059.333523530051,4122.4140625,1075.6670470601023,4077.08203125,1083.8338088251278L4031.75,1092.0005705901533" id="edge18" class="transition" marker-end="url(#statediagram-barbEnd)"></path><path d="M1797.203125,817.4799321956793L1901.732421875,823.5666101630662C2006.26171875,829.6532881304529,2215.3203125,841.8266440652264,2319.849609375,853.6633220326133C2424.37890625,865.5,2424.37890625,877,2660.34765625,888.5C2896.31640625,900,3368.25390625,911.5,3604.22265625,926.4583333333334C3840.19140625,941.4166666666666,3840.19140625,959.8333333333334,3840.19140625,979.8333333333334C3840.19140625,999.8333333333334,3840.19140625,1021.4166666666666,3849.4390685328185,1037.9583333333333C3858.6867308156375,1054.5,3877.182055381274,1066,3886.4297176640925,1071.75L3895.677379946911,1077.5" id="edge19" class="transition" marker-end="url(#statediagram-barbEnd)"></path><path d="M1361.71484375,984.5172025964876L1565.3567708333333,994.2643354970729C1768.9986979166667,1004.0114683976584,2176.2825520833335,1023.5057341988291,2592.1477864583335,1043.3512252158955C3008.0130208333335,1063.1967162329618,3432.4596354166665,1083.3934324659233,3644.6829427083335,1093.491790582404L3856.90625,1103.5901486988848" id="edge20" class="transition" marker-end="url(#statediagram-barbEnd)"></path><path d="M3417.177097800926,723.25L3398.962034625771,729.4583333333334C3380.7469714506174,735.6666666666666,3344.316845100309,748.0833333333334,3326.1017819251542,762.875C3307.88671875,777.6666666666666,3307.88671875,794.8333333333334,3307.88671875,810.4166666666666C3307.88671875,826,3307.88671875,840,3307.88671875,852.75C3307.88671875,865.5,3307.88671875,877,3127.2884114583335,888.5C2946.6901041666665,900,2585.4934895833335,911.5,2376.1119791666665,922.1929903109482C2166.73046875,932.8859806218962,2109.1640625,942.7719612437926,2080.380859375,947.7149515547408L2051.59765625,952.6579418656888" id="edge21" class="transition" marker-end="url(#statediagram-barbEnd)"></path><path d="M1639.307384672619,829L1623.6734716021826,833.1666666666666C1608.0395585317463,837.3333333333334,1576.771732390873,845.6666666666666,1561.1378193204364,855.5833333333334C1545.50390625,865.5,1545.50390625,877,1545.50390625,888.5C1545.50390625,900,1545.50390625,911.5,1580.1783854166667,922.6152317397805C1614.8528645833333,933.730463479561,1684.2018229166667,944.4609269591219,1718.8763020833333,949.8261586989024L1753.55078125,955.1913904386829" id="edge22" class="transition" marker-end="url(#statediagram-barbEnd)"></path><path d="M2051.59765625,964.4005528398045L2081.0099826388887,961.6671273665038C2110.422309027778,958.933701893203,2169.246961805555,953.4668509466015,2206.0123697916665,950.7334254733008C2242.7777777777774,948,2257.483940972222,948,2272.1901041666665,953.0416666666666C2286.896267361111,958.0833333333334,2301.602430555555,968.1666666666666,2301.602430555555,978.25C2301.602430555555,988.3333333333334,2286.896267361111,998.4166666666666,2272.1901041666665,1003.4583333333334C2257.483940972222,1008.5,2242.7777777777774,1008.5,2206.0123697916665,1005.7665745266992C2169.246961805555,1003.0331490533985,2110.422309027778,997.566298106797,2081.0099826388887,994.8328726334962L2051.59765625,992.0994471601955" id="edge23" class="transition" marker-end="url(#statediagram-barbEnd)"></path><path d="M2051.59765625,984.9024092037724L2268.5091145833335,994.5853410031436C2485.4205729166665,1004.2682728025151,2919.2434895833335,1023.6341364012575,3220.1282552083335,1042.5131170478812C3521.0130208333335,1061.3920976945049,3688.9596354166665,1079.7841953890097,3772.9329427083335,1088.9802442362623L3856.90625,1098.1762930835146" id="edge24" class="transition" marker-end="url(#statediagram-barbEnd)"></path><path d="M2051.59765625,986.2570679796696L2227.609375,995.7142233163913C2403.62109375,1005.171378653113,2755.64453125,1024.0856893265566,3056.529296875,1043.2068996858054C3357.4140625,1062.3281100450545,3607.16015625,1081.656220090109,3732.033203125,1091.3202751126362L3856.90625,1100.9843301351634" id="edge25" class="transition" marker-end="url(#statediagram-barbEnd)"></path><path d="M1753.55078125,987.7860272544781L1609.7421875,996.9883560453985C1465.93359375,1006.1906848363187,1178.31640625,1024.5953424181594,999.0501302083334,1040.334507280245C819.7838541666666,1056.0736721423302,748.8684895833334,1069.1473442846602,713.4108072916666,1075.6841803558254L677.953125,1082.2210164269904" id="edge26" class="transition" marker-end="url(#statediagram-barbEnd)"></path><path d="M677.953125,1127.041733152099L720.9713541666666,1133.034777626749C763.9895833333334,1139.0278221013994,850.0260416666666,1151.0139110506996,893.0442708333334,1162.7569555253497C936.0625,1174.5,936.0625,1186,936.0625,1202.5416666666667C936.0625,1219.0833333333333,936.0625,1240.6666666666667,936.0625,1262.25C936.0625,1283.8333333333333,936.0625,1305.4166666666667,936.0625,1327C936.0625,1348.5833333333333,936.0625,1370.1666666666667,936.0625,1391.75C936.0625,1413.3333333333333,936.0625,1434.9166666666667,936.0625,1456.5C936.0625,1478.0833333333333,936.0625,1499.6666666666667,936.0625,1521.25C936.0625,1542.8333333333333,936.0625,1564.4166666666667,922.9531629247573,1580.9583333333333C909.8438258495145,1597.5,883.6251516990291,1609,870.5158146237864,1614.75L857.4064775485436,1620.5" id="edge27" class="transition" marker-end="url(#statediagram-barbEnd)"></path><path d="M460.18152573529414,1138L449.25934436274514,1142.1666666666667C438.3371629901961,1146.3333333333333,416.49280024509807,1154.6666666666667,405.570618872549,1164.5833333333333C394.6484375,1174.5,394.6484375,1186,394.6484375,1197.5C394.6484375,1209,394.6484375,1220.5,394.6484375,1226.25L394.6484375,1232" id="edge28" class="transition" marker-end="url(#statediagram-barbEnd)"></path><path d="M542.1171875,1285.1629204004348L586.9947916666666,1292.1357670003624C631.8723958333334,1299.1086136002898,721.6276041666666,1313.054306800145,766.5052083333334,1330.8188200667391C811.3828125,1348.5833333333333,811.3828125,1370.1666666666667,811.3828125,1391.75C811.3828125,1413.3333333333333,811.3828125,1434.9166666666667,811.3828125,1456.5C811.3828125,1478.0833333333333,811.3828125,1499.6666666666667,811.3828125,1521.25C811.3828125,1542.8333333333333,811.3828125,1564.4166666666667,812.1940230582524,1580.9583333333333C813.0052336165048,1597.5,814.6276547330098,1609,815.4388652912621,1614.75L816.2500758495146,1620.5" id="edge29" class="transition" marker-end="url(#statediagram-barbEnd)"></path><path d="M493.0978070704633,1292.5L511.81132360038606,1298.25C530.5248401303089,1304,567.9518731901544,1315.5,586.6653897200772,1327C605.37890625,1338.5,605.37890625,1350,605.37890625,1355.75L605.37890625,1361.5" id="edge30" class="transition" marker-end="url(#statediagram-barbEnd)"></path><path d="M631.4297478281853,1422L636.3815606901544,1427.75C641.3333735521236,1433.5,651.2369992760617,1445,656.1888121380308,1461.5416666666667C661.140625,1478.0833333333333,661.140625,1499.6666666666667,661.140625,1521.25C661.140625,1542.8333333333333,661.140625,1564.4166666666667,678.7264487257281,1580.9583333333333C696.3122724514564,1597.5,731.4839199029126,1609,749.0697436286408,1614.75L766.6555673543689,1620.5" id="edge31" class="transition" marker-end="url(#statediagram-barbEnd)"></path><path d="M533.2942658059845,1422L519.5922267133204,1427.75C505.8901876206564,1433.5,478.4861094353282,1445,446.0705538127413,1456.5C413.6549981901544,1468,376.22796513030886,1479.5,357.51444860038606,1485.25L338.8009320704633,1491" id="edge32" class="transition" marker-end="url(#statediagram-barbEnd)"></path><path d="M296.5129554777992,1292.5L277.85910352316597,1298.25C259.2052515685328,1304,221.8975476592664,1315.5,203.24369570463318,1332.0416666666667C184.58984375,1348.5833333333333,184.58984375,1370.1666666666667,184.58984375,1391.75C184.58984375,1413.3333333333333,184.58984375,1434.9166666666667,189.5416566119691,1451.4583333333333C194.49346947393823,1468,204.39709519787644,1479.5,209.34890805984557,1485.25L214.30072092181467,1491" id="edge33" class="transition" marker-end="url(#statediagram-barbEnd)"></path><path d="M383.8203125,1550.5851013963586L412.6875,1556.4875844969654C441.5546875,1562.3900675975722,499.2890625,1574.1950337987862,504.01096025485435,1585.847516899393C508.7328580097087,1597.5,460.44227851941747,1609,436.2969887742718,1614.75L412.15169902912623,1620.5" id="edge34" class="transition" marker-end="url(#statediagram-barbEnd)"></path><path d="M292.7671332046332,1551.5L302.730423503861,1557.25C312.69371380308877,1563,332.6202944015444,1574.5,318.4382949556266,1586C304.25629550970876,1597.5,255.9657160194175,1609,231.82042627427185,1614.75L207.67513652912623,1620.5" id="edge35" class="transition" marker-end="url(#statediagram-barbEnd)"></path><path d="M187.9359917953668,1551.5L177.97270149613897,1557.25C168.0094111969112,1563,148.08283059845562,1574.5,241.82787363256114,1587.9850320008748C335.5729166666667,1601.47006400175,542.9895833333334,1616.9401280035,646.6979166666666,1624.6751600043747L750.40625,1632.4101920052499" id="edge36" class="transition" marker-end="url(#statediagram-barbEnd)"></path><path d="M3944.328125,1138L3944.328125,1142.1666666666667C3944.328125,1146.3333333333333,3944.328125,1154.6666666666667,3944.328125,1164.5833333333333C3944.328125,1174.5,3944.328125,1186,3944.328125,1202.5416666666667C3944.328125,1219.0833333333333,3944.328125,1240.6666666666667,3944.328125,1262.25C3944.328125,1283.8333333333333,3944.328125,1305.4166666666667,3944.328125,1327C3944.328125,1348.5833333333333,3944.328125,1370.1666666666667,3944.328125,1391.75C3944.328125,1413.3333333333333,3944.328125,1434.9166666666667,3944.328125,1456.5C3944.328125,1478.0833333333333,3944.328125,1499.6666666666667,3944.328125,1521.25C3944.328125,1542.8333333333333,3944.328125,1564.4166666666667,3434.7552083333335,1583.6042688840178C2925.1822916666665,1602.7918711013688,1906.0364583333333,1619.5837422027373,1396.4635416666667,1627.979677753422L886.890625,1636.3756133041063" id="edge37" class="transition" marker-end="url(#statediagram-barbEnd)"></path><path d="M1608.984375,822.7609618104667L1563.451171875,827.967468175389C1517.91796875,833.1739745403111,1426.8515625,843.5869872701555,1381.318359375,854.5434936350779C1335.78515625,865.5,1335.78515625,877,1335.78515625,888.5C1335.78515625,900,1335.78515625,911.5,1327.866015035822,921.4166666666666C1319.946873821644,931.3333333333334,1304.1085913932882,939.6666666666666,1296.18945017911,943.8333333333334L1288.2703089649322,948" id="edge38" class="transition" marker-end="url(#statediagram-barbEnd)"></path><path d="M478.7109375,1003.25L478.7109375,1009.875C478.7109375,1016.5,478.7109375,1029.75,484.10711269305017,1042.125C489.5032878861004,1054.5,500.29563827220073,1066,505.69181346525096,1071.75L511.08798865830113,1077.5" class="transition note-edge"></path><path d="M3508.91796875,1003.25L3508.91796875,1009.875C3508.91796875,1016.5,3508.91796875,1029.75,3566.916015625,1044.9999102857398C3624.9140625,1060.2498205714799,3740.91015625,1077.4996411429597,3798.908203125,1086.1245514286995L3856.90625,1094.7494617144396" class="transition note-edge"></path><path d="M1062.42578125,726L1062.42578125,731.75C1062.42578125,737.5,1062.42578125,749,1153.5188802083333,762.0725052994412C1244.6119791666667,775.1450105988825,1426.7981770833333,789.7900211977652,1517.8912760416667,797.1125264972064L1608.984375,804.4350317966478" class="transition note-edge"></path><path d="M3116.59765625,147L3116.59765625,152.75C3116.59765625,158.5,3116.59765625,170,3116.59765625,181.95833333333334C3116.59765625,193.91666666666666,3116.59765625,206.33333333333334,3116.59765625,212.54166666666666L3116.59765625,218.75" class="transition note-edge"></path><path d="M340.765625,1654.5L340.765625,1658.6666666666667C340.765625,1662.8333333333333,340.765625,1671.1666666666667,365.97565542460256,1680.4352520872142C391.18568584920513,1689.7038375077618,441.60574669841026,1699.9076750155236,466.8157771230128,1705.0095937694043L492.0258075476154,1710.1115125232852" id="edge39" class="transition" marker-end="url(#statediagram-barbEnd)"></path><path d="M136.2890625,1654.5L136.2890625,1658.6666666666667C136.2890625,1662.8333333333333,136.2890625,1671.1666666666667,195.55985542550835,1680.5641045226223C254.83064835101672,1689.9615423785783,373.37223420203344,1700.4230847571569,432.64302712754176,1705.653855946446L491.9138200530501,1710.884627135735" id="edge40" class="transition" marker-end="url(#statediagram-barbEnd)"></path><path d="M818.6484375,1654.5L818.6484375,1658.6666666666667C818.6484375,1662.8333333333333,818.6484375,1671.1666666666667,766.5156858621335,1680.5504933452733C714.3829342242672,1689.93432002388,610.1174309485342,1700.3686400477602,557.9846793106678,1705.5858000597002L505.8519276728014,1710.8029600716404" id="edge41" class="transition" marker-end="url(#statediagram-barbEnd)"></path></g><g class="edgeLabels"><g class="edgeLabel"><g class="label" transform="translate(0, 0)"><rect rx="0" ry="0" width="0" height="0" style="fill:#e8e8e8;"></rect><text style=""></text></g></g><g class="edgeLabel"><g class="label" transform="translate(0, 0)"><rect rx="0" ry="0" width="0" height="0" style="fill:#e8e8e8;"></rect><text style=""></text></g></g><g class="edgeLabel" transform="translate(630.08984375, 181.5)"><g class="label" transform="translate(-60.0234375, -9.5)"><rect rx="0" ry="0" width="120.046875" height="19" style="fill:#e8e8e8;"></rect><text style=""><tspan xml:space="preserve" dy="1em" x="0" class="row">ClientEventOpen</tspan></text></g></g><g class="edgeLabel" transform="translate(5205.7578125, 341.5)"><g class="label" transform="translate(-100.0390625, -9.5)"><rect rx="0" ry="0" width="200.078125" height="19" style="fill:#e8e8e8;"></rect><text style=""><tspan xml:space="preserve" dy="1em" x="0" class="row">ClientEventFundingInitiated</tspan></text></g></g><g class="edgeLabel" transform="translate(2902.58203125, 693)"><g class="label" transform="translate(-111.953125, -9.5)"><rect rx="0" ry="0" width="223.90625" height="19" style="fill:#e8e8e8;"></rect><text style=""><tspan xml:space="preserve" dy="1em" x="0" class="row">ClientEventReserveFundsFailed</tspan></text></g></g><g class="edgeLabel" transform="translate(5276.96484375, 760.5)"><g class="label" transform="translate(-111.953125, -9.5)"><rect rx="0" ry="0" width="223.90625" height="19" style="fill:#e8e8e8;"></rect><text style=""><tspan xml:space="preserve" dy="1em" x="0" class="row">ClientEventReserveFundsFailed</tspan></text></g></g><g class="edgeLabel" transform="translate(2778.63671875, 406.25)"><g class="label" transform="translate(-103.9453125, -9.5)"><rect rx="0" ry="0" width="207.890625" height="19" style="fill:#e8e8e8;"></rect><text style=""><tspan xml:space="preserve" dy="1em" x="0" class="row">ClientEventFundingComplete</tspan></text></g></g><g class="edgeLabel" transform="translate(4887.45703125, 471)"><g class="label" transform="translate(-103.9453125, -9.5)"><rect rx="0" ry="0" width="207.890625" height="19" style="fill:#e8e8e8;"></rect><text style=""><tspan xml:space="preserve" dy="1em" x="0" class="row">ClientEventFundingComplete</tspan></text></g></g><g class="edgeLabel" transform="translate(5457.7578125, 1107.75)"><g class="label" transform="translate(-113.4609375, -9.5)"><rect rx="0" ry="0" width="226.921875" height="19" style="fill:#e8e8e8;"></rect><text style=""><tspan xml:space="preserve" dy="1em" x="0" class="row">ClientEventWriteProposalFailed</tspan></text></g></g><g class="edgeLabel" transform="translate(4988.05078125, 812)"><g class="label" transform="translate(-113.96875, -9.5)"><rect rx="0" ry="0" width="227.9375" height="19" style="fill:#e8e8e8;"></rect><text style=""><tspan xml:space="preserve" dy="1em" x="0" class="row">ClientEventReadResponseFailed</tspan></text></g></g><g class="edgeLabel" transform="translate(4715.82421875, 812)"><g class="label" transform="translate(-138.2578125, -9.5)"><rect rx="0" ry="0" width="276.515625" height="19" style="fill:#e8e8e8;"></rect><text style=""><tspan xml:space="preserve" dy="1em" x="0" class="row">ClientEventResponseVerificationFailed</tspan></text></g></g><g class="edgeLabel" transform="translate(3505.9296875, 600.5)"><g class="label" transform="translate(-113.9921875, -9.5)"><rect rx="0" ry="0" width="227.984375" height="19" style="fill:#e8e8e8;"></rect><text style=""><tspan xml:space="preserve" dy="1em" x="0" class="row">ClientEventInitiateDataTransfer</tspan></text></g></g><g class="edgeLabel" transform="translate(3046.79296875, 812)"><g class="label" transform="translate(-118.734375, -9.5)"><rect rx="0" ry="0" width="237.46875" height="19" style="fill:#e8e8e8;"></rect><text style=""><tspan xml:space="preserve" dy="1em" x="0" class="row">ClientEventUnexpectedDealState</tspan></text></g></g><g class="edgeLabel" transform="translate(4556.6796875, 888.5)"><g class="label" transform="translate(-109.7890625, -9.5)"><rect rx="0" ry="0" width="219.578125" height="19" style="fill:#e8e8e8;"></rect><text style=""><tspan xml:space="preserve" dy="1em" x="0" class="row">ClientEventDataTransferFailed</tspan></text></g></g><g class="edgeLabel" transform="translate(4093.12890625, 978.25)"><g class="label" transform="translate(-109.7890625, -9.5)"><rect rx="0" ry="0" width="219.578125" height="19" style="fill:#e8e8e8;"></rect><text style=""><tspan xml:space="preserve" dy="1em" x="0" class="row">ClientEventDataTransferFailed</tspan></text></g></g><g class="edgeLabel" transform="translate(2862.41796875, 1043)"><g class="label" transform="translate(-135.703125, -9.5)"><rect rx="0" ry="0" width="271.40625" height="19" style="fill:#e8e8e8;"></rect><text style=""><tspan xml:space="preserve" dy="1em" x="0" class="row">ClientEventDataTransferRestartFailed</tspan></text></g></g><g class="edgeLabel" transform="translate(2632.17578125, 760.5)"><g class="label" transform="translate(-118.453125, -9.5)"><rect rx="0" ry="0" width="236.90625" height="19" style="fill:#e8e8e8;"></rect><text style=""><tspan xml:space="preserve" dy="1em" x="0" class="row">ClientEventDataTransferInitiated</tspan></text></g></g><g class="edgeLabel" transform="translate(2269.80078125, 760.5)"><g class="label" transform="translate(-122.65625, -9.5)"><rect rx="0" ry="0" width="245.3125" height="19" style="fill:#e8e8e8;"></rect><text style=""><tspan xml:space="preserve" dy="1em" x="0" class="row">ClientEventDataTransferRestarted</tspan></text></g></g><g class="edgeLabel" transform="translate(1125.76953125, 888.5)"><g class="label" transform="translate(-122.65625, -9.5)"><rect rx="0" ry="0" width="245.3125" height="19" style="fill:#e8e8e8;"></rect><text style=""><tspan xml:space="preserve" dy="1em" x="0" class="row">ClientEventDataTransferRestarted</tspan></text></g></g><g class="edgeLabel" transform="translate(4303.7421875, 888.5)"><g class="label" transform="translate(-123.1484375, -9.5)"><rect rx="0" ry="0" width="246.296875" height="19" style="fill:#e8e8e8;"></rect><text style=""><tspan xml:space="preserve" dy="1em" x="0" class="row">ClientEventDataTransferCancelled</tspan></text></g></g><g class="edgeLabel" transform="translate(3840.19140625, 978.25)"><g class="label" transform="translate(-123.1484375, -9.5)"><rect rx="0" ry="0" width="246.296875" height="19" style="fill:#e8e8e8;"></rect><text style=""><tspan xml:space="preserve" dy="1em" x="0" class="row">ClientEventDataTransferCancelled</tspan></text></g></g><g class="edgeLabel" transform="translate(2583.56640625, 1043)"><g class="label" transform="translate(-123.1484375, -9.5)"><rect rx="0" ry="0" width="246.296875" height="19" style="fill:#e8e8e8;"></rect><text style=""><tspan xml:space="preserve" dy="1em" x="0" class="row">ClientEventDataTransferCancelled</tspan></text></g></g><g class="edgeLabel" transform="translate(3307.88671875, 812)"><g class="label" transform="translate(-122.359375, -9.5)"><rect rx="0" ry="0" width="244.71875" height="19" style="fill:#e8e8e8;"></rect><text style=""><tspan xml:space="preserve" dy="1em" x="0" class="row">ClientEventDataTransferComplete</tspan></text></g></g><g class="edgeLabel" transform="translate(1545.50390625, 888.5)"><g class="label" transform="translate(-122.359375, -9.5)"><rect rx="0" ry="0" width="244.71875" height="19" style="fill:#e8e8e8;"></rect><text style=""><tspan xml:space="preserve" dy="1em" x="0" class="row">ClientEventDataTransferComplete</tspan></text></g></g><g class="edgeLabel" transform="translate(2316.30859375, 978.25)"><g class="label" transform="translate(-104.109375, -9.5)"><rect rx="0" ry="0" width="208.21875" height="19" style="fill:#e8e8e8;"></rect><text style=""><tspan xml:space="preserve" dy="1em" x="0" class="row">ClientEventWaitForDealState</tspan></text></g></g><g class="edgeLabel" transform="translate(3353.06640625, 1043)"><g class="label" transform="translate(-135.8515625, -9.5)"><rect rx="0" ry="0" width="271.703125" height="19" style="fill:#e8e8e8;"></rect><text style=""><tspan xml:space="preserve" dy="1em" x="0" class="row">ClientEventResponseDealDidNotMatch</tspan></text></g></g><g class="edgeLabel" transform="translate(3107.66796875, 1043)"><g class="label" transform="translate(-89.546875, -9.5)"><rect rx="0" ry="0" width="179.09375" height="19" style="fill:#e8e8e8;"></rect><text style=""><tspan xml:space="preserve" dy="1em" x="0" class="row">ClientEventDealRejected</tspan></text></g></g><g class="edgeLabel" transform="translate(890.69921875, 1043)"><g class="label" transform="translate(-90.7265625, -9.5)"><rect rx="0" ry="0" width="181.453125" height="19" style="fill:#e8e8e8;"></rect><text style=""><tspan xml:space="preserve" dy="1em" x="0" class="row">ClientEventDealAccepted</tspan></text></g></g><g class="edgeLabel" transform="translate(936.0625, 1391.75)"><g class="label" transform="translate(-104.6796875, -9.5)"><rect rx="0" ry="0" width="209.359375" height="19" style="fill:#e8e8e8;"></rect><text style=""><tspan xml:space="preserve" dy="1em" x="0" class="row">ClientEventDealPublishFailed</tspan></text></g></g><g class="edgeLabel" transform="translate(394.6484375, 1197.5)"><g class="label" transform="translate(-91.6328125, -9.5)"><rect rx="0" ry="0" width="183.265625" height="19" style="fill:#e8e8e8;"></rect><text style=""><tspan xml:space="preserve" dy="1em" x="0" class="row">ClientEventDealPublished</tspan></text></g></g><g class="edgeLabel" transform="translate(811.3828125, 1456.5)"><g class="label" transform="translate(-54.671875, -9.5)"><rect rx="0" ry="0" width="109.34375" height="19" style="fill:#e8e8e8;"></rect><text style=""><tspan xml:space="preserve" dy="1em" x="0" class="row">&lt;invalid Value&gt;</tspan></text></g></g><g class="edgeLabel" transform="translate(605.37890625, 1327)"><g class="label" transform="translate(-54.671875, -9.5)"><rect rx="0" ry="0" width="109.34375" height="19" style="fill:#e8e8e8;"></rect><text style=""><tspan xml:space="preserve" dy="1em" x="0" class="row">&lt;invalid Value&gt;</tspan></text></g></g><g class="edgeLabel" transform="translate(661.140625, 1521.25)"><g class="label" transform="translate(-115.5078125, -9.5)"><rect rx="0" ry="0" width="231.015625" height="19" style="fill:#e8e8e8;"></rect><text style=""><tspan xml:space="preserve" dy="1em" x="0" class="row">ClientEventDealActivationFailed</tspan></text></g></g><g class="edgeLabel" transform="translate(451.08203125, 1456.5)"><g class="label" transform="translate(-91.5234375, -9.5)"><rect rx="0" ry="0" width="183.046875" height="19" style="fill:#e8e8e8;"></rect><text style=""><tspan xml:space="preserve" dy="1em" x="0" class="row">ClientEventDealActivated</tspan></text></g></g><g class="edgeLabel" transform="translate(184.58984375, 1391.75)"><g class="label" transform="translate(-91.5234375, -9.5)"><rect rx="0" ry="0" width="183.046875" height="19" style="fill:#e8e8e8;"></rect><text style=""><tspan xml:space="preserve" dy="1em" x="0" class="row">ClientEventDealActivated</tspan></text></g></g><g class="edgeLabel" transform="translate(557.0234375, 1586)"><g class="label" transform="translate(-84.1171875, -9.5)"><rect rx="0" ry="0" width="168.234375" height="19" style="fill:#e8e8e8;"></rect><text style=""><tspan xml:space="preserve" dy="1em" x="0" class="row">ClientEventDealSlashed</tspan></text></g></g><g class="edgeLabel" transform="translate(352.546875, 1586)"><g class="label" transform="translate(-84.234375, -9.5)"><rect rx="0" ry="0" width="168.46875" height="19" style="fill:#e8e8e8;"></rect><text style=""><tspan xml:space="preserve" dy="1em" x="0" class="row">ClientEventDealExpired</tspan></text></g></g><g class="edgeLabel" transform="translate(128.15625, 1586)"><g class="label" transform="translate(-120.15625, -9.5)"><rect rx="0" ry="0" width="240.3125" height="19" style="fill:#e8e8e8;"></rect><text style=""><tspan xml:space="preserve" dy="1em" x="0" class="row">ClientEventDealCompletionFailed</tspan></text></g></g><g class="edgeLabel" transform="translate(3944.328125, 1391.75)"><g class="label" transform="translate(-63.3046875, -9.5)"><rect rx="0" ry="0" width="126.609375" height="19" style="fill:#e8e8e8;"></rect><text style=""><tspan xml:space="preserve" dy="1em" x="0" class="row">ClientEventFailed</tspan></text></g></g><g class="edgeLabel" transform="translate(1335.78515625, 888.5)"><g class="label" transform="translate(-67.359375, -9.5)"><rect rx="0" ry="0" width="134.71875" height="19" style="fill:#e8e8e8;"></rect><text style=""><tspan xml:space="preserve" dy="1em" x="0" class="row">ClientEventRestart</tspan></text></g></g><g class="edgeLabel"><g class="label" transform="translate(0, 0)"><rect rx="0" ry="0" width="0" height="0" style="fill:#e8e8e8;"></rect><text style=""></text></g></g><g class="edgeLabel"><g class="label" transform="translate(0, 0)"><rect rx="0" ry="0" width="0" height="0" style="fill:#e8e8e8;"></rect><text style=""></text></g></g><g class="edgeLabel"><g class="label" transform="translate(0, 0)"><rect rx="0" ry="0" width="0" height="0" style="fill:#e8e8e8;"></rect><text style=""></text></g></g><g class="edgeLabel"><g class="label" transform="translate(0, 0)"><rect rx="0" ry="0" width="0" height="0" style="fill:#e8e8e8;"></rect><text style=""></text></g></g><g class="edgeLabel"><g class="label" transform="translate(0, 0)"><rect rx="0" ry="0" width="0" height="0" style="fill:#e8e8e8;"></rect><text style=""></text></g></g><g class="edgeLabel"><g class="label" transform="translate(0, 0)"><rect rx="0" ry="0" width="0" height="0" style="fill:#e8e8e8;"></rect><text style=""></text></g></g><g class="edgeLabel"><g class="label" transform="translate(0, 0)"><rect rx="0" ry="0" width="0" height="0" style="fill:#e8e8e8;"></rect><text style=""></text></g></g></g><g class="nodes"><g class="node statediagram-state" id="0" transform="translate(745.1015625, 122)"><rect class="outer title-state" x="-82.921875" y="-17" width="165.84375" height="34"></rect><line class="divider" x1="-82.921875" x2="82.921875" y1="9.5" y2="9.5"></line><g class="label" transform="translate(-75.421875, -14)"><text style=""><tspan xml:space="preserve" dy="1em" x="0" class="title-row">StorageDealUnknown</tspan></text><text style="" transform="translate( 0, 26.5)"><tspan xml:space="preserve" dy="1em" x="0" class="title-row"></tspan></text></g></g><g class="node statediagram-state" id="3" transform="translate(539.4765625, 1107.75)"><rect class="outer title-state" x="-138.4765625" y="-30.25" width="276.953125" height="60.5"></rect><line class="divider" x1="-138.4765625" x2="138.4765625" y1="-3.75" y2="-3.75"></line><g class="label" transform="translate(-130.9765625, -27.25)"><text style=""><tspan xml:space="preserve" dy="1em" x="0" class="title-row">StorageDealProposalAccepted</tspan></text><text style="" transform="translate( 0, 26.5)"><tspan xml:space="preserve" dy="1em" x="0" class="title-row">On entry runs ValidateDealPublished</tspan></text></g></g><g class="node statediagram-state" id="5" transform="translate(605.37890625, 1391.75)"><rect class="outer title-state" x="-129.9765625" y="-30.25" width="259.953125" height="60.5"></rect><line class="divider" x1="-129.9765625" x2="129.9765625" y1="-3.75" y2="-3.75"></line><g class="label" transform="translate(-122.4765625, -27.25)"><text style=""><tspan xml:space="preserve" dy="1em" x="0" class="title-row">StorageDealSealing</tspan></text><text style="" transform="translate( 0, 26.5)"><tspan xml:space="preserve" dy="1em" x="0" class="title-row">On entry runs VerifyDealActivated</tspan></text></g></g><g class="node statediagram-state" id="7" transform="translate(240.3515625, 1521.25)"><rect class="outer title-state" x="-143.46875" y="-30.25" width="286.9375" height="60.5"></rect><line class="divider" x1="-143.46875" x2="143.46875" y1="-3.75" y2="-3.75"></line><g class="label" transform="translate(-135.96875, -27.25)"><text style=""><tspan xml:space="preserve" dy="1em" x="0" class="title-row">StorageDealActive</tspan></text><text style="" transform="translate( 0, 26.5)"><tspan xml:space="preserve" dy="1em" x="0" class="title-row">On entry runs WaitForDealCompletion</tspan></text></g></g><g class="node statediagram-state" id="8" transform="translate(136.2890625, 1637.5)"><rect class="outer title-state" x="-77.296875" y="-17" width="154.59375" height="34"></rect><line class="divider" x1="-77.296875" x2="77.296875" y1="9.5" y2="9.5"></line><g class="label" transform="translate(-69.796875, -14)"><text style=""><tspan xml:space="preserve" dy="1em" x="0" class="title-row">StorageDealExpired</tspan></text><text style="" transform="translate( 0, 26.5)"><tspan xml:space="preserve" dy="1em" x="0" class="title-row"></tspan></text></g></g><g class="node statediagram-state" id="9" transform="translate(340.765625, 1637.5)"><rect class="outer title-state" x="-77.1796875" y="-17" width="154.359375" height="34"></rect><line class="divider" x1="-77.1796875" x2="77.1796875" y1="9.5" y2="9.5"></line><g class="label" transform="translate(-69.6796875, -14)"><text style=""><tspan xml:space="preserve" dy="1em" x="0" class="title-row">StorageDealSlashed</tspan></text><text style="" transform="translate( 0, 26.5)"><tspan xml:space="preserve" dy="1em" x="0" class="title-row"></tspan></text></g></g><g class="node statediagram-state" id="11" transform="translate(3944.328125, 1107.75)"><rect class="outer title-state" x="-87.421875" y="-30.25" width="174.84375" height="60.5"></rect><line class="divider" x1="-87.421875" x2="87.421875" y1="-3.75" y2="-3.75"></line><g class="label" transform="translate(-79.921875, -27.25)"><text style=""><tspan xml:space="preserve" dy="1em" x="0" class="title-row">StorageDealFailing</tspan></text><text style="" transform="translate( 0, 26.5)"><tspan xml:space="preserve" dy="1em" x="0" class="title-row">On entry runs FailDeal</tspan></text></g></g><g class="node statediagram-state" id="12" transform="translate(4887.45703125, 535.75)"><rect class="outer title-state" x="-103.4453125" y="-30.25" width="206.890625" height="60.5"></rect><line class="divider" x1="-103.4453125" x2="103.4453125" y1="-3.75" y2="-3.75"></line><g class="label" transform="translate(-95.9453125, -27.25)"><text style=""><tspan xml:space="preserve" dy="1em" x="0" class="title-row">StorageDealFundsReserved</tspan></text><text style="" transform="translate( 0, 26.5)"><tspan xml:space="preserve" dy="1em" x="0" class="title-row">On entry runs ProposeDeal</tspan></text></g></g><g class="node statediagram-state" id="13" transform="translate(1902.57421875, 978.25)"><rect class="outer title-state" x="-149.0234375" y="-30.25" width="298.046875" height="60.5"></rect><line class="divider" x1="-149.0234375" x2="149.0234375" y1="-3.75" y2="-3.75"></line><g class="label" transform="translate(-141.5234375, -27.25)"><text style=""><tspan xml:space="preserve" dy="1em" x="0" class="title-row">StorageDealCheckForAcceptance</tspan></text><text style="" transform="translate( 0, 26.5)"><tspan xml:space="preserve" dy="1em" x="0" class="title-row">On entry runs CheckForDealAcceptance</tspan></text></g></g><g class="node statediagram-state" id="16" transform="translate(3505.9296875, 693)"><rect class="outer title-state" x="-131.09375" y="-30.25" width="262.1875" height="60.5"></rect><line class="divider" x1="-131.09375" x2="131.09375" y1="-3.75" y2="-3.75"></line><g class="label" transform="translate(-123.59375, -27.25)"><text style=""><tspan xml:space="preserve" dy="1em" x="0" class="title-row">StorageDealStartDataTransfer</tspan></text><text style="" transform="translate( 0, 26.5)"><tspan xml:space="preserve" dy="1em" x="0" class="title-row">On entry runs InitiateDataTransfer</tspan></text></g></g><g class="node statediagram-state" id="17" transform="translate(1703.09375, 812)"><rect class="outer title-state" x="-94.109375" y="-17" width="188.21875" height="34"></rect><line class="divider" x1="-94.109375" x2="94.109375" y1="9.5" y2="9.5"></line><g class="label" transform="translate(-86.609375, -14)"><text style=""><tspan xml:space="preserve" dy="1em" x="0" class="title-row">StorageDealTransferring</tspan></text><text style="" transform="translate( 0, 26.5)"><tspan xml:space="preserve" dy="1em" x="0" class="title-row"></tspan></text></g></g><g class="node statediagram-state" id="21" transform="translate(3116.59765625, 249)"><rect class="outer title-state" x="-128.5234375" y="-30.25" width="257.046875" height="60.5"></rect><line class="divider" x1="-128.5234375" x2="128.5234375" y1="-3.75" y2="-3.75"></line><g class="label" transform="translate(-121.0234375, -27.25)"><text style=""><tspan xml:space="preserve" dy="1em" x="0" class="title-row">StorageDealReserveClientFunds</tspan></text><text style="" transform="translate( 0, 26.5)"><tspan xml:space="preserve" dy="1em" x="0" class="title-row">On entry runs ReserveClientFunds</tspan></text></g></g><g class="node statediagram-state" id="23" transform="translate(5205.7578125, 406.25)"><rect class="outer title-state" x="-114.6875" y="-30.25" width="229.375" height="60.5"></rect><line class="divider" x1="-114.6875" x2="114.6875" y1="-3.75" y2="-3.75"></line><g class="label" transform="translate(-107.1875, -27.25)"><text style=""><tspan xml:space="preserve" dy="1em" x="0" class="title-row">StorageDealClientFunding</tspan></text><text style="" transform="translate( 0, 26.5)"><tspan xml:space="preserve" dy="1em" x="0" class="title-row">On entry runs WaitForFunding</tspan></text></g></g><g class="node statediagram-state" id="26" transform="translate(818.6484375, 1637.5)"><rect class="outer title-state" x="-68.2421875" y="-17" width="136.484375" height="34"></rect><line class="divider" x1="-68.2421875" x2="68.2421875" y1="9.5" y2="9.5"></line><g class="label" transform="translate(-60.7421875, -14)"><text style=""><tspan xml:space="preserve" dy="1em" x="0" class="title-row">StorageDealError</tspan></text><text style="" transform="translate( 0, 26.5)"><tspan xml:space="preserve" dy="1em" x="0" class="title-row"></tspan></text></g></g><g class="node statediagram-state" id="28" transform="translate(1230.77734375, 978.25)"><rect class="outer title-state" x="-130.9375" y="-30.25" width="261.875" height="60.5"></rect><line class="divider" x1="-130.9375" x2="130.9375" y1="-3.75" y2="-3.75"></line><g class="label" transform="translate(-123.4375, -27.25)"><text style=""><tspan xml:space="preserve" dy="1em" x="0" class="title-row">StorageDealClientTransferRestart</tspan></text><text style="" transform="translate( 0, 26.5)"><tspan xml:space="preserve" dy="1em" x="0" class="title-row">On entry runs RestartDataTransfer</tspan></text></g></g><g class="node statediagram-state" id="29" transform="translate(394.6484375, 1262.25)"><rect class="outer title-state" x="-147.46875" y="-30.25" width="294.9375" height="60.5"></rect><line class="divider" x1="-147.46875" x2="147.46875" y1="-3.75" y2="-3.75"></line><g class="label" transform="translate(-139.96875, -27.25)"><text style=""><tspan xml:space="preserve" dy="1em" x="0" class="title-row">StorageDealAwaitingPreCommit</tspan></text><text style="" transform="translate( 0, 26.5)"><tspan xml:space="preserve" dy="1em" x="0" class="title-row">On entry runs VerifyDealPreCommitted</tspan></text></g></g><g class="node default" id="root_start" transform="translate(745.1015625, 15)"><circle class="state-start" r="7" width="14" height="14"></circle></g><g class="node statediagram-note" id="0----note" transform="translate(785.11328125, 249)"><rect x="-275.046875" y="-33" width="550.09375" height="66"></rect><g class="label" transform="translate(-267.546875, -25.5)"><text style=""><tspan xml:space="preserve" dy="1em" x="0" class="row">The following events are not shown cause they can trigger from any state.</tspan><tspan xml:space="preserve" dy="1em" x="0" class="row"></tspan><tspan xml:space="preserve" dy="1em" x="0" class="row">ClientEventStreamCloseError - transitions state to StorageDealError</tspan><tspan xml:space="preserve" dy="1em" x="0" class="row">ClientEventRestart - does not transition state</tspan></text></g></g><g class="node statediagram-note" id="3----note" transform="translate(478.7109375, 978.25)"><rect x="-173.125" y="-25" width="346.25" height="50"></rect><g class="label" transform="translate(-165.625, -17.5)"><text style=""><tspan xml:space="preserve" dy="1em" x="0" class="row">The following events only record in this state.</tspan><tspan xml:space="preserve" dy="1em" x="0" class="row"></tspan><tspan xml:space="preserve" dy="1em" x="0" class="row">ClientEventFundsReleased</tspan></text></g></g><g class="node statediagram-note" id="11----note" transform="translate(3508.91796875, 978.25)"><rect x="-173.125" y="-25" width="346.25" height="50"></rect><g class="label" transform="translate(-165.625, -17.5)"><text style=""><tspan xml:space="preserve" dy="1em" x="0" class="row">The following events only record in this state.</tspan><tspan xml:space="preserve" dy="1em" x="0" class="row"></tspan><tspan xml:space="preserve" dy="1em" x="0" class="row">ClientEventFundsReleased</tspan></text></g></g><g class="node statediagram-note" id="17----note" transform="translate(1062.42578125, 693)"><rect x="-173.125" y="-33" width="346.25" height="66"></rect><g class="label" transform="translate(-165.625, -25.5)"><text style=""><tspan xml:space="preserve" dy="1em" x="0" class="row">The following events only record in this state.</tspan><tspan xml:space="preserve" dy="1em" x="0" class="row"></tspan><tspan xml:space="preserve" dy="1em" x="0" class="row">ClientEventDataTransferRestarted</tspan><tspan xml:space="preserve" dy="1em" x="0" class="row">ClientEventDataTransferStalled</tspan></text></g></g><g class="node statediagram-note" id="21----note" transform="translate(3116.59765625, 122)"><rect x="-173.125" y="-25" width="346.25" height="50"></rect><g class="label" transform="translate(-165.625, -17.5)"><text style=""><tspan xml:space="preserve" dy="1em" x="0" class="row">The following events only record in this state.</tspan><tspan xml:space="preserve" dy="1em" x="0" class="row"></tspan><tspan xml:space="preserve" dy="1em" x="0" class="row">ClientEventFundsReserved</tspan></text></g></g><g class="node default" id="root_end" transform="translate(498.88671875, 1711.5)"><circle class="state-start" r="7" width="14" height="14"></circle><circle class="state-end" r="5" width="10" height="10"></circle></g></g></g></g></svg>