<svg id="mermaid-1608045150155" width="5883.8203125" xmlns="http://www.w3.org/2000/svg" class="statediagram" height="1721" viewBox="0 0 5883.8203125 1721"><style>#mermaid-1608045150155 .label{font-family:'trebuchet ms', verdana, arial;font-family:var(--mermaid-font-family);color:#333}#mermaid-1608045150155 .label text{fill:#333}#mermaid-1608045150155 .node rect,#mermaid-1608045150155 .node circle,#mermaid-1608045150155 .node ellipse,#mermaid-1608045150155 .node polygon,#mermaid-1608045150155 .node path{fill:#ECECFF;stroke:#9370db;stroke-width:1px}#mermaid-1608045150155 .node .label{text-align:center}#mermaid-1608045150155 .node.clickable{cursor:pointer}#mermaid-1608045150155 .arrowheadPath{fill:#333}#mermaid-1608045150155 .edgePath .path{stroke:#333;stroke-width:1.5px}#mermaid-1608045150155 .edgeLabel{background-color:#e8e8e8;text-align:center}#mermaid-1608045150155 .edgeLabel rect{opacity:0.5}#mermaid-1608045150155 .cluster rect{fill:#ffffde;stroke:#aa3;stroke-width:1px}#mermaid-1608045150155 .cluster text{fill:#333}#mermaid-1608045150155 div.mermaidTooltip{position:absolute;text-align:center;max-width:200px;padding:2px;font-family:'trebuchet ms', verdana, arial;font-family:var(--mermaid-font-family);font-size:12px;background:#ffffde;border:1px solid #aa3;border-radius:2px;pointer-events:none;z-index:100}#mermaid-1608045150155 .actor{stroke:#ccf;fill:#ECECFF}#mermaid-1608045150155 text.actor{fill:#000;stroke:none}#mermaid-1608045150155 .actor-line{stroke:grey}#mermaid-1608045150155 .messageLine0{stroke-width:1.5;stroke-dasharray:'2 2';stroke:#333}#mermaid-1608045150155 .messageLine1{stroke-width:1.5;stroke-dasharray:'2 2';stroke:#333}#mermaid-1608045150155 #arrowhead{fill:#333}#mermaid-1608045150155 .sequenceNumber{fill:#fff}#mermaid-1608045150155 #sequencenumber{fill:#333}#mermaid-1608045150155 #crosshead path{fill:#333 !important;stroke:#333 !important}#mermaid-1608045150155 .messageText{fill:#333;stroke:none}#mermaid-1608045150155 .labelBox{stroke:#ccf;fill:#ECECFF}#mermaid-1608045150155 .labelText{fill:#000;stroke:none}#mermaid-1608045150155 .loopText{fill:#000;stroke:none}#mermaid-1608045150155 .loopLine{stroke-width:2;stroke-dasharray:'2 2';stroke:#ccf}#mermaid-1608045150155 .note{stroke:#aa3;fill:#fff5ad}#mermaid-1608045150155 .noteText{fill:black;stroke:none;font-family:'trebuchet ms', verdana, arial;font-family:var(--mermaid-font-family);font-size:14px}#mermaid-1608045150155 .activation0{fill:#f4f4f4;stroke:#666}#mermaid-1608045150155 .activation1{fill:#f4f4f4;stroke:#666}#mermaid-1608045150155 .activation2{fill:#f4f4f4;stroke:#666}#mermaid-1608045150155 .mermaid-main-font{font-family:"trebuchet ms", verdana, arial;font-family:var(--mermaid-font-family)}#mermaid-1608045150155 .section{stroke:none;opacity:0.2}#mermaid-1608045150155 .section0{fill:rgba(102,102,255,0.49)}#mermaid-1608045150155 .section2{fill:#fff400}#mermaid-1608045150155 .section1,#mermaid-1608045150155 .section3{fill:#fff;opacity:0.2}#mermaid-1608045150155 .sectionTitle0{fill:#333}#mermaid-1608045150155 .sectionTitle1{fill:#333}#mermaid-1608045150155 .sectionTitle2{fill:#333}#mermaid-1608045150155 .sectionTitle3{fill:#333}#mermaid-1608045150155 .sectionTitle{text-anchor:start;font-size:11px;text-height:14px;font-family:'trebuchet ms', verdana, arial;font-family:var(--mermaid-font-family)}#mermaid-1608045150155 .grid .tick{stroke:#d3d3d3;opacity:0.8;shape-rendering:crispEdges}#mermaid-1608045150155 .grid .tick text{font-family:'trebuchet ms', verdana, arial;font-family:var(--mermaid-font-family)}#mermaid-1608045150155 .grid path{stroke-width:0}#mermaid-1608045150155 .today{fill:none;stroke:red;stroke-width:2px}#mermaid-1608045150155 .task{stroke-width:2}#mermaid-1608045150155 .taskText{text-anchor:middle;font-family:'trebuchet ms', verdana, arial;font-family:var(--mermaid-font-family)}#mermaid-1608045150155 .taskText:not([font-size]){font-size:11px}#mermaid-1608045150155 .taskTextOutsideRight{fill:#000;text-anchor:start;font-size:11px;font-family:'trebuchet ms', verdana, arial;font-family:var(--mermaid-font-family)}#mermaid-1608045150155 .taskTextOutsideLeft{fill:#000;text-anchor:end;font-size:11px}#mermaid-1608045150155 .task.clickable{cursor:pointer}#mermaid-1608045150155 .taskText.clickable{cursor:pointer;fill:#003163 !important;font-weight:bold}#mermaid-1608045150155 .taskTextOutsideLeft.clickable{cursor:pointer;fill:#003163 !important;font-weight:bold}#mermaid-1608045150155 .taskTextOutsideRight.clickable{cursor:pointer;fill:#003163 !important;font-weight:bold}#mermaid-1608045150155 .taskText0,#mermaid-1608045150155 .taskText1,#mermaid-1608045150155 .taskText2,#mermaid-1608045150155 .taskText3{fill:#fff}#mermaid-1608045150155 .task0,#mermaid-1608045150155 .task1,#mermaid-1608045150155 .task2,#mermaid-1608045150155 .task3{fill:#8a90dd;stroke:#534fbc}#mermaid-1608045150155 .taskTextOutside0,#mermaid-1608045150155 .taskTextOutside2{fill:#000}#mermaid-1608045150155 .taskTextOutside1,#mermaid-1608045150155 .taskTextOutside3{fill:#000}#mermaid-1608045150155 .active0,#mermaid-1608045150155 .active1,#mermaid-1608045150155 .active2,#mermaid-1608045150155 .active3{fill:#bfc7ff;stroke:#534fbc}#mermaid-1608045150155 .activeText0,#mermaid-1608045150155 .activeText1,#mermaid-1608045150155 .activeText2,#mermaid-1608045150155 .activeText3{fill:#000 !important}#mermaid-1608045150155 .done0,#mermaid-1608045150155 .done1,#mermaid-1608045150155 .done2,#mermaid-1608045150155 .done3{stroke:grey;fill:#d3d3d3;stroke-width:2}#mermaid-1608045150155 .doneText0,#mermaid-1608045150155 .doneText1,#mermaid-1608045150155 .doneText2,#mermaid-1608045150155 .doneText3{fill:#000 !important}#mermaid-1608045150155 .crit0,#mermaid-1608045150155 .crit1,#mermaid-1608045150155 .crit2,#mermaid-1608045150155 .crit3{stroke:#f88;fill:red;stroke-width:2}#mermaid-1608045150155 .activeCrit0,#mermaid-1608045150155 .activeCrit1,#mermaid-1608045150155 .activeCrit2,#mermaid-1608045150155 .activeCrit3{stroke:#f88;fill:#bfc7ff;stroke-width:2}#mermaid-1608045150155 .doneCrit0,#mermaid-1608045150155 .doneCrit1,#mermaid-1608045150155 .doneCrit2,#mermaid-1608045150155 .doneCrit3{stroke:#f88;fill:#d3d3d3;stroke-width:2;cursor:pointer;shape-rendering:crispEdges}#mermaid-1608045150155 .milestone{transform:rotate(45deg) scale(0.8, 0.8)}#mermaid-1608045150155 .milestoneText{font-style:italic}#mermaid-1608045150155 .doneCritText0,#mermaid-1608045150155 .doneCritText1,#mermaid-1608045150155 .doneCritText2,#mermaid-1608045150155 .doneCritText3{fill:#000 !important}#mermaid-1608045150155 .activeCritText0,#mermaid-1608045150155 .activeCritText1,#mermaid-1608045150155 .activeCritText2,#mermaid-1608045150155 .activeCritText3{fill:#000 !important}#mermaid-1608045150155 .titleText{text-anchor:middle;font-size:18px;fill:#000;font-family:'trebuchet ms', verdana, arial;font-family:var(--mermaid-font-family)}#mermaid-1608045150155 g.classGroup text{fill:#9370db;stroke:none;font-family:'trebuchet ms', verdana, arial;font-family:var(--mermaid-font-family);font-size:10px}#mermaid-1608045150155 g.classGroup text .title{font-weight:bolder}#mermaid-1608045150155 g.clickable{cursor:pointer}#mermaid-1608045150155 g.classGroup rect{fill:#ECECFF;stroke:#9370db}#mermaid-1608045150155 g.classGroup line{stroke:#9370db;stroke-width:1}#mermaid-1608045150155 .classLabel .box{stroke:none;stroke-width:0;fill:#ECECFF;opacity:0.5}#mermaid-1608045150155 .classLabel .label{fill:#9370db;font-size:10px}#mermaid-1608045150155 .relation{stroke:#9370db;stroke-width:1;fill:none}#mermaid-1608045150155 .dashed-line{stroke-dasharray:3}#mermaid-1608045150155 #compositionStart{fill:#9370db;stroke:#9370db;stroke-width:1}#mermaid-1608045150155 #compositionEnd{fill:#9370db;stroke:#9370db;stroke-width:1}#mermaid-1608045150155 #aggregationStart{fill:#ECECFF;stroke:#9370db;stroke-width:1}#mermaid-1608045150155 #aggregationEnd{fill:#ECECFF;stroke:#9370db;stroke-width:1}#mermaid-1608045150155 #dependencyStart{fill:#9370db;stroke:#9370db;stroke-width:1}#mermaid-1608045150155 #dependencyEnd{fill:#9370db;stroke:#9370db;stroke-width:1}#mermaid-1608045150155 #extensionStart{fill:#9370db;stroke:#9370db;stroke-width:1}#mermaid-1608045150155 #extensionEnd{fill:#9370db;stroke:#9370db;stroke-width:1}#mermaid-1608045150155 .commit-id,#mermaid-1608045150155 .commit-msg,#mermaid-1608045150155 .branch-label{fill:lightgrey;color:lightgrey;font-family:'trebuchet ms', verdana, arial;font-family:var(--mermaid-font-family)}#mermaid-1608045150155 .pieTitleText{text-anchor:middle;font-size:25px;fill:#000;font-family:'trebuchet ms', verdana, arial;font-family:var(--mermaid-font-family)}#mermaid-1608045150155 .slice{font-family:'trebuchet ms', verdana, arial;font-family:var(--mermaid-font-family)}#mermaid-1608045150155 g.stateGroup text{fill:#9370db;stroke:none;font-size:10px;font-family:'trebuchet ms', verdana, arial;font-family:var(--mermaid-font-family)}#mermaid-1608045150155 g.stateGroup text{fill:#9370db;stroke:none;font-size:10px}#mermaid-1608045150155 g.stateGroup .state-title{font-weight:bolder;fill:#000}#mermaid-1608045150155 g.stateGroup rect{fill:#ECECFF;stroke:#9370db}#mermaid-1608045150155 g.stateGroup line{stroke:#9370db;stroke-width:1}#mermaid-1608045150155 .transition{stroke:#9370db;stroke-width:1;fill:none}#mermaid-1608045150155 .stateGroup .composit{fill:white;border-bottom:1px}#mermaid-1608045150155 .stateGroup .alt-composit{fill:#e0e0e0;border-bottom:1px}#mermaid-1608045150155 .state-note{stroke:#aa3;fill:#fff5ad}#mermaid-1608045150155 .state-note text{fill:black;stroke:none;font-size:10px}#mermaid-1608045150155 .stateLabel .box{stroke:none;stroke-width:0;fill:#ECECFF;opacity:0.5}#mermaid-1608045150155 .stateLabel text{fill:#000;font-size:10px;font-weight:bold;font-family:'trebuchet ms', verdana, arial;font-family:var(--mermaid-font-family)}#mermaid-1608045150155 .node circle.state-start{fill:black;stroke:black}#mermaid-1608045150155 .node circle.state-end{fill:black;stroke:white;stroke-width:1.5}#mermaid-1608045150155 #statediagram-barbEnd{fill:#9370db}#mermaid-1608045150155 .statediagram-cluster rect{fill:#ECECFF;stroke:#9370db;stroke-width:1px}#mermaid-1608045150155 .statediagram-cluster rect.outer{rx:5px;ry:5px}#mermaid-1608045150155 .statediagram-state .divider{stroke:#9370db}#mermaid-1608045150155 .statediagram-state .title-state{rx:5px;ry:5px}#mermaid-1608045150155 .statediagram-cluster.statediagram-cluster .inner{fill:white}#mermaid-1608045150155 .statediagram-cluster.statediagram-cluster-alt .inner{fill:#e0e0e0}#mermaid-1608045150155 .statediagram-cluster .inner{rx:0;ry:0}#mermaid-1608045150155 .statediagram-state rect.basic{rx:5px;ry:5px}#mermaid-1608045150155 .statediagram-state rect.divider{stroke-dasharray:10,10;fill:#efefef}#mermaid-1608045150155 .note-edge{stroke-dasharray:5}#mermaid-1608045150155 .statediagram-note rect{fill:#fff5ad;stroke:#aa3;stroke-width:1px;rx:0;ry:0}:root{--mermaid-font-family: '"trebuchet ms", verdana, arial';--mermaid-font-family: "Comic Sans MS", "Comic Sans", cursive}

:root { --mermaid-font-family: "trebuchet ms", verdana, arial;}</style><style>#mermaid-1608045150155 {
    color: rgb(0, 0, 0);
    font: 16px "trebuchet ms", verdana, arial;
  }</style><g><defs><marker id="statediagram-barbEnd" refX="19" refY="7" markerWidth="20" markerHeight="14" markerUnits="0" orient="auto"><path d="M 19,7 L9,13 L14,7 L9,1 Z"></path></marker></defs><g class="root"><g class="clusters"><g class="note-cluster" id="0----parent"><rect x="524.29296875" y="72" width="620.09375" height="235" fill="none"></rect></g><g class="note-cluster" id="3----parent"><rect x="270.5859375" y="917.5" width="762.21484375" height="240" fill="none"></rect></g><g class="note-cluster" id="11----parent"><rect x="2489.64453125" y="917.5" width="3139.25390625" height="240" fill="none"></rect></g><g class="note-cluster" id="17----parent"><rect x="925.48046875" y="635" width="2027.0625" height="213.5" fill="none"></rect></g><g class="note-cluster" id="21----parent"><rect x="2836.48828125" y="72" width="2683.87109375" height="235" fill="none"></rect></g></g><g class="edgePaths"><path d="M794.328125,22L794.328125,26.166666666666668C794.328125,30.333333333333332,794.328125,38.666666666666664,794.328125,47C794.328125,55.333333333333336,794.328125,63.666666666666664,794.328125,73.33333333333333C794.328125,83,794.328125,94,794.328125,99.5L794.328125,105" id="edge0" class="transition" marker-end="url(#statediagram-barbEnd)"></path><path d="M805.7600446428571,139L810.5233444940476,146.08333333333334C815.2866443452381,153.16666666666666,824.8132440476189,167.33333333333334,829.5765438988095,180.16666666666666C834.33984375,193,834.33984375,204.5,834.33984375,210.25L834.33984375,216" class="transition note-edge"></path><path d="M761.4676339285714,139L747.7757626488095,146.08333333333334C734.0838913690477,153.16666666666666,706.7001488095239,167.33333333333334,1106.453590029762,185.11251548260307C1506.20703125,202.89169763187283,2333.09765625,224.2833952637457,2746.54296875,234.9792440796821L3159.98828125,245.67509289561855" id="edge1" class="transition" marker-end="url(#statediagram-barbEnd)"></path><path d="M3417.03515625,252.37019566150332L3764.255859375,261.47516305125276C4111.4765625,270.5801304410022,4805.91796875,288.7900652205011,5153.138671875,303.64503261025055C5500.359375,318.5,5500.359375,330,5500.359375,341.5C5500.359375,353,5500.359375,364.5,5500.359375,370.25L5500.359375,376" id="edge2" class="transition" marker-end="url(#statediagram-barbEnd)"></path><path d="M3182.1070177801726,279.25L3165.8385304418102,283.875C3149.570043103448,288.5,3117.033068426724,297.75,3100.7645810883623,308.125C3084.49609375,318.5,3084.49609375,330,3084.49609375,346.5416666666667C3084.49609375,363.0833333333333,3084.49609375,384.6666666666667,3084.49609375,406.25C3084.49609375,427.8333333333333,3084.49609375,449.4166666666667,3084.49609375,471C3084.49609375,492.5833333333333,3084.49609375,514.1666666666666,3084.49609375,535.75C3084.49609375,557.3333333333334,3084.49609375,578.9166666666666,3084.49609375,595.4583333333334C3084.49609375,612,3084.49609375,623.5,3084.49609375,638.4583333333334C3084.49609375,653.4166666666666,3084.49609375,671.8333333333334,3084.49609375,691.8333333333334C3084.49609375,711.8333333333334,3084.49609375,733.4166666666666,3084.49609375,752.7916666666666C3084.49609375,772.1666666666666,3084.49609375,789.3333333333334,3084.49609375,804.9166666666666C3084.49609375,820.5,3084.49609375,834.5,3084.49609375,847.25C3084.49609375,860,3084.49609375,871.5,3325.1803385416665,883C3565.8645833333335,894.5,4047.2330729166665,906,4287.917317708333,920.9583333333334C4528.6015625,935.9166666666666,4528.6015625,954.3333333333334,4528.6015625,974.3333333333334C4528.6015625,994.3333333333334,4528.6015625,1015.9166666666666,4452.266927083333,1035.770303659672C4375.932291666667,1055.6239406526772,4223.263020833333,1073.7478813053547,4146.928385416667,1082.8098516316932L4070.59375,1091.871821958032" id="edge3" class="transition" marker-end="url(#statediagram-barbEnd)"></path><path d="M5538.297795004826,436.5L5545.509230212355,442.25C5552.720665419884,448,5567.143535834942,459.5,5574.35497104247,476.0416666666667C5581.56640625,492.5833333333333,5581.56640625,514.1666666666666,5581.56640625,535.75C5581.56640625,557.3333333333334,5581.56640625,578.9166666666666,5581.56640625,595.4583333333334C5581.56640625,612,5581.56640625,623.5,5581.56640625,638.4583333333334C5581.56640625,653.4166666666666,5581.56640625,671.8333333333334,5581.56640625,691.8333333333334C5581.56640625,711.8333333333334,5581.56640625,733.4166666666666,5581.56640625,752.7916666666666C5581.56640625,772.1666666666666,5581.56640625,789.3333333333334,5581.56640625,804.9166666666666C5581.56640625,820.5,5581.56640625,834.5,5581.56640625,847.25C5581.56640625,860,5581.56640625,871.5,5577.586588541667,883C5573.606770833333,894.5,5565.647135416667,906,5561.667317708333,920.9583333333334C5557.6875,935.9166666666666,5557.6875,954.3333333333334,5557.6875,974.3333333333334C5557.6875,994.3333333333334,5557.6875,1015.9166666666666,5309.838541666667,1036.9008139904138C5061.989583333333,1057.8849613141608,4566.291666666667,1078.2699226283214,4318.442708333333,1088.462403285402L4070.59375,1098.6548839424822" id="edge4" class="transition" marker-end="url(#statediagram-barbEnd)"></path><path d="M3159.98828125,271.7294123252102L3126.7486979166665,277.60784360434184C3093.5091145833335,283.48627488347347,3027.0299479166665,295.24313744173674,2993.7903645833335,306.87156872086837C2960.55078125,318.5,2960.55078125,330,2960.55078125,346.5416666666667C2960.55078125,363.0833333333333,2960.55078125,384.6666666666667,2960.55078125,406.25C2960.55078125,427.8333333333333,2960.55078125,449.4166666666667,3315.2278645833335,470.4997340701763C3669.9049479166665,491.58280147368595,4379.259114583333,512.1656029473719,4733.936197916667,522.4570036842148L5088.61328125,532.7484044210578" id="edge5" class="transition" marker-end="url(#statediagram-barbEnd)"></path><path d="M5385.671875,430.33691796008867L5353.402994791667,437.1140983000739C5321.134114583333,443.89127864005906,5256.596354166667,457.44563932002956,5224.327473958333,469.97281966001475C5192.05859375,482.5,5192.05859375,494,5192.05859375,499.75L5192.05859375,505.5" id="edge6" class="transition" marker-end="url(#statediagram-barbEnd)"></path><path d="M5295.50390625,562.0884099043055L5320.647786458333,568.4903415869213C5345.791666666667,574.892273269537,5396.079427083333,587.6961366347685,5421.223307291667,599.8480683173842C5446.3671875,612,5446.3671875,623.5,5446.3671875,638.4583333333334C5446.3671875,653.4166666666666,5446.3671875,671.8333333333334,5446.3671875,691.8333333333334C5446.3671875,711.8333333333334,5446.3671875,733.4166666666666,5446.3671875,752.7916666666666C5446.3671875,772.1666666666666,5446.3671875,789.3333333333334,5446.3671875,804.9166666666666C5446.3671875,820.5,5446.3671875,834.5,5446.3671875,847.25C5446.3671875,860,5446.3671875,871.5,5499.032552083333,883C5551.697916666667,894.5,5657.028645833333,906,5709.694010416667,920.9583333333334C5762.359375,935.9166666666666,5762.359375,954.3333333333334,5762.359375,974.3333333333334C5762.359375,994.3333333333334,5762.359375,1015.9166666666666,5762.359375,1037.5C5762.359375,1059.0833333333333,5762.359375,1080.6666666666667,5762.359375,1100.6666666666667C5762.359375,1120.6666666666667,5762.359375,1139.0833333333333,5762.359375,1154.0416666666667C5762.359375,1169,5762.359375,1180.5,5762.359375,1197.0416666666667C5762.359375,1213.5833333333333,5762.359375,1235.1666666666667,5762.359375,1256.75C5762.359375,1278.3333333333333,5762.359375,1299.9166666666667,5762.359375,1321.5C5762.359375,1343.0833333333333,5762.359375,1364.6666666666667,5762.359375,1386.25C5762.359375,1407.8333333333333,5762.359375,1429.4166666666667,5762.359375,1451C5762.359375,1472.5833333333333,5762.359375,1494.1666666666667,5762.359375,1515.75C5762.359375,1537.3333333333333,5762.359375,1558.9166666666667,4956.319010416667,1578.1722360807125C4150.278645833333,1597.4278054947588,2538.1979166666665,1614.3556109895173,1732.1575520833333,1622.8195137368966L926.1171875,1631.2834164842761" id="edge7" class="transition" marker-end="url(#statediagram-barbEnd)"></path><path d="M5239.054129464285,566L5247.987165178572,571.75C5256.920200892857,577.5,5274.786272321428,589,5283.719308035715,600.5C5292.65234375,612,5292.65234375,623.5,5292.65234375,638.4583333333334C5292.65234375,653.4166666666666,5292.65234375,671.8333333333334,5292.65234375,691.8333333333334C5292.65234375,711.8333333333334,5292.65234375,733.4166666666666,5292.65234375,752.7916666666666C5292.65234375,772.1666666666666,5292.65234375,789.3333333333334,5292.65234375,804.9166666666666C5292.65234375,820.5,5292.65234375,834.5,5292.65234375,847.25C5292.65234375,860,5292.65234375,871.5,5292.65234375,883C5292.65234375,894.5,5292.65234375,906,5292.65234375,920.9583333333334C5292.65234375,935.9166666666666,5292.65234375,954.3333333333334,5292.65234375,974.3333333333334C5292.65234375,994.3333333333334,5292.65234375,1015.9166666666666,5088.975911458333,1036.7795404308126C4885.299479166667,1057.6424141949585,4477.946614583333,1077.7848283899168,4274.270182291667,1087.8560354873962L4070.59375,1097.9272425848753" id="edge8" class="transition" marker-end="url(#statediagram-barbEnd)"></path><path d="M5111.874924589768,566L5096.633400699807,571.75C5081.391876809846,577.5,5050.908829029922,589,5035.667305139961,600.5C5020.42578125,612,5020.42578125,623.5,5020.42578125,638.4583333333334C5020.42578125,653.4166666666666,5020.42578125,671.8333333333334,5020.42578125,691.8333333333334C5020.42578125,711.8333333333334,5020.42578125,733.4166666666666,5020.42578125,752.7916666666666C5020.42578125,772.1666666666666,5020.42578125,789.3333333333334,5020.42578125,804.9166666666666C5020.42578125,820.5,5020.42578125,834.5,5020.42578125,847.25C5020.42578125,860,5020.42578125,871.5,5020.42578125,883C5020.42578125,894.5,5020.42578125,906,5020.42578125,920.9583333333334C5020.42578125,935.9166666666666,5020.42578125,954.3333333333334,5020.42578125,974.3333333333334C5020.42578125,994.3333333333334,5020.42578125,1015.9166666666666,4862.120442708333,1036.5904563205881C4703.815104166667,1057.2642459745095,4387.204427083333,1077.028491949019,4228.899088541667,1086.910614936274L4070.59375,1096.7927379235286" id="edge9" class="transition" marker-end="url(#statediagram-barbEnd)"></path><path d="M5088.61328125,540.2028772018209L4855.151692708333,550.2523976681841C4621.690104166667,560.3019181345472,4154.766927083333,580.4009590672737,3921.3053385416665,596.2004795336369C3687.84375,612,3687.84375,623.5,3687.84375,633.4166666666666C3687.84375,643.3333333333334,3687.84375,651.6666666666666,3687.84375,655.8333333333334L3687.84375,660" id="edge10" class="transition" marker-end="url(#statediagram-barbEnd)"></path><path d="M5088.61328125,539.1615560923007L4778.62890625,549.3846300769172C4468.64453125,559.6077040615338,3848.67578125,580.0538520307668,3538.69140625,596.0269260153834C3228.70703125,612,3228.70703125,623.5,3228.70703125,638.4583333333334C3228.70703125,653.4166666666666,3228.70703125,671.8333333333334,3228.70703125,691.8333333333334C3228.70703125,711.8333333333334,3228.70703125,733.4166666666666,3228.70703125,752.7916666666666C3228.70703125,772.1666666666666,3228.70703125,789.3333333333334,3228.70703125,804.9166666666666C3228.70703125,820.5,3228.70703125,834.5,3228.70703125,847.25C3228.70703125,860,3228.70703125,871.5,3455.3131510416665,883C3681.9192708333335,894.5,4135.131510416667,906,4361.737630208333,920.9583333333334C4588.34375,935.9166666666666,4588.34375,954.3333333333334,4588.34375,974.3333333333334C4588.34375,994.3333333333334,4588.34375,1015.9166666666666,4502.052083333333,1035.9410581962768C4415.760416666667,1055.965449725887,4243.177083333333,1074.4308994517742,4156.885416666667,1083.6636243147177L4070.59375,1092.8963491776612" id="edge11" class="transition" marker-end="url(#statediagram-barbEnd)"></path><path d="M3818.9375,697.4837217043942L3992.6614583333335,707.0697680869952C4166.385416666667,716.6558144695961,4513.833333333333,735.8279072347981,4687.557291666667,753.9972869507324C4861.28125,772.1666666666666,4861.28125,789.3333333333334,4861.28125,804.9166666666666C4861.28125,820.5,4861.28125,834.5,4861.28125,847.25C4861.28125,860,4861.28125,871.5,4861.28125,883C4861.28125,894.5,4861.28125,906,4861.28125,920.9583333333334C4861.28125,935.9166666666666,4861.28125,954.3333333333334,4861.28125,974.3333333333334C4861.28125,994.3333333333334,4861.28125,1015.9166666666666,4729.5,1036.4256147796225C4597.71875,1056.9345628925782,4334.15625,1076.3691257851563,4202.375,1086.0864072314455L4070.59375,1095.8036886777345" id="edge12" class="transition" marker-end="url(#statediagram-barbEnd)"></path><path d="M1836.4296875,810.4508498201966L1987.4850260416667,816.7923748501638C2138.5403645833335,823.1338998801311,2440.6510416666665,835.8169499400656,2591.7063802083335,847.9084749700328C2742.76171875,860,2742.76171875,871.5,3016.9231770833335,883C3291.0846354166665,894.5,3839.4075520833335,906,4113.569010416667,920.9583333333334C4387.73046875,935.9166666666666,4387.73046875,954.3333333333334,4387.73046875,974.3333333333334C4387.73046875,994.3333333333334,4387.73046875,1015.9166666666666,4334.874348958333,1035.1680071837554C4282.018229166667,1054.4193477008441,4176.305989583333,1071.3386954016885,4123.449869791667,1079.7983692521104L4070.59375,1088.2580431025326" id="edge13" class="transition" marker-end="url(#statediagram-barbEnd)"></path><path d="M1361.71484375,977.7939458798704L1620.0364583333333,987.744954899892C1878.3580729166667,997.6959639199137,2395.0013020833335,1017.5979819599569,2817.3404947916665,1037.4602062611737C3239.6796875,1057.3224305623908,3567.71484375,1077.1448611247818,3731.732421875,1087.0560764059771L3895.75,1096.9672916871725" id="edge14" class="transition" marker-end="url(#statediagram-barbEnd)"></path><path d="M3556.75,699.964772376733L3432.9733072916665,709.1373103139441C3309.1966145833335,718.3098482511554,3061.6432291666665,736.6549241255776,2774.9231770833335,753.6571145796182C2488.203125,770.6593050336586,2162.31640625,786.3186100673171,1999.373046875,794.1482625841463L1836.4296875,801.9779151009757" id="edge15" class="transition" marker-end="url(#statediagram-barbEnd)"></path><path d="M3556.75,697.0617513925939L3370.9108072916665,706.718126160495C3185.0716145833335,716.3745009283961,2813.3932291666665,735.687250464198,2526.6731770833335,752.7719993838485C2239.953125,769.8567483034991,2038.19140625,784.7134966069983,1937.310546875,792.1418707587477L1836.4296875,799.5702449104973" id="edge16" class="transition" marker-end="url(#statediagram-barbEnd)"></path><path d="M1173.2843785350678,942.5L1165.36523732089,938.3333333333334C1157.4460961067118,934.1666666666666,1141.607813678356,925.8333333333334,1133.688672464178,915.9166666666666C1125.76953125,906,1125.76953125,894.5,1125.76953125,883C1125.76953125,871.5,1125.76953125,860,1212.8430989583333,848.3184693702997C1299.9166666666667,836.6369387405995,1474.0638020833333,824.7738774811991,1561.1373697916667,818.8423468514987L1648.2109375,812.9108162217984" id="edge17" class="transition" marker-end="url(#statediagram-barbEnd)"></path><path d="M1836.4296875,811.047376368441L1965.6119791666667,817.2894803070341C2094.7942708333335,823.5315842456272,2353.1588541666665,836.0157921228137,2482.3411458333335,848.0078960614069C2611.5234375,860,2611.5234375,871.5,2867.1451822916665,883C3122.7669270833335,894.5,3634.0104166666665,906,3889.6321614583335,920.9583333333334C4145.25390625,935.9166666666666,4145.25390625,954.3333333333334,4145.25390625,974.3333333333334C4145.25390625,994.3333333333334,4145.25390625,1015.9166666666666,4130.860521235521,1032.4583333333333C4116.467136221042,1049,4087.6803661920844,1060.5,4073.286981177606,1066.25L4058.8935961631273,1072" id="edge18" class="transition" marker-end="url(#statediagram-barbEnd)"></path><path d="M3818.9375,699.4714234790874L3950.5052083333335,708.7261862325728C4082.0729166666665,717.9809489860583,4345.208333333333,736.4904744930291,4476.776041666667,754.3285705798479C4608.34375,772.1666666666666,4608.34375,789.3333333333334,4608.34375,804.9166666666666C4608.34375,820.5,4608.34375,834.5,4608.34375,847.25C4608.34375,860,4608.34375,871.5,4608.34375,883C4608.34375,894.5,4608.34375,906,4608.34375,920.9583333333334C4608.34375,935.9166666666666,4608.34375,954.3333333333334,4608.34375,974.3333333333334C4608.34375,994.3333333333334,4608.34375,1015.9166666666666,4518.71875,1035.9909306190798C4429.09375,1056.0651945714928,4249.84375,1074.6303891429857,4160.21875,1083.9129864287322L4070.59375,1093.1955837144785" id="edge19" class="transition" marker-end="url(#statediagram-barbEnd)"></path><path d="M1836.4296875,811.9049965546528L1942.6256510416667,818.0041637955441C2048.8216145833335,824.1033310364352,2261.2135416666665,836.3016655182176,2367.4095052083335,848.1508327591088C2473.60546875,860,2473.60546875,871.5,2709.57421875,883C2945.54296875,894.5,3417.48046875,906,3653.44921875,920.9583333333334C3889.41796875,935.9166666666666,3889.41796875,954.3333333333334,3889.41796875,974.3333333333334C3889.41796875,994.3333333333334,3889.41796875,1015.9166666666666,3897.7436052123553,1032.4583333333333C3906.06924167471,1049,3922.7205145994208,1060.5,3931.0461510617756,1066.25L3939.3717875241314,1072" id="edge20" class="transition" marker-end="url(#statediagram-barbEnd)"></path><path d="M1361.71484375,978.7971530943173L1573.5611979166667,988.5809609119311C1785.4075520833333,998.3647687295448,2209.1002604166665,1017.9323843647725,2631.439453125,1037.8092195782465C3053.7786458333335,1057.6860547917204,3474.7643229166665,1077.8721095834405,3685.2571614583335,1087.9651369793007L3895.75,1098.058164375161" id="edge21" class="transition" marker-end="url(#statediagram-barbEnd)"></path><path d="M3595.3217452944014,720.5L3577.734917953668,726.25C3560.148090612934,732,3524.974435931467,743.5,3507.3876085907336,757.8333333333334C3489.80078125,772.1666666666666,3489.80078125,789.3333333333334,3489.80078125,804.9166666666666C3489.80078125,820.5,3489.80078125,834.5,3489.80078125,847.25C3489.80078125,860,3489.80078125,871.5,3287.087890625,883C3084.375,894.5,2678.94921875,906,2447.453125,916.6929903109482C2215.95703125,927.3859806218962,2158.390625,937.2719612437926,2129.607421875,942.2149515547408L2100.82421875,947.1579418656888" id="edge22" class="transition" marker-end="url(#statediagram-barbEnd)"></path><path d="M1662.656529017857,823.5L1643.131091889881,827.6666666666666C1623.6056547619046,831.8333333333334,1584.5547805059523,840.1666666666666,1565.0293433779761,850.0833333333334C1545.50390625,860,1545.50390625,871.5,1545.50390625,883C1545.50390625,894.5,1545.50390625,906,1588.3828125,917.5808584586393C1631.26171875,929.1617169172787,1717.01953125,940.8234338345575,1759.8984375,946.6542922931968L1802.77734375,952.4851507518363" id="edge23" class="transition" marker-end="url(#statediagram-barbEnd)"></path><path d="M2100.82421875,958.9005528398045L2130.236545138889,956.1671273665038C2159.648871527778,953.433701893203,2218.4735243055557,947.9668509466015,2255.2389322916665,945.2334254733008C2292.004340277778,942.5,2306.710503472222,942.5,2321.4166666666665,947.5416666666666C2336.122829861111,952.5833333333334,2350.828993055555,962.6666666666666,2350.828993055555,972.75C2350.828993055555,982.8333333333334,2336.122829861111,992.9166666666666,2321.4166666666665,997.9583333333334C2306.710503472222,1003,2292.004340277778,1003,2255.2389322916665,1000.2665745266992C2218.4735243055557,997.5331490533985,2159.648871527778,992.066298106797,2130.236545138889,989.3328726334962L2100.82421875,986.5994471601955" id="edge24" class="transition" marker-end="url(#statediagram-barbEnd)"></path><path d="M2100.82421875,979.4024092037724L2317.7356770833335,989.0853410031436C2534.6471354166665,998.7682728025151,2968.4700520833335,1018.1341364012575,3267.6243489583335,1036.984596472487C3566.7786458333335,1055.8350565437163,3731.2643229166665,1074.1701130874326,3813.5071614583335,1083.3376413592907L3895.75,1092.5051696311489" id="edge25" class="transition" marker-end="url(#statediagram-barbEnd)"></path><path d="M2100.82421875,980.7570679796696L2276.8359375,990.2142233163913C2452.84765625,999.671378653113,2804.87109375,1018.5856893265565,3104.025390625,1037.692730375268C3403.1796875,1056.7997714239789,3649.46484375,1076.099542847958,3772.607421875,1085.7494285599475L3895.75,1095.3993142719369" id="edge26" class="transition" marker-end="url(#statediagram-barbEnd)"></path><path d="M1802.77734375,981.8436324279751L1650.7643229166667,991.1196936899793C1498.7513020833333,1000.3957549519833,1194.7252604166667,1018.9478774759917,1007.67578125,1034.7299357954796C820.6263020833334,1050.5119941149671,750.5533854166666,1063.5239882299345,715.5169270833334,1070.029985287418L680.48046875,1076.5359823449016" id="edge27" class="transition" marker-end="url(#statediagram-barbEnd)"></path><path d="M680.48046875,1121.665463079531L723.0774739583334,1127.6378858996093C765.6744791666666,1133.6103087196873,850.8684895833334,1145.5551543598438,893.4654947916666,1157.2775771799218C936.0625,1169,936.0625,1180.5,936.0625,1197.0416666666667C936.0625,1213.5833333333333,936.0625,1235.1666666666667,936.0625,1256.75C936.0625,1278.3333333333333,936.0625,1299.9166666666667,936.0625,1321.5C936.0625,1343.0833333333333,936.0625,1364.6666666666667,936.0625,1386.25C936.0625,1407.8333333333333,936.0625,1429.4166666666667,936.0625,1451C936.0625,1472.5833333333333,936.0625,1494.1666666666667,936.0625,1515.75C936.0625,1537.3333333333333,936.0625,1558.9166666666667,927.3328276699029,1575.4583333333333C918.6031553398058,1592,901.1438106796116,1603.5,892.4141383495145,1609.25L883.6844660194175,1615" id="edge28" class="transition" marker-end="url(#statediagram-barbEnd)"></path><path d="M461.3251201923077,1132.5L450.2123397435898,1136.6666666666667C439.09955929487177,1140.8333333333333,416.87399839743586,1149.1666666666667,405.76121794871796,1159.0833333333333C394.6484375,1169,394.6484375,1180.5,394.6484375,1192C394.6484375,1203.5,394.6484375,1215,394.6484375,1220.75L394.6484375,1226.5" id="edge29" class="transition" marker-end="url(#statediagram-barbEnd)"></path><path d="M542.1171875,1279.6629204004348L586.9947916666666,1286.6357670003624C631.8723958333334,1293.6086136002898,721.6276041666666,1307.554306800145,766.5052083333334,1325.3188200667391C811.3828125,1343.0833333333333,811.3828125,1364.6666666666667,811.3828125,1386.25C811.3828125,1407.8333333333333,811.3828125,1429.4166666666667,811.3828125,1451C811.3828125,1472.5833333333333,811.3828125,1494.1666666666667,811.3828125,1515.75C811.3828125,1537.3333333333333,811.3828125,1558.9166666666667,816.5736878033981,1575.4583333333333C821.7645631067961,1592,832.1463137135921,1603.5,837.3371890169902,1609.25L842.5280643203884,1615" id="edge30" class="transition" marker-end="url(#statediagram-barbEnd)"></path><path d="M493.0978070704633,1287L511.81132360038606,1292.75C530.5248401303089,1298.5,567.9518731901544,1310,586.6653897200772,1321.5C605.37890625,1333,605.37890625,1344.5,605.37890625,1350.25L605.37890625,1356" id="edge31" class="transition" marker-end="url(#statediagram-barbEnd)"></path><path d="M631.4297478281853,1416.5L636.3815606901544,1422.25C641.3333735521236,1428,651.2369992760617,1439.5,656.1888121380308,1456.0416666666667C661.140625,1472.5833333333333,661.140625,1494.1666666666667,661.140625,1515.75C661.140625,1537.3333333333333,661.140625,1558.9166666666667,683.1061134708738,1575.4583333333333C705.0716019417476,1592,749.0025788834952,1603.5,770.9680673543689,1609.25L792.9335558252427,1615" id="edge32" class="transition" marker-end="url(#statediagram-barbEnd)"></path><path d="M533.2942658059845,1416.5L519.5922267133204,1422.25C505.8901876206564,1428,478.4861094353282,1439.5,446.0705538127413,1451C413.6549981901544,1462.5,376.22796513030886,1474,357.51444860038606,1479.75L338.8009320704633,1485.5" id="edge33" class="transition" marker-end="url(#statediagram-barbEnd)"></path><path d="M296.5129554777992,1287L277.85910352316597,1292.75C259.2052515685328,1298.5,221.8975476592664,1310,203.24369570463318,1326.5416666666667C184.58984375,1343.0833333333333,184.58984375,1364.6666666666667,184.58984375,1386.25C184.58984375,1407.8333333333333,184.58984375,1429.4166666666667,189.5416566119691,1445.9583333333333C194.49346947393823,1462.5,204.39709519787644,1474,209.34890805984557,1479.75L214.30072092181467,1485.5" id="edge34" class="transition" marker-end="url(#statediagram-barbEnd)"></path><path d="M383.8203125,1545.0851013963586L412.6875,1550.9875844969654C441.5546875,1556.8900675975722,499.2890625,1568.6950337987862,504.01096025485435,1580.347516899393C508.7328580097087,1592,460.44227851941747,1603.5,436.2969887742718,1609.25L412.15169902912623,1615" id="edge35" class="transition" marker-end="url(#statediagram-barbEnd)"></path><path d="M292.7671332046332,1546L302.730423503861,1551.75C312.69371380308877,1557.5,332.6202944015444,1569,318.4382949556266,1580.5C304.25629550970876,1592,255.9657160194175,1603.5,231.82042627427185,1609.25L207.67513652912623,1615" id="edge36" class="transition" marker-end="url(#statediagram-barbEnd)"></path><path d="M187.9359917953668,1546L177.97270149613897,1551.75C168.0094111969112,1557.5,148.08283059845562,1569,248.3656340492278,1582.5306330564001C348.6484375,1596.0612661128005,569.140625,1611.6225322256007,679.38671875,1619.4031652820006L789.6328125,1627.183798338401" id="edge37" class="transition" marker-end="url(#statediagram-barbEnd)"></path><path d="M3983.171875,1132.5L3983.171875,1136.6666666666667C3983.171875,1140.8333333333333,3983.171875,1149.1666666666667,3983.171875,1159.0833333333333C3983.171875,1169,3983.171875,1180.5,3983.171875,1197.0416666666667C3983.171875,1213.5833333333333,3983.171875,1235.1666666666667,3983.171875,1256.75C3983.171875,1278.3333333333333,3983.171875,1299.9166666666667,3983.171875,1321.5C3983.171875,1343.0833333333333,3983.171875,1364.6666666666667,3983.171875,1386.25C3983.171875,1407.8333333333333,3983.171875,1429.4166666666667,3983.171875,1451C3983.171875,1472.5833333333333,3983.171875,1494.1666666666667,3983.171875,1515.75C3983.171875,1537.3333333333333,3983.171875,1558.9166666666667,3473.6627604166665,1578.10424592997C2964.1536458333335,1597.2918251932733,1945.1354166666667,1614.0836503865467,1435.6263020833333,1622.4795629831833L926.1171875,1630.87547557982" id="edge38" class="transition" marker-end="url(#statediagram-barbEnd)"></path><path d="M1648.2109375,816.2226369951861L1596.1399739583333,821.6021974959884C1544.0690104166667,826.9817579967907,1439.9270833333333,837.7408789983953,1387.8561197916667,848.8704394991977C1335.78515625,860,1335.78515625,871.5,1335.78515625,883C1335.78515625,894.5,1335.78515625,906,1327.866015035822,915.9166666666666C1319.946873821644,925.8333333333334,1304.1085913932882,934.1666666666666,1296.18945017911,938.3333333333334L1288.2703089649322,942.5" id="edge39" class="transition" marker-end="url(#statediagram-barbEnd)"></path><path d="M478.7109375,997.75L478.7109375,1004.375C478.7109375,1011,478.7109375,1024.25,484.3315486245174,1036.625C489.95215974903476,1049,501.1933819980695,1060.5,506.8139931225869,1066.25L512.4346042471043,1072" class="transition note-edge"></path><path d="M3558.14453125,997.75L3558.14453125,1004.375C3558.14453125,1011,3558.14453125,1024.25,3614.412109375,1039.4469795141856C3670.6796875,1054.6439590283715,3783.21484375,1071.7879180567427,3839.482421875,1080.3598975709283L3895.75,1088.931877085114" class="transition note-edge"></path><path d="M1133.60546875,715.25L1133.60546875,721.875C1133.60546875,728.5,1133.60546875,741.75,1219.373046875,755.6313209502601C1305.140625,769.5126419005204,1476.67578125,784.0252838010409,1562.443359375,791.2816047513011L1648.2109375,798.5379257015613" class="transition note-edge"></path><path d="M3288.51171875,147L3288.51171875,152.75C3288.51171875,158.5,3288.51171875,170,3288.51171875,181.95833333333334C3288.51171875,193.91666666666666,3288.51171875,206.33333333333334,3288.51171875,212.54166666666666L3288.51171875,218.75" class="transition note-edge"></path><path d="M340.765625,1649L340.765625,1653.1666666666667C340.765625,1657.3333333333333,340.765625,1665.6666666666667,372.5052758427778,1674.9799301881865C404.2449266855555,1684.2931937097062,467.724228371111,1694.5863874194126,499.4638792138888,1699.7329842742656L531.2035300566665,1704.8795811291188" id="edge40" class="transition" marker-end="url(#statediagram-barbEnd)"></path><path d="M136.2890625,1649L136.2890625,1653.1666666666667C136.2890625,1657.3333333333333,136.2890625,1665.6666666666667,202.0967809668119,1675.0740502754054C267.9044994336238,1684.481433884144,399.5199363672477,1694.9628677682879,465.32765483405956,1700.20358471036L531.1353733008715,1705.4443016524322" id="edge41" class="transition" marker-end="url(#statediagram-barbEnd)"></path><path d="M857.875,1649L857.875,1653.1666666666667C857.875,1657.3333333333333,857.875,1665.6666666666667,805.7422483621335,1675.0504933452733C753.609496724267,1684.43432002388,649.3439934485342,1694.8686400477602,597.2112418106677,1700.0858000597002L545.0784901728014,1705.3029600716404" id="edge42" class="transition" marker-end="url(#statediagram-barbEnd)"></path></g><g class="edgeLabels"><g class="edgeLabel"><g class="label" transform="translate(0, 0)"><rect rx="0" ry="0" width="0" height="0" style="fill:#e8e8e8;"></rect><text style=""></text></g></g><g class="edgeLabel"><g class="label" transform="translate(0, 0)"><rect rx="0" ry="0" width="0" height="0" style="fill:#e8e8e8;"></rect><text style=""></text></g></g><g class="edgeLabel" transform="translate(679.31640625, 181.5)"><g class="label" transform="translate(-60.0234375, -9.5)"><rect rx="0" ry="0" width="119.984375" height="19.03125" style="fill:#e8e8e8;"></rect><text style=""><tspan xml:space="preserve" dy="1em" x="0" class="row">ClientEventOpen</tspan></text></g></g><g class="edgeLabel" transform="translate(5500.359375, 341.5)"><g class="label" transform="translate(-100.0390625, -9.5)"><rect rx="0" ry="0" width="199.953125" height="19.03125" style="fill:#e8e8e8;"></rect><text style=""><tspan xml:space="preserve" dy="1em" x="0" class="row">ClientEventFundingInitiated</tspan></text></g></g><g class="edgeLabel" transform="translate(3084.49609375, 690.25)"><g class="label" transform="translate(-111.953125, -9.5)"><rect rx="0" ry="0" width="223.78125" height="19.03125" style="fill:#e8e8e8;"></rect><text style=""><tspan xml:space="preserve" dy="1em" x="0" class="row">ClientEventReserveFundsFailed</tspan></text></g></g><g class="edgeLabel" transform="translate(5581.56640625, 755)"><g class="label" transform="translate(-111.953125, -9.5)"><rect rx="0" ry="0" width="223.78125" height="19.03125" style="fill:#e8e8e8;"></rect><text style=""><tspan xml:space="preserve" dy="1em" x="0" class="row">ClientEventReserveFundsFailed</tspan></text></g></g><g class="edgeLabel" transform="translate(2960.55078125, 406.25)"><g class="label" transform="translate(-103.9453125, -9.5)"><rect rx="0" ry="0" width="207.765625" height="19.03125" style="fill:#e8e8e8;"></rect><text style=""><tspan xml:space="preserve" dy="1em" x="0" class="row">ClientEventFundingComplete</tspan></text></g></g><g class="edgeLabel" transform="translate(5192.05859375, 471)"><g class="label" transform="translate(-103.9453125, -9.5)"><rect rx="0" ry="0" width="207.765625" height="19.03125" style="fill:#e8e8e8;"></rect><text style=""><tspan xml:space="preserve" dy="1em" x="0" class="row">ClientEventFundingComplete</tspan></text></g></g><g class="edgeLabel" transform="translate(5762.359375, 1102.25)"><g class="label" transform="translate(-113.4609375, -9.5)"><rect rx="0" ry="0" width="226.78125" height="19.03125" style="fill:#e8e8e8;"></rect><text style=""><tspan xml:space="preserve" dy="1em" x="0" class="row">ClientEventWriteProposalFailed</tspan></text></g></g><g class="edgeLabel" transform="translate(5292.65234375, 806.5)"><g class="label" transform="translate(-113.96875, -9.5)"><rect rx="0" ry="0" width="227.796875" height="19.03125" style="fill:#e8e8e8;"></rect><text style=""><tspan xml:space="preserve" dy="1em" x="0" class="row">ClientEventReadResponseFailed</tspan></text></g></g><g class="edgeLabel" transform="translate(5020.42578125, 806.5)"><g class="label" transform="translate(-138.2578125, -9.5)"><rect rx="0" ry="0" width="276.34375" height="19.03125" style="fill:#e8e8e8;"></rect><text style=""><tspan xml:space="preserve" dy="1em" x="0" class="row">ClientEventResponseVerificationFailed</tspan></text></g></g><g class="edgeLabel" transform="translate(3687.84375, 600.5)"><g class="label" transform="translate(-113.9921875, -9.5)"><rect rx="0" ry="0" width="227.84375" height="19.03125" style="fill:#e8e8e8;"></rect><text style=""><tspan xml:space="preserve" dy="1em" x="0" class="row">ClientEventInitiateDataTransfer</tspan></text></g></g><g class="edgeLabel" transform="translate(3228.70703125, 806.5)"><g class="label" transform="translate(-118.734375, -9.5)"><rect rx="0" ry="0" width="237.328125" height="19.03125" style="fill:#e8e8e8;"></rect><text style=""><tspan xml:space="preserve" dy="1em" x="0" class="row">ClientEventUnexpectedDealState</tspan></text></g></g><g class="edgeLabel" transform="translate(4861.28125, 883)"><g class="label" transform="translate(-109.7890625, -9.5)"><rect rx="0" ry="0" width="219.4375" height="19.03125" style="fill:#e8e8e8;"></rect><text style=""><tspan xml:space="preserve" dy="1em" x="0" class="row">ClientEventDataTransferFailed</tspan></text></g></g><g class="edgeLabel" transform="translate(4387.73046875, 972.75)"><g class="label" transform="translate(-109.7890625, -9.5)"><rect rx="0" ry="0" width="219.4375" height="19.03125" style="fill:#e8e8e8;"></rect><text style=""><tspan xml:space="preserve" dy="1em" x="0" class="row">ClientEventDataTransferFailed</tspan></text></g></g><g class="edgeLabel" transform="translate(2911.64453125, 1037.5)"><g class="label" transform="translate(-135.703125, -9.5)"><rect rx="0" ry="0" width="271.234375" height="19.03125" style="fill:#e8e8e8;"></rect><text style=""><tspan xml:space="preserve" dy="1em" x="0" class="row">ClientEventDataTransferRestartFailed</tspan></text></g></g><g class="edgeLabel" transform="translate(2814.08984375, 755)"><g class="label" transform="translate(-118.453125, -9.5)"><rect rx="0" ry="0" width="236.765625" height="19.03125" style="fill:#e8e8e8;"></rect><text style=""><tspan xml:space="preserve" dy="1em" x="0" class="row">ClientEventDataTransferInitiated</tspan></text></g></g><g class="edgeLabel" transform="translate(2441.71484375, 755)"><g class="label" transform="translate(-122.65625, -9.5)"><rect rx="0" ry="0" width="245.171875" height="19.03125" style="fill:#e8e8e8;"></rect><text style=""><tspan xml:space="preserve" dy="1em" x="0" class="row">ClientEventDataTransferRestarted</tspan></text></g></g><g class="edgeLabel" transform="translate(1125.76953125, 883)"><g class="label" transform="translate(-122.65625, -9.5)"><rect rx="0" ry="0" width="245.171875" height="19.03125" style="fill:#e8e8e8;"></rect><text style=""><tspan xml:space="preserve" dy="1em" x="0" class="row">ClientEventDataTransferRestarted</tspan></text></g></g><g class="edgeLabel" transform="translate(4145.25390625, 972.75)"><g class="label" transform="translate(-112.6875, -9.5)"><rect rx="0" ry="0" width="225.234375" height="19.03125" style="fill:#e8e8e8;"></rect><text style=""><tspan xml:space="preserve" dy="1em" x="0" class="row">ClientEventDataTransferStalled</tspan></text></g></g><g class="edgeLabel" transform="translate(4608.34375, 883)"><g class="label" transform="translate(-123.1484375, -9.5)"><rect rx="0" ry="0" width="246.140625" height="19.03125" style="fill:#e8e8e8;"></rect><text style=""><tspan xml:space="preserve" dy="1em" x="0" class="row">ClientEventDataTransferCancelled</tspan></text></g></g><g class="edgeLabel" transform="translate(3889.41796875, 972.75)"><g class="label" transform="translate(-123.1484375, -9.5)"><rect rx="0" ry="0" width="246.140625" height="19.03125" style="fill:#e8e8e8;"></rect><text style=""><tspan xml:space="preserve" dy="1em" x="0" class="row">ClientEventDataTransferCancelled</tspan></text></g></g><g class="edgeLabel" transform="translate(2632.79296875, 1037.5)"><g class="label" transform="translate(-123.1484375, -9.5)"><rect rx="0" ry="0" width="246.140625" height="19.03125" style="fill:#e8e8e8;"></rect><text style=""><tspan xml:space="preserve" dy="1em" x="0" class="row">ClientEventDataTransferCancelled</tspan></text></g></g><g class="edgeLabel" transform="translate(3489.80078125, 806.5)"><g class="label" transform="translate(-122.359375, -9.5)"><rect rx="0" ry="0" width="244.5625" height="19.03125" style="fill:#e8e8e8;"></rect><text style=""><tspan xml:space="preserve" dy="1em" x="0" class="row">ClientEventDataTransferComplete</tspan></text></g></g><g class="edgeLabel" transform="translate(1545.50390625, 883)"><g class="label" transform="translate(-122.359375, -9.5)"><rect rx="0" ry="0" width="244.5625" height="19.03125" style="fill:#e8e8e8;"></rect><text style=""><tspan xml:space="preserve" dy="1em" x="0" class="row">ClientEventDataTransferComplete</tspan></text></g></g><g class="edgeLabel" transform="translate(2365.53515625, 972.75)"><g class="label" transform="translate(-104.109375, -9.5)"><rect rx="0" ry="0" width="208.09375" height="19.03125" style="fill:#e8e8e8;"></rect><text style=""><tspan xml:space="preserve" dy="1em" x="0" class="row">ClientEventWaitForDealState</tspan></text></g></g><g class="edgeLabel" transform="translate(3402.29296875, 1037.5)"><g class="label" transform="translate(-135.8515625, -9.5)"><rect rx="0" ry="0" width="271.546875" height="19.03125" style="fill:#e8e8e8;"></rect><text style=""><tspan xml:space="preserve" dy="1em" x="0" class="row">ClientEventResponseDealDidNotMatch</tspan></text></g></g><g class="edgeLabel" transform="translate(3156.89453125, 1037.5)"><g class="label" transform="translate(-89.546875, -9.5)"><rect rx="0" ry="0" width="178.984375" height="19.03125" style="fill:#e8e8e8;"></rect><text style=""><tspan xml:space="preserve" dy="1em" x="0" class="row">ClientEventDealRejected</tspan></text></g></g><g class="edgeLabel" transform="translate(890.69921875, 1037.5)"><g class="label" transform="translate(-90.7265625, -9.5)"><rect rx="0" ry="0" width="181.34375" height="19.03125" style="fill:#e8e8e8;"></rect><text style=""><tspan xml:space="preserve" dy="1em" x="0" class="row">ClientEventDealAccepted</tspan></text></g></g><g class="edgeLabel" transform="translate(936.0625, 1386.25)"><g class="label" transform="translate(-104.6796875, -9.5)"><rect rx="0" ry="0" width="209.234375" height="19.03125" style="fill:#e8e8e8;"></rect><text style=""><tspan xml:space="preserve" dy="1em" x="0" class="row">ClientEventDealPublishFailed</tspan></text></g></g><g class="edgeLabel" transform="translate(394.6484375, 1192)"><g class="label" transform="translate(-91.6328125, -9.5)"><rect rx="0" ry="0" width="183.15625" height="19.03125" style="fill:#e8e8e8;"></rect><text style=""><tspan xml:space="preserve" dy="1em" x="0" class="row">ClientEventDealPublished</tspan></text></g></g><g class="edgeLabel" transform="translate(811.3828125, 1451)"><g class="label" transform="translate(-54.671875, -9.5)"><rect rx="0" ry="0" width="109.28125" height="19.03125" style="fill:#e8e8e8;"></rect><text style=""><tspan xml:space="preserve" dy="1em" x="0" class="row">&lt;invalid Value&gt;</tspan></text></g></g><g class="edgeLabel" transform="translate(605.37890625, 1321.5)"><g class="label" transform="translate(-54.671875, -9.5)"><rect rx="0" ry="0" width="109.28125" height="19.03125" style="fill:#e8e8e8;"></rect><text style=""><tspan xml:space="preserve" dy="1em" x="0" class="row">&lt;invalid Value&gt;</tspan></text></g></g><g class="edgeLabel" transform="translate(661.140625, 1515.75)"><g class="label" transform="translate(-115.5078125, -9.5)"><rect rx="0" ry="0" width="230.875" height="19.03125" style="fill:#e8e8e8;"></rect><text style=""><tspan xml:space="preserve" dy="1em" x="0" class="row">ClientEventDealActivationFailed</tspan></text></g></g><g class="edgeLabel" transform="translate(451.08203125, 1451)"><g class="label" transform="translate(-91.5234375, -9.5)"><rect rx="0" ry="0" width="182.9375" height="19.03125" style="fill:#e8e8e8;"></rect><text style=""><tspan xml:space="preserve" dy="1em" x="0" class="row">ClientEventDealActivated</tspan></text></g></g><g class="edgeLabel" transform="translate(184.58984375, 1386.25)"><g class="label" transform="translate(-91.5234375, -9.5)"><rect rx="0" ry="0" width="182.9375" height="19.03125" style="fill:#e8e8e8;"></rect><text style=""><tspan xml:space="preserve" dy="1em" x="0" class="row">ClientEventDealActivated</tspan></text></g></g><g class="edgeLabel" transform="translate(557.0234375, 1580.5)"><g class="label" transform="translate(-84.1171875, -9.5)"><rect rx="0" ry="0" width="168.125" height="19.03125" style="fill:#e8e8e8;"></rect><text style=""><tspan xml:space="preserve" dy="1em" x="0" class="row">ClientEventDealSlashed</tspan></text></g></g><g class="edgeLabel" transform="translate(352.546875, 1580.5)"><g class="label" transform="translate(-84.234375, -9.5)"><rect rx="0" ry="0" width="168.375" height="19.03125" style="fill:#e8e8e8;"></rect><text style=""><tspan xml:space="preserve" dy="1em" x="0" class="row">ClientEventDealExpired</tspan></text></g></g><g class="edgeLabel" transform="translate(128.15625, 1580.5)"><g class="label" transform="translate(-120.15625, -9.5)"><rect rx="0" ry="0" width="240.15625" height="19.03125" style="fill:#e8e8e8;"></rect><text style=""><tspan xml:space="preserve" dy="1em" x="0" class="row">ClientEventDealCompletionFailed</tspan></text></g></g><g class="edgeLabel" transform="translate(3983.171875, 1386.25)"><g class="label" transform="translate(-63.3046875, -9.5)"><rect rx="0" ry="0" width="126.53125" height="19.03125" style="fill:#e8e8e8;"></rect><text style=""><tspan xml:space="preserve" dy="1em" x="0" class="row">ClientEventFailed</tspan></text></g></g><g class="edgeLabel" transform="translate(1335.78515625, 883)"><g class="label" transform="translate(-67.359375, -9.5)"><rect rx="0" ry="0" width="134.640625" height="19.03125" style="fill:#e8e8e8;"></rect><text style=""><tspan xml:space="preserve" dy="1em" x="0" class="row">ClientEventRestart</tspan></text></g></g><g class="edgeLabel"><g class="label" transform="translate(0, 0)"><rect rx="0" ry="0" width="0" height="0" style="fill:#e8e8e8;"></rect><text style=""></text></g></g><g class="edgeLabel"><g class="label" transform="translate(0, 0)"><rect rx="0" ry="0" width="0" height="0" style="fill:#e8e8e8;"></rect><text style=""></text></g></g><g class="edgeLabel"><g class="label" transform="translate(0, 0)"><rect rx="0" ry="0" width="0" height="0" style="fill:#e8e8e8;"></rect><text style=""></text></g></g><g class="edgeLabel"><g class="label" transform="translate(0, 0)"><rect rx="0" ry="0" width="0" height="0" style="fill:#e8e8e8;"></rect><text style=""></text></g></g><g class="edgeLabel"><g class="label" transform="translate(0, 0)"><rect rx="0" ry="0" width="0" height="0" style="fill:#e8e8e8;"></rect><text style=""></text></g></g><g class="edgeLabel"><g class="label" transform="translate(0, 0)"><rect rx="0" ry="0" width="0" height="0" style="fill:#e8e8e8;"></rect><text style=""></text></g></g><g class="edgeLabel"><g class="label" transform="translate(0, 0)"><rect rx="0" ry="0" width="0" height="0" style="fill:#e8e8e8;"></rect><text style=""></text></g></g></g><g class="nodes"><g class="node statediagram-state" id="0" transform="translate(794.328125, 122)"><rect class="outer title-state" x="-82.921875" y="-17" width="165.84375" height="34"></rect><line class="divider" x1="-82.921875" x2="82.921875" y1="9.5" y2="9.5"></line><g class="label" transform="translate(-75.421875, -14)"><text style=""><tspan xml:space="preserve" dy="1em" x="0" class="title-row">StorageDealUnknown</tspan></text><text style="" transform="translate( 0, 26.5)"><tspan xml:space="preserve" dy="1em" x="0" class="title-row"></tspan></text></g></g><g class="node statediagram-state" id="3" transform="translate(542.00390625, 1102.25)"><rect class="outer title-state" x="-138.4765625" y="-30.25" width="276.953125" height="60.5"></rect><line class="divider" x1="-138.4765625" x2="138.4765625" y1="-3.75" y2="-3.75"></line><g class="label" transform="translate(-130.9765625, -27.25)"><text style=""><tspan xml:space="preserve" dy="1em" x="0" class="title-row">StorageDealProposalAccepted</tspan></text><text style="" transform="translate( 0, 26.5)"><tspan xml:space="preserve" dy="1em" x="0" class="title-row">On entry runs ValidateDealPublished</tspan></text></g></g><g class="node statediagram-state" id="5" transform="translate(605.37890625, 1386.25)"><rect class="outer title-state" x="-129.9765625" y="-30.25" width="259.953125" height="60.5"></rect><line class="divider" x1="-129.9765625" x2="129.9765625" y1="-3.75" y2="-3.75"></line><g class="label" transform="translate(-122.4765625, -27.25)"><text style=""><tspan xml:space="preserve" dy="1em" x="0" class="title-row">StorageDealSealing</tspan></text><text style="" transform="translate( 0, 26.5)"><tspan xml:space="preserve" dy="1em" x="0" class="title-row">On entry runs VerifyDealActivated</tspan></text></g></g><g class="node statediagram-state" id="7" transform="translate(240.3515625, 1515.75)"><rect class="outer title-state" x="-143.46875" y="-30.25" width="286.9375" height="60.5"></rect><line class="divider" x1="-143.46875" x2="143.46875" y1="-3.75" y2="-3.75"></line><g class="label" transform="translate(-135.96875, -27.25)"><text style=""><tspan xml:space="preserve" dy="1em" x="0" class="title-row">StorageDealActive</tspan></text><text style="" transform="translate( 0, 26.5)"><tspan xml:space="preserve" dy="1em" x="0" class="title-row">On entry runs WaitForDealCompletion</tspan></text></g></g><g class="node statediagram-state" id="8" transform="translate(136.2890625, 1632)"><rect class="outer title-state" x="-77.296875" y="-17" width="154.59375" height="34"></rect><line class="divider" x1="-77.296875" x2="77.296875" y1="9.5" y2="9.5"></line><g class="label" transform="translate(-69.796875, -14)"><text style=""><tspan xml:space="preserve" dy="1em" x="0" class="title-row">StorageDealExpired</tspan></text><text style="" transform="translate( 0, 26.5)"><tspan xml:space="preserve" dy="1em" x="0" class="title-row"></tspan></text></g></g><g class="node statediagram-state" id="9" transform="translate(340.765625, 1632)"><rect class="outer title-state" x="-77.1796875" y="-17" width="154.359375" height="34"></rect><line class="divider" x1="-77.1796875" x2="77.1796875" y1="9.5" y2="9.5"></line><g class="label" transform="translate(-69.6796875, -14)"><text style=""><tspan xml:space="preserve" dy="1em" x="0" class="title-row">StorageDealSlashed</tspan></text><text style="" transform="translate( 0, 26.5)"><tspan xml:space="preserve" dy="1em" x="0" class="title-row"></tspan></text></g></g><g class="node statediagram-state" id="11" transform="translate(3983.171875, 1102.25)"><rect class="outer title-state" x="-87.421875" y="-30.25" width="174.84375" height="60.5"></rect><line class="divider" x1="-87.421875" x2="87.421875" y1="-3.75" y2="-3.75"></line><g class="label" transform="translate(-79.921875, -27.25)"><text style=""><tspan xml:space="preserve" dy="1em" x="0" class="title-row">StorageDealFailing</tspan></text><text style="" transform="translate( 0, 26.5)"><tspan xml:space="preserve" dy="1em" x="0" class="title-row">On entry runs FailDeal</tspan></text></g></g><g class="node statediagram-state" id="12" transform="translate(5192.05859375, 535.75)"><rect class="outer title-state" x="-103.4453125" y="-30.25" width="206.890625" height="60.5"></rect><line class="divider" x1="-103.4453125" x2="103.4453125" y1="-3.75" y2="-3.75"></line><g class="label" transform="translate(-95.9453125, -27.25)"><text style=""><tspan xml:space="preserve" dy="1em" x="0" class="title-row">StorageDealFundsReserved</tspan></text><text style="" transform="translate( 0, 26.5)"><tspan xml:space="preserve" dy="1em" x="0" class="title-row">On entry runs ProposeDeal</tspan></text></g></g><g class="node statediagram-state" id="13" transform="translate(1951.80078125, 972.75)"><rect class="outer title-state" x="-149.0234375" y="-30.25" width="298.046875" height="60.5"></rect><line class="divider" x1="-149.0234375" x2="149.0234375" y1="-3.75" y2="-3.75"></line><g class="label" transform="translate(-141.5234375, -27.25)"><text style=""><tspan xml:space="preserve" dy="1em" x="0" class="title-row">StorageDealCheckForAcceptance</tspan></text><text style="" transform="translate( 0, 26.5)"><tspan xml:space="preserve" dy="1em" x="0" class="title-row">On entry runs CheckForDealAcceptance</tspan></text></g></g><g class="node statediagram-state" id="16" transform="translate(3687.84375, 690.25)"><rect class="outer title-state" x="-131.09375" y="-30.25" width="262.1875" height="60.5"></rect><line class="divider" x1="-131.09375" x2="131.09375" y1="-3.75" y2="-3.75"></line><g class="label" transform="translate(-123.59375, -27.25)"><text style=""><tspan xml:space="preserve" dy="1em" x="0" class="title-row">StorageDealStartDataTransfer</tspan></text><text style="" transform="translate( 0, 26.5)"><tspan xml:space="preserve" dy="1em" x="0" class="title-row">On entry runs InitiateDataTransfer</tspan></text></g></g><g class="node statediagram-state" id="17" transform="translate(1742.3203125, 806.5)"><rect class="outer title-state" x="-94.109375" y="-17" width="188.21875" height="34"></rect><line class="divider" x1="-94.109375" x2="94.109375" y1="9.5" y2="9.5"></line><g class="label" transform="translate(-86.609375, -14)"><text style=""><tspan xml:space="preserve" dy="1em" x="0" class="title-row">StorageDealTransferring</tspan></text><text style="" transform="translate( 0, 26.5)"><tspan xml:space="preserve" dy="1em" x="0" class="title-row"></tspan></text></g></g><g class="node statediagram-state" id="21" transform="translate(3288.51171875, 249)"><rect class="outer title-state" x="-128.5234375" y="-30.25" width="257.046875" height="60.5"></rect><line class="divider" x1="-128.5234375" x2="128.5234375" y1="-3.75" y2="-3.75"></line><g class="label" transform="translate(-121.0234375, -27.25)"><text style=""><tspan xml:space="preserve" dy="1em" x="0" class="title-row">StorageDealReserveClientFunds</tspan></text><text style="" transform="translate( 0, 26.5)"><tspan xml:space="preserve" dy="1em" x="0" class="title-row">On entry runs ReserveClientFunds</tspan></text></g></g><g class="node statediagram-state" id="23" transform="translate(5500.359375, 406.25)"><rect class="outer title-state" x="-114.6875" y="-30.25" width="229.375" height="60.5"></rect><line class="divider" x1="-114.6875" x2="114.6875" y1="-3.75" y2="-3.75"></line><g class="label" transform="translate(-107.1875, -27.25)"><text style=""><tspan xml:space="preserve" dy="1em" x="0" class="title-row">StorageDealClientFunding</tspan></text><text style="" transform="translate( 0, 26.5)"><tspan xml:space="preserve" dy="1em" x="0" class="title-row">On entry runs WaitForFunding</tspan></text></g></g><g class="node statediagram-state" id="26" transform="translate(857.875, 1632)"><rect class="outer title-state" x="-68.2421875" y="-17" width="136.484375" height="34"></rect><line class="divider" x1="-68.2421875" x2="68.2421875" y1="9.5" y2="9.5"></line><g class="label" transform="translate(-60.7421875, -14)"><text style=""><tspan xml:space="preserve" dy="1em" x="0" class="title-row">StorageDealError</tspan></text><text style="" transform="translate( 0, 26.5)"><tspan xml:space="preserve" dy="1em" x="0" class="title-row"></tspan></text></g></g><g class="node statediagram-state" id="28" transform="translate(1230.77734375, 972.75)"><rect class="outer title-state" x="-130.9375" y="-30.25" width="261.875" height="60.5"></rect><line class="divider" x1="-130.9375" x2="130.9375" y1="-3.75" y2="-3.75"></line><g class="label" transform="translate(-123.4375, -27.25)"><text style=""><tspan xml:space="preserve" dy="1em" x="0" class="title-row">StorageDealClientTransferRestart</tspan></text><text style="" transform="translate( 0, 26.5)"><tspan xml:space="preserve" dy="1em" x="0" class="title-row">On entry runs RestartDataTransfer</tspan></text></g></g><g class="node statediagram-state" id="29" transform="translate(394.6484375, 1256.75)"><rect class="outer title-state" x="-147.46875" y="-30.25" width="294.9375" height="60.5"></rect><line class="divider" x1="-147.46875" x2="147.46875" y1="-3.75" y2="-3.75"></line><g class="label" transform="translate(-139.96875, -27.25)"><text style=""><tspan xml:space="preserve" dy="1em" x="0" class="title-row">StorageDealAwaitingPreCommit</tspan></text><text style="" transform="translate( 0, 26.5)"><tspan xml:space="preserve" dy="1em" x="0" class="title-row">On entry runs VerifyDealPreCommitted</tspan></text></g></g><g class="node default" id="root_start" transform="translate(794.328125, 15)"><circle class="state-start" r="7" width="14" height="14"></circle></g><g class="node statediagram-note" id="0----note" transform="translate(834.33984375, 249)"><rect x="-275.046875" y="-33" width="550.09375" height="66"></rect><g class="label" transform="translate(-267.546875, -25.5)"><text style=""><tspan xml:space="preserve" dy="1em" x="0" class="row">The following events are not shown cause they can trigger from any state.</tspan><tspan xml:space="preserve" dy="1em" x="0" class="row"></tspan><tspan xml:space="preserve" dy="1em" x="0" class="row">ClientEventStreamCloseError - transitions state to StorageDealError</tspan><tspan xml:space="preserve" dy="1em" x="0" class="row">ClientEventRestart - does not transition state</tspan></text></g></g><g class="node statediagram-note" id="3----note" transform="translate(478.7109375, 972.75)"><rect x="-173.125" y="-25" width="346.25" height="50"></rect><g class="label" transform="translate(-165.625, -17.5)"><text style=""><tspan xml:space="preserve" dy="1em" x="0" class="row">The following events only record in this state.</tspan><tspan xml:space="preserve" dy="1em" x="0" class="row"></tspan><tspan xml:space="preserve" dy="1em" x="0" class="row">ClientEventFundsReleased</tspan></text></g></g><g class="node statediagram-note" id="11----note" transform="translate(3558.14453125, 972.75)"><rect x="-173.125" y="-25" width="346.25" height="50"></rect><g class="label" transform="translate(-165.625, -17.5)"><text style=""><tspan xml:space="preserve" dy="1em" x="0" class="row">The following events only record in this state.</tspan><tspan xml:space="preserve" dy="1em" x="0" class="row"></tspan><tspan xml:space="preserve" dy="1em" x="0" class="row">ClientEventFundsReleased</tspan></text></g></g><g class="node statediagram-note" id="17----note" transform="translate(1133.60546875, 690.25)"><rect x="-173.125" y="-25" width="346.25" height="50"></rect><g class="label" transform="translate(-165.625, -17.5)"><text style=""><tspan xml:space="preserve" dy="1em" x="0" class="row">The following events only record in this state.</tspan><tspan xml:space="preserve" dy="1em" x="0" class="row"></tspan><tspan xml:space="preserve" dy="1em" x="0" class="row">ClientEventDataTransferRestarted</tspan></text></g></g><g class="node statediagram-note" id="21----note" transform="translate(3288.51171875, 122)"><rect x="-173.125" y="-25" width="346.25" height="50"></rect><g class="label" transform="translate(-165.625, -17.5)"><text style=""><tspan xml:space="preserve" dy="1em" x="0" class="row">The following events only record in this state.</tspan><tspan xml:space="preserve" dy="1em" x="0" class="row"></tspan><tspan xml:space="preserve" dy="1em" x="0" class="row">ClientEventFundsReserved</tspan></text></g></g><g class="node default" id="root_end" transform="translate(538.11328125, 1706)"><circle class="state-start" r="7" width="14" height="14"></circle><circle class="state-end" r="5" width="10" height="10"></circle></g></g></g></g></svg>