<svg id="mermaid-1593128467335" width="3250.6640625" xmlns="http://www.w3.org/2000/svg" class="statediagram" height="1967" viewBox="0 0 3250.6640625 1967"><style>#mermaid-1593128467335 .label{font-family:'trebuchet ms', verdana, arial;font-family:var(--mermaid-font-family);color:#333}#mermaid-1593128467335 .label text{fill:#333}#mermaid-1593128467335 .node rect,#mermaid-1593128467335 .node circle,#mermaid-1593128467335 .node ellipse,#mermaid-1593128467335 .node polygon,#mermaid-1593128467335 .node path{fill:#ECECFF;stroke:#9370db;stroke-width:1px}#mermaid-1593128467335 .node .label{text-align:center}#mermaid-1593128467335 .node.clickable{cursor:pointer}#mermaid-1593128467335 .arrowheadPath{fill:#333}#mermaid-1593128467335 .edgePath .path{stroke:#333;stroke-width:1.5px}#mermaid-1593128467335 .edgeLabel{background-color:#e8e8e8;text-align:center}#mermaid-1593128467335 .edgeLabel rect{opacity:0.5}#mermaid-1593128467335 .cluster rect{fill:#ffffde;stroke:#aa3;stroke-width:1px}#mermaid-1593128467335 .cluster text{fill:#333}#mermaid-1593128467335 div.mermaidTooltip{position:absolute;text-align:center;max-width:200px;padding:2px;font-family:'trebuchet ms', verdana, arial;font-family:var(--mermaid-font-family);font-size:12px;background:#ffffde;border:1px solid #aa3;border-radius:2px;pointer-events:none;z-index:100}#mermaid-1593128467335 .actor{stroke:#ccf;fill:#ECECFF}#mermaid-1593128467335 text.actor{fill:#000;stroke:none}#mermaid-1593128467335 .actor-line{stroke:grey}#mermaid-1593128467335 .messageLine0{stroke-width:1.5;stroke-dasharray:'2 2';stroke:#333}#mermaid-1593128467335 .messageLine1{stroke-width:1.5;stroke-dasharray:'2 2';stroke:#333}#mermaid-1593128467335 #arrowhead{fill:#333}#mermaid-1593128467335 .sequenceNumber{fill:#fff}#mermaid-1593128467335 #sequencenumber{fill:#333}#mermaid-1593128467335 #crosshead path{fill:#333 !important;stroke:#333 !important}#mermaid-1593128467335 .messageText{fill:#333;stroke:none}#mermaid-1593128467335 .labelBox{stroke:#ccf;fill:#ECECFF}#mermaid-1593128467335 .labelText{fill:#000;stroke:none}#mermaid-1593128467335 .loopText{fill:#000;stroke:none}#mermaid-1593128467335 .loopLine{stroke-width:2;stroke-dasharray:'2 2';stroke:#ccf}#mermaid-1593128467335 .note{stroke:#aa3;fill:#fff5ad}#mermaid-1593128467335 .noteText{fill:black;stroke:none;font-family:'trebuchet ms', verdana, arial;font-family:var(--mermaid-font-family);font-size:14px}#mermaid-1593128467335 .activation0{fill:#f4f4f4;stroke:#666}#mermaid-1593128467335 .activation1{fill:#f4f4f4;stroke:#666}#mermaid-1593128467335 .activation2{fill:#f4f4f4;stroke:#666}#mermaid-1593128467335 .mermaid-main-font{font-family:"trebuchet ms", verdana, arial;font-family:var(--mermaid-font-family)}#mermaid-1593128467335 .section{stroke:none;opacity:0.2}#mermaid-1593128467335 .section0{fill:rgba(102,102,255,0.49)}#mermaid-1593128467335 .section2{fill:#fff400}#mermaid-1593128467335 .section1,#mermaid-1593128467335 .section3{fill:#fff;opacity:0.2}#mermaid-1593128467335 .sectionTitle0{fill:#333}#mermaid-1593128467335 .sectionTitle1{fill:#333}#mermaid-1593128467335 .sectionTitle2{fill:#333}#mermaid-1593128467335 .sectionTitle3{fill:#333}#mermaid-1593128467335 .sectionTitle{text-anchor:start;font-size:11px;text-height:14px;font-family:'trebuchet ms', verdana, arial;font-family:var(--mermaid-font-family)}#mermaid-1593128467335 .grid .tick{stroke:#d3d3d3;opacity:0.8;shape-rendering:crispEdges}#mermaid-1593128467335 .grid .tick text{font-family:'trebuchet ms', verdana, arial;font-family:var(--mermaid-font-family)}#mermaid-1593128467335 .grid path{stroke-width:0}#mermaid-1593128467335 .today{fill:none;stroke:red;stroke-width:2px}#mermaid-1593128467335 .task{stroke-width:2}#mermaid-1593128467335 .taskText{text-anchor:middle;font-family:'trebuchet ms', verdana, arial;font-family:var(--mermaid-font-family)}#mermaid-1593128467335 .taskText:not([font-size]){font-size:11px}#mermaid-1593128467335 .taskTextOutsideRight{fill:#000;text-anchor:start;font-size:11px;font-family:'trebuchet ms', verdana, arial;font-family:var(--mermaid-font-family)}#mermaid-1593128467335 .taskTextOutsideLeft{fill:#000;text-anchor:end;font-size:11px}#mermaid-1593128467335 .task.clickable{cursor:pointer}#mermaid-1593128467335 .taskText.clickable{cursor:pointer;fill:#003163 !important;font-weight:bold}#mermaid-1593128467335 .taskTextOutsideLeft.clickable{cursor:pointer;fill:#003163 !important;font-weight:bold}#mermaid-1593128467335 .taskTextOutsideRight.clickable{cursor:pointer;fill:#003163 !important;font-weight:bold}#mermaid-1593128467335 .taskText0,#mermaid-1593128467335 .taskText1,#mermaid-1593128467335 .taskText2,#mermaid-1593128467335 .taskText3{fill:#fff}#mermaid-1593128467335 .task0,#mermaid-1593128467335 .task1,#mermaid-1593128467335 .task2,#mermaid-1593128467335 .task3{fill:#8a90dd;stroke:#534fbc}#mermaid-1593128467335 .taskTextOutside0,#mermaid-1593128467335 .taskTextOutside2{fill:#000}#mermaid-1593128467335 .taskTextOutside1,#mermaid-1593128467335 .taskTextOutside3{fill:#000}#mermaid-1593128467335 .active0,#mermaid-1593128467335 .active1,#mermaid-1593128467335 .active2,#mermaid-1593128467335 .active3{fill:#bfc7ff;stroke:#534fbc}#mermaid-1593128467335 .activeText0,#mermaid-1593128467335 .activeText1,#mermaid-1593128467335 .activeText2,#mermaid-1593128467335 .activeText3{fill:#000 !important}#mermaid-1593128467335 .done0,#mermaid-1593128467335 .done1,#mermaid-1593128467335 .done2,#mermaid-1593128467335 .done3{stroke:grey;fill:#d3d3d3;stroke-width:2}#mermaid-1593128467335 .doneText0,#mermaid-1593128467335 .doneText1,#mermaid-1593128467335 .doneText2,#mermaid-1593128467335 .doneText3{fill:#000 !important}#mermaid-1593128467335 .crit0,#mermaid-1593128467335 .crit1,#mermaid-1593128467335 .crit2,#mermaid-1593128467335 .crit3{stroke:#f88;fill:red;stroke-width:2}#mermaid-1593128467335 .activeCrit0,#mermaid-1593128467335 .activeCrit1,#mermaid-1593128467335 .activeCrit2,#mermaid-1593128467335 .activeCrit3{stroke:#f88;fill:#bfc7ff;stroke-width:2}#mermaid-1593128467335 .doneCrit0,#mermaid-1593128467335 .doneCrit1,#mermaid-1593128467335 .doneCrit2,#mermaid-1593128467335 .doneCrit3{stroke:#f88;fill:#d3d3d3;stroke-width:2;cursor:pointer;shape-rendering:crispEdges}#mermaid-1593128467335 .milestone{transform:rotate(45deg) scale(0.8, 0.8)}#mermaid-1593128467335 .milestoneText{font-style:italic}#mermaid-1593128467335 .doneCritText0,#mermaid-1593128467335 .doneCritText1,#mermaid-1593128467335 .doneCritText2,#mermaid-1593128467335 .doneCritText3{fill:#000 !important}#mermaid-1593128467335 .activeCritText0,#mermaid-1593128467335 .activeCritText1,#mermaid-1593128467335 .activeCritText2,#mermaid-1593128467335 .activeCritText3{fill:#000 !important}#mermaid-1593128467335 .titleText{text-anchor:middle;font-size:18px;fill:#000;font-family:'trebuchet ms', verdana, arial;font-family:var(--mermaid-font-family)}#mermaid-1593128467335 g.classGroup text{fill:#9370db;stroke:none;font-family:'trebuchet ms', verdana, arial;font-family:var(--mermaid-font-family);font-size:10px}#mermaid-1593128467335 g.classGroup text .title{font-weight:bolder}#mermaid-1593128467335 g.clickable{cursor:pointer}#mermaid-1593128467335 g.classGroup rect{fill:#ECECFF;stroke:#9370db}#mermaid-1593128467335 g.classGroup line{stroke:#9370db;stroke-width:1}#mermaid-1593128467335 .classLabel .box{stroke:none;stroke-width:0;fill:#ECECFF;opacity:0.5}#mermaid-1593128467335 .classLabel .label{fill:#9370db;font-size:10px}#mermaid-1593128467335 .relation{stroke:#9370db;stroke-width:1;fill:none}#mermaid-1593128467335 .dashed-line{stroke-dasharray:3}#mermaid-1593128467335 #compositionStart{fill:#9370db;stroke:#9370db;stroke-width:1}#mermaid-1593128467335 #compositionEnd{fill:#9370db;stroke:#9370db;stroke-width:1}#mermaid-1593128467335 #aggregationStart{fill:#ECECFF;stroke:#9370db;stroke-width:1}#mermaid-1593128467335 #aggregationEnd{fill:#ECECFF;stroke:#9370db;stroke-width:1}#mermaid-1593128467335 #dependencyStart{fill:#9370db;stroke:#9370db;stroke-width:1}#mermaid-1593128467335 #dependencyEnd{fill:#9370db;stroke:#9370db;stroke-width:1}#mermaid-1593128467335 #extensionStart{fill:#9370db;stroke:#9370db;stroke-width:1}#mermaid-1593128467335 #extensionEnd{fill:#9370db;stroke:#9370db;stroke-width:1}#mermaid-1593128467335 .commit-id,#mermaid-1593128467335 .commit-msg,#mermaid-1593128467335 .branch-label{fill:lightgrey;color:lightgrey;font-family:'trebuchet ms', verdana, arial;font-family:var(--mermaid-font-family)}#mermaid-1593128467335 .pieTitleText{text-anchor:middle;font-size:25px;fill:#000;font-family:'trebuchet ms', verdana, arial;font-family:var(--mermaid-font-family)}#mermaid-1593128467335 .slice{font-family:'trebuchet ms', verdana, arial;font-family:var(--mermaid-font-family)}#mermaid-1593128467335 g.stateGroup text{fill:#9370db;stroke:none;font-size:10px;font-family:'trebuchet ms', verdana, arial;font-family:var(--mermaid-font-family)}#mermaid-1593128467335 g.stateGroup text{fill:#9370db;stroke:none;font-size:10px}#mermaid-1593128467335 g.stateGroup .state-title{font-weight:bolder;fill:#000}#mermaid-1593128467335 g.stateGroup rect{fill:#ECECFF;stroke:#9370db}#mermaid-1593128467335 g.stateGroup line{stroke:#9370db;stroke-width:1}#mermaid-1593128467335 .transition{stroke:#9370db;stroke-width:1;fill:none}#mermaid-1593128467335 .stateGroup .composit{fill:white;border-bottom:1px}#mermaid-1593128467335 .stateGroup .alt-composit{fill:#e0e0e0;border-bottom:1px}#mermaid-1593128467335 .state-note{stroke:#aa3;fill:#fff5ad}#mermaid-1593128467335 .state-note text{fill:black;stroke:none;font-size:10px}#mermaid-1593128467335 .stateLabel .box{stroke:none;stroke-width:0;fill:#ECECFF;opacity:0.5}#mermaid-1593128467335 .stateLabel text{fill:#000;font-size:10px;font-weight:bold;font-family:'trebuchet ms', verdana, arial;font-family:var(--mermaid-font-family)}#mermaid-1593128467335 .node circle.state-start{fill:black;stroke:black}#mermaid-1593128467335 .node circle.state-end{fill:black;stroke:white;stroke-width:1.5}#mermaid-1593128467335 #statediagram-barbEnd{fill:#9370db}#mermaid-1593128467335 .statediagram-cluster rect{fill:#ECECFF;stroke:#9370db;stroke-width:1px}#mermaid-1593128467335 .statediagram-cluster rect.outer{rx:5px;ry:5px}#mermaid-1593128467335 .statediagram-state .divider{stroke:#9370db}#mermaid-1593128467335 .statediagram-state .title-state{rx:5px;ry:5px}#mermaid-1593128467335 .statediagram-cluster.statediagram-cluster .inner{fill:white}#mermaid-1593128467335 .statediagram-cluster.statediagram-cluster-alt .inner{fill:#e0e0e0}#mermaid-1593128467335 .statediagram-cluster .inner{rx:0;ry:0}#mermaid-1593128467335 .statediagram-state rect.basic{rx:5px;ry:5px}#mermaid-1593128467335 .statediagram-state rect.divider{stroke-dasharray:10,10;fill:#efefef}#mermaid-1593128467335 .note-edge{stroke-dasharray:5}#mermaid-1593128467335 .statediagram-note rect{fill:#fff5ad;stroke:#aa3;stroke-width:1px;rx:0;ry:0}:root{--mermaid-font-family: '"trebuchet ms", verdana, arial';--mermaid-font-family: "Comic Sans MS", "Comic Sans", cursive}

:root { --mermaid-font-family: "trebuchet ms", verdana, arial;}</style><style>#mermaid-1593128467335 {
    color: rgb(0, 0, 0);
    font: 16px "trebuchet ms", verdana, arial;
  }</style><g><defs><marker id="statediagram-barbEnd" refX="19" refY="7" markerWidth="20" markerHeight="14" markerUnits="0" orient="auto"><path d="M 19,7 L9,13 L14,7 L9,1 Z"></path></marker></defs><g class="root"><g class="clusters"><g class="note-cluster" id="0----parent"><rect x="8" y="72" width="620.09375" height="219" fill="none"></rect></g></g><g class="edgePaths"><path d="M333.1796875,22L333.1796875,26.166666666666668C333.1796875,30.333333333333332,333.1796875,38.666666666666664,333.1796875,47C333.1796875,55.333333333333336,333.1796875,63.666666666666664,333.1796875,72C333.1796875,80.33333333333333,333.1796875,88.66666666666667,333.1796875,92.83333333333333L333.1796875,97" id="edge0" class="transition" marker-end="url(#statediagram-barbEnd)"></path><path d="M328.18439016990294,131L326.49480430825247,136.75C324.80521844660194,142.5,321.426046723301,154,319.7364608616505,165.5C318.046875,177,318.046875,188.5,318.046875,194.25L318.046875,200" class="transition note-edge"></path><path d="M379.35717536407765,131L394.97603155339806,136.75C410.5948877427184,142.5,441.83260012135923,154,489.1220292273463,166.33675950220254C536.4114583333334,178.67351900440508,599.7526041666666,191.84703800881016,631.4231770833334,198.43379751101267L663.09375,205.0205570132152" id="edge1" class="transition" marker-end="url(#statediagram-barbEnd)"></path><path d="M758.630859375,263.25L752.6689453125,267.875C746.70703125,272.5,734.783203125,281.75,728.8212890625,292.125C722.859375,302.5,722.859375,314,722.859375,330.5416666666667C722.859375,347.0833333333333,722.859375,368.6666666666667,722.859375,390.25C722.859375,411.8333333333333,722.859375,433.4166666666667,722.859375,452.7916666666667C722.859375,472.1666666666667,722.859375,489.3333333333333,722.859375,506.5C722.859375,523.6666666666666,722.859375,540.8333333333334,722.859375,558C722.859375,575.1666666666666,722.859375,592.3333333333334,722.859375,609.5C722.859375,626.6666666666666,722.859375,643.8333333333334,722.859375,663.2083333333334C722.859375,682.5833333333334,722.859375,704.1666666666666,722.859375,725.75C722.859375,747.3333333333334,722.859375,768.9166666666666,722.859375,790.5C722.859375,812.0833333333334,722.859375,833.6666666666666,722.859375,855.25C722.859375,876.8333333333334,722.859375,898.4166666666666,722.859375,920C722.859375,941.5833333333334,722.859375,963.1666666666666,722.859375,984.75C722.859375,1006.3333333333334,722.859375,1027.9166666666667,722.859375,1049.5C722.859375,1071.0833333333333,722.859375,1092.6666666666667,722.859375,1114.25C722.859375,1135.8333333333333,722.859375,1157.4166666666667,722.859375,1179C722.859375,1200.5833333333333,722.859375,1222.1666666666667,722.859375,1243.75C722.859375,1265.3333333333333,722.859375,1286.9166666666667,722.859375,1308.5C722.859375,1330.0833333333333,722.859375,1351.6666666666667,722.859375,1373.25C722.859375,1394.8333333333333,722.859375,1416.4166666666667,722.859375,1438C722.859375,1459.5833333333333,722.859375,1481.1666666666667,722.859375,1502.75C722.859375,1524.3333333333333,722.859375,1545.9166666666667,722.859375,1567.5C722.859375,1589.0833333333333,722.859375,1610.6666666666667,722.859375,1632.25C722.859375,1653.8333333333333,722.859375,1675.4166666666667,867.6360677083334,1696.0132355765106C1012.4127604166666,1716.6098044863545,1301.9661458333333,1736.2196089727088,1446.7428385416667,1746.0245112158862L1591.51953125,1755.8294134590635" id="edge2" class="transition" marker-end="url(#statediagram-barbEnd)"></path><path d="M911.4416173986486,420.5L903.0327280405405,426.25C894.6238386824325,432,877.8060599662163,443.5,869.397170608108,457.8333333333333C860.98828125,472.1666666666667,860.98828125,489.3333333333333,860.98828125,506.5C860.98828125,523.6666666666666,860.98828125,540.8333333333334,860.98828125,558C860.98828125,575.1666666666666,860.98828125,592.3333333333334,860.98828125,609.5C860.98828125,626.6666666666666,860.98828125,643.8333333333334,860.98828125,663.2083333333334C860.98828125,682.5833333333334,860.98828125,704.1666666666666,860.98828125,725.75C860.98828125,747.3333333333334,860.98828125,768.9166666666666,860.98828125,790.5C860.98828125,812.0833333333334,860.98828125,833.6666666666666,860.98828125,855.25C860.98828125,876.8333333333334,860.98828125,898.4166666666666,860.98828125,920C860.98828125,941.5833333333334,860.98828125,963.1666666666666,860.98828125,984.75C860.98828125,1006.3333333333334,860.98828125,1027.9166666666667,860.98828125,1049.5C860.98828125,1071.0833333333333,860.98828125,1092.6666666666667,860.98828125,1114.25C860.98828125,1135.8333333333333,860.98828125,1157.4166666666667,860.98828125,1179C860.98828125,1200.5833333333333,860.98828125,1222.1666666666667,860.98828125,1243.75C860.98828125,1265.3333333333333,860.98828125,1286.9166666666667,860.98828125,1308.5C860.98828125,1330.0833333333333,860.98828125,1351.6666666666667,860.98828125,1373.25C860.98828125,1394.8333333333333,860.98828125,1416.4166666666667,860.98828125,1438C860.98828125,1459.5833333333333,860.98828125,1481.1666666666667,860.98828125,1502.75C860.98828125,1524.3333333333333,860.98828125,1545.9166666666667,860.98828125,1567.5C860.98828125,1589.0833333333333,860.98828125,1610.6666666666667,860.98828125,1632.25C860.98828125,1653.8333333333333,860.98828125,1675.4166666666667,982.7434895833334,1695.8465992664617C1104.4986979166667,1716.2765318662566,1348.0091145833333,1735.553063732513,1469.7643229166667,1745.1913296656414L1591.51953125,1754.8295955987699" id="edge3" class="transition" marker-end="url(#statediagram-barbEnd)"></path><path d="M1177.92578125,746.8968100595632L1144.8033854166667,754.1640083829693C1111.6809895833333,761.4312067063755,1045.4361979166667,775.9656033531877,1012.3138020833334,794.0244683432605C979.19140625,812.0833333333334,979.19140625,833.6666666666666,979.19140625,855.25C979.19140625,876.8333333333334,979.19140625,898.4166666666666,979.19140625,920C979.19140625,941.5833333333334,979.19140625,963.1666666666666,979.19140625,984.75C979.19140625,1006.3333333333334,979.19140625,1027.9166666666667,979.19140625,1049.5C979.19140625,1071.0833333333333,979.19140625,1092.6666666666667,979.19140625,1114.25C979.19140625,1135.8333333333333,979.19140625,1157.4166666666667,979.19140625,1179C979.19140625,1200.5833333333333,979.19140625,1222.1666666666667,979.19140625,1243.75C979.19140625,1265.3333333333333,979.19140625,1286.9166666666667,979.19140625,1308.5C979.19140625,1330.0833333333333,979.19140625,1351.6666666666667,979.19140625,1373.25C979.19140625,1394.8333333333333,979.19140625,1416.4166666666667,979.19140625,1438C979.19140625,1459.5833333333333,979.19140625,1481.1666666666667,979.19140625,1502.75C979.19140625,1524.3333333333333,979.19140625,1545.9166666666667,979.19140625,1567.5C979.19140625,1589.0833333333333,979.19140625,1610.6666666666667,979.19140625,1632.25C979.19140625,1653.8333333333333,979.19140625,1675.4166666666667,1081.24609375,1695.6517645811002C1183.30078125,1715.886862495534,1387.41015625,1734.773724991068,1489.46484375,1744.217156238835L1591.51953125,1753.6605874866023" id="edge4" class="transition" marker-end="url(#statediagram-barbEnd)"></path><path d="M880.0586947737069,263.25L892.6621935614224,267.875C905.265692349138,272.5,930.472689924569,281.75,943.0761887122844,292.125C955.6796875,302.5,955.6796875,314,955.6796875,325.5C955.6796875,337,955.6796875,348.5,955.6796875,354.25L955.6796875,360" id="edge5" class="transition" marker-end="url(#statediagram-barbEnd)"></path><path d="M1078.734375,412.61278669473313L1117.6080729166667,419.6773222456109C1156.4817708333333,426.7418577964888,1234.2291666666667,440.87092889824436,1273.1028645833333,453.6854644491222C1311.9765625,466.5,1311.9765625,478,1311.9765625,483.75L1311.9765625,489.5" id="edge6" class="transition" marker-end="url(#statediagram-barbEnd)"></path><path d="M1170.1141914441748,626.5L1161.3679459951456,632.25C1152.6217005461165,638,1135.1292096480583,649.5,1126.3829641990292,666.0416666666666C1117.63671875,682.5833333333334,1117.63671875,704.1666666666666,1117.63671875,725.75C1117.63671875,747.3333333333334,1117.63671875,768.9166666666666,1117.63671875,790.5C1117.63671875,812.0833333333334,1117.63671875,833.6666666666666,1117.63671875,855.25C1117.63671875,876.8333333333334,1117.63671875,898.4166666666666,1117.63671875,920C1117.63671875,941.5833333333334,1117.63671875,963.1666666666666,1117.63671875,984.75C1117.63671875,1006.3333333333334,1117.63671875,1027.9166666666667,1117.63671875,1049.5C1117.63671875,1071.0833333333333,1117.63671875,1092.6666666666667,1117.63671875,1114.25C1117.63671875,1135.8333333333333,1117.63671875,1157.4166666666667,1117.63671875,1179C1117.63671875,1200.5833333333333,1117.63671875,1222.1666666666667,1117.63671875,1243.75C1117.63671875,1265.3333333333333,1117.63671875,1286.9166666666667,1117.63671875,1308.5C1117.63671875,1330.0833333333333,1117.63671875,1351.6666666666667,1117.63671875,1373.25C1117.63671875,1394.8333333333333,1117.63671875,1416.4166666666667,1117.63671875,1438C1117.63671875,1459.5833333333333,1117.63671875,1481.1666666666667,1117.63671875,1502.75C1117.63671875,1524.3333333333333,1117.63671875,1545.9166666666667,1117.63671875,1567.5C1117.63671875,1589.0833333333333,1117.63671875,1610.6666666666667,1117.63671875,1632.25C1117.63671875,1653.8333333333333,1117.63671875,1675.4166666666667,1196.6171875,1695.3192234888027C1275.59765625,1715.2217803109386,1433.55859375,1733.443560621877,1512.5390625,1742.5544507773463L1591.51953125,1751.6653409328155" id="edge7" class="transition" marker-end="url(#statediagram-barbEnd)"></path><path d="M1273.6840109223301,523.5L1260.7321184769419,529.25C1247.7802260315534,535,1221.8764411407767,546.5,1208.9245486953885,558C1195.97265625,569.5,1195.97265625,581,1195.97265625,586.75L1195.97265625,592.5" id="edge8" class="transition" marker-end="url(#statediagram-barbEnd)"></path><path d="M1221.8311210558252,626.5L1230.5773665048544,632.25C1239.3236119538835,638,1256.8161028519417,649.5,1265.5623483009708,661C1274.30859375,672.5,1274.30859375,684,1274.30859375,689.75L1274.30859375,695.5" id="edge9" class="transition" marker-end="url(#statediagram-barbEnd)"></path><path d="M1274.30859375,756L1274.30859375,761.75C1274.30859375,767.5,1274.30859375,779,1274.30859375,795.5416666666666C1274.30859375,812.0833333333334,1274.30859375,833.6666666666666,1274.30859375,855.25C1274.30859375,876.8333333333334,1274.30859375,898.4166666666666,1274.30859375,920C1274.30859375,941.5833333333334,1274.30859375,963.1666666666666,1274.30859375,984.75C1274.30859375,1006.3333333333334,1274.30859375,1027.9166666666667,1274.30859375,1049.5C1274.30859375,1071.0833333333333,1274.30859375,1092.6666666666667,1274.30859375,1114.25C1274.30859375,1135.8333333333333,1274.30859375,1157.4166666666667,1274.30859375,1179C1274.30859375,1200.5833333333333,1274.30859375,1222.1666666666667,1274.30859375,1243.75C1274.30859375,1265.3333333333333,1274.30859375,1286.9166666666667,1274.30859375,1308.5C1274.30859375,1330.0833333333333,1274.30859375,1351.6666666666667,1274.30859375,1373.25C1274.30859375,1394.8333333333333,1274.30859375,1416.4166666666667,1274.30859375,1438C1274.30859375,1459.5833333333333,1274.30859375,1481.1666666666667,1274.30859375,1502.75C1274.30859375,1524.3333333333333,1274.30859375,1545.9166666666667,1274.30859375,1567.5C1274.30859375,1589.0833333333333,1274.30859375,1610.6666666666667,1274.30859375,1632.25C1274.30859375,1653.8333333333333,1274.30859375,1675.4166666666667,1327.1770833333333,1694.6684349236384C1380.0455729166667,1713.92020318061,1485.7825520833333,1730.84040636122,1538.6510416666667,1739.300507951525L1591.51953125,1747.76060954183" id="edge10" class="transition" marker-end="url(#statediagram-barbEnd)"></path><path d="M1387.7454490291261,523.5L1413.3731606492718,529.25C1439.0008722694174,535,1490.2562955097085,546.5,1515.8840071298544,560.8333333333334C1541.51171875,575.1666666666666,1541.51171875,592.3333333333334,1541.51171875,609.5C1541.51171875,626.6666666666666,1541.51171875,643.8333333333334,1541.51171875,663.2083333333334C1541.51171875,682.5833333333334,1541.51171875,704.1666666666666,1541.51171875,725.75C1541.51171875,747.3333333333334,1541.51171875,768.9166666666666,1580.8157552083333,786.6100750023835C1620.1197916666667,804.3034833381004,1698.7278645833333,818.1069666762008,1738.0319010416667,825.008708345251L1777.3359375,831.9104500143013" id="edge11" class="transition" marker-end="url(#statediagram-barbEnd)"></path><path d="M1370.69140625,734.749073416923L1470.2096354166667,744.0408945141025C1569.7278645833333,753.332715611282,1768.7643229166667,771.916357805641,1863.1718649453023,786.9581789028206C1957.5794069739384,802,1947.3580326978765,813.5,1942.2473455598456,819.25L1937.1366584218147,825" id="edge12" class="transition" marker-end="url(#statediagram-barbEnd)"></path><path d="M1979.9932583252896,885.5L1993.2502413127413,891.25C2006.507224300193,897,2033.0211902750964,908.5,2046.2781732625483,920C2059.53515625,931.5,2059.53515625,943,2059.53515625,948.75L2059.53515625,954.5" id="edge13" class="transition" marker-end="url(#statediagram-barbEnd)"></path><path d="M1777.3359375,874.5521280510242L1725.1770833333333,882.1267733758535C1673.0182291666667,889.7014187006829,1568.7005208333333,904.8507093503414,1516.5416666666667,923.2170213418373C1464.3828125,941.5833333333334,1464.3828125,963.1666666666666,1464.3828125,984.75C1464.3828125,1006.3333333333334,1464.3828125,1027.9166666666667,1522.0416666666667,1047.0817030540904C1579.7005208333333,1066.2467394415144,1695.0182291666667,1082.9934788830287,1752.6770833333333,1091.366848603786L1810.3359375,1099.740218324543" id="edge14" class="transition" marker-end="url(#statediagram-barbEnd)"></path><path d="M2059.53515625,1015L2059.53515625,1020.75C2059.53515625,1026.5,2059.53515625,1038,2046.2781732625483,1049.5C2033.0211902750964,1061,2006.507224300193,1072.5,1993.2502413127413,1078.25L1979.9932583252896,1084" id="edge15" class="transition" marker-end="url(#statediagram-barbEnd)"></path><path d="M1910.25,1144.5L1910.25,1150.25C1910.25,1156,1910.25,1167.5,1910.25,1179C1910.25,1190.5,1910.25,1202,1910.25,1207.75L1910.25,1213.5" id="edge16" class="transition" marker-end="url(#statediagram-barbEnd)"></path><path d="M1798.09375,1258.0861839619367L1732.3600260416667,1266.4884866349473C1666.6263020833333,1274.890789307958,1535.1588541666667,1291.6953946539788,1469.4251302083333,1310.8893639936562C1403.69140625,1330.0833333333333,1403.69140625,1351.6666666666667,1403.69140625,1373.25C1403.69140625,1394.8333333333333,1403.69140625,1416.4166666666667,1403.69140625,1438C1403.69140625,1459.5833333333333,1403.69140625,1481.1666666666667,1403.69140625,1502.75C1403.69140625,1524.3333333333333,1403.69140625,1545.9166666666667,1403.69140625,1567.5C1403.69140625,1589.0833333333333,1403.69140625,1610.6666666666667,1403.69140625,1632.25C1403.69140625,1653.8333333333333,1403.69140625,1675.4166666666667,1434.99609375,1693.5724696298819C1466.30078125,1711.7282725930972,1528.91015625,1726.4565451861945,1560.21484375,1733.8206814827429L1591.51953125,1741.1848177792915" id="edge17" class="transition" marker-end="url(#statediagram-barbEnd)"></path><path d="M1591.51953125,1766.3147859683165L1399.4147135416667,1776.3456549735972C1207.3098958333333,1786.376523978878,823.1002604166666,1806.4382619894388,841.455078125,1824.6123851073853C859.8098958333334,1842.786508225332,1280.7291666666667,1859.0730164506638,1491.1888020833333,1867.2162705633298L1701.6484375,1875.3595246759955" id="edge18" class="transition" marker-end="url(#statediagram-barbEnd)"></path><path d="M832.625,411.50851485148513L790.6666666666666,418.75709570957093C748.7083333333334,426.0056765676568,664.7916666666666,440.5028382838284,622.8333333333334,456.3347524752475C580.875,472.1666666666667,580.875,489.3333333333333,580.875,506.5C580.875,523.6666666666666,580.875,540.8333333333334,580.875,558C580.875,575.1666666666666,580.875,592.3333333333334,580.875,609.5C580.875,626.6666666666666,580.875,643.8333333333334,580.875,663.2083333333334C580.875,682.5833333333334,580.875,704.1666666666666,580.875,725.75C580.875,747.3333333333334,580.875,768.9166666666666,580.875,790.5C580.875,812.0833333333334,580.875,833.6666666666666,580.875,855.25C580.875,876.8333333333334,580.875,898.4166666666666,580.875,920C580.875,941.5833333333334,580.875,963.1666666666666,580.875,984.75C580.875,1006.3333333333334,580.875,1027.9166666666667,580.875,1049.5C580.875,1071.0833333333333,580.875,1092.6666666666667,580.875,1114.25C580.875,1135.8333333333333,580.875,1157.4166666666667,580.875,1179C580.875,1200.5833333333333,580.875,1222.1666666666667,580.875,1243.75C580.875,1265.3333333333333,580.875,1286.9166666666667,580.875,1308.5C580.875,1330.0833333333333,580.875,1351.6666666666667,580.875,1373.25C580.875,1394.8333333333333,580.875,1416.4166666666667,580.875,1438C580.875,1459.5833333333333,580.875,1481.1666666666667,580.875,1502.75C580.875,1524.3333333333333,580.875,1545.9166666666667,580.875,1567.5C580.875,1589.0833333333333,580.875,1610.6666666666667,580.875,1632.25C580.875,1653.8333333333333,580.875,1675.4166666666667,580.875,1697C580.875,1718.5833333333333,580.875,1740.1666666666667,580.875,1761.75C580.875,1783.3333333333333,580.875,1804.9166666666667,767.6705729166666,1823.7990360986635C954.4661458333334,1842.6814055306604,1328.0572916666667,1858.8628110613208,1514.8528645833333,1866.953513826651L1701.6484375,1875.0442165919812" id="edge19" class="transition" marker-end="url(#statediagram-barbEnd)"></path><path d="M2022.40625,1250.787734420545L2175.6940104166665,1260.406445350454C2328.9817708333335,1270.0251562803633,2635.5572916666665,1289.2625781401816,2788.8450520833335,1309.6729557367573C2942.1328125,1330.0833333333333,2942.1328125,1351.6666666666667,2942.1328125,1373.25C2942.1328125,1394.8333333333333,2942.1328125,1416.4166666666667,2942.1328125,1438C2942.1328125,1459.5833333333333,2942.1328125,1481.1666666666667,2942.1328125,1502.75C2942.1328125,1524.3333333333333,2942.1328125,1545.9166666666667,2942.1328125,1567.5C2942.1328125,1589.0833333333333,2942.1328125,1610.6666666666667,2942.1328125,1632.25C2942.1328125,1653.8333333333333,2942.1328125,1675.4166666666667,2942.1328125,1697C2942.1328125,1718.5833333333333,2942.1328125,1740.1666666666667,2942.1328125,1761.75C2942.1328125,1783.3333333333333,2942.1328125,1804.9166666666667,2758.1328125,1823.7919871218128C2574.1328125,1842.6673075769593,2206.1328125,1858.8346151539183,2022.1328125,1866.9182689423978L1838.1328125,1875.0019227308776" id="edge20" class="transition" marker-end="url(#statediagram-barbEnd)"></path><path d="M1910.25,1274L1910.25,1279.75C1910.25,1285.5,1910.25,1297,1910.25,1308.5C1910.25,1320,1910.25,1331.5,1910.25,1337.25L1910.25,1343" id="edge21" class="transition" marker-end="url(#statediagram-barbEnd)"></path><path d="M1807.3984375,1390.906591443396L1761.677734375,1398.7554928694965C1715.95703125,1406.6043942955973,1624.515625,1422.3021971477986,1578.794921875,1440.942765240566C1533.07421875,1459.5833333333333,1533.07421875,1481.1666666666667,1533.07421875,1502.75C1533.07421875,1524.3333333333333,1533.07421875,1545.9166666666667,1533.07421875,1567.5C1533.07421875,1589.0833333333333,1533.07421875,1610.6666666666667,1533.07421875,1632.25C1533.07421875,1653.8333333333333,1533.07421875,1675.4166666666667,1546.0276755550194,1691.9583333333333C1558.9811323600386,1708.5,1584.888045970077,1720,1597.8415027750964,1725.75L1610.7949595801158,1731.5" id="edge22" class="transition" marker-end="url(#statediagram-barbEnd)"></path><path d="M2130.68359375,1516.8055537433784L2052.5520833333335,1525.254628119482C1974.4205729166667,1533.7037024955855,1818.1575520833333,1550.6018512477929,1740.0260416666667,1569.8425922905633C1661.89453125,1589.0833333333333,1661.89453125,1610.6666666666667,1661.89453125,1632.25C1661.89453125,1653.8333333333333,1661.89453125,1675.4166666666667,1663.40834640444,1691.9583333333333C1664.9221615588804,1708.5,1667.9497918677607,1720,1669.4636070222007,1725.75L1670.9774221766409,1731.5" id="edge23" class="transition" marker-end="url(#statediagram-barbEnd)"></path><path d="M2480.6875,1641.6148080620246L2365.6920572916665,1650.8456733850205C2250.6966145833335,1660.0765387080164,2020.7057291666667,1678.538269354008,1895.7844599621942,1693.519134677004C1770.863190757722,1708.5,1751.0115377654438,1720,1741.0857112693047,1725.75L1731.159884773166,1731.5" id="edge24" class="transition" marker-end="url(#statediagram-barbEnd)"></path><path d="M1914.5878529198842,1403.5L1915.4124034749036,1409.25C1916.236954029923,1415,1917.8860551399614,1426.5,1918.7106056949806,1443.0416666666667C1919.53515625,1459.5833333333333,1919.53515625,1481.1666666666667,1919.53515625,1502.75C1919.53515625,1524.3333333333333,1919.53515625,1545.9166666666667,1919.53515625,1567.5C1919.53515625,1589.0833333333333,1919.53515625,1610.6666666666667,1919.53515625,1632.25C1919.53515625,1653.8333333333333,1919.53515625,1675.4166666666667,1894.0065104166667,1693.0787521106638C1868.4778645833333,1710.7408375546609,1817.4205729166667,1724.4816751093215,1791.8919270833333,1731.352093886652L1766.36328125,1738.2225126639823" id="edge25" class="transition" marker-end="url(#statediagram-barbEnd)"></path><path d="M2013.1015625,1392.255267264924L2054.361328125,1399.8793893874365C2095.62109375,1407.5035115099492,2178.140625,1422.7517557549745,2219.400390625,1436.1258778774873C2260.66015625,1449.5,2260.66015625,1461,2260.66015625,1466.75L2260.66015625,1472.5" id="edge26" class="transition" marker-end="url(#statediagram-barbEnd)"></path><path d="M2174.0290178571427,1533L2157.561941964286,1538.75C2141.0948660714284,1544.5,2108.160714285714,1556,2091.6936383928573,1572.5416666666667C2075.2265625,1589.0833333333333,2075.2265625,1610.6666666666667,2075.2265625,1632.25C2075.2265625,1653.8333333333333,2075.2265625,1675.4166666666667,2023.7493489583333,1694.619321038157C1972.2721354166667,1713.8219754096474,1869.3177083333333,1730.643950819295,1817.8404947916667,1739.0549385241186L1766.36328125,1747.4659262289426" id="edge27" class="transition" marker-end="url(#statediagram-barbEnd)"></path><path d="M2390.63671875,1527.7461307762812L2425.0891927083335,1534.3717756469011C2459.5416666666665,1540.997420517521,2528.4466145833335,1554.2487102587604,2562.8990885416665,1566.6243551293803C2597.3515625,1579,2597.3515625,1590.5,2597.3515625,1596.25L2597.3515625,1602" id="edge28" class="transition" marker-end="url(#statediagram-barbEnd)"></path><path d="M2480.6875,1651.7654351511726L2435.6184895833335,1659.3045292926438C2390.5494791666665,1666.8436234341152,2300.4114583333335,1681.9218117170576,2181.357421875,1698.4769827265611C2062.3033854166665,1715.032153736065,1914.3333333333333,1733.0643074721304,1840.3483072916667,1742.080384340163L1766.36328125,1751.0964612081957" id="edge29" class="transition" marker-end="url(#statediagram-barbEnd)"></path><path d="M2714.015625,1646.2263486166921L2784.65234375,1654.6886238472434C2855.2890625,1663.1508990777947,2996.5625,1680.0754495388974,3067.19921875,1699.3293914361154C3137.8359375,1718.5833333333333,3137.8359375,1740.1666666666667,3137.8359375,1761.75C3137.8359375,1783.3333333333333,3137.8359375,1804.9166666666667,3137.8359375,1821.4583333333333C3137.8359375,1838,3137.8359375,1849.5,3137.8359375,1855.25L3137.8359375,1861" id="edge30" class="transition" marker-end="url(#statediagram-barbEnd)"></path><path d="M2539.1509712837837,1662.5L2528.0880489864862,1668.25C2517.025126689189,1674,2494.8992820945946,1685.5,2366.1013337556305,1700.8532191144943C2237.3033854166665,1716.2064382289889,2001.8333333333333,1735.4128764579775,1884.0983072916667,1745.016095572472L1766.36328125,1754.6193146869664" id="edge31" class="transition" marker-end="url(#statediagram-barbEnd)"></path><path d="M2667.819317084942,1662.5L2681.214014237452,1668.25C2694.6087113899616,1674,2721.398105694981,1685.5,2571.155433055824,1701.1593368270821C2420.9127604166665,1716.8186736541638,2093.6380208333335,1736.6373473083277,1930.0006510416667,1746.5466841354098L1766.36328125,1756.4560209624917" id="edge32" class="transition" marker-end="url(#statediagram-barbEnd)"></path><path d="M1766.36328125,1765.9270460710075L1977.6529947916667,1776.0225383925062C2188.9427083333335,1786.118030714005,2611.5221354166665,1806.3090153570026,2623.4837239583335,1824.5245121279168C2635.4453125,1842.7400088988313,2236.7890625,1858.9800177976629,2037.4609375,1867.1000222470784L1838.1328125,1875.2200266964942" id="edge33" class="transition" marker-end="url(#statediagram-barbEnd)"></path><path d="M1769.890625,1895L1769.890625,1899.1666666666667C1769.890625,1903.3333333333333,1769.890625,1911.6666666666667,1786.0648591679521,1920.8227642078575C1802.2390933359047,1929.9788617490485,1834.5875616718095,1939.957723498097,1850.7617958397616,1944.9471543726213L1866.936030007714,1949.9365852471453" id="edge34" class="transition" marker-end="url(#statediagram-barbEnd)"></path><path d="M3137.8359375,1895L3137.8359375,1899.1666666666667C3137.8359375,1903.3333333333333,3137.8359375,1911.6666666666667,2928.3004076825455,1921.137145185664C2718.7648778650914,1930.6076237046611,2299.6938182301833,1941.2152474093225,2090.158288412729,1946.519059261653L1880.6227585952745,1951.8228711139839" id="edge35" class="transition" marker-end="url(#statediagram-barbEnd)"></path></g><g class="edgeLabels"><g class="edgeLabel"><g class="label" transform="translate(0, 0)"><rect rx="0" ry="0" width="0" height="0" style="fill:#e8e8e8;"></rect><text style=""></text></g></g><g class="edgeLabel"><g class="label" transform="translate(0, 0)"><rect rx="0" ry="0" width="0" height="0" style="fill:#e8e8e8;"></rect><text style=""></text></g></g><g class="edgeLabel" transform="translate(473.0703125, 165.5)"><g class="label" transform="translate(-68.6875, -9.5)"><rect rx="0" ry="0" width="137.296875" height="19.03125" style="fill:#e8e8e8;"></rect><text style=""><tspan xml:space="preserve" dy="1em" x="0" class="row">ProviderEventOpen</tspan></text></g></g><g class="edgeLabel" transform="translate(722.859375, 984.75)"><g class="label" transform="translate(-98.203125, -9.5)"><rect rx="0" ry="0" width="196.296875" height="19.03125" style="fill:#e8e8e8;"></rect><text style=""><tspan xml:space="preserve" dy="1em" x="0" class="row">ProviderEventDealRejected</tspan></text></g></g><g class="edgeLabel" transform="translate(860.98828125, 1049.5)"><g class="label" transform="translate(-98.203125, -9.5)"><rect rx="0" ry="0" width="196.296875" height="19.03125" style="fill:#e8e8e8;"></rect><text style=""><tspan xml:space="preserve" dy="1em" x="0" class="row">ProviderEventDealRejected</tspan></text></g></g><g class="edgeLabel" transform="translate(979.19140625, 1243.75)"><g class="label" transform="translate(-98.203125, -9.5)"><rect rx="0" ry="0" width="196.296875" height="19.03125" style="fill:#e8e8e8;"></rect><text style=""><tspan xml:space="preserve" dy="1em" x="0" class="row">ProviderEventDealRejected</tspan></text></g></g><g class="edgeLabel" transform="translate(955.6796875, 325.5)"><g class="label" transform="translate(-96.5703125, -9.5)"><rect rx="0" ry="0" width="193.03125" height="19.03125" style="fill:#e8e8e8;"></rect><text style=""><tspan xml:space="preserve" dy="1em" x="0" class="row">ProviderEventDealDeciding</tspan></text></g></g><g class="edgeLabel" transform="translate(1311.9765625, 455)"><g class="label" transform="translate(-104.03125, -9.5)"><rect rx="0" ry="0" width="207.9375" height="19.03125" style="fill:#e8e8e8;"></rect><text style=""><tspan xml:space="preserve" dy="1em" x="0" class="row">ProviderEventDataRequested</tspan></text></g></g><g class="edgeLabel" transform="translate(1117.63671875, 1179)"><g class="label" transform="translate(-118.4453125, -9.5)"><rect rx="0" ry="0" width="236.75" height="19.03125" style="fill:#e8e8e8;"></rect><text style=""><tspan xml:space="preserve" dy="1em" x="0" class="row">ProviderEventDataTransferFailed</tspan></text></g></g><g class="edgeLabel" transform="translate(1195.97265625, 558)"><g class="label" transform="translate(-127.109375, -9.5)"><rect rx="0" ry="0" width="254.0625" height="19.03125" style="fill:#e8e8e8;"></rect><text style=""><tspan xml:space="preserve" dy="1em" x="0" class="row">ProviderEventDataTransferInitiated</tspan></text></g></g><g class="edgeLabel" transform="translate(1274.30859375, 661)"><g class="label" transform="translate(-135.4765625, -9.5)"><rect rx="0" ry="0" width="270.78125" height="19.03125" style="fill:#e8e8e8;"></rect><text style=""><tspan xml:space="preserve" dy="1em" x="0" class="row">ProviderEventDataTransferCompleted</tspan></text></g></g><g class="edgeLabel" transform="translate(1274.30859375, 1243.75)"><g class="label" transform="translate(-136.671875, -9.5)"><rect rx="0" ry="0" width="273.171875" height="19.03125" style="fill:#e8e8e8;"></rect><text style=""><tspan xml:space="preserve" dy="1em" x="0" class="row">ProviderEventGeneratePieceCIDFailed</tspan></text></g></g><g class="edgeLabel" transform="translate(1541.51171875, 661)"><g class="label" transform="translate(-95.1015625, -9.5)"><rect rx="0" ry="0" width="190.078125" height="19.03125" style="fill:#e8e8e8;"></rect><text style=""><tspan xml:space="preserve" dy="1em" x="0" class="row">ProviderEventVerifiedData</tspan></text></g></g><g class="edgeLabel" transform="translate(1967.80078125, 790.5)"><g class="label" transform="translate(-95.1015625, -9.5)"><rect rx="0" ry="0" width="190.078125" height="19.03125" style="fill:#e8e8e8;"></rect><text style=""><tspan xml:space="preserve" dy="1em" x="0" class="row">ProviderEventVerifiedData</tspan></text></g></g><g class="edgeLabel" transform="translate(2059.53515625, 920)"><g class="label" transform="translate(-108.6953125, -9.5)"><rect rx="0" ry="0" width="217.265625" height="19.03125" style="fill:#e8e8e8;"></rect><text style=""><tspan xml:space="preserve" dy="1em" x="0" class="row">ProviderEventFundingInitiated</tspan></text></g></g><g class="edgeLabel" transform="translate(1464.3828125, 984.75)"><g class="label" transform="translate(-76.3203125, -9.5)"><rect rx="0" ry="0" width="152.546875" height="19.03125" style="fill:#e8e8e8;"></rect><text style=""><tspan xml:space="preserve" dy="1em" x="0" class="row">ProviderEventFunded</tspan></text></g></g><g class="edgeLabel" transform="translate(2059.53515625, 1049.5)"><g class="label" transform="translate(-76.3203125, -9.5)"><rect rx="0" ry="0" width="152.546875" height="19.03125" style="fill:#e8e8e8;"></rect><text style=""><tspan xml:space="preserve" dy="1em" x="0" class="row">ProviderEventFunded</tspan></text></g></g><g class="edgeLabel" transform="translate(1910.25, 1179)"><g class="label" transform="translate(-122, -9.5)"><rect rx="0" ry="0" width="243.859375" height="19.03125" style="fill:#e8e8e8;"></rect><text style=""><tspan xml:space="preserve" dy="1em" x="0" class="row">ProviderEventDealPublishInitiated</tspan></text></g></g><g class="edgeLabel" transform="translate(1403.69140625, 1502.75)"><g class="label" transform="translate(-109.3828125, -9.5)"><rect rx="0" ry="0" width="218.625" height="19.03125" style="fill:#e8e8e8;"></rect><text style=""><tspan xml:space="preserve" dy="1em" x="0" class="row">ProviderEventDealPublishError</tspan></text></g></g><g class="edgeLabel" transform="translate(438.890625, 1826.5)"><g class="label" transform="translate(-121.984375, -9.5)"><rect rx="0" ry="0" width="243.828125" height="19.03125" style="fill:#e8e8e8;"></rect><text style=""><tspan xml:space="preserve" dy="1em" x="0" class="row">ProviderEventSendResponseFailed</tspan></text></g></g><g class="edgeLabel" transform="translate(580.875, 1114.25)"><g class="label" transform="translate(-121.984375, -9.5)"><rect rx="0" ry="0" width="243.828125" height="19.03125" style="fill:#e8e8e8;"></rect><text style=""><tspan xml:space="preserve" dy="1em" x="0" class="row">ProviderEventSendResponseFailed</tspan></text></g></g><g class="edgeLabel" transform="translate(2942.1328125, 1567.5)"><g class="label" transform="translate(-121.984375, -9.5)"><rect rx="0" ry="0" width="243.828125" height="19.03125" style="fill:#e8e8e8;"></rect><text style=""><tspan xml:space="preserve" dy="1em" x="0" class="row">ProviderEventSendResponseFailed</tspan></text></g></g><g class="edgeLabel" transform="translate(1910.25, 1308.5)"><g class="label" transform="translate(-100.296875, -9.5)"><rect rx="0" ry="0" width="200.46875" height="19.03125" style="fill:#e8e8e8;"></rect><text style=""><tspan xml:space="preserve" dy="1em" x="0" class="row">ProviderEventDealPublished</tspan></text></g></g><g class="edgeLabel" transform="translate(1533.07421875, 1567.5)"><g class="label" transform="translate(-108.8203125, -9.5)"><rect rx="0" ry="0" width="217.5" height="19.03125" style="fill:#e8e8e8;"></rect><text style=""><tspan xml:space="preserve" dy="1em" x="0" class="row">ProviderEventFileStoreErrored</tspan></text></g></g><g class="edgeLabel" transform="translate(1661.89453125, 1632.25)"><g class="label" transform="translate(-108.8203125, -9.5)"><rect rx="0" ry="0" width="217.5" height="19.03125" style="fill:#e8e8e8;"></rect><text style=""><tspan xml:space="preserve" dy="1em" x="0" class="row">ProviderEventFileStoreErrored</tspan></text></g></g><g class="edgeLabel" transform="translate(1790.71484375, 1697)"><g class="label" transform="translate(-108.8203125, -9.5)"><rect rx="0" ry="0" width="217.5" height="19.03125" style="fill:#e8e8e8;"></rect><text style=""><tspan xml:space="preserve" dy="1em" x="0" class="row">ProviderEventFileStoreErrored</tspan></text></g></g><g class="edgeLabel" transform="translate(1919.53515625, 1567.5)"><g class="label" transform="translate(-116.2734375, -9.5)"><rect rx="0" ry="0" width="232.40625" height="19.03125" style="fill:#e8e8e8;"></rect><text style=""><tspan xml:space="preserve" dy="1em" x="0" class="row">ProviderEventDealHandoffFailed</tspan></text></g></g><g class="edgeLabel" transform="translate(2260.66015625, 1438)"><g class="label" transform="translate(-104.3671875, -9.5)"><rect rx="0" ry="0" width="208.609375" height="19.03125" style="fill:#e8e8e8;"></rect><text style=""><tspan xml:space="preserve" dy="1em" x="0" class="row">ProviderEventDealHandedOff</tspan></text></g></g><g class="edgeLabel" transform="translate(2075.2265625, 1632.25)"><g class="label" transform="translate(-124.171875, -9.5)"><rect rx="0" ry="0" width="248.1875" height="19.03125" style="fill:#e8e8e8;"></rect><text style=""><tspan xml:space="preserve" dy="1em" x="0" class="row">ProviderEventDealActivationFailed</tspan></text></g></g><g class="edgeLabel" transform="translate(2597.3515625, 1567.5)"><g class="label" transform="translate(-100.1796875, -9.5)"><rect rx="0" ry="0" width="200.25" height="19.03125" style="fill:#e8e8e8;"></rect><text style=""><tspan xml:space="preserve" dy="1em" x="0" class="row">ProviderEventDealActivated</tspan></text></g></g><g class="edgeLabel" transform="translate(2210.2734375, 1697)"><g class="label" transform="translate(-115.046875, -9.5)"><rect rx="0" ry="0" width="229.953125" height="19.03125" style="fill:#e8e8e8;"></rect><text style=""><tspan xml:space="preserve" dy="1em" x="0" class="row">ProviderEventPieceStoreErrored</tspan></text></g></g><g class="edgeLabel" transform="translate(3137.8359375, 1761.75)"><g class="label" transform="translate(-104.828125, -9.5)"><rect rx="0" ry="0" width="209.53125" height="19.03125" style="fill:#e8e8e8;"></rect><text style=""><tspan xml:space="preserve" dy="1em" x="0" class="row">ProviderEventDealCompleted</tspan></text></g></g><g class="edgeLabel" transform="translate(2472.7734375, 1697)"><g class="label" transform="translate(-127.453125, -9.5)"><rect rx="0" ry="0" width="254.75" height="19.03125" style="fill:#e8e8e8;"></rect><text style=""><tspan xml:space="preserve" dy="1em" x="0" class="row">ProviderEventUnableToLocatePiece</tspan></text></g></g><g class="edgeLabel" transform="translate(2748.1875, 1697)"><g class="label" transform="translate(-127.9609375, -9.5)"><rect rx="0" ry="0" width="255.765625" height="19.03125" style="fill:#e8e8e8;"></rect><text style=""><tspan xml:space="preserve" dy="1em" x="0" class="row">ProviderEventReadMetadataErrored</tspan></text></g></g><g class="edgeLabel" transform="translate(3034.1015625, 1826.5)"><g class="label" transform="translate(-71.96875, -9.5)"><rect rx="0" ry="0" width="143.84375" height="19.03125" style="fill:#e8e8e8;"></rect><text style=""><tspan xml:space="preserve" dy="1em" x="0" class="row">ProviderEventFailed</tspan></text></g></g><g class="edgeLabel"><g class="label" transform="translate(0, 0)"><rect rx="0" ry="0" width="0" height="0" style="fill:#e8e8e8;"></rect><text style=""></text></g></g><g class="edgeLabel"><g class="label" transform="translate(0, 0)"><rect rx="0" ry="0" width="0" height="0" style="fill:#e8e8e8;"></rect><text style=""></text></g></g></g><g class="nodes"><g class="node statediagram-state" id="0" transform="translate(333.1796875, 114)"><rect class="outer title-state" x="-82.921875" y="-17" width="165.84375" height="34"></rect><line class="divider" x1="-82.921875" x2="82.921875" y1="9.5" y2="9.5"></line><g class="label" transform="translate(-75.421875, -14)"><text style=""><tspan xml:space="preserve" dy="1em" x="0" class="title-row">StorageDealUnknown</tspan></text><text style="" transform="translate( 0, 26.5)"><tspan xml:space="preserve" dy="1em" x="0" class="title-row"></tspan></text></g></g><g class="node statediagram-state" id="4" transform="translate(1910.25, 1373.25)"><rect class="outer title-state" x="-102.8515625" y="-30.25" width="205.703125" height="60.5"></rect><line class="divider" x1="-102.8515625" x2="102.8515625" y1="-3.75" y2="-3.75"></line><g class="label" transform="translate(-95.3515625, -27.25)"><text style=""><tspan xml:space="preserve" dy="1em" x="0" class="title-row">StorageDealStaged</tspan></text><text style="" transform="translate( 0, 26.5)"><tspan xml:space="preserve" dy="1em" x="0" class="title-row">On entry runs HandoffDeal</tspan></text></g></g><g class="node statediagram-state" id="5" transform="translate(2260.66015625, 1502.75)"><rect class="outer title-state" x="-129.9765625" y="-30.25" width="259.953125" height="60.5"></rect><line class="divider" x1="-129.9765625" x2="129.9765625" y1="-3.75" y2="-3.75"></line><g class="label" transform="translate(-122.4765625, -27.25)"><text style=""><tspan xml:space="preserve" dy="1em" x="0" class="title-row">StorageDealSealing</tspan></text><text style="" transform="translate( 0, 26.5)"><tspan xml:space="preserve" dy="1em" x="0" class="title-row">On entry runs VerifyDealActivated</tspan></text></g></g><g class="node statediagram-state" id="6" transform="translate(2597.3515625, 1632.25)"><rect class="outer title-state" x="-116.6640625" y="-30.25" width="233.328125" height="60.5"></rect><line class="divider" x1="-116.6640625" x2="116.6640625" y1="-3.75" y2="-3.75"></line><g class="label" transform="translate(-109.1640625, -27.25)"><text style=""><tspan xml:space="preserve" dy="1em" x="0" class="title-row">StorageDealActive</tspan></text><text style="" transform="translate( 0, 26.5)"><tspan xml:space="preserve" dy="1em" x="0" class="title-row">On entry runs RecordPieceInfo</tspan></text></g></g><g class="node statediagram-state" id="9" transform="translate(1678.94140625, 1761.75)"><rect class="outer title-state" x="-87.421875" y="-30.25" width="174.84375" height="60.5"></rect><line class="divider" x1="-87.421875" x2="87.421875" y1="-3.75" y2="-3.75"></line><g class="label" transform="translate(-79.921875, -27.25)"><text style=""><tspan xml:space="preserve" dy="1em" x="0" class="title-row">StorageDealFailing</tspan></text><text style="" transform="translate( 0, 26.5)"><tspan xml:space="preserve" dy="1em" x="0" class="title-row">On entry runs FailDeal</tspan></text></g></g><g class="node statediagram-state" id="13" transform="translate(797.625, 233)"><rect class="outer title-state" x="-134.53125" y="-30.25" width="269.0625" height="60.5"></rect><line class="divider" x1="-134.53125" x2="134.53125" y1="-3.75" y2="-3.75"></line><g class="label" transform="translate(-127.03125, -27.25)"><text style=""><tspan xml:space="preserve" dy="1em" x="0" class="title-row">StorageDealValidating</tspan></text><text style="" transform="translate( 0, 26.5)"><tspan xml:space="preserve" dy="1em" x="0" class="title-row">On entry runs ValidateDealProposal</tspan></text></g></g><g class="node statediagram-state" id="14" transform="translate(955.6796875, 390.25)"><rect class="outer title-state" x="-123.0546875" y="-30.25" width="246.109375" height="60.5"></rect><line class="divider" x1="-123.0546875" x2="123.0546875" y1="-3.75" y2="-3.75"></line><g class="label" transform="translate(-115.5546875, -27.25)"><text style=""><tspan xml:space="preserve" dy="1em" x="0" class="title-row">StorageDealAcceptWait</tspan></text><text style="" transform="translate( 0, 26.5)"><tspan xml:space="preserve" dy="1em" x="0" class="title-row">On entry runs DecideOnProposal</tspan></text></g></g><g class="node statediagram-state" id="16" transform="translate(1195.97265625, 609.5)"><rect class="outer title-state" x="-94.109375" y="-17" width="188.21875" height="34"></rect><line class="divider" x1="-94.109375" x2="94.109375" y1="9.5" y2="9.5"></line><g class="label" transform="translate(-86.609375, -14)"><text style=""><tspan xml:space="preserve" dy="1em" x="0" class="title-row">StorageDealTransferring</tspan></text><text style="" transform="translate( 0, 26.5)"><tspan xml:space="preserve" dy="1em" x="0" class="title-row"></tspan></text></g></g><g class="node statediagram-state" id="17" transform="translate(1311.9765625, 506.5)"><rect class="outer title-state" x="-105.5625" y="-17" width="211.125" height="34"></rect><line class="divider" x1="-105.5625" x2="105.5625" y1="9.5" y2="9.5"></line><g class="label" transform="translate(-98.0625, -14)"><text style=""><tspan xml:space="preserve" dy="1em" x="0" class="title-row">StorageDealWaitingForData</tspan></text><text style="" transform="translate( 0, 26.5)"><tspan xml:space="preserve" dy="1em" x="0" class="title-row"></tspan></text></g></g><g class="node statediagram-state" id="18" transform="translate(1274.30859375, 725.75)"><rect class="outer title-state" x="-96.3828125" y="-30.25" width="192.765625" height="60.5"></rect><line class="divider" x1="-96.3828125" x2="96.3828125" y1="-3.75" y2="-3.75"></line><g class="label" transform="translate(-88.8828125, -27.25)"><text style=""><tspan xml:space="preserve" dy="1em" x="0" class="title-row">StorageDealVerifyData</tspan></text><text style="" transform="translate( 0, 26.5)"><tspan xml:space="preserve" dy="1em" x="0" class="title-row">On entry runs VerifyData</tspan></text></g></g><g class="node statediagram-state" id="19" transform="translate(1910.25, 855.25)"><rect class="outer title-state" x="-132.9140625" y="-30.25" width="265.828125" height="60.5"></rect><line class="divider" x1="-132.9140625" x2="132.9140625" y1="-3.75" y2="-3.75"></line><g class="label" transform="translate(-125.4140625, -27.25)"><text style=""><tspan xml:space="preserve" dy="1em" x="0" class="title-row">StorageDealEnsureProviderFunds</tspan></text><text style="" transform="translate( 0, 26.5)"><tspan xml:space="preserve" dy="1em" x="0" class="title-row">On entry runs EnsureProviderFunds</tspan></text></g></g><g class="node statediagram-state" id="21" transform="translate(2059.53515625, 984.75)"><rect class="outer title-state" x="-114.6875" y="-30.25" width="229.375" height="60.5"></rect><line class="divider" x1="-114.6875" x2="114.6875" y1="-3.75" y2="-3.75"></line><g class="label" transform="translate(-107.1875, -27.25)"><text style=""><tspan xml:space="preserve" dy="1em" x="0" class="title-row">StorageDealProviderFunding</tspan></text><text style="" transform="translate( 0, 26.5)"><tspan xml:space="preserve" dy="1em" x="0" class="title-row">On entry runs WaitForFunding</tspan></text></g></g><g class="node statediagram-state" id="23" transform="translate(1910.25, 1114.25)"><rect class="outer title-state" x="-99.9140625" y="-30.25" width="199.828125" height="60.5"></rect><line class="divider" x1="-99.9140625" x2="99.9140625" y1="-3.75" y2="-3.75"></line><g class="label" transform="translate(-92.4140625, -27.25)"><text style=""><tspan xml:space="preserve" dy="1em" x="0" class="title-row">StorageDealPublish</tspan></text><text style="" transform="translate( 0, 26.5)"><tspan xml:space="preserve" dy="1em" x="0" class="title-row">On entry runs PublishDeal</tspan></text></g></g><g class="node statediagram-state" id="24" transform="translate(1910.25, 1243.75)"><rect class="outer title-state" x="-112.15625" y="-30.25" width="224.3125" height="60.5"></rect><line class="divider" x1="-112.15625" x2="112.15625" y1="-3.75" y2="-3.75"></line><g class="label" transform="translate(-104.65625, -27.25)"><text style=""><tspan xml:space="preserve" dy="1em" x="0" class="title-row">StorageDealPublishing</tspan></text><text style="" transform="translate( 0, 26.5)"><tspan xml:space="preserve" dy="1em" x="0" class="title-row">On entry runs WaitForPublish</tspan></text></g></g><g class="node statediagram-state" id="25" transform="translate(1769.890625, 1878)"><rect class="outer title-state" x="-68.2421875" y="-17" width="136.484375" height="34"></rect><line class="divider" x1="-68.2421875" x2="68.2421875" y1="9.5" y2="9.5"></line><g class="label" transform="translate(-60.7421875, -14)"><text style=""><tspan xml:space="preserve" dy="1em" x="0" class="title-row">StorageDealError</tspan></text><text style="" transform="translate( 0, 26.5)"><tspan xml:space="preserve" dy="1em" x="0" class="title-row"></tspan></text></g></g><g class="node statediagram-state" id="26" transform="translate(3137.8359375, 1878)"><rect class="outer title-state" x="-89.2265625" y="-17" width="178.453125" height="34"></rect><line class="divider" x1="-89.2265625" x2="89.2265625" y1="9.5" y2="9.5"></line><g class="label" transform="translate(-81.7265625, -14)"><text style=""><tspan xml:space="preserve" dy="1em" x="0" class="title-row">StorageDealCompleted</tspan></text><text style="" transform="translate( 0, 26.5)"><tspan xml:space="preserve" dy="1em" x="0" class="title-row"></tspan></text></g></g><g class="node default" id="root_start" transform="translate(333.1796875, 15)"><circle class="state-start" r="7" width="14" height="14"></circle></g><g class="node statediagram-note" id="0----note" transform="translate(318.046875, 233)"><rect x="-275.046875" y="-33" width="550.09375" height="66"></rect><g class="label" transform="translate(-267.546875, -25.5)"><text style=""><tspan xml:space="preserve" dy="1em" x="0" class="row">The following events are not shown cause they can trigger from any state.</tspan><tspan xml:space="preserve" dy="1em" x="0" class="row"></tspan><tspan xml:space="preserve" dy="1em" x="0" class="row">ProviderEventNodeErrored - transitions state to StorageDealFailing</tspan><tspan xml:space="preserve" dy="1em" x="0" class="row">ProviderEventRestart - does not transition state</tspan></text></g></g><g class="node default" id="root_end" transform="translate(1873.625, 1952)"><circle class="state-start" r="7" width="14" height="14"></circle><circle class="state-end" r="5" width="10" height="10"></circle></g></g></g></g></svg>