<svg id="mermaid-1605756374953" width="4649.0078125" xmlns="http://www.w3.org/2000/svg" class="statediagram" height="1597" viewBox="0 0 4649.0078125 1597"><style>#mermaid-1605756374953 .label{font-family:'trebuchet ms', verdana, arial;font-family:var(--mermaid-font-family);color:#333}#mermaid-1605756374953 .label text{fill:#333}#mermaid-1605756374953 .node rect,#mermaid-1605756374953 .node circle,#mermaid-1605756374953 .node ellipse,#mermaid-1605756374953 .node polygon,#mermaid-1605756374953 .node path{fill:#ECECFF;stroke:#9370db;stroke-width:1px}#mermaid-1605756374953 .node .label{text-align:center}#mermaid-1605756374953 .node.clickable{cursor:pointer}#mermaid-1605756374953 .arrowheadPath{fill:#333}#mermaid-1605756374953 .edgePath .path{stroke:#333;stroke-width:1.5px}#mermaid-1605756374953 .edgeLabel{background-color:#e8e8e8;text-align:center}#mermaid-1605756374953 .edgeLabel rect{opacity:0.5}#mermaid-1605756374953 .cluster rect{fill:#ffffde;stroke:#aa3;stroke-width:1px}#mermaid-1605756374953 .cluster text{fill:#333}#mermaid-1605756374953 div.mermaidTooltip{position:absolute;text-align:center;max-width:200px;padding:2px;font-family:'trebuchet ms', verdana, arial;font-family:var(--mermaid-font-family);font-size:12px;background:#ffffde;border:1px solid #aa3;border-radius:2px;pointer-events:none;z-index:100}#mermaid-1605756374953 .actor{stroke:#ccf;fill:#ECECFF}#mermaid-1605756374953 text.actor{fill:#000;stroke:none}#mermaid-1605756374953 .actor-line{stroke:grey}#mermaid-1605756374953 .messageLine0{stroke-width:1.5;stroke-dasharray:'2 2';stroke:#333}#mermaid-1605756374953 .messageLine1{stroke-width:1.5;stroke-dasharray:'2 2';stroke:#333}#mermaid-1605756374953 #arrowhead{fill:#333}#mermaid-1605756374953 .sequenceNumber{fill:#fff}#mermaid-1605756374953 #sequencenumber{fill:#333}#mermaid-1605756374953 #crosshead path{fill:#333 !important;stroke:#333 !important}#mermaid-1605756374953 .messageText{fill:#333;stroke:none}#mermaid-1605756374953 .labelBox{stroke:#ccf;fill:#ECECFF}#mermaid-1605756374953 .labelText{fill:#000;stroke:none}#mermaid-1605756374953 .loopText{fill:#000;stroke:none}#mermaid-1605756374953 .loopLine{stroke-width:2;stroke-dasharray:'2 2';stroke:#ccf}#mermaid-1605756374953 .note{stroke:#aa3;fill:#fff5ad}#mermaid-1605756374953 .noteText{fill:black;stroke:none;font-family:'trebuchet ms', verdana, arial;font-family:var(--mermaid-font-family);font-size:14px}#mermaid-1605756374953 .activation0{fill:#f4f4f4;stroke:#666}#mermaid-1605756374953 .activation1{fill:#f4f4f4;stroke:#666}#mermaid-1605756374953 .activation2{fill:#f4f4f4;stroke:#666}#mermaid-1605756374953 .mermaid-main-font{font-family:"trebuchet ms", verdana, arial;font-family:var(--mermaid-font-family)}#mermaid-1605756374953 .section{stroke:none;opacity:0.2}#mermaid-1605756374953 .section0{fill:rgba(102,102,255,0.49)}#mermaid-1605756374953 .section2{fill:#fff400}#mermaid-1605756374953 .section1,#mermaid-1605756374953 .section3{fill:#fff;opacity:0.2}#mermaid-1605756374953 .sectionTitle0{fill:#333}#mermaid-1605756374953 .sectionTitle1{fill:#333}#mermaid-1605756374953 .sectionTitle2{fill:#333}#mermaid-1605756374953 .sectionTitle3{fill:#333}#mermaid-1605756374953 .sectionTitle{text-anchor:start;font-size:11px;text-height:14px;font-family:'trebuchet ms', verdana, arial;font-family:var(--mermaid-font-family)}#mermaid-1605756374953 .grid .tick{stroke:#d3d3d3;opacity:0.8;shape-rendering:crispEdges}#mermaid-1605756374953 .grid .tick text{font-family:'trebuchet ms', verdana, arial;font-family:var(--mermaid-font-family)}#mermaid-1605756374953 .grid path{stroke-width:0}#mermaid-1605756374953 .today{fill:none;stroke:red;stroke-width:2px}#mermaid-1605756374953 .task{stroke-width:2}#mermaid-1605756374953 .taskText{text-anchor:middle;font-family:'trebuchet ms', verdana, arial;font-family:var(--mermaid-font-family)}#mermaid-1605756374953 .taskText:not([font-size]){font-size:11px}#mermaid-1605756374953 .taskTextOutsideRight{fill:#000;text-anchor:start;font-size:11px;font-family:'trebuchet ms', verdana, arial;font-family:var(--mermaid-font-family)}#mermaid-1605756374953 .taskTextOutsideLeft{fill:#000;text-anchor:end;font-size:11px}#mermaid-1605756374953 .task.clickable{cursor:pointer}#mermaid-1605756374953 .taskText.clickable{cursor:pointer;fill:#003163 !important;font-weight:bold}#mermaid-1605756374953 .taskTextOutsideLeft.clickable{cursor:pointer;fill:#003163 !important;font-weight:bold}#mermaid-1605756374953 .taskTextOutsideRight.clickable{cursor:pointer;fill:#003163 !important;font-weight:bold}#mermaid-1605756374953 .taskText0,#mermaid-1605756374953 .taskText1,#mermaid-1605756374953 .taskText2,#mermaid-1605756374953 .taskText3{fill:#fff}#mermaid-1605756374953 .task0,#mermaid-1605756374953 .task1,#mermaid-1605756374953 .task2,#mermaid-1605756374953 .task3{fill:#8a90dd;stroke:#534fbc}#mermaid-1605756374953 .taskTextOutside0,#mermaid-1605756374953 .taskTextOutside2{fill:#000}#mermaid-1605756374953 .taskTextOutside1,#mermaid-1605756374953 .taskTextOutside3{fill:#000}#mermaid-1605756374953 .active0,#mermaid-1605756374953 .active1,#mermaid-1605756374953 .active2,#mermaid-1605756374953 .active3{fill:#bfc7ff;stroke:#534fbc}#mermaid-1605756374953 .activeText0,#mermaid-1605756374953 .activeText1,#mermaid-1605756374953 .activeText2,#mermaid-1605756374953 .activeText3{fill:#000 !important}#mermaid-1605756374953 .done0,#mermaid-1605756374953 .done1,#mermaid-1605756374953 .done2,#mermaid-1605756374953 .done3{stroke:grey;fill:#d3d3d3;stroke-width:2}#mermaid-1605756374953 .doneText0,#mermaid-1605756374953 .doneText1,#mermaid-1605756374953 .doneText2,#mermaid-1605756374953 .doneText3{fill:#000 !important}#mermaid-1605756374953 .crit0,#mermaid-1605756374953 .crit1,#mermaid-1605756374953 .crit2,#mermaid-1605756374953 .crit3{stroke:#f88;fill:red;stroke-width:2}#mermaid-1605756374953 .activeCrit0,#mermaid-1605756374953 .activeCrit1,#mermaid-1605756374953 .activeCrit2,#mermaid-1605756374953 .activeCrit3{stroke:#f88;fill:#bfc7ff;stroke-width:2}#mermaid-1605756374953 .doneCrit0,#mermaid-1605756374953 .doneCrit1,#mermaid-1605756374953 .doneCrit2,#mermaid-1605756374953 .doneCrit3{stroke:#f88;fill:#d3d3d3;stroke-width:2;cursor:pointer;shape-rendering:crispEdges}#mermaid-1605756374953 .milestone{transform:rotate(45deg) scale(0.8, 0.8)}#mermaid-1605756374953 .milestoneText{font-style:italic}#mermaid-1605756374953 .doneCritText0,#mermaid-1605756374953 .doneCritText1,#mermaid-1605756374953 .doneCritText2,#mermaid-1605756374953 .doneCritText3{fill:#000 !important}#mermaid-1605756374953 .activeCritText0,#mermaid-1605756374953 .activeCritText1,#mermaid-1605756374953 .activeCritText2,#mermaid-1605756374953 .activeCritText3{fill:#000 !important}#mermaid-1605756374953 .titleText{text-anchor:middle;font-size:18px;fill:#000;font-family:'trebuchet ms', verdana, arial;font-family:var(--mermaid-font-family)}#mermaid-1605756374953 g.classGroup text{fill:#9370db;stroke:none;font-family:'trebuchet ms', verdana, arial;font-family:var(--mermaid-font-family);font-size:10px}#mermaid-1605756374953 g.classGroup text .title{font-weight:bolder}#mermaid-1605756374953 g.clickable{cursor:pointer}#mermaid-1605756374953 g.classGroup rect{fill:#ECECFF;stroke:#9370db}#mermaid-1605756374953 g.classGroup line{stroke:#9370db;stroke-width:1}#mermaid-1605756374953 .classLabel .box{stroke:none;stroke-width:0;fill:#ECECFF;opacity:0.5}#mermaid-1605756374953 .classLabel .label{fill:#9370db;font-size:10px}#mermaid-1605756374953 .relation{stroke:#9370db;stroke-width:1;fill:none}#mermaid-1605756374953 .dashed-line{stroke-dasharray:3}#mermaid-1605756374953 #compositionStart{fill:#9370db;stroke:#9370db;stroke-width:1}#mermaid-1605756374953 #compositionEnd{fill:#9370db;stroke:#9370db;stroke-width:1}#mermaid-1605756374953 #aggregationStart{fill:#ECECFF;stroke:#9370db;stroke-width:1}#mermaid-1605756374953 #aggregationEnd{fill:#ECECFF;stroke:#9370db;stroke-width:1}#mermaid-1605756374953 #dependencyStart{fill:#9370db;stroke:#9370db;stroke-width:1}#mermaid-1605756374953 #dependencyEnd{fill:#9370db;stroke:#9370db;stroke-width:1}#mermaid-1605756374953 #extensionStart{fill:#9370db;stroke:#9370db;stroke-width:1}#mermaid-1605756374953 #extensionEnd{fill:#9370db;stroke:#9370db;stroke-width:1}#mermaid-1605756374953 .commit-id,#mermaid-1605756374953 .commit-msg,#mermaid-1605756374953 .branch-label{fill:lightgrey;color:lightgrey;font-family:'trebuchet ms', verdana, arial;font-family:var(--mermaid-font-family)}#mermaid-1605756374953 .pieTitleText{text-anchor:middle;font-size:25px;fill:#000;font-family:'trebuchet ms', verdana, arial;font-family:var(--mermaid-font-family)}#mermaid-1605756374953 .slice{font-family:'trebuchet ms', verdana, arial;font-family:var(--mermaid-font-family)}#mermaid-1605756374953 g.stateGroup text{fill:#9370db;stroke:none;font-size:10px;font-family:'trebuchet ms', verdana, arial;font-family:var(--mermaid-font-family)}#mermaid-1605756374953 g.stateGroup text{fill:#9370db;stroke:none;font-size:10px}#mermaid-1605756374953 g.stateGroup .state-title{font-weight:bolder;fill:#000}#mermaid-1605756374953 g.stateGroup rect{fill:#ECECFF;stroke:#9370db}#mermaid-1605756374953 g.stateGroup line{stroke:#9370db;stroke-width:1}#mermaid-1605756374953 .transition{stroke:#9370db;stroke-width:1;fill:none}#mermaid-1605756374953 .stateGroup .composit{fill:white;border-bottom:1px}#mermaid-1605756374953 .stateGroup .alt-composit{fill:#e0e0e0;border-bottom:1px}#mermaid-1605756374953 .state-note{stroke:#aa3;fill:#fff5ad}#mermaid-1605756374953 .state-note text{fill:black;stroke:none;font-size:10px}#mermaid-1605756374953 .stateLabel .box{stroke:none;stroke-width:0;fill:#ECECFF;opacity:0.5}#mermaid-1605756374953 .stateLabel text{fill:#000;font-size:10px;font-weight:bold;font-family:'trebuchet ms', verdana, arial;font-family:var(--mermaid-font-family)}#mermaid-1605756374953 .node circle.state-start{fill:black;stroke:black}#mermaid-1605756374953 .node circle.state-end{fill:black;stroke:white;stroke-width:1.5}#mermaid-1605756374953 #statediagram-barbEnd{fill:#9370db}#mermaid-1605756374953 .statediagram-cluster rect{fill:#ECECFF;stroke:#9370db;stroke-width:1px}#mermaid-1605756374953 .statediagram-cluster rect.outer{rx:5px;ry:5px}#mermaid-1605756374953 .statediagram-state .divider{stroke:#9370db}#mermaid-1605756374953 .statediagram-state .title-state{rx:5px;ry:5px}#mermaid-1605756374953 .statediagram-cluster.statediagram-cluster .inner{fill:white}#mermaid-1605756374953 .statediagram-cluster.statediagram-cluster-alt .inner{fill:#e0e0e0}#mermaid-1605756374953 .statediagram-cluster .inner{rx:0;ry:0}#mermaid-1605756374953 .statediagram-state rect.basic{rx:5px;ry:5px}#mermaid-1605756374953 .statediagram-state rect.divider{stroke-dasharray:10,10;fill:#efefef}#mermaid-1605756374953 .note-edge{stroke-dasharray:5}#mermaid-1605756374953 .statediagram-note rect{fill:#fff5ad;stroke:#aa3;stroke-width:1px;rx:0;ry:0}:root{--mermaid-font-family: '"trebuchet ms", verdana, arial';--mermaid-font-family: "Comic Sans MS", "Comic Sans", cursive}

:root { --mermaid-font-family: "trebuchet ms", verdana, arial;}</style><style>#mermaid-1605756374953 {
    color: rgb(0, 0, 0);
    font: 16px "trebuchet ms", verdana, arial;
  }</style><g><defs><marker id="statediagram-barbEnd" refX="19" refY="7" markerWidth="20" markerHeight="14" markerUnits="0" orient="auto"><path d="M 19,7 L9,13 L14,7 L9,1 Z"></path></marker></defs><g class="root"><g class="clusters"><g class="note-cluster" id="0----parent"><rect x="402.7265625" y="72" width="620.09375" height="235" fill="none"></rect></g><g class="note-cluster" id="3----parent"><rect x="213.6484375" y="923" width="694.47265625" height="240" fill="none"></rect></g><g class="note-cluster" id="11----parent"><rect x="2268.71484375" y="923" width="2125.37109375" height="240" fill="none"></rect></g><g class="note-cluster" id="17----parent"><rect x="729.62109375" y="635" width="1630.42578125" height="219" fill="none"></rect></g><g class="note-cluster" id="21----parent"><rect x="2243.9921875" y="72" width="2024.13671875" height="235" fill="none"></rect></g></g><g class="edgePaths"><path d="M672.76171875,22L672.76171875,26.166666666666668C672.76171875,30.333333333333332,672.76171875,38.666666666666664,672.76171875,47C672.76171875,55.333333333333336,672.76171875,63.666666666666664,672.76171875,73.33333333333333C672.76171875,83,672.76171875,94,672.76171875,99.5L672.76171875,105" id="edge0" class="transition" marker-end="url(#statediagram-barbEnd)"></path><path d="M684.1936383928571,139L688.9569382440476,146.08333333333334C693.7202380952381,153.16666666666666,703.2468377976189,167.33333333333334,708.0101376488095,180.16666666666666C712.7734375,193,712.7734375,204.5,712.7734375,210.25L712.7734375,216" class="transition note-edge"></path><path d="M639.9012276785714,139L626.2093563988095,146.08333333333334C612.5174851190476,153.16666666666666,585.1337425595239,167.33333333333334,903.4959077380953,184.98491629783936C1221.8580729166667,202.63649926234538,1885.9661458333333,223.7729985246907,2218.0201822916665,234.34124815586338L2550.07421875,244.90949778703606" id="edge1" class="transition" marker-end="url(#statediagram-barbEnd)"></path><path d="M2807.12109375,253.74941762070682L3047.2890625,262.62451468392237C3287.45703125,271.49961174713786,3767.79296875,289.24980587356896,4007.9609375,303.8749029367845C4248.12890625,318.5,4248.12890625,330,4248.12890625,341.5C4248.12890625,353,4248.12890625,364.5,4248.12890625,370.25L4248.12890625,376" id="edge2" class="transition" marker-end="url(#statediagram-barbEnd)"></path><path d="M2581.2773269127156,279.25L2566.397772427263,283.875C2551.5182179418102,288.5,2521.7591089709053,297.75,2506.8795544854524,308.125C2492,318.5,2492,330,2492,346.5416666666667C2492,363.0833333333333,2492,384.6666666666667,2492,406.25C2492,427.8333333333333,2492,449.4166666666667,2492,471C2492,492.5833333333333,2492,514.1666666666666,2492,535.75C2492,557.3333333333334,2492,578.9166666666666,2492,595.4583333333334C2492,612,2492,623.5,2492,638.9166666666666C2492,654.3333333333334,2492,673.6666666666666,2492,694.5833333333334C2492,715.5,2492,738,2492,757.8333333333334C2492,777.6666666666666,2492,794.8333333333334,2492,810.4166666666666C2492,826,2492,840,2492,852.75C2492,865.5,2492,877,2664.9505208333335,888.5C2837.9010416666665,900,3183.8020833333335,911.5,3356.7526041666665,926.4583333333334C3529.703125,941.4166666666666,3529.703125,959.8333333333334,3529.703125,979.8333333333334C3529.703125,999.8333333333334,3529.703125,1021.4166666666666,3511.3802083333335,1038.2197470509066C3493.0572916666665,1055.0228274351464,3456.4114583333335,1067.0456548702925,3438.0885416666665,1073.0570685878658L3419.765625,1079.068482305439" id="edge3" class="transition" marker-end="url(#statediagram-barbEnd)"></path><path d="M4294.204678450772,436.5L4302.9628830839765,442.25C4311.721087717181,448,4329.237496983591,459.5,4337.9957016167955,476.0416666666667C4346.75390625,492.5833333333333,4346.75390625,514.1666666666666,4346.75390625,535.75C4346.75390625,557.3333333333334,4346.75390625,578.9166666666666,4346.75390625,595.4583333333334C4346.75390625,612,4346.75390625,623.5,4346.75390625,638.9166666666666C4346.75390625,654.3333333333334,4346.75390625,673.6666666666666,4346.75390625,694.5833333333334C4346.75390625,715.5,4346.75390625,738,4346.75390625,757.8333333333334C4346.75390625,777.6666666666666,4346.75390625,794.8333333333334,4346.75390625,810.4166666666666C4346.75390625,826,4346.75390625,840,4346.75390625,852.75C4346.75390625,865.5,4346.75390625,877,4342.774088541667,888.5C4338.794270833333,900,4330.834635416667,911.5,4326.854817708333,926.4583333333334C4322.875,941.4166666666666,4322.875,959.8333333333334,4322.875,979.8333333333334C4322.875,999.8333333333334,4322.875,1021.4166666666666,4172.356770833333,1042.0475537905795C4021.8385416666665,1062.6784409144923,3720.8020833333335,1082.3568818289848,3570.2838541666665,1092.196102286231L3419.765625,1102.0353227434773" id="edge4" class="transition" marker-end="url(#statediagram-barbEnd)"></path><path d="M2550.07421875,273.00427678335575L2519.7376302083335,278.6702306527964C2489.4010416666665,284.33618452223715,2428.7278645833335,295.6680922611186,2398.3912760416665,307.0840461305593C2368.0546875,318.5,2368.0546875,330,2368.0546875,346.5416666666667C2368.0546875,363.0833333333333,2368.0546875,384.6666666666667,2368.0546875,406.25C2368.0546875,427.8333333333333,2368.0546875,449.4166666666667,2615.6790364583335,470.29753752358664C2863.3033854166665,491.17840838050665,3358.5520833333335,511.3568167610133,3606.1764322916665,521.4460209512666L3853.80078125,531.53522514152" id="edge5" class="transition" marker-end="url(#statediagram-barbEnd)"></path><path d="M4133.44140625,431.77923481857493L4104.075520833333,438.31602901547916C4074.7096354166665,444.85282321238327,4015.9778645833335,457.9264116061916,3986.6119791666665,470.21320580309583C3957.24609375,482.5,3957.24609375,494,3957.24609375,499.75L3957.24609375,505.5" id="edge6" class="transition" marker-end="url(#statediagram-barbEnd)"></path><path d="M4060.69140625,562.0884099043055L4085.8352864583335,568.4903415869213C4110.979166666667,574.892273269537,4161.266927083333,587.6961366347685,4186.410807291667,599.8480683173842C4211.5546875,612,4211.5546875,623.5,4211.5546875,638.9166666666666C4211.5546875,654.3333333333334,4211.5546875,673.6666666666666,4211.5546875,694.5833333333334C4211.5546875,715.5,4211.5546875,738,4211.5546875,757.8333333333334C4211.5546875,777.6666666666666,4211.5546875,794.8333333333334,4211.5546875,810.4166666666666C4211.5546875,826,4211.5546875,840,4211.5546875,852.75C4211.5546875,865.5,4211.5546875,877,4264.220052083333,888.5C4316.885416666667,900,4422.216145833333,911.5,4474.881510416667,926.4583333333334C4527.546875,941.4166666666666,4527.546875,959.8333333333334,4527.546875,979.8333333333334C4527.546875,999.8333333333334,4527.546875,1021.4166666666666,4527.546875,1043C4527.546875,1064.5833333333333,4527.546875,1086.1666666666667,4527.546875,1106.1666666666667C4527.546875,1126.1666666666667,4527.546875,1144.5833333333333,4527.546875,1159.5416666666667C4527.546875,1174.5,4527.546875,1186,4527.546875,1202.5416666666667C4527.546875,1219.0833333333333,4527.546875,1240.6666666666667,4527.546875,1262.25C4527.546875,1283.8333333333333,4527.546875,1305.4166666666667,4527.546875,1327C4527.546875,1348.5833333333333,4527.546875,1370.1666666666667,4527.546875,1391.75C4527.546875,1413.3333333333333,4527.546875,1434.9166666666667,3920.7708333333335,1454.1337369059631C3313.9947916666665,1473.3508071452595,2100.4427083333335,1490.2016142905188,1493.6666666666667,1498.6270178631487L886.890625,1507.0524214357783" id="edge7" class="transition" marker-end="url(#statediagram-barbEnd)"></path><path d="M4004.241629464286,566L4013.174665178571,571.75C4022.1077008928573,577.5,4039.973772321429,589,4048.906808035714,600.5C4057.83984375,612,4057.83984375,623.5,4057.83984375,638.9166666666666C4057.83984375,654.3333333333334,4057.83984375,673.6666666666666,4057.83984375,694.5833333333334C4057.83984375,715.5,4057.83984375,738,4057.83984375,757.8333333333334C4057.83984375,777.6666666666666,4057.83984375,794.8333333333334,4057.83984375,810.4166666666666C4057.83984375,826,4057.83984375,840,4057.83984375,852.75C4057.83984375,865.5,4057.83984375,877,4057.83984375,888.5C4057.83984375,900,4057.83984375,911.5,4057.83984375,926.4583333333334C4057.83984375,941.4166666666666,4057.83984375,959.8333333333334,4057.83984375,979.8333333333334C4057.83984375,999.8333333333334,4057.83984375,1021.4166666666666,3951.494140625,1041.6996101805337C3845.1484375,1061.9825536944008,3632.45703125,1080.965107388802,3526.111328125,1090.4563842360024L3419.765625,1099.9476610832028" id="edge8" class="transition" marker-end="url(#statediagram-barbEnd)"></path><path d="M3877.0624245897684,566L3861.820900699807,571.75C3846.579376809846,577.5,3816.096329029923,589,3800.854805139961,600.5C3785.61328125,612,3785.61328125,623.5,3785.61328125,638.9166666666666C3785.61328125,654.3333333333334,3785.61328125,673.6666666666666,3785.61328125,694.5833333333334C3785.61328125,715.5,3785.61328125,738,3785.61328125,757.8333333333334C3785.61328125,777.6666666666666,3785.61328125,794.8333333333334,3785.61328125,810.4166666666666C3785.61328125,826,3785.61328125,840,3785.61328125,852.75C3785.61328125,865.5,3785.61328125,877,3785.61328125,888.5C3785.61328125,900,3785.61328125,911.5,3785.61328125,926.4583333333334C3785.61328125,941.4166666666666,3785.61328125,959.8333333333334,3785.61328125,979.8333333333334C3785.61328125,999.8333333333334,3785.61328125,1021.4166666666666,3724.638671875,1040.9186164757793C3663.6640625,1060.420566284892,3541.71484375,1077.8411325697837,3480.740234375,1086.5514157122298L3419.765625,1095.2616988546756" id="edge9" class="transition" marker-end="url(#statediagram-barbEnd)"></path><path d="M3853.80078125,542.5242145123121L3706.248046875,552.1868454269268C3558.6953125,561.8494763415414,3263.58984375,581.1747381707706,3116.037109375,596.5873690853854C2968.484375,612,2968.484375,623.5,2968.484375,633.875C2968.484375,644.25,2968.484375,653.5,2968.484375,658.125L2968.484375,662.75" id="edge10" class="transition" marker-end="url(#statediagram-barbEnd)"></path><path d="M3853.80078125,540.8203298490471L3650.869140625,550.7669415408726C3447.9375,560.713553232698,3042.07421875,580.6067766163491,2839.142578125,596.3033883081745C2636.2109375,612,2636.2109375,623.5,2636.2109375,638.9166666666666C2636.2109375,654.3333333333334,2636.2109375,673.6666666666666,2636.2109375,694.5833333333334C2636.2109375,715.5,2636.2109375,738,2636.2109375,757.8333333333334C2636.2109375,777.6666666666666,2636.2109375,794.8333333333334,2636.2109375,810.4166666666666C2636.2109375,826,2636.2109375,840,2636.2109375,852.75C2636.2109375,865.5,2636.2109375,877,2797.9205729166665,888.5C2959.6302083333335,900,3283.0494791666665,911.5,3444.7591145833335,926.4583333333334C3606.46875,941.4166666666666,3606.46875,959.8333333333334,3606.46875,979.8333333333334C3606.46875,999.8333333333334,3606.46875,1021.4166666666666,3575.3515625,1039.5584031577748C3544.234375,1057.700139648883,3482,1072.4002792977656,3450.8828125,1079.7503491222071L3419.765625,1087.1004189466485" id="edge11" class="transition" marker-end="url(#statediagram-barbEnd)"></path><path d="M3099.578125,706.448386407352L3187.3932291666665,715.4569886727933C3275.2083333333335,724.4655909382346,3450.8385416666665,742.4827954691173,3538.6536458333335,760.074731067892C3626.46875,777.6666666666666,3626.46875,794.8333333333334,3626.46875,810.4166666666666C3626.46875,826,3626.46875,840,3626.46875,852.75C3626.46875,865.5,3626.46875,877,3626.46875,888.5C3626.46875,900,3626.46875,911.5,3626.46875,926.4583333333334C3626.46875,941.4166666666666,3626.46875,959.8333333333334,3626.46875,979.8333333333334C3626.46875,999.8333333333334,3626.46875,1021.4166666666666,3592.0182291666665,1039.7924258924777C3557.5677083333335,1058.1681851182886,3488.6666666666665,1073.3363702365775,3454.2161458333335,1080.9204627957217L3419.765625,1088.5045553548662" id="edge12" class="transition" marker-end="url(#statediagram-barbEnd)"></path><path d="M1530.640625,817.5379058210556L1633.9114583333333,823.6149215175463C1737.1822916666667,829.691937214037,1943.7239583333333,841.8459686070186,2046.9947916666667,853.6729843035092C2150.265625,865.5,2150.265625,877,2356.693359375,888.5C2563.12109375,900,2975.9765625,911.5,3182.404296875,926.4583333333334C3388.83203125,941.4166666666666,3388.83203125,959.8333333333334,3388.83203125,979.8333333333334C3388.83203125,999.8333333333334,3388.83203125,1021.4166666666666,3383.8156973938226,1037.9583333333333C3378.7993635376447,1054.5,3368.76669582529,1066,3363.7503619691124,1071.75L3358.7340281129345,1077.5" id="edge13" class="transition" marker-end="url(#statediagram-barbEnd)"></path><path d="M1237.03515625,984.681064624137L1434.9322916666667,994.4008871867809C1632.8294270833333,1004.1207097494247,2028.6236979166667,1023.5603548747123,2363.271484375,1043.0327418405361C2697.9192708333335,1062.5051288063596,2971.4205729166665,1082.010257612719,3108.1712239583335,1091.7628220158988L3244.921875,1101.5153864190786" id="edge14" class="transition" marker-end="url(#statediagram-barbEnd)"></path><path d="M2837.390625,704.8475554904709L2734.7578125,714.1229629087256C2632.125,723.3983703269805,2426.859375,741.9491851634903,2209.0677083333335,758.7789987463287C1991.2760416666667,775.608812329167,1760.9583333333333,790.717624658334,1645.7994791666667,798.2720308229176L1530.640625,805.826436987501" id="edge15" class="transition" marker-end="url(#statediagram-barbEnd)"></path><path d="M2837.390625,701.0497633363183L2676.0286458333335,710.9581361135985C2514.6666666666665,720.8665088908789,2191.9427083333335,740.6832544454395,1974.1510416666667,757.3080886556245C1756.359375,773.9329228658097,1643.5,787.3658457316193,1587.0703125,794.0823071645241L1530.640625,800.7987685974289" id="edge16" class="transition" marker-end="url(#statediagram-barbEnd)"></path><path d="M1048.6046910350678,948L1040.68554982089,943.8333333333334C1032.7664086067118,939.6666666666666,1016.9281261783559,931.3333333333334,1009.008984964178,921.4166666666666C1001.08984375,911.5,1001.08984375,900,1001.08984375,888.5C1001.08984375,877,1001.08984375,865.5,1057.978515625,854.2628685870121C1114.8671875,843.0257371740241,1228.64453125,832.0514743480484,1285.533203125,826.5643429350604L1342.421875,821.0772115220726" id="edge17" class="transition" marker-end="url(#statediagram-barbEnd)"></path><path d="M2936.585329861111,723.25L2930.038556134259,729.4583333333334C2923.4917824074073,735.6666666666666,2910.3982349537036,748.0833333333334,2903.851461226852,762.875C2897.3046875,777.6666666666666,2897.3046875,794.8333333333334,2897.3046875,810.4166666666666C2897.3046875,826,2897.3046875,840,2897.3046875,852.75C2897.3046875,865.5,2897.3046875,877,2756.51953125,888.5C2615.734375,900,2334.1640625,911.5,2167.9934895833335,921.9044208515897C2001.8229166666667,932.3088417031795,1951.0520833333333,941.6176834063589,1925.6666666666667,946.2721042579486L1900.28125,950.9265251095383" id="edge18" class="transition" marker-end="url(#statediagram-barbEnd)"></path><path d="M1430.1736421130952,829L1428.6154048859128,833.1666666666666C1427.0571676587304,837.3333333333334,1423.940693204365,845.6666666666666,1422.3824559771826,855.5833333333334C1420.82421875,865.5,1420.82421875,877,1420.82421875,888.5C1420.82421875,900,1420.82421875,911.5,1451.0592447916667,922.3054338917063C1481.2942708333333,933.1108677834127,1541.7643229166667,943.2217355668254,1571.9993489583333,948.2771694585317L1602.234375,953.3326033502382" id="edge19" class="transition" marker-end="url(#statediagram-barbEnd)"></path><path d="M1900.28125,963.7970706843001L1927.4283854166667,961.1642255702501C1954.5755208333333,958.5313804562002,2008.8697916666667,953.2656902281001,2042.8037109375,950.6328451140499C2076.7376302083335,948,2090.3111979166665,948,2103.884765625,953.0416666666666C2117.4583333333335,958.0833333333334,2131.0319010416665,968.1666666666666,2131.0319010416665,978.25C2131.0319010416665,988.3333333333334,2117.4583333333335,998.4166666666666,2103.884765625,1003.4583333333334C2090.3111979166665,1008.5,2076.7376302083335,1008.5,2042.8037109375,1005.8671548859501C2008.8697916666667,1003.2343097718999,1954.5755208333333,997.9686195437998,1927.4283854166667,995.3357744297499L1900.28125,992.7029293156999" id="edge20" class="transition" marker-end="url(#statediagram-barbEnd)"></path><path d="M1900.28125,986.5411121553359L2069.412109375,995.9509267961133C2238.54296875,1005.3607414368906,2576.8046875,1024.1803707184454,2800.9114583333335,1042.1209391138761C3025.0182291666665,1060.0615075093067,3134.9700520833335,1077.1230150186134,3189.9459635416665,1085.6537687732668L3244.921875,1094.18452252792" id="edge21" class="transition" marker-end="url(#statediagram-barbEnd)"></path><path d="M1900.28125,988.7564904960593L2028.5123697916667,997.7970754133827C2156.7434895833335,1006.8376603307062,2413.2057291666665,1024.918830165353,2637.3125,1043.327417627206C2861.4192708333335,1061.7360050890586,3053.1705729166665,1080.472010178117,3149.0462239583335,1089.8400127226462L3244.921875,1099.2080152671756" id="edge22" class="transition" marker-end="url(#statediagram-barbEnd)"></path><path d="M1602.234375,988.0438415120074L1462.865234375,997.2032012600062C1323.49609375,1006.362561008005,1044.7578125,1024.6812805040024,879.7349858228764,1039.590640252001C714.7121591457529,1054.5,663.4047870415058,1066,637.7511009893823,1071.75L612.0974149372587,1077.5" id="edge23" class="transition" marker-end="url(#statediagram-barbEnd)"></path><path d="M615.61328125,1130.6398114927483L648.2415364583334,1136.033176243957C680.8697916666666,1141.4265409951656,746.1263020833334,1152.2132704975827,778.7545572916666,1163.3566352487915C811.3828125,1174.5,811.3828125,1186,811.3828125,1202.5416666666667C811.3828125,1219.0833333333333,811.3828125,1240.6666666666667,811.3828125,1262.25C811.3828125,1283.8333333333333,811.3828125,1305.4166666666667,811.3828125,1327C811.3828125,1348.5833333333333,811.3828125,1370.1666666666667,811.3828125,1391.75C811.3828125,1413.3333333333333,811.3828125,1434.9166666666667,812.1940230582524,1451.4583333333333C813.0052336165048,1468,814.6276547330098,1479.5,815.4388652912621,1485.25L816.2500758495146,1491" id="edge24" class="transition" marker-end="url(#statediagram-barbEnd)"></path><path d="M431.9734516402715,1138L425.75261595022624,1142.1666666666667C419.531780260181,1146.3333333333333,407.09010888009044,1154.6666666666667,400.86927319004525,1164.5833333333333C394.6484375,1174.5,394.6484375,1186,394.6484375,1197.5C394.6484375,1209,394.6484375,1220.5,394.6484375,1226.25L394.6484375,1232" id="edge25" class="transition" marker-end="url(#statediagram-barbEnd)"></path><path d="M519.1486486486486,1292.5L542.8139780405405,1298.25C566.4793074324324,1304,613.8099662162163,1315.5,637.4752956081081,1332.0416666666667C661.140625,1348.5833333333333,661.140625,1370.1666666666667,661.140625,1391.75C661.140625,1413.3333333333333,661.140625,1434.9166666666667,678.7264487257281,1451.4583333333333C696.3122724514564,1468,731.4839199029126,1479.5,749.0697436286408,1485.25L766.6555673543689,1491" id="edge26" class="transition" marker-end="url(#statediagram-barbEnd)"></path><path d="M322.56379705598454,1292.5L308.8617579633205,1298.25C295.1597188706564,1304,267.75564068532816,1315.5,254.0536015926641,1327C240.3515625,1338.5,240.3515625,1350,240.3515625,1355.75L240.3515625,1361.5" id="edge27" class="transition" marker-end="url(#statediagram-barbEnd)"></path><path d="M383.8203125,1421.0851013963586L412.6875,1426.9875844969654C441.5546875,1432.8900675975722,499.2890625,1444.6950337987862,504.01096025485435,1456.347516899393C508.7328580097087,1468,460.44227851941747,1479.5,436.2969887742718,1485.25L412.15169902912623,1491" id="edge28" class="transition" marker-end="url(#statediagram-barbEnd)"></path><path d="M292.7671332046332,1422L302.730423503861,1427.75C312.69371380308877,1433.5,332.6202944015444,1445,318.4382949556266,1456.5C304.25629550970876,1468,255.9657160194175,1479.5,231.82042627427185,1485.25L207.67513652912623,1491" id="edge29" class="transition" marker-end="url(#statediagram-barbEnd)"></path><path d="M187.9359917953668,1422L177.97270149613897,1427.75C168.0094111969112,1433.5,148.08283059845562,1445,241.82787363256114,1458.4850320008748C335.5729166666667,1471.97006400175,542.9895833333334,1487.4401280035,646.6979166666666,1495.1751600043747L750.40625,1502.9101920052499" id="edge30" class="transition" marker-end="url(#statediagram-barbEnd)"></path><path d="M3332.34375,1138L3332.34375,1142.1666666666667C3332.34375,1146.3333333333333,3332.34375,1154.6666666666667,3332.34375,1164.5833333333333C3332.34375,1174.5,3332.34375,1186,3332.34375,1202.5416666666667C3332.34375,1219.0833333333333,3332.34375,1240.6666666666667,3332.34375,1262.25C3332.34375,1283.8333333333333,3332.34375,1305.4166666666667,3332.34375,1327C3332.34375,1348.5833333333333,3332.34375,1370.1666666666667,3332.34375,1391.75C3332.34375,1413.3333333333333,3332.34375,1434.9166666666667,2924.7682291666665,1454.058645011339C2517.1927083333335,1473.2006233560112,1702.0416666666667,1489.9012467120222,1294.4661458333333,1498.2515583900279L886.890625,1506.6018700680336" id="edge31" class="transition" marker-end="url(#statediagram-barbEnd)"></path><path d="M1345.2874813988096,829L1322.923812624008,833.1666666666666C1300.5601438492065,837.3333333333334,1255.8328062996031,845.6666666666666,1233.4691375248015,855.5833333333334C1211.10546875,865.5,1211.10546875,877,1211.10546875,888.5C1211.10546875,900,1211.10546875,911.5,1203.186327535822,921.4166666666666C1195.267186321644,931.3333333333334,1179.4289038932882,939.6666666666666,1171.50976267911,943.8333333333334L1163.5906214649322,948" id="edge32" class="transition" marker-end="url(#statediagram-barbEnd)"></path><path d="M421.7734375,1003.25L421.7734375,1009.875C421.7734375,1016.5,421.7734375,1029.75,426.6898678812741,1042.125C431.60629826254825,1054.5,441.43915902509656,1066,446.35558940637065,1071.75L451.2720197876448,1077.5" class="transition note-edge"></path><path d="M3070.91796875,1003.25L3070.91796875,1009.875C3070.91796875,1016.5,3070.91796875,1029.75,3099.9186197916665,1043.5578881832898C3128.9192708333335,1057.3657763665794,3186.9205729166665,1071.731552733159,3215.9212239583335,1078.914440916449L3244.921875,1086.0973290997385" class="transition note-edge"></path><path d="M937.74609375,726L937.74609375,731.75C937.74609375,737.5,937.74609375,749,1005.1920572916666,761.7138542343768C1072.6380208333333,774.4277084687534,1207.5299479166667,788.355416937507,1274.9759114583333,795.3192711718838L1342.421875,802.2831254062605" class="transition note-edge"></path><path d="M2678.59765625,147L2678.59765625,152.75C2678.59765625,158.5,2678.59765625,170,2678.59765625,181.95833333333334C2678.59765625,193.91666666666666,2678.59765625,206.33333333333334,2678.59765625,212.54166666666666L2678.59765625,218.75" class="transition note-edge"></path><path d="M340.765625,1525L340.765625,1529.1666666666667C340.765625,1533.3333333333333,340.765625,1541.6666666666667,365.97565542460256,1550.9352520872142C391.18568584920513,1560.2038375077618,441.60574669841026,1570.4076750155236,466.8157771230128,1575.5095937694043L492.0258075476154,1580.6115125232852" id="edge33" class="transition" marker-end="url(#statediagram-barbEnd)"></path><path d="M136.2890625,1525L136.2890625,1529.1666666666667C136.2890625,1533.3333333333333,136.2890625,1541.6666666666667,195.55985542550835,1551.0641045226223C254.83064835101672,1560.4615423785783,373.37223420203344,1570.9230847571569,432.64302712754176,1576.153855946446L491.9138200530501,1581.384627135735" id="edge34" class="transition" marker-end="url(#statediagram-barbEnd)"></path><path d="M818.6484375,1525L818.6484375,1529.1666666666667C818.6484375,1533.3333333333333,818.6484375,1541.6666666666667,766.5156858621335,1551.0504933452733C714.3829342242672,1560.43432002388,610.1174309485342,1570.8686400477602,557.9846793106678,1576.0858000597002L505.8519276728014,1581.3029600716404" id="edge35" class="transition" marker-end="url(#statediagram-barbEnd)"></path></g><g class="edgeLabels"><g class="edgeLabel"><g class="label" transform="translate(0, 0)"><rect rx="0" ry="0" width="0" height="0" style="fill:#e8e8e8;"></rect><text style=""></text></g></g><g class="edgeLabel"><g class="label" transform="translate(0, 0)"><rect rx="0" ry="0" width="0" height="0" style="fill:#e8e8e8;"></rect><text style=""></text></g></g><g class="edgeLabel" transform="translate(557.75, 181.5)"><g class="label" transform="translate(-60.0234375, -9.5)"><rect rx="0" ry="0" width="119.984375" height="19.03125" style="fill:#e8e8e8;"></rect><text style=""><tspan xml:space="preserve" dy="1em" x="0" class="row">ClientEventOpen</tspan></text></g></g><g class="edgeLabel" transform="translate(4248.12890625, 341.5)"><g class="label" transform="translate(-100.0390625, -9.5)"><rect rx="0" ry="0" width="199.953125" height="19.03125" style="fill:#e8e8e8;"></rect><text style=""><tspan xml:space="preserve" dy="1em" x="0" class="row">ClientEventFundingInitiated</tspan></text></g></g><g class="edgeLabel" transform="translate(2492, 693)"><g class="label" transform="translate(-111.953125, -9.5)"><rect rx="0" ry="0" width="223.78125" height="19.03125" style="fill:#e8e8e8;"></rect><text style=""><tspan xml:space="preserve" dy="1em" x="0" class="row">ClientEventReserveFundsFailed</tspan></text></g></g><g class="edgeLabel" transform="translate(4346.75390625, 760.5)"><g class="label" transform="translate(-111.953125, -9.5)"><rect rx="0" ry="0" width="223.78125" height="19.03125" style="fill:#e8e8e8;"></rect><text style=""><tspan xml:space="preserve" dy="1em" x="0" class="row">ClientEventReserveFundsFailed</tspan></text></g></g><g class="edgeLabel" transform="translate(2368.0546875, 406.25)"><g class="label" transform="translate(-103.9453125, -9.5)"><rect rx="0" ry="0" width="207.765625" height="19.03125" style="fill:#e8e8e8;"></rect><text style=""><tspan xml:space="preserve" dy="1em" x="0" class="row">ClientEventFundingComplete</tspan></text></g></g><g class="edgeLabel" transform="translate(3957.24609375, 471)"><g class="label" transform="translate(-103.9453125, -9.5)"><rect rx="0" ry="0" width="207.765625" height="19.03125" style="fill:#e8e8e8;"></rect><text style=""><tspan xml:space="preserve" dy="1em" x="0" class="row">ClientEventFundingComplete</tspan></text></g></g><g class="edgeLabel" transform="translate(4527.546875, 1043)"><g class="label" transform="translate(-113.4609375, -9.5)"><rect rx="0" ry="0" width="226.78125" height="19.03125" style="fill:#e8e8e8;"></rect><text style=""><tspan xml:space="preserve" dy="1em" x="0" class="row">ClientEventWriteProposalFailed</tspan></text></g></g><g class="edgeLabel" transform="translate(4057.83984375, 812)"><g class="label" transform="translate(-113.96875, -9.5)"><rect rx="0" ry="0" width="227.796875" height="19.03125" style="fill:#e8e8e8;"></rect><text style=""><tspan xml:space="preserve" dy="1em" x="0" class="row">ClientEventReadResponseFailed</tspan></text></g></g><g class="edgeLabel" transform="translate(3785.61328125, 812)"><g class="label" transform="translate(-138.2578125, -9.5)"><rect rx="0" ry="0" width="276.34375" height="19.03125" style="fill:#e8e8e8;"></rect><text style=""><tspan xml:space="preserve" dy="1em" x="0" class="row">ClientEventResponseVerificationFailed</tspan></text></g></g><g class="edgeLabel" transform="translate(2968.484375, 600.5)"><g class="label" transform="translate(-113.9921875, -9.5)"><rect rx="0" ry="0" width="227.84375" height="19.03125" style="fill:#e8e8e8;"></rect><text style=""><tspan xml:space="preserve" dy="1em" x="0" class="row">ClientEventInitiateDataTransfer</tspan></text></g></g><g class="edgeLabel" transform="translate(2636.2109375, 812)"><g class="label" transform="translate(-118.734375, -9.5)"><rect rx="0" ry="0" width="237.328125" height="19.03125" style="fill:#e8e8e8;"></rect><text style=""><tspan xml:space="preserve" dy="1em" x="0" class="row">ClientEventUnexpectedDealState</tspan></text></g></g><g class="edgeLabel" transform="translate(3626.46875, 888.5)"><g class="label" transform="translate(-109.7890625, -9.5)"><rect rx="0" ry="0" width="219.4375" height="19.03125" style="fill:#e8e8e8;"></rect><text style=""><tspan xml:space="preserve" dy="1em" x="0" class="row">ClientEventDataTransferFailed</tspan></text></g></g><g class="edgeLabel" transform="translate(3388.83203125, 978.25)"><g class="label" transform="translate(-109.7890625, -9.5)"><rect rx="0" ry="0" width="219.4375" height="19.03125" style="fill:#e8e8e8;"></rect><text style=""><tspan xml:space="preserve" dy="1em" x="0" class="row">ClientEventDataTransferFailed</tspan></text></g></g><g class="edgeLabel" transform="translate(2424.41796875, 1043)"><g class="label" transform="translate(-135.703125, -9.5)"><rect rx="0" ry="0" width="271.234375" height="19.03125" style="fill:#e8e8e8;"></rect><text style=""><tspan xml:space="preserve" dy="1em" x="0" class="row">ClientEventDataTransferRestartFailed</tspan></text></g></g><g class="edgeLabel" transform="translate(2221.59375, 760.5)"><g class="label" transform="translate(-118.453125, -9.5)"><rect rx="0" ry="0" width="236.765625" height="19.03125" style="fill:#e8e8e8;"></rect><text style=""><tspan xml:space="preserve" dy="1em" x="0" class="row">ClientEventDataTransferInitiated</tspan></text></g></g><g class="edgeLabel" transform="translate(1869.21875, 760.5)"><g class="label" transform="translate(-122.65625, -9.5)"><rect rx="0" ry="0" width="245.171875" height="19.03125" style="fill:#e8e8e8;"></rect><text style=""><tspan xml:space="preserve" dy="1em" x="0" class="row">ClientEventDataTransferRestarted</tspan></text></g></g><g class="edgeLabel" transform="translate(1001.08984375, 888.5)"><g class="label" transform="translate(-122.65625, -9.5)"><rect rx="0" ry="0" width="245.171875" height="19.03125" style="fill:#e8e8e8;"></rect><text style=""><tspan xml:space="preserve" dy="1em" x="0" class="row">ClientEventDataTransferRestarted</tspan></text></g></g><g class="edgeLabel" transform="translate(2897.3046875, 812)"><g class="label" transform="translate(-122.359375, -9.5)"><rect rx="0" ry="0" width="244.5625" height="19.03125" style="fill:#e8e8e8;"></rect><text style=""><tspan xml:space="preserve" dy="1em" x="0" class="row">ClientEventDataTransferComplete</tspan></text></g></g><g class="edgeLabel" transform="translate(1420.82421875, 888.5)"><g class="label" transform="translate(-122.359375, -9.5)"><rect rx="0" ry="0" width="244.5625" height="19.03125" style="fill:#e8e8e8;"></rect><text style=""><tspan xml:space="preserve" dy="1em" x="0" class="row">ClientEventDataTransferComplete</tspan></text></g></g><g class="edgeLabel" transform="translate(2144.60546875, 978.25)"><g class="label" transform="translate(-104.109375, -9.5)"><rect rx="0" ry="0" width="208.09375" height="19.03125" style="fill:#e8e8e8;"></rect><text style=""><tspan xml:space="preserve" dy="1em" x="0" class="row">ClientEventWaitForDealState</tspan></text></g></g><g class="edgeLabel" transform="translate(2915.06640625, 1043)"><g class="label" transform="translate(-135.8515625, -9.5)"><rect rx="0" ry="0" width="271.546875" height="19.03125" style="fill:#e8e8e8;"></rect><text style=""><tspan xml:space="preserve" dy="1em" x="0" class="row">ClientEventResponseDealDidNotMatch</tspan></text></g></g><g class="edgeLabel" transform="translate(2669.66796875, 1043)"><g class="label" transform="translate(-89.546875, -9.5)"><rect rx="0" ry="0" width="178.984375" height="19.03125" style="fill:#e8e8e8;"></rect><text style=""><tspan xml:space="preserve" dy="1em" x="0" class="row">ClientEventDealRejected</tspan></text></g></g><g class="edgeLabel" transform="translate(766.01953125, 1043)"><g class="label" transform="translate(-90.7265625, -9.5)"><rect rx="0" ry="0" width="181.34375" height="19.03125" style="fill:#e8e8e8;"></rect><text style=""><tspan xml:space="preserve" dy="1em" x="0" class="row">ClientEventDealAccepted</tspan></text></g></g><g class="edgeLabel" transform="translate(811.3828125, 1327)"><g class="label" transform="translate(-104.6796875, -9.5)"><rect rx="0" ry="0" width="209.234375" height="19.03125" style="fill:#e8e8e8;"></rect><text style=""><tspan xml:space="preserve" dy="1em" x="0" class="row">ClientEventDealPublishFailed</tspan></text></g></g><g class="edgeLabel" transform="translate(394.6484375, 1197.5)"><g class="label" transform="translate(-91.6328125, -9.5)"><rect rx="0" ry="0" width="183.15625" height="19.03125" style="fill:#e8e8e8;"></rect><text style=""><tspan xml:space="preserve" dy="1em" x="0" class="row">ClientEventDealPublished</tspan></text></g></g><g class="edgeLabel" transform="translate(661.140625, 1391.75)"><g class="label" transform="translate(-115.5078125, -9.5)"><rect rx="0" ry="0" width="230.875" height="19.03125" style="fill:#e8e8e8;"></rect><text style=""><tspan xml:space="preserve" dy="1em" x="0" class="row">ClientEventDealActivationFailed</tspan></text></g></g><g class="edgeLabel" transform="translate(240.3515625, 1327)"><g class="label" transform="translate(-91.5234375, -9.5)"><rect rx="0" ry="0" width="182.9375" height="19.03125" style="fill:#e8e8e8;"></rect><text style=""><tspan xml:space="preserve" dy="1em" x="0" class="row">ClientEventDealActivated</tspan></text></g></g><g class="edgeLabel" transform="translate(557.0234375, 1456.5)"><g class="label" transform="translate(-84.1171875, -9.5)"><rect rx="0" ry="0" width="168.125" height="19.03125" style="fill:#e8e8e8;"></rect><text style=""><tspan xml:space="preserve" dy="1em" x="0" class="row">ClientEventDealSlashed</tspan></text></g></g><g class="edgeLabel" transform="translate(352.546875, 1456.5)"><g class="label" transform="translate(-84.234375, -9.5)"><rect rx="0" ry="0" width="168.375" height="19.03125" style="fill:#e8e8e8;"></rect><text style=""><tspan xml:space="preserve" dy="1em" x="0" class="row">ClientEventDealExpired</tspan></text></g></g><g class="edgeLabel" transform="translate(128.15625, 1456.5)"><g class="label" transform="translate(-120.15625, -9.5)"><rect rx="0" ry="0" width="240.15625" height="19.03125" style="fill:#e8e8e8;"></rect><text style=""><tspan xml:space="preserve" dy="1em" x="0" class="row">ClientEventDealCompletionFailed</tspan></text></g></g><g class="edgeLabel" transform="translate(3332.34375, 1327)"><g class="label" transform="translate(-63.3046875, -9.5)"><rect rx="0" ry="0" width="126.53125" height="19.03125" style="fill:#e8e8e8;"></rect><text style=""><tspan xml:space="preserve" dy="1em" x="0" class="row">ClientEventFailed</tspan></text></g></g><g class="edgeLabel" transform="translate(1211.10546875, 888.5)"><g class="label" transform="translate(-67.359375, -9.5)"><rect rx="0" ry="0" width="134.640625" height="19.03125" style="fill:#e8e8e8;"></rect><text style=""><tspan xml:space="preserve" dy="1em" x="0" class="row">ClientEventRestart</tspan></text></g></g><g class="edgeLabel"><g class="label" transform="translate(0, 0)"><rect rx="0" ry="0" width="0" height="0" style="fill:#e8e8e8;"></rect><text style=""></text></g></g><g class="edgeLabel"><g class="label" transform="translate(0, 0)"><rect rx="0" ry="0" width="0" height="0" style="fill:#e8e8e8;"></rect><text style=""></text></g></g><g class="edgeLabel"><g class="label" transform="translate(0, 0)"><rect rx="0" ry="0" width="0" height="0" style="fill:#e8e8e8;"></rect><text style=""></text></g></g><g class="edgeLabel"><g class="label" transform="translate(0, 0)"><rect rx="0" ry="0" width="0" height="0" style="fill:#e8e8e8;"></rect><text style=""></text></g></g><g class="edgeLabel"><g class="label" transform="translate(0, 0)"><rect rx="0" ry="0" width="0" height="0" style="fill:#e8e8e8;"></rect><text style=""></text></g></g><g class="edgeLabel"><g class="label" transform="translate(0, 0)"><rect rx="0" ry="0" width="0" height="0" style="fill:#e8e8e8;"></rect><text style=""></text></g></g><g class="edgeLabel"><g class="label" transform="translate(0, 0)"><rect rx="0" ry="0" width="0" height="0" style="fill:#e8e8e8;"></rect><text style=""></text></g></g></g><g class="nodes"><g class="node statediagram-state" id="0" transform="translate(672.76171875, 122)"><rect class="outer title-state" x="-82.921875" y="-17" width="165.84375" height="34"></rect><line class="divider" x1="-82.921875" x2="82.921875" y1="9.5" y2="9.5"></line><g class="label" transform="translate(-75.421875, -14)"><text style=""><tspan xml:space="preserve" dy="1em" x="0" class="title-row">StorageDealUnknown</tspan></text><text style="" transform="translate( 0, 26.5)"><tspan xml:space="preserve" dy="1em" x="0" class="title-row"></tspan></text></g></g><g class="node statediagram-state" id="3" transform="translate(477.13671875, 1107.75)"><rect class="outer title-state" x="-138.4765625" y="-30.25" width="276.953125" height="60.5"></rect><line class="divider" x1="-138.4765625" x2="138.4765625" y1="-3.75" y2="-3.75"></line><g class="label" transform="translate(-130.9765625, -27.25)"><text style=""><tspan xml:space="preserve" dy="1em" x="0" class="title-row">StorageDealProposalAccepted</tspan></text><text style="" transform="translate( 0, 26.5)"><tspan xml:space="preserve" dy="1em" x="0" class="title-row">On entry runs ValidateDealPublished</tspan></text></g></g><g class="node statediagram-state" id="5" transform="translate(394.6484375, 1262.25)"><rect class="outer title-state" x="-129.9765625" y="-30.25" width="259.953125" height="60.5"></rect><line class="divider" x1="-129.9765625" x2="129.9765625" y1="-3.75" y2="-3.75"></line><g class="label" transform="translate(-122.4765625, -27.25)"><text style=""><tspan xml:space="preserve" dy="1em" x="0" class="title-row">StorageDealSealing</tspan></text><text style="" transform="translate( 0, 26.5)"><tspan xml:space="preserve" dy="1em" x="0" class="title-row">On entry runs VerifyDealActivated</tspan></text></g></g><g class="node statediagram-state" id="7" transform="translate(240.3515625, 1391.75)"><rect class="outer title-state" x="-143.46875" y="-30.25" width="286.9375" height="60.5"></rect><line class="divider" x1="-143.46875" x2="143.46875" y1="-3.75" y2="-3.75"></line><g class="label" transform="translate(-135.96875, -27.25)"><text style=""><tspan xml:space="preserve" dy="1em" x="0" class="title-row">StorageDealActive</tspan></text><text style="" transform="translate( 0, 26.5)"><tspan xml:space="preserve" dy="1em" x="0" class="title-row">On entry runs WaitForDealCompletion</tspan></text></g></g><g class="node statediagram-state" id="8" transform="translate(136.2890625, 1508)"><rect class="outer title-state" x="-77.296875" y="-17" width="154.59375" height="34"></rect><line class="divider" x1="-77.296875" x2="77.296875" y1="9.5" y2="9.5"></line><g class="label" transform="translate(-69.796875, -14)"><text style=""><tspan xml:space="preserve" dy="1em" x="0" class="title-row">StorageDealExpired</tspan></text><text style="" transform="translate( 0, 26.5)"><tspan xml:space="preserve" dy="1em" x="0" class="title-row"></tspan></text></g></g><g class="node statediagram-state" id="9" transform="translate(340.765625, 1508)"><rect class="outer title-state" x="-77.1796875" y="-17" width="154.359375" height="34"></rect><line class="divider" x1="-77.1796875" x2="77.1796875" y1="9.5" y2="9.5"></line><g class="label" transform="translate(-69.6796875, -14)"><text style=""><tspan xml:space="preserve" dy="1em" x="0" class="title-row">StorageDealSlashed</tspan></text><text style="" transform="translate( 0, 26.5)"><tspan xml:space="preserve" dy="1em" x="0" class="title-row"></tspan></text></g></g><g class="node statediagram-state" id="11" transform="translate(3332.34375, 1107.75)"><rect class="outer title-state" x="-87.421875" y="-30.25" width="174.84375" height="60.5"></rect><line class="divider" x1="-87.421875" x2="87.421875" y1="-3.75" y2="-3.75"></line><g class="label" transform="translate(-79.921875, -27.25)"><text style=""><tspan xml:space="preserve" dy="1em" x="0" class="title-row">StorageDealFailing</tspan></text><text style="" transform="translate( 0, 26.5)"><tspan xml:space="preserve" dy="1em" x="0" class="title-row">On entry runs FailDeal</tspan></text></g></g><g class="node statediagram-state" id="12" transform="translate(3957.24609375, 535.75)"><rect class="outer title-state" x="-103.4453125" y="-30.25" width="206.890625" height="60.5"></rect><line class="divider" x1="-103.4453125" x2="103.4453125" y1="-3.75" y2="-3.75"></line><g class="label" transform="translate(-95.9453125, -27.25)"><text style=""><tspan xml:space="preserve" dy="1em" x="0" class="title-row">StorageDealFundsReserved</tspan></text><text style="" transform="translate( 0, 26.5)"><tspan xml:space="preserve" dy="1em" x="0" class="title-row">On entry runs ProposeDeal</tspan></text></g></g><g class="node statediagram-state" id="13" transform="translate(1751.2578125, 978.25)"><rect class="outer title-state" x="-149.0234375" y="-30.25" width="298.046875" height="60.5"></rect><line class="divider" x1="-149.0234375" x2="149.0234375" y1="-3.75" y2="-3.75"></line><g class="label" transform="translate(-141.5234375, -27.25)"><text style=""><tspan xml:space="preserve" dy="1em" x="0" class="title-row">StorageDealCheckForAcceptance</tspan></text><text style="" transform="translate( 0, 26.5)"><tspan xml:space="preserve" dy="1em" x="0" class="title-row">On entry runs CheckForDealAcceptance</tspan></text></g></g><g class="node statediagram-state" id="16" transform="translate(2968.484375, 693)"><rect class="outer title-state" x="-131.09375" y="-30.25" width="262.1875" height="60.5"></rect><line class="divider" x1="-131.09375" x2="131.09375" y1="-3.75" y2="-3.75"></line><g class="label" transform="translate(-123.59375, -27.25)"><text style=""><tspan xml:space="preserve" dy="1em" x="0" class="title-row">StorageDealStartDataTransfer</tspan></text><text style="" transform="translate( 0, 26.5)"><tspan xml:space="preserve" dy="1em" x="0" class="title-row">On entry runs InitiateDataTransfer</tspan></text></g></g><g class="node statediagram-state" id="17" transform="translate(1436.53125, 812)"><rect class="outer title-state" x="-94.109375" y="-17" width="188.21875" height="34"></rect><line class="divider" x1="-94.109375" x2="94.109375" y1="9.5" y2="9.5"></line><g class="label" transform="translate(-86.609375, -14)"><text style=""><tspan xml:space="preserve" dy="1em" x="0" class="title-row">StorageDealTransferring</tspan></text><text style="" transform="translate( 0, 26.5)"><tspan xml:space="preserve" dy="1em" x="0" class="title-row"></tspan></text></g></g><g class="node statediagram-state" id="21" transform="translate(2678.59765625, 249)"><rect class="outer title-state" x="-128.5234375" y="-30.25" width="257.046875" height="60.5"></rect><line class="divider" x1="-128.5234375" x2="128.5234375" y1="-3.75" y2="-3.75"></line><g class="label" transform="translate(-121.0234375, -27.25)"><text style=""><tspan xml:space="preserve" dy="1em" x="0" class="title-row">StorageDealReserveClientFunds</tspan></text><text style="" transform="translate( 0, 26.5)"><tspan xml:space="preserve" dy="1em" x="0" class="title-row">On entry runs ReserveClientFunds</tspan></text></g></g><g class="node statediagram-state" id="23" transform="translate(4248.12890625, 406.25)"><rect class="outer title-state" x="-114.6875" y="-30.25" width="229.375" height="60.5"></rect><line class="divider" x1="-114.6875" x2="114.6875" y1="-3.75" y2="-3.75"></line><g class="label" transform="translate(-107.1875, -27.25)"><text style=""><tspan xml:space="preserve" dy="1em" x="0" class="title-row">StorageDealClientFunding</tspan></text><text style="" transform="translate( 0, 26.5)"><tspan xml:space="preserve" dy="1em" x="0" class="title-row">On entry runs WaitForFunding</tspan></text></g></g><g class="node statediagram-state" id="26" transform="translate(818.6484375, 1508)"><rect class="outer title-state" x="-68.2421875" y="-17" width="136.484375" height="34"></rect><line class="divider" x1="-68.2421875" x2="68.2421875" y1="9.5" y2="9.5"></line><g class="label" transform="translate(-60.7421875, -14)"><text style=""><tspan xml:space="preserve" dy="1em" x="0" class="title-row">StorageDealError</tspan></text><text style="" transform="translate( 0, 26.5)"><tspan xml:space="preserve" dy="1em" x="0" class="title-row"></tspan></text></g></g><g class="node statediagram-state" id="28" transform="translate(1106.09765625, 978.25)"><rect class="outer title-state" x="-130.9375" y="-30.25" width="261.875" height="60.5"></rect><line class="divider" x1="-130.9375" x2="130.9375" y1="-3.75" y2="-3.75"></line><g class="label" transform="translate(-123.4375, -27.25)"><text style=""><tspan xml:space="preserve" dy="1em" x="0" class="title-row">StorageDealClientTransferRestart</tspan></text><text style="" transform="translate( 0, 26.5)"><tspan xml:space="preserve" dy="1em" x="0" class="title-row">On entry runs RestartDataTransfer</tspan></text></g></g><g class="node default" id="root_start" transform="translate(672.76171875, 15)"><circle class="state-start" r="7" width="14" height="14"></circle></g><g class="node statediagram-note" id="0----note" transform="translate(712.7734375, 249)"><rect x="-275.046875" y="-33" width="550.09375" height="66"></rect><g class="label" transform="translate(-267.546875, -25.5)"><text style=""><tspan xml:space="preserve" dy="1em" x="0" class="row">The following events are not shown cause they can trigger from any state.</tspan><tspan xml:space="preserve" dy="1em" x="0" class="row"></tspan><tspan xml:space="preserve" dy="1em" x="0" class="row">ClientEventStreamCloseError - transitions state to StorageDealError</tspan><tspan xml:space="preserve" dy="1em" x="0" class="row">ClientEventRestart - does not transition state</tspan></text></g></g><g class="node statediagram-note" id="3----note" transform="translate(421.7734375, 978.25)"><rect x="-173.125" y="-25" width="346.25" height="50"></rect><g class="label" transform="translate(-165.625, -17.5)"><text style=""><tspan xml:space="preserve" dy="1em" x="0" class="row">The following events only record in this state.</tspan><tspan xml:space="preserve" dy="1em" x="0" class="row"></tspan><tspan xml:space="preserve" dy="1em" x="0" class="row">ClientEventFundsReleased</tspan></text></g></g><g class="node statediagram-note" id="11----note" transform="translate(3070.91796875, 978.25)"><rect x="-173.125" y="-25" width="346.25" height="50"></rect><g class="label" transform="translate(-165.625, -17.5)"><text style=""><tspan xml:space="preserve" dy="1em" x="0" class="row">The following events only record in this state.</tspan><tspan xml:space="preserve" dy="1em" x="0" class="row"></tspan><tspan xml:space="preserve" dy="1em" x="0" class="row">ClientEventFundsReleased</tspan></text></g></g><g class="node statediagram-note" id="17----note" transform="translate(937.74609375, 693)"><rect x="-173.125" y="-33" width="346.25" height="66"></rect><g class="label" transform="translate(-165.625, -25.5)"><text style=""><tspan xml:space="preserve" dy="1em" x="0" class="row">The following events only record in this state.</tspan><tspan xml:space="preserve" dy="1em" x="0" class="row"></tspan><tspan xml:space="preserve" dy="1em" x="0" class="row">ClientEventDataTransferRestarted</tspan><tspan xml:space="preserve" dy="1em" x="0" class="row">ClientEventDataTransferStalled</tspan></text></g></g><g class="node statediagram-note" id="21----note" transform="translate(2678.59765625, 122)"><rect x="-173.125" y="-25" width="346.25" height="50"></rect><g class="label" transform="translate(-165.625, -17.5)"><text style=""><tspan xml:space="preserve" dy="1em" x="0" class="row">The following events only record in this state.</tspan><tspan xml:space="preserve" dy="1em" x="0" class="row"></tspan><tspan xml:space="preserve" dy="1em" x="0" class="row">ClientEventFundsReserved</tspan></text></g></g><g class="node default" id="root_end" transform="translate(498.88671875, 1582)"><circle class="state-start" r="7" width="14" height="14"></circle><circle class="state-end" r="5" width="10" height="10"></circle></g></g></g></g></svg>