<svg id="mermaid-1602582735032" width="5369.6640625" xmlns="http://www.w3.org/2000/svg" class="statediagram" height="2378.5" viewBox="0 0 5369.6640625 2378.5"><style>#mermaid-1602582735032 .label{font-family:'trebuchet ms', verdana, arial;font-family:var(--mermaid-font-family);color:#333}#mermaid-1602582735032 .label text{fill:#333}#mermaid-1602582735032 .node rect,#mermaid-1602582735032 .node circle,#mermaid-1602582735032 .node ellipse,#mermaid-1602582735032 .node polygon,#mermaid-1602582735032 .node path{fill:#ECECFF;stroke:#9370db;stroke-width:1px}#mermaid-1602582735032 .node .label{text-align:center}#mermaid-1602582735032 .node.clickable{cursor:pointer}#mermaid-1602582735032 .arrowheadPath{fill:#333}#mermaid-1602582735032 .edgePath .path{stroke:#333;stroke-width:1.5px}#mermaid-1602582735032 .edgeLabel{background-color:#e8e8e8;text-align:center}#mermaid-1602582735032 .edgeLabel rect{opacity:0.5}#mermaid-1602582735032 .cluster rect{fill:#ffffde;stroke:#aa3;stroke-width:1px}#mermaid-1602582735032 .cluster text{fill:#333}#mermaid-1602582735032 div.mermaidTooltip{position:absolute;text-align:center;max-width:200px;padding:2px;font-family:'trebuchet ms', verdana, arial;font-family:var(--mermaid-font-family);font-size:12px;background:#ffffde;border:1px solid #aa3;border-radius:2px;pointer-events:none;z-index:100}#mermaid-1602582735032 .actor{stroke:#ccf;fill:#ECECFF}#mermaid-1602582735032 text.actor{fill:#000;stroke:none}#mermaid-1602582735032 .actor-line{stroke:grey}#mermaid-1602582735032 .messageLine0{stroke-width:1.5;stroke-dasharray:'2 2';stroke:#333}#mermaid-1602582735032 .messageLine1{stroke-width:1.5;stroke-dasharray:'2 2';stroke:#333}#mermaid-1602582735032 #arrowhead{fill:#333}#mermaid-1602582735032 .sequenceNumber{fill:#fff}#mermaid-1602582735032 #sequencenumber{fill:#333}#mermaid-1602582735032 #crosshead path{fill:#333 !important;stroke:#333 !important}#mermaid-1602582735032 .messageText{fill:#333;stroke:none}#mermaid-1602582735032 .labelBox{stroke:#ccf;fill:#ECECFF}#mermaid-1602582735032 .labelText{fill:#000;stroke:none}#mermaid-1602582735032 .loopText{fill:#000;stroke:none}#mermaid-1602582735032 .loopLine{stroke-width:2;stroke-dasharray:'2 2';stroke:#ccf}#mermaid-1602582735032 .note{stroke:#aa3;fill:#fff5ad}#mermaid-1602582735032 .noteText{fill:black;stroke:none;font-family:'trebuchet ms', verdana, arial;font-family:var(--mermaid-font-family);font-size:14px}#mermaid-1602582735032 .activation0{fill:#f4f4f4;stroke:#666}#mermaid-1602582735032 .activation1{fill:#f4f4f4;stroke:#666}#mermaid-1602582735032 .activation2{fill:#f4f4f4;stroke:#666}#mermaid-1602582735032 .mermaid-main-font{font-family:"trebuchet ms", verdana, arial;font-family:var(--mermaid-font-family)}#mermaid-1602582735032 .section{stroke:none;opacity:0.2}#mermaid-1602582735032 .section0{fill:rgba(102,102,255,0.49)}#mermaid-1602582735032 .section2{fill:#fff400}#mermaid-1602582735032 .section1,#mermaid-1602582735032 .section3{fill:#fff;opacity:0.2}#mermaid-1602582735032 .sectionTitle0{fill:#333}#mermaid-1602582735032 .sectionTitle1{fill:#333}#mermaid-1602582735032 .sectionTitle2{fill:#333}#mermaid-1602582735032 .sectionTitle3{fill:#333}#mermaid-1602582735032 .sectionTitle{text-anchor:start;font-size:11px;text-height:14px;font-family:'trebuchet ms', verdana, arial;font-family:var(--mermaid-font-family)}#mermaid-1602582735032 .grid .tick{stroke:#d3d3d3;opacity:0.8;shape-rendering:crispEdges}#mermaid-1602582735032 .grid .tick text{font-family:'trebuchet ms', verdana, arial;font-family:var(--mermaid-font-family)}#mermaid-1602582735032 .grid path{stroke-width:0}#mermaid-1602582735032 .today{fill:none;stroke:red;stroke-width:2px}#mermaid-1602582735032 .task{stroke-width:2}#mermaid-1602582735032 .taskText{text-anchor:middle;font-family:'trebuchet ms', verdana, arial;font-family:var(--mermaid-font-family)}#mermaid-1602582735032 .taskText:not([font-size]){font-size:11px}#mermaid-1602582735032 .taskTextOutsideRight{fill:#000;text-anchor:start;font-size:11px;font-family:'trebuchet ms', verdana, arial;font-family:var(--mermaid-font-family)}#mermaid-1602582735032 .taskTextOutsideLeft{fill:#000;text-anchor:end;font-size:11px}#mermaid-1602582735032 .task.clickable{cursor:pointer}#mermaid-1602582735032 .taskText.clickable{cursor:pointer;fill:#003163 !important;font-weight:bold}#mermaid-1602582735032 .taskTextOutsideLeft.clickable{cursor:pointer;fill:#003163 !important;font-weight:bold}#mermaid-1602582735032 .taskTextOutsideRight.clickable{cursor:pointer;fill:#003163 !important;font-weight:bold}#mermaid-1602582735032 .taskText0,#mermaid-1602582735032 .taskText1,#mermaid-1602582735032 .taskText2,#mermaid-1602582735032 .taskText3{fill:#fff}#mermaid-1602582735032 .task0,#mermaid-1602582735032 .task1,#mermaid-1602582735032 .task2,#mermaid-1602582735032 .task3{fill:#8a90dd;stroke:#534fbc}#mermaid-1602582735032 .taskTextOutside0,#mermaid-1602582735032 .taskTextOutside2{fill:#000}#mermaid-1602582735032 .taskTextOutside1,#mermaid-1602582735032 .taskTextOutside3{fill:#000}#mermaid-1602582735032 .active0,#mermaid-1602582735032 .active1,#mermaid-1602582735032 .active2,#mermaid-1602582735032 .active3{fill:#bfc7ff;stroke:#534fbc}#mermaid-1602582735032 .activeText0,#mermaid-1602582735032 .activeText1,#mermaid-1602582735032 .activeText2,#mermaid-1602582735032 .activeText3{fill:#000 !important}#mermaid-1602582735032 .done0,#mermaid-1602582735032 .done1,#mermaid-1602582735032 .done2,#mermaid-1602582735032 .done3{stroke:grey;fill:#d3d3d3;stroke-width:2}#mermaid-1602582735032 .doneText0,#mermaid-1602582735032 .doneText1,#mermaid-1602582735032 .doneText2,#mermaid-1602582735032 .doneText3{fill:#000 !important}#mermaid-1602582735032 .crit0,#mermaid-1602582735032 .crit1,#mermaid-1602582735032 .crit2,#mermaid-1602582735032 .crit3{stroke:#f88;fill:red;stroke-width:2}#mermaid-1602582735032 .activeCrit0,#mermaid-1602582735032 .activeCrit1,#mermaid-1602582735032 .activeCrit2,#mermaid-1602582735032 .activeCrit3{stroke:#f88;fill:#bfc7ff;stroke-width:2}#mermaid-1602582735032 .doneCrit0,#mermaid-1602582735032 .doneCrit1,#mermaid-1602582735032 .doneCrit2,#mermaid-1602582735032 .doneCrit3{stroke:#f88;fill:#d3d3d3;stroke-width:2;cursor:pointer;shape-rendering:crispEdges}#mermaid-1602582735032 .milestone{transform:rotate(45deg) scale(0.8, 0.8)}#mermaid-1602582735032 .milestoneText{font-style:italic}#mermaid-1602582735032 .doneCritText0,#mermaid-1602582735032 .doneCritText1,#mermaid-1602582735032 .doneCritText2,#mermaid-1602582735032 .doneCritText3{fill:#000 !important}#mermaid-1602582735032 .activeCritText0,#mermaid-1602582735032 .activeCritText1,#mermaid-1602582735032 .activeCritText2,#mermaid-1602582735032 .activeCritText3{fill:#000 !important}#mermaid-1602582735032 .titleText{text-anchor:middle;font-size:18px;fill:#000;font-family:'trebuchet ms', verdana, arial;font-family:var(--mermaid-font-family)}#mermaid-1602582735032 g.classGroup text{fill:#9370db;stroke:none;font-family:'trebuchet ms', verdana, arial;font-family:var(--mermaid-font-family);font-size:10px}#mermaid-1602582735032 g.classGroup text .title{font-weight:bolder}#mermaid-1602582735032 g.clickable{cursor:pointer}#mermaid-1602582735032 g.classGroup rect{fill:#ECECFF;stroke:#9370db}#mermaid-1602582735032 g.classGroup line{stroke:#9370db;stroke-width:1}#mermaid-1602582735032 .classLabel .box{stroke:none;stroke-width:0;fill:#ECECFF;opacity:0.5}#mermaid-1602582735032 .classLabel .label{fill:#9370db;font-size:10px}#mermaid-1602582735032 .relation{stroke:#9370db;stroke-width:1;fill:none}#mermaid-1602582735032 .dashed-line{stroke-dasharray:3}#mermaid-1602582735032 #compositionStart{fill:#9370db;stroke:#9370db;stroke-width:1}#mermaid-1602582735032 #compositionEnd{fill:#9370db;stroke:#9370db;stroke-width:1}#mermaid-1602582735032 #aggregationStart{fill:#ECECFF;stroke:#9370db;stroke-width:1}#mermaid-1602582735032 #aggregationEnd{fill:#ECECFF;stroke:#9370db;stroke-width:1}#mermaid-1602582735032 #dependencyStart{fill:#9370db;stroke:#9370db;stroke-width:1}#mermaid-1602582735032 #dependencyEnd{fill:#9370db;stroke:#9370db;stroke-width:1}#mermaid-1602582735032 #extensionStart{fill:#9370db;stroke:#9370db;stroke-width:1}#mermaid-1602582735032 #extensionEnd{fill:#9370db;stroke:#9370db;stroke-width:1}#mermaid-1602582735032 .commit-id,#mermaid-1602582735032 .commit-msg,#mermaid-1602582735032 .branch-label{fill:lightgrey;color:lightgrey;font-family:'trebuchet ms', verdana, arial;font-family:var(--mermaid-font-family)}#mermaid-1602582735032 .pieTitleText{text-anchor:middle;font-size:25px;fill:#000;font-family:'trebuchet ms', verdana, arial;font-family:var(--mermaid-font-family)}#mermaid-1602582735032 .slice{font-family:'trebuchet ms', verdana, arial;font-family:var(--mermaid-font-family)}#mermaid-1602582735032 g.stateGroup text{fill:#9370db;stroke:none;font-size:10px;font-family:'trebuchet ms', verdana, arial;font-family:var(--mermaid-font-family)}#mermaid-1602582735032 g.stateGroup text{fill:#9370db;stroke:none;font-size:10px}#mermaid-1602582735032 g.stateGroup .state-title{font-weight:bolder;fill:#000}#mermaid-1602582735032 g.stateGroup rect{fill:#ECECFF;stroke:#9370db}#mermaid-1602582735032 g.stateGroup line{stroke:#9370db;stroke-width:1}#mermaid-1602582735032 .transition{stroke:#9370db;stroke-width:1;fill:none}#mermaid-1602582735032 .stateGroup .composit{fill:white;border-bottom:1px}#mermaid-1602582735032 .stateGroup .alt-composit{fill:#e0e0e0;border-bottom:1px}#mermaid-1602582735032 .state-note{stroke:#aa3;fill:#fff5ad}#mermaid-1602582735032 .state-note text{fill:black;stroke:none;font-size:10px}#mermaid-1602582735032 .stateLabel .box{stroke:none;stroke-width:0;fill:#ECECFF;opacity:0.5}#mermaid-1602582735032 .stateLabel text{fill:#000;font-size:10px;font-weight:bold;font-family:'trebuchet ms', verdana, arial;font-family:var(--mermaid-font-family)}#mermaid-1602582735032 .node circle.state-start{fill:black;stroke:black}#mermaid-1602582735032 .node circle.state-end{fill:black;stroke:white;stroke-width:1.5}#mermaid-1602582735032 #statediagram-barbEnd{fill:#9370db}#mermaid-1602582735032 .statediagram-cluster rect{fill:#ECECFF;stroke:#9370db;stroke-width:1px}#mermaid-1602582735032 .statediagram-cluster rect.outer{rx:5px;ry:5px}#mermaid-1602582735032 .statediagram-state .divider{stroke:#9370db}#mermaid-1602582735032 .statediagram-state .title-state{rx:5px;ry:5px}#mermaid-1602582735032 .statediagram-cluster.statediagram-cluster .inner{fill:white}#mermaid-1602582735032 .statediagram-cluster.statediagram-cluster-alt .inner{fill:#e0e0e0}#mermaid-1602582735032 .statediagram-cluster .inner{rx:0;ry:0}#mermaid-1602582735032 .statediagram-state rect.basic{rx:5px;ry:5px}#mermaid-1602582735032 .statediagram-state rect.divider{stroke-dasharray:10,10;fill:#efefef}#mermaid-1602582735032 .note-edge{stroke-dasharray:5}#mermaid-1602582735032 .statediagram-note rect{fill:#fff5ad;stroke:#aa3;stroke-width:1px;rx:0;ry:0}:root{--mermaid-font-family: '"trebuchet ms", verdana, arial';--mermaid-font-family: "Comic Sans MS", "Comic Sans", cursive}

:root { --mermaid-font-family: "trebuchet ms", verdana, arial;}</style><style>#mermaid-1602582735032 {
    color: rgb(0, 0, 0);
    font: 16px "trebuchet ms", verdana, arial;
  }</style><g><defs><marker id="statediagram-barbEnd" refX="19" refY="7" markerWidth="20" markerHeight="14" markerUnits="0" orient="auto"><path d="M 19,7 L9,13 L14,7 L9,1 Z"></path></marker></defs><g class="root"><g class="clusters"><g class="note-cluster" id="0----parent"><rect x="1304.30078125" y="72" width="620.09375" height="219" fill="none"></rect></g><g class="note-cluster" id="4----parent"><rect x="8" y="1370.5" width="1125.39453125" height="265" fill="none"></rect></g><g class="note-cluster" id="11----parent"><rect x="978.19140625" y="1963.5" width="3040.74609375" height="240" fill="none"></rect></g><g class="note-cluster" id="17----parent"><rect x="2395.19921875" y="489.5" width="1359.37890625" height="219" fill="none"></rect></g><g class="note-cluster" id="20----parent"><rect x="4055.62890625" y="777.5" width="600.7890625" height="240" fill="none"></rect></g><g class="note-cluster" id="25----parent"><rect x="1906.03515625" y="1216" width="494.703125" height="265" fill="none"></rect></g></g><g class="edgePaths"><path d="M1658.69140625,22L1658.69140625,26.166666666666668C1658.69140625,30.333333333333332,1658.69140625,38.666666666666664,1658.69140625,47C1658.69140625,55.333333333333336,1658.69140625,63.666666666666664,1658.69140625,72C1658.69140625,80.33333333333333,1658.69140625,88.66666666666667,1658.69140625,92.83333333333333L1658.69140625,97" id="edge0" class="transition" marker-end="url(#statediagram-barbEnd)"></path><path d="M1644.0536635315534,131L1639.1026623179612,136.75C1634.151661104369,142.5,1624.2496586771842,154,1619.2986574635922,165.5C1614.34765625,177,1614.34765625,188.5,1614.34765625,194.25L1614.34765625,200" class="transition note-edge"></path><path d="M1695.2264487257282,131L1707.5838895631068,136.75C1719.9413304004854,142.5,1744.6562120752426,154,2194.822897704288,170.45191430369988C2644.9895833333335,186.90382860739976,3520.6080729166665,208.30765721479952,3958.4173177083335,219.00957151849943L4396.2265625,229.71148582219928" id="edge1" class="transition" marker-end="url(#statediagram-barbEnd)"></path><path d="M4396.2265625,244.13860806432726L4301.895182291667,251.94884005360606C4207.563802083333,259.75907204288484,4018.9010416666665,275.37953602144245,3924.5696614583335,288.9397680107212C3830.23828125,302.5,3830.23828125,314,3830.23828125,330.5416666666667C3830.23828125,347.0833333333333,3830.23828125,368.6666666666667,3830.23828125,390.25C3830.23828125,411.8333333333333,3830.23828125,433.4166666666667,3830.23828125,449.9583333333333C3830.23828125,466.5,3830.23828125,478,3830.23828125,493.4166666666667C3830.23828125,508.8333333333333,3830.23828125,528.1666666666666,3830.23828125,549.0833333333334C3830.23828125,570,3830.23828125,592.5,3830.23828125,612.3333333333334C3830.23828125,632.1666666666666,3830.23828125,649.3333333333334,3830.23828125,664.9166666666666C3830.23828125,680.5,3830.23828125,694.5,3830.23828125,707.25C3830.23828125,720,3830.23828125,731.5,3830.23828125,743C3830.23828125,754.5,3830.23828125,766,3830.23828125,780.9583333333334C3830.23828125,795.9166666666666,3830.23828125,814.3333333333334,3830.23828125,834.3333333333334C3830.23828125,854.3333333333334,3830.23828125,875.9166666666666,3830.23828125,897.5C3830.23828125,919.0833333333334,3830.23828125,940.6666666666666,3830.23828125,960.6666666666666C3830.23828125,980.6666666666666,3830.23828125,999.0833333333334,3830.23828125,1014.0416666666666C3830.23828125,1029,3830.23828125,1040.5,3830.23828125,1057.0416666666667C3830.23828125,1073.5833333333333,3830.23828125,1095.1666666666667,3830.23828125,1116.75C3830.23828125,1138.3333333333333,3830.23828125,1159.9166666666667,3830.23828125,1176.4583333333333C3830.23828125,1193,3830.23828125,1204.5,3830.23828125,1219.4583333333333C3830.23828125,1234.4166666666667,3830.23828125,1252.8333333333333,3830.23828125,1272.8333333333333C3830.23828125,1292.8333333333333,3830.23828125,1314.4166666666667,3830.23828125,1330.9583333333333C3830.23828125,1347.5,3830.23828125,1359,3830.23828125,1373.9583333333333C3830.23828125,1388.9166666666667,3830.23828125,1407.3333333333333,3830.23828125,1425.75C3830.23828125,1444.1666666666667,3830.23828125,1462.5833333333333,3830.23828125,1477.5416666666667C3830.23828125,1492.5,3830.23828125,1504,3830.23828125,1520.5416666666667C3830.23828125,1537.0833333333333,3830.23828125,1558.6666666666667,3830.23828125,1578.6666666666667C3830.23828125,1598.6666666666667,3830.23828125,1617.0833333333333,3830.23828125,1632.0416666666667C3830.23828125,1647,3830.23828125,1658.5,3830.23828125,1675.0416666666667C3830.23828125,1691.5833333333333,3830.23828125,1713.1666666666667,3830.23828125,1734.75C3830.23828125,1756.3333333333333,3830.23828125,1777.9166666666667,3830.23828125,1799.5C3830.23828125,1821.0833333333333,3830.23828125,1842.6666666666667,3830.23828125,1864.25C3830.23828125,1885.8333333333333,3830.23828125,1907.4166666666667,3944.7454427083335,1923.9583333333333C4059.2526041666665,1940.5,4288.266927083333,1952,4364.235026041667,1964.2207561728394C4440.203125,1976.441512345679,4363.125,1989.3830246913578,4324.5859375,1995.8537808641975L4286.046875,2002.324537037037" id="edge2" class="transition" marker-end="url(#statediagram-barbEnd)"></path><path d="M4368.37109375,405.4830754352031L4301.703776041667,413.7358961960026C4235.036458333333,421.9887169568021,4101.701822916667,438.494358478401,4035.0345052083335,452.49717923920053C3968.3671875,466.5,3968.3671875,478,3968.3671875,493.4166666666667C3968.3671875,508.8333333333333,3968.3671875,528.1666666666666,3968.3671875,549.0833333333334C3968.3671875,570,3968.3671875,592.5,3968.3671875,612.3333333333334C3968.3671875,632.1666666666666,3968.3671875,649.3333333333334,3968.3671875,664.9166666666666C3968.3671875,680.5,3968.3671875,694.5,3968.3671875,707.25C3968.3671875,720,3968.3671875,731.5,3968.3671875,743C3968.3671875,754.5,3968.3671875,766,3968.3671875,780.9583333333334C3968.3671875,795.9166666666666,3968.3671875,814.3333333333334,3968.3671875,834.3333333333334C3968.3671875,854.3333333333334,3968.3671875,875.9166666666666,3968.3671875,897.5C3968.3671875,919.0833333333334,3968.3671875,940.6666666666666,3968.3671875,960.6666666666666C3968.3671875,980.6666666666666,3968.3671875,999.0833333333334,3968.3671875,1014.0416666666666C3968.3671875,1029,3968.3671875,1040.5,3968.3671875,1057.0416666666667C3968.3671875,1073.5833333333333,3968.3671875,1095.1666666666667,3968.3671875,1116.75C3968.3671875,1138.3333333333333,3968.3671875,1159.9166666666667,3968.3671875,1176.4583333333333C3968.3671875,1193,3968.3671875,1204.5,3968.3671875,1219.4583333333333C3968.3671875,1234.4166666666667,3968.3671875,1252.8333333333333,3968.3671875,1272.8333333333333C3968.3671875,1292.8333333333333,3968.3671875,1314.4166666666667,3968.3671875,1330.9583333333333C3968.3671875,1347.5,3968.3671875,1359,3968.3671875,1373.9583333333333C3968.3671875,1388.9166666666667,3968.3671875,1407.3333333333333,3968.3671875,1425.75C3968.3671875,1444.1666666666667,3968.3671875,1462.5833333333333,3968.3671875,1477.5416666666667C3968.3671875,1492.5,3968.3671875,1504,3968.3671875,1520.5416666666667C3968.3671875,1537.0833333333333,3968.3671875,1558.6666666666667,3968.3671875,1578.6666666666667C3968.3671875,1598.6666666666667,3968.3671875,1617.0833333333333,3968.3671875,1632.0416666666667C3968.3671875,1647,3968.3671875,1658.5,3968.3671875,1675.0416666666667C3968.3671875,1691.5833333333333,3968.3671875,1713.1666666666667,3968.3671875,1734.75C3968.3671875,1756.3333333333333,3968.3671875,1777.9166666666667,3968.3671875,1799.5C3968.3671875,1821.0833333333333,3968.3671875,1842.6666666666667,3968.3671875,1864.25C3968.3671875,1885.8333333333333,3968.3671875,1907.4166666666667,4077.4388020833335,1923.9583333333333C4186.510416666667,1940.5,4404.653645833333,1952,4457.600260416667,1964.885440261748C4510.546875,1977.770880523496,4398.296875,1992.0417610469924,4342.171875,1999.1772013087405L4286.046875,2006.3126415704887" id="edge3" class="transition" marker-end="url(#statediagram-barbEnd)"></path><path d="M2928.8823751206564,863L2922.203411558881,868.75C2915.5244479971043,874.5,2902.166520873552,886,2895.4875573117765,902.5416666666666C2888.80859375,919.0833333333334,2888.80859375,940.6666666666666,2888.80859375,960.6666666666666C2888.80859375,980.6666666666666,2888.80859375,999.0833333333334,2888.80859375,1014.0416666666666C2888.80859375,1029,2888.80859375,1040.5,2888.80859375,1057.0416666666667C2888.80859375,1073.5833333333333,2888.80859375,1095.1666666666667,2888.80859375,1116.75C2888.80859375,1138.3333333333333,2888.80859375,1159.9166666666667,2888.80859375,1176.4583333333333C2888.80859375,1193,2888.80859375,1204.5,2888.80859375,1219.4583333333333C2888.80859375,1234.4166666666667,2888.80859375,1252.8333333333333,2888.80859375,1272.8333333333333C2888.80859375,1292.8333333333333,2888.80859375,1314.4166666666667,2888.80859375,1330.9583333333333C2888.80859375,1347.5,2888.80859375,1359,2888.80859375,1373.9583333333333C2888.80859375,1388.9166666666667,2888.80859375,1407.3333333333333,2888.80859375,1425.75C2888.80859375,1444.1666666666667,2888.80859375,1462.5833333333333,2888.80859375,1477.5416666666667C2888.80859375,1492.5,2888.80859375,1504,2888.80859375,1520.5416666666667C2888.80859375,1537.0833333333333,2888.80859375,1558.6666666666667,2888.80859375,1578.6666666666667C2888.80859375,1598.6666666666667,2888.80859375,1617.0833333333333,2888.80859375,1632.0416666666667C2888.80859375,1647,2888.80859375,1658.5,2888.80859375,1675.0416666666667C2888.80859375,1691.5833333333333,2888.80859375,1713.1666666666667,2888.80859375,1734.75C2888.80859375,1756.3333333333333,2888.80859375,1777.9166666666667,2888.80859375,1799.5C2888.80859375,1821.0833333333333,2888.80859375,1842.6666666666667,2888.80859375,1864.25C2888.80859375,1885.8333333333333,2888.80859375,1907.4166666666667,3089.8990885416665,1923.9583333333333C3290.9895833333335,1940.5,3693.1705729166665,1952,3901.2646263433257,1961.9166666666667C4109.358679769985,1971.8333333333333,4123.36579703997,1980.1666666666667,4130.369355674962,1984.3333333333333L4137.3729143099545,1988.5" id="edge4" class="transition" marker-end="url(#statediagram-barbEnd)"></path><path d="M4090.390625,2030.1942115514905L4014.4453125,2039.0785096262423C3938.5,2047.9628077009936,3786.609375,2065.731403850497,3448.6178385416665,2084.8389356350776C3110.6263020833335,2103.9464674196583,2586.5338541666665,2124.3929348393167,2324.4876302083335,2134.6161685491456L2062.44140625,2144.839402258975" id="edge5" class="transition" marker-end="url(#statediagram-barbEnd)"></path><path d="M4510.244123787716,263.25L4507.107733364763,267.875C4503.971342941811,272.5,4497.698562095905,281.75,4494.562171672952,292.125C4491.42578125,302.5,4491.42578125,314,4491.42578125,325.5C4491.42578125,337,4491.42578125,348.5,4491.42578125,354.25L4491.42578125,360" id="edge6" class="transition" marker-end="url(#statediagram-barbEnd)"></path><path d="M4559.1634441361,420.5L4572.039198238417,426.25C4584.914952340733,432,4610.666460545367,443.5,4623.542214647684,455C4636.41796875,466.5,4636.41796875,478,4636.41796875,490.5833333333333C4636.41796875,503.1666666666667,4636.41796875,516.8333333333334,4636.41796875,523.6666666666666L4636.41796875,530.5" id="edge7" class="transition" marker-end="url(#statediagram-barbEnd)"></path><path d="M2981,673.8752633075068L2907.3639322916665,679.6460527562557C2833.7278645833335,685.4168422050046,2686.4557291666665,696.9584211025023,2612.8196614583335,708.4792105512512C2539.18359375,720,2539.18359375,731.5,2539.18359375,743C2539.18359375,754.5,2539.18359375,766,2539.18359375,780.9583333333334C2539.18359375,795.9166666666666,2539.18359375,814.3333333333334,2539.18359375,834.3333333333334C2539.18359375,854.3333333333334,2539.18359375,875.9166666666666,2539.18359375,897.5C2539.18359375,919.0833333333334,2539.18359375,940.6666666666666,2539.18359375,960.6666666666666C2539.18359375,980.6666666666666,2539.18359375,999.0833333333334,2539.18359375,1014.0416666666666C2539.18359375,1029,2539.18359375,1040.5,2539.18359375,1057.0416666666667C2539.18359375,1073.5833333333333,2539.18359375,1095.1666666666667,2539.18359375,1116.75C2539.18359375,1138.3333333333333,2539.18359375,1159.9166666666667,2539.18359375,1176.4583333333333C2539.18359375,1193,2539.18359375,1204.5,2539.18359375,1219.4583333333333C2539.18359375,1234.4166666666667,2539.18359375,1252.8333333333333,2539.18359375,1272.8333333333333C2539.18359375,1292.8333333333333,2539.18359375,1314.4166666666667,2539.18359375,1330.9583333333333C2539.18359375,1347.5,2539.18359375,1359,2539.18359375,1373.9583333333333C2539.18359375,1388.9166666666667,2539.18359375,1407.3333333333333,2539.18359375,1425.75C2539.18359375,1444.1666666666667,2539.18359375,1462.5833333333333,2539.18359375,1477.5416666666667C2539.18359375,1492.5,2539.18359375,1504,2539.18359375,1520.5416666666667C2539.18359375,1537.0833333333333,2539.18359375,1558.6666666666667,2539.18359375,1578.6666666666667C2539.18359375,1598.6666666666667,2539.18359375,1617.0833333333333,2539.18359375,1632.0416666666667C2539.18359375,1647,2539.18359375,1658.5,2539.18359375,1675.0416666666667C2539.18359375,1691.5833333333333,2539.18359375,1713.1666666666667,2539.18359375,1734.75C2539.18359375,1756.3333333333333,2539.18359375,1777.9166666666667,2539.18359375,1799.5C2539.18359375,1821.0833333333333,2539.18359375,1842.6666666666667,2539.18359375,1864.25C2539.18359375,1885.8333333333333,2539.18359375,1907.4166666666667,2539.18359375,1923.9583333333333C2539.18359375,1940.5,2539.18359375,1952,2539.18359375,1966.9583333333333C2539.18359375,1981.9166666666667,2539.18359375,2000.3333333333333,2539.18359375,2020.3333333333333C2539.18359375,2040.3333333333333,2539.18359375,2061.9166666666665,2459.7265625,2081.827742234778C2380.26953125,2101.7388178028887,2221.35546875,2119.9776356057773,2141.8984375,2129.0970445072217L2062.44140625,2138.216453408666" id="edge8" class="transition" marker-end="url(#statediagram-barbEnd)"></path><path d="M4530.85546875,552.0637798821601L4288.231119791667,562.5531499018001C4045.6067708333335,573.0425199214401,3560.3580729166665,594.02125996072,3317.7337239583335,610.26062998036C3075.109375,626.5,3075.109375,638,3075.109375,643.75L3075.109375,649.5" id="edge9" class="transition" marker-end="url(#statediagram-barbEnd)"></path><path d="M3416.03515625,863L3416.03515625,868.75C3416.03515625,874.5,3416.03515625,886,3416.03515625,902.5416666666666C3416.03515625,919.0833333333334,3416.03515625,940.6666666666666,3416.03515625,960.6666666666666C3416.03515625,980.6666666666666,3416.03515625,999.0833333333334,3416.03515625,1014.0416666666666C3416.03515625,1029,3416.03515625,1040.5,3416.03515625,1057.0416666666667C3416.03515625,1073.5833333333333,3416.03515625,1095.1666666666667,3416.03515625,1116.75C3416.03515625,1138.3333333333333,3416.03515625,1159.9166666666667,3416.03515625,1176.4583333333333C3416.03515625,1193,3416.03515625,1204.5,3416.03515625,1219.4583333333333C3416.03515625,1234.4166666666667,3416.03515625,1252.8333333333333,3416.03515625,1272.8333333333333C3416.03515625,1292.8333333333333,3416.03515625,1314.4166666666667,3416.03515625,1330.9583333333333C3416.03515625,1347.5,3416.03515625,1359,3416.03515625,1373.9583333333333C3416.03515625,1388.9166666666667,3416.03515625,1407.3333333333333,3416.03515625,1425.75C3416.03515625,1444.1666666666667,3416.03515625,1462.5833333333333,3416.03515625,1477.5416666666667C3416.03515625,1492.5,3416.03515625,1504,3416.03515625,1520.5416666666667C3416.03515625,1537.0833333333333,3416.03515625,1558.6666666666667,3416.03515625,1578.6666666666667C3416.03515625,1598.6666666666667,3416.03515625,1617.0833333333333,3416.03515625,1632.0416666666667C3416.03515625,1647,3416.03515625,1658.5,3416.03515625,1675.0416666666667C3416.03515625,1691.5833333333333,3416.03515625,1713.1666666666667,3416.03515625,1734.75C3416.03515625,1756.3333333333333,3416.03515625,1777.9166666666667,3416.03515625,1799.5C3416.03515625,1821.0833333333333,3416.03515625,1842.6666666666667,3416.03515625,1864.25C3416.03515625,1885.8333333333333,3416.03515625,1907.4166666666667,3343.7180989583335,1923.9583333333333C3271.4010416666665,1940.5,3126.7669270833335,1952,3054.4498697916665,1966.9583333333333C2982.1328125,1981.9166666666667,2982.1328125,2000.3333333333333,2982.1328125,2020.3333333333333C2982.1328125,2040.3333333333333,2982.1328125,2061.9166666666665,2828.8509114583335,2082.563235733319C2675.5690104166665,2103.209804799971,2369.0052083333335,2122.919609599942,2215.7233072916665,2132.7745119999277L2062.44140625,2142.629414399913" id="edge10" class="transition" marker-end="url(#statediagram-barbEnd)"></path><path d="M4530.85546875,554.3967707541713L4376.255859375,564.4973089618094C4221.65625,574.5978471694475,3912.45703125,594.7989235847238,3685.517578125,611.9533536314815C3458.578125,629.1077836782391,3313.8984375,643.2155673564782,3241.55859375,650.2694591955977L3169.21875,657.3233510347173" id="edge11" class="transition" marker-end="url(#statediagram-barbEnd)"></path><path d="M3478.2696549773755,802.5L3486.841899981146,798.3333333333334C3495.414144984917,794.1666666666666,3512.5586349924583,785.8333333333334,3521.1308799962294,775.9166666666666C3529.703125,766,3529.703125,754.5,3529.703125,743C3529.703125,731.5,3529.703125,720,3469.6223958333335,708.6991304048944C3409.5416666666665,697.398260809789,3289.3802083333335,686.296521619578,3229.2994791666665,680.7456520244724L3169.21875,675.1947824293669" id="edge12" class="transition" marker-end="url(#statediagram-barbEnd)"></path><path d="M3030.1444382440477,683.5L3019.1236204117063,687.6666666666666C3008.1028025793653,691.8333333333334,2986.0611669146824,700.1666666666666,2975.040349082341,710.0833333333334C2964.01953125,720,2964.01953125,731.5,2964.01953125,743C2964.01953125,754.5,2964.01953125,766,2964.01953125,775.9166666666666C2964.01953125,785.8333333333334,2964.01953125,794.1666666666666,2964.01953125,798.3333333333334L2964.01953125,802.5" id="edge13" class="transition" marker-end="url(#statediagram-barbEnd)"></path><path d="M2999.1566873793436,863L3005.835650941119,868.75C3012.5146145028957,874.5,3025.872541626448,886,3032.5515051882235,902.5416666666666C3039.23046875,919.0833333333334,3039.23046875,940.6666666666666,3039.23046875,960.6666666666666C3039.23046875,980.6666666666666,3039.23046875,999.0833333333334,3039.23046875,1014.0416666666666C3039.23046875,1029,3039.23046875,1040.5,3039.23046875,1057.0416666666667C3039.23046875,1073.5833333333333,3039.23046875,1095.1666666666667,3039.23046875,1116.75C3039.23046875,1138.3333333333333,3039.23046875,1159.9166666666667,3039.23046875,1176.4583333333333C3039.23046875,1193,3039.23046875,1204.5,3039.23046875,1219.4583333333333C3039.23046875,1234.4166666666667,3039.23046875,1252.8333333333333,3039.23046875,1272.8333333333333C3039.23046875,1292.8333333333333,3039.23046875,1314.4166666666667,3039.23046875,1330.9583333333333C3039.23046875,1347.5,3039.23046875,1359,3039.23046875,1373.9583333333333C3039.23046875,1388.9166666666667,3039.23046875,1407.3333333333333,3039.23046875,1425.75C3039.23046875,1444.1666666666667,3039.23046875,1462.5833333333333,3039.23046875,1477.5416666666667C3039.23046875,1492.5,3039.23046875,1504,3039.23046875,1520.5416666666667C3039.23046875,1537.0833333333333,3039.23046875,1558.6666666666667,3039.23046875,1578.6666666666667C3039.23046875,1598.6666666666667,3039.23046875,1617.0833333333333,3039.23046875,1632.0416666666667C3039.23046875,1647,3039.23046875,1658.5,3039.23046875,1675.0416666666667C3039.23046875,1691.5833333333333,3039.23046875,1713.1666666666667,3039.23046875,1734.75C3039.23046875,1756.3333333333333,3039.23046875,1777.9166666666667,3039.23046875,1799.5C3039.23046875,1821.0833333333333,3039.23046875,1842.6666666666667,3039.23046875,1864.25C3039.23046875,1885.8333333333333,3039.23046875,1907.4166666666667,2989.8118489583335,1923.9583333333333C2940.3932291666665,1940.5,2841.5559895833335,1952,2792.1373697916665,1966.9583333333333C2742.71875,1981.9166666666667,2742.71875,2000.3333333333333,2742.71875,2020.3333333333333C2742.71875,2040.3333333333333,2742.71875,2061.9166666666665,2629.3391927083335,2082.2710971805973C2515.9596354166665,2102.625527694528,2289.2005208333335,2121.7510553890565,2175.8209635416665,2131.3138192363203L2062.44140625,2140.8765830835846" id="edge14" class="transition" marker-end="url(#statediagram-barbEnd)"></path><path d="M4636.41796875,564.5L4636.41796875,572.9166666666666C4636.41796875,581.3333333333334,4636.41796875,598.1666666666666,4636.41796875,615.1666666666666C4636.41796875,632.1666666666666,4636.41796875,649.3333333333334,4636.41796875,664.9166666666666C4636.41796875,680.5,4636.41796875,694.5,4636.41796875,707.25C4636.41796875,720,4636.41796875,731.5,4636.41796875,743C4636.41796875,754.5,4636.41796875,766,4636.41796875,780.9583333333334C4636.41796875,795.9166666666666,4636.41796875,814.3333333333334,4636.41796875,834.3333333333334C4636.41796875,854.3333333333334,4636.41796875,875.9166666666666,4612.865030767374,892.4583333333334C4589.312092784749,909,4542.206216819498,920.5,4518.653278836872,926.25L4495.100340854247,932" id="edge15" class="transition" marker-end="url(#statediagram-barbEnd)"></path><path d="M3060.40234375,837.9217332754971L3245.45703125,847.8514443962476C3430.51171875,857.781155516998,3800.62109375,877.640577758499,4003.4773316843625,893.3202888792495C4206.333569618726,909,4241.936670487452,920.5,4259.738220921815,926.25L4277.539771356178,932" id="edge16" class="transition" marker-end="url(#statediagram-barbEnd)"></path><path d="M4272.38700155543,992.5L4258.777579421192,996.6666666666666C4245.168157286954,1000.8333333333334,4217.949313018477,1009.1666666666666,4204.339890884238,1019.0833333333334C4190.73046875,1029,4190.73046875,1040.5,4190.73046875,1052C4190.73046875,1063.5,4190.73046875,1075,4190.73046875,1080.75L4190.73046875,1086.5" id="edge17" class="transition" marker-end="url(#statediagram-barbEnd)"></path><path d="M4396.128835548642,992.5L4399.563743165535,996.6666666666666C4402.998650782428,1000.8333333333334,4409.868466016214,1009.1666666666666,4413.303373633107,1019.0833333333334C4416.73828125,1029,4416.73828125,1040.5,4416.73828125,1057.0416666666667C4416.73828125,1073.5833333333333,4416.73828125,1095.1666666666667,4416.73828125,1116.75C4416.73828125,1138.3333333333333,4416.73828125,1159.9166666666667,4416.73828125,1176.4583333333333C4416.73828125,1193,4416.73828125,1204.5,4408.216116374434,1214.4166666666667C4399.693951498869,1224.3333333333333,4382.649621747737,1232.6666666666667,4374.127456872172,1236.8333333333333L4365.605291996606,1241" id="edge18" class="transition" marker-end="url(#statediagram-barbEnd)"></path><path d="M4190.73046875,1147L4190.73046875,1152.75C4190.73046875,1158.5,4190.73046875,1170,4190.73046875,1181.5C4190.73046875,1193,4190.73046875,1204.5,4199.252633625566,1214.4166666666667C4207.774798501131,1224.3333333333333,4224.819128252263,1232.6666666666667,4233.341293127828,1236.8333333333333L4241.863458003394,1241" id="edge19" class="transition" marker-end="url(#statediagram-barbEnd)"></path><path d="M4203.8203125,1274.409560951507L3879.2102864583335,1284.6746341262558C3554.6002604166665,1294.9397073010048,2905.3802083333335,1315.4698536505023,2580.7701822916665,1331.4849268252513C2256.16015625,1347.5,2256.16015625,1359,2250.805706777903,1368.9166666666667C2245.451257305807,1378.8333333333333,2234.742358361614,1387.1666666666667,2229.3879088895173,1391.3333333333333L2224.033459417421,1395.5" id="edge20" class="transition" marker-end="url(#statediagram-barbEnd)"></path><path d="M2179.685043127828,1456L2178.930895314857,1460.1666666666667C2178.1767475018855,1464.3333333333333,2176.6684518759425,1472.6666666666667,2175.9143040629715,1482.5833333333333C2175.16015625,1492.5,2175.16015625,1504,2175.16015625,1520.5416666666667C2175.16015625,1537.0833333333333,2175.16015625,1558.6666666666667,2175.16015625,1578.6666666666667C2175.16015625,1598.6666666666667,2175.16015625,1617.0833333333333,2175.16015625,1632.0416666666667C2175.16015625,1647,2175.16015625,1658.5,2175.16015625,1675.0416666666667C2175.16015625,1691.5833333333333,2175.16015625,1713.1666666666667,2175.16015625,1734.75C2175.16015625,1756.3333333333333,2175.16015625,1777.9166666666667,2175.16015625,1799.5C2175.16015625,1821.0833333333333,2175.16015625,1842.6666666666667,2175.16015625,1864.25C2175.16015625,1885.8333333333333,2175.16015625,1907.4166666666667,2175.16015625,1923.9583333333333C2175.16015625,1940.5,2175.16015625,1952,2175.16015625,1966.9583333333333C2175.16015625,1981.9166666666667,2175.16015625,2000.3333333333333,2175.16015625,2020.3333333333333C2175.16015625,2040.3333333333333,2175.16015625,2061.9166666666665,2156.3736979166665,2078.786175735811C2137.5872395833335,2095.655684804955,2100.0143229166665,2107.8113696099094,2081.2278645833335,2113.889212012387L2062.44140625,2119.9670544148644" id="edge21" class="transition" marker-end="url(#statediagram-barbEnd)"></path><path d="M4090.390625,2039.1003714672959L4054.8177083333335,2046.5003095560799C4019.2447916666665,2053.900247644864,3948.0989583333335,2068.700123822432,3610.107421875,2086.3956924715353C3272.1158854166665,2104.0912611206386,2667.2786458333335,2124.682522241277,2364.8600260416665,2134.9781528015965L2062.44140625,2145.273783361916" id="edge22" class="transition" marker-end="url(#statediagram-barbEnd)"></path><path d="M4614.48046875,418.08355848479886L4641.682291666667,424.2362987373324C4668.884114583333,430.3890389898659,4723.287760416667,442.694519494933,4750.489583333333,454.59725974746647C4777.69140625,466.5,4777.69140625,478,4777.69140625,493.4166666666667C4777.69140625,508.8333333333333,4777.69140625,528.1666666666666,4777.69140625,549.0833333333334C4777.69140625,570,4777.69140625,592.5,4777.69140625,612.3333333333334C4777.69140625,632.1666666666666,4777.69140625,649.3333333333334,4777.69140625,664.9166666666666C4777.69140625,680.5,4777.69140625,694.5,4777.69140625,707.25C4777.69140625,720,4777.69140625,731.5,4777.69140625,743C4777.69140625,754.5,4777.69140625,766,4777.69140625,780.9583333333334C4777.69140625,795.9166666666666,4777.69140625,814.3333333333334,4777.69140625,834.3333333333334C4777.69140625,854.3333333333334,4777.69140625,875.9166666666666,4777.69140625,897.5C4777.69140625,919.0833333333334,4777.69140625,940.6666666666666,4777.69140625,960.6666666666666C4777.69140625,980.6666666666666,4777.69140625,999.0833333333334,4777.69140625,1014.0416666666666C4777.69140625,1029,4777.69140625,1040.5,4777.69140625,1057.0416666666667C4777.69140625,1073.5833333333333,4777.69140625,1095.1666666666667,4777.69140625,1116.75C4777.69140625,1138.3333333333333,4777.69140625,1159.9166666666667,4777.69140625,1176.4583333333333C4777.69140625,1193,4777.69140625,1204.5,4777.69140625,1219.4583333333333C4777.69140625,1234.4166666666667,4777.69140625,1252.8333333333333,4777.69140625,1272.8333333333333C4777.69140625,1292.8333333333333,4777.69140625,1314.4166666666667,4777.69140625,1330.9583333333333C4777.69140625,1347.5,4777.69140625,1359,4777.69140625,1373.9583333333333C4777.69140625,1388.9166666666667,4777.69140625,1407.3333333333333,4777.69140625,1425.75C4777.69140625,1444.1666666666667,4777.69140625,1462.5833333333333,4777.69140625,1477.5416666666667C4777.69140625,1492.5,4777.69140625,1504,4777.69140625,1520.5416666666667C4777.69140625,1537.0833333333333,4777.69140625,1558.6666666666667,4777.69140625,1578.6666666666667C4777.69140625,1598.6666666666667,4777.69140625,1617.0833333333333,4777.69140625,1632.0416666666667C4777.69140625,1647,4777.69140625,1658.5,4777.69140625,1675.0416666666667C4777.69140625,1691.5833333333333,4777.69140625,1713.1666666666667,4777.69140625,1734.75C4777.69140625,1756.3333333333333,4777.69140625,1777.9166666666667,4777.69140625,1799.5C4777.69140625,1821.0833333333333,4777.69140625,1842.6666666666667,4777.69140625,1864.25C4777.69140625,1885.8333333333333,4777.69140625,1907.4166666666667,4567.154296875,1923.9583333333333C4356.6171875,1940.5,3935.54296875,1952,3725.005859375,1966.9583333333333C3514.46875,1981.9166666666667,3514.46875,2000.3333333333333,3514.46875,2020.3333333333333C3514.46875,2040.3333333333333,3514.46875,2061.9166666666665,3272.4641927083335,2082.887165407677C3030.4596354166665,2103.857664148687,2546.4505208333335,2124.2153282973736,2304.4459635416665,2134.394160371717L2062.44140625,2144.5729924460607" id="edge23" class="transition" marker-end="url(#statediagram-barbEnd)"></path><path d="M2257.4316494626696,1456L2267.3864005938913,1460.1666666666667C2277.341151725113,1464.3333333333333,2297.2506539875562,1472.6666666666667,2083.7184259521114,1482.5833333333333C1870.1861979166667,1492.5,1423.2122395833333,1504,1189.3883727477478,1515.5C955.5645059121622,1527,934.8907305743243,1538.5,924.5538429054054,1544.25L914.2169552364865,1550" id="edge24" class="transition" marker-end="url(#statediagram-barbEnd)"></path><path d="M756.984375,1588.05812892491L652.8307291666666,1595.965107437425C548.6770833333334,1603.8720859499401,340.3697916666667,1619.6860429749702,236.21614583333334,1633.343021487485C132.0625,1647,132.0625,1658.5,132.0625,1675.0416666666667C132.0625,1691.5833333333333,132.0625,1713.1666666666667,132.0625,1734.75C132.0625,1756.3333333333333,132.0625,1777.9166666666667,132.0625,1799.5C132.0625,1821.0833333333333,132.0625,1842.6666666666667,132.0625,1864.25C132.0625,1885.8333333333333,132.0625,1907.4166666666667,350.7115885416667,1923.9583333333333C569.3606770833334,1940.5,1006.6588541666666,1952,1225.3079427083333,1966.9583333333333C1443.95703125,1981.9166666666667,1443.95703125,2000.3333333333333,1443.95703125,2020.3333333333333C1443.95703125,2040.3333333333333,1443.95703125,2061.9166666666665,1517.8971354166667,2081.7235090326C1591.8372395833333,2101.5303513985327,1739.7174479166667,2119.560702797066,1813.6575520833333,2128.5758784963323L1887.59765625,2137.5910541955986" id="edge25" class="transition" marker-end="url(#statediagram-barbEnd)"></path><path d="M924.4921875,1764.7051123408041L899.3294270833334,1770.5042602840033C874.1666666666666,1776.3034082272027,823.8411458333334,1787.9017041136012,798.6783854166666,1804.4925187234674C773.515625,1821.0833333333333,773.515625,1842.6666666666667,773.515625,1864.25C773.515625,1885.8333333333333,773.515625,1907.4166666666667,942.5143229166666,1923.9583333333333C1111.5130208333333,1940.5,1449.5104166666667,1952,1618.5091145833333,1966.9583333333333C1787.5078125,1981.9166666666667,1787.5078125,2000.3333333333333,1787.5078125,2020.3333333333333C1787.5078125,2040.3333333333333,1787.5078125,2061.9166666666665,1804.189453125,2078.4686998729244C1820.87109375,2095.0207330791823,1854.234375,2106.541466158365,1870.916015625,2112.3018326979563L1887.59765625,2118.0621992375477" id="edge26" class="transition" marker-end="url(#statediagram-barbEnd)"></path><path d="M837.1640625,2041.2257629313197L882.138671875,2048.271469109433C927.11328125,2055.3171752875464,1017.0625,2069.4085876437734,1192.134765625,2086.159071959684C1367.20703125,2102.909556275595,1627.40234375,2122.3191125511903,1757.5,2132.0238906889876L1887.59765625,2141.7286688267855" id="edge27" class="transition" marker-end="url(#statediagram-barbEnd)"></path><path d="M756.984375,1591.9404201288996L693.1119791666666,1599.2003501074166C629.2395833333334,1606.4602800859332,501.4947916666667,1620.9801400429667,437.6223958333333,1633.9900700214832C373.75,1647,373.75,1658.5,373.75,1675.0416666666667C373.75,1691.5833333333333,373.75,1713.1666666666667,373.75,1734.75C373.75,1756.3333333333333,373.75,1777.9166666666667,373.75,1799.5C373.75,1821.0833333333333,373.75,1842.6666666666667,373.75,1864.25C373.75,1885.8333333333333,373.75,1907.4166666666667,573.9251302083334,1923.9583333333333C774.1002604166666,1940.5,1174.4505208333333,1952,1374.6256510416667,1966.9583333333333C1574.80078125,1981.9166666666667,1574.80078125,2000.3333333333333,1574.80078125,2020.3333333333333C1574.80078125,2040.3333333333333,1574.80078125,2061.9166666666665,1626.93359375,2081.142719801671C1679.06640625,2100.368772936675,1783.33203125,2117.2375458733504,1835.46484375,2125.671932341688L1887.59765625,2134.1063188100256" id="edge28" class="transition" marker-end="url(#statediagram-barbEnd)"></path><path d="M756.984375,1604.2325332190312L734.6354166666666,1609.443777682526C712.2864583333334,1614.6550221460209,667.5885416666666,1625.0775110730103,645.2395833333334,1636.038755536505C622.890625,1647,622.890625,1658.5,622.890625,1675.0416666666667C622.890625,1691.5833333333333,622.890625,1713.1666666666667,622.890625,1734.75C622.890625,1756.3333333333333,622.890625,1777.9166666666667,622.890625,1799.5C622.890625,1821.0833333333333,622.890625,1842.6666666666667,622.890625,1864.25C622.890625,1885.8333333333333,622.890625,1907.4166666666667,803.970703125,1923.9583333333333C985.05078125,1940.5,1347.2109375,1952,1528.291015625,1966.9583333333333C1709.37109375,1981.9166666666667,1709.37109375,2000.3333333333333,1709.37109375,2020.3333333333333C1709.37109375,2040.3333333333333,1709.37109375,2061.9166666666665,1739.0755208333333,2079.948585418934C1768.7799479166667,2097.9805041712007,1828.1888020833333,2112.461008342401,1857.8932291666667,2119.701260428001L1887.59765625,2126.9415125136015" id="edge29" class="transition" marker-end="url(#statediagram-barbEnd)"></path><path d="M962.6875,1609.4462529603018L977.984375,1613.7885441335848C993.28125,1618.1308353068678,1023.875,1626.8154176534338,1039.171875,1636.9077088267168C1054.46875,1647,1054.46875,1658.5,1054.46875,1670C1054.46875,1681.5,1054.46875,1693,1054.46875,1698.75L1054.46875,1704.5" id="edge30" class="transition" marker-end="url(#statediagram-barbEnd)"></path><path d="M1041.4059181949806,1765L1038.9229005791506,1770.75C1036.4398829633203,1776.5,1031.4738477316603,1788,1028.99083011583,1804.5416666666667C1026.5078125,1821.0833333333333,1026.5078125,1842.6666666666667,1026.5078125,1864.25C1026.5078125,1885.8333333333333,1026.5078125,1907.4166666666667,1176.0904947916667,1923.9583333333333C1325.6731770833333,1940.5,1624.8385416666667,1952,1774.4212239583333,1966.9583333333333C1924.00390625,1981.9166666666667,1924.00390625,2000.3333333333333,1924.00390625,2020.3333333333333C1924.00390625,2040.3333333333333,1924.00390625,2061.9166666666665,1928.53425132722,2078.4583333333335C1933.0645964044404,2095,1942.1252865588804,2106.5,1946.6556316361005,2112.25L1951.1859767133205,2118" id="edge31" class="transition" marker-end="url(#statediagram-barbEnd)"></path><path d="M1159.4860340250966,1765L1179.4479971042472,1770.75C1199.4099601833977,1776.5,1239.3338863416989,1788,1259.2958494208494,1799.5C1279.2578125,1811,1279.2578125,1822.5,1279.2578125,1828.25L1279.2578125,1834" id="edge32" class="transition" marker-end="url(#statediagram-barbEnd)"></path><path d="M1279.2578125,1894.5L1279.2578125,1900.25C1279.2578125,1906,1279.2578125,1917.5,1181.6640625,1929C1084.0703125,1940.5,888.8828125,1952,791.2890625,1961.9166666666667C693.6953125,1971.8333333333333,693.6953125,1980.1666666666667,693.6953125,1984.3333333333333L693.6953125,1988.5" id="edge33" class="transition" marker-end="url(#statediagram-barbEnd)"></path><path d="M550.2265625,2047.1996895598809L519.716796875,2053.2497412999005C489.20703125,2059.2997930399206,428.1875,2071.3998965199603,397.677734375,2088.241614926647C367.16796875,2105.0833333333335,367.16796875,2126.6666666666665,367.16796875,2146.6666666666665C367.16796875,2166.6666666666665,367.16796875,2185.0833333333335,367.16796875,2200.0416666666665C367.16796875,2215,367.16796875,2226.5,367.16796875,2238C367.16796875,2249.5,367.16796875,2261,367.16796875,2266.75L367.16796875,2272.5" id="edge34" class="transition" marker-end="url(#statediagram-barbEnd)"></path><path d="M637.233877292471,2049L626.5015383687258,2054.75C615.7691994449807,2060.5,594.3045215974903,2072,583.5721826737451,2088.5416666666665C572.83984375,2105.0833333333335,572.83984375,2126.6666666666665,572.83984375,2146.6666666666665C572.83984375,2166.6666666666665,572.83984375,2185.0833333333335,572.83984375,2200.0416666666665C572.83984375,2215,572.83984375,2226.5,572.83984375,2238C572.83984375,2249.5,572.83984375,2261,572.83984375,2266.75L572.83984375,2272.5" id="edge35" class="transition" marker-end="url(#statediagram-barbEnd)"></path><path d="M750.156747707529,2049L760.8890866312742,2054.75C771.6214255550194,2060.5,793.0861034025097,2072,803.818442326255,2088.5416666666665C814.55078125,2105.0833333333335,814.55078125,2126.6666666666665,814.55078125,2146.6666666666665C814.55078125,2166.6666666666665,814.55078125,2185.0833333333335,814.55078125,2200.0416666666665C814.55078125,2215,814.55078125,2226.5,1384.525390625,2240.6654060525157C1954.5,2254.830812105032,3094.44921875,2271.661624210063,3664.423828125,2280.077030262579L4234.3984375,2288.4924363150944" id="edge36" class="transition" marker-end="url(#statediagram-barbEnd)"></path><path d="M1975.01953125,2178.5L1975.01953125,2182.6666666666665C1975.01953125,2186.8333333333335,1975.01953125,2195.1666666666665,1975.01953125,2205.0833333333335C1975.01953125,2215,1975.01953125,2226.5,2351.5826822916665,2240.5816835075602C2728.1458333333335,2254.66336701512,3481.2721354166665,2271.3267340302405,3857.8352864583335,2279.6584175378007L4234.3984375,2287.9901010453605" id="edge37" class="transition" marker-end="url(#statediagram-barbEnd)"></path><path d="M4286.046875,2026.0427396360824L4414.506510416667,2035.6189496967354C4542.966145833333,2045.1951597573882,4799.885416666667,2064.3475798786944,4928.345052083333,2084.715456606014C5056.8046875,2105.0833333333335,5056.8046875,2126.6666666666665,5056.8046875,2146.6666666666665C5056.8046875,2166.6666666666665,5056.8046875,2185.0833333333335,5056.8046875,2200.0416666666665C5056.8046875,2215,5056.8046875,2226.5,4942.484375,2240.0566516113663C4828.1640625,2253.613303222732,4599.5234375,2269.2266064454643,4485.203125,2277.0332580568306L4370.8828125,2284.8399096681965" id="edge38" class="transition" marker-end="url(#statediagram-barbEnd)"></path><path d="M4665.2890625,243.33634839484196L4768.682291666667,251.28029032903498C4872.075520833333,259.224232263228,5078.861979166667,275.11211613161396,5182.255208333333,288.806058065807C5285.6484375,302.5,5285.6484375,314,5285.6484375,330.5416666666667C5285.6484375,347.0833333333333,5285.6484375,368.6666666666667,5285.6484375,390.25C5285.6484375,411.8333333333333,5285.6484375,433.4166666666667,5285.6484375,449.9583333333333C5285.6484375,466.5,5285.6484375,478,5285.6484375,493.4166666666667C5285.6484375,508.8333333333333,5285.6484375,528.1666666666666,5285.6484375,549.0833333333334C5285.6484375,570,5285.6484375,592.5,5285.6484375,612.3333333333334C5285.6484375,632.1666666666666,5285.6484375,649.3333333333334,5285.6484375,664.9166666666666C5285.6484375,680.5,5285.6484375,694.5,5285.6484375,707.25C5285.6484375,720,5285.6484375,731.5,5285.6484375,743C5285.6484375,754.5,5285.6484375,766,5285.6484375,780.9583333333334C5285.6484375,795.9166666666666,5285.6484375,814.3333333333334,5285.6484375,834.3333333333334C5285.6484375,854.3333333333334,5285.6484375,875.9166666666666,5285.6484375,897.5C5285.6484375,919.0833333333334,5285.6484375,940.6666666666666,5285.6484375,960.6666666666666C5285.6484375,980.6666666666666,5285.6484375,999.0833333333334,5285.6484375,1014.0416666666666C5285.6484375,1029,5285.6484375,1040.5,5285.6484375,1057.0416666666667C5285.6484375,1073.5833333333333,5285.6484375,1095.1666666666667,5285.6484375,1116.75C5285.6484375,1138.3333333333333,5285.6484375,1159.9166666666667,5285.6484375,1176.4583333333333C5285.6484375,1193,5285.6484375,1204.5,5285.6484375,1219.4583333333333C5285.6484375,1234.4166666666667,5285.6484375,1252.8333333333333,5285.6484375,1272.8333333333333C5285.6484375,1292.8333333333333,5285.6484375,1314.4166666666667,5285.6484375,1330.9583333333333C5285.6484375,1347.5,5285.6484375,1359,5285.6484375,1373.9583333333333C5285.6484375,1388.9166666666667,5285.6484375,1407.3333333333333,5285.6484375,1425.75C5285.6484375,1444.1666666666667,5285.6484375,1462.5833333333333,5285.6484375,1477.5416666666667C5285.6484375,1492.5,5285.6484375,1504,5285.6484375,1520.5416666666667C5285.6484375,1537.0833333333333,5285.6484375,1558.6666666666667,5285.6484375,1578.6666666666667C5285.6484375,1598.6666666666667,5285.6484375,1617.0833333333333,5285.6484375,1632.0416666666667C5285.6484375,1647,5285.6484375,1658.5,5285.6484375,1675.0416666666667C5285.6484375,1691.5833333333333,5285.6484375,1713.1666666666667,5285.6484375,1734.75C5285.6484375,1756.3333333333333,5285.6484375,1777.9166666666667,5285.6484375,1799.5C5285.6484375,1821.0833333333333,5285.6484375,1842.6666666666667,5285.6484375,1864.25C5285.6484375,1885.8333333333333,5285.6484375,1907.4166666666667,5285.6484375,1923.9583333333333C5285.6484375,1940.5,5285.6484375,1952,5285.6484375,1966.9583333333333C5285.6484375,1981.9166666666667,5285.6484375,2000.3333333333333,5285.6484375,2020.3333333333333C5285.6484375,2040.3333333333333,5285.6484375,2061.9166666666665,5285.6484375,2083.5C5285.6484375,2105.0833333333335,5285.6484375,2126.6666666666665,5285.6484375,2146.6666666666665C5285.6484375,2166.6666666666665,5285.6484375,2185.0833333333335,5285.6484375,2200.0416666666665C5285.6484375,2215,5285.6484375,2226.5,5133.1875,2240.237462745877C4980.7265625,2253.9749254917547,4675.8046875,2269.949850983509,4523.34375,2277.937313729386L4370.8828125,2285.924776475263" id="edge39" class="transition" marker-end="url(#statediagram-barbEnd)"></path><path d="M4614.48046875,401.66178856557815L4710.339192708333,410.55149047131516C4806.197916666667,419.4411923770521,4997.915364583333,437.2205961885261,5093.774088541667,451.86029809426304C5189.6328125,466.5,5189.6328125,478,5189.6328125,493.4166666666667C5189.6328125,508.8333333333333,5189.6328125,528.1666666666666,5189.6328125,549.0833333333334C5189.6328125,570,5189.6328125,592.5,5189.6328125,612.3333333333334C5189.6328125,632.1666666666666,5189.6328125,649.3333333333334,5189.6328125,664.9166666666666C5189.6328125,680.5,5189.6328125,694.5,5189.6328125,707.25C5189.6328125,720,5189.6328125,731.5,5189.6328125,743C5189.6328125,754.5,5189.6328125,766,5189.6328125,780.9583333333334C5189.6328125,795.9166666666666,5189.6328125,814.3333333333334,5189.6328125,834.3333333333334C5189.6328125,854.3333333333334,5189.6328125,875.9166666666666,5189.6328125,897.5C5189.6328125,919.0833333333334,5189.6328125,940.6666666666666,5189.6328125,960.6666666666666C5189.6328125,980.6666666666666,5189.6328125,999.0833333333334,5189.6328125,1014.0416666666666C5189.6328125,1029,5189.6328125,1040.5,5189.6328125,1057.0416666666667C5189.6328125,1073.5833333333333,5189.6328125,1095.1666666666667,5189.6328125,1116.75C5189.6328125,1138.3333333333333,5189.6328125,1159.9166666666667,5189.6328125,1176.4583333333333C5189.6328125,1193,5189.6328125,1204.5,5189.6328125,1219.4583333333333C5189.6328125,1234.4166666666667,5189.6328125,1252.8333333333333,5189.6328125,1272.8333333333333C5189.6328125,1292.8333333333333,5189.6328125,1314.4166666666667,5189.6328125,1330.9583333333333C5189.6328125,1347.5,5189.6328125,1359,5189.6328125,1373.9583333333333C5189.6328125,1388.9166666666667,5189.6328125,1407.3333333333333,5189.6328125,1425.75C5189.6328125,1444.1666666666667,5189.6328125,1462.5833333333333,5189.6328125,1477.5416666666667C5189.6328125,1492.5,5189.6328125,1504,5189.6328125,1520.5416666666667C5189.6328125,1537.0833333333333,5189.6328125,1558.6666666666667,5189.6328125,1578.6666666666667C5189.6328125,1598.6666666666667,5189.6328125,1617.0833333333333,5189.6328125,1632.0416666666667C5189.6328125,1647,5189.6328125,1658.5,5189.6328125,1675.0416666666667C5189.6328125,1691.5833333333333,5189.6328125,1713.1666666666667,5189.6328125,1734.75C5189.6328125,1756.3333333333333,5189.6328125,1777.9166666666667,5189.6328125,1799.5C5189.6328125,1821.0833333333333,5189.6328125,1842.6666666666667,5189.6328125,1864.25C5189.6328125,1885.8333333333333,5189.6328125,1907.4166666666667,5189.6328125,1923.9583333333333C5189.6328125,1940.5,5189.6328125,1952,5189.6328125,1966.9583333333333C5189.6328125,1981.9166666666667,5189.6328125,2000.3333333333333,5189.6328125,2020.3333333333333C5189.6328125,2040.3333333333333,5189.6328125,2061.9166666666665,5189.6328125,2083.5C5189.6328125,2105.0833333333335,5189.6328125,2126.6666666666665,5189.6328125,2146.6666666666665C5189.6328125,2166.6666666666665,5189.6328125,2185.0833333333335,5189.6328125,2200.0416666666665C5189.6328125,2215,5189.6328125,2226.5,5053.174479166667,2240.172960614201C4916.716145833333,2253.8459212284024,4643.799479166667,2269.691842456805,4507.341145833333,2277.614803071006L4370.8828125,2285.537763685207" id="edge40" class="transition" marker-end="url(#statediagram-barbEnd)"></path><path d="M3167.094680059524,683.5L3189.64009796627,687.6666666666666C3212.185515873016,691.8333333333334,3257.2763516865075,700.1666666666666,3279.821769593254,710.0833333333334C3302.3671875,720,3302.3671875,731.5,3302.3671875,743C3302.3671875,754.5,3302.3671875,766,3310.9394325037706,775.9166666666666C3319.5116775075417,785.8333333333334,3336.656167515083,794.1666666666666,3345.228412518854,798.3333333333334L3353.8006575226245,802.5" id="edge41" class="transition" marker-end="url(#statediagram-barbEnd)"></path><path d="M4459.430553591629,992.5L4471.584706118024,996.6666666666666C4483.738858644419,1000.8333333333334,4508.04716369721,1009.1666666666666,4520.201316223604,1019.0833333333334C4532.35546875,1029,4532.35546875,1040.5,4532.35546875,1057.0416666666667C4532.35546875,1073.5833333333333,4532.35546875,1095.1666666666667,4532.35546875,1116.75C4532.35546875,1138.3333333333333,4532.35546875,1159.9166666666667,4532.35546875,1176.4583333333333C4532.35546875,1193,4532.35546875,1204.5,4532.35546875,1219.4583333333333C4532.35546875,1234.4166666666667,4532.35546875,1252.8333333333333,4532.35546875,1272.8333333333333C4532.35546875,1292.8333333333333,4532.35546875,1314.4166666666667,4532.35546875,1330.9583333333333C4532.35546875,1347.5,4532.35546875,1359,4532.35546875,1373.9583333333333C4532.35546875,1388.9166666666667,4532.35546875,1407.3333333333333,4532.35546875,1425.75C4532.35546875,1444.1666666666667,4532.35546875,1462.5833333333333,4532.35546875,1477.5416666666667C4532.35546875,1492.5,4532.35546875,1504,4532.35546875,1520.5416666666667C4532.35546875,1537.0833333333333,4532.35546875,1558.6666666666667,4532.35546875,1578.6666666666667C4532.35546875,1598.6666666666667,4532.35546875,1617.0833333333333,4532.35546875,1632.0416666666667C4532.35546875,1647,4532.35546875,1658.5,4532.35546875,1675.0416666666667C4532.35546875,1691.5833333333333,4532.35546875,1713.1666666666667,4532.35546875,1734.75C4532.35546875,1756.3333333333333,4532.35546875,1777.9166666666667,4532.35546875,1799.5C4532.35546875,1821.0833333333333,4532.35546875,1842.6666666666667,4532.35546875,1864.25C4532.35546875,1885.8333333333333,4532.35546875,1907.4166666666667,4349.208984375,1923.9583333333333C4166.0625,1940.5,3799.76953125,1952,3616.623046875,1966.9583333333333C3433.4765625,1981.9166666666667,3433.4765625,2000.3333333333333,3433.4765625,2020.3333333333333C3433.4765625,2040.3333333333333,3433.4765625,2061.9166666666665,3204.970703125,2082.8531329931834C2976.46484375,2103.7895993197003,2519.453125,2124.079198639401,2290.947265625,2134.2239982992514L2062.44140625,2144.368797959102" id="edge42" class="transition" marker-end="url(#statediagram-barbEnd)"></path><path d="M216.125,1450.75L216.125,1455.7916666666667C216.125,1460.8333333333333,216.125,1470.9166666666667,216.125,1481.7083333333333C216.125,1492.5,216.125,1504,306.2682291666667,1518.8173837409229C396.4114583333333,1533.6347674818455,576.6979166666666,1551.7695349636913,666.8411458333334,1560.836918704614L756.984375,1569.9043024455368" class="transition note-edge"></path><path d="M1235.83203125,2043.75L1235.83203125,2050.375C1235.83203125,2057,1235.83203125,2070.25,1344.4596354166667,2086.390362975959C1453.0872395833333,2102.5307259519177,1670.3424479166667,2121.561451903836,1778.9700520833333,2131.0768148797947L1887.59765625,2140.5921778557536" class="transition note-edge"></path><path d="M2603.32421875,580.5L2603.32421875,586.25C2603.32421875,592,2603.32421875,603.5,2666.2701822916665,616.1211723534558C2729.2161458333335,628.7423447069117,2855.1080729166665,642.4846894138233,2918.0540364583335,649.3558617672791L2981,656.2270341207349" class="transition note-edge"></path><path d="M4371.19140625,857.75L4371.19140625,864.375C4371.19140625,871,4371.19140625,884.25,4371.19140625,896.625C4371.19140625,909,4371.19140625,920.5,4371.19140625,926.25L4371.19140625,932" class="transition note-edge"></path><path d="M2114.16015625,1296.25L2114.16015625,1302.875C2114.16015625,1309.5,2114.16015625,1322.75,2114.16015625,1335.125C2114.16015625,1347.5,2114.16015625,1359,2119.514605722097,1368.9166666666667C2124.869055194193,1378.8333333333333,2135.577954138386,1387.1666666666667,2140.9324036104827,1391.3333333333333L2146.286853082579,1395.5" class="transition note-edge"></path><path d="M4302.640625,2306.5L4302.640625,2310.6666666666665C4302.640625,2314.8333333333335,4302.640625,2323.1666666666665,3718.7187015332383,2332.656032440751C3134.796778066477,2342.145398214835,1966.9529311329545,2352.79079642967,1383.0310076661933,2358.1134955370876L799.1090841994318,2363.436194644505" id="edge43" class="transition" marker-end="url(#statediagram-barbEnd)"></path><path d="M367.16796875,2306.5L367.16796875,2310.6666666666665C367.16796875,2314.8333333333335,367.16796875,2323.1666666666665,436.8281637366811,2332.5790594658965C506.48835872336235,2341.9914522651266,645.8087486967247,2352.482904530253,715.4689436834059,2357.728630662816L785.1291386700871,2362.9743567953797" id="edge44" class="transition" marker-end="url(#statediagram-barbEnd)"></path><path d="M572.83984375,2306.5L572.83984375,2310.6666666666665C572.83984375,2314.8333333333335,572.83984375,2323.1666666666665,608.2303279236764,2332.4981890572526C643.6208120973529,2341.8297114478387,714.4017804447058,2352.159422895677,749.7922646183821,2357.324278619596L785.1827487920586,2362.489134343515" id="edge45" class="transition" marker-end="url(#statediagram-barbEnd)"></path></g><g class="edgeLabels"><g class="edgeLabel"><g class="label" transform="translate(0, 0)"><rect rx="0" ry="0" width="0" height="0" style="fill:#e8e8e8;"></rect><text style=""></text></g></g><g class="edgeLabel"><g class="label" transform="translate(0, 0)"><rect rx="0" ry="0" width="0" height="0" style="fill:#e8e8e8;"></rect><text style=""></text></g></g><g class="edgeLabel" transform="translate(1769.37109375, 165.5)"><g class="label" transform="translate(-68.6875, -9.5)"><rect rx="0" ry="0" width="137.296875" height="19.03125" style="fill:#e8e8e8;"></rect><text style=""><tspan xml:space="preserve" dy="1em" x="0" class="row">ProviderEventOpen</tspan></text></g></g><g class="edgeLabel" transform="translate(3830.23828125, 1116.75)"><g class="label" transform="translate(-98.203125, -9.5)"><rect rx="0" ry="0" width="196.296875" height="19.03125" style="fill:#e8e8e8;"></rect><text style=""><tspan xml:space="preserve" dy="1em" x="0" class="row">ProviderEventDealRejected</tspan></text></g></g><g class="edgeLabel" transform="translate(3968.3671875, 1181.5)"><g class="label" transform="translate(-98.203125, -9.5)"><rect rx="0" ry="0" width="196.296875" height="19.03125" style="fill:#e8e8e8;"></rect><text style=""><tspan xml:space="preserve" dy="1em" x="0" class="row">ProviderEventDealRejected</tspan></text></g></g><g class="edgeLabel" transform="translate(2888.80859375, 1425.75)"><g class="label" transform="translate(-98.203125, -9.5)"><rect rx="0" ry="0" width="196.296875" height="19.03125" style="fill:#e8e8e8;"></rect><text style=""><tspan xml:space="preserve" dy="1em" x="0" class="row">ProviderEventDealRejected</tspan></text></g></g><g class="edgeLabel" transform="translate(3634.71875, 2083.5)"><g class="label" transform="translate(-100.25, -9.5)"><rect rx="0" ry="0" width="200.375" height="19.03125" style="fill:#e8e8e8;"></rect><text style=""><tspan xml:space="preserve" dy="1em" x="0" class="row">ProviderEventRejectionSent</tspan></text></g></g><g class="edgeLabel" transform="translate(4491.42578125, 325.5)"><g class="label" transform="translate(-96.5703125, -9.5)"><rect rx="0" ry="0" width="193.03125" height="19.03125" style="fill:#e8e8e8;"></rect><text style=""><tspan xml:space="preserve" dy="1em" x="0" class="row">ProviderEventDealDeciding</tspan></text></g></g><g class="edgeLabel" transform="translate(4636.41796875, 455)"><g class="label" transform="translate(-104.03125, -9.5)"><rect rx="0" ry="0" width="207.9375" height="19.03125" style="fill:#e8e8e8;"></rect><text style=""><tspan xml:space="preserve" dy="1em" x="0" class="row">ProviderEventDataRequested</tspan></text></g></g><g class="edgeLabel" transform="translate(2539.18359375, 1425.75)"><g class="label" transform="translate(-118.4453125, -9.5)"><rect rx="0" ry="0" width="236.75" height="19.03125" style="fill:#e8e8e8;"></rect><text style=""><tspan xml:space="preserve" dy="1em" x="0" class="row">ProviderEventDataTransferFailed</tspan></text></g></g><g class="edgeLabel" transform="translate(3075.109375, 615)"><g class="label" transform="translate(-127.109375, -9.5)"><rect rx="0" ry="0" width="254.0625" height="19.03125" style="fill:#e8e8e8;"></rect><text style=""><tspan xml:space="preserve" dy="1em" x="0" class="row">ProviderEventDataTransferInitiated</tspan></text></g></g><g class="edgeLabel" transform="translate(3416.03515625, 1515.5)"><g class="label" transform="translate(-144.359375, -9.5)"><rect rx="0" ry="0" width="288.546875" height="19.03125" style="fill:#e8e8e8;"></rect><text style=""><tspan xml:space="preserve" dy="1em" x="0" class="row">ProviderEventDataTransferRestartFailed</tspan></text></g></g><g class="edgeLabel" transform="translate(3603.2578125, 615)"><g class="label" transform="translate(-131.3203125, -9.5)"><rect rx="0" ry="0" width="262.484375" height="19.03125" style="fill:#e8e8e8;"></rect><text style=""><tspan xml:space="preserve" dy="1em" x="0" class="row">ProviderEventDataTransferRestarted</tspan></text></g></g><g class="edgeLabel" transform="translate(3529.703125, 743)"><g class="label" transform="translate(-131.3203125, -9.5)"><rect rx="0" ry="0" width="262.484375" height="19.03125" style="fill:#e8e8e8;"></rect><text style=""><tspan xml:space="preserve" dy="1em" x="0" class="row">ProviderEventDataTransferRestarted</tspan></text></g></g><g class="edgeLabel" transform="translate(2964.01953125, 743)"><g class="label" transform="translate(-135.4765625, -9.5)"><rect rx="0" ry="0" width="270.78125" height="19.03125" style="fill:#e8e8e8;"></rect><text style=""><tspan xml:space="preserve" dy="1em" x="0" class="row">ProviderEventDataTransferCompleted</tspan></text></g></g><g class="edgeLabel" transform="translate(3039.23046875, 1515.5)"><g class="label" transform="translate(-130.421875, -9.5)"><rect rx="0" ry="0" width="260.6875" height="19.03125" style="fill:#e8e8e8;"></rect><text style=""><tspan xml:space="preserve" dy="1em" x="0" class="row">ProviderEventDataVerificationFailed</tspan></text></g></g><g class="edgeLabel" transform="translate(4636.41796875, 743)"><g class="label" transform="translate(-95.1015625, -9.5)"><rect rx="0" ry="0" width="190.078125" height="19.03125" style="fill:#e8e8e8;"></rect><text style=""><tspan xml:space="preserve" dy="1em" x="0" class="row">ProviderEventVerifiedData</tspan></text></g></g><g class="edgeLabel" transform="translate(4170.73046875, 897.5)"><g class="label" transform="translate(-95.1015625, -9.5)"><rect rx="0" ry="0" width="190.078125" height="19.03125" style="fill:#e8e8e8;"></rect><text style=""><tspan xml:space="preserve" dy="1em" x="0" class="row">ProviderEventVerifiedData</tspan></text></g></g><g class="edgeLabel" transform="translate(4190.73046875, 1052)"><g class="label" transform="translate(-108.6953125, -9.5)"><rect rx="0" ry="0" width="217.265625" height="19.03125" style="fill:#e8e8e8;"></rect><text style=""><tspan xml:space="preserve" dy="1em" x="0" class="row">ProviderEventFundingInitiated</tspan></text></g></g><g class="edgeLabel" transform="translate(4416.73828125, 1116.75)"><g class="label" transform="translate(-76.3203125, -9.5)"><rect rx="0" ry="0" width="152.546875" height="19.03125" style="fill:#e8e8e8;"></rect><text style=""><tspan xml:space="preserve" dy="1em" x="0" class="row">ProviderEventFunded</tspan></text></g></g><g class="edgeLabel" transform="translate(4190.73046875, 1181.5)"><g class="label" transform="translate(-76.3203125, -9.5)"><rect rx="0" ry="0" width="152.546875" height="19.03125" style="fill:#e8e8e8;"></rect><text style=""><tspan xml:space="preserve" dy="1em" x="0" class="row">ProviderEventFunded</tspan></text></g></g><g class="edgeLabel" transform="translate(2256.16015625, 1336)"><g class="label" transform="translate(-122, -9.5)"><rect rx="0" ry="0" width="243.859375" height="19.03125" style="fill:#e8e8e8;"></rect><text style=""><tspan xml:space="preserve" dy="1em" x="0" class="row">ProviderEventDealPublishInitiated</tspan></text></g></g><g class="edgeLabel" transform="translate(2175.16015625, 1799.5)"><g class="label" transform="translate(-109.3828125, -9.5)"><rect rx="0" ry="0" width="218.625" height="19.03125" style="fill:#e8e8e8;"></rect><text style=""><tspan xml:space="preserve" dy="1em" x="0" class="row">ProviderEventDealPublishError</tspan></text></g></g><g class="edgeLabel" transform="translate(3876.953125, 2083.5)"><g class="label" transform="translate(-121.984375, -9.5)"><rect rx="0" ry="0" width="243.828125" height="19.03125" style="fill:#e8e8e8;"></rect><text style=""><tspan xml:space="preserve" dy="1em" x="0" class="row">ProviderEventSendResponseFailed</tspan></text></g></g><g class="edgeLabel" transform="translate(4777.69140625, 1271.25)"><g class="label" transform="translate(-121.984375, -9.5)"><rect rx="0" ry="0" width="243.828125" height="19.03125" style="fill:#e8e8e8;"></rect><text style=""><tspan xml:space="preserve" dy="1em" x="0" class="row">ProviderEventSendResponseFailed</tspan></text></g></g><g class="edgeLabel" transform="translate(976.23828125, 1515.5)"><g class="label" transform="translate(-100.296875, -9.5)"><rect rx="0" ry="0" width="200.46875" height="19.03125" style="fill:#e8e8e8;"></rect><text style=""><tspan xml:space="preserve" dy="1em" x="0" class="row">ProviderEventDealPublished</tspan></text></g></g><g class="edgeLabel" transform="translate(132.0625, 1864.25)"><g class="label" transform="translate(-108.8203125, -9.5)"><rect rx="0" ry="0" width="217.5" height="19.03125" style="fill:#e8e8e8;"></rect><text style=""><tspan xml:space="preserve" dy="1em" x="0" class="row">ProviderEventFileStoreErrored</tspan></text></g></g><g class="edgeLabel" transform="translate(773.515625, 1929)"><g class="label" transform="translate(-108.8203125, -9.5)"><rect rx="0" ry="0" width="217.5" height="19.03125" style="fill:#e8e8e8;"></rect><text style=""><tspan xml:space="preserve" dy="1em" x="0" class="row">ProviderEventFileStoreErrored</tspan></text></g></g><g class="edgeLabel" transform="translate(1107.01171875, 2083.5)"><g class="label" transform="translate(-108.8203125, -9.5)"><rect rx="0" ry="0" width="217.5" height="19.03125" style="fill:#e8e8e8;"></rect><text style=""><tspan xml:space="preserve" dy="1em" x="0" class="row">ProviderEventFileStoreErrored</tspan></text></g></g><g class="edgeLabel" transform="translate(373.75, 1864.25)"><g class="label" transform="translate(-112.8671875, -9.5)"><rect rx="0" ry="0" width="225.59375" height="19.03125" style="fill:#e8e8e8;"></rect><text style=""><tspan xml:space="preserve" dy="1em" x="0" class="row">ProviderEventMultistoreErrored</tspan></text></g></g><g class="edgeLabel" transform="translate(622.890625, 1864.25)"><g class="label" transform="translate(-116.2734375, -9.5)"><rect rx="0" ry="0" width="232.40625" height="19.03125" style="fill:#e8e8e8;"></rect><text style=""><tspan xml:space="preserve" dy="1em" x="0" class="row">ProviderEventDealHandoffFailed</tspan></text></g></g><g class="edgeLabel" transform="translate(1054.46875, 1670)"><g class="label" transform="translate(-104.3671875, -9.5)"><rect rx="0" ry="0" width="208.609375" height="19.03125" style="fill:#e8e8e8;"></rect><text style=""><tspan xml:space="preserve" dy="1em" x="0" class="row">ProviderEventDealHandedOff</tspan></text></g></g><g class="edgeLabel" transform="translate(1026.5078125, 1929)"><g class="label" transform="translate(-124.171875, -9.5)"><rect rx="0" ry="0" width="248.1875" height="19.03125" style="fill:#e8e8e8;"></rect><text style=""><tspan xml:space="preserve" dy="1em" x="0" class="row">ProviderEventDealActivationFailed</tspan></text></g></g><g class="edgeLabel" transform="translate(1279.2578125, 1799.5)"><g class="label" transform="translate(-100.1796875, -9.5)"><rect rx="0" ry="0" width="200.234375" height="19.03125" style="fill:#e8e8e8;"></rect><text style=""><tspan xml:space="preserve" dy="1em" x="0" class="row">ProviderEventDealActivated</tspan></text></g></g><g class="edgeLabel" transform="translate(1279.2578125, 1929)"><g class="label" transform="translate(-108.578125, -9.5)"><rect rx="0" ry="0" width="217.015625" height="19.03125" style="fill:#e8e8e8;"></rect><text style=""><tspan xml:space="preserve" dy="1em" x="0" class="row">ProviderEventCleanupFinished</tspan></text></g></g><g class="edgeLabel" transform="translate(367.16796875, 2148.25)"><g class="label" transform="translate(-92.7734375, -9.5)"><rect rx="0" ry="0" width="185.4375" height="19.03125" style="fill:#e8e8e8;"></rect><text style=""><tspan xml:space="preserve" dy="1em" x="0" class="row">ProviderEventDealSlashed</tspan></text></g></g><g class="edgeLabel" transform="translate(572.83984375, 2148.25)"><g class="label" transform="translate(-92.8984375, -9.5)"><rect rx="0" ry="0" width="185.6875" height="19.03125" style="fill:#e8e8e8;"></rect><text style=""><tspan xml:space="preserve" dy="1em" x="0" class="row">ProviderEventDealExpired</tspan></text></g></g><g class="edgeLabel" transform="translate(814.55078125, 2148.25)"><g class="label" transform="translate(-128.8125, -9.5)"><rect rx="0" ry="0" width="257.46875" height="19.03125" style="fill:#e8e8e8;"></rect><text style=""><tspan xml:space="preserve" dy="1em" x="0" class="row">ProviderEventDealCompletionFailed</tspan></text></g></g><g class="edgeLabel" transform="translate(1975.01953125, 2238)"><g class="label" transform="translate(-71.96875, -9.5)"><rect rx="0" ry="0" width="143.84375" height="19.03125" style="fill:#e8e8e8;"></rect><text style=""><tspan xml:space="preserve" dy="1em" x="0" class="row">ProviderEventFailed</tspan></text></g></g><g class="edgeLabel" transform="translate(5056.8046875, 2148.25)"><g class="label" transform="translate(-76.015625, -9.5)"><rect rx="0" ry="0" width="151.9375" height="19.03125" style="fill:#e8e8e8;"></rect><text style=""><tspan xml:space="preserve" dy="1em" x="0" class="row">ProviderEventRestart</tspan></text></g></g><g class="edgeLabel" transform="translate(5285.6484375, 1271.25)"><g class="label" transform="translate(-76.015625, -9.5)"><rect rx="0" ry="0" width="151.9375" height="19.03125" style="fill:#e8e8e8;"></rect><text style=""><tspan xml:space="preserve" dy="1em" x="0" class="row">ProviderEventRestart</tspan></text></g></g><g class="edgeLabel" transform="translate(5189.6328125, 1336)"><g class="label" transform="translate(-76.015625, -9.5)"><rect rx="0" ry="0" width="151.9375" height="19.03125" style="fill:#e8e8e8;"></rect><text style=""><tspan xml:space="preserve" dy="1em" x="0" class="row">ProviderEventRestart</tspan></text></g></g><g class="edgeLabel" transform="translate(3302.3671875, 743)"><g class="label" transform="translate(-76.015625, -9.5)"><rect rx="0" ry="0" width="151.9375" height="19.03125" style="fill:#e8e8e8;"></rect><text style=""><tspan xml:space="preserve" dy="1em" x="0" class="row">ProviderEventRestart</tspan></text></g></g><g class="edgeLabel" transform="translate(4532.35546875, 1580.25)"><g class="label" transform="translate(-112.5546875, -9.5)"><rect rx="0" ry="0" width="224.984375" height="19.03125" style="fill:#e8e8e8;"></rect><text style=""><tspan xml:space="preserve" dy="1em" x="0" class="row">ProviderEventTrackFundsFailed</tspan></text></g></g><g class="edgeLabel"><g class="label" transform="translate(0, 0)"><rect rx="0" ry="0" width="0" height="0" style="fill:#e8e8e8;"></rect><text style=""></text></g></g><g class="edgeLabel"><g class="label" transform="translate(0, 0)"><rect rx="0" ry="0" width="0" height="0" style="fill:#e8e8e8;"></rect><text style=""></text></g></g><g class="edgeLabel"><g class="label" transform="translate(0, 0)"><rect rx="0" ry="0" width="0" height="0" style="fill:#e8e8e8;"></rect><text style=""></text></g></g><g class="edgeLabel"><g class="label" transform="translate(0, 0)"><rect rx="0" ry="0" width="0" height="0" style="fill:#e8e8e8;"></rect><text style=""></text></g></g><g class="edgeLabel"><g class="label" transform="translate(0, 0)"><rect rx="0" ry="0" width="0" height="0" style="fill:#e8e8e8;"></rect><text style=""></text></g></g><g class="edgeLabel"><g class="label" transform="translate(0, 0)"><rect rx="0" ry="0" width="0" height="0" style="fill:#e8e8e8;"></rect><text style=""></text></g></g><g class="edgeLabel"><g class="label" transform="translate(0, 0)"><rect rx="0" ry="0" width="0" height="0" style="fill:#e8e8e8;"></rect><text style=""></text></g></g><g class="edgeLabel"><g class="label" transform="translate(0, 0)"><rect rx="0" ry="0" width="0" height="0" style="fill:#e8e8e8;"></rect><text style=""></text></g></g></g><g class="nodes"><g class="node statediagram-state" id="0" transform="translate(1658.69140625, 114)"><rect class="outer title-state" x="-82.921875" y="-17" width="165.84375" height="34"></rect><line class="divider" x1="-82.921875" x2="82.921875" y1="9.5" y2="9.5"></line><g class="label" transform="translate(-75.421875, -14)"><text style=""><tspan xml:space="preserve" dy="1em" x="0" class="title-row">StorageDealUnknown</tspan></text><text style="" transform="translate( 0, 26.5)"><tspan xml:space="preserve" dy="1em" x="0" class="title-row"></tspan></text></g></g><g class="node statediagram-state" id="4" transform="translate(859.8359375, 1580.25)"><rect class="outer title-state" x="-102.8515625" y="-30.25" width="205.703125" height="60.5"></rect><line class="divider" x1="-102.8515625" x2="102.8515625" y1="-3.75" y2="-3.75"></line><g class="label" transform="translate(-95.3515625, -27.25)"><text style=""><tspan xml:space="preserve" dy="1em" x="0" class="title-row">StorageDealStaged</tspan></text><text style="" transform="translate( 0, 26.5)"><tspan xml:space="preserve" dy="1em" x="0" class="title-row">On entry runs HandoffDeal</tspan></text></g></g><g class="node statediagram-state" id="5" transform="translate(1054.46875, 1734.75)"><rect class="outer title-state" x="-129.9765625" y="-30.25" width="259.953125" height="60.5"></rect><line class="divider" x1="-129.9765625" x2="129.9765625" y1="-3.75" y2="-3.75"></line><g class="label" transform="translate(-122.4765625, -27.25)"><text style=""><tspan xml:space="preserve" dy="1em" x="0" class="title-row">StorageDealSealing</tspan></text><text style="" transform="translate( 0, 26.5)"><tspan xml:space="preserve" dy="1em" x="0" class="title-row">On entry runs VerifyDealActivated</tspan></text></g></g><g class="node statediagram-state" id="6" transform="translate(1279.2578125, 1864.25)"><rect class="outer title-state" x="-103.2890625" y="-30.25" width="206.578125" height="60.5"></rect><line class="divider" x1="-103.2890625" x2="103.2890625" y1="-3.75" y2="-3.75"></line><g class="label" transform="translate(-95.7890625, -27.25)"><text style=""><tspan xml:space="preserve" dy="1em" x="0" class="title-row">StorageDealFinalizing</tspan></text><text style="" transform="translate( 0, 26.5)"><tspan xml:space="preserve" dy="1em" x="0" class="title-row">On entry runs CleanupDeal</tspan></text></g></g><g class="node statediagram-state" id="7" transform="translate(693.6953125, 2018.75)"><rect class="outer title-state" x="-143.46875" y="-30.25" width="286.9375" height="60.5"></rect><line class="divider" x1="-143.46875" x2="143.46875" y1="-3.75" y2="-3.75"></line><g class="label" transform="translate(-135.96875, -27.25)"><text style=""><tspan xml:space="preserve" dy="1em" x="0" class="title-row">StorageDealActive</tspan></text><text style="" transform="translate( 0, 26.5)"><tspan xml:space="preserve" dy="1em" x="0" class="title-row">On entry runs WaitForDealCompletion</tspan></text></g></g><g class="node statediagram-state" id="8" transform="translate(572.83984375, 2289.5)"><rect class="outer title-state" x="-77.296875" y="-17" width="154.59375" height="34"></rect><line class="divider" x1="-77.296875" x2="77.296875" y1="9.5" y2="9.5"></line><g class="label" transform="translate(-69.796875, -14)"><text style=""><tspan xml:space="preserve" dy="1em" x="0" class="title-row">StorageDealExpired</tspan></text><text style="" transform="translate( 0, 26.5)"><tspan xml:space="preserve" dy="1em" x="0" class="title-row"></tspan></text></g></g><g class="node statediagram-state" id="9" transform="translate(367.16796875, 2289.5)"><rect class="outer title-state" x="-77.1796875" y="-17" width="154.359375" height="34"></rect><line class="divider" x1="-77.1796875" x2="77.1796875" y1="9.5" y2="9.5"></line><g class="label" transform="translate(-69.6796875, -14)"><text style=""><tspan xml:space="preserve" dy="1em" x="0" class="title-row">StorageDealSlashed</tspan></text><text style="" transform="translate( 0, 26.5)"><tspan xml:space="preserve" dy="1em" x="0" class="title-row"></tspan></text></g></g><g class="node statediagram-state" id="10" transform="translate(4188.21875, 2018.75)"><rect class="outer title-state" x="-97.828125" y="-30.25" width="195.65625" height="60.5"></rect><line class="divider" x1="-97.828125" x2="97.828125" y1="-3.75" y2="-3.75"></line><g class="label" transform="translate(-90.328125, -27.25)"><text style=""><tspan xml:space="preserve" dy="1em" x="0" class="title-row">StorageDealRejecting</tspan></text><text style="" transform="translate( 0, 26.5)"><tspan xml:space="preserve" dy="1em" x="0" class="title-row">On entry runs RejectDeal</tspan></text></g></g><g class="node statediagram-state" id="11" transform="translate(1975.01953125, 2148.25)"><rect class="outer title-state" x="-87.421875" y="-30.25" width="174.84375" height="60.5"></rect><line class="divider" x1="-87.421875" x2="87.421875" y1="-3.75" y2="-3.75"></line><g class="label" transform="translate(-79.921875, -27.25)"><text style=""><tspan xml:space="preserve" dy="1em" x="0" class="title-row">StorageDealFailing</tspan></text><text style="" transform="translate( 0, 26.5)"><tspan xml:space="preserve" dy="1em" x="0" class="title-row">On entry runs FailDeal</tspan></text></g></g><g class="node statediagram-state" id="14" transform="translate(4530.7578125, 233)"><rect class="outer title-state" x="-134.53125" y="-30.25" width="269.0625" height="60.5"></rect><line class="divider" x1="-134.53125" x2="134.53125" y1="-3.75" y2="-3.75"></line><g class="label" transform="translate(-127.03125, -27.25)"><text style=""><tspan xml:space="preserve" dy="1em" x="0" class="title-row">StorageDealValidating</tspan></text><text style="" transform="translate( 0, 26.5)"><tspan xml:space="preserve" dy="1em" x="0" class="title-row">On entry runs ValidateDealProposal</tspan></text></g></g><g class="node statediagram-state" id="15" transform="translate(4491.42578125, 390.25)"><rect class="outer title-state" x="-123.0546875" y="-30.25" width="246.109375" height="60.5"></rect><line class="divider" x1="-123.0546875" x2="123.0546875" y1="-3.75" y2="-3.75"></line><g class="label" transform="translate(-115.5546875, -27.25)"><text style=""><tspan xml:space="preserve" dy="1em" x="0" class="title-row">StorageDealAcceptWait</tspan></text><text style="" transform="translate( 0, 26.5)"><tspan xml:space="preserve" dy="1em" x="0" class="title-row">On entry runs DecideOnProposal</tspan></text></g></g><g class="node statediagram-state" id="17" transform="translate(3075.109375, 666.5)"><rect class="outer title-state" x="-94.109375" y="-17" width="188.21875" height="34"></rect><line class="divider" x1="-94.109375" x2="94.109375" y1="9.5" y2="9.5"></line><g class="label" transform="translate(-86.609375, -14)"><text style=""><tspan xml:space="preserve" dy="1em" x="0" class="title-row">StorageDealTransferring</tspan></text><text style="" transform="translate( 0, 26.5)"><tspan xml:space="preserve" dy="1em" x="0" class="title-row"></tspan></text></g></g><g class="node statediagram-state" id="18" transform="translate(4636.41796875, 547.5)"><rect class="outer title-state" x="-105.5625" y="-17" width="211.125" height="34"></rect><line class="divider" x1="-105.5625" x2="105.5625" y1="9.5" y2="9.5"></line><g class="label" transform="translate(-98.0625, -14)"><text style=""><tspan xml:space="preserve" dy="1em" x="0" class="title-row">StorageDealWaitingForData</tspan></text><text style="" transform="translate( 0, 26.5)"><tspan xml:space="preserve" dy="1em" x="0" class="title-row"></tspan></text></g></g><g class="node statediagram-state" id="19" transform="translate(2964.01953125, 832.75)"><rect class="outer title-state" x="-96.3828125" y="-30.25" width="192.765625" height="60.5"></rect><line class="divider" x1="-96.3828125" x2="96.3828125" y1="-3.75" y2="-3.75"></line><g class="label" transform="translate(-88.8828125, -27.25)"><text style=""><tspan xml:space="preserve" dy="1em" x="0" class="title-row">StorageDealVerifyData</tspan></text><text style="" transform="translate( 0, 26.5)"><tspan xml:space="preserve" dy="1em" x="0" class="title-row">On entry runs VerifyData</tspan></text></g></g><g class="node statediagram-state" id="20" transform="translate(4371.19140625, 962.25)"><rect class="outer title-state" x="-132.9140625" y="-30.25" width="265.828125" height="60.5"></rect><line class="divider" x1="-132.9140625" x2="132.9140625" y1="-3.75" y2="-3.75"></line><g class="label" transform="translate(-125.4140625, -27.25)"><text style=""><tspan xml:space="preserve" dy="1em" x="0" class="title-row">StorageDealEnsureProviderFunds</tspan></text><text style="" transform="translate( 0, 26.5)"><tspan xml:space="preserve" dy="1em" x="0" class="title-row">On entry runs EnsureProviderFunds</tspan></text></g></g><g class="node statediagram-state" id="22" transform="translate(4190.73046875, 1116.75)"><rect class="outer title-state" x="-114.6875" y="-30.25" width="229.375" height="60.5"></rect><line class="divider" x1="-114.6875" x2="114.6875" y1="-3.75" y2="-3.75"></line><g class="label" transform="translate(-107.1875, -27.25)"><text style=""><tspan xml:space="preserve" dy="1em" x="0" class="title-row">StorageDealProviderFunding</tspan></text><text style="" transform="translate( 0, 26.5)"><tspan xml:space="preserve" dy="1em" x="0" class="title-row">On entry runs WaitForFunding</tspan></text></g></g><g class="node statediagram-state" id="24" transform="translate(4303.734375, 1271.25)"><rect class="outer title-state" x="-99.9140625" y="-30.25" width="199.828125" height="60.5"></rect><line class="divider" x1="-99.9140625" x2="99.9140625" y1="-3.75" y2="-3.75"></line><g class="label" transform="translate(-92.4140625, -27.25)"><text style=""><tspan xml:space="preserve" dy="1em" x="0" class="title-row">StorageDealPublish</tspan></text><text style="" transform="translate( 0, 26.5)"><tspan xml:space="preserve" dy="1em" x="0" class="title-row">On entry runs PublishDeal</tspan></text></g></g><g class="node statediagram-state" id="25" transform="translate(2185.16015625, 1425.75)"><rect class="outer title-state" x="-112.15625" y="-30.25" width="224.3125" height="60.5"></rect><line class="divider" x1="-112.15625" x2="112.15625" y1="-3.75" y2="-3.75"></line><g class="label" transform="translate(-104.65625, -27.25)"><text style=""><tspan xml:space="preserve" dy="1em" x="0" class="title-row">StorageDealPublishing</tspan></text><text style="" transform="translate( 0, 26.5)"><tspan xml:space="preserve" dy="1em" x="0" class="title-row">On entry runs WaitForPublish</tspan></text></g></g><g class="node statediagram-state" id="26" transform="translate(4302.640625, 2289.5)"><rect class="outer title-state" x="-68.2421875" y="-17" width="136.484375" height="34"></rect><line class="divider" x1="-68.2421875" x2="68.2421875" y1="9.5" y2="9.5"></line><g class="label" transform="translate(-60.7421875, -14)"><text style=""><tspan xml:space="preserve" dy="1em" x="0" class="title-row">StorageDealError</tspan></text><text style="" transform="translate( 0, 26.5)"><tspan xml:space="preserve" dy="1em" x="0" class="title-row"></tspan></text></g></g><g class="node statediagram-state" id="27" transform="translate(3416.03515625, 832.75)"><rect class="outer title-state" x="-136.2421875" y="-30.25" width="272.484375" height="60.5"></rect><line class="divider" x1="-136.2421875" x2="136.2421875" y1="-3.75" y2="-3.75"></line><g class="label" transform="translate(-128.7421875, -27.25)"><text style=""><tspan xml:space="preserve" dy="1em" x="0" class="title-row">StorageDealProviderTransferRestart</tspan></text><text style="" transform="translate( 0, 26.5)"><tspan xml:space="preserve" dy="1em" x="0" class="title-row">On entry runs RestartDataTransfer</tspan></text></g></g><g class="node default" id="root_start" transform="translate(1658.69140625, 15)"><circle class="state-start" r="7" width="14" height="14"></circle></g><g class="node statediagram-note" id="0----note" transform="translate(1614.34765625, 233)"><rect x="-275.046875" y="-33" width="550.09375" height="66"></rect><g class="label" transform="translate(-267.546875, -25.5)"><text style=""><tspan xml:space="preserve" dy="1em" x="0" class="row">The following events are not shown cause they can trigger from any state.</tspan><tspan xml:space="preserve" dy="1em" x="0" class="row"></tspan><tspan xml:space="preserve" dy="1em" x="0" class="row">ProviderEventNodeErrored - transitions state to StorageDealFailing</tspan><tspan xml:space="preserve" dy="1em" x="0" class="row">ProviderEventRestart - does not transition state</tspan></text></g></g><g class="node statediagram-note" id="4----note" transform="translate(216.125, 1425.75)"><rect x="-173.125" y="-25" width="346.25" height="50"></rect><g class="label" transform="translate(-165.625, -17.5)"><text style=""><tspan xml:space="preserve" dy="1em" x="0" class="row">The following events only record in this state.</tspan><tspan xml:space="preserve" dy="1em" x="0" class="row"></tspan><tspan xml:space="preserve" dy="1em" x="0" class="row">ProviderEventPieceStoreErrored</tspan></text></g></g><g class="node statediagram-note" id="11----note" transform="translate(1235.83203125, 2018.75)"><rect x="-173.125" y="-25" width="346.25" height="50"></rect><g class="label" transform="translate(-165.625, -17.5)"><text style=""><tspan xml:space="preserve" dy="1em" x="0" class="row">The following events only record in this state.</tspan><tspan xml:space="preserve" dy="1em" x="0" class="row"></tspan><tspan xml:space="preserve" dy="1em" x="0" class="row">ProviderEventFundsReleased</tspan></text></g></g><g class="node statediagram-note" id="17----note" transform="translate(2603.32421875, 547.5)"><rect x="-173.125" y="-33" width="346.25" height="66"></rect><g class="label" transform="translate(-165.625, -25.5)"><text style=""><tspan xml:space="preserve" dy="1em" x="0" class="row">The following events only record in this state.</tspan><tspan xml:space="preserve" dy="1em" x="0" class="row"></tspan><tspan xml:space="preserve" dy="1em" x="0" class="row">ProviderEventDataTransferRestarted</tspan><tspan xml:space="preserve" dy="1em" x="0" class="row">ProviderEventDataTransferStalled</tspan></text></g></g><g class="node statediagram-note" id="20----note" transform="translate(4371.19140625, 832.75)"><rect x="-173.125" y="-25" width="346.25" height="50"></rect><g class="label" transform="translate(-165.625, -17.5)"><text style=""><tspan xml:space="preserve" dy="1em" x="0" class="row">The following events only record in this state.</tspan><tspan xml:space="preserve" dy="1em" x="0" class="row"></tspan><tspan xml:space="preserve" dy="1em" x="0" class="row">ProviderEventFundsReserved</tspan></text></g></g><g class="node statediagram-note" id="25----note" transform="translate(2114.16015625, 1271.25)"><rect x="-173.125" y="-25" width="346.25" height="50"></rect><g class="label" transform="translate(-165.625, -17.5)"><text style=""><tspan xml:space="preserve" dy="1em" x="0" class="row">The following events only record in this state.</tspan><tspan xml:space="preserve" dy="1em" x="0" class="row"></tspan><tspan xml:space="preserve" dy="1em" x="0" class="row">ProviderEventFundsReleased</tspan></text></g></g><g class="node default" id="root_end" transform="translate(792.109375, 2363.5)"><circle class="state-start" r="7" width="14" height="14"></circle><circle class="state-end" r="5" width="10" height="10"></circle></g></g></g></g></svg>