<svg id="mermaid-1593553722008" width="3467.21484375" xmlns="http://www.w3.org/2000/svg" class="statediagram" height="1967" viewBox="0 0 3467.21484375 1967"><style>#mermaid-1593553722008 .label{font-family:'trebuchet ms', verdana, arial;font-family:var(--mermaid-font-family);color:#333}#mermaid-1593553722008 .label text{fill:#333}#mermaid-1593553722008 .node rect,#mermaid-1593553722008 .node circle,#mermaid-1593553722008 .node ellipse,#mermaid-1593553722008 .node polygon,#mermaid-1593553722008 .node path{fill:#ECECFF;stroke:#9370db;stroke-width:1px}#mermaid-1593553722008 .node .label{text-align:center}#mermaid-1593553722008 .node.clickable{cursor:pointer}#mermaid-1593553722008 .arrowheadPath{fill:#333}#mermaid-1593553722008 .edgePath .path{stroke:#333;stroke-width:1.5px}#mermaid-1593553722008 .edgeLabel{background-color:#e8e8e8;text-align:center}#mermaid-1593553722008 .edgeLabel rect{opacity:0.5}#mermaid-1593553722008 .cluster rect{fill:#ffffde;stroke:#aa3;stroke-width:1px}#mermaid-1593553722008 .cluster text{fill:#333}#mermaid-1593553722008 div.mermaidTooltip{position:absolute;text-align:center;max-width:200px;padding:2px;font-family:'trebuchet ms', verdana, arial;font-family:var(--mermaid-font-family);font-size:12px;background:#ffffde;border:1px solid #aa3;border-radius:2px;pointer-events:none;z-index:100}#mermaid-1593553722008 .actor{stroke:#ccf;fill:#ECECFF}#mermaid-1593553722008 text.actor{fill:#000;stroke:none}#mermaid-1593553722008 .actor-line{stroke:grey}#mermaid-1593553722008 .messageLine0{stroke-width:1.5;stroke-dasharray:'2 2';stroke:#333}#mermaid-1593553722008 .messageLine1{stroke-width:1.5;stroke-dasharray:'2 2';stroke:#333}#mermaid-1593553722008 #arrowhead{fill:#333}#mermaid-1593553722008 .sequenceNumber{fill:#fff}#mermaid-1593553722008 #sequencenumber{fill:#333}#mermaid-1593553722008 #crosshead path{fill:#333 !important;stroke:#333 !important}#mermaid-1593553722008 .messageText{fill:#333;stroke:none}#mermaid-1593553722008 .labelBox{stroke:#ccf;fill:#ECECFF}#mermaid-1593553722008 .labelText{fill:#000;stroke:none}#mermaid-1593553722008 .loopText{fill:#000;stroke:none}#mermaid-1593553722008 .loopLine{stroke-width:2;stroke-dasharray:'2 2';stroke:#ccf}#mermaid-1593553722008 .note{stroke:#aa3;fill:#fff5ad}#mermaid-1593553722008 .noteText{fill:black;stroke:none;font-family:'trebuchet ms', verdana, arial;font-family:var(--mermaid-font-family);font-size:14px}#mermaid-1593553722008 .activation0{fill:#f4f4f4;stroke:#666}#mermaid-1593553722008 .activation1{fill:#f4f4f4;stroke:#666}#mermaid-1593553722008 .activation2{fill:#f4f4f4;stroke:#666}#mermaid-1593553722008 .mermaid-main-font{font-family:"trebuchet ms", verdana, arial;font-family:var(--mermaid-font-family)}#mermaid-1593553722008 .section{stroke:none;opacity:0.2}#mermaid-1593553722008 .section0{fill:rgba(102,102,255,0.49)}#mermaid-1593553722008 .section2{fill:#fff400}#mermaid-1593553722008 .section1,#mermaid-1593553722008 .section3{fill:#fff;opacity:0.2}#mermaid-1593553722008 .sectionTitle0{fill:#333}#mermaid-1593553722008 .sectionTitle1{fill:#333}#mermaid-1593553722008 .sectionTitle2{fill:#333}#mermaid-1593553722008 .sectionTitle3{fill:#333}#mermaid-1593553722008 .sectionTitle{text-anchor:start;font-size:11px;text-height:14px;font-family:'trebuchet ms', verdana, arial;font-family:var(--mermaid-font-family)}#mermaid-1593553722008 .grid .tick{stroke:#d3d3d3;opacity:0.8;shape-rendering:crispEdges}#mermaid-1593553722008 .grid .tick text{font-family:'trebuchet ms', verdana, arial;font-family:var(--mermaid-font-family)}#mermaid-1593553722008 .grid path{stroke-width:0}#mermaid-1593553722008 .today{fill:none;stroke:red;stroke-width:2px}#mermaid-1593553722008 .task{stroke-width:2}#mermaid-1593553722008 .taskText{text-anchor:middle;font-family:'trebuchet ms', verdana, arial;font-family:var(--mermaid-font-family)}#mermaid-1593553722008 .taskText:not([font-size]){font-size:11px}#mermaid-1593553722008 .taskTextOutsideRight{fill:#000;text-anchor:start;font-size:11px;font-family:'trebuchet ms', verdana, arial;font-family:var(--mermaid-font-family)}#mermaid-1593553722008 .taskTextOutsideLeft{fill:#000;text-anchor:end;font-size:11px}#mermaid-1593553722008 .task.clickable{cursor:pointer}#mermaid-1593553722008 .taskText.clickable{cursor:pointer;fill:#003163 !important;font-weight:bold}#mermaid-1593553722008 .taskTextOutsideLeft.clickable{cursor:pointer;fill:#003163 !important;font-weight:bold}#mermaid-1593553722008 .taskTextOutsideRight.clickable{cursor:pointer;fill:#003163 !important;font-weight:bold}#mermaid-1593553722008 .taskText0,#mermaid-1593553722008 .taskText1,#mermaid-1593553722008 .taskText2,#mermaid-1593553722008 .taskText3{fill:#fff}#mermaid-1593553722008 .task0,#mermaid-1593553722008 .task1,#mermaid-1593553722008 .task2,#mermaid-1593553722008 .task3{fill:#8a90dd;stroke:#534fbc}#mermaid-1593553722008 .taskTextOutside0,#mermaid-1593553722008 .taskTextOutside2{fill:#000}#mermaid-1593553722008 .taskTextOutside1,#mermaid-1593553722008 .taskTextOutside3{fill:#000}#mermaid-1593553722008 .active0,#mermaid-1593553722008 .active1,#mermaid-1593553722008 .active2,#mermaid-1593553722008 .active3{fill:#bfc7ff;stroke:#534fbc}#mermaid-1593553722008 .activeText0,#mermaid-1593553722008 .activeText1,#mermaid-1593553722008 .activeText2,#mermaid-1593553722008 .activeText3{fill:#000 !important}#mermaid-1593553722008 .done0,#mermaid-1593553722008 .done1,#mermaid-1593553722008 .done2,#mermaid-1593553722008 .done3{stroke:grey;fill:#d3d3d3;stroke-width:2}#mermaid-1593553722008 .doneText0,#mermaid-1593553722008 .doneText1,#mermaid-1593553722008 .doneText2,#mermaid-1593553722008 .doneText3{fill:#000 !important}#mermaid-1593553722008 .crit0,#mermaid-1593553722008 .crit1,#mermaid-1593553722008 .crit2,#mermaid-1593553722008 .crit3{stroke:#f88;fill:red;stroke-width:2}#mermaid-1593553722008 .activeCrit0,#mermaid-1593553722008 .activeCrit1,#mermaid-1593553722008 .activeCrit2,#mermaid-1593553722008 .activeCrit3{stroke:#f88;fill:#bfc7ff;stroke-width:2}#mermaid-1593553722008 .doneCrit0,#mermaid-1593553722008 .doneCrit1,#mermaid-1593553722008 .doneCrit2,#mermaid-1593553722008 .doneCrit3{stroke:#f88;fill:#d3d3d3;stroke-width:2;cursor:pointer;shape-rendering:crispEdges}#mermaid-1593553722008 .milestone{transform:rotate(45deg) scale(0.8, 0.8)}#mermaid-1593553722008 .milestoneText{font-style:italic}#mermaid-1593553722008 .doneCritText0,#mermaid-1593553722008 .doneCritText1,#mermaid-1593553722008 .doneCritText2,#mermaid-1593553722008 .doneCritText3{fill:#000 !important}#mermaid-1593553722008 .activeCritText0,#mermaid-1593553722008 .activeCritText1,#mermaid-1593553722008 .activeCritText2,#mermaid-1593553722008 .activeCritText3{fill:#000 !important}#mermaid-1593553722008 .titleText{text-anchor:middle;font-size:18px;fill:#000;font-family:'trebuchet ms', verdana, arial;font-family:var(--mermaid-font-family)}#mermaid-1593553722008 g.classGroup text{fill:#9370db;stroke:none;font-family:'trebuchet ms', verdana, arial;font-family:var(--mermaid-font-family);font-size:10px}#mermaid-1593553722008 g.classGroup text .title{font-weight:bolder}#mermaid-1593553722008 g.clickable{cursor:pointer}#mermaid-1593553722008 g.classGroup rect{fill:#ECECFF;stroke:#9370db}#mermaid-1593553722008 g.classGroup line{stroke:#9370db;stroke-width:1}#mermaid-1593553722008 .classLabel .box{stroke:none;stroke-width:0;fill:#ECECFF;opacity:0.5}#mermaid-1593553722008 .classLabel .label{fill:#9370db;font-size:10px}#mermaid-1593553722008 .relation{stroke:#9370db;stroke-width:1;fill:none}#mermaid-1593553722008 .dashed-line{stroke-dasharray:3}#mermaid-1593553722008 #compositionStart{fill:#9370db;stroke:#9370db;stroke-width:1}#mermaid-1593553722008 #compositionEnd{fill:#9370db;stroke:#9370db;stroke-width:1}#mermaid-1593553722008 #aggregationStart{fill:#ECECFF;stroke:#9370db;stroke-width:1}#mermaid-1593553722008 #aggregationEnd{fill:#ECECFF;stroke:#9370db;stroke-width:1}#mermaid-1593553722008 #dependencyStart{fill:#9370db;stroke:#9370db;stroke-width:1}#mermaid-1593553722008 #dependencyEnd{fill:#9370db;stroke:#9370db;stroke-width:1}#mermaid-1593553722008 #extensionStart{fill:#9370db;stroke:#9370db;stroke-width:1}#mermaid-1593553722008 #extensionEnd{fill:#9370db;stroke:#9370db;stroke-width:1}#mermaid-1593553722008 .commit-id,#mermaid-1593553722008 .commit-msg,#mermaid-1593553722008 .branch-label{fill:lightgrey;color:lightgrey;font-family:'trebuchet ms', verdana, arial;font-family:var(--mermaid-font-family)}#mermaid-1593553722008 .pieTitleText{text-anchor:middle;font-size:25px;fill:#000;font-family:'trebuchet ms', verdana, arial;font-family:var(--mermaid-font-family)}#mermaid-1593553722008 .slice{font-family:'trebuchet ms', verdana, arial;font-family:var(--mermaid-font-family)}#mermaid-1593553722008 g.stateGroup text{fill:#9370db;stroke:none;font-size:10px;font-family:'trebuchet ms', verdana, arial;font-family:var(--mermaid-font-family)}#mermaid-1593553722008 g.stateGroup text{fill:#9370db;stroke:none;font-size:10px}#mermaid-1593553722008 g.stateGroup .state-title{font-weight:bolder;fill:#000}#mermaid-1593553722008 g.stateGroup rect{fill:#ECECFF;stroke:#9370db}#mermaid-1593553722008 g.stateGroup line{stroke:#9370db;stroke-width:1}#mermaid-1593553722008 .transition{stroke:#9370db;stroke-width:1;fill:none}#mermaid-1593553722008 .stateGroup .composit{fill:white;border-bottom:1px}#mermaid-1593553722008 .stateGroup .alt-composit{fill:#e0e0e0;border-bottom:1px}#mermaid-1593553722008 .state-note{stroke:#aa3;fill:#fff5ad}#mermaid-1593553722008 .state-note text{fill:black;stroke:none;font-size:10px}#mermaid-1593553722008 .stateLabel .box{stroke:none;stroke-width:0;fill:#ECECFF;opacity:0.5}#mermaid-1593553722008 .stateLabel text{fill:#000;font-size:10px;font-weight:bold;font-family:'trebuchet ms', verdana, arial;font-family:var(--mermaid-font-family)}#mermaid-1593553722008 .node circle.state-start{fill:black;stroke:black}#mermaid-1593553722008 .node circle.state-end{fill:black;stroke:white;stroke-width:1.5}#mermaid-1593553722008 #statediagram-barbEnd{fill:#9370db}#mermaid-1593553722008 .statediagram-cluster rect{fill:#ECECFF;stroke:#9370db;stroke-width:1px}#mermaid-1593553722008 .statediagram-cluster rect.outer{rx:5px;ry:5px}#mermaid-1593553722008 .statediagram-state .divider{stroke:#9370db}#mermaid-1593553722008 .statediagram-state .title-state{rx:5px;ry:5px}#mermaid-1593553722008 .statediagram-cluster.statediagram-cluster .inner{fill:white}#mermaid-1593553722008 .statediagram-cluster.statediagram-cluster-alt .inner{fill:#e0e0e0}#mermaid-1593553722008 .statediagram-cluster .inner{rx:0;ry:0}#mermaid-1593553722008 .statediagram-state rect.basic{rx:5px;ry:5px}#mermaid-1593553722008 .statediagram-state rect.divider{stroke-dasharray:10,10;fill:#efefef}#mermaid-1593553722008 .note-edge{stroke-dasharray:5}#mermaid-1593553722008 .statediagram-note rect{fill:#fff5ad;stroke:#aa3;stroke-width:1px;rx:0;ry:0}:root{--mermaid-font-family: '"trebuchet ms", verdana, arial';--mermaid-font-family: "Comic Sans MS", "Comic Sans", cursive}

:root { --mermaid-font-family: "trebuchet ms", verdana, arial;}</style><style>#mermaid-1593553722008 {
    color: rgb(0, 0, 0);
    font: 16px "trebuchet ms", verdana, arial;
  }</style><g><defs><marker id="statediagram-barbEnd" refX="19" refY="7" markerWidth="20" markerHeight="14" markerUnits="0" orient="auto"><path d="M 19,7 L9,13 L14,7 L9,1 Z"></path></marker></defs><g class="root"><g class="clusters"><g class="note-cluster" id="0----parent"><rect x="8" y="72" width="620.09375" height="219" fill="none"></rect></g></g><g class="edgePaths"><path d="M326.265625,22L326.265625,26.166666666666668C326.265625,30.333333333333332,326.265625,38.666666666666664,326.265625,47C326.265625,55.333333333333336,326.265625,63.666666666666664,326.265625,72C326.265625,80.33333333333333,326.265625,88.66666666666667,326.265625,92.83333333333333L326.265625,97" id="edge0" class="transition" marker-end="url(#statediagram-barbEnd)"></path><path d="M323.5526395631068,131L322.63501213592235,136.75C321.7173847087379,142.5,319.88212985436894,154,318.96450242718447,165.5C318.046875,177,318.046875,188.5,318.046875,194.25L318.046875,200" class="transition note-edge"></path><path d="M374.72542475728153,131L391.11623938106794,136.75C407.50705400485435,142.5,440.2886832524271,154,553.2393937095469,168.8799601654665C666.1901041666666,183.75992033093303,859.3098958333334,202.01984066186608,955.8697916666666,211.1498008273326L1052.4296875,220.27976099279914" id="edge1" class="transition" marker-end="url(#statediagram-barbEnd)"></path><path d="M1052.4296875,249.81272620149818L997.5013020833334,256.6772718345818C942.5729166666666,263.54181746766545,832.7161458333334,277.27090873383275,777.7877604166666,289.88545436691635C722.859375,302.5,722.859375,314,722.859375,330.5416666666667C722.859375,347.0833333333333,722.859375,368.6666666666667,722.859375,390.25C722.859375,411.8333333333333,722.859375,433.4166666666667,722.859375,452.7916666666667C722.859375,472.1666666666667,722.859375,489.3333333333333,722.859375,506.5C722.859375,523.6666666666666,722.859375,540.8333333333334,722.859375,558C722.859375,575.1666666666666,722.859375,592.3333333333334,722.859375,609.5C722.859375,626.6666666666666,722.859375,643.8333333333334,722.859375,663.2083333333334C722.859375,682.5833333333334,722.859375,704.1666666666666,722.859375,725.75C722.859375,747.3333333333334,722.859375,768.9166666666666,728.1077763030888,785.4583333333334C733.3561776061775,802,743.8529802123552,813.5,749.1013815154441,819.25L754.3497828185328,825" id="edge2" class="transition" marker-end="url(#statediagram-barbEnd)"></path><path d="M1256.015625,405.6123734711092L1190.08203125,413.84364455925765C1124.1484375,422.07491564740616,992.28125,438.53745782370305,926.34765625,455.35206224518487C860.4140625,472.1666666666667,860.4140625,489.3333333333333,860.4140625,506.5C860.4140625,523.6666666666666,860.4140625,540.8333333333334,860.4140625,558C860.4140625,575.1666666666666,860.4140625,592.3333333333334,860.4140625,609.5C860.4140625,626.6666666666666,860.4140625,643.8333333333334,860.4140625,663.2083333333334C860.4140625,682.5833333333334,860.4140625,704.1666666666666,860.4140625,725.75C860.4140625,747.3333333333334,860.4140625,768.9166666666666,853.4471826737453,785.4583333333334C846.4803028474903,802,832.5465431949806,813.5,825.5796633687258,819.25L818.612783542471,825" id="edge3" class="transition" marker-end="url(#statediagram-barbEnd)"></path><path d="M1256.910563465251,756L1241.3030737210427,761.75C1225.695583976834,767.5,1194.480604488417,779,1131.6270209942086,792.7729398446944C1068.7734375,806.5458796893887,974.28125,822.5917593787776,927.03515625,830.614699223472L879.7890625,838.6376390681664" id="edge4" class="transition" marker-end="url(#statediagram-barbEnd)"></path><path d="M725.3772321428571,885.5L714.6216517857142,891.25C703.8660714285714,897,682.3549107142857,908.5,671.5993303571428,925.0416666666666C660.84375,941.5833333333334,660.84375,963.1666666666666,660.84375,984.75C660.84375,1006.3333333333334,660.84375,1027.9166666666667,660.84375,1049.5C660.84375,1071.0833333333333,660.84375,1092.6666666666667,660.84375,1114.25C660.84375,1135.8333333333333,660.84375,1157.4166666666667,660.84375,1179C660.84375,1200.5833333333333,660.84375,1222.1666666666667,660.84375,1243.75C660.84375,1265.3333333333333,660.84375,1286.9166666666667,660.84375,1308.5C660.84375,1330.0833333333333,660.84375,1351.6666666666667,660.84375,1373.25C660.84375,1394.8333333333333,660.84375,1416.4166666666667,660.84375,1438C660.84375,1459.5833333333333,660.84375,1481.1666666666667,660.84375,1502.75C660.84375,1524.3333333333333,660.84375,1545.9166666666667,660.84375,1567.5C660.84375,1589.0833333333333,660.84375,1610.6666666666667,660.84375,1632.25C660.84375,1653.8333333333333,660.84375,1675.4166666666667,874.3763020833334,1696.3106708413488C1087.9088541666667,1717.204675016031,1514.9739583333333,1737.4093500320616,1728.5065104166667,1747.5116875400772L1942.0390625,1757.6140250480926" id="edge5" class="transition" marker-end="url(#statediagram-barbEnd)"></path><path d="M1287.1559132543102,263.25L1302.4749797952584,267.875C1317.7940463362067,272.5,1348.4321794181035,281.75,1363.7512459590516,292.125C1379.0703125,302.5,1379.0703125,314,1379.0703125,325.5C1379.0703125,337,1379.0703125,348.5,1379.0703125,354.25L1379.0703125,360" id="edge6" class="transition" marker-end="url(#statediagram-barbEnd)"></path><path d="M1415.9904229005792,420.5L1423.0082951254826,426.25C1430.0261673503862,432,1444.061911800193,443.5,1451.0797840250964,455C1458.09765625,466.5,1458.09765625,478,1458.09765625,483.75L1458.09765625,489.5" id="edge7" class="transition" marker-end="url(#statediagram-barbEnd)"></path><path d="M1162.8005537014562,626.5L1143.1775447512134,632.25C1123.5545358009708,638,1084.3085179004854,649.5,1064.6855089502426,666.0416666666666C1045.0625,682.5833333333334,1045.0625,704.1666666666666,1045.0625,725.75C1045.0625,747.3333333333334,1045.0625,768.9166666666666,1045.0625,790.5C1045.0625,812.0833333333334,1045.0625,833.6666666666666,1045.0625,855.25C1045.0625,876.8333333333334,1045.0625,898.4166666666666,1045.0625,920C1045.0625,941.5833333333334,1045.0625,963.1666666666666,1045.0625,984.75C1045.0625,1006.3333333333334,1045.0625,1027.9166666666667,1045.0625,1049.5C1045.0625,1071.0833333333333,1045.0625,1092.6666666666667,1045.0625,1114.25C1045.0625,1135.8333333333333,1045.0625,1157.4166666666667,1045.0625,1179C1045.0625,1200.5833333333333,1045.0625,1222.1666666666667,1045.0625,1243.75C1045.0625,1265.3333333333333,1045.0625,1286.9166666666667,1045.0625,1308.5C1045.0625,1330.0833333333333,1045.0625,1351.6666666666667,1045.0625,1373.25C1045.0625,1394.8333333333333,1045.0625,1416.4166666666667,1045.0625,1438C1045.0625,1459.5833333333333,1045.0625,1481.1666666666667,1045.0625,1502.75C1045.0625,1524.3333333333333,1045.0625,1545.9166666666667,1045.0625,1567.5C1045.0625,1589.0833333333333,1045.0625,1610.6666666666667,1045.0625,1632.25C1045.0625,1653.8333333333333,1045.0625,1675.4166666666667,1194.55859375,1696.0416200407926C1344.0546875,1716.6665734149185,1643.046875,1736.3331468298375,1792.54296875,1746.1664335372968L1942.0390625,1755.9997202447562" id="edge8" class="transition" marker-end="url(#statediagram-barbEnd)"></path><path d="M1379.771806735437,523.5L1353.2792399878642,529.25C1326.7866732402913,535,1273.8015397451456,546.5,1247.308972997573,558C1220.81640625,569.5,1220.81640625,581,1220.81640625,586.75L1220.81640625,592.5" id="edge9" class="transition" marker-end="url(#statediagram-barbEnd)"></path><path d="M1259.8349135315534,626.5L1273.0323498179612,632.25C1286.229786104369,638,1312.6246586771845,649.5,1325.8220949635922,661C1339.01953125,672.5,1339.01953125,684,1339.01953125,689.75L1339.01953125,695.5" id="edge10" class="transition" marker-end="url(#statediagram-barbEnd)"></path><path d="M1312.1328728281853,756L1307.0221856901544,761.75C1301.9114985521235,767.5,1291.6901242760616,779,1286.579437138031,795.5416666666666C1281.46875,812.0833333333334,1281.46875,833.6666666666666,1281.46875,855.25C1281.46875,876.8333333333334,1281.46875,898.4166666666666,1281.46875,920C1281.46875,941.5833333333334,1281.46875,963.1666666666666,1281.46875,984.75C1281.46875,1006.3333333333334,1281.46875,1027.9166666666667,1281.46875,1049.5C1281.46875,1071.0833333333333,1281.46875,1092.6666666666667,1281.46875,1114.25C1281.46875,1135.8333333333333,1281.46875,1157.4166666666667,1281.46875,1179C1281.46875,1200.5833333333333,1281.46875,1222.1666666666667,1281.46875,1243.75C1281.46875,1265.3333333333333,1281.46875,1286.9166666666667,1281.46875,1308.5C1281.46875,1330.0833333333333,1281.46875,1351.6666666666667,1281.46875,1373.25C1281.46875,1394.8333333333333,1281.46875,1416.4166666666667,1281.46875,1438C1281.46875,1459.5833333333333,1281.46875,1481.1666666666667,1281.46875,1502.75C1281.46875,1524.3333333333333,1281.46875,1545.9166666666667,1281.46875,1567.5C1281.46875,1589.0833333333333,1281.46875,1610.6666666666667,1281.46875,1632.25C1281.46875,1653.8333333333333,1281.46875,1675.4166666666667,1391.5638020833333,1695.7387198019699C1501.6588541666667,1716.0607729372732,1721.8489583333333,1735.1215458745462,1831.9440104166667,1744.6519323431828L1942.0390625,1754.1823188118192" id="edge11" class="transition" marker-end="url(#statediagram-barbEnd)"></path><path d="M1563.66015625,509.62867779296454L1835.6705729166667,517.6905648274704C2107.6809895833335,525.7524518619763,2651.7018229166665,541.8762259309882,2923.7122395833335,558.5214462988274C3195.72265625,575.1666666666666,3195.72265625,592.3333333333334,3195.72265625,609.5C3195.72265625,626.6666666666666,3195.72265625,643.8333333333334,3195.72265625,663.2083333333334C3195.72265625,682.5833333333334,3195.72265625,704.1666666666666,3195.72265625,725.75C3195.72265625,747.3333333333334,3195.72265625,768.9166666666666,2984.169921875,789.477083803427C2772.6171875,810.0375009401873,2349.51171875,829.5750018803747,2137.958984375,839.3437523504684L1926.40625,849.1125028205621" id="edge12" class="transition" marker-end="url(#statediagram-barbEnd)"></path><path d="M1403.8592090974903,756L1416.1841065395754,761.75C1428.5090039816603,767.5,1453.1587988658302,779,1495.9452848495819,790.9979897502526C1538.7317708333333,802.9959795005052,1599.6549479166667,815.4919590010105,1630.1165364583333,821.7399487512631L1660.578125,827.9879385015158" id="edge13" class="transition" marker-end="url(#statediagram-barbEnd)"></path><path d="M1660.578125,884.0920105252134L1632.9986979166667,890.0766754376777C1605.4192708333333,896.0613403501424,1550.2604166666667,908.0306701750711,1522.6809895833333,919.7653350875356C1495.1015625,931.5,1495.1015625,943,1495.1015625,948.75L1495.1015625,954.5" id="edge14" class="transition" marker-end="url(#statediagram-barbEnd)"></path><path d="M1926.40625,861.4468989958654L2135.71875,871.2057491632212C2345.03125,880.964599330577,2763.65625,900.4822996652885,2972.96875,921.0328164993108C3182.28125,941.5833333333334,3182.28125,963.1666666666666,3182.28125,984.75C3182.28125,1006.3333333333334,3182.28125,1027.9166666666667,2967.46875,1048.7236119314825C2752.65625,1069.5305571962983,2323.03125,1089.561114392597,2108.21875,1099.5763929907462L1893.40625,1109.5916715888955" id="edge15" class="transition" marker-end="url(#statediagram-barbEnd)"></path><path d="M1495.1015625,1015L1495.1015625,1020.75C1495.1015625,1026.5,1495.1015625,1038,1528.1809895833333,1050.9281508003003C1561.2604166666667,1063.8563016006003,1627.4192708333333,1078.2126032012009,1660.4986979166667,1085.3907540015011L1693.578125,1092.5689048018014" id="edge16" class="transition" marker-end="url(#statediagram-barbEnd)"></path><path d="M1793.4921875,1144.5L1793.4921875,1150.25C1793.4921875,1156,1793.4921875,1167.5,1793.4921875,1179C1793.4921875,1190.5,1793.4921875,1202,1793.4921875,1207.75L1793.4921875,1213.5" id="edge17" class="transition" marker-end="url(#statediagram-barbEnd)"></path><path d="M1681.3359375,1267.2868098547863L1648.6048177083333,1274.1556748789885C1615.8736979166667,1281.0245399031908,1550.4114583333333,1294.7622699515953,1517.6803385416667,1312.4228016424643C1484.94921875,1330.0833333333333,1484.94921875,1351.6666666666667,1484.94921875,1373.25C1484.94921875,1394.8333333333333,1484.94921875,1416.4166666666667,1484.94921875,1438C1484.94921875,1459.5833333333333,1484.94921875,1481.1666666666667,1484.94921875,1502.75C1484.94921875,1524.3333333333333,1484.94921875,1545.9166666666667,1484.94921875,1567.5C1484.94921875,1589.0833333333333,1484.94921875,1610.6666666666667,1484.94921875,1632.25C1484.94921875,1653.8333333333333,1484.94921875,1675.4166666666667,1561.130859375,1695.267387639442C1637.3125,1715.1181086122172,1789.67578125,1733.236217224434,1865.857421875,1742.2952715305428L1942.0390625,1751.3543258366512" id="edge18" class="transition" marker-end="url(#statediagram-barbEnd)"></path><path d="M838.5446428571429,885.5L849.3002232142858,891.25C860.0558035714286,897,881.5669642857143,908.5,892.3225446428572,925.0416666666666C903.078125,941.5833333333334,903.078125,963.1666666666666,903.078125,984.75C903.078125,1006.3333333333334,903.078125,1027.9166666666667,903.078125,1049.5C903.078125,1071.0833333333333,903.078125,1092.6666666666667,903.078125,1114.25C903.078125,1135.8333333333333,903.078125,1157.4166666666667,903.078125,1179C903.078125,1200.5833333333333,903.078125,1222.1666666666667,903.078125,1243.75C903.078125,1265.3333333333333,903.078125,1286.9166666666667,903.078125,1308.5C903.078125,1330.0833333333333,903.078125,1351.6666666666667,903.078125,1373.25C903.078125,1394.8333333333333,903.078125,1416.4166666666667,903.078125,1438C903.078125,1459.5833333333333,903.078125,1481.1666666666667,903.078125,1502.75C903.078125,1524.3333333333333,903.078125,1545.9166666666667,903.078125,1567.5C903.078125,1589.0833333333333,903.078125,1610.6666666666667,903.078125,1632.25C903.078125,1653.8333333333333,903.078125,1675.4166666666667,1076.23828125,1696.162427086151C1249.3984375,1716.9081875056354,1595.71875,1736.8163750112708,1768.87890625,1746.7704687640883L1942.0390625,1756.7245625169062" id="edge19" class="transition" marker-end="url(#statediagram-barbEnd)"></path><path d="M1502.125,394.31901906884053L1807.9759114583333,404.4325158907004C2113.8268229166665,414.5460127125604,2725.5286458333335,434.7730063562802,3031.3795572916665,453.46983651147343C3337.23046875,472.1666666666667,3337.23046875,489.3333333333333,3337.23046875,506.5C3337.23046875,523.6666666666666,3337.23046875,540.8333333333334,3337.23046875,558C3337.23046875,575.1666666666666,3337.23046875,592.3333333333334,3337.23046875,609.5C3337.23046875,626.6666666666666,3337.23046875,643.8333333333334,3337.23046875,663.2083333333334C3337.23046875,682.5833333333334,3337.23046875,704.1666666666666,3337.23046875,725.75C3337.23046875,747.3333333333334,3337.23046875,768.9166666666666,3337.23046875,790.5C3337.23046875,812.0833333333334,3337.23046875,833.6666666666666,3337.23046875,855.25C3337.23046875,876.8333333333334,3337.23046875,898.4166666666666,3337.23046875,920C3337.23046875,941.5833333333334,3337.23046875,963.1666666666666,3337.23046875,984.75C3337.23046875,1006.3333333333334,3337.23046875,1027.9166666666667,3337.23046875,1049.5C3337.23046875,1071.0833333333333,3337.23046875,1092.6666666666667,3337.23046875,1114.25C3337.23046875,1135.8333333333333,3337.23046875,1157.4166666666667,3337.23046875,1179C3337.23046875,1200.5833333333333,3337.23046875,1222.1666666666667,3337.23046875,1243.75C3337.23046875,1265.3333333333333,3337.23046875,1286.9166666666667,3337.23046875,1308.5C3337.23046875,1330.0833333333333,3337.23046875,1351.6666666666667,3337.23046875,1373.25C3337.23046875,1394.8333333333333,3337.23046875,1416.4166666666667,3337.23046875,1438C3337.23046875,1459.5833333333333,3337.23046875,1481.1666666666667,3337.23046875,1502.75C3337.23046875,1524.3333333333333,3337.23046875,1545.9166666666667,3337.23046875,1567.5C3337.23046875,1589.0833333333333,3337.23046875,1610.6666666666667,3337.23046875,1632.25C3337.23046875,1653.8333333333333,3337.23046875,1675.4166666666667,3133.8391927083335,1696.2785978631318C2930.4479166666665,1717.1405290595967,2523.6653645833335,1737.2810581191934,2320.2740885416665,1747.351322648992L2116.8828125,1757.4215871787903" id="edge20" class="transition" marker-end="url(#statediagram-barbEnd)"></path><path d="M1905.6484375,1272.0994769587362L1929.6497395833333,1278.1662307989468C1953.6510416666667,1284.2329846391574,2001.6536458333333,1296.3664923195786,2025.6549479166667,1308.1832461597894C2049.65625,1320,2049.65625,1331.5,2049.65625,1337.25L2049.65625,1343" id="edge21" class="transition" marker-end="url(#statediagram-barbEnd)"></path><path d="M1946.8046875,1388.5481120393385L1891.392578125,1396.7900933661156C1835.98046875,1405.0320746928926,1725.15625,1421.5160373464462,1669.744140625,1440.5496853398897C1614.33203125,1459.5833333333333,1614.33203125,1481.1666666666667,1614.33203125,1502.75C1614.33203125,1524.3333333333333,1614.33203125,1545.9166666666667,1614.33203125,1567.5C1614.33203125,1589.0833333333333,1614.33203125,1610.6666666666667,1614.33203125,1632.25C1614.33203125,1653.8333333333333,1614.33203125,1675.4166666666667,1668.9498697916667,1694.7273860717207C1723.5677083333333,1714.0381054767752,1832.8033854166667,1731.0762109535506,1887.4212239583333,1739.595263691938L1942.0390625,1748.1143164303257" id="edge22" class="transition" marker-end="url(#statediagram-barbEnd)"></path><path d="M2319.34765625,1521.3027306076053L2265.40625,1529.0022755063376C2211.46484375,1536.7018204050703,2103.58203125,1552.1009102025353,2049.640625,1570.5921217679343C1995.69921875,1589.0833333333333,1995.69921875,1610.6666666666667,1995.69921875,1632.25C1995.69921875,1653.8333333333333,1995.69921875,1675.4166666666667,1998.6973636583014,1691.9583333333333C2001.6955085666023,1708.5,2007.6917983832045,1720,2010.6899432915059,1725.75L2013.688088199807,1731.5" id="edge23" class="transition" marker-end="url(#statediagram-barbEnd)"></path><path d="M2850.94140625,1645.0513524069268L2772.0364583333335,1653.7094603391058C2693.1315104166665,1662.3675682712844,2535.3216145833335,1679.683784135642,2412.978515625,1696.4229550375596C2290.6354166666665,1713.162125939477,2203.7591145833335,1729.3242518789539,2160.3209635416665,1737.4053148486921L2116.8828125,1745.4863778184308" id="edge24" class="transition" marker-end="url(#statediagram-barbEnd)"></path><path d="M1960.7841005067567,1403.5L1943.8910472972973,1409.25C1926.9979940878377,1415,1893.211887668919,1426.5,1876.3188344594594,1443.0416666666667C1859.42578125,1459.5833333333333,1859.42578125,1481.1666666666667,1859.42578125,1502.75C1859.42578125,1524.3333333333333,1859.42578125,1545.9166666666667,1859.42578125,1567.5C1859.42578125,1589.0833333333333,1859.42578125,1610.6666666666667,1859.42578125,1632.25C1859.42578125,1653.8333333333333,1859.42578125,1675.4166666666667,1874.5254283301158,1691.9583333333333C1889.6250754102318,1708.5,1919.8243695704634,1720,1934.9240166505795,1725.75L1950.023663730695,1731.5" id="edge25" class="transition" marker-end="url(#statediagram-barbEnd)"></path><path d="M2152.5078125,1389.9129282118947L2201.9772135416665,1397.927440176579C2251.4466145833335,1405.941952141263,2350.3854166666665,1421.9709760706317,2399.8548177083335,1435.735488035316C2449.32421875,1449.5,2449.32421875,1461,2449.32421875,1466.75L2449.32421875,1472.5" id="edge26" class="transition" marker-end="url(#statediagram-barbEnd)"></path><path d="M2355.5922870415056,1533L2337.7754735762546,1538.75C2319.9586601110036,1544.5,2284.3250331805016,1556,2266.508219715251,1572.5416666666667C2248.69140625,1589.0833333333333,2248.69140625,1610.6666666666667,2248.69140625,1632.25C2248.69140625,1653.8333333333333,2248.69140625,1675.4166666666667,2226.7233072916665,1692.696639523903C2204.7552083333335,1709.976612381139,2160.8190104166665,1722.953224762278,2138.8509114583335,1729.4415309528476L2116.8828125,1735.9298371434172" id="edge27" class="transition" marker-end="url(#statediagram-barbEnd)"></path><path d="M2579.30078125,1518.988253693096L2644.0182291666665,1527.0735447442469C2708.7356770833335,1535.1588357953976,2838.1705729166665,1551.3294178976987,2902.8880208333335,1565.1647089488495C2967.60546875,1579,2967.60546875,1590.5,2967.60546875,1596.25L2967.60546875,1602" id="edge28" class="transition" marker-end="url(#statediagram-barbEnd)"></path><path d="M2850.94140625,1654.0680777128416L2812.6809895833335,1661.2233980940346C2774.4205729166665,1668.378718475228,2697.8997395833335,1682.6893592376139,2575.556640625,1699.0424975020562C2453.2135416666665,1715.3956357664986,2285.0481770833335,1733.7912715329976,2200.9654947916665,1742.989089416247L2116.8828125,1752.1869072994964" id="edge29" class="transition" marker-end="url(#statediagram-barbEnd)"></path><path d="M2873.607097611004,1662.5L2855.73963863417,1668.25C2837.872179657336,1674,2802.137261703668,1685.5,2784.2698027268343,1702.0416666666667C2766.40234375,1718.5833333333333,2766.40234375,1740.1666666666667,2766.40234375,1761.75C2766.40234375,1783.3333333333333,2766.40234375,1804.9166666666667,2766.40234375,1821.4583333333333C2766.40234375,1838,2766.40234375,1849.5,2766.40234375,1855.25L2766.40234375,1861" id="edge30" class="transition" marker-end="url(#statediagram-barbEnd)"></path><path d="M2942.494464888996,1662.5L2937.72129886583,1668.25C2932.948132842664,1674,2923.401800796332,1685.5,2785.799858731499,1700.974916815736C2648.1979166666665,1716.4498336314716,2382.5403645833335,1735.899667262943,2249.7115885416665,1745.624584078679L2116.8828125,1755.3495008944149" id="edge31" class="transition" marker-end="url(#statediagram-barbEnd)"></path><path d="M3071.1628106901544,1662.5L3090.8472641167955,1668.25C3110.531717543436,1674,3149.9006243967183,1685.5,2990.8539580316924,1701.2282326746624C2831.8072916666665,1716.9564653493246,2474.3450520833335,1736.9129306986495,2295.6139322916665,1746.8911633733117L2116.8828125,1756.869396047974" id="edge32" class="transition" marker-end="url(#statediagram-barbEnd)"></path><path d="M2029.4609375,1792L2029.4609375,1797.75C2029.4609375,1803.5,2029.4609375,1815,2029.4609375,1826.5C2029.4609375,1838,2029.4609375,1849.5,2029.4609375,1855.25L2029.4609375,1861" id="edge33" class="transition" marker-end="url(#statediagram-barbEnd)"></path><path d="M2029.4609375,1895L2029.4609375,1899.1666666666667C2029.4609375,1903.3333333333333,2029.4609375,1911.6666666666667,2091.6922580124606,1921.0688604059108C2153.9235785249207,1930.4710541451548,2278.386219549842,1940.9421082903093,2340.617540062302,1946.1776353628868L2402.8488605747625,1951.4131624354643" id="edge34" class="transition" marker-end="url(#statediagram-barbEnd)"></path><path d="M2766.40234375,1895L2766.40234375,1899.1666666666667C2766.40234375,1903.3333333333333,2766.40234375,1911.6666666666667,2708.1346531652594,1921.0623868506002C2649.8669625805187,1930.458107034534,2533.3315814110374,1940.9162140690678,2475.0638908262968,1946.1452675863347L2416.796200241556,1951.3743211036017" id="edge35" class="transition" marker-end="url(#statediagram-barbEnd)"></path></g><g class="edgeLabels"><g class="edgeLabel"><g class="label" transform="translate(0, 0)"><rect rx="0" ry="0" width="0" height="0" style="fill:#e8e8e8;"></rect><text style=""></text></g></g><g class="edgeLabel"><g class="label" transform="translate(0, 0)"><rect rx="0" ry="0" width="0" height="0" style="fill:#e8e8e8;"></rect><text style=""></text></g></g><g class="edgeLabel" transform="translate(473.0703125, 165.5)"><g class="label" transform="translate(-68.6875, -9.5)"><rect rx="0" ry="0" width="137.296875" height="19.03125" style="fill:#e8e8e8;"></rect><text style=""><tspan xml:space="preserve" dy="1em" x="0" class="row">ProviderEventOpen</tspan></text></g></g><g class="edgeLabel" transform="translate(722.859375, 558)"><g class="label" transform="translate(-98.203125, -9.5)"><rect rx="0" ry="0" width="196.296875" height="19.03125" style="fill:#e8e8e8;"></rect><text style=""><tspan xml:space="preserve" dy="1em" x="0" class="row">ProviderEventDealRejected</tspan></text></g></g><g class="edgeLabel" transform="translate(860.4140625, 609.5)"><g class="label" transform="translate(-98.203125, -9.5)"><rect rx="0" ry="0" width="196.296875" height="19.03125" style="fill:#e8e8e8;"></rect><text style=""><tspan xml:space="preserve" dy="1em" x="0" class="row">ProviderEventDealRejected</tspan></text></g></g><g class="edgeLabel" transform="translate(1163.265625, 790.5)"><g class="label" transform="translate(-98.203125, -9.5)"><rect rx="0" ry="0" width="196.296875" height="19.03125" style="fill:#e8e8e8;"></rect><text style=""><tspan xml:space="preserve" dy="1em" x="0" class="row">ProviderEventDealRejected</tspan></text></g></g><g class="edgeLabel" transform="translate(660.84375, 1308.5)"><g class="label" transform="translate(-100.25, -9.5)"><rect rx="0" ry="0" width="200.390625" height="19.03125" style="fill:#e8e8e8;"></rect><text style=""><tspan xml:space="preserve" dy="1em" x="0" class="row">ProviderEventRejectionSent</tspan></text></g></g><g class="edgeLabel" transform="translate(1379.0703125, 325.5)"><g class="label" transform="translate(-96.5703125, -9.5)"><rect rx="0" ry="0" width="193.03125" height="19.03125" style="fill:#e8e8e8;"></rect><text style=""><tspan xml:space="preserve" dy="1em" x="0" class="row">ProviderEventDealDeciding</tspan></text></g></g><g class="edgeLabel" transform="translate(1458.09765625, 455)"><g class="label" transform="translate(-104.03125, -9.5)"><rect rx="0" ry="0" width="207.9375" height="19.03125" style="fill:#e8e8e8;"></rect><text style=""><tspan xml:space="preserve" dy="1em" x="0" class="row">ProviderEventDataRequested</tspan></text></g></g><g class="edgeLabel" transform="translate(1045.0625, 1179)"><g class="label" transform="translate(-118.4453125, -9.5)"><rect rx="0" ry="0" width="236.75" height="19.03125" style="fill:#e8e8e8;"></rect><text style=""><tspan xml:space="preserve" dy="1em" x="0" class="row">ProviderEventDataTransferFailed</tspan></text></g></g><g class="edgeLabel" transform="translate(1220.81640625, 558)"><g class="label" transform="translate(-127.109375, -9.5)"><rect rx="0" ry="0" width="254.0625" height="19.03125" style="fill:#e8e8e8;"></rect><text style=""><tspan xml:space="preserve" dy="1em" x="0" class="row">ProviderEventDataTransferInitiated</tspan></text></g></g><g class="edgeLabel" transform="translate(1339.01953125, 661)"><g class="label" transform="translate(-135.4765625, -9.5)"><rect rx="0" ry="0" width="270.78125" height="19.03125" style="fill:#e8e8e8;"></rect><text style=""><tspan xml:space="preserve" dy="1em" x="0" class="row">ProviderEventDataTransferCompleted</tspan></text></g></g><g class="edgeLabel" transform="translate(1281.46875, 1243.75)"><g class="label" transform="translate(-130.421875, -9.5)"><rect rx="0" ry="0" width="260.6875" height="19.03125" style="fill:#e8e8e8;"></rect><text style=""><tspan xml:space="preserve" dy="1em" x="0" class="row">ProviderEventDataVerificationFailed</tspan></text></g></g><g class="edgeLabel" transform="translate(3195.72265625, 661)"><g class="label" transform="translate(-95.1015625, -9.5)"><rect rx="0" ry="0" width="190.078125" height="19.03125" style="fill:#e8e8e8;"></rect><text style=""><tspan xml:space="preserve" dy="1em" x="0" class="row">ProviderEventVerifiedData</tspan></text></g></g><g class="edgeLabel" transform="translate(1477.80859375, 790.5)"><g class="label" transform="translate(-95.1015625, -9.5)"><rect rx="0" ry="0" width="190.078125" height="19.03125" style="fill:#e8e8e8;"></rect><text style=""><tspan xml:space="preserve" dy="1em" x="0" class="row">ProviderEventVerifiedData</tspan></text></g></g><g class="edgeLabel" transform="translate(1495.1015625, 920)"><g class="label" transform="translate(-108.6953125, -9.5)"><rect rx="0" ry="0" width="217.265625" height="19.03125" style="fill:#e8e8e8;"></rect><text style=""><tspan xml:space="preserve" dy="1em" x="0" class="row">ProviderEventFundingInitiated</tspan></text></g></g><g class="edgeLabel" transform="translate(3182.28125, 984.75)"><g class="label" transform="translate(-76.3203125, -9.5)"><rect rx="0" ry="0" width="152.546875" height="19.03125" style="fill:#e8e8e8;"></rect><text style=""><tspan xml:space="preserve" dy="1em" x="0" class="row">ProviderEventFunded</tspan></text></g></g><g class="edgeLabel" transform="translate(1495.1015625, 1049.5)"><g class="label" transform="translate(-76.3203125, -9.5)"><rect rx="0" ry="0" width="152.546875" height="19.03125" style="fill:#e8e8e8;"></rect><text style=""><tspan xml:space="preserve" dy="1em" x="0" class="row">ProviderEventFunded</tspan></text></g></g><g class="edgeLabel" transform="translate(1793.4921875, 1179)"><g class="label" transform="translate(-122, -9.5)"><rect rx="0" ry="0" width="243.859375" height="19.03125" style="fill:#e8e8e8;"></rect><text style=""><tspan xml:space="preserve" dy="1em" x="0" class="row">ProviderEventDealPublishInitiated</tspan></text></g></g><g class="edgeLabel" transform="translate(1484.94921875, 1502.75)"><g class="label" transform="translate(-109.3828125, -9.5)"><rect rx="0" ry="0" width="218.625" height="19.03125" style="fill:#e8e8e8;"></rect><text style=""><tspan xml:space="preserve" dy="1em" x="0" class="row">ProviderEventDealPublishError</tspan></text></g></g><g class="edgeLabel" transform="translate(903.078125, 1308.5)"><g class="label" transform="translate(-121.984375, -9.5)"><rect rx="0" ry="0" width="243.828125" height="19.03125" style="fill:#e8e8e8;"></rect><text style=""><tspan xml:space="preserve" dy="1em" x="0" class="row">ProviderEventSendResponseFailed</tspan></text></g></g><g class="edgeLabel" transform="translate(3337.23046875, 1049.5)"><g class="label" transform="translate(-121.984375, -9.5)"><rect rx="0" ry="0" width="243.828125" height="19.03125" style="fill:#e8e8e8;"></rect><text style=""><tspan xml:space="preserve" dy="1em" x="0" class="row">ProviderEventSendResponseFailed</tspan></text></g></g><g class="edgeLabel" transform="translate(2049.65625, 1308.5)"><g class="label" transform="translate(-100.296875, -9.5)"><rect rx="0" ry="0" width="200.46875" height="19.03125" style="fill:#e8e8e8;"></rect><text style=""><tspan xml:space="preserve" dy="1em" x="0" class="row">ProviderEventDealPublished</tspan></text></g></g><g class="edgeLabel" transform="translate(1614.33203125, 1567.5)"><g class="label" transform="translate(-108.8203125, -9.5)"><rect rx="0" ry="0" width="217.5" height="19.03125" style="fill:#e8e8e8;"></rect><text style=""><tspan xml:space="preserve" dy="1em" x="0" class="row">ProviderEventFileStoreErrored</tspan></text></g></g><g class="edgeLabel" transform="translate(1995.69921875, 1632.25)"><g class="label" transform="translate(-108.8203125, -9.5)"><rect rx="0" ry="0" width="217.5" height="19.03125" style="fill:#e8e8e8;"></rect><text style=""><tspan xml:space="preserve" dy="1em" x="0" class="row">ProviderEventFileStoreErrored</tspan></text></g></g><g class="edgeLabel" transform="translate(2377.51171875, 1697)"><g class="label" transform="translate(-108.8203125, -9.5)"><rect rx="0" ry="0" width="217.5" height="19.03125" style="fill:#e8e8e8;"></rect><text style=""><tspan xml:space="preserve" dy="1em" x="0" class="row">ProviderEventFileStoreErrored</tspan></text></g></g><g class="edgeLabel" transform="translate(1859.42578125, 1567.5)"><g class="label" transform="translate(-116.2734375, -9.5)"><rect rx="0" ry="0" width="232.40625" height="19.03125" style="fill:#e8e8e8;"></rect><text style=""><tspan xml:space="preserve" dy="1em" x="0" class="row">ProviderEventDealHandoffFailed</tspan></text></g></g><g class="edgeLabel" transform="translate(2449.32421875, 1438)"><g class="label" transform="translate(-104.3671875, -9.5)"><rect rx="0" ry="0" width="208.609375" height="19.03125" style="fill:#e8e8e8;"></rect><text style=""><tspan xml:space="preserve" dy="1em" x="0" class="row">ProviderEventDealHandedOff</tspan></text></g></g><g class="edgeLabel" transform="translate(2248.69140625, 1632.25)"><g class="label" transform="translate(-124.171875, -9.5)"><rect rx="0" ry="0" width="248.1875" height="19.03125" style="fill:#e8e8e8;"></rect><text style=""><tspan xml:space="preserve" dy="1em" x="0" class="row">ProviderEventDealActivationFailed</tspan></text></g></g><g class="edgeLabel" transform="translate(2967.60546875, 1567.5)"><g class="label" transform="translate(-100.1796875, -9.5)"><rect rx="0" ry="0" width="200.25" height="19.03125" style="fill:#e8e8e8;"></rect><text style=""><tspan xml:space="preserve" dy="1em" x="0" class="row">ProviderEventDealActivated</tspan></text></g></g><g class="edgeLabel" transform="translate(2621.37890625, 1697)"><g class="label" transform="translate(-115.046875, -9.5)"><rect rx="0" ry="0" width="229.953125" height="19.03125" style="fill:#e8e8e8;"></rect><text style=""><tspan xml:space="preserve" dy="1em" x="0" class="row">ProviderEventPieceStoreErrored</tspan></text></g></g><g class="edgeLabel" transform="translate(2766.40234375, 1761.75)"><g class="label" transform="translate(-104.828125, -9.5)"><rect rx="0" ry="0" width="209.53125" height="19.03125" style="fill:#e8e8e8;"></rect><text style=""><tspan xml:space="preserve" dy="1em" x="0" class="row">ProviderEventDealCompleted</tspan></text></g></g><g class="edgeLabel" transform="translate(2913.85546875, 1697)"><g class="label" transform="translate(-127.453125, -9.5)"><rect rx="0" ry="0" width="254.75" height="19.03125" style="fill:#e8e8e8;"></rect><text style=""><tspan xml:space="preserve" dy="1em" x="0" class="row">ProviderEventUnableToLocatePiece</tspan></text></g></g><g class="edgeLabel" transform="translate(3189.26953125, 1697)"><g class="label" transform="translate(-127.9609375, -9.5)"><rect rx="0" ry="0" width="255.765625" height="19.03125" style="fill:#e8e8e8;"></rect><text style=""><tspan xml:space="preserve" dy="1em" x="0" class="row">ProviderEventReadMetadataErrored</tspan></text></g></g><g class="edgeLabel" transform="translate(2029.4609375, 1826.5)"><g class="label" transform="translate(-71.96875, -9.5)"><rect rx="0" ry="0" width="143.84375" height="19.03125" style="fill:#e8e8e8;"></rect><text style=""><tspan xml:space="preserve" dy="1em" x="0" class="row">ProviderEventFailed</tspan></text></g></g><g class="edgeLabel"><g class="label" transform="translate(0, 0)"><rect rx="0" ry="0" width="0" height="0" style="fill:#e8e8e8;"></rect><text style=""></text></g></g><g class="edgeLabel"><g class="label" transform="translate(0, 0)"><rect rx="0" ry="0" width="0" height="0" style="fill:#e8e8e8;"></rect><text style=""></text></g></g></g><g class="nodes"><g class="node statediagram-state" id="0" transform="translate(326.265625, 114)"><rect class="outer title-state" x="-82.921875" y="-17" width="165.84375" height="34"></rect><line class="divider" x1="-82.921875" x2="82.921875" y1="9.5" y2="9.5"></line><g class="label" transform="translate(-75.421875, -14)"><text style=""><tspan xml:space="preserve" dy="1em" x="0" class="title-row">StorageDealUnknown</tspan></text><text style="" transform="translate( 0, 26.5)"><tspan xml:space="preserve" dy="1em" x="0" class="title-row"></tspan></text></g></g><g class="node statediagram-state" id="4" transform="translate(2049.65625, 1373.25)"><rect class="outer title-state" x="-102.8515625" y="-30.25" width="205.703125" height="60.5"></rect><line class="divider" x1="-102.8515625" x2="102.8515625" y1="-3.75" y2="-3.75"></line><g class="label" transform="translate(-95.3515625, -27.25)"><text style=""><tspan xml:space="preserve" dy="1em" x="0" class="title-row">StorageDealStaged</tspan></text><text style="" transform="translate( 0, 26.5)"><tspan xml:space="preserve" dy="1em" x="0" class="title-row">On entry runs HandoffDeal</tspan></text></g></g><g class="node statediagram-state" id="5" transform="translate(2449.32421875, 1502.75)"><rect class="outer title-state" x="-129.9765625" y="-30.25" width="259.953125" height="60.5"></rect><line class="divider" x1="-129.9765625" x2="129.9765625" y1="-3.75" y2="-3.75"></line><g class="label" transform="translate(-122.4765625, -27.25)"><text style=""><tspan xml:space="preserve" dy="1em" x="0" class="title-row">StorageDealSealing</tspan></text><text style="" transform="translate( 0, 26.5)"><tspan xml:space="preserve" dy="1em" x="0" class="title-row">On entry runs VerifyDealActivated</tspan></text></g></g><g class="node statediagram-state" id="6" transform="translate(2967.60546875, 1632.25)"><rect class="outer title-state" x="-116.6640625" y="-30.25" width="233.328125" height="60.5"></rect><line class="divider" x1="-116.6640625" x2="116.6640625" y1="-3.75" y2="-3.75"></line><g class="label" transform="translate(-109.1640625, -27.25)"><text style=""><tspan xml:space="preserve" dy="1em" x="0" class="title-row">StorageDealActive</tspan></text><text style="" transform="translate( 0, 26.5)"><tspan xml:space="preserve" dy="1em" x="0" class="title-row">On entry runs RecordPieceInfo</tspan></text></g></g><g class="node statediagram-state" id="9" transform="translate(781.9609375, 855.25)"><rect class="outer title-state" x="-97.828125" y="-30.25" width="195.65625" height="60.5"></rect><line class="divider" x1="-97.828125" x2="97.828125" y1="-3.75" y2="-3.75"></line><g class="label" transform="translate(-90.328125, -27.25)"><text style=""><tspan xml:space="preserve" dy="1em" x="0" class="title-row">StorageDealRejecting</tspan></text><text style="" transform="translate( 0, 26.5)"><tspan xml:space="preserve" dy="1em" x="0" class="title-row">On entry runs RejectDeal</tspan></text></g></g><g class="node statediagram-state" id="10" transform="translate(2029.4609375, 1761.75)"><rect class="outer title-state" x="-87.421875" y="-30.25" width="174.84375" height="60.5"></rect><line class="divider" x1="-87.421875" x2="87.421875" y1="-3.75" y2="-3.75"></line><g class="label" transform="translate(-79.921875, -27.25)"><text style=""><tspan xml:space="preserve" dy="1em" x="0" class="title-row">StorageDealFailing</tspan></text><text style="" transform="translate( 0, 26.5)"><tspan xml:space="preserve" dy="1em" x="0" class="title-row">On entry runs FailDeal</tspan></text></g></g><g class="node statediagram-state" id="13" transform="translate(1186.9609375, 233)"><rect class="outer title-state" x="-134.53125" y="-30.25" width="269.0625" height="60.5"></rect><line class="divider" x1="-134.53125" x2="134.53125" y1="-3.75" y2="-3.75"></line><g class="label" transform="translate(-127.03125, -27.25)"><text style=""><tspan xml:space="preserve" dy="1em" x="0" class="title-row">StorageDealValidating</tspan></text><text style="" transform="translate( 0, 26.5)"><tspan xml:space="preserve" dy="1em" x="0" class="title-row">On entry runs ValidateDealProposal</tspan></text></g></g><g class="node statediagram-state" id="14" transform="translate(1379.0703125, 390.25)"><rect class="outer title-state" x="-123.0546875" y="-30.25" width="246.109375" height="60.5"></rect><line class="divider" x1="-123.0546875" x2="123.0546875" y1="-3.75" y2="-3.75"></line><g class="label" transform="translate(-115.5546875, -27.25)"><text style=""><tspan xml:space="preserve" dy="1em" x="0" class="title-row">StorageDealAcceptWait</tspan></text><text style="" transform="translate( 0, 26.5)"><tspan xml:space="preserve" dy="1em" x="0" class="title-row">On entry runs DecideOnProposal</tspan></text></g></g><g class="node statediagram-state" id="16" transform="translate(1220.81640625, 609.5)"><rect class="outer title-state" x="-94.109375" y="-17" width="188.21875" height="34"></rect><line class="divider" x1="-94.109375" x2="94.109375" y1="9.5" y2="9.5"></line><g class="label" transform="translate(-86.609375, -14)"><text style=""><tspan xml:space="preserve" dy="1em" x="0" class="title-row">StorageDealTransferring</tspan></text><text style="" transform="translate( 0, 26.5)"><tspan xml:space="preserve" dy="1em" x="0" class="title-row"></tspan></text></g></g><g class="node statediagram-state" id="17" transform="translate(1458.09765625, 506.5)"><rect class="outer title-state" x="-105.5625" y="-17" width="211.125" height="34"></rect><line class="divider" x1="-105.5625" x2="105.5625" y1="9.5" y2="9.5"></line><g class="label" transform="translate(-98.0625, -14)"><text style=""><tspan xml:space="preserve" dy="1em" x="0" class="title-row">StorageDealWaitingForData</tspan></text><text style="" transform="translate( 0, 26.5)"><tspan xml:space="preserve" dy="1em" x="0" class="title-row"></tspan></text></g></g><g class="node statediagram-state" id="18" transform="translate(1339.01953125, 725.75)"><rect class="outer title-state" x="-96.3828125" y="-30.25" width="192.765625" height="60.5"></rect><line class="divider" x1="-96.3828125" x2="96.3828125" y1="-3.75" y2="-3.75"></line><g class="label" transform="translate(-88.8828125, -27.25)"><text style=""><tspan xml:space="preserve" dy="1em" x="0" class="title-row">StorageDealVerifyData</tspan></text><text style="" transform="translate( 0, 26.5)"><tspan xml:space="preserve" dy="1em" x="0" class="title-row">On entry runs VerifyData</tspan></text></g></g><g class="node statediagram-state" id="19" transform="translate(1793.4921875, 855.25)"><rect class="outer title-state" x="-132.9140625" y="-30.25" width="265.828125" height="60.5"></rect><line class="divider" x1="-132.9140625" x2="132.9140625" y1="-3.75" y2="-3.75"></line><g class="label" transform="translate(-125.4140625, -27.25)"><text style=""><tspan xml:space="preserve" dy="1em" x="0" class="title-row">StorageDealEnsureProviderFunds</tspan></text><text style="" transform="translate( 0, 26.5)"><tspan xml:space="preserve" dy="1em" x="0" class="title-row">On entry runs EnsureProviderFunds</tspan></text></g></g><g class="node statediagram-state" id="21" transform="translate(1495.1015625, 984.75)"><rect class="outer title-state" x="-114.6875" y="-30.25" width="229.375" height="60.5"></rect><line class="divider" x1="-114.6875" x2="114.6875" y1="-3.75" y2="-3.75"></line><g class="label" transform="translate(-107.1875, -27.25)"><text style=""><tspan xml:space="preserve" dy="1em" x="0" class="title-row">StorageDealProviderFunding</tspan></text><text style="" transform="translate( 0, 26.5)"><tspan xml:space="preserve" dy="1em" x="0" class="title-row">On entry runs WaitForFunding</tspan></text></g></g><g class="node statediagram-state" id="23" transform="translate(1793.4921875, 1114.25)"><rect class="outer title-state" x="-99.9140625" y="-30.25" width="199.828125" height="60.5"></rect><line class="divider" x1="-99.9140625" x2="99.9140625" y1="-3.75" y2="-3.75"></line><g class="label" transform="translate(-92.4140625, -27.25)"><text style=""><tspan xml:space="preserve" dy="1em" x="0" class="title-row">StorageDealPublish</tspan></text><text style="" transform="translate( 0, 26.5)"><tspan xml:space="preserve" dy="1em" x="0" class="title-row">On entry runs PublishDeal</tspan></text></g></g><g class="node statediagram-state" id="24" transform="translate(1793.4921875, 1243.75)"><rect class="outer title-state" x="-112.15625" y="-30.25" width="224.3125" height="60.5"></rect><line class="divider" x1="-112.15625" x2="112.15625" y1="-3.75" y2="-3.75"></line><g class="label" transform="translate(-104.65625, -27.25)"><text style=""><tspan xml:space="preserve" dy="1em" x="0" class="title-row">StorageDealPublishing</tspan></text><text style="" transform="translate( 0, 26.5)"><tspan xml:space="preserve" dy="1em" x="0" class="title-row">On entry runs WaitForPublish</tspan></text></g></g><g class="node statediagram-state" id="25" transform="translate(2029.4609375, 1878)"><rect class="outer title-state" x="-68.2421875" y="-17" width="136.484375" height="34"></rect><line class="divider" x1="-68.2421875" x2="68.2421875" y1="9.5" y2="9.5"></line><g class="label" transform="translate(-60.7421875, -14)"><text style=""><tspan xml:space="preserve" dy="1em" x="0" class="title-row">StorageDealError</tspan></text><text style="" transform="translate( 0, 26.5)"><tspan xml:space="preserve" dy="1em" x="0" class="title-row"></tspan></text></g></g><g class="node statediagram-state" id="26" transform="translate(2766.40234375, 1878)"><rect class="outer title-state" x="-89.2265625" y="-17" width="178.453125" height="34"></rect><line class="divider" x1="-89.2265625" x2="89.2265625" y1="9.5" y2="9.5"></line><g class="label" transform="translate(-81.7265625, -14)"><text style=""><tspan xml:space="preserve" dy="1em" x="0" class="title-row">StorageDealCompleted</tspan></text><text style="" transform="translate( 0, 26.5)"><tspan xml:space="preserve" dy="1em" x="0" class="title-row"></tspan></text></g></g><g class="node default" id="root_start" transform="translate(326.265625, 15)"><circle class="state-start" r="7" width="14" height="14"></circle></g><g class="node statediagram-note" id="0----note" transform="translate(318.046875, 233)"><rect x="-275.046875" y="-33" width="550.09375" height="66"></rect><g class="label" transform="translate(-267.546875, -25.5)"><text style=""><tspan xml:space="preserve" dy="1em" x="0" class="row">The following events are not shown cause they can trigger from any state.</tspan><tspan xml:space="preserve" dy="1em" x="0" class="row"></tspan><tspan xml:space="preserve" dy="1em" x="0" class="row">ProviderEventNodeErrored - transitions state to StorageDealFailing</tspan><tspan xml:space="preserve" dy="1em" x="0" class="row">ProviderEventRestart - does not transition state</tspan></text></g></g><g class="node default" id="root_end" transform="translate(2409.82421875, 1952)"><circle class="state-start" r="7" width="14" height="14"></circle><circle class="state-end" r="5" width="10" height="10"></circle></g></g></g></g></svg>