<svg id="mermaid-1592420488093" width="2547.953125" xmlns="http://www.w3.org/2000/svg" class="statediagram" height="1290.5" viewBox="0 0 2547.953125 1290.5"><style>#mermaid-1592420488093 .label{font-family:'trebuchet ms', verdana, arial;font-family:var(--mermaid-font-family);color:#333}#mermaid-1592420488093 .label text{fill:#333}#mermaid-1592420488093 .node rect,#mermaid-1592420488093 .node circle,#mermaid-1592420488093 .node ellipse,#mermaid-1592420488093 .node polygon,#mermaid-1592420488093 .node path{fill:#ECECFF;stroke:#9370db;stroke-width:1px}#mermaid-1592420488093 .node .label{text-align:center}#mermaid-1592420488093 .node.clickable{cursor:pointer}#mermaid-1592420488093 .arrowheadPath{fill:#333}#mermaid-1592420488093 .edgePath .path{stroke:#333;stroke-width:1.5px}#mermaid-1592420488093 .edgeLabel{background-color:#e8e8e8;text-align:center}#mermaid-1592420488093 .edgeLabel rect{opacity:0.5}#mermaid-1592420488093 .cluster rect{fill:#ffffde;stroke:#aa3;stroke-width:1px}#mermaid-1592420488093 .cluster text{fill:#333}#mermaid-1592420488093 div.mermaidTooltip{position:absolute;text-align:center;max-width:200px;padding:2px;font-family:'trebuchet ms', verdana, arial;font-family:var(--mermaid-font-family);font-size:12px;background:#ffffde;border:1px solid #aa3;border-radius:2px;pointer-events:none;z-index:100}#mermaid-1592420488093 .actor{stroke:#ccf;fill:#ECECFF}#mermaid-1592420488093 text.actor{fill:#000;stroke:none}#mermaid-1592420488093 .actor-line{stroke:grey}#mermaid-1592420488093 .messageLine0{stroke-width:1.5;stroke-dasharray:'2 2';stroke:#333}#mermaid-1592420488093 .messageLine1{stroke-width:1.5;stroke-dasharray:'2 2';stroke:#333}#mermaid-1592420488093 #arrowhead{fill:#333}#mermaid-1592420488093 .sequenceNumber{fill:#fff}#mermaid-1592420488093 #sequencenumber{fill:#333}#mermaid-1592420488093 #crosshead path{fill:#333 !important;stroke:#333 !important}#mermaid-1592420488093 .messageText{fill:#333;stroke:none}#mermaid-1592420488093 .labelBox{stroke:#ccf;fill:#ECECFF}#mermaid-1592420488093 .labelText{fill:#000;stroke:none}#mermaid-1592420488093 .loopText{fill:#000;stroke:none}#mermaid-1592420488093 .loopLine{stroke-width:2;stroke-dasharray:'2 2';stroke:#ccf}#mermaid-1592420488093 .note{stroke:#aa3;fill:#fff5ad}#mermaid-1592420488093 .noteText{fill:black;stroke:none;font-family:'trebuchet ms', verdana, arial;font-family:var(--mermaid-font-family);font-size:14px}#mermaid-1592420488093 .activation0{fill:#f4f4f4;stroke:#666}#mermaid-1592420488093 .activation1{fill:#f4f4f4;stroke:#666}#mermaid-1592420488093 .activation2{fill:#f4f4f4;stroke:#666}#mermaid-1592420488093 .mermaid-main-font{font-family:"trebuchet ms", verdana, arial;font-family:var(--mermaid-font-family)}#mermaid-1592420488093 .section{stroke:none;opacity:0.2}#mermaid-1592420488093 .section0{fill:rgba(102,102,255,0.49)}#mermaid-1592420488093 .section2{fill:#fff400}#mermaid-1592420488093 .section1,#mermaid-1592420488093 .section3{fill:#fff;opacity:0.2}#mermaid-1592420488093 .sectionTitle0{fill:#333}#mermaid-1592420488093 .sectionTitle1{fill:#333}#mermaid-1592420488093 .sectionTitle2{fill:#333}#mermaid-1592420488093 .sectionTitle3{fill:#333}#mermaid-1592420488093 .sectionTitle{text-anchor:start;font-size:11px;text-height:14px;font-family:'trebuchet ms', verdana, arial;font-family:var(--mermaid-font-family)}#mermaid-1592420488093 .grid .tick{stroke:#d3d3d3;opacity:0.8;shape-rendering:crispEdges}#mermaid-1592420488093 .grid .tick text{font-family:'trebuchet ms', verdana, arial;font-family:var(--mermaid-font-family)}#mermaid-1592420488093 .grid path{stroke-width:0}#mermaid-1592420488093 .today{fill:none;stroke:red;stroke-width:2px}#mermaid-1592420488093 .task{stroke-width:2}#mermaid-1592420488093 .taskText{text-anchor:middle;font-family:'trebuchet ms', verdana, arial;font-family:var(--mermaid-font-family)}#mermaid-1592420488093 .taskText:not([font-size]){font-size:11px}#mermaid-1592420488093 .taskTextOutsideRight{fill:#000;text-anchor:start;font-size:11px;font-family:'trebuchet ms', verdana, arial;font-family:var(--mermaid-font-family)}#mermaid-1592420488093 .taskTextOutsideLeft{fill:#000;text-anchor:end;font-size:11px}#mermaid-1592420488093 .task.clickable{cursor:pointer}#mermaid-1592420488093 .taskText.clickable{cursor:pointer;fill:#003163 !important;font-weight:bold}#mermaid-1592420488093 .taskTextOutsideLeft.clickable{cursor:pointer;fill:#003163 !important;font-weight:bold}#mermaid-1592420488093 .taskTextOutsideRight.clickable{cursor:pointer;fill:#003163 !important;font-weight:bold}#mermaid-1592420488093 .taskText0,#mermaid-1592420488093 .taskText1,#mermaid-1592420488093 .taskText2,#mermaid-1592420488093 .taskText3{fill:#fff}#mermaid-1592420488093 .task0,#mermaid-1592420488093 .task1,#mermaid-1592420488093 .task2,#mermaid-1592420488093 .task3{fill:#8a90dd;stroke:#534fbc}#mermaid-1592420488093 .taskTextOutside0,#mermaid-1592420488093 .taskTextOutside2{fill:#000}#mermaid-1592420488093 .taskTextOutside1,#mermaid-1592420488093 .taskTextOutside3{fill:#000}#mermaid-1592420488093 .active0,#mermaid-1592420488093 .active1,#mermaid-1592420488093 .active2,#mermaid-1592420488093 .active3{fill:#bfc7ff;stroke:#534fbc}#mermaid-1592420488093 .activeText0,#mermaid-1592420488093 .activeText1,#mermaid-1592420488093 .activeText2,#mermaid-1592420488093 .activeText3{fill:#000 !important}#mermaid-1592420488093 .done0,#mermaid-1592420488093 .done1,#mermaid-1592420488093 .done2,#mermaid-1592420488093 .done3{stroke:grey;fill:#d3d3d3;stroke-width:2}#mermaid-1592420488093 .doneText0,#mermaid-1592420488093 .doneText1,#mermaid-1592420488093 .doneText2,#mermaid-1592420488093 .doneText3{fill:#000 !important}#mermaid-1592420488093 .crit0,#mermaid-1592420488093 .crit1,#mermaid-1592420488093 .crit2,#mermaid-1592420488093 .crit3{stroke:#f88;fill:red;stroke-width:2}#mermaid-1592420488093 .activeCrit0,#mermaid-1592420488093 .activeCrit1,#mermaid-1592420488093 .activeCrit2,#mermaid-1592420488093 .activeCrit3{stroke:#f88;fill:#bfc7ff;stroke-width:2}#mermaid-1592420488093 .doneCrit0,#mermaid-1592420488093 .doneCrit1,#mermaid-1592420488093 .doneCrit2,#mermaid-1592420488093 .doneCrit3{stroke:#f88;fill:#d3d3d3;stroke-width:2;cursor:pointer;shape-rendering:crispEdges}#mermaid-1592420488093 .milestone{transform:rotate(45deg) scale(0.8, 0.8)}#mermaid-1592420488093 .milestoneText{font-style:italic}#mermaid-1592420488093 .doneCritText0,#mermaid-1592420488093 .doneCritText1,#mermaid-1592420488093 .doneCritText2,#mermaid-1592420488093 .doneCritText3{fill:#000 !important}#mermaid-1592420488093 .activeCritText0,#mermaid-1592420488093 .activeCritText1,#mermaid-1592420488093 .activeCritText2,#mermaid-1592420488093 .activeCritText3{fill:#000 !important}#mermaid-1592420488093 .titleText{text-anchor:middle;font-size:18px;fill:#000;font-family:'trebuchet ms', verdana, arial;font-family:var(--mermaid-font-family)}#mermaid-1592420488093 g.classGroup text{fill:#9370db;stroke:none;font-family:'trebuchet ms', verdana, arial;font-family:var(--mermaid-font-family);font-size:10px}#mermaid-1592420488093 g.classGroup text .title{font-weight:bolder}#mermaid-1592420488093 g.clickable{cursor:pointer}#mermaid-1592420488093 g.classGroup rect{fill:#ECECFF;stroke:#9370db}#mermaid-1592420488093 g.classGroup line{stroke:#9370db;stroke-width:1}#mermaid-1592420488093 .classLabel .box{stroke:none;stroke-width:0;fill:#ECECFF;opacity:0.5}#mermaid-1592420488093 .classLabel .label{fill:#9370db;font-size:10px}#mermaid-1592420488093 .relation{stroke:#9370db;stroke-width:1;fill:none}#mermaid-1592420488093 .dashed-line{stroke-dasharray:3}#mermaid-1592420488093 #compositionStart{fill:#9370db;stroke:#9370db;stroke-width:1}#mermaid-1592420488093 #compositionEnd{fill:#9370db;stroke:#9370db;stroke-width:1}#mermaid-1592420488093 #aggregationStart{fill:#ECECFF;stroke:#9370db;stroke-width:1}#mermaid-1592420488093 #aggregationEnd{fill:#ECECFF;stroke:#9370db;stroke-width:1}#mermaid-1592420488093 #dependencyStart{fill:#9370db;stroke:#9370db;stroke-width:1}#mermaid-1592420488093 #dependencyEnd{fill:#9370db;stroke:#9370db;stroke-width:1}#mermaid-1592420488093 #extensionStart{fill:#9370db;stroke:#9370db;stroke-width:1}#mermaid-1592420488093 #extensionEnd{fill:#9370db;stroke:#9370db;stroke-width:1}#mermaid-1592420488093 .commit-id,#mermaid-1592420488093 .commit-msg,#mermaid-1592420488093 .branch-label{fill:lightgrey;color:lightgrey;font-family:'trebuchet ms', verdana, arial;font-family:var(--mermaid-font-family)}#mermaid-1592420488093 .pieTitleText{text-anchor:middle;font-size:25px;fill:#000;font-family:'trebuchet ms', verdana, arial;font-family:var(--mermaid-font-family)}#mermaid-1592420488093 .slice{font-family:'trebuchet ms', verdana, arial;font-family:var(--mermaid-font-family)}#mermaid-1592420488093 g.stateGroup text{fill:#9370db;stroke:none;font-size:10px;font-family:'trebuchet ms', verdana, arial;font-family:var(--mermaid-font-family)}#mermaid-1592420488093 g.stateGroup text{fill:#9370db;stroke:none;font-size:10px}#mermaid-1592420488093 g.stateGroup .state-title{font-weight:bolder;fill:#000}#mermaid-1592420488093 g.stateGroup rect{fill:#ECECFF;stroke:#9370db}#mermaid-1592420488093 g.stateGroup line{stroke:#9370db;stroke-width:1}#mermaid-1592420488093 .transition{stroke:#9370db;stroke-width:1;fill:none}#mermaid-1592420488093 .stateGroup .composit{fill:white;border-bottom:1px}#mermaid-1592420488093 .stateGroup .alt-composit{fill:#e0e0e0;border-bottom:1px}#mermaid-1592420488093 .state-note{stroke:#aa3;fill:#fff5ad}#mermaid-1592420488093 .state-note text{fill:black;stroke:none;font-size:10px}#mermaid-1592420488093 .stateLabel .box{stroke:none;stroke-width:0;fill:#ECECFF;opacity:0.5}#mermaid-1592420488093 .stateLabel text{fill:#000;font-size:10px;font-weight:bold;font-family:'trebuchet ms', verdana, arial;font-family:var(--mermaid-font-family)}#mermaid-1592420488093 .node circle.state-start{fill:black;stroke:black}#mermaid-1592420488093 .node circle.state-end{fill:black;stroke:white;stroke-width:1.5}#mermaid-1592420488093 #statediagram-barbEnd{fill:#9370db}#mermaid-1592420488093 .statediagram-cluster rect{fill:#ECECFF;stroke:#9370db;stroke-width:1px}#mermaid-1592420488093 .statediagram-cluster rect.outer{rx:5px;ry:5px}#mermaid-1592420488093 .statediagram-state .divider{stroke:#9370db}#mermaid-1592420488093 .statediagram-state .title-state{rx:5px;ry:5px}#mermaid-1592420488093 .statediagram-cluster.statediagram-cluster .inner{fill:white}#mermaid-1592420488093 .statediagram-cluster.statediagram-cluster-alt .inner{fill:#e0e0e0}#mermaid-1592420488093 .statediagram-cluster .inner{rx:0;ry:0}#mermaid-1592420488093 .statediagram-state rect.basic{rx:5px;ry:5px}#mermaid-1592420488093 .statediagram-state rect.divider{stroke-dasharray:10,10;fill:#efefef}#mermaid-1592420488093 .note-edge{stroke-dasharray:5}#mermaid-1592420488093 .statediagram-note rect{fill:#fff5ad;stroke:#aa3;stroke-width:1px;rx:0;ry:0}:root{--mermaid-font-family: '"trebuchet ms", verdana, arial';--mermaid-font-family: "Comic Sans MS", "Comic Sans", cursive}

:root { --mermaid-font-family: "trebuchet ms", verdana, arial;}</style><style>#mermaid-1592420488093 {
    color: rgb(0, 0, 0);
    font: 16px "trebuchet ms", verdana, arial;
  }</style><g><defs><marker id="statediagram-barbEnd" refX="19" refY="7" markerWidth="20" markerHeight="14" markerUnits="0" orient="auto"><path d="M 19,7 L9,13 L14,7 L9,1 Z"></path></marker></defs><g class="root"><g class="clusters"></g><g class="edgePaths"><path d="M2288.8203125,22L2288.8203125,26.166666666666668C2288.8203125,30.333333333333332,2288.8203125,38.666666666666664,2288.8203125,47C2288.8203125,55.333333333333336,2288.8203125,63.666666666666664,2288.8203125,67.83333333333333L2288.8203125,72" id="edge0" class="transition" marker-end="url(#statediagram-barbEnd)"></path><path d="M2288.8203125,106L2288.8203125,111.75C2288.8203125,117.5,2288.8203125,129,2288.8203125,140.5C2288.8203125,152,2288.8203125,163.5,2288.8203125,169.25L2288.8203125,175" id="edge1" class="transition" marker-end="url(#statediagram-barbEnd)"></path><path d="M2164.5703125,209.98932392940148L1902.35546875,219.99110327450123C1640.140625,229.992882619601,1115.7109375,249.9964413098005,853.49609375,265.74822065490025C591.28125,281.5,591.28125,293,591.28125,298.75L591.28125,304.5" id="edge2" class="transition" marker-end="url(#statediagram-barbEnd)"></path><path d="M2312.453125,235.5L2316.9453125,241.25C2321.4375,247,2330.421875,258.5,2334.9140625,275.0416666666667C2339.40625,291.5833333333333,2339.40625,313.1666666666667,2339.40625,334.75C2339.40625,356.3333333333333,2339.40625,377.9166666666667,2339.40625,399.5C2339.40625,421.0833333333333,2339.40625,442.6666666666667,2339.40625,464.25C2339.40625,485.8333333333333,2339.40625,507.4166666666667,2339.40625,529C2339.40625,550.5833333333334,2339.40625,572.1666666666666,2339.40625,593.75C2339.40625,615.3333333333334,2339.40625,636.9166666666666,2339.40625,656.2916666666666C2339.40625,675.6666666666666,2339.40625,692.8333333333334,2339.40625,710C2339.40625,727.1666666666666,2339.40625,744.3333333333334,2339.40625,763.7083333333334C2339.40625,783.0833333333334,2339.40625,804.6666666666666,2339.40625,826.25C2339.40625,847.8333333333334,2339.40625,869.4166666666666,2148.9921875,890.2329271158878C1958.578125,911.0491875651092,1577.75,931.0983751302183,1387.3359375,941.1229689127728L1196.921875,951.1475626953273" id="edge3" class="transition" marker-end="url(#statediagram-barbEnd)"></path><path d="M476.59375,350.3639428684068L416.44140625,358.55328572367233C356.2890625,366.7426285789379,235.984375,383.12131428946896,175.83203125,402.10232381140116C115.6796875,421.0833333333333,115.6796875,442.6666666666667,115.6796875,464.25C115.6796875,485.8333333333333,115.6796875,507.4166666666667,115.6796875,529C115.6796875,550.5833333333334,115.6796875,572.1666666666666,115.6796875,593.75C115.6796875,615.3333333333334,115.6796875,636.9166666666666,115.6796875,656.2916666666666C115.6796875,675.6666666666666,115.6796875,692.8333333333334,115.6796875,710C115.6796875,727.1666666666666,115.6796875,744.3333333333334,115.6796875,763.7083333333334C115.6796875,783.0833333333334,115.6796875,804.6666666666666,115.6796875,826.25C115.6796875,847.8333333333334,115.6796875,869.4166666666666,266.74609375,890.0507059248953C417.8125,910.6847451831239,719.9453125,930.3694903662476,871.01171875,940.2118629578096L1022.078125,950.0542355493715" id="edge4" class="transition" marker-end="url(#statediagram-barbEnd)"></path><path d="M2363.9708313223937,235.5L2378.2556406853278,241.25C2392.5404500482623,247,2421.1100687741314,258.5,2435.3948781370655,275.0416666666667C2449.6796875,291.5833333333333,2449.6796875,313.1666666666667,2449.6796875,334.75C2449.6796875,356.3333333333333,2449.6796875,377.9166666666667,2168.51171875,398.8813385195436C1887.34375,419.84601037242055,1325.0078125,440.1920207448411,1043.83984375,450.3650259310514L762.671875,460.5380311172616" id="edge5" class="transition" marker-end="url(#statediagram-barbEnd)"></path><path d="M623.421875,365L629.53125,370.75C635.640625,376.5,647.859375,388,653.96875,399.5C660.078125,411,660.078125,422.5,660.078125,428.25L660.078125,434" id="edge6" class="transition" marker-end="url(#statediagram-barbEnd)"></path><path d="M557.484375,480.4970407276132L506.4381510416667,488.58086727301094C455.3919270833333,496.6646938184088,353.2994791666667,512.8323469092044,302.2532552083333,531.7078401212689C251.20703125,550.5833333333334,251.20703125,572.1666666666666,251.20703125,593.75C251.20703125,615.3333333333334,251.20703125,636.9166666666666,251.20703125,656.2916666666666C251.20703125,675.6666666666666,251.20703125,692.8333333333334,251.20703125,710C251.20703125,727.1666666666666,251.20703125,744.3333333333334,251.20703125,763.7083333333334C251.20703125,783.0833333333334,251.20703125,804.6666666666666,251.20703125,826.25C251.20703125,847.8333333333334,251.20703125,869.4166666666666,251.20703125,891C251.20703125,912.5833333333334,251.20703125,934.1666666666666,251.20703125,955.75C251.20703125,977.3333333333334,251.20703125,998.9166666666666,251.20703125,1020.5C251.20703125,1042.0833333333333,251.20703125,1063.6666666666667,251.20703125,1085.25C251.20703125,1106.8333333333333,251.20703125,1128.4166666666667,398.7311197916667,1147.1772827748118C546.2552083333334,1165.937898882957,841.3033854166666,1181.875797765914,988.8274739583334,1189.8447472073924L1136.3515625,1197.813696648871" id="edge7" class="transition" marker-end="url(#statediagram-barbEnd)"></path><path d="M762.671875,487.59057095800165L793.0078125,494.49214246500134C823.34375,501.3937139720011,884.015625,515.1968569860005,914.3515625,527.8484284930003C944.6875,540.5,944.6875,552,944.6875,557.75L944.6875,563.5" id="edge8" class="transition" marker-end="url(#statediagram-barbEnd)"></path><path d="M802.296875,610.2282839389813L732.7766927083334,618.2735699491511C663.2565104166666,626.3188559593209,524.2161458333334,642.4094279796604,454.6959635416667,659.0380473231636C385.17578125,675.6666666666666,385.17578125,692.8333333333334,385.17578125,710C385.17578125,727.1666666666666,385.17578125,744.3333333333334,385.17578125,763.7083333333334C385.17578125,783.0833333333334,385.17578125,804.6666666666666,385.17578125,826.25C385.17578125,847.8333333333334,385.17578125,869.4166666666666,385.17578125,891C385.17578125,912.5833333333334,385.17578125,934.1666666666666,385.17578125,955.75C385.17578125,977.3333333333334,385.17578125,998.9166666666666,385.17578125,1020.5C385.17578125,1042.0833333333333,385.17578125,1063.6666666666667,385.17578125,1085.25C385.17578125,1106.8333333333333,385.17578125,1128.4166666666667,510.3717447916667,1147.0768355730772C635.5677083333334,1165.737004479488,885.9596354166666,1181.474008958976,1011.1555989583334,1189.3425111987199L1136.3515625,1197.2110134384639" id="edge9" class="transition" marker-end="url(#statediagram-barbEnd)"></path><path d="M1603.7109375,844.6731602853047L1549.7682291666667,852.394300237754C1495.8255208333333,860.1154401902031,1387.9401041666667,875.5577200951016,1333.9973958333333,894.0705267142175C1280.0546875,912.5833333333334,1280.0546875,934.1666666666666,1280.0546875,955.75C1280.0546875,977.3333333333334,1280.0546875,998.9166666666666,1280.0546875,1020.5C1280.0546875,1042.0833333333333,1280.0546875,1063.6666666666667,1280.0546875,1085.25C1280.0546875,1106.8333333333333,1280.0546875,1128.4166666666667,1271.629437196602,1144.9583333333333C1263.204186893204,1161.5,1246.3536862864078,1173,1237.9284359830099,1178.75L1229.5031856796118,1184.5" id="edge10" class="transition" marker-end="url(#statediagram-barbEnd)"></path><path d="M802.296875,616.7274534905229L759.1529947916666,623.6895445754357C716.0091145833334,630.6516356603486,629.7213541666666,644.5758178301743,586.5774739583334,660.1212422484205C543.43359375,675.6666666666666,543.43359375,692.8333333333334,543.43359375,710C543.43359375,727.1666666666666,543.43359375,744.3333333333334,543.43359375,763.7083333333334C543.43359375,783.0833333333334,543.43359375,804.6666666666666,543.43359375,826.25C543.43359375,847.8333333333334,543.43359375,869.4166666666666,623.2076822916666,889.3333620862172C702.9817708333334,909.2500575057678,862.5299479166666,927.5001150115355,942.3040364583334,936.6251437644195L1022.078125,945.7501725173034" id="edge11" class="transition" marker-end="url(#statediagram-barbEnd)"></path><path d="M1603.7109375,854.5865098549647L1576.14453125,860.6554248791372C1548.578125,866.7243399033099,1493.4453125,878.8621699516549,1425.6471354166667,892.853554959354C1357.8489583333333,906.8449399670532,1277.3854166666667,922.6898799341064,1237.1536458333333,930.612349917633L1196.921875,938.5348199011595" id="edge12" class="transition" marker-end="url(#statediagram-barbEnd)"></path><path d="M886.6347279198842,624L875.5999034749035,629.75C864.5650790299228,635.5,842.4954301399615,647,831.4606056949807,661.3333333333334C820.42578125,675.6666666666666,820.42578125,692.8333333333334,820.42578125,710C820.42578125,727.1666666666666,820.42578125,744.3333333333334,820.42578125,763.7083333333334C820.42578125,783.0833333333334,820.42578125,804.6666666666666,820.42578125,826.25C820.42578125,847.8333333333334,820.42578125,869.4166666666666,854.0345052083334,887.7363823088253C887.6432291666666,906.056097950984,954.8606770833334,921.112195901968,988.4694010416666,928.6402448774601L1022.078125,936.1682938529519" id="edge13" class="transition" marker-end="url(#statediagram-barbEnd)"></path><path d="M1002.7402720801158,624L1013.7750965250965,629.75C1024.8099209700772,635.5,1046.8795698600386,647,1057.9143943050192,661.3333333333334C1068.94921875,675.6666666666666,1068.94921875,692.8333333333334,1068.94921875,710C1068.94921875,727.1666666666666,1068.94921875,744.3333333333334,1068.94921875,763.7083333333334C1068.94921875,783.0833333333334,1068.94921875,804.6666666666666,1068.94921875,826.25C1068.94921875,847.8333333333334,1068.94921875,869.4166666666666,1072.5502533783783,885.9583333333334C1076.1512880067567,902.5,1083.3533572635135,914,1086.9543918918919,919.75L1090.5554265202702,925.5" id="edge14" class="transition" marker-end="url(#statediagram-barbEnd)"></path><path d="M1221.9008646844661,727L1218.7624393203885,732.75C1215.6240139563108,738.5,1209.3471632281553,750,1206.2087378640776,766.5416666666666C1203.0703125,783.0833333333334,1203.0703125,804.6666666666666,1203.0703125,826.25C1203.0703125,847.8333333333334,1203.0703125,869.4166666666666,1194.7609797297298,885.9583333333334C1186.4516469594594,902.5,1169.832981418919,914,1161.5236486486485,919.75L1153.2143158783783,925.5" id="edge15" class="transition" marker-end="url(#statediagram-barbEnd)"></path><path d="M1078.531340492278,624L1103.9727316602318,629.75C1129.4141228281853,635.5,1180.2969051640928,647,1205.7382963320463,658.5C1231.1796875,670,1231.1796875,681.5,1231.1796875,687.25L1231.1796875,693" id="edge16" class="transition" marker-end="url(#statediagram-barbEnd)"></path><path d="M1087.078125,601.9060920151908L1251.7493489583333,611.338410012659C1416.4205729166667,620.7707280101272,1745.7630208333333,639.6353640050636,1910.4342447916667,657.651015335865C2075.10546875,675.6666666666666,2075.10546875,692.8333333333334,2075.10546875,710C2075.10546875,727.1666666666666,2075.10546875,744.3333333333334,2039.443359375,759.6550154646421C2003.78125,774.976697595951,1932.45703125,788.4533951919021,1896.794921875,795.1917439898776L1861.1328125,801.9300927878533" id="edge17" class="transition" marker-end="url(#statediagram-barbEnd)"></path><path d="M1297.7045661407767,727L1320.2056280339805,732.75C1342.7066899271845,738.5,1387.7088137135922,750,1438.709875606796,761.9071827020827C1489.7109375,773.8143654041655,1546.7109375,786.128730808331,1575.2109375,792.2859135104137L1603.7109375,798.4430962124965" id="edge18" class="transition" marker-end="url(#statediagram-barbEnd)"></path><path d="M1732.421875,856.5L1732.421875,862.25C1732.421875,868,1732.421875,879.5,1643.171875,894.5271465121529C1553.921875,909.5542930243058,1375.421875,928.1085860486115,1286.171875,937.3857325607645L1196.921875,946.6628790729175" id="edge19" class="transition" marker-end="url(#statediagram-barbEnd)"></path><path d="M1847.0674770752896,856.5L1868.8596163127413,862.25C1890.651755550193,868,1934.2360340250964,879.5,1825.878433679215,894.955169298364C1717.5208333333333,910.4103385967279,1457.2213541666667,929.8206771934559,1327.0716145833333,939.5258464918198L1196.921875,949.231015790184" id="edge20" class="transition" marker-end="url(#statediagram-barbEnd)"></path><path d="M1861.1328125,844.9499307576342L1913.9596354166667,852.6249422980285C1966.7864583333333,860.2999538384229,2072.4401041666665,875.6499769192114,2125.2669270833335,889.0749884596057C2178.09375,902.5,2178.09375,914,2178.09375,919.75L2178.09375,925.5" id="edge21" class="transition" marker-end="url(#statediagram-barbEnd)"></path><path d="M2039.6171875,979.2199798570567L1999.0240885416667,986.0999832142139C1958.4309895833333,992.9799865713712,1877.2447916666667,1006.7399932856856,1836.6516927083333,1024.4116633095093C1796.05859375,1042.0833333333333,1796.05859375,1063.6666666666667,1796.05859375,1085.25C1796.05859375,1106.8333333333333,1796.05859375,1128.4166666666667,1708.8548177083333,1146.801336558465C1621.6510416666667,1165.1860064502637,1447.2434895833333,1180.3720129005271,1360.0397135416667,1187.9650161256588L1272.8359375,1195.5580193507908" id="edge22" class="transition" marker-end="url(#statediagram-barbEnd)"></path><path d="M2241.082951254826,986L2253.0561052123553,991.75C2265.029259169884,997.5,2288.975567084942,1009,2300.948721042471,1020.5C2312.921875,1032,2312.921875,1043.5,2312.921875,1049.25L2312.921875,1055" id="edge23" class="transition" marker-end="url(#statediagram-barbEnd)"></path><path d="M2182.9453125,1112.0285062642936L2152.2278645833335,1118.357088553578C2121.5104166666665,1124.6856708428625,2060.0755208333335,1137.3428354214311,1908.390625,1151.5170799302266C1756.7057291666667,1165.6913244390223,1514.7708333333333,1181.3826488780444,1393.8033854166667,1189.2283110975554L1272.8359375,1197.0739733170665" id="edge24" class="transition" marker-end="url(#statediagram-barbEnd)"></path><path d="M2365.9542712355214,1115.5L2376.0348093629345,1121.25C2386.1153474903476,1127,2406.276423745174,1138.5,2416.356961872587,1150C2426.4375,1161.5,2426.4375,1173,2426.4375,1178.75L2426.4375,1184.5" id="edge25" class="transition" marker-end="url(#statediagram-barbEnd)"></path><path d="M1109.5,986L1109.5,991.75C1109.5,997.5,1109.5,1009,1109.5,1025.5416666666667C1109.5,1042.0833333333333,1109.5,1063.6666666666667,1109.5,1085.25C1109.5,1106.8333333333333,1109.5,1128.4166666666667,1120.1172633495146,1144.9583333333333C1130.734526699029,1161.5,1151.9690533980581,1173,1162.5863167475727,1178.75L1173.2035800970873,1184.5" id="edge26" class="transition" marker-end="url(#statediagram-barbEnd)"></path><path d="M2426.4375,1218.5L2426.4375,1222.6666666666667C2426.4375,1226.8333333333333,2426.4375,1235.1666666666667,2298.7991313651914,1244.618400360503C2171.1607627303824,1254.0701340543394,1915.8840254607649,1264.640268108679,1788.245656825956,1269.9253351358489L1660.6072881911473,1275.2104021630187" id="edge27" class="transition" marker-end="url(#statediagram-barbEnd)"></path><path d="M1204.59375,1218.5L1204.59375,1222.6666666666667C1204.59375,1226.8333333333333,1204.59375,1235.1666666666667,1278.2666233276605,1244.58373288705C1351.939496655321,1254.0007991074335,1499.2852433106418,1264.5015982148673,1572.958116638302,1269.751997768584L1646.6309899659625,1275.0023973223008" id="edge28" class="transition" marker-end="url(#statediagram-barbEnd)"></path></g><g class="edgeLabels"><g class="edgeLabel"><g class="label" transform="translate(0, 0)"><rect rx="0" ry="0" width="0" height="0" style="fill:#e8e8e8;"></rect><text style=""></text></g></g><g class="edgeLabel" transform="translate(2288.8203125, 140.5)"><g class="label" transform="translate(-60.0234375, -9.5)"><rect rx="0" ry="0" width="120.046875" height="19" style="fill:#e8e8e8;"></rect><text style=""><tspan xml:space="preserve" dy="1em" x="0" class="row">ClientEventOpen</tspan></text></g></g><g class="edgeLabel" transform="translate(591.28125, 270)"><g class="label" transform="translate(-100.0390625, -9.5)"><rect rx="0" ry="0" width="200.078125" height="19" style="fill:#e8e8e8;"></rect><text style=""><tspan xml:space="preserve" dy="1em" x="0" class="row">ClientEventFundingInitiated</tspan></text></g></g><g class="edgeLabel" transform="translate(2339.40625, 593.75)"><g class="label" transform="translate(-107.6796875, -9.5)"><rect rx="0" ry="0" width="215.359375" height="19" style="fill:#e8e8e8;"></rect><text style=""><tspan xml:space="preserve" dy="1em" x="0" class="row">ClientEventEnsureFundsFailed</tspan></text></g></g><g class="edgeLabel" transform="translate(115.6796875, 658.5)"><g class="label" transform="translate(-107.6796875, -9.5)"><rect rx="0" ry="0" width="215.359375" height="19" style="fill:#e8e8e8;"></rect><text style=""><tspan xml:space="preserve" dy="1em" x="0" class="row">ClientEventEnsureFundsFailed</tspan></text></g></g><g class="edgeLabel" transform="translate(2449.6796875, 334.75)"><g class="label" transform="translate(-90.2734375, -9.5)"><rect rx="0" ry="0" width="180.546875" height="19" style="fill:#e8e8e8;"></rect><text style=""><tspan xml:space="preserve" dy="1em" x="0" class="row">ClientEventFundsEnsured</tspan></text></g></g><g class="edgeLabel" transform="translate(660.078125, 399.5)"><g class="label" transform="translate(-90.2734375, -9.5)"><rect rx="0" ry="0" width="180.546875" height="19" style="fill:#e8e8e8;"></rect><text style=""><tspan xml:space="preserve" dy="1em" x="0" class="row">ClientEventFundsEnsured</tspan></text></g></g><g class="edgeLabel" transform="translate(251.20703125, 826.25)"><g class="label" transform="translate(-113.4609375, -9.5)"><rect rx="0" ry="0" width="226.921875" height="19" style="fill:#e8e8e8;"></rect><text style=""><tspan xml:space="preserve" dy="1em" x="0" class="row">ClientEventWriteProposalFailed</tspan></text></g></g><g class="edgeLabel" transform="translate(944.6875, 529)"><g class="label" transform="translate(-89.9453125, -9.5)"><rect rx="0" ry="0" width="179.890625" height="19" style="fill:#e8e8e8;"></rect><text style=""><tspan xml:space="preserve" dy="1em" x="0" class="row">ClientEventDealProposed</tspan></text></g></g><g class="edgeLabel" transform="translate(385.17578125, 891)"><g class="label" transform="translate(-113.96875, -9.5)"><rect rx="0" ry="0" width="227.9375" height="19" style="fill:#e8e8e8;"></rect><text style=""><tspan xml:space="preserve" dy="1em" x="0" class="row">ClientEventReadResponseFailed</tspan></text></g></g><g class="edgeLabel" transform="translate(1280.0546875, 1020.5)"><g class="label" transform="translate(-113.96875, -9.5)"><rect rx="0" ry="0" width="227.9375" height="19" style="fill:#e8e8e8;"></rect><text style=""><tspan xml:space="preserve" dy="1em" x="0" class="row">ClientEventReadResponseFailed</tspan></text></g></g><g class="edgeLabel" transform="translate(543.43359375, 761.5)"><g class="label" transform="translate(-138.2578125, -9.5)"><rect rx="0" ry="0" width="276.515625" height="19" style="fill:#e8e8e8;"></rect><text style=""><tspan xml:space="preserve" dy="1em" x="0" class="row">ClientEventResponseVerificationFailed</tspan></text></g></g><g class="edgeLabel" transform="translate(1438.3125, 891)"><g class="label" transform="translate(-138.2578125, -9.5)"><rect rx="0" ry="0" width="276.515625" height="19" style="fill:#e8e8e8;"></rect><text style=""><tspan xml:space="preserve" dy="1em" x="0" class="row">ClientEventResponseVerificationFailed</tspan></text></g></g><g class="edgeLabel" transform="translate(820.42578125, 761.5)"><g class="label" transform="translate(-118.734375, -9.5)"><rect rx="0" ry="0" width="237.46875" height="19" style="fill:#e8e8e8;"></rect><text style=""><tspan xml:space="preserve" dy="1em" x="0" class="row">ClientEventUnexpectedDealState</tspan></text></g></g><g class="edgeLabel" transform="translate(1068.94921875, 761.5)"><g class="label" transform="translate(-109.7890625, -9.5)"><rect rx="0" ry="0" width="219.578125" height="19" style="fill:#e8e8e8;"></rect><text style=""><tspan xml:space="preserve" dy="1em" x="0" class="row">ClientEventDataTransferFailed</tspan></text></g></g><g class="edgeLabel" transform="translate(1203.0703125, 826.25)"><g class="label" transform="translate(-109.7890625, -9.5)"><rect rx="0" ry="0" width="219.578125" height="19" style="fill:#e8e8e8;"></rect><text style=""><tspan xml:space="preserve" dy="1em" x="0" class="row">ClientEventDataTransferFailed</tspan></text></g></g><g class="edgeLabel" transform="translate(1231.1796875, 658.5)"><g class="label" transform="translate(-118.453125, -9.5)"><rect rx="0" ry="0" width="236.90625" height="19" style="fill:#e8e8e8;"></rect><text style=""><tspan xml:space="preserve" dy="1em" x="0" class="row">ClientEventDataTransferInitiated</tspan></text></g></g><g class="edgeLabel" transform="translate(2075.10546875, 710)"><g class="label" transform="translate(-122.359375, -9.5)"><rect rx="0" ry="0" width="244.71875" height="19" style="fill:#e8e8e8;"></rect><text style=""><tspan xml:space="preserve" dy="1em" x="0" class="row">ClientEventDataTransferComplete</tspan></text></g></g><g class="edgeLabel" transform="translate(1432.7109375, 761.5)"><g class="label" transform="translate(-122.359375, -9.5)"><rect rx="0" ry="0" width="244.71875" height="19" style="fill:#e8e8e8;"></rect><text style=""><tspan xml:space="preserve" dy="1em" x="0" class="row">ClientEventDataTransferComplete</tspan></text></g></g><g class="edgeLabel" transform="translate(1732.421875, 891)"><g class="label" transform="translate(-135.8515625, -9.5)"><rect rx="0" ry="0" width="271.703125" height="19" style="fill:#e8e8e8;"></rect><text style=""><tspan xml:space="preserve" dy="1em" x="0" class="row">ClientEventResponseDealDidNotMatch</tspan></text></g></g><g class="edgeLabel" transform="translate(1977.8203125, 891)"><g class="label" transform="translate(-89.546875, -9.5)"><rect rx="0" ry="0" width="179.09375" height="19" style="fill:#e8e8e8;"></rect><text style=""><tspan xml:space="preserve" dy="1em" x="0" class="row">ClientEventDealRejected</tspan></text></g></g><g class="edgeLabel" transform="translate(2178.09375, 891)"><g class="label" transform="translate(-90.7265625, -9.5)"><rect rx="0" ry="0" width="181.453125" height="19" style="fill:#e8e8e8;"></rect><text style=""><tspan xml:space="preserve" dy="1em" x="0" class="row">ClientEventDealAccepted</tspan></text></g></g><g class="edgeLabel" transform="translate(1796.05859375, 1085.25)"><g class="label" transform="translate(-104.6796875, -9.5)"><rect rx="0" ry="0" width="209.359375" height="19" style="fill:#e8e8e8;"></rect><text style=""><tspan xml:space="preserve" dy="1em" x="0" class="row">ClientEventDealPublishFailed</tspan></text></g></g><g class="edgeLabel" transform="translate(2312.921875, 1020.5)"><g class="label" transform="translate(-91.6328125, -9.5)"><rect rx="0" ry="0" width="183.265625" height="19" style="fill:#e8e8e8;"></rect><text style=""><tspan xml:space="preserve" dy="1em" x="0" class="row">ClientEventDealPublished</tspan></text></g></g><g class="edgeLabel" transform="translate(1998.640625, 1150)"><g class="label" transform="translate(-115.5078125, -9.5)"><rect rx="0" ry="0" width="231.015625" height="19" style="fill:#e8e8e8;"></rect><text style=""><tspan xml:space="preserve" dy="1em" x="0" class="row">ClientEventDealActivationFailed</tspan></text></g></g><g class="edgeLabel" transform="translate(2426.4375, 1150)"><g class="label" transform="translate(-91.5234375, -9.5)"><rect rx="0" ry="0" width="183.046875" height="19" style="fill:#e8e8e8;"></rect><text style=""><tspan xml:space="preserve" dy="1em" x="0" class="row">ClientEventDealActivated</tspan></text></g></g><g class="edgeLabel" transform="translate(1109.5, 1085.25)"><g class="label" transform="translate(-63.3046875, -9.5)"><rect rx="0" ry="0" width="126.609375" height="19" style="fill:#e8e8e8;"></rect><text style=""><tspan xml:space="preserve" dy="1em" x="0" class="row">ClientEventFailed</tspan></text></g></g><g class="edgeLabel"><g class="label" transform="translate(0, 0)"><rect rx="0" ry="0" width="0" height="0" style="fill:#e8e8e8;"></rect><text style=""></text></g></g><g class="edgeLabel"><g class="label" transform="translate(0, 0)"><rect rx="0" ry="0" width="0" height="0" style="fill:#e8e8e8;"></rect><text style=""></text></g></g></g><g class="nodes"><g class="node statediagram-state" id="0" transform="translate(2288.8203125, 89)"><rect class="outer title-state" x="-82.921875" y="-17" width="165.84375" height="34"></rect><line class="divider" x1="-82.921875" x2="82.921875" y1="9.5" y2="9.5"></line><g class="label" transform="translate(-75.421875, -14)"><text style=""><tspan xml:space="preserve" dy="1em" x="0" class="title-row">StorageDealUnknown</tspan></text><text style="" transform="translate( 0, 26.5)"><tspan xml:space="preserve" dy="1em" x="0" class="title-row"></tspan></text></g></g><g class="node statediagram-state" id="3" transform="translate(2178.09375, 955.75)"><rect class="outer title-state" x="-138.4765625" y="-30.25" width="276.953125" height="60.5"></rect><line class="divider" x1="-138.4765625" x2="138.4765625" y1="-3.75" y2="-3.75"></line><g class="label" transform="translate(-130.9765625, -27.25)"><text style=""><tspan xml:space="preserve" dy="1em" x="0" class="title-row">StorageDealProposalAccepted</tspan></text><text style="" transform="translate( 0, 26.5)"><tspan xml:space="preserve" dy="1em" x="0" class="title-row">On entry runs ValidateDealPublished</tspan></text></g></g><g class="node statediagram-state" id="5" transform="translate(2312.921875, 1085.25)"><rect class="outer title-state" x="-129.9765625" y="-30.25" width="259.953125" height="60.5"></rect><line class="divider" x1="-129.9765625" x2="129.9765625" y1="-3.75" y2="-3.75"></line><g class="label" transform="translate(-122.4765625, -27.25)"><text style=""><tspan xml:space="preserve" dy="1em" x="0" class="title-row">StorageDealSealing</tspan></text><text style="" transform="translate( 0, 26.5)"><tspan xml:space="preserve" dy="1em" x="0" class="title-row">On entry runs VerifyDealActivated</tspan></text></g></g><g class="node statediagram-state" id="6" transform="translate(2426.4375, 1201.5)"><rect class="outer title-state" x="-72.75" y="-17" width="145.5" height="34"></rect><line class="divider" x1="-72.75" x2="72.75" y1="9.5" y2="9.5"></line><g class="label" transform="translate(-65.25, -14)"><text style=""><tspan xml:space="preserve" dy="1em" x="0" class="title-row">StorageDealActive</tspan></text><text style="" transform="translate( 0, 26.5)"><tspan xml:space="preserve" dy="1em" x="0" class="title-row"></tspan></text></g></g><g class="node statediagram-state" id="7" transform="translate(1109.5, 955.75)"><rect class="outer title-state" x="-87.421875" y="-30.25" width="174.84375" height="60.5"></rect><line class="divider" x1="-87.421875" x2="87.421875" y1="-3.75" y2="-3.75"></line><g class="label" transform="translate(-79.921875, -27.25)"><text style=""><tspan xml:space="preserve" dy="1em" x="0" class="title-row">StorageDealFailing</tspan></text><text style="" transform="translate( 0, 26.5)"><tspan xml:space="preserve" dy="1em" x="0" class="title-row">On entry runs FailDeal</tspan></text></g></g><g class="node statediagram-state" id="9" transform="translate(660.078125, 464.25)"><rect class="outer title-state" x="-102.59375" y="-30.25" width="205.1875" height="60.5"></rect><line class="divider" x1="-102.59375" x2="102.59375" y1="-3.75" y2="-3.75"></line><g class="label" transform="translate(-95.09375, -27.25)"><text style=""><tspan xml:space="preserve" dy="1em" x="0" class="title-row">StorageDealFundsEnsured</tspan></text><text style="" transform="translate( 0, 26.5)"><tspan xml:space="preserve" dy="1em" x="0" class="title-row">On entry runs ProposeDeal</tspan></text></g></g><g class="node statediagram-state" id="10" transform="translate(944.6875, 593.75)"><rect class="outer title-state" x="-142.390625" y="-30.25" width="284.78125" height="60.5"></rect><line class="divider" x1="-142.390625" x2="142.390625" y1="-3.75" y2="-3.75"></line><g class="label" transform="translate(-134.890625, -27.25)"><text style=""><tspan xml:space="preserve" dy="1em" x="0" class="title-row">StorageDealWaitingForDataRequest</tspan></text><text style="" transform="translate( 0, 26.5)"><tspan xml:space="preserve" dy="1em" x="0" class="title-row">On entry runs WaitingForDataRequest</tspan></text></g></g><g class="node statediagram-state" id="11" transform="translate(1732.421875, 826.25)"><rect class="outer title-state" x="-128.7109375" y="-30.25" width="257.421875" height="60.5"></rect><line class="divider" x1="-128.7109375" x2="128.7109375" y1="-3.75" y2="-3.75"></line><g class="label" transform="translate(-121.2109375, -27.25)"><text style=""><tspan xml:space="preserve" dy="1em" x="0" class="title-row">StorageDealValidating</tspan></text><text style="" transform="translate( 0, 26.5)"><tspan xml:space="preserve" dy="1em" x="0" class="title-row">On entry runs VerifyDealResponse</tspan></text></g></g><g class="node statediagram-state" id="13" transform="translate(1231.1796875, 710)"><rect class="outer title-state" x="-94.109375" y="-17" width="188.21875" height="34"></rect><line class="divider" x1="-94.109375" x2="94.109375" y1="9.5" y2="9.5"></line><g class="label" transform="translate(-86.609375, -14)"><text style=""><tspan xml:space="preserve" dy="1em" x="0" class="title-row">StorageDealTransferring</tspan></text><text style="" transform="translate( 0, 26.5)"><tspan xml:space="preserve" dy="1em" x="0" class="title-row"></tspan></text></g></g><g class="node statediagram-state" id="17" transform="translate(2288.8203125, 205.25)"><rect class="outer title-state" x="-124.25" y="-30.25" width="248.5" height="60.5"></rect><line class="divider" x1="-124.25" x2="124.25" y1="-3.75" y2="-3.75"></line><g class="label" transform="translate(-116.75, -27.25)"><text style=""><tspan xml:space="preserve" dy="1em" x="0" class="title-row">StorageDealEnsureClientFunds</tspan></text><text style="" transform="translate( 0, 26.5)"><tspan xml:space="preserve" dy="1em" x="0" class="title-row">On entry runs EnsureClientFunds</tspan></text></g></g><g class="node statediagram-state" id="19" transform="translate(591.28125, 334.75)"><rect class="outer title-state" x="-114.6875" y="-30.25" width="229.375" height="60.5"></rect><line class="divider" x1="-114.6875" x2="114.6875" y1="-3.75" y2="-3.75"></line><g class="label" transform="translate(-107.1875, -27.25)"><text style=""><tspan xml:space="preserve" dy="1em" x="0" class="title-row">StorageDealClientFunding</tspan></text><text style="" transform="translate( 0, 26.5)"><tspan xml:space="preserve" dy="1em" x="0" class="title-row">On entry runs WaitForFunding</tspan></text></g></g><g class="node statediagram-state" id="22" transform="translate(1204.59375, 1201.5)"><rect class="outer title-state" x="-68.2421875" y="-17" width="136.484375" height="34"></rect><line class="divider" x1="-68.2421875" x2="68.2421875" y1="9.5" y2="9.5"></line><g class="label" transform="translate(-60.7421875, -14)"><text style=""><tspan xml:space="preserve" dy="1em" x="0" class="title-row">StorageDealError</tspan></text><text style="" transform="translate( 0, 26.5)"><tspan xml:space="preserve" dy="1em" x="0" class="title-row"></tspan></text></g></g><g class="node default" id="root_start" transform="translate(2288.8203125, 15)"><circle class="state-start" r="7" width="14" height="14"></circle></g><g class="node default" id="root_end" transform="translate(1653.61328125, 1275.5)"><circle class="state-start" r="7" width="14" height="14"></circle><circle class="state-end" r="5" width="10" height="10"></circle></g></g></g></g></svg>