<svg id="mermaid-1596084431930" width="3755.0703125" xmlns="http://www.w3.org/2000/svg" class="statediagram" height="1541.5" viewBox="0 0 3755.0703125 1541.5"><style>#mermaid-1596084431930 .label{font-family:'trebuchet ms', verdana, arial;font-family:var(--mermaid-font-family);color:#333}#mermaid-1596084431930 .label text{fill:#333}#mermaid-1596084431930 .node rect,#mermaid-1596084431930 .node circle,#mermaid-1596084431930 .node ellipse,#mermaid-1596084431930 .node polygon,#mermaid-1596084431930 .node path{fill:#ECECFF;stroke:#9370db;stroke-width:1px}#mermaid-1596084431930 .node .label{text-align:center}#mermaid-1596084431930 .node.clickable{cursor:pointer}#mermaid-1596084431930 .arrowheadPath{fill:#333}#mermaid-1596084431930 .edgePath .path{stroke:#333;stroke-width:1.5px}#mermaid-1596084431930 .edgeLabel{background-color:#e8e8e8;text-align:center}#mermaid-1596084431930 .edgeLabel rect{opacity:0.5}#mermaid-1596084431930 .cluster rect{fill:#ffffde;stroke:#aa3;stroke-width:1px}#mermaid-1596084431930 .cluster text{fill:#333}#mermaid-1596084431930 div.mermaidTooltip{position:absolute;text-align:center;max-width:200px;padding:2px;font-family:'trebuchet ms', verdana, arial;font-family:var(--mermaid-font-family);font-size:12px;background:#ffffde;border:1px solid #aa3;border-radius:2px;pointer-events:none;z-index:100}#mermaid-1596084431930 .actor{stroke:#ccf;fill:#ECECFF}#mermaid-1596084431930 text.actor{fill:#000;stroke:none}#mermaid-1596084431930 .actor-line{stroke:grey}#mermaid-1596084431930 .messageLine0{stroke-width:1.5;stroke-dasharray:'2 2';stroke:#333}#mermaid-1596084431930 .messageLine1{stroke-width:1.5;stroke-dasharray:'2 2';stroke:#333}#mermaid-1596084431930 #arrowhead{fill:#333}#mermaid-1596084431930 .sequenceNumber{fill:#fff}#mermaid-1596084431930 #sequencenumber{fill:#333}#mermaid-1596084431930 #crosshead path{fill:#333 !important;stroke:#333 !important}#mermaid-1596084431930 .messageText{fill:#333;stroke:none}#mermaid-1596084431930 .labelBox{stroke:#ccf;fill:#ECECFF}#mermaid-1596084431930 .labelText{fill:#000;stroke:none}#mermaid-1596084431930 .loopText{fill:#000;stroke:none}#mermaid-1596084431930 .loopLine{stroke-width:2;stroke-dasharray:'2 2';stroke:#ccf}#mermaid-1596084431930 .note{stroke:#aa3;fill:#fff5ad}#mermaid-1596084431930 .noteText{fill:black;stroke:none;font-family:'trebuchet ms', verdana, arial;font-family:var(--mermaid-font-family);font-size:14px}#mermaid-1596084431930 .activation0{fill:#f4f4f4;stroke:#666}#mermaid-1596084431930 .activation1{fill:#f4f4f4;stroke:#666}#mermaid-1596084431930 .activation2{fill:#f4f4f4;stroke:#666}#mermaid-1596084431930 .mermaid-main-font{font-family:"trebuchet ms", verdana, arial;font-family:var(--mermaid-font-family)}#mermaid-1596084431930 .section{stroke:none;opacity:0.2}#mermaid-1596084431930 .section0{fill:rgba(102,102,255,0.49)}#mermaid-1596084431930 .section2{fill:#fff400}#mermaid-1596084431930 .section1,#mermaid-1596084431930 .section3{fill:#fff;opacity:0.2}#mermaid-1596084431930 .sectionTitle0{fill:#333}#mermaid-1596084431930 .sectionTitle1{fill:#333}#mermaid-1596084431930 .sectionTitle2{fill:#333}#mermaid-1596084431930 .sectionTitle3{fill:#333}#mermaid-1596084431930 .sectionTitle{text-anchor:start;font-size:11px;text-height:14px;font-family:'trebuchet ms', verdana, arial;font-family:var(--mermaid-font-family)}#mermaid-1596084431930 .grid .tick{stroke:#d3d3d3;opacity:0.8;shape-rendering:crispEdges}#mermaid-1596084431930 .grid .tick text{font-family:'trebuchet ms', verdana, arial;font-family:var(--mermaid-font-family)}#mermaid-1596084431930 .grid path{stroke-width:0}#mermaid-1596084431930 .today{fill:none;stroke:red;stroke-width:2px}#mermaid-1596084431930 .task{stroke-width:2}#mermaid-1596084431930 .taskText{text-anchor:middle;font-family:'trebuchet ms', verdana, arial;font-family:var(--mermaid-font-family)}#mermaid-1596084431930 .taskText:not([font-size]){font-size:11px}#mermaid-1596084431930 .taskTextOutsideRight{fill:#000;text-anchor:start;font-size:11px;font-family:'trebuchet ms', verdana, arial;font-family:var(--mermaid-font-family)}#mermaid-1596084431930 .taskTextOutsideLeft{fill:#000;text-anchor:end;font-size:11px}#mermaid-1596084431930 .task.clickable{cursor:pointer}#mermaid-1596084431930 .taskText.clickable{cursor:pointer;fill:#003163 !important;font-weight:bold}#mermaid-1596084431930 .taskTextOutsideLeft.clickable{cursor:pointer;fill:#003163 !important;font-weight:bold}#mermaid-1596084431930 .taskTextOutsideRight.clickable{cursor:pointer;fill:#003163 !important;font-weight:bold}#mermaid-1596084431930 .taskText0,#mermaid-1596084431930 .taskText1,#mermaid-1596084431930 .taskText2,#mermaid-1596084431930 .taskText3{fill:#fff}#mermaid-1596084431930 .task0,#mermaid-1596084431930 .task1,#mermaid-1596084431930 .task2,#mermaid-1596084431930 .task3{fill:#8a90dd;stroke:#534fbc}#mermaid-1596084431930 .taskTextOutside0,#mermaid-1596084431930 .taskTextOutside2{fill:#000}#mermaid-1596084431930 .taskTextOutside1,#mermaid-1596084431930 .taskTextOutside3{fill:#000}#mermaid-1596084431930 .active0,#mermaid-1596084431930 .active1,#mermaid-1596084431930 .active2,#mermaid-1596084431930 .active3{fill:#bfc7ff;stroke:#534fbc}#mermaid-1596084431930 .activeText0,#mermaid-1596084431930 .activeText1,#mermaid-1596084431930 .activeText2,#mermaid-1596084431930 .activeText3{fill:#000 !important}#mermaid-1596084431930 .done0,#mermaid-1596084431930 .done1,#mermaid-1596084431930 .done2,#mermaid-1596084431930 .done3{stroke:grey;fill:#d3d3d3;stroke-width:2}#mermaid-1596084431930 .doneText0,#mermaid-1596084431930 .doneText1,#mermaid-1596084431930 .doneText2,#mermaid-1596084431930 .doneText3{fill:#000 !important}#mermaid-1596084431930 .crit0,#mermaid-1596084431930 .crit1,#mermaid-1596084431930 .crit2,#mermaid-1596084431930 .crit3{stroke:#f88;fill:red;stroke-width:2}#mermaid-1596084431930 .activeCrit0,#mermaid-1596084431930 .activeCrit1,#mermaid-1596084431930 .activeCrit2,#mermaid-1596084431930 .activeCrit3{stroke:#f88;fill:#bfc7ff;stroke-width:2}#mermaid-1596084431930 .doneCrit0,#mermaid-1596084431930 .doneCrit1,#mermaid-1596084431930 .doneCrit2,#mermaid-1596084431930 .doneCrit3{stroke:#f88;fill:#d3d3d3;stroke-width:2;cursor:pointer;shape-rendering:crispEdges}#mermaid-1596084431930 .milestone{transform:rotate(45deg) scale(0.8, 0.8)}#mermaid-1596084431930 .milestoneText{font-style:italic}#mermaid-1596084431930 .doneCritText0,#mermaid-1596084431930 .doneCritText1,#mermaid-1596084431930 .doneCritText2,#mermaid-1596084431930 .doneCritText3{fill:#000 !important}#mermaid-1596084431930 .activeCritText0,#mermaid-1596084431930 .activeCritText1,#mermaid-1596084431930 .activeCritText2,#mermaid-1596084431930 .activeCritText3{fill:#000 !important}#mermaid-1596084431930 .titleText{text-anchor:middle;font-size:18px;fill:#000;font-family:'trebuchet ms', verdana, arial;font-family:var(--mermaid-font-family)}#mermaid-1596084431930 g.classGroup text{fill:#9370db;stroke:none;font-family:'trebuchet ms', verdana, arial;font-family:var(--mermaid-font-family);font-size:10px}#mermaid-1596084431930 g.classGroup text .title{font-weight:bolder}#mermaid-1596084431930 g.clickable{cursor:pointer}#mermaid-1596084431930 g.classGroup rect{fill:#ECECFF;stroke:#9370db}#mermaid-1596084431930 g.classGroup line{stroke:#9370db;stroke-width:1}#mermaid-1596084431930 .classLabel .box{stroke:none;stroke-width:0;fill:#ECECFF;opacity:0.5}#mermaid-1596084431930 .classLabel .label{fill:#9370db;font-size:10px}#mermaid-1596084431930 .relation{stroke:#9370db;stroke-width:1;fill:none}#mermaid-1596084431930 .dashed-line{stroke-dasharray:3}#mermaid-1596084431930 #compositionStart{fill:#9370db;stroke:#9370db;stroke-width:1}#mermaid-1596084431930 #compositionEnd{fill:#9370db;stroke:#9370db;stroke-width:1}#mermaid-1596084431930 #aggregationStart{fill:#ECECFF;stroke:#9370db;stroke-width:1}#mermaid-1596084431930 #aggregationEnd{fill:#ECECFF;stroke:#9370db;stroke-width:1}#mermaid-1596084431930 #dependencyStart{fill:#9370db;stroke:#9370db;stroke-width:1}#mermaid-1596084431930 #dependencyEnd{fill:#9370db;stroke:#9370db;stroke-width:1}#mermaid-1596084431930 #extensionStart{fill:#9370db;stroke:#9370db;stroke-width:1}#mermaid-1596084431930 #extensionEnd{fill:#9370db;stroke:#9370db;stroke-width:1}#mermaid-1596084431930 .commit-id,#mermaid-1596084431930 .commit-msg,#mermaid-1596084431930 .branch-label{fill:lightgrey;color:lightgrey;font-family:'trebuchet ms', verdana, arial;font-family:var(--mermaid-font-family)}#mermaid-1596084431930 .pieTitleText{text-anchor:middle;font-size:25px;fill:#000;font-family:'trebuchet ms', verdana, arial;font-family:var(--mermaid-font-family)}#mermaid-1596084431930 .slice{font-family:'trebuchet ms', verdana, arial;font-family:var(--mermaid-font-family)}#mermaid-1596084431930 g.stateGroup text{fill:#9370db;stroke:none;font-size:10px;font-family:'trebuchet ms', verdana, arial;font-family:var(--mermaid-font-family)}#mermaid-1596084431930 g.stateGroup text{fill:#9370db;stroke:none;font-size:10px}#mermaid-1596084431930 g.stateGroup .state-title{font-weight:bolder;fill:#000}#mermaid-1596084431930 g.stateGroup rect{fill:#ECECFF;stroke:#9370db}#mermaid-1596084431930 g.stateGroup line{stroke:#9370db;stroke-width:1}#mermaid-1596084431930 .transition{stroke:#9370db;stroke-width:1;fill:none}#mermaid-1596084431930 .stateGroup .composit{fill:white;border-bottom:1px}#mermaid-1596084431930 .stateGroup .alt-composit{fill:#e0e0e0;border-bottom:1px}#mermaid-1596084431930 .state-note{stroke:#aa3;fill:#fff5ad}#mermaid-1596084431930 .state-note text{fill:black;stroke:none;font-size:10px}#mermaid-1596084431930 .stateLabel .box{stroke:none;stroke-width:0;fill:#ECECFF;opacity:0.5}#mermaid-1596084431930 .stateLabel text{fill:#000;font-size:10px;font-weight:bold;font-family:'trebuchet ms', verdana, arial;font-family:var(--mermaid-font-family)}#mermaid-1596084431930 .node circle.state-start{fill:black;stroke:black}#mermaid-1596084431930 .node circle.state-end{fill:black;stroke:white;stroke-width:1.5}#mermaid-1596084431930 #statediagram-barbEnd{fill:#9370db}#mermaid-1596084431930 .statediagram-cluster rect{fill:#ECECFF;stroke:#9370db;stroke-width:1px}#mermaid-1596084431930 .statediagram-cluster rect.outer{rx:5px;ry:5px}#mermaid-1596084431930 .statediagram-state .divider{stroke:#9370db}#mermaid-1596084431930 .statediagram-state .title-state{rx:5px;ry:5px}#mermaid-1596084431930 .statediagram-cluster.statediagram-cluster .inner{fill:white}#mermaid-1596084431930 .statediagram-cluster.statediagram-cluster-alt .inner{fill:#e0e0e0}#mermaid-1596084431930 .statediagram-cluster .inner{rx:0;ry:0}#mermaid-1596084431930 .statediagram-state rect.basic{rx:5px;ry:5px}#mermaid-1596084431930 .statediagram-state rect.divider{stroke-dasharray:10,10;fill:#efefef}#mermaid-1596084431930 .note-edge{stroke-dasharray:5}#mermaid-1596084431930 .statediagram-note rect{fill:#fff5ad;stroke:#aa3;stroke-width:1px;rx:0;ry:0}:root{--mermaid-font-family: '"trebuchet ms", verdana, arial';--mermaid-font-family: "Comic Sans MS", "Comic Sans", cursive}

:root { --mermaid-font-family: "trebuchet ms", verdana, arial;}</style><style>#mermaid-1596084431930 {
    color: rgb(0, 0, 0);
    font: 16px "trebuchet ms", verdana, arial;
  }</style><g><defs><marker id="statediagram-barbEnd" refX="19" refY="7" markerWidth="20" markerHeight="14" markerUnits="0" orient="auto"><path d="M 19,7 L9,13 L14,7 L9,1 Z"></path></marker></defs><g class="root"><g class="clusters"><g class="note-cluster" id="0----parent"><rect x="8" y="72" width="620.09375" height="235" fill="none"></rect></g><g class="note-cluster" id="21----parent"><rect x="1175.46484375" y="72" width="2279.16796875" height="235" fill="none"></rect></g><g class="note-cluster" id="3----parent"><rect x="234.87890625" y="867.5" width="758.31640625" height="240" fill="none"></rect></g><g class="note-cluster" id="11----parent"><rect x="1678.234375" y="867.5" width="1821.9140625" height="240" fill="none"></rect></g></g><g class="edgePaths"><path d="M238.0234375,22L238.0234375,26.166666666666668C238.0234375,30.333333333333332,238.0234375,38.666666666666664,238.0234375,47C238.0234375,55.333333333333336,238.0234375,63.666666666666664,238.0234375,73.33333333333333C238.0234375,83,238.0234375,94,238.0234375,99.5L238.0234375,105" id="edge0" class="transition" marker-end="url(#statediagram-barbEnd)"></path><path d="M260.8872767857143,139L270.41387648809524,146.08333333333334C279.9404761904762,153.16666666666666,298.9936755952381,167.33333333333334,308.52027529761904,180.16666666666666C318.046875,193,318.046875,204.5,318.046875,210.25L318.046875,216" class="transition note-edge"></path><path d="M238.0234375,139L238.0234375,146.08333333333334C238.0234375,153.16666666666666,238.0234375,167.33333333333334,449.8157552083333,184.66465334345128C661.6080729166666,201.9959733535692,1085.1927083333333,222.49194670713848,1296.9850260416667,232.7399333839231L1508.77734375,242.98792006070772" id="edge1" class="transition" marker-end="url(#statediagram-barbEnd)"></path><path d="M1757.27734375,253.07474224527118L2031.33203125,262.06228520439265C2305.38671875,271.0498281635141,2853.49609375,289.02491408175706,3127.55078125,303.76245704087853C3401.60546875,318.5,3401.60546875,330,3401.60546875,341.5C3401.60546875,353,3401.60546875,364.5,3401.60546875,370.25L3401.60546875,376" id="edge2" class="transition" marker-end="url(#statediagram-barbEnd)"></path><path d="M1516.6031452047414,279.25L1498.8027512122844,283.875C1481.0023572198277,288.5,1445.4015692349137,297.75,1427.6011752424567,308.125C1409.80078125,318.5,1409.80078125,330,1409.80078125,346.5416666666667C1409.80078125,363.0833333333333,1409.80078125,384.6666666666667,1409.80078125,406.25C1409.80078125,427.8333333333333,1409.80078125,449.4166666666667,1409.80078125,471C1409.80078125,492.5833333333333,1409.80078125,514.1666666666666,1409.80078125,535.75C1409.80078125,557.3333333333334,1409.80078125,578.9166666666666,1409.80078125,600.5C1409.80078125,622.0833333333334,1409.80078125,643.6666666666666,1409.80078125,665.25C1409.80078125,686.8333333333334,1409.80078125,708.4166666666666,1409.80078125,727.7916666666666C1409.80078125,747.1666666666666,1409.80078125,764.3333333333334,1409.80078125,781.5C1409.80078125,798.6666666666666,1409.80078125,815.8333333333334,1575.4329427083333,830.1666666666666C1741.0651041666667,844.5,2072.3294270833335,856,2237.9615885416665,870.9583333333334C2403.59375,885.9166666666666,2403.59375,904.3333333333334,2403.59375,924.3333333333334C2403.59375,944.3333333333334,2403.59375,965.9166666666666,2415.089587355212,982.4583333333334C2426.585424710425,999,2449.577099420849,1010.5,2461.072936776062,1016.25L2472.568774131274,1022" id="edge3" class="transition" marker-end="url(#statediagram-barbEnd)"></path><path d="M3425.5302696669883,436.5L3430.0779590974903,442.25C3434.625648527992,448,3443.721027388996,459.5,3448.2687168194984,476.0416666666667C3452.81640625,492.5833333333333,3452.81640625,514.1666666666666,3452.81640625,535.75C3452.81640625,557.3333333333334,3452.81640625,578.9166666666666,3452.81640625,600.5C3452.81640625,622.0833333333334,3452.81640625,643.6666666666666,3452.81640625,665.25C3452.81640625,686.8333333333334,3452.81640625,708.4166666666666,3452.81640625,727.7916666666666C3452.81640625,747.1666666666666,3452.81640625,764.3333333333334,3452.81640625,781.5C3452.81640625,798.6666666666666,3452.81640625,815.8333333333334,3448.8365885416665,830.1666666666666C3444.8567708333335,844.5,3436.8971354166665,856,3432.9173177083335,870.9583333333334C3428.9375,885.9166666666666,3428.9375,904.3333333333334,3428.9375,924.3333333333334C3428.9375,944.3333333333334,3428.9375,965.9166666666666,3294.1927083333335,986.4469387132218C3159.4479166666665,1006.977210759777,2889.9583333333335,1026.454421519554,2755.2135416666665,1036.1930268994424L2620.46875,1045.9316322793309" id="edge4" class="transition" marker-end="url(#statediagram-barbEnd)"></path><path d="M1508.77734375,270.60869565217394L1473.90234375,276.6739130434783C1439.02734375,282.7391304347826,1369.27734375,294.8695652173913,1334.40234375,306.6847826086957C1299.52734375,318.5,1299.52734375,330,1299.52734375,346.5416666666667C1299.52734375,363.0833333333333,1299.52734375,384.6666666666667,1299.52734375,406.25C1299.52734375,427.8333333333333,1299.52734375,449.4166666666667,1576.8190104166667,470.3731924762191C1854.1106770833333,491.32971828577155,2408.6940104166665,511.65943657154315,2685.9856770833335,521.8242957144289L2963.27734375,531.9891548573147" id="edge5" class="transition" marker-end="url(#statediagram-barbEnd)"></path><path d="M3286.91796875,428.36872294875974L3250.0768229166665,435.4739357906331C3213.2356770833335,442.57914863250653,3139.5533854166665,456.78957431625327,3102.7122395833335,469.6447871581266C3065.87109375,482.5,3065.87109375,494,3065.87109375,499.75L3065.87109375,505.5" id="edge6" class="transition" marker-end="url(#statediagram-barbEnd)"></path><path d="M3168.46484375,561.8715919389275L3193.7506510416665,568.3096599491063C3219.0364583333335,574.747727959285,3269.6080729166665,587.6238639796425,3294.8938802083335,604.8535986564879C3320.1796875,622.0833333333334,3320.1796875,643.6666666666666,3320.1796875,665.25C3320.1796875,686.8333333333334,3320.1796875,708.4166666666666,3320.1796875,727.7916666666666C3320.1796875,747.1666666666666,3320.1796875,764.3333333333334,3320.1796875,781.5C3320.1796875,798.6666666666666,3320.1796875,815.8333333333334,3372.41796875,830.1666666666666C3424.65625,844.5,3529.1328125,856,3581.37109375,870.9583333333334C3633.609375,885.9166666666666,3633.609375,904.3333333333334,3633.609375,924.3333333333334C3633.609375,944.3333333333334,3633.609375,965.9166666666666,3633.609375,987.5C3633.609375,1009.0833333333334,3633.609375,1030.6666666666667,3633.609375,1050.6666666666667C3633.609375,1070.6666666666667,3633.609375,1089.0833333333333,3633.609375,1104.0416666666667C3633.609375,1119,3633.609375,1130.5,3633.609375,1147.0416666666667C3633.609375,1163.5833333333333,3633.609375,1185.1666666666667,3633.609375,1206.75C3633.609375,1228.3333333333333,3633.609375,1249.9166666666667,3633.609375,1271.5C3633.609375,1293.0833333333333,3633.609375,1314.6666666666667,3633.609375,1336.25C3633.609375,1357.8333333333333,3633.609375,1379.4166666666667,3147.0911458333335,1398.595591504285C2660.5729166666665,1417.7745163419033,1687.5364583333333,1434.549032683807,1201.0182291666667,1442.9362908547582L714.5,1451.32354902571" id="edge7" class="transition" marker-end="url(#statediagram-barbEnd)"></path><path d="M3113.251689189189,566L3122.2579180743246,571.75C3131.2641469594596,577.5,3149.27660472973,589,3158.282833614865,605.5416666666666C3167.2890625,622.0833333333334,3167.2890625,643.6666666666666,3167.2890625,665.25C3167.2890625,686.8333333333334,3167.2890625,708.4166666666666,3167.2890625,727.7916666666666C3167.2890625,747.1666666666666,3167.2890625,764.3333333333334,3167.2890625,781.5C3167.2890625,798.6666666666666,3167.2890625,815.8333333333334,3167.2890625,830.1666666666666C3167.2890625,844.5,3167.2890625,856,3167.2890625,870.9583333333334C3167.2890625,885.9166666666666,3167.2890625,904.3333333333334,3167.2890625,924.3333333333334C3167.2890625,944.3333333333334,3167.2890625,965.9166666666666,3076.15234375,986.0125118559305C2985.015625,1006.1083570451942,2802.7421875,1024.7167140903885,2711.60546875,1034.0208926129856L2620.46875,1043.3250711355827" id="edge8" class="transition" marker-end="url(#statediagram-barbEnd)"></path><path d="M2986.072484314672,566L2970.90415359556,571.75C2955.735822876448,577.5,2925.3991614382235,589,2910.230830719112,605.5416666666666C2895.0625,622.0833333333334,2895.0625,643.6666666666666,2895.0625,665.25C2895.0625,686.8333333333334,2895.0625,708.4166666666666,2895.0625,727.7916666666666C2895.0625,747.1666666666666,2895.0625,764.3333333333334,2895.0625,781.5C2895.0625,798.6666666666666,2895.0625,815.8333333333334,2895.0625,830.1666666666666C2895.0625,844.5,2895.0625,856,2895.0625,870.9583333333334C2895.0625,885.9166666666666,2895.0625,904.3333333333334,2895.0625,924.3333333333334C2895.0625,944.3333333333334,2895.0625,965.9166666666666,2849.296875,984.8939585221633C2803.53125,1003.8712503776597,2712,1020.2425007553196,2666.234375,1028.4281259441495L2620.46875,1036.6137511329794" id="edge9" class="transition" marker-end="url(#statediagram-barbEnd)"></path><path d="M2963.27734375,550.3741110356274L2904.6686197916665,558.7284258630228C2846.0598958333335,567.0827406904183,2728.8424479166665,583.7913703452091,2670.2337239583335,597.8956851726045C2611.625,612,2611.625,623.5,2611.625,629.25L2611.625,635" id="edge10" class="transition" marker-end="url(#statediagram-barbEnd)"></path><path d="M2963.27734375,540.1438910075549L2728.3997395833335,550.2032425062957C2493.5221354166665,560.2625940050366,2023.7669270833333,580.3812970025183,1788.8893229166667,601.2323151679258C1554.01171875,622.0833333333334,1554.01171875,643.6666666666666,1554.01171875,665.25C1554.01171875,686.8333333333334,1554.01171875,708.4166666666666,1554.01171875,727.7916666666666C1554.01171875,747.1666666666666,1554.01171875,764.3333333333334,1554.01171875,781.5C1554.01171875,798.6666666666666,1554.01171875,815.8333333333334,1707.1588541666667,830.1666666666666C1860.3059895833333,844.5,2166.6002604166665,856,2319.7473958333335,870.9583333333334C2472.89453125,885.9166666666666,2472.89453125,904.3333333333334,2472.89453125,924.3333333333334C2472.89453125,944.3333333333334,2472.89453125,965.9166666666666,2478.236245173745,982.4583333333334C2483.5779590974903,999,2494.2613869449806,1010.5,2499.6031008687255,1016.25L2504.944814792471,1022" id="edge11" class="transition" marker-end="url(#statediagram-barbEnd)"></path><path d="M2670.1066300675675,695.5L2681.222972972973,701.25C2692.3393158783783,707,2714.572001689189,718.5,2725.6883445945946,732.8333333333334C2736.8046875,747.1666666666666,2736.8046875,764.3333333333334,2736.8046875,781.5C2736.8046875,798.6666666666666,2736.8046875,815.8333333333334,2736.8046875,830.1666666666666C2736.8046875,844.5,2736.8046875,856,2736.8046875,870.9583333333334C2736.8046875,885.9166666666666,2736.8046875,904.3333333333334,2736.8046875,924.3333333333334C2736.8046875,944.3333333333334,2736.8046875,965.9166666666666,2717.4153645833335,982.8698573674322C2698.0260416666665,999.8230480681977,2659.2473958333335,1012.1460961363956,2639.8580729166665,1018.3076201704945L2620.46875,1024.4691442045935" id="edge12" class="transition" marker-end="url(#statediagram-barbEnd)"></path><path d="M2562.2983919902913,798.5L2569.029258950243,804.25C2575.7601259101943,810,2589.221859830097,821.5,2595.9527267900485,833C2602.68359375,844.5,2602.68359375,856,2602.68359375,870.9583333333334C2602.68359375,885.9166666666666,2602.68359375,904.3333333333334,2602.68359375,924.3333333333334C2602.68359375,944.3333333333334,2602.68359375,965.9166666666666,2596.499638030888,982.4583333333334C2590.315682311776,999,2577.947770873552,1010.5,2571.76381515444,1016.25L2565.579859435328,1022" id="edge13" class="transition" marker-end="url(#statediagram-barbEnd)"></path><path d="M2579.2836329633205,695.5L2573.1361003861007,701.25C2566.9885678088804,707,2554.69350265444,718.5,2548.5459700772203,730C2542.3984375,741.5,2542.3984375,753,2542.3984375,758.75L2542.3984375,764.5" id="edge14" class="transition" marker-end="url(#statediagram-barbEnd)"></path><path d="M2480.53125,675.9067635562923L2369.626953125,684.9223029635768C2258.72265625,693.9378423708616,2036.9140625,711.9689211854308,1926.009765625,729.5677939260487C1815.10546875,747.1666666666666,1815.10546875,764.3333333333334,1815.10546875,781.5C1815.10546875,798.6666666666666,1815.10546875,815.8333333333334,1711.7233072916667,830.1666666666666C1608.3411458333333,844.5,1401.5768229166667,856,1303.5626620239443,865.9166666666666C1205.5485011312219,875.8333333333334,1216.2845022624435,884.1666666666666,1221.6525028280544,888.3333333333334L1227.0205033936652,892.5" id="edge15" class="transition" marker-end="url(#statediagram-barbEnd)"></path><path d="M2448.2890625,792.0363372339883L2387.30859375,798.8636143616569C2326.328125,805.6908914893256,2204.3671875,819.3454457446628,2040.0045572916667,831.9227228723313C1875.6419270833333,844.5,1668.8776041666667,856,1550.7050133154223,865.9166666666666C1432.532422464178,875.8333333333334,1402.951563678356,884.1666666666666,1388.1611342854449,888.3333333333334L1373.370704892534,892.5" id="edge16" class="transition" marker-end="url(#statediagram-barbEnd)"></path><path d="M1415.015625,904.1038109805357L1430.4722222222224,902.1698424837797C1445.9288194444443,900.2358739870239,1476.8420138888887,896.367936993512,1496.1627604166667,894.4339684967559C1515.4835069444443,892.5,1523.2118055555557,892.5,1530.9401041666667,897.5416666666666C1538.668402777778,902.5833333333334,1546.396701388889,912.6666666666666,1546.396701388889,922.75C1546.396701388889,932.8333333333334,1538.668402777778,942.9166666666666,1530.9401041666667,947.9583333333334C1523.2118055555557,953,1515.4835069444443,953,1496.1627604166667,951.0660315032441C1476.8420138888887,949.132063006488,1445.9288194444443,945.2641260129761,1430.472222222222,943.3301575162201L1415.015625,941.3961890194643" id="edge17" class="transition" marker-end="url(#statediagram-barbEnd)"></path><path d="M1415.015625,935.2227969987074L1519.1158854166667,943.9356641655895C1623.2161458333333,952.6485313324716,1831.4166666666667,970.0742656662359,2003.1848958333333,987.6668194177693C2174.953125,1005.2593731693029,2310.2890625,1023.0187463386056,2377.95703125,1031.8984329232571L2445.625,1040.7781195079085" id="edge18" class="transition" marker-end="url(#statediagram-barbEnd)"></path><path d="M1415.015625,941.0172895744901L1478.2161458333333,948.7644079787418C1541.4166666666667,956.5115263829933,1667.8177083333333,972.0057631914966,1839.5859375,989.2676237620449C2011.3541666666667,1006.5294843325931,2228.4895833333335,1025.5589686651863,2337.0572916666665,1035.0737108314827L2445.625,1044.5884529977793" id="edge19" class="transition" marker-end="url(#statediagram-barbEnd)"></path><path d="M1116.96875,946.0178921291587L1072.6888020833333,952.9315767742988C1028.4088541666667,959.845261419439,939.8489583333334,973.6726307097196,859.828125,987.1436372287991C779.8072916666666,1000.6146437478786,708.3255208333334,1013.7292874957571,672.5846354166666,1020.2866093696965L636.84375,1026.8439312436358" id="edge20" class="transition" marker-end="url(#statediagram-barbEnd)"></path><path d="M636.84375,1071.4594281146713L680.1451822916666,1077.4661900955593C723.4466145833334,1083.4729520764474,810.0494791666666,1095.4864760382236,853.3509114583334,1107.243238019112C896.65234375,1119,896.65234375,1130.5,896.65234375,1147.0416666666667C896.65234375,1163.5833333333333,896.65234375,1185.1666666666667,896.65234375,1206.75C896.65234375,1228.3333333333333,896.65234375,1249.9166666666667,896.65234375,1271.5C896.65234375,1293.0833333333333,896.65234375,1314.6666666666667,896.65234375,1336.25C896.65234375,1357.8333333333333,896.65234375,1379.4166666666667,866.2936197916666,1396.4523765879887C835.9348958333334,1413.488086509311,775.2174479166666,1425.9761730186217,744.8587239583334,1432.2202162732772L714.5,1438.4642595279324" id="edge21" class="transition" marker-end="url(#statediagram-barbEnd)"></path><path d="M457.76366303733033,1082.5L452.17089107277525,1086.6666666666667C446.5781191082203,1090.8333333333333,435.3925751791101,1099.1666666666667,429.7998032145551,1109.0833333333333C424.20703125,1119,424.20703125,1130.5,424.20703125,1142C424.20703125,1153.5,424.20703125,1165,424.20703125,1170.75L424.20703125,1176.5" id="edge22" class="transition" marker-end="url(#statediagram-barbEnd)"></path><path d="M554.18359375,1232.8701142039668L586.2213541666666,1239.3084285033055C618.2591145833334,1245.7467428026446,682.3346354166666,1258.6233714013222,714.3723958333334,1275.8533523673277C746.41015625,1293.0833333333333,746.41015625,1314.6666666666667,746.41015625,1336.25C746.41015625,1357.8333333333333,746.41015625,1379.4166666666667,735.22809845267,1395.9583333333333C724.0460406553398,1412.5,701.6819250606795,1424,690.4998672633495,1429.75L679.3178094660194,1435.5" id="edge23" class="transition" marker-end="url(#statediagram-barbEnd)"></path><path d="M378.14950832528956,1237L369.3947725627413,1242.75C360.64003680019306,1248.5,343.13056527509656,1260,334.37582951254825,1271.5C325.62109375,1283,325.62109375,1294.5,325.62109375,1300.25L325.62109375,1306" id="edge24" class="transition" marker-end="url(#statediagram-barbEnd)"></path><path d="M469.08984375,1365.5851013963586L497.95703125,1371.4875844969654C526.82421875,1377.3900675975722,584.55859375,1389.1950337987862,589.2804915048544,1400.847516899393C594.0023892597087,1412.5,545.7118097694175,1424,521.5665200242719,1429.75L497.42123027912623,1435.5" id="edge25" class="transition" marker-end="url(#statediagram-barbEnd)"></path><path d="M378.0366644546332,1366.5L387.99995475386095,1372.25C397.96324505308877,1378,417.8898256515444,1389.5,403.70782620562653,1401C389.5258267597087,1412.5,341.23524726941747,1424,317.0899575242718,1429.75L292.94466777912623,1435.5" id="edge26" class="transition" marker-end="url(#statediagram-barbEnd)"></path><path d="M273.2055230453668,1366.5L263.242232746139,1372.25C253.2789424469112,1378,233.35236184845562,1389.5,284.15404550756114,1402.4800475309478C334.9557291666667,1415.4600950618953,456.4856770833333,1429.920190123791,517.2506510416666,1437.1502376547387L578.015625,1444.3802851856865" id="edge27" class="transition" marker-end="url(#statediagram-barbEnd)"></path><path d="M2533.046875,1082.5L2533.046875,1086.6666666666667C2533.046875,1090.8333333333333,2533.046875,1099.1666666666667,2533.046875,1109.0833333333333C2533.046875,1119,2533.046875,1130.5,2533.046875,1147.0416666666667C2533.046875,1163.5833333333333,2533.046875,1185.1666666666667,2533.046875,1206.75C2533.046875,1228.3333333333333,2533.046875,1249.9166666666667,2533.046875,1271.5C2533.046875,1293.0833333333333,2533.046875,1314.6666666666667,2533.046875,1336.25C2533.046875,1357.8333333333333,2533.046875,1379.4166666666667,2229.9557291666665,1398.4812210241992C1926.8645833333333,1417.5457753817318,1320.6822916666667,1434.0915507634636,1017.5911458333334,1442.3644384543295L714.5,1450.6373261451954" id="edge28" class="transition" marker-end="url(#statediagram-barbEnd)"></path><path d="M1633.02734375,147L1633.02734375,152.75C1633.02734375,158.5,1633.02734375,170,1633.02734375,181.95833333333334C1633.02734375,193.91666666666666,1633.02734375,206.33333333333334,1633.02734375,212.54166666666666L1633.02734375,218.75" class="transition note-edge"></path><path d="M443.00390625,947.75L443.00390625,954.375C443.00390625,961,443.00390625,974.25,447.9203366312741,986.625C452.83676701254825,999,462.66962777509656,1010.5,467.58605815637065,1016.25L472.5024885376448,1022" class="transition note-edge"></path><path d="M2195.46875,947.75L2195.46875,954.375C2195.46875,961,2195.46875,974.25,2237.1614583333335,988.8719721515081C2278.8541666666665,1003.4939443030162,2362.2395833333335,1019.4878886060325,2403.9322916666665,1027.4848607575407L2445.625,1035.4818329090488" class="transition note-edge"></path><path d="M426.03515625,1469.5L426.03515625,1473.6666666666667C426.03515625,1477.8333333333333,426.03515625,1486.1666666666667,410.55599525364886,1495.3096023421283C395.07683425729766,1504.4525380175894,364.1185122645954,1514.405076035179,348.6393512682441,1519.3813450439739L333.160190271893,1524.3576140527687" id="edge29" class="transition" marker-end="url(#statediagram-barbEnd)"></path><path d="M221.55859375,1469.5L221.55859375,1473.6666666666667C221.55859375,1477.8333333333333,221.55859375,1486.1666666666667,237.9322428558262,1495.3263698682847C254.30589196165238,1504.4860730699022,287.05319017330476,1514.4721461398046,303.42683927913095,1519.4651826747559L319.80048838495713,1524.458219209707" id="edge30" class="transition" marker-end="url(#statediagram-barbEnd)"></path><path d="M646.2578125,1469.5L646.2578125,1473.6666666666667C646.2578125,1477.8333333333333,646.2578125,1486.1666666666667,594.1250608621336,1495.5504933452733C541.9923092242672,1504.93432002388,437.72680594853426,1515.3686400477602,385.59405431066784,1520.5858000597002L333.4613026728014,1525.8029600716404" id="edge31" class="transition" marker-end="url(#statediagram-barbEnd)"></path></g><g class="edgeLabels"><g class="edgeLabel"><g class="label" transform="translate(0, 0)"><rect rx="0" ry="0" width="0" height="0" style="fill:#e8e8e8;"></rect><text style=""></text></g></g><g class="edgeLabel"><g class="label" transform="translate(0, 0)"><rect rx="0" ry="0" width="0" height="0" style="fill:#e8e8e8;"></rect><text style=""></text></g></g><g class="edgeLabel" transform="translate(238.0234375, 181.5)"><g class="label" transform="translate(-60.0234375, -9.5)"><rect rx="0" ry="0" width="119.984375" height="19.03125" style="fill:#e8e8e8;"></rect><text style=""><tspan xml:space="preserve" dy="1em" x="0" class="row">ClientEventOpen</tspan></text></g></g><g class="edgeLabel" transform="translate(3401.60546875, 341.5)"><g class="label" transform="translate(-100.0390625, -9.5)"><rect rx="0" ry="0" width="199.953125" height="19.03125" style="fill:#e8e8e8;"></rect><text style=""><tspan xml:space="preserve" dy="1em" x="0" class="row">ClientEventFundingInitiated</tspan></text></g></g><g class="edgeLabel" transform="translate(1409.80078125, 665.25)"><g class="label" transform="translate(-107.6796875, -9.5)"><rect rx="0" ry="0" width="215.234375" height="19.03125" style="fill:#e8e8e8;"></rect><text style=""><tspan xml:space="preserve" dy="1em" x="0" class="row">ClientEventEnsureFundsFailed</tspan></text></g></g><g class="edgeLabel" transform="translate(3452.81640625, 730)"><g class="label" transform="translate(-107.6796875, -9.5)"><rect rx="0" ry="0" width="215.234375" height="19.03125" style="fill:#e8e8e8;"></rect><text style=""><tspan xml:space="preserve" dy="1em" x="0" class="row">ClientEventEnsureFundsFailed</tspan></text></g></g><g class="edgeLabel" transform="translate(1299.52734375, 406.25)"><g class="label" transform="translate(-90.2734375, -9.5)"><rect rx="0" ry="0" width="180.4375" height="19.03125" style="fill:#e8e8e8;"></rect><text style=""><tspan xml:space="preserve" dy="1em" x="0" class="row">ClientEventFundsEnsured</tspan></text></g></g><g class="edgeLabel" transform="translate(3065.87109375, 471)"><g class="label" transform="translate(-90.2734375, -9.5)"><rect rx="0" ry="0" width="180.4375" height="19.03125" style="fill:#e8e8e8;"></rect><text style=""><tspan xml:space="preserve" dy="1em" x="0" class="row">ClientEventFundsEnsured</tspan></text></g></g><g class="edgeLabel" transform="translate(3633.609375, 987.5)"><g class="label" transform="translate(-113.4609375, -9.5)"><rect rx="0" ry="0" width="226.78125" height="19.03125" style="fill:#e8e8e8;"></rect><text style=""><tspan xml:space="preserve" dy="1em" x="0" class="row">ClientEventWriteProposalFailed</tspan></text></g></g><g class="edgeLabel" transform="translate(3167.2890625, 781.5)"><g class="label" transform="translate(-113.96875, -9.5)"><rect rx="0" ry="0" width="227.796875" height="19.03125" style="fill:#e8e8e8;"></rect><text style=""><tspan xml:space="preserve" dy="1em" x="0" class="row">ClientEventReadResponseFailed</tspan></text></g></g><g class="edgeLabel" transform="translate(2895.0625, 781.5)"><g class="label" transform="translate(-138.2578125, -9.5)"><rect rx="0" ry="0" width="276.34375" height="19.03125" style="fill:#e8e8e8;"></rect><text style=""><tspan xml:space="preserve" dy="1em" x="0" class="row">ClientEventResponseVerificationFailed</tspan></text></g></g><g class="edgeLabel" transform="translate(2611.625, 600.5)"><g class="label" transform="translate(-113.9921875, -9.5)"><rect rx="0" ry="0" width="227.84375" height="19.03125" style="fill:#e8e8e8;"></rect><text style=""><tspan xml:space="preserve" dy="1em" x="0" class="row">ClientEventInitiateDataTransfer</tspan></text></g></g><g class="edgeLabel" transform="translate(1554.01171875, 781.5)"><g class="label" transform="translate(-118.734375, -9.5)"><rect rx="0" ry="0" width="237.328125" height="19.03125" style="fill:#e8e8e8;"></rect><text style=""><tspan xml:space="preserve" dy="1em" x="0" class="row">ClientEventUnexpectedDealState</tspan></text></g></g><g class="edgeLabel" transform="translate(2736.8046875, 833)"><g class="label" transform="translate(-109.7890625, -9.5)"><rect rx="0" ry="0" width="219.4375" height="19.03125" style="fill:#e8e8e8;"></rect><text style=""><tspan xml:space="preserve" dy="1em" x="0" class="row">ClientEventDataTransferFailed</tspan></text></g></g><g class="edgeLabel" transform="translate(2602.68359375, 922.75)"><g class="label" transform="translate(-109.7890625, -9.5)"><rect rx="0" ry="0" width="219.4375" height="19.03125" style="fill:#e8e8e8;"></rect><text style=""><tspan xml:space="preserve" dy="1em" x="0" class="row">ClientEventDataTransferFailed</tspan></text></g></g><g class="edgeLabel" transform="translate(2542.3984375, 730)"><g class="label" transform="translate(-118.453125, -9.5)"><rect rx="0" ry="0" width="236.765625" height="19.03125" style="fill:#e8e8e8;"></rect><text style=""><tspan xml:space="preserve" dy="1em" x="0" class="row">ClientEventDataTransferInitiated</tspan></text></g></g><g class="edgeLabel" transform="translate(1815.10546875, 781.5)"><g class="label" transform="translate(-122.359375, -9.5)"><rect rx="0" ry="0" width="244.5625" height="19.03125" style="fill:#e8e8e8;"></rect><text style=""><tspan xml:space="preserve" dy="1em" x="0" class="row">ClientEventDataTransferComplete</tspan></text></g></g><g class="edgeLabel" transform="translate(2082.40625, 833)"><g class="label" transform="translate(-122.359375, -9.5)"><rect rx="0" ry="0" width="244.5625" height="19.03125" style="fill:#e8e8e8;"></rect><text style=""><tspan xml:space="preserve" dy="1em" x="0" class="row">ClientEventDataTransferComplete</tspan></text></g></g><g class="edgeLabel" transform="translate(1554.125, 922.75)"><g class="label" transform="translate(-104.109375, -9.5)"><rect rx="0" ry="0" width="208.09375" height="19.03125" style="fill:#e8e8e8;"></rect><text style=""><tspan xml:space="preserve" dy="1em" x="0" class="row">ClientEventWaitForDealState</tspan></text></g></g><g class="edgeLabel" transform="translate(2039.6171875, 987.5)"><g class="label" transform="translate(-135.8515625, -9.5)"><rect rx="0" ry="0" width="271.546875" height="19.03125" style="fill:#e8e8e8;"></rect><text style=""><tspan xml:space="preserve" dy="1em" x="0" class="row">ClientEventResponseDealDidNotMatch</tspan></text></g></g><g class="edgeLabel" transform="translate(1794.21875, 987.5)"><g class="label" transform="translate(-89.546875, -9.5)"><rect rx="0" ry="0" width="178.984375" height="19.03125" style="fill:#e8e8e8;"></rect><text style=""><tspan xml:space="preserve" dy="1em" x="0" class="row">ClientEventDealRejected</tspan></text></g></g><g class="edgeLabel" transform="translate(851.2890625, 987.5)"><g class="label" transform="translate(-90.7265625, -9.5)"><rect rx="0" ry="0" width="181.34375" height="19.03125" style="fill:#e8e8e8;"></rect><text style=""><tspan xml:space="preserve" dy="1em" x="0" class="row">ClientEventDealAccepted</tspan></text></g></g><g class="edgeLabel" transform="translate(896.65234375, 1271.5)"><g class="label" transform="translate(-104.6796875, -9.5)"><rect rx="0" ry="0" width="209.234375" height="19.03125" style="fill:#e8e8e8;"></rect><text style=""><tspan xml:space="preserve" dy="1em" x="0" class="row">ClientEventDealPublishFailed</tspan></text></g></g><g class="edgeLabel" transform="translate(424.20703125, 1142)"><g class="label" transform="translate(-91.6328125, -9.5)"><rect rx="0" ry="0" width="183.15625" height="19.03125" style="fill:#e8e8e8;"></rect><text style=""><tspan xml:space="preserve" dy="1em" x="0" class="row">ClientEventDealPublished</tspan></text></g></g><g class="edgeLabel" transform="translate(746.41015625, 1336.25)"><g class="label" transform="translate(-115.5078125, -9.5)"><rect rx="0" ry="0" width="230.875" height="19.03125" style="fill:#e8e8e8;"></rect><text style=""><tspan xml:space="preserve" dy="1em" x="0" class="row">ClientEventDealActivationFailed</tspan></text></g></g><g class="edgeLabel" transform="translate(325.62109375, 1271.5)"><g class="label" transform="translate(-91.5234375, -9.5)"><rect rx="0" ry="0" width="182.9375" height="19.03125" style="fill:#e8e8e8;"></rect><text style=""><tspan xml:space="preserve" dy="1em" x="0" class="row">ClientEventDealActivated</tspan></text></g></g><g class="edgeLabel" transform="translate(642.29296875, 1401)"><g class="label" transform="translate(-84.1171875, -9.5)"><rect rx="0" ry="0" width="168.125" height="19.03125" style="fill:#e8e8e8;"></rect><text style=""><tspan xml:space="preserve" dy="1em" x="0" class="row">ClientEventDealSlashed</tspan></text></g></g><g class="edgeLabel" transform="translate(437.81640625, 1401)"><g class="label" transform="translate(-84.234375, -9.5)"><rect rx="0" ry="0" width="168.375" height="19.03125" style="fill:#e8e8e8;"></rect><text style=""><tspan xml:space="preserve" dy="1em" x="0" class="row">ClientEventDealExpired</tspan></text></g></g><g class="edgeLabel" transform="translate(213.42578125, 1401)"><g class="label" transform="translate(-120.15625, -9.5)"><rect rx="0" ry="0" width="240.15625" height="19.03125" style="fill:#e8e8e8;"></rect><text style=""><tspan xml:space="preserve" dy="1em" x="0" class="row">ClientEventDealCompletionFailed</tspan></text></g></g><g class="edgeLabel" transform="translate(2533.046875, 1271.5)"><g class="label" transform="translate(-63.3046875, -9.5)"><rect rx="0" ry="0" width="126.53125" height="19.03125" style="fill:#e8e8e8;"></rect><text style=""><tspan xml:space="preserve" dy="1em" x="0" class="row">ClientEventFailed</tspan></text></g></g><g class="edgeLabel"><g class="label" transform="translate(0, 0)"><rect rx="0" ry="0" width="0" height="0" style="fill:#e8e8e8;"></rect><text style=""></text></g></g><g class="edgeLabel"><g class="label" transform="translate(0, 0)"><rect rx="0" ry="0" width="0" height="0" style="fill:#e8e8e8;"></rect><text style=""></text></g></g><g class="edgeLabel"><g class="label" transform="translate(0, 0)"><rect rx="0" ry="0" width="0" height="0" style="fill:#e8e8e8;"></rect><text style=""></text></g></g><g class="edgeLabel"><g class="label" transform="translate(0, 0)"><rect rx="0" ry="0" width="0" height="0" style="fill:#e8e8e8;"></rect><text style=""></text></g></g><g class="edgeLabel"><g class="label" transform="translate(0, 0)"><rect rx="0" ry="0" width="0" height="0" style="fill:#e8e8e8;"></rect><text style=""></text></g></g><g class="edgeLabel"><g class="label" transform="translate(0, 0)"><rect rx="0" ry="0" width="0" height="0" style="fill:#e8e8e8;"></rect><text style=""></text></g></g></g><g class="nodes"><g class="node statediagram-state" id="0" transform="translate(238.0234375, 122)"><rect class="outer title-state" x="-82.921875" y="-17" width="165.84375" height="34"></rect><line class="divider" x1="-82.921875" x2="82.921875" y1="9.5" y2="9.5"></line><g class="label" transform="translate(-75.421875, -14)"><text style=""><tspan xml:space="preserve" dy="1em" x="0" class="title-row">StorageDealUnknown</tspan></text><text style="" transform="translate( 0, 26.5)"><tspan xml:space="preserve" dy="1em" x="0" class="title-row"></tspan></text></g></g><g class="node statediagram-state" id="3" transform="translate(498.3671875, 1052.25)"><rect class="outer title-state" x="-138.4765625" y="-30.25" width="276.953125" height="60.5"></rect><line class="divider" x1="-138.4765625" x2="138.4765625" y1="-3.75" y2="-3.75"></line><g class="label" transform="translate(-130.9765625, -27.25)"><text style=""><tspan xml:space="preserve" dy="1em" x="0" class="title-row">StorageDealProposalAccepted</tspan></text><text style="" transform="translate( 0, 26.5)"><tspan xml:space="preserve" dy="1em" x="0" class="title-row">On entry runs ValidateDealPublished</tspan></text></g></g><g class="node statediagram-state" id="5" transform="translate(424.20703125, 1206.75)"><rect class="outer title-state" x="-129.9765625" y="-30.25" width="259.953125" height="60.5"></rect><line class="divider" x1="-129.9765625" x2="129.9765625" y1="-3.75" y2="-3.75"></line><g class="label" transform="translate(-122.4765625, -27.25)"><text style=""><tspan xml:space="preserve" dy="1em" x="0" class="title-row">StorageDealSealing</tspan></text><text style="" transform="translate( 0, 26.5)"><tspan xml:space="preserve" dy="1em" x="0" class="title-row">On entry runs VerifyDealActivated</tspan></text></g></g><g class="node statediagram-state" id="7" transform="translate(325.62109375, 1336.25)"><rect class="outer title-state" x="-143.46875" y="-30.25" width="286.9375" height="60.5"></rect><line class="divider" x1="-143.46875" x2="143.46875" y1="-3.75" y2="-3.75"></line><g class="label" transform="translate(-135.96875, -27.25)"><text style=""><tspan xml:space="preserve" dy="1em" x="0" class="title-row">StorageDealActive</tspan></text><text style="" transform="translate( 0, 26.5)"><tspan xml:space="preserve" dy="1em" x="0" class="title-row">On entry runs WaitForDealCompletion</tspan></text></g></g><g class="node statediagram-state" id="8" transform="translate(221.55859375, 1452.5)"><rect class="outer title-state" x="-77.296875" y="-17" width="154.59375" height="34"></rect><line class="divider" x1="-77.296875" x2="77.296875" y1="9.5" y2="9.5"></line><g class="label" transform="translate(-69.796875, -14)"><text style=""><tspan xml:space="preserve" dy="1em" x="0" class="title-row">StorageDealExpired</tspan></text><text style="" transform="translate( 0, 26.5)"><tspan xml:space="preserve" dy="1em" x="0" class="title-row"></tspan></text></g></g><g class="node statediagram-state" id="9" transform="translate(426.03515625, 1452.5)"><rect class="outer title-state" x="-77.1796875" y="-17" width="154.359375" height="34"></rect><line class="divider" x1="-77.1796875" x2="77.1796875" y1="9.5" y2="9.5"></line><g class="label" transform="translate(-69.6796875, -14)"><text style=""><tspan xml:space="preserve" dy="1em" x="0" class="title-row">StorageDealSlashed</tspan></text><text style="" transform="translate( 0, 26.5)"><tspan xml:space="preserve" dy="1em" x="0" class="title-row"></tspan></text></g></g><g class="node statediagram-state" id="11" transform="translate(2533.046875, 1052.25)"><rect class="outer title-state" x="-87.421875" y="-30.25" width="174.84375" height="60.5"></rect><line class="divider" x1="-87.421875" x2="87.421875" y1="-3.75" y2="-3.75"></line><g class="label" transform="translate(-79.921875, -27.25)"><text style=""><tspan xml:space="preserve" dy="1em" x="0" class="title-row">StorageDealFailing</tspan></text><text style="" transform="translate( 0, 26.5)"><tspan xml:space="preserve" dy="1em" x="0" class="title-row">On entry runs FailDeal</tspan></text></g></g><g class="node statediagram-state" id="12" transform="translate(3065.87109375, 535.75)"><rect class="outer title-state" x="-102.59375" y="-30.25" width="205.1875" height="60.5"></rect><line class="divider" x1="-102.59375" x2="102.59375" y1="-3.75" y2="-3.75"></line><g class="label" transform="translate(-95.09375, -27.25)"><text style=""><tspan xml:space="preserve" dy="1em" x="0" class="title-row">StorageDealFundsEnsured</tspan></text><text style="" transform="translate( 0, 26.5)"><tspan xml:space="preserve" dy="1em" x="0" class="title-row">On entry runs ProposeDeal</tspan></text></g></g><g class="node statediagram-state" id="13" transform="translate(1265.9921875, 922.75)"><rect class="outer title-state" x="-149.0234375" y="-30.25" width="298.046875" height="60.5"></rect><line class="divider" x1="-149.0234375" x2="149.0234375" y1="-3.75" y2="-3.75"></line><g class="label" transform="translate(-141.5234375, -27.25)"><text style=""><tspan xml:space="preserve" dy="1em" x="0" class="title-row">StorageDealCheckForAcceptance</tspan></text><text style="" transform="translate( 0, 26.5)"><tspan xml:space="preserve" dy="1em" x="0" class="title-row">On entry runs CheckForDealAcceptance</tspan></text></g></g><g class="node statediagram-state" id="16" transform="translate(2611.625, 665.25)"><rect class="outer title-state" x="-131.09375" y="-30.25" width="262.1875" height="60.5"></rect><line class="divider" x1="-131.09375" x2="131.09375" y1="-3.75" y2="-3.75"></line><g class="label" transform="translate(-123.59375, -27.25)"><text style=""><tspan xml:space="preserve" dy="1em" x="0" class="title-row">StorageDealStartDataTransfer</tspan></text><text style="" transform="translate( 0, 26.5)"><tspan xml:space="preserve" dy="1em" x="0" class="title-row">On entry runs InitiateDataTransfer</tspan></text></g></g><g class="node statediagram-state" id="17" transform="translate(2542.3984375, 781.5)"><rect class="outer title-state" x="-94.109375" y="-17" width="188.21875" height="34"></rect><line class="divider" x1="-94.109375" x2="94.109375" y1="9.5" y2="9.5"></line><g class="label" transform="translate(-86.609375, -14)"><text style=""><tspan xml:space="preserve" dy="1em" x="0" class="title-row">StorageDealTransferring</tspan></text><text style="" transform="translate( 0, 26.5)"><tspan xml:space="preserve" dy="1em" x="0" class="title-row"></tspan></text></g></g><g class="node statediagram-state" id="21" transform="translate(1633.02734375, 249)"><rect class="outer title-state" x="-124.25" y="-30.25" width="248.5" height="60.5"></rect><line class="divider" x1="-124.25" x2="124.25" y1="-3.75" y2="-3.75"></line><g class="label" transform="translate(-116.75, -27.25)"><text style=""><tspan xml:space="preserve" dy="1em" x="0" class="title-row">StorageDealEnsureClientFunds</tspan></text><text style="" transform="translate( 0, 26.5)"><tspan xml:space="preserve" dy="1em" x="0" class="title-row">On entry runs EnsureClientFunds</tspan></text></g></g><g class="node statediagram-state" id="23" transform="translate(3401.60546875, 406.25)"><rect class="outer title-state" x="-114.6875" y="-30.25" width="229.375" height="60.5"></rect><line class="divider" x1="-114.6875" x2="114.6875" y1="-3.75" y2="-3.75"></line><g class="label" transform="translate(-107.1875, -27.25)"><text style=""><tspan xml:space="preserve" dy="1em" x="0" class="title-row">StorageDealClientFunding</tspan></text><text style="" transform="translate( 0, 26.5)"><tspan xml:space="preserve" dy="1em" x="0" class="title-row">On entry runs WaitForFunding</tspan></text></g></g><g class="node statediagram-state" id="26" transform="translate(646.2578125, 1452.5)"><rect class="outer title-state" x="-68.2421875" y="-17" width="136.484375" height="34"></rect><line class="divider" x1="-68.2421875" x2="68.2421875" y1="9.5" y2="9.5"></line><g class="label" transform="translate(-60.7421875, -14)"><text style=""><tspan xml:space="preserve" dy="1em" x="0" class="title-row">StorageDealError</tspan></text><text style="" transform="translate( 0, 26.5)"><tspan xml:space="preserve" dy="1em" x="0" class="title-row"></tspan></text></g></g><g class="node default" id="root_start" transform="translate(238.0234375, 15)"><circle class="state-start" r="7" width="14" height="14"></circle></g><g class="node statediagram-note" id="0----note" transform="translate(318.046875, 249)"><rect x="-275.046875" y="-33" width="550.09375" height="66"></rect><g class="label" transform="translate(-267.546875, -25.5)"><text style=""><tspan xml:space="preserve" dy="1em" x="0" class="row">The following events are not shown cause they can trigger from any state.</tspan><tspan xml:space="preserve" dy="1em" x="0" class="row"></tspan><tspan xml:space="preserve" dy="1em" x="0" class="row">ClientEventStreamCloseError - transitions state to StorageDealError</tspan><tspan xml:space="preserve" dy="1em" x="0" class="row">ClientEventRestart - does not transition state</tspan></text></g></g><g class="node statediagram-note" id="21----note" transform="translate(1633.02734375, 122)"><rect x="-173.125" y="-25" width="346.25" height="50"></rect><g class="label" transform="translate(-165.625, -17.5)"><text style=""><tspan xml:space="preserve" dy="1em" x="0" class="row">The following events only record in this state.</tspan><tspan xml:space="preserve" dy="1em" x="0" class="row"></tspan><tspan xml:space="preserve" dy="1em" x="0" class="row">ClientEventFundsReserved</tspan></text></g></g><g class="node statediagram-note" id="3----note" transform="translate(443.00390625, 922.75)"><rect x="-173.125" y="-25" width="346.25" height="50"></rect><g class="label" transform="translate(-165.625, -17.5)"><text style=""><tspan xml:space="preserve" dy="1em" x="0" class="row">The following events only record in this state.</tspan><tspan xml:space="preserve" dy="1em" x="0" class="row"></tspan><tspan xml:space="preserve" dy="1em" x="0" class="row">ClientEventFundsReleased</tspan></text></g></g><g class="node statediagram-note" id="11----note" transform="translate(2195.46875, 922.75)"><rect x="-173.125" y="-25" width="346.25" height="50"></rect><g class="label" transform="translate(-165.625, -17.5)"><text style=""><tspan xml:space="preserve" dy="1em" x="0" class="row">The following events only record in this state.</tspan><tspan xml:space="preserve" dy="1em" x="0" class="row"></tspan><tspan xml:space="preserve" dy="1em" x="0" class="row">ClientEventFundsReleased</tspan></text></g></g><g class="node default" id="root_end" transform="translate(326.49609375, 1526.5)"><circle class="state-start" r="7" width="14" height="14"></circle><circle class="state-end" r="5" width="10" height="10"></circle></g></g></g></g></svg>