<svg id="mermaid-1595899095175" width="4310.8203125" xmlns="http://www.w3.org/2000/svg" class="statediagram" height="2096.5" viewBox="0 0 4310.8203125 2096.5"><style>#mermaid-1595899095175 .label{font-family:'trebuchet ms', verdana, arial;font-family:var(--mermaid-font-family);color:#333}#mermaid-1595899095175 .label text{fill:#333}#mermaid-1595899095175 .node rect,#mermaid-1595899095175 .node circle,#mermaid-1595899095175 .node ellipse,#mermaid-1595899095175 .node polygon,#mermaid-1595899095175 .node path{fill:#ECECFF;stroke:#9370db;stroke-width:1px}#mermaid-1595899095175 .node .label{text-align:center}#mermaid-1595899095175 .node.clickable{cursor:pointer}#mermaid-1595899095175 .arrowheadPath{fill:#333}#mermaid-1595899095175 .edgePath .path{stroke:#333;stroke-width:1.5px}#mermaid-1595899095175 .edgeLabel{background-color:#e8e8e8;text-align:center}#mermaid-1595899095175 .edgeLabel rect{opacity:0.5}#mermaid-1595899095175 .cluster rect{fill:#ffffde;stroke:#aa3;stroke-width:1px}#mermaid-1595899095175 .cluster text{fill:#333}#mermaid-1595899095175 div.mermaidTooltip{position:absolute;text-align:center;max-width:200px;padding:2px;font-family:'trebuchet ms', verdana, arial;font-family:var(--mermaid-font-family);font-size:12px;background:#ffffde;border:1px solid #aa3;border-radius:2px;pointer-events:none;z-index:100}#mermaid-1595899095175 .actor{stroke:#ccf;fill:#ECECFF}#mermaid-1595899095175 text.actor{fill:#000;stroke:none}#mermaid-1595899095175 .actor-line{stroke:grey}#mermaid-1595899095175 .messageLine0{stroke-width:1.5;stroke-dasharray:'2 2';stroke:#333}#mermaid-1595899095175 .messageLine1{stroke-width:1.5;stroke-dasharray:'2 2';stroke:#333}#mermaid-1595899095175 #arrowhead{fill:#333}#mermaid-1595899095175 .sequenceNumber{fill:#fff}#mermaid-1595899095175 #sequencenumber{fill:#333}#mermaid-1595899095175 #crosshead path{fill:#333 !important;stroke:#333 !important}#mermaid-1595899095175 .messageText{fill:#333;stroke:none}#mermaid-1595899095175 .labelBox{stroke:#ccf;fill:#ECECFF}#mermaid-1595899095175 .labelText{fill:#000;stroke:none}#mermaid-1595899095175 .loopText{fill:#000;stroke:none}#mermaid-1595899095175 .loopLine{stroke-width:2;stroke-dasharray:'2 2';stroke:#ccf}#mermaid-1595899095175 .note{stroke:#aa3;fill:#fff5ad}#mermaid-1595899095175 .noteText{fill:black;stroke:none;font-family:'trebuchet ms', verdana, arial;font-family:var(--mermaid-font-family);font-size:14px}#mermaid-1595899095175 .activation0{fill:#f4f4f4;stroke:#666}#mermaid-1595899095175 .activation1{fill:#f4f4f4;stroke:#666}#mermaid-1595899095175 .activation2{fill:#f4f4f4;stroke:#666}#mermaid-1595899095175 .mermaid-main-font{font-family:"trebuchet ms", verdana, arial;font-family:var(--mermaid-font-family)}#mermaid-1595899095175 .section{stroke:none;opacity:0.2}#mermaid-1595899095175 .section0{fill:rgba(102,102,255,0.49)}#mermaid-1595899095175 .section2{fill:#fff400}#mermaid-1595899095175 .section1,#mermaid-1595899095175 .section3{fill:#fff;opacity:0.2}#mermaid-1595899095175 .sectionTitle0{fill:#333}#mermaid-1595899095175 .sectionTitle1{fill:#333}#mermaid-1595899095175 .sectionTitle2{fill:#333}#mermaid-1595899095175 .sectionTitle3{fill:#333}#mermaid-1595899095175 .sectionTitle{text-anchor:start;font-size:11px;text-height:14px;font-family:'trebuchet ms', verdana, arial;font-family:var(--mermaid-font-family)}#mermaid-1595899095175 .grid .tick{stroke:#d3d3d3;opacity:0.8;shape-rendering:crispEdges}#mermaid-1595899095175 .grid .tick text{font-family:'trebuchet ms', verdana, arial;font-family:var(--mermaid-font-family)}#mermaid-1595899095175 .grid path{stroke-width:0}#mermaid-1595899095175 .today{fill:none;stroke:red;stroke-width:2px}#mermaid-1595899095175 .task{stroke-width:2}#mermaid-1595899095175 .taskText{text-anchor:middle;font-family:'trebuchet ms', verdana, arial;font-family:var(--mermaid-font-family)}#mermaid-1595899095175 .taskText:not([font-size]){font-size:11px}#mermaid-1595899095175 .taskTextOutsideRight{fill:#000;text-anchor:start;font-size:11px;font-family:'trebuchet ms', verdana, arial;font-family:var(--mermaid-font-family)}#mermaid-1595899095175 .taskTextOutsideLeft{fill:#000;text-anchor:end;font-size:11px}#mermaid-1595899095175 .task.clickable{cursor:pointer}#mermaid-1595899095175 .taskText.clickable{cursor:pointer;fill:#003163 !important;font-weight:bold}#mermaid-1595899095175 .taskTextOutsideLeft.clickable{cursor:pointer;fill:#003163 !important;font-weight:bold}#mermaid-1595899095175 .taskTextOutsideRight.clickable{cursor:pointer;fill:#003163 !important;font-weight:bold}#mermaid-1595899095175 .taskText0,#mermaid-1595899095175 .taskText1,#mermaid-1595899095175 .taskText2,#mermaid-1595899095175 .taskText3{fill:#fff}#mermaid-1595899095175 .task0,#mermaid-1595899095175 .task1,#mermaid-1595899095175 .task2,#mermaid-1595899095175 .task3{fill:#8a90dd;stroke:#534fbc}#mermaid-1595899095175 .taskTextOutside0,#mermaid-1595899095175 .taskTextOutside2{fill:#000}#mermaid-1595899095175 .taskTextOutside1,#mermaid-1595899095175 .taskTextOutside3{fill:#000}#mermaid-1595899095175 .active0,#mermaid-1595899095175 .active1,#mermaid-1595899095175 .active2,#mermaid-1595899095175 .active3{fill:#bfc7ff;stroke:#534fbc}#mermaid-1595899095175 .activeText0,#mermaid-1595899095175 .activeText1,#mermaid-1595899095175 .activeText2,#mermaid-1595899095175 .activeText3{fill:#000 !important}#mermaid-1595899095175 .done0,#mermaid-1595899095175 .done1,#mermaid-1595899095175 .done2,#mermaid-1595899095175 .done3{stroke:grey;fill:#d3d3d3;stroke-width:2}#mermaid-1595899095175 .doneText0,#mermaid-1595899095175 .doneText1,#mermaid-1595899095175 .doneText2,#mermaid-1595899095175 .doneText3{fill:#000 !important}#mermaid-1595899095175 .crit0,#mermaid-1595899095175 .crit1,#mermaid-1595899095175 .crit2,#mermaid-1595899095175 .crit3{stroke:#f88;fill:red;stroke-width:2}#mermaid-1595899095175 .activeCrit0,#mermaid-1595899095175 .activeCrit1,#mermaid-1595899095175 .activeCrit2,#mermaid-1595899095175 .activeCrit3{stroke:#f88;fill:#bfc7ff;stroke-width:2}#mermaid-1595899095175 .doneCrit0,#mermaid-1595899095175 .doneCrit1,#mermaid-1595899095175 .doneCrit2,#mermaid-1595899095175 .doneCrit3{stroke:#f88;fill:#d3d3d3;stroke-width:2;cursor:pointer;shape-rendering:crispEdges}#mermaid-1595899095175 .milestone{transform:rotate(45deg) scale(0.8, 0.8)}#mermaid-1595899095175 .milestoneText{font-style:italic}#mermaid-1595899095175 .doneCritText0,#mermaid-1595899095175 .doneCritText1,#mermaid-1595899095175 .doneCritText2,#mermaid-1595899095175 .doneCritText3{fill:#000 !important}#mermaid-1595899095175 .activeCritText0,#mermaid-1595899095175 .activeCritText1,#mermaid-1595899095175 .activeCritText2,#mermaid-1595899095175 .activeCritText3{fill:#000 !important}#mermaid-1595899095175 .titleText{text-anchor:middle;font-size:18px;fill:#000;font-family:'trebuchet ms', verdana, arial;font-family:var(--mermaid-font-family)}#mermaid-1595899095175 g.classGroup text{fill:#9370db;stroke:none;font-family:'trebuchet ms', verdana, arial;font-family:var(--mermaid-font-family);font-size:10px}#mermaid-1595899095175 g.classGroup text .title{font-weight:bolder}#mermaid-1595899095175 g.clickable{cursor:pointer}#mermaid-1595899095175 g.classGroup rect{fill:#ECECFF;stroke:#9370db}#mermaid-1595899095175 g.classGroup line{stroke:#9370db;stroke-width:1}#mermaid-1595899095175 .classLabel .box{stroke:none;stroke-width:0;fill:#ECECFF;opacity:0.5}#mermaid-1595899095175 .classLabel .label{fill:#9370db;font-size:10px}#mermaid-1595899095175 .relation{stroke:#9370db;stroke-width:1;fill:none}#mermaid-1595899095175 .dashed-line{stroke-dasharray:3}#mermaid-1595899095175 #compositionStart{fill:#9370db;stroke:#9370db;stroke-width:1}#mermaid-1595899095175 #compositionEnd{fill:#9370db;stroke:#9370db;stroke-width:1}#mermaid-1595899095175 #aggregationStart{fill:#ECECFF;stroke:#9370db;stroke-width:1}#mermaid-1595899095175 #aggregationEnd{fill:#ECECFF;stroke:#9370db;stroke-width:1}#mermaid-1595899095175 #dependencyStart{fill:#9370db;stroke:#9370db;stroke-width:1}#mermaid-1595899095175 #dependencyEnd{fill:#9370db;stroke:#9370db;stroke-width:1}#mermaid-1595899095175 #extensionStart{fill:#9370db;stroke:#9370db;stroke-width:1}#mermaid-1595899095175 #extensionEnd{fill:#9370db;stroke:#9370db;stroke-width:1}#mermaid-1595899095175 .commit-id,#mermaid-1595899095175 .commit-msg,#mermaid-1595899095175 .branch-label{fill:lightgrey;color:lightgrey;font-family:'trebuchet ms', verdana, arial;font-family:var(--mermaid-font-family)}#mermaid-1595899095175 .pieTitleText{text-anchor:middle;font-size:25px;fill:#000;font-family:'trebuchet ms', verdana, arial;font-family:var(--mermaid-font-family)}#mermaid-1595899095175 .slice{font-family:'trebuchet ms', verdana, arial;font-family:var(--mermaid-font-family)}#mermaid-1595899095175 g.stateGroup text{fill:#9370db;stroke:none;font-size:10px;font-family:'trebuchet ms', verdana, arial;font-family:var(--mermaid-font-family)}#mermaid-1595899095175 g.stateGroup text{fill:#9370db;stroke:none;font-size:10px}#mermaid-1595899095175 g.stateGroup .state-title{font-weight:bolder;fill:#000}#mermaid-1595899095175 g.stateGroup rect{fill:#ECECFF;stroke:#9370db}#mermaid-1595899095175 g.stateGroup line{stroke:#9370db;stroke-width:1}#mermaid-1595899095175 .transition{stroke:#9370db;stroke-width:1;fill:none}#mermaid-1595899095175 .stateGroup .composit{fill:white;border-bottom:1px}#mermaid-1595899095175 .stateGroup .alt-composit{fill:#e0e0e0;border-bottom:1px}#mermaid-1595899095175 .state-note{stroke:#aa3;fill:#fff5ad}#mermaid-1595899095175 .state-note text{fill:black;stroke:none;font-size:10px}#mermaid-1595899095175 .stateLabel .box{stroke:none;stroke-width:0;fill:#ECECFF;opacity:0.5}#mermaid-1595899095175 .stateLabel text{fill:#000;font-size:10px;font-weight:bold;font-family:'trebuchet ms', verdana, arial;font-family:var(--mermaid-font-family)}#mermaid-1595899095175 .node circle.state-start{fill:black;stroke:black}#mermaid-1595899095175 .node circle.state-end{fill:black;stroke:white;stroke-width:1.5}#mermaid-1595899095175 #statediagram-barbEnd{fill:#9370db}#mermaid-1595899095175 .statediagram-cluster rect{fill:#ECECFF;stroke:#9370db;stroke-width:1px}#mermaid-1595899095175 .statediagram-cluster rect.outer{rx:5px;ry:5px}#mermaid-1595899095175 .statediagram-state .divider{stroke:#9370db}#mermaid-1595899095175 .statediagram-state .title-state{rx:5px;ry:5px}#mermaid-1595899095175 .statediagram-cluster.statediagram-cluster .inner{fill:white}#mermaid-1595899095175 .statediagram-cluster.statediagram-cluster-alt .inner{fill:#e0e0e0}#mermaid-1595899095175 .statediagram-cluster .inner{rx:0;ry:0}#mermaid-1595899095175 .statediagram-state rect.basic{rx:5px;ry:5px}#mermaid-1595899095175 .statediagram-state rect.divider{stroke-dasharray:10,10;fill:#efefef}#mermaid-1595899095175 .note-edge{stroke-dasharray:5}#mermaid-1595899095175 .statediagram-note rect{fill:#fff5ad;stroke:#aa3;stroke-width:1px;rx:0;ry:0}:root{--mermaid-font-family: '"trebuchet ms", verdana, arial';--mermaid-font-family: "Comic Sans MS", "Comic Sans", cursive}

:root { --mermaid-font-family: "trebuchet ms", verdana, arial;}</style><style>#mermaid-1595899095175 {
    color: rgb(0, 0, 0);
    font: 16px "trebuchet ms", verdana, arial;
  }</style><g><defs><marker id="statediagram-barbEnd" refX="19" refY="7" markerWidth="20" markerHeight="14" markerUnits="0" orient="auto"><path d="M 19,7 L9,13 L14,7 L9,1 Z"></path></marker></defs><g class="root"><g class="clusters"><g class="note-cluster" id="0----parent"><rect x="8" y="72" width="620.09375" height="219" fill="none"></rect></g></g><g class="edgePaths"><path d="M318.046875,22L318.046875,26.166666666666668C318.046875,30.333333333333332,318.046875,38.666666666666664,318.046875,47C318.046875,55.333333333333336,318.046875,63.666666666666664,318.046875,72C318.046875,80.33333333333333,318.046875,88.66666666666667,318.046875,92.83333333333333L318.046875,97" id="edge0" class="transition" marker-end="url(#statediagram-barbEnd)"></path><path d="M318.046875,131L318.046875,136.75C318.046875,142.5,318.046875,154,318.046875,165.5C318.046875,177,318.046875,188.5,318.046875,194.25L318.046875,200" class="transition note-edge"></path><path d="M369.21966019417476,131L386.52810224514565,136.75C403.83654429611653,142.5,438.4534283980583,154,767.5991100323623,170.24535762004746C1096.7447916666667,186.49071524009491,1720.4192708333333,207.4814304801898,2032.2565104166667,217.97678810023726L2344.09375,228.4721457202847" id="edge1" class="transition" marker-end="url(#statediagram-barbEnd)"></path><path d="M2344.09375,237.2625945336907L2061.4270833333335,246.2188287780756C1778.7604166666667,255.17506302246048,1213.4270833333333,273.0875315112302,930.7604166666666,287.7937657556151C648.09375,302.5,648.09375,314,648.09375,330.5416666666667C648.09375,347.0833333333333,648.09375,368.6666666666667,648.09375,390.25C648.09375,411.8333333333333,648.09375,433.4166666666667,648.09375,452.7916666666667C648.09375,472.1666666666667,648.09375,489.3333333333333,648.09375,506.5C648.09375,523.6666666666666,648.09375,540.8333333333334,648.09375,558C648.09375,575.1666666666666,648.09375,592.3333333333334,648.09375,609.5C648.09375,626.6666666666666,648.09375,643.8333333333334,648.09375,663.2083333333334C648.09375,682.5833333333334,648.09375,704.1666666666666,648.09375,725.75C648.09375,747.3333333333334,648.09375,768.9166666666666,648.09375,790.5C648.09375,812.0833333333334,648.09375,833.6666666666666,648.09375,855.25C648.09375,876.8333333333334,648.09375,898.4166666666666,648.09375,920C648.09375,941.5833333333334,648.09375,963.1666666666666,648.09375,984.75C648.09375,1006.3333333333334,648.09375,1027.9166666666667,648.09375,1049.5C648.09375,1071.0833333333333,648.09375,1092.6666666666667,648.09375,1114.25C648.09375,1135.8333333333333,648.09375,1157.4166666666667,648.09375,1179C648.09375,1200.5833333333333,648.09375,1222.1666666666667,648.09375,1243.75C648.09375,1265.3333333333333,648.09375,1286.9166666666667,648.09375,1308.5C648.09375,1330.0833333333333,648.09375,1351.6666666666667,648.09375,1373.25C648.09375,1394.8333333333333,648.09375,1416.4166666666667,648.09375,1438C648.09375,1459.5833333333333,648.09375,1481.1666666666667,648.09375,1502.75C648.09375,1524.3333333333333,648.09375,1545.9166666666667,648.09375,1567.5C648.09375,1589.0833333333333,648.09375,1610.6666666666667,648.09375,1632.25C648.09375,1653.8333333333333,648.09375,1675.4166666666667,653.3421513030888,1691.9583333333333C658.5905526061775,1708.5,669.0873552123552,1720,674.335756515444,1725.75L679.5841578185328,1731.5" id="edge2" class="transition" marker-end="url(#statediagram-barbEnd)"></path><path d="M2355.5703125,395.0075336682667L2096.9505208333335,405.0062780568889C1838.3307291666667,415.0050224455111,1321.0911458333333,435.0025112227556,1062.4713541666667,453.58458894471113C803.8515625,472.1666666666667,803.8515625,489.3333333333333,803.8515625,506.5C803.8515625,523.6666666666666,803.8515625,540.8333333333334,803.8515625,558C803.8515625,575.1666666666666,803.8515625,592.3333333333334,803.8515625,609.5C803.8515625,626.6666666666666,803.8515625,643.8333333333334,803.8515625,663.2083333333334C803.8515625,682.5833333333334,803.8515625,704.1666666666666,803.8515625,725.75C803.8515625,747.3333333333334,803.8515625,768.9166666666666,803.8515625,790.5C803.8515625,812.0833333333334,803.8515625,833.6666666666666,803.8515625,855.25C803.8515625,876.8333333333334,803.8515625,898.4166666666666,803.8515625,920C803.8515625,941.5833333333334,803.8515625,963.1666666666666,803.8515625,984.75C803.8515625,1006.3333333333334,803.8515625,1027.9166666666667,803.8515625,1049.5C803.8515625,1071.0833333333333,803.8515625,1092.6666666666667,803.8515625,1114.25C803.8515625,1135.8333333333333,803.8515625,1157.4166666666667,803.8515625,1179C803.8515625,1200.5833333333333,803.8515625,1222.1666666666667,803.8515625,1243.75C803.8515625,1265.3333333333333,803.8515625,1286.9166666666667,803.8515625,1308.5C803.8515625,1330.0833333333333,803.8515625,1351.6666666666667,803.8515625,1373.25C803.8515625,1394.8333333333333,803.8515625,1416.4166666666667,803.8515625,1438C803.8515625,1459.5833333333333,803.8515625,1481.1666666666667,803.8515625,1502.75C803.8515625,1524.3333333333333,803.8515625,1545.9166666666667,803.8515625,1567.5C803.8515625,1589.0833333333333,803.8515625,1610.6666666666667,803.8515625,1632.25C803.8515625,1653.8333333333333,803.8515625,1675.4166666666667,795.2681889478764,1691.9583333333333C786.6848153957529,1708.5,769.5180682915058,1720,760.9346947393823,1725.75L752.3513211872587,1731.5" id="edge3" class="transition" marker-end="url(#statediagram-barbEnd)"></path><path d="M1275.1944377413126,756L1261.8365106177605,761.75C1248.4785834942084,767.5,1221.7627292471043,779,1208.4048021235521,795.5416666666666C1195.046875,812.0833333333334,1195.046875,833.6666666666666,1195.046875,855.25C1195.046875,876.8333333333334,1195.046875,898.4166666666666,1195.046875,920C1195.046875,941.5833333333334,1195.046875,963.1666666666666,1195.046875,984.75C1195.046875,1006.3333333333334,1195.046875,1027.9166666666667,1195.046875,1049.5C1195.046875,1071.0833333333333,1195.046875,1092.6666666666667,1195.046875,1114.25C1195.046875,1135.8333333333333,1195.046875,1157.4166666666667,1195.046875,1179C1195.046875,1200.5833333333333,1195.046875,1222.1666666666667,1195.046875,1243.75C1195.046875,1265.3333333333333,1195.046875,1286.9166666666667,1195.046875,1308.5C1195.046875,1330.0833333333333,1195.046875,1351.6666666666667,1195.046875,1373.25C1195.046875,1394.8333333333333,1195.046875,1416.4166666666667,1195.046875,1438C1195.046875,1459.5833333333333,1195.046875,1481.1666666666667,1195.046875,1502.75C1195.046875,1524.3333333333333,1195.046875,1545.9166666666667,1195.046875,1567.5C1195.046875,1589.0833333333333,1195.046875,1610.6666666666667,1195.046875,1632.25C1195.046875,1653.8333333333333,1195.046875,1675.4166666666667,1130.04296875,1694.8359636480102C1065.0390625,1714.2552606293539,935.03125,1731.5105212587077,870.02734375,1740.1381515733847L805.0234375,1748.7657818880614" id="edge4" class="transition" marker-end="url(#statediagram-barbEnd)"></path><path d="M609.3671875,1787.8997613365154L585.2994791666666,1794.3331344470962C561.2317708333334,1800.766507557677,513.0963541666666,1813.6332537788385,765.046875,1830.3171918497785C1016.9973958333334,1847.0011299207188,1569.0338541666667,1867.5022598414378,1845.0520833333333,1877.752824801797L2121.0703125,1888.0033897621565" id="edge5" class="transition" marker-end="url(#statediagram-barbEnd)"></path><path d="M2478.625,263.25L2478.625,267.875C2478.625,272.5,2478.625,281.75,2478.625,292.125C2478.625,302.5,2478.625,314,2478.625,325.5C2478.625,337,2478.625,348.5,2478.625,354.25L2478.625,360" id="edge6" class="transition" marker-end="url(#statediagram-barbEnd)"></path><path d="M2355.5703125,400.79381897598927L2250.1321614583335,409.828182479991C2144.6940104166665,418.8625459839929,1933.8177083333333,436.9312729919964,1828.3795572916667,451.71563649599824C1722.94140625,466.5,1722.94140625,478,1722.94140625,483.75L1722.94140625,489.5" id="edge7" class="transition" marker-end="url(#statediagram-barbEnd)"></path><path d="M1172.51171875,625.2244534566885L1136.826171875,631.1870445472404C1101.140625,637.1496356377924,1029.76953125,649.0748178188961,994.083984375,665.8290755761147C958.3984375,682.5833333333334,958.3984375,704.1666666666666,958.3984375,725.75C958.3984375,747.3333333333334,958.3984375,768.9166666666666,958.3984375,790.5C958.3984375,812.0833333333334,958.3984375,833.6666666666666,958.3984375,855.25C958.3984375,876.8333333333334,958.3984375,898.4166666666666,958.3984375,920C958.3984375,941.5833333333334,958.3984375,963.1666666666666,958.3984375,984.75C958.3984375,1006.3333333333334,958.3984375,1027.9166666666667,958.3984375,1049.5C958.3984375,1071.0833333333333,958.3984375,1092.6666666666667,958.3984375,1114.25C958.3984375,1135.8333333333333,958.3984375,1157.4166666666667,958.3984375,1179C958.3984375,1200.5833333333333,958.3984375,1222.1666666666667,958.3984375,1243.75C958.3984375,1265.3333333333333,958.3984375,1286.9166666666667,958.3984375,1308.5C958.3984375,1330.0833333333333,958.3984375,1351.6666666666667,958.3984375,1373.25C958.3984375,1394.8333333333333,958.3984375,1416.4166666666667,958.3984375,1438C958.3984375,1459.5833333333333,958.3984375,1481.1666666666667,958.3984375,1502.75C958.3984375,1524.3333333333333,958.3984375,1545.9166666666667,958.3984375,1567.5C958.3984375,1589.0833333333333,958.3984375,1610.6666666666667,958.3984375,1632.25C958.3984375,1653.8333333333333,958.3984375,1675.4166666666667,958.3984375,1697C958.3984375,1718.5833333333333,958.3984375,1740.1666666666667,958.3984375,1761.75C958.3984375,1783.3333333333333,958.3984375,1804.9166666666667,1152.1770833333333,1825.745314413919C1345.9557291666667,1846.5739621611713,1733.5130208333333,1866.6479243223428,1927.2916666666667,1876.6849054029283L2121.0703125,1886.7218864835138" id="edge8" class="transition" marker-end="url(#statediagram-barbEnd)"></path><path d="M1617.37890625,518.4137119279563L1558.9192708333333,525.0114266066303C1500.4596354166667,531.6091412853042,1383.5403645833333,544.804570642652,1325.0807291666667,557.1522853213261C1266.62109375,569.5,1266.62109375,581,1266.62109375,586.75L1266.62109375,592.5" id="edge9" class="transition" marker-end="url(#statediagram-barbEnd)"></path><path d="M1292.6484754247572,626.5L1301.451854520631,632.25C1310.2552336165047,638,1327.8619918082525,649.5,1336.6653709041263,661C1345.46875,672.5,1345.46875,684,1345.46875,689.75L1345.46875,695.5" id="edge10" class="transition" marker-end="url(#statediagram-barbEnd)"></path><path d="M1345.46875,756L1345.46875,761.75C1345.46875,767.5,1345.46875,779,1345.46875,795.5416666666666C1345.46875,812.0833333333334,1345.46875,833.6666666666666,1345.46875,855.25C1345.46875,876.8333333333334,1345.46875,898.4166666666666,1345.46875,920C1345.46875,941.5833333333334,1345.46875,963.1666666666666,1345.46875,984.75C1345.46875,1006.3333333333334,1345.46875,1027.9166666666667,1345.46875,1049.5C1345.46875,1071.0833333333333,1345.46875,1092.6666666666667,1345.46875,1114.25C1345.46875,1135.8333333333333,1345.46875,1157.4166666666667,1345.46875,1179C1345.46875,1200.5833333333333,1345.46875,1222.1666666666667,1345.46875,1243.75C1345.46875,1265.3333333333333,1345.46875,1286.9166666666667,1345.46875,1308.5C1345.46875,1330.0833333333333,1345.46875,1351.6666666666667,1345.46875,1373.25C1345.46875,1394.8333333333333,1345.46875,1416.4166666666667,1345.46875,1438C1345.46875,1459.5833333333333,1345.46875,1481.1666666666667,1345.46875,1502.75C1345.46875,1524.3333333333333,1345.46875,1545.9166666666667,1345.46875,1567.5C1345.46875,1589.0833333333333,1345.46875,1610.6666666666667,1345.46875,1632.25C1345.46875,1653.8333333333333,1345.46875,1675.4166666666667,1345.46875,1697C1345.46875,1718.5833333333333,1345.46875,1740.1666666666667,1345.46875,1761.75C1345.46875,1783.3333333333333,1345.46875,1804.9166666666667,1474.7356770833333,1825.40683416767C1604.0026041666667,1845.8970016686733,1862.5364583333333,1865.2940033373463,1991.8033854166667,1874.992504171683L2121.0703125,1884.6910050060199" id="edge11" class="transition" marker-end="url(#statediagram-barbEnd)"></path><path d="M1828.50390625,509.15343257630064L2152.3841145833335,517.2945271469172C2476.2643229166665,525.4356217175338,3124.0247395833335,541.7178108587669,3447.9049479166665,558.4422387627168C3771.78515625,575.1666666666666,3771.78515625,592.3333333333334,3771.78515625,609.5C3771.78515625,626.6666666666666,3771.78515625,643.8333333333334,3771.78515625,663.2083333333334C3771.78515625,682.5833333333334,3771.78515625,704.1666666666666,3771.78515625,725.75C3771.78515625,747.3333333333334,3771.78515625,768.9166666666666,3498.7122395833335,789.6902430391693C3225.6393229166665,810.4638194116723,2679.4934895833335,830.4276388233444,2406.4205729166665,840.4095485291805L2133.34765625,850.3914582350166" id="edge12" class="transition" marker-end="url(#statediagram-barbEnd)"></path><path d="M1411.57857746139,756L1424.1449083011585,761.75C1436.7112391409266,767.5,1461.8439008204634,779,1537.8340597852318,792.7481237399674C1613.82421875,806.4962474799346,1740.671875,822.4924949598691,1804.095703125,830.4906186998364L1867.51953125,838.4887424398037" id="edge13" class="transition" marker-end="url(#statediagram-barbEnd)"></path><path d="M1867.51953125,872.5954431655356L1806.9778645833333,880.4962026379463C1746.4361979166667,888.396962110357,1625.3528645833333,904.1984810551785,1564.8111979166667,917.8492405275892C1504.26953125,931.5,1504.26953125,943,1504.26953125,948.75L1504.26953125,954.5" id="edge14" class="transition" marker-end="url(#statediagram-barbEnd)"></path><path d="M2133.34765625,860.0829205694606L2407.9856770833335,870.0691004745505C2682.6236979166665,880.0552803796404,3231.8997395833335,900.0276401898203,3506.5377604166665,920.8054867615768C3781.17578125,941.5833333333334,3781.17578125,963.1666666666666,3781.17578125,984.75C3781.17578125,1006.3333333333334,3781.17578125,1027.9166666666667,3501.0377604166665,1048.8945000767762C3220.8997395833335,1069.8723334868857,2660.6236979166665,1090.2446669737717,2380.4856770833335,1100.4308337172147L2100.34765625,1110.6170004606577" id="edge15" class="transition" marker-end="url(#statediagram-barbEnd)"></path><path d="M1504.26953125,1015L1504.26953125,1020.75C1504.26953125,1026.5,1504.26953125,1038,1570.3111979166667,1052.3685160108541C1636.3528645833333,1066.737032021708,1768.4361979166667,1083.9740640434163,1834.4778645833333,1092.5925800542705L1900.51953125,1101.2110960651246" id="edge16" class="transition" marker-end="url(#statediagram-barbEnd)"></path><path d="M2000.43359375,1144.5L2000.43359375,1150.25C2000.43359375,1156,2000.43359375,1167.5,2000.43359375,1179C2000.43359375,1190.5,2000.43359375,1202,2000.43359375,1207.75L2000.43359375,1213.5" id="edge17" class="transition" marker-end="url(#statediagram-barbEnd)"></path><path d="M1888.27734375,1258.3973637767483L1824.3372395833333,1266.7478031472904C1760.3971354166667,1275.0982425178322,1632.5169270833333,1291.799121258916,1568.5768229166667,1310.9412272961247C1504.63671875,1330.0833333333333,1504.63671875,1351.6666666666667,1504.63671875,1373.25C1504.63671875,1394.8333333333333,1504.63671875,1416.4166666666667,1504.63671875,1438C1504.63671875,1459.5833333333333,1504.63671875,1481.1666666666667,1504.63671875,1502.75C1504.63671875,1524.3333333333333,1504.63671875,1545.9166666666667,1504.63671875,1567.5C1504.63671875,1589.0833333333333,1504.63671875,1610.6666666666667,1504.63671875,1632.25C1504.63671875,1653.8333333333333,1504.63671875,1675.4166666666667,1504.63671875,1697C1504.63671875,1718.5833333333333,1504.63671875,1740.1666666666667,1504.63671875,1761.75C1504.63671875,1783.3333333333333,1504.63671875,1804.9166666666667,1607.3756510416667,1825.1596286080573C1710.1145833333333,1845.402590549448,1915.5924479166667,1864.3051810988954,2018.3313802083333,1873.7564763736193L2121.0703125,1883.2077716483432" id="edge18" class="transition" marker-end="url(#statediagram-barbEnd)"></path><path d="M707.1953125,1792L707.1953125,1797.75C707.1953125,1803.5,707.1953125,1815,942.8411458333334,1830.9132581552756C1178.4869791666667,1846.826516310551,1649.7786458333333,1867.153032621102,1885.4244791666667,1877.3162907763774L2121.0703125,1887.4795489316527" id="edge19" class="transition" marker-end="url(#statediagram-barbEnd)"></path><path d="M2601.6796875,395.5260549500008L2832.8671875,405.43837912500067C3064.0546875,415.35070330000053,3526.4296875,435.17535165000027,3757.6171875,453.67100915833345C3988.8046875,472.1666666666667,3988.8046875,489.3333333333333,3988.8046875,506.5C3988.8046875,523.6666666666666,3988.8046875,540.8333333333334,3988.8046875,558C3988.8046875,575.1666666666666,3988.8046875,592.3333333333334,3988.8046875,609.5C3988.8046875,626.6666666666666,3988.8046875,643.8333333333334,3988.8046875,663.2083333333334C3988.8046875,682.5833333333334,3988.8046875,704.1666666666666,3988.8046875,725.75C3988.8046875,747.3333333333334,3988.8046875,768.9166666666666,3988.8046875,790.5C3988.8046875,812.0833333333334,3988.8046875,833.6666666666666,3988.8046875,855.25C3988.8046875,876.8333333333334,3988.8046875,898.4166666666666,3988.8046875,920C3988.8046875,941.5833333333334,3988.8046875,963.1666666666666,3988.8046875,984.75C3988.8046875,1006.3333333333334,3988.8046875,1027.9166666666667,3988.8046875,1049.5C3988.8046875,1071.0833333333333,3988.8046875,1092.6666666666667,3988.8046875,1114.25C3988.8046875,1135.8333333333333,3988.8046875,1157.4166666666667,3988.8046875,1179C3988.8046875,1200.5833333333333,3988.8046875,1222.1666666666667,3988.8046875,1243.75C3988.8046875,1265.3333333333333,3988.8046875,1286.9166666666667,3988.8046875,1308.5C3988.8046875,1330.0833333333333,3988.8046875,1351.6666666666667,3988.8046875,1373.25C3988.8046875,1394.8333333333333,3988.8046875,1416.4166666666667,3988.8046875,1438C3988.8046875,1459.5833333333333,3988.8046875,1481.1666666666667,3988.8046875,1502.75C3988.8046875,1524.3333333333333,3988.8046875,1545.9166666666667,3988.8046875,1567.5C3988.8046875,1589.0833333333333,3988.8046875,1610.6666666666667,3988.8046875,1632.25C3988.8046875,1653.8333333333333,3988.8046875,1675.4166666666667,3988.8046875,1697C3988.8046875,1718.5833333333333,3988.8046875,1740.1666666666667,3988.8046875,1761.75C3988.8046875,1783.3333333333333,3988.8046875,1804.9166666666667,3706.65625,1825.9700774530454C3424.5078125,1847.0234882394243,2860.2109375,1867.5469764788486,2578.0625,1877.8087205985605L2295.9140625,1888.070464718273" id="edge20" class="transition" marker-end="url(#statediagram-barbEnd)"></path><path d="M2032.6344413610038,1274L2038.7552636341698,1279.75C2044.8760859073361,1285.5,2057.117730453668,1297,2063.238552726834,1308.5C2069.359375,1320,2069.359375,1331.5,2069.359375,1337.25L2069.359375,1343" id="edge21" class="transition" marker-end="url(#statediagram-barbEnd)"></path><path d="M1966.5078125,1388.5475629671503L1911.0930989583333,1396.7896358059586C1855.6783854166667,1405.0317086447667,1744.8489583333333,1421.5158543223833,1689.4342447916667,1440.5495938278582C1634.01953125,1459.5833333333333,1634.01953125,1481.1666666666667,1634.01953125,1502.75C1634.01953125,1524.3333333333333,1634.01953125,1545.9166666666667,1634.01953125,1567.5C1634.01953125,1589.0833333333333,1634.01953125,1610.6666666666667,1634.01953125,1632.25C1634.01953125,1653.8333333333333,1634.01953125,1675.4166666666667,1634.01953125,1697C1634.01953125,1718.5833333333333,1634.01953125,1740.1666666666667,1634.01953125,1761.75C1634.01953125,1783.3333333333333,1634.01953125,1804.9166666666667,1715.1946614583333,1824.8577499745013C1796.3697916666667,1844.7988332823354,1958.7200520833333,1863.097666564671,2039.8951822916667,1872.2470832058389L2121.0703125,1881.3964998470065" id="edge22" class="transition" marker-end="url(#statediagram-barbEnd)"></path><path d="M2500.78125,1525.5182532469591L2460.837890625,1532.5152110391325C2420.89453125,1539.5121688313059,2341.0078125,1553.506084415653,2301.064453125,1571.2947088744932C2261.12109375,1589.0833333333333,2261.12109375,1610.6666666666667,2261.12109375,1632.25C2261.12109375,1653.8333333333333,2261.12109375,1675.4166666666667,2261.12109375,1697C2261.12109375,1718.5833333333333,2261.12109375,1740.1666666666667,2261.12109375,1761.75C2261.12109375,1783.3333333333333,2261.12109375,1804.9166666666667,2256.447484314672,1821.4583333333333C2251.7738748793436,1838,2242.426656008687,1849.5,2237.753046573359,1855.25L2233.0794371380307,1861" id="edge23" class="transition" marker-end="url(#statediagram-barbEnd)"></path><path d="M3534.94140625,1789.9862062619475L3504.0201822916665,1796.071838551623C3473.0989583333335,1802.1574708412984,3411.2565104166665,1814.3287354206493,3204.751953125,1830.379134871383C2998.2473958333335,1846.4295343221172,2647.0807291666665,1866.3590686442342,2471.4973958333335,1876.323835805293L2295.9140625,1886.2886029663512" id="edge24" class="transition" marker-end="url(#statediagram-barbEnd)"></path><path d="M1978.8885889237451,1403.5L1961.6916626447876,1409.25C1944.4947363658302,1415,1910.1008838079151,1426.5,1892.9039575289573,1443.0416666666667C1875.70703125,1459.5833333333333,1875.70703125,1481.1666666666667,1875.70703125,1502.75C1875.70703125,1524.3333333333333,1875.70703125,1545.9166666666667,1875.70703125,1567.5C1875.70703125,1589.0833333333333,1875.70703125,1610.6666666666667,1875.70703125,1632.25C1875.70703125,1653.8333333333333,1875.70703125,1675.4166666666667,1875.70703125,1697C1875.70703125,1718.5833333333333,1875.70703125,1740.1666666666667,1875.70703125,1761.75C1875.70703125,1783.3333333333333,1875.70703125,1804.9166666666667,1916.6009114583333,1823.6650546406393C1957.4947916666667,1842.4134426146122,2039.2825520833333,1858.3268852292247,2080.1764322916665,1866.2836065365307L2121.0703125,1874.240327843837" id="edge25" class="transition" marker-end="url(#statediagram-barbEnd)"></path><path d="M2095.282471645753,1403.5L2100.2100024131273,1409.25C2105.137533180502,1415,2114.992594715251,1426.5,2119.9201254826253,1443.0416666666667C2124.84765625,1459.5833333333333,2124.84765625,1481.1666666666667,2124.84765625,1502.75C2124.84765625,1524.3333333333333,2124.84765625,1545.9166666666667,2124.84765625,1567.5C2124.84765625,1589.0833333333333,2124.84765625,1610.6666666666667,2124.84765625,1632.25C2124.84765625,1653.8333333333333,2124.84765625,1675.4166666666667,2124.84765625,1697C2124.84765625,1718.5833333333333,2124.84765625,1740.1666666666667,2124.84765625,1761.75C2124.84765625,1783.3333333333333,2124.84765625,1804.9166666666667,2132.2755489864862,1821.4583333333333C2139.703441722973,1838,2154.559227195946,1849.5,2161.987119932432,1855.25L2169.4150126689187,1861" id="edge26" class="transition" marker-end="url(#statediagram-barbEnd)"></path><path d="M2172.2109375,1385.1125885414492L2248.6354166666665,1393.9271571178742C2325.0598958333335,1402.7417256942997,2477.9088541666665,1420.3708628471497,2554.3333333333335,1434.935431423575C2630.7578125,1449.5,2630.7578125,1461,2630.7578125,1466.75L2630.7578125,1472.5" id="edge27" class="transition" marker-end="url(#statediagram-barbEnd)"></path><path d="M2576.2636492519305,1533L2565.905254584942,1538.75C2555.5468599179535,1544.5,2534.830070583977,1556,2524.4716759169883,1572.5416666666667C2514.11328125,1589.0833333333333,2514.11328125,1610.6666666666667,2514.11328125,1632.25C2514.11328125,1653.8333333333333,2514.11328125,1675.4166666666667,2514.11328125,1697C2514.11328125,1718.5833333333333,2514.11328125,1740.1666666666667,2514.11328125,1761.75C2514.11328125,1783.3333333333333,2514.11328125,1804.9166666666667,2477.7467447916665,1823.4130804330323C2441.3802083333335,1841.9094941993974,2368.6471354166665,1857.318988398795,2332.2805989583335,1865.0237354984938L2295.9140625,1872.7284825981926" id="edge28" class="transition" marker-end="url(#statediagram-barbEnd)"></path><path d="M2760.734375,1519.431570063645L2823.15625,1527.4429750530373C2885.578125,1535.45438004243,3010.421875,1551.4771900212152,3072.84375,1565.2385950106075C3135.265625,1579,3135.265625,1590.5,3135.265625,1596.25L3135.265625,1602" id="edge29" class="transition" marker-end="url(#statediagram-barbEnd)"></path><path d="M3018.6015625,1648.0871223598974L2958.548828125,1656.2392686332478C2898.49609375,1664.3914149065984,2778.390625,1680.695707453299,2718.337890625,1699.6395203933162C2658.28515625,1718.5833333333333,2658.28515625,1740.1666666666667,2658.28515625,1761.75C2658.28515625,1783.3333333333333,2658.28515625,1804.9166666666667,2597.8899739583335,1824.4025289412664C2537.4947916666665,1843.888391215866,2416.7044270833335,1861.2767824317323,2356.3092447916665,1869.9709780396652L2295.9140625,1878.6651736475983" id="edge30" class="transition" marker-end="url(#statediagram-barbEnd)"></path><path d="M3035.0643249276063,1662.5L3016.0177968146722,1668.25C2996.9712687017377,1674,2958.878212475869,1685.5,2939.8316843629345,1702.0416666666667C2920.78515625,1718.5833333333333,2920.78515625,1740.1666666666667,2920.78515625,1761.75C2920.78515625,1783.3333333333333,2920.78515625,1804.9166666666667,2816.6399739583335,1825.1755060406806C2712.4947916666665,1845.4343454146947,2504.2044270833335,1864.3686908293894,2400.0592447916665,1873.8358635367367L2295.9140625,1883.303036244084" id="edge31" class="transition" marker-end="url(#statediagram-barbEnd)"></path><path d="M3163.7326707287643,1662.5L3169.1437620656375,1668.25C3174.5548534025097,1674,3185.377036076255,1685.5,3190.7881274131273,1702.0416666666667C3196.19921875,1718.5833333333333,3196.19921875,1740.1666666666667,3196.19921875,1761.75C3196.19921875,1783.3333333333333,3196.19921875,1804.9166666666667,3046.1516927083335,1825.5448303955263C2896.1041666666665,1846.172994124386,2596.0091145833335,1865.8459882487716,2445.9615885416665,1875.6824853109647L2295.9140625,1885.5189823731575" id="edge32" class="transition" marker-end="url(#statediagram-barbEnd)"></path><path d="M3251.9296875,1646.157896724082L3323.009765625,1654.6315806034017C3394.08984375,1663.1052644827214,3536.25,1680.0526322413607,3607.330078125,1694.2763161206803C3678.41015625,1708.5,3678.41015625,1720,3678.41015625,1725.75L3678.41015625,1731.5" id="edge33" class="transition" marker-end="url(#statediagram-barbEnd)"></path><path d="M3605.068140685328,1792L3591.12709640444,1797.75C3577.186052123552,1803.5,3549.3039635617765,1815,3535.362919280888,1831.5416666666667C3521.421875,1848.0833333333333,3521.421875,1869.6666666666667,3521.421875,1891.25C3521.421875,1912.8333333333333,3521.421875,1934.4166666666667,3502.492756371359,1950.9583333333333C3483.563637742718,1967.5,3445.7054004854367,1979,3426.776281856796,1984.75L3407.8471632281553,1990.5" id="edge34" class="transition" marker-end="url(#statediagram-barbEnd)"></path><path d="M3701.1542290057914,1792L3705.477482504826,1797.75C3709.800736003861,1803.5,3718.4472430019305,1815,3722.7704965009652,1831.5416666666667C3727.09375,1848.0833333333333,3727.09375,1869.6666666666667,3727.09375,1891.25C3727.09375,1912.8333333333333,3727.09375,1934.4166666666667,3708.164631371359,1950.9583333333333C3689.235512742718,1967.5,3651.3772754854367,1979,3632.448156856796,1984.75L3613.5190382281553,1990.5" id="edge35" class="transition" marker-end="url(#statediagram-barbEnd)"></path><path d="M3814.077099420849,1792L3839.8650307673743,1797.75C3865.6529621138993,1803.5,3917.2288248069494,1815,3943.016756153475,1831.5416666666667C3968.8046875,1848.0833333333333,3968.8046875,1869.6666666666667,3968.8046875,1891.25C3968.8046875,1912.8333333333333,3968.8046875,1934.4166666666667,3964.278481492718,1950.9583333333333C3959.7522754854367,1967.5,3950.699863470874,1979,3946.173657463592,1984.75L3941.6474514563106,1990.5" id="edge36" class="transition" marker-end="url(#statediagram-barbEnd)"></path><path d="M2208.4921875,1921.5L2208.4921875,1927.25C2208.4921875,1933,2208.4921875,1944.5,2483.7473958333335,1958.4927387934156C2759.0026041666665,1972.485477586831,3309.5130208333335,1988.9709551736617,3584.7682291666665,1997.2136939670772L3860.0234375,2005.4564327604926" id="edge37" class="transition" marker-end="url(#statediagram-barbEnd)"></path><path d="M773.5277811293436,1792L786.1364321911196,1797.75C798.7450832528957,1803.5,823.9623853764479,1815,836.5710364382239,1831.5416666666667C849.1796875,1848.0833333333333,849.1796875,1869.6666666666667,849.1796875,1891.25C849.1796875,1912.8333333333333,849.1796875,1934.4166666666667,1350.9869791666667,1953.601433118595C1852.7942708333333,1972.7861995705232,2856.4088541666665,1989.5723991410466,3358.2161458333335,1997.965498926308L3860.0234375,2006.3585987115698" id="edge38" class="transition" marker-end="url(#statediagram-barbEnd)"></path><path d="M2613.15625,237.4633927254689L2882.09765625,246.38616060455743C3151.0390625,255.30892848364593,3688.921875,273.15446424182295,3957.86328125,287.8272321209115C4226.8046875,302.5,4226.8046875,314,4226.8046875,330.5416666666667C4226.8046875,347.0833333333333,4226.8046875,368.6666666666667,4226.8046875,390.25C4226.8046875,411.8333333333333,4226.8046875,433.4166666666667,4226.8046875,452.7916666666667C4226.8046875,472.1666666666667,4226.8046875,489.3333333333333,4226.8046875,506.5C4226.8046875,523.6666666666666,4226.8046875,540.8333333333334,4226.8046875,558C4226.8046875,575.1666666666666,4226.8046875,592.3333333333334,4226.8046875,609.5C4226.8046875,626.6666666666666,4226.8046875,643.8333333333334,4226.8046875,663.2083333333334C4226.8046875,682.5833333333334,4226.8046875,704.1666666666666,4226.8046875,725.75C4226.8046875,747.3333333333334,4226.8046875,768.9166666666666,4226.8046875,790.5C4226.8046875,812.0833333333334,4226.8046875,833.6666666666666,4226.8046875,855.25C4226.8046875,876.8333333333334,4226.8046875,898.4166666666666,4226.8046875,920C4226.8046875,941.5833333333334,4226.8046875,963.1666666666666,4226.8046875,984.75C4226.8046875,1006.3333333333334,4226.8046875,1027.9166666666667,4226.8046875,1049.5C4226.8046875,1071.0833333333333,4226.8046875,1092.6666666666667,4226.8046875,1114.25C4226.8046875,1135.8333333333333,4226.8046875,1157.4166666666667,4226.8046875,1179C4226.8046875,1200.5833333333333,4226.8046875,1222.1666666666667,4226.8046875,1243.75C4226.8046875,1265.3333333333333,4226.8046875,1286.9166666666667,4226.8046875,1308.5C4226.8046875,1330.0833333333333,4226.8046875,1351.6666666666667,4226.8046875,1373.25C4226.8046875,1394.8333333333333,4226.8046875,1416.4166666666667,4226.8046875,1438C4226.8046875,1459.5833333333333,4226.8046875,1481.1666666666667,4226.8046875,1502.75C4226.8046875,1524.3333333333333,4226.8046875,1545.9166666666667,4226.8046875,1567.5C4226.8046875,1589.0833333333333,4226.8046875,1610.6666666666667,4226.8046875,1632.25C4226.8046875,1653.8333333333333,4226.8046875,1675.4166666666667,4226.8046875,1697C4226.8046875,1718.5833333333333,4226.8046875,1740.1666666666667,4226.8046875,1761.75C4226.8046875,1783.3333333333333,4226.8046875,1804.9166666666667,4226.8046875,1826.5C4226.8046875,1848.0833333333333,4226.8046875,1869.6666666666667,4226.8046875,1891.25C4226.8046875,1912.8333333333333,4226.8046875,1934.4166666666667,4188.421875,1951.8296271338725C4150.0390625,1969.2425876010782,4073.2734375,1982.4851752021561,4034.890625,1989.1064690026953L3996.5078125,1995.7277628032346" id="edge39" class="transition" marker-end="url(#statediagram-barbEnd)"></path><path d="M2601.6796875,395.07263910496175L2856.53125,405.0605325874681C3111.3828125,415.04842606997454,3621.0859375,435.02421303498727,3875.9375,453.59543985082695C4130.7890625,472.1666666666667,4130.7890625,489.3333333333333,4130.7890625,506.5C4130.7890625,523.6666666666666,4130.7890625,540.8333333333334,4130.7890625,558C4130.7890625,575.1666666666666,4130.7890625,592.3333333333334,4130.7890625,609.5C4130.7890625,626.6666666666666,4130.7890625,643.8333333333334,4130.7890625,663.2083333333334C4130.7890625,682.5833333333334,4130.7890625,704.1666666666666,4130.7890625,725.75C4130.7890625,747.3333333333334,4130.7890625,768.9166666666666,4130.7890625,790.5C4130.7890625,812.0833333333334,4130.7890625,833.6666666666666,4130.7890625,855.25C4130.7890625,876.8333333333334,4130.7890625,898.4166666666666,4130.7890625,920C4130.7890625,941.5833333333334,4130.7890625,963.1666666666666,4130.7890625,984.75C4130.7890625,1006.3333333333334,4130.7890625,1027.9166666666667,4130.7890625,1049.5C4130.7890625,1071.0833333333333,4130.7890625,1092.6666666666667,4130.7890625,1114.25C4130.7890625,1135.8333333333333,4130.7890625,1157.4166666666667,4130.7890625,1179C4130.7890625,1200.5833333333333,4130.7890625,1222.1666666666667,4130.7890625,1243.75C4130.7890625,1265.3333333333333,4130.7890625,1286.9166666666667,4130.7890625,1308.5C4130.7890625,1330.0833333333333,4130.7890625,1351.6666666666667,4130.7890625,1373.25C4130.7890625,1394.8333333333333,4130.7890625,1416.4166666666667,4130.7890625,1438C4130.7890625,1459.5833333333333,4130.7890625,1481.1666666666667,4130.7890625,1502.75C4130.7890625,1524.3333333333333,4130.7890625,1545.9166666666667,4130.7890625,1567.5C4130.7890625,1589.0833333333333,4130.7890625,1610.6666666666667,4130.7890625,1632.25C4130.7890625,1653.8333333333333,4130.7890625,1675.4166666666667,4130.7890625,1697C4130.7890625,1718.5833333333333,4130.7890625,1740.1666666666667,4130.7890625,1761.75C4130.7890625,1783.3333333333333,4130.7890625,1804.9166666666667,4130.7890625,1826.5C4130.7890625,1848.0833333333333,4130.7890625,1869.6666666666667,4130.7890625,1891.25C4130.7890625,1912.8333333333333,4130.7890625,1934.4166666666667,4108.1772223907765,1950.9583333333333C4085.5653822815534,1967.5,4040.3417020631073,1979,4017.7298619538838,1984.75L3995.1180218446602,1990.5" id="edge40" class="transition" marker-end="url(#statediagram-barbEnd)"></path><path d="M3928.265625,2024.5L3928.265625,2028.6666666666667C3928.265625,2032.8333333333333,3928.265625,2041.1666666666667,3909.2508492165766,2050.3680481986426C3890.2360734331537,2059.5694297306186,3852.206521866307,2069.6388594612367,3833.191746082884,2074.673574326546L3814.1769702994607,2079.7082891918553" id="edge41" class="transition" marker-end="url(#statediagram-barbEnd)"></path><path d="M3351.8828125,2024.5L3351.8828125,2028.6666666666667C3351.8828125,2032.8333333333333,3351.8828125,2041.1666666666667,3426.640237824371,2050.5849118460224C3501.397663148742,2060.003157025378,3650.9125137974843,2070.506314050757,3725.6699391218554,2075.7578925634457L3800.427364446226,2081.009471076135" id="edge42" class="transition" marker-end="url(#statediagram-barbEnd)"></path><path d="M3557.5546875,2024.5L3557.5546875,2028.6666666666667C3557.5546875,2032.8333333333333,3557.5546875,2041.1666666666667,3598.0400512257074,2050.518457540156C3638.525414951415,2059.870248413645,3719.4961424028297,2070.2404968272904,3759.981506128537,2075.425621034113L3800.4668698542446,2080.6107452409356" id="edge43" class="transition" marker-end="url(#statediagram-barbEnd)"></path></g><g class="edgeLabels"><g class="edgeLabel"><g class="label" transform="translate(0, 0)"><rect rx="0" ry="0" width="0" height="0" style="fill:#e8e8e8;"></rect><text style=""></text></g></g><g class="edgeLabel"><g class="label" transform="translate(0, 0)"><rect rx="0" ry="0" width="0" height="0" style="fill:#e8e8e8;"></rect><text style=""></text></g></g><g class="edgeLabel" transform="translate(473.0703125, 165.5)"><g class="label" transform="translate(-68.6875, -9.5)"><rect rx="0" ry="0" width="137.296875" height="19.03125" style="fill:#e8e8e8;"></rect><text style=""><tspan xml:space="preserve" dy="1em" x="0" class="row">ProviderEventOpen</tspan></text></g></g><g class="edgeLabel" transform="translate(648.09375, 984.75)"><g class="label" transform="translate(-98.203125, -9.5)"><rect rx="0" ry="0" width="196.296875" height="19.03125" style="fill:#e8e8e8;"></rect><text style=""><tspan xml:space="preserve" dy="1em" x="0" class="row">ProviderEventDealRejected</tspan></text></g></g><g class="edgeLabel" transform="translate(803.8515625, 1049.5)"><g class="label" transform="translate(-98.203125, -9.5)"><rect rx="0" ry="0" width="196.296875" height="19.03125" style="fill:#e8e8e8;"></rect><text style=""><tspan xml:space="preserve" dy="1em" x="0" class="row">ProviderEventDealRejected</tspan></text></g></g><g class="edgeLabel" transform="translate(1195.046875, 1243.75)"><g class="label" transform="translate(-98.203125, -9.5)"><rect rx="0" ry="0" width="196.296875" height="19.03125" style="fill:#e8e8e8;"></rect><text style=""><tspan xml:space="preserve" dy="1em" x="0" class="row">ProviderEventDealRejected</tspan></text></g></g><g class="edgeLabel" transform="translate(464.9609375, 1826.5)"><g class="label" transform="translate(-100.25, -9.5)"><rect rx="0" ry="0" width="200.375" height="19.03125" style="fill:#e8e8e8;"></rect><text style=""><tspan xml:space="preserve" dy="1em" x="0" class="row">ProviderEventRejectionSent</tspan></text></g></g><g class="edgeLabel" transform="translate(2478.625, 325.5)"><g class="label" transform="translate(-96.5703125, -9.5)"><rect rx="0" ry="0" width="193.03125" height="19.03125" style="fill:#e8e8e8;"></rect><text style=""><tspan xml:space="preserve" dy="1em" x="0" class="row">ProviderEventDealDeciding</tspan></text></g></g><g class="edgeLabel" transform="translate(1722.94140625, 455)"><g class="label" transform="translate(-104.03125, -9.5)"><rect rx="0" ry="0" width="207.9375" height="19.03125" style="fill:#e8e8e8;"></rect><text style=""><tspan xml:space="preserve" dy="1em" x="0" class="row">ProviderEventDataRequested</tspan></text></g></g><g class="edgeLabel" transform="translate(958.3984375, 1243.75)"><g class="label" transform="translate(-118.4453125, -9.5)"><rect rx="0" ry="0" width="236.75" height="19.03125" style="fill:#e8e8e8;"></rect><text style=""><tspan xml:space="preserve" dy="1em" x="0" class="row">ProviderEventDataTransferFailed</tspan></text></g></g><g class="edgeLabel" transform="translate(1266.62109375, 558)"><g class="label" transform="translate(-127.109375, -9.5)"><rect rx="0" ry="0" width="254.0625" height="19.03125" style="fill:#e8e8e8;"></rect><text style=""><tspan xml:space="preserve" dy="1em" x="0" class="row">ProviderEventDataTransferInitiated</tspan></text></g></g><g class="edgeLabel" transform="translate(1345.46875, 661)"><g class="label" transform="translate(-135.4765625, -9.5)"><rect rx="0" ry="0" width="270.78125" height="19.03125" style="fill:#e8e8e8;"></rect><text style=""><tspan xml:space="preserve" dy="1em" x="0" class="row">ProviderEventDataTransferCompleted</tspan></text></g></g><g class="edgeLabel" transform="translate(1345.46875, 1308.5)"><g class="label" transform="translate(-130.421875, -9.5)"><rect rx="0" ry="0" width="260.6875" height="19.03125" style="fill:#e8e8e8;"></rect><text style=""><tspan xml:space="preserve" dy="1em" x="0" class="row">ProviderEventDataVerificationFailed</tspan></text></g></g><g class="edgeLabel" transform="translate(3771.78515625, 661)"><g class="label" transform="translate(-95.1015625, -9.5)"><rect rx="0" ry="0" width="190.078125" height="19.03125" style="fill:#e8e8e8;"></rect><text style=""><tspan xml:space="preserve" dy="1em" x="0" class="row">ProviderEventVerifiedData</tspan></text></g></g><g class="edgeLabel" transform="translate(1486.9765625, 790.5)"><g class="label" transform="translate(-95.1015625, -9.5)"><rect rx="0" ry="0" width="190.078125" height="19.03125" style="fill:#e8e8e8;"></rect><text style=""><tspan xml:space="preserve" dy="1em" x="0" class="row">ProviderEventVerifiedData</tspan></text></g></g><g class="edgeLabel" transform="translate(1504.26953125, 920)"><g class="label" transform="translate(-108.6953125, -9.5)"><rect rx="0" ry="0" width="217.265625" height="19.03125" style="fill:#e8e8e8;"></rect><text style=""><tspan xml:space="preserve" dy="1em" x="0" class="row">ProviderEventFundingInitiated</tspan></text></g></g><g class="edgeLabel" transform="translate(3781.17578125, 984.75)"><g class="label" transform="translate(-76.3203125, -9.5)"><rect rx="0" ry="0" width="152.546875" height="19.03125" style="fill:#e8e8e8;"></rect><text style=""><tspan xml:space="preserve" dy="1em" x="0" class="row">ProviderEventFunded</tspan></text></g></g><g class="edgeLabel" transform="translate(1504.26953125, 1049.5)"><g class="label" transform="translate(-76.3203125, -9.5)"><rect rx="0" ry="0" width="152.546875" height="19.03125" style="fill:#e8e8e8;"></rect><text style=""><tspan xml:space="preserve" dy="1em" x="0" class="row">ProviderEventFunded</tspan></text></g></g><g class="edgeLabel" transform="translate(2000.43359375, 1179)"><g class="label" transform="translate(-122, -9.5)"><rect rx="0" ry="0" width="243.859375" height="19.03125" style="fill:#e8e8e8;"></rect><text style=""><tspan xml:space="preserve" dy="1em" x="0" class="row">ProviderEventDealPublishInitiated</tspan></text></g></g><g class="edgeLabel" transform="translate(1504.63671875, 1567.5)"><g class="label" transform="translate(-109.3828125, -9.5)"><rect rx="0" ry="0" width="218.625" height="19.03125" style="fill:#e8e8e8;"></rect><text style=""><tspan xml:space="preserve" dy="1em" x="0" class="row">ProviderEventDealPublishError</tspan></text></g></g><g class="edgeLabel" transform="translate(707.1953125, 1826.5)"><g class="label" transform="translate(-121.984375, -9.5)"><rect rx="0" ry="0" width="243.828125" height="19.03125" style="fill:#e8e8e8;"></rect><text style=""><tspan xml:space="preserve" dy="1em" x="0" class="row">ProviderEventSendResponseFailed</tspan></text></g></g><g class="edgeLabel" transform="translate(3988.8046875, 1114.25)"><g class="label" transform="translate(-121.984375, -9.5)"><rect rx="0" ry="0" width="243.828125" height="19.03125" style="fill:#e8e8e8;"></rect><text style=""><tspan xml:space="preserve" dy="1em" x="0" class="row">ProviderEventSendResponseFailed</tspan></text></g></g><g class="edgeLabel" transform="translate(2069.359375, 1308.5)"><g class="label" transform="translate(-100.296875, -9.5)"><rect rx="0" ry="0" width="200.46875" height="19.03125" style="fill:#e8e8e8;"></rect><text style=""><tspan xml:space="preserve" dy="1em" x="0" class="row">ProviderEventDealPublished</tspan></text></g></g><g class="edgeLabel" transform="translate(1634.01953125, 1632.25)"><g class="label" transform="translate(-108.8203125, -9.5)"><rect rx="0" ry="0" width="217.5" height="19.03125" style="fill:#e8e8e8;"></rect><text style=""><tspan xml:space="preserve" dy="1em" x="0" class="row">ProviderEventFileStoreErrored</tspan></text></g></g><g class="edgeLabel" transform="translate(2261.12109375, 1697)"><g class="label" transform="translate(-108.8203125, -9.5)"><rect rx="0" ry="0" width="217.5" height="19.03125" style="fill:#e8e8e8;"></rect><text style=""><tspan xml:space="preserve" dy="1em" x="0" class="row">ProviderEventFileStoreErrored</tspan></text></g></g><g class="edgeLabel" transform="translate(3349.4140625, 1826.5)"><g class="label" transform="translate(-108.8203125, -9.5)"><rect rx="0" ry="0" width="217.5" height="19.03125" style="fill:#e8e8e8;"></rect><text style=""><tspan xml:space="preserve" dy="1em" x="0" class="row">ProviderEventFileStoreErrored</tspan></text></g></g><g class="edgeLabel" transform="translate(1875.70703125, 1632.25)"><g class="label" transform="translate(-112.8671875, -9.5)"><rect rx="0" ry="0" width="225.59375" height="19.03125" style="fill:#e8e8e8;"></rect><text style=""><tspan xml:space="preserve" dy="1em" x="0" class="row">ProviderEventMultistoreErrored</tspan></text></g></g><g class="edgeLabel" transform="translate(2124.84765625, 1632.25)"><g class="label" transform="translate(-116.2734375, -9.5)"><rect rx="0" ry="0" width="232.40625" height="19.03125" style="fill:#e8e8e8;"></rect><text style=""><tspan xml:space="preserve" dy="1em" x="0" class="row">ProviderEventDealHandoffFailed</tspan></text></g></g><g class="edgeLabel" transform="translate(2630.7578125, 1438)"><g class="label" transform="translate(-104.3671875, -9.5)"><rect rx="0" ry="0" width="208.609375" height="19.03125" style="fill:#e8e8e8;"></rect><text style=""><tspan xml:space="preserve" dy="1em" x="0" class="row">ProviderEventDealHandedOff</tspan></text></g></g><g class="edgeLabel" transform="translate(2514.11328125, 1697)"><g class="label" transform="translate(-124.171875, -9.5)"><rect rx="0" ry="0" width="248.1875" height="19.03125" style="fill:#e8e8e8;"></rect><text style=""><tspan xml:space="preserve" dy="1em" x="0" class="row">ProviderEventDealActivationFailed</tspan></text></g></g><g class="edgeLabel" transform="translate(3135.265625, 1567.5)"><g class="label" transform="translate(-100.1796875, -9.5)"><rect rx="0" ry="0" width="200.234375" height="19.03125" style="fill:#e8e8e8;"></rect><text style=""><tspan xml:space="preserve" dy="1em" x="0" class="row">ProviderEventDealActivated</tspan></text></g></g><g class="edgeLabel" transform="translate(2658.28515625, 1761.75)"><g class="label" transform="translate(-115.046875, -9.5)"><rect rx="0" ry="0" width="229.953125" height="19.03125" style="fill:#e8e8e8;"></rect><text style=""><tspan xml:space="preserve" dy="1em" x="0" class="row">ProviderEventPieceStoreErrored</tspan></text></g></g><g class="edgeLabel" transform="translate(2920.78515625, 1761.75)"><g class="label" transform="translate(-127.453125, -9.5)"><rect rx="0" ry="0" width="254.75" height="19.03125" style="fill:#e8e8e8;"></rect><text style=""><tspan xml:space="preserve" dy="1em" x="0" class="row">ProviderEventUnableToLocatePiece</tspan></text></g></g><g class="edgeLabel" transform="translate(3196.19921875, 1761.75)"><g class="label" transform="translate(-127.9609375, -9.5)"><rect rx="0" ry="0" width="255.765625" height="19.03125" style="fill:#e8e8e8;"></rect><text style=""><tspan xml:space="preserve" dy="1em" x="0" class="row">ProviderEventReadMetadataErrored</tspan></text></g></g><g class="edgeLabel" transform="translate(3678.41015625, 1697)"><g class="label" transform="translate(-103.1953125, -9.5)"><rect rx="0" ry="0" width="206.265625" height="19.03125" style="fill:#e8e8e8;"></rect><text style=""><tspan xml:space="preserve" dy="1em" x="0" class="row">ProviderEventPieceRecorded</tspan></text></g></g><g class="edgeLabel" transform="translate(3521.421875, 1891.25)"><g class="label" transform="translate(-92.7734375, -9.5)"><rect rx="0" ry="0" width="185.4375" height="19.03125" style="fill:#e8e8e8;"></rect><text style=""><tspan xml:space="preserve" dy="1em" x="0" class="row">ProviderEventDealSlashed</tspan></text></g></g><g class="edgeLabel" transform="translate(3727.09375, 1891.25)"><g class="label" transform="translate(-92.8984375, -9.5)"><rect rx="0" ry="0" width="185.6875" height="19.03125" style="fill:#e8e8e8;"></rect><text style=""><tspan xml:space="preserve" dy="1em" x="0" class="row">ProviderEventDealExpired</tspan></text></g></g><g class="edgeLabel" transform="translate(3968.8046875, 1891.25)"><g class="label" transform="translate(-128.8125, -9.5)"><rect rx="0" ry="0" width="257.46875" height="19.03125" style="fill:#e8e8e8;"></rect><text style=""><tspan xml:space="preserve" dy="1em" x="0" class="row">ProviderEventDealCompletionFailed</tspan></text></g></g><g class="edgeLabel" transform="translate(2208.4921875, 1956)"><g class="label" transform="translate(-71.96875, -9.5)"><rect rx="0" ry="0" width="143.84375" height="19.03125" style="fill:#e8e8e8;"></rect><text style=""><tspan xml:space="preserve" dy="1em" x="0" class="row">ProviderEventFailed</tspan></text></g></g><g class="edgeLabel" transform="translate(849.1796875, 1891.25)"><g class="label" transform="translate(-76.015625, -9.5)"><rect rx="0" ry="0" width="151.9375" height="19.03125" style="fill:#e8e8e8;"></rect><text style=""><tspan xml:space="preserve" dy="1em" x="0" class="row">ProviderEventRestart</tspan></text></g></g><g class="edgeLabel" transform="translate(4226.8046875, 1114.25)"><g class="label" transform="translate(-76.015625, -9.5)"><rect rx="0" ry="0" width="151.9375" height="19.03125" style="fill:#e8e8e8;"></rect><text style=""><tspan xml:space="preserve" dy="1em" x="0" class="row">ProviderEventRestart</tspan></text></g></g><g class="edgeLabel" transform="translate(4130.7890625, 1179)"><g class="label" transform="translate(-76.015625, -9.5)"><rect rx="0" ry="0" width="151.9375" height="19.03125" style="fill:#e8e8e8;"></rect><text style=""><tspan xml:space="preserve" dy="1em" x="0" class="row">ProviderEventRestart</tspan></text></g></g><g class="edgeLabel"><g class="label" transform="translate(0, 0)"><rect rx="0" ry="0" width="0" height="0" style="fill:#e8e8e8;"></rect><text style=""></text></g></g><g class="edgeLabel"><g class="label" transform="translate(0, 0)"><rect rx="0" ry="0" width="0" height="0" style="fill:#e8e8e8;"></rect><text style=""></text></g></g><g class="edgeLabel"><g class="label" transform="translate(0, 0)"><rect rx="0" ry="0" width="0" height="0" style="fill:#e8e8e8;"></rect><text style=""></text></g></g></g><g class="nodes"><g class="node statediagram-state" id="0" transform="translate(318.046875, 114)"><rect class="outer title-state" x="-82.921875" y="-17" width="165.84375" height="34"></rect><line class="divider" x1="-82.921875" x2="82.921875" y1="9.5" y2="9.5"></line><g class="label" transform="translate(-75.421875, -14)"><text style=""><tspan xml:space="preserve" dy="1em" x="0" class="title-row">StorageDealUnknown</tspan></text><text style="" transform="translate( 0, 26.5)"><tspan xml:space="preserve" dy="1em" x="0" class="title-row"></tspan></text></g></g><g class="node statediagram-state" id="4" transform="translate(2069.359375, 1373.25)"><rect class="outer title-state" x="-102.8515625" y="-30.25" width="205.703125" height="60.5"></rect><line class="divider" x1="-102.8515625" x2="102.8515625" y1="-3.75" y2="-3.75"></line><g class="label" transform="translate(-95.3515625, -27.25)"><text style=""><tspan xml:space="preserve" dy="1em" x="0" class="title-row">StorageDealStaged</tspan></text><text style="" transform="translate( 0, 26.5)"><tspan xml:space="preserve" dy="1em" x="0" class="title-row">On entry runs HandoffDeal</tspan></text></g></g><g class="node statediagram-state" id="5" transform="translate(2630.7578125, 1502.75)"><rect class="outer title-state" x="-129.9765625" y="-30.25" width="259.953125" height="60.5"></rect><line class="divider" x1="-129.9765625" x2="129.9765625" y1="-3.75" y2="-3.75"></line><g class="label" transform="translate(-122.4765625, -27.25)"><text style=""><tspan xml:space="preserve" dy="1em" x="0" class="title-row">StorageDealSealing</tspan></text><text style="" transform="translate( 0, 26.5)"><tspan xml:space="preserve" dy="1em" x="0" class="title-row">On entry runs VerifyDealActivated</tspan></text></g></g><g class="node statediagram-state" id="6" transform="translate(3135.265625, 1632.25)"><rect class="outer title-state" x="-116.6640625" y="-30.25" width="233.328125" height="60.5"></rect><line class="divider" x1="-116.6640625" x2="116.6640625" y1="-3.75" y2="-3.75"></line><g class="label" transform="translate(-109.1640625, -27.25)"><text style=""><tspan xml:space="preserve" dy="1em" x="0" class="title-row">&lt;invalid Value&gt;</tspan></text><text style="" transform="translate( 0, 26.5)"><tspan xml:space="preserve" dy="1em" x="0" class="title-row">On entry runs RecordPieceInfo</tspan></text></g></g><g class="node statediagram-state" id="7" transform="translate(3678.41015625, 1761.75)"><rect class="outer title-state" x="-143.46875" y="-30.25" width="286.9375" height="60.5"></rect><line class="divider" x1="-143.46875" x2="143.46875" y1="-3.75" y2="-3.75"></line><g class="label" transform="translate(-135.96875, -27.25)"><text style=""><tspan xml:space="preserve" dy="1em" x="0" class="title-row">StorageDealActive</tspan></text><text style="" transform="translate( 0, 26.5)"><tspan xml:space="preserve" dy="1em" x="0" class="title-row">On entry runs WaitForDealCompletion</tspan></text></g></g><g class="node statediagram-state" id="8" transform="translate(3557.5546875, 2007.5)"><rect class="outer title-state" x="-77.296875" y="-17" width="154.59375" height="34"></rect><line class="divider" x1="-77.296875" x2="77.296875" y1="9.5" y2="9.5"></line><g class="label" transform="translate(-69.796875, -14)"><text style=""><tspan xml:space="preserve" dy="1em" x="0" class="title-row">StorageDealExpired</tspan></text><text style="" transform="translate( 0, 26.5)"><tspan xml:space="preserve" dy="1em" x="0" class="title-row"></tspan></text></g></g><g class="node statediagram-state" id="9" transform="translate(3351.8828125, 2007.5)"><rect class="outer title-state" x="-77.1796875" y="-17" width="154.359375" height="34"></rect><line class="divider" x1="-77.1796875" x2="77.1796875" y1="9.5" y2="9.5"></line><g class="label" transform="translate(-69.6796875, -14)"><text style=""><tspan xml:space="preserve" dy="1em" x="0" class="title-row">StorageDealSlashed</tspan></text><text style="" transform="translate( 0, 26.5)"><tspan xml:space="preserve" dy="1em" x="0" class="title-row"></tspan></text></g></g><g class="node statediagram-state" id="10" transform="translate(707.1953125, 1761.75)"><rect class="outer title-state" x="-97.828125" y="-30.25" width="195.65625" height="60.5"></rect><line class="divider" x1="-97.828125" x2="97.828125" y1="-3.75" y2="-3.75"></line><g class="label" transform="translate(-90.328125, -27.25)"><text style=""><tspan xml:space="preserve" dy="1em" x="0" class="title-row">StorageDealRejecting</tspan></text><text style="" transform="translate( 0, 26.5)"><tspan xml:space="preserve" dy="1em" x="0" class="title-row">On entry runs RejectDeal</tspan></text></g></g><g class="node statediagram-state" id="11" transform="translate(2208.4921875, 1891.25)"><rect class="outer title-state" x="-87.421875" y="-30.25" width="174.84375" height="60.5"></rect><line class="divider" x1="-87.421875" x2="87.421875" y1="-3.75" y2="-3.75"></line><g class="label" transform="translate(-79.921875, -27.25)"><text style=""><tspan xml:space="preserve" dy="1em" x="0" class="title-row">StorageDealFailing</tspan></text><text style="" transform="translate( 0, 26.5)"><tspan xml:space="preserve" dy="1em" x="0" class="title-row">On entry runs FailDeal</tspan></text></g></g><g class="node statediagram-state" id="14" transform="translate(2478.625, 233)"><rect class="outer title-state" x="-134.53125" y="-30.25" width="269.0625" height="60.5"></rect><line class="divider" x1="-134.53125" x2="134.53125" y1="-3.75" y2="-3.75"></line><g class="label" transform="translate(-127.03125, -27.25)"><text style=""><tspan xml:space="preserve" dy="1em" x="0" class="title-row">StorageDealValidating</tspan></text><text style="" transform="translate( 0, 26.5)"><tspan xml:space="preserve" dy="1em" x="0" class="title-row">On entry runs ValidateDealProposal</tspan></text></g></g><g class="node statediagram-state" id="15" transform="translate(2478.625, 390.25)"><rect class="outer title-state" x="-123.0546875" y="-30.25" width="246.109375" height="60.5"></rect><line class="divider" x1="-123.0546875" x2="123.0546875" y1="-3.75" y2="-3.75"></line><g class="label" transform="translate(-115.5546875, -27.25)"><text style=""><tspan xml:space="preserve" dy="1em" x="0" class="title-row">StorageDealAcceptWait</tspan></text><text style="" transform="translate( 0, 26.5)"><tspan xml:space="preserve" dy="1em" x="0" class="title-row">On entry runs DecideOnProposal</tspan></text></g></g><g class="node statediagram-state" id="17" transform="translate(1266.62109375, 609.5)"><rect class="outer title-state" x="-94.109375" y="-17" width="188.21875" height="34"></rect><line class="divider" x1="-94.109375" x2="94.109375" y1="9.5" y2="9.5"></line><g class="label" transform="translate(-86.609375, -14)"><text style=""><tspan xml:space="preserve" dy="1em" x="0" class="title-row">StorageDealTransferring</tspan></text><text style="" transform="translate( 0, 26.5)"><tspan xml:space="preserve" dy="1em" x="0" class="title-row"></tspan></text></g></g><g class="node statediagram-state" id="18" transform="translate(1722.94140625, 506.5)"><rect class="outer title-state" x="-105.5625" y="-17" width="211.125" height="34"></rect><line class="divider" x1="-105.5625" x2="105.5625" y1="9.5" y2="9.5"></line><g class="label" transform="translate(-98.0625, -14)"><text style=""><tspan xml:space="preserve" dy="1em" x="0" class="title-row">StorageDealWaitingForData</tspan></text><text style="" transform="translate( 0, 26.5)"><tspan xml:space="preserve" dy="1em" x="0" class="title-row"></tspan></text></g></g><g class="node statediagram-state" id="19" transform="translate(1345.46875, 725.75)"><rect class="outer title-state" x="-96.3828125" y="-30.25" width="192.765625" height="60.5"></rect><line class="divider" x1="-96.3828125" x2="96.3828125" y1="-3.75" y2="-3.75"></line><g class="label" transform="translate(-88.8828125, -27.25)"><text style=""><tspan xml:space="preserve" dy="1em" x="0" class="title-row">StorageDealVerifyData</tspan></text><text style="" transform="translate( 0, 26.5)"><tspan xml:space="preserve" dy="1em" x="0" class="title-row">On entry runs VerifyData</tspan></text></g></g><g class="node statediagram-state" id="20" transform="translate(2000.43359375, 855.25)"><rect class="outer title-state" x="-132.9140625" y="-30.25" width="265.828125" height="60.5"></rect><line class="divider" x1="-132.9140625" x2="132.9140625" y1="-3.75" y2="-3.75"></line><g class="label" transform="translate(-125.4140625, -27.25)"><text style=""><tspan xml:space="preserve" dy="1em" x="0" class="title-row">StorageDealEnsureProviderFunds</tspan></text><text style="" transform="translate( 0, 26.5)"><tspan xml:space="preserve" dy="1em" x="0" class="title-row">On entry runs EnsureProviderFunds</tspan></text></g></g><g class="node statediagram-state" id="22" transform="translate(1504.26953125, 984.75)"><rect class="outer title-state" x="-114.6875" y="-30.25" width="229.375" height="60.5"></rect><line class="divider" x1="-114.6875" x2="114.6875" y1="-3.75" y2="-3.75"></line><g class="label" transform="translate(-107.1875, -27.25)"><text style=""><tspan xml:space="preserve" dy="1em" x="0" class="title-row">StorageDealProviderFunding</tspan></text><text style="" transform="translate( 0, 26.5)"><tspan xml:space="preserve" dy="1em" x="0" class="title-row">On entry runs WaitForFunding</tspan></text></g></g><g class="node statediagram-state" id="24" transform="translate(2000.43359375, 1114.25)"><rect class="outer title-state" x="-99.9140625" y="-30.25" width="199.828125" height="60.5"></rect><line class="divider" x1="-99.9140625" x2="99.9140625" y1="-3.75" y2="-3.75"></line><g class="label" transform="translate(-92.4140625, -27.25)"><text style=""><tspan xml:space="preserve" dy="1em" x="0" class="title-row">StorageDealPublish</tspan></text><text style="" transform="translate( 0, 26.5)"><tspan xml:space="preserve" dy="1em" x="0" class="title-row">On entry runs PublishDeal</tspan></text></g></g><g class="node statediagram-state" id="25" transform="translate(2000.43359375, 1243.75)"><rect class="outer title-state" x="-112.15625" y="-30.25" width="224.3125" height="60.5"></rect><line class="divider" x1="-112.15625" x2="112.15625" y1="-3.75" y2="-3.75"></line><g class="label" transform="translate(-104.65625, -27.25)"><text style=""><tspan xml:space="preserve" dy="1em" x="0" class="title-row">StorageDealPublishing</tspan></text><text style="" transform="translate( 0, 26.5)"><tspan xml:space="preserve" dy="1em" x="0" class="title-row">On entry runs WaitForPublish</tspan></text></g></g><g class="node statediagram-state" id="26" transform="translate(3928.265625, 2007.5)"><rect class="outer title-state" x="-68.2421875" y="-17" width="136.484375" height="34"></rect><line class="divider" x1="-68.2421875" x2="68.2421875" y1="9.5" y2="9.5"></line><g class="label" transform="translate(-60.7421875, -14)"><text style=""><tspan xml:space="preserve" dy="1em" x="0" class="title-row">StorageDealError</tspan></text><text style="" transform="translate( 0, 26.5)"><tspan xml:space="preserve" dy="1em" x="0" class="title-row"></tspan></text></g></g><g class="node default" id="root_start" transform="translate(318.046875, 15)"><circle class="state-start" r="7" width="14" height="14"></circle></g><g class="node statediagram-note" id="0----note" transform="translate(318.046875, 233)"><rect x="-275.046875" y="-33" width="550.09375" height="66"></rect><g class="label" transform="translate(-267.546875, -25.5)"><text style=""><tspan xml:space="preserve" dy="1em" x="0" class="row">The following events are not shown cause they can trigger from any state.</tspan><tspan xml:space="preserve" dy="1em" x="0" class="row"></tspan><tspan xml:space="preserve" dy="1em" x="0" class="row">ProviderEventNodeErrored - transitions state to StorageDealFailing</tspan><tspan xml:space="preserve" dy="1em" x="0" class="row">ProviderEventRestart - does not transition state</tspan></text></g></g><g class="node default" id="root_end" transform="translate(3807.41015625, 2081.5)"><circle class="state-start" r="7" width="14" height="14"></circle><circle class="state-end" r="5" width="10" height="10"></circle></g></g></g></g></svg>