<svg id="mermaid-1600406653506" width="5566.09375" xmlns="http://www.w3.org/2000/svg" class="statediagram" height="2296.5" viewBox="0 0 5566.09375 2296.5"><style>#mermaid-1600406653506 .label{font-family:'trebuchet ms', verdana, arial;font-family:var(--mermaid-font-family);color:#333}#mermaid-1600406653506 .label text{fill:#333}#mermaid-1600406653506 .node rect,#mermaid-1600406653506 .node circle,#mermaid-1600406653506 .node ellipse,#mermaid-1600406653506 .node polygon,#mermaid-1600406653506 .node path{fill:#ECECFF;stroke:#9370db;stroke-width:1px}#mermaid-1600406653506 .node .label{text-align:center}#mermaid-1600406653506 .node.clickable{cursor:pointer}#mermaid-1600406653506 .arrowheadPath{fill:#333}#mermaid-1600406653506 .edgePath .path{stroke:#333;stroke-width:1.5px}#mermaid-1600406653506 .edgeLabel{background-color:#e8e8e8;text-align:center}#mermaid-1600406653506 .edgeLabel rect{opacity:0.5}#mermaid-1600406653506 .cluster rect{fill:#ffffde;stroke:#aa3;stroke-width:1px}#mermaid-1600406653506 .cluster text{fill:#333}#mermaid-1600406653506 div.mermaidTooltip{position:absolute;text-align:center;max-width:200px;padding:2px;font-family:'trebuchet ms', verdana, arial;font-family:var(--mermaid-font-family);font-size:12px;background:#ffffde;border:1px solid #aa3;border-radius:2px;pointer-events:none;z-index:100}#mermaid-1600406653506 .actor{stroke:#ccf;fill:#ECECFF}#mermaid-1600406653506 text.actor{fill:#000;stroke:none}#mermaid-1600406653506 .actor-line{stroke:grey}#mermaid-1600406653506 .messageLine0{stroke-width:1.5;stroke-dasharray:'2 2';stroke:#333}#mermaid-1600406653506 .messageLine1{stroke-width:1.5;stroke-dasharray:'2 2';stroke:#333}#mermaid-1600406653506 #arrowhead{fill:#333}#mermaid-1600406653506 .sequenceNumber{fill:#fff}#mermaid-1600406653506 #sequencenumber{fill:#333}#mermaid-1600406653506 #crosshead path{fill:#333 !important;stroke:#333 !important}#mermaid-1600406653506 .messageText{fill:#333;stroke:none}#mermaid-1600406653506 .labelBox{stroke:#ccf;fill:#ECECFF}#mermaid-1600406653506 .labelText{fill:#000;stroke:none}#mermaid-1600406653506 .loopText{fill:#000;stroke:none}#mermaid-1600406653506 .loopLine{stroke-width:2;stroke-dasharray:'2 2';stroke:#ccf}#mermaid-1600406653506 .note{stroke:#aa3;fill:#fff5ad}#mermaid-1600406653506 .noteText{fill:black;stroke:none;font-family:'trebuchet ms', verdana, arial;font-family:var(--mermaid-font-family);font-size:14px}#mermaid-1600406653506 .activation0{fill:#f4f4f4;stroke:#666}#mermaid-1600406653506 .activation1{fill:#f4f4f4;stroke:#666}#mermaid-1600406653506 .activation2{fill:#f4f4f4;stroke:#666}#mermaid-1600406653506 .mermaid-main-font{font-family:"trebuchet ms", verdana, arial;font-family:var(--mermaid-font-family)}#mermaid-1600406653506 .section{stroke:none;opacity:0.2}#mermaid-1600406653506 .section0{fill:rgba(102,102,255,0.49)}#mermaid-1600406653506 .section2{fill:#fff400}#mermaid-1600406653506 .section1,#mermaid-1600406653506 .section3{fill:#fff;opacity:0.2}#mermaid-1600406653506 .sectionTitle0{fill:#333}#mermaid-1600406653506 .sectionTitle1{fill:#333}#mermaid-1600406653506 .sectionTitle2{fill:#333}#mermaid-1600406653506 .sectionTitle3{fill:#333}#mermaid-1600406653506 .sectionTitle{text-anchor:start;font-size:11px;text-height:14px;font-family:'trebuchet ms', verdana, arial;font-family:var(--mermaid-font-family)}#mermaid-1600406653506 .grid .tick{stroke:#d3d3d3;opacity:0.8;shape-rendering:crispEdges}#mermaid-1600406653506 .grid .tick text{font-family:'trebuchet ms', verdana, arial;font-family:var(--mermaid-font-family)}#mermaid-1600406653506 .grid path{stroke-width:0}#mermaid-1600406653506 .today{fill:none;stroke:red;stroke-width:2px}#mermaid-1600406653506 .task{stroke-width:2}#mermaid-1600406653506 .taskText{text-anchor:middle;font-family:'trebuchet ms', verdana, arial;font-family:var(--mermaid-font-family)}#mermaid-1600406653506 .taskText:not([font-size]){font-size:11px}#mermaid-1600406653506 .taskTextOutsideRight{fill:#000;text-anchor:start;font-size:11px;font-family:'trebuchet ms', verdana, arial;font-family:var(--mermaid-font-family)}#mermaid-1600406653506 .taskTextOutsideLeft{fill:#000;text-anchor:end;font-size:11px}#mermaid-1600406653506 .task.clickable{cursor:pointer}#mermaid-1600406653506 .taskText.clickable{cursor:pointer;fill:#003163 !important;font-weight:bold}#mermaid-1600406653506 .taskTextOutsideLeft.clickable{cursor:pointer;fill:#003163 !important;font-weight:bold}#mermaid-1600406653506 .taskTextOutsideRight.clickable{cursor:pointer;fill:#003163 !important;font-weight:bold}#mermaid-1600406653506 .taskText0,#mermaid-1600406653506 .taskText1,#mermaid-1600406653506 .taskText2,#mermaid-1600406653506 .taskText3{fill:#fff}#mermaid-1600406653506 .task0,#mermaid-1600406653506 .task1,#mermaid-1600406653506 .task2,#mermaid-1600406653506 .task3{fill:#8a90dd;stroke:#534fbc}#mermaid-1600406653506 .taskTextOutside0,#mermaid-1600406653506 .taskTextOutside2{fill:#000}#mermaid-1600406653506 .taskTextOutside1,#mermaid-1600406653506 .taskTextOutside3{fill:#000}#mermaid-1600406653506 .active0,#mermaid-1600406653506 .active1,#mermaid-1600406653506 .active2,#mermaid-1600406653506 .active3{fill:#bfc7ff;stroke:#534fbc}#mermaid-1600406653506 .activeText0,#mermaid-1600406653506 .activeText1,#mermaid-1600406653506 .activeText2,#mermaid-1600406653506 .activeText3{fill:#000 !important}#mermaid-1600406653506 .done0,#mermaid-1600406653506 .done1,#mermaid-1600406653506 .done2,#mermaid-1600406653506 .done3{stroke:grey;fill:#d3d3d3;stroke-width:2}#mermaid-1600406653506 .doneText0,#mermaid-1600406653506 .doneText1,#mermaid-1600406653506 .doneText2,#mermaid-1600406653506 .doneText3{fill:#000 !important}#mermaid-1600406653506 .crit0,#mermaid-1600406653506 .crit1,#mermaid-1600406653506 .crit2,#mermaid-1600406653506 .crit3{stroke:#f88;fill:red;stroke-width:2}#mermaid-1600406653506 .activeCrit0,#mermaid-1600406653506 .activeCrit1,#mermaid-1600406653506 .activeCrit2,#mermaid-1600406653506 .activeCrit3{stroke:#f88;fill:#bfc7ff;stroke-width:2}#mermaid-1600406653506 .doneCrit0,#mermaid-1600406653506 .doneCrit1,#mermaid-1600406653506 .doneCrit2,#mermaid-1600406653506 .doneCrit3{stroke:#f88;fill:#d3d3d3;stroke-width:2;cursor:pointer;shape-rendering:crispEdges}#mermaid-1600406653506 .milestone{transform:rotate(45deg) scale(0.8, 0.8)}#mermaid-1600406653506 .milestoneText{font-style:italic}#mermaid-1600406653506 .doneCritText0,#mermaid-1600406653506 .doneCritText1,#mermaid-1600406653506 .doneCritText2,#mermaid-1600406653506 .doneCritText3{fill:#000 !important}#mermaid-1600406653506 .activeCritText0,#mermaid-1600406653506 .activeCritText1,#mermaid-1600406653506 .activeCritText2,#mermaid-1600406653506 .activeCritText3{fill:#000 !important}#mermaid-1600406653506 .titleText{text-anchor:middle;font-size:18px;fill:#000;font-family:'trebuchet ms', verdana, arial;font-family:var(--mermaid-font-family)}#mermaid-1600406653506 g.classGroup text{fill:#9370db;stroke:none;font-family:'trebuchet ms', verdana, arial;font-family:var(--mermaid-font-family);font-size:10px}#mermaid-1600406653506 g.classGroup text .title{font-weight:bolder}#mermaid-1600406653506 g.clickable{cursor:pointer}#mermaid-1600406653506 g.classGroup rect{fill:#ECECFF;stroke:#9370db}#mermaid-1600406653506 g.classGroup line{stroke:#9370db;stroke-width:1}#mermaid-1600406653506 .classLabel .box{stroke:none;stroke-width:0;fill:#ECECFF;opacity:0.5}#mermaid-1600406653506 .classLabel .label{fill:#9370db;font-size:10px}#mermaid-1600406653506 .relation{stroke:#9370db;stroke-width:1;fill:none}#mermaid-1600406653506 .dashed-line{stroke-dasharray:3}#mermaid-1600406653506 #compositionStart{fill:#9370db;stroke:#9370db;stroke-width:1}#mermaid-1600406653506 #compositionEnd{fill:#9370db;stroke:#9370db;stroke-width:1}#mermaid-1600406653506 #aggregationStart{fill:#ECECFF;stroke:#9370db;stroke-width:1}#mermaid-1600406653506 #aggregationEnd{fill:#ECECFF;stroke:#9370db;stroke-width:1}#mermaid-1600406653506 #dependencyStart{fill:#9370db;stroke:#9370db;stroke-width:1}#mermaid-1600406653506 #dependencyEnd{fill:#9370db;stroke:#9370db;stroke-width:1}#mermaid-1600406653506 #extensionStart{fill:#9370db;stroke:#9370db;stroke-width:1}#mermaid-1600406653506 #extensionEnd{fill:#9370db;stroke:#9370db;stroke-width:1}#mermaid-1600406653506 .commit-id,#mermaid-1600406653506 .commit-msg,#mermaid-1600406653506 .branch-label{fill:lightgrey;color:lightgrey;font-family:'trebuchet ms', verdana, arial;font-family:var(--mermaid-font-family)}#mermaid-1600406653506 .pieTitleText{text-anchor:middle;font-size:25px;fill:#000;font-family:'trebuchet ms', verdana, arial;font-family:var(--mermaid-font-family)}#mermaid-1600406653506 .slice{font-family:'trebuchet ms', verdana, arial;font-family:var(--mermaid-font-family)}#mermaid-1600406653506 g.stateGroup text{fill:#9370db;stroke:none;font-size:10px;font-family:'trebuchet ms', verdana, arial;font-family:var(--mermaid-font-family)}#mermaid-1600406653506 g.stateGroup text{fill:#9370db;stroke:none;font-size:10px}#mermaid-1600406653506 g.stateGroup .state-title{font-weight:bolder;fill:#000}#mermaid-1600406653506 g.stateGroup rect{fill:#ECECFF;stroke:#9370db}#mermaid-1600406653506 g.stateGroup line{stroke:#9370db;stroke-width:1}#mermaid-1600406653506 .transition{stroke:#9370db;stroke-width:1;fill:none}#mermaid-1600406653506 .stateGroup .composit{fill:white;border-bottom:1px}#mermaid-1600406653506 .stateGroup .alt-composit{fill:#e0e0e0;border-bottom:1px}#mermaid-1600406653506 .state-note{stroke:#aa3;fill:#fff5ad}#mermaid-1600406653506 .state-note text{fill:black;stroke:none;font-size:10px}#mermaid-1600406653506 .stateLabel .box{stroke:none;stroke-width:0;fill:#ECECFF;opacity:0.5}#mermaid-1600406653506 .stateLabel text{fill:#000;font-size:10px;font-weight:bold;font-family:'trebuchet ms', verdana, arial;font-family:var(--mermaid-font-family)}#mermaid-1600406653506 .node circle.state-start{fill:black;stroke:black}#mermaid-1600406653506 .node circle.state-end{fill:black;stroke:white;stroke-width:1.5}#mermaid-1600406653506 #statediagram-barbEnd{fill:#9370db}#mermaid-1600406653506 .statediagram-cluster rect{fill:#ECECFF;stroke:#9370db;stroke-width:1px}#mermaid-1600406653506 .statediagram-cluster rect.outer{rx:5px;ry:5px}#mermaid-1600406653506 .statediagram-state .divider{stroke:#9370db}#mermaid-1600406653506 .statediagram-state .title-state{rx:5px;ry:5px}#mermaid-1600406653506 .statediagram-cluster.statediagram-cluster .inner{fill:white}#mermaid-1600406653506 .statediagram-cluster.statediagram-cluster-alt .inner{fill:#e0e0e0}#mermaid-1600406653506 .statediagram-cluster .inner{rx:0;ry:0}#mermaid-1600406653506 .statediagram-state rect.basic{rx:5px;ry:5px}#mermaid-1600406653506 .statediagram-state rect.divider{stroke-dasharray:10,10;fill:#efefef}#mermaid-1600406653506 .note-edge{stroke-dasharray:5}#mermaid-1600406653506 .statediagram-note rect{fill:#fff5ad;stroke:#aa3;stroke-width:1px;rx:0;ry:0}:root{--mermaid-font-family: '"trebuchet ms", verdana, arial';--mermaid-font-family: "Comic Sans MS", "Comic Sans", cursive}

:root { --mermaid-font-family: "trebuchet ms", verdana, arial;}</style><style>#mermaid-1600406653506 {
    color: rgb(0, 0, 0);
    font: 16px "trebuchet ms", verdana, arial;
  }</style><g><defs><marker id="statediagram-barbEnd" refX="19" refY="7" markerWidth="20" markerHeight="14" markerUnits="0" orient="auto"><path d="M 19,7 L9,13 L14,7 L9,1 Z"></path></marker></defs><g class="root"><g class="clusters"><g class="note-cluster" id="0----parent"><rect x="4938" y="72" width="620.09375" height="219" fill="none"></rect></g><g class="note-cluster" id="4----parent"><rect x="1210.7109375" y="1288.5" width="936.50390625" height="265" fill="none"></rect></g><g class="note-cluster" id="11----parent"><rect x="729.81640625" y="1881.5" width="3214.91796875" height="240" fill="none"></rect></g><g class="note-cluster" id="21----parent"><rect x="3241.6328125" y="695.5" width="721.8125" height="240" fill="none"></rect></g><g class="note-cluster" id="26----parent"><rect x="2167.21484375" y="1134" width="494.703125" height="265" fill="none"></rect></g></g><g class="edgePaths"><path d="M5248.046875,22L5248.046875,26.166666666666668C5248.046875,30.333333333333332,5248.046875,38.666666666666664,5248.046875,47C5248.046875,55.333333333333336,5248.046875,63.666666666666664,5248.046875,72C5248.046875,80.33333333333333,5248.046875,88.66666666666667,5248.046875,92.83333333333333L5248.046875,97" id="edge0" class="transition" marker-end="url(#statediagram-barbEnd)"></path><path d="M5248.046875,131L5248.046875,136.75C5248.046875,142.5,5248.046875,154,5248.046875,165.5C5248.046875,177,5248.046875,188.5,5248.046875,194.25L5248.046875,200" class="transition note-edge"></path><path d="M5196.874089805825,131L5179.565647754854,136.75C5162.257205703883,142.5,5127.640321601942,154,4920.65219205097,169.81072967696784C4713.6640625,185.6214593539357,4334.3046875,205.74291870787138,4144.625,215.80364838483922L3954.9453125,225.86437806180706" id="edge1" class="transition" marker-end="url(#statediagram-barbEnd)"></path><path d="M3954.9453125,240.10906748474991L4115.454427083333,248.5908895706249C4275.963541666667,257.07271165649996,4596.981770833333,274.03635582824995,4757.490885416667,288.268177914125C4918,302.5,4918,314,4918,330.5416666666667C4918,347.0833333333333,4918,368.6666666666667,4918,390.25C4918,411.8333333333333,4918,433.4166666666667,4918,452.7916666666667C4918,472.1666666666667,4918,489.3333333333333,4918,506.5C4918,523.6666666666666,4918,540.8333333333334,4918,558C4918,575.1666666666666,4918,592.3333333333334,4918,609.5C4918,626.6666666666666,4918,643.8333333333334,4918,658.1666666666666C4918,672.5,4918,684,4918,698.9583333333334C4918,713.9166666666666,4918,732.3333333333334,4918,752.3333333333334C4918,772.3333333333334,4918,793.9166666666666,4918,815.5C4918,837.0833333333334,4918,858.6666666666666,4918,878.6666666666666C4918,898.6666666666666,4918,917.0833333333334,4918,932.0416666666666C4918,947,4918,958.5,4918,975.0416666666666C4918,991.5833333333334,4918,1013.1666666666666,4918,1034.75C4918,1056.3333333333333,4918,1077.9166666666667,4918,1094.4583333333333C4918,1111,4918,1122.5,4918,1137.4583333333333C4918,1152.4166666666667,4918,1170.8333333333333,4918,1190.8333333333333C4918,1210.8333333333333,4918,1232.4166666666667,4918,1248.9583333333333C4918,1265.5,4918,1277,4918,1291.9583333333333C4918,1306.9166666666667,4918,1325.3333333333333,4918,1343.75C4918,1362.1666666666667,4918,1380.5833333333333,4918,1395.5416666666667C4918,1410.5,4918,1422,4918,1438.5416666666667C4918,1455.0833333333333,4918,1476.6666666666667,4918,1496.6666666666667C4918,1516.6666666666667,4918,1535.0833333333333,4918,1550.0416666666667C4918,1565,4918,1576.5,4918,1593.0416666666667C4918,1609.5833333333333,4918,1631.1666666666667,4918,1652.75C4918,1674.3333333333333,4918,1695.9166666666667,4918,1717.5C4918,1739.0833333333333,4918,1760.6666666666667,4918,1782.25C4918,1803.8333333333333,4918,1825.4166666666667,4918,1841.9583333333333C4918,1858.5,4918,1870,4906.4017368966815,1879.9166666666667C4894.803473793363,1889.8333333333333,4871.606947586727,1898.1666666666667,4860.008684483409,1902.3333333333333L4848.41042138009,1906.5" id="edge2" class="transition" marker-end="url(#statediagram-barbEnd)"></path><path d="M3943.46875,398.3855226107003L4086.1901041666665,407.8212688422503C4228.911458333333,417.2570150738002,4514.354166666667,436.1285075369001,4657.075520833333,454.14758710178336C4799.796875,472.1666666666667,4799.796875,489.3333333333333,4799.796875,506.5C4799.796875,523.6666666666666,4799.796875,540.8333333333334,4799.796875,558C4799.796875,575.1666666666666,4799.796875,592.3333333333334,4799.796875,609.5C4799.796875,626.6666666666666,4799.796875,643.8333333333334,4799.796875,658.1666666666666C4799.796875,672.5,4799.796875,684,4799.796875,698.9583333333334C4799.796875,713.9166666666666,4799.796875,732.3333333333334,4799.796875,752.3333333333334C4799.796875,772.3333333333334,4799.796875,793.9166666666666,4799.796875,815.5C4799.796875,837.0833333333334,4799.796875,858.6666666666666,4799.796875,878.6666666666666C4799.796875,898.6666666666666,4799.796875,917.0833333333334,4799.796875,932.0416666666666C4799.796875,947,4799.796875,958.5,4799.796875,975.0416666666666C4799.796875,991.5833333333334,4799.796875,1013.1666666666666,4799.796875,1034.75C4799.796875,1056.3333333333333,4799.796875,1077.9166666666667,4799.796875,1094.4583333333333C4799.796875,1111,4799.796875,1122.5,4799.796875,1137.4583333333333C4799.796875,1152.4166666666667,4799.796875,1170.8333333333333,4799.796875,1190.8333333333333C4799.796875,1210.8333333333333,4799.796875,1232.4166666666667,4799.796875,1248.9583333333333C4799.796875,1265.5,4799.796875,1277,4799.796875,1291.9583333333333C4799.796875,1306.9166666666667,4799.796875,1325.3333333333333,4799.796875,1343.75C4799.796875,1362.1666666666667,4799.796875,1380.5833333333333,4799.796875,1395.5416666666667C4799.796875,1410.5,4799.796875,1422,4799.796875,1438.5416666666667C4799.796875,1455.0833333333333,4799.796875,1476.6666666666667,4799.796875,1496.6666666666667C4799.796875,1516.6666666666667,4799.796875,1535.0833333333333,4799.796875,1550.0416666666667C4799.796875,1565,4799.796875,1576.5,4799.796875,1593.0416666666667C4799.796875,1609.5833333333333,4799.796875,1631.1666666666667,4799.796875,1652.75C4799.796875,1674.3333333333333,4799.796875,1695.9166666666667,4799.796875,1717.5C4799.796875,1739.0833333333333,4799.796875,1760.6666666666667,4799.796875,1782.25C4799.796875,1803.8333333333333,4799.796875,1825.4166666666667,4799.796875,1841.9583333333333C4799.796875,1858.5,4799.796875,1870,4797.112874717194,1879.9166666666667C4794.428874434389,1889.8333333333333,4789.060873868778,1898.1666666666667,4786.376873585973,1902.3333333333333L4783.692873303167,1906.5" id="edge3" class="transition" marker-end="url(#statediagram-barbEnd)"></path><path d="M4149.484812379344,781L4156.16377594112,786.75C4162.842739502896,792.5,4176.200666626448,804,4182.879630188224,820.5416666666666C4189.55859375,837.0833333333334,4189.55859375,858.6666666666666,4189.55859375,878.6666666666666C4189.55859375,898.6666666666666,4189.55859375,917.0833333333334,4189.55859375,932.0416666666666C4189.55859375,947,4189.55859375,958.5,4189.55859375,975.0416666666666C4189.55859375,991.5833333333334,4189.55859375,1013.1666666666666,4189.55859375,1034.75C4189.55859375,1056.3333333333333,4189.55859375,1077.9166666666667,4189.55859375,1094.4583333333333C4189.55859375,1111,4189.55859375,1122.5,4189.55859375,1137.4583333333333C4189.55859375,1152.4166666666667,4189.55859375,1170.8333333333333,4189.55859375,1190.8333333333333C4189.55859375,1210.8333333333333,4189.55859375,1232.4166666666667,4189.55859375,1248.9583333333333C4189.55859375,1265.5,4189.55859375,1277,4189.55859375,1291.9583333333333C4189.55859375,1306.9166666666667,4189.55859375,1325.3333333333333,4189.55859375,1343.75C4189.55859375,1362.1666666666667,4189.55859375,1380.5833333333333,4189.55859375,1395.5416666666667C4189.55859375,1410.5,4189.55859375,1422,4189.55859375,1438.5416666666667C4189.55859375,1455.0833333333333,4189.55859375,1476.6666666666667,4189.55859375,1496.6666666666667C4189.55859375,1516.6666666666667,4189.55859375,1535.0833333333333,4189.55859375,1550.0416666666667C4189.55859375,1565,4189.55859375,1576.5,4189.55859375,1593.0416666666667C4189.55859375,1609.5833333333333,4189.55859375,1631.1666666666667,4189.55859375,1652.75C4189.55859375,1674.3333333333333,4189.55859375,1695.9166666666667,4189.55859375,1717.5C4189.55859375,1739.0833333333333,4189.55859375,1760.6666666666667,4189.55859375,1782.25C4189.55859375,1803.8333333333333,4189.55859375,1825.4166666666667,4258.340494791667,1841.9583333333333C4327.122395833333,1858.5,4464.686197916667,1870,4545.682053049585,1879.9166666666667C4626.677908182503,1889.8333333333333,4651.105816365008,1898.1666666666667,4663.319770456259,1902.3333333333333L4675.533724547511,1906.5" id="edge4" class="transition" marker-end="url(#statediagram-barbEnd)"></path><path d="M4666.37890625,1943.4829009703255L4525.882161458333,1953.1524174752712C4385.385416666667,1962.821933980217,4104.391927083333,1982.1609669901084,3728.2786458333335,2001.9936680637056C3352.1653645833335,2021.826369137303,2880.9322916666665,2042.1527382746056,2645.3157552083335,2052.3159228432573L2409.69921875,2062.4791074119084" id="edge5" class="transition" marker-end="url(#statediagram-barbEnd)"></path><path d="M3820.4140625,263.25L3820.4140625,267.875C3820.4140625,272.5,3820.4140625,281.75,3820.4140625,292.125C3820.4140625,302.5,3820.4140625,314,3820.4140625,325.5C3820.4140625,337,3820.4140625,348.5,3820.4140625,354.25L3820.4140625,360" id="edge6" class="transition" marker-end="url(#statediagram-barbEnd)"></path><path d="M3933.711043074324,420.5L3955.24683277027,426.25C3976.7826224662163,432,4019.854201858108,443.5,4041.3899915540537,455C4062.92578125,466.5,4062.92578125,478,4062.92578125,483.75L4062.92578125,489.5" id="edge7" class="transition" marker-end="url(#statediagram-barbEnd)"></path><path d="M4303.957600121359,626.5L4324.332505309466,632.25C4344.707410497573,638,4385.457220873786,649.5,4405.832126061893,661C4426.20703125,672.5,4426.20703125,684,4426.20703125,698.9583333333334C4426.20703125,713.9166666666666,4426.20703125,732.3333333333334,4426.20703125,752.3333333333334C4426.20703125,772.3333333333334,4426.20703125,793.9166666666666,4426.20703125,815.5C4426.20703125,837.0833333333334,4426.20703125,858.6666666666666,4426.20703125,878.6666666666666C4426.20703125,898.6666666666666,4426.20703125,917.0833333333334,4426.20703125,932.0416666666666C4426.20703125,947,4426.20703125,958.5,4426.20703125,975.0416666666666C4426.20703125,991.5833333333334,4426.20703125,1013.1666666666666,4426.20703125,1034.75C4426.20703125,1056.3333333333333,4426.20703125,1077.9166666666667,4426.20703125,1094.4583333333333C4426.20703125,1111,4426.20703125,1122.5,4426.20703125,1137.4583333333333C4426.20703125,1152.4166666666667,4426.20703125,1170.8333333333333,4426.20703125,1190.8333333333333C4426.20703125,1210.8333333333333,4426.20703125,1232.4166666666667,4426.20703125,1248.9583333333333C4426.20703125,1265.5,4426.20703125,1277,4426.20703125,1291.9583333333333C4426.20703125,1306.9166666666667,4426.20703125,1325.3333333333333,4426.20703125,1343.75C4426.20703125,1362.1666666666667,4426.20703125,1380.5833333333333,4426.20703125,1395.5416666666667C4426.20703125,1410.5,4426.20703125,1422,4426.20703125,1438.5416666666667C4426.20703125,1455.0833333333333,4426.20703125,1476.6666666666667,4426.20703125,1496.6666666666667C4426.20703125,1516.6666666666667,4426.20703125,1535.0833333333333,4426.20703125,1550.0416666666667C4426.20703125,1565,4426.20703125,1576.5,4426.20703125,1593.0416666666667C4426.20703125,1609.5833333333333,4426.20703125,1631.1666666666667,4426.20703125,1652.75C4426.20703125,1674.3333333333333,4426.20703125,1695.9166666666667,4426.20703125,1717.5C4426.20703125,1739.0833333333333,4426.20703125,1760.6666666666667,4426.20703125,1782.25C4426.20703125,1803.8333333333333,4426.20703125,1825.4166666666667,4261.702473958333,1841.9583333333333C4097.197916666667,1858.5,3768.1888020833335,1870,3603.6842447916665,1884.9583333333333C3439.1796875,1899.9166666666667,3439.1796875,1918.3333333333333,3439.1796875,1938.3333333333333C3439.1796875,1958.3333333333333,3439.1796875,1979.9166666666667,3267.599609375,2000.6553176160348C3096.01953125,2021.393968565403,2752.859375,2041.287937130806,2581.279296875,2051.2349214135074L2409.69921875,2061.181905696209" id="edge8" class="transition" marker-end="url(#statediagram-barbEnd)"></path><path d="M4122.605013652913,523.5L4142.790636377427,529.25C4162.976259101942,535,4203.34750455097,546.5,4223.533127275486,558C4243.71875,569.5,4243.71875,581,4243.71875,586.75L4243.71875,592.5" id="edge9" class="transition" marker-end="url(#statediagram-barbEnd)"></path><path d="M4201.0137287621355,626.5L4186.569383343446,632.25C4172.125037924757,638,4143.236347087379,649.5,4128.792001668689,661C4114.34765625,672.5,4114.34765625,684,4114.34765625,693.9166666666666C4114.34765625,703.8333333333334,4114.34765625,712.1666666666666,4114.34765625,716.3333333333334L4114.34765625,720.5" id="edge10" class="transition" marker-end="url(#statediagram-barbEnd)"></path><path d="M4079.2105001206564,781L4072.531536558881,786.75C4065.8525729971043,792.5,4052.494645873552,804,4045.8156823117765,820.5416666666666C4039.13671875,837.0833333333334,4039.13671875,858.6666666666666,4039.13671875,878.6666666666666C4039.13671875,898.6666666666666,4039.13671875,917.0833333333334,4039.13671875,932.0416666666666C4039.13671875,947,4039.13671875,958.5,4039.13671875,975.0416666666666C4039.13671875,991.5833333333334,4039.13671875,1013.1666666666666,4039.13671875,1034.75C4039.13671875,1056.3333333333333,4039.13671875,1077.9166666666667,4039.13671875,1094.4583333333333C4039.13671875,1111,4039.13671875,1122.5,4039.13671875,1137.4583333333333C4039.13671875,1152.4166666666667,4039.13671875,1170.8333333333333,4039.13671875,1190.8333333333333C4039.13671875,1210.8333333333333,4039.13671875,1232.4166666666667,4039.13671875,1248.9583333333333C4039.13671875,1265.5,4039.13671875,1277,4039.13671875,1291.9583333333333C4039.13671875,1306.9166666666667,4039.13671875,1325.3333333333333,4039.13671875,1343.75C4039.13671875,1362.1666666666667,4039.13671875,1380.5833333333333,4039.13671875,1395.5416666666667C4039.13671875,1410.5,4039.13671875,1422,4039.13671875,1438.5416666666667C4039.13671875,1455.0833333333333,4039.13671875,1476.6666666666667,4039.13671875,1496.6666666666667C4039.13671875,1516.6666666666667,4039.13671875,1535.0833333333333,4039.13671875,1550.0416666666667C4039.13671875,1565,4039.13671875,1576.5,4039.13671875,1593.0416666666667C4039.13671875,1609.5833333333333,4039.13671875,1631.1666666666667,4039.13671875,1652.75C4039.13671875,1674.3333333333333,4039.13671875,1695.9166666666667,4039.13671875,1717.5C4039.13671875,1739.0833333333333,4039.13671875,1760.6666666666667,4039.13671875,1782.25C4039.13671875,1803.8333333333333,4039.13671875,1825.4166666666667,3905.2213541666665,1841.9583333333333C3771.3059895833335,1858.5,3503.4752604166665,1870,3369.5598958333335,1884.9583333333333C3235.64453125,1899.9166666666667,3235.64453125,1918.3333333333333,3235.64453125,1938.3333333333333C3235.64453125,1958.3333333333333,3235.64453125,1979.9166666666667,3097.9869791666665,2000.467088212401C2960.3294270833335,2021.0175097581352,2685.0143229166665,2040.5350195162703,2547.3567708333335,2050.293774395338L2409.69921875,2060.0525292744055" id="edge11" class="transition" marker-end="url(#statediagram-barbEnd)"></path><path d="M3957.36328125,519.9219556181347L3907.4498697916665,526.2682963484456C3857.5364583333335,532.6146370787565,3757.7096354166665,545.3073185393782,3707.7962239583335,560.2369926030225C3657.8828125,575.1666666666666,3657.8828125,592.3333333333334,3657.8828125,609.5C3657.8828125,626.6666666666666,3657.8828125,643.8333333333334,3657.8828125,658.1666666666666C3657.8828125,672.5,3657.8828125,684,3657.8828125,698.9583333333334C3657.8828125,713.9166666666666,3657.8828125,732.3333333333334,3657.8828125,752.3333333333334C3657.8828125,772.3333333333334,3657.8828125,793.9166666666666,3652.4897592905404,810.4583333333334C3647.0967060810813,827,3636.310599662162,838.5,3630.917546452703,844.25L3625.5244932432433,850" id="edge12" class="transition" marker-end="url(#statediagram-barbEnd)"></path><path d="M4017.96484375,774.2112611421942L3989.6946614583335,781.0927176184952C3961.4244791666665,787.9741740947961,3904.8841145833335,801.7370870473982,3854.307359535875,814.368543523699C3803.730604488417,827,3759.1174589768343,838.5,3736.810886221043,844.25L3714.504313465251,850" id="edge13" class="transition" marker-end="url(#statediagram-barbEnd)"></path><path d="M3729.207367081448,910.5L3747.39676423454,914.6666666666666C3765.586161387632,918.8333333333334,3801.964955693816,927.1666666666666,3820.1543528469083,937.0833333333334C3838.34375,947,3838.34375,958.5,3838.34375,970C3838.34375,981.5,3838.34375,993,3838.34375,998.75L3838.34375,1004.5" id="edge14" class="transition" marker-end="url(#statediagram-barbEnd)"></path><path d="M3605.465533088235,910.5L3606.610600490196,914.6666666666666C3607.755667892157,918.8333333333334,3610.045802696078,927.1666666666666,3611.190870098039,937.0833333333334C3612.3359375,947,3612.3359375,958.5,3612.3359375,975.0416666666666C3612.3359375,991.5833333333334,3612.3359375,1013.1666666666666,3612.3359375,1034.75C3612.3359375,1056.3333333333333,3612.3359375,1077.9166666666667,3612.3359375,1094.4583333333333C3612.3359375,1111,3612.3359375,1122.5,3618.1655590120663,1132.4166666666667C3623.9951805241326,1142.3333333333333,3635.654423548265,1150.6666666666667,3641.4840450603315,1154.8333333333333L3647.3136665723982,1159" id="edge15" class="transition" marker-end="url(#statediagram-barbEnd)"></path><path d="M3838.34375,1065L3838.34375,1070.75C3838.34375,1076.5,3838.34375,1088,3838.34375,1099.5C3838.34375,1111,3838.34375,1122.5,3827.129041760935,1132.4166666666667C3815.9143335218705,1142.3333333333333,3793.484917043741,1150.6666666666667,3782.270208804676,1154.8333333333333L3771.055500565611,1159" id="edge16" class="transition" marker-end="url(#statediagram-barbEnd)"></path><path d="M3589.72265625,1194.7685983046104L3410.9921875,1204.6404985871752C3232.26171875,1214.5123988697403,2874.80078125,1234.25619943487,2696.0703125,1249.8780997174351C2517.33984375,1265.5,2517.33984375,1277,2513.5970906391403,1286.9166666666667C2509.8543375282807,1296.8333333333333,2502.368831306561,1305.1666666666667,2498.626078195701,1309.3333333333333L2494.8833250848415,1313.5" id="edge17" class="transition" marker-end="url(#statediagram-barbEnd)"></path><path d="M2513.9841982466064,1374L2520.357925622172,1378.1666666666667C2526.7316529977375,1382.3333333333333,2539.4791077488685,1390.6666666666667,2545.8528351244345,1400.5833333333333C2552.2265625,1410.5,2552.2265625,1422,2552.2265625,1438.5416666666667C2552.2265625,1455.0833333333333,2552.2265625,1476.6666666666667,2552.2265625,1496.6666666666667C2552.2265625,1516.6666666666667,2552.2265625,1535.0833333333333,2552.2265625,1550.0416666666667C2552.2265625,1565,2552.2265625,1576.5,2552.2265625,1593.0416666666667C2552.2265625,1609.5833333333333,2552.2265625,1631.1666666666667,2552.2265625,1652.75C2552.2265625,1674.3333333333333,2552.2265625,1695.9166666666667,2552.2265625,1717.5C2552.2265625,1739.0833333333333,2552.2265625,1760.6666666666667,2552.2265625,1782.25C2552.2265625,1803.8333333333333,2552.2265625,1825.4166666666667,2552.2265625,1841.9583333333333C2552.2265625,1858.5,2552.2265625,1870,2552.2265625,1884.9583333333333C2552.2265625,1899.9166666666667,2552.2265625,1918.3333333333333,2552.2265625,1938.3333333333333C2552.2265625,1958.3333333333333,2552.2265625,1979.9166666666667,2528.4720052083335,1997.3972344437461C2504.7174479166665,2014.8778022208255,2457.2083333333335,2028.2556044416508,2433.4537760416665,2034.9445055520637L2409.69921875,2041.6334066624763" id="edge18" class="transition" marker-end="url(#statediagram-barbEnd)"></path><path d="M4666.37890625,1942.1043034877616L4485.509765625,1952.0035862398015C4304.640625,1961.9028689918412,3942.90234375,1981.7014344959207,3566.7890625,2001.6429695945587C3190.67578125,2021.5845046931965,2800.1875,2041.6690093863936,2604.943359375,2051.7112617329917L2409.69921875,2061.7535140795903" id="edge19" class="transition" marker-end="url(#statediagram-barbEnd)"></path><path d="M3697.359375,403.2520047169811L3615.7330729166665,411.87667059748424C3534.1067708333335,420.5013364779874,3370.8541666666665,437.7506682389937,3289.2278645833335,454.9586674528302C3207.6015625,472.1666666666667,3207.6015625,489.3333333333333,3207.6015625,506.5C3207.6015625,523.6666666666666,3207.6015625,540.8333333333334,3207.6015625,558C3207.6015625,575.1666666666666,3207.6015625,592.3333333333334,3207.6015625,609.5C3207.6015625,626.6666666666666,3207.6015625,643.8333333333334,3207.6015625,658.1666666666666C3207.6015625,672.5,3207.6015625,684,3207.6015625,698.9583333333334C3207.6015625,713.9166666666666,3207.6015625,732.3333333333334,3207.6015625,752.3333333333334C3207.6015625,772.3333333333334,3207.6015625,793.9166666666666,3207.6015625,815.5C3207.6015625,837.0833333333334,3207.6015625,858.6666666666666,3207.6015625,878.6666666666666C3207.6015625,898.6666666666666,3207.6015625,917.0833333333334,3207.6015625,932.0416666666666C3207.6015625,947,3207.6015625,958.5,3207.6015625,975.0416666666666C3207.6015625,991.5833333333334,3207.6015625,1013.1666666666666,3207.6015625,1034.75C3207.6015625,1056.3333333333333,3207.6015625,1077.9166666666667,3207.6015625,1094.4583333333333C3207.6015625,1111,3207.6015625,1122.5,3207.6015625,1137.4583333333333C3207.6015625,1152.4166666666667,3207.6015625,1170.8333333333333,3207.6015625,1190.8333333333333C3207.6015625,1210.8333333333333,3207.6015625,1232.4166666666667,3207.6015625,1248.9583333333333C3207.6015625,1265.5,3207.6015625,1277,3207.6015625,1291.9583333333333C3207.6015625,1306.9166666666667,3207.6015625,1325.3333333333333,3207.6015625,1343.75C3207.6015625,1362.1666666666667,3207.6015625,1380.5833333333333,3207.6015625,1395.5416666666667C3207.6015625,1410.5,3207.6015625,1422,3207.6015625,1438.5416666666667C3207.6015625,1455.0833333333333,3207.6015625,1476.6666666666667,3207.6015625,1496.6666666666667C3207.6015625,1516.6666666666667,3207.6015625,1535.0833333333333,3207.6015625,1550.0416666666667C3207.6015625,1565,3207.6015625,1576.5,3207.6015625,1593.0416666666667C3207.6015625,1609.5833333333333,3207.6015625,1631.1666666666667,3207.6015625,1652.75C3207.6015625,1674.3333333333333,3207.6015625,1695.9166666666667,3207.6015625,1717.5C3207.6015625,1739.0833333333333,3207.6015625,1760.6666666666667,3207.6015625,1782.25C3207.6015625,1803.8333333333333,3207.6015625,1825.4166666666667,3131.546875,1841.9583333333333C3055.4921875,1858.5,2903.3828125,1870,2827.328125,1884.9583333333333C2751.2734375,1899.9166666666667,2751.2734375,1918.3333333333333,2751.2734375,1938.3333333333333C2751.2734375,1958.3333333333333,2751.2734375,1979.9166666666667,2694.3444010416665,1999.3008477277072C2637.4153645833335,2018.685028788748,2523.5572916666665,2035.8700575774958,2466.6282552083335,2044.4625719718697L2409.69921875,2053.055086366244" id="edge20" class="transition" marker-end="url(#statediagram-barbEnd)"></path><path d="M2371.111549066742,1374L2357.8058481806183,1378.1666666666667C2344.5001472944946,1382.3333333333333,2317.888745522247,1390.6666666666667,2259.0602581777903,1400.5833333333333C2200.2317708333335,1410.5,2109.1861979166665,1422,2044.7629228000321,1433.5C1980.3396476833977,1445,1942.5386703667955,1456.5,1923.6381817084941,1462.25L1904.737693050193,1468" id="edge21" class="transition" marker-end="url(#statediagram-barbEnd)"></path><path d="M1908.15625,1519.267590117749L1936.076171875,1524.972991764791C1963.99609375,1530.6783934118328,2019.8359375,1542.0891967059163,2047.755859375,1553.5445983529582C2075.67578125,1565,2075.67578125,1576.5,2075.67578125,1593.0416666666667C2075.67578125,1609.5833333333333,2075.67578125,1631.1666666666667,2075.67578125,1652.75C2075.67578125,1674.3333333333333,2075.67578125,1695.9166666666667,2075.67578125,1717.5C2075.67578125,1739.0833333333333,2075.67578125,1760.6666666666667,2075.67578125,1782.25C2075.67578125,1803.8333333333333,2075.67578125,1825.4166666666667,2075.67578125,1841.9583333333333C2075.67578125,1858.5,2075.67578125,1870,2075.67578125,1884.9583333333333C2075.67578125,1899.9166666666667,2075.67578125,1918.3333333333333,2075.67578125,1938.3333333333333C2075.67578125,1958.3333333333333,2075.67578125,1979.9166666666667,2102.2057291666665,1997.6742832250911C2128.7356770833335,2015.4318997835155,2181.7955729166665,2029.3637995670313,2208.3255208333335,2036.329749458789L2234.85546875,2043.2956993505466" id="edge22" class="transition" marker-end="url(#statediagram-barbEnd)"></path><path d="M1343.1489955357142,1683L1360.7198660714284,1688.75C1378.290736607143,1694.5,1413.4324776785713,1706,1431.0033482142856,1722.5416666666667C1448.57421875,1739.0833333333333,1448.57421875,1760.6666666666667,1448.57421875,1782.25C1448.57421875,1803.8333333333333,1448.57421875,1825.4166666666667,1448.57421875,1841.9583333333333C1448.57421875,1858.5,1448.57421875,1870,1448.57421875,1884.9583333333333C1448.57421875,1899.9166666666667,1448.57421875,1918.3333333333333,1448.57421875,1938.3333333333333C1448.57421875,1958.3333333333333,1448.57421875,1979.9166666666667,1579.62109375,2000.420196451884C1710.66796875,2020.9237262371014,1972.76171875,2040.347452474203,2103.80859375,2050.0593155927536L2234.85546875,2059.7711787113044" id="edge23" class="transition" marker-end="url(#statediagram-barbEnd)"></path><path d="M623.44921875,1961.2830733679955L662.6471354166666,1967.9858944733296C701.8450520833334,1974.6887155786637,780.2408854166666,1988.094357789332,1048.80859375,2004.9442694828467C1317.3763020833333,2021.794181176362,1776.1158854166667,2042.0883623527234,2005.4856770833333,2052.2354529409045L2234.85546875,2062.382543529085" id="edge24" class="transition" marker-end="url(#statediagram-barbEnd)"></path><path d="M1821.0092795531675,1528.5L1823.1724465026398,1532.6666666666667C1825.3356134521116,1536.8333333333333,1829.6619473510557,1545.1666666666667,1831.825114300528,1555.0833333333333C1833.98828125,1565,1833.98828125,1576.5,1833.98828125,1593.0416666666667C1833.98828125,1609.5833333333333,1833.98828125,1631.1666666666667,1833.98828125,1652.75C1833.98828125,1674.3333333333333,1833.98828125,1695.9166666666667,1833.98828125,1717.5C1833.98828125,1739.0833333333333,1833.98828125,1760.6666666666667,1833.98828125,1782.25C1833.98828125,1803.8333333333333,1833.98828125,1825.4166666666667,1833.98828125,1841.9583333333333C1833.98828125,1858.5,1833.98828125,1870,1833.98828125,1884.9583333333333C1833.98828125,1899.9166666666667,1833.98828125,1918.3333333333333,1833.98828125,1938.3333333333333C1833.98828125,1958.3333333333333,1833.98828125,1979.9166666666667,1900.7994791666667,1999.5678909137453C1967.6106770833333,2019.219115160824,2101.2330729166665,2036.9382303216482,2168.0442708333335,2045.7977879020602L2234.85546875,2054.6573454824725" id="edge25" class="transition" marker-end="url(#statediagram-barbEnd)"></path><path d="M1702.453125,1524.0262195013909L1682.8522135416667,1528.938516251159C1663.2513020833333,1533.8508130009275,1624.0494791666667,1543.6754065004636,1604.4485677083333,1554.337703250232C1584.84765625,1565,1584.84765625,1576.5,1584.84765625,1593.0416666666667C1584.84765625,1609.5833333333333,1584.84765625,1631.1666666666667,1584.84765625,1652.75C1584.84765625,1674.3333333333333,1584.84765625,1695.9166666666667,1584.84765625,1717.5C1584.84765625,1739.0833333333333,1584.84765625,1760.6666666666667,1584.84765625,1782.25C1584.84765625,1803.8333333333333,1584.84765625,1825.4166666666667,1584.84765625,1841.9583333333333C1584.84765625,1858.5,1584.84765625,1870,1584.84765625,1884.9583333333333C1584.84765625,1899.9166666666667,1584.84765625,1918.3333333333333,1584.84765625,1938.3333333333333C1584.84765625,1958.3333333333333,1584.84765625,1979.9166666666667,1693.1822916666667,2000.2206539818417C1801.5169270833333,2020.5246412970164,2018.1861979166667,2039.5492825940328,2126.5208333333335,2049.061603242541L2234.85546875,2058.573923891049" id="edge26" class="transition" marker-end="url(#statediagram-barbEnd)"></path><path d="M1702.453125,1508.4963268439735L1627.1627604166667,1515.9969390366448C1551.8723958333333,1523.4975512293156,1401.2916666666667,1538.4987756146577,1326.0013020833333,1551.749387807329C1250.7109375,1565,1250.7109375,1576.5,1250.7109375,1588C1250.7109375,1599.5,1250.7109375,1611,1250.7109375,1616.75L1250.7109375,1622.5" id="edge27" class="transition" marker-end="url(#statediagram-barbEnd)"></path><path d="M1224.9557341940153,1683L1220.0601170366795,1688.75C1215.1644998793436,1694.5,1205.3732655646718,1706,1200.477648407336,1722.5416666666667C1195.58203125,1739.0833333333333,1195.58203125,1760.6666666666667,1195.58203125,1782.25C1195.58203125,1803.8333333333333,1195.58203125,1825.4166666666667,1195.58203125,1841.9583333333333C1195.58203125,1858.5,1195.58203125,1870,1195.58203125,1884.9583333333333C1195.58203125,1899.9166666666667,1195.58203125,1918.3333333333333,1195.58203125,1938.3333333333333C1195.58203125,1958.3333333333333,1195.58203125,1979.9166666666667,1368.7942708333333,2000.662659395217C1542.0065104166667,2021.408652123767,1888.4309895833333,2041.3173042475344,2061.6432291666665,2051.271630309418L2234.85546875,2061.2259563713014" id="edge28" class="transition" marker-end="url(#statediagram-barbEnd)"></path><path d="M1120.734375,1663.6694884114604L1013.9420572916666,1672.6412403428837C907.1497395833334,1681.6129922743069,693.5651041666666,1699.5564961371535,586.7727864583334,1714.2782480685767C479.98046875,1729,479.98046875,1740.5,479.98046875,1746.25L479.98046875,1752" id="edge29" class="transition" marker-end="url(#statediagram-barbEnd)"></path><path d="M479.98046875,1812.5L479.98046875,1818.25C479.98046875,1824,479.98046875,1835.5,479.98046875,1847C479.98046875,1858.5,479.98046875,1870,479.98046875,1879.9166666666667C479.98046875,1889.8333333333333,479.98046875,1898.1666666666667,479.98046875,1902.3333333333333L479.98046875,1906.5" id="edge30" class="transition" marker-end="url(#statediagram-barbEnd)"></path><path d="M528.6677123552123,1967L537.9223123793436,1972.75C547.1769124034748,1978.5,565.6861124517374,1990,574.9407124758687,2006.5416666666667C584.1953125,2023.0833333333333,584.1953125,2044.6666666666667,584.1953125,2064.6666666666665C584.1953125,2084.6666666666665,584.1953125,2103.0833333333335,584.1953125,2118.0416666666665C584.1953125,2133,584.1953125,2144.5,572.5596746055825,2156C560.9240367111651,2167.5,537.6527609223301,2179,526.0171230279126,2184.75L514.3814851334952,2190.5" id="edge31" class="transition" marker-end="url(#statediagram-barbEnd)"></path><path d="M432.58162403474904,1967L423.57192627895756,1972.75C414.56222852316597,1978.5,396.542833011583,1990,387.5331352557915,2006.5416666666667C378.5234375,2023.0833333333333,378.5234375,2044.6666666666667,378.5234375,2064.6666666666665C378.5234375,2084.6666666666665,378.5234375,2103.0833333333335,378.5234375,2118.0416666666665C378.5234375,2133,378.5234375,2144.5,366.88779960558253,2156C355.252161711165,2167.5,331.9808859223301,2179,320.34524802791265,2184.75L308.7096101334952,2190.5" id="edge32" class="transition" marker-end="url(#statediagram-barbEnd)"></path><path d="M336.51171875,1963.8201301066579L303.228515625,1970.100108422215C269.9453125,1976.380086737772,203.37890625,1988.940043368886,170.095703125,2006.0116883511098C136.8125,2023.0833333333333,136.8125,2044.6666666666667,136.8125,2064.6666666666665C136.8125,2084.6666666666665,136.8125,2103.0833333333335,136.8125,2118.0416666666665C136.8125,2133,136.8125,2144.5,767.59765625,2158.6813082700364C1398.3828125,2172.862616540073,2659.953125,2189.7252330801452,3290.73828125,2198.1565413501817L3921.5234375,2206.587849620218" id="edge33" class="transition" marker-end="url(#statediagram-barbEnd)"></path><path d="M2322.27734375,2096.5L2322.27734375,2100.6666666666665C2322.27734375,2104.8333333333335,2322.27734375,2113.1666666666665,2322.27734375,2123.0833333333335C2322.27734375,2133,2322.27734375,2144.5,2588.818359375,2158.4820592348615C2855.359375,2172.464118469723,3388.44140625,2188.9282369394464,3654.982421875,2197.160296174308L3921.5234375,2205.3923554091693" id="edge34" class="transition" marker-end="url(#statediagram-barbEnd)"></path><path d="M4749.680607504826,1967L4746.919386462355,1972.75C4744.158165419884,1978.5,4738.635723334942,1990,4735.874502292471,2006.5416666666667C4733.11328125,2023.0833333333333,4733.11328125,2044.6666666666667,4733.11328125,2064.6666666666665C4733.11328125,2084.6666666666665,4733.11328125,2103.0833333333335,4733.11328125,2118.0416666666665C4733.11328125,2133,4733.11328125,2144.5,4620.595703125,2158.045350163166C4508.078125,2171.5907003263324,4283.04296875,2187.1814006526643,4170.525390625,2194.97675081583L4058.0078125,2202.772100978996" id="edge35" class="transition" marker-end="url(#statediagram-barbEnd)"></path><path d="M3685.8828125,241.84841128864358L3561.3326822916665,250.04034274053632C3436.7825520833335,258.23227419242903,3187.6822916666665,274.6161370962145,3063.1321614583335,288.55806854810726C2938.58203125,302.5,2938.58203125,314,2938.58203125,330.5416666666667C2938.58203125,347.0833333333333,2938.58203125,368.6666666666667,2938.58203125,390.25C2938.58203125,411.8333333333333,2938.58203125,433.4166666666667,2938.58203125,452.7916666666667C2938.58203125,472.1666666666667,2938.58203125,489.3333333333333,2938.58203125,506.5C2938.58203125,523.6666666666666,2938.58203125,540.8333333333334,2938.58203125,558C2938.58203125,575.1666666666666,2938.58203125,592.3333333333334,2938.58203125,609.5C2938.58203125,626.6666666666666,2938.58203125,643.8333333333334,2938.58203125,658.1666666666666C2938.58203125,672.5,2938.58203125,684,2938.58203125,698.9583333333334C2938.58203125,713.9166666666666,2938.58203125,732.3333333333334,2938.58203125,752.3333333333334C2938.58203125,772.3333333333334,2938.58203125,793.9166666666666,2938.58203125,815.5C2938.58203125,837.0833333333334,2938.58203125,858.6666666666666,2938.58203125,878.6666666666666C2938.58203125,898.6666666666666,2938.58203125,917.0833333333334,2938.58203125,932.0416666666666C2938.58203125,947,2938.58203125,958.5,2938.58203125,975.0416666666666C2938.58203125,991.5833333333334,2938.58203125,1013.1666666666666,2938.58203125,1034.75C2938.58203125,1056.3333333333333,2938.58203125,1077.9166666666667,2938.58203125,1094.4583333333333C2938.58203125,1111,2938.58203125,1122.5,2938.58203125,1137.4583333333333C2938.58203125,1152.4166666666667,2938.58203125,1170.8333333333333,2938.58203125,1190.8333333333333C2938.58203125,1210.8333333333333,2938.58203125,1232.4166666666667,2938.58203125,1248.9583333333333C2938.58203125,1265.5,2938.58203125,1277,2938.58203125,1291.9583333333333C2938.58203125,1306.9166666666667,2938.58203125,1325.3333333333333,2938.58203125,1343.75C2938.58203125,1362.1666666666667,2938.58203125,1380.5833333333333,2938.58203125,1395.5416666666667C2938.58203125,1410.5,2938.58203125,1422,2938.58203125,1438.5416666666667C2938.58203125,1455.0833333333333,2938.58203125,1476.6666666666667,2938.58203125,1496.6666666666667C2938.58203125,1516.6666666666667,2938.58203125,1535.0833333333333,2938.58203125,1550.0416666666667C2938.58203125,1565,2938.58203125,1576.5,2938.58203125,1593.0416666666667C2938.58203125,1609.5833333333333,2938.58203125,1631.1666666666667,2938.58203125,1652.75C2938.58203125,1674.3333333333333,2938.58203125,1695.9166666666667,2938.58203125,1717.5C2938.58203125,1739.0833333333333,2938.58203125,1760.6666666666667,2938.58203125,1782.25C2938.58203125,1803.8333333333333,2938.58203125,1825.4166666666667,3109.607421875,1841.9583333333333C3280.6328125,1858.5,3622.68359375,1870,3793.708984375,1884.9583333333333C3964.734375,1899.9166666666667,3964.734375,1918.3333333333333,3964.734375,1938.3333333333333C3964.734375,1958.3333333333333,3964.734375,1979.9166666666667,3964.734375,2001.5C3964.734375,2023.0833333333333,3964.734375,2044.6666666666667,3964.734375,2064.6666666666665C3964.734375,2084.6666666666665,3964.734375,2103.0833333333335,3964.734375,2118.0416666666665C3964.734375,2133,3964.734375,2144.5,3967.5291262135925,2156C3970.3238774271845,2167.5,3975.9133798543685,2179,3978.708131067961,2184.75L3981.5028822815534,2190.5" id="edge36" class="transition" marker-end="url(#statediagram-barbEnd)"></path><path d="M3697.359375,400.80620562237357L3592.0690104166665,409.8385046853113C3486.7786458333335,418.87080374824905,3276.1979166666665,436.93540187412447,3170.9075520833335,454.5510342703956C3065.6171875,472.1666666666667,3065.6171875,489.3333333333333,3065.6171875,506.5C3065.6171875,523.6666666666666,3065.6171875,540.8333333333334,3065.6171875,558C3065.6171875,575.1666666666666,3065.6171875,592.3333333333334,3065.6171875,609.5C3065.6171875,626.6666666666666,3065.6171875,643.8333333333334,3065.6171875,658.1666666666666C3065.6171875,672.5,3065.6171875,684,3065.6171875,698.9583333333334C3065.6171875,713.9166666666666,3065.6171875,732.3333333333334,3065.6171875,752.3333333333334C3065.6171875,772.3333333333334,3065.6171875,793.9166666666666,3065.6171875,815.5C3065.6171875,837.0833333333334,3065.6171875,858.6666666666666,3065.6171875,878.6666666666666C3065.6171875,898.6666666666666,3065.6171875,917.0833333333334,3065.6171875,932.0416666666666C3065.6171875,947,3065.6171875,958.5,3065.6171875,975.0416666666666C3065.6171875,991.5833333333334,3065.6171875,1013.1666666666666,3065.6171875,1034.75C3065.6171875,1056.3333333333333,3065.6171875,1077.9166666666667,3065.6171875,1094.4583333333333C3065.6171875,1111,3065.6171875,1122.5,3065.6171875,1137.4583333333333C3065.6171875,1152.4166666666667,3065.6171875,1170.8333333333333,3065.6171875,1190.8333333333333C3065.6171875,1210.8333333333333,3065.6171875,1232.4166666666667,3065.6171875,1248.9583333333333C3065.6171875,1265.5,3065.6171875,1277,3065.6171875,1291.9583333333333C3065.6171875,1306.9166666666667,3065.6171875,1325.3333333333333,3065.6171875,1343.75C3065.6171875,1362.1666666666667,3065.6171875,1380.5833333333333,3065.6171875,1395.5416666666667C3065.6171875,1410.5,3065.6171875,1422,3065.6171875,1438.5416666666667C3065.6171875,1455.0833333333333,3065.6171875,1476.6666666666667,3065.6171875,1496.6666666666667C3065.6171875,1516.6666666666667,3065.6171875,1535.0833333333333,3065.6171875,1550.0416666666667C3065.6171875,1565,3065.6171875,1576.5,3065.6171875,1593.0416666666667C3065.6171875,1609.5833333333333,3065.6171875,1631.1666666666667,3065.6171875,1652.75C3065.6171875,1674.3333333333333,3065.6171875,1695.9166666666667,3065.6171875,1717.5C3065.6171875,1739.0833333333333,3065.6171875,1760.6666666666667,3065.6171875,1782.25C3065.6171875,1803.8333333333333,3065.6171875,1825.4166666666667,3225.1380208333335,1841.9583333333333C3384.6588541666665,1858.5,3703.7005208333335,1870,3863.2213541666665,1884.9583333333333C4022.7421875,1899.9166666666667,4022.7421875,1918.3333333333333,4022.7421875,1938.3333333333333C4022.7421875,1958.3333333333333,4022.7421875,1979.9166666666667,4022.7421875,2001.5C4022.7421875,2023.0833333333333,4022.7421875,2044.6666666666667,4022.7421875,2064.6666666666665C4022.7421875,2084.6666666666665,4022.7421875,2103.0833333333335,4022.7421875,2118.0416666666665C4022.7421875,2133,4022.7421875,2144.5,4019.060338288835,2156C4015.3784890776697,2167.5,4008.0147906553398,2179,4004.3329414441746,2184.75L4000.65109223301,2190.5" id="edge37" class="transition" marker-end="url(#statediagram-barbEnd)"></path><path d="M3542.163815045249,910.5L3534.5896375377074,914.6666666666666C3527.015460030166,918.8333333333334,3511.867105015083,927.1666666666666,3504.2929275075417,937.0833333333334C3496.71875,947,3496.71875,958.5,3496.71875,975.0416666666666C3496.71875,991.5833333333334,3496.71875,1013.1666666666666,3496.71875,1034.75C3496.71875,1056.3333333333333,3496.71875,1077.9166666666667,3496.71875,1094.4583333333333C3496.71875,1111,3496.71875,1122.5,3496.71875,1137.4583333333333C3496.71875,1152.4166666666667,3496.71875,1170.8333333333333,3496.71875,1190.8333333333333C3496.71875,1210.8333333333333,3496.71875,1232.4166666666667,3496.71875,1248.9583333333333C3496.71875,1265.5,3496.71875,1277,3496.71875,1291.9583333333333C3496.71875,1306.9166666666667,3496.71875,1325.3333333333333,3496.71875,1343.75C3496.71875,1362.1666666666667,3496.71875,1380.5833333333333,3496.71875,1395.5416666666667C3496.71875,1410.5,3496.71875,1422,3496.71875,1438.5416666666667C3496.71875,1455.0833333333333,3496.71875,1476.6666666666667,3496.71875,1496.6666666666667C3496.71875,1516.6666666666667,3496.71875,1535.0833333333333,3496.71875,1550.0416666666667C3496.71875,1565,3496.71875,1576.5,3496.71875,1593.0416666666667C3496.71875,1609.5833333333333,3496.71875,1631.1666666666667,3496.71875,1652.75C3496.71875,1674.3333333333333,3496.71875,1695.9166666666667,3496.71875,1717.5C3496.71875,1739.0833333333333,3496.71875,1760.6666666666667,3496.71875,1782.25C3496.71875,1803.8333333333333,3496.71875,1825.4166666666667,3385.9765625,1841.9583333333333C3275.234375,1858.5,3053.75,1870,2943.0078125,1884.9583333333333C2832.265625,1899.9166666666667,2832.265625,1918.3333333333333,2832.265625,1938.3333333333333C2832.265625,1958.3333333333333,2832.265625,1979.9166666666667,2761.837890625,1999.650099190392C2691.41015625,2019.3835317141172,2550.5546875,2037.2670634282342,2480.126953125,2046.208829285293L2409.69921875,2055.1505951423514" id="edge38" class="transition" marker-end="url(#statediagram-barbEnd)"></path><path d="M1418.8359375,1368.75L1418.8359375,1373.7916666666667C1418.8359375,1378.8333333333333,1418.8359375,1388.9166666666667,1418.8359375,1399.7083333333333C1418.8359375,1410.5,1418.8359375,1422,1466.10546875,1435.6696627112476C1513.375,1449.3393254224954,1607.9140625,1465.1786508449907,1655.18359375,1473.0983135562383L1702.453125,1481.0179762674861" class="transition note-edge"></path><path d="M987.45703125,1961.75L987.45703125,1968.375C987.45703125,1975,987.45703125,1988.25,1195.3567708333333,2004.959884094106C1403.2565104166667,2021.6697681882117,1819.0559895833333,2041.839536376424,2026.9557291666667,2051.9244204705296L2234.85546875,2062.009304564636" class="transition note-edge"></path><path d="M3449.7578125,775.75L3449.7578125,782.375C3449.7578125,789,3449.7578125,802.25,3462.8469021476835,814.625C3475.9359917953666,827,3502.1141710907336,838.5,3515.203260738417,844.25L3528.2923503861,850" class="transition note-edge"></path><path d="M2375.33984375,1214.25L2375.33984375,1220.875C2375.33984375,1227.5,2375.33984375,1240.75,2375.33984375,1253.125C2375.33984375,1265.5,2375.33984375,1277,2382.3059895833335,1286.9166666666667C2389.2721354166665,1296.8333333333333,2403.2044270833335,1305.1666666666667,2410.1705729166665,1309.3333333333333L2417.13671875,1313.5" class="transition note-edge"></path><path d="M3989.765625,2224.5L3989.765625,2228.6666666666665C3989.765625,2232.8333333333335,3989.765625,2241.1666666666665,3419.714141859389,2250.655774240395C2849.662658718779,2260.1448818141234,1709.559692437558,2270.7897636282473,1139.5082092969474,2276.112204535309L569.4567261563368,2281.4346454423708" id="edge39" class="transition" marker-end="url(#statediagram-barbEnd)"></path><path d="M479.98046875,2224.5L479.98046875,2228.6666666666665C479.98046875,2232.8333333333335,479.98046875,2241.1666666666665,492.63889341943246,2250.244663014682C505.297318088865,2259.322659362697,530.61416742773,2269.1453187253937,543.2725920971625,2274.056648406742L555.931016766595,2278.9679780880906" id="edge40" class="transition" marker-end="url(#statediagram-barbEnd)"></path><path d="M274.30859375,2224.5L274.30859375,2228.6666666666665C274.30859375,2232.8333333333335,274.30859375,2241.1666666666665,321.1737950269199,2250.53789544678C368.03899630383984,2259.9091242268937,461.76939885767973,2270.318248453788,508.6346001345996,2275.5228105672345L555.4998014115196,2280.7273726806816" id="edge41" class="transition" marker-end="url(#statediagram-barbEnd)"></path></g><g class="edgeLabels"><g class="edgeLabel"><g class="label" transform="translate(0, 0)"><rect rx="0" ry="0" width="0" height="0" style="fill:#e8e8e8;"></rect><text style=""></text></g></g><g class="edgeLabel"><g class="label" transform="translate(0, 0)"><rect rx="0" ry="0" width="0" height="0" style="fill:#e8e8e8;"></rect><text style=""></text></g></g><g class="edgeLabel" transform="translate(5093.0234375, 165.5)"><g class="label" transform="translate(-68.6875, -9.5)"><rect rx="0" ry="0" width="137.375" height="19" style="fill:#e8e8e8;"></rect><text style=""><tspan xml:space="preserve" dy="1em" x="0" class="row">ProviderEventOpen</tspan></text></g></g><g class="edgeLabel" transform="translate(4918, 1034.75)"><g class="label" transform="translate(-98.203125, -9.5)"><rect rx="0" ry="0" width="196.40625" height="19" style="fill:#e8e8e8;"></rect><text style=""><tspan xml:space="preserve" dy="1em" x="0" class="row">ProviderEventDealRejected</tspan></text></g></g><g class="edgeLabel" transform="translate(4799.796875, 1099.5)"><g class="label" transform="translate(-98.203125, -9.5)"><rect rx="0" ry="0" width="196.40625" height="19" style="fill:#e8e8e8;"></rect><text style=""><tspan xml:space="preserve" dy="1em" x="0" class="row">ProviderEventDealRejected</tspan></text></g></g><g class="edgeLabel" transform="translate(4189.55859375, 1343.75)"><g class="label" transform="translate(-98.203125, -9.5)"><rect rx="0" ry="0" width="196.40625" height="19" style="fill:#e8e8e8;"></rect><text style=""><tspan xml:space="preserve" dy="1em" x="0" class="row">ProviderEventDealRejected</tspan></text></g></g><g class="edgeLabel" transform="translate(3823.3984375, 2001.5)"><g class="label" transform="translate(-100.25, -9.5)"><rect rx="0" ry="0" width="200.5" height="19" style="fill:#e8e8e8;"></rect><text style=""><tspan xml:space="preserve" dy="1em" x="0" class="row">ProviderEventRejectionSent</tspan></text></g></g><g class="edgeLabel" transform="translate(3820.4140625, 325.5)"><g class="label" transform="translate(-96.5703125, -9.5)"><rect rx="0" ry="0" width="193.140625" height="19" style="fill:#e8e8e8;"></rect><text style=""><tspan xml:space="preserve" dy="1em" x="0" class="row">ProviderEventDealDeciding</tspan></text></g></g><g class="edgeLabel" transform="translate(4062.92578125, 455)"><g class="label" transform="translate(-104.03125, -9.5)"><rect rx="0" ry="0" width="208.0625" height="19" style="fill:#e8e8e8;"></rect><text style=""><tspan xml:space="preserve" dy="1em" x="0" class="row">ProviderEventDataRequested</tspan></text></g></g><g class="edgeLabel" transform="translate(4426.20703125, 1343.75)"><g class="label" transform="translate(-118.4453125, -9.5)"><rect rx="0" ry="0" width="236.890625" height="19" style="fill:#e8e8e8;"></rect><text style=""><tspan xml:space="preserve" dy="1em" x="0" class="row">ProviderEventDataTransferFailed</tspan></text></g></g><g class="edgeLabel" transform="translate(4243.71875, 558)"><g class="label" transform="translate(-127.109375, -9.5)"><rect rx="0" ry="0" width="254.21875" height="19" style="fill:#e8e8e8;"></rect><text style=""><tspan xml:space="preserve" dy="1em" x="0" class="row">ProviderEventDataTransferInitiated</tspan></text></g></g><g class="edgeLabel" transform="translate(4114.34765625, 661)"><g class="label" transform="translate(-135.4765625, -9.5)"><rect rx="0" ry="0" width="270.953125" height="19" style="fill:#e8e8e8;"></rect><text style=""><tspan xml:space="preserve" dy="1em" x="0" class="row">ProviderEventDataTransferCompleted</tspan></text></g></g><g class="edgeLabel" transform="translate(4039.13671875, 1433.5)"><g class="label" transform="translate(-130.421875, -9.5)"><rect rx="0" ry="0" width="260.84375" height="19" style="fill:#e8e8e8;"></rect><text style=""><tspan xml:space="preserve" dy="1em" x="0" class="row">ProviderEventDataVerificationFailed</tspan></text></g></g><g class="edgeLabel" transform="translate(3657.8828125, 661)"><g class="label" transform="translate(-95.1015625, -9.5)"><rect rx="0" ry="0" width="190.203125" height="19" style="fill:#e8e8e8;"></rect><text style=""><tspan xml:space="preserve" dy="1em" x="0" class="row">ProviderEventVerifiedData</tspan></text></g></g><g class="edgeLabel" transform="translate(3848.34375, 815.5)"><g class="label" transform="translate(-95.1015625, -9.5)"><rect rx="0" ry="0" width="190.203125" height="19" style="fill:#e8e8e8;"></rect><text style=""><tspan xml:space="preserve" dy="1em" x="0" class="row">ProviderEventVerifiedData</tspan></text></g></g><g class="edgeLabel" transform="translate(3838.34375, 970)"><g class="label" transform="translate(-108.6953125, -9.5)"><rect rx="0" ry="0" width="217.390625" height="19" style="fill:#e8e8e8;"></rect><text style=""><tspan xml:space="preserve" dy="1em" x="0" class="row">ProviderEventFundingInitiated</tspan></text></g></g><g class="edgeLabel" transform="translate(3612.3359375, 1034.75)"><g class="label" transform="translate(-76.3203125, -9.5)"><rect rx="0" ry="0" width="152.640625" height="19" style="fill:#e8e8e8;"></rect><text style=""><tspan xml:space="preserve" dy="1em" x="0" class="row">ProviderEventFunded</tspan></text></g></g><g class="edgeLabel" transform="translate(3838.34375, 1099.5)"><g class="label" transform="translate(-76.3203125, -9.5)"><rect rx="0" ry="0" width="152.640625" height="19" style="fill:#e8e8e8;"></rect><text style=""><tspan xml:space="preserve" dy="1em" x="0" class="row">ProviderEventFunded</tspan></text></g></g><g class="edgeLabel" transform="translate(2517.33984375, 1254)"><g class="label" transform="translate(-122, -9.5)"><rect rx="0" ry="0" width="244" height="19" style="fill:#e8e8e8;"></rect><text style=""><tspan xml:space="preserve" dy="1em" x="0" class="row">ProviderEventDealPublishInitiated</tspan></text></g></g><g class="edgeLabel" transform="translate(2552.2265625, 1717.5)"><g class="label" transform="translate(-109.3828125, -9.5)"><rect rx="0" ry="0" width="218.765625" height="19" style="fill:#e8e8e8;"></rect><text style=""><tspan xml:space="preserve" dy="1em" x="0" class="row">ProviderEventDealPublishError</tspan></text></g></g><g class="edgeLabel" transform="translate(3581.1640625, 2001.5)"><g class="label" transform="translate(-121.984375, -9.5)"><rect rx="0" ry="0" width="243.96875" height="19" style="fill:#e8e8e8;"></rect><text style=""><tspan xml:space="preserve" dy="1em" x="0" class="row">ProviderEventSendResponseFailed</tspan></text></g></g><g class="edgeLabel" transform="translate(3207.6015625, 1189.25)"><g class="label" transform="translate(-121.984375, -9.5)"><rect rx="0" ry="0" width="243.96875" height="19" style="fill:#e8e8e8;"></rect><text style=""><tspan xml:space="preserve" dy="1em" x="0" class="row">ProviderEventSendResponseFailed</tspan></text></g></g><g class="edgeLabel" transform="translate(2018.140625, 1433.5)"><g class="label" transform="translate(-100.296875, -9.5)"><rect rx="0" ry="0" width="200.59375" height="19" style="fill:#e8e8e8;"></rect><text style=""><tspan xml:space="preserve" dy="1em" x="0" class="row">ProviderEventDealPublished</tspan></text></g></g><g class="edgeLabel" transform="translate(2075.67578125, 1782.25)"><g class="label" transform="translate(-108.8203125, -9.5)"><rect rx="0" ry="0" width="217.640625" height="19" style="fill:#e8e8e8;"></rect><text style=""><tspan xml:space="preserve" dy="1em" x="0" class="row">ProviderEventFileStoreErrored</tspan></text></g></g><g class="edgeLabel" transform="translate(1448.57421875, 1847)"><g class="label" transform="translate(-108.8203125, -9.5)"><rect rx="0" ry="0" width="217.640625" height="19" style="fill:#e8e8e8;"></rect><text style=""><tspan xml:space="preserve" dy="1em" x="0" class="row">ProviderEventFileStoreErrored</tspan></text></g></g><g class="edgeLabel" transform="translate(858.63671875, 2001.5)"><g class="label" transform="translate(-108.8203125, -9.5)"><rect rx="0" ry="0" width="217.640625" height="19" style="fill:#e8e8e8;"></rect><text style=""><tspan xml:space="preserve" dy="1em" x="0" class="row">ProviderEventFileStoreErrored</tspan></text></g></g><g class="edgeLabel" transform="translate(1833.98828125, 1782.25)"><g class="label" transform="translate(-112.8671875, -9.5)"><rect rx="0" ry="0" width="225.734375" height="19" style="fill:#e8e8e8;"></rect><text style=""><tspan xml:space="preserve" dy="1em" x="0" class="row">ProviderEventMultistoreErrored</tspan></text></g></g><g class="edgeLabel" transform="translate(1584.84765625, 1782.25)"><g class="label" transform="translate(-116.2734375, -9.5)"><rect rx="0" ry="0" width="232.546875" height="19" style="fill:#e8e8e8;"></rect><text style=""><tspan xml:space="preserve" dy="1em" x="0" class="row">ProviderEventDealHandoffFailed</tspan></text></g></g><g class="edgeLabel" transform="translate(1250.7109375, 1588)"><g class="label" transform="translate(-104.3671875, -9.5)"><rect rx="0" ry="0" width="208.734375" height="19" style="fill:#e8e8e8;"></rect><text style=""><tspan xml:space="preserve" dy="1em" x="0" class="row">ProviderEventDealHandedOff</tspan></text></g></g><g class="edgeLabel" transform="translate(1195.58203125, 1847)"><g class="label" transform="translate(-124.171875, -9.5)"><rect rx="0" ry="0" width="248.34375" height="19" style="fill:#e8e8e8;"></rect><text style=""><tspan xml:space="preserve" dy="1em" x="0" class="row">ProviderEventDealActivationFailed</tspan></text></g></g><g class="edgeLabel" transform="translate(479.98046875, 1717.5)"><g class="label" transform="translate(-100.1796875, -9.5)"><rect rx="0" ry="0" width="200.359375" height="19" style="fill:#e8e8e8;"></rect><text style=""><tspan xml:space="preserve" dy="1em" x="0" class="row">ProviderEventDealActivated</tspan></text></g></g><g class="edgeLabel" transform="translate(479.98046875, 1847)"><g class="label" transform="translate(-108.578125, -9.5)"><rect rx="0" ry="0" width="217.15625" height="19" style="fill:#e8e8e8;"></rect><text style=""><tspan xml:space="preserve" dy="1em" x="0" class="row">ProviderEventCleanupFinished</tspan></text></g></g><g class="edgeLabel" transform="translate(584.1953125, 2066.25)"><g class="label" transform="translate(-92.7734375, -9.5)"><rect rx="0" ry="0" width="185.546875" height="19" style="fill:#e8e8e8;"></rect><text style=""><tspan xml:space="preserve" dy="1em" x="0" class="row">ProviderEventDealSlashed</tspan></text></g></g><g class="edgeLabel" transform="translate(378.5234375, 2066.25)"><g class="label" transform="translate(-92.8984375, -9.5)"><rect rx="0" ry="0" width="185.796875" height="19" style="fill:#e8e8e8;"></rect><text style=""><tspan xml:space="preserve" dy="1em" x="0" class="row">ProviderEventDealExpired</tspan></text></g></g><g class="edgeLabel" transform="translate(136.8125, 2066.25)"><g class="label" transform="translate(-128.8125, -9.5)"><rect rx="0" ry="0" width="257.625" height="19" style="fill:#e8e8e8;"></rect><text style=""><tspan xml:space="preserve" dy="1em" x="0" class="row">ProviderEventDealCompletionFailed</tspan></text></g></g><g class="edgeLabel" transform="translate(2322.27734375, 2156)"><g class="label" transform="translate(-71.96875, -9.5)"><rect rx="0" ry="0" width="143.9375" height="19" style="fill:#e8e8e8;"></rect><text style=""><tspan xml:space="preserve" dy="1em" x="0" class="row">ProviderEventFailed</tspan></text></g></g><g class="edgeLabel" transform="translate(4733.11328125, 2066.25)"><g class="label" transform="translate(-76.015625, -9.5)"><rect rx="0" ry="0" width="152.03125" height="19" style="fill:#e8e8e8;"></rect><text style=""><tspan xml:space="preserve" dy="1em" x="0" class="row">ProviderEventRestart</tspan></text></g></g><g class="edgeLabel" transform="translate(2938.58203125, 1189.25)"><g class="label" transform="translate(-76.015625, -9.5)"><rect rx="0" ry="0" width="152.03125" height="19" style="fill:#e8e8e8;"></rect><text style=""><tspan xml:space="preserve" dy="1em" x="0" class="row">ProviderEventRestart</tspan></text></g></g><g class="edgeLabel" transform="translate(3065.6171875, 1254)"><g class="label" transform="translate(-76.015625, -9.5)"><rect rx="0" ry="0" width="152.03125" height="19" style="fill:#e8e8e8;"></rect><text style=""><tspan xml:space="preserve" dy="1em" x="0" class="row">ProviderEventRestart</tspan></text></g></g><g class="edgeLabel" transform="translate(3496.71875, 1498.25)"><g class="label" transform="translate(-112.5546875, -9.5)"><rect rx="0" ry="0" width="225.109375" height="19" style="fill:#e8e8e8;"></rect><text style=""><tspan xml:space="preserve" dy="1em" x="0" class="row">ProviderEventTrackFundsFailed</tspan></text></g></g><g class="edgeLabel"><g class="label" transform="translate(0, 0)"><rect rx="0" ry="0" width="0" height="0" style="fill:#e8e8e8;"></rect><text style=""></text></g></g><g class="edgeLabel"><g class="label" transform="translate(0, 0)"><rect rx="0" ry="0" width="0" height="0" style="fill:#e8e8e8;"></rect><text style=""></text></g></g><g class="edgeLabel"><g class="label" transform="translate(0, 0)"><rect rx="0" ry="0" width="0" height="0" style="fill:#e8e8e8;"></rect><text style=""></text></g></g><g class="edgeLabel"><g class="label" transform="translate(0, 0)"><rect rx="0" ry="0" width="0" height="0" style="fill:#e8e8e8;"></rect><text style=""></text></g></g><g class="edgeLabel"><g class="label" transform="translate(0, 0)"><rect rx="0" ry="0" width="0" height="0" style="fill:#e8e8e8;"></rect><text style=""></text></g></g><g class="edgeLabel"><g class="label" transform="translate(0, 0)"><rect rx="0" ry="0" width="0" height="0" style="fill:#e8e8e8;"></rect><text style=""></text></g></g><g class="edgeLabel"><g class="label" transform="translate(0, 0)"><rect rx="0" ry="0" width="0" height="0" style="fill:#e8e8e8;"></rect><text style=""></text></g></g></g><g class="nodes"><g class="node statediagram-state" id="0" transform="translate(5248.046875, 114)"><rect class="outer title-state" x="-82.921875" y="-17" width="165.84375" height="34"></rect><line class="divider" x1="-82.921875" x2="82.921875" y1="9.5" y2="9.5"></line><g class="label" transform="translate(-75.421875, -14)"><text style=""><tspan xml:space="preserve" dy="1em" x="0" class="title-row">StorageDealUnknown</tspan></text><text style="" transform="translate( 0, 26.5)"><tspan xml:space="preserve" dy="1em" x="0" class="title-row"></tspan></text></g></g><g class="node statediagram-state" id="4" transform="translate(1805.3046875, 1498.25)"><rect class="outer title-state" x="-102.8515625" y="-30.25" width="205.703125" height="60.5"></rect><line class="divider" x1="-102.8515625" x2="102.8515625" y1="-3.75" y2="-3.75"></line><g class="label" transform="translate(-95.3515625, -27.25)"><text style=""><tspan xml:space="preserve" dy="1em" x="0" class="title-row">StorageDealStaged</tspan></text><text style="" transform="translate( 0, 26.5)"><tspan xml:space="preserve" dy="1em" x="0" class="title-row">On entry runs HandoffDeal</tspan></text></g></g><g class="node statediagram-state" id="5" transform="translate(1250.7109375, 1652.75)"><rect class="outer title-state" x="-129.9765625" y="-30.25" width="259.953125" height="60.5"></rect><line class="divider" x1="-129.9765625" x2="129.9765625" y1="-3.75" y2="-3.75"></line><g class="label" transform="translate(-122.4765625, -27.25)"><text style=""><tspan xml:space="preserve" dy="1em" x="0" class="title-row">StorageDealSealing</tspan></text><text style="" transform="translate( 0, 26.5)"><tspan xml:space="preserve" dy="1em" x="0" class="title-row">On entry runs VerifyDealActivated</tspan></text></g></g><g class="node statediagram-state" id="6" transform="translate(479.98046875, 1782.25)"><rect class="outer title-state" x="-103.2890625" y="-30.25" width="206.578125" height="60.5"></rect><line class="divider" x1="-103.2890625" x2="103.2890625" y1="-3.75" y2="-3.75"></line><g class="label" transform="translate(-95.7890625, -27.25)"><text style=""><tspan xml:space="preserve" dy="1em" x="0" class="title-row">StorageDealFinalizing</tspan></text><text style="" transform="translate( 0, 26.5)"><tspan xml:space="preserve" dy="1em" x="0" class="title-row">On entry runs CleanupDeal</tspan></text></g></g><g class="node statediagram-state" id="7" transform="translate(479.98046875, 1936.75)"><rect class="outer title-state" x="-143.46875" y="-30.25" width="286.9375" height="60.5"></rect><line class="divider" x1="-143.46875" x2="143.46875" y1="-3.75" y2="-3.75"></line><g class="label" transform="translate(-135.96875, -27.25)"><text style=""><tspan xml:space="preserve" dy="1em" x="0" class="title-row">StorageDealActive</tspan></text><text style="" transform="translate( 0, 26.5)"><tspan xml:space="preserve" dy="1em" x="0" class="title-row">On entry runs WaitForDealCompletion</tspan></text></g></g><g class="node statediagram-state" id="8" transform="translate(274.30859375, 2207.5)"><rect class="outer title-state" x="-77.296875" y="-17" width="154.59375" height="34"></rect><line class="divider" x1="-77.296875" x2="77.296875" y1="9.5" y2="9.5"></line><g class="label" transform="translate(-69.796875, -14)"><text style=""><tspan xml:space="preserve" dy="1em" x="0" class="title-row">StorageDealExpired</tspan></text><text style="" transform="translate( 0, 26.5)"><tspan xml:space="preserve" dy="1em" x="0" class="title-row"></tspan></text></g></g><g class="node statediagram-state" id="9" transform="translate(479.98046875, 2207.5)"><rect class="outer title-state" x="-77.1796875" y="-17" width="154.359375" height="34"></rect><line class="divider" x1="-77.1796875" x2="77.1796875" y1="9.5" y2="9.5"></line><g class="label" transform="translate(-69.6796875, -14)"><text style=""><tspan xml:space="preserve" dy="1em" x="0" class="title-row">StorageDealSlashed</tspan></text><text style="" transform="translate( 0, 26.5)"><tspan xml:space="preserve" dy="1em" x="0" class="title-row"></tspan></text></g></g><g class="node statediagram-state" id="10" transform="translate(4764.20703125, 1936.75)"><rect class="outer title-state" x="-97.828125" y="-30.25" width="195.65625" height="60.5"></rect><line class="divider" x1="-97.828125" x2="97.828125" y1="-3.75" y2="-3.75"></line><g class="label" transform="translate(-90.328125, -27.25)"><text style=""><tspan xml:space="preserve" dy="1em" x="0" class="title-row">StorageDealRejecting</tspan></text><text style="" transform="translate( 0, 26.5)"><tspan xml:space="preserve" dy="1em" x="0" class="title-row">On entry runs RejectDeal</tspan></text></g></g><g class="node statediagram-state" id="11" transform="translate(2322.27734375, 2066.25)"><rect class="outer title-state" x="-87.421875" y="-30.25" width="174.84375" height="60.5"></rect><line class="divider" x1="-87.421875" x2="87.421875" y1="-3.75" y2="-3.75"></line><g class="label" transform="translate(-79.921875, -27.25)"><text style=""><tspan xml:space="preserve" dy="1em" x="0" class="title-row">StorageDealFailing</tspan></text><text style="" transform="translate( 0, 26.5)"><tspan xml:space="preserve" dy="1em" x="0" class="title-row">On entry runs FailDeal</tspan></text></g></g><g class="node statediagram-state" id="14" transform="translate(3820.4140625, 233)"><rect class="outer title-state" x="-134.53125" y="-30.25" width="269.0625" height="60.5"></rect><line class="divider" x1="-134.53125" x2="134.53125" y1="-3.75" y2="-3.75"></line><g class="label" transform="translate(-127.03125, -27.25)"><text style=""><tspan xml:space="preserve" dy="1em" x="0" class="title-row">StorageDealValidating</tspan></text><text style="" transform="translate( 0, 26.5)"><tspan xml:space="preserve" dy="1em" x="0" class="title-row">On entry runs ValidateDealProposal</tspan></text></g></g><g class="node statediagram-state" id="15" transform="translate(3820.4140625, 390.25)"><rect class="outer title-state" x="-123.0546875" y="-30.25" width="246.109375" height="60.5"></rect><line class="divider" x1="-123.0546875" x2="123.0546875" y1="-3.75" y2="-3.75"></line><g class="label" transform="translate(-115.5546875, -27.25)"><text style=""><tspan xml:space="preserve" dy="1em" x="0" class="title-row">StorageDealAcceptWait</tspan></text><text style="" transform="translate( 0, 26.5)"><tspan xml:space="preserve" dy="1em" x="0" class="title-row">On entry runs DecideOnProposal</tspan></text></g></g><g class="node statediagram-state" id="17" transform="translate(4243.71875, 609.5)"><rect class="outer title-state" x="-94.109375" y="-17" width="188.21875" height="34"></rect><line class="divider" x1="-94.109375" x2="94.109375" y1="9.5" y2="9.5"></line><g class="label" transform="translate(-86.609375, -14)"><text style=""><tspan xml:space="preserve" dy="1em" x="0" class="title-row">StorageDealTransferring</tspan></text><text style="" transform="translate( 0, 26.5)"><tspan xml:space="preserve" dy="1em" x="0" class="title-row"></tspan></text></g></g><g class="node statediagram-state" id="19" transform="translate(4062.92578125, 506.5)"><rect class="outer title-state" x="-105.5625" y="-17" width="211.125" height="34"></rect><line class="divider" x1="-105.5625" x2="105.5625" y1="9.5" y2="9.5"></line><g class="label" transform="translate(-98.0625, -14)"><text style=""><tspan xml:space="preserve" dy="1em" x="0" class="title-row">StorageDealWaitingForData</tspan></text><text style="" transform="translate( 0, 26.5)"><tspan xml:space="preserve" dy="1em" x="0" class="title-row"></tspan></text></g></g><g class="node statediagram-state" id="20" transform="translate(4114.34765625, 750.75)"><rect class="outer title-state" x="-96.3828125" y="-30.25" width="192.765625" height="60.5"></rect><line class="divider" x1="-96.3828125" x2="96.3828125" y1="-3.75" y2="-3.75"></line><g class="label" transform="translate(-88.8828125, -27.25)"><text style=""><tspan xml:space="preserve" dy="1em" x="0" class="title-row">StorageDealVerifyData</tspan></text><text style="" transform="translate( 0, 26.5)"><tspan xml:space="preserve" dy="1em" x="0" class="title-row">On entry runs VerifyData</tspan></text></g></g><g class="node statediagram-state" id="21" transform="translate(3597.15234375, 880.25)"><rect class="outer title-state" x="-132.9140625" y="-30.25" width="265.828125" height="60.5"></rect><line class="divider" x1="-132.9140625" x2="132.9140625" y1="-3.75" y2="-3.75"></line><g class="label" transform="translate(-125.4140625, -27.25)"><text style=""><tspan xml:space="preserve" dy="1em" x="0" class="title-row">StorageDealEnsureProviderFunds</tspan></text><text style="" transform="translate( 0, 26.5)"><tspan xml:space="preserve" dy="1em" x="0" class="title-row">On entry runs EnsureProviderFunds</tspan></text></g></g><g class="node statediagram-state" id="23" transform="translate(3838.34375, 1034.75)"><rect class="outer title-state" x="-114.6875" y="-30.25" width="229.375" height="60.5"></rect><line class="divider" x1="-114.6875" x2="114.6875" y1="-3.75" y2="-3.75"></line><g class="label" transform="translate(-107.1875, -27.25)"><text style=""><tspan xml:space="preserve" dy="1em" x="0" class="title-row">StorageDealProviderFunding</tspan></text><text style="" transform="translate( 0, 26.5)"><tspan xml:space="preserve" dy="1em" x="0" class="title-row">On entry runs WaitForFunding</tspan></text></g></g><g class="node statediagram-state" id="25" transform="translate(3689.63671875, 1189.25)"><rect class="outer title-state" x="-99.9140625" y="-30.25" width="199.828125" height="60.5"></rect><line class="divider" x1="-99.9140625" x2="99.9140625" y1="-3.75" y2="-3.75"></line><g class="label" transform="translate(-92.4140625, -27.25)"><text style=""><tspan xml:space="preserve" dy="1em" x="0" class="title-row">StorageDealPublish</tspan></text><text style="" transform="translate( 0, 26.5)"><tspan xml:space="preserve" dy="1em" x="0" class="title-row">On entry runs PublishDeal</tspan></text></g></g><g class="node statediagram-state" id="26" transform="translate(2467.7109375, 1343.75)"><rect class="outer title-state" x="-112.15625" y="-30.25" width="224.3125" height="60.5"></rect><line class="divider" x1="-112.15625" x2="112.15625" y1="-3.75" y2="-3.75"></line><g class="label" transform="translate(-104.65625, -27.25)"><text style=""><tspan xml:space="preserve" dy="1em" x="0" class="title-row">StorageDealPublishing</tspan></text><text style="" transform="translate( 0, 26.5)"><tspan xml:space="preserve" dy="1em" x="0" class="title-row">On entry runs WaitForPublish</tspan></text></g></g><g class="node statediagram-state" id="27" transform="translate(3989.765625, 2207.5)"><rect class="outer title-state" x="-68.2421875" y="-17" width="136.484375" height="34"></rect><line class="divider" x1="-68.2421875" x2="68.2421875" y1="9.5" y2="9.5"></line><g class="label" transform="translate(-60.7421875, -14)"><text style=""><tspan xml:space="preserve" dy="1em" x="0" class="title-row">StorageDealError</tspan></text><text style="" transform="translate( 0, 26.5)"><tspan xml:space="preserve" dy="1em" x="0" class="title-row"></tspan></text></g></g><g class="node default" id="root_start" transform="translate(5248.046875, 15)"><circle class="state-start" r="7" width="14" height="14"></circle></g><g class="node statediagram-note" id="0----note" transform="translate(5248.046875, 233)"><rect x="-275.046875" y="-33" width="550.09375" height="66"></rect><g class="label" transform="translate(-267.546875, -25.5)"><text style=""><tspan xml:space="preserve" dy="1em" x="0" class="row">The following events are not shown cause they can trigger from any state.</tspan><tspan xml:space="preserve" dy="1em" x="0" class="row"></tspan><tspan xml:space="preserve" dy="1em" x="0" class="row">ProviderEventNodeErrored - transitions state to StorageDealFailing</tspan><tspan xml:space="preserve" dy="1em" x="0" class="row">ProviderEventRestart - does not transition state</tspan></text></g></g><g class="node statediagram-note" id="4----note" transform="translate(1418.8359375, 1343.75)"><rect x="-173.125" y="-25" width="346.25" height="50"></rect><g class="label" transform="translate(-165.625, -17.5)"><text style=""><tspan xml:space="preserve" dy="1em" x="0" class="row">The following events only record in this state.</tspan><tspan xml:space="preserve" dy="1em" x="0" class="row"></tspan><tspan xml:space="preserve" dy="1em" x="0" class="row">ProviderEventPieceStoreErrored</tspan></text></g></g><g class="node statediagram-note" id="11----note" transform="translate(987.45703125, 1936.75)"><rect x="-173.125" y="-25" width="346.25" height="50"></rect><g class="label" transform="translate(-165.625, -17.5)"><text style=""><tspan xml:space="preserve" dy="1em" x="0" class="row">The following events only record in this state.</tspan><tspan xml:space="preserve" dy="1em" x="0" class="row"></tspan><tspan xml:space="preserve" dy="1em" x="0" class="row">ProviderEventFundsReleased</tspan></text></g></g><g class="node statediagram-note" id="21----note" transform="translate(3449.7578125, 750.75)"><rect x="-173.125" y="-25" width="346.25" height="50"></rect><g class="label" transform="translate(-165.625, -17.5)"><text style=""><tspan xml:space="preserve" dy="1em" x="0" class="row">The following events only record in this state.</tspan><tspan xml:space="preserve" dy="1em" x="0" class="row"></tspan><tspan xml:space="preserve" dy="1em" x="0" class="row">ProviderEventFundsReserved</tspan></text></g></g><g class="node statediagram-note" id="26----note" transform="translate(2375.33984375, 1189.25)"><rect x="-173.125" y="-25" width="346.25" height="50"></rect><g class="label" transform="translate(-165.625, -17.5)"><text style=""><tspan xml:space="preserve" dy="1em" x="0" class="row">The following events only record in this state.</tspan><tspan xml:space="preserve" dy="1em" x="0" class="row"></tspan><tspan xml:space="preserve" dy="1em" x="0" class="row">ProviderEventFundsReleased</tspan></text></g></g><g class="node default" id="root_end" transform="translate(562.45703125, 2281.5)"><circle class="state-start" r="7" width="14" height="14"></circle><circle class="state-end" r="5" width="10" height="10"></circle></g></g></g></g></svg>