<svg id="mermaid-1592505676380" width="2582.7734375" xmlns="http://www.w3.org/2000/svg" class="statediagram" height="1346" viewBox="0 0 2582.7734375 1346"><style>#mermaid-1592505676380 .label{font-family:'trebuchet ms', verdana, arial;font-family:var(--mermaid-font-family);color:#333}#mermaid-1592505676380 .label text{fill:#333}#mermaid-1592505676380 .node rect,#mermaid-1592505676380 .node circle,#mermaid-1592505676380 .node ellipse,#mermaid-1592505676380 .node polygon,#mermaid-1592505676380 .node path{fill:#ECECFF;stroke:#9370db;stroke-width:1px}#mermaid-1592505676380 .node .label{text-align:center}#mermaid-1592505676380 .node.clickable{cursor:pointer}#mermaid-1592505676380 .arrowheadPath{fill:#333}#mermaid-1592505676380 .edgePath .path{stroke:#333;stroke-width:1.5px}#mermaid-1592505676380 .edgeLabel{background-color:#e8e8e8;text-align:center}#mermaid-1592505676380 .edgeLabel rect{opacity:0.5}#mermaid-1592505676380 .cluster rect{fill:#ffffde;stroke:#aa3;stroke-width:1px}#mermaid-1592505676380 .cluster text{fill:#333}#mermaid-1592505676380 div.mermaidTooltip{position:absolute;text-align:center;max-width:200px;padding:2px;font-family:'trebuchet ms', verdana, arial;font-family:var(--mermaid-font-family);font-size:12px;background:#ffffde;border:1px solid #aa3;border-radius:2px;pointer-events:none;z-index:100}#mermaid-1592505676380 .actor{stroke:#ccf;fill:#ECECFF}#mermaid-1592505676380 text.actor{fill:#000;stroke:none}#mermaid-1592505676380 .actor-line{stroke:grey}#mermaid-1592505676380 .messageLine0{stroke-width:1.5;stroke-dasharray:'2 2';stroke:#333}#mermaid-1592505676380 .messageLine1{stroke-width:1.5;stroke-dasharray:'2 2';stroke:#333}#mermaid-1592505676380 #arrowhead{fill:#333}#mermaid-1592505676380 .sequenceNumber{fill:#fff}#mermaid-1592505676380 #sequencenumber{fill:#333}#mermaid-1592505676380 #crosshead path{fill:#333 !important;stroke:#333 !important}#mermaid-1592505676380 .messageText{fill:#333;stroke:none}#mermaid-1592505676380 .labelBox{stroke:#ccf;fill:#ECECFF}#mermaid-1592505676380 .labelText{fill:#000;stroke:none}#mermaid-1592505676380 .loopText{fill:#000;stroke:none}#mermaid-1592505676380 .loopLine{stroke-width:2;stroke-dasharray:'2 2';stroke:#ccf}#mermaid-1592505676380 .note{stroke:#aa3;fill:#fff5ad}#mermaid-1592505676380 .noteText{fill:black;stroke:none;font-family:'trebuchet ms', verdana, arial;font-family:var(--mermaid-font-family);font-size:14px}#mermaid-1592505676380 .activation0{fill:#f4f4f4;stroke:#666}#mermaid-1592505676380 .activation1{fill:#f4f4f4;stroke:#666}#mermaid-1592505676380 .activation2{fill:#f4f4f4;stroke:#666}#mermaid-1592505676380 .mermaid-main-font{font-family:"trebuchet ms", verdana, arial;font-family:var(--mermaid-font-family)}#mermaid-1592505676380 .section{stroke:none;opacity:0.2}#mermaid-1592505676380 .section0{fill:rgba(102,102,255,0.49)}#mermaid-1592505676380 .section2{fill:#fff400}#mermaid-1592505676380 .section1,#mermaid-1592505676380 .section3{fill:#fff;opacity:0.2}#mermaid-1592505676380 .sectionTitle0{fill:#333}#mermaid-1592505676380 .sectionTitle1{fill:#333}#mermaid-1592505676380 .sectionTitle2{fill:#333}#mermaid-1592505676380 .sectionTitle3{fill:#333}#mermaid-1592505676380 .sectionTitle{text-anchor:start;font-size:11px;text-height:14px;font-family:'trebuchet ms', verdana, arial;font-family:var(--mermaid-font-family)}#mermaid-1592505676380 .grid .tick{stroke:#d3d3d3;opacity:0.8;shape-rendering:crispEdges}#mermaid-1592505676380 .grid .tick text{font-family:'trebuchet ms', verdana, arial;font-family:var(--mermaid-font-family)}#mermaid-1592505676380 .grid path{stroke-width:0}#mermaid-1592505676380 .today{fill:none;stroke:red;stroke-width:2px}#mermaid-1592505676380 .task{stroke-width:2}#mermaid-1592505676380 .taskText{text-anchor:middle;font-family:'trebuchet ms', verdana, arial;font-family:var(--mermaid-font-family)}#mermaid-1592505676380 .taskText:not([font-size]){font-size:11px}#mermaid-1592505676380 .taskTextOutsideRight{fill:#000;text-anchor:start;font-size:11px;font-family:'trebuchet ms', verdana, arial;font-family:var(--mermaid-font-family)}#mermaid-1592505676380 .taskTextOutsideLeft{fill:#000;text-anchor:end;font-size:11px}#mermaid-1592505676380 .task.clickable{cursor:pointer}#mermaid-1592505676380 .taskText.clickable{cursor:pointer;fill:#003163 !important;font-weight:bold}#mermaid-1592505676380 .taskTextOutsideLeft.clickable{cursor:pointer;fill:#003163 !important;font-weight:bold}#mermaid-1592505676380 .taskTextOutsideRight.clickable{cursor:pointer;fill:#003163 !important;font-weight:bold}#mermaid-1592505676380 .taskText0,#mermaid-1592505676380 .taskText1,#mermaid-1592505676380 .taskText2,#mermaid-1592505676380 .taskText3{fill:#fff}#mermaid-1592505676380 .task0,#mermaid-1592505676380 .task1,#mermaid-1592505676380 .task2,#mermaid-1592505676380 .task3{fill:#8a90dd;stroke:#534fbc}#mermaid-1592505676380 .taskTextOutside0,#mermaid-1592505676380 .taskTextOutside2{fill:#000}#mermaid-1592505676380 .taskTextOutside1,#mermaid-1592505676380 .taskTextOutside3{fill:#000}#mermaid-1592505676380 .active0,#mermaid-1592505676380 .active1,#mermaid-1592505676380 .active2,#mermaid-1592505676380 .active3{fill:#bfc7ff;stroke:#534fbc}#mermaid-1592505676380 .activeText0,#mermaid-1592505676380 .activeText1,#mermaid-1592505676380 .activeText2,#mermaid-1592505676380 .activeText3{fill:#000 !important}#mermaid-1592505676380 .done0,#mermaid-1592505676380 .done1,#mermaid-1592505676380 .done2,#mermaid-1592505676380 .done3{stroke:grey;fill:#d3d3d3;stroke-width:2}#mermaid-1592505676380 .doneText0,#mermaid-1592505676380 .doneText1,#mermaid-1592505676380 .doneText2,#mermaid-1592505676380 .doneText3{fill:#000 !important}#mermaid-1592505676380 .crit0,#mermaid-1592505676380 .crit1,#mermaid-1592505676380 .crit2,#mermaid-1592505676380 .crit3{stroke:#f88;fill:red;stroke-width:2}#mermaid-1592505676380 .activeCrit0,#mermaid-1592505676380 .activeCrit1,#mermaid-1592505676380 .activeCrit2,#mermaid-1592505676380 .activeCrit3{stroke:#f88;fill:#bfc7ff;stroke-width:2}#mermaid-1592505676380 .doneCrit0,#mermaid-1592505676380 .doneCrit1,#mermaid-1592505676380 .doneCrit2,#mermaid-1592505676380 .doneCrit3{stroke:#f88;fill:#d3d3d3;stroke-width:2;cursor:pointer;shape-rendering:crispEdges}#mermaid-1592505676380 .milestone{transform:rotate(45deg) scale(0.8, 0.8)}#mermaid-1592505676380 .milestoneText{font-style:italic}#mermaid-1592505676380 .doneCritText0,#mermaid-1592505676380 .doneCritText1,#mermaid-1592505676380 .doneCritText2,#mermaid-1592505676380 .doneCritText3{fill:#000 !important}#mermaid-1592505676380 .activeCritText0,#mermaid-1592505676380 .activeCritText1,#mermaid-1592505676380 .activeCritText2,#mermaid-1592505676380 .activeCritText3{fill:#000 !important}#mermaid-1592505676380 .titleText{text-anchor:middle;font-size:18px;fill:#000;font-family:'trebuchet ms', verdana, arial;font-family:var(--mermaid-font-family)}#mermaid-1592505676380 g.classGroup text{fill:#9370db;stroke:none;font-family:'trebuchet ms', verdana, arial;font-family:var(--mermaid-font-family);font-size:10px}#mermaid-1592505676380 g.classGroup text .title{font-weight:bolder}#mermaid-1592505676380 g.clickable{cursor:pointer}#mermaid-1592505676380 g.classGroup rect{fill:#ECECFF;stroke:#9370db}#mermaid-1592505676380 g.classGroup line{stroke:#9370db;stroke-width:1}#mermaid-1592505676380 .classLabel .box{stroke:none;stroke-width:0;fill:#ECECFF;opacity:0.5}#mermaid-1592505676380 .classLabel .label{fill:#9370db;font-size:10px}#mermaid-1592505676380 .relation{stroke:#9370db;stroke-width:1;fill:none}#mermaid-1592505676380 .dashed-line{stroke-dasharray:3}#mermaid-1592505676380 #compositionStart{fill:#9370db;stroke:#9370db;stroke-width:1}#mermaid-1592505676380 #compositionEnd{fill:#9370db;stroke:#9370db;stroke-width:1}#mermaid-1592505676380 #aggregationStart{fill:#ECECFF;stroke:#9370db;stroke-width:1}#mermaid-1592505676380 #aggregationEnd{fill:#ECECFF;stroke:#9370db;stroke-width:1}#mermaid-1592505676380 #dependencyStart{fill:#9370db;stroke:#9370db;stroke-width:1}#mermaid-1592505676380 #dependencyEnd{fill:#9370db;stroke:#9370db;stroke-width:1}#mermaid-1592505676380 #extensionStart{fill:#9370db;stroke:#9370db;stroke-width:1}#mermaid-1592505676380 #extensionEnd{fill:#9370db;stroke:#9370db;stroke-width:1}#mermaid-1592505676380 .commit-id,#mermaid-1592505676380 .commit-msg,#mermaid-1592505676380 .branch-label{fill:lightgrey;color:lightgrey;font-family:'trebuchet ms', verdana, arial;font-family:var(--mermaid-font-family)}#mermaid-1592505676380 .pieTitleText{text-anchor:middle;font-size:25px;fill:#000;font-family:'trebuchet ms', verdana, arial;font-family:var(--mermaid-font-family)}#mermaid-1592505676380 .slice{font-family:'trebuchet ms', verdana, arial;font-family:var(--mermaid-font-family)}#mermaid-1592505676380 g.stateGroup text{fill:#9370db;stroke:none;font-size:10px;font-family:'trebuchet ms', verdana, arial;font-family:var(--mermaid-font-family)}#mermaid-1592505676380 g.stateGroup text{fill:#9370db;stroke:none;font-size:10px}#mermaid-1592505676380 g.stateGroup .state-title{font-weight:bolder;fill:#000}#mermaid-1592505676380 g.stateGroup rect{fill:#ECECFF;stroke:#9370db}#mermaid-1592505676380 g.stateGroup line{stroke:#9370db;stroke-width:1}#mermaid-1592505676380 .transition{stroke:#9370db;stroke-width:1;fill:none}#mermaid-1592505676380 .stateGroup .composit{fill:white;border-bottom:1px}#mermaid-1592505676380 .stateGroup .alt-composit{fill:#e0e0e0;border-bottom:1px}#mermaid-1592505676380 .state-note{stroke:#aa3;fill:#fff5ad}#mermaid-1592505676380 .state-note text{fill:black;stroke:none;font-size:10px}#mermaid-1592505676380 .stateLabel .box{stroke:none;stroke-width:0;fill:#ECECFF;opacity:0.5}#mermaid-1592505676380 .stateLabel text{fill:#000;font-size:10px;font-weight:bold;font-family:'trebuchet ms', verdana, arial;font-family:var(--mermaid-font-family)}#mermaid-1592505676380 .node circle.state-start{fill:black;stroke:black}#mermaid-1592505676380 .node circle.state-end{fill:black;stroke:white;stroke-width:1.5}#mermaid-1592505676380 #statediagram-barbEnd{fill:#9370db}#mermaid-1592505676380 .statediagram-cluster rect{fill:#ECECFF;stroke:#9370db;stroke-width:1px}#mermaid-1592505676380 .statediagram-cluster rect.outer{rx:5px;ry:5px}#mermaid-1592505676380 .statediagram-state .divider{stroke:#9370db}#mermaid-1592505676380 .statediagram-state .title-state{rx:5px;ry:5px}#mermaid-1592505676380 .statediagram-cluster.statediagram-cluster .inner{fill:white}#mermaid-1592505676380 .statediagram-cluster.statediagram-cluster-alt .inner{fill:#e0e0e0}#mermaid-1592505676380 .statediagram-cluster .inner{rx:0;ry:0}#mermaid-1592505676380 .statediagram-state rect.basic{rx:5px;ry:5px}#mermaid-1592505676380 .statediagram-state rect.divider{stroke-dasharray:10,10;fill:#efefef}#mermaid-1592505676380 .note-edge{stroke-dasharray:5}#mermaid-1592505676380 .statediagram-note rect{fill:#fff5ad;stroke:#aa3;stroke-width:1px;rx:0;ry:0}:root{--mermaid-font-family: '"trebuchet ms", verdana, arial';--mermaid-font-family: "Comic Sans MS", "Comic Sans", cursive}

:root { --mermaid-font-family: "trebuchet ms", verdana, arial;}</style><style>#mermaid-1592505676380 {
    color: rgb(0, 0, 0);
    font: 16px "trebuchet ms", verdana, arial;
  }</style><g><defs><marker id="statediagram-barbEnd" refX="19" refY="7" markerWidth="20" markerHeight="14" markerUnits="0" orient="auto"><path d="M 19,7 L9,13 L14,7 L9,1 Z"></path></marker></defs><g class="root"><g class="clusters"><g class="note-cluster" id="0----parent"><rect x="8" y="72" width="620.09375" height="219" fill="none"></rect></g></g><g class="edgePaths"><path d="M358.05859375,22L358.05859375,26.166666666666668C358.05859375,30.333333333333332,358.05859375,38.666666666666664,358.05859375,47C358.05859375,55.333333333333336,358.05859375,63.666666666666664,358.05859375,72C358.05859375,80.33333333333333,358.05859375,88.66666666666667,358.05859375,92.83333333333333L358.05859375,97" id="edge0" class="transition" marker-end="url(#statediagram-barbEnd)"></path><path d="M344.85084192961165,131L340.3835141080097,136.75C335.91618628640776,142.5,326.9815306432039,154,322.51420282160194,165.5C318.046875,177,318.046875,188.5,318.046875,194.25L318.046875,200" class="transition note-edge"></path><path d="M396.0236271237864,131L408.8647413531553,136.75C421.70585558252424,142.5,447.3880840412621,154,715.8939118122977,170.1570496738585C984.3997395833334,186.31409934771702,1495.7291666666667,207.128198695434,1751.3938802083333,217.5352483692925L2007.05859375,227.94229804315103" id="edge1" class="transition" marker-end="url(#statediagram-barbEnd)"></path><path d="M2007.05859375,238.09801342437666L1792.1686197916667,246.91501118698056C1577.2786458333333,255.7320089495844,1147.4986979166667,273.3660044747922,932.6087239583334,287.9330022373961C717.71875,302.5,717.71875,314,717.71875,325.5C717.71875,337,717.71875,348.5,717.71875,354.25L717.71875,360" id="edge2" class="transition" marker-end="url(#statediagram-barbEnd)"></path><path d="M2243.0897595635774,263.25L2260.1802683863148,267.875C2277.2707772090516,272.5,2311.451794854526,281.75,2328.542303677263,292.125C2345.6328125,302.5,2345.6328125,314,2345.6328125,330.5416666666667C2345.6328125,347.0833333333333,2345.6328125,368.6666666666667,2345.6328125,390.25C2345.6328125,411.8333333333333,2345.6328125,433.4166666666667,2345.6328125,455C2345.6328125,476.5833333333333,2345.6328125,498.1666666666667,2345.6328125,519.75C2345.6328125,541.3333333333334,2345.6328125,562.9166666666666,2345.6328125,584.5C2345.6328125,606.0833333333334,2345.6328125,627.6666666666666,2345.6328125,649.25C2345.6328125,670.8333333333334,2345.6328125,692.4166666666666,2345.6328125,711.7916666666666C2345.6328125,731.1666666666666,2345.6328125,748.3333333333334,2345.6328125,765.5C2345.6328125,782.6666666666666,2345.6328125,799.8333333333334,2345.6328125,819.2083333333334C2345.6328125,838.5833333333334,2345.6328125,860.1666666666666,2345.6328125,881.75C2345.6328125,903.3333333333334,2345.6328125,924.9166666666666,2123.9140625,945.83455254312C1902.1953125,966.7524384195735,1458.7578125,987.0048768391471,1237.0390625,997.1310960489337L1015.3203125,1007.2573152587205" id="edge3" class="transition" marker-end="url(#statediagram-barbEnd)"></path><path d="M603.03125,403.8700547364198L531.2747395833334,412.3917122803498C459.5182291666667,420.91336982427987,316.0052083333333,437.9566849121399,244.24869791666666,457.2700091227366C172.4921875,476.5833333333333,172.4921875,498.1666666666667,172.4921875,519.75C172.4921875,541.3333333333334,172.4921875,562.9166666666666,172.4921875,584.5C172.4921875,606.0833333333334,172.4921875,627.6666666666666,172.4921875,649.25C172.4921875,670.8333333333334,172.4921875,692.4166666666666,172.4921875,711.7916666666666C172.4921875,731.1666666666666,172.4921875,748.3333333333334,172.4921875,765.5C172.4921875,782.6666666666666,172.4921875,799.8333333333334,172.4921875,819.2083333333334C172.4921875,838.5833333333334,172.4921875,860.1666666666666,172.4921875,881.75C172.4921875,903.3333333333334,172.4921875,924.9166666666666,283.8229166666667,945.2510988499565C395.1536458333333,965.5855310332464,617.8151041666666,984.6710620664929,729.1458333333334,994.2138275831161L840.4765625,1003.7565930997393" id="edge4" class="transition" marker-end="url(#statediagram-barbEnd)"></path><path d="M2255.55859375,255.2013309746441L2288.9498697916665,261.1677758122034C2322.3411458333335,267.1342206497627,2389.1236979166665,279.06711032488136,2422.5149739583335,290.7835551624407C2455.90625,302.5,2455.90625,314,2455.90625,330.5416666666667C2455.90625,347.0833333333333,2455.90625,368.6666666666667,2455.90625,390.25C2455.90625,411.8333333333333,2455.90625,433.4166666666667,2194.7734375,454.3367894035685C1933.640625,475.2569121404704,1411.375,495.5138242809408,1150.2421875,505.642280351176L889.109375,515.7707364214112" id="edge5" class="transition" marker-end="url(#statediagram-barbEnd)"></path><path d="M749.859375,420.5L755.96875,426.25C762.078125,432,774.296875,443.5,780.40625,455C786.515625,466.5,786.515625,478,786.515625,483.75L786.515625,489.5" id="edge6" class="transition" marker-end="url(#statediagram-barbEnd)"></path><path d="M683.921875,533.6329666517L621.271484375,542.1108055430833C558.62109375,550.5886444344667,433.3203125,567.5443222172333,370.669921875,586.8138277752834C308.01953125,606.0833333333334,308.01953125,627.6666666666666,308.01953125,649.25C308.01953125,670.8333333333334,308.01953125,692.4166666666666,308.01953125,711.7916666666666C308.01953125,731.1666666666666,308.01953125,748.3333333333334,308.01953125,765.5C308.01953125,782.6666666666666,308.01953125,799.8333333333334,308.01953125,819.2083333333334C308.01953125,838.5833333333334,308.01953125,860.1666666666666,308.01953125,881.75C308.01953125,903.3333333333334,308.01953125,924.9166666666666,308.01953125,946.5C308.01953125,968.0833333333334,308.01953125,989.6666666666666,308.01953125,1011.25C308.01953125,1032.8333333333333,308.01953125,1054.4166666666667,308.01953125,1076C308.01953125,1097.5833333333333,308.01953125,1119.1666666666667,308.01953125,1140.75C308.01953125,1162.3333333333333,308.01953125,1183.9166666666667,431.1380208333333,1202.5657937199471C554.2565104166666,1221.2149207732275,800.4934895833334,1236.929841546455,923.6119791666666,1244.7873019330689L1046.73046875,1252.6447623196825" id="edge7" class="transition" marker-end="url(#statediagram-barbEnd)"></path><path d="M889.109375,542.9327526037407L919.7682291666666,549.8606271697839C950.4270833333334,556.7885017358271,1011.7447916666666,570.6442508679136,1042.4036458333333,583.3221254339568C1073.0625,596,1073.0625,607.5,1073.0625,613.25L1073.0625,619" id="edge8" class="transition" marker-end="url(#statediagram-barbEnd)"></path><path d="M930.671875,663.8596809136208L849.224609375,672.2164007613507C767.77734375,680.5731206090805,604.8828125,697.2865603045402,523.435546875,714.2266134856035C441.98828125,731.1666666666666,441.98828125,748.3333333333334,441.98828125,765.5C441.98828125,782.6666666666666,441.98828125,799.8333333333334,441.98828125,819.2083333333334C441.98828125,838.5833333333334,441.98828125,860.1666666666666,441.98828125,881.75C441.98828125,903.3333333333334,441.98828125,924.9166666666666,441.98828125,946.5C441.98828125,968.0833333333334,441.98828125,989.6666666666666,441.98828125,1011.25C441.98828125,1032.8333333333333,441.98828125,1054.4166666666667,441.98828125,1076C441.98828125,1097.5833333333333,441.98828125,1119.1666666666667,441.98828125,1140.75C441.98828125,1162.3333333333333,441.98828125,1183.9166666666667,542.7786458333334,1202.4212966187613C643.5690104166666,1220.9259265708558,845.1497395833334,1236.3518531417117,945.9401041666666,1244.0648164271395L1046.73046875,1251.7777797125675" id="edge9" class="transition" marker-end="url(#statediagram-barbEnd)"></path><path d="M1788.08984375,896.1206681125938L1712.8860677083333,904.5172234271614C1637.6822916666667,912.9137787417291,1487.2747395833333,929.7068893708646,1412.0709635416667,948.895111352099C1336.8671875,968.0833333333334,1336.8671875,989.6666666666666,1336.8671875,1011.25C1336.8671875,1032.8333333333333,1336.8671875,1054.4166666666667,1336.8671875,1076C1336.8671875,1097.5833333333333,1336.8671875,1119.1666666666667,1336.8671875,1140.75C1336.8671875,1162.3333333333333,1336.8671875,1183.9166666666667,1311.2584635416667,1200.6519195786757C1285.6497395833333,1217.3871724906846,1234.4322916666667,1229.274344981369,1208.8235677083333,1235.2179312267112L1183.21484375,1241.1615174720534" id="edge10" class="transition" marker-end="url(#statediagram-barbEnd)"></path><path d="M930.671875,668.7497314959394L875.6009114583334,676.2914429132828C820.5299479166666,683.8331543306263,710.3880208333334,698.916577165313,655.3170572916666,715.0416219159898C600.24609375,731.1666666666666,600.24609375,748.3333333333334,600.24609375,765.5C600.24609375,782.6666666666666,600.24609375,799.8333333333334,600.24609375,819.2083333333334C600.24609375,838.5833333333334,600.24609375,860.1666666666666,600.24609375,881.75C600.24609375,903.3333333333334,600.24609375,924.9166666666666,640.2845052083334,943.6206440229379C680.3229166666666,962.324621379209,760.3997395833334,978.1492427584179,800.4381510416666,986.0615534480224L840.4765625,993.9738641376268" id="edge11" class="transition" marker-end="url(#statediagram-barbEnd)"></path><path d="M1788.08984375,901.514078407396L1739.2623697916667,909.0117320061632C1690.4348958333333,916.5093856049307,1592.7799479166667,931.5046928024653,1463.9850260416667,948.1307839514471C1335.1901041666667,964.7568751004292,1175.2552083333333,983.0137502008585,1095.2877604166667,992.142187751073L1015.3203125,1001.2706253012877" id="edge12" class="transition" marker-end="url(#statediagram-barbEnd)"></path><path d="M981.5770541747104,679.5L964.1872586872587,685.25C946.7974631998069,691,912.0178722249035,702.5,894.6280767374518,716.8333333333334C877.23828125,731.1666666666666,877.23828125,748.3333333333334,877.23828125,765.5C877.23828125,782.6666666666666,877.23828125,799.8333333333334,877.23828125,819.2083333333334C877.23828125,838.5833333333334,877.23828125,860.1666666666666,877.23828125,881.75C877.23828125,903.3333333333334,877.23828125,924.9166666666666,881.7370596042471,941.4583333333334C886.2358379584942,958,895.2333946669884,969.5,899.7321730212356,975.25L904.2309513754826,981" id="edge13" class="transition" marker-end="url(#statediagram-barbEnd)"></path><path d="M1097.682598334942,679.5L1102.3624517374517,685.25C1107.0423051399614,691,1116.4020119449806,702.5,1121.0818653474903,716.8333333333334C1125.76171875,731.1666666666666,1125.76171875,748.3333333333334,1125.76171875,765.5C1125.76171875,782.6666666666666,1125.76171875,799.8333333333334,1125.76171875,819.2083333333334C1125.76171875,838.5833333333334,1125.76171875,860.1666666666666,1125.76171875,881.75C1125.76171875,903.3333333333334,1125.76171875,924.9166666666666,1107.3548177083333,941.7319211102995C1088.9479166666667,958.5471755539323,1052.1341145833333,970.5943511078646,1033.7272135416667,976.6179388848308L1015.3203125,982.6415266617969" id="edge14" class="transition" marker-end="url(#statediagram-barbEnd)"></path><path d="M1307.5662924757282,782.5L1299.6190458131068,788.25C1291.6717991504854,794,1275.7773058252426,805.5,1267.8300591626214,822.0416666666666C1259.8828125,838.5833333333334,1259.8828125,860.1666666666666,1259.8828125,881.75C1259.8828125,903.3333333333334,1259.8828125,924.9166666666666,1219.1223958333333,943.6582164540877C1178.3619791666667,962.3997662415086,1096.8411458333333,978.2995324830172,1056.0807291666667,986.2494156037715L1015.3203125,994.1992987245258" id="edge15" class="transition" marker-end="url(#statediagram-barbEnd)"></path><path d="M1193.5953185328185,679.5L1216.5065154440153,685.25C1239.4177123552124,691,1285.240106177606,702.5,1308.151303088803,714C1331.0625,725.5,1331.0625,737,1331.0625,742.75L1331.0625,748.5" id="edge16" class="transition" marker-end="url(#statediagram-barbEnd)"></path><path d="M1215.453125,657.9573195925731L1368.197265625,667.2977663271442C1520.94140625,676.6382130617154,1826.4296875,695.3191065308578,1979.173828125,713.2428865987622C2131.91796875,731.1666666666666,2131.91796875,748.3333333333334,2131.91796875,765.5C2131.91796875,782.6666666666666,2131.91796875,799.8333333333334,2112.8148980453666,814.1666666666666C2093.7118273407336,828.5,2055.505685931467,840,2036.4026152268336,845.75L2017.2995445222007,851.5" id="edge17" class="transition" marker-end="url(#statediagram-barbEnd)"></path><path d="M1406.3530036407767,782.5L1431.8189092839805,788.25C1457.2848149271842,794,1508.2166262135922,805.5,1571.8394328984625,818.1579914772624C1635.4622395833333,830.8159829545248,1711.7760416666667,844.6319659090495,1749.9329427083333,851.5399573863119L1788.08984375,858.4479488635743" id="edge18" class="transition" marker-end="url(#statediagram-barbEnd)"></path><path d="M1857.204120415058,912L1845.8758295125483,917.75C1834.5475386100388,923.5,1811.8909568050194,935,1671.5769888191762,950.4463591411113C1531.2630208333333,965.8927182822226,1273.2916666666667,985.2854365644453,1144.3059895833333,994.9817957055566L1015.3203125,1004.678154846668" id="edge19" class="transition" marker-end="url(#statediagram-barbEnd)"></path><path d="M1971.8497224903474,912L1982.3135708252894,917.75C1992.7774191602318,923.5,2013.7051158301158,935,1854.2835474983913,950.689223880316C1694.8619791666667,966.3784477606322,1355.0911458333333,986.2568955212643,1185.2057291666667,996.1961194015803L1015.3203125,1006.1353432818963" id="edge20" class="transition" marker-end="url(#statediagram-barbEnd)"></path><path d="M2045.51171875,907.9489623626205L2077.0774739583335,914.3741353021837C2108.6432291666665,920.799308241747,2171.7747395833335,933.6496541208735,2203.3404947916665,945.8248270604367C2234.90625,958,2234.90625,969.5,2234.90625,975.25L2234.90625,981" id="edge21" class="transition" marker-end="url(#statediagram-barbEnd)"></path><path d="M2096.4296875,1034.7199798570566L2055.8365885416665,1041.5999832142138C2015.2434895833333,1048.479986571371,1934.0572916666667,1062.2399932856854,1893.4641927083333,1079.9116633095093C1852.87109375,1097.5833333333333,1852.87109375,1119.1666666666667,1852.87109375,1140.75C1852.87109375,1162.3333333333333,1852.87109375,1183.9166666666667,1741.26171875,1202.4978644129408C1629.65234375,1221.0790621592148,1406.43359375,1236.6581243184296,1294.82421875,1244.4476553980369L1183.21484375,1252.2371864776444" id="edge22" class="transition" marker-end="url(#statediagram-barbEnd)"></path><path d="M2297.895451254826,1041.5L2309.8686052123553,1047.25C2321.841759169884,1053,2345.788067084942,1064.5,2357.761221042471,1076C2369.734375,1087.5,2369.734375,1099,2369.734375,1104.75L2369.734375,1110.5" id="edge23" class="transition" marker-end="url(#statediagram-barbEnd)"></path><path d="M2239.7578125,1167.5285062642936L2209.0403645833335,1173.857088553578C2178.3229166666665,1180.1856708428625,2116.8880208333335,1192.8428354214311,1940.7975260416667,1207.1319359381841C1764.70703125,1221.421036454937,1473.9609375,1237.342072909874,1328.587890625,1245.3025911373425L1183.21484375,1253.263109364811" id="edge24" class="transition" marker-end="url(#statediagram-barbEnd)"></path><path d="M2422.7667712355214,1171L2432.8473093629345,1176.75C2442.9278474903476,1182.5,2463.088923745174,1194,2473.169461872587,1205.5C2483.25,1217,2483.25,1228.5,2483.25,1234.25L2483.25,1240" id="edge25" class="transition" marker-end="url(#statediagram-barbEnd)"></path><path d="M927.8984375,1041.5L927.8984375,1047.25C927.8984375,1053,927.8984375,1064.5,927.8984375,1081.0416666666667C927.8984375,1097.5833333333333,927.8984375,1119.1666666666667,927.8984375,1140.75C927.8984375,1162.3333333333333,927.8984375,1183.9166666666667,948.7853648361651,1200.4583333333333C969.67229217233,1217,1011.4461468446602,1228.5,1032.3330741808252,1234.25L1053.2200015169904,1240" id="edge26" class="transition" marker-end="url(#statediagram-barbEnd)"></path><path d="M2483.25,1274L2483.25,1278.1666666666667C2483.25,1282.3333333333333,2483.25,1290.6666666666667,2367.2155907672163,1300.1136308598998C2251.181181534432,1309.5605950531328,2019.112363068865,1320.1211901062659,1903.0779538360812,1325.4014876328322L1787.0435446032975,1330.6817851593987" id="edge27" class="transition" marker-end="url(#statediagram-barbEnd)"></path><path d="M1114.97265625,1274L1114.97265625,1278.1666666666667C1114.97265625,1282.3333333333333,1114.97265625,1290.6666666666667,1224.65369183778,1300.11059777322C1334.3347274255595,1309.5545288797732,1553.6967986011193,1320.1090577595464,1663.3778341888992,1325.3863221994332L1773.058869776679,1330.6635866393196" id="edge28" class="transition" marker-end="url(#statediagram-barbEnd)"></path></g><g class="edgeLabels"><g class="edgeLabel"><g class="label" transform="translate(0, 0)"><rect rx="0" ry="0" width="0" height="0" style="fill:#e8e8e8;"></rect><text style=""></text></g></g><g class="edgeLabel"><g class="label" transform="translate(0, 0)"><rect rx="0" ry="0" width="0" height="0" style="fill:#e8e8e8;"></rect><text style=""></text></g></g><g class="edgeLabel" transform="translate(473.0703125, 165.5)"><g class="label" transform="translate(-60.0234375, -9.5)"><rect rx="0" ry="0" width="119.984375" height="19.03125" style="fill:#e8e8e8;"></rect><text style=""><tspan xml:space="preserve" dy="1em" x="0" class="row">ClientEventOpen</tspan></text></g></g><g class="edgeLabel" transform="translate(717.71875, 325.5)"><g class="label" transform="translate(-100.0390625, -9.5)"><rect rx="0" ry="0" width="199.953125" height="19.03125" style="fill:#e8e8e8;"></rect><text style=""><tspan xml:space="preserve" dy="1em" x="0" class="row">ClientEventFundingInitiated</tspan></text></g></g><g class="edgeLabel" transform="translate(2345.6328125, 649.25)"><g class="label" transform="translate(-107.6796875, -9.5)"><rect rx="0" ry="0" width="215.234375" height="19.03125" style="fill:#e8e8e8;"></rect><text style=""><tspan xml:space="preserve" dy="1em" x="0" class="row">ClientEventEnsureFundsFailed</tspan></text></g></g><g class="edgeLabel" transform="translate(172.4921875, 714)"><g class="label" transform="translate(-107.6796875, -9.5)"><rect rx="0" ry="0" width="215.234375" height="19.03125" style="fill:#e8e8e8;"></rect><text style=""><tspan xml:space="preserve" dy="1em" x="0" class="row">ClientEventEnsureFundsFailed</tspan></text></g></g><g class="edgeLabel" transform="translate(2455.90625, 390.25)"><g class="label" transform="translate(-90.2734375, -9.5)"><rect rx="0" ry="0" width="180.4375" height="19.03125" style="fill:#e8e8e8;"></rect><text style=""><tspan xml:space="preserve" dy="1em" x="0" class="row">ClientEventFundsEnsured</tspan></text></g></g><g class="edgeLabel" transform="translate(786.515625, 455)"><g class="label" transform="translate(-90.2734375, -9.5)"><rect rx="0" ry="0" width="180.4375" height="19.03125" style="fill:#e8e8e8;"></rect><text style=""><tspan xml:space="preserve" dy="1em" x="0" class="row">ClientEventFundsEnsured</tspan></text></g></g><g class="edgeLabel" transform="translate(308.01953125, 881.75)"><g class="label" transform="translate(-113.4609375, -9.5)"><rect rx="0" ry="0" width="226.78125" height="19.03125" style="fill:#e8e8e8;"></rect><text style=""><tspan xml:space="preserve" dy="1em" x="0" class="row">ClientEventWriteProposalFailed</tspan></text></g></g><g class="edgeLabel" transform="translate(1073.0625, 584.5)"><g class="label" transform="translate(-89.9453125, -9.5)"><rect rx="0" ry="0" width="179.78125" height="19.03125" style="fill:#e8e8e8;"></rect><text style=""><tspan xml:space="preserve" dy="1em" x="0" class="row">ClientEventDealProposed</tspan></text></g></g><g class="edgeLabel" transform="translate(441.98828125, 946.5)"><g class="label" transform="translate(-113.96875, -9.5)"><rect rx="0" ry="0" width="227.796875" height="19.03125" style="fill:#e8e8e8;"></rect><text style=""><tspan xml:space="preserve" dy="1em" x="0" class="row">ClientEventReadResponseFailed</tspan></text></g></g><g class="edgeLabel" transform="translate(1336.8671875, 1076)"><g class="label" transform="translate(-113.96875, -9.5)"><rect rx="0" ry="0" width="227.796875" height="19.03125" style="fill:#e8e8e8;"></rect><text style=""><tspan xml:space="preserve" dy="1em" x="0" class="row">ClientEventReadResponseFailed</tspan></text></g></g><g class="edgeLabel" transform="translate(600.24609375, 817)"><g class="label" transform="translate(-138.2578125, -9.5)"><rect rx="0" ry="0" width="276.34375" height="19.03125" style="fill:#e8e8e8;"></rect><text style=""><tspan xml:space="preserve" dy="1em" x="0" class="row">ClientEventResponseVerificationFailed</tspan></text></g></g><g class="edgeLabel" transform="translate(1495.125, 946.5)"><g class="label" transform="translate(-138.2578125, -9.5)"><rect rx="0" ry="0" width="276.34375" height="19.03125" style="fill:#e8e8e8;"></rect><text style=""><tspan xml:space="preserve" dy="1em" x="0" class="row">ClientEventResponseVerificationFailed</tspan></text></g></g><g class="edgeLabel" transform="translate(877.23828125, 817)"><g class="label" transform="translate(-118.734375, -9.5)"><rect rx="0" ry="0" width="237.328125" height="19.03125" style="fill:#e8e8e8;"></rect><text style=""><tspan xml:space="preserve" dy="1em" x="0" class="row">ClientEventUnexpectedDealState</tspan></text></g></g><g class="edgeLabel" transform="translate(1125.76171875, 817)"><g class="label" transform="translate(-109.7890625, -9.5)"><rect rx="0" ry="0" width="219.4375" height="19.03125" style="fill:#e8e8e8;"></rect><text style=""><tspan xml:space="preserve" dy="1em" x="0" class="row">ClientEventDataTransferFailed</tspan></text></g></g><g class="edgeLabel" transform="translate(1259.8828125, 881.75)"><g class="label" transform="translate(-109.7890625, -9.5)"><rect rx="0" ry="0" width="219.4375" height="19.03125" style="fill:#e8e8e8;"></rect><text style=""><tspan xml:space="preserve" dy="1em" x="0" class="row">ClientEventDataTransferFailed</tspan></text></g></g><g class="edgeLabel" transform="translate(1331.0625, 714)"><g class="label" transform="translate(-118.453125, -9.5)"><rect rx="0" ry="0" width="236.765625" height="19.03125" style="fill:#e8e8e8;"></rect><text style=""><tspan xml:space="preserve" dy="1em" x="0" class="row">ClientEventDataTransferInitiated</tspan></text></g></g><g class="edgeLabel" transform="translate(2131.91796875, 765.5)"><g class="label" transform="translate(-122.359375, -9.5)"><rect rx="0" ry="0" width="244.5625" height="19.03125" style="fill:#e8e8e8;"></rect><text style=""><tspan xml:space="preserve" dy="1em" x="0" class="row">ClientEventDataTransferComplete</tspan></text></g></g><g class="edgeLabel" transform="translate(1559.1484375, 817)"><g class="label" transform="translate(-122.359375, -9.5)"><rect rx="0" ry="0" width="244.5625" height="19.03125" style="fill:#e8e8e8;"></rect><text style=""><tspan xml:space="preserve" dy="1em" x="0" class="row">ClientEventDataTransferComplete</tspan></text></g></g><g class="edgeLabel" transform="translate(1789.234375, 946.5)"><g class="label" transform="translate(-135.8515625, -9.5)"><rect rx="0" ry="0" width="271.546875" height="19.03125" style="fill:#e8e8e8;"></rect><text style=""><tspan xml:space="preserve" dy="1em" x="0" class="row">ClientEventResponseDealDidNotMatch</tspan></text></g></g><g class="edgeLabel" transform="translate(2034.6328125, 946.5)"><g class="label" transform="translate(-89.546875, -9.5)"><rect rx="0" ry="0" width="178.984375" height="19.03125" style="fill:#e8e8e8;"></rect><text style=""><tspan xml:space="preserve" dy="1em" x="0" class="row">ClientEventDealRejected</tspan></text></g></g><g class="edgeLabel" transform="translate(2234.90625, 946.5)"><g class="label" transform="translate(-90.7265625, -9.5)"><rect rx="0" ry="0" width="181.34375" height="19.03125" style="fill:#e8e8e8;"></rect><text style=""><tspan xml:space="preserve" dy="1em" x="0" class="row">ClientEventDealAccepted</tspan></text></g></g><g class="edgeLabel" transform="translate(1852.87109375, 1140.75)"><g class="label" transform="translate(-104.6796875, -9.5)"><rect rx="0" ry="0" width="209.234375" height="19.03125" style="fill:#e8e8e8;"></rect><text style=""><tspan xml:space="preserve" dy="1em" x="0" class="row">ClientEventDealPublishFailed</tspan></text></g></g><g class="edgeLabel" transform="translate(2369.734375, 1076)"><g class="label" transform="translate(-91.6328125, -9.5)"><rect rx="0" ry="0" width="183.15625" height="19.03125" style="fill:#e8e8e8;"></rect><text style=""><tspan xml:space="preserve" dy="1em" x="0" class="row">ClientEventDealPublished</tspan></text></g></g><g class="edgeLabel" transform="translate(2055.453125, 1205.5)"><g class="label" transform="translate(-115.5078125, -9.5)"><rect rx="0" ry="0" width="230.875" height="19.03125" style="fill:#e8e8e8;"></rect><text style=""><tspan xml:space="preserve" dy="1em" x="0" class="row">ClientEventDealActivationFailed</tspan></text></g></g><g class="edgeLabel" transform="translate(2483.25, 1205.5)"><g class="label" transform="translate(-91.5234375, -9.5)"><rect rx="0" ry="0" width="182.9375" height="19.03125" style="fill:#e8e8e8;"></rect><text style=""><tspan xml:space="preserve" dy="1em" x="0" class="row">ClientEventDealActivated</tspan></text></g></g><g class="edgeLabel" transform="translate(927.8984375, 1140.75)"><g class="label" transform="translate(-63.3046875, -9.5)"><rect rx="0" ry="0" width="126.53125" height="19.03125" style="fill:#e8e8e8;"></rect><text style=""><tspan xml:space="preserve" dy="1em" x="0" class="row">ClientEventFailed</tspan></text></g></g><g class="edgeLabel"><g class="label" transform="translate(0, 0)"><rect rx="0" ry="0" width="0" height="0" style="fill:#e8e8e8;"></rect><text style=""></text></g></g><g class="edgeLabel"><g class="label" transform="translate(0, 0)"><rect rx="0" ry="0" width="0" height="0" style="fill:#e8e8e8;"></rect><text style=""></text></g></g></g><g class="nodes"><g class="node statediagram-state" id="0" transform="translate(358.05859375, 114)"><rect class="outer title-state" x="-82.921875" y="-17" width="165.84375" height="34"></rect><line class="divider" x1="-82.921875" x2="82.921875" y1="9.5" y2="9.5"></line><g class="label" transform="translate(-75.421875, -14)"><text style=""><tspan xml:space="preserve" dy="1em" x="0" class="title-row">StorageDealUnknown</tspan></text><text style="" transform="translate( 0, 26.5)"><tspan xml:space="preserve" dy="1em" x="0" class="title-row"></tspan></text></g></g><g class="node statediagram-state" id="3" transform="translate(2234.90625, 1011.25)"><rect class="outer title-state" x="-138.4765625" y="-30.25" width="276.953125" height="60.5"></rect><line class="divider" x1="-138.4765625" x2="138.4765625" y1="-3.75" y2="-3.75"></line><g class="label" transform="translate(-130.9765625, -27.25)"><text style=""><tspan xml:space="preserve" dy="1em" x="0" class="title-row">StorageDealProposalAccepted</tspan></text><text style="" transform="translate( 0, 26.5)"><tspan xml:space="preserve" dy="1em" x="0" class="title-row">On entry runs ValidateDealPublished</tspan></text></g></g><g class="node statediagram-state" id="5" transform="translate(2369.734375, 1140.75)"><rect class="outer title-state" x="-129.9765625" y="-30.25" width="259.953125" height="60.5"></rect><line class="divider" x1="-129.9765625" x2="129.9765625" y1="-3.75" y2="-3.75"></line><g class="label" transform="translate(-122.4765625, -27.25)"><text style=""><tspan xml:space="preserve" dy="1em" x="0" class="title-row">StorageDealSealing</tspan></text><text style="" transform="translate( 0, 26.5)"><tspan xml:space="preserve" dy="1em" x="0" class="title-row">On entry runs VerifyDealActivated</tspan></text></g></g><g class="node statediagram-state" id="6" transform="translate(2483.25, 1257)"><rect class="outer title-state" x="-72.75" y="-17" width="145.5" height="34"></rect><line class="divider" x1="-72.75" x2="72.75" y1="9.5" y2="9.5"></line><g class="label" transform="translate(-65.25, -14)"><text style=""><tspan xml:space="preserve" dy="1em" x="0" class="title-row">StorageDealActive</tspan></text><text style="" transform="translate( 0, 26.5)"><tspan xml:space="preserve" dy="1em" x="0" class="title-row"></tspan></text></g></g><g class="node statediagram-state" id="7" transform="translate(927.8984375, 1011.25)"><rect class="outer title-state" x="-87.421875" y="-30.25" width="174.84375" height="60.5"></rect><line class="divider" x1="-87.421875" x2="87.421875" y1="-3.75" y2="-3.75"></line><g class="label" transform="translate(-79.921875, -27.25)"><text style=""><tspan xml:space="preserve" dy="1em" x="0" class="title-row">StorageDealFailing</tspan></text><text style="" transform="translate( 0, 26.5)"><tspan xml:space="preserve" dy="1em" x="0" class="title-row">On entry runs FailDeal</tspan></text></g></g><g class="node statediagram-state" id="9" transform="translate(786.515625, 519.75)"><rect class="outer title-state" x="-102.59375" y="-30.25" width="205.1875" height="60.5"></rect><line class="divider" x1="-102.59375" x2="102.59375" y1="-3.75" y2="-3.75"></line><g class="label" transform="translate(-95.09375, -27.25)"><text style=""><tspan xml:space="preserve" dy="1em" x="0" class="title-row">StorageDealFundsEnsured</tspan></text><text style="" transform="translate( 0, 26.5)"><tspan xml:space="preserve" dy="1em" x="0" class="title-row">On entry runs ProposeDeal</tspan></text></g></g><g class="node statediagram-state" id="10" transform="translate(1073.0625, 649.25)"><rect class="outer title-state" x="-142.390625" y="-30.25" width="284.78125" height="60.5"></rect><line class="divider" x1="-142.390625" x2="142.390625" y1="-3.75" y2="-3.75"></line><g class="label" transform="translate(-134.890625, -27.25)"><text style=""><tspan xml:space="preserve" dy="1em" x="0" class="title-row">StorageDealWaitingForDataRequest</tspan></text><text style="" transform="translate( 0, 26.5)"><tspan xml:space="preserve" dy="1em" x="0" class="title-row">On entry runs WaitingForDataRequest</tspan></text></g></g><g class="node statediagram-state" id="11" transform="translate(1916.80078125, 881.75)"><rect class="outer title-state" x="-128.7109375" y="-30.25" width="257.421875" height="60.5"></rect><line class="divider" x1="-128.7109375" x2="128.7109375" y1="-3.75" y2="-3.75"></line><g class="label" transform="translate(-121.2109375, -27.25)"><text style=""><tspan xml:space="preserve" dy="1em" x="0" class="title-row">StorageDealValidating</tspan></text><text style="" transform="translate( 0, 26.5)"><tspan xml:space="preserve" dy="1em" x="0" class="title-row">On entry runs VerifyDealResponse</tspan></text></g></g><g class="node statediagram-state" id="13" transform="translate(1331.0625, 765.5)"><rect class="outer title-state" x="-94.109375" y="-17" width="188.21875" height="34"></rect><line class="divider" x1="-94.109375" x2="94.109375" y1="9.5" y2="9.5"></line><g class="label" transform="translate(-86.609375, -14)"><text style=""><tspan xml:space="preserve" dy="1em" x="0" class="title-row">StorageDealTransferring</tspan></text><text style="" transform="translate( 0, 26.5)"><tspan xml:space="preserve" dy="1em" x="0" class="title-row"></tspan></text></g></g><g class="node statediagram-state" id="17" transform="translate(2131.30859375, 233)"><rect class="outer title-state" x="-124.25" y="-30.25" width="248.5" height="60.5"></rect><line class="divider" x1="-124.25" x2="124.25" y1="-3.75" y2="-3.75"></line><g class="label" transform="translate(-116.75, -27.25)"><text style=""><tspan xml:space="preserve" dy="1em" x="0" class="title-row">StorageDealEnsureClientFunds</tspan></text><text style="" transform="translate( 0, 26.5)"><tspan xml:space="preserve" dy="1em" x="0" class="title-row">On entry runs EnsureClientFunds</tspan></text></g></g><g class="node statediagram-state" id="19" transform="translate(717.71875, 390.25)"><rect class="outer title-state" x="-114.6875" y="-30.25" width="229.375" height="60.5"></rect><line class="divider" x1="-114.6875" x2="114.6875" y1="-3.75" y2="-3.75"></line><g class="label" transform="translate(-107.1875, -27.25)"><text style=""><tspan xml:space="preserve" dy="1em" x="0" class="title-row">StorageDealClientFunding</tspan></text><text style="" transform="translate( 0, 26.5)"><tspan xml:space="preserve" dy="1em" x="0" class="title-row">On entry runs WaitForFunding</tspan></text></g></g><g class="node statediagram-state" id="22" transform="translate(1114.97265625, 1257)"><rect class="outer title-state" x="-68.2421875" y="-17" width="136.484375" height="34"></rect><line class="divider" x1="-68.2421875" x2="68.2421875" y1="9.5" y2="9.5"></line><g class="label" transform="translate(-60.7421875, -14)"><text style=""><tspan xml:space="preserve" dy="1em" x="0" class="title-row">StorageDealError</tspan></text><text style="" transform="translate( 0, 26.5)"><tspan xml:space="preserve" dy="1em" x="0" class="title-row"></tspan></text></g></g><g class="node default" id="root_start" transform="translate(358.05859375, 15)"><circle class="state-start" r="7" width="14" height="14"></circle></g><g class="node statediagram-note" id="0----note" transform="translate(318.046875, 233)"><rect x="-275.046875" y="-33" width="550.09375" height="66"></rect><g class="label" transform="translate(-267.546875, -25.5)"><text style=""><tspan xml:space="preserve" dy="1em" x="0" class="row">The following events are not shown cause they can trigger from any state.</tspan><tspan xml:space="preserve" dy="1em" x="0" class="row"></tspan><tspan xml:space="preserve" dy="1em" x="0" class="row">ClientEventStreamCloseError - transitions state to StorageDealError</tspan><tspan xml:space="preserve" dy="1em" x="0" class="row">ClientEventRestart - does not transition state</tspan></text></g></g><g class="node default" id="root_end" transform="translate(1780.05078125, 1331)"><circle class="state-start" r="7" width="14" height="14"></circle><circle class="state-end" r="5" width="10" height="10"></circle></g></g></g></g></svg>