<svg id="mermaid-1600592058701" width="4784.62109375" xmlns="http://www.w3.org/2000/svg" class="statediagram" height="2362.5" viewBox="0 0 4784.62109375 2362.5"><style>#mermaid-1600592058701 .label{font-family:'trebuchet ms', verdana, arial;font-family:var(--mermaid-font-family);color:#333}#mermaid-1600592058701 .label text{fill:#333}#mermaid-1600592058701 .node rect,#mermaid-1600592058701 .node circle,#mermaid-1600592058701 .node ellipse,#mermaid-1600592058701 .node polygon,#mermaid-1600592058701 .node path{fill:#ECECFF;stroke:#9370db;stroke-width:1px}#mermaid-1600592058701 .node .label{text-align:center}#mermaid-1600592058701 .node.clickable{cursor:pointer}#mermaid-1600592058701 .arrowheadPath{fill:#333}#mermaid-1600592058701 .edgePath .path{stroke:#333;stroke-width:1.5px}#mermaid-1600592058701 .edgeLabel{background-color:#e8e8e8;text-align:center}#mermaid-1600592058701 .edgeLabel rect{opacity:0.5}#mermaid-1600592058701 .cluster rect{fill:#ffffde;stroke:#aa3;stroke-width:1px}#mermaid-1600592058701 .cluster text{fill:#333}#mermaid-1600592058701 div.mermaidTooltip{position:absolute;text-align:center;max-width:200px;padding:2px;font-family:'trebuchet ms', verdana, arial;font-family:var(--mermaid-font-family);font-size:12px;background:#ffffde;border:1px solid #aa3;border-radius:2px;pointer-events:none;z-index:100}#mermaid-1600592058701 .actor{stroke:#ccf;fill:#ECECFF}#mermaid-1600592058701 text.actor{fill:#000;stroke:none}#mermaid-1600592058701 .actor-line{stroke:grey}#mermaid-1600592058701 .messageLine0{stroke-width:1.5;stroke-dasharray:'2 2';stroke:#333}#mermaid-1600592058701 .messageLine1{stroke-width:1.5;stroke-dasharray:'2 2';stroke:#333}#mermaid-1600592058701 #arrowhead{fill:#333}#mermaid-1600592058701 .sequenceNumber{fill:#fff}#mermaid-1600592058701 #sequencenumber{fill:#333}#mermaid-1600592058701 #crosshead path{fill:#333 !important;stroke:#333 !important}#mermaid-1600592058701 .messageText{fill:#333;stroke:none}#mermaid-1600592058701 .labelBox{stroke:#ccf;fill:#ECECFF}#mermaid-1600592058701 .labelText{fill:#000;stroke:none}#mermaid-1600592058701 .loopText{fill:#000;stroke:none}#mermaid-1600592058701 .loopLine{stroke-width:2;stroke-dasharray:'2 2';stroke:#ccf}#mermaid-1600592058701 .note{stroke:#aa3;fill:#fff5ad}#mermaid-1600592058701 .noteText{fill:black;stroke:none;font-family:'trebuchet ms', verdana, arial;font-family:var(--mermaid-font-family);font-size:14px}#mermaid-1600592058701 .activation0{fill:#f4f4f4;stroke:#666}#mermaid-1600592058701 .activation1{fill:#f4f4f4;stroke:#666}#mermaid-1600592058701 .activation2{fill:#f4f4f4;stroke:#666}#mermaid-1600592058701 .mermaid-main-font{font-family:"trebuchet ms", verdana, arial;font-family:var(--mermaid-font-family)}#mermaid-1600592058701 .section{stroke:none;opacity:0.2}#mermaid-1600592058701 .section0{fill:rgba(102,102,255,0.49)}#mermaid-1600592058701 .section2{fill:#fff400}#mermaid-1600592058701 .section1,#mermaid-1600592058701 .section3{fill:#fff;opacity:0.2}#mermaid-1600592058701 .sectionTitle0{fill:#333}#mermaid-1600592058701 .sectionTitle1{fill:#333}#mermaid-1600592058701 .sectionTitle2{fill:#333}#mermaid-1600592058701 .sectionTitle3{fill:#333}#mermaid-1600592058701 .sectionTitle{text-anchor:start;font-size:11px;text-height:14px;font-family:'trebuchet ms', verdana, arial;font-family:var(--mermaid-font-family)}#mermaid-1600592058701 .grid .tick{stroke:#d3d3d3;opacity:0.8;shape-rendering:crispEdges}#mermaid-1600592058701 .grid .tick text{font-family:'trebuchet ms', verdana, arial;font-family:var(--mermaid-font-family)}#mermaid-1600592058701 .grid path{stroke-width:0}#mermaid-1600592058701 .today{fill:none;stroke:red;stroke-width:2px}#mermaid-1600592058701 .task{stroke-width:2}#mermaid-1600592058701 .taskText{text-anchor:middle;font-family:'trebuchet ms', verdana, arial;font-family:var(--mermaid-font-family)}#mermaid-1600592058701 .taskText:not([font-size]){font-size:11px}#mermaid-1600592058701 .taskTextOutsideRight{fill:#000;text-anchor:start;font-size:11px;font-family:'trebuchet ms', verdana, arial;font-family:var(--mermaid-font-family)}#mermaid-1600592058701 .taskTextOutsideLeft{fill:#000;text-anchor:end;font-size:11px}#mermaid-1600592058701 .task.clickable{cursor:pointer}#mermaid-1600592058701 .taskText.clickable{cursor:pointer;fill:#003163 !important;font-weight:bold}#mermaid-1600592058701 .taskTextOutsideLeft.clickable{cursor:pointer;fill:#003163 !important;font-weight:bold}#mermaid-1600592058701 .taskTextOutsideRight.clickable{cursor:pointer;fill:#003163 !important;font-weight:bold}#mermaid-1600592058701 .taskText0,#mermaid-1600592058701 .taskText1,#mermaid-1600592058701 .taskText2,#mermaid-1600592058701 .taskText3{fill:#fff}#mermaid-1600592058701 .task0,#mermaid-1600592058701 .task1,#mermaid-1600592058701 .task2,#mermaid-1600592058701 .task3{fill:#8a90dd;stroke:#534fbc}#mermaid-1600592058701 .taskTextOutside0,#mermaid-1600592058701 .taskTextOutside2{fill:#000}#mermaid-1600592058701 .taskTextOutside1,#mermaid-1600592058701 .taskTextOutside3{fill:#000}#mermaid-1600592058701 .active0,#mermaid-1600592058701 .active1,#mermaid-1600592058701 .active2,#mermaid-1600592058701 .active3{fill:#bfc7ff;stroke:#534fbc}#mermaid-1600592058701 .activeText0,#mermaid-1600592058701 .activeText1,#mermaid-1600592058701 .activeText2,#mermaid-1600592058701 .activeText3{fill:#000 !important}#mermaid-1600592058701 .done0,#mermaid-1600592058701 .done1,#mermaid-1600592058701 .done2,#mermaid-1600592058701 .done3{stroke:grey;fill:#d3d3d3;stroke-width:2}#mermaid-1600592058701 .doneText0,#mermaid-1600592058701 .doneText1,#mermaid-1600592058701 .doneText2,#mermaid-1600592058701 .doneText3{fill:#000 !important}#mermaid-1600592058701 .crit0,#mermaid-1600592058701 .crit1,#mermaid-1600592058701 .crit2,#mermaid-1600592058701 .crit3{stroke:#f88;fill:red;stroke-width:2}#mermaid-1600592058701 .activeCrit0,#mermaid-1600592058701 .activeCrit1,#mermaid-1600592058701 .activeCrit2,#mermaid-1600592058701 .activeCrit3{stroke:#f88;fill:#bfc7ff;stroke-width:2}#mermaid-1600592058701 .doneCrit0,#mermaid-1600592058701 .doneCrit1,#mermaid-1600592058701 .doneCrit2,#mermaid-1600592058701 .doneCrit3{stroke:#f88;fill:#d3d3d3;stroke-width:2;cursor:pointer;shape-rendering:crispEdges}#mermaid-1600592058701 .milestone{transform:rotate(45deg) scale(0.8, 0.8)}#mermaid-1600592058701 .milestoneText{font-style:italic}#mermaid-1600592058701 .doneCritText0,#mermaid-1600592058701 .doneCritText1,#mermaid-1600592058701 .doneCritText2,#mermaid-1600592058701 .doneCritText3{fill:#000 !important}#mermaid-1600592058701 .activeCritText0,#mermaid-1600592058701 .activeCritText1,#mermaid-1600592058701 .activeCritText2,#mermaid-1600592058701 .activeCritText3{fill:#000 !important}#mermaid-1600592058701 .titleText{text-anchor:middle;font-size:18px;fill:#000;font-family:'trebuchet ms', verdana, arial;font-family:var(--mermaid-font-family)}#mermaid-1600592058701 g.classGroup text{fill:#9370db;stroke:none;font-family:'trebuchet ms', verdana, arial;font-family:var(--mermaid-font-family);font-size:10px}#mermaid-1600592058701 g.classGroup text .title{font-weight:bolder}#mermaid-1600592058701 g.clickable{cursor:pointer}#mermaid-1600592058701 g.classGroup rect{fill:#ECECFF;stroke:#9370db}#mermaid-1600592058701 g.classGroup line{stroke:#9370db;stroke-width:1}#mermaid-1600592058701 .classLabel .box{stroke:none;stroke-width:0;fill:#ECECFF;opacity:0.5}#mermaid-1600592058701 .classLabel .label{fill:#9370db;font-size:10px}#mermaid-1600592058701 .relation{stroke:#9370db;stroke-width:1;fill:none}#mermaid-1600592058701 .dashed-line{stroke-dasharray:3}#mermaid-1600592058701 #compositionStart{fill:#9370db;stroke:#9370db;stroke-width:1}#mermaid-1600592058701 #compositionEnd{fill:#9370db;stroke:#9370db;stroke-width:1}#mermaid-1600592058701 #aggregationStart{fill:#ECECFF;stroke:#9370db;stroke-width:1}#mermaid-1600592058701 #aggregationEnd{fill:#ECECFF;stroke:#9370db;stroke-width:1}#mermaid-1600592058701 #dependencyStart{fill:#9370db;stroke:#9370db;stroke-width:1}#mermaid-1600592058701 #dependencyEnd{fill:#9370db;stroke:#9370db;stroke-width:1}#mermaid-1600592058701 #extensionStart{fill:#9370db;stroke:#9370db;stroke-width:1}#mermaid-1600592058701 #extensionEnd{fill:#9370db;stroke:#9370db;stroke-width:1}#mermaid-1600592058701 .commit-id,#mermaid-1600592058701 .commit-msg,#mermaid-1600592058701 .branch-label{fill:lightgrey;color:lightgrey;font-family:'trebuchet ms', verdana, arial;font-family:var(--mermaid-font-family)}#mermaid-1600592058701 .pieTitleText{text-anchor:middle;font-size:25px;fill:#000;font-family:'trebuchet ms', verdana, arial;font-family:var(--mermaid-font-family)}#mermaid-1600592058701 .slice{font-family:'trebuchet ms', verdana, arial;font-family:var(--mermaid-font-family)}#mermaid-1600592058701 g.stateGroup text{fill:#9370db;stroke:none;font-size:10px;font-family:'trebuchet ms', verdana, arial;font-family:var(--mermaid-font-family)}#mermaid-1600592058701 g.stateGroup text{fill:#9370db;stroke:none;font-size:10px}#mermaid-1600592058701 g.stateGroup .state-title{font-weight:bolder;fill:#000}#mermaid-1600592058701 g.stateGroup rect{fill:#ECECFF;stroke:#9370db}#mermaid-1600592058701 g.stateGroup line{stroke:#9370db;stroke-width:1}#mermaid-1600592058701 .transition{stroke:#9370db;stroke-width:1;fill:none}#mermaid-1600592058701 .stateGroup .composit{fill:white;border-bottom:1px}#mermaid-1600592058701 .stateGroup .alt-composit{fill:#e0e0e0;border-bottom:1px}#mermaid-1600592058701 .state-note{stroke:#aa3;fill:#fff5ad}#mermaid-1600592058701 .state-note text{fill:black;stroke:none;font-size:10px}#mermaid-1600592058701 .stateLabel .box{stroke:none;stroke-width:0;fill:#ECECFF;opacity:0.5}#mermaid-1600592058701 .stateLabel text{fill:#000;font-size:10px;font-weight:bold;font-family:'trebuchet ms', verdana, arial;font-family:var(--mermaid-font-family)}#mermaid-1600592058701 .node circle.state-start{fill:black;stroke:black}#mermaid-1600592058701 .node circle.state-end{fill:black;stroke:white;stroke-width:1.5}#mermaid-1600592058701 #statediagram-barbEnd{fill:#9370db}#mermaid-1600592058701 .statediagram-cluster rect{fill:#ECECFF;stroke:#9370db;stroke-width:1px}#mermaid-1600592058701 .statediagram-cluster rect.outer{rx:5px;ry:5px}#mermaid-1600592058701 .statediagram-state .divider{stroke:#9370db}#mermaid-1600592058701 .statediagram-state .title-state{rx:5px;ry:5px}#mermaid-1600592058701 .statediagram-cluster.statediagram-cluster .inner{fill:white}#mermaid-1600592058701 .statediagram-cluster.statediagram-cluster-alt .inner{fill:#e0e0e0}#mermaid-1600592058701 .statediagram-cluster .inner{rx:0;ry:0}#mermaid-1600592058701 .statediagram-state rect.basic{rx:5px;ry:5px}#mermaid-1600592058701 .statediagram-state rect.divider{stroke-dasharray:10,10;fill:#efefef}#mermaid-1600592058701 .note-edge{stroke-dasharray:5}#mermaid-1600592058701 .statediagram-note rect{fill:#fff5ad;stroke:#aa3;stroke-width:1px;rx:0;ry:0}:root{--mermaid-font-family: '"trebuchet ms", verdana, arial';--mermaid-font-family: "Comic Sans MS", "Comic Sans", cursive}

:root { --mermaid-font-family: "trebuchet ms", verdana, arial;}</style><style>#mermaid-1600592058701 {
    color: rgb(0, 0, 0);
    font: 16px "trebuchet ms", verdana, arial;
  }</style><g><defs><marker id="statediagram-barbEnd" refX="19" refY="7" markerWidth="20" markerHeight="14" markerUnits="0" orient="auto"><path d="M 19,7 L9,13 L14,7 L9,1 Z"></path></marker></defs><g class="root"><g class="clusters"><g class="note-cluster" id="0----parent"><rect x="988.23828125" y="72" width="620.09375" height="219" fill="none"></rect></g><g class="note-cluster" id="4----parent"><rect x="8" y="1354.5" width="1125.39453125" height="265" fill="none"></rect></g><g class="note-cluster" id="11----parent"><rect x="899.42578125" y="1947.5" width="2793.44921875" height="240" fill="none"></rect></g><g class="note-cluster" id="17----parent"><rect x="2270.6328125" y="489.5" width="841.515625" height="203" fill="none"></rect></g><g class="note-cluster" id="21----parent"><rect x="3478.05859375" y="761.5" width="600.7890625" height="240" fill="none"></rect></g><g class="note-cluster" id="26----parent"><rect x="1827.26953125" y="1200" width="494.703125" height="265" fill="none"></rect></g></g><g class="edgePaths"><path d="M1342.62890625,22L1342.62890625,26.166666666666668C1342.62890625,30.333333333333332,1342.62890625,38.666666666666664,1342.62890625,47C1342.62890625,55.333333333333336,1342.62890625,63.666666666666664,1342.62890625,72C1342.62890625,80.33333333333333,1342.62890625,88.66666666666667,1342.62890625,92.83333333333333L1342.62890625,97" id="edge0" class="transition" marker-end="url(#statediagram-barbEnd)"></path><path d="M1327.9911635315534,131L1323.0401623179612,136.75C1318.089161104369,142.5,1308.1871586771845,154,1303.2361574635922,165.5C1298.28515625,177,1298.28515625,188.5,1298.28515625,194.25L1298.28515625,200" class="transition note-edge"></path><path d="M1379.1639487257282,131L1391.5213895631068,136.75C1403.8788304004854,142.5,1428.5937120752426,154,1839.2109185376212,170.40038720640328C2249.828125,186.8007744128066,3046.34765625,208.1015488256132,3444.607421875,218.7519360320165L3842.8671875,229.4023232384198" id="edge1" class="transition" marker-end="url(#statediagram-barbEnd)"></path><path d="M3842.8671875,243.76650263298316L3744.5006510416665,251.63875219415263C3646.1341145833335,259.51100175532207,3449.4010416666665,275.25550087766106,3351.0345052083335,288.87775043883056C3252.66796875,302.5,3252.66796875,314,3252.66796875,330.5416666666667C3252.66796875,347.0833333333333,3252.66796875,368.6666666666667,3252.66796875,390.25C3252.66796875,411.8333333333333,3252.66796875,433.4166666666667,3252.66796875,449.9583333333333C3252.66796875,466.5,3252.66796875,478,3252.66796875,492.0833333333333C3252.66796875,506.1666666666667,3252.66796875,522.8333333333334,3252.66796875,541.0833333333334C3252.66796875,559.3333333333334,3252.66796875,579.1666666666666,3252.66796875,597.6666666666666C3252.66796875,616.1666666666666,3252.66796875,633.3333333333334,3252.66796875,648.9166666666666C3252.66796875,664.5,3252.66796875,678.5,3252.66796875,691.25C3252.66796875,704,3252.66796875,715.5,3252.66796875,727C3252.66796875,738.5,3252.66796875,750,3252.66796875,764.9583333333334C3252.66796875,779.9166666666666,3252.66796875,798.3333333333334,3252.66796875,818.3333333333334C3252.66796875,838.3333333333334,3252.66796875,859.9166666666666,3252.66796875,881.5C3252.66796875,903.0833333333334,3252.66796875,924.6666666666666,3252.66796875,944.6666666666666C3252.66796875,964.6666666666666,3252.66796875,983.0833333333334,3252.66796875,998.0416666666666C3252.66796875,1013,3252.66796875,1024.5,3252.66796875,1041.0416666666667C3252.66796875,1057.5833333333333,3252.66796875,1079.1666666666667,3252.66796875,1100.75C3252.66796875,1122.3333333333333,3252.66796875,1143.9166666666667,3252.66796875,1160.4583333333333C3252.66796875,1177,3252.66796875,1188.5,3252.66796875,1203.4583333333333C3252.66796875,1218.4166666666667,3252.66796875,1236.8333333333333,3252.66796875,1256.8333333333333C3252.66796875,1276.8333333333333,3252.66796875,1298.4166666666667,3252.66796875,1314.9583333333333C3252.66796875,1331.5,3252.66796875,1343,3252.66796875,1357.9583333333333C3252.66796875,1372.9166666666667,3252.66796875,1391.3333333333333,3252.66796875,1409.75C3252.66796875,1428.1666666666667,3252.66796875,1446.5833333333333,3252.66796875,1461.5416666666667C3252.66796875,1476.5,3252.66796875,1488,3252.66796875,1504.5416666666667C3252.66796875,1521.0833333333333,3252.66796875,1542.6666666666667,3252.66796875,1562.6666666666667C3252.66796875,1582.6666666666667,3252.66796875,1601.0833333333333,3252.66796875,1616.0416666666667C3252.66796875,1631,3252.66796875,1642.5,3252.66796875,1659.0416666666667C3252.66796875,1675.5833333333333,3252.66796875,1697.1666666666667,3252.66796875,1718.75C3252.66796875,1740.3333333333333,3252.66796875,1761.9166666666667,3252.66796875,1783.5C3252.66796875,1805.0833333333333,3252.66796875,1826.6666666666667,3252.66796875,1848.25C3252.66796875,1869.8333333333333,3252.66796875,1891.4166666666667,3365.9296875,1907.9583333333333C3479.19140625,1924.5,3705.71484375,1936,3810.9422369909503,1945.9166666666667C3916.1696302319,1955.8333333333333,3900.1009792138007,1964.1666666666667,3892.066653704751,1968.3333333333333L3884.032328195701,1972.5" id="edge2" class="transition" marker-end="url(#statediagram-barbEnd)"></path><path d="M3790.80078125,405.4830754352031L3724.1334635416665,413.7358961960026C3657.4661458333335,421.9887169568021,3524.1315104166665,438.494358478401,3457.4641927083335,452.49717923920053C3390.796875,466.5,3390.796875,478,3390.796875,492.0833333333333C3390.796875,506.1666666666667,3390.796875,522.8333333333334,3390.796875,541.0833333333334C3390.796875,559.3333333333334,3390.796875,579.1666666666666,3390.796875,597.6666666666666C3390.796875,616.1666666666666,3390.796875,633.3333333333334,3390.796875,648.9166666666666C3390.796875,664.5,3390.796875,678.5,3390.796875,691.25C3390.796875,704,3390.796875,715.5,3390.796875,727C3390.796875,738.5,3390.796875,750,3390.796875,764.9583333333334C3390.796875,779.9166666666666,3390.796875,798.3333333333334,3390.796875,818.3333333333334C3390.796875,838.3333333333334,3390.796875,859.9166666666666,3390.796875,881.5C3390.796875,903.0833333333334,3390.796875,924.6666666666666,3390.796875,944.6666666666666C3390.796875,964.6666666666666,3390.796875,983.0833333333334,3390.796875,998.0416666666666C3390.796875,1013,3390.796875,1024.5,3390.796875,1041.0416666666667C3390.796875,1057.5833333333333,3390.796875,1079.1666666666667,3390.796875,1100.75C3390.796875,1122.3333333333333,3390.796875,1143.9166666666667,3390.796875,1160.4583333333333C3390.796875,1177,3390.796875,1188.5,3390.796875,1203.4583333333333C3390.796875,1218.4166666666667,3390.796875,1236.8333333333333,3390.796875,1256.8333333333333C3390.796875,1276.8333333333333,3390.796875,1298.4166666666667,3390.796875,1314.9583333333333C3390.796875,1331.5,3390.796875,1343,3390.796875,1357.9583333333333C3390.796875,1372.9166666666667,3390.796875,1391.3333333333333,3390.796875,1409.75C3390.796875,1428.1666666666667,3390.796875,1446.5833333333333,3390.796875,1461.5416666666667C3390.796875,1476.5,3390.796875,1488,3390.796875,1504.5416666666667C3390.796875,1521.0833333333333,3390.796875,1542.6666666666667,3390.796875,1562.6666666666667C3390.796875,1582.6666666666667,3390.796875,1601.0833333333333,3390.796875,1616.0416666666667C3390.796875,1631,3390.796875,1642.5,3390.796875,1659.0416666666667C3390.796875,1675.5833333333333,3390.796875,1697.1666666666667,3390.796875,1718.75C3390.796875,1740.3333333333333,3390.796875,1761.9166666666667,3390.796875,1783.5C3390.796875,1805.0833333333333,3390.796875,1826.6666666666667,3390.796875,1848.25C3390.796875,1869.8333333333333,3390.796875,1891.4166666666667,3498.623046875,1907.9583333333333C3606.44921875,1924.5,3822.1015625,1936,3910.890625,1946.7101340149213C3999.6796875,1957.4202680298424,3961.60546875,1967.340536059685,3942.568359375,1972.3006700746064L3923.53125,1977.2608040895275" id="edge3" class="transition" marker-end="url(#statediagram-barbEnd)"></path><path d="M2918.8823751206564,847L2912.203411558881,852.75C2905.5244479971043,858.5,2892.166520873552,870,2885.4875573117765,886.5416666666666C2878.80859375,903.0833333333334,2878.80859375,924.6666666666666,2878.80859375,944.6666666666666C2878.80859375,964.6666666666666,2878.80859375,983.0833333333334,2878.80859375,998.0416666666666C2878.80859375,1013,2878.80859375,1024.5,2878.80859375,1041.0416666666667C2878.80859375,1057.5833333333333,2878.80859375,1079.1666666666667,2878.80859375,1100.75C2878.80859375,1122.3333333333333,2878.80859375,1143.9166666666667,2878.80859375,1160.4583333333333C2878.80859375,1177,2878.80859375,1188.5,2878.80859375,1203.4583333333333C2878.80859375,1218.4166666666667,2878.80859375,1236.8333333333333,2878.80859375,1256.8333333333333C2878.80859375,1276.8333333333333,2878.80859375,1298.4166666666667,2878.80859375,1314.9583333333333C2878.80859375,1331.5,2878.80859375,1343,2878.80859375,1357.9583333333333C2878.80859375,1372.9166666666667,2878.80859375,1391.3333333333333,2878.80859375,1409.75C2878.80859375,1428.1666666666667,2878.80859375,1446.5833333333333,2878.80859375,1461.5416666666667C2878.80859375,1476.5,2878.80859375,1488,2878.80859375,1504.5416666666667C2878.80859375,1521.0833333333333,2878.80859375,1542.6666666666667,2878.80859375,1562.6666666666667C2878.80859375,1582.6666666666667,2878.80859375,1601.0833333333333,2878.80859375,1616.0416666666667C2878.80859375,1631,2878.80859375,1642.5,2878.80859375,1659.0416666666667C2878.80859375,1675.5833333333333,2878.80859375,1697.1666666666667,2878.80859375,1718.75C2878.80859375,1740.3333333333333,2878.80859375,1761.9166666666667,2878.80859375,1783.5C2878.80859375,1805.0833333333333,2878.80859375,1826.6666666666667,2878.80859375,1848.25C2878.80859375,1869.8333333333333,2878.80859375,1891.4166666666667,3027.2220052083335,1907.9583333333333C3175.6354166666665,1924.5,3472.4622395833335,1936,3625.130105227187,1945.9166666666667C3777.797970871041,1955.8333333333333,3786.306879242082,1964.1666666666667,3790.561333427602,1968.3333333333333L3794.815787613122,1972.5" id="edge4" class="transition" marker-end="url(#statediagram-barbEnd)"></path><path d="M3727.875,2015.001057689402L3658.0052083333335,2023.7508814078349C3588.1354166666665,2032.500705126268,3448.3958333333335,2050.000352563134,3169.1569010416665,2068.8396979999675C2889.91796875,2087.6790434368013,2471.1796875,2107.8580868736026,2261.810546875,2117.9476085920032L2052.44140625,2128.037130310404" id="edge5" class="transition" marker-end="url(#statediagram-barbEnd)"></path><path d="M3944.2574925915947,263.25L3939.190488617996,267.875C3934.1234846443963,272.5,3923.989476697198,281.75,3918.922472723599,292.125C3913.85546875,302.5,3913.85546875,314,3913.85546875,325.5C3913.85546875,337,3913.85546875,348.5,3913.85546875,354.25L3913.85546875,360" id="edge6" class="transition" marker-end="url(#statediagram-barbEnd)"></path><path d="M3981.5931316361,420.5L3994.468885738417,426.25C4007.3446398407336,432,4033.0961480453666,443.5,4045.9719021476835,455C4058.84765625,466.5,4058.84765625,478,4058.84765625,489.25C4058.84765625,500.5,4058.84765625,511.5,4058.84765625,517L4058.84765625,522.5" id="edge7" class="transition" marker-end="url(#statediagram-barbEnd)"></path><path d="M2687.953125,662.7887018617699L2650.0305989583335,667.7405848848083C2612.1080729166665,672.6924679078467,2536.2630208333335,682.5962339539233,2498.3404947916665,693.2981169769615C2460.41796875,704,2460.41796875,715.5,2460.41796875,727C2460.41796875,738.5,2460.41796875,750,2460.41796875,764.9583333333334C2460.41796875,779.9166666666666,2460.41796875,798.3333333333334,2460.41796875,818.3333333333334C2460.41796875,838.3333333333334,2460.41796875,859.9166666666666,2460.41796875,881.5C2460.41796875,903.0833333333334,2460.41796875,924.6666666666666,2460.41796875,944.6666666666666C2460.41796875,964.6666666666666,2460.41796875,983.0833333333334,2460.41796875,998.0416666666666C2460.41796875,1013,2460.41796875,1024.5,2460.41796875,1041.0416666666667C2460.41796875,1057.5833333333333,2460.41796875,1079.1666666666667,2460.41796875,1100.75C2460.41796875,1122.3333333333333,2460.41796875,1143.9166666666667,2460.41796875,1160.4583333333333C2460.41796875,1177,2460.41796875,1188.5,2460.41796875,1203.4583333333333C2460.41796875,1218.4166666666667,2460.41796875,1236.8333333333333,2460.41796875,1256.8333333333333C2460.41796875,1276.8333333333333,2460.41796875,1298.4166666666667,2460.41796875,1314.9583333333333C2460.41796875,1331.5,2460.41796875,1343,2460.41796875,1357.9583333333333C2460.41796875,1372.9166666666667,2460.41796875,1391.3333333333333,2460.41796875,1409.75C2460.41796875,1428.1666666666667,2460.41796875,1446.5833333333333,2460.41796875,1461.5416666666667C2460.41796875,1476.5,2460.41796875,1488,2460.41796875,1504.5416666666667C2460.41796875,1521.0833333333333,2460.41796875,1542.6666666666667,2460.41796875,1562.6666666666667C2460.41796875,1582.6666666666667,2460.41796875,1601.0833333333333,2460.41796875,1616.0416666666667C2460.41796875,1631,2460.41796875,1642.5,2460.41796875,1659.0416666666667C2460.41796875,1675.5833333333333,2460.41796875,1697.1666666666667,2460.41796875,1718.75C2460.41796875,1740.3333333333333,2460.41796875,1761.9166666666667,2460.41796875,1783.5C2460.41796875,1805.0833333333333,2460.41796875,1826.6666666666667,2460.41796875,1848.25C2460.41796875,1869.8333333333333,2460.41796875,1891.4166666666667,2460.41796875,1907.9583333333333C2460.41796875,1924.5,2460.41796875,1936,2460.41796875,1950.9583333333333C2460.41796875,1965.9166666666667,2460.41796875,1984.3333333333333,2460.41796875,2004.3333333333333C2460.41796875,2024.3333333333333,2460.41796875,2045.9166666666667,2392.421875,2065.595618268124C2324.42578125,2085.2745698695812,2188.43359375,2103.049139739162,2120.4375,2111.9364246739524L2052.44140625,2120.823709608743" id="edge8" class="transition" marker-end="url(#statediagram-barbEnd)"></path><path d="M3953.28515625,544.635066602369L3767.0201822916665,553.6958888353075C3580.7552083333335,562.756711068246,3208.2252604166665,580.878355534123,3015.9721569073627,595.6891777670616C2823.719053398058,610.5,2811.7427942961162,622,2805.7546647451454,627.75L2799.7665351941746,633.5" id="edge9" class="transition" marker-end="url(#statediagram-barbEnd)"></path><path d="M3953.28515625,545.649546221187L3800.650390625,554.5412885176559C3648.015625,563.4330308141247,3342.74609375,581.2165154070623,3161.5942240594663,595.8582577035312C2980.4423543689322,610.5,2923.408146237864,622,2894.8910421723303,627.75L2866.3739381067962,633.5" id="edge10" class="transition" marker-end="url(#statediagram-barbEnd)"></path><path d="M2851.6641555059523,667.5L2868.723384796627,671.6666666666666C2885.7826140873017,675.8333333333334,2919.9010726686506,684.1666666666666,2936.9603019593255,694.0833333333334C2954.01953125,704,2954.01953125,715.5,2954.01953125,727C2954.01953125,738.5,2954.01953125,750,2954.01953125,759.9166666666666C2954.01953125,769.8333333333334,2954.01953125,778.1666666666666,2954.01953125,782.3333333333334L2954.01953125,786.5" id="edge11" class="transition" marker-end="url(#statediagram-barbEnd)"></path><path d="M2989.1566873793436,847L2995.835650941119,852.75C3002.5146145028957,858.5,3015.872541626448,870,3022.5515051882235,886.5416666666666C3029.23046875,903.0833333333334,3029.23046875,924.6666666666666,3029.23046875,944.6666666666666C3029.23046875,964.6666666666666,3029.23046875,983.0833333333334,3029.23046875,998.0416666666666C3029.23046875,1013,3029.23046875,1024.5,3029.23046875,1041.0416666666667C3029.23046875,1057.5833333333333,3029.23046875,1079.1666666666667,3029.23046875,1100.75C3029.23046875,1122.3333333333333,3029.23046875,1143.9166666666667,3029.23046875,1160.4583333333333C3029.23046875,1177,3029.23046875,1188.5,3029.23046875,1203.4583333333333C3029.23046875,1218.4166666666667,3029.23046875,1236.8333333333333,3029.23046875,1256.8333333333333C3029.23046875,1276.8333333333333,3029.23046875,1298.4166666666667,3029.23046875,1314.9583333333333C3029.23046875,1331.5,3029.23046875,1343,3029.23046875,1357.9583333333333C3029.23046875,1372.9166666666667,3029.23046875,1391.3333333333333,3029.23046875,1409.75C3029.23046875,1428.1666666666667,3029.23046875,1446.5833333333333,3029.23046875,1461.5416666666667C3029.23046875,1476.5,3029.23046875,1488,3029.23046875,1504.5416666666667C3029.23046875,1521.0833333333333,3029.23046875,1542.6666666666667,3029.23046875,1562.6666666666667C3029.23046875,1582.6666666666667,3029.23046875,1601.0833333333333,3029.23046875,1616.0416666666667C3029.23046875,1631,3029.23046875,1642.5,3029.23046875,1659.0416666666667C3029.23046875,1675.5833333333333,3029.23046875,1697.1666666666667,3029.23046875,1718.75C3029.23046875,1740.3333333333333,3029.23046875,1761.9166666666667,3029.23046875,1783.5C3029.23046875,1805.0833333333333,3029.23046875,1826.6666666666667,3029.23046875,1848.25C3029.23046875,1869.8333333333333,3029.23046875,1891.4166666666667,2968.3509114583335,1907.9583333333333C2907.4713541666665,1924.5,2785.7122395833335,1936,2724.8326822916665,1950.9583333333333C2663.953125,1965.9166666666667,2663.953125,1984.3333333333333,2663.953125,2004.3333333333333C2663.953125,2024.3333333333333,2663.953125,2045.9166666666667,2562.0345052083335,2066.1501897421854C2460.1158854166665,2086.3837128177042,2256.2786458333335,2105.267425635408,2154.3600260416665,2114.70928204426L2052.44140625,2124.1511384531123" id="edge12" class="transition" marker-end="url(#statediagram-barbEnd)"></path><path d="M4058.84765625,556.5L4058.84765625,563.5833333333334C4058.84765625,570.6666666666666,4058.84765625,584.8333333333334,4058.84765625,600.5C4058.84765625,616.1666666666666,4058.84765625,633.3333333333334,4058.84765625,648.9166666666666C4058.84765625,664.5,4058.84765625,678.5,4058.84765625,691.25C4058.84765625,704,4058.84765625,715.5,4058.84765625,727C4058.84765625,738.5,4058.84765625,750,4058.84765625,764.9583333333334C4058.84765625,779.9166666666666,4058.84765625,798.3333333333334,4058.84765625,818.3333333333334C4058.84765625,838.3333333333334,4058.84765625,859.9166666666666,4035.2947182673743,876.4583333333334C4011.741780284749,893,3964.6359043194984,904.5,3941.0829663368727,910.25L3917.530028354247,916" id="edge13" class="transition" marker-end="url(#statediagram-barbEnd)"></path><path d="M3050.40234375,826.5143411563379L3140.8619791666665,835.6786176302816C3231.3216145833335,844.8428941042253,3412.2408854166665,863.1714470521125,3520.502071267696,878.0857235260563C3628.763257118726,893,3664.366357987452,904.5,3682.1679084218144,910.25L3699.9694588561774,916" id="edge14" class="transition" marker-end="url(#statediagram-barbEnd)"></path><path d="M3694.81668905543,976.5L3681.2072669211916,980.6666666666666C3667.597844786953,984.8333333333334,3640.3790005184765,993.1666666666666,3626.7695783842387,1003.0833333333334C3613.16015625,1013,3613.16015625,1024.5,3613.16015625,1036C3613.16015625,1047.5,3613.16015625,1059,3613.16015625,1064.75L3613.16015625,1070.5" id="edge15" class="transition" marker-end="url(#statediagram-barbEnd)"></path><path d="M3818.5585230486427,976.5L3821.9934306655355,980.6666666666666C3825.4283382824287,984.8333333333334,3832.2981535162144,993.1666666666666,3835.733061133107,1003.0833333333334C3839.16796875,1013,3839.16796875,1024.5,3839.16796875,1041.0416666666667C3839.16796875,1057.5833333333333,3839.16796875,1079.1666666666667,3839.16796875,1100.75C3839.16796875,1122.3333333333333,3839.16796875,1143.9166666666667,3839.16796875,1160.4583333333333C3839.16796875,1177,3839.16796875,1188.5,3830.6458038744345,1198.4166666666667C3822.1236389988685,1208.3333333333333,3805.0793092477375,1216.6666666666667,3796.5571443721715,1220.8333333333333L3788.0349794966064,1225" id="edge16" class="transition" marker-end="url(#statediagram-barbEnd)"></path><path d="M3613.16015625,1131L3613.16015625,1136.75C3613.16015625,1142.5,3613.16015625,1154,3613.16015625,1165.5C3613.16015625,1177,3613.16015625,1188.5,3621.6823211255655,1198.4166666666667C3630.2044860011315,1208.3333333333333,3647.2488157522625,1216.6666666666667,3655.7709806278285,1220.8333333333333L3664.2931455033936,1225" id="edge17" class="transition" marker-end="url(#statediagram-barbEnd)"></path><path d="M3626.25,1259.4271454153372L3384.7740885416665,1269.5226211794477C3143.2981770833335,1279.6180969435582,2660.3463541666665,1299.809048471779,2418.8704427083335,1315.6545242358895C2177.39453125,1331.5,2177.39453125,1343,2172.040081777903,1352.9166666666667C2166.685632305807,1362.8333333333333,2155.976733361614,1371.1666666666667,2150.6222838895173,1375.3333333333333L2145.267834417421,1379.5" id="edge18" class="transition" marker-end="url(#statediagram-barbEnd)"></path><path d="M2100.919418127828,1440L2100.165270314857,1444.1666666666667C2099.4111225018855,1448.3333333333333,2097.9028268759425,1456.6666666666667,2097.1486790629715,1466.5833333333333C2096.39453125,1476.5,2096.39453125,1488,2096.39453125,1504.5416666666667C2096.39453125,1521.0833333333333,2096.39453125,1542.6666666666667,2096.39453125,1562.6666666666667C2096.39453125,1582.6666666666667,2096.39453125,1601.0833333333333,2096.39453125,1616.0416666666667C2096.39453125,1631,2096.39453125,1642.5,2096.39453125,1659.0416666666667C2096.39453125,1675.5833333333333,2096.39453125,1697.1666666666667,2096.39453125,1718.75C2096.39453125,1740.3333333333333,2096.39453125,1761.9166666666667,2096.39453125,1783.5C2096.39453125,1805.0833333333333,2096.39453125,1826.6666666666667,2096.39453125,1848.25C2096.39453125,1869.8333333333333,2096.39453125,1891.4166666666667,2096.39453125,1907.9583333333333C2096.39453125,1924.5,2096.39453125,1936,2096.39453125,1950.9583333333333C2096.39453125,1965.9166666666667,2096.39453125,1984.3333333333333,2096.39453125,2004.3333333333333C2096.39453125,2024.3333333333333,2096.39453125,2045.9166666666667,2084.7280254584944,2062.4583333333335C2073.0615196669883,2079,2049.728508083977,2090.5,2038.062002292471,2096.25L2026.3954965009652,2102" id="edge19" class="transition" marker-end="url(#statediagram-barbEnd)"></path><path d="M3727.875,2025.79979247214L3698.3776041666665,2032.7498270601166C3668.8802083333335,2039.6998616480935,3609.8854166666665,2053.5999308240466,3330.646484375,2070.7467364796134C3051.4075520833335,2087.89354213518,2551.9244791666665,2108.287084270359,2302.1829427083335,2118.483855337949L2052.44140625,2128.680626405539" id="edge20" class="transition" marker-end="url(#statediagram-barbEnd)"></path><path d="M4036.91015625,418.08355848479886L4064.1119791666665,424.2362987373324C4091.3138020833335,430.3890389898659,4145.717447916667,442.694519494933,4172.919270833333,454.59725974746647C4200.12109375,466.5,4200.12109375,478,4200.12109375,492.0833333333333C4200.12109375,506.1666666666667,4200.12109375,522.8333333333334,4200.12109375,541.0833333333334C4200.12109375,559.3333333333334,4200.12109375,579.1666666666666,4200.12109375,597.6666666666666C4200.12109375,616.1666666666666,4200.12109375,633.3333333333334,4200.12109375,648.9166666666666C4200.12109375,664.5,4200.12109375,678.5,4200.12109375,691.25C4200.12109375,704,4200.12109375,715.5,4200.12109375,727C4200.12109375,738.5,4200.12109375,750,4200.12109375,764.9583333333334C4200.12109375,779.9166666666666,4200.12109375,798.3333333333334,4200.12109375,818.3333333333334C4200.12109375,838.3333333333334,4200.12109375,859.9166666666666,4200.12109375,881.5C4200.12109375,903.0833333333334,4200.12109375,924.6666666666666,4200.12109375,944.6666666666666C4200.12109375,964.6666666666666,4200.12109375,983.0833333333334,4200.12109375,998.0416666666666C4200.12109375,1013,4200.12109375,1024.5,4200.12109375,1041.0416666666667C4200.12109375,1057.5833333333333,4200.12109375,1079.1666666666667,4200.12109375,1100.75C4200.12109375,1122.3333333333333,4200.12109375,1143.9166666666667,4200.12109375,1160.4583333333333C4200.12109375,1177,4200.12109375,1188.5,4200.12109375,1203.4583333333333C4200.12109375,1218.4166666666667,4200.12109375,1236.8333333333333,4200.12109375,1256.8333333333333C4200.12109375,1276.8333333333333,4200.12109375,1298.4166666666667,4200.12109375,1314.9583333333333C4200.12109375,1331.5,4200.12109375,1343,4200.12109375,1357.9583333333333C4200.12109375,1372.9166666666667,4200.12109375,1391.3333333333333,4200.12109375,1409.75C4200.12109375,1428.1666666666667,4200.12109375,1446.5833333333333,4200.12109375,1461.5416666666667C4200.12109375,1476.5,4200.12109375,1488,4200.12109375,1504.5416666666667C4200.12109375,1521.0833333333333,4200.12109375,1542.6666666666667,4200.12109375,1562.6666666666667C4200.12109375,1582.6666666666667,4200.12109375,1601.0833333333333,4200.12109375,1616.0416666666667C4200.12109375,1631,4200.12109375,1642.5,4200.12109375,1659.0416666666667C4200.12109375,1675.5833333333333,4200.12109375,1697.1666666666667,4200.12109375,1718.75C4200.12109375,1740.3333333333333,4200.12109375,1761.9166666666667,4200.12109375,1783.5C4200.12109375,1805.0833333333333,4200.12109375,1826.6666666666667,4200.12109375,1848.25C4200.12109375,1869.8333333333333,4200.12109375,1891.4166666666667,4031.501953125,1907.9583333333333C3862.8828125,1924.5,3525.64453125,1936,3357.025390625,1950.9583333333333C3188.40625,1965.9166666666667,3188.40625,1984.3333333333333,3188.40625,2004.3333333333333C3188.40625,2024.3333333333333,3188.40625,2045.9166666666667,2999.0787760416665,2066.7288393196395C2809.7513020833335,2087.5410119726125,2431.0963541666665,2107.5820239452255,2241.7688802083335,2117.6025299315315L2052.44140625,2127.623035917838" id="edge21" class="transition" marker-end="url(#statediagram-barbEnd)"></path><path d="M2178.6660244626696,1440L2188.6207755938913,1444.1666666666667C2198.575526725113,1448.3333333333333,2218.4850289875562,1456.6666666666667,2018.0804051187781,1466.5833333333333C1817.67578125,1476.5,1396.95703125,1488,1174.7577069256756,1499.5C952.5583826013514,1511,928.8784839527028,1522.5,917.0385346283784,1528.25L905.1985853040541,1534" id="edge22" class="transition" marker-end="url(#statediagram-barbEnd)"></path><path d="M740.05859375,1572.2440459508618L638.7259114583334,1580.1200382923846C537.3932291666666,1587.9960306339078,334.7278645833333,1603.7480153169538,233.39518229166666,1617.374007658477C132.0625,1631,132.0625,1642.5,132.0625,1659.0416666666667C132.0625,1675.5833333333333,132.0625,1697.1666666666667,132.0625,1718.75C132.0625,1740.3333333333333,132.0625,1761.9166666666667,132.0625,1783.5C132.0625,1805.0833333333333,132.0625,1826.6666666666667,132.0625,1848.25C132.0625,1869.8333333333333,132.0625,1891.4166666666667,337.583984375,1907.9583333333333C543.10546875,1924.5,954.1484375,1936,1159.669921875,1950.9583333333333C1365.19140625,1965.9166666666667,1365.19140625,1984.3333333333333,1365.19140625,2004.3333333333333C1365.19140625,2024.3333333333333,1365.19140625,2045.9166666666667,1450.5924479166667,2065.927169892417C1535.9934895833333,2085.9376731181674,1706.7955729166667,2104.375346236335,1792.1966145833333,2113.594182795419L1877.59765625,2122.8130193545026" id="edge23" class="transition" marker-end="url(#statediagram-barbEnd)"></path><path d="M924.4921875,1748.7051123408041L899.3294270833334,1754.5042602840033C874.1666666666666,1760.3034082272027,823.8411458333334,1771.9017041136012,798.6783854166666,1788.4925187234674C773.515625,1805.0833333333333,773.515625,1826.6666666666667,773.515625,1848.25C773.515625,1869.8333333333333,773.515625,1891.4166666666667,929.38671875,1907.9583333333333C1085.2578125,1924.5,1397,1936,1552.87109375,1950.9583333333333C1708.7421875,1965.9166666666667,1708.7421875,1984.3333333333333,1708.7421875,2004.3333333333333C1708.7421875,2024.3333333333333,1708.7421875,2045.9166666666667,1736.884765625,2063.8187236118097C1765.02734375,2081.720780556953,1821.3125,2095.9415611139057,1849.455078125,2103.0519513923823L1877.59765625,2110.1623416708585" id="edge24" class="transition" marker-end="url(#statediagram-barbEnd)"></path><path d="M758.3984375,2025.2257629313197L803.373046875,2032.2714691094332C848.34765625,2039.3171752875467,938.296875,2053.4085876437734,1124.830078125,2070.238857066735C1311.36328125,2087.0691264896964,1594.48046875,2106.6382529793923,1736.0390625,2116.4228162242403L1877.59765625,2126.2073794690887" id="edge25" class="transition" marker-end="url(#statediagram-barbEnd)"></path><path d="M740.05859375,1576.3621726822364L679.0071614583334,1583.5518105685303C617.9557291666666,1590.7414484548244,495.8528645833333,1605.1207242274122,434.8014322916667,1618.060362113706C373.75,1631,373.75,1642.5,373.75,1659.0416666666667C373.75,1675.5833333333333,373.75,1697.1666666666667,373.75,1718.75C373.75,1740.3333333333333,373.75,1761.9166666666667,373.75,1783.5C373.75,1805.0833333333333,373.75,1826.6666666666667,373.75,1848.25C373.75,1869.8333333333333,373.75,1891.4166666666667,560.7975260416666,1907.9583333333333C747.8450520833334,1924.5,1121.9401041666667,1936,1308.9876302083333,1950.9583333333333C1496.03515625,1965.9166666666667,1496.03515625,1984.3333333333333,1496.03515625,2004.3333333333333C1496.03515625,2024.3333333333333,1496.03515625,2045.9166666666667,1559.62890625,2065.4883599866735C1623.22265625,2085.06005330668,1750.41015625,2102.62010661336,1814.00390625,2111.4001332667L1877.59765625,2120.18015992004" id="edge26" class="transition" marker-end="url(#statediagram-barbEnd)"></path><path d="M740.05859375,1590.077474478473L720.5305989583334,1594.9812287320608C701.0026041666666,1599.8849829856488,661.9466145833334,1609.6924914928243,642.4186197916666,1620.346245746412C622.890625,1631,622.890625,1642.5,622.890625,1659.0416666666667C622.890625,1675.5833333333333,622.890625,1697.1666666666667,622.890625,1718.75C622.890625,1740.3333333333333,622.890625,1761.9166666666667,622.890625,1783.5C622.890625,1805.0833333333333,622.890625,1826.6666666666667,622.890625,1848.25C622.890625,1869.8333333333333,622.890625,1891.4166666666667,790.8430989583334,1907.9583333333333C958.7955729166666,1924.5,1294.7005208333333,1936,1462.6529947916667,1950.9583333333333C1630.60546875,1965.9166666666667,1630.60546875,1984.3333333333333,1630.60546875,2004.3333333333333C1630.60546875,2024.3333333333333,1630.60546875,2045.9166666666667,1671.7708333333333,2064.6788634505315C1712.9361979166667,2083.4410602343964,1795.2669270833333,2099.3821204687924,1836.4322916666667,2107.3526505859904L1877.59765625,2115.323180703189" id="edge27" class="transition" marker-end="url(#statediagram-barbEnd)"></path><path d="M945.76171875,1591.1104017799441L963.8795572916666,1595.842001483287C981.9973958333334,1600.5736011866295,1018.2330729166666,1610.0368005933149,1036.3509114583333,1620.5184002966573C1054.46875,1631,1054.46875,1642.5,1054.46875,1654C1054.46875,1665.5,1054.46875,1677,1054.46875,1682.75L1054.46875,1688.5" id="edge28" class="transition" marker-end="url(#statediagram-barbEnd)"></path><path d="M1041.4059181949806,1749L1038.9229005791506,1754.75C1036.4398829633203,1760.5,1031.4738477316603,1772,1028.99083011583,1788.5416666666667C1026.5078125,1805.0833333333333,1026.5078125,1826.6666666666667,1026.5078125,1848.25C1026.5078125,1869.8333333333333,1026.5078125,1891.4166666666667,1162.962890625,1907.9583333333333C1299.41796875,1924.5,1572.328125,1936,1708.783203125,1950.9583333333333C1845.23828125,1965.9166666666667,1845.23828125,1984.3333333333333,1845.23828125,2004.3333333333333C1845.23828125,2024.3333333333333,1845.23828125,2045.9166666666667,1855.875226230695,2062.4583333333335C1866.5121712113898,2079,1887.78606117278,2090.5,1898.4230061534747,2096.25L1909.05995113417,2102" id="edge29" class="transition" marker-end="url(#statediagram-barbEnd)"></path><path d="M1159.4860340250966,1749L1179.4479971042472,1754.75C1199.4099601833977,1760.5,1239.3338863416989,1772,1259.2958494208494,1783.5C1279.2578125,1795,1279.2578125,1806.5,1279.2578125,1812.25L1279.2578125,1818" id="edge30" class="transition" marker-end="url(#statediagram-barbEnd)"></path><path d="M1279.2578125,1878.5L1279.2578125,1884.25C1279.2578125,1890,1279.2578125,1901.5,1168.5364583333333,1913C1057.8151041666667,1924.5,836.3723958333334,1936,725.6510416666666,1945.9166666666667C614.9296875,1955.8333333333333,614.9296875,1964.1666666666667,614.9296875,1968.3333333333333L614.9296875,1972.5" id="edge31" class="transition" marker-end="url(#statediagram-barbEnd)"></path><path d="M471.4609375,2031.1996895598809L440.951171875,2037.2497412999007C410.44140625,2043.2997930399206,349.421875,2055.3998965199603,318.912109375,2072.241614926647C288.40234375,2089.0833333333335,288.40234375,2110.6666666666665,288.40234375,2130.6666666666665C288.40234375,2150.6666666666665,288.40234375,2169.0833333333335,288.40234375,2184.0416666666665C288.40234375,2199,288.40234375,2210.5,288.40234375,2222C288.40234375,2233.5,288.40234375,2245,288.40234375,2250.75L288.40234375,2256.5" id="edge32" class="transition" marker-end="url(#statediagram-barbEnd)"></path><path d="M558.468252292471,2033L547.7359133687258,2038.75C537.0035744449807,2044.5,515.5388965974903,2056,504.80655767374515,2072.5416666666665C494.07421875,2089.0833333333335,494.07421875,2110.6666666666665,494.07421875,2130.6666666666665C494.07421875,2150.6666666666665,494.07421875,2169.0833333333335,494.07421875,2184.0416666666665C494.07421875,2199,494.07421875,2210.5,494.07421875,2222C494.07421875,2233.5,494.07421875,2245,494.07421875,2250.75L494.07421875,2256.5" id="edge33" class="transition" marker-end="url(#statediagram-barbEnd)"></path><path d="M671.391122707529,2033L682.1234616312742,2038.75C692.8558005550194,2044.5,714.3204784025097,2056,725.052817326255,2072.5416666666665C735.78515625,2089.0833333333335,735.78515625,2110.6666666666665,735.78515625,2130.6666666666665C735.78515625,2150.6666666666665,735.78515625,2169.0833333333335,735.78515625,2184.0416666666665C735.78515625,2199,735.78515625,2210.5,1226.6608072916667,2224.6389592825676C1717.5364583333333,2238.7779185651357,2699.2877604166665,2255.555837130271,3190.1634114583335,2263.944796412839L3681.0390625,2272.3337556954066" id="edge34" class="transition" marker-end="url(#statediagram-barbEnd)"></path><path d="M1965.01953125,2162.5L1965.01953125,2166.6666666666665C1965.01953125,2170.8333333333335,1965.01953125,2179.1666666666665,1965.01953125,2189.0833333333335C1965.01953125,2199,1965.01953125,2210.5,2251.0227864583335,2224.5050488465045C2537.0260416666665,2238.5100976930084,3109.0325520833335,2255.0201953860173,3395.0358072916665,2263.275244232522L3681.0390625,2271.5302930790263" id="edge35" class="transition" marker-end="url(#statediagram-barbEnd)"></path><path d="M3923.53125,2012.5546387046454L4014.9029947916665,2021.712198920538C4106.274739583333,2030.86975913643,4289.018229166667,2049.184879568215,4380.389973958333,2069.134106450774C4471.76171875,2089.0833333333335,4471.76171875,2110.6666666666665,4471.76171875,2130.6666666666665C4471.76171875,2150.6666666666665,4471.76171875,2169.0833333333335,4471.76171875,2184.0416666666665C4471.76171875,2199,4471.76171875,2210.5,4362.722005208333,2224.0225910807135C4253.682291666667,2237.5451821614265,4035.6028645833335,2253.0903643228535,3926.5631510416665,2260.8629554035665L3817.5234375,2268.63554648428" id="edge36" class="transition" marker-end="url(#statediagram-barbEnd)"></path><path d="M4111.9296875,243.78918229889652L4210.042317708333,251.6576519157471C4308.154947916667,259.5261215325977,4504.380208333333,275.26306076629885,4602.492838541667,288.8815303831494C4700.60546875,302.5,4700.60546875,314,4700.60546875,330.5416666666667C4700.60546875,347.0833333333333,4700.60546875,368.6666666666667,4700.60546875,390.25C4700.60546875,411.8333333333333,4700.60546875,433.4166666666667,4700.60546875,449.9583333333333C4700.60546875,466.5,4700.60546875,478,4700.60546875,492.0833333333333C4700.60546875,506.1666666666667,4700.60546875,522.8333333333334,4700.60546875,541.0833333333334C4700.60546875,559.3333333333334,4700.60546875,579.1666666666666,4700.60546875,597.6666666666666C4700.60546875,616.1666666666666,4700.60546875,633.3333333333334,4700.60546875,648.9166666666666C4700.60546875,664.5,4700.60546875,678.5,4700.60546875,691.25C4700.60546875,704,4700.60546875,715.5,4700.60546875,727C4700.60546875,738.5,4700.60546875,750,4700.60546875,764.9583333333334C4700.60546875,779.9166666666666,4700.60546875,798.3333333333334,4700.60546875,818.3333333333334C4700.60546875,838.3333333333334,4700.60546875,859.9166666666666,4700.60546875,881.5C4700.60546875,903.0833333333334,4700.60546875,924.6666666666666,4700.60546875,944.6666666666666C4700.60546875,964.6666666666666,4700.60546875,983.0833333333334,4700.60546875,998.0416666666666C4700.60546875,1013,4700.60546875,1024.5,4700.60546875,1041.0416666666667C4700.60546875,1057.5833333333333,4700.60546875,1079.1666666666667,4700.60546875,1100.75C4700.60546875,1122.3333333333333,4700.60546875,1143.9166666666667,4700.60546875,1160.4583333333333C4700.60546875,1177,4700.60546875,1188.5,4700.60546875,1203.4583333333333C4700.60546875,1218.4166666666667,4700.60546875,1236.8333333333333,4700.60546875,1256.8333333333333C4700.60546875,1276.8333333333333,4700.60546875,1298.4166666666667,4700.60546875,1314.9583333333333C4700.60546875,1331.5,4700.60546875,1343,4700.60546875,1357.9583333333333C4700.60546875,1372.9166666666667,4700.60546875,1391.3333333333333,4700.60546875,1409.75C4700.60546875,1428.1666666666667,4700.60546875,1446.5833333333333,4700.60546875,1461.5416666666667C4700.60546875,1476.5,4700.60546875,1488,4700.60546875,1504.5416666666667C4700.60546875,1521.0833333333333,4700.60546875,1542.6666666666667,4700.60546875,1562.6666666666667C4700.60546875,1582.6666666666667,4700.60546875,1601.0833333333333,4700.60546875,1616.0416666666667C4700.60546875,1631,4700.60546875,1642.5,4700.60546875,1659.0416666666667C4700.60546875,1675.5833333333333,4700.60546875,1697.1666666666667,4700.60546875,1718.75C4700.60546875,1740.3333333333333,4700.60546875,1761.9166666666667,4700.60546875,1783.5C4700.60546875,1805.0833333333333,4700.60546875,1826.6666666666667,4700.60546875,1848.25C4700.60546875,1869.8333333333333,4700.60546875,1891.4166666666667,4700.60546875,1907.9583333333333C4700.60546875,1924.5,4700.60546875,1936,4700.60546875,1950.9583333333333C4700.60546875,1965.9166666666667,4700.60546875,1984.3333333333333,4700.60546875,2004.3333333333333C4700.60546875,2024.3333333333333,4700.60546875,2045.9166666666667,4700.60546875,2067.5C4700.60546875,2089.0833333333335,4700.60546875,2110.6666666666665,4700.60546875,2130.6666666666665C4700.60546875,2150.6666666666665,4700.60546875,2169.0833333333335,4700.60546875,2184.0416666666665C4700.60546875,2199,4700.60546875,2210.5,4553.425130208333,2224.2176174384117C4406.244791666667,2237.935234876823,4111.884114583333,2253.8704697536464,3964.7037760416665,2261.838087192058L3817.5234375,2269.80570463047" id="edge37" class="transition" marker-end="url(#statediagram-barbEnd)"></path><path d="M4036.91015625,401.7852461148687L4131.5234375,410.65437176239055C4226.13671875,419.5234974099124,4415.36328125,437.26174870495623,4509.9765625,451.8808743524781C4604.58984375,466.5,4604.58984375,478,4604.58984375,492.0833333333333C4604.58984375,506.1666666666667,4604.58984375,522.8333333333334,4604.58984375,541.0833333333334C4604.58984375,559.3333333333334,4604.58984375,579.1666666666666,4604.58984375,597.6666666666666C4604.58984375,616.1666666666666,4604.58984375,633.3333333333334,4604.58984375,648.9166666666666C4604.58984375,664.5,4604.58984375,678.5,4604.58984375,691.25C4604.58984375,704,4604.58984375,715.5,4604.58984375,727C4604.58984375,738.5,4604.58984375,750,4604.58984375,764.9583333333334C4604.58984375,779.9166666666666,4604.58984375,798.3333333333334,4604.58984375,818.3333333333334C4604.58984375,838.3333333333334,4604.58984375,859.9166666666666,4604.58984375,881.5C4604.58984375,903.0833333333334,4604.58984375,924.6666666666666,4604.58984375,944.6666666666666C4604.58984375,964.6666666666666,4604.58984375,983.0833333333334,4604.58984375,998.0416666666666C4604.58984375,1013,4604.58984375,1024.5,4604.58984375,1041.0416666666667C4604.58984375,1057.5833333333333,4604.58984375,1079.1666666666667,4604.58984375,1100.75C4604.58984375,1122.3333333333333,4604.58984375,1143.9166666666667,4604.58984375,1160.4583333333333C4604.58984375,1177,4604.58984375,1188.5,4604.58984375,1203.4583333333333C4604.58984375,1218.4166666666667,4604.58984375,1236.8333333333333,4604.58984375,1256.8333333333333C4604.58984375,1276.8333333333333,4604.58984375,1298.4166666666667,4604.58984375,1314.9583333333333C4604.58984375,1331.5,4604.58984375,1343,4604.58984375,1357.9583333333333C4604.58984375,1372.9166666666667,4604.58984375,1391.3333333333333,4604.58984375,1409.75C4604.58984375,1428.1666666666667,4604.58984375,1446.5833333333333,4604.58984375,1461.5416666666667C4604.58984375,1476.5,4604.58984375,1488,4604.58984375,1504.5416666666667C4604.58984375,1521.0833333333333,4604.58984375,1542.6666666666667,4604.58984375,1562.6666666666667C4604.58984375,1582.6666666666667,4604.58984375,1601.0833333333333,4604.58984375,1616.0416666666667C4604.58984375,1631,4604.58984375,1642.5,4604.58984375,1659.0416666666667C4604.58984375,1675.5833333333333,4604.58984375,1697.1666666666667,4604.58984375,1718.75C4604.58984375,1740.3333333333333,4604.58984375,1761.9166666666667,4604.58984375,1783.5C4604.58984375,1805.0833333333333,4604.58984375,1826.6666666666667,4604.58984375,1848.25C4604.58984375,1869.8333333333333,4604.58984375,1891.4166666666667,4604.58984375,1907.9583333333333C4604.58984375,1924.5,4604.58984375,1936,4604.58984375,1950.9583333333333C4604.58984375,1965.9166666666667,4604.58984375,1984.3333333333333,4604.58984375,2004.3333333333333C4604.58984375,2024.3333333333333,4604.58984375,2045.9166666666667,4604.58984375,2067.5C4604.58984375,2089.0833333333335,4604.58984375,2110.6666666666665,4604.58984375,2130.6666666666665C4604.58984375,2150.6666666666665,4604.58984375,2169.0833333333335,4604.58984375,2184.0416666666665C4604.58984375,2199,4604.58984375,2210.5,4473.412109375,2224.1484981206527C4342.234375,2237.796996241306,4079.87890625,2253.593992482611,3948.701171875,2261.492490603264L3817.5234375,2269.3909887239165" id="edge38" class="transition" marker-end="url(#statediagram-barbEnd)"></path><path d="M3881.860241091629,976.5L3894.0143936180243,980.6666666666666C3906.1685461444195,984.8333333333334,3930.4768511972093,993.1666666666666,3942.631003723605,1003.0833333333334C3954.78515625,1013,3954.78515625,1024.5,3954.78515625,1041.0416666666667C3954.78515625,1057.5833333333333,3954.78515625,1079.1666666666667,3954.78515625,1100.75C3954.78515625,1122.3333333333333,3954.78515625,1143.9166666666667,3954.78515625,1160.4583333333333C3954.78515625,1177,3954.78515625,1188.5,3954.78515625,1203.4583333333333C3954.78515625,1218.4166666666667,3954.78515625,1236.8333333333333,3954.78515625,1256.8333333333333C3954.78515625,1276.8333333333333,3954.78515625,1298.4166666666667,3954.78515625,1314.9583333333333C3954.78515625,1331.5,3954.78515625,1343,3954.78515625,1357.9583333333333C3954.78515625,1372.9166666666667,3954.78515625,1391.3333333333333,3954.78515625,1409.75C3954.78515625,1428.1666666666667,3954.78515625,1446.5833333333333,3954.78515625,1461.5416666666667C3954.78515625,1476.5,3954.78515625,1488,3954.78515625,1504.5416666666667C3954.78515625,1521.0833333333333,3954.78515625,1542.6666666666667,3954.78515625,1562.6666666666667C3954.78515625,1582.6666666666667,3954.78515625,1601.0833333333333,3954.78515625,1616.0416666666667C3954.78515625,1631,3954.78515625,1642.5,3954.78515625,1659.0416666666667C3954.78515625,1675.5833333333333,3954.78515625,1697.1666666666667,3954.78515625,1718.75C3954.78515625,1740.3333333333333,3954.78515625,1761.9166666666667,3954.78515625,1783.5C3954.78515625,1805.0833333333333,3954.78515625,1826.6666666666667,3954.78515625,1848.25C3954.78515625,1869.8333333333333,3954.78515625,1891.4166666666667,3813.556640625,1907.9583333333333C3672.328125,1924.5,3389.87109375,1936,3248.642578125,1950.9583333333333C3107.4140625,1965.9166666666667,3107.4140625,1984.3333333333333,3107.4140625,2004.3333333333333C3107.4140625,2024.3333333333333,3107.4140625,2045.9166666666667,2931.5852864583335,2066.674166447258C2755.7565104166665,2087.4316662278497,2404.0989583333335,2107.3633324556995,2228.2701822916665,2117.3291655696244L2052.44140625,2127.2949986835492" id="edge39" class="transition" marker-end="url(#statediagram-barbEnd)"></path><path d="M216.125,1434.75L216.125,1439.7916666666667C216.125,1444.8333333333333,216.125,1454.9166666666667,216.125,1465.7083333333333C216.125,1476.5,216.125,1488,303.447265625,1502.7708209987723C390.76953125,1517.5416419975445,565.4140625,1535.583283995089,652.736328125,1544.6041049938613L740.05859375,1553.6249259926335" class="transition note-edge"></path><path d="M1157.06640625,2027.75L1157.06640625,2034.375C1157.06640625,2041,1157.06640625,2054.25,1277.1549479166667,2070.498990343396C1397.2434895833333,2086.7479806867923,1637.4205729166667,2105.995961373584,1757.5091145833333,2115.6199517169803L1877.59765625,2125.2439420603764" class="transition note-edge"></path><path d="M2478.7578125,564.5L2478.7578125,570.25C2478.7578125,576,2478.7578125,587.5,2513.6236979166665,599.1700967639457C2548.4895833333335,610.8401935278915,2618.2213541666665,622.6803870557831,2653.0872395833335,628.6004838197288L2687.953125,634.5205805836746" class="transition note-edge"></path><path d="M3793.62109375,841.75L3793.62109375,848.375C3793.62109375,855,3793.62109375,868.25,3793.62109375,880.625C3793.62109375,893,3793.62109375,904.5,3793.62109375,910.25L3793.62109375,916" class="transition note-edge"></path><path d="M2035.39453125,1280.25L2035.39453125,1286.875C2035.39453125,1293.5,2035.39453125,1306.75,2035.39453125,1319.125C2035.39453125,1331.5,2035.39453125,1343,2040.7489807220966,1352.9166666666667C2046.103430194193,1362.8333333333333,2056.812329138386,1371.1666666666667,2062.1667786104827,1375.3333333333333L2067.521228082579,1379.5" class="transition note-edge"></path><path d="M3749.28125,2290.5L3749.28125,2294.6666666666665C3749.28125,2298.8333333333335,3749.28125,2307.1666666666665,3244.458268530363,2316.6543702147014C2739.635287060726,2326.1420737627363,1729.989324121453,2336.7841475254722,1225.166342651816,2342.1051844068406L720.343361182179,2347.4262212882086" id="edge40" class="transition" marker-end="url(#statediagram-barbEnd)"></path><path d="M288.40234375,2290.5L288.40234375,2294.6666666666665C288.40234375,2298.8333333333335,288.40234375,2307.1666666666665,358.0625387366811,2316.5790594658965C427.72273372336235,2325.9914522651266,567.0431236967247,2336.482904530253,636.7033186834059,2341.728630662816L706.3635136700871,2346.9743567953797" id="edge41" class="transition" marker-end="url(#statediagram-barbEnd)"></path><path d="M494.07421875,2290.5L494.07421875,2294.6666666666665C494.07421875,2298.8333333333335,494.07421875,2307.1666666666665,529.4647029236764,2316.4981890572526C564.8551870973529,2325.8297114478387,635.6361554447058,2336.159422895677,671.0266396183822,2341.324278619596L706.4171237920586,2346.489134343515" id="edge42" class="transition" marker-end="url(#statediagram-barbEnd)"></path></g><g class="edgeLabels"><g class="edgeLabel"><g class="label" transform="translate(0, 0)"><rect rx="0" ry="0" width="0" height="0" style="fill:#e8e8e8;"></rect><text style=""></text></g></g><g class="edgeLabel"><g class="label" transform="translate(0, 0)"><rect rx="0" ry="0" width="0" height="0" style="fill:#e8e8e8;"></rect><text style=""></text></g></g><g class="edgeLabel" transform="translate(1453.30859375, 165.5)"><g class="label" transform="translate(-68.6875, -9.5)"><rect rx="0" ry="0" width="137.296875" height="19.03125" style="fill:#e8e8e8;"></rect><text style=""><tspan xml:space="preserve" dy="1em" x="0" class="row">ProviderEventOpen</tspan></text></g></g><g class="edgeLabel" transform="translate(3252.66796875, 1100.75)"><g class="label" transform="translate(-98.203125, -9.5)"><rect rx="0" ry="0" width="196.296875" height="19.03125" style="fill:#e8e8e8;"></rect><text style=""><tspan xml:space="preserve" dy="1em" x="0" class="row">ProviderEventDealRejected</tspan></text></g></g><g class="edgeLabel" transform="translate(3390.796875, 1165.5)"><g class="label" transform="translate(-98.203125, -9.5)"><rect rx="0" ry="0" width="196.296875" height="19.03125" style="fill:#e8e8e8;"></rect><text style=""><tspan xml:space="preserve" dy="1em" x="0" class="row">ProviderEventDealRejected</tspan></text></g></g><g class="edgeLabel" transform="translate(2878.80859375, 1409.75)"><g class="label" transform="translate(-98.203125, -9.5)"><rect rx="0" ry="0" width="196.296875" height="19.03125" style="fill:#e8e8e8;"></rect><text style=""><tspan xml:space="preserve" dy="1em" x="0" class="row">ProviderEventDealRejected</tspan></text></g></g><g class="edgeLabel" transform="translate(3308.65625, 2067.5)"><g class="label" transform="translate(-100.25, -9.5)"><rect rx="0" ry="0" width="200.375" height="19.03125" style="fill:#e8e8e8;"></rect><text style=""><tspan xml:space="preserve" dy="1em" x="0" class="row">ProviderEventRejectionSent</tspan></text></g></g><g class="edgeLabel" transform="translate(3913.85546875, 325.5)"><g class="label" transform="translate(-96.5703125, -9.5)"><rect rx="0" ry="0" width="193.03125" height="19.03125" style="fill:#e8e8e8;"></rect><text style=""><tspan xml:space="preserve" dy="1em" x="0" class="row">ProviderEventDealDeciding</tspan></text></g></g><g class="edgeLabel" transform="translate(4058.84765625, 455)"><g class="label" transform="translate(-104.03125, -9.5)"><rect rx="0" ry="0" width="207.9375" height="19.03125" style="fill:#e8e8e8;"></rect><text style=""><tspan xml:space="preserve" dy="1em" x="0" class="row">ProviderEventDataRequested</tspan></text></g></g><g class="edgeLabel" transform="translate(2460.41796875, 1409.75)"><g class="label" transform="translate(-118.4453125, -9.5)"><rect rx="0" ry="0" width="236.75" height="19.03125" style="fill:#e8e8e8;"></rect><text style=""><tspan xml:space="preserve" dy="1em" x="0" class="row">ProviderEventDataTransferFailed</tspan></text></g></g><g class="edgeLabel" transform="translate(2835.6953125, 599)"><g class="label" transform="translate(-127.109375, -9.5)"><rect rx="0" ry="0" width="254.0625" height="19.03125" style="fill:#e8e8e8;"></rect><text style=""><tspan xml:space="preserve" dy="1em" x="0" class="row">ProviderEventDataTransferInitiated</tspan></text></g></g><g class="edgeLabel" transform="translate(3037.4765625, 599)"><g class="label" transform="translate(-54.671875, -9.5)"><rect rx="0" ry="0" width="109.28125" height="19.03125" style="fill:#e8e8e8;"></rect><text style=""><tspan xml:space="preserve" dy="1em" x="0" class="row">&lt;invalid Value&gt;</tspan></text></g></g><g class="edgeLabel" transform="translate(2954.01953125, 727)"><g class="label" transform="translate(-135.4765625, -9.5)"><rect rx="0" ry="0" width="270.78125" height="19.03125" style="fill:#e8e8e8;"></rect><text style=""><tspan xml:space="preserve" dy="1em" x="0" class="row">ProviderEventDataTransferCompleted</tspan></text></g></g><g class="edgeLabel" transform="translate(3029.23046875, 1499.5)"><g class="label" transform="translate(-130.421875, -9.5)"><rect rx="0" ry="0" width="260.6875" height="19.03125" style="fill:#e8e8e8;"></rect><text style=""><tspan xml:space="preserve" dy="1em" x="0" class="row">ProviderEventDataVerificationFailed</tspan></text></g></g><g class="edgeLabel" transform="translate(4058.84765625, 727)"><g class="label" transform="translate(-95.1015625, -9.5)"><rect rx="0" ry="0" width="190.078125" height="19.03125" style="fill:#e8e8e8;"></rect><text style=""><tspan xml:space="preserve" dy="1em" x="0" class="row">ProviderEventVerifiedData</tspan></text></g></g><g class="edgeLabel" transform="translate(3593.16015625, 881.5)"><g class="label" transform="translate(-95.1015625, -9.5)"><rect rx="0" ry="0" width="190.078125" height="19.03125" style="fill:#e8e8e8;"></rect><text style=""><tspan xml:space="preserve" dy="1em" x="0" class="row">ProviderEventVerifiedData</tspan></text></g></g><g class="edgeLabel" transform="translate(3613.16015625, 1036)"><g class="label" transform="translate(-108.6953125, -9.5)"><rect rx="0" ry="0" width="217.265625" height="19.03125" style="fill:#e8e8e8;"></rect><text style=""><tspan xml:space="preserve" dy="1em" x="0" class="row">ProviderEventFundingInitiated</tspan></text></g></g><g class="edgeLabel" transform="translate(3839.16796875, 1100.75)"><g class="label" transform="translate(-76.3203125, -9.5)"><rect rx="0" ry="0" width="152.546875" height="19.03125" style="fill:#e8e8e8;"></rect><text style=""><tspan xml:space="preserve" dy="1em" x="0" class="row">ProviderEventFunded</tspan></text></g></g><g class="edgeLabel" transform="translate(3613.16015625, 1165.5)"><g class="label" transform="translate(-76.3203125, -9.5)"><rect rx="0" ry="0" width="152.546875" height="19.03125" style="fill:#e8e8e8;"></rect><text style=""><tspan xml:space="preserve" dy="1em" x="0" class="row">ProviderEventFunded</tspan></text></g></g><g class="edgeLabel" transform="translate(2177.39453125, 1320)"><g class="label" transform="translate(-122, -9.5)"><rect rx="0" ry="0" width="243.859375" height="19.03125" style="fill:#e8e8e8;"></rect><text style=""><tspan xml:space="preserve" dy="1em" x="0" class="row">ProviderEventDealPublishInitiated</tspan></text></g></g><g class="edgeLabel" transform="translate(2096.39453125, 1783.5)"><g class="label" transform="translate(-109.3828125, -9.5)"><rect rx="0" ry="0" width="218.625" height="19.03125" style="fill:#e8e8e8;"></rect><text style=""><tspan xml:space="preserve" dy="1em" x="0" class="row">ProviderEventDealPublishError</tspan></text></g></g><g class="edgeLabel" transform="translate(3550.890625, 2067.5)"><g class="label" transform="translate(-121.984375, -9.5)"><rect rx="0" ry="0" width="243.828125" height="19.03125" style="fill:#e8e8e8;"></rect><text style=""><tspan xml:space="preserve" dy="1em" x="0" class="row">ProviderEventSendResponseFailed</tspan></text></g></g><g class="edgeLabel" transform="translate(4200.12109375, 1255.25)"><g class="label" transform="translate(-121.984375, -9.5)"><rect rx="0" ry="0" width="243.828125" height="19.03125" style="fill:#e8e8e8;"></rect><text style=""><tspan xml:space="preserve" dy="1em" x="0" class="row">ProviderEventSendResponseFailed</tspan></text></g></g><g class="edgeLabel" transform="translate(976.23828125, 1499.5)"><g class="label" transform="translate(-100.296875, -9.5)"><rect rx="0" ry="0" width="200.46875" height="19.03125" style="fill:#e8e8e8;"></rect><text style=""><tspan xml:space="preserve" dy="1em" x="0" class="row">ProviderEventDealPublished</tspan></text></g></g><g class="edgeLabel" transform="translate(132.0625, 1848.25)"><g class="label" transform="translate(-108.8203125, -9.5)"><rect rx="0" ry="0" width="217.5" height="19.03125" style="fill:#e8e8e8;"></rect><text style=""><tspan xml:space="preserve" dy="1em" x="0" class="row">ProviderEventFileStoreErrored</tspan></text></g></g><g class="edgeLabel" transform="translate(773.515625, 1913)"><g class="label" transform="translate(-108.8203125, -9.5)"><rect rx="0" ry="0" width="217.5" height="19.03125" style="fill:#e8e8e8;"></rect><text style=""><tspan xml:space="preserve" dy="1em" x="0" class="row">ProviderEventFileStoreErrored</tspan></text></g></g><g class="edgeLabel" transform="translate(1028.24609375, 2067.5)"><g class="label" transform="translate(-108.8203125, -9.5)"><rect rx="0" ry="0" width="217.5" height="19.03125" style="fill:#e8e8e8;"></rect><text style=""><tspan xml:space="preserve" dy="1em" x="0" class="row">ProviderEventFileStoreErrored</tspan></text></g></g><g class="edgeLabel" transform="translate(373.75, 1848.25)"><g class="label" transform="translate(-112.8671875, -9.5)"><rect rx="0" ry="0" width="225.59375" height="19.03125" style="fill:#e8e8e8;"></rect><text style=""><tspan xml:space="preserve" dy="1em" x="0" class="row">ProviderEventMultistoreErrored</tspan></text></g></g><g class="edgeLabel" transform="translate(622.890625, 1848.25)"><g class="label" transform="translate(-116.2734375, -9.5)"><rect rx="0" ry="0" width="232.40625" height="19.03125" style="fill:#e8e8e8;"></rect><text style=""><tspan xml:space="preserve" dy="1em" x="0" class="row">ProviderEventDealHandoffFailed</tspan></text></g></g><g class="edgeLabel" transform="translate(1054.46875, 1654)"><g class="label" transform="translate(-104.3671875, -9.5)"><rect rx="0" ry="0" width="208.609375" height="19.03125" style="fill:#e8e8e8;"></rect><text style=""><tspan xml:space="preserve" dy="1em" x="0" class="row">ProviderEventDealHandedOff</tspan></text></g></g><g class="edgeLabel" transform="translate(1026.5078125, 1913)"><g class="label" transform="translate(-124.171875, -9.5)"><rect rx="0" ry="0" width="248.1875" height="19.03125" style="fill:#e8e8e8;"></rect><text style=""><tspan xml:space="preserve" dy="1em" x="0" class="row">ProviderEventDealActivationFailed</tspan></text></g></g><g class="edgeLabel" transform="translate(1279.2578125, 1783.5)"><g class="label" transform="translate(-100.1796875, -9.5)"><rect rx="0" ry="0" width="200.25" height="19.03125" style="fill:#e8e8e8;"></rect><text style=""><tspan xml:space="preserve" dy="1em" x="0" class="row">ProviderEventDealActivated</tspan></text></g></g><g class="edgeLabel" transform="translate(1279.2578125, 1913)"><g class="label" transform="translate(-108.578125, -9.5)"><rect rx="0" ry="0" width="217.015625" height="19.03125" style="fill:#e8e8e8;"></rect><text style=""><tspan xml:space="preserve" dy="1em" x="0" class="row">ProviderEventCleanupFinished</tspan></text></g></g><g class="edgeLabel" transform="translate(288.40234375, 2132.25)"><g class="label" transform="translate(-92.7734375, -9.5)"><rect rx="0" ry="0" width="185.4375" height="19.03125" style="fill:#e8e8e8;"></rect><text style=""><tspan xml:space="preserve" dy="1em" x="0" class="row">ProviderEventDealSlashed</tspan></text></g></g><g class="edgeLabel" transform="translate(494.07421875, 2132.25)"><g class="label" transform="translate(-92.8984375, -9.5)"><rect rx="0" ry="0" width="185.6875" height="19.03125" style="fill:#e8e8e8;"></rect><text style=""><tspan xml:space="preserve" dy="1em" x="0" class="row">ProviderEventDealExpired</tspan></text></g></g><g class="edgeLabel" transform="translate(735.78515625, 2132.25)"><g class="label" transform="translate(-128.8125, -9.5)"><rect rx="0" ry="0" width="257.46875" height="19.03125" style="fill:#e8e8e8;"></rect><text style=""><tspan xml:space="preserve" dy="1em" x="0" class="row">ProviderEventDealCompletionFailed</tspan></text></g></g><g class="edgeLabel" transform="translate(1965.01953125, 2222)"><g class="label" transform="translate(-71.96875, -9.5)"><rect rx="0" ry="0" width="143.84375" height="19.03125" style="fill:#e8e8e8;"></rect><text style=""><tspan xml:space="preserve" dy="1em" x="0" class="row">ProviderEventFailed</tspan></text></g></g><g class="edgeLabel" transform="translate(4471.76171875, 2132.25)"><g class="label" transform="translate(-76.015625, -9.5)"><rect rx="0" ry="0" width="151.9375" height="19.03125" style="fill:#e8e8e8;"></rect><text style=""><tspan xml:space="preserve" dy="1em" x="0" class="row">ProviderEventRestart</tspan></text></g></g><g class="edgeLabel" transform="translate(4700.60546875, 1255.25)"><g class="label" transform="translate(-76.015625, -9.5)"><rect rx="0" ry="0" width="151.9375" height="19.03125" style="fill:#e8e8e8;"></rect><text style=""><tspan xml:space="preserve" dy="1em" x="0" class="row">ProviderEventRestart</tspan></text></g></g><g class="edgeLabel" transform="translate(4604.58984375, 1320)"><g class="label" transform="translate(-76.015625, -9.5)"><rect rx="0" ry="0" width="151.9375" height="19.03125" style="fill:#e8e8e8;"></rect><text style=""><tspan xml:space="preserve" dy="1em" x="0" class="row">ProviderEventRestart</tspan></text></g></g><g class="edgeLabel" transform="translate(3954.78515625, 1564.25)"><g class="label" transform="translate(-112.5546875, -9.5)"><rect rx="0" ry="0" width="224.984375" height="19.03125" style="fill:#e8e8e8;"></rect><text style=""><tspan xml:space="preserve" dy="1em" x="0" class="row">ProviderEventTrackFundsFailed</tspan></text></g></g><g class="edgeLabel"><g class="label" transform="translate(0, 0)"><rect rx="0" ry="0" width="0" height="0" style="fill:#e8e8e8;"></rect><text style=""></text></g></g><g class="edgeLabel"><g class="label" transform="translate(0, 0)"><rect rx="0" ry="0" width="0" height="0" style="fill:#e8e8e8;"></rect><text style=""></text></g></g><g class="edgeLabel"><g class="label" transform="translate(0, 0)"><rect rx="0" ry="0" width="0" height="0" style="fill:#e8e8e8;"></rect><text style=""></text></g></g><g class="edgeLabel"><g class="label" transform="translate(0, 0)"><rect rx="0" ry="0" width="0" height="0" style="fill:#e8e8e8;"></rect><text style=""></text></g></g><g class="edgeLabel"><g class="label" transform="translate(0, 0)"><rect rx="0" ry="0" width="0" height="0" style="fill:#e8e8e8;"></rect><text style=""></text></g></g><g class="edgeLabel"><g class="label" transform="translate(0, 0)"><rect rx="0" ry="0" width="0" height="0" style="fill:#e8e8e8;"></rect><text style=""></text></g></g><g class="edgeLabel"><g class="label" transform="translate(0, 0)"><rect rx="0" ry="0" width="0" height="0" style="fill:#e8e8e8;"></rect><text style=""></text></g></g><g class="edgeLabel"><g class="label" transform="translate(0, 0)"><rect rx="0" ry="0" width="0" height="0" style="fill:#e8e8e8;"></rect><text style=""></text></g></g></g><g class="nodes"><g class="node statediagram-state" id="0" transform="translate(1342.62890625, 114)"><rect class="outer title-state" x="-82.921875" y="-17" width="165.84375" height="34"></rect><line class="divider" x1="-82.921875" x2="82.921875" y1="9.5" y2="9.5"></line><g class="label" transform="translate(-75.421875, -14)"><text style=""><tspan xml:space="preserve" dy="1em" x="0" class="title-row">StorageDealUnknown</tspan></text><text style="" transform="translate( 0, 26.5)"><tspan xml:space="preserve" dy="1em" x="0" class="title-row"></tspan></text></g></g><g class="node statediagram-state" id="4" transform="translate(842.91015625, 1564.25)"><rect class="outer title-state" x="-102.8515625" y="-30.25" width="205.703125" height="60.5"></rect><line class="divider" x1="-102.8515625" x2="102.8515625" y1="-3.75" y2="-3.75"></line><g class="label" transform="translate(-95.3515625, -27.25)"><text style=""><tspan xml:space="preserve" dy="1em" x="0" class="title-row">StorageDealStaged</tspan></text><text style="" transform="translate( 0, 26.5)"><tspan xml:space="preserve" dy="1em" x="0" class="title-row">On entry runs HandoffDeal</tspan></text></g></g><g class="node statediagram-state" id="5" transform="translate(1054.46875, 1718.75)"><rect class="outer title-state" x="-129.9765625" y="-30.25" width="259.953125" height="60.5"></rect><line class="divider" x1="-129.9765625" x2="129.9765625" y1="-3.75" y2="-3.75"></line><g class="label" transform="translate(-122.4765625, -27.25)"><text style=""><tspan xml:space="preserve" dy="1em" x="0" class="title-row">StorageDealSealing</tspan></text><text style="" transform="translate( 0, 26.5)"><tspan xml:space="preserve" dy="1em" x="0" class="title-row">On entry runs VerifyDealActivated</tspan></text></g></g><g class="node statediagram-state" id="6" transform="translate(1279.2578125, 1848.25)"><rect class="outer title-state" x="-103.2890625" y="-30.25" width="206.578125" height="60.5"></rect><line class="divider" x1="-103.2890625" x2="103.2890625" y1="-3.75" y2="-3.75"></line><g class="label" transform="translate(-95.7890625, -27.25)"><text style=""><tspan xml:space="preserve" dy="1em" x="0" class="title-row">StorageDealFinalizing</tspan></text><text style="" transform="translate( 0, 26.5)"><tspan xml:space="preserve" dy="1em" x="0" class="title-row">On entry runs CleanupDeal</tspan></text></g></g><g class="node statediagram-state" id="7" transform="translate(614.9296875, 2002.75)"><rect class="outer title-state" x="-143.46875" y="-30.25" width="286.9375" height="60.5"></rect><line class="divider" x1="-143.46875" x2="143.46875" y1="-3.75" y2="-3.75"></line><g class="label" transform="translate(-135.96875, -27.25)"><text style=""><tspan xml:space="preserve" dy="1em" x="0" class="title-row">StorageDealActive</tspan></text><text style="" transform="translate( 0, 26.5)"><tspan xml:space="preserve" dy="1em" x="0" class="title-row">On entry runs WaitForDealCompletion</tspan></text></g></g><g class="node statediagram-state" id="8" transform="translate(494.07421875, 2273.5)"><rect class="outer title-state" x="-77.296875" y="-17" width="154.59375" height="34"></rect><line class="divider" x1="-77.296875" x2="77.296875" y1="9.5" y2="9.5"></line><g class="label" transform="translate(-69.796875, -14)"><text style=""><tspan xml:space="preserve" dy="1em" x="0" class="title-row">StorageDealExpired</tspan></text><text style="" transform="translate( 0, 26.5)"><tspan xml:space="preserve" dy="1em" x="0" class="title-row"></tspan></text></g></g><g class="node statediagram-state" id="9" transform="translate(288.40234375, 2273.5)"><rect class="outer title-state" x="-77.1796875" y="-17" width="154.359375" height="34"></rect><line class="divider" x1="-77.1796875" x2="77.1796875" y1="9.5" y2="9.5"></line><g class="label" transform="translate(-69.6796875, -14)"><text style=""><tspan xml:space="preserve" dy="1em" x="0" class="title-row">StorageDealSlashed</tspan></text><text style="" transform="translate( 0, 26.5)"><tspan xml:space="preserve" dy="1em" x="0" class="title-row"></tspan></text></g></g><g class="node statediagram-state" id="10" transform="translate(3825.703125, 2002.75)"><rect class="outer title-state" x="-97.828125" y="-30.25" width="195.65625" height="60.5"></rect><line class="divider" x1="-97.828125" x2="97.828125" y1="-3.75" y2="-3.75"></line><g class="label" transform="translate(-90.328125, -27.25)"><text style=""><tspan xml:space="preserve" dy="1em" x="0" class="title-row">StorageDealRejecting</tspan></text><text style="" transform="translate( 0, 26.5)"><tspan xml:space="preserve" dy="1em" x="0" class="title-row">On entry runs RejectDeal</tspan></text></g></g><g class="node statediagram-state" id="11" transform="translate(1965.01953125, 2132.25)"><rect class="outer title-state" x="-87.421875" y="-30.25" width="174.84375" height="60.5"></rect><line class="divider" x1="-87.421875" x2="87.421875" y1="-3.75" y2="-3.75"></line><g class="label" transform="translate(-79.921875, -27.25)"><text style=""><tspan xml:space="preserve" dy="1em" x="0" class="title-row">StorageDealFailing</tspan></text><text style="" transform="translate( 0, 26.5)"><tspan xml:space="preserve" dy="1em" x="0" class="title-row">On entry runs FailDeal</tspan></text></g></g><g class="node statediagram-state" id="14" transform="translate(3977.3984375, 233)"><rect class="outer title-state" x="-134.53125" y="-30.25" width="269.0625" height="60.5"></rect><line class="divider" x1="-134.53125" x2="134.53125" y1="-3.75" y2="-3.75"></line><g class="label" transform="translate(-127.03125, -27.25)"><text style=""><tspan xml:space="preserve" dy="1em" x="0" class="title-row">StorageDealValidating</tspan></text><text style="" transform="translate( 0, 26.5)"><tspan xml:space="preserve" dy="1em" x="0" class="title-row">On entry runs ValidateDealProposal</tspan></text></g></g><g class="node statediagram-state" id="15" transform="translate(3913.85546875, 390.25)"><rect class="outer title-state" x="-123.0546875" y="-30.25" width="246.109375" height="60.5"></rect><line class="divider" x1="-123.0546875" x2="123.0546875" y1="-3.75" y2="-3.75"></line><g class="label" transform="translate(-115.5546875, -27.25)"><text style=""><tspan xml:space="preserve" dy="1em" x="0" class="title-row">StorageDealAcceptWait</tspan></text><text style="" transform="translate( 0, 26.5)"><tspan xml:space="preserve" dy="1em" x="0" class="title-row">On entry runs DecideOnProposal</tspan></text></g></g><g class="node statediagram-state" id="17" transform="translate(2782.0625, 650.5)"><rect class="outer title-state" x="-94.109375" y="-17" width="188.21875" height="34"></rect><line class="divider" x1="-94.109375" x2="94.109375" y1="9.5" y2="9.5"></line><g class="label" transform="translate(-86.609375, -14)"><text style=""><tspan xml:space="preserve" dy="1em" x="0" class="title-row">StorageDealTransferring</tspan></text><text style="" transform="translate( 0, 26.5)"><tspan xml:space="preserve" dy="1em" x="0" class="title-row"></tspan></text></g></g><g class="node statediagram-state" id="19" transform="translate(4058.84765625, 539.5)"><rect class="outer title-state" x="-105.5625" y="-17" width="211.125" height="34"></rect><line class="divider" x1="-105.5625" x2="105.5625" y1="9.5" y2="9.5"></line><g class="label" transform="translate(-98.0625, -14)"><text style=""><tspan xml:space="preserve" dy="1em" x="0" class="title-row">StorageDealWaitingForData</tspan></text><text style="" transform="translate( 0, 26.5)"><tspan xml:space="preserve" dy="1em" x="0" class="title-row"></tspan></text></g></g><g class="node statediagram-state" id="20" transform="translate(2954.01953125, 816.75)"><rect class="outer title-state" x="-96.3828125" y="-30.25" width="192.765625" height="60.5"></rect><line class="divider" x1="-96.3828125" x2="96.3828125" y1="-3.75" y2="-3.75"></line><g class="label" transform="translate(-88.8828125, -27.25)"><text style=""><tspan xml:space="preserve" dy="1em" x="0" class="title-row">StorageDealVerifyData</tspan></text><text style="" transform="translate( 0, 26.5)"><tspan xml:space="preserve" dy="1em" x="0" class="title-row">On entry runs VerifyData</tspan></text></g></g><g class="node statediagram-state" id="21" transform="translate(3793.62109375, 946.25)"><rect class="outer title-state" x="-132.9140625" y="-30.25" width="265.828125" height="60.5"></rect><line class="divider" x1="-132.9140625" x2="132.9140625" y1="-3.75" y2="-3.75"></line><g class="label" transform="translate(-125.4140625, -27.25)"><text style=""><tspan xml:space="preserve" dy="1em" x="0" class="title-row">StorageDealEnsureProviderFunds</tspan></text><text style="" transform="translate( 0, 26.5)"><tspan xml:space="preserve" dy="1em" x="0" class="title-row">On entry runs EnsureProviderFunds</tspan></text></g></g><g class="node statediagram-state" id="23" transform="translate(3613.16015625, 1100.75)"><rect class="outer title-state" x="-114.6875" y="-30.25" width="229.375" height="60.5"></rect><line class="divider" x1="-114.6875" x2="114.6875" y1="-3.75" y2="-3.75"></line><g class="label" transform="translate(-107.1875, -27.25)"><text style=""><tspan xml:space="preserve" dy="1em" x="0" class="title-row">StorageDealProviderFunding</tspan></text><text style="" transform="translate( 0, 26.5)"><tspan xml:space="preserve" dy="1em" x="0" class="title-row">On entry runs WaitForFunding</tspan></text></g></g><g class="node statediagram-state" id="25" transform="translate(3726.1640625, 1255.25)"><rect class="outer title-state" x="-99.9140625" y="-30.25" width="199.828125" height="60.5"></rect><line class="divider" x1="-99.9140625" x2="99.9140625" y1="-3.75" y2="-3.75"></line><g class="label" transform="translate(-92.4140625, -27.25)"><text style=""><tspan xml:space="preserve" dy="1em" x="0" class="title-row">StorageDealPublish</tspan></text><text style="" transform="translate( 0, 26.5)"><tspan xml:space="preserve" dy="1em" x="0" class="title-row">On entry runs PublishDeal</tspan></text></g></g><g class="node statediagram-state" id="26" transform="translate(2106.39453125, 1409.75)"><rect class="outer title-state" x="-112.15625" y="-30.25" width="224.3125" height="60.5"></rect><line class="divider" x1="-112.15625" x2="112.15625" y1="-3.75" y2="-3.75"></line><g class="label" transform="translate(-104.65625, -27.25)"><text style=""><tspan xml:space="preserve" dy="1em" x="0" class="title-row">StorageDealPublishing</tspan></text><text style="" transform="translate( 0, 26.5)"><tspan xml:space="preserve" dy="1em" x="0" class="title-row">On entry runs WaitForPublish</tspan></text></g></g><g class="node statediagram-state" id="27" transform="translate(3749.28125, 2273.5)"><rect class="outer title-state" x="-68.2421875" y="-17" width="136.484375" height="34"></rect><line class="divider" x1="-68.2421875" x2="68.2421875" y1="9.5" y2="9.5"></line><g class="label" transform="translate(-60.7421875, -14)"><text style=""><tspan xml:space="preserve" dy="1em" x="0" class="title-row">StorageDealError</tspan></text><text style="" transform="translate( 0, 26.5)"><tspan xml:space="preserve" dy="1em" x="0" class="title-row"></tspan></text></g></g><g class="node default" id="root_start" transform="translate(1342.62890625, 15)"><circle class="state-start" r="7" width="14" height="14"></circle></g><g class="node statediagram-note" id="0----note" transform="translate(1298.28515625, 233)"><rect x="-275.046875" y="-33" width="550.09375" height="66"></rect><g class="label" transform="translate(-267.546875, -25.5)"><text style=""><tspan xml:space="preserve" dy="1em" x="0" class="row">The following events are not shown cause they can trigger from any state.</tspan><tspan xml:space="preserve" dy="1em" x="0" class="row"></tspan><tspan xml:space="preserve" dy="1em" x="0" class="row">ProviderEventNodeErrored - transitions state to StorageDealFailing</tspan><tspan xml:space="preserve" dy="1em" x="0" class="row">ProviderEventRestart - does not transition state</tspan></text></g></g><g class="node statediagram-note" id="4----note" transform="translate(216.125, 1409.75)"><rect x="-173.125" y="-25" width="346.25" height="50"></rect><g class="label" transform="translate(-165.625, -17.5)"><text style=""><tspan xml:space="preserve" dy="1em" x="0" class="row">The following events only record in this state.</tspan><tspan xml:space="preserve" dy="1em" x="0" class="row"></tspan><tspan xml:space="preserve" dy="1em" x="0" class="row">ProviderEventPieceStoreErrored</tspan></text></g></g><g class="node statediagram-note" id="11----note" transform="translate(1157.06640625, 2002.75)"><rect x="-173.125" y="-25" width="346.25" height="50"></rect><g class="label" transform="translate(-165.625, -17.5)"><text style=""><tspan xml:space="preserve" dy="1em" x="0" class="row">The following events only record in this state.</tspan><tspan xml:space="preserve" dy="1em" x="0" class="row"></tspan><tspan xml:space="preserve" dy="1em" x="0" class="row">ProviderEventFundsReleased</tspan></text></g></g><g class="node statediagram-note" id="17----note" transform="translate(2478.7578125, 539.5)"><rect x="-173.125" y="-25" width="346.25" height="50"></rect><g class="label" transform="translate(-165.625, -17.5)"><text style=""><tspan xml:space="preserve" dy="1em" x="0" class="row">The following events only record in this state.</tspan><tspan xml:space="preserve" dy="1em" x="0" class="row"></tspan><tspan xml:space="preserve" dy="1em" x="0" class="row">&lt;invalid reflect.Value&gt;</tspan></text></g></g><g class="node statediagram-note" id="21----note" transform="translate(3793.62109375, 816.75)"><rect x="-173.125" y="-25" width="346.25" height="50"></rect><g class="label" transform="translate(-165.625, -17.5)"><text style=""><tspan xml:space="preserve" dy="1em" x="0" class="row">The following events only record in this state.</tspan><tspan xml:space="preserve" dy="1em" x="0" class="row"></tspan><tspan xml:space="preserve" dy="1em" x="0" class="row">ProviderEventFundsReserved</tspan></text></g></g><g class="node statediagram-note" id="26----note" transform="translate(2035.39453125, 1255.25)"><rect x="-173.125" y="-25" width="346.25" height="50"></rect><g class="label" transform="translate(-165.625, -17.5)"><text style=""><tspan xml:space="preserve" dy="1em" x="0" class="row">The following events only record in this state.</tspan><tspan xml:space="preserve" dy="1em" x="0" class="row"></tspan><tspan xml:space="preserve" dy="1em" x="0" class="row">ProviderEventFundsReleased</tspan></text></g></g><g class="node default" id="root_end" transform="translate(713.34375, 2347.5)"><circle class="state-start" r="7" width="14" height="14"></circle><circle class="state-end" r="5" width="10" height="10"></circle></g></g></g></g></svg>