<svg id="mermaid-1593048001631" width="2766.84375" xmlns="http://www.w3.org/2000/svg" class="statediagram" height="1475.5" viewBox="0 0 2766.84375 1475.5"><style>#mermaid-1593048001631 .label{font-family:'trebuchet ms', verdana, arial;font-family:var(--mermaid-font-family);color:#333}#mermaid-1593048001631 .label text{fill:#333}#mermaid-1593048001631 .node rect,#mermaid-1593048001631 .node circle,#mermaid-1593048001631 .node ellipse,#mermaid-1593048001631 .node polygon,#mermaid-1593048001631 .node path{fill:#ECECFF;stroke:#9370db;stroke-width:1px}#mermaid-1593048001631 .node .label{text-align:center}#mermaid-1593048001631 .node.clickable{cursor:pointer}#mermaid-1593048001631 .arrowheadPath{fill:#333}#mermaid-1593048001631 .edgePath .path{stroke:#333;stroke-width:1.5px}#mermaid-1593048001631 .edgeLabel{background-color:#e8e8e8;text-align:center}#mermaid-1593048001631 .edgeLabel rect{opacity:0.5}#mermaid-1593048001631 .cluster rect{fill:#ffffde;stroke:#aa3;stroke-width:1px}#mermaid-1593048001631 .cluster text{fill:#333}#mermaid-1593048001631 div.mermaidTooltip{position:absolute;text-align:center;max-width:200px;padding:2px;font-family:'trebuchet ms', verdana, arial;font-family:var(--mermaid-font-family);font-size:12px;background:#ffffde;border:1px solid #aa3;border-radius:2px;pointer-events:none;z-index:100}#mermaid-1593048001631 .actor{stroke:#ccf;fill:#ECECFF}#mermaid-1593048001631 text.actor{fill:#000;stroke:none}#mermaid-1593048001631 .actor-line{stroke:grey}#mermaid-1593048001631 .messageLine0{stroke-width:1.5;stroke-dasharray:'2 2';stroke:#333}#mermaid-1593048001631 .messageLine1{stroke-width:1.5;stroke-dasharray:'2 2';stroke:#333}#mermaid-1593048001631 #arrowhead{fill:#333}#mermaid-1593048001631 .sequenceNumber{fill:#fff}#mermaid-1593048001631 #sequencenumber{fill:#333}#mermaid-1593048001631 #crosshead path{fill:#333 !important;stroke:#333 !important}#mermaid-1593048001631 .messageText{fill:#333;stroke:none}#mermaid-1593048001631 .labelBox{stroke:#ccf;fill:#ECECFF}#mermaid-1593048001631 .labelText{fill:#000;stroke:none}#mermaid-1593048001631 .loopText{fill:#000;stroke:none}#mermaid-1593048001631 .loopLine{stroke-width:2;stroke-dasharray:'2 2';stroke:#ccf}#mermaid-1593048001631 .note{stroke:#aa3;fill:#fff5ad}#mermaid-1593048001631 .noteText{fill:black;stroke:none;font-family:'trebuchet ms', verdana, arial;font-family:var(--mermaid-font-family);font-size:14px}#mermaid-1593048001631 .activation0{fill:#f4f4f4;stroke:#666}#mermaid-1593048001631 .activation1{fill:#f4f4f4;stroke:#666}#mermaid-1593048001631 .activation2{fill:#f4f4f4;stroke:#666}#mermaid-1593048001631 .mermaid-main-font{font-family:"trebuchet ms", verdana, arial;font-family:var(--mermaid-font-family)}#mermaid-1593048001631 .section{stroke:none;opacity:0.2}#mermaid-1593048001631 .section0{fill:rgba(102,102,255,0.49)}#mermaid-1593048001631 .section2{fill:#fff400}#mermaid-1593048001631 .section1,#mermaid-1593048001631 .section3{fill:#fff;opacity:0.2}#mermaid-1593048001631 .sectionTitle0{fill:#333}#mermaid-1593048001631 .sectionTitle1{fill:#333}#mermaid-1593048001631 .sectionTitle2{fill:#333}#mermaid-1593048001631 .sectionTitle3{fill:#333}#mermaid-1593048001631 .sectionTitle{text-anchor:start;font-size:11px;text-height:14px;font-family:'trebuchet ms', verdana, arial;font-family:var(--mermaid-font-family)}#mermaid-1593048001631 .grid .tick{stroke:#d3d3d3;opacity:0.8;shape-rendering:crispEdges}#mermaid-1593048001631 .grid .tick text{font-family:'trebuchet ms', verdana, arial;font-family:var(--mermaid-font-family)}#mermaid-1593048001631 .grid path{stroke-width:0}#mermaid-1593048001631 .today{fill:none;stroke:red;stroke-width:2px}#mermaid-1593048001631 .task{stroke-width:2}#mermaid-1593048001631 .taskText{text-anchor:middle;font-family:'trebuchet ms', verdana, arial;font-family:var(--mermaid-font-family)}#mermaid-1593048001631 .taskText:not([font-size]){font-size:11px}#mermaid-1593048001631 .taskTextOutsideRight{fill:#000;text-anchor:start;font-size:11px;font-family:'trebuchet ms', verdana, arial;font-family:var(--mermaid-font-family)}#mermaid-1593048001631 .taskTextOutsideLeft{fill:#000;text-anchor:end;font-size:11px}#mermaid-1593048001631 .task.clickable{cursor:pointer}#mermaid-1593048001631 .taskText.clickable{cursor:pointer;fill:#003163 !important;font-weight:bold}#mermaid-1593048001631 .taskTextOutsideLeft.clickable{cursor:pointer;fill:#003163 !important;font-weight:bold}#mermaid-1593048001631 .taskTextOutsideRight.clickable{cursor:pointer;fill:#003163 !important;font-weight:bold}#mermaid-1593048001631 .taskText0,#mermaid-1593048001631 .taskText1,#mermaid-1593048001631 .taskText2,#mermaid-1593048001631 .taskText3{fill:#fff}#mermaid-1593048001631 .task0,#mermaid-1593048001631 .task1,#mermaid-1593048001631 .task2,#mermaid-1593048001631 .task3{fill:#8a90dd;stroke:#534fbc}#mermaid-1593048001631 .taskTextOutside0,#mermaid-1593048001631 .taskTextOutside2{fill:#000}#mermaid-1593048001631 .taskTextOutside1,#mermaid-1593048001631 .taskTextOutside3{fill:#000}#mermaid-1593048001631 .active0,#mermaid-1593048001631 .active1,#mermaid-1593048001631 .active2,#mermaid-1593048001631 .active3{fill:#bfc7ff;stroke:#534fbc}#mermaid-1593048001631 .activeText0,#mermaid-1593048001631 .activeText1,#mermaid-1593048001631 .activeText2,#mermaid-1593048001631 .activeText3{fill:#000 !important}#mermaid-1593048001631 .done0,#mermaid-1593048001631 .done1,#mermaid-1593048001631 .done2,#mermaid-1593048001631 .done3{stroke:grey;fill:#d3d3d3;stroke-width:2}#mermaid-1593048001631 .doneText0,#mermaid-1593048001631 .doneText1,#mermaid-1593048001631 .doneText2,#mermaid-1593048001631 .doneText3{fill:#000 !important}#mermaid-1593048001631 .crit0,#mermaid-1593048001631 .crit1,#mermaid-1593048001631 .crit2,#mermaid-1593048001631 .crit3{stroke:#f88;fill:red;stroke-width:2}#mermaid-1593048001631 .activeCrit0,#mermaid-1593048001631 .activeCrit1,#mermaid-1593048001631 .activeCrit2,#mermaid-1593048001631 .activeCrit3{stroke:#f88;fill:#bfc7ff;stroke-width:2}#mermaid-1593048001631 .doneCrit0,#mermaid-1593048001631 .doneCrit1,#mermaid-1593048001631 .doneCrit2,#mermaid-1593048001631 .doneCrit3{stroke:#f88;fill:#d3d3d3;stroke-width:2;cursor:pointer;shape-rendering:crispEdges}#mermaid-1593048001631 .milestone{transform:rotate(45deg) scale(0.8, 0.8)}#mermaid-1593048001631 .milestoneText{font-style:italic}#mermaid-1593048001631 .doneCritText0,#mermaid-1593048001631 .doneCritText1,#mermaid-1593048001631 .doneCritText2,#mermaid-1593048001631 .doneCritText3{fill:#000 !important}#mermaid-1593048001631 .activeCritText0,#mermaid-1593048001631 .activeCritText1,#mermaid-1593048001631 .activeCritText2,#mermaid-1593048001631 .activeCritText3{fill:#000 !important}#mermaid-1593048001631 .titleText{text-anchor:middle;font-size:18px;fill:#000;font-family:'trebuchet ms', verdana, arial;font-family:var(--mermaid-font-family)}#mermaid-1593048001631 g.classGroup text{fill:#9370db;stroke:none;font-family:'trebuchet ms', verdana, arial;font-family:var(--mermaid-font-family);font-size:10px}#mermaid-1593048001631 g.classGroup text .title{font-weight:bolder}#mermaid-1593048001631 g.clickable{cursor:pointer}#mermaid-1593048001631 g.classGroup rect{fill:#ECECFF;stroke:#9370db}#mermaid-1593048001631 g.classGroup line{stroke:#9370db;stroke-width:1}#mermaid-1593048001631 .classLabel .box{stroke:none;stroke-width:0;fill:#ECECFF;opacity:0.5}#mermaid-1593048001631 .classLabel .label{fill:#9370db;font-size:10px}#mermaid-1593048001631 .relation{stroke:#9370db;stroke-width:1;fill:none}#mermaid-1593048001631 .dashed-line{stroke-dasharray:3}#mermaid-1593048001631 #compositionStart{fill:#9370db;stroke:#9370db;stroke-width:1}#mermaid-1593048001631 #compositionEnd{fill:#9370db;stroke:#9370db;stroke-width:1}#mermaid-1593048001631 #aggregationStart{fill:#ECECFF;stroke:#9370db;stroke-width:1}#mermaid-1593048001631 #aggregationEnd{fill:#ECECFF;stroke:#9370db;stroke-width:1}#mermaid-1593048001631 #dependencyStart{fill:#9370db;stroke:#9370db;stroke-width:1}#mermaid-1593048001631 #dependencyEnd{fill:#9370db;stroke:#9370db;stroke-width:1}#mermaid-1593048001631 #extensionStart{fill:#9370db;stroke:#9370db;stroke-width:1}#mermaid-1593048001631 #extensionEnd{fill:#9370db;stroke:#9370db;stroke-width:1}#mermaid-1593048001631 .commit-id,#mermaid-1593048001631 .commit-msg,#mermaid-1593048001631 .branch-label{fill:lightgrey;color:lightgrey;font-family:'trebuchet ms', verdana, arial;font-family:var(--mermaid-font-family)}#mermaid-1593048001631 .pieTitleText{text-anchor:middle;font-size:25px;fill:#000;font-family:'trebuchet ms', verdana, arial;font-family:var(--mermaid-font-family)}#mermaid-1593048001631 .slice{font-family:'trebuchet ms', verdana, arial;font-family:var(--mermaid-font-family)}#mermaid-1593048001631 g.stateGroup text{fill:#9370db;stroke:none;font-size:10px;font-family:'trebuchet ms', verdana, arial;font-family:var(--mermaid-font-family)}#mermaid-1593048001631 g.stateGroup text{fill:#9370db;stroke:none;font-size:10px}#mermaid-1593048001631 g.stateGroup .state-title{font-weight:bolder;fill:#000}#mermaid-1593048001631 g.stateGroup rect{fill:#ECECFF;stroke:#9370db}#mermaid-1593048001631 g.stateGroup line{stroke:#9370db;stroke-width:1}#mermaid-1593048001631 .transition{stroke:#9370db;stroke-width:1;fill:none}#mermaid-1593048001631 .stateGroup .composit{fill:white;border-bottom:1px}#mermaid-1593048001631 .stateGroup .alt-composit{fill:#e0e0e0;border-bottom:1px}#mermaid-1593048001631 .state-note{stroke:#aa3;fill:#fff5ad}#mermaid-1593048001631 .state-note text{fill:black;stroke:none;font-size:10px}#mermaid-1593048001631 .stateLabel .box{stroke:none;stroke-width:0;fill:#ECECFF;opacity:0.5}#mermaid-1593048001631 .stateLabel text{fill:#000;font-size:10px;font-weight:bold;font-family:'trebuchet ms', verdana, arial;font-family:var(--mermaid-font-family)}#mermaid-1593048001631 .node circle.state-start{fill:black;stroke:black}#mermaid-1593048001631 .node circle.state-end{fill:black;stroke:white;stroke-width:1.5}#mermaid-1593048001631 #statediagram-barbEnd{fill:#9370db}#mermaid-1593048001631 .statediagram-cluster rect{fill:#ECECFF;stroke:#9370db;stroke-width:1px}#mermaid-1593048001631 .statediagram-cluster rect.outer{rx:5px;ry:5px}#mermaid-1593048001631 .statediagram-state .divider{stroke:#9370db}#mermaid-1593048001631 .statediagram-state .title-state{rx:5px;ry:5px}#mermaid-1593048001631 .statediagram-cluster.statediagram-cluster .inner{fill:white}#mermaid-1593048001631 .statediagram-cluster.statediagram-cluster-alt .inner{fill:#e0e0e0}#mermaid-1593048001631 .statediagram-cluster .inner{rx:0;ry:0}#mermaid-1593048001631 .statediagram-state rect.basic{rx:5px;ry:5px}#mermaid-1593048001631 .statediagram-state rect.divider{stroke-dasharray:10,10;fill:#efefef}#mermaid-1593048001631 .note-edge{stroke-dasharray:5}#mermaid-1593048001631 .statediagram-note rect{fill:#fff5ad;stroke:#aa3;stroke-width:1px;rx:0;ry:0}:root{--mermaid-font-family: '"trebuchet ms", verdana, arial';--mermaid-font-family: "Comic Sans MS", "Comic Sans", cursive}

:root { --mermaid-font-family: "trebuchet ms", verdana, arial;}</style><style>#mermaid-1593048001631 {
    color: rgb(0, 0, 0);
    font: 16px "trebuchet ms", verdana, arial;
  }</style><g><defs><marker id="statediagram-barbEnd" refX="19" refY="7" markerWidth="20" markerHeight="14" markerUnits="0" orient="auto"><path d="M 19,7 L9,13 L14,7 L9,1 Z"></path></marker></defs><g class="root"><g class="clusters"><g class="note-cluster" id="0----parent"><rect x="8" y="72" width="620.09375" height="219" fill="none"></rect></g></g><g class="edgePaths"><path d="M318.046875,22L318.046875,26.166666666666668C318.046875,30.333333333333332,318.046875,38.666666666666664,318.046875,47C318.046875,55.333333333333336,318.046875,63.666666666666664,318.046875,72C318.046875,80.33333333333333,318.046875,88.66666666666667,318.046875,92.83333333333333L318.046875,97" id="edge0" class="transition" marker-end="url(#statediagram-barbEnd)"></path><path d="M318.046875,131L318.046875,136.75C318.046875,142.5,318.046875,154,318.046875,165.5C318.046875,177,318.046875,188.5,318.046875,194.25L318.046875,200" class="transition note-edge"></path><path d="M393.9769417475728,131L419.65917020631065,136.75C445.34139866504853,142.5,496.70585558252424,154,718.1856100829287,169.92396099268387C939.6653645833334,185.84792198536775,1331.2604166666667,206.1958439707355,1527.0579427083333,216.36980496341937L1722.85546875,226.54376595610324" id="edge1" class="transition" marker-end="url(#statediagram-barbEnd)"></path><path d="M1722.85546875,239.3808967117801L1555.3326822916667,247.9840805931501C1387.8098958333333,256.58726447452005,1052.7643229166667,273.79363223726006,885.2415364583334,288.14681611863006C717.71875,302.5,717.71875,314,717.71875,325.5C717.71875,337,717.71875,348.5,717.71875,354.25L717.71875,360" id="edge2" class="transition" marker-end="url(#statediagram-barbEnd)"></path><path d="M1971.35546875,244.11250052705446L2058.7311197916665,251.9270837725454C2146.1067708333335,259.7416670180363,2320.8580729166665,275.37083350901815,2408.2337239583335,288.93541675450905C2495.609375,302.5,2495.609375,314,2495.609375,330.5416666666667C2495.609375,347.0833333333333,2495.609375,368.6666666666667,2495.609375,390.25C2495.609375,411.8333333333333,2495.609375,433.4166666666667,2495.609375,455C2495.609375,476.5833333333333,2495.609375,498.1666666666667,2495.609375,519.75C2495.609375,541.3333333333334,2495.609375,562.9166666666666,2495.609375,584.5C2495.609375,606.0833333333334,2495.609375,627.6666666666666,2495.609375,649.25C2495.609375,670.8333333333334,2495.609375,692.4166666666666,2495.609375,711.7916666666666C2495.609375,731.1666666666666,2495.609375,748.3333333333334,2495.609375,765.5C2495.609375,782.6666666666666,2495.609375,799.8333333333334,2495.609375,819.2083333333334C2495.609375,838.5833333333334,2495.609375,860.1666666666666,2495.609375,881.75C2495.609375,903.3333333333334,2495.609375,924.9166666666666,2292.767578125,945.7767746185749C2089.92578125,966.6368825704832,1684.2421875,986.7737651409665,1481.400390625,996.842206426208L1278.55859375,1006.9106477114495" id="edge3" class="transition" marker-end="url(#statediagram-barbEnd)"></path><path d="M603.03125,409.3070993223465L557.2005208333334,416.9225827686221C511.3697916666667,424.5380662148977,419.7083333333333,439.7690331074488,373.8776041666667,458.17618322039107C328.046875,476.5833333333333,328.046875,498.1666666666667,328.046875,519.75C328.046875,541.3333333333334,328.046875,562.9166666666666,328.046875,584.5C328.046875,606.0833333333334,328.046875,627.6666666666666,328.046875,649.25C328.046875,670.8333333333334,328.046875,692.4166666666666,328.046875,711.7916666666666C328.046875,731.1666666666666,328.046875,748.3333333333334,328.046875,765.5C328.046875,782.6666666666666,328.046875,799.8333333333334,328.046875,819.2083333333334C328.046875,838.5833333333334,328.046875,860.1666666666666,328.046875,881.75C328.046875,903.3333333333334,328.046875,924.9166666666666,457.3248697916667,945.4069182759978C586.6028645833334,965.8971698853289,845.1588541666666,985.294339770658,974.4368489583334,994.9929247133224L1103.71484375,1004.691509655987" id="edge4" class="transition" marker-end="url(#statediagram-barbEnd)"></path><path d="M1971.35546875,242.49751604915392L2077.1100260416665,250.58126337429493C2182.8645833333335,258.6650106994359,2394.3736979166665,274.83250534971796,2500.1282552083335,288.666252674859C2605.8828125,302.5,2605.8828125,314,2605.8828125,330.5416666666667C2605.8828125,347.0833333333333,2605.8828125,368.6666666666667,2605.8828125,390.25C2605.8828125,411.8333333333333,2605.8828125,433.4166666666667,2331.2200520833335,454.3675446543463C2056.5572916666665,475.31842264202595,1507.2317708333333,495.6368452840518,1232.5690104166667,505.79605660506473L957.90625,515.9552679260777" id="edge5" class="transition" marker-end="url(#statediagram-barbEnd)"></path><path d="M782,420.5L794.21875,426.25C806.4375,432,830.875,443.5,843.09375,455C855.3125,466.5,855.3125,478,855.3125,483.75L855.3125,489.5" id="edge6" class="transition" marker-end="url(#statediagram-barbEnd)"></path><path d="M752.71875,536.7076108091939L704.5279947916666,544.6730090076616C656.3372395833334,552.6384072061293,559.9557291666666,568.5692036030646,511.7649739583333,587.3262684681989C463.57421875,606.0833333333334,463.57421875,627.6666666666666,463.57421875,649.25C463.57421875,670.8333333333334,463.57421875,692.4166666666666,463.57421875,711.7916666666666C463.57421875,731.1666666666666,463.57421875,748.3333333333334,463.57421875,765.5C463.57421875,782.6666666666666,463.57421875,799.8333333333334,463.57421875,819.2083333333334C463.57421875,838.5833333333334,463.57421875,860.1666666666666,463.57421875,881.75C463.57421875,903.3333333333334,463.57421875,924.9166666666666,463.57421875,946.5C463.57421875,968.0833333333334,463.57421875,989.6666666666666,463.57421875,1011.25C463.57421875,1032.8333333333333,463.57421875,1054.4166666666667,463.57421875,1076C463.57421875,1097.5833333333333,463.57421875,1119.1666666666667,463.57421875,1140.75C463.57421875,1162.3333333333333,463.57421875,1183.9166666666667,463.57421875,1205.5C463.57421875,1227.0833333333333,463.57421875,1248.6666666666667,463.57421875,1270.25C463.57421875,1291.8333333333333,463.57421875,1313.4166666666667,630.1946614583334,1332.243197823206C796.8151041666666,1351.0697289797452,1130.0559895833333,1367.13945795949,1296.6764322916667,1375.1743224493628L1463.296875,1383.2091869392352" id="edge7" class="transition" marker-end="url(#statediagram-barbEnd)"></path><path d="M957.90625,535.859143955971L1009.5358072916666,543.9659532966425C1061.1653645833333,552.072762637314,1164.4244791666667,568.2863813186569,1216.0540364583333,582.1431906593285C1267.68359375,596,1267.68359375,607.5,1267.68359375,613.25L1267.68359375,619" id="edge8" class="transition" marker-end="url(#statediagram-barbEnd)"></path><path d="M1125.29296875,663.0079973886078L1037.3346354166667,671.5066644905065C949.3763020833334,680.0053315924052,773.4596354166666,697.0026657962026,685.5013020833334,714.0846662314347C597.54296875,731.1666666666666,597.54296875,748.3333333333334,597.54296875,765.5C597.54296875,782.6666666666666,597.54296875,799.8333333333334,597.54296875,819.2083333333334C597.54296875,838.5833333333334,597.54296875,860.1666666666666,597.54296875,881.75C597.54296875,903.3333333333334,597.54296875,924.9166666666666,597.54296875,946.5C597.54296875,968.0833333333334,597.54296875,989.6666666666666,597.54296875,1011.25C597.54296875,1032.8333333333333,597.54296875,1054.4166666666667,597.54296875,1076C597.54296875,1097.5833333333333,597.54296875,1119.1666666666667,597.54296875,1140.75C597.54296875,1162.3333333333333,597.54296875,1183.9166666666667,597.54296875,1205.5C597.54296875,1227.0833333333333,597.54296875,1248.6666666666667,597.54296875,1270.25C597.54296875,1291.8333333333333,597.54296875,1313.4166666666667,741.8352864583334,1332.1645275954993C886.1276041666666,1350.9123885243318,1174.7122395833333,1366.824777048664,1319.0045572916667,1374.7809713108297L1463.296875,1382.7371655729958" id="edge9" class="transition" marker-end="url(#statediagram-barbEnd)"></path><path d="M1125.29296875,668.7497314959394L1070.2220052083333,676.2914429132828C1015.1510416666666,683.8331543306263,905.0091145833334,698.916577165313,849.9381510416666,715.0416219159898C794.8671875,731.1666666666666,794.8671875,748.3333333333334,794.8671875,765.5C794.8671875,782.6666666666666,794.8671875,799.8333333333334,794.8671875,819.2083333333334C794.8671875,838.5833333333334,794.8671875,860.1666666666666,794.8671875,881.75C794.8671875,903.3333333333334,794.8671875,924.9166666666666,846.341796875,944.1192271674307C897.81640625,963.3217876681946,1000.765625,980.1435753363891,1052.240234375,988.5544691704864L1103.71484375,996.9653630045838" id="edge10" class="transition" marker-end="url(#statediagram-barbEnd)"></path><path d="M1176.1981479247104,679.5L1158.8083524372587,685.25C1141.418556949807,691,1106.6389659749036,702.5,1089.2491704874517,716.8333333333334C1071.859375,731.1666666666666,1071.859375,748.3333333333334,1071.859375,765.5C1071.859375,782.6666666666666,1071.859375,799.8333333333334,1071.859375,819.2083333333334C1071.859375,838.5833333333334,1071.859375,860.1666666666666,1071.859375,881.75C1071.859375,903.3333333333334,1071.859375,924.9166666666666,1082.4515715492278,941.4583333333334C1093.0437680984558,958,1114.2281611969113,969.5,1124.820357746139,975.25L1135.4125542953668,981" id="edge11" class="transition" marker-end="url(#statediagram-barbEnd)"></path><path d="M1292.303692084942,679.5L1296.9835454874517,685.25C1301.6633988899614,691,1311.0231056949806,702.5,1315.7029590974903,716.8333333333334C1320.3828125,731.1666666666666,1320.3828125,748.3333333333334,1320.3828125,765.5C1320.3828125,782.6666666666666,1320.3828125,799.8333333333334,1320.3828125,819.2083333333334C1320.3828125,838.5833333333334,1320.3828125,860.1666666666666,1320.3828125,881.75C1320.3828125,903.3333333333334,1320.3828125,924.9166666666666,1308.9053601592664,941.4583333333334C1297.4279078185327,958,1274.4730031370657,969.5,1262.995550796332,975.25L1251.5180984555984,981" id="edge12" class="transition" marker-end="url(#statediagram-barbEnd)"></path><path d="M1502.1873862257282,782.5L1494.2401395631068,788.25C1486.2928929004854,794,1470.3983995752426,805.5,1462.4511529126212,822.0416666666666C1454.50390625,838.5833333333334,1454.50390625,860.1666666666666,1454.50390625,881.75C1454.50390625,903.3333333333334,1454.50390625,924.9166666666666,1425.1796875,942.9178235590757C1395.85546875,960.9189804514848,1337.20703125,975.3379609029694,1307.8828125,982.5474511287117L1278.55859375,989.756941354454" id="edge13" class="transition" marker-end="url(#statediagram-barbEnd)"></path><path d="M1388.2164122828185,679.5L1411.1276091940153,685.25C1434.0388061052124,691,1479.861199927606,702.5,1502.772396838803,714C1525.68359375,725.5,1525.68359375,737,1525.68359375,742.75L1525.68359375,748.5" id="edge14" class="transition" marker-end="url(#statediagram-barbEnd)"></path><path d="M1410.07421875,658.9486645299145L1544.7799479166667,668.123887108262C1679.4856770833333,677.2991096866097,1948.8971354166667,695.6495548433048,2083.6028645833335,713.4081107549858C2218.30859375,731.1666666666666,2218.30859375,748.3333333333334,2218.30859375,765.5C2218.30859375,782.6666666666666,2218.30859375,799.8333333333334,2206.1966849662163,814.1666666666666C2194.0847761824325,828.5,2169.860958614865,840,2157.7490498310813,845.75L2145.6371410472975,851.5" id="edge15" class="transition" marker-end="url(#statediagram-barbEnd)"></path><path d="M1591.4309390169904,782.5L1613.6690116808252,788.25C1635.90708434466,794,1680.3832296723301,805.5,1737.293828377832,817.5376124549178C1794.2044270833333,829.5752249098355,1863.5494791666667,842.1504498196709,1898.2220052083333,848.4380622745888L1932.89453125,854.7256747295065" id="edge16" class="transition" marker-end="url(#statediagram-barbEnd)"></path><path d="M2230.94140625,863.1780292464166L2246.559027777778,861.2316910386804C2262.176649305555,859.2853528309444,2293.411892361111,855.3926764154721,2312.9339192708335,853.4463382077361C2332.455946180555,851.5,2340.264756944445,851.5,2348.0735677083335,856.5416666666666C2355.882378472222,861.5833333333334,2363.6911892361113,871.6666666666666,2363.6911892361113,881.75C2363.6911892361113,891.8333333333334,2355.882378472222,901.9166666666666,2348.0735677083335,906.9583333333334C2340.264756944445,912,2332.455946180555,912,2312.9339192708335,910.0536617922639C2293.411892361111,908.1073235845279,2262.176649305555,904.2146471690556,2246.559027777778,902.2683089613196L2230.94140625,900.3219707535834" id="edge17" class="transition" marker-end="url(#statediagram-barbEnd)"></path><path d="M1932.89453125,902.2123301855534L1879.1380208333333,909.5936084879612C1825.3815104166667,916.9748867903689,1717.8684895833333,931.7374433951845,1608.8125,947.6599457626935C1499.7565104166667,963.5824481302025,1389.1575520833333,980.6648962604049,1333.8580729166667,989.2061203255062L1278.55859375,997.7473443906075" id="edge18" class="transition" marker-end="url(#statediagram-barbEnd)"></path><path d="M1976.258310207529,912L1956.174242881274,917.75C1936.0901755550192,923.5,1895.9220409025095,935,1779.6387548262549,950.1221611947667C1663.35546875,965.2443223895334,1470.95703125,983.9886447790668,1374.7578125,993.3608059738335L1278.55859375,1002.7329671686003" id="edge19" class="transition" marker-end="url(#statediagram-barbEnd)"></path><path d="M2129.3770360762546,912L2138.398181105212,917.75C2147.4193261341698,923.5,2165.461616192085,935,2174.4827612210424,946.5C2183.50390625,958,2183.50390625,969.5,2183.50390625,975.25L2183.50390625,981" id="edge20" class="transition" marker-end="url(#statediagram-barbEnd)"></path><path d="M2059.4070041023165,1041.5L2035.8183367519305,1047.25C2012.2296694015442,1053,1965.0523347007722,1064.5,1941.4636673503862,1081.0416666666667C1917.875,1097.5833333333333,1917.875,1119.1666666666667,1917.875,1140.75C1917.875,1162.3333333333333,1917.875,1183.9166666666667,1917.875,1205.5C1917.875,1227.0833333333333,1917.875,1248.6666666666667,1917.875,1270.25C1917.875,1291.8333333333333,1917.875,1313.4166666666667,1864.859375,1331.275510943493C1811.84375,1349.134355220319,1705.8125,1363.2687104406382,1652.796875,1370.3358880507976L1599.78125,1377.4030656609573" id="edge21" class="transition" marker-end="url(#statediagram-barbEnd)"></path><path d="M2222.0409025096524,1041.5L2229.36611667471,1047.25C2236.6913308397684,1053,2251.341759169884,1064.5,2258.666973334942,1076C2265.9921875,1087.5,2265.9921875,1099,2265.9921875,1104.75L2265.9921875,1110.5" id="edge22" class="transition" marker-end="url(#statediagram-barbEnd)"></path><path d="M2173.5486546814673,1171L2155.976743484556,1176.75C2138.4048322876447,1182.5,2103.2610098938226,1194,2085.6890986969115,1210.5416666666667C2068.1171875,1227.0833333333333,2068.1171875,1248.6666666666667,2068.1171875,1270.25C2068.1171875,1291.8333333333333,2068.1171875,1313.4166666666667,1990.0611979166667,1331.700035428982C1912.0052083333333,1349.983404191297,1755.8932291666667,1364.9668083825943,1677.8372395833333,1372.4585104782427L1599.78125,1379.9502125738913" id="edge23" class="transition" marker-end="url(#statediagram-barbEnd)"></path><path d="M2338.0768279440153,1171L2351.7788670366795,1176.75C2365.4809061293436,1182.5,2392.884984314672,1194,2406.587023407336,1205.5C2420.2890625,1217,2420.2890625,1228.5,2420.2890625,1234.25L2420.2890625,1240" id="edge24" class="transition" marker-end="url(#statediagram-barbEnd)"></path><path d="M2304.4025096525097,1300.5L2282.374487210425,1306.25C2260.34646476834,1312,2216.2904198841698,1323.5,2232.2051057754184,1335.6601676960797C2248.1197916666665,1347.8203353921592,2324.0052083333335,1360.6406707843187,2361.9479166666665,1367.0508384803986L2399.890625,1373.4610061764781" id="edge25" class="transition" marker-end="url(#statediagram-barbEnd)"></path><path d="M2396.515730574324,1300.5L2391.99683277027,1306.25C2387.4779349662163,1312,2378.440139358108,1323.5,2413.0625175957207,1335.7078280710975C2447.6848958333335,1347.915656142195,2525.9674479166665,1360.8313122843902,2565.1087239583335,1367.2891403554877L2604.25,1373.7469684265852" id="edge26" class="transition" marker-end="url(#statediagram-barbEnd)"></path><path d="M2501.3468719835905,1300.5L2516.7545547779923,1306.25C2532.1622375723937,1312,2562.977603161197,1323.5,2412.7166661639317,1337.2819157868673C2262.4557291666665,1351.0638315737344,1931.1184895833333,1367.127663147469,1765.4498697916667,1375.1595789343364L1599.78125,1383.1914947212038" id="edge27" class="transition" marker-end="url(#statediagram-barbEnd)"></path><path d="M1191.13671875,1041.5L1191.13671875,1047.25C1191.13671875,1053,1191.13671875,1064.5,1191.13671875,1081.0416666666667C1191.13671875,1097.5833333333333,1191.13671875,1119.1666666666667,1191.13671875,1140.75C1191.13671875,1162.3333333333333,1191.13671875,1183.9166666666667,1191.13671875,1205.5C1191.13671875,1227.0833333333333,1191.13671875,1248.6666666666667,1191.13671875,1270.25C1191.13671875,1291.8333333333333,1191.13671875,1313.4166666666667,1236.4967447916667,1331.0709222197995C1281.8567708333333,1348.7251777729325,1372.5768229166667,1362.4503555458652,1417.9368489583333,1369.3129444323315L1463.296875,1376.1755333187978" id="edge28" class="transition" marker-end="url(#statediagram-barbEnd)"></path><path d="M2477.0703125,1403.5L2477.0703125,1407.6666666666667C2477.0703125,1411.8333333333333,2477.0703125,1420.1666666666667,2397.4382217387697,1429.5898226004422C2317.806130977539,1439.0129785342176,2158.5419494550783,1449.525957068435,2078.909858693848,1454.782446335544L1999.2777679326177,1460.0389356026526" id="edge29" class="transition" marker-end="url(#statediagram-barbEnd)"></path><path d="M2681.546875,1403.5L2681.546875,1407.6666666666667C2681.546875,1411.8333333333333,2681.546875,1420.1666666666667,2567.8366352979406,1429.6125600993637C2454.1263955958816,1439.0584535320604,2226.7059161917637,1449.6169070641208,2112.9956764897042,1454.8961338301513L1999.285436787645,1460.1753605961815" id="edge30" class="transition" marker-end="url(#statediagram-barbEnd)"></path><path d="M1531.5390625,1403.5L1531.5390625,1407.6666666666667C1531.5390625,1411.8333333333333,1531.5390625,1420.1666666666667,1607.167517109371,1429.5858347547467C1682.7959717187416,1439.0050028428268,1834.0528809374835,1449.5100056856534,1909.6813355468541,1454.7625071070668L1985.3097901562253,1460.01500852848" id="edge31" class="transition" marker-end="url(#statediagram-barbEnd)"></path></g><g class="edgeLabels"><g class="edgeLabel"><g class="label" transform="translate(0, 0)"><rect rx="0" ry="0" width="0" height="0" style="fill:#e8e8e8;"></rect><text style=""></text></g></g><g class="edgeLabel"><g class="label" transform="translate(0, 0)"><rect rx="0" ry="0" width="0" height="0" style="fill:#e8e8e8;"></rect><text style=""></text></g></g><g class="edgeLabel" transform="translate(548.0703125, 165.5)"><g class="label" transform="translate(-60.0234375, -9.5)"><rect rx="0" ry="0" width="120.046875" height="19" style="fill:#e8e8e8;"></rect><text style=""><tspan xml:space="preserve" dy="1em" x="0" class="row">ClientEventOpen</tspan></text></g></g><g class="edgeLabel" transform="translate(717.71875, 325.5)"><g class="label" transform="translate(-100.0390625, -9.5)"><rect rx="0" ry="0" width="200.078125" height="19" style="fill:#e8e8e8;"></rect><text style=""><tspan xml:space="preserve" dy="1em" x="0" class="row">ClientEventFundingInitiated</tspan></text></g></g><g class="edgeLabel" transform="translate(2495.609375, 649.25)"><g class="label" transform="translate(-107.6796875, -9.5)"><rect rx="0" ry="0" width="215.359375" height="19" style="fill:#e8e8e8;"></rect><text style=""><tspan xml:space="preserve" dy="1em" x="0" class="row">ClientEventEnsureFundsFailed</tspan></text></g></g><g class="edgeLabel" transform="translate(328.046875, 714)"><g class="label" transform="translate(-107.6796875, -9.5)"><rect rx="0" ry="0" width="215.359375" height="19" style="fill:#e8e8e8;"></rect><text style=""><tspan xml:space="preserve" dy="1em" x="0" class="row">ClientEventEnsureFundsFailed</tspan></text></g></g><g class="edgeLabel" transform="translate(2605.8828125, 390.25)"><g class="label" transform="translate(-90.2734375, -9.5)"><rect rx="0" ry="0" width="180.546875" height="19" style="fill:#e8e8e8;"></rect><text style=""><tspan xml:space="preserve" dy="1em" x="0" class="row">ClientEventFundsEnsured</tspan></text></g></g><g class="edgeLabel" transform="translate(855.3125, 455)"><g class="label" transform="translate(-90.2734375, -9.5)"><rect rx="0" ry="0" width="180.546875" height="19" style="fill:#e8e8e8;"></rect><text style=""><tspan xml:space="preserve" dy="1em" x="0" class="row">ClientEventFundsEnsured</tspan></text></g></g><g class="edgeLabel" transform="translate(463.57421875, 946.5)"><g class="label" transform="translate(-113.4609375, -9.5)"><rect rx="0" ry="0" width="226.921875" height="19" style="fill:#e8e8e8;"></rect><text style=""><tspan xml:space="preserve" dy="1em" x="0" class="row">ClientEventWriteProposalFailed</tspan></text></g></g><g class="edgeLabel" transform="translate(1267.68359375, 584.5)"><g class="label" transform="translate(-89.9453125, -9.5)"><rect rx="0" ry="0" width="179.890625" height="19" style="fill:#e8e8e8;"></rect><text style=""><tspan xml:space="preserve" dy="1em" x="0" class="row">ClientEventDealProposed</tspan></text></g></g><g class="edgeLabel" transform="translate(597.54296875, 1011.25)"><g class="label" transform="translate(-113.96875, -9.5)"><rect rx="0" ry="0" width="227.9375" height="19" style="fill:#e8e8e8;"></rect><text style=""><tspan xml:space="preserve" dy="1em" x="0" class="row">ClientEventReadResponseFailed</tspan></text></g></g><g class="edgeLabel" transform="translate(794.8671875, 817)"><g class="label" transform="translate(-138.2578125, -9.5)"><rect rx="0" ry="0" width="276.515625" height="19" style="fill:#e8e8e8;"></rect><text style=""><tspan xml:space="preserve" dy="1em" x="0" class="row">ClientEventResponseVerificationFailed</tspan></text></g></g><g class="edgeLabel" transform="translate(1071.859375, 817)"><g class="label" transform="translate(-118.734375, -9.5)"><rect rx="0" ry="0" width="237.46875" height="19" style="fill:#e8e8e8;"></rect><text style=""><tspan xml:space="preserve" dy="1em" x="0" class="row">ClientEventUnexpectedDealState</tspan></text></g></g><g class="edgeLabel" transform="translate(1320.3828125, 817)"><g class="label" transform="translate(-109.7890625, -9.5)"><rect rx="0" ry="0" width="219.578125" height="19" style="fill:#e8e8e8;"></rect><text style=""><tspan xml:space="preserve" dy="1em" x="0" class="row">ClientEventDataTransferFailed</tspan></text></g></g><g class="edgeLabel" transform="translate(1454.50390625, 881.75)"><g class="label" transform="translate(-109.7890625, -9.5)"><rect rx="0" ry="0" width="219.578125" height="19" style="fill:#e8e8e8;"></rect><text style=""><tspan xml:space="preserve" dy="1em" x="0" class="row">ClientEventDataTransferFailed</tspan></text></g></g><g class="edgeLabel" transform="translate(1525.68359375, 714)"><g class="label" transform="translate(-118.453125, -9.5)"><rect rx="0" ry="0" width="236.90625" height="19" style="fill:#e8e8e8;"></rect><text style=""><tspan xml:space="preserve" dy="1em" x="0" class="row">ClientEventDataTransferInitiated</tspan></text></g></g><g class="edgeLabel" transform="translate(2218.30859375, 765.5)"><g class="label" transform="translate(-122.359375, -9.5)"><rect rx="0" ry="0" width="244.71875" height="19" style="fill:#e8e8e8;"></rect><text style=""><tspan xml:space="preserve" dy="1em" x="0" class="row">ClientEventDataTransferComplete</tspan></text></g></g><g class="edgeLabel" transform="translate(1724.859375, 817)"><g class="label" transform="translate(-122.359375, -9.5)"><rect rx="0" ry="0" width="244.71875" height="19" style="fill:#e8e8e8;"></rect><text style=""><tspan xml:space="preserve" dy="1em" x="0" class="row">ClientEventDataTransferComplete</tspan></text></g></g><g class="edgeLabel" transform="translate(2371.5, 881.75)"><g class="label" transform="translate(-104.109375, -9.5)"><rect rx="0" ry="0" width="208.21875" height="19" style="fill:#e8e8e8;"></rect><text style=""><tspan xml:space="preserve" dy="1em" x="0" class="row">ClientEventWaitForDealState</tspan></text></g></g><g class="edgeLabel" transform="translate(1610.35546875, 946.5)"><g class="label" transform="translate(-135.8515625, -9.5)"><rect rx="0" ry="0" width="271.703125" height="19" style="fill:#e8e8e8;"></rect><text style=""><tspan xml:space="preserve" dy="1em" x="0" class="row">ClientEventResponseDealDidNotMatch</tspan></text></g></g><g class="edgeLabel" transform="translate(1855.75390625, 946.5)"><g class="label" transform="translate(-89.546875, -9.5)"><rect rx="0" ry="0" width="179.09375" height="19" style="fill:#e8e8e8;"></rect><text style=""><tspan xml:space="preserve" dy="1em" x="0" class="row">ClientEventDealRejected</tspan></text></g></g><g class="edgeLabel" transform="translate(2183.50390625, 946.5)"><g class="label" transform="translate(-90.7265625, -9.5)"><rect rx="0" ry="0" width="181.453125" height="19" style="fill:#e8e8e8;"></rect><text style=""><tspan xml:space="preserve" dy="1em" x="0" class="row">ClientEventDealAccepted</tspan></text></g></g><g class="edgeLabel" transform="translate(1917.875, 1205.5)"><g class="label" transform="translate(-104.6796875, -9.5)"><rect rx="0" ry="0" width="209.359375" height="19" style="fill:#e8e8e8;"></rect><text style=""><tspan xml:space="preserve" dy="1em" x="0" class="row">ClientEventDealPublishFailed</tspan></text></g></g><g class="edgeLabel" transform="translate(2265.9921875, 1076)"><g class="label" transform="translate(-91.6328125, -9.5)"><rect rx="0" ry="0" width="183.265625" height="19" style="fill:#e8e8e8;"></rect><text style=""><tspan xml:space="preserve" dy="1em" x="0" class="row">ClientEventDealPublished</tspan></text></g></g><g class="edgeLabel" transform="translate(2068.1171875, 1270.25)"><g class="label" transform="translate(-115.5078125, -9.5)"><rect rx="0" ry="0" width="231.015625" height="19" style="fill:#e8e8e8;"></rect><text style=""><tspan xml:space="preserve" dy="1em" x="0" class="row">ClientEventDealActivationFailed</tspan></text></g></g><g class="edgeLabel" transform="translate(2420.2890625, 1205.5)"><g class="label" transform="translate(-91.5234375, -9.5)"><rect rx="0" ry="0" width="183.046875" height="19" style="fill:#e8e8e8;"></rect><text style=""><tspan xml:space="preserve" dy="1em" x="0" class="row">ClientEventDealActivated</tspan></text></g></g><g class="edgeLabel" transform="translate(2172.234375, 1335)"><g class="label" transform="translate(-84.1171875, -9.5)"><rect rx="0" ry="0" width="168.234375" height="19" style="fill:#e8e8e8;"></rect><text style=""><tspan xml:space="preserve" dy="1em" x="0" class="row">ClientEventDealSlashed</tspan></text></g></g><g class="edgeLabel" transform="translate(2369.40234375, 1335)"><g class="label" transform="translate(-84.234375, -9.5)"><rect rx="0" ry="0" width="168.46875" height="19" style="fill:#e8e8e8;"></rect><text style=""><tspan xml:space="preserve" dy="1em" x="0" class="row">ClientEventDealExpired</tspan></text></g></g><g class="edgeLabel" transform="translate(2593.79296875, 1335)"><g class="label" transform="translate(-120.15625, -9.5)"><rect rx="0" ry="0" width="240.3125" height="19" style="fill:#e8e8e8;"></rect><text style=""><tspan xml:space="preserve" dy="1em" x="0" class="row">ClientEventDealCompletionFailed</tspan></text></g></g><g class="edgeLabel" transform="translate(1191.13671875, 1205.5)"><g class="label" transform="translate(-63.3046875, -9.5)"><rect rx="0" ry="0" width="126.609375" height="19" style="fill:#e8e8e8;"></rect><text style=""><tspan xml:space="preserve" dy="1em" x="0" class="row">ClientEventFailed</tspan></text></g></g><g class="edgeLabel"><g class="label" transform="translate(0, 0)"><rect rx="0" ry="0" width="0" height="0" style="fill:#e8e8e8;"></rect><text style=""></text></g></g><g class="edgeLabel"><g class="label" transform="translate(0, 0)"><rect rx="0" ry="0" width="0" height="0" style="fill:#e8e8e8;"></rect><text style=""></text></g></g><g class="edgeLabel"><g class="label" transform="translate(0, 0)"><rect rx="0" ry="0" width="0" height="0" style="fill:#e8e8e8;"></rect><text style=""></text></g></g></g><g class="nodes"><g class="node statediagram-state" id="0" transform="translate(318.046875, 114)"><rect class="outer title-state" x="-82.921875" y="-17" width="165.84375" height="34"></rect><line class="divider" x1="-82.921875" x2="82.921875" y1="9.5" y2="9.5"></line><g class="label" transform="translate(-75.421875, -14)"><text style=""><tspan xml:space="preserve" dy="1em" x="0" class="title-row">StorageDealUnknown</tspan></text><text style="" transform="translate( 0, 26.5)"><tspan xml:space="preserve" dy="1em" x="0" class="title-row"></tspan></text></g></g><g class="node statediagram-state" id="3" transform="translate(2183.50390625, 1011.25)"><rect class="outer title-state" x="-138.4765625" y="-30.25" width="276.953125" height="60.5"></rect><line class="divider" x1="-138.4765625" x2="138.4765625" y1="-3.75" y2="-3.75"></line><g class="label" transform="translate(-130.9765625, -27.25)"><text style=""><tspan xml:space="preserve" dy="1em" x="0" class="title-row">StorageDealProposalAccepted</tspan></text><text style="" transform="translate( 0, 26.5)"><tspan xml:space="preserve" dy="1em" x="0" class="title-row">On entry runs ValidateDealPublished</tspan></text></g></g><g class="node statediagram-state" id="5" transform="translate(2265.9921875, 1140.75)"><rect class="outer title-state" x="-129.9765625" y="-30.25" width="259.953125" height="60.5"></rect><line class="divider" x1="-129.9765625" x2="129.9765625" y1="-3.75" y2="-3.75"></line><g class="label" transform="translate(-122.4765625, -27.25)"><text style=""><tspan xml:space="preserve" dy="1em" x="0" class="title-row">StorageDealSealing</tspan></text><text style="" transform="translate( 0, 26.5)"><tspan xml:space="preserve" dy="1em" x="0" class="title-row">On entry runs VerifyDealActivated</tspan></text></g></g><g class="node statediagram-state" id="6" transform="translate(2420.2890625, 1270.25)"><rect class="outer title-state" x="-143.46875" y="-30.25" width="286.9375" height="60.5"></rect><line class="divider" x1="-143.46875" x2="143.46875" y1="-3.75" y2="-3.75"></line><g class="label" transform="translate(-135.96875, -27.25)"><text style=""><tspan xml:space="preserve" dy="1em" x="0" class="title-row">StorageDealActive</tspan></text><text style="" transform="translate( 0, 26.5)"><tspan xml:space="preserve" dy="1em" x="0" class="title-row">On entry runs WaitForDealCompletion</tspan></text></g></g><g class="node statediagram-state" id="7" transform="translate(2681.546875, 1386.5)"><rect class="outer title-state" x="-77.296875" y="-17" width="154.59375" height="34"></rect><line class="divider" x1="-77.296875" x2="77.296875" y1="9.5" y2="9.5"></line><g class="label" transform="translate(-69.796875, -14)"><text style=""><tspan xml:space="preserve" dy="1em" x="0" class="title-row">StorageDealExpired</tspan></text><text style="" transform="translate( 0, 26.5)"><tspan xml:space="preserve" dy="1em" x="0" class="title-row"></tspan></text></g></g><g class="node statediagram-state" id="8" transform="translate(2477.0703125, 1386.5)"><rect class="outer title-state" x="-77.1796875" y="-17" width="154.359375" height="34"></rect><line class="divider" x1="-77.1796875" x2="77.1796875" y1="9.5" y2="9.5"></line><g class="label" transform="translate(-69.6796875, -14)"><text style=""><tspan xml:space="preserve" dy="1em" x="0" class="title-row">StorageDealSlashed</tspan></text><text style="" transform="translate( 0, 26.5)"><tspan xml:space="preserve" dy="1em" x="0" class="title-row"></tspan></text></g></g><g class="node statediagram-state" id="9" transform="translate(1191.13671875, 1011.25)"><rect class="outer title-state" x="-87.421875" y="-30.25" width="174.84375" height="60.5"></rect><line class="divider" x1="-87.421875" x2="87.421875" y1="-3.75" y2="-3.75"></line><g class="label" transform="translate(-79.921875, -27.25)"><text style=""><tspan xml:space="preserve" dy="1em" x="0" class="title-row">StorageDealFailing</tspan></text><text style="" transform="translate( 0, 26.5)"><tspan xml:space="preserve" dy="1em" x="0" class="title-row">On entry runs FailDeal</tspan></text></g></g><g class="node statediagram-state" id="10" transform="translate(855.3125, 519.75)"><rect class="outer title-state" x="-102.59375" y="-30.25" width="205.1875" height="60.5"></rect><line class="divider" x1="-102.59375" x2="102.59375" y1="-3.75" y2="-3.75"></line><g class="label" transform="translate(-95.09375, -27.25)"><text style=""><tspan xml:space="preserve" dy="1em" x="0" class="title-row">StorageDealFundsEnsured</tspan></text><text style="" transform="translate( 0, 26.5)"><tspan xml:space="preserve" dy="1em" x="0" class="title-row">On entry runs ProposeDeal</tspan></text></g></g><g class="node statediagram-state" id="11" transform="translate(1267.68359375, 649.25)"><rect class="outer title-state" x="-142.390625" y="-30.25" width="284.78125" height="60.5"></rect><line class="divider" x1="-142.390625" x2="142.390625" y1="-3.75" y2="-3.75"></line><g class="label" transform="translate(-134.890625, -27.25)"><text style=""><tspan xml:space="preserve" dy="1em" x="0" class="title-row">StorageDealWaitingForDataRequest</tspan></text><text style="" transform="translate( 0, 26.5)"><tspan xml:space="preserve" dy="1em" x="0" class="title-row">On entry runs WaitingForDataRequest</tspan></text></g></g><g class="node statediagram-state" id="12" transform="translate(2081.91796875, 881.75)"><rect class="outer title-state" x="-149.0234375" y="-30.25" width="298.046875" height="60.5"></rect><line class="divider" x1="-149.0234375" x2="149.0234375" y1="-3.75" y2="-3.75"></line><g class="label" transform="translate(-141.5234375, -27.25)"><text style=""><tspan xml:space="preserve" dy="1em" x="0" class="title-row">StorageDealCheckForAcceptance</tspan></text><text style="" transform="translate( 0, 26.5)"><tspan xml:space="preserve" dy="1em" x="0" class="title-row">On entry runs CheckForDealAcceptance</tspan></text></g></g><g class="node statediagram-state" id="15" transform="translate(1525.68359375, 765.5)"><rect class="outer title-state" x="-94.109375" y="-17" width="188.21875" height="34"></rect><line class="divider" x1="-94.109375" x2="94.109375" y1="9.5" y2="9.5"></line><g class="label" transform="translate(-86.609375, -14)"><text style=""><tspan xml:space="preserve" dy="1em" x="0" class="title-row">StorageDealTransferring</tspan></text><text style="" transform="translate( 0, 26.5)"><tspan xml:space="preserve" dy="1em" x="0" class="title-row"></tspan></text></g></g><g class="node statediagram-state" id="19" transform="translate(1847.10546875, 233)"><rect class="outer title-state" x="-124.25" y="-30.25" width="248.5" height="60.5"></rect><line class="divider" x1="-124.25" x2="124.25" y1="-3.75" y2="-3.75"></line><g class="label" transform="translate(-116.75, -27.25)"><text style=""><tspan xml:space="preserve" dy="1em" x="0" class="title-row">StorageDealEnsureClientFunds</tspan></text><text style="" transform="translate( 0, 26.5)"><tspan xml:space="preserve" dy="1em" x="0" class="title-row">On entry runs EnsureClientFunds</tspan></text></g></g><g class="node statediagram-state" id="21" transform="translate(717.71875, 390.25)"><rect class="outer title-state" x="-114.6875" y="-30.25" width="229.375" height="60.5"></rect><line class="divider" x1="-114.6875" x2="114.6875" y1="-3.75" y2="-3.75"></line><g class="label" transform="translate(-107.1875, -27.25)"><text style=""><tspan xml:space="preserve" dy="1em" x="0" class="title-row">StorageDealClientFunding</tspan></text><text style="" transform="translate( 0, 26.5)"><tspan xml:space="preserve" dy="1em" x="0" class="title-row">On entry runs WaitForFunding</tspan></text></g></g><g class="node statediagram-state" id="24" transform="translate(1531.5390625, 1386.5)"><rect class="outer title-state" x="-68.2421875" y="-17" width="136.484375" height="34"></rect><line class="divider" x1="-68.2421875" x2="68.2421875" y1="9.5" y2="9.5"></line><g class="label" transform="translate(-60.7421875, -14)"><text style=""><tspan xml:space="preserve" dy="1em" x="0" class="title-row">StorageDealError</tspan></text><text style="" transform="translate( 0, 26.5)"><tspan xml:space="preserve" dy="1em" x="0" class="title-row"></tspan></text></g></g><g class="node default" id="root_start" transform="translate(318.046875, 15)"><circle class="state-start" r="7" width="14" height="14"></circle></g><g class="node statediagram-note" id="0----note" transform="translate(318.046875, 233)"><rect x="-275.046875" y="-33" width="550.09375" height="66"></rect><g class="label" transform="translate(-267.546875, -25.5)"><text style=""><tspan xml:space="preserve" dy="1em" x="0" class="row">The following events are not shown cause they can trigger from any state.</tspan><tspan xml:space="preserve" dy="1em" x="0" class="row"></tspan><tspan xml:space="preserve" dy="1em" x="0" class="row">ClientEventStreamCloseError - transitions state to StorageDealError</tspan><tspan xml:space="preserve" dy="1em" x="0" class="row">ClientEventRestart - does not transition state</tspan></text></g></g><g class="node default" id="root_end" transform="translate(1992.29296875, 1460.5)"><circle class="state-start" r="7" width="14" height="14"></circle><circle class="state-end" r="5" width="10" height="10"></circle></g></g></g></g></svg>