<svg id="mermaid-1592411846110" width="3186.28125" xmlns="http://www.w3.org/2000/svg" class="statediagram" height="1911.5" viewBox="0 0 3186.28125 1911.5"><style>#mermaid-1592411846110 .label{font-family:'trebuchet ms', verdana, arial;font-family:var(--mermaid-font-family);color:#333}#mermaid-1592411846110 .label text{fill:#333}#mermaid-1592411846110 .node rect,#mermaid-1592411846110 .node circle,#mermaid-1592411846110 .node ellipse,#mermaid-1592411846110 .node polygon,#mermaid-1592411846110 .node path{fill:#ECECFF;stroke:#9370db;stroke-width:1px}#mermaid-1592411846110 .node .label{text-align:center}#mermaid-1592411846110 .node.clickable{cursor:pointer}#mermaid-1592411846110 .arrowheadPath{fill:#333}#mermaid-1592411846110 .edgePath .path{stroke:#333;stroke-width:1.5px}#mermaid-1592411846110 .edgeLabel{background-color:#e8e8e8;text-align:center}#mermaid-1592411846110 .edgeLabel rect{opacity:0.5}#mermaid-1592411846110 .cluster rect{fill:#ffffde;stroke:#aa3;stroke-width:1px}#mermaid-1592411846110 .cluster text{fill:#333}#mermaid-1592411846110 div.mermaidTooltip{position:absolute;text-align:center;max-width:200px;padding:2px;font-family:'trebuchet ms', verdana, arial;font-family:var(--mermaid-font-family);font-size:12px;background:#ffffde;border:1px solid #aa3;border-radius:2px;pointer-events:none;z-index:100}#mermaid-1592411846110 .actor{stroke:#ccf;fill:#ECECFF}#mermaid-1592411846110 text.actor{fill:#000;stroke:none}#mermaid-1592411846110 .actor-line{stroke:grey}#mermaid-1592411846110 .messageLine0{stroke-width:1.5;stroke-dasharray:'2 2';stroke:#333}#mermaid-1592411846110 .messageLine1{stroke-width:1.5;stroke-dasharray:'2 2';stroke:#333}#mermaid-1592411846110 #arrowhead{fill:#333}#mermaid-1592411846110 .sequenceNumber{fill:#fff}#mermaid-1592411846110 #sequencenumber{fill:#333}#mermaid-1592411846110 #crosshead path{fill:#333 !important;stroke:#333 !important}#mermaid-1592411846110 .messageText{fill:#333;stroke:none}#mermaid-1592411846110 .labelBox{stroke:#ccf;fill:#ECECFF}#mermaid-1592411846110 .labelText{fill:#000;stroke:none}#mermaid-1592411846110 .loopText{fill:#000;stroke:none}#mermaid-1592411846110 .loopLine{stroke-width:2;stroke-dasharray:'2 2';stroke:#ccf}#mermaid-1592411846110 .note{stroke:#aa3;fill:#fff5ad}#mermaid-1592411846110 .noteText{fill:black;stroke:none;font-family:'trebuchet ms', verdana, arial;font-family:var(--mermaid-font-family);font-size:14px}#mermaid-1592411846110 .activation0{fill:#f4f4f4;stroke:#666}#mermaid-1592411846110 .activation1{fill:#f4f4f4;stroke:#666}#mermaid-1592411846110 .activation2{fill:#f4f4f4;stroke:#666}#mermaid-1592411846110 .mermaid-main-font{font-family:"trebuchet ms", verdana, arial;font-family:var(--mermaid-font-family)}#mermaid-1592411846110 .section{stroke:none;opacity:0.2}#mermaid-1592411846110 .section0{fill:rgba(102,102,255,0.49)}#mermaid-1592411846110 .section2{fill:#fff400}#mermaid-1592411846110 .section1,#mermaid-1592411846110 .section3{fill:#fff;opacity:0.2}#mermaid-1592411846110 .sectionTitle0{fill:#333}#mermaid-1592411846110 .sectionTitle1{fill:#333}#mermaid-1592411846110 .sectionTitle2{fill:#333}#mermaid-1592411846110 .sectionTitle3{fill:#333}#mermaid-1592411846110 .sectionTitle{text-anchor:start;font-size:11px;text-height:14px;font-family:'trebuchet ms', verdana, arial;font-family:var(--mermaid-font-family)}#mermaid-1592411846110 .grid .tick{stroke:#d3d3d3;opacity:0.8;shape-rendering:crispEdges}#mermaid-1592411846110 .grid .tick text{font-family:'trebuchet ms', verdana, arial;font-family:var(--mermaid-font-family)}#mermaid-1592411846110 .grid path{stroke-width:0}#mermaid-1592411846110 .today{fill:none;stroke:red;stroke-width:2px}#mermaid-1592411846110 .task{stroke-width:2}#mermaid-1592411846110 .taskText{text-anchor:middle;font-family:'trebuchet ms', verdana, arial;font-family:var(--mermaid-font-family)}#mermaid-1592411846110 .taskText:not([font-size]){font-size:11px}#mermaid-1592411846110 .taskTextOutsideRight{fill:#000;text-anchor:start;font-size:11px;font-family:'trebuchet ms', verdana, arial;font-family:var(--mermaid-font-family)}#mermaid-1592411846110 .taskTextOutsideLeft{fill:#000;text-anchor:end;font-size:11px}#mermaid-1592411846110 .task.clickable{cursor:pointer}#mermaid-1592411846110 .taskText.clickable{cursor:pointer;fill:#003163 !important;font-weight:bold}#mermaid-1592411846110 .taskTextOutsideLeft.clickable{cursor:pointer;fill:#003163 !important;font-weight:bold}#mermaid-1592411846110 .taskTextOutsideRight.clickable{cursor:pointer;fill:#003163 !important;font-weight:bold}#mermaid-1592411846110 .taskText0,#mermaid-1592411846110 .taskText1,#mermaid-1592411846110 .taskText2,#mermaid-1592411846110 .taskText3{fill:#fff}#mermaid-1592411846110 .task0,#mermaid-1592411846110 .task1,#mermaid-1592411846110 .task2,#mermaid-1592411846110 .task3{fill:#8a90dd;stroke:#534fbc}#mermaid-1592411846110 .taskTextOutside0,#mermaid-1592411846110 .taskTextOutside2{fill:#000}#mermaid-1592411846110 .taskTextOutside1,#mermaid-1592411846110 .taskTextOutside3{fill:#000}#mermaid-1592411846110 .active0,#mermaid-1592411846110 .active1,#mermaid-1592411846110 .active2,#mermaid-1592411846110 .active3{fill:#bfc7ff;stroke:#534fbc}#mermaid-1592411846110 .activeText0,#mermaid-1592411846110 .activeText1,#mermaid-1592411846110 .activeText2,#mermaid-1592411846110 .activeText3{fill:#000 !important}#mermaid-1592411846110 .done0,#mermaid-1592411846110 .done1,#mermaid-1592411846110 .done2,#mermaid-1592411846110 .done3{stroke:grey;fill:#d3d3d3;stroke-width:2}#mermaid-1592411846110 .doneText0,#mermaid-1592411846110 .doneText1,#mermaid-1592411846110 .doneText2,#mermaid-1592411846110 .doneText3{fill:#000 !important}#mermaid-1592411846110 .crit0,#mermaid-1592411846110 .crit1,#mermaid-1592411846110 .crit2,#mermaid-1592411846110 .crit3{stroke:#f88;fill:red;stroke-width:2}#mermaid-1592411846110 .activeCrit0,#mermaid-1592411846110 .activeCrit1,#mermaid-1592411846110 .activeCrit2,#mermaid-1592411846110 .activeCrit3{stroke:#f88;fill:#bfc7ff;stroke-width:2}#mermaid-1592411846110 .doneCrit0,#mermaid-1592411846110 .doneCrit1,#mermaid-1592411846110 .doneCrit2,#mermaid-1592411846110 .doneCrit3{stroke:#f88;fill:#d3d3d3;stroke-width:2;cursor:pointer;shape-rendering:crispEdges}#mermaid-1592411846110 .milestone{transform:rotate(45deg) scale(0.8, 0.8)}#mermaid-1592411846110 .milestoneText{font-style:italic}#mermaid-1592411846110 .doneCritText0,#mermaid-1592411846110 .doneCritText1,#mermaid-1592411846110 .doneCritText2,#mermaid-1592411846110 .doneCritText3{fill:#000 !important}#mermaid-1592411846110 .activeCritText0,#mermaid-1592411846110 .activeCritText1,#mermaid-1592411846110 .activeCritText2,#mermaid-1592411846110 .activeCritText3{fill:#000 !important}#mermaid-1592411846110 .titleText{text-anchor:middle;font-size:18px;fill:#000;font-family:'trebuchet ms', verdana, arial;font-family:var(--mermaid-font-family)}#mermaid-1592411846110 g.classGroup text{fill:#9370db;stroke:none;font-family:'trebuchet ms', verdana, arial;font-family:var(--mermaid-font-family);font-size:10px}#mermaid-1592411846110 g.classGroup text .title{font-weight:bolder}#mermaid-1592411846110 g.clickable{cursor:pointer}#mermaid-1592411846110 g.classGroup rect{fill:#ECECFF;stroke:#9370db}#mermaid-1592411846110 g.classGroup line{stroke:#9370db;stroke-width:1}#mermaid-1592411846110 .classLabel .box{stroke:none;stroke-width:0;fill:#ECECFF;opacity:0.5}#mermaid-1592411846110 .classLabel .label{fill:#9370db;font-size:10px}#mermaid-1592411846110 .relation{stroke:#9370db;stroke-width:1;fill:none}#mermaid-1592411846110 .dashed-line{stroke-dasharray:3}#mermaid-1592411846110 #compositionStart{fill:#9370db;stroke:#9370db;stroke-width:1}#mermaid-1592411846110 #compositionEnd{fill:#9370db;stroke:#9370db;stroke-width:1}#mermaid-1592411846110 #aggregationStart{fill:#ECECFF;stroke:#9370db;stroke-width:1}#mermaid-1592411846110 #aggregationEnd{fill:#ECECFF;stroke:#9370db;stroke-width:1}#mermaid-1592411846110 #dependencyStart{fill:#9370db;stroke:#9370db;stroke-width:1}#mermaid-1592411846110 #dependencyEnd{fill:#9370db;stroke:#9370db;stroke-width:1}#mermaid-1592411846110 #extensionStart{fill:#9370db;stroke:#9370db;stroke-width:1}#mermaid-1592411846110 #extensionEnd{fill:#9370db;stroke:#9370db;stroke-width:1}#mermaid-1592411846110 .commit-id,#mermaid-1592411846110 .commit-msg,#mermaid-1592411846110 .branch-label{fill:lightgrey;color:lightgrey;font-family:'trebuchet ms', verdana, arial;font-family:var(--mermaid-font-family)}#mermaid-1592411846110 .pieTitleText{text-anchor:middle;font-size:25px;fill:#000;font-family:'trebuchet ms', verdana, arial;font-family:var(--mermaid-font-family)}#mermaid-1592411846110 .slice{font-family:'trebuchet ms', verdana, arial;font-family:var(--mermaid-font-family)}#mermaid-1592411846110 g.stateGroup text{fill:#9370db;stroke:none;font-size:10px;font-family:'trebuchet ms', verdana, arial;font-family:var(--mermaid-font-family)}#mermaid-1592411846110 g.stateGroup text{fill:#9370db;stroke:none;font-size:10px}#mermaid-1592411846110 g.stateGroup .state-title{font-weight:bolder;fill:#000}#mermaid-1592411846110 g.stateGroup rect{fill:#ECECFF;stroke:#9370db}#mermaid-1592411846110 g.stateGroup line{stroke:#9370db;stroke-width:1}#mermaid-1592411846110 .transition{stroke:#9370db;stroke-width:1;fill:none}#mermaid-1592411846110 .stateGroup .composit{fill:white;border-bottom:1px}#mermaid-1592411846110 .stateGroup .alt-composit{fill:#e0e0e0;border-bottom:1px}#mermaid-1592411846110 .state-note{stroke:#aa3;fill:#fff5ad}#mermaid-1592411846110 .state-note text{fill:black;stroke:none;font-size:10px}#mermaid-1592411846110 .stateLabel .box{stroke:none;stroke-width:0;fill:#ECECFF;opacity:0.5}#mermaid-1592411846110 .stateLabel text{fill:#000;font-size:10px;font-weight:bold;font-family:'trebuchet ms', verdana, arial;font-family:var(--mermaid-font-family)}#mermaid-1592411846110 .node circle.state-start{fill:black;stroke:black}#mermaid-1592411846110 .node circle.state-end{fill:black;stroke:white;stroke-width:1.5}#mermaid-1592411846110 #statediagram-barbEnd{fill:#9370db}#mermaid-1592411846110 .statediagram-cluster rect{fill:#ECECFF;stroke:#9370db;stroke-width:1px}#mermaid-1592411846110 .statediagram-cluster rect.outer{rx:5px;ry:5px}#mermaid-1592411846110 .statediagram-state .divider{stroke:#9370db}#mermaid-1592411846110 .statediagram-state .title-state{rx:5px;ry:5px}#mermaid-1592411846110 .statediagram-cluster.statediagram-cluster .inner{fill:white}#mermaid-1592411846110 .statediagram-cluster.statediagram-cluster-alt .inner{fill:#e0e0e0}#mermaid-1592411846110 .statediagram-cluster .inner{rx:0;ry:0}#mermaid-1592411846110 .statediagram-state rect.basic{rx:5px;ry:5px}#mermaid-1592411846110 .statediagram-state rect.divider{stroke-dasharray:10,10;fill:#efefef}#mermaid-1592411846110 .note-edge{stroke-dasharray:5}#mermaid-1592411846110 .statediagram-note rect{fill:#fff5ad;stroke:#aa3;stroke-width:1px;rx:0;ry:0}:root{--mermaid-font-family: '"trebuchet ms", verdana, arial';--mermaid-font-family: "Comic Sans MS", "Comic Sans", cursive}

:root { --mermaid-font-family: "trebuchet ms", verdana, arial;}</style><style>#mermaid-1592411846110 {
    color: rgb(0, 0, 0);
    font: 16px "trebuchet ms", verdana, arial;
  }</style><g><defs><marker id="statediagram-barbEnd" refX="19" refY="7" markerWidth="20" markerHeight="14" markerUnits="0" orient="auto"><path d="M 19,7 L9,13 L14,7 L9,1 Z"></path></marker></defs><g class="root"><g class="clusters"></g><g class="edgePaths"><path d="M471.50390625,22L471.50390625,26.166666666666668C471.50390625,30.333333333333332,471.50390625,38.666666666666664,471.50390625,47C471.50390625,55.333333333333336,471.50390625,63.666666666666664,471.50390625,67.83333333333333L471.50390625,72" id="edge0" class="transition" marker-end="url(#statediagram-barbEnd)"></path><path d="M471.50390625,106L471.50390625,111.75C471.50390625,117.5,471.50390625,129,471.50390625,140.5C471.50390625,152,471.50390625,163.5,471.50390625,169.25L471.50390625,175" id="edge1" class="transition" marker-end="url(#statediagram-barbEnd)"></path><path d="M614.3863266167954,700.5L596.2600898889962,706.25C578.133853161197,712,541.8813797055985,723.5,523.7551429777992,740.0416666666666C505.62890625,756.5833333333334,505.62890625,778.1666666666666,505.62890625,799.75C505.62890625,821.3333333333334,505.62890625,842.9166666666666,505.62890625,864.5C505.62890625,886.0833333333334,505.62890625,907.6666666666666,505.62890625,929.25C505.62890625,950.8333333333334,505.62890625,972.4166666666666,505.62890625,994C505.62890625,1015.5833333333334,505.62890625,1037.1666666666667,505.62890625,1058.75C505.62890625,1080.3333333333333,505.62890625,1101.9166666666667,505.62890625,1123.5C505.62890625,1145.0833333333333,505.62890625,1166.6666666666667,505.62890625,1188.25C505.62890625,1209.8333333333333,505.62890625,1231.4166666666667,505.62890625,1253C505.62890625,1274.5833333333333,505.62890625,1296.1666666666667,505.62890625,1317.75C505.62890625,1339.3333333333333,505.62890625,1360.9166666666667,505.62890625,1382.5C505.62890625,1404.0833333333333,505.62890625,1425.6666666666667,505.62890625,1447.25C505.62890625,1468.8333333333333,505.62890625,1490.4166666666667,505.62890625,1512C505.62890625,1533.5833333333333,505.62890625,1555.1666666666667,505.62890625,1576.75C505.62890625,1598.3333333333333,505.62890625,1619.9166666666667,658.6015625,1640.5615066874946C811.57421875,1661.2063467083226,1117.51953125,1680.9126934166452,1270.4921875,1690.7658667708065L1423.46484375,1700.619040124968" id="edge2" class="transition" marker-end="url(#statediagram-barbEnd)"></path><path d="M481.10546875,355.73145900408366L438.322265625,363.02621583673636C395.5390625,370.32097266938916,309.97265625,384.91048633469455,267.189453125,400.7885765006806C224.40625,416.6666666666667,224.40625,433.8333333333333,224.40625,451C224.40625,468.1666666666667,224.40625,485.3333333333333,224.40625,502.5C224.40625,519.6666666666666,224.40625,536.8333333333334,224.40625,554C224.40625,571.1666666666666,224.40625,588.3333333333334,224.40625,607.7083333333334C224.40625,627.0833333333334,224.40625,648.6666666666666,224.40625,670.25C224.40625,691.8333333333334,224.40625,713.4166666666666,224.40625,735C224.40625,756.5833333333334,224.40625,778.1666666666666,224.40625,799.75C224.40625,821.3333333333334,224.40625,842.9166666666666,224.40625,864.5C224.40625,886.0833333333334,224.40625,907.6666666666666,224.40625,929.25C224.40625,950.8333333333334,224.40625,972.4166666666666,224.40625,994C224.40625,1015.5833333333334,224.40625,1037.1666666666667,224.40625,1058.75C224.40625,1080.3333333333333,224.40625,1101.9166666666667,224.40625,1123.5C224.40625,1145.0833333333333,224.40625,1166.6666666666667,224.40625,1188.25C224.40625,1209.8333333333333,224.40625,1231.4166666666667,224.40625,1253C224.40625,1274.5833333333333,224.40625,1296.1666666666667,224.40625,1317.75C224.40625,1339.3333333333333,224.40625,1360.9166666666667,224.40625,1382.5C224.40625,1404.0833333333333,224.40625,1425.6666666666667,224.40625,1447.25C224.40625,1468.8333333333333,224.40625,1490.4166666666667,224.40625,1512C224.40625,1533.5833333333333,224.40625,1555.1666666666667,224.40625,1576.75C224.40625,1598.3333333333333,224.40625,1619.9166666666667,424.2493489583333,1640.7666598854069C624.0924479166666,1661.616653104147,1023.7786458333334,1681.7333062082937,1223.6217447916667,1691.7916327603673L1423.46484375,1701.849959312441" id="edge3" class="transition" marker-end="url(#statediagram-barbEnd)"></path><path d="M336.97265625,229.09582482329415L298.5110677083333,235.91318735274513C260.0494791666667,242.7305498821961,183.12630208333334,256.36527494109805,144.66471354166666,273.9743041372157C106.203125,291.5833333333333,106.203125,313.1666666666667,106.203125,334.75C106.203125,356.3333333333333,106.203125,377.9166666666667,106.203125,397.2916666666667C106.203125,416.6666666666667,106.203125,433.8333333333333,106.203125,451C106.203125,468.1666666666667,106.203125,485.3333333333333,106.203125,502.5C106.203125,519.6666666666666,106.203125,536.8333333333334,106.203125,554C106.203125,571.1666666666666,106.203125,588.3333333333334,106.203125,607.7083333333334C106.203125,627.0833333333334,106.203125,648.6666666666666,106.203125,670.25C106.203125,691.8333333333334,106.203125,713.4166666666666,106.203125,735C106.203125,756.5833333333334,106.203125,778.1666666666666,106.203125,799.75C106.203125,821.3333333333334,106.203125,842.9166666666666,106.203125,864.5C106.203125,886.0833333333334,106.203125,907.6666666666666,106.203125,929.25C106.203125,950.8333333333334,106.203125,972.4166666666666,106.203125,994C106.203125,1015.5833333333334,106.203125,1037.1666666666667,106.203125,1058.75C106.203125,1080.3333333333333,106.203125,1101.9166666666667,106.203125,1123.5C106.203125,1145.0833333333333,106.203125,1166.6666666666667,106.203125,1188.25C106.203125,1209.8333333333333,106.203125,1231.4166666666667,106.203125,1253C106.203125,1274.5833333333333,106.203125,1296.1666666666667,106.203125,1317.75C106.203125,1339.3333333333333,106.203125,1360.9166666666667,106.203125,1382.5C106.203125,1404.0833333333333,106.203125,1425.6666666666667,106.203125,1447.25C106.203125,1468.8333333333333,106.203125,1490.4166666666667,106.203125,1512C106.203125,1533.5833333333333,106.203125,1555.1666666666667,106.203125,1576.75C106.203125,1598.3333333333333,106.203125,1619.9166666666667,325.7467447916667,1640.828369934288C545.2903645833334,1661.7400732019094,984.3776041666666,1681.9801464038183,1203.9212239583333,1692.1001830047728L1423.46484375,1702.2202196057274" id="edge4" class="transition" marker-end="url(#statediagram-barbEnd)"></path><path d="M533.4784477557915,235.5L545.2587325048263,241.25C557.0390172538611,247,580.5995867519305,258.5,592.3798715009652,270C604.16015625,281.5,604.16015625,293,604.16015625,298.75L604.16015625,304.5" id="edge5" class="transition" marker-end="url(#statediagram-barbEnd)"></path><path d="M613.469111969112,365L615.2385828909266,370.75C617.0080538127413,376.5,620.5469956563707,388,622.3164665781853,399.5C624.0859375,411,624.0859375,422.5,624.0859375,428.25L624.0859375,434" id="edge6" class="transition" marker-end="url(#statediagram-barbEnd)"></path><path d="M413.44353003640776,571L405.73354065533977,576.75C398.0235512742718,582.5,382.60357251213594,594,374.89358313106794,610.5416666666666C367.18359375,627.0833333333334,367.18359375,648.6666666666666,367.18359375,670.25C367.18359375,691.8333333333334,367.18359375,713.4166666666666,367.18359375,735C367.18359375,756.5833333333334,367.18359375,778.1666666666666,367.18359375,799.75C367.18359375,821.3333333333334,367.18359375,842.9166666666666,367.18359375,864.5C367.18359375,886.0833333333334,367.18359375,907.6666666666666,367.18359375,929.25C367.18359375,950.8333333333334,367.18359375,972.4166666666666,367.18359375,994C367.18359375,1015.5833333333334,367.18359375,1037.1666666666667,367.18359375,1058.75C367.18359375,1080.3333333333333,367.18359375,1101.9166666666667,367.18359375,1123.5C367.18359375,1145.0833333333333,367.18359375,1166.6666666666667,367.18359375,1188.25C367.18359375,1209.8333333333333,367.18359375,1231.4166666666667,367.18359375,1253C367.18359375,1274.5833333333333,367.18359375,1296.1666666666667,367.18359375,1317.75C367.18359375,1339.3333333333333,367.18359375,1360.9166666666667,367.18359375,1382.5C367.18359375,1404.0833333333333,367.18359375,1425.6666666666667,367.18359375,1447.25C367.18359375,1468.8333333333333,367.18359375,1490.4166666666667,367.18359375,1512C367.18359375,1533.5833333333333,367.18359375,1555.1666666666667,367.18359375,1576.75C367.18359375,1598.3333333333333,367.18359375,1619.9166666666667,543.23046875,1640.675111343361C719.27734375,1661.4335560200554,1071.37109375,1681.3671120401111,1247.41796875,1691.3338900501387L1423.46484375,1701.3006680601663" id="edge7" class="transition" marker-end="url(#statediagram-barbEnd)"></path><path d="M562.0779733009708,468L541.1046912924756,473.75C520.1314092839806,479.5,478.1848452669903,491,457.2115632584951,502.5C436.23828125,514,436.23828125,525.5,436.23828125,531.25L436.23828125,537" id="edge8" class="transition" marker-end="url(#statediagram-barbEnd)"></path><path d="M526.5224135315534,571L557.0596935679612,576.75C587.5969736043689,582.5,648.6715336771845,594,679.2088137135922,605.5C709.74609375,617,709.74609375,628.5,709.74609375,634.25L709.74609375,640" id="edge9" class="transition" marker-end="url(#statediagram-barbEnd)"></path><path d="M733.4592030646718,700.5L737.9666535955598,706.25C742.4741041264479,712,751.4890051882239,723.5,755.996455719112,740.0416666666666C760.50390625,756.5833333333334,760.50390625,778.1666666666666,760.50390625,799.75C760.50390625,821.3333333333334,760.50390625,842.9166666666666,760.50390625,864.5C760.50390625,886.0833333333334,760.50390625,907.6666666666666,760.50390625,929.25C760.50390625,950.8333333333334,760.50390625,972.4166666666666,760.50390625,994C760.50390625,1015.5833333333334,760.50390625,1037.1666666666667,760.50390625,1058.75C760.50390625,1080.3333333333333,760.50390625,1101.9166666666667,760.50390625,1123.5C760.50390625,1145.0833333333333,760.50390625,1166.6666666666667,760.50390625,1188.25C760.50390625,1209.8333333333333,760.50390625,1231.4166666666667,760.50390625,1253C760.50390625,1274.5833333333333,760.50390625,1296.1666666666667,760.50390625,1317.75C760.50390625,1339.3333333333333,760.50390625,1360.9166666666667,760.50390625,1382.5C760.50390625,1404.0833333333333,760.50390625,1425.6666666666667,760.50390625,1447.25C760.50390625,1468.8333333333333,760.50390625,1490.4166666666667,760.50390625,1512C760.50390625,1533.5833333333333,760.50390625,1555.1666666666667,760.50390625,1576.75C760.50390625,1598.3333333333333,760.50390625,1619.9166666666667,870.9973958333334,1640.2427380816043C981.4908854166666,1660.5688094965417,1202.4778645833333,1679.6376189930834,1312.9713541666667,1689.1720237413545L1423.46484375,1698.706428489625" id="edge10" class="transition" marker-end="url(#statediagram-barbEnd)"></path><path d="M806.12890625,695.1909354168944L831.7688802083334,701.8257795140786C857.4088541666666,708.4606236112628,908.6888020833334,721.7303118056315,948.6298890966859,734.1151559028158C988.5709761100385,746.5,1017.1732022200772,758,1031.4743152750964,763.75L1045.7754283301158,769.5" id="edge11" class="transition" marker-end="url(#statediagram-barbEnd)"></path><path d="M729.6484375,453.4202841590874L1086.4231770833333,461.60023679923944C1443.1979166666667,469.78018943939156,2156.7473958333335,486.14009471969575,2513.5221354166665,502.9033806931812C2870.296875,519.6666666666666,2870.296875,536.8333333333334,2870.296875,554C2870.296875,571.1666666666666,2870.296875,588.3333333333334,2870.296875,607.7083333333334C2870.296875,627.0833333333334,2870.296875,648.6666666666666,2870.296875,670.25C2870.296875,691.8333333333334,2870.296875,713.4166666666666,2600.9016927083335,734.1800283374682C2331.5065104166665,754.9433900082698,1792.7161458333333,774.8867800165395,1523.3209635416667,784.8584750206743L1253.92578125,794.8301700248093" id="edge12" class="transition" marker-end="url(#statediagram-barbEnd)"></path><path d="M1053.854382842664,830L1041.08893882722,835.75C1028.323494811776,841.5,1002.792606780888,853,990.0271627654441,864.5C977.26171875,876,977.26171875,887.5,977.26171875,893.25L977.26171875,899" id="edge13" class="transition" marker-end="url(#statediagram-barbEnd)"></path><path d="M977.26171875,959.5L977.26171875,965.25C977.26171875,971,977.26171875,982.5,990.0271627654441,994C1002.792606780888,1005.5,1028.323494811776,1017,1041.08893882722,1022.75L1053.854382842664,1028.5" id="edge14" class="transition" marker-end="url(#statediagram-barbEnd)"></path><path d="M1253.92578125,804.6435600516191L1524.8860677083333,814.6196333763493C1795.8463541666667,824.5957067010795,2337.7669270833335,844.5478533505398,2608.7272135416665,865.3155933419365C2879.6875,886.0833333333334,2879.6875,907.6666666666666,2879.6875,929.25C2879.6875,950.8333333333334,2879.6875,972.4166666666666,2603.2272135416665,993.3869027655306C2326.7669270833335,1014.3571388643946,1773.8463541666667,1034.7142777287895,1497.3860677083333,1044.8928471609868L1220.92578125,1055.0714165931843" id="edge15" class="transition" marker-end="url(#statediagram-barbEnd)"></path><path d="M1121.01171875,1089L1121.01171875,1094.75C1121.01171875,1100.5,1121.01171875,1112,1121.01171875,1123.5C1121.01171875,1135,1121.01171875,1146.5,1121.01171875,1152.25L1121.01171875,1158" id="edge16" class="transition" marker-end="url(#statediagram-barbEnd)"></path><path d="M1015.9451616795367,1218.5L995.9738326496139,1224.25C976.0025036196912,1230,936.0598455598456,1241.5,916.0885165299228,1258.0416666666667C896.1171875,1274.5833333333333,896.1171875,1296.1666666666667,896.1171875,1317.75C896.1171875,1339.3333333333333,896.1171875,1360.9166666666667,896.1171875,1382.5C896.1171875,1404.0833333333333,896.1171875,1425.6666666666667,896.1171875,1447.25C896.1171875,1468.8333333333333,896.1171875,1490.4166666666667,896.1171875,1512C896.1171875,1533.5833333333333,896.1171875,1555.1666666666667,896.1171875,1576.75C896.1171875,1598.3333333333333,896.1171875,1619.9166666666667,984.0084635416666,1639.9653960770358C1071.8997395833333,1660.0141254874052,1247.6822916666667,1678.5282509748106,1335.5735677083333,1687.7853137185132L1423.46484375,1697.042376462216" id="edge17" class="transition" marker-end="url(#statediagram-barbEnd)"></path><path d="M727.21484375,337.99932576340467L1115.3951822916667,348.24943813617057C1503.5755208333333,358.4995505089364,2279.9361979166665,378.9997752544682,2668.1165364583335,397.8332209605674C3056.296875,416.6666666666667,3056.296875,433.8333333333333,3056.296875,451C3056.296875,468.1666666666667,3056.296875,485.3333333333333,3056.296875,502.5C3056.296875,519.6666666666666,3056.296875,536.8333333333334,3056.296875,554C3056.296875,571.1666666666666,3056.296875,588.3333333333334,3056.296875,607.7083333333334C3056.296875,627.0833333333334,3056.296875,648.6666666666666,3056.296875,670.25C3056.296875,691.8333333333334,3056.296875,713.4166666666666,3056.296875,735C3056.296875,756.5833333333334,3056.296875,778.1666666666666,3056.296875,799.75C3056.296875,821.3333333333334,3056.296875,842.9166666666666,3056.296875,864.5C3056.296875,886.0833333333334,3056.296875,907.6666666666666,3056.296875,929.25C3056.296875,950.8333333333334,3056.296875,972.4166666666666,3056.296875,994C3056.296875,1015.5833333333334,3056.296875,1037.1666666666667,3056.296875,1058.75C3056.296875,1080.3333333333333,3056.296875,1101.9166666666667,3056.296875,1123.5C3056.296875,1145.0833333333333,3056.296875,1166.6666666666667,3056.296875,1188.25C3056.296875,1209.8333333333333,3056.296875,1231.4166666666667,3056.296875,1253C3056.296875,1274.5833333333333,3056.296875,1296.1666666666667,3056.296875,1317.75C3056.296875,1339.3333333333333,3056.296875,1360.9166666666667,3056.296875,1382.5C3056.296875,1404.0833333333333,3056.296875,1425.6666666666667,3056.296875,1447.25C3056.296875,1468.8333333333333,3056.296875,1490.4166666666667,3056.296875,1512C3056.296875,1533.5833333333333,3056.296875,1555.1666666666667,3056.296875,1576.75C3056.296875,1598.3333333333333,3056.296875,1619.9166666666667,3056.296875,1641.5C3056.296875,1663.0833333333333,3056.296875,1684.6666666666667,3056.296875,1706.25C3056.296875,1727.8333333333333,3056.296875,1749.4166666666667,2810.1022135416665,1768.41264402317C2563.9075520833335,1787.4086213796736,2071.5182291666665,1803.8172427593472,1825.3235677083333,1812.0215534491838L1579.12890625,1820.2258641390206" id="edge18" class="transition" marker-end="url(#statediagram-barbEnd)"></path><path d="M1082.2776303088804,1218.5L1074.9149523407336,1224.25C1067.552274372587,1230,1052.8269184362935,1241.5,1045.4642404681467,1258.0416666666667C1038.1015625,1274.5833333333333,1038.1015625,1296.1666666666667,1038.1015625,1317.75C1038.1015625,1339.3333333333333,1038.1015625,1360.9166666666667,1038.1015625,1382.5C1038.1015625,1404.0833333333333,1038.1015625,1425.6666666666667,1038.1015625,1447.25C1038.1015625,1468.8333333333333,1038.1015625,1490.4166666666667,1038.1015625,1512C1038.1015625,1533.5833333333333,1038.1015625,1555.1666666666667,1038.1015625,1576.75C1038.1015625,1598.3333333333333,1038.1015625,1619.9166666666667,1038.1015625,1641.5C1038.1015625,1663.0833333333333,1038.1015625,1684.6666666666667,1038.1015625,1706.25C1038.1015625,1727.8333333333333,1038.1015625,1749.4166666666667,1105.525390625,1767.5527414699573C1172.94921875,1785.6888162732478,1307.796875,1800.3776325464958,1375.220703125,1807.7220406831195L1442.64453125,1815.0664488197433" id="edge19" class="transition" marker-end="url(#statediagram-barbEnd)"></path><path d="M1423.46484375,1726.7303126236645L1391.9700520833333,1734.108593853054C1360.4752604166667,1741.4868750824432,1297.4856770833333,1756.2434375412215,1300.6822916666667,1770.085785422202C1303.87890625,1783.928133303183,1373.26171875,1796.8562666063656,1407.953125,1803.320333257957L1442.64453125,1809.7843999095483" id="edge20" class="transition" marker-end="url(#statediagram-barbEnd)"></path><path d="M1233.16796875,1204.5934664885012L1288.5325520833333,1212.6612220737509C1343.8971354166667,1220.7289776590007,1454.6263020833333,1236.8644888295005,1509.9908854166667,1250.6822444147501C1565.35546875,1264.5,1565.35546875,1276,1565.35546875,1281.75L1565.35546875,1287.5" id="edge21" class="transition" marker-end="url(#statediagram-barbEnd)"></path><path d="M1462.50390625,1341.8399167738198L1433.5709635416667,1348.6165973115164C1404.6380208333333,1355.3932778492133,1346.7721354166667,1368.9466389246065,1317.8391927083333,1386.5149861289701C1288.90625,1404.0833333333333,1288.90625,1425.6666666666667,1288.90625,1447.25C1288.90625,1468.8333333333333,1288.90625,1490.4166666666667,1288.90625,1512C1288.90625,1533.5833333333333,1288.90625,1555.1666666666667,1288.90625,1576.75C1288.90625,1598.3333333333333,1288.90625,1619.9166666666667,1311.3326822916667,1637.2499516075104C1333.7591145833333,1654.5832365483545,1378.6119791666667,1667.6664730967088,1401.0384114583333,1674.208091370886L1423.46484375,1680.7497096450631" id="edge22" class="transition" marker-end="url(#statediagram-barbEnd)"></path><path d="M1835.046875,1475.802951388889L1807.5846354166667,1481.8357928240741C1780.1223958333333,1487.8686342592591,1725.1979166666667,1499.9343171296296,1697.7356770833333,1516.7588252314815C1670.2734375,1533.5833333333333,1670.2734375,1555.1666666666667,1670.2734375,1576.75C1670.2734375,1598.3333333333333,1670.2734375,1619.9166666666667,1656.1194045608108,1636.4583333333333C1641.9653716216217,1653,1613.6573057432433,1664.5,1599.503272804054,1670.25L1585.3492398648648,1676" id="edge23" class="transition" marker-end="url(#statediagram-barbEnd)"></path><path d="M2366.640625,1594.267786614972L2314.21484375,1602.1398221791433C2261.7890625,1610.0118577433147,2156.9375,1625.7559288716573,2028.8821614583333,1642.676413999274C1900.8268229166667,1659.5968991268908,1749.5677083333333,1677.6937982537813,1673.9381510416667,1686.7422478172268L1598.30859375,1695.7906973806723" id="edge24" class="transition" marker-end="url(#statediagram-barbEnd)"></path><path d="M1550.7067748552124,1348L1547.9223123793436,1353.75C1545.1378499034752,1359.5,1539.5689249517375,1371,1536.7844624758688,1387.5416666666667C1534,1404.0833333333333,1534,1425.6666666666667,1534,1447.25C1534,1468.8333333333333,1534,1490.4166666666667,1534,1512C1534,1533.5833333333333,1534,1555.1666666666667,1534,1576.75C1534,1598.3333333333333,1534,1619.9166666666667,1531.9474692326255,1636.4583333333333C1529.8949384652508,1653,1525.7898769305018,1664.5,1523.7373461631275,1670.25L1521.6848153957528,1676" id="edge25" class="transition" marker-end="url(#statediagram-barbEnd)"></path><path d="M1668.20703125,1334.4129282118947L1717.6764322916667,1342.427440176579C1767.1458333333333,1350.441952141263,1866.0846354166667,1366.4709760706317,1915.5540364583333,1380.235488035316C1965.0234375,1394,1965.0234375,1405.5,1965.0234375,1411.25L1965.0234375,1417" id="edge26" class="transition" marker-end="url(#statediagram-barbEnd)"></path><path d="M1945.5149613899614,1477.5L1941.8067386583014,1483.25C1938.0985159266409,1489,1930.6820704633203,1500.5,1926.9738477316603,1517.0416666666667C1923.265625,1533.5833333333333,1923.265625,1555.1666666666667,1923.265625,1576.75C1923.265625,1598.3333333333333,1923.265625,1619.9166666666667,1869.1061197916667,1639.212230863227C1814.9466145833333,1658.5077950597872,1706.6276041666667,1675.5155901195742,1652.4680989583333,1684.019487649468L1598.30859375,1692.5233851793614" id="edge27" class="transition" marker-end="url(#statediagram-barbEnd)"></path><path d="M2095,1463.488253693096L2159.7174479166665,1471.5735447442469C2224.4348958333335,1479.6588357953976,2353.8697916666665,1495.8294178976987,2418.5872395833335,1509.6647089488495C2483.3046875,1523.5,2483.3046875,1535,2483.3046875,1540.75L2483.3046875,1546.5" id="edge28" class="transition" marker-end="url(#statediagram-barbEnd)"></path><path d="M2395.7775096525097,1607L2379.140112210425,1612.75C2362.50271476834,1618.5,2329.2279198841698,1630,2196.3164339004184,1645.3399495547583C2063.4049479166665,1660.6798991095166,1830.8567708333333,1679.8597982190333,1714.5826822916667,1689.4497477737916L1598.30859375,1699.0396973285501" id="edge29" class="transition" marker-end="url(#statediagram-barbEnd)"></path><path d="M2458.8689068532817,1607L2454.2240890444014,1612.75C2449.579271235521,1618.5,2440.2896356177607,1630,2435.6448178088804,1646.5416666666667C2431,1663.0833333333333,2431,1684.6666666666667,2431,1706.25C2431,1727.8333333333333,2431,1749.4166666666667,2457.992813258495,1765.9583333333333C2484.9856265169906,1782.5,2538.9712530339807,1794,2565.9640662924758,1799.75L2592.956879550971,1805.5" id="edge30" class="transition" marker-end="url(#statediagram-barbEnd)"></path><path d="M2527.756274131274,1607L2536.205749276062,1612.75C2544.655224420849,1618.5,2561.554174710425,1630,2406.646227980212,1645.6579485870682C2251.73828125,1661.3158971741366,1925.0234375,1681.131794348273,1761.666015625,1691.0397429353413L1598.30859375,1700.9476915224097" id="edge31" class="transition" marker-end="url(#statediagram-barbEnd)"></path><path d="M2599.96875,1597.1352198937427L2642.28515625,1604.5293499114523C2684.6015625,1611.9234799291619,2769.234375,1626.711739964581,2602.291015625,1644.195048596206C2435.34765625,1661.678357227831,2016.828125,1681.856714455662,1807.568359375,1691.9458930695776L1598.30859375,1702.0350716834932" id="edge32" class="transition" marker-end="url(#statediagram-barbEnd)"></path><path d="M1598.30859375,1714.208748221906L1702.2779947916667,1723.6739568515884C1806.2473958333333,1733.1391654812705,2014.1861979166667,1752.0695827406353,2010.9895833333333,1769.2945674540624C2007.79296875,1786.5195521674896,1793.4609375,1802.0391043349791,1686.294921875,1809.7988804187237L1579.12890625,1817.5586565024687" id="edge33" class="transition" marker-end="url(#statediagram-barbEnd)"></path><path d="M1510.88671875,1839.5L1510.88671875,1843.6666666666667C1510.88671875,1847.8333333333333,1510.88671875,1856.1666666666667,1584.4730103517322,1865.5836373049176C1658.0593019534647,1875.000607943168,1805.2318851569296,1885.5012158863362,1878.8181767586618,1890.7515198579204L1952.4044683603943,1896.0018238295042" id="edge34" class="transition" marker-end="url(#statediagram-barbEnd)"></path><path d="M2672.76171875,1839.5L2672.76171875,1843.6666666666667C2672.76171875,1847.8333333333333,2672.76171875,1856.1666666666667,2555.031380087202,1865.6143858473822C2437.301041424404,1875.0621050280977,2201.8403640988076,1885.6242100561951,2084.1100254360094,1890.905262570244L1966.3796867732115,1896.1863150842926" id="edge35" class="transition" marker-end="url(#statediagram-barbEnd)"></path></g><g class="edgeLabels"><g class="edgeLabel"><g class="label" transform="translate(0, 0)"><rect rx="0" ry="0" width="0" height="0" style="fill:#e8e8e8;"></rect><text style=""></text></g></g><g class="edgeLabel" transform="translate(471.50390625, 140.5)"><g class="label" transform="translate(-68.6875, -9.5)"><rect rx="0" ry="0" width="137.375" height="19" style="fill:#e8e8e8;"></rect><text style=""><tspan xml:space="preserve" dy="1em" x="0" class="row">ProviderEventOpen</tspan></text></g></g><g class="edgeLabel" transform="translate(505.62890625, 1188.25)"><g class="label" transform="translate(-98.203125, -9.5)"><rect rx="0" ry="0" width="196.40625" height="19" style="fill:#e8e8e8;"></rect><text style=""><tspan xml:space="preserve" dy="1em" x="0" class="row">ProviderEventDealRejected</tspan></text></g></g><g class="edgeLabel" transform="translate(224.40625, 994)"><g class="label" transform="translate(-98.203125, -9.5)"><rect rx="0" ry="0" width="196.40625" height="19" style="fill:#e8e8e8;"></rect><text style=""><tspan xml:space="preserve" dy="1em" x="0" class="row">ProviderEventDealRejected</tspan></text></g></g><g class="edgeLabel" transform="translate(106.203125, 929.25)"><g class="label" transform="translate(-98.203125, -9.5)"><rect rx="0" ry="0" width="196.40625" height="19" style="fill:#e8e8e8;"></rect><text style=""><tspan xml:space="preserve" dy="1em" x="0" class="row">ProviderEventDealRejected</tspan></text></g></g><g class="edgeLabel" transform="translate(604.16015625, 270)"><g class="label" transform="translate(-96.5703125, -9.5)"><rect rx="0" ry="0" width="193.140625" height="19" style="fill:#e8e8e8;"></rect><text style=""><tspan xml:space="preserve" dy="1em" x="0" class="row">ProviderEventDealDeciding</tspan></text></g></g><g class="edgeLabel" transform="translate(624.0859375, 399.5)"><g class="label" transform="translate(-104.03125, -9.5)"><rect rx="0" ry="0" width="208.0625" height="19" style="fill:#e8e8e8;"></rect><text style=""><tspan xml:space="preserve" dy="1em" x="0" class="row">ProviderEventDataRequested</tspan></text></g></g><g class="edgeLabel" transform="translate(367.18359375, 1123.5)"><g class="label" transform="translate(-118.4453125, -9.5)"><rect rx="0" ry="0" width="236.890625" height="19" style="fill:#e8e8e8;"></rect><text style=""><tspan xml:space="preserve" dy="1em" x="0" class="row">ProviderEventDataTransferFailed</tspan></text></g></g><g class="edgeLabel" transform="translate(436.23828125, 502.5)"><g class="label" transform="translate(-127.109375, -9.5)"><rect rx="0" ry="0" width="254.21875" height="19" style="fill:#e8e8e8;"></rect><text style=""><tspan xml:space="preserve" dy="1em" x="0" class="row">ProviderEventDataTransferInitiated</tspan></text></g></g><g class="edgeLabel" transform="translate(709.74609375, 605.5)"><g class="label" transform="translate(-135.4765625, -9.5)"><rect rx="0" ry="0" width="270.953125" height="19" style="fill:#e8e8e8;"></rect><text style=""><tspan xml:space="preserve" dy="1em" x="0" class="row">ProviderEventDataTransferCompleted</tspan></text></g></g><g class="edgeLabel" transform="translate(760.50390625, 1188.25)"><g class="label" transform="translate(-136.671875, -9.5)"><rect rx="0" ry="0" width="273.34375" height="19" style="fill:#e8e8e8;"></rect><text style=""><tspan xml:space="preserve" dy="1em" x="0" class="row">ProviderEventGeneratePieceCIDFailed</tspan></text></g></g><g class="edgeLabel" transform="translate(959.96875, 735)"><g class="label" transform="translate(-95.1015625, -9.5)"><rect rx="0" ry="0" width="190.203125" height="19" style="fill:#e8e8e8;"></rect><text style=""><tspan xml:space="preserve" dy="1em" x="0" class="row">ProviderEventVerifiedData</tspan></text></g></g><g class="edgeLabel" transform="translate(2870.296875, 605.5)"><g class="label" transform="translate(-95.1015625, -9.5)"><rect rx="0" ry="0" width="190.203125" height="19" style="fill:#e8e8e8;"></rect><text style=""><tspan xml:space="preserve" dy="1em" x="0" class="row">ProviderEventVerifiedData</tspan></text></g></g><g class="edgeLabel" transform="translate(977.26171875, 864.5)"><g class="label" transform="translate(-108.6953125, -9.5)"><rect rx="0" ry="0" width="217.390625" height="19" style="fill:#e8e8e8;"></rect><text style=""><tspan xml:space="preserve" dy="1em" x="0" class="row">ProviderEventFundingInitiated</tspan></text></g></g><g class="edgeLabel" transform="translate(977.26171875, 994)"><g class="label" transform="translate(-76.3203125, -9.5)"><rect rx="0" ry="0" width="152.640625" height="19" style="fill:#e8e8e8;"></rect><text style=""><tspan xml:space="preserve" dy="1em" x="0" class="row">ProviderEventFunded</tspan></text></g></g><g class="edgeLabel" transform="translate(2879.6875, 929.25)"><g class="label" transform="translate(-76.3203125, -9.5)"><rect rx="0" ry="0" width="152.640625" height="19" style="fill:#e8e8e8;"></rect><text style=""><tspan xml:space="preserve" dy="1em" x="0" class="row">ProviderEventFunded</tspan></text></g></g><g class="edgeLabel" transform="translate(1121.01171875, 1123.5)"><g class="label" transform="translate(-122, -9.5)"><rect rx="0" ry="0" width="244" height="19" style="fill:#e8e8e8;"></rect><text style=""><tspan xml:space="preserve" dy="1em" x="0" class="row">ProviderEventDealPublishInitiated</tspan></text></g></g><g class="edgeLabel" transform="translate(896.1171875, 1447.25)"><g class="label" transform="translate(-109.3828125, -9.5)"><rect rx="0" ry="0" width="218.765625" height="19" style="fill:#e8e8e8;"></rect><text style=""><tspan xml:space="preserve" dy="1em" x="0" class="row">ProviderEventDealPublishError</tspan></text></g></g><g class="edgeLabel" transform="translate(3056.296875, 1058.75)"><g class="label" transform="translate(-121.984375, -9.5)"><rect rx="0" ry="0" width="243.96875" height="19" style="fill:#e8e8e8;"></rect><text style=""><tspan xml:space="preserve" dy="1em" x="0" class="row">ProviderEventSendResponseFailed</tspan></text></g></g><g class="edgeLabel" transform="translate(1038.1015625, 1512)"><g class="label" transform="translate(-121.984375, -9.5)"><rect rx="0" ry="0" width="243.96875" height="19" style="fill:#e8e8e8;"></rect><text style=""><tspan xml:space="preserve" dy="1em" x="0" class="row">ProviderEventSendResponseFailed</tspan></text></g></g><g class="edgeLabel" transform="translate(1234.49609375, 1771)"><g class="label" transform="translate(-121.984375, -9.5)"><rect rx="0" ry="0" width="243.96875" height="19" style="fill:#e8e8e8;"></rect><text style=""><tspan xml:space="preserve" dy="1em" x="0" class="row">ProviderEventSendResponseFailed</tspan></text></g></g><g class="edgeLabel" transform="translate(1565.35546875, 1253)"><g class="label" transform="translate(-100.296875, -9.5)"><rect rx="0" ry="0" width="200.59375" height="19" style="fill:#e8e8e8;"></rect><text style=""><tspan xml:space="preserve" dy="1em" x="0" class="row">ProviderEventDealPublished</tspan></text></g></g><g class="edgeLabel" transform="translate(1288.90625, 1512)"><g class="label" transform="translate(-108.8203125, -9.5)"><rect rx="0" ry="0" width="217.640625" height="19" style="fill:#e8e8e8;"></rect><text style=""><tspan xml:space="preserve" dy="1em" x="0" class="row">ProviderEventFileStoreErrored</tspan></text></g></g><g class="edgeLabel" transform="translate(1670.2734375, 1576.75)"><g class="label" transform="translate(-108.8203125, -9.5)"><rect rx="0" ry="0" width="217.640625" height="19" style="fill:#e8e8e8;"></rect><text style=""><tspan xml:space="preserve" dy="1em" x="0" class="row">ProviderEventFileStoreErrored</tspan></text></g></g><g class="edgeLabel" transform="translate(2052.0859375, 1641.5)"><g class="label" transform="translate(-108.8203125, -9.5)"><rect rx="0" ry="0" width="217.640625" height="19" style="fill:#e8e8e8;"></rect><text style=""><tspan xml:space="preserve" dy="1em" x="0" class="row">ProviderEventFileStoreErrored</tspan></text></g></g><g class="edgeLabel" transform="translate(1534, 1512)"><g class="label" transform="translate(-116.2734375, -9.5)"><rect rx="0" ry="0" width="232.546875" height="19" style="fill:#e8e8e8;"></rect><text style=""><tspan xml:space="preserve" dy="1em" x="0" class="row">ProviderEventDealHandoffFailed</tspan></text></g></g><g class="edgeLabel" transform="translate(1965.0234375, 1382.5)"><g class="label" transform="translate(-104.3671875, -9.5)"><rect rx="0" ry="0" width="208.734375" height="19" style="fill:#e8e8e8;"></rect><text style=""><tspan xml:space="preserve" dy="1em" x="0" class="row">ProviderEventDealHandedOff</tspan></text></g></g><g class="edgeLabel" transform="translate(1923.265625, 1576.75)"><g class="label" transform="translate(-124.171875, -9.5)"><rect rx="0" ry="0" width="248.34375" height="19" style="fill:#e8e8e8;"></rect><text style=""><tspan xml:space="preserve" dy="1em" x="0" class="row">ProviderEventDealActivationFailed</tspan></text></g></g><g class="edgeLabel" transform="translate(2483.3046875, 1512)"><g class="label" transform="translate(-100.1796875, -9.5)"><rect rx="0" ry="0" width="200.359375" height="19" style="fill:#e8e8e8;"></rect><text style=""><tspan xml:space="preserve" dy="1em" x="0" class="row">ProviderEventDealActivated</tspan></text></g></g><g class="edgeLabel" transform="translate(2295.953125, 1641.5)"><g class="label" transform="translate(-115.046875, -9.5)"><rect rx="0" ry="0" width="230.09375" height="19" style="fill:#e8e8e8;"></rect><text style=""><tspan xml:space="preserve" dy="1em" x="0" class="row">ProviderEventPieceStoreErrored</tspan></text></g></g><g class="edgeLabel" transform="translate(2431, 1706.25)"><g class="label" transform="translate(-104.828125, -9.5)"><rect rx="0" ry="0" width="209.65625" height="19" style="fill:#e8e8e8;"></rect><text style=""><tspan xml:space="preserve" dy="1em" x="0" class="row">ProviderEventDealCompleted</tspan></text></g></g><g class="edgeLabel" transform="translate(2578.453125, 1641.5)"><g class="label" transform="translate(-127.453125, -9.5)"><rect rx="0" ry="0" width="254.90625" height="19" style="fill:#e8e8e8;"></rect><text style=""><tspan xml:space="preserve" dy="1em" x="0" class="row">ProviderEventUnableToLocatePiece</tspan></text></g></g><g class="edgeLabel" transform="translate(2853.8671875, 1641.5)"><g class="label" transform="translate(-127.9609375, -9.5)"><rect rx="0" ry="0" width="255.921875" height="19" style="fill:#e8e8e8;"></rect><text style=""><tspan xml:space="preserve" dy="1em" x="0" class="row">ProviderEventReadMetadataErrored</tspan></text></g></g><g class="edgeLabel" transform="translate(2222.125, 1771)"><g class="label" transform="translate(-71.96875, -9.5)"><rect rx="0" ry="0" width="143.9375" height="19" style="fill:#e8e8e8;"></rect><text style=""><tspan xml:space="preserve" dy="1em" x="0" class="row">ProviderEventFailed</tspan></text></g></g><g class="edgeLabel"><g class="label" transform="translate(0, 0)"><rect rx="0" ry="0" width="0" height="0" style="fill:#e8e8e8;"></rect><text style=""></text></g></g><g class="edgeLabel"><g class="label" transform="translate(0, 0)"><rect rx="0" ry="0" width="0" height="0" style="fill:#e8e8e8;"></rect><text style=""></text></g></g></g><g class="nodes"><g class="node statediagram-state" id="0" transform="translate(471.50390625, 89)"><rect class="outer title-state" x="-82.921875" y="-17" width="165.84375" height="34"></rect><line class="divider" x1="-82.921875" x2="82.921875" y1="9.5" y2="9.5"></line><g class="label" transform="translate(-75.421875, -14)"><text style=""><tspan xml:space="preserve" dy="1em" x="0" class="title-row">StorageDealUnknown</tspan></text><text style="" transform="translate( 0, 26.5)"><tspan xml:space="preserve" dy="1em" x="0" class="title-row"></tspan></text></g></g><g class="node statediagram-state" id="4" transform="translate(1565.35546875, 1317.75)"><rect class="outer title-state" x="-102.8515625" y="-30.25" width="205.703125" height="60.5"></rect><line class="divider" x1="-102.8515625" x2="102.8515625" y1="-3.75" y2="-3.75"></line><g class="label" transform="translate(-95.3515625, -27.25)"><text style=""><tspan xml:space="preserve" dy="1em" x="0" class="title-row">StorageDealStaged</tspan></text><text style="" transform="translate( 0, 26.5)"><tspan xml:space="preserve" dy="1em" x="0" class="title-row">On entry runs HandoffDeal</tspan></text></g></g><g class="node statediagram-state" id="5" transform="translate(1965.0234375, 1447.25)"><rect class="outer title-state" x="-129.9765625" y="-30.25" width="259.953125" height="60.5"></rect><line class="divider" x1="-129.9765625" x2="129.9765625" y1="-3.75" y2="-3.75"></line><g class="label" transform="translate(-122.4765625, -27.25)"><text style=""><tspan xml:space="preserve" dy="1em" x="0" class="title-row">StorageDealSealing</tspan></text><text style="" transform="translate( 0, 26.5)"><tspan xml:space="preserve" dy="1em" x="0" class="title-row">On entry runs VerifyDealActivated</tspan></text></g></g><g class="node statediagram-state" id="6" transform="translate(2483.3046875, 1576.75)"><rect class="outer title-state" x="-116.6640625" y="-30.25" width="233.328125" height="60.5"></rect><line class="divider" x1="-116.6640625" x2="116.6640625" y1="-3.75" y2="-3.75"></line><g class="label" transform="translate(-109.1640625, -27.25)"><text style=""><tspan xml:space="preserve" dy="1em" x="0" class="title-row">StorageDealActive</tspan></text><text style="" transform="translate( 0, 26.5)"><tspan xml:space="preserve" dy="1em" x="0" class="title-row">On entry runs RecordPieceInfo</tspan></text></g></g><g class="node statediagram-state" id="7" transform="translate(1510.88671875, 1706.25)"><rect class="outer title-state" x="-87.421875" y="-30.25" width="174.84375" height="60.5"></rect><line class="divider" x1="-87.421875" x2="87.421875" y1="-3.75" y2="-3.75"></line><g class="label" transform="translate(-79.921875, -27.25)"><text style=""><tspan xml:space="preserve" dy="1em" x="0" class="title-row">StorageDealFailing</tspan></text><text style="" transform="translate( 0, 26.5)"><tspan xml:space="preserve" dy="1em" x="0" class="title-row">On entry runs FailDeal</tspan></text></g></g><g class="node statediagram-state" id="11" transform="translate(471.50390625, 205.25)"><rect class="outer title-state" x="-134.53125" y="-30.25" width="269.0625" height="60.5"></rect><line class="divider" x1="-134.53125" x2="134.53125" y1="-3.75" y2="-3.75"></line><g class="label" transform="translate(-127.03125, -27.25)"><text style=""><tspan xml:space="preserve" dy="1em" x="0" class="title-row">StorageDealValidating</tspan></text><text style="" transform="translate( 0, 26.5)"><tspan xml:space="preserve" dy="1em" x="0" class="title-row">On entry runs ValidateDealProposal</tspan></text></g></g><g class="node statediagram-state" id="12" transform="translate(604.16015625, 334.75)"><rect class="outer title-state" x="-123.0546875" y="-30.25" width="246.109375" height="60.5"></rect><line class="divider" x1="-123.0546875" x2="123.0546875" y1="-3.75" y2="-3.75"></line><g class="label" transform="translate(-115.5546875, -27.25)"><text style=""><tspan xml:space="preserve" dy="1em" x="0" class="title-row">StorageDealAcceptWait</tspan></text><text style="" transform="translate( 0, 26.5)"><tspan xml:space="preserve" dy="1em" x="0" class="title-row">On entry runs DecideOnProposal</tspan></text></g></g><g class="node statediagram-state" id="13" transform="translate(436.23828125, 554)"><rect class="outer title-state" x="-94.109375" y="-17" width="188.21875" height="34"></rect><line class="divider" x1="-94.109375" x2="94.109375" y1="9.5" y2="9.5"></line><g class="label" transform="translate(-86.609375, -14)"><text style=""><tspan xml:space="preserve" dy="1em" x="0" class="title-row">StorageDealTransferring</tspan></text><text style="" transform="translate( 0, 26.5)"><tspan xml:space="preserve" dy="1em" x="0" class="title-row"></tspan></text></g></g><g class="node statediagram-state" id="14" transform="translate(624.0859375, 451)"><rect class="outer title-state" x="-105.5625" y="-17" width="211.125" height="34"></rect><line class="divider" x1="-105.5625" x2="105.5625" y1="9.5" y2="9.5"></line><g class="label" transform="translate(-98.0625, -14)"><text style=""><tspan xml:space="preserve" dy="1em" x="0" class="title-row">StorageDealWaitingForData</tspan></text><text style="" transform="translate( 0, 26.5)"><tspan xml:space="preserve" dy="1em" x="0" class="title-row"></tspan></text></g></g><g class="node statediagram-state" id="15" transform="translate(709.74609375, 670.25)"><rect class="outer title-state" x="-96.3828125" y="-30.25" width="192.765625" height="60.5"></rect><line class="divider" x1="-96.3828125" x2="96.3828125" y1="-3.75" y2="-3.75"></line><g class="label" transform="translate(-88.8828125, -27.25)"><text style=""><tspan xml:space="preserve" dy="1em" x="0" class="title-row">StorageDealVerifyData</tspan></text><text style="" transform="translate( 0, 26.5)"><tspan xml:space="preserve" dy="1em" x="0" class="title-row">On entry runs VerifyData</tspan></text></g></g><g class="node statediagram-state" id="16" transform="translate(1121.01171875, 799.75)"><rect class="outer title-state" x="-132.9140625" y="-30.25" width="265.828125" height="60.5"></rect><line class="divider" x1="-132.9140625" x2="132.9140625" y1="-3.75" y2="-3.75"></line><g class="label" transform="translate(-125.4140625, -27.25)"><text style=""><tspan xml:space="preserve" dy="1em" x="0" class="title-row">StorageDealEnsureProviderFunds</tspan></text><text style="" transform="translate( 0, 26.5)"><tspan xml:space="preserve" dy="1em" x="0" class="title-row">On entry runs EnsureProviderFunds</tspan></text></g></g><g class="node statediagram-state" id="18" transform="translate(977.26171875, 929.25)"><rect class="outer title-state" x="-114.6875" y="-30.25" width="229.375" height="60.5"></rect><line class="divider" x1="-114.6875" x2="114.6875" y1="-3.75" y2="-3.75"></line><g class="label" transform="translate(-107.1875, -27.25)"><text style=""><tspan xml:space="preserve" dy="1em" x="0" class="title-row">StorageDealProviderFunding</tspan></text><text style="" transform="translate( 0, 26.5)"><tspan xml:space="preserve" dy="1em" x="0" class="title-row">On entry runs WaitForFunding</tspan></text></g></g><g class="node statediagram-state" id="20" transform="translate(1121.01171875, 1058.75)"><rect class="outer title-state" x="-99.9140625" y="-30.25" width="199.828125" height="60.5"></rect><line class="divider" x1="-99.9140625" x2="99.9140625" y1="-3.75" y2="-3.75"></line><g class="label" transform="translate(-92.4140625, -27.25)"><text style=""><tspan xml:space="preserve" dy="1em" x="0" class="title-row">StorageDealPublish</tspan></text><text style="" transform="translate( 0, 26.5)"><tspan xml:space="preserve" dy="1em" x="0" class="title-row">On entry runs PublishDeal</tspan></text></g></g><g class="node statediagram-state" id="21" transform="translate(1121.01171875, 1188.25)"><rect class="outer title-state" x="-112.15625" y="-30.25" width="224.3125" height="60.5"></rect><line class="divider" x1="-112.15625" x2="112.15625" y1="-3.75" y2="-3.75"></line><g class="label" transform="translate(-104.65625, -27.25)"><text style=""><tspan xml:space="preserve" dy="1em" x="0" class="title-row">StorageDealPublishing</tspan></text><text style="" transform="translate( 0, 26.5)"><tspan xml:space="preserve" dy="1em" x="0" class="title-row">On entry runs WaitForPublish</tspan></text></g></g><g class="node statediagram-state" id="22" transform="translate(1510.88671875, 1822.5)"><rect class="outer title-state" x="-68.2421875" y="-17" width="136.484375" height="34"></rect><line class="divider" x1="-68.2421875" x2="68.2421875" y1="9.5" y2="9.5"></line><g class="label" transform="translate(-60.7421875, -14)"><text style=""><tspan xml:space="preserve" dy="1em" x="0" class="title-row">StorageDealError</tspan></text><text style="" transform="translate( 0, 26.5)"><tspan xml:space="preserve" dy="1em" x="0" class="title-row"></tspan></text></g></g><g class="node statediagram-state" id="23" transform="translate(2672.76171875, 1822.5)"><rect class="outer title-state" x="-89.2265625" y="-17" width="178.453125" height="34"></rect><line class="divider" x1="-89.2265625" x2="89.2265625" y1="9.5" y2="9.5"></line><g class="label" transform="translate(-81.7265625, -14)"><text style=""><tspan xml:space="preserve" dy="1em" x="0" class="title-row">StorageDealCompleted</tspan></text><text style="" transform="translate( 0, 26.5)"><tspan xml:space="preserve" dy="1em" x="0" class="title-row"></tspan></text></g></g><g class="node default" id="root_start" transform="translate(471.50390625, 15)"><circle class="state-start" r="7" width="14" height="14"></circle></g><g class="node default" id="root_end" transform="translate(1959.38671875, 1896.5)"><circle class="state-start" r="7" width="14" height="14"></circle><circle class="state-end" r="5" width="10" height="10"></circle></g></g></g></g></svg>