<svg id="mermaid-1592421864930" width="2941.7578125" xmlns="http://www.w3.org/2000/svg" class="statediagram" height="1911.5" viewBox="0 0 2941.7578125 1911.5"><style>#mermaid-1592421864930 .label{font-family:'trebuchet ms', verdana, arial;font-family:var(--mermaid-font-family);color:#333}#mermaid-1592421864930 .label text{fill:#333}#mermaid-1592421864930 .node rect,#mermaid-1592421864930 .node circle,#mermaid-1592421864930 .node ellipse,#mermaid-1592421864930 .node polygon,#mermaid-1592421864930 .node path{fill:#ECECFF;stroke:#9370db;stroke-width:1px}#mermaid-1592421864930 .node .label{text-align:center}#mermaid-1592421864930 .node.clickable{cursor:pointer}#mermaid-1592421864930 .arrowheadPath{fill:#333}#mermaid-1592421864930 .edgePath .path{stroke:#333;stroke-width:1.5px}#mermaid-1592421864930 .edgeLabel{background-color:#e8e8e8;text-align:center}#mermaid-1592421864930 .edgeLabel rect{opacity:0.5}#mermaid-1592421864930 .cluster rect{fill:#ffffde;stroke:#aa3;stroke-width:1px}#mermaid-1592421864930 .cluster text{fill:#333}#mermaid-1592421864930 div.mermaidTooltip{position:absolute;text-align:center;max-width:200px;padding:2px;font-family:'trebuchet ms', verdana, arial;font-family:var(--mermaid-font-family);font-size:12px;background:#ffffde;border:1px solid #aa3;border-radius:2px;pointer-events:none;z-index:100}#mermaid-1592421864930 .actor{stroke:#ccf;fill:#ECECFF}#mermaid-1592421864930 text.actor{fill:#000;stroke:none}#mermaid-1592421864930 .actor-line{stroke:grey}#mermaid-1592421864930 .messageLine0{stroke-width:1.5;stroke-dasharray:'2 2';stroke:#333}#mermaid-1592421864930 .messageLine1{stroke-width:1.5;stroke-dasharray:'2 2';stroke:#333}#mermaid-1592421864930 #arrowhead{fill:#333}#mermaid-1592421864930 .sequenceNumber{fill:#fff}#mermaid-1592421864930 #sequencenumber{fill:#333}#mermaid-1592421864930 #crosshead path{fill:#333 !important;stroke:#333 !important}#mermaid-1592421864930 .messageText{fill:#333;stroke:none}#mermaid-1592421864930 .labelBox{stroke:#ccf;fill:#ECECFF}#mermaid-1592421864930 .labelText{fill:#000;stroke:none}#mermaid-1592421864930 .loopText{fill:#000;stroke:none}#mermaid-1592421864930 .loopLine{stroke-width:2;stroke-dasharray:'2 2';stroke:#ccf}#mermaid-1592421864930 .note{stroke:#aa3;fill:#fff5ad}#mermaid-1592421864930 .noteText{fill:black;stroke:none;font-family:'trebuchet ms', verdana, arial;font-family:var(--mermaid-font-family);font-size:14px}#mermaid-1592421864930 .activation0{fill:#f4f4f4;stroke:#666}#mermaid-1592421864930 .activation1{fill:#f4f4f4;stroke:#666}#mermaid-1592421864930 .activation2{fill:#f4f4f4;stroke:#666}#mermaid-1592421864930 .mermaid-main-font{font-family:"trebuchet ms", verdana, arial;font-family:var(--mermaid-font-family)}#mermaid-1592421864930 .section{stroke:none;opacity:0.2}#mermaid-1592421864930 .section0{fill:rgba(102,102,255,0.49)}#mermaid-1592421864930 .section2{fill:#fff400}#mermaid-1592421864930 .section1,#mermaid-1592421864930 .section3{fill:#fff;opacity:0.2}#mermaid-1592421864930 .sectionTitle0{fill:#333}#mermaid-1592421864930 .sectionTitle1{fill:#333}#mermaid-1592421864930 .sectionTitle2{fill:#333}#mermaid-1592421864930 .sectionTitle3{fill:#333}#mermaid-1592421864930 .sectionTitle{text-anchor:start;font-size:11px;text-height:14px;font-family:'trebuchet ms', verdana, arial;font-family:var(--mermaid-font-family)}#mermaid-1592421864930 .grid .tick{stroke:#d3d3d3;opacity:0.8;shape-rendering:crispEdges}#mermaid-1592421864930 .grid .tick text{font-family:'trebuchet ms', verdana, arial;font-family:var(--mermaid-font-family)}#mermaid-1592421864930 .grid path{stroke-width:0}#mermaid-1592421864930 .today{fill:none;stroke:red;stroke-width:2px}#mermaid-1592421864930 .task{stroke-width:2}#mermaid-1592421864930 .taskText{text-anchor:middle;font-family:'trebuchet ms', verdana, arial;font-family:var(--mermaid-font-family)}#mermaid-1592421864930 .taskText:not([font-size]){font-size:11px}#mermaid-1592421864930 .taskTextOutsideRight{fill:#000;text-anchor:start;font-size:11px;font-family:'trebuchet ms', verdana, arial;font-family:var(--mermaid-font-family)}#mermaid-1592421864930 .taskTextOutsideLeft{fill:#000;text-anchor:end;font-size:11px}#mermaid-1592421864930 .task.clickable{cursor:pointer}#mermaid-1592421864930 .taskText.clickable{cursor:pointer;fill:#003163 !important;font-weight:bold}#mermaid-1592421864930 .taskTextOutsideLeft.clickable{cursor:pointer;fill:#003163 !important;font-weight:bold}#mermaid-1592421864930 .taskTextOutsideRight.clickable{cursor:pointer;fill:#003163 !important;font-weight:bold}#mermaid-1592421864930 .taskText0,#mermaid-1592421864930 .taskText1,#mermaid-1592421864930 .taskText2,#mermaid-1592421864930 .taskText3{fill:#fff}#mermaid-1592421864930 .task0,#mermaid-1592421864930 .task1,#mermaid-1592421864930 .task2,#mermaid-1592421864930 .task3{fill:#8a90dd;stroke:#534fbc}#mermaid-1592421864930 .taskTextOutside0,#mermaid-1592421864930 .taskTextOutside2{fill:#000}#mermaid-1592421864930 .taskTextOutside1,#mermaid-1592421864930 .taskTextOutside3{fill:#000}#mermaid-1592421864930 .active0,#mermaid-1592421864930 .active1,#mermaid-1592421864930 .active2,#mermaid-1592421864930 .active3{fill:#bfc7ff;stroke:#534fbc}#mermaid-1592421864930 .activeText0,#mermaid-1592421864930 .activeText1,#mermaid-1592421864930 .activeText2,#mermaid-1592421864930 .activeText3{fill:#000 !important}#mermaid-1592421864930 .done0,#mermaid-1592421864930 .done1,#mermaid-1592421864930 .done2,#mermaid-1592421864930 .done3{stroke:grey;fill:#d3d3d3;stroke-width:2}#mermaid-1592421864930 .doneText0,#mermaid-1592421864930 .doneText1,#mermaid-1592421864930 .doneText2,#mermaid-1592421864930 .doneText3{fill:#000 !important}#mermaid-1592421864930 .crit0,#mermaid-1592421864930 .crit1,#mermaid-1592421864930 .crit2,#mermaid-1592421864930 .crit3{stroke:#f88;fill:red;stroke-width:2}#mermaid-1592421864930 .activeCrit0,#mermaid-1592421864930 .activeCrit1,#mermaid-1592421864930 .activeCrit2,#mermaid-1592421864930 .activeCrit3{stroke:#f88;fill:#bfc7ff;stroke-width:2}#mermaid-1592421864930 .doneCrit0,#mermaid-1592421864930 .doneCrit1,#mermaid-1592421864930 .doneCrit2,#mermaid-1592421864930 .doneCrit3{stroke:#f88;fill:#d3d3d3;stroke-width:2;cursor:pointer;shape-rendering:crispEdges}#mermaid-1592421864930 .milestone{transform:rotate(45deg) scale(0.8, 0.8)}#mermaid-1592421864930 .milestoneText{font-style:italic}#mermaid-1592421864930 .doneCritText0,#mermaid-1592421864930 .doneCritText1,#mermaid-1592421864930 .doneCritText2,#mermaid-1592421864930 .doneCritText3{fill:#000 !important}#mermaid-1592421864930 .activeCritText0,#mermaid-1592421864930 .activeCritText1,#mermaid-1592421864930 .activeCritText2,#mermaid-1592421864930 .activeCritText3{fill:#000 !important}#mermaid-1592421864930 .titleText{text-anchor:middle;font-size:18px;fill:#000;font-family:'trebuchet ms', verdana, arial;font-family:var(--mermaid-font-family)}#mermaid-1592421864930 g.classGroup text{fill:#9370db;stroke:none;font-family:'trebuchet ms', verdana, arial;font-family:var(--mermaid-font-family);font-size:10px}#mermaid-1592421864930 g.classGroup text .title{font-weight:bolder}#mermaid-1592421864930 g.clickable{cursor:pointer}#mermaid-1592421864930 g.classGroup rect{fill:#ECECFF;stroke:#9370db}#mermaid-1592421864930 g.classGroup line{stroke:#9370db;stroke-width:1}#mermaid-1592421864930 .classLabel .box{stroke:none;stroke-width:0;fill:#ECECFF;opacity:0.5}#mermaid-1592421864930 .classLabel .label{fill:#9370db;font-size:10px}#mermaid-1592421864930 .relation{stroke:#9370db;stroke-width:1;fill:none}#mermaid-1592421864930 .dashed-line{stroke-dasharray:3}#mermaid-1592421864930 #compositionStart{fill:#9370db;stroke:#9370db;stroke-width:1}#mermaid-1592421864930 #compositionEnd{fill:#9370db;stroke:#9370db;stroke-width:1}#mermaid-1592421864930 #aggregationStart{fill:#ECECFF;stroke:#9370db;stroke-width:1}#mermaid-1592421864930 #aggregationEnd{fill:#ECECFF;stroke:#9370db;stroke-width:1}#mermaid-1592421864930 #dependencyStart{fill:#9370db;stroke:#9370db;stroke-width:1}#mermaid-1592421864930 #dependencyEnd{fill:#9370db;stroke:#9370db;stroke-width:1}#mermaid-1592421864930 #extensionStart{fill:#9370db;stroke:#9370db;stroke-width:1}#mermaid-1592421864930 #extensionEnd{fill:#9370db;stroke:#9370db;stroke-width:1}#mermaid-1592421864930 .commit-id,#mermaid-1592421864930 .commit-msg,#mermaid-1592421864930 .branch-label{fill:lightgrey;color:lightgrey;font-family:'trebuchet ms', verdana, arial;font-family:var(--mermaid-font-family)}#mermaid-1592421864930 .pieTitleText{text-anchor:middle;font-size:25px;fill:#000;font-family:'trebuchet ms', verdana, arial;font-family:var(--mermaid-font-family)}#mermaid-1592421864930 .slice{font-family:'trebuchet ms', verdana, arial;font-family:var(--mermaid-font-family)}#mermaid-1592421864930 g.stateGroup text{fill:#9370db;stroke:none;font-size:10px;font-family:'trebuchet ms', verdana, arial;font-family:var(--mermaid-font-family)}#mermaid-1592421864930 g.stateGroup text{fill:#9370db;stroke:none;font-size:10px}#mermaid-1592421864930 g.stateGroup .state-title{font-weight:bolder;fill:#000}#mermaid-1592421864930 g.stateGroup rect{fill:#ECECFF;stroke:#9370db}#mermaid-1592421864930 g.stateGroup line{stroke:#9370db;stroke-width:1}#mermaid-1592421864930 .transition{stroke:#9370db;stroke-width:1;fill:none}#mermaid-1592421864930 .stateGroup .composit{fill:white;border-bottom:1px}#mermaid-1592421864930 .stateGroup .alt-composit{fill:#e0e0e0;border-bottom:1px}#mermaid-1592421864930 .state-note{stroke:#aa3;fill:#fff5ad}#mermaid-1592421864930 .state-note text{fill:black;stroke:none;font-size:10px}#mermaid-1592421864930 .stateLabel .box{stroke:none;stroke-width:0;fill:#ECECFF;opacity:0.5}#mermaid-1592421864930 .stateLabel text{fill:#000;font-size:10px;font-weight:bold;font-family:'trebuchet ms', verdana, arial;font-family:var(--mermaid-font-family)}#mermaid-1592421864930 .node circle.state-start{fill:black;stroke:black}#mermaid-1592421864930 .node circle.state-end{fill:black;stroke:white;stroke-width:1.5}#mermaid-1592421864930 #statediagram-barbEnd{fill:#9370db}#mermaid-1592421864930 .statediagram-cluster rect{fill:#ECECFF;stroke:#9370db;stroke-width:1px}#mermaid-1592421864930 .statediagram-cluster rect.outer{rx:5px;ry:5px}#mermaid-1592421864930 .statediagram-state .divider{stroke:#9370db}#mermaid-1592421864930 .statediagram-state .title-state{rx:5px;ry:5px}#mermaid-1592421864930 .statediagram-cluster.statediagram-cluster .inner{fill:white}#mermaid-1592421864930 .statediagram-cluster.statediagram-cluster-alt .inner{fill:#e0e0e0}#mermaid-1592421864930 .statediagram-cluster .inner{rx:0;ry:0}#mermaid-1592421864930 .statediagram-state rect.basic{rx:5px;ry:5px}#mermaid-1592421864930 .statediagram-state rect.divider{stroke-dasharray:10,10;fill:#efefef}#mermaid-1592421864930 .note-edge{stroke-dasharray:5}#mermaid-1592421864930 .statediagram-note rect{fill:#fff5ad;stroke:#aa3;stroke-width:1px;rx:0;ry:0}:root{--mermaid-font-family: '"trebuchet ms", verdana, arial';--mermaid-font-family: "Comic Sans MS", "Comic Sans", cursive}

:root { --mermaid-font-family: "trebuchet ms", verdana, arial;}</style><style>#mermaid-1592421864930 {
    color: rgb(0, 0, 0);
    font: 16px "trebuchet ms", verdana, arial;
  }</style><g><defs><marker id="statediagram-barbEnd" refX="19" refY="7" markerWidth="20" markerHeight="14" markerUnits="0" orient="auto"><path d="M 19,7 L9,13 L14,7 L9,1 Z"></path></marker></defs><g class="root"><g class="clusters"></g><g class="edgePaths"><path d="M463.76953125,22L463.76953125,26.166666666666668C463.76953125,30.333333333333332,463.76953125,38.666666666666664,463.76953125,47C463.76953125,55.333333333333336,463.76953125,63.666666666666664,463.76953125,67.83333333333333L463.76953125,72" id="edge0" class="transition" marker-end="url(#statediagram-barbEnd)"></path><path d="M463.76953125,106L463.76953125,111.75C463.76953125,117.5,463.76953125,129,463.76953125,140.5C463.76953125,152,463.76953125,163.5,463.76953125,169.25L463.76953125,175" id="edge1" class="transition" marker-end="url(#statediagram-barbEnd)"></path><path d="M440.496229488417,235.5L436.07237874034746,241.25C431.64852799227793,247,422.800826496139,258.5,418.3769757480695,275.0416666666667C413.953125,291.5833333333333,413.953125,313.1666666666667,413.953125,334.75C413.953125,356.3333333333333,413.953125,377.9166666666667,413.953125,397.2916666666667C413.953125,416.6666666666667,413.953125,433.8333333333333,413.953125,451C413.953125,468.1666666666667,413.953125,485.3333333333333,413.953125,502.5C413.953125,519.6666666666666,413.953125,536.8333333333334,413.953125,554C413.953125,571.1666666666666,413.953125,588.3333333333334,413.953125,607.7083333333334C413.953125,627.0833333333334,413.953125,648.6666666666666,413.953125,670.25C413.953125,691.8333333333334,413.953125,713.4166666666666,413.953125,735C413.953125,756.5833333333334,413.953125,778.1666666666666,413.953125,799.75C413.953125,821.3333333333334,413.953125,842.9166666666666,413.953125,864.5C413.953125,886.0833333333334,413.953125,907.6666666666666,413.953125,929.25C413.953125,950.8333333333334,413.953125,972.4166666666666,413.953125,994C413.953125,1015.5833333333334,413.953125,1037.1666666666667,413.953125,1058.75C413.953125,1080.3333333333333,413.953125,1101.9166666666667,413.953125,1123.5C413.953125,1145.0833333333333,413.953125,1166.6666666666667,413.953125,1188.25C413.953125,1209.8333333333333,413.953125,1231.4166666666667,413.953125,1253C413.953125,1274.5833333333333,413.953125,1296.1666666666667,413.953125,1317.75C413.953125,1339.3333333333333,413.953125,1360.9166666666667,413.953125,1382.5C413.953125,1404.0833333333333,413.953125,1425.6666666666667,413.953125,1447.25C413.953125,1468.8333333333333,413.953125,1490.4166666666667,413.953125,1512C413.953125,1533.5833333333333,413.953125,1555.1666666666667,413.953125,1576.75C413.953125,1598.3333333333333,413.953125,1619.9166666666667,558.7298177083334,1640.5132355765106C703.5065104166666,1661.1098044863545,993.0598958333334,1680.7196089727088,1137.8365885416667,1690.5245112158862L1282.61328125,1700.3294134590635" id="edge2" class="transition" marker-end="url(#statediagram-barbEnd)"></path><path d="M577.9049981901544,365L573.6011703667954,370.75C569.2973425434362,376.5,560.6896868967182,388,556.385859073359,402.3333333333333C552.08203125,416.6666666666667,552.08203125,433.8333333333333,552.08203125,451C552.08203125,468.1666666666667,552.08203125,485.3333333333333,552.08203125,502.5C552.08203125,519.6666666666666,552.08203125,536.8333333333334,552.08203125,554C552.08203125,571.1666666666666,552.08203125,588.3333333333334,552.08203125,607.7083333333334C552.08203125,627.0833333333334,552.08203125,648.6666666666666,552.08203125,670.25C552.08203125,691.8333333333334,552.08203125,713.4166666666666,552.08203125,735C552.08203125,756.5833333333334,552.08203125,778.1666666666666,552.08203125,799.75C552.08203125,821.3333333333334,552.08203125,842.9166666666666,552.08203125,864.5C552.08203125,886.0833333333334,552.08203125,907.6666666666666,552.08203125,929.25C552.08203125,950.8333333333334,552.08203125,972.4166666666666,552.08203125,994C552.08203125,1015.5833333333334,552.08203125,1037.1666666666667,552.08203125,1058.75C552.08203125,1080.3333333333333,552.08203125,1101.9166666666667,552.08203125,1123.5C552.08203125,1145.0833333333333,552.08203125,1166.6666666666667,552.08203125,1188.25C552.08203125,1209.8333333333333,552.08203125,1231.4166666666667,552.08203125,1253C552.08203125,1274.5833333333333,552.08203125,1296.1666666666667,552.08203125,1317.75C552.08203125,1339.3333333333333,552.08203125,1360.9166666666667,552.08203125,1382.5C552.08203125,1404.0833333333333,552.08203125,1425.6666666666667,552.08203125,1447.25C552.08203125,1468.8333333333333,552.08203125,1490.4166666666667,552.08203125,1512C552.08203125,1533.5833333333333,552.08203125,1555.1666666666667,552.08203125,1576.75C552.08203125,1598.3333333333333,552.08203125,1619.9166666666667,673.8372395833334,1640.3465992664617C795.5924479166666,1660.7765318662566,1039.1028645833333,1680.053063732513,1160.8580729166667,1689.6913296656414L1282.61328125,1699.3295955987699" id="edge3" class="transition" marker-end="url(#statediagram-barbEnd)"></path><path d="M869.01953125,691.3968100595632L835.8971354166666,698.6640083829693C802.7747395833334,705.9312067063755,736.5299479166666,720.4656033531877,703.4075520833334,738.5244683432605C670.28515625,756.5833333333334,670.28515625,778.1666666666666,670.28515625,799.75C670.28515625,821.3333333333334,670.28515625,842.9166666666666,670.28515625,864.5C670.28515625,886.0833333333334,670.28515625,907.6666666666666,670.28515625,929.25C670.28515625,950.8333333333334,670.28515625,972.4166666666666,670.28515625,994C670.28515625,1015.5833333333334,670.28515625,1037.1666666666667,670.28515625,1058.75C670.28515625,1080.3333333333333,670.28515625,1101.9166666666667,670.28515625,1123.5C670.28515625,1145.0833333333333,670.28515625,1166.6666666666667,670.28515625,1188.25C670.28515625,1209.8333333333333,670.28515625,1231.4166666666667,670.28515625,1253C670.28515625,1274.5833333333333,670.28515625,1296.1666666666667,670.28515625,1317.75C670.28515625,1339.3333333333333,670.28515625,1360.9166666666667,670.28515625,1382.5C670.28515625,1404.0833333333333,670.28515625,1425.6666666666667,670.28515625,1447.25C670.28515625,1468.8333333333333,670.28515625,1490.4166666666667,670.28515625,1512C670.28515625,1533.5833333333333,670.28515625,1555.1666666666667,670.28515625,1576.75C670.28515625,1598.3333333333333,670.28515625,1619.9166666666667,772.33984375,1640.1517645811002C874.39453125,1660.386862495534,1078.50390625,1679.273724991068,1180.55859375,1688.717156238835L1282.61328125,1698.1605874866023" id="edge4" class="transition" marker-end="url(#statediagram-barbEnd)"></path><path d="M527.6693713803089,235.5L539.8156219835907,241.25C551.9618725868726,247,576.2543737934362,258.5,588.4006243967182,270C600.546875,281.5,600.546875,293,600.546875,298.75L600.546875,304.5" id="edge5" class="transition" marker-end="url(#statediagram-barbEnd)"></path><path d="M723.6015625,354.54460144013353L770.1796875,362.03716786677796C816.7578125,369.52973429342234,909.9140625,384.5148671467112,956.4921875,397.7574335733556C1003.0703125,411,1003.0703125,422.5,1003.0703125,428.25L1003.0703125,434" id="edge6" class="transition" marker-end="url(#statediagram-barbEnd)"></path><path d="M854.9877882281553,571L847.2782349817961,576.75C839.5686817354368,582.5,824.1495752427185,594,816.4400219963592,610.5416666666666C808.73046875,627.0833333333334,808.73046875,648.6666666666666,808.73046875,670.25C808.73046875,691.8333333333334,808.73046875,713.4166666666666,808.73046875,735C808.73046875,756.5833333333334,808.73046875,778.1666666666666,808.73046875,799.75C808.73046875,821.3333333333334,808.73046875,842.9166666666666,808.73046875,864.5C808.73046875,886.0833333333334,808.73046875,907.6666666666666,808.73046875,929.25C808.73046875,950.8333333333334,808.73046875,972.4166666666666,808.73046875,994C808.73046875,1015.5833333333334,808.73046875,1037.1666666666667,808.73046875,1058.75C808.73046875,1080.3333333333333,808.73046875,1101.9166666666667,808.73046875,1123.5C808.73046875,1145.0833333333333,808.73046875,1166.6666666666667,808.73046875,1188.25C808.73046875,1209.8333333333333,808.73046875,1231.4166666666667,808.73046875,1253C808.73046875,1274.5833333333333,808.73046875,1296.1666666666667,808.73046875,1317.75C808.73046875,1339.3333333333333,808.73046875,1360.9166666666667,808.73046875,1382.5C808.73046875,1404.0833333333333,808.73046875,1425.6666666666667,808.73046875,1447.25C808.73046875,1468.8333333333333,808.73046875,1490.4166666666667,808.73046875,1512C808.73046875,1533.5833333333333,808.73046875,1555.1666666666667,808.73046875,1576.75C808.73046875,1598.3333333333333,808.73046875,1619.9166666666667,887.7109375,1639.8192234888027C966.69140625,1659.7217803109386,1124.65234375,1677.943560621877,1203.6328125,1687.0544507773463L1282.61328125,1696.1653409328155" id="edge7" class="transition" marker-end="url(#statediagram-barbEnd)"></path><path d="M961.7127578883495,468L947.7241732402913,473.75C933.7355885922331,479.5,905.7584192961166,491,891.7698346480582,502.5C877.78125,514,877.78125,525.5,877.78125,531.25L877.78125,537" id="edge8" class="transition" marker-end="url(#statediagram-barbEnd)"></path><path d="M906.7047178398059,571L916.4876554915049,576.75C926.2705931432039,582.5,945.836468446602,594,955.619406098301,605.5C965.40234375,617,965.40234375,628.5,965.40234375,634.25L965.40234375,640" id="edge9" class="transition" marker-end="url(#statediagram-barbEnd)"></path><path d="M965.40234375,700.5L965.40234375,706.25C965.40234375,712,965.40234375,723.5,965.40234375,740.0416666666666C965.40234375,756.5833333333334,965.40234375,778.1666666666666,965.40234375,799.75C965.40234375,821.3333333333334,965.40234375,842.9166666666666,965.40234375,864.5C965.40234375,886.0833333333334,965.40234375,907.6666666666666,965.40234375,929.25C965.40234375,950.8333333333334,965.40234375,972.4166666666666,965.40234375,994C965.40234375,1015.5833333333334,965.40234375,1037.1666666666667,965.40234375,1058.75C965.40234375,1080.3333333333333,965.40234375,1101.9166666666667,965.40234375,1123.5C965.40234375,1145.0833333333333,965.40234375,1166.6666666666667,965.40234375,1188.25C965.40234375,1209.8333333333333,965.40234375,1231.4166666666667,965.40234375,1253C965.40234375,1274.5833333333333,965.40234375,1296.1666666666667,965.40234375,1317.75C965.40234375,1339.3333333333333,965.40234375,1360.9166666666667,965.40234375,1382.5C965.40234375,1404.0833333333333,965.40234375,1425.6666666666667,965.40234375,1447.25C965.40234375,1468.8333333333333,965.40234375,1490.4166666666667,965.40234375,1512C965.40234375,1533.5833333333333,965.40234375,1555.1666666666667,965.40234375,1576.75C965.40234375,1598.3333333333333,965.40234375,1619.9166666666667,1018.2708333333334,1639.1684349236384C1071.1393229166667,1658.42020318061,1176.8763020833333,1675.34040636122,1229.7447916666667,1683.800507951525L1282.61328125,1692.26060954183" id="edge10" class="transition" marker-end="url(#statediagram-barbEnd)"></path><path d="M1078.8391990291261,468L1104.4669106492718,473.75C1130.0946222694174,479.5,1181.3500455097087,491,1206.9777571298544,505.3333333333333C1232.60546875,519.6666666666666,1232.60546875,536.8333333333334,1232.60546875,554C1232.60546875,571.1666666666666,1232.60546875,588.3333333333334,1232.60546875,607.7083333333334C1232.60546875,627.0833333333334,1232.60546875,648.6666666666666,1232.60546875,670.25C1232.60546875,691.8333333333334,1232.60546875,713.4166666666666,1271.9095052083333,731.1100750023835C1311.2135416666667,748.8034833381004,1389.8216145833333,762.6069666762008,1429.1256510416667,769.5087083452512L1468.4296875,776.4104500143013" id="edge11" class="transition" marker-end="url(#statediagram-barbEnd)"></path><path d="M1061.78515625,679.249073416923L1161.3033854166667,688.5408945141025C1260.8216145833333,697.832715611282,1459.8580729166667,716.416357805641,1554.2656149453023,731.4581789028206C1648.6731569739384,746.5,1638.4517826978765,758,1633.3410955598456,763.75L1628.2304084218147,769.5" id="edge12" class="transition" marker-end="url(#statediagram-barbEnd)"></path><path d="M1654.137080719112,830L1664.1721766409266,835.75C1674.2072725627413,841.5,1694.2774644063709,853,1704.3125603281853,864.5C1714.34765625,876,1714.34765625,887.5,1714.34765625,893.25L1714.34765625,899" id="edge13" class="transition" marker-end="url(#statediagram-barbEnd)"></path><path d="M1468.4296875,819.0521280510242L1416.2708333333333,826.6267733758535C1364.1119791666667,834.2014187006829,1259.7942708333333,849.3507093503414,1207.6354166666667,867.7170213418373C1155.4765625,886.0833333333334,1155.4765625,907.6666666666666,1155.4765625,929.25C1155.4765625,950.8333333333334,1155.4765625,972.4166666666666,1213.1354166666667,991.5817030540906C1270.7942708333333,1010.7467394415144,1386.1119791666667,1027.4934788830287,1443.7708333333333,1035.866848603786L1501.4296875,1044.240218324543" id="edge14" class="transition" marker-end="url(#statediagram-barbEnd)"></path><path d="M1714.34765625,959.5L1714.34765625,965.25C1714.34765625,971,1714.34765625,982.5,1704.3125603281853,994C1694.2774644063709,1005.5,1674.2072725627413,1017,1664.1721766409266,1022.75L1654.137080719112,1028.5" id="edge15" class="transition" marker-end="url(#statediagram-barbEnd)"></path><path d="M1601.34375,1089L1601.34375,1094.75C1601.34375,1100.5,1601.34375,1112,1601.34375,1123.5C1601.34375,1135,1601.34375,1146.5,1601.34375,1152.25L1601.34375,1158" id="edge16" class="transition" marker-end="url(#statediagram-barbEnd)"></path><path d="M1489.1875,1202.5861839619367L1423.4537760416667,1210.9884866349473C1357.7200520833333,1219.390789307958,1226.2526041666667,1236.1953946539788,1160.5188802083333,1255.3893639936562C1094.78515625,1274.5833333333333,1094.78515625,1296.1666666666667,1094.78515625,1317.75C1094.78515625,1339.3333333333333,1094.78515625,1360.9166666666667,1094.78515625,1382.5C1094.78515625,1404.0833333333333,1094.78515625,1425.6666666666667,1094.78515625,1447.25C1094.78515625,1468.8333333333333,1094.78515625,1490.4166666666667,1094.78515625,1512C1094.78515625,1533.5833333333333,1094.78515625,1555.1666666666667,1094.78515625,1576.75C1094.78515625,1598.3333333333333,1094.78515625,1619.9166666666667,1126.08984375,1638.0724696298819C1157.39453125,1656.2282725930972,1220.00390625,1670.9565451861945,1251.30859375,1678.3206814827429L1282.61328125,1685.6848177792915" id="edge17" class="transition" marker-end="url(#statediagram-barbEnd)"></path><path d="M1282.61328125,1710.8147859683165L1090.5084635416667,1720.8456549735972C898.4036458333334,1730.876523978878,514.1940104166666,1750.9382619894388,532.548828125,1769.1123851073853C550.9036458333334,1787.286508225332,971.8229166666666,1803.5730164506638,1182.2825520833333,1811.7162705633298L1392.7421875,1819.8595246759955" id="edge18" class="transition" marker-end="url(#statediagram-barbEnd)"></path><path d="M477.4921875,358.99930453183697L443.23828125,365.7494204431975C408.984375,372.49953635455796,340.4765625,385.999768177279,306.22265625,401.33321742197285C271.96875,416.6666666666667,271.96875,433.8333333333333,271.96875,451C271.96875,468.1666666666667,271.96875,485.3333333333333,271.96875,502.5C271.96875,519.6666666666666,271.96875,536.8333333333334,271.96875,554C271.96875,571.1666666666666,271.96875,588.3333333333334,271.96875,607.7083333333334C271.96875,627.0833333333334,271.96875,648.6666666666666,271.96875,670.25C271.96875,691.8333333333334,271.96875,713.4166666666666,271.96875,735C271.96875,756.5833333333334,271.96875,778.1666666666666,271.96875,799.75C271.96875,821.3333333333334,271.96875,842.9166666666666,271.96875,864.5C271.96875,886.0833333333334,271.96875,907.6666666666666,271.96875,929.25C271.96875,950.8333333333334,271.96875,972.4166666666666,271.96875,994C271.96875,1015.5833333333334,271.96875,1037.1666666666667,271.96875,1058.75C271.96875,1080.3333333333333,271.96875,1101.9166666666667,271.96875,1123.5C271.96875,1145.0833333333333,271.96875,1166.6666666666667,271.96875,1188.25C271.96875,1209.8333333333333,271.96875,1231.4166666666667,271.96875,1253C271.96875,1274.5833333333333,271.96875,1296.1666666666667,271.96875,1317.75C271.96875,1339.3333333333333,271.96875,1360.9166666666667,271.96875,1382.5C271.96875,1404.0833333333333,271.96875,1425.6666666666667,271.96875,1447.25C271.96875,1468.8333333333333,271.96875,1490.4166666666667,271.96875,1512C271.96875,1533.5833333333333,271.96875,1555.1666666666667,271.96875,1576.75C271.96875,1598.3333333333333,271.96875,1619.9166666666667,271.96875,1641.5C271.96875,1663.0833333333333,271.96875,1684.6666666666667,271.96875,1706.25C271.96875,1727.8333333333333,271.96875,1749.4166666666667,458.7643229166667,1768.2990360986635C645.5598958333334,1787.1814055306604,1019.1510416666666,1803.3628110613208,1205.9466145833333,1811.453513826651L1392.7421875,1819.5442165919812" id="edge19" class="transition" marker-end="url(#statediagram-barbEnd)"></path><path d="M1713.5,1195.287734420545L1866.7877604166667,1204.906445350454C2020.0755208333333,1214.5251562803633,2326.6510416666665,1233.7625781401816,2479.9388020833335,1254.1729557367573C2633.2265625,1274.5833333333333,2633.2265625,1296.1666666666667,2633.2265625,1317.75C2633.2265625,1339.3333333333333,2633.2265625,1360.9166666666667,2633.2265625,1382.5C2633.2265625,1404.0833333333333,2633.2265625,1425.6666666666667,2633.2265625,1447.25C2633.2265625,1468.8333333333333,2633.2265625,1490.4166666666667,2633.2265625,1512C2633.2265625,1533.5833333333333,2633.2265625,1555.1666666666667,2633.2265625,1576.75C2633.2265625,1598.3333333333333,2633.2265625,1619.9166666666667,2633.2265625,1641.5C2633.2265625,1663.0833333333333,2633.2265625,1684.6666666666667,2633.2265625,1706.25C2633.2265625,1727.8333333333333,2633.2265625,1749.4166666666667,2449.2265625,1768.2919871218128C2265.2265625,1787.1673075769593,1897.2265625,1803.3346151539183,1713.2265625,1811.4182689423978L1529.2265625,1819.5019227308776" id="edge20" class="transition" marker-end="url(#statediagram-barbEnd)"></path><path d="M1601.34375,1218.5L1601.34375,1224.25C1601.34375,1230,1601.34375,1241.5,1601.34375,1253C1601.34375,1264.5,1601.34375,1276,1601.34375,1281.75L1601.34375,1287.5" id="edge21" class="transition" marker-end="url(#statediagram-barbEnd)"></path><path d="M1498.4921875,1335.406591443396L1452.771484375,1343.2554928694967C1407.05078125,1351.1043942955973,1315.609375,1366.8021971477986,1269.888671875,1385.442765240566C1224.16796875,1404.0833333333333,1224.16796875,1425.6666666666667,1224.16796875,1447.25C1224.16796875,1468.8333333333333,1224.16796875,1490.4166666666667,1224.16796875,1512C1224.16796875,1533.5833333333333,1224.16796875,1555.1666666666667,1224.16796875,1576.75C1224.16796875,1598.3333333333333,1224.16796875,1619.9166666666667,1237.1214255550192,1636.4583333333333C1250.0748823600386,1653,1275.9817959700772,1664.5,1288.9352527750964,1670.25L1301.8887095801158,1676" id="edge22" class="transition" marker-end="url(#statediagram-barbEnd)"></path><path d="M1775.55078125,1462.48147048427L1705.1236979166667,1470.7345587368916C1634.6966145833333,1478.9876469895135,1493.8424479166667,1495.4938234947567,1423.4153645833333,1514.538578414045C1352.98828125,1533.5833333333333,1352.98828125,1555.1666666666667,1352.98828125,1576.75C1352.98828125,1598.3333333333333,1352.98828125,1619.9166666666667,1354.5020964044402,1636.4583333333333C1356.0159115588804,1653,1359.0435418677605,1664.5,1360.5573570222007,1670.25L1362.0711721766409,1676" id="edge23" class="transition" marker-end="url(#statediagram-barbEnd)"></path><path d="M2125.5546875,1586.6841098810778L2018.263671875,1595.820091567565C1910.97265625,1604.956073254052,1696.390625,1623.228036627026,1579.173782878861,1638.114018313513C1461.956940757722,1653,1442.1052877654438,1664.5,1432.179461269305,1670.25L1422.253634773166,1676" id="edge24" class="transition" marker-end="url(#statediagram-barbEnd)"></path><path d="M1605.6816029198842,1348L1606.5061534749036,1353.75C1607.330704029923,1359.5,1608.9798051399614,1371,1609.8043556949808,1387.5416666666667C1610.62890625,1404.0833333333333,1610.62890625,1425.6666666666667,1610.62890625,1447.25C1610.62890625,1468.8333333333333,1610.62890625,1490.4166666666667,1610.62890625,1512C1610.62890625,1533.5833333333333,1610.62890625,1555.1666666666667,1610.62890625,1576.75C1610.62890625,1598.3333333333333,1610.62890625,1619.9166666666667,1585.1002604166667,1637.5787521106638C1559.5716145833333,1655.2408375546609,1508.5143229166667,1668.9816751093215,1482.9856770833333,1675.852093886652L1457.45703125,1682.7225126639823" id="edge25" class="transition" marker-end="url(#statediagram-barbEnd)"></path><path d="M1704.1953125,1339.6434840954912L1737.7506510416667,1346.7862367462428C1771.3059895833333,1353.9289893969942,1838.4166666666667,1368.2144946984972,1871.9720052083333,1381.1072473492486C1905.52734375,1394,1905.52734375,1405.5,1905.52734375,1411.25L1905.52734375,1417" id="edge26" class="transition" marker-end="url(#statediagram-barbEnd)"></path><path d="M1840.4923986486488,1477.5L1828.1303842905406,1483.25C1815.7683699324325,1489,1791.044341216216,1500.5,1778.6823268581081,1517.0416666666667C1766.3203125,1533.5833333333333,1766.3203125,1555.1666666666667,1766.3203125,1576.75C1766.3203125,1598.3333333333333,1766.3203125,1619.9166666666667,1714.8430989583333,1639.119321038157C1663.3658854166667,1658.3219754096474,1560.4114583333333,1675.143950819295,1508.9342447916667,1683.5549385241186L1457.45703125,1691.9659262289426" id="edge27" class="transition" marker-end="url(#statediagram-barbEnd)"></path><path d="M2035.50390625,1472.2461307762812L2069.9563802083335,1478.8717756469011C2104.4088541666665,1485.497420517521,2173.3138020833335,1498.7487102587604,2207.7662760416665,1511.1243551293803C2242.21875,1523.5,2242.21875,1535,2242.21875,1540.75L2242.21875,1546.5" id="edge28" class="transition" marker-end="url(#statediagram-barbEnd)"></path><path d="M2125.5546875,1598.9121341309678L2088.1901041666665,1606.0101117758065C2050.8255208333335,1613.1080894206452,1976.0963541666667,1627.3040447103224,1864.7467447916667,1643.4180992231938C1753.3971354166667,1659.532153736065,1605.4270833333333,1677.5643074721304,1531.4420572916667,1686.580384340163L1457.45703125,1695.5964612081957" id="edge29" class="transition" marker-end="url(#statediagram-barbEnd)"></path><path d="M2358.8828125,1589.625161453548L2437.2239583333335,1598.2709678779565C2515.5651041666665,1606.9167743023652,2672.2473958333335,1624.2083871511825,2750.5885416666665,1643.6458602422579C2828.9296875,1663.0833333333333,2828.9296875,1684.6666666666667,2828.9296875,1706.25C2828.9296875,1727.8333333333333,2828.9296875,1749.4166666666667,2828.9296875,1765.9583333333333C2828.9296875,1782.5,2828.9296875,1794,2828.9296875,1799.75L2828.9296875,1805.5" id="edge30" class="transition" marker-end="url(#statediagram-barbEnd)"></path><path d="M2205.6143520752894,1607L2198.656491312741,1612.75C2191.698630550193,1618.5,2177.7829090250966,1630,2053.0900222208816,1645.3532191144943C1928.3971354166667,1660.7064382289889,1692.9270833333333,1679.9128764579775,1575.1920572916667,1689.516095572472L1457.45703125,1699.1193146869664" id="edge31" class="transition" marker-end="url(#statediagram-barbEnd)"></path><path d="M2334.282697876448,1607L2351.7824565637065,1612.75C2369.2822152509652,1618.5,2404.2817326254826,1630,2258.144121521075,1645.6593368270821C2112.0065104166665,1661.3186736541638,1784.7317708333333,1681.1373473083277,1621.0944010416667,1691.0466841354098L1457.45703125,1700.9560209624917" id="edge32" class="transition" marker-end="url(#statediagram-barbEnd)"></path><path d="M1457.45703125,1710.4270460710075L1668.7467447916667,1720.5225383925062C1880.0364583333333,1730.618030714005,2302.6158854166665,1750.8090153570026,2314.5774739583335,1769.0245121279168C2326.5390625,1787.2400088988313,1927.8828125,1803.4800177976629,1728.5546875,1811.6000222470784L1529.2265625,1819.7200266964942" id="edge33" class="transition" marker-end="url(#statediagram-barbEnd)"></path><path d="M1460.984375,1839.5L1460.984375,1843.6666666666667C1460.984375,1847.8333333333333,1460.984375,1856.1666666666667,1477.1586091679521,1865.3227642078575C1493.3328433359047,1874.4788617490485,1525.6813116718095,1884.457723498097,1541.8555458397616,1889.4471543726213L1558.029780007714,1894.4365852471453" id="edge34" class="transition" marker-end="url(#statediagram-barbEnd)"></path><path d="M2828.9296875,1839.5L2828.9296875,1843.6666666666667C2828.9296875,1847.8333333333333,2828.9296875,1856.1666666666667,2619.394157682546,1865.637145185664C2409.8586278650914,1875.1076237046611,1990.787568230183,1885.7152474093225,1781.252038412729,1891.019059261653L1571.7165085952745,1896.3228711139839" id="edge35" class="transition" marker-end="url(#statediagram-barbEnd)"></path></g><g class="edgeLabels"><g class="edgeLabel"><g class="label" transform="translate(0, 0)"><rect rx="0" ry="0" width="0" height="0" style="fill:#e8e8e8;"></rect><text style=""></text></g></g><g class="edgeLabel" transform="translate(463.76953125, 140.5)"><g class="label" transform="translate(-68.6875, -9.5)"><rect rx="0" ry="0" width="137.296875" height="19.03125" style="fill:#e8e8e8;"></rect><text style=""><tspan xml:space="preserve" dy="1em" x="0" class="row">ProviderEventOpen</tspan></text></g></g><g class="edgeLabel" transform="translate(413.953125, 929.25)"><g class="label" transform="translate(-98.203125, -9.5)"><rect rx="0" ry="0" width="196.296875" height="19.03125" style="fill:#e8e8e8;"></rect><text style=""><tspan xml:space="preserve" dy="1em" x="0" class="row">ProviderEventDealRejected</tspan></text></g></g><g class="edgeLabel" transform="translate(552.08203125, 994)"><g class="label" transform="translate(-98.203125, -9.5)"><rect rx="0" ry="0" width="196.296875" height="19.03125" style="fill:#e8e8e8;"></rect><text style=""><tspan xml:space="preserve" dy="1em" x="0" class="row">ProviderEventDealRejected</tspan></text></g></g><g class="edgeLabel" transform="translate(670.28515625, 1188.25)"><g class="label" transform="translate(-98.203125, -9.5)"><rect rx="0" ry="0" width="196.296875" height="19.03125" style="fill:#e8e8e8;"></rect><text style=""><tspan xml:space="preserve" dy="1em" x="0" class="row">ProviderEventDealRejected</tspan></text></g></g><g class="edgeLabel" transform="translate(600.546875, 270)"><g class="label" transform="translate(-96.5703125, -9.5)"><rect rx="0" ry="0" width="193.03125" height="19.03125" style="fill:#e8e8e8;"></rect><text style=""><tspan xml:space="preserve" dy="1em" x="0" class="row">ProviderEventDealDeciding</tspan></text></g></g><g class="edgeLabel" transform="translate(1003.0703125, 399.5)"><g class="label" transform="translate(-104.03125, -9.5)"><rect rx="0" ry="0" width="207.9375" height="19.03125" style="fill:#e8e8e8;"></rect><text style=""><tspan xml:space="preserve" dy="1em" x="0" class="row">ProviderEventDataRequested</tspan></text></g></g><g class="edgeLabel" transform="translate(808.73046875, 1123.5)"><g class="label" transform="translate(-118.4453125, -9.5)"><rect rx="0" ry="0" width="236.75" height="19.03125" style="fill:#e8e8e8;"></rect><text style=""><tspan xml:space="preserve" dy="1em" x="0" class="row">ProviderEventDataTransferFailed</tspan></text></g></g><g class="edgeLabel" transform="translate(877.78125, 502.5)"><g class="label" transform="translate(-127.109375, -9.5)"><rect rx="0" ry="0" width="254.0625" height="19.03125" style="fill:#e8e8e8;"></rect><text style=""><tspan xml:space="preserve" dy="1em" x="0" class="row">ProviderEventDataTransferInitiated</tspan></text></g></g><g class="edgeLabel" transform="translate(965.40234375, 605.5)"><g class="label" transform="translate(-135.4765625, -9.5)"><rect rx="0" ry="0" width="270.78125" height="19.03125" style="fill:#e8e8e8;"></rect><text style=""><tspan xml:space="preserve" dy="1em" x="0" class="row">ProviderEventDataTransferCompleted</tspan></text></g></g><g class="edgeLabel" transform="translate(965.40234375, 1188.25)"><g class="label" transform="translate(-136.671875, -9.5)"><rect rx="0" ry="0" width="273.171875" height="19.03125" style="fill:#e8e8e8;"></rect><text style=""><tspan xml:space="preserve" dy="1em" x="0" class="row">ProviderEventGeneratePieceCIDFailed</tspan></text></g></g><g class="edgeLabel" transform="translate(1232.60546875, 605.5)"><g class="label" transform="translate(-95.1015625, -9.5)"><rect rx="0" ry="0" width="190.078125" height="19.03125" style="fill:#e8e8e8;"></rect><text style=""><tspan xml:space="preserve" dy="1em" x="0" class="row">ProviderEventVerifiedData</tspan></text></g></g><g class="edgeLabel" transform="translate(1658.89453125, 735)"><g class="label" transform="translate(-95.1015625, -9.5)"><rect rx="0" ry="0" width="190.078125" height="19.03125" style="fill:#e8e8e8;"></rect><text style=""><tspan xml:space="preserve" dy="1em" x="0" class="row">ProviderEventVerifiedData</tspan></text></g></g><g class="edgeLabel" transform="translate(1714.34765625, 864.5)"><g class="label" transform="translate(-108.6953125, -9.5)"><rect rx="0" ry="0" width="217.265625" height="19.03125" style="fill:#e8e8e8;"></rect><text style=""><tspan xml:space="preserve" dy="1em" x="0" class="row">ProviderEventFundingInitiated</tspan></text></g></g><g class="edgeLabel" transform="translate(1155.4765625, 929.25)"><g class="label" transform="translate(-76.3203125, -9.5)"><rect rx="0" ry="0" width="152.546875" height="19.03125" style="fill:#e8e8e8;"></rect><text style=""><tspan xml:space="preserve" dy="1em" x="0" class="row">ProviderEventFunded</tspan></text></g></g><g class="edgeLabel" transform="translate(1714.34765625, 994)"><g class="label" transform="translate(-76.3203125, -9.5)"><rect rx="0" ry="0" width="152.546875" height="19.03125" style="fill:#e8e8e8;"></rect><text style=""><tspan xml:space="preserve" dy="1em" x="0" class="row">ProviderEventFunded</tspan></text></g></g><g class="edgeLabel" transform="translate(1601.34375, 1123.5)"><g class="label" transform="translate(-122, -9.5)"><rect rx="0" ry="0" width="243.859375" height="19.03125" style="fill:#e8e8e8;"></rect><text style=""><tspan xml:space="preserve" dy="1em" x="0" class="row">ProviderEventDealPublishInitiated</tspan></text></g></g><g class="edgeLabel" transform="translate(1094.78515625, 1447.25)"><g class="label" transform="translate(-109.3828125, -9.5)"><rect rx="0" ry="0" width="218.625" height="19.03125" style="fill:#e8e8e8;"></rect><text style=""><tspan xml:space="preserve" dy="1em" x="0" class="row">ProviderEventDealPublishError</tspan></text></g></g><g class="edgeLabel" transform="translate(129.984375, 1771)"><g class="label" transform="translate(-121.984375, -9.5)"><rect rx="0" ry="0" width="243.828125" height="19.03125" style="fill:#e8e8e8;"></rect><text style=""><tspan xml:space="preserve" dy="1em" x="0" class="row">ProviderEventSendResponseFailed</tspan></text></g></g><g class="edgeLabel" transform="translate(271.96875, 1058.75)"><g class="label" transform="translate(-121.984375, -9.5)"><rect rx="0" ry="0" width="243.828125" height="19.03125" style="fill:#e8e8e8;"></rect><text style=""><tspan xml:space="preserve" dy="1em" x="0" class="row">ProviderEventSendResponseFailed</tspan></text></g></g><g class="edgeLabel" transform="translate(2633.2265625, 1512)"><g class="label" transform="translate(-121.984375, -9.5)"><rect rx="0" ry="0" width="243.828125" height="19.03125" style="fill:#e8e8e8;"></rect><text style=""><tspan xml:space="preserve" dy="1em" x="0" class="row">ProviderEventSendResponseFailed</tspan></text></g></g><g class="edgeLabel" transform="translate(1601.34375, 1253)"><g class="label" transform="translate(-100.296875, -9.5)"><rect rx="0" ry="0" width="200.46875" height="19.03125" style="fill:#e8e8e8;"></rect><text style=""><tspan xml:space="preserve" dy="1em" x="0" class="row">ProviderEventDealPublished</tspan></text></g></g><g class="edgeLabel" transform="translate(1224.16796875, 1512)"><g class="label" transform="translate(-108.8203125, -9.5)"><rect rx="0" ry="0" width="217.5" height="19.03125" style="fill:#e8e8e8;"></rect><text style=""><tspan xml:space="preserve" dy="1em" x="0" class="row">ProviderEventFileStoreErrored</tspan></text></g></g><g class="edgeLabel" transform="translate(1352.98828125, 1576.75)"><g class="label" transform="translate(-108.8203125, -9.5)"><rect rx="0" ry="0" width="217.5" height="19.03125" style="fill:#e8e8e8;"></rect><text style=""><tspan xml:space="preserve" dy="1em" x="0" class="row">ProviderEventFileStoreErrored</tspan></text></g></g><g class="edgeLabel" transform="translate(1481.80859375, 1641.5)"><g class="label" transform="translate(-108.8203125, -9.5)"><rect rx="0" ry="0" width="217.5" height="19.03125" style="fill:#e8e8e8;"></rect><text style=""><tspan xml:space="preserve" dy="1em" x="0" class="row">ProviderEventFileStoreErrored</tspan></text></g></g><g class="edgeLabel" transform="translate(1610.62890625, 1512)"><g class="label" transform="translate(-116.2734375, -9.5)"><rect rx="0" ry="0" width="232.40625" height="19.03125" style="fill:#e8e8e8;"></rect><text style=""><tspan xml:space="preserve" dy="1em" x="0" class="row">ProviderEventDealHandoffFailed</tspan></text></g></g><g class="edgeLabel" transform="translate(1905.52734375, 1382.5)"><g class="label" transform="translate(-104.3671875, -9.5)"><rect rx="0" ry="0" width="208.609375" height="19.03125" style="fill:#e8e8e8;"></rect><text style=""><tspan xml:space="preserve" dy="1em" x="0" class="row">ProviderEventDealHandedOff</tspan></text></g></g><g class="edgeLabel" transform="translate(1766.3203125, 1576.75)"><g class="label" transform="translate(-124.171875, -9.5)"><rect rx="0" ry="0" width="248.1875" height="19.03125" style="fill:#e8e8e8;"></rect><text style=""><tspan xml:space="preserve" dy="1em" x="0" class="row">ProviderEventDealActivationFailed</tspan></text></g></g><g class="edgeLabel" transform="translate(2242.21875, 1512)"><g class="label" transform="translate(-100.1796875, -9.5)"><rect rx="0" ry="0" width="200.25" height="19.03125" style="fill:#e8e8e8;"></rect><text style=""><tspan xml:space="preserve" dy="1em" x="0" class="row">ProviderEventDealActivated</tspan></text></g></g><g class="edgeLabel" transform="translate(1901.3671875, 1641.5)"><g class="label" transform="translate(-115.046875, -9.5)"><rect rx="0" ry="0" width="229.953125" height="19.03125" style="fill:#e8e8e8;"></rect><text style=""><tspan xml:space="preserve" dy="1em" x="0" class="row">ProviderEventPieceStoreErrored</tspan></text></g></g><g class="edgeLabel" transform="translate(2828.9296875, 1706.25)"><g class="label" transform="translate(-104.828125, -9.5)"><rect rx="0" ry="0" width="209.53125" height="19.03125" style="fill:#e8e8e8;"></rect><text style=""><tspan xml:space="preserve" dy="1em" x="0" class="row">ProviderEventDealCompleted</tspan></text></g></g><g class="edgeLabel" transform="translate(2163.8671875, 1641.5)"><g class="label" transform="translate(-127.453125, -9.5)"><rect rx="0" ry="0" width="254.75" height="19.03125" style="fill:#e8e8e8;"></rect><text style=""><tspan xml:space="preserve" dy="1em" x="0" class="row">ProviderEventUnableToLocatePiece</tspan></text></g></g><g class="edgeLabel" transform="translate(2439.28125, 1641.5)"><g class="label" transform="translate(-127.9609375, -9.5)"><rect rx="0" ry="0" width="255.765625" height="19.03125" style="fill:#e8e8e8;"></rect><text style=""><tspan xml:space="preserve" dy="1em" x="0" class="row">ProviderEventReadMetadataErrored</tspan></text></g></g><g class="edgeLabel" transform="translate(2725.1953125, 1771)"><g class="label" transform="translate(-71.96875, -9.5)"><rect rx="0" ry="0" width="143.84375" height="19.03125" style="fill:#e8e8e8;"></rect><text style=""><tspan xml:space="preserve" dy="1em" x="0" class="row">ProviderEventFailed</tspan></text></g></g><g class="edgeLabel"><g class="label" transform="translate(0, 0)"><rect rx="0" ry="0" width="0" height="0" style="fill:#e8e8e8;"></rect><text style=""></text></g></g><g class="edgeLabel"><g class="label" transform="translate(0, 0)"><rect rx="0" ry="0" width="0" height="0" style="fill:#e8e8e8;"></rect><text style=""></text></g></g></g><g class="nodes"><g class="node statediagram-state" id="0" transform="translate(463.76953125, 89)"><rect class="outer title-state" x="-82.921875" y="-17" width="165.84375" height="34"></rect><line class="divider" x1="-82.921875" x2="82.921875" y1="9.5" y2="9.5"></line><g class="label" transform="translate(-75.421875, -14)"><text style=""><tspan xml:space="preserve" dy="1em" x="0" class="title-row">StorageDealUnknown</tspan></text><text style="" transform="translate( 0, 26.5)"><tspan xml:space="preserve" dy="1em" x="0" class="title-row"></tspan></text></g></g><g class="node statediagram-state" id="4" transform="translate(1601.34375, 1317.75)"><rect class="outer title-state" x="-102.8515625" y="-30.25" width="205.703125" height="60.5"></rect><line class="divider" x1="-102.8515625" x2="102.8515625" y1="-3.75" y2="-3.75"></line><g class="label" transform="translate(-95.3515625, -27.25)"><text style=""><tspan xml:space="preserve" dy="1em" x="0" class="title-row">StorageDealStaged</tspan></text><text style="" transform="translate( 0, 26.5)"><tspan xml:space="preserve" dy="1em" x="0" class="title-row">On entry runs HandoffDeal</tspan></text></g></g><g class="node statediagram-state" id="5" transform="translate(1905.52734375, 1447.25)"><rect class="outer title-state" x="-129.9765625" y="-30.25" width="259.953125" height="60.5"></rect><line class="divider" x1="-129.9765625" x2="129.9765625" y1="-3.75" y2="-3.75"></line><g class="label" transform="translate(-122.4765625, -27.25)"><text style=""><tspan xml:space="preserve" dy="1em" x="0" class="title-row">StorageDealSealing</tspan></text><text style="" transform="translate( 0, 26.5)"><tspan xml:space="preserve" dy="1em" x="0" class="title-row">On entry runs VerifyDealActivated</tspan></text></g></g><g class="node statediagram-state" id="6" transform="translate(2242.21875, 1576.75)"><rect class="outer title-state" x="-116.6640625" y="-30.25" width="233.328125" height="60.5"></rect><line class="divider" x1="-116.6640625" x2="116.6640625" y1="-3.75" y2="-3.75"></line><g class="label" transform="translate(-109.1640625, -27.25)"><text style=""><tspan xml:space="preserve" dy="1em" x="0" class="title-row">StorageDealActive</tspan></text><text style="" transform="translate( 0, 26.5)"><tspan xml:space="preserve" dy="1em" x="0" class="title-row">On entry runs RecordPieceInfo</tspan></text></g></g><g class="node statediagram-state" id="7" transform="translate(1370.03515625, 1706.25)"><rect class="outer title-state" x="-87.421875" y="-30.25" width="174.84375" height="60.5"></rect><line class="divider" x1="-87.421875" x2="87.421875" y1="-3.75" y2="-3.75"></line><g class="label" transform="translate(-79.921875, -27.25)"><text style=""><tspan xml:space="preserve" dy="1em" x="0" class="title-row">StorageDealFailing</tspan></text><text style="" transform="translate( 0, 26.5)"><tspan xml:space="preserve" dy="1em" x="0" class="title-row">On entry runs FailDeal</tspan></text></g></g><g class="node statediagram-state" id="11" transform="translate(463.76953125, 205.25)"><rect class="outer title-state" x="-134.53125" y="-30.25" width="269.0625" height="60.5"></rect><line class="divider" x1="-134.53125" x2="134.53125" y1="-3.75" y2="-3.75"></line><g class="label" transform="translate(-127.03125, -27.25)"><text style=""><tspan xml:space="preserve" dy="1em" x="0" class="title-row">StorageDealValidating</tspan></text><text style="" transform="translate( 0, 26.5)"><tspan xml:space="preserve" dy="1em" x="0" class="title-row">On entry runs ValidateDealProposal</tspan></text></g></g><g class="node statediagram-state" id="12" transform="translate(600.546875, 334.75)"><rect class="outer title-state" x="-123.0546875" y="-30.25" width="246.109375" height="60.5"></rect><line class="divider" x1="-123.0546875" x2="123.0546875" y1="-3.75" y2="-3.75"></line><g class="label" transform="translate(-115.5546875, -27.25)"><text style=""><tspan xml:space="preserve" dy="1em" x="0" class="title-row">StorageDealAcceptWait</tspan></text><text style="" transform="translate( 0, 26.5)"><tspan xml:space="preserve" dy="1em" x="0" class="title-row">On entry runs DecideOnProposal</tspan></text></g></g><g class="node statediagram-state" id="13" transform="translate(877.78125, 554)"><rect class="outer title-state" x="-94.109375" y="-17" width="188.21875" height="34"></rect><line class="divider" x1="-94.109375" x2="94.109375" y1="9.5" y2="9.5"></line><g class="label" transform="translate(-86.609375, -14)"><text style=""><tspan xml:space="preserve" dy="1em" x="0" class="title-row">StorageDealTransferring</tspan></text><text style="" transform="translate( 0, 26.5)"><tspan xml:space="preserve" dy="1em" x="0" class="title-row"></tspan></text></g></g><g class="node statediagram-state" id="14" transform="translate(1003.0703125, 451)"><rect class="outer title-state" x="-105.5625" y="-17" width="211.125" height="34"></rect><line class="divider" x1="-105.5625" x2="105.5625" y1="9.5" y2="9.5"></line><g class="label" transform="translate(-98.0625, -14)"><text style=""><tspan xml:space="preserve" dy="1em" x="0" class="title-row">StorageDealWaitingForData</tspan></text><text style="" transform="translate( 0, 26.5)"><tspan xml:space="preserve" dy="1em" x="0" class="title-row"></tspan></text></g></g><g class="node statediagram-state" id="15" transform="translate(965.40234375, 670.25)"><rect class="outer title-state" x="-96.3828125" y="-30.25" width="192.765625" height="60.5"></rect><line class="divider" x1="-96.3828125" x2="96.3828125" y1="-3.75" y2="-3.75"></line><g class="label" transform="translate(-88.8828125, -27.25)"><text style=""><tspan xml:space="preserve" dy="1em" x="0" class="title-row">StorageDealVerifyData</tspan></text><text style="" transform="translate( 0, 26.5)"><tspan xml:space="preserve" dy="1em" x="0" class="title-row">On entry runs VerifyData</tspan></text></g></g><g class="node statediagram-state" id="16" transform="translate(1601.34375, 799.75)"><rect class="outer title-state" x="-132.9140625" y="-30.25" width="265.828125" height="60.5"></rect><line class="divider" x1="-132.9140625" x2="132.9140625" y1="-3.75" y2="-3.75"></line><g class="label" transform="translate(-125.4140625, -27.25)"><text style=""><tspan xml:space="preserve" dy="1em" x="0" class="title-row">StorageDealEnsureProviderFunds</tspan></text><text style="" transform="translate( 0, 26.5)"><tspan xml:space="preserve" dy="1em" x="0" class="title-row">On entry runs EnsureProviderFunds</tspan></text></g></g><g class="node statediagram-state" id="18" transform="translate(1714.34765625, 929.25)"><rect class="outer title-state" x="-114.6875" y="-30.25" width="229.375" height="60.5"></rect><line class="divider" x1="-114.6875" x2="114.6875" y1="-3.75" y2="-3.75"></line><g class="label" transform="translate(-107.1875, -27.25)"><text style=""><tspan xml:space="preserve" dy="1em" x="0" class="title-row">StorageDealProviderFunding</tspan></text><text style="" transform="translate( 0, 26.5)"><tspan xml:space="preserve" dy="1em" x="0" class="title-row">On entry runs WaitForFunding</tspan></text></g></g><g class="node statediagram-state" id="20" transform="translate(1601.34375, 1058.75)"><rect class="outer title-state" x="-99.9140625" y="-30.25" width="199.828125" height="60.5"></rect><line class="divider" x1="-99.9140625" x2="99.9140625" y1="-3.75" y2="-3.75"></line><g class="label" transform="translate(-92.4140625, -27.25)"><text style=""><tspan xml:space="preserve" dy="1em" x="0" class="title-row">StorageDealPublish</tspan></text><text style="" transform="translate( 0, 26.5)"><tspan xml:space="preserve" dy="1em" x="0" class="title-row">On entry runs PublishDeal</tspan></text></g></g><g class="node statediagram-state" id="21" transform="translate(1601.34375, 1188.25)"><rect class="outer title-state" x="-112.15625" y="-30.25" width="224.3125" height="60.5"></rect><line class="divider" x1="-112.15625" x2="112.15625" y1="-3.75" y2="-3.75"></line><g class="label" transform="translate(-104.65625, -27.25)"><text style=""><tspan xml:space="preserve" dy="1em" x="0" class="title-row">StorageDealPublishing</tspan></text><text style="" transform="translate( 0, 26.5)"><tspan xml:space="preserve" dy="1em" x="0" class="title-row">On entry runs WaitForPublish</tspan></text></g></g><g class="node statediagram-state" id="22" transform="translate(1460.984375, 1822.5)"><rect class="outer title-state" x="-68.2421875" y="-17" width="136.484375" height="34"></rect><line class="divider" x1="-68.2421875" x2="68.2421875" y1="9.5" y2="9.5"></line><g class="label" transform="translate(-60.7421875, -14)"><text style=""><tspan xml:space="preserve" dy="1em" x="0" class="title-row">StorageDealError</tspan></text><text style="" transform="translate( 0, 26.5)"><tspan xml:space="preserve" dy="1em" x="0" class="title-row"></tspan></text></g></g><g class="node statediagram-state" id="23" transform="translate(2828.9296875, 1822.5)"><rect class="outer title-state" x="-89.2265625" y="-17" width="178.453125" height="34"></rect><line class="divider" x1="-89.2265625" x2="89.2265625" y1="9.5" y2="9.5"></line><g class="label" transform="translate(-81.7265625, -14)"><text style=""><tspan xml:space="preserve" dy="1em" x="0" class="title-row">StorageDealCompleted</tspan></text><text style="" transform="translate( 0, 26.5)"><tspan xml:space="preserve" dy="1em" x="0" class="title-row"></tspan></text></g></g><g class="node default" id="root_start" transform="translate(463.76953125, 15)"><circle class="state-start" r="7" width="14" height="14"></circle></g><g class="node default" id="root_end" transform="translate(1564.71875, 1896.5)"><circle class="state-start" r="7" width="14" height="14"></circle><circle class="state-end" r="5" width="10" height="10"></circle></g></g></g></g></svg>