<svg id="mermaid-1592600112041" width="2908.19921875" xmlns="http://www.w3.org/2000/svg" class="statediagram" height="1475.5" viewBox="0 0 2908.19921875 1475.5"><style>#mermaid-1592600112041 .label{font-family:'trebuchet ms', verdana, arial;font-family:var(--mermaid-font-family);color:#333}#mermaid-1592600112041 .label text{fill:#333}#mermaid-1592600112041 .node rect,#mermaid-1592600112041 .node circle,#mermaid-1592600112041 .node ellipse,#mermaid-1592600112041 .node polygon,#mermaid-1592600112041 .node path{fill:#ECECFF;stroke:#9370db;stroke-width:1px}#mermaid-1592600112041 .node .label{text-align:center}#mermaid-1592600112041 .node.clickable{cursor:pointer}#mermaid-1592600112041 .arrowheadPath{fill:#333}#mermaid-1592600112041 .edgePath .path{stroke:#333;stroke-width:1.5px}#mermaid-1592600112041 .edgeLabel{background-color:#e8e8e8;text-align:center}#mermaid-1592600112041 .edgeLabel rect{opacity:0.5}#mermaid-1592600112041 .cluster rect{fill:#ffffde;stroke:#aa3;stroke-width:1px}#mermaid-1592600112041 .cluster text{fill:#333}#mermaid-1592600112041 div.mermaidTooltip{position:absolute;text-align:center;max-width:200px;padding:2px;font-family:'trebuchet ms', verdana, arial;font-family:var(--mermaid-font-family);font-size:12px;background:#ffffde;border:1px solid #aa3;border-radius:2px;pointer-events:none;z-index:100}#mermaid-1592600112041 .actor{stroke:#ccf;fill:#ECECFF}#mermaid-1592600112041 text.actor{fill:#000;stroke:none}#mermaid-1592600112041 .actor-line{stroke:grey}#mermaid-1592600112041 .messageLine0{stroke-width:1.5;stroke-dasharray:'2 2';stroke:#333}#mermaid-1592600112041 .messageLine1{stroke-width:1.5;stroke-dasharray:'2 2';stroke:#333}#mermaid-1592600112041 #arrowhead{fill:#333}#mermaid-1592600112041 .sequenceNumber{fill:#fff}#mermaid-1592600112041 #sequencenumber{fill:#333}#mermaid-1592600112041 #crosshead path{fill:#333 !important;stroke:#333 !important}#mermaid-1592600112041 .messageText{fill:#333;stroke:none}#mermaid-1592600112041 .labelBox{stroke:#ccf;fill:#ECECFF}#mermaid-1592600112041 .labelText{fill:#000;stroke:none}#mermaid-1592600112041 .loopText{fill:#000;stroke:none}#mermaid-1592600112041 .loopLine{stroke-width:2;stroke-dasharray:'2 2';stroke:#ccf}#mermaid-1592600112041 .note{stroke:#aa3;fill:#fff5ad}#mermaid-1592600112041 .noteText{fill:black;stroke:none;font-family:'trebuchet ms', verdana, arial;font-family:var(--mermaid-font-family);font-size:14px}#mermaid-1592600112041 .activation0{fill:#f4f4f4;stroke:#666}#mermaid-1592600112041 .activation1{fill:#f4f4f4;stroke:#666}#mermaid-1592600112041 .activation2{fill:#f4f4f4;stroke:#666}#mermaid-1592600112041 .mermaid-main-font{font-family:"trebuchet ms", verdana, arial;font-family:var(--mermaid-font-family)}#mermaid-1592600112041 .section{stroke:none;opacity:0.2}#mermaid-1592600112041 .section0{fill:rgba(102,102,255,0.49)}#mermaid-1592600112041 .section2{fill:#fff400}#mermaid-1592600112041 .section1,#mermaid-1592600112041 .section3{fill:#fff;opacity:0.2}#mermaid-1592600112041 .sectionTitle0{fill:#333}#mermaid-1592600112041 .sectionTitle1{fill:#333}#mermaid-1592600112041 .sectionTitle2{fill:#333}#mermaid-1592600112041 .sectionTitle3{fill:#333}#mermaid-1592600112041 .sectionTitle{text-anchor:start;font-size:11px;text-height:14px;font-family:'trebuchet ms', verdana, arial;font-family:var(--mermaid-font-family)}#mermaid-1592600112041 .grid .tick{stroke:#d3d3d3;opacity:0.8;shape-rendering:crispEdges}#mermaid-1592600112041 .grid .tick text{font-family:'trebuchet ms', verdana, arial;font-family:var(--mermaid-font-family)}#mermaid-1592600112041 .grid path{stroke-width:0}#mermaid-1592600112041 .today{fill:none;stroke:red;stroke-width:2px}#mermaid-1592600112041 .task{stroke-width:2}#mermaid-1592600112041 .taskText{text-anchor:middle;font-family:'trebuchet ms', verdana, arial;font-family:var(--mermaid-font-family)}#mermaid-1592600112041 .taskText:not([font-size]){font-size:11px}#mermaid-1592600112041 .taskTextOutsideRight{fill:#000;text-anchor:start;font-size:11px;font-family:'trebuchet ms', verdana, arial;font-family:var(--mermaid-font-family)}#mermaid-1592600112041 .taskTextOutsideLeft{fill:#000;text-anchor:end;font-size:11px}#mermaid-1592600112041 .task.clickable{cursor:pointer}#mermaid-1592600112041 .taskText.clickable{cursor:pointer;fill:#003163 !important;font-weight:bold}#mermaid-1592600112041 .taskTextOutsideLeft.clickable{cursor:pointer;fill:#003163 !important;font-weight:bold}#mermaid-1592600112041 .taskTextOutsideRight.clickable{cursor:pointer;fill:#003163 !important;font-weight:bold}#mermaid-1592600112041 .taskText0,#mermaid-1592600112041 .taskText1,#mermaid-1592600112041 .taskText2,#mermaid-1592600112041 .taskText3{fill:#fff}#mermaid-1592600112041 .task0,#mermaid-1592600112041 .task1,#mermaid-1592600112041 .task2,#mermaid-1592600112041 .task3{fill:#8a90dd;stroke:#534fbc}#mermaid-1592600112041 .taskTextOutside0,#mermaid-1592600112041 .taskTextOutside2{fill:#000}#mermaid-1592600112041 .taskTextOutside1,#mermaid-1592600112041 .taskTextOutside3{fill:#000}#mermaid-1592600112041 .active0,#mermaid-1592600112041 .active1,#mermaid-1592600112041 .active2,#mermaid-1592600112041 .active3{fill:#bfc7ff;stroke:#534fbc}#mermaid-1592600112041 .activeText0,#mermaid-1592600112041 .activeText1,#mermaid-1592600112041 .activeText2,#mermaid-1592600112041 .activeText3{fill:#000 !important}#mermaid-1592600112041 .done0,#mermaid-1592600112041 .done1,#mermaid-1592600112041 .done2,#mermaid-1592600112041 .done3{stroke:grey;fill:#d3d3d3;stroke-width:2}#mermaid-1592600112041 .doneText0,#mermaid-1592600112041 .doneText1,#mermaid-1592600112041 .doneText2,#mermaid-1592600112041 .doneText3{fill:#000 !important}#mermaid-1592600112041 .crit0,#mermaid-1592600112041 .crit1,#mermaid-1592600112041 .crit2,#mermaid-1592600112041 .crit3{stroke:#f88;fill:red;stroke-width:2}#mermaid-1592600112041 .activeCrit0,#mermaid-1592600112041 .activeCrit1,#mermaid-1592600112041 .activeCrit2,#mermaid-1592600112041 .activeCrit3{stroke:#f88;fill:#bfc7ff;stroke-width:2}#mermaid-1592600112041 .doneCrit0,#mermaid-1592600112041 .doneCrit1,#mermaid-1592600112041 .doneCrit2,#mermaid-1592600112041 .doneCrit3{stroke:#f88;fill:#d3d3d3;stroke-width:2;cursor:pointer;shape-rendering:crispEdges}#mermaid-1592600112041 .milestone{transform:rotate(45deg) scale(0.8, 0.8)}#mermaid-1592600112041 .milestoneText{font-style:italic}#mermaid-1592600112041 .doneCritText0,#mermaid-1592600112041 .doneCritText1,#mermaid-1592600112041 .doneCritText2,#mermaid-1592600112041 .doneCritText3{fill:#000 !important}#mermaid-1592600112041 .activeCritText0,#mermaid-1592600112041 .activeCritText1,#mermaid-1592600112041 .activeCritText2,#mermaid-1592600112041 .activeCritText3{fill:#000 !important}#mermaid-1592600112041 .titleText{text-anchor:middle;font-size:18px;fill:#000;font-family:'trebuchet ms', verdana, arial;font-family:var(--mermaid-font-family)}#mermaid-1592600112041 g.classGroup text{fill:#9370db;stroke:none;font-family:'trebuchet ms', verdana, arial;font-family:var(--mermaid-font-family);font-size:10px}#mermaid-1592600112041 g.classGroup text .title{font-weight:bolder}#mermaid-1592600112041 g.clickable{cursor:pointer}#mermaid-1592600112041 g.classGroup rect{fill:#ECECFF;stroke:#9370db}#mermaid-1592600112041 g.classGroup line{stroke:#9370db;stroke-width:1}#mermaid-1592600112041 .classLabel .box{stroke:none;stroke-width:0;fill:#ECECFF;opacity:0.5}#mermaid-1592600112041 .classLabel .label{fill:#9370db;font-size:10px}#mermaid-1592600112041 .relation{stroke:#9370db;stroke-width:1;fill:none}#mermaid-1592600112041 .dashed-line{stroke-dasharray:3}#mermaid-1592600112041 #compositionStart{fill:#9370db;stroke:#9370db;stroke-width:1}#mermaid-1592600112041 #compositionEnd{fill:#9370db;stroke:#9370db;stroke-width:1}#mermaid-1592600112041 #aggregationStart{fill:#ECECFF;stroke:#9370db;stroke-width:1}#mermaid-1592600112041 #aggregationEnd{fill:#ECECFF;stroke:#9370db;stroke-width:1}#mermaid-1592600112041 #dependencyStart{fill:#9370db;stroke:#9370db;stroke-width:1}#mermaid-1592600112041 #dependencyEnd{fill:#9370db;stroke:#9370db;stroke-width:1}#mermaid-1592600112041 #extensionStart{fill:#9370db;stroke:#9370db;stroke-width:1}#mermaid-1592600112041 #extensionEnd{fill:#9370db;stroke:#9370db;stroke-width:1}#mermaid-1592600112041 .commit-id,#mermaid-1592600112041 .commit-msg,#mermaid-1592600112041 .branch-label{fill:lightgrey;color:lightgrey;font-family:'trebuchet ms', verdana, arial;font-family:var(--mermaid-font-family)}#mermaid-1592600112041 .pieTitleText{text-anchor:middle;font-size:25px;fill:#000;font-family:'trebuchet ms', verdana, arial;font-family:var(--mermaid-font-family)}#mermaid-1592600112041 .slice{font-family:'trebuchet ms', verdana, arial;font-family:var(--mermaid-font-family)}#mermaid-1592600112041 g.stateGroup text{fill:#9370db;stroke:none;font-size:10px;font-family:'trebuchet ms', verdana, arial;font-family:var(--mermaid-font-family)}#mermaid-1592600112041 g.stateGroup text{fill:#9370db;stroke:none;font-size:10px}#mermaid-1592600112041 g.stateGroup .state-title{font-weight:bolder;fill:#000}#mermaid-1592600112041 g.stateGroup rect{fill:#ECECFF;stroke:#9370db}#mermaid-1592600112041 g.stateGroup line{stroke:#9370db;stroke-width:1}#mermaid-1592600112041 .transition{stroke:#9370db;stroke-width:1;fill:none}#mermaid-1592600112041 .stateGroup .composit{fill:white;border-bottom:1px}#mermaid-1592600112041 .stateGroup .alt-composit{fill:#e0e0e0;border-bottom:1px}#mermaid-1592600112041 .state-note{stroke:#aa3;fill:#fff5ad}#mermaid-1592600112041 .state-note text{fill:black;stroke:none;font-size:10px}#mermaid-1592600112041 .stateLabel .box{stroke:none;stroke-width:0;fill:#ECECFF;opacity:0.5}#mermaid-1592600112041 .stateLabel text{fill:#000;font-size:10px;font-weight:bold;font-family:'trebuchet ms', verdana, arial;font-family:var(--mermaid-font-family)}#mermaid-1592600112041 .node circle.state-start{fill:black;stroke:black}#mermaid-1592600112041 .node circle.state-end{fill:black;stroke:white;stroke-width:1.5}#mermaid-1592600112041 #statediagram-barbEnd{fill:#9370db}#mermaid-1592600112041 .statediagram-cluster rect{fill:#ECECFF;stroke:#9370db;stroke-width:1px}#mermaid-1592600112041 .statediagram-cluster rect.outer{rx:5px;ry:5px}#mermaid-1592600112041 .statediagram-state .divider{stroke:#9370db}#mermaid-1592600112041 .statediagram-state .title-state{rx:5px;ry:5px}#mermaid-1592600112041 .statediagram-cluster.statediagram-cluster .inner{fill:white}#mermaid-1592600112041 .statediagram-cluster.statediagram-cluster-alt .inner{fill:#e0e0e0}#mermaid-1592600112041 .statediagram-cluster .inner{rx:0;ry:0}#mermaid-1592600112041 .statediagram-state rect.basic{rx:5px;ry:5px}#mermaid-1592600112041 .statediagram-state rect.divider{stroke-dasharray:10,10;fill:#efefef}#mermaid-1592600112041 .note-edge{stroke-dasharray:5}#mermaid-1592600112041 .statediagram-note rect{fill:#fff5ad;stroke:#aa3;stroke-width:1px;rx:0;ry:0}:root{--mermaid-font-family: '"trebuchet ms", verdana, arial';--mermaid-font-family: "Comic Sans MS", "Comic Sans", cursive}

:root { --mermaid-font-family: "trebuchet ms", verdana, arial;}</style><style>#mermaid-1592600112041 {
    color: rgb(0, 0, 0);
    font: 16px "trebuchet ms", verdana, arial;
  }</style><g><defs><marker id="statediagram-barbEnd" refX="19" refY="7" markerWidth="20" markerHeight="14" markerUnits="0" orient="auto"><path d="M 19,7 L9,13 L14,7 L9,1 Z"></path></marker></defs><g class="root"><g class="clusters"><g class="note-cluster" id="0----parent"><rect x="8" y="72" width="620.09375" height="219" fill="none"></rect></g></g><g class="edgePaths"><path d="M358.05859375,22L358.05859375,26.166666666666668C358.05859375,30.333333333333332,358.05859375,38.666666666666664,358.05859375,47C358.05859375,55.333333333333336,358.05859375,63.666666666666664,358.05859375,72C358.05859375,80.33333333333333,358.05859375,88.66666666666667,358.05859375,92.83333333333333L358.05859375,97" id="edge0" class="transition" marker-end="url(#statediagram-barbEnd)"></path><path d="M344.85084192961165,131L340.3835141080097,136.75C335.91618628640776,142.5,326.9815306432039,154,322.51420282160194,165.5C318.046875,177,318.046875,188.5,318.046875,194.25L318.046875,200" class="transition note-edge"></path><path d="M407.2198498179612,131L423.847921723301,136.75C440.47599362864077,142.5,473.7321374393204,154,754.9005739279936,170.18327848049262C1036.0690104166667,186.36655696098524,1565.1497395833333,207.2331139219705,1829.6901041666667,217.66639240246312L2094.23046875,228.09967088295576" id="edge1" class="transition" marker-end="url(#statediagram-barbEnd)"></path><path d="M2094.23046875,237.8018948710941L1864.8118489583333,246.66824572591176C1635.3932291666667,255.53459658072939,1176.5559895833333,273.2672982903647,947.1373697916666,287.88364914518235C717.71875,302.5,717.71875,314,717.71875,325.5C717.71875,337,717.71875,348.5,717.71875,354.25L717.71875,360" id="edge2" class="transition" marker-end="url(#statediagram-barbEnd)"></path><path d="M2342.73046875,252.59015853800983L2383.3326822916665,258.99179878167485C2423.9348958333335,265.3934390253399,2505.1393229166665,278.19671951267,2545.7415364583335,290.34835975633496C2586.34375,302.5,2586.34375,314,2586.34375,330.5416666666667C2586.34375,347.0833333333333,2586.34375,368.6666666666667,2586.34375,390.25C2586.34375,411.8333333333333,2586.34375,433.4166666666667,2586.34375,455C2586.34375,476.5833333333333,2586.34375,498.1666666666667,2586.34375,519.75C2586.34375,541.3333333333334,2586.34375,562.9166666666666,2586.34375,584.5C2586.34375,606.0833333333334,2586.34375,627.6666666666666,2586.34375,649.25C2586.34375,670.8333333333334,2586.34375,692.4166666666666,2586.34375,711.7916666666666C2586.34375,731.1666666666666,2586.34375,748.3333333333334,2586.34375,765.5C2586.34375,782.6666666666666,2586.34375,799.8333333333334,2586.34375,819.2083333333334C2586.34375,838.5833333333334,2586.34375,860.1666666666666,2586.34375,881.75C2586.34375,903.3333333333334,2586.34375,924.9166666666666,2350.0963541666665,945.8730986668605C2113.8489583333335,966.8295306670543,1641.3541666666667,987.1590613341086,1405.1067708333333,997.3238266676358L1168.859375,1007.4885920011628" id="edge3" class="transition" marker-end="url(#statediagram-barbEnd)"></path><path d="M603.03125,407.4895781378941L550.353515625,415.4079817815784C497.67578125,423.32638542526274,392.3203125,439.16319271263137,339.642578125,457.87326302298237C286.96484375,476.5833333333333,286.96484375,498.1666666666667,286.96484375,519.75C286.96484375,541.3333333333334,286.96484375,562.9166666666666,286.96484375,584.5C286.96484375,606.0833333333334,286.96484375,627.6666666666666,286.96484375,649.25C286.96484375,670.8333333333334,286.96484375,692.4166666666666,286.96484375,711.7916666666666C286.96484375,731.1666666666666,286.96484375,748.3333333333334,286.96484375,765.5C286.96484375,782.6666666666666,286.96484375,799.8333333333334,286.96484375,819.2083333333334C286.96484375,838.5833333333334,286.96484375,860.1666666666666,286.96484375,881.75C286.96484375,903.3333333333334,286.96484375,924.9166666666666,404.806640625,945.3125107554638C522.6484375,965.708354844261,758.33203125,984.9167096885218,876.173828125,994.5208871106523L994.015625,1004.1250645327826" id="edge4" class="transition" marker-end="url(#statediagram-barbEnd)"></path><path d="M2342.73046875,248.07204888769067L2401.7115885416665,255.22670740640888C2460.6927083333335,262.3813659251271,2578.6549479166665,276.6906829625636,2637.6360677083335,289.59534148128176C2696.6171875,302.5,2696.6171875,314,2696.6171875,330.5416666666667C2696.6171875,347.0833333333333,2696.6171875,368.6666666666667,2696.6171875,390.25C2696.6171875,411.8333333333333,2696.6171875,433.4166666666667,2399.9850260416665,454.4118331047201C2103.3528645833335,475.4069995427735,1510.0885416666667,495.81399908554704,1213.4563802083333,506.0174988569338L916.82421875,516.2209986283206" id="edge5" class="transition" marker-end="url(#statediagram-barbEnd)"></path><path d="M762.8072363658301,420.5L771.3777750965252,426.25C779.9483138272202,432,797.08939128861,443.5,805.6599300193051,455C814.23046875,466.5,814.23046875,478,814.23046875,483.75L814.23046875,489.5" id="edge6" class="transition" marker-end="url(#statediagram-barbEnd)"></path><path d="M711.63671875,536.7076108091939L663.4459635416666,544.6730090076616C615.2552083333334,552.6384072061293,518.8736979166666,568.5692036030646,470.6829427083333,587.3262684681989C422.4921875,606.0833333333334,422.4921875,627.6666666666666,422.4921875,649.25C422.4921875,670.8333333333334,422.4921875,692.4166666666666,422.4921875,711.7916666666666C422.4921875,731.1666666666666,422.4921875,748.3333333333334,422.4921875,765.5C422.4921875,782.6666666666666,422.4921875,799.8333333333334,422.4921875,819.2083333333334C422.4921875,838.5833333333334,422.4921875,860.1666666666666,422.4921875,881.75C422.4921875,903.3333333333334,422.4921875,924.9166666666666,422.4921875,946.5C422.4921875,968.0833333333334,422.4921875,989.6666666666666,422.4921875,1011.25C422.4921875,1032.8333333333333,422.4921875,1054.4166666666667,422.4921875,1076C422.4921875,1097.5833333333333,422.4921875,1119.1666666666667,422.4921875,1140.75C422.4921875,1162.3333333333333,422.4921875,1183.9166666666667,422.4921875,1205.5C422.4921875,1227.0833333333333,422.4921875,1248.6666666666667,422.4921875,1270.25C422.4921875,1291.8333333333333,422.4921875,1313.4166666666667,612.1399739583334,1332.3060258370065C801.7877604166666,1351.1953850073462,1181.0833333333333,1367.3907700146926,1370.7311197916667,1375.4884625183658L1560.37890625,1383.586155022039" id="edge7" class="transition" marker-end="url(#statediagram-barbEnd)"></path><path d="M916.82421875,535.859143955971L968.4537760416666,543.9659532966425C1020.0833333333334,552.072762637314,1123.3424479166667,568.2863813186569,1174.9720052083333,582.1431906593285C1226.6015625,596,1226.6015625,607.5,1226.6015625,613.25L1226.6015625,619" id="edge8" class="transition" marker-end="url(#statediagram-barbEnd)"></path><path d="M1084.2109375,663.0079973886078L996.2526041666666,671.5066644905065C908.2942708333334,680.0053315924052,732.3776041666666,697.0026657962026,644.4192708333334,714.0846662314347C556.4609375,731.1666666666666,556.4609375,748.3333333333334,556.4609375,765.5C556.4609375,782.6666666666666,556.4609375,799.8333333333334,556.4609375,819.2083333333334C556.4609375,838.5833333333334,556.4609375,860.1666666666666,556.4609375,881.75C556.4609375,903.3333333333334,556.4609375,924.9166666666666,556.4609375,946.5C556.4609375,968.0833333333334,556.4609375,989.6666666666666,556.4609375,1011.25C556.4609375,1032.8333333333333,556.4609375,1054.4166666666667,556.4609375,1076C556.4609375,1097.5833333333333,556.4609375,1119.1666666666667,556.4609375,1140.75C556.4609375,1162.3333333333333,556.4609375,1183.9166666666667,556.4609375,1205.5C556.4609375,1227.0833333333333,556.4609375,1248.6666666666667,556.4609375,1270.25C556.4609375,1291.8333333333333,556.4609375,1313.4166666666667,723.7805989583334,1332.2453439561148C891.1002604166666,1351.0740212455628,1225.7395833333333,1367.1480424911254,1393.0592447916667,1375.1850531139069L1560.37890625,1383.2220637366881" id="edge9" class="transition" marker-end="url(#statediagram-barbEnd)"></path><path d="M1989.734375,895.0199280996156L1906.5130208333333,903.5999400830129C1823.2916666666667,912.1799520664105,1656.8489583333333,929.3399760332053,1573.6276041666667,948.7116546832693C1490.40625,968.0833333333334,1490.40625,989.6666666666666,1490.40625,1011.25C1490.40625,1032.8333333333333,1490.40625,1054.4166666666667,1490.40625,1076C1490.40625,1097.5833333333333,1490.40625,1119.1666666666667,1490.40625,1140.75C1490.40625,1162.3333333333333,1490.40625,1183.9166666666667,1490.40625,1205.5C1490.40625,1227.0833333333333,1490.40625,1248.6666666666667,1490.40625,1270.25C1490.40625,1291.8333333333333,1490.40625,1313.4166666666667,1505.8380043992718,1329.9583333333333C1521.2697587985438,1346.5,1552.1332675970873,1358,1567.565021996359,1363.75L1582.996776395631,1369.5" id="edge10" class="transition" marker-end="url(#statediagram-barbEnd)"></path><path d="M1084.2109375,668.7497314959394L1029.1399739583333,676.2914429132828C974.0690104166666,683.8331543306263,863.9270833333334,698.916577165313,808.8561197916666,715.0416219159898C753.78515625,731.1666666666666,753.78515625,748.3333333333334,753.78515625,765.5C753.78515625,782.6666666666666,753.78515625,799.8333333333334,753.78515625,819.2083333333334C753.78515625,838.5833333333334,753.78515625,860.1666666666666,753.78515625,881.75C753.78515625,903.3333333333334,753.78515625,924.9166666666666,793.8235677083334,943.6206440229379C833.8619791666666,962.324621379209,913.9388020833334,978.1492427584179,953.9772135416666,986.0615534480224L994.015625,993.9738641376268" id="edge11" class="transition" marker-end="url(#statediagram-barbEnd)"></path><path d="M1989.734375,899.4902423002727L1932.8893229166667,907.325201916894C1876.0442708333333,915.1601615335152,1762.3541666666667,930.8300807667575,1625.5416666666667,947.7934779335934C1488.7291666666667,964.7568751004292,1328.7942708333333,983.0137502008585,1248.8268229166667,992.142187751073L1168.859375,1001.2706253012877" id="edge12" class="transition" marker-end="url(#statediagram-barbEnd)"></path><path d="M1135.1161166747104,679.5L1117.7263211872587,685.25C1100.336525699807,691,1065.5569347249036,702.5,1048.1671392374517,716.8333333333334C1030.77734375,731.1666666666666,1030.77734375,748.3333333333334,1030.77734375,765.5C1030.77734375,782.6666666666666,1030.77734375,799.8333333333334,1030.77734375,819.2083333333334C1030.77734375,838.5833333333334,1030.77734375,860.1666666666666,1030.77734375,881.75C1030.77734375,903.3333333333334,1030.77734375,924.9166666666666,1035.2761221042472,941.4583333333334C1039.7749004584941,958,1048.7724571669885,969.5,1053.2712355212354,975.25L1057.7700138754826,981" id="edge13" class="transition" marker-end="url(#statediagram-barbEnd)"></path><path d="M1251.221660834942,679.5L1255.9015142374517,685.25C1260.5813676399614,691,1269.9410744449806,702.5,1274.6209278474903,716.8333333333334C1279.30078125,731.1666666666666,1279.30078125,748.3333333333334,1279.30078125,765.5C1279.30078125,782.6666666666666,1279.30078125,799.8333333333334,1279.30078125,819.2083333333334C1279.30078125,838.5833333333334,1279.30078125,860.1666666666666,1279.30078125,881.75C1279.30078125,903.3333333333334,1279.30078125,924.9166666666666,1260.8938802083333,941.7319211102995C1242.4869791666667,958.5471755539323,1205.6731770833333,970.5943511078646,1187.2662760416667,976.6179388848308L1168.859375,982.6415266617969" id="edge14" class="transition" marker-end="url(#statediagram-barbEnd)"></path><path d="M1461.1053549757282,782.5L1453.1581083131068,788.25C1445.2108616504854,794,1429.3163683252426,805.5,1421.3691216626212,822.0416666666666C1413.421875,838.5833333333334,1413.421875,860.1666666666666,1413.421875,881.75C1413.421875,903.3333333333334,1413.421875,924.9166666666666,1372.6614583333333,943.6582164540877C1331.9010416666667,962.3997662415086,1250.3802083333333,978.2995324830172,1209.6197916666667,986.2494156037715L1168.859375,994.1992987245258" id="edge15" class="transition" marker-end="url(#statediagram-barbEnd)"></path><path d="M1347.1343810328185,679.5L1370.0455779440153,685.25C1392.9567748552124,691,1438.779168677606,702.5,1461.690365588803,714C1484.6015625,725.5,1484.6015625,737,1484.6015625,742.75L1484.6015625,748.5" id="edge16" class="transition" marker-end="url(#statediagram-barbEnd)"></path><path d="M1368.9921875,657.2950026075131L1536.2649739583333,666.745835506261C1703.5377604166667,676.1966684050087,2038.0833333333333,695.0983342025044,2205.3561197916665,713.1325004345855C2372.62890625,731.1666666666666,2372.62890625,748.3333333333334,2372.62890625,765.5C2372.62890625,782.6666666666666,2372.62890625,799.8333333333334,2350.0566180019305,814.1666666666666C2327.484329753861,828.5,2282.339753257722,840,2259.7674650096524,845.75L2237.195176761583,851.5" id="edge17" class="transition" marker-end="url(#statediagram-barbEnd)"></path><path d="M1546.996359223301,782.5L1568.1004816444174,788.25C1589.2046040655339,794,1631.4128489077668,805.5,1705.2025182038835,818.9190724478594C1778.9921875,832.338144895719,1884.36328125,847.6762897914381,1937.048828125,855.3453622392975L1989.734375,863.014434687157" id="edge18" class="transition" marker-end="url(#statediagram-barbEnd)"></path><path d="M2036.3746681949806,912L2020.7744630791506,917.75C2005.1742579633203,923.5,1973.9738477316603,935,1829.387965532497,950.4463591411113C1684.8020833333333,965.8927182822226,1426.8307291666667,985.2854365644453,1297.8450520833333,994.9817957055566L1168.859375,1004.678154846668" id="edge19" class="transition" marker-end="url(#statediagram-barbEnd)"></path><path d="M2151.0202702702704,912L2157.212204391892,917.75C2163.4041385135138,923.5,2175.7880067567567,935,2012.0945242117116,950.689223880316C1848.4010416666667,966.3784477606322,1508.6302083333333,986.2568955212643,1338.7447916666667,996.1961194015803L1168.859375,1006.1353432818963" id="edge20" class="transition" marker-end="url(#statediagram-barbEnd)"></path><path d="M2244.584308638996,912L2268.56114261583,917.75C2292.537976592664,923.5,2340.491644546332,935,2364.468478523166,946.5C2388.4453125,958,2388.4453125,969.5,2388.4453125,975.25L2388.4453125,981" id="edge21" class="transition" marker-end="url(#statediagram-barbEnd)"></path><path d="M2249.96875,1034.7199798570566L2209.3756510416665,1041.5999832142138C2168.7825520833335,1048.479986571371,2087.5963541666665,1062.2399932856854,2047.0032552083333,1079.9116633095093C2006.41015625,1097.5833333333333,2006.41015625,1119.1666666666667,2006.41015625,1140.75C2006.41015625,1162.3333333333333,2006.41015625,1183.9166666666667,2006.41015625,1205.5C2006.41015625,1227.0833333333333,2006.41015625,1248.6666666666667,2006.41015625,1270.25C2006.41015625,1291.8333333333333,2006.41015625,1313.4166666666667,1954.8190104166667,1331.241210338386C1903.2278645833333,1349.0657540101054,1800.0455729166667,1363.1315080202107,1748.4544270833333,1370.1643850252633L1696.86328125,1377.197262030316" id="edge22" class="transition" marker-end="url(#statediagram-barbEnd)"></path><path d="M2426.9823087596524,1041.5L2434.30752292471,1047.25C2441.6327370897684,1053,2456.283165419884,1064.5,2463.608379584942,1076C2470.93359375,1087.5,2470.93359375,1099,2470.93359375,1104.75L2470.93359375,1110.5" id="edge23" class="transition" marker-end="url(#statediagram-barbEnd)"></path><path d="M2340.95703125,1167.5285062642936L2310.2395833333335,1173.857088553578C2279.5221354166665,1180.1856708428625,2218.0872395833335,1192.8428354214311,2187.3697916666665,1209.9630843773823C2156.65234375,1227.0833333333333,2156.65234375,1248.6666666666667,2156.65234375,1270.25C2156.65234375,1291.8333333333333,2156.65234375,1313.4166666666667,2080.0208333333335,1331.682365952536C2003.3893229166667,1349.9480652384052,1850.1263020833333,1364.8961304768104,1773.4947916666667,1372.3701630960131L1696.86328125,1379.8441957152156" id="edge24" class="transition" marker-end="url(#statediagram-barbEnd)"></path><path d="M2543.0182341940153,1171L2556.7202732866795,1176.75C2570.4223123793436,1182.5,2597.826390564672,1194,2611.528429657336,1205.5C2625.23046875,1217,2625.23046875,1228.5,2625.23046875,1234.25L2625.23046875,1240" id="edge25" class="transition" marker-end="url(#statediagram-barbEnd)"></path><path d="M2481.76171875,1295.7386068894557L2444.9296875,1302.2821724078797C2408.09765625,1308.8257379263039,2334.43359375,1321.9128689631518,2344.34765625,1335.187545228627C2354.26171875,1348.462221494102,2447.75390625,1361.9244429882044,2494.5,1368.6555537352558L2541.24609375,1375.3866644823067" id="edge26" class="transition" marker-end="url(#statediagram-barbEnd)"></path><path d="M2571.7509652509652,1300.5L2561.585439792471,1306.25C2551.419914333977,1312,2531.0888634169883,1323.5,2560.064614000161,1335.7078280710975C2589.0403645833335,1347.915656142195,2667.3229166666665,1360.8313122843902,2706.4641927083335,1367.2891403554877L2745.60546875,1373.7469684265852" id="edge27" class="transition" marker-end="url(#statediagram-barbEnd)"></path><path d="M2677.6460394546334,1300.5L2687.6093297538614,1306.25C2697.572620053089,1312,2717.4992006515445,1323.5,2554.035407617439,1337.3050658671946C2390.5716145833335,1351.1101317343894,2043.7174479166667,1367.2202634687785,1870.2903645833333,1375.275329335973L1696.86328125,1383.3303952031679" id="edge28" class="transition" marker-end="url(#statediagram-barbEnd)"></path><path d="M1081.4375,1041.5L1081.4375,1047.25C1081.4375,1053,1081.4375,1064.5,1081.4375,1081.0416666666667C1081.4375,1097.5833333333333,1081.4375,1119.1666666666667,1081.4375,1140.75C1081.4375,1162.3333333333333,1081.4375,1183.9166666666667,1081.4375,1205.5C1081.4375,1227.0833333333333,1081.4375,1248.6666666666667,1081.4375,1270.25C1081.4375,1291.8333333333333,1081.4375,1313.4166666666667,1161.2610677083333,1331.7211933385208C1241.0846354166667,1350.0257200103752,1400.7317708333333,1365.05144002075,1480.5553385416667,1372.5643000259377L1560.37890625,1380.0771600311252" id="edge29" class="transition" marker-end="url(#statediagram-barbEnd)"></path><path d="M2618.42578125,1403.5L2618.42578125,1407.6666666666667C2618.42578125,1411.8333333333333,2618.42578125,1420.1666666666667,2519.081043280962,1429.6048469937905C2419.7363053119243,1439.0430273209142,2221.0468293738486,1449.5860546418287,2121.7020914048107,1454.8575683022857L2022.3573534357727,1460.129081962743" id="edge30" class="transition" marker-end="url(#statediagram-barbEnd)"></path><path d="M2822.90234375,1403.5L2822.90234375,1407.6666666666667C2822.90234375,1411.8333333333333,2822.90234375,1420.1666666666667,2689.478902789077,1429.6204717045919C2556.0554618281535,1439.074276742517,2289.2085799063075,1449.6485534850337,2155.7851389453845,1454.935691856292L2022.3616979844614,1460.2228302275505" id="edge31" class="transition" marker-end="url(#statediagram-barbEnd)"></path><path d="M1628.62109375,1403.5L1628.62109375,1407.6666666666667C1628.62109375,1411.8333333333333,1628.62109375,1420.1666666666667,1691.9160825885072,1429.5704635217546C1755.211071427014,1438.974260376843,1881.8010491040284,1449.4485207536861,1945.0960379425353,1454.6856509421075L2008.3910267810425,1459.922781130529" id="edge32" class="transition" marker-end="url(#statediagram-barbEnd)"></path></g><g class="edgeLabels"><g class="edgeLabel"><g class="label" transform="translate(0, 0)"><rect rx="0" ry="0" width="0" height="0" style="fill:#e8e8e8;"></rect><text style=""></text></g></g><g class="edgeLabel"><g class="label" transform="translate(0, 0)"><rect rx="0" ry="0" width="0" height="0" style="fill:#e8e8e8;"></rect><text style=""></text></g></g><g class="edgeLabel" transform="translate(506.98828125, 165.5)"><g class="label" transform="translate(-60.0234375, -9.5)"><rect rx="0" ry="0" width="119.984375" height="19.03125" style="fill:#e8e8e8;"></rect><text style=""><tspan xml:space="preserve" dy="1em" x="0" class="row">ClientEventOpen</tspan></text></g></g><g class="edgeLabel" transform="translate(717.71875, 325.5)"><g class="label" transform="translate(-100.0390625, -9.5)"><rect rx="0" ry="0" width="199.953125" height="19.03125" style="fill:#e8e8e8;"></rect><text style=""><tspan xml:space="preserve" dy="1em" x="0" class="row">ClientEventFundingInitiated</tspan></text></g></g><g class="edgeLabel" transform="translate(2586.34375, 649.25)"><g class="label" transform="translate(-107.6796875, -9.5)"><rect rx="0" ry="0" width="215.234375" height="19.03125" style="fill:#e8e8e8;"></rect><text style=""><tspan xml:space="preserve" dy="1em" x="0" class="row">ClientEventEnsureFundsFailed</tspan></text></g></g><g class="edgeLabel" transform="translate(286.96484375, 714)"><g class="label" transform="translate(-107.6796875, -9.5)"><rect rx="0" ry="0" width="215.234375" height="19.03125" style="fill:#e8e8e8;"></rect><text style=""><tspan xml:space="preserve" dy="1em" x="0" class="row">ClientEventEnsureFundsFailed</tspan></text></g></g><g class="edgeLabel" transform="translate(2696.6171875, 390.25)"><g class="label" transform="translate(-90.2734375, -9.5)"><rect rx="0" ry="0" width="180.4375" height="19.03125" style="fill:#e8e8e8;"></rect><text style=""><tspan xml:space="preserve" dy="1em" x="0" class="row">ClientEventFundsEnsured</tspan></text></g></g><g class="edgeLabel" transform="translate(814.23046875, 455)"><g class="label" transform="translate(-90.2734375, -9.5)"><rect rx="0" ry="0" width="180.4375" height="19.03125" style="fill:#e8e8e8;"></rect><text style=""><tspan xml:space="preserve" dy="1em" x="0" class="row">ClientEventFundsEnsured</tspan></text></g></g><g class="edgeLabel" transform="translate(422.4921875, 946.5)"><g class="label" transform="translate(-113.4609375, -9.5)"><rect rx="0" ry="0" width="226.78125" height="19.03125" style="fill:#e8e8e8;"></rect><text style=""><tspan xml:space="preserve" dy="1em" x="0" class="row">ClientEventWriteProposalFailed</tspan></text></g></g><g class="edgeLabel" transform="translate(1226.6015625, 584.5)"><g class="label" transform="translate(-89.9453125, -9.5)"><rect rx="0" ry="0" width="179.78125" height="19.03125" style="fill:#e8e8e8;"></rect><text style=""><tspan xml:space="preserve" dy="1em" x="0" class="row">ClientEventDealProposed</tspan></text></g></g><g class="edgeLabel" transform="translate(556.4609375, 1011.25)"><g class="label" transform="translate(-113.96875, -9.5)"><rect rx="0" ry="0" width="227.796875" height="19.03125" style="fill:#e8e8e8;"></rect><text style=""><tspan xml:space="preserve" dy="1em" x="0" class="row">ClientEventReadResponseFailed</tspan></text></g></g><g class="edgeLabel" transform="translate(1490.40625, 1140.75)"><g class="label" transform="translate(-113.96875, -9.5)"><rect rx="0" ry="0" width="227.796875" height="19.03125" style="fill:#e8e8e8;"></rect><text style=""><tspan xml:space="preserve" dy="1em" x="0" class="row">ClientEventReadResponseFailed</tspan></text></g></g><g class="edgeLabel" transform="translate(753.78515625, 817)"><g class="label" transform="translate(-138.2578125, -9.5)"><rect rx="0" ry="0" width="276.34375" height="19.03125" style="fill:#e8e8e8;"></rect><text style=""><tspan xml:space="preserve" dy="1em" x="0" class="row">ClientEventResponseVerificationFailed</tspan></text></g></g><g class="edgeLabel" transform="translate(1648.6640625, 946.5)"><g class="label" transform="translate(-138.2578125, -9.5)"><rect rx="0" ry="0" width="276.34375" height="19.03125" style="fill:#e8e8e8;"></rect><text style=""><tspan xml:space="preserve" dy="1em" x="0" class="row">ClientEventResponseVerificationFailed</tspan></text></g></g><g class="edgeLabel" transform="translate(1030.77734375, 817)"><g class="label" transform="translate(-118.734375, -9.5)"><rect rx="0" ry="0" width="237.328125" height="19.03125" style="fill:#e8e8e8;"></rect><text style=""><tspan xml:space="preserve" dy="1em" x="0" class="row">ClientEventUnexpectedDealState</tspan></text></g></g><g class="edgeLabel" transform="translate(1279.30078125, 817)"><g class="label" transform="translate(-109.7890625, -9.5)"><rect rx="0" ry="0" width="219.4375" height="19.03125" style="fill:#e8e8e8;"></rect><text style=""><tspan xml:space="preserve" dy="1em" x="0" class="row">ClientEventDataTransferFailed</tspan></text></g></g><g class="edgeLabel" transform="translate(1413.421875, 881.75)"><g class="label" transform="translate(-109.7890625, -9.5)"><rect rx="0" ry="0" width="219.4375" height="19.03125" style="fill:#e8e8e8;"></rect><text style=""><tspan xml:space="preserve" dy="1em" x="0" class="row">ClientEventDataTransferFailed</tspan></text></g></g><g class="edgeLabel" transform="translate(1484.6015625, 714)"><g class="label" transform="translate(-118.453125, -9.5)"><rect rx="0" ry="0" width="236.765625" height="19.03125" style="fill:#e8e8e8;"></rect><text style=""><tspan xml:space="preserve" dy="1em" x="0" class="row">ClientEventDataTransferInitiated</tspan></text></g></g><g class="edgeLabel" transform="translate(2372.62890625, 765.5)"><g class="label" transform="translate(-122.359375, -9.5)"><rect rx="0" ry="0" width="244.5625" height="19.03125" style="fill:#e8e8e8;"></rect><text style=""><tspan xml:space="preserve" dy="1em" x="0" class="row">ClientEventDataTransferComplete</tspan></text></g></g><g class="edgeLabel" transform="translate(1673.62109375, 817)"><g class="label" transform="translate(-122.359375, -9.5)"><rect rx="0" ry="0" width="244.5625" height="19.03125" style="fill:#e8e8e8;"></rect><text style=""><tspan xml:space="preserve" dy="1em" x="0" class="row">ClientEventDataTransferComplete</tspan></text></g></g><g class="edgeLabel" transform="translate(1942.7734375, 946.5)"><g class="label" transform="translate(-135.8515625, -9.5)"><rect rx="0" ry="0" width="271.546875" height="19.03125" style="fill:#e8e8e8;"></rect><text style=""><tspan xml:space="preserve" dy="1em" x="0" class="row">ClientEventResponseDealDidNotMatch</tspan></text></g></g><g class="edgeLabel" transform="translate(2188.171875, 946.5)"><g class="label" transform="translate(-89.546875, -9.5)"><rect rx="0" ry="0" width="178.984375" height="19.03125" style="fill:#e8e8e8;"></rect><text style=""><tspan xml:space="preserve" dy="1em" x="0" class="row">ClientEventDealRejected</tspan></text></g></g><g class="edgeLabel" transform="translate(2388.4453125, 946.5)"><g class="label" transform="translate(-90.7265625, -9.5)"><rect rx="0" ry="0" width="181.34375" height="19.03125" style="fill:#e8e8e8;"></rect><text style=""><tspan xml:space="preserve" dy="1em" x="0" class="row">ClientEventDealAccepted</tspan></text></g></g><g class="edgeLabel" transform="translate(2006.41015625, 1205.5)"><g class="label" transform="translate(-104.6796875, -9.5)"><rect rx="0" ry="0" width="209.234375" height="19.03125" style="fill:#e8e8e8;"></rect><text style=""><tspan xml:space="preserve" dy="1em" x="0" class="row">ClientEventDealPublishFailed</tspan></text></g></g><g class="edgeLabel" transform="translate(2470.93359375, 1076)"><g class="label" transform="translate(-91.6328125, -9.5)"><rect rx="0" ry="0" width="183.15625" height="19.03125" style="fill:#e8e8e8;"></rect><text style=""><tspan xml:space="preserve" dy="1em" x="0" class="row">ClientEventDealPublished</tspan></text></g></g><g class="edgeLabel" transform="translate(2156.65234375, 1270.25)"><g class="label" transform="translate(-115.5078125, -9.5)"><rect rx="0" ry="0" width="230.875" height="19.03125" style="fill:#e8e8e8;"></rect><text style=""><tspan xml:space="preserve" dy="1em" x="0" class="row">ClientEventDealActivationFailed</tspan></text></g></g><g class="edgeLabel" transform="translate(2625.23046875, 1205.5)"><g class="label" transform="translate(-91.5234375, -9.5)"><rect rx="0" ry="0" width="182.9375" height="19.03125" style="fill:#e8e8e8;"></rect><text style=""><tspan xml:space="preserve" dy="1em" x="0" class="row">ClientEventDealActivated</tspan></text></g></g><g class="edgeLabel" transform="translate(2260.76953125, 1335)"><g class="label" transform="translate(-84.1171875, -9.5)"><rect rx="0" ry="0" width="168.125" height="19.03125" style="fill:#e8e8e8;"></rect><text style=""><tspan xml:space="preserve" dy="1em" x="0" class="row">ClientEventDealSlashed</tspan></text></g></g><g class="edgeLabel" transform="translate(2510.7578125, 1335)"><g class="label" transform="translate(-84.234375, -9.5)"><rect rx="0" ry="0" width="168.375" height="19.03125" style="fill:#e8e8e8;"></rect><text style=""><tspan xml:space="preserve" dy="1em" x="0" class="row">ClientEventDealExpired</tspan></text></g></g><g class="edgeLabel" transform="translate(2737.42578125, 1335)"><g class="label" transform="translate(-120.15625, -9.5)"><rect rx="0" ry="0" width="240.15625" height="19.03125" style="fill:#e8e8e8;"></rect><text style=""><tspan xml:space="preserve" dy="1em" x="0" class="row">ClientEventDealCompletionFailed</tspan></text></g></g><g class="edgeLabel" transform="translate(1081.4375, 1205.5)"><g class="label" transform="translate(-63.3046875, -9.5)"><rect rx="0" ry="0" width="126.53125" height="19.03125" style="fill:#e8e8e8;"></rect><text style=""><tspan xml:space="preserve" dy="1em" x="0" class="row">ClientEventFailed</tspan></text></g></g><g class="edgeLabel"><g class="label" transform="translate(0, 0)"><rect rx="0" ry="0" width="0" height="0" style="fill:#e8e8e8;"></rect><text style=""></text></g></g><g class="edgeLabel"><g class="label" transform="translate(0, 0)"><rect rx="0" ry="0" width="0" height="0" style="fill:#e8e8e8;"></rect><text style=""></text></g></g><g class="edgeLabel"><g class="label" transform="translate(0, 0)"><rect rx="0" ry="0" width="0" height="0" style="fill:#e8e8e8;"></rect><text style=""></text></g></g></g><g class="nodes"><g class="node statediagram-state" id="0" transform="translate(358.05859375, 114)"><rect class="outer title-state" x="-82.921875" y="-17" width="165.84375" height="34"></rect><line class="divider" x1="-82.921875" x2="82.921875" y1="9.5" y2="9.5"></line><g class="label" transform="translate(-75.421875, -14)"><text style=""><tspan xml:space="preserve" dy="1em" x="0" class="title-row">StorageDealUnknown</tspan></text><text style="" transform="translate( 0, 26.5)"><tspan xml:space="preserve" dy="1em" x="0" class="title-row"></tspan></text></g></g><g class="node statediagram-state" id="3" transform="translate(2388.4453125, 1011.25)"><rect class="outer title-state" x="-138.4765625" y="-30.25" width="276.953125" height="60.5"></rect><line class="divider" x1="-138.4765625" x2="138.4765625" y1="-3.75" y2="-3.75"></line><g class="label" transform="translate(-130.9765625, -27.25)"><text style=""><tspan xml:space="preserve" dy="1em" x="0" class="title-row">StorageDealProposalAccepted</tspan></text><text style="" transform="translate( 0, 26.5)"><tspan xml:space="preserve" dy="1em" x="0" class="title-row">On entry runs ValidateDealPublished</tspan></text></g></g><g class="node statediagram-state" id="5" transform="translate(2470.93359375, 1140.75)"><rect class="outer title-state" x="-129.9765625" y="-30.25" width="259.953125" height="60.5"></rect><line class="divider" x1="-129.9765625" x2="129.9765625" y1="-3.75" y2="-3.75"></line><g class="label" transform="translate(-122.4765625, -27.25)"><text style=""><tspan xml:space="preserve" dy="1em" x="0" class="title-row">StorageDealSealing</tspan></text><text style="" transform="translate( 0, 26.5)"><tspan xml:space="preserve" dy="1em" x="0" class="title-row">On entry runs VerifyDealActivated</tspan></text></g></g><g class="node statediagram-state" id="6" transform="translate(2625.23046875, 1270.25)"><rect class="outer title-state" x="-143.46875" y="-30.25" width="286.9375" height="60.5"></rect><line class="divider" x1="-143.46875" x2="143.46875" y1="-3.75" y2="-3.75"></line><g class="label" transform="translate(-135.96875, -27.25)"><text style=""><tspan xml:space="preserve" dy="1em" x="0" class="title-row">StorageDealActive</tspan></text><text style="" transform="translate( 0, 26.5)"><tspan xml:space="preserve" dy="1em" x="0" class="title-row">On entry runs WaitForDealCompletion</tspan></text></g></g><g class="node statediagram-state" id="7" transform="translate(2822.90234375, 1386.5)"><rect class="outer title-state" x="-77.296875" y="-17" width="154.59375" height="34"></rect><line class="divider" x1="-77.296875" x2="77.296875" y1="9.5" y2="9.5"></line><g class="label" transform="translate(-69.796875, -14)"><text style=""><tspan xml:space="preserve" dy="1em" x="0" class="title-row">StorageDealExpired</tspan></text><text style="" transform="translate( 0, 26.5)"><tspan xml:space="preserve" dy="1em" x="0" class="title-row"></tspan></text></g></g><g class="node statediagram-state" id="8" transform="translate(2618.42578125, 1386.5)"><rect class="outer title-state" x="-77.1796875" y="-17" width="154.359375" height="34"></rect><line class="divider" x1="-77.1796875" x2="77.1796875" y1="9.5" y2="9.5"></line><g class="label" transform="translate(-69.6796875, -14)"><text style=""><tspan xml:space="preserve" dy="1em" x="0" class="title-row">StorageDealSlashed</tspan></text><text style="" transform="translate( 0, 26.5)"><tspan xml:space="preserve" dy="1em" x="0" class="title-row"></tspan></text></g></g><g class="node statediagram-state" id="9" transform="translate(1081.4375, 1011.25)"><rect class="outer title-state" x="-87.421875" y="-30.25" width="174.84375" height="60.5"></rect><line class="divider" x1="-87.421875" x2="87.421875" y1="-3.75" y2="-3.75"></line><g class="label" transform="translate(-79.921875, -27.25)"><text style=""><tspan xml:space="preserve" dy="1em" x="0" class="title-row">StorageDealFailing</tspan></text><text style="" transform="translate( 0, 26.5)"><tspan xml:space="preserve" dy="1em" x="0" class="title-row">On entry runs FailDeal</tspan></text></g></g><g class="node statediagram-state" id="11" transform="translate(814.23046875, 519.75)"><rect class="outer title-state" x="-102.59375" y="-30.25" width="205.1875" height="60.5"></rect><line class="divider" x1="-102.59375" x2="102.59375" y1="-3.75" y2="-3.75"></line><g class="label" transform="translate(-95.09375, -27.25)"><text style=""><tspan xml:space="preserve" dy="1em" x="0" class="title-row">StorageDealFundsEnsured</tspan></text><text style="" transform="translate( 0, 26.5)"><tspan xml:space="preserve" dy="1em" x="0" class="title-row">On entry runs ProposeDeal</tspan></text></g></g><g class="node statediagram-state" id="12" transform="translate(1226.6015625, 649.25)"><rect class="outer title-state" x="-142.390625" y="-30.25" width="284.78125" height="60.5"></rect><line class="divider" x1="-142.390625" x2="142.390625" y1="-3.75" y2="-3.75"></line><g class="label" transform="translate(-134.890625, -27.25)"><text style=""><tspan xml:space="preserve" dy="1em" x="0" class="title-row">StorageDealWaitingForDataRequest</tspan></text><text style="" transform="translate( 0, 26.5)"><tspan xml:space="preserve" dy="1em" x="0" class="title-row">On entry runs WaitingForDataRequest</tspan></text></g></g><g class="node statediagram-state" id="13" transform="translate(2118.4453125, 881.75)"><rect class="outer title-state" x="-128.7109375" y="-30.25" width="257.421875" height="60.5"></rect><line class="divider" x1="-128.7109375" x2="128.7109375" y1="-3.75" y2="-3.75"></line><g class="label" transform="translate(-121.2109375, -27.25)"><text style=""><tspan xml:space="preserve" dy="1em" x="0" class="title-row">StorageDealValidating</tspan></text><text style="" transform="translate( 0, 26.5)"><tspan xml:space="preserve" dy="1em" x="0" class="title-row">On entry runs VerifyDealResponse</tspan></text></g></g><g class="node statediagram-state" id="15" transform="translate(1484.6015625, 765.5)"><rect class="outer title-state" x="-94.109375" y="-17" width="188.21875" height="34"></rect><line class="divider" x1="-94.109375" x2="94.109375" y1="9.5" y2="9.5"></line><g class="label" transform="translate(-86.609375, -14)"><text style=""><tspan xml:space="preserve" dy="1em" x="0" class="title-row">StorageDealTransferring</tspan></text><text style="" transform="translate( 0, 26.5)"><tspan xml:space="preserve" dy="1em" x="0" class="title-row"></tspan></text></g></g><g class="node statediagram-state" id="19" transform="translate(2218.48046875, 233)"><rect class="outer title-state" x="-124.25" y="-30.25" width="248.5" height="60.5"></rect><line class="divider" x1="-124.25" x2="124.25" y1="-3.75" y2="-3.75"></line><g class="label" transform="translate(-116.75, -27.25)"><text style=""><tspan xml:space="preserve" dy="1em" x="0" class="title-row">StorageDealEnsureClientFunds</tspan></text><text style="" transform="translate( 0, 26.5)"><tspan xml:space="preserve" dy="1em" x="0" class="title-row">On entry runs EnsureClientFunds</tspan></text></g></g><g class="node statediagram-state" id="21" transform="translate(717.71875, 390.25)"><rect class="outer title-state" x="-114.6875" y="-30.25" width="229.375" height="60.5"></rect><line class="divider" x1="-114.6875" x2="114.6875" y1="-3.75" y2="-3.75"></line><g class="label" transform="translate(-107.1875, -27.25)"><text style=""><tspan xml:space="preserve" dy="1em" x="0" class="title-row">StorageDealClientFunding</tspan></text><text style="" transform="translate( 0, 26.5)"><tspan xml:space="preserve" dy="1em" x="0" class="title-row">On entry runs WaitForFunding</tspan></text></g></g><g class="node statediagram-state" id="24" transform="translate(1628.62109375, 1386.5)"><rect class="outer title-state" x="-68.2421875" y="-17" width="136.484375" height="34"></rect><line class="divider" x1="-68.2421875" x2="68.2421875" y1="9.5" y2="9.5"></line><g class="label" transform="translate(-60.7421875, -14)"><text style=""><tspan xml:space="preserve" dy="1em" x="0" class="title-row">StorageDealError</tspan></text><text style="" transform="translate( 0, 26.5)"><tspan xml:space="preserve" dy="1em" x="0" class="title-row"></tspan></text></g></g><g class="node default" id="root_start" transform="translate(358.05859375, 15)"><circle class="state-start" r="7" width="14" height="14"></circle></g><g class="node statediagram-note" id="0----note" transform="translate(318.046875, 233)"><rect x="-275.046875" y="-33" width="550.09375" height="66"></rect><g class="label" transform="translate(-267.546875, -25.5)"><text style=""><tspan xml:space="preserve" dy="1em" x="0" class="row">The following events are not shown cause they can trigger from any state.</tspan><tspan xml:space="preserve" dy="1em" x="0" class="row"></tspan><tspan xml:space="preserve" dy="1em" x="0" class="row">ClientEventStreamCloseError - transitions state to StorageDealError</tspan><tspan xml:space="preserve" dy="1em" x="0" class="row">ClientEventRestart - does not transition state</tspan></text></g></g><g class="node default" id="root_end" transform="translate(2015.3671875, 1460.5)"><circle class="state-start" r="7" width="14" height="14"></circle><circle class="state-end" r="5" width="10" height="10"></circle></g></g></g></g></svg>