<svg id="mermaid-1596079845416" width="4444.05859375" xmlns="http://www.w3.org/2000/svg" class="statediagram" height="2096.5" viewBox="0 0 4444.05859375 2096.5"><style>#mermaid-1596079845416 .label{font-family:'trebuchet ms', verdana, arial;font-family:var(--mermaid-font-family);color:#333}#mermaid-1596079845416 .label text{fill:#333}#mermaid-1596079845416 .node rect,#mermaid-1596079845416 .node circle,#mermaid-1596079845416 .node ellipse,#mermaid-1596079845416 .node polygon,#mermaid-1596079845416 .node path{fill:#ECECFF;stroke:#9370db;stroke-width:1px}#mermaid-1596079845416 .node .label{text-align:center}#mermaid-1596079845416 .node.clickable{cursor:pointer}#mermaid-1596079845416 .arrowheadPath{fill:#333}#mermaid-1596079845416 .edgePath .path{stroke:#333;stroke-width:1.5px}#mermaid-1596079845416 .edgeLabel{background-color:#e8e8e8;text-align:center}#mermaid-1596079845416 .edgeLabel rect{opacity:0.5}#mermaid-1596079845416 .cluster rect{fill:#ffffde;stroke:#aa3;stroke-width:1px}#mermaid-1596079845416 .cluster text{fill:#333}#mermaid-1596079845416 div.mermaidTooltip{position:absolute;text-align:center;max-width:200px;padding:2px;font-family:'trebuchet ms', verdana, arial;font-family:var(--mermaid-font-family);font-size:12px;background:#ffffde;border:1px solid #aa3;border-radius:2px;pointer-events:none;z-index:100}#mermaid-1596079845416 .actor{stroke:#ccf;fill:#ECECFF}#mermaid-1596079845416 text.actor{fill:#000;stroke:none}#mermaid-1596079845416 .actor-line{stroke:grey}#mermaid-1596079845416 .messageLine0{stroke-width:1.5;stroke-dasharray:'2 2';stroke:#333}#mermaid-1596079845416 .messageLine1{stroke-width:1.5;stroke-dasharray:'2 2';stroke:#333}#mermaid-1596079845416 #arrowhead{fill:#333}#mermaid-1596079845416 .sequenceNumber{fill:#fff}#mermaid-1596079845416 #sequencenumber{fill:#333}#mermaid-1596079845416 #crosshead path{fill:#333 !important;stroke:#333 !important}#mermaid-1596079845416 .messageText{fill:#333;stroke:none}#mermaid-1596079845416 .labelBox{stroke:#ccf;fill:#ECECFF}#mermaid-1596079845416 .labelText{fill:#000;stroke:none}#mermaid-1596079845416 .loopText{fill:#000;stroke:none}#mermaid-1596079845416 .loopLine{stroke-width:2;stroke-dasharray:'2 2';stroke:#ccf}#mermaid-1596079845416 .note{stroke:#aa3;fill:#fff5ad}#mermaid-1596079845416 .noteText{fill:black;stroke:none;font-family:'trebuchet ms', verdana, arial;font-family:var(--mermaid-font-family);font-size:14px}#mermaid-1596079845416 .activation0{fill:#f4f4f4;stroke:#666}#mermaid-1596079845416 .activation1{fill:#f4f4f4;stroke:#666}#mermaid-1596079845416 .activation2{fill:#f4f4f4;stroke:#666}#mermaid-1596079845416 .mermaid-main-font{font-family:"trebuchet ms", verdana, arial;font-family:var(--mermaid-font-family)}#mermaid-1596079845416 .section{stroke:none;opacity:0.2}#mermaid-1596079845416 .section0{fill:rgba(102,102,255,0.49)}#mermaid-1596079845416 .section2{fill:#fff400}#mermaid-1596079845416 .section1,#mermaid-1596079845416 .section3{fill:#fff;opacity:0.2}#mermaid-1596079845416 .sectionTitle0{fill:#333}#mermaid-1596079845416 .sectionTitle1{fill:#333}#mermaid-1596079845416 .sectionTitle2{fill:#333}#mermaid-1596079845416 .sectionTitle3{fill:#333}#mermaid-1596079845416 .sectionTitle{text-anchor:start;font-size:11px;text-height:14px;font-family:'trebuchet ms', verdana, arial;font-family:var(--mermaid-font-family)}#mermaid-1596079845416 .grid .tick{stroke:#d3d3d3;opacity:0.8;shape-rendering:crispEdges}#mermaid-1596079845416 .grid .tick text{font-family:'trebuchet ms', verdana, arial;font-family:var(--mermaid-font-family)}#mermaid-1596079845416 .grid path{stroke-width:0}#mermaid-1596079845416 .today{fill:none;stroke:red;stroke-width:2px}#mermaid-1596079845416 .task{stroke-width:2}#mermaid-1596079845416 .taskText{text-anchor:middle;font-family:'trebuchet ms', verdana, arial;font-family:var(--mermaid-font-family)}#mermaid-1596079845416 .taskText:not([font-size]){font-size:11px}#mermaid-1596079845416 .taskTextOutsideRight{fill:#000;text-anchor:start;font-size:11px;font-family:'trebuchet ms', verdana, arial;font-family:var(--mermaid-font-family)}#mermaid-1596079845416 .taskTextOutsideLeft{fill:#000;text-anchor:end;font-size:11px}#mermaid-1596079845416 .task.clickable{cursor:pointer}#mermaid-1596079845416 .taskText.clickable{cursor:pointer;fill:#003163 !important;font-weight:bold}#mermaid-1596079845416 .taskTextOutsideLeft.clickable{cursor:pointer;fill:#003163 !important;font-weight:bold}#mermaid-1596079845416 .taskTextOutsideRight.clickable{cursor:pointer;fill:#003163 !important;font-weight:bold}#mermaid-1596079845416 .taskText0,#mermaid-1596079845416 .taskText1,#mermaid-1596079845416 .taskText2,#mermaid-1596079845416 .taskText3{fill:#fff}#mermaid-1596079845416 .task0,#mermaid-1596079845416 .task1,#mermaid-1596079845416 .task2,#mermaid-1596079845416 .task3{fill:#8a90dd;stroke:#534fbc}#mermaid-1596079845416 .taskTextOutside0,#mermaid-1596079845416 .taskTextOutside2{fill:#000}#mermaid-1596079845416 .taskTextOutside1,#mermaid-1596079845416 .taskTextOutside3{fill:#000}#mermaid-1596079845416 .active0,#mermaid-1596079845416 .active1,#mermaid-1596079845416 .active2,#mermaid-1596079845416 .active3{fill:#bfc7ff;stroke:#534fbc}#mermaid-1596079845416 .activeText0,#mermaid-1596079845416 .activeText1,#mermaid-1596079845416 .activeText2,#mermaid-1596079845416 .activeText3{fill:#000 !important}#mermaid-1596079845416 .done0,#mermaid-1596079845416 .done1,#mermaid-1596079845416 .done2,#mermaid-1596079845416 .done3{stroke:grey;fill:#d3d3d3;stroke-width:2}#mermaid-1596079845416 .doneText0,#mermaid-1596079845416 .doneText1,#mermaid-1596079845416 .doneText2,#mermaid-1596079845416 .doneText3{fill:#000 !important}#mermaid-1596079845416 .crit0,#mermaid-1596079845416 .crit1,#mermaid-1596079845416 .crit2,#mermaid-1596079845416 .crit3{stroke:#f88;fill:red;stroke-width:2}#mermaid-1596079845416 .activeCrit0,#mermaid-1596079845416 .activeCrit1,#mermaid-1596079845416 .activeCrit2,#mermaid-1596079845416 .activeCrit3{stroke:#f88;fill:#bfc7ff;stroke-width:2}#mermaid-1596079845416 .doneCrit0,#mermaid-1596079845416 .doneCrit1,#mermaid-1596079845416 .doneCrit2,#mermaid-1596079845416 .doneCrit3{stroke:#f88;fill:#d3d3d3;stroke-width:2;cursor:pointer;shape-rendering:crispEdges}#mermaid-1596079845416 .milestone{transform:rotate(45deg) scale(0.8, 0.8)}#mermaid-1596079845416 .milestoneText{font-style:italic}#mermaid-1596079845416 .doneCritText0,#mermaid-1596079845416 .doneCritText1,#mermaid-1596079845416 .doneCritText2,#mermaid-1596079845416 .doneCritText3{fill:#000 !important}#mermaid-1596079845416 .activeCritText0,#mermaid-1596079845416 .activeCritText1,#mermaid-1596079845416 .activeCritText2,#mermaid-1596079845416 .activeCritText3{fill:#000 !important}#mermaid-1596079845416 .titleText{text-anchor:middle;font-size:18px;fill:#000;font-family:'trebuchet ms', verdana, arial;font-family:var(--mermaid-font-family)}#mermaid-1596079845416 g.classGroup text{fill:#9370db;stroke:none;font-family:'trebuchet ms', verdana, arial;font-family:var(--mermaid-font-family);font-size:10px}#mermaid-1596079845416 g.classGroup text .title{font-weight:bolder}#mermaid-1596079845416 g.clickable{cursor:pointer}#mermaid-1596079845416 g.classGroup rect{fill:#ECECFF;stroke:#9370db}#mermaid-1596079845416 g.classGroup line{stroke:#9370db;stroke-width:1}#mermaid-1596079845416 .classLabel .box{stroke:none;stroke-width:0;fill:#ECECFF;opacity:0.5}#mermaid-1596079845416 .classLabel .label{fill:#9370db;font-size:10px}#mermaid-1596079845416 .relation{stroke:#9370db;stroke-width:1;fill:none}#mermaid-1596079845416 .dashed-line{stroke-dasharray:3}#mermaid-1596079845416 #compositionStart{fill:#9370db;stroke:#9370db;stroke-width:1}#mermaid-1596079845416 #compositionEnd{fill:#9370db;stroke:#9370db;stroke-width:1}#mermaid-1596079845416 #aggregationStart{fill:#ECECFF;stroke:#9370db;stroke-width:1}#mermaid-1596079845416 #aggregationEnd{fill:#ECECFF;stroke:#9370db;stroke-width:1}#mermaid-1596079845416 #dependencyStart{fill:#9370db;stroke:#9370db;stroke-width:1}#mermaid-1596079845416 #dependencyEnd{fill:#9370db;stroke:#9370db;stroke-width:1}#mermaid-1596079845416 #extensionStart{fill:#9370db;stroke:#9370db;stroke-width:1}#mermaid-1596079845416 #extensionEnd{fill:#9370db;stroke:#9370db;stroke-width:1}#mermaid-1596079845416 .commit-id,#mermaid-1596079845416 .commit-msg,#mermaid-1596079845416 .branch-label{fill:lightgrey;color:lightgrey;font-family:'trebuchet ms', verdana, arial;font-family:var(--mermaid-font-family)}#mermaid-1596079845416 .pieTitleText{text-anchor:middle;font-size:25px;fill:#000;font-family:'trebuchet ms', verdana, arial;font-family:var(--mermaid-font-family)}#mermaid-1596079845416 .slice{font-family:'trebuchet ms', verdana, arial;font-family:var(--mermaid-font-family)}#mermaid-1596079845416 g.stateGroup text{fill:#9370db;stroke:none;font-size:10px;font-family:'trebuchet ms', verdana, arial;font-family:var(--mermaid-font-family)}#mermaid-1596079845416 g.stateGroup text{fill:#9370db;stroke:none;font-size:10px}#mermaid-1596079845416 g.stateGroup .state-title{font-weight:bolder;fill:#000}#mermaid-1596079845416 g.stateGroup rect{fill:#ECECFF;stroke:#9370db}#mermaid-1596079845416 g.stateGroup line{stroke:#9370db;stroke-width:1}#mermaid-1596079845416 .transition{stroke:#9370db;stroke-width:1;fill:none}#mermaid-1596079845416 .stateGroup .composit{fill:white;border-bottom:1px}#mermaid-1596079845416 .stateGroup .alt-composit{fill:#e0e0e0;border-bottom:1px}#mermaid-1596079845416 .state-note{stroke:#aa3;fill:#fff5ad}#mermaid-1596079845416 .state-note text{fill:black;stroke:none;font-size:10px}#mermaid-1596079845416 .stateLabel .box{stroke:none;stroke-width:0;fill:#ECECFF;opacity:0.5}#mermaid-1596079845416 .stateLabel text{fill:#000;font-size:10px;font-weight:bold;font-family:'trebuchet ms', verdana, arial;font-family:var(--mermaid-font-family)}#mermaid-1596079845416 .node circle.state-start{fill:black;stroke:black}#mermaid-1596079845416 .node circle.state-end{fill:black;stroke:white;stroke-width:1.5}#mermaid-1596079845416 #statediagram-barbEnd{fill:#9370db}#mermaid-1596079845416 .statediagram-cluster rect{fill:#ECECFF;stroke:#9370db;stroke-width:1px}#mermaid-1596079845416 .statediagram-cluster rect.outer{rx:5px;ry:5px}#mermaid-1596079845416 .statediagram-state .divider{stroke:#9370db}#mermaid-1596079845416 .statediagram-state .title-state{rx:5px;ry:5px}#mermaid-1596079845416 .statediagram-cluster.statediagram-cluster .inner{fill:white}#mermaid-1596079845416 .statediagram-cluster.statediagram-cluster-alt .inner{fill:#e0e0e0}#mermaid-1596079845416 .statediagram-cluster .inner{rx:0;ry:0}#mermaid-1596079845416 .statediagram-state rect.basic{rx:5px;ry:5px}#mermaid-1596079845416 .statediagram-state rect.divider{stroke-dasharray:10,10;fill:#efefef}#mermaid-1596079845416 .note-edge{stroke-dasharray:5}#mermaid-1596079845416 .statediagram-note rect{fill:#fff5ad;stroke:#aa3;stroke-width:1px;rx:0;ry:0}:root{--mermaid-font-family: '"trebuchet ms", verdana, arial';--mermaid-font-family: "Comic Sans MS", "Comic Sans", cursive}

:root { --mermaid-font-family: "trebuchet ms", verdana, arial;}</style><style>#mermaid-1596079845416 {
    color: rgb(0, 0, 0);
    font: 16px "trebuchet ms", verdana, arial;
  }</style><g><defs><marker id="statediagram-barbEnd" refX="19" refY="7" markerWidth="20" markerHeight="14" markerUnits="0" orient="auto"><path d="M 19,7 L9,13 L14,7 L9,1 Z"></path></marker></defs><g class="root"><g class="clusters"><g class="note-cluster" id="0----parent"><rect x="8" y="72" width="620.09375" height="219" fill="none"></rect></g></g><g class="edgePaths"><path d="M318.046875,22L318.046875,26.166666666666668C318.046875,30.333333333333332,318.046875,38.666666666666664,318.046875,47C318.046875,55.333333333333336,318.046875,63.666666666666664,318.046875,72C318.046875,80.33333333333333,318.046875,88.66666666666667,318.046875,92.83333333333333L318.046875,97" id="edge0" class="transition" marker-end="url(#statediagram-barbEnd)"></path><path d="M318.046875,131L318.046875,136.75C318.046875,142.5,318.046875,154,318.046875,165.5C318.046875,177,318.046875,188.5,318.046875,194.25L318.046875,200" class="transition note-edge"></path><path d="M369.21966019417476,131L386.52810224514565,136.75C403.83654429611653,142.5,438.4534283980583,154,779.4311412823623,170.27115704407106C1120.4088541666667,186.54231408814212,1767.7473958333333,207.58462817628424,2091.4166666666665,218.1057852203553L2415.0859375,228.62694226442636" id="edge1" class="transition" marker-end="url(#statediagram-barbEnd)"></path><path d="M2415.0859375,237.1034532344543L2120.5872395833335,246.08621102871192C1826.0885416666667,255.0689688229695,1237.0911458333333,273.03448441148475,942.5924479166666,287.7672422057424C648.09375,302.5,648.09375,314,648.09375,330.5416666666667C648.09375,347.0833333333333,648.09375,368.6666666666667,648.09375,390.25C648.09375,411.8333333333333,648.09375,433.4166666666667,648.09375,452.7916666666667C648.09375,472.1666666666667,648.09375,489.3333333333333,648.09375,506.5C648.09375,523.6666666666666,648.09375,540.8333333333334,648.09375,558C648.09375,575.1666666666666,648.09375,592.3333333333334,648.09375,609.5C648.09375,626.6666666666666,648.09375,643.8333333333334,648.09375,663.2083333333334C648.09375,682.5833333333334,648.09375,704.1666666666666,648.09375,725.75C648.09375,747.3333333333334,648.09375,768.9166666666666,648.09375,790.5C648.09375,812.0833333333334,648.09375,833.6666666666666,648.09375,855.25C648.09375,876.8333333333334,648.09375,898.4166666666666,648.09375,920C648.09375,941.5833333333334,648.09375,963.1666666666666,648.09375,984.75C648.09375,1006.3333333333334,648.09375,1027.9166666666667,648.09375,1049.5C648.09375,1071.0833333333333,648.09375,1092.6666666666667,648.09375,1114.25C648.09375,1135.8333333333333,648.09375,1157.4166666666667,648.09375,1179C648.09375,1200.5833333333333,648.09375,1222.1666666666667,648.09375,1243.75C648.09375,1265.3333333333333,648.09375,1286.9166666666667,648.09375,1308.5C648.09375,1330.0833333333333,648.09375,1351.6666666666667,648.09375,1373.25C648.09375,1394.8333333333333,648.09375,1416.4166666666667,648.09375,1438C648.09375,1459.5833333333333,648.09375,1481.1666666666667,648.09375,1502.75C648.09375,1524.3333333333333,648.09375,1545.9166666666667,648.09375,1567.5C648.09375,1589.0833333333333,648.09375,1610.6666666666667,648.09375,1632.25C648.09375,1653.8333333333333,648.09375,1675.4166666666667,653.3421513030888,1691.9583333333333C658.5905526061775,1708.5,669.0873552123552,1720,674.335756515444,1725.75L679.5841578185328,1731.5" id="edge2" class="transition" marker-end="url(#statediagram-barbEnd)"></path><path d="M2426.5625,394.81406684925133L2156.1106770833335,404.84505570770943C1885.6588541666667,414.87604456616754,1344.7552083333333,434.93802228308374,1074.3033854166667,453.55234447487527C803.8515625,472.1666666666667,803.8515625,489.3333333333333,803.8515625,506.5C803.8515625,523.6666666666666,803.8515625,540.8333333333334,803.8515625,558C803.8515625,575.1666666666666,803.8515625,592.3333333333334,803.8515625,609.5C803.8515625,626.6666666666666,803.8515625,643.8333333333334,803.8515625,663.2083333333334C803.8515625,682.5833333333334,803.8515625,704.1666666666666,803.8515625,725.75C803.8515625,747.3333333333334,803.8515625,768.9166666666666,803.8515625,790.5C803.8515625,812.0833333333334,803.8515625,833.6666666666666,803.8515625,855.25C803.8515625,876.8333333333334,803.8515625,898.4166666666666,803.8515625,920C803.8515625,941.5833333333334,803.8515625,963.1666666666666,803.8515625,984.75C803.8515625,1006.3333333333334,803.8515625,1027.9166666666667,803.8515625,1049.5C803.8515625,1071.0833333333333,803.8515625,1092.6666666666667,803.8515625,1114.25C803.8515625,1135.8333333333333,803.8515625,1157.4166666666667,803.8515625,1179C803.8515625,1200.5833333333333,803.8515625,1222.1666666666667,803.8515625,1243.75C803.8515625,1265.3333333333333,803.8515625,1286.9166666666667,803.8515625,1308.5C803.8515625,1330.0833333333333,803.8515625,1351.6666666666667,803.8515625,1373.25C803.8515625,1394.8333333333333,803.8515625,1416.4166666666667,803.8515625,1438C803.8515625,1459.5833333333333,803.8515625,1481.1666666666667,803.8515625,1502.75C803.8515625,1524.3333333333333,803.8515625,1545.9166666666667,803.8515625,1567.5C803.8515625,1589.0833333333333,803.8515625,1610.6666666666667,803.8515625,1632.25C803.8515625,1653.8333333333333,803.8515625,1675.4166666666667,795.2681889478764,1691.9583333333333C786.6848153957529,1708.5,769.5180682915058,1720,760.9346947393823,1725.75L752.3513211872587,1731.5" id="edge3" class="transition" marker-end="url(#statediagram-barbEnd)"></path><path d="M1275.1944377413126,756L1261.8365106177605,761.75C1248.4785834942084,767.5,1221.7627292471043,779,1208.4048021235521,795.5416666666666C1195.046875,812.0833333333334,1195.046875,833.6666666666666,1195.046875,855.25C1195.046875,876.8333333333334,1195.046875,898.4166666666666,1195.046875,920C1195.046875,941.5833333333334,1195.046875,963.1666666666666,1195.046875,984.75C1195.046875,1006.3333333333334,1195.046875,1027.9166666666667,1195.046875,1049.5C1195.046875,1071.0833333333333,1195.046875,1092.6666666666667,1195.046875,1114.25C1195.046875,1135.8333333333333,1195.046875,1157.4166666666667,1195.046875,1179C1195.046875,1200.5833333333333,1195.046875,1222.1666666666667,1195.046875,1243.75C1195.046875,1265.3333333333333,1195.046875,1286.9166666666667,1195.046875,1308.5C1195.046875,1330.0833333333333,1195.046875,1351.6666666666667,1195.046875,1373.25C1195.046875,1394.8333333333333,1195.046875,1416.4166666666667,1195.046875,1438C1195.046875,1459.5833333333333,1195.046875,1481.1666666666667,1195.046875,1502.75C1195.046875,1524.3333333333333,1195.046875,1545.9166666666667,1195.046875,1567.5C1195.046875,1589.0833333333333,1195.046875,1610.6666666666667,1195.046875,1632.25C1195.046875,1653.8333333333333,1195.046875,1675.4166666666667,1130.04296875,1694.8359636480102C1065.0390625,1714.2552606293539,935.03125,1731.5105212587077,870.02734375,1740.1381515733847L805.0234375,1748.7657818880614" id="edge4" class="transition" marker-end="url(#statediagram-barbEnd)"></path><path d="M609.3671875,1787.8997613365154L585.2994791666666,1794.3331344470962C561.2317708333334,1800.766507557677,513.0963541666666,1813.6332537788385,774.783203125,1830.334733999269C1036.4700520833333,1847.0362142196998,1607.9791666666667,1867.5724284393998,1893.7337239583333,1877.8405355492496L2179.48828125,1888.1086426590996" id="edge5" class="transition" marker-end="url(#statediagram-barbEnd)"></path><path d="M2549.6171875,263.25L2549.6171875,267.875C2549.6171875,272.5,2549.6171875,281.75,2549.6171875,292.125C2549.6171875,302.5,2549.6171875,314,2549.6171875,325.5C2549.6171875,337,2549.6171875,348.5,2549.6171875,354.25L2549.6171875,360" id="edge6" class="transition" marker-end="url(#statediagram-barbEnd)"></path><path d="M2426.5625,399.8883506041233L2309.2923177083335,409.07362550343606C2192.0221354166665,418.25890040274885,1957.4817708333333,436.6294502013745,1840.2115885416667,451.5647251006872C1722.94140625,466.5,1722.94140625,478,1722.94140625,483.75L1722.94140625,489.5" id="edge7" class="transition" marker-end="url(#statediagram-barbEnd)"></path><path d="M1162.79296875,625.7364133635186L1128.7272135416667,631.6136778029322C1094.6614583333333,637.4909422423458,1026.5299479166667,649.245471121173,992.4641927083334,665.9144022272532C958.3984375,682.5833333333334,958.3984375,704.1666666666666,958.3984375,725.75C958.3984375,747.3333333333334,958.3984375,768.9166666666666,958.3984375,790.5C958.3984375,812.0833333333334,958.3984375,833.6666666666666,958.3984375,855.25C958.3984375,876.8333333333334,958.3984375,898.4166666666666,958.3984375,920C958.3984375,941.5833333333334,958.3984375,963.1666666666666,958.3984375,984.75C958.3984375,1006.3333333333334,958.3984375,1027.9166666666667,958.3984375,1049.5C958.3984375,1071.0833333333333,958.3984375,1092.6666666666667,958.3984375,1114.25C958.3984375,1135.8333333333333,958.3984375,1157.4166666666667,958.3984375,1179C958.3984375,1200.5833333333333,958.3984375,1222.1666666666667,958.3984375,1243.75C958.3984375,1265.3333333333333,958.3984375,1286.9166666666667,958.3984375,1308.5C958.3984375,1330.0833333333333,958.3984375,1351.6666666666667,958.3984375,1373.25C958.3984375,1394.8333333333333,958.3984375,1416.4166666666667,958.3984375,1438C958.3984375,1459.5833333333333,958.3984375,1481.1666666666667,958.3984375,1502.75C958.3984375,1524.3333333333333,958.3984375,1545.9166666666667,958.3984375,1567.5C958.3984375,1589.0833333333333,958.3984375,1610.6666666666667,958.3984375,1632.25C958.3984375,1653.8333333333333,958.3984375,1675.4166666666667,958.3984375,1697C958.3984375,1718.5833333333333,958.3984375,1740.1666666666667,958.3984375,1761.75C958.3984375,1783.3333333333333,958.3984375,1804.9166666666667,1161.9134114583333,1825.7790070422325C1365.4283854166667,1846.6413474177982,1772.4583333333333,1866.7826948355967,1975.9733072916667,1876.8533685444957L2179.48828125,1886.924042253395" id="edge8" class="transition" marker-end="url(#statediagram-barbEnd)"></path><path d="M1617.37890625,518.1652641107739L1557.2994791666667,524.8043867589782C1497.2200520833333,531.4435094071827,1377.0611979166667,544.7217547035913,1316.9817708333333,557.1108773517957C1256.90234375,569.5,1256.90234375,581,1256.90234375,586.75L1256.90234375,592.5" id="edge9" class="transition" marker-end="url(#statediagram-barbEnd)"></path><path d="M1286.1378564927184,626.5L1296.026338743932,632.25C1305.9148209951456,638,1325.6917854975727,649.5,1335.5802677487864,661C1345.46875,672.5,1345.46875,684,1345.46875,689.75L1345.46875,695.5" id="edge10" class="transition" marker-end="url(#statediagram-barbEnd)"></path><path d="M1345.46875,756L1345.46875,761.75C1345.46875,767.5,1345.46875,779,1345.46875,795.5416666666666C1345.46875,812.0833333333334,1345.46875,833.6666666666666,1345.46875,855.25C1345.46875,876.8333333333334,1345.46875,898.4166666666666,1345.46875,920C1345.46875,941.5833333333334,1345.46875,963.1666666666666,1345.46875,984.75C1345.46875,1006.3333333333334,1345.46875,1027.9166666666667,1345.46875,1049.5C1345.46875,1071.0833333333333,1345.46875,1092.6666666666667,1345.46875,1114.25C1345.46875,1135.8333333333333,1345.46875,1157.4166666666667,1345.46875,1179C1345.46875,1200.5833333333333,1345.46875,1222.1666666666667,1345.46875,1243.75C1345.46875,1265.3333333333333,1345.46875,1286.9166666666667,1345.46875,1308.5C1345.46875,1330.0833333333333,1345.46875,1351.6666666666667,1345.46875,1373.25C1345.46875,1394.8333333333333,1345.46875,1416.4166666666667,1345.46875,1438C1345.46875,1459.5833333333333,1345.46875,1481.1666666666667,1345.46875,1502.75C1345.46875,1524.3333333333333,1345.46875,1545.9166666666667,1345.46875,1567.5C1345.46875,1589.0833333333333,1345.46875,1610.6666666666667,1345.46875,1632.25C1345.46875,1653.8333333333333,1345.46875,1675.4166666666667,1345.46875,1697C1345.46875,1718.5833333333333,1345.46875,1740.1666666666667,1345.46875,1761.75C1345.46875,1783.3333333333333,1345.46875,1804.9166666666667,1484.4720052083333,1825.4761392010648C1623.4752604166667,1846.0356117354631,1901.4817708333333,1865.5712234709263,2040.4850260416667,1875.3390293386576L2179.48828125,1885.1068352063894" id="edge11" class="transition" marker-end="url(#statediagram-barbEnd)"></path><path d="M1828.50390625,508.9416292545829L2182.005859375,517.1180243788191C2535.5078125,525.2944195030553,3242.51171875,541.6472097515276,3596.013671875,558.4069382090971C3949.515625,575.1666666666666,3949.515625,592.3333333333334,3949.515625,609.5C3949.515625,626.6666666666666,3949.515625,643.8333333333334,3949.515625,663.2083333333334C3949.515625,682.5833333333334,3949.515625,704.1666666666666,3949.515625,725.75C3949.515625,747.3333333333334,3949.515625,768.9166666666666,3810.64453125,789.0153669965875C3671.7734375,809.1140673265085,3394.03125,827.728134653017,3255.16015625,837.0351683162712L3116.2890625,846.3422019795255" id="edge12" class="transition" marker-end="url(#statediagram-barbEnd)"></path><path d="M1441.8515625,744.8233557776107L1480.3209635416667,752.4361298146756C1518.7903645833333,760.0489038517404,1595.7291666666667,775.2744519258703,1830.4973958333333,792.5845487193196C2065.265625,809.8946455127689,2457.86328125,829.2892910255378,2654.162109375,838.9866137819222L2850.4609375,848.6839365383067" id="edge13" class="transition" marker-end="url(#statediagram-barbEnd)"></path><path d="M2850.4609375,861.0343038672582L2624.6380208333335,870.861919889382C2398.8151041666665,880.6895359115055,1947.1692708333333,900.3447679557527,1721.3463541666667,915.9223839778764C1495.5234375,931.5,1495.5234375,943,1495.5234375,948.75L1495.5234375,954.5" id="edge14" class="transition" marker-end="url(#statediagram-barbEnd)"></path><path d="M3116.2890625,866.2929727833191L3224.0260416666665,875.2441439860992C3331.7630208333335,884.1953151888794,3547.2369791666665,902.0976575944396,3654.9739583333335,921.8404954638864C3762.7109375,941.5833333333334,3762.7109375,963.1666666666666,3762.7109375,984.75C3762.7109375,1006.3333333333334,3762.7109375,1027.9166666666667,3485.650390625,1048.888155751059C3208.58984375,1069.8596448354513,2654.46875,1090.2192896709025,2377.408203125,1100.3991120886283L2100.34765625,1110.5789345063538" id="edge15" class="transition" marker-end="url(#statediagram-barbEnd)"></path><path d="M1495.5234375,1015L1495.5234375,1020.75C1495.5234375,1026.5,1495.5234375,1038,1563.0227864583333,1052.4061594987763C1630.5221354166667,1066.8123189975527,1765.5208333333333,1084.1246379951053,1833.0201822916667,1092.7807974938817L1900.51953125,1101.436956992658" id="edge16" class="transition" marker-end="url(#statediagram-barbEnd)"></path><path d="M2000.43359375,1144.5L2000.43359375,1150.25C2000.43359375,1156,2000.43359375,1167.5,2000.43359375,1179C2000.43359375,1190.5,2000.43359375,1202,2000.43359375,1207.75L2000.43359375,1213.5" id="edge17" class="transition" marker-end="url(#statediagram-barbEnd)"></path><path d="M1888.27734375,1258.1434563303733L1822.8795572916667,1266.5362136086444C1757.4817708333333,1274.9289708869155,1626.6861979166667,1291.7144854434578,1561.2884114583333,1310.8989093883956C1495.890625,1330.0833333333333,1495.890625,1351.6666666666667,1495.890625,1373.25C1495.890625,1394.8333333333333,1495.890625,1416.4166666666667,1495.890625,1438C1495.890625,1459.5833333333333,1495.890625,1481.1666666666667,1495.890625,1502.75C1495.890625,1524.3333333333333,1495.890625,1545.9166666666667,1495.890625,1567.5C1495.890625,1589.0833333333333,1495.890625,1610.6666666666667,1495.890625,1632.25C1495.890625,1653.8333333333333,1495.890625,1675.4166666666667,1495.890625,1697C1495.890625,1718.5833333333333,1495.890625,1740.1666666666667,1495.890625,1761.75C1495.890625,1783.3333333333333,1495.890625,1804.9166666666667,1609.8235677083333,1825.276389318121C1723.7565104166667,1845.6361119695748,1951.6223958333333,1864.7722239391496,2065.5553385416665,1874.3402799239373L2179.48828125,1883.9083359087247" id="edge18" class="transition" marker-end="url(#statediagram-barbEnd)"></path><path d="M707.1953125,1792L707.1953125,1797.75C707.1953125,1803.5,707.1953125,1815,952.5774739583334,1830.9367947324438C1197.9596354166667,1846.8735894648878,1688.7239583333333,1867.2471789297754,1934.1061197916667,1877.4339736622194L2179.48828125,1887.6207683946634" id="edge19" class="transition" marker-end="url(#statediagram-barbEnd)"></path><path d="M2672.671875,395.3171968818083L2914.2337239583335,405.26433073484026C3155.7955729166665,415.2114645878722,3638.9192708333335,435.1057322939361,3880.4811197916665,453.6361994803014C4122.04296875,472.1666666666667,4122.04296875,489.3333333333333,4122.04296875,506.5C4122.04296875,523.6666666666666,4122.04296875,540.8333333333334,4122.04296875,558C4122.04296875,575.1666666666666,4122.04296875,592.3333333333334,4122.04296875,609.5C4122.04296875,626.6666666666666,4122.04296875,643.8333333333334,4122.04296875,663.2083333333334C4122.04296875,682.5833333333334,4122.04296875,704.1666666666666,4122.04296875,725.75C4122.04296875,747.3333333333334,4122.04296875,768.9166666666666,4122.04296875,790.5C4122.04296875,812.0833333333334,4122.04296875,833.6666666666666,4122.04296875,855.25C4122.04296875,876.8333333333334,4122.04296875,898.4166666666666,4122.04296875,920C4122.04296875,941.5833333333334,4122.04296875,963.1666666666666,4122.04296875,984.75C4122.04296875,1006.3333333333334,4122.04296875,1027.9166666666667,4122.04296875,1049.5C4122.04296875,1071.0833333333333,4122.04296875,1092.6666666666667,4122.04296875,1114.25C4122.04296875,1135.8333333333333,4122.04296875,1157.4166666666667,4122.04296875,1179C4122.04296875,1200.5833333333333,4122.04296875,1222.1666666666667,4122.04296875,1243.75C4122.04296875,1265.3333333333333,4122.04296875,1286.9166666666667,4122.04296875,1308.5C4122.04296875,1330.0833333333333,4122.04296875,1351.6666666666667,4122.04296875,1373.25C4122.04296875,1394.8333333333333,4122.04296875,1416.4166666666667,4122.04296875,1438C4122.04296875,1459.5833333333333,4122.04296875,1481.1666666666667,4122.04296875,1502.75C4122.04296875,1524.3333333333333,4122.04296875,1545.9166666666667,4122.04296875,1567.5C4122.04296875,1589.0833333333333,4122.04296875,1610.6666666666667,4122.04296875,1632.25C4122.04296875,1653.8333333333333,4122.04296875,1675.4166666666667,4122.04296875,1697C4122.04296875,1718.5833333333333,4122.04296875,1740.1666666666667,4122.04296875,1761.75C4122.04296875,1783.3333333333333,4122.04296875,1804.9166666666667,3827.4244791666665,1825.991450030953C3532.8059895833335,1847.0662333952394,2943.5690104166665,1867.6324667904785,2648.9505208333335,1877.9155834880983L2354.33203125,1888.1987001857178" id="edge20" class="transition" marker-end="url(#statediagram-barbEnd)"></path><path d="M2032.6344413610038,1274L2038.7552636341698,1279.75C2044.8760859073361,1285.5,2057.117730453668,1297,2063.238552726834,1308.5C2069.359375,1320,2069.359375,1331.5,2069.359375,1337.25L2069.359375,1343" id="edge21" class="transition" marker-end="url(#statediagram-barbEnd)"></path><path d="M1966.5078125,1388.2462836233133L1909.6354166666667,1396.5385696860947C1852.7630208333333,1404.8308557488756,1739.0182291666667,1421.415427874438,1682.1458333333333,1440.4993806038856C1625.2734375,1459.5833333333333,1625.2734375,1481.1666666666667,1625.2734375,1502.75C1625.2734375,1524.3333333333333,1625.2734375,1545.9166666666667,1625.2734375,1567.5C1625.2734375,1589.0833333333333,1625.2734375,1610.6666666666667,1625.2734375,1632.25C1625.2734375,1653.8333333333333,1625.2734375,1675.4166666666667,1625.2734375,1697C1625.2734375,1718.5833333333333,1625.2734375,1740.1666666666667,1625.2734375,1761.75C1625.2734375,1783.3333333333333,1625.2734375,1804.9166666666667,1717.642578125,1825.0296543872785C1810.01171875,1845.1426421078904,1994.75,1863.785284215781,2087.119140625,1873.1066052697263L2179.48828125,1882.4279263236717" id="edge22" class="transition" marker-end="url(#statediagram-barbEnd)"></path><path d="M2492.03515625,1525.5182532469591L2452.091796875,1532.5152110391325C2412.1484375,1539.5121688313059,2332.26171875,1553.506084415653,2292.318359375,1571.2947088744932C2252.375,1589.0833333333333,2252.375,1610.6666666666667,2252.375,1632.25C2252.375,1653.8333333333333,2252.375,1675.4166666666667,2252.375,1697C2252.375,1718.5833333333333,2252.375,1740.1666666666667,2252.375,1761.75C2252.375,1783.3333333333333,2252.375,1804.9166666666667,2253.6657667712357,1821.4583333333333C2254.956533542471,1838,2257.538067084942,1849.5,2258.8288338561774,1855.25L2260.119600627413,1861" id="edge23" class="transition" marker-end="url(#statediagram-barbEnd)"></path><path d="M3525.22265625,1790.069932360016L3494.4635416666665,1796.1416103000136C3463.7044270833335,1802.2132882400108,3402.1861979166665,1814.3566441200055,3207.0377604166665,1830.3413662632122C3011.8893229166665,1846.3260884064193,2683.1106770833335,1866.1521768128387,2518.7213541666665,1876.065221016048L2354.33203125,1885.9782652192578" id="edge24" class="transition" marker-end="url(#statediagram-barbEnd)"></path><path d="M1974.8025760135135,1403.5L1956.8289695945948,1409.25C1938.8553631756756,1415,1902.9081503378377,1426.5,1884.934543918919,1443.0416666666667C1866.9609375,1459.5833333333333,1866.9609375,1481.1666666666667,1866.9609375,1502.75C1866.9609375,1524.3333333333333,1866.9609375,1545.9166666666667,1866.9609375,1567.5C1866.9609375,1589.0833333333333,1866.9609375,1610.6666666666667,1866.9609375,1632.25C1866.9609375,1653.8333333333333,1866.9609375,1675.4166666666667,1866.9609375,1697C1866.9609375,1718.5833333333333,1866.9609375,1740.1666666666667,1866.9609375,1761.75C1866.9609375,1783.3333333333333,1866.9609375,1804.9166666666667,1919.048828125,1824.1411311982965C1971.13671875,1843.3655957299268,2075.3125,1860.2311914598533,2127.400390625,1868.6639893248166L2179.48828125,1877.09678718978" id="edge25" class="transition" marker-end="url(#statediagram-barbEnd)"></path><path d="M2091.1964587355214,1403.5L2095.3473093629345,1409.25C2099.4981599903476,1415,2107.799861245174,1426.5,2111.950711872587,1443.0416666666667C2116.1015625,1459.5833333333333,2116.1015625,1481.1666666666667,2116.1015625,1502.75C2116.1015625,1524.3333333333333,2116.1015625,1545.9166666666667,2116.1015625,1567.5C2116.1015625,1589.0833333333333,2116.1015625,1610.6666666666667,2116.1015625,1632.25C2116.1015625,1653.8333333333333,2116.1015625,1675.4166666666667,2116.1015625,1697C2116.1015625,1718.5833333333333,2116.1015625,1740.1666666666667,2116.1015625,1761.75C2116.1015625,1783.3333333333333,2116.1015625,1804.9166666666667,2129.49383144305,1821.4583333333333C2142.8861003861,1838,2169.670638272201,1849.5,2183.062907215251,1855.25L2196.455176158301,1861" id="edge26" class="transition" marker-end="url(#statediagram-barbEnd)"></path><path d="M2172.2109375,1385.3003219559087L2247.177734375,1394.0836016299238C2322.14453125,1402.8668813039392,2472.078125,1420.4334406519695,2547.044921875,1434.9667203259849C2622.01171875,1449.5,2622.01171875,1461,2622.01171875,1466.75L2622.01171875,1472.5" id="edge27" class="transition" marker-end="url(#statediagram-barbEnd)"></path><path d="M2567.5175555019305,1533L2557.159160834942,1538.75C2546.8007661679535,1544.5,2526.083976833977,1556,2515.7255821669883,1572.5416666666667C2505.3671875,1589.0833333333333,2505.3671875,1610.6666666666667,2505.3671875,1632.25C2505.3671875,1653.8333333333333,2505.3671875,1675.4166666666667,2505.3671875,1697C2505.3671875,1718.5833333333333,2505.3671875,1740.1666666666667,2505.3671875,1761.75C2505.3671875,1783.3333333333333,2505.3671875,1804.9166666666667,2480.1946614583335,1822.5436153657138C2455.0221354166665,1840.1705640647608,2404.6770833333335,1853.8411281295218,2379.5045572916665,1860.6764101619021L2354.33203125,1867.511692194283" id="edge28" class="transition" marker-end="url(#statediagram-barbEnd)"></path><path d="M2751.98828125,1519.1473080757726L2815.8678385416665,1527.2060900631438C2879.7473958333335,1535.264872050515,3007.5065104166665,1551.3824360252574,3071.3860677083335,1565.1912180126285C3135.265625,1579,3135.265625,1590.5,3135.265625,1596.25L3135.265625,1602" id="edge29" class="transition" marker-end="url(#statediagram-barbEnd)"></path><path d="M3018.6015625,1647.8019558329179L2957.0911458333335,1656.001629860765C2895.5807291666665,1664.2013038886118,2772.5598958333335,1680.600651944306,2711.0494791666665,1699.5919926388196C2649.5390625,1718.5833333333333,2649.5390625,1740.1666666666667,2649.5390625,1761.75C2649.5390625,1783.3333333333333,2649.5390625,1804.9166666666667,2600.337890625,1824.034353210213C2551.13671875,1843.1520397537595,2452.734375,1859.8040795075187,2403.533203125,1868.1300993843986L2354.33203125,1876.4561192612784" id="edge30" class="transition" marker-end="url(#statediagram-barbEnd)"></path><path d="M3030.9783120173747,1662.5L3011.1551037644786,1668.25C2991.331895511583,1674,2951.6854790057914,1685.5,2931.8622707528957,1702.0416666666667C2912.0390625,1718.5833333333333,2912.0390625,1740.1666666666667,2912.0390625,1761.75C2912.0390625,1783.3333333333333,2912.0390625,1804.9166666666667,2819.087890625,1825.0376136067769C2726.13671875,1845.158560546887,2540.234375,1863.8171210937737,2447.283203125,1873.1464013672173L2354.33203125,1882.4756816406605" id="edge31" class="transition" marker-end="url(#statediagram-barbEnd)"></path><path d="M3159.6466578185327,1662.5L3164.281069015444,1668.25C3168.9154802123553,1674,3178.1843026061774,1685.5,3182.8187138030885,1702.0416666666667C3187.453125,1718.5833333333333,3187.453125,1740.1666666666667,3187.453125,1761.75C3187.453125,1783.3333333333333,3187.453125,1804.9166666666667,3048.599609375,1825.4751399267586C2909.74609375,1846.0336131868505,2632.0390625,1865.5672263737008,2493.185546875,1875.3340329671262L2354.33203125,1885.1008395605515" id="edge32" class="transition" marker-end="url(#statediagram-barbEnd)"></path><path d="M3251.9296875,1646.4112916218137L3321.3899739583335,1654.8427430181782C3390.8502604166665,1663.2741944145425,3529.7708333333335,1680.1370972072712,3599.2311197916665,1694.3185486036357C3668.69140625,1708.5,3668.69140625,1720,3668.69140625,1725.75L3668.69140625,1731.5" id="edge33" class="transition" marker-end="url(#statediagram-barbEnd)"></path><path d="M3595.8037976592664,1792L3581.949128257722,1797.75C3568.0944588561774,1803.5,3540.3851200530885,1815,3526.5304506515445,1831.5416666666667C3512.67578125,1848.0833333333333,3512.67578125,1869.6666666666667,3512.67578125,1891.25C3512.67578125,1912.8333333333333,3512.67578125,1934.4166666666667,3493.6380650788833,1950.9583333333333C3474.600348907767,1967.5,3436.5249165655346,1979,3417.487200394418,1984.75L3398.449484223301,1990.5" id="edge34" class="transition" marker-end="url(#statediagram-barbEnd)"></path><path d="M3691.8898859797296,1792L3696.299514358108,1797.75C3700.7091427364867,1803.5,3709.5283994932433,1815,3713.9380278716217,1831.5416666666667C3718.34765625,1848.0833333333333,3718.34765625,1869.6666666666667,3718.34765625,1891.25C3718.34765625,1912.8333333333333,3718.34765625,1934.4166666666667,3699.3099400788833,1950.9583333333333C3680.272223907767,1967.5,3642.1967915655346,1979,3623.159075394418,1984.75L3604.121359223301,1990.5" id="edge35" class="transition" marker-end="url(#statediagram-barbEnd)"></path><path d="M3804.812756394788,1792L3830.6870626206564,1797.75C3856.561368846525,1803.5,3908.3099812982623,1815,3934.1842875241314,1831.5416666666667C3960.05859375,1848.0833333333333,3960.05859375,1869.6666666666667,3960.05859375,1891.25C3960.05859375,1912.8333333333333,3960.05859375,1934.4166666666667,3963.3501023968442,1950.9583333333333C3966.6416110436894,1967.5,3973.224628337379,1979,3976.516136984223,1984.75L3979.8076456310678,1990.5" id="edge36" class="transition" marker-end="url(#statediagram-barbEnd)"></path><path d="M2266.91015625,1921.5L2266.91015625,1927.25C2266.91015625,1933,2266.91015625,1944.5,2542.6412760416665,1958.4933033706504C2818.3723958333335,1972.4866067413013,3369.8346354166665,1988.9732134826027,3645.5657552083335,1997.216516853253L3921.296875,2005.4598202239038" id="edge37" class="transition" marker-end="url(#statediagram-barbEnd)"></path><path d="M773.5277811293436,1792L786.1364321911196,1797.75C798.7450832528957,1803.5,823.9623853764479,1815,836.5710364382239,1831.5416666666667C849.1796875,1848.0833333333333,849.1796875,1869.6666666666667,849.1796875,1891.25C849.1796875,1912.8333333333333,849.1796875,1934.4166666666667,1361.19921875,1953.6051448795836C1873.21875,1972.7936230925004,2897.2578125,1989.5872461850006,3409.27734375,1997.984057731251L3921.296875,2006.380869277501" id="edge38" class="transition" marker-end="url(#statediagram-barbEnd)"></path><path d="M2684.1484375,237.3099322716298L2963.4641927083335,246.25827689302483C3242.7799479166665,255.20662151441988,3801.4114583333335,273.10331075720995,4080.7272135416665,287.80165537860495C4360.04296875,302.5,4360.04296875,314,4360.04296875,330.5416666666667C4360.04296875,347.0833333333333,4360.04296875,368.6666666666667,4360.04296875,390.25C4360.04296875,411.8333333333333,4360.04296875,433.4166666666667,4360.04296875,452.7916666666667C4360.04296875,472.1666666666667,4360.04296875,489.3333333333333,4360.04296875,506.5C4360.04296875,523.6666666666666,4360.04296875,540.8333333333334,4360.04296875,558C4360.04296875,575.1666666666666,4360.04296875,592.3333333333334,4360.04296875,609.5C4360.04296875,626.6666666666666,4360.04296875,643.8333333333334,4360.04296875,663.2083333333334C4360.04296875,682.5833333333334,4360.04296875,704.1666666666666,4360.04296875,725.75C4360.04296875,747.3333333333334,4360.04296875,768.9166666666666,4360.04296875,790.5C4360.04296875,812.0833333333334,4360.04296875,833.6666666666666,4360.04296875,855.25C4360.04296875,876.8333333333334,4360.04296875,898.4166666666666,4360.04296875,920C4360.04296875,941.5833333333334,4360.04296875,963.1666666666666,4360.04296875,984.75C4360.04296875,1006.3333333333334,4360.04296875,1027.9166666666667,4360.04296875,1049.5C4360.04296875,1071.0833333333333,4360.04296875,1092.6666666666667,4360.04296875,1114.25C4360.04296875,1135.8333333333333,4360.04296875,1157.4166666666667,4360.04296875,1179C4360.04296875,1200.5833333333333,4360.04296875,1222.1666666666667,4360.04296875,1243.75C4360.04296875,1265.3333333333333,4360.04296875,1286.9166666666667,4360.04296875,1308.5C4360.04296875,1330.0833333333333,4360.04296875,1351.6666666666667,4360.04296875,1373.25C4360.04296875,1394.8333333333333,4360.04296875,1416.4166666666667,4360.04296875,1438C4360.04296875,1459.5833333333333,4360.04296875,1481.1666666666667,4360.04296875,1502.75C4360.04296875,1524.3333333333333,4360.04296875,1545.9166666666667,4360.04296875,1567.5C4360.04296875,1589.0833333333333,4360.04296875,1610.6666666666667,4360.04296875,1632.25C4360.04296875,1653.8333333333333,4360.04296875,1675.4166666666667,4360.04296875,1697C4360.04296875,1718.5833333333333,4360.04296875,1740.1666666666667,4360.04296875,1761.75C4360.04296875,1783.3333333333333,4360.04296875,1804.9166666666667,4360.04296875,1826.5C4360.04296875,1848.0833333333333,4360.04296875,1869.6666666666667,4360.04296875,1891.25C4360.04296875,1912.8333333333333,4360.04296875,1934.4166666666667,4309.666015625,1952.210723975301C4259.2890625,1970.0047812839355,4158.53515625,1984.0095625678712,4108.158203125,1991.0119532098388L4057.78125,1998.0143438518066" id="edge39" class="transition" marker-end="url(#statediagram-barbEnd)"></path><path d="M2672.671875,394.89754072214157L2937.8977864583335,404.9146172684513C3203.1236979166665,414.93169381476105,3733.5755208333335,434.96584690738047,3998.8014322916665,453.5662567870236C4264.02734375,472.1666666666667,4264.02734375,489.3333333333333,4264.02734375,506.5C4264.02734375,523.6666666666666,4264.02734375,540.8333333333334,4264.02734375,558C4264.02734375,575.1666666666666,4264.02734375,592.3333333333334,4264.02734375,609.5C4264.02734375,626.6666666666666,4264.02734375,643.8333333333334,4264.02734375,663.2083333333334C4264.02734375,682.5833333333334,4264.02734375,704.1666666666666,4264.02734375,725.75C4264.02734375,747.3333333333334,4264.02734375,768.9166666666666,4264.02734375,790.5C4264.02734375,812.0833333333334,4264.02734375,833.6666666666666,4264.02734375,855.25C4264.02734375,876.8333333333334,4264.02734375,898.4166666666666,4264.02734375,920C4264.02734375,941.5833333333334,4264.02734375,963.1666666666666,4264.02734375,984.75C4264.02734375,1006.3333333333334,4264.02734375,1027.9166666666667,4264.02734375,1049.5C4264.02734375,1071.0833333333333,4264.02734375,1092.6666666666667,4264.02734375,1114.25C4264.02734375,1135.8333333333333,4264.02734375,1157.4166666666667,4264.02734375,1179C4264.02734375,1200.5833333333333,4264.02734375,1222.1666666666667,4264.02734375,1243.75C4264.02734375,1265.3333333333333,4264.02734375,1286.9166666666667,4264.02734375,1308.5C4264.02734375,1330.0833333333333,4264.02734375,1351.6666666666667,4264.02734375,1373.25C4264.02734375,1394.8333333333333,4264.02734375,1416.4166666666667,4264.02734375,1438C4264.02734375,1459.5833333333333,4264.02734375,1481.1666666666667,4264.02734375,1502.75C4264.02734375,1524.3333333333333,4264.02734375,1545.9166666666667,4264.02734375,1567.5C4264.02734375,1589.0833333333333,4264.02734375,1610.6666666666667,4264.02734375,1632.25C4264.02734375,1653.8333333333333,4264.02734375,1675.4166666666667,4264.02734375,1697C4264.02734375,1718.5833333333333,4264.02734375,1740.1666666666667,4264.02734375,1761.75C4264.02734375,1783.3333333333333,4264.02734375,1804.9166666666667,4264.02734375,1826.5C4264.02734375,1848.0833333333333,4264.02734375,1869.6666666666667,4264.02734375,1891.25C4264.02734375,1912.8333333333333,4264.02734375,1934.4166666666667,4229.652994791667,1951.657712386211C4195.278645833333,1968.8987581057554,4126.529947916667,1981.7975162115108,4092.1555989583335,1988.2468952643885L4057.78125,1994.6962743172664" id="edge40" class="transition" marker-end="url(#statediagram-barbEnd)"></path><path d="M3116.2890625,863.8848221249377L3260.2506510416665,873.2373517707814C3404.2122395833335,882.5898814166252,3692.1354166666665,901.2949407083125,3836.0970052083335,921.4391370208228C3980.05859375,941.5833333333334,3980.05859375,963.1666666666666,3980.05859375,984.75C3980.05859375,1006.3333333333334,3980.05859375,1027.9166666666667,3980.05859375,1049.5C3980.05859375,1071.0833333333333,3980.05859375,1092.6666666666667,3980.05859375,1114.25C3980.05859375,1135.8333333333333,3980.05859375,1157.4166666666667,3980.05859375,1179C3980.05859375,1200.5833333333333,3980.05859375,1222.1666666666667,3980.05859375,1243.75C3980.05859375,1265.3333333333333,3980.05859375,1286.9166666666667,3980.05859375,1308.5C3980.05859375,1330.0833333333333,3980.05859375,1351.6666666666667,3980.05859375,1373.25C3980.05859375,1394.8333333333333,3980.05859375,1416.4166666666667,3980.05859375,1438C3980.05859375,1459.5833333333333,3980.05859375,1481.1666666666667,3980.05859375,1502.75C3980.05859375,1524.3333333333333,3980.05859375,1545.9166666666667,3980.05859375,1567.5C3980.05859375,1589.0833333333333,3980.05859375,1610.6666666666667,3980.05859375,1632.25C3980.05859375,1653.8333333333333,3980.05859375,1675.4166666666667,3980.05859375,1697C3980.05859375,1718.5833333333333,3980.05859375,1740.1666666666667,3980.05859375,1761.75C3980.05859375,1783.3333333333333,3980.05859375,1804.9166666666667,3709.1041666666665,1825.9493018154624C3438.1497395833335,1846.981936964258,2896.2408854166665,1867.4638739285156,2625.2864583333335,1877.7048424106445L2354.33203125,1887.9458108927734" id="edge41" class="transition" marker-end="url(#statediagram-barbEnd)"></path><path d="M3989.5390625,2024.5L3989.5390625,2028.6666666666667C3989.5390625,2032.8333333333333,3989.5390625,2041.1666666666667,3965.813250488174,2050.422005986845C3942.087438476349,2059.677345307023,3894.635814452698,2069.8546906140464,3870.910002440872,2074.9433632675577L3847.1841904290463,2080.0320359210696" id="edge42" class="transition" marker-end="url(#statediagram-barbEnd)"></path><path d="M3342.1640625,2024.5L3342.1640625,2028.6666666666667C3342.1640625,2032.8333333333333,3342.1640625,2041.1666666666667,3424.029092149596,2050.5918807123608C3505.8941217991924,2060.017094758055,3669.6241810983847,2070.5341895161096,3751.489210747981,2075.792736895137L3833.3542403975766,2081.051284274164" id="edge43" class="transition" marker-end="url(#statediagram-barbEnd)"></path><path d="M3547.8359375,2024.5L3547.8359375,2028.6666666666667C3547.8359375,2032.8333333333333,3547.8359375,2041.1666666666667,3595.426841399812,2050.5397900412736C3643.0177452996245,2059.91291341588,3738.1995530992485,2070.3258268317604,3785.7904569990606,2075.5322835397005L3833.3813608988726,2080.7387402476406" id="edge44" class="transition" marker-end="url(#statediagram-barbEnd)"></path></g><g class="edgeLabels"><g class="edgeLabel"><g class="label" transform="translate(0, 0)"><rect rx="0" ry="0" width="0" height="0" style="fill:#e8e8e8;"></rect><text style=""></text></g></g><g class="edgeLabel"><g class="label" transform="translate(0, 0)"><rect rx="0" ry="0" width="0" height="0" style="fill:#e8e8e8;"></rect><text style=""></text></g></g><g class="edgeLabel" transform="translate(473.0703125, 165.5)"><g class="label" transform="translate(-68.6875, -9.5)"><rect rx="0" ry="0" width="137.296875" height="19.03125" style="fill:#e8e8e8;"></rect><text style=""><tspan xml:space="preserve" dy="1em" x="0" class="row">ProviderEventOpen</tspan></text></g></g><g class="edgeLabel" transform="translate(648.09375, 984.75)"><g class="label" transform="translate(-98.203125, -9.5)"><rect rx="0" ry="0" width="196.296875" height="19.03125" style="fill:#e8e8e8;"></rect><text style=""><tspan xml:space="preserve" dy="1em" x="0" class="row">ProviderEventDealRejected</tspan></text></g></g><g class="edgeLabel" transform="translate(803.8515625, 1049.5)"><g class="label" transform="translate(-98.203125, -9.5)"><rect rx="0" ry="0" width="196.296875" height="19.03125" style="fill:#e8e8e8;"></rect><text style=""><tspan xml:space="preserve" dy="1em" x="0" class="row">ProviderEventDealRejected</tspan></text></g></g><g class="edgeLabel" transform="translate(1195.046875, 1243.75)"><g class="label" transform="translate(-98.203125, -9.5)"><rect rx="0" ry="0" width="196.296875" height="19.03125" style="fill:#e8e8e8;"></rect><text style=""><tspan xml:space="preserve" dy="1em" x="0" class="row">ProviderEventDealRejected</tspan></text></g></g><g class="edgeLabel" transform="translate(464.9609375, 1826.5)"><g class="label" transform="translate(-100.25, -9.5)"><rect rx="0" ry="0" width="200.390625" height="19.03125" style="fill:#e8e8e8;"></rect><text style=""><tspan xml:space="preserve" dy="1em" x="0" class="row">ProviderEventRejectionSent</tspan></text></g></g><g class="edgeLabel" transform="translate(2549.6171875, 325.5)"><g class="label" transform="translate(-96.5703125, -9.5)"><rect rx="0" ry="0" width="193.03125" height="19.03125" style="fill:#e8e8e8;"></rect><text style=""><tspan xml:space="preserve" dy="1em" x="0" class="row">ProviderEventDealDeciding</tspan></text></g></g><g class="edgeLabel" transform="translate(1722.94140625, 455)"><g class="label" transform="translate(-104.03125, -9.5)"><rect rx="0" ry="0" width="207.9375" height="19.03125" style="fill:#e8e8e8;"></rect><text style=""><tspan xml:space="preserve" dy="1em" x="0" class="row">ProviderEventDataRequested</tspan></text></g></g><g class="edgeLabel" transform="translate(958.3984375, 1243.75)"><g class="label" transform="translate(-118.4453125, -9.5)"><rect rx="0" ry="0" width="236.75" height="19.03125" style="fill:#e8e8e8;"></rect><text style=""><tspan xml:space="preserve" dy="1em" x="0" class="row">ProviderEventDataTransferFailed</tspan></text></g></g><g class="edgeLabel" transform="translate(1256.90234375, 558)"><g class="label" transform="translate(-127.109375, -9.5)"><rect rx="0" ry="0" width="254.0625" height="19.03125" style="fill:#e8e8e8;"></rect><text style=""><tspan xml:space="preserve" dy="1em" x="0" class="row">ProviderEventDataTransferInitiated</tspan></text></g></g><g class="edgeLabel" transform="translate(1345.46875, 661)"><g class="label" transform="translate(-135.4765625, -9.5)"><rect rx="0" ry="0" width="270.78125" height="19.03125" style="fill:#e8e8e8;"></rect><text style=""><tspan xml:space="preserve" dy="1em" x="0" class="row">ProviderEventDataTransferCompleted</tspan></text></g></g><g class="edgeLabel" transform="translate(1345.46875, 1308.5)"><g class="label" transform="translate(-130.421875, -9.5)"><rect rx="0" ry="0" width="260.6875" height="19.03125" style="fill:#e8e8e8;"></rect><text style=""><tspan xml:space="preserve" dy="1em" x="0" class="row">ProviderEventDataVerificationFailed</tspan></text></g></g><g class="edgeLabel" transform="translate(3949.515625, 661)"><g class="label" transform="translate(-95.1015625, -9.5)"><rect rx="0" ry="0" width="190.078125" height="19.03125" style="fill:#e8e8e8;"></rect><text style=""><tspan xml:space="preserve" dy="1em" x="0" class="row">ProviderEventVerifiedData</tspan></text></g></g><g class="edgeLabel" transform="translate(1672.66796875, 790.5)"><g class="label" transform="translate(-95.1015625, -9.5)"><rect rx="0" ry="0" width="190.078125" height="19.03125" style="fill:#e8e8e8;"></rect><text style=""><tspan xml:space="preserve" dy="1em" x="0" class="row">ProviderEventVerifiedData</tspan></text></g></g><g class="edgeLabel" transform="translate(1495.5234375, 920)"><g class="label" transform="translate(-108.6953125, -9.5)"><rect rx="0" ry="0" width="217.265625" height="19.03125" style="fill:#e8e8e8;"></rect><text style=""><tspan xml:space="preserve" dy="1em" x="0" class="row">ProviderEventFundingInitiated</tspan></text></g></g><g class="edgeLabel" transform="translate(3762.7109375, 984.75)"><g class="label" transform="translate(-76.3203125, -9.5)"><rect rx="0" ry="0" width="152.546875" height="19.03125" style="fill:#e8e8e8;"></rect><text style=""><tspan xml:space="preserve" dy="1em" x="0" class="row">ProviderEventFunded</tspan></text></g></g><g class="edgeLabel" transform="translate(1495.5234375, 1049.5)"><g class="label" transform="translate(-76.3203125, -9.5)"><rect rx="0" ry="0" width="152.546875" height="19.03125" style="fill:#e8e8e8;"></rect><text style=""><tspan xml:space="preserve" dy="1em" x="0" class="row">ProviderEventFunded</tspan></text></g></g><g class="edgeLabel" transform="translate(2000.43359375, 1179)"><g class="label" transform="translate(-122, -9.5)"><rect rx="0" ry="0" width="243.859375" height="19.03125" style="fill:#e8e8e8;"></rect><text style=""><tspan xml:space="preserve" dy="1em" x="0" class="row">ProviderEventDealPublishInitiated</tspan></text></g></g><g class="edgeLabel" transform="translate(1495.890625, 1567.5)"><g class="label" transform="translate(-109.3828125, -9.5)"><rect rx="0" ry="0" width="218.625" height="19.03125" style="fill:#e8e8e8;"></rect><text style=""><tspan xml:space="preserve" dy="1em" x="0" class="row">ProviderEventDealPublishError</tspan></text></g></g><g class="edgeLabel" transform="translate(707.1953125, 1826.5)"><g class="label" transform="translate(-121.984375, -9.5)"><rect rx="0" ry="0" width="243.828125" height="19.03125" style="fill:#e8e8e8;"></rect><text style=""><tspan xml:space="preserve" dy="1em" x="0" class="row">ProviderEventSendResponseFailed</tspan></text></g></g><g class="edgeLabel" transform="translate(4122.04296875, 1114.25)"><g class="label" transform="translate(-121.984375, -9.5)"><rect rx="0" ry="0" width="243.828125" height="19.03125" style="fill:#e8e8e8;"></rect><text style=""><tspan xml:space="preserve" dy="1em" x="0" class="row">ProviderEventSendResponseFailed</tspan></text></g></g><g class="edgeLabel" transform="translate(2069.359375, 1308.5)"><g class="label" transform="translate(-100.296875, -9.5)"><rect rx="0" ry="0" width="200.46875" height="19.03125" style="fill:#e8e8e8;"></rect><text style=""><tspan xml:space="preserve" dy="1em" x="0" class="row">ProviderEventDealPublished</tspan></text></g></g><g class="edgeLabel" transform="translate(1625.2734375, 1632.25)"><g class="label" transform="translate(-108.8203125, -9.5)"><rect rx="0" ry="0" width="217.5" height="19.03125" style="fill:#e8e8e8;"></rect><text style=""><tspan xml:space="preserve" dy="1em" x="0" class="row">ProviderEventFileStoreErrored</tspan></text></g></g><g class="edgeLabel" transform="translate(2252.375, 1697)"><g class="label" transform="translate(-108.8203125, -9.5)"><rect rx="0" ry="0" width="217.5" height="19.03125" style="fill:#e8e8e8;"></rect><text style=""><tspan xml:space="preserve" dy="1em" x="0" class="row">ProviderEventFileStoreErrored</tspan></text></g></g><g class="edgeLabel" transform="translate(3340.66796875, 1826.5)"><g class="label" transform="translate(-108.8203125, -9.5)"><rect rx="0" ry="0" width="217.5" height="19.03125" style="fill:#e8e8e8;"></rect><text style=""><tspan xml:space="preserve" dy="1em" x="0" class="row">ProviderEventFileStoreErrored</tspan></text></g></g><g class="edgeLabel" transform="translate(1866.9609375, 1632.25)"><g class="label" transform="translate(-112.8671875, -9.5)"><rect rx="0" ry="0" width="225.59375" height="19.03125" style="fill:#e8e8e8;"></rect><text style=""><tspan xml:space="preserve" dy="1em" x="0" class="row">ProviderEventMultistoreErrored</tspan></text></g></g><g class="edgeLabel" transform="translate(2116.1015625, 1632.25)"><g class="label" transform="translate(-116.2734375, -9.5)"><rect rx="0" ry="0" width="232.40625" height="19.03125" style="fill:#e8e8e8;"></rect><text style=""><tspan xml:space="preserve" dy="1em" x="0" class="row">ProviderEventDealHandoffFailed</tspan></text></g></g><g class="edgeLabel" transform="translate(2622.01171875, 1438)"><g class="label" transform="translate(-104.3671875, -9.5)"><rect rx="0" ry="0" width="208.609375" height="19.03125" style="fill:#e8e8e8;"></rect><text style=""><tspan xml:space="preserve" dy="1em" x="0" class="row">ProviderEventDealHandedOff</tspan></text></g></g><g class="edgeLabel" transform="translate(2505.3671875, 1697)"><g class="label" transform="translate(-124.171875, -9.5)"><rect rx="0" ry="0" width="248.1875" height="19.03125" style="fill:#e8e8e8;"></rect><text style=""><tspan xml:space="preserve" dy="1em" x="0" class="row">ProviderEventDealActivationFailed</tspan></text></g></g><g class="edgeLabel" transform="translate(3135.265625, 1567.5)"><g class="label" transform="translate(-100.1796875, -9.5)"><rect rx="0" ry="0" width="200.25" height="19.03125" style="fill:#e8e8e8;"></rect><text style=""><tspan xml:space="preserve" dy="1em" x="0" class="row">ProviderEventDealActivated</tspan></text></g></g><g class="edgeLabel" transform="translate(2649.5390625, 1761.75)"><g class="label" transform="translate(-115.046875, -9.5)"><rect rx="0" ry="0" width="229.953125" height="19.03125" style="fill:#e8e8e8;"></rect><text style=""><tspan xml:space="preserve" dy="1em" x="0" class="row">ProviderEventPieceStoreErrored</tspan></text></g></g><g class="edgeLabel" transform="translate(2912.0390625, 1761.75)"><g class="label" transform="translate(-127.453125, -9.5)"><rect rx="0" ry="0" width="254.75" height="19.03125" style="fill:#e8e8e8;"></rect><text style=""><tspan xml:space="preserve" dy="1em" x="0" class="row">ProviderEventUnableToLocatePiece</tspan></text></g></g><g class="edgeLabel" transform="translate(3187.453125, 1761.75)"><g class="label" transform="translate(-127.9609375, -9.5)"><rect rx="0" ry="0" width="255.765625" height="19.03125" style="fill:#e8e8e8;"></rect><text style=""><tspan xml:space="preserve" dy="1em" x="0" class="row">ProviderEventReadMetadataErrored</tspan></text></g></g><g class="edgeLabel" transform="translate(3668.69140625, 1697)"><g class="label" transform="translate(-103.1953125, -9.5)"><rect rx="0" ry="0" width="206.265625" height="19.03125" style="fill:#e8e8e8;"></rect><text style=""><tspan xml:space="preserve" dy="1em" x="0" class="row">ProviderEventPieceRecorded</tspan></text></g></g><g class="edgeLabel" transform="translate(3512.67578125, 1891.25)"><g class="label" transform="translate(-92.7734375, -9.5)"><rect rx="0" ry="0" width="185.4375" height="19.03125" style="fill:#e8e8e8;"></rect><text style=""><tspan xml:space="preserve" dy="1em" x="0" class="row">ProviderEventDealSlashed</tspan></text></g></g><g class="edgeLabel" transform="translate(3718.34765625, 1891.25)"><g class="label" transform="translate(-92.8984375, -9.5)"><rect rx="0" ry="0" width="185.6875" height="19.03125" style="fill:#e8e8e8;"></rect><text style=""><tspan xml:space="preserve" dy="1em" x="0" class="row">ProviderEventDealExpired</tspan></text></g></g><g class="edgeLabel" transform="translate(3960.05859375, 1891.25)"><g class="label" transform="translate(-128.8125, -9.5)"><rect rx="0" ry="0" width="257.46875" height="19.03125" style="fill:#e8e8e8;"></rect><text style=""><tspan xml:space="preserve" dy="1em" x="0" class="row">ProviderEventDealCompletionFailed</tspan></text></g></g><g class="edgeLabel" transform="translate(2266.91015625, 1956)"><g class="label" transform="translate(-71.96875, -9.5)"><rect rx="0" ry="0" width="143.84375" height="19.03125" style="fill:#e8e8e8;"></rect><text style=""><tspan xml:space="preserve" dy="1em" x="0" class="row">ProviderEventFailed</tspan></text></g></g><g class="edgeLabel" transform="translate(849.1796875, 1891.25)"><g class="label" transform="translate(-76.015625, -9.5)"><rect rx="0" ry="0" width="151.9375" height="19.03125" style="fill:#e8e8e8;"></rect><text style=""><tspan xml:space="preserve" dy="1em" x="0" class="row">ProviderEventRestart</tspan></text></g></g><g class="edgeLabel" transform="translate(4360.04296875, 1114.25)"><g class="label" transform="translate(-76.015625, -9.5)"><rect rx="0" ry="0" width="151.9375" height="19.03125" style="fill:#e8e8e8;"></rect><text style=""><tspan xml:space="preserve" dy="1em" x="0" class="row">ProviderEventRestart</tspan></text></g></g><g class="edgeLabel" transform="translate(4264.02734375, 1179)"><g class="label" transform="translate(-76.015625, -9.5)"><rect rx="0" ry="0" width="151.9375" height="19.03125" style="fill:#e8e8e8;"></rect><text style=""><tspan xml:space="preserve" dy="1em" x="0" class="row">ProviderEventRestart</tspan></text></g></g><g class="edgeLabel" transform="translate(3980.05859375, 1373.25)"><g class="label" transform="translate(-112.5546875, -9.5)"><rect rx="0" ry="0" width="224.984375" height="19.03125" style="fill:#e8e8e8;"></rect><text style=""><tspan xml:space="preserve" dy="1em" x="0" class="row">ProviderEventTrackFundsFailed</tspan></text></g></g><g class="edgeLabel"><g class="label" transform="translate(0, 0)"><rect rx="0" ry="0" width="0" height="0" style="fill:#e8e8e8;"></rect><text style=""></text></g></g><g class="edgeLabel"><g class="label" transform="translate(0, 0)"><rect rx="0" ry="0" width="0" height="0" style="fill:#e8e8e8;"></rect><text style=""></text></g></g><g class="edgeLabel"><g class="label" transform="translate(0, 0)"><rect rx="0" ry="0" width="0" height="0" style="fill:#e8e8e8;"></rect><text style=""></text></g></g></g><g class="nodes"><g class="node statediagram-state" id="0" transform="translate(318.046875, 114)"><rect class="outer title-state" x="-82.921875" y="-17" width="165.84375" height="34"></rect><line class="divider" x1="-82.921875" x2="82.921875" y1="9.5" y2="9.5"></line><g class="label" transform="translate(-75.421875, -14)"><text style=""><tspan xml:space="preserve" dy="1em" x="0" class="title-row">StorageDealUnknown</tspan></text><text style="" transform="translate( 0, 26.5)"><tspan xml:space="preserve" dy="1em" x="0" class="title-row"></tspan></text></g></g><g class="node statediagram-state" id="4" transform="translate(2069.359375, 1373.25)"><rect class="outer title-state" x="-102.8515625" y="-30.25" width="205.703125" height="60.5"></rect><line class="divider" x1="-102.8515625" x2="102.8515625" y1="-3.75" y2="-3.75"></line><g class="label" transform="translate(-95.3515625, -27.25)"><text style=""><tspan xml:space="preserve" dy="1em" x="0" class="title-row">StorageDealStaged</tspan></text><text style="" transform="translate( 0, 26.5)"><tspan xml:space="preserve" dy="1em" x="0" class="title-row">On entry runs HandoffDeal</tspan></text></g></g><g class="node statediagram-state" id="5" transform="translate(2622.01171875, 1502.75)"><rect class="outer title-state" x="-129.9765625" y="-30.25" width="259.953125" height="60.5"></rect><line class="divider" x1="-129.9765625" x2="129.9765625" y1="-3.75" y2="-3.75"></line><g class="label" transform="translate(-122.4765625, -27.25)"><text style=""><tspan xml:space="preserve" dy="1em" x="0" class="title-row">StorageDealSealing</tspan></text><text style="" transform="translate( 0, 26.5)"><tspan xml:space="preserve" dy="1em" x="0" class="title-row">On entry runs VerifyDealActivated</tspan></text></g></g><g class="node statediagram-state" id="6" transform="translate(3135.265625, 1632.25)"><rect class="outer title-state" x="-116.6640625" y="-30.25" width="233.328125" height="60.5"></rect><line class="divider" x1="-116.6640625" x2="116.6640625" y1="-3.75" y2="-3.75"></line><g class="label" transform="translate(-109.1640625, -27.25)"><text style=""><tspan xml:space="preserve" dy="1em" x="0" class="title-row">&lt;invalid Value&gt;</tspan></text><text style="" transform="translate( 0, 26.5)"><tspan xml:space="preserve" dy="1em" x="0" class="title-row">On entry runs RecordPieceInfo</tspan></text></g></g><g class="node statediagram-state" id="7" transform="translate(3668.69140625, 1761.75)"><rect class="outer title-state" x="-143.46875" y="-30.25" width="286.9375" height="60.5"></rect><line class="divider" x1="-143.46875" x2="143.46875" y1="-3.75" y2="-3.75"></line><g class="label" transform="translate(-135.96875, -27.25)"><text style=""><tspan xml:space="preserve" dy="1em" x="0" class="title-row">StorageDealActive</tspan></text><text style="" transform="translate( 0, 26.5)"><tspan xml:space="preserve" dy="1em" x="0" class="title-row">On entry runs WaitForDealCompletion</tspan></text></g></g><g class="node statediagram-state" id="8" transform="translate(3547.8359375, 2007.5)"><rect class="outer title-state" x="-77.296875" y="-17" width="154.59375" height="34"></rect><line class="divider" x1="-77.296875" x2="77.296875" y1="9.5" y2="9.5"></line><g class="label" transform="translate(-69.796875, -14)"><text style=""><tspan xml:space="preserve" dy="1em" x="0" class="title-row">StorageDealExpired</tspan></text><text style="" transform="translate( 0, 26.5)"><tspan xml:space="preserve" dy="1em" x="0" class="title-row"></tspan></text></g></g><g class="node statediagram-state" id="9" transform="translate(3342.1640625, 2007.5)"><rect class="outer title-state" x="-77.1796875" y="-17" width="154.359375" height="34"></rect><line class="divider" x1="-77.1796875" x2="77.1796875" y1="9.5" y2="9.5"></line><g class="label" transform="translate(-69.6796875, -14)"><text style=""><tspan xml:space="preserve" dy="1em" x="0" class="title-row">StorageDealSlashed</tspan></text><text style="" transform="translate( 0, 26.5)"><tspan xml:space="preserve" dy="1em" x="0" class="title-row"></tspan></text></g></g><g class="node statediagram-state" id="10" transform="translate(707.1953125, 1761.75)"><rect class="outer title-state" x="-97.828125" y="-30.25" width="195.65625" height="60.5"></rect><line class="divider" x1="-97.828125" x2="97.828125" y1="-3.75" y2="-3.75"></line><g class="label" transform="translate(-90.328125, -27.25)"><text style=""><tspan xml:space="preserve" dy="1em" x="0" class="title-row">StorageDealRejecting</tspan></text><text style="" transform="translate( 0, 26.5)"><tspan xml:space="preserve" dy="1em" x="0" class="title-row">On entry runs RejectDeal</tspan></text></g></g><g class="node statediagram-state" id="11" transform="translate(2266.91015625, 1891.25)"><rect class="outer title-state" x="-87.421875" y="-30.25" width="174.84375" height="60.5"></rect><line class="divider" x1="-87.421875" x2="87.421875" y1="-3.75" y2="-3.75"></line><g class="label" transform="translate(-79.921875, -27.25)"><text style=""><tspan xml:space="preserve" dy="1em" x="0" class="title-row">StorageDealFailing</tspan></text><text style="" transform="translate( 0, 26.5)"><tspan xml:space="preserve" dy="1em" x="0" class="title-row">On entry runs FailDeal</tspan></text></g></g><g class="node statediagram-state" id="14" transform="translate(2549.6171875, 233)"><rect class="outer title-state" x="-134.53125" y="-30.25" width="269.0625" height="60.5"></rect><line class="divider" x1="-134.53125" x2="134.53125" y1="-3.75" y2="-3.75"></line><g class="label" transform="translate(-127.03125, -27.25)"><text style=""><tspan xml:space="preserve" dy="1em" x="0" class="title-row">StorageDealValidating</tspan></text><text style="" transform="translate( 0, 26.5)"><tspan xml:space="preserve" dy="1em" x="0" class="title-row">On entry runs ValidateDealProposal</tspan></text></g></g><g class="node statediagram-state" id="15" transform="translate(2549.6171875, 390.25)"><rect class="outer title-state" x="-123.0546875" y="-30.25" width="246.109375" height="60.5"></rect><line class="divider" x1="-123.0546875" x2="123.0546875" y1="-3.75" y2="-3.75"></line><g class="label" transform="translate(-115.5546875, -27.25)"><text style=""><tspan xml:space="preserve" dy="1em" x="0" class="title-row">StorageDealAcceptWait</tspan></text><text style="" transform="translate( 0, 26.5)"><tspan xml:space="preserve" dy="1em" x="0" class="title-row">On entry runs DecideOnProposal</tspan></text></g></g><g class="node statediagram-state" id="17" transform="translate(1256.90234375, 609.5)"><rect class="outer title-state" x="-94.109375" y="-17" width="188.21875" height="34"></rect><line class="divider" x1="-94.109375" x2="94.109375" y1="9.5" y2="9.5"></line><g class="label" transform="translate(-86.609375, -14)"><text style=""><tspan xml:space="preserve" dy="1em" x="0" class="title-row">StorageDealTransferring</tspan></text><text style="" transform="translate( 0, 26.5)"><tspan xml:space="preserve" dy="1em" x="0" class="title-row"></tspan></text></g></g><g class="node statediagram-state" id="18" transform="translate(1722.94140625, 506.5)"><rect class="outer title-state" x="-105.5625" y="-17" width="211.125" height="34"></rect><line class="divider" x1="-105.5625" x2="105.5625" y1="9.5" y2="9.5"></line><g class="label" transform="translate(-98.0625, -14)"><text style=""><tspan xml:space="preserve" dy="1em" x="0" class="title-row">StorageDealWaitingForData</tspan></text><text style="" transform="translate( 0, 26.5)"><tspan xml:space="preserve" dy="1em" x="0" class="title-row"></tspan></text></g></g><g class="node statediagram-state" id="19" transform="translate(1345.46875, 725.75)"><rect class="outer title-state" x="-96.3828125" y="-30.25" width="192.765625" height="60.5"></rect><line class="divider" x1="-96.3828125" x2="96.3828125" y1="-3.75" y2="-3.75"></line><g class="label" transform="translate(-88.8828125, -27.25)"><text style=""><tspan xml:space="preserve" dy="1em" x="0" class="title-row">StorageDealVerifyData</tspan></text><text style="" transform="translate( 0, 26.5)"><tspan xml:space="preserve" dy="1em" x="0" class="title-row">On entry runs VerifyData</tspan></text></g></g><g class="node statediagram-state" id="20" transform="translate(2983.375, 855.25)"><rect class="outer title-state" x="-132.9140625" y="-30.25" width="265.828125" height="60.5"></rect><line class="divider" x1="-132.9140625" x2="132.9140625" y1="-3.75" y2="-3.75"></line><g class="label" transform="translate(-125.4140625, -27.25)"><text style=""><tspan xml:space="preserve" dy="1em" x="0" class="title-row">StorageDealEnsureProviderFunds</tspan></text><text style="" transform="translate( 0, 26.5)"><tspan xml:space="preserve" dy="1em" x="0" class="title-row">On entry runs EnsureProviderFunds</tspan></text></g></g><g class="node statediagram-state" id="22" transform="translate(1495.5234375, 984.75)"><rect class="outer title-state" x="-114.6875" y="-30.25" width="229.375" height="60.5"></rect><line class="divider" x1="-114.6875" x2="114.6875" y1="-3.75" y2="-3.75"></line><g class="label" transform="translate(-107.1875, -27.25)"><text style=""><tspan xml:space="preserve" dy="1em" x="0" class="title-row">StorageDealProviderFunding</tspan></text><text style="" transform="translate( 0, 26.5)"><tspan xml:space="preserve" dy="1em" x="0" class="title-row">On entry runs WaitForFunding</tspan></text></g></g><g class="node statediagram-state" id="24" transform="translate(2000.43359375, 1114.25)"><rect class="outer title-state" x="-99.9140625" y="-30.25" width="199.828125" height="60.5"></rect><line class="divider" x1="-99.9140625" x2="99.9140625" y1="-3.75" y2="-3.75"></line><g class="label" transform="translate(-92.4140625, -27.25)"><text style=""><tspan xml:space="preserve" dy="1em" x="0" class="title-row">StorageDealPublish</tspan></text><text style="" transform="translate( 0, 26.5)"><tspan xml:space="preserve" dy="1em" x="0" class="title-row">On entry runs PublishDeal</tspan></text></g></g><g class="node statediagram-state" id="25" transform="translate(2000.43359375, 1243.75)"><rect class="outer title-state" x="-112.15625" y="-30.25" width="224.3125" height="60.5"></rect><line class="divider" x1="-112.15625" x2="112.15625" y1="-3.75" y2="-3.75"></line><g class="label" transform="translate(-104.65625, -27.25)"><text style=""><tspan xml:space="preserve" dy="1em" x="0" class="title-row">StorageDealPublishing</tspan></text><text style="" transform="translate( 0, 26.5)"><tspan xml:space="preserve" dy="1em" x="0" class="title-row">On entry runs WaitForPublish</tspan></text></g></g><g class="node statediagram-state" id="26" transform="translate(3989.5390625, 2007.5)"><rect class="outer title-state" x="-68.2421875" y="-17" width="136.484375" height="34"></rect><line class="divider" x1="-68.2421875" x2="68.2421875" y1="9.5" y2="9.5"></line><g class="label" transform="translate(-60.7421875, -14)"><text style=""><tspan xml:space="preserve" dy="1em" x="0" class="title-row">StorageDealError</tspan></text><text style="" transform="translate( 0, 26.5)"><tspan xml:space="preserve" dy="1em" x="0" class="title-row"></tspan></text></g></g><g class="node default" id="root_start" transform="translate(318.046875, 15)"><circle class="state-start" r="7" width="14" height="14"></circle></g><g class="node statediagram-note" id="0----note" transform="translate(318.046875, 233)"><rect x="-275.046875" y="-33" width="550.09375" height="66"></rect><g class="label" transform="translate(-267.546875, -25.5)"><text style=""><tspan xml:space="preserve" dy="1em" x="0" class="row">The following events are not shown cause they can trigger from any state.</tspan><tspan xml:space="preserve" dy="1em" x="0" class="row"></tspan><tspan xml:space="preserve" dy="1em" x="0" class="row">ProviderEventNodeErrored - transitions state to StorageDealFailing</tspan><tspan xml:space="preserve" dy="1em" x="0" class="row">ProviderEventRestart - does not transition state</tspan></text></g></g><g class="node default" id="root_end" transform="translate(3840.33984375, 2081.5)"><circle class="state-start" r="7" width="14" height="14"></circle><circle class="state-end" r="5" width="10" height="10"></circle></g></g></g></g></svg>