<svg id="mermaid-1593555173365" width="3742.49609375" xmlns="http://www.w3.org/2000/svg" class="statediagram" height="1967" viewBox="0 0 3742.49609375 1967"><style>#mermaid-1593555173365 .label{font-family:'trebuchet ms', verdana, arial;font-family:var(--mermaid-font-family);color:#333}#mermaid-1593555173365 .label text{fill:#333}#mermaid-1593555173365 .node rect,#mermaid-1593555173365 .node circle,#mermaid-1593555173365 .node ellipse,#mermaid-1593555173365 .node polygon,#mermaid-1593555173365 .node path{fill:#ECECFF;stroke:#9370db;stroke-width:1px}#mermaid-1593555173365 .node .label{text-align:center}#mermaid-1593555173365 .node.clickable{cursor:pointer}#mermaid-1593555173365 .arrowheadPath{fill:#333}#mermaid-1593555173365 .edgePath .path{stroke:#333;stroke-width:1.5px}#mermaid-1593555173365 .edgeLabel{background-color:#e8e8e8;text-align:center}#mermaid-1593555173365 .edgeLabel rect{opacity:0.5}#mermaid-1593555173365 .cluster rect{fill:#ffffde;stroke:#aa3;stroke-width:1px}#mermaid-1593555173365 .cluster text{fill:#333}#mermaid-1593555173365 div.mermaidTooltip{position:absolute;text-align:center;max-width:200px;padding:2px;font-family:'trebuchet ms', verdana, arial;font-family:var(--mermaid-font-family);font-size:12px;background:#ffffde;border:1px solid #aa3;border-radius:2px;pointer-events:none;z-index:100}#mermaid-1593555173365 .actor{stroke:#ccf;fill:#ECECFF}#mermaid-1593555173365 text.actor{fill:#000;stroke:none}#mermaid-1593555173365 .actor-line{stroke:grey}#mermaid-1593555173365 .messageLine0{stroke-width:1.5;stroke-dasharray:'2 2';stroke:#333}#mermaid-1593555173365 .messageLine1{stroke-width:1.5;stroke-dasharray:'2 2';stroke:#333}#mermaid-1593555173365 #arrowhead{fill:#333}#mermaid-1593555173365 .sequenceNumber{fill:#fff}#mermaid-1593555173365 #sequencenumber{fill:#333}#mermaid-1593555173365 #crosshead path{fill:#333 !important;stroke:#333 !important}#mermaid-1593555173365 .messageText{fill:#333;stroke:none}#mermaid-1593555173365 .labelBox{stroke:#ccf;fill:#ECECFF}#mermaid-1593555173365 .labelText{fill:#000;stroke:none}#mermaid-1593555173365 .loopText{fill:#000;stroke:none}#mermaid-1593555173365 .loopLine{stroke-width:2;stroke-dasharray:'2 2';stroke:#ccf}#mermaid-1593555173365 .note{stroke:#aa3;fill:#fff5ad}#mermaid-1593555173365 .noteText{fill:black;stroke:none;font-family:'trebuchet ms', verdana, arial;font-family:var(--mermaid-font-family);font-size:14px}#mermaid-1593555173365 .activation0{fill:#f4f4f4;stroke:#666}#mermaid-1593555173365 .activation1{fill:#f4f4f4;stroke:#666}#mermaid-1593555173365 .activation2{fill:#f4f4f4;stroke:#666}#mermaid-1593555173365 .mermaid-main-font{font-family:"trebuchet ms", verdana, arial;font-family:var(--mermaid-font-family)}#mermaid-1593555173365 .section{stroke:none;opacity:0.2}#mermaid-1593555173365 .section0{fill:rgba(102,102,255,0.49)}#mermaid-1593555173365 .section2{fill:#fff400}#mermaid-1593555173365 .section1,#mermaid-1593555173365 .section3{fill:#fff;opacity:0.2}#mermaid-1593555173365 .sectionTitle0{fill:#333}#mermaid-1593555173365 .sectionTitle1{fill:#333}#mermaid-1593555173365 .sectionTitle2{fill:#333}#mermaid-1593555173365 .sectionTitle3{fill:#333}#mermaid-1593555173365 .sectionTitle{text-anchor:start;font-size:11px;text-height:14px;font-family:'trebuchet ms', verdana, arial;font-family:var(--mermaid-font-family)}#mermaid-1593555173365 .grid .tick{stroke:#d3d3d3;opacity:0.8;shape-rendering:crispEdges}#mermaid-1593555173365 .grid .tick text{font-family:'trebuchet ms', verdana, arial;font-family:var(--mermaid-font-family)}#mermaid-1593555173365 .grid path{stroke-width:0}#mermaid-1593555173365 .today{fill:none;stroke:red;stroke-width:2px}#mermaid-1593555173365 .task{stroke-width:2}#mermaid-1593555173365 .taskText{text-anchor:middle;font-family:'trebuchet ms', verdana, arial;font-family:var(--mermaid-font-family)}#mermaid-1593555173365 .taskText:not([font-size]){font-size:11px}#mermaid-1593555173365 .taskTextOutsideRight{fill:#000;text-anchor:start;font-size:11px;font-family:'trebuchet ms', verdana, arial;font-family:var(--mermaid-font-family)}#mermaid-1593555173365 .taskTextOutsideLeft{fill:#000;text-anchor:end;font-size:11px}#mermaid-1593555173365 .task.clickable{cursor:pointer}#mermaid-1593555173365 .taskText.clickable{cursor:pointer;fill:#003163 !important;font-weight:bold}#mermaid-1593555173365 .taskTextOutsideLeft.clickable{cursor:pointer;fill:#003163 !important;font-weight:bold}#mermaid-1593555173365 .taskTextOutsideRight.clickable{cursor:pointer;fill:#003163 !important;font-weight:bold}#mermaid-1593555173365 .taskText0,#mermaid-1593555173365 .taskText1,#mermaid-1593555173365 .taskText2,#mermaid-1593555173365 .taskText3{fill:#fff}#mermaid-1593555173365 .task0,#mermaid-1593555173365 .task1,#mermaid-1593555173365 .task2,#mermaid-1593555173365 .task3{fill:#8a90dd;stroke:#534fbc}#mermaid-1593555173365 .taskTextOutside0,#mermaid-1593555173365 .taskTextOutside2{fill:#000}#mermaid-1593555173365 .taskTextOutside1,#mermaid-1593555173365 .taskTextOutside3{fill:#000}#mermaid-1593555173365 .active0,#mermaid-1593555173365 .active1,#mermaid-1593555173365 .active2,#mermaid-1593555173365 .active3{fill:#bfc7ff;stroke:#534fbc}#mermaid-1593555173365 .activeText0,#mermaid-1593555173365 .activeText1,#mermaid-1593555173365 .activeText2,#mermaid-1593555173365 .activeText3{fill:#000 !important}#mermaid-1593555173365 .done0,#mermaid-1593555173365 .done1,#mermaid-1593555173365 .done2,#mermaid-1593555173365 .done3{stroke:grey;fill:#d3d3d3;stroke-width:2}#mermaid-1593555173365 .doneText0,#mermaid-1593555173365 .doneText1,#mermaid-1593555173365 .doneText2,#mermaid-1593555173365 .doneText3{fill:#000 !important}#mermaid-1593555173365 .crit0,#mermaid-1593555173365 .crit1,#mermaid-1593555173365 .crit2,#mermaid-1593555173365 .crit3{stroke:#f88;fill:red;stroke-width:2}#mermaid-1593555173365 .activeCrit0,#mermaid-1593555173365 .activeCrit1,#mermaid-1593555173365 .activeCrit2,#mermaid-1593555173365 .activeCrit3{stroke:#f88;fill:#bfc7ff;stroke-width:2}#mermaid-1593555173365 .doneCrit0,#mermaid-1593555173365 .doneCrit1,#mermaid-1593555173365 .doneCrit2,#mermaid-1593555173365 .doneCrit3{stroke:#f88;fill:#d3d3d3;stroke-width:2;cursor:pointer;shape-rendering:crispEdges}#mermaid-1593555173365 .milestone{transform:rotate(45deg) scale(0.8, 0.8)}#mermaid-1593555173365 .milestoneText{font-style:italic}#mermaid-1593555173365 .doneCritText0,#mermaid-1593555173365 .doneCritText1,#mermaid-1593555173365 .doneCritText2,#mermaid-1593555173365 .doneCritText3{fill:#000 !important}#mermaid-1593555173365 .activeCritText0,#mermaid-1593555173365 .activeCritText1,#mermaid-1593555173365 .activeCritText2,#mermaid-1593555173365 .activeCritText3{fill:#000 !important}#mermaid-1593555173365 .titleText{text-anchor:middle;font-size:18px;fill:#000;font-family:'trebuchet ms', verdana, arial;font-family:var(--mermaid-font-family)}#mermaid-1593555173365 g.classGroup text{fill:#9370db;stroke:none;font-family:'trebuchet ms', verdana, arial;font-family:var(--mermaid-font-family);font-size:10px}#mermaid-1593555173365 g.classGroup text .title{font-weight:bolder}#mermaid-1593555173365 g.clickable{cursor:pointer}#mermaid-1593555173365 g.classGroup rect{fill:#ECECFF;stroke:#9370db}#mermaid-1593555173365 g.classGroup line{stroke:#9370db;stroke-width:1}#mermaid-1593555173365 .classLabel .box{stroke:none;stroke-width:0;fill:#ECECFF;opacity:0.5}#mermaid-1593555173365 .classLabel .label{fill:#9370db;font-size:10px}#mermaid-1593555173365 .relation{stroke:#9370db;stroke-width:1;fill:none}#mermaid-1593555173365 .dashed-line{stroke-dasharray:3}#mermaid-1593555173365 #compositionStart{fill:#9370db;stroke:#9370db;stroke-width:1}#mermaid-1593555173365 #compositionEnd{fill:#9370db;stroke:#9370db;stroke-width:1}#mermaid-1593555173365 #aggregationStart{fill:#ECECFF;stroke:#9370db;stroke-width:1}#mermaid-1593555173365 #aggregationEnd{fill:#ECECFF;stroke:#9370db;stroke-width:1}#mermaid-1593555173365 #dependencyStart{fill:#9370db;stroke:#9370db;stroke-width:1}#mermaid-1593555173365 #dependencyEnd{fill:#9370db;stroke:#9370db;stroke-width:1}#mermaid-1593555173365 #extensionStart{fill:#9370db;stroke:#9370db;stroke-width:1}#mermaid-1593555173365 #extensionEnd{fill:#9370db;stroke:#9370db;stroke-width:1}#mermaid-1593555173365 .commit-id,#mermaid-1593555173365 .commit-msg,#mermaid-1593555173365 .branch-label{fill:lightgrey;color:lightgrey;font-family:'trebuchet ms', verdana, arial;font-family:var(--mermaid-font-family)}#mermaid-1593555173365 .pieTitleText{text-anchor:middle;font-size:25px;fill:#000;font-family:'trebuchet ms', verdana, arial;font-family:var(--mermaid-font-family)}#mermaid-1593555173365 .slice{font-family:'trebuchet ms', verdana, arial;font-family:var(--mermaid-font-family)}#mermaid-1593555173365 g.stateGroup text{fill:#9370db;stroke:none;font-size:10px;font-family:'trebuchet ms', verdana, arial;font-family:var(--mermaid-font-family)}#mermaid-1593555173365 g.stateGroup text{fill:#9370db;stroke:none;font-size:10px}#mermaid-1593555173365 g.stateGroup .state-title{font-weight:bolder;fill:#000}#mermaid-1593555173365 g.stateGroup rect{fill:#ECECFF;stroke:#9370db}#mermaid-1593555173365 g.stateGroup line{stroke:#9370db;stroke-width:1}#mermaid-1593555173365 .transition{stroke:#9370db;stroke-width:1;fill:none}#mermaid-1593555173365 .stateGroup .composit{fill:white;border-bottom:1px}#mermaid-1593555173365 .stateGroup .alt-composit{fill:#e0e0e0;border-bottom:1px}#mermaid-1593555173365 .state-note{stroke:#aa3;fill:#fff5ad}#mermaid-1593555173365 .state-note text{fill:black;stroke:none;font-size:10px}#mermaid-1593555173365 .stateLabel .box{stroke:none;stroke-width:0;fill:#ECECFF;opacity:0.5}#mermaid-1593555173365 .stateLabel text{fill:#000;font-size:10px;font-weight:bold;font-family:'trebuchet ms', verdana, arial;font-family:var(--mermaid-font-family)}#mermaid-1593555173365 .node circle.state-start{fill:black;stroke:black}#mermaid-1593555173365 .node circle.state-end{fill:black;stroke:white;stroke-width:1.5}#mermaid-1593555173365 #statediagram-barbEnd{fill:#9370db}#mermaid-1593555173365 .statediagram-cluster rect{fill:#ECECFF;stroke:#9370db;stroke-width:1px}#mermaid-1593555173365 .statediagram-cluster rect.outer{rx:5px;ry:5px}#mermaid-1593555173365 .statediagram-state .divider{stroke:#9370db}#mermaid-1593555173365 .statediagram-state .title-state{rx:5px;ry:5px}#mermaid-1593555173365 .statediagram-cluster.statediagram-cluster .inner{fill:white}#mermaid-1593555173365 .statediagram-cluster.statediagram-cluster-alt .inner{fill:#e0e0e0}#mermaid-1593555173365 .statediagram-cluster .inner{rx:0;ry:0}#mermaid-1593555173365 .statediagram-state rect.basic{rx:5px;ry:5px}#mermaid-1593555173365 .statediagram-state rect.divider{stroke-dasharray:10,10;fill:#efefef}#mermaid-1593555173365 .note-edge{stroke-dasharray:5}#mermaid-1593555173365 .statediagram-note rect{fill:#fff5ad;stroke:#aa3;stroke-width:1px;rx:0;ry:0}:root{--mermaid-font-family: '"trebuchet ms", verdana, arial';--mermaid-font-family: "Comic Sans MS", "Comic Sans", cursive}

:root { --mermaid-font-family: "trebuchet ms", verdana, arial;}</style><style>#mermaid-1593555173365 {
    color: rgb(0, 0, 0);
    font: 16px "trebuchet ms", verdana, arial;
  }</style><g><defs><marker id="statediagram-barbEnd" refX="19" refY="7" markerWidth="20" markerHeight="14" markerUnits="0" orient="auto"><path d="M 19,7 L9,13 L14,7 L9,1 Z"></path></marker></defs><g class="root"><g class="clusters"><g class="note-cluster" id="0----parent"><rect x="8" y="72" width="620.09375" height="219" fill="none"></rect></g></g><g class="edgePaths"><path d="M318.046875,22L318.046875,26.166666666666668C318.046875,30.333333333333332,318.046875,38.666666666666664,318.046875,47C318.046875,55.333333333333336,318.046875,63.666666666666664,318.046875,72C318.046875,80.33333333333333,318.046875,88.66666666666667,318.046875,92.83333333333333L318.046875,97" id="edge0" class="transition" marker-end="url(#statediagram-barbEnd)"></path><path d="M318.046875,131L318.046875,136.75C318.046875,142.5,318.046875,154,318.046875,165.5C318.046875,177,318.046875,188.5,318.046875,194.25L318.046875,200" class="transition note-edge"></path><path d="M369.21966019417476,131L386.52810224514565,136.75C403.83654429611653,142.5,438.4534283980583,154,698.3731985740291,170.04824719780098C958.29296875,186.09649439560198,1443.515625,206.69298879120393,1686.126953125,216.99123598900493L1928.73828125,227.2894831868059" id="edge1" class="transition" marker-end="url(#statediagram-barbEnd)"></path><path d="M1928.73828125,238.5136701767945L1715.2975260416667,247.2613918139954C1501.8567708333333,256.00911345119636,1074.9752604166667,273.50455672559815,861.5345052083334,288.0022783627991C648.09375,302.5,648.09375,314,648.09375,330.5416666666667C648.09375,347.0833333333333,648.09375,368.6666666666667,648.09375,390.25C648.09375,411.8333333333333,648.09375,433.4166666666667,648.09375,452.7916666666667C648.09375,472.1666666666667,648.09375,489.3333333333333,648.09375,506.5C648.09375,523.6666666666666,648.09375,540.8333333333334,648.09375,558C648.09375,575.1666666666666,648.09375,592.3333333333334,648.09375,609.5C648.09375,626.6666666666666,648.09375,643.8333333333334,648.09375,663.2083333333334C648.09375,682.5833333333334,648.09375,704.1666666666666,648.09375,725.75C648.09375,747.3333333333334,648.09375,768.9166666666666,648.09375,790.5C648.09375,812.0833333333334,648.09375,833.6666666666666,648.09375,855.25C648.09375,876.8333333333334,648.09375,898.4166666666666,648.09375,920C648.09375,941.5833333333334,648.09375,963.1666666666666,648.09375,984.75C648.09375,1006.3333333333334,648.09375,1027.9166666666667,648.09375,1049.5C648.09375,1071.0833333333333,648.09375,1092.6666666666667,648.09375,1114.25C648.09375,1135.8333333333333,648.09375,1157.4166666666667,648.09375,1179C648.09375,1200.5833333333333,648.09375,1222.1666666666667,648.09375,1243.75C648.09375,1265.3333333333333,648.09375,1286.9166666666667,648.09375,1308.5C648.09375,1330.0833333333333,648.09375,1351.6666666666667,648.09375,1373.25C648.09375,1394.8333333333333,648.09375,1416.4166666666667,648.09375,1438C648.09375,1459.5833333333333,648.09375,1481.1666666666667,648.09375,1502.75C648.09375,1524.3333333333333,648.09375,1545.9166666666667,653.3421513030888,1562.4583333333333C658.5905526061775,1579,669.0873552123552,1590.5,674.335756515444,1596.25L679.5841578185328,1602" id="edge2" class="transition" marker-end="url(#statediagram-barbEnd)"></path><path d="M1940.21484375,396.57656609110734L1750.8209635416667,406.3138050759228C1561.4270833333333,416.0510440607382,1182.6393229166667,435.52552203036913,993.2454427083334,453.8460943485179C803.8515625,472.1666666666667,803.8515625,489.3333333333333,803.8515625,506.5C803.8515625,523.6666666666666,803.8515625,540.8333333333334,803.8515625,558C803.8515625,575.1666666666666,803.8515625,592.3333333333334,803.8515625,609.5C803.8515625,626.6666666666666,803.8515625,643.8333333333334,803.8515625,663.2083333333334C803.8515625,682.5833333333334,803.8515625,704.1666666666666,803.8515625,725.75C803.8515625,747.3333333333334,803.8515625,768.9166666666666,803.8515625,790.5C803.8515625,812.0833333333334,803.8515625,833.6666666666666,803.8515625,855.25C803.8515625,876.8333333333334,803.8515625,898.4166666666666,803.8515625,920C803.8515625,941.5833333333334,803.8515625,963.1666666666666,803.8515625,984.75C803.8515625,1006.3333333333334,803.8515625,1027.9166666666667,803.8515625,1049.5C803.8515625,1071.0833333333333,803.8515625,1092.6666666666667,803.8515625,1114.25C803.8515625,1135.8333333333333,803.8515625,1157.4166666666667,803.8515625,1179C803.8515625,1200.5833333333333,803.8515625,1222.1666666666667,803.8515625,1243.75C803.8515625,1265.3333333333333,803.8515625,1286.9166666666667,803.8515625,1308.5C803.8515625,1330.0833333333333,803.8515625,1351.6666666666667,803.8515625,1373.25C803.8515625,1394.8333333333333,803.8515625,1416.4166666666667,803.8515625,1438C803.8515625,1459.5833333333333,803.8515625,1481.1666666666667,803.8515625,1502.75C803.8515625,1524.3333333333333,803.8515625,1545.9166666666667,795.2681889478764,1562.4583333333333C786.6848153957529,1579,769.5180682915058,1590.5,760.9346947393823,1596.25L752.3513211872587,1602" id="edge3" class="transition" marker-end="url(#statediagram-barbEnd)"></path><path d="M1294.8671875,755.7577290058414L1276.2688802083333,761.5481075048679C1257.6705729166667,767.3384860038942,1220.4739583333333,778.9192430019472,1201.8756510416667,795.5012881676403C1183.27734375,812.0833333333334,1183.27734375,833.6666666666666,1183.27734375,855.25C1183.27734375,876.8333333333334,1183.27734375,898.4166666666666,1183.27734375,920C1183.27734375,941.5833333333334,1183.27734375,963.1666666666666,1183.27734375,984.75C1183.27734375,1006.3333333333334,1183.27734375,1027.9166666666667,1183.27734375,1049.5C1183.27734375,1071.0833333333333,1183.27734375,1092.6666666666667,1183.27734375,1114.25C1183.27734375,1135.8333333333333,1183.27734375,1157.4166666666667,1183.27734375,1179C1183.27734375,1200.5833333333333,1183.27734375,1222.1666666666667,1183.27734375,1243.75C1183.27734375,1265.3333333333333,1183.27734375,1286.9166666666667,1183.27734375,1308.5C1183.27734375,1330.0833333333333,1183.27734375,1351.6666666666667,1183.27734375,1373.25C1183.27734375,1394.8333333333333,1183.27734375,1416.4166666666667,1183.27734375,1438C1183.27734375,1459.5833333333333,1183.27734375,1481.1666666666667,1183.27734375,1502.75C1183.27734375,1524.3333333333333,1183.27734375,1545.9166666666667,1120.2350260416667,1565.282465108265C1057.1927083333333,1584.6482635498633,931.1080729166666,1601.7965270997263,868.0657552083334,1610.370658874658L805.0234375,1618.9447906495893" id="edge4" class="transition" marker-end="url(#statediagram-barbEnd)"></path><path d="M609.3671875,1652.4729690968497L573.4674479166666,1659.8941409140414C537.5677083333334,1667.3153127312332,465.7682291666667,1682.1576563656165,705.6276041666666,1699.8289102181516C945.4869791666666,1717.500164070687,1497.0052083333333,1738.0003281413744,1772.7643229166667,1748.2504101767179L2048.5234375,1758.5004922120615" id="edge5" class="transition" marker-end="url(#statediagram-barbEnd)"></path><path d="M2063.26953125,263.25L2063.26953125,267.875C2063.26953125,272.5,2063.26953125,281.75,2063.26953125,292.125C2063.26953125,302.5,2063.26953125,314,2063.26953125,325.5C2063.26953125,337,2063.26953125,348.5,2063.26953125,354.25L2063.26953125,360" id="edge6" class="transition" marker-end="url(#statediagram-barbEnd)"></path><path d="M1940.21484375,403.6564720303391L1861.669921875,412.21372669194926C1783.125,420.77098135355936,1626.03515625,437.8854906767797,1547.490234375,452.19274533838984C1468.9453125,466.5,1468.9453125,478,1468.9453125,483.75L1468.9453125,489.5" id="edge7" class="transition" marker-end="url(#statediagram-barbEnd)"></path><path d="M1127.7617566747572,626.5L1097.572948270631,632.25C1067.3841398665047,638,1007.0065230582524,649.5,976.8177146541262,666.0416666666666C946.62890625,682.5833333333334,946.62890625,704.1666666666666,946.62890625,725.75C946.62890625,747.3333333333334,946.62890625,768.9166666666666,946.62890625,790.5C946.62890625,812.0833333333334,946.62890625,833.6666666666666,946.62890625,855.25C946.62890625,876.8333333333334,946.62890625,898.4166666666666,946.62890625,920C946.62890625,941.5833333333334,946.62890625,963.1666666666666,946.62890625,984.75C946.62890625,1006.3333333333334,946.62890625,1027.9166666666667,946.62890625,1049.5C946.62890625,1071.0833333333333,946.62890625,1092.6666666666667,946.62890625,1114.25C946.62890625,1135.8333333333333,946.62890625,1157.4166666666667,946.62890625,1179C946.62890625,1200.5833333333333,946.62890625,1222.1666666666667,946.62890625,1243.75C946.62890625,1265.3333333333333,946.62890625,1286.9166666666667,946.62890625,1308.5C946.62890625,1330.0833333333333,946.62890625,1351.6666666666667,946.62890625,1373.25C946.62890625,1394.8333333333333,946.62890625,1416.4166666666667,946.62890625,1438C946.62890625,1459.5833333333333,946.62890625,1481.1666666666667,946.62890625,1502.75C946.62890625,1524.3333333333333,946.62890625,1545.9166666666667,946.62890625,1567.5C946.62890625,1589.0833333333333,946.62890625,1610.6666666666667,946.62890625,1632.25C946.62890625,1653.8333333333333,946.62890625,1675.4166666666667,1130.2779947916667,1696.2067479020577C1313.9270833333333,1716.9968291374487,1681.2252604166667,1736.9936582748976,1864.8743489583333,1746.9920728436218L2048.5234375,1756.9904874123463" id="edge8" class="transition" marker-end="url(#statediagram-barbEnd)"></path><path d="M1385.7840564320388,523.5L1357.655984526699,529.25C1329.5279126213593,535,1273.2717688106795,546.5,1245.1436969053398,558C1217.015625,569.5,1217.015625,581,1217.015625,586.75L1217.015625,592.5" id="edge9" class="transition" marker-end="url(#statediagram-barbEnd)"></path><path d="M1274.5298847087379,626.5L1293.9832372572816,632.25C1313.4365898058252,638,1352.3432949029127,649.5,1371.7966474514562,661C1391.25,672.5,1391.25,684,1391.25,689.75L1391.25,695.5" id="edge10" class="transition" marker-end="url(#statediagram-barbEnd)"></path><path d="M1364.3633415781853,756L1359.2526544401544,761.75C1354.1419673021235,767.5,1343.9205930260616,779,1338.809905888031,795.5416666666666C1333.69921875,812.0833333333334,1333.69921875,833.6666666666666,1333.69921875,855.25C1333.69921875,876.8333333333334,1333.69921875,898.4166666666666,1333.69921875,920C1333.69921875,941.5833333333334,1333.69921875,963.1666666666666,1333.69921875,984.75C1333.69921875,1006.3333333333334,1333.69921875,1027.9166666666667,1333.69921875,1049.5C1333.69921875,1071.0833333333333,1333.69921875,1092.6666666666667,1333.69921875,1114.25C1333.69921875,1135.8333333333333,1333.69921875,1157.4166666666667,1333.69921875,1179C1333.69921875,1200.5833333333333,1333.69921875,1222.1666666666667,1333.69921875,1243.75C1333.69921875,1265.3333333333333,1333.69921875,1286.9166666666667,1333.69921875,1308.5C1333.69921875,1330.0833333333333,1333.69921875,1351.6666666666667,1333.69921875,1373.25C1333.69921875,1394.8333333333333,1333.69921875,1416.4166666666667,1333.69921875,1438C1333.69921875,1459.5833333333333,1333.69921875,1481.1666666666667,1333.69921875,1502.75C1333.69921875,1524.3333333333333,1333.69921875,1545.9166666666667,1333.69921875,1567.5C1333.69921875,1589.0833333333333,1333.69921875,1610.6666666666667,1333.69921875,1632.25C1333.69921875,1653.8333333333333,1333.69921875,1675.4166666666667,1452.8365885416667,1695.8240170419965C1571.9739583333333,1716.2313674173263,1810.2486979166667,1735.462734834652,1929.3860677083333,1745.0784185433151L2048.5234375,1754.6941022519782" id="edge11" class="transition" marker-end="url(#statediagram-barbEnd)"></path><path d="M1574.5078125,509.55589931185307L1853.4153645833333,517.6299160932109C2132.3229166666665,525.7039328745687,2690.1380208333335,541.8519664372843,2969.0455729166665,558.5093165519755C3247.953125,575.1666666666666,3247.953125,592.3333333333334,3247.953125,609.5C3247.953125,626.6666666666666,3247.953125,643.8333333333334,3247.953125,663.2083333333334C3247.953125,682.5833333333334,3247.953125,704.1666666666666,3247.953125,725.75C3247.953125,747.3333333333334,3247.953125,768.9166666666666,3035.255859375,789.4820689492666C2822.55859375,810.0474712318666,2397.1640625,829.5949424637332,2184.466796875,839.3686780796664L1971.76953125,849.1424136955998" id="edge12" class="transition" marker-end="url(#statediagram-barbEnd)"></path><path d="M1456.0896778474903,756L1468.4145752895754,761.75C1480.7394727316603,767.5,1505.3892676158302,779,1547.0312223495819,790.8969514611821C1588.6731770833333,802.793902922364,1647.3072916666667,815.087805844728,1676.6243489583333,821.2347573059101L1705.94140625,827.381708767092" id="edge13" class="transition" marker-end="url(#statediagram-barbEnd)"></path><path d="M1705.94140625,884.771419000402L1679.5065104166667,890.6428491670017C1653.0716145833333,896.5142793336014,1600.2018229166667,908.2571396668008,1573.7669270833333,919.8785698334003C1547.33203125,931.5,1547.33203125,943,1547.33203125,948.75L1547.33203125,954.5" id="edge14" class="transition" marker-end="url(#statediagram-barbEnd)"></path><path d="M1971.76953125,861.4164077718815L2182.2265625,871.1803398099013C2392.68359375,880.944271847921,2813.59765625,900.4721359239605,3024.0546875,921.027734628647C3234.51171875,941.5833333333334,3234.51171875,963.1666666666666,3234.51171875,984.75C3234.51171875,1006.3333333333334,3234.51171875,1027.9166666666667,3018.5546875,1048.727432071606C2802.59765625,1069.5381974765455,2370.68359375,1089.576394953091,2154.7265625,1099.5954936913638L1938.76953125,1109.6145924296366" id="edge15" class="transition" marker-end="url(#statediagram-barbEnd)"></path><path d="M1547.33203125,1015L1547.33203125,1020.75C1547.33203125,1026.5,1547.33203125,1038,1579.2669270833333,1050.8430300594043C1611.2018229166667,1063.6860601188084,1675.0716145833333,1077.8721202376166,1707.0065104166667,1084.965150297021L1738.94140625,1092.058180356425" id="edge16" class="transition" marker-end="url(#statediagram-barbEnd)"></path><path d="M1838.85546875,1144.5L1838.85546875,1150.25C1838.85546875,1156,1838.85546875,1167.5,1838.85546875,1179C1838.85546875,1190.5,1838.85546875,1202,1838.85546875,1207.75L1838.85546875,1213.5" id="edge17" class="transition" marker-end="url(#statediagram-barbEnd)"></path><path d="M1726.69921875,1267.822589312305L1695.1126302083333,1274.6021577602542C1663.5260416666667,1281.3817262082032,1600.3528645833333,1294.9408631041017,1568.7662760416667,1312.5120982187175C1537.1796875,1330.0833333333333,1537.1796875,1351.6666666666667,1537.1796875,1373.25C1537.1796875,1394.8333333333333,1537.1796875,1416.4166666666667,1537.1796875,1438C1537.1796875,1459.5833333333333,1537.1796875,1481.1666666666667,1537.1796875,1502.75C1537.1796875,1524.3333333333333,1537.1796875,1545.9166666666667,1537.1796875,1567.5C1537.1796875,1589.0833333333333,1537.1796875,1610.6666666666667,1537.1796875,1632.25C1537.1796875,1653.8333333333333,1537.1796875,1675.4166666666667,1622.4036458333333,1695.4243789306126C1707.6276041666667,1715.432091194558,1878.0755208333333,1733.8641823891164,1963.2994791666667,1743.0802279863956L2048.5234375,1752.2962735836747" id="edge18" class="transition" marker-end="url(#statediagram-barbEnd)"></path><path d="M674.0290781853282,1662.5L667.7247526544402,1668.25C661.4204271235521,1674,648.8117760617761,1685.5,877.894169280888,1701.4126067240722C1106.9765625,1717.3252134481447,1577.75,1737.6504268962897,1813.13671875,1747.813033620362L2048.5234375,1757.9756403444342" id="edge19" class="transition" marker-end="url(#statediagram-barbEnd)"></path><path d="M2186.32421875,396.2580249186315L2386.8470052083335,406.0483540988596C2587.3697916666665,415.83868327908766,2988.4153645833335,435.4193416395438,3188.9381510416665,453.7930041531053C3389.4609375,472.1666666666667,3389.4609375,489.3333333333333,3389.4609375,506.5C3389.4609375,523.6666666666666,3389.4609375,540.8333333333334,3389.4609375,558C3389.4609375,575.1666666666666,3389.4609375,592.3333333333334,3389.4609375,609.5C3389.4609375,626.6666666666666,3389.4609375,643.8333333333334,3389.4609375,663.2083333333334C3389.4609375,682.5833333333334,3389.4609375,704.1666666666666,3389.4609375,725.75C3389.4609375,747.3333333333334,3389.4609375,768.9166666666666,3389.4609375,790.5C3389.4609375,812.0833333333334,3389.4609375,833.6666666666666,3389.4609375,855.25C3389.4609375,876.8333333333334,3389.4609375,898.4166666666666,3389.4609375,920C3389.4609375,941.5833333333334,3389.4609375,963.1666666666666,3389.4609375,984.75C3389.4609375,1006.3333333333334,3389.4609375,1027.9166666666667,3389.4609375,1049.5C3389.4609375,1071.0833333333333,3389.4609375,1092.6666666666667,3389.4609375,1114.25C3389.4609375,1135.8333333333333,3389.4609375,1157.4166666666667,3389.4609375,1179C3389.4609375,1200.5833333333333,3389.4609375,1222.1666666666667,3389.4609375,1243.75C3389.4609375,1265.3333333333333,3389.4609375,1286.9166666666667,3389.4609375,1308.5C3389.4609375,1330.0833333333333,3389.4609375,1351.6666666666667,3389.4609375,1373.25C3389.4609375,1394.8333333333333,3389.4609375,1416.4166666666667,3389.4609375,1438C3389.4609375,1459.5833333333333,3389.4609375,1481.1666666666667,3389.4609375,1502.75C3389.4609375,1524.3333333333333,3389.4609375,1545.9166666666667,3389.4609375,1567.5C3389.4609375,1589.0833333333333,3389.4609375,1610.6666666666667,3389.4609375,1632.25C3389.4609375,1653.8333333333333,3389.4609375,1675.4166666666667,3195.1119791666665,1696.2473745715176C3000.7630208333335,1717.0780824763685,2612.0651041666665,1737.1561649527368,2417.7161458333335,1747.1952061909212L2223.3671875,1757.2342474291056" id="edge20" class="transition" marker-end="url(#statediagram-barbEnd)"></path><path d="M1951.01171875,1272.0994769587362L1975.0130208333333,1278.1662307989468C1999.0143229166667,1284.2329846391574,2047.0169270833333,1296.3664923195786,2071.0182291666665,1308.1832461597894C2095.01953125,1320,2095.01953125,1331.5,2095.01953125,1337.25L2095.01953125,1343" id="edge21" class="transition" marker-end="url(#statediagram-barbEnd)"></path><path d="M1992.16796875,1388.7933058303324L1937.900390625,1396.994421525277C1883.6328125,1405.1955372202217,1775.09765625,1421.5977686101107,1720.830078125,1440.590550971722C1666.5625,1459.5833333333333,1666.5625,1481.1666666666667,1666.5625,1502.75C1666.5625,1524.3333333333333,1666.5625,1545.9166666666667,1666.5625,1567.5C1666.5625,1589.0833333333333,1666.5625,1610.6666666666667,1666.5625,1632.25C1666.5625,1653.8333333333333,1666.5625,1675.4166666666667,1730.22265625,1694.9900675754398C1793.8828125,1714.5634684842128,1921.203125,1732.126936968426,1984.86328125,1740.9086712105325L2048.5234375,1749.690405452639" id="edge22" class="transition" marker-end="url(#statediagram-barbEnd)"></path><path d="M2364.7109375,1521.5879076680949L2311.9140625,1529.2399230567455C2259.1171875,1536.8919384453966,2153.5234375,1552.1959692226983,2100.7265625,1570.6396512780157C2047.9296875,1589.0833333333333,2047.9296875,1610.6666666666667,2047.9296875,1632.25C2047.9296875,1653.8333333333333,2047.9296875,1675.4166666666667,2055.7457468629345,1691.9583333333333C2063.5618062258686,1708.5,2079.1939249517377,1720,2087.0099843146722,1725.75L2094.8260436776063,1731.5" id="edge23" class="transition" marker-end="url(#statediagram-barbEnd)"></path><path d="M2896.3046875,1645.2020816310128L2818.5442708333335,1653.8350680258438C2740.7838541666665,1662.4680544206751,2585.2630208333335,1679.7340272103374,2473.1067708333335,1695.9475238074413C2360.9505208333335,1712.1610204045453,2292.1588541666665,1727.3220408090908,2257.7630208333335,1734.9025510113634L2223.3671875,1742.4830612136361" id="edge24" class="transition" marker-end="url(#statediagram-barbEnd)"></path><path d="M2009.355604488417,1403.5L1993.0723787403474,1409.25C1976.789152992278,1415,1944.222701496139,1426.5,1927.9394757480695,1443.0416666666667C1911.65625,1459.5833333333333,1911.65625,1481.1666666666667,1911.65625,1502.75C1911.65625,1524.3333333333333,1911.65625,1545.9166666666667,1911.65625,1567.5C1911.65625,1589.0833333333333,1911.65625,1610.6666666666667,1911.65625,1632.25C1911.65625,1653.8333333333333,1911.65625,1675.4166666666667,1934.4674479166667,1692.7936970984708C1957.2786458333333,1710.1707275302751,2002.9010416666667,1723.3414550605503,2025.7122395833333,1729.9268188256876L2048.5234375,1736.5121825908252" id="edge25" class="transition" marker-end="url(#statediagram-barbEnd)"></path><path d="M2197.87109375,1389.9129282118947L2247.3404947916665,1397.927440176579C2296.8098958333335,1405.941952141263,2395.7486979166665,1421.9709760706317,2445.2180989583335,1435.735488035316C2494.6875,1449.5,2494.6875,1461,2494.6875,1466.75L2494.6875,1472.5" id="edge26" class="transition" marker-end="url(#statediagram-barbEnd)"></path><path d="M2404.163791023166,1533L2386.956805019305,1538.75C2369.7498190154442,1544.5,2335.335847007722,1556,2318.128861003861,1572.5416666666667C2300.921875,1589.0833333333333,2300.921875,1610.6666666666667,2300.921875,1632.25C2300.921875,1653.8333333333333,2300.921875,1675.4166666666667,2286.271446669884,1691.9583333333333C2271.6210183397684,1708.5,2242.320161679537,1720,2227.6697333494208,1725.75L2213.019305019305,1731.5" id="edge27" class="transition" marker-end="url(#statediagram-barbEnd)"></path><path d="M2624.6640625,1518.988253693096L2689.3815104166665,1527.0735447442469C2754.0989583333335,1535.1588357953976,2883.5338541666665,1551.3294178976987,2948.2513020833335,1565.1647089488495C3012.96875,1579,3012.96875,1590.5,3012.96875,1596.25L3012.96875,1602" id="edge28" class="transition" marker-end="url(#statediagram-barbEnd)"></path><path d="M2896.3046875,1654.5095826235095L2859.1888020833335,1661.5913188529246C2822.0729166666665,1668.6730550823395,2747.8411458333335,1682.8365275411697,2635.6848958333335,1698.955251632817C2523.5286458333335,1715.073975724464,2373.4479166666665,1733.147951448928,2298.4075520833335,1742.18493931116L2223.3671875,1751.2219271733918" id="edge29" class="transition" marker-end="url(#statediagram-barbEnd)"></path><path d="M2917.5177364864867,1662.5L2899.3741554054054,1668.25C2881.2305743243246,1674,2844.943412162162,1685.5,2826.7998310810813,1702.0416666666667C2808.65625,1718.5833333333333,2808.65625,1740.1666666666667,2808.65625,1761.75C2808.65625,1783.3333333333333,2808.65625,1804.9166666666667,2859.4134114583335,1822.346718499413C2910.1705729166665,1839.7767703321595,3011.6848958333335,1853.0535406643187,3062.4420572916665,1859.6919258303985L3113.19921875,1866.3303109964784" id="edge30" class="transition" marker-end="url(#statediagram-barbEnd)"></path><path d="M2986.4051037644786,1662.5L2981.3558156370655,1668.25C2976.3065275096524,1674,2966.207951254826,1685.5,2839.0349652107466,1700.8913751853509C2711.8619791666665,1716.282750370702,2467.6145833333335,1735.565500741404,2345.4908854166665,1745.206875926755L2223.3671875,1754.848251112106" id="edge31" class="transition" marker-end="url(#statediagram-barbEnd)"></path><path d="M3115.073449565637,1662.5L3134.4817808880307,1668.25C3153.890112210425,1674,3192.706774855212,1685.5,3044.0890645109394,1701.1805434725768C2895.4713541666665,1716.8610869451538,2559.4192708333335,1736.7221738903072,2391.3932291666665,1746.652717362884L2223.3671875,1756.5832608354608" id="edge32" class="transition" marker-end="url(#statediagram-barbEnd)"></path><path d="M2135.9453125,1792L2135.9453125,1797.75C2135.9453125,1803.5,2135.9453125,1815,2139.7161331917473,1826.5C2143.486953883495,1838,2151.0285952669906,1849.5,2154.799415958738,1855.25L2158.5702366504856,1861" id="edge33" class="transition" marker-end="url(#statediagram-barbEnd)"></path><path d="M740.3615468146718,1662.5L746.6658723455598,1668.25C752.9701978764479,1674,765.5788489382239,1685.5,771.883174469112,1702.0416666666667C778.1875,1718.5833333333333,778.1875,1740.1666666666667,778.1875,1761.75C778.1875,1783.3333333333333,778.1875,1804.9166666666667,998.7356770833334,1823.870730778444C1219.2838541666667,1842.8247948902215,1660.3802083333333,1859.1495897804427,1880.9283854166667,1867.3119872255536L2101.4765625,1875.474384670664" id="edge34" class="transition" marker-end="url(#statediagram-barbEnd)"></path><path d="M2197.80078125,237.89139857091783L2441.2473958333335,246.74283214243152C2684.6940104166665,255.59426571394522,3171.5872395833335,273.2971328569726,3415.0338541666665,287.8985664284863C3658.48046875,302.5,3658.48046875,314,3658.48046875,330.5416666666667C3658.48046875,347.0833333333333,3658.48046875,368.6666666666667,3658.48046875,390.25C3658.48046875,411.8333333333333,3658.48046875,433.4166666666667,3658.48046875,452.7916666666667C3658.48046875,472.1666666666667,3658.48046875,489.3333333333333,3658.48046875,506.5C3658.48046875,523.6666666666666,3658.48046875,540.8333333333334,3658.48046875,558C3658.48046875,575.1666666666666,3658.48046875,592.3333333333334,3658.48046875,609.5C3658.48046875,626.6666666666666,3658.48046875,643.8333333333334,3658.48046875,663.2083333333334C3658.48046875,682.5833333333334,3658.48046875,704.1666666666666,3658.48046875,725.75C3658.48046875,747.3333333333334,3658.48046875,768.9166666666666,3658.48046875,790.5C3658.48046875,812.0833333333334,3658.48046875,833.6666666666666,3658.48046875,855.25C3658.48046875,876.8333333333334,3658.48046875,898.4166666666666,3658.48046875,920C3658.48046875,941.5833333333334,3658.48046875,963.1666666666666,3658.48046875,984.75C3658.48046875,1006.3333333333334,3658.48046875,1027.9166666666667,3658.48046875,1049.5C3658.48046875,1071.0833333333333,3658.48046875,1092.6666666666667,3658.48046875,1114.25C3658.48046875,1135.8333333333333,3658.48046875,1157.4166666666667,3658.48046875,1179C3658.48046875,1200.5833333333333,3658.48046875,1222.1666666666667,3658.48046875,1243.75C3658.48046875,1265.3333333333333,3658.48046875,1286.9166666666667,3658.48046875,1308.5C3658.48046875,1330.0833333333333,3658.48046875,1351.6666666666667,3658.48046875,1373.25C3658.48046875,1394.8333333333333,3658.48046875,1416.4166666666667,3658.48046875,1438C3658.48046875,1459.5833333333333,3658.48046875,1481.1666666666667,3658.48046875,1502.75C3658.48046875,1524.3333333333333,3658.48046875,1545.9166666666667,3658.48046875,1567.5C3658.48046875,1589.0833333333333,3658.48046875,1610.6666666666667,3658.48046875,1632.25C3658.48046875,1653.8333333333333,3658.48046875,1675.4166666666667,3658.48046875,1697C3658.48046875,1718.5833333333333,3658.48046875,1740.1666666666667,3658.48046875,1761.75C3658.48046875,1783.3333333333333,3658.48046875,1804.9166666666667,3421.7272135416665,1823.898221943222C3184.9739583333335,1842.8797772197777,2711.4674479166665,1859.2595544395554,2474.7141927083335,1867.4494430494442L2237.9609375,1875.639331659333" id="edge35" class="transition" marker-end="url(#statediagram-barbEnd)"></path><path d="M2186.32421875,395.67700071570533L2410.5110677083335,405.56416726308777C2634.6979166666665,415.45133381047026,3083.0716145833335,435.22566690523513,3307.2584635416665,453.6961667859509C3531.4453125,472.1666666666667,3531.4453125,489.3333333333333,3531.4453125,506.5C3531.4453125,523.6666666666666,3531.4453125,540.8333333333334,3531.4453125,558C3531.4453125,575.1666666666666,3531.4453125,592.3333333333334,3531.4453125,609.5C3531.4453125,626.6666666666666,3531.4453125,643.8333333333334,3531.4453125,663.2083333333334C3531.4453125,682.5833333333334,3531.4453125,704.1666666666666,3531.4453125,725.75C3531.4453125,747.3333333333334,3531.4453125,768.9166666666666,3531.4453125,790.5C3531.4453125,812.0833333333334,3531.4453125,833.6666666666666,3531.4453125,855.25C3531.4453125,876.8333333333334,3531.4453125,898.4166666666666,3531.4453125,920C3531.4453125,941.5833333333334,3531.4453125,963.1666666666666,3531.4453125,984.75C3531.4453125,1006.3333333333334,3531.4453125,1027.9166666666667,3531.4453125,1049.5C3531.4453125,1071.0833333333333,3531.4453125,1092.6666666666667,3531.4453125,1114.25C3531.4453125,1135.8333333333333,3531.4453125,1157.4166666666667,3531.4453125,1179C3531.4453125,1200.5833333333333,3531.4453125,1222.1666666666667,3531.4453125,1243.75C3531.4453125,1265.3333333333333,3531.4453125,1286.9166666666667,3531.4453125,1308.5C3531.4453125,1330.0833333333333,3531.4453125,1351.6666666666667,3531.4453125,1373.25C3531.4453125,1394.8333333333333,3531.4453125,1416.4166666666667,3531.4453125,1438C3531.4453125,1459.5833333333333,3531.4453125,1481.1666666666667,3531.4453125,1502.75C3531.4453125,1524.3333333333333,3531.4453125,1545.9166666666667,3531.4453125,1567.5C3531.4453125,1589.0833333333333,3531.4453125,1610.6666666666667,3531.4453125,1632.25C3531.4453125,1653.8333333333333,3531.4453125,1675.4166666666667,3531.4453125,1697C3531.4453125,1718.5833333333333,3531.4453125,1740.1666666666667,3531.4453125,1761.75C3531.4453125,1783.3333333333333,3531.4453125,1804.9166666666667,3315.8645833333335,1823.8615175759176C3100.2838541666665,1842.8063684851684,2669.1223958333335,1859.1127369703365,2453.5416666666665,1867.2659212129208L2237.9609375,1875.4191054555051" id="edge36" class="transition" marker-end="url(#statediagram-barbEnd)"></path><path d="M2169.71875,1895L2169.71875,1899.1666666666667C2169.71875,1903.3333333333333,2169.71875,1911.6666666666667,2231.9500705124606,1921.0688604059108C2294.1813910249207,1930.4710541451548,2418.644032049842,1940.9421082903093,2480.875352562302,1946.1776353628868L2543.1066730747625,1951.4131624354643" id="edge37" class="transition" marker-end="url(#statediagram-barbEnd)"></path><path d="M3202.42578125,1895L3202.42578125,1899.1666666666667C3202.42578125,1903.3333333333333,3202.42578125,1911.6666666666667,3094.867088445613,1921.1095058570072C2987.308395641225,1930.5523450473477,2772.1910100324512,1941.1046900946956,2664.632317228064,1946.3808626183693L2557.073624423677,1951.6570351420432" id="edge38" class="transition" marker-end="url(#statediagram-barbEnd)"></path></g><g class="edgeLabels"><g class="edgeLabel"><g class="label" transform="translate(0, 0)"><rect rx="0" ry="0" width="0" height="0" style="fill:#e8e8e8;"></rect><text style=""></text></g></g><g class="edgeLabel"><g class="label" transform="translate(0, 0)"><rect rx="0" ry="0" width="0" height="0" style="fill:#e8e8e8;"></rect><text style=""></text></g></g><g class="edgeLabel" transform="translate(473.0703125, 165.5)"><g class="label" transform="translate(-68.6875, -9.5)"><rect rx="0" ry="0" width="137.296875" height="19.03125" style="fill:#e8e8e8;"></rect><text style=""><tspan xml:space="preserve" dy="1em" x="0" class="row">ProviderEventOpen</tspan></text></g></g><g class="edgeLabel" transform="translate(648.09375, 920)"><g class="label" transform="translate(-98.203125, -9.5)"><rect rx="0" ry="0" width="196.296875" height="19.03125" style="fill:#e8e8e8;"></rect><text style=""><tspan xml:space="preserve" dy="1em" x="0" class="row">ProviderEventDealRejected</tspan></text></g></g><g class="edgeLabel" transform="translate(803.8515625, 984.75)"><g class="label" transform="translate(-98.203125, -9.5)"><rect rx="0" ry="0" width="196.296875" height="19.03125" style="fill:#e8e8e8;"></rect><text style=""><tspan xml:space="preserve" dy="1em" x="0" class="row">ProviderEventDealRejected</tspan></text></g></g><g class="edgeLabel" transform="translate(1183.27734375, 1179)"><g class="label" transform="translate(-98.203125, -9.5)"><rect rx="0" ry="0" width="196.296875" height="19.03125" style="fill:#e8e8e8;"></rect><text style=""><tspan xml:space="preserve" dy="1em" x="0" class="row">ProviderEventDealRejected</tspan></text></g></g><g class="edgeLabel" transform="translate(393.96875, 1697)"><g class="label" transform="translate(-100.25, -9.5)"><rect rx="0" ry="0" width="200.390625" height="19.03125" style="fill:#e8e8e8;"></rect><text style=""><tspan xml:space="preserve" dy="1em" x="0" class="row">ProviderEventRejectionSent</tspan></text></g></g><g class="edgeLabel" transform="translate(2063.26953125, 325.5)"><g class="label" transform="translate(-96.5703125, -9.5)"><rect rx="0" ry="0" width="193.03125" height="19.03125" style="fill:#e8e8e8;"></rect><text style=""><tspan xml:space="preserve" dy="1em" x="0" class="row">ProviderEventDealDeciding</tspan></text></g></g><g class="edgeLabel" transform="translate(1468.9453125, 455)"><g class="label" transform="translate(-104.03125, -9.5)"><rect rx="0" ry="0" width="207.9375" height="19.03125" style="fill:#e8e8e8;"></rect><text style=""><tspan xml:space="preserve" dy="1em" x="0" class="row">ProviderEventDataRequested</tspan></text></g></g><g class="edgeLabel" transform="translate(946.62890625, 1179)"><g class="label" transform="translate(-118.4453125, -9.5)"><rect rx="0" ry="0" width="236.75" height="19.03125" style="fill:#e8e8e8;"></rect><text style=""><tspan xml:space="preserve" dy="1em" x="0" class="row">ProviderEventDataTransferFailed</tspan></text></g></g><g class="edgeLabel" transform="translate(1217.015625, 558)"><g class="label" transform="translate(-127.109375, -9.5)"><rect rx="0" ry="0" width="254.0625" height="19.03125" style="fill:#e8e8e8;"></rect><text style=""><tspan xml:space="preserve" dy="1em" x="0" class="row">ProviderEventDataTransferInitiated</tspan></text></g></g><g class="edgeLabel" transform="translate(1391.25, 661)"><g class="label" transform="translate(-135.4765625, -9.5)"><rect rx="0" ry="0" width="270.78125" height="19.03125" style="fill:#e8e8e8;"></rect><text style=""><tspan xml:space="preserve" dy="1em" x="0" class="row">ProviderEventDataTransferCompleted</tspan></text></g></g><g class="edgeLabel" transform="translate(1333.69921875, 1243.75)"><g class="label" transform="translate(-130.421875, -9.5)"><rect rx="0" ry="0" width="260.6875" height="19.03125" style="fill:#e8e8e8;"></rect><text style=""><tspan xml:space="preserve" dy="1em" x="0" class="row">ProviderEventDataVerificationFailed</tspan></text></g></g><g class="edgeLabel" transform="translate(3247.953125, 661)"><g class="label" transform="translate(-95.1015625, -9.5)"><rect rx="0" ry="0" width="190.078125" height="19.03125" style="fill:#e8e8e8;"></rect><text style=""><tspan xml:space="preserve" dy="1em" x="0" class="row">ProviderEventVerifiedData</tspan></text></g></g><g class="edgeLabel" transform="translate(1530.0390625, 790.5)"><g class="label" transform="translate(-95.1015625, -9.5)"><rect rx="0" ry="0" width="190.078125" height="19.03125" style="fill:#e8e8e8;"></rect><text style=""><tspan xml:space="preserve" dy="1em" x="0" class="row">ProviderEventVerifiedData</tspan></text></g></g><g class="edgeLabel" transform="translate(1547.33203125, 920)"><g class="label" transform="translate(-108.6953125, -9.5)"><rect rx="0" ry="0" width="217.265625" height="19.03125" style="fill:#e8e8e8;"></rect><text style=""><tspan xml:space="preserve" dy="1em" x="0" class="row">ProviderEventFundingInitiated</tspan></text></g></g><g class="edgeLabel" transform="translate(3234.51171875, 984.75)"><g class="label" transform="translate(-76.3203125, -9.5)"><rect rx="0" ry="0" width="152.546875" height="19.03125" style="fill:#e8e8e8;"></rect><text style=""><tspan xml:space="preserve" dy="1em" x="0" class="row">ProviderEventFunded</tspan></text></g></g><g class="edgeLabel" transform="translate(1547.33203125, 1049.5)"><g class="label" transform="translate(-76.3203125, -9.5)"><rect rx="0" ry="0" width="152.546875" height="19.03125" style="fill:#e8e8e8;"></rect><text style=""><tspan xml:space="preserve" dy="1em" x="0" class="row">ProviderEventFunded</tspan></text></g></g><g class="edgeLabel" transform="translate(1838.85546875, 1179)"><g class="label" transform="translate(-122, -9.5)"><rect rx="0" ry="0" width="243.859375" height="19.03125" style="fill:#e8e8e8;"></rect><text style=""><tspan xml:space="preserve" dy="1em" x="0" class="row">ProviderEventDealPublishInitiated</tspan></text></g></g><g class="edgeLabel" transform="translate(1537.1796875, 1502.75)"><g class="label" transform="translate(-109.3828125, -9.5)"><rect rx="0" ry="0" width="218.625" height="19.03125" style="fill:#e8e8e8;"></rect><text style=""><tspan xml:space="preserve" dy="1em" x="0" class="row">ProviderEventDealPublishError</tspan></text></g></g><g class="edgeLabel" transform="translate(636.203125, 1697)"><g class="label" transform="translate(-121.984375, -9.5)"><rect rx="0" ry="0" width="243.828125" height="19.03125" style="fill:#e8e8e8;"></rect><text style=""><tspan xml:space="preserve" dy="1em" x="0" class="row">ProviderEventSendResponseFailed</tspan></text></g></g><g class="edgeLabel" transform="translate(3389.4609375, 1049.5)"><g class="label" transform="translate(-121.984375, -9.5)"><rect rx="0" ry="0" width="243.828125" height="19.03125" style="fill:#e8e8e8;"></rect><text style=""><tspan xml:space="preserve" dy="1em" x="0" class="row">ProviderEventSendResponseFailed</tspan></text></g></g><g class="edgeLabel" transform="translate(2095.01953125, 1308.5)"><g class="label" transform="translate(-100.296875, -9.5)"><rect rx="0" ry="0" width="200.46875" height="19.03125" style="fill:#e8e8e8;"></rect><text style=""><tspan xml:space="preserve" dy="1em" x="0" class="row">ProviderEventDealPublished</tspan></text></g></g><g class="edgeLabel" transform="translate(1666.5625, 1567.5)"><g class="label" transform="translate(-108.8203125, -9.5)"><rect rx="0" ry="0" width="217.5" height="19.03125" style="fill:#e8e8e8;"></rect><text style=""><tspan xml:space="preserve" dy="1em" x="0" class="row">ProviderEventFileStoreErrored</tspan></text></g></g><g class="edgeLabel" transform="translate(2047.9296875, 1632.25)"><g class="label" transform="translate(-108.8203125, -9.5)"><rect rx="0" ry="0" width="217.5" height="19.03125" style="fill:#e8e8e8;"></rect><text style=""><tspan xml:space="preserve" dy="1em" x="0" class="row">ProviderEventFileStoreErrored</tspan></text></g></g><g class="edgeLabel" transform="translate(2429.7421875, 1697)"><g class="label" transform="translate(-108.8203125, -9.5)"><rect rx="0" ry="0" width="217.5" height="19.03125" style="fill:#e8e8e8;"></rect><text style=""><tspan xml:space="preserve" dy="1em" x="0" class="row">ProviderEventFileStoreErrored</tspan></text></g></g><g class="edgeLabel" transform="translate(1911.65625, 1567.5)"><g class="label" transform="translate(-116.2734375, -9.5)"><rect rx="0" ry="0" width="232.40625" height="19.03125" style="fill:#e8e8e8;"></rect><text style=""><tspan xml:space="preserve" dy="1em" x="0" class="row">ProviderEventDealHandoffFailed</tspan></text></g></g><g class="edgeLabel" transform="translate(2494.6875, 1438)"><g class="label" transform="translate(-104.3671875, -9.5)"><rect rx="0" ry="0" width="208.609375" height="19.03125" style="fill:#e8e8e8;"></rect><text style=""><tspan xml:space="preserve" dy="1em" x="0" class="row">ProviderEventDealHandedOff</tspan></text></g></g><g class="edgeLabel" transform="translate(2300.921875, 1632.25)"><g class="label" transform="translate(-124.171875, -9.5)"><rect rx="0" ry="0" width="248.1875" height="19.03125" style="fill:#e8e8e8;"></rect><text style=""><tspan xml:space="preserve" dy="1em" x="0" class="row">ProviderEventDealActivationFailed</tspan></text></g></g><g class="edgeLabel" transform="translate(3012.96875, 1567.5)"><g class="label" transform="translate(-100.1796875, -9.5)"><rect rx="0" ry="0" width="200.25" height="19.03125" style="fill:#e8e8e8;"></rect><text style=""><tspan xml:space="preserve" dy="1em" x="0" class="row">ProviderEventDealActivated</tspan></text></g></g><g class="edgeLabel" transform="translate(2673.609375, 1697)"><g class="label" transform="translate(-115.046875, -9.5)"><rect rx="0" ry="0" width="229.953125" height="19.03125" style="fill:#e8e8e8;"></rect><text style=""><tspan xml:space="preserve" dy="1em" x="0" class="row">ProviderEventPieceStoreErrored</tspan></text></g></g><g class="edgeLabel" transform="translate(2808.65625, 1761.75)"><g class="label" transform="translate(-104.828125, -9.5)"><rect rx="0" ry="0" width="209.53125" height="19.03125" style="fill:#e8e8e8;"></rect><text style=""><tspan xml:space="preserve" dy="1em" x="0" class="row">ProviderEventDealCompleted</tspan></text></g></g><g class="edgeLabel" transform="translate(2956.109375, 1697)"><g class="label" transform="translate(-127.453125, -9.5)"><rect rx="0" ry="0" width="254.75" height="19.03125" style="fill:#e8e8e8;"></rect><text style=""><tspan xml:space="preserve" dy="1em" x="0" class="row">ProviderEventUnableToLocatePiece</tspan></text></g></g><g class="edgeLabel" transform="translate(3231.5234375, 1697)"><g class="label" transform="translate(-127.9609375, -9.5)"><rect rx="0" ry="0" width="255.765625" height="19.03125" style="fill:#e8e8e8;"></rect><text style=""><tspan xml:space="preserve" dy="1em" x="0" class="row">ProviderEventReadMetadataErrored</tspan></text></g></g><g class="edgeLabel" transform="translate(2135.9453125, 1826.5)"><g class="label" transform="translate(-71.96875, -9.5)"><rect rx="0" ry="0" width="143.84375" height="19.03125" style="fill:#e8e8e8;"></rect><text style=""><tspan xml:space="preserve" dy="1em" x="0" class="row">ProviderEventFailed</tspan></text></g></g><g class="edgeLabel" transform="translate(778.1875, 1761.75)"><g class="label" transform="translate(-76.015625, -9.5)"><rect rx="0" ry="0" width="151.9375" height="19.03125" style="fill:#e8e8e8;"></rect><text style=""><tspan xml:space="preserve" dy="1em" x="0" class="row">ProviderEventRestart</tspan></text></g></g><g class="edgeLabel" transform="translate(3658.48046875, 1049.5)"><g class="label" transform="translate(-76.015625, -9.5)"><rect rx="0" ry="0" width="151.9375" height="19.03125" style="fill:#e8e8e8;"></rect><text style=""><tspan xml:space="preserve" dy="1em" x="0" class="row">ProviderEventRestart</tspan></text></g></g><g class="edgeLabel" transform="translate(3531.4453125, 1114.25)"><g class="label" transform="translate(-76.015625, -9.5)"><rect rx="0" ry="0" width="151.9375" height="19.03125" style="fill:#e8e8e8;"></rect><text style=""><tspan xml:space="preserve" dy="1em" x="0" class="row">ProviderEventRestart</tspan></text></g></g><g class="edgeLabel"><g class="label" transform="translate(0, 0)"><rect rx="0" ry="0" width="0" height="0" style="fill:#e8e8e8;"></rect><text style=""></text></g></g><g class="edgeLabel"><g class="label" transform="translate(0, 0)"><rect rx="0" ry="0" width="0" height="0" style="fill:#e8e8e8;"></rect><text style=""></text></g></g></g><g class="nodes"><g class="node statediagram-state" id="0" transform="translate(318.046875, 114)"><rect class="outer title-state" x="-82.921875" y="-17" width="165.84375" height="34"></rect><line class="divider" x1="-82.921875" x2="82.921875" y1="9.5" y2="9.5"></line><g class="label" transform="translate(-75.421875, -14)"><text style=""><tspan xml:space="preserve" dy="1em" x="0" class="title-row">StorageDealUnknown</tspan></text><text style="" transform="translate( 0, 26.5)"><tspan xml:space="preserve" dy="1em" x="0" class="title-row"></tspan></text></g></g><g class="node statediagram-state" id="4" transform="translate(2095.01953125, 1373.25)"><rect class="outer title-state" x="-102.8515625" y="-30.25" width="205.703125" height="60.5"></rect><line class="divider" x1="-102.8515625" x2="102.8515625" y1="-3.75" y2="-3.75"></line><g class="label" transform="translate(-95.3515625, -27.25)"><text style=""><tspan xml:space="preserve" dy="1em" x="0" class="title-row">StorageDealStaged</tspan></text><text style="" transform="translate( 0, 26.5)"><tspan xml:space="preserve" dy="1em" x="0" class="title-row">On entry runs HandoffDeal</tspan></text></g></g><g class="node statediagram-state" id="5" transform="translate(2494.6875, 1502.75)"><rect class="outer title-state" x="-129.9765625" y="-30.25" width="259.953125" height="60.5"></rect><line class="divider" x1="-129.9765625" x2="129.9765625" y1="-3.75" y2="-3.75"></line><g class="label" transform="translate(-122.4765625, -27.25)"><text style=""><tspan xml:space="preserve" dy="1em" x="0" class="title-row">StorageDealSealing</tspan></text><text style="" transform="translate( 0, 26.5)"><tspan xml:space="preserve" dy="1em" x="0" class="title-row">On entry runs VerifyDealActivated</tspan></text></g></g><g class="node statediagram-state" id="6" transform="translate(3012.96875, 1632.25)"><rect class="outer title-state" x="-116.6640625" y="-30.25" width="233.328125" height="60.5"></rect><line class="divider" x1="-116.6640625" x2="116.6640625" y1="-3.75" y2="-3.75"></line><g class="label" transform="translate(-109.1640625, -27.25)"><text style=""><tspan xml:space="preserve" dy="1em" x="0" class="title-row">StorageDealActive</tspan></text><text style="" transform="translate( 0, 26.5)"><tspan xml:space="preserve" dy="1em" x="0" class="title-row">On entry runs RecordPieceInfo</tspan></text></g></g><g class="node statediagram-state" id="9" transform="translate(707.1953125, 1632.25)"><rect class="outer title-state" x="-97.828125" y="-30.25" width="195.65625" height="60.5"></rect><line class="divider" x1="-97.828125" x2="97.828125" y1="-3.75" y2="-3.75"></line><g class="label" transform="translate(-90.328125, -27.25)"><text style=""><tspan xml:space="preserve" dy="1em" x="0" class="title-row">StorageDealRejecting</tspan></text><text style="" transform="translate( 0, 26.5)"><tspan xml:space="preserve" dy="1em" x="0" class="title-row">On entry runs RejectDeal</tspan></text></g></g><g class="node statediagram-state" id="10" transform="translate(2135.9453125, 1761.75)"><rect class="outer title-state" x="-87.421875" y="-30.25" width="174.84375" height="60.5"></rect><line class="divider" x1="-87.421875" x2="87.421875" y1="-3.75" y2="-3.75"></line><g class="label" transform="translate(-79.921875, -27.25)"><text style=""><tspan xml:space="preserve" dy="1em" x="0" class="title-row">StorageDealFailing</tspan></text><text style="" transform="translate( 0, 26.5)"><tspan xml:space="preserve" dy="1em" x="0" class="title-row">On entry runs FailDeal</tspan></text></g></g><g class="node statediagram-state" id="13" transform="translate(2063.26953125, 233)"><rect class="outer title-state" x="-134.53125" y="-30.25" width="269.0625" height="60.5"></rect><line class="divider" x1="-134.53125" x2="134.53125" y1="-3.75" y2="-3.75"></line><g class="label" transform="translate(-127.03125, -27.25)"><text style=""><tspan xml:space="preserve" dy="1em" x="0" class="title-row">StorageDealValidating</tspan></text><text style="" transform="translate( 0, 26.5)"><tspan xml:space="preserve" dy="1em" x="0" class="title-row">On entry runs ValidateDealProposal</tspan></text></g></g><g class="node statediagram-state" id="14" transform="translate(2063.26953125, 390.25)"><rect class="outer title-state" x="-123.0546875" y="-30.25" width="246.109375" height="60.5"></rect><line class="divider" x1="-123.0546875" x2="123.0546875" y1="-3.75" y2="-3.75"></line><g class="label" transform="translate(-115.5546875, -27.25)"><text style=""><tspan xml:space="preserve" dy="1em" x="0" class="title-row">StorageDealAcceptWait</tspan></text><text style="" transform="translate( 0, 26.5)"><tspan xml:space="preserve" dy="1em" x="0" class="title-row">On entry runs DecideOnProposal</tspan></text></g></g><g class="node statediagram-state" id="16" transform="translate(1217.015625, 609.5)"><rect class="outer title-state" x="-94.109375" y="-17" width="188.21875" height="34"></rect><line class="divider" x1="-94.109375" x2="94.109375" y1="9.5" y2="9.5"></line><g class="label" transform="translate(-86.609375, -14)"><text style=""><tspan xml:space="preserve" dy="1em" x="0" class="title-row">StorageDealTransferring</tspan></text><text style="" transform="translate( 0, 26.5)"><tspan xml:space="preserve" dy="1em" x="0" class="title-row"></tspan></text></g></g><g class="node statediagram-state" id="17" transform="translate(1468.9453125, 506.5)"><rect class="outer title-state" x="-105.5625" y="-17" width="211.125" height="34"></rect><line class="divider" x1="-105.5625" x2="105.5625" y1="9.5" y2="9.5"></line><g class="label" transform="translate(-98.0625, -14)"><text style=""><tspan xml:space="preserve" dy="1em" x="0" class="title-row">StorageDealWaitingForData</tspan></text><text style="" transform="translate( 0, 26.5)"><tspan xml:space="preserve" dy="1em" x="0" class="title-row"></tspan></text></g></g><g class="node statediagram-state" id="18" transform="translate(1391.25, 725.75)"><rect class="outer title-state" x="-96.3828125" y="-30.25" width="192.765625" height="60.5"></rect><line class="divider" x1="-96.3828125" x2="96.3828125" y1="-3.75" y2="-3.75"></line><g class="label" transform="translate(-88.8828125, -27.25)"><text style=""><tspan xml:space="preserve" dy="1em" x="0" class="title-row">StorageDealVerifyData</tspan></text><text style="" transform="translate( 0, 26.5)"><tspan xml:space="preserve" dy="1em" x="0" class="title-row">On entry runs VerifyData</tspan></text></g></g><g class="node statediagram-state" id="19" transform="translate(1838.85546875, 855.25)"><rect class="outer title-state" x="-132.9140625" y="-30.25" width="265.828125" height="60.5"></rect><line class="divider" x1="-132.9140625" x2="132.9140625" y1="-3.75" y2="-3.75"></line><g class="label" transform="translate(-125.4140625, -27.25)"><text style=""><tspan xml:space="preserve" dy="1em" x="0" class="title-row">StorageDealEnsureProviderFunds</tspan></text><text style="" transform="translate( 0, 26.5)"><tspan xml:space="preserve" dy="1em" x="0" class="title-row">On entry runs EnsureProviderFunds</tspan></text></g></g><g class="node statediagram-state" id="21" transform="translate(1547.33203125, 984.75)"><rect class="outer title-state" x="-114.6875" y="-30.25" width="229.375" height="60.5"></rect><line class="divider" x1="-114.6875" x2="114.6875" y1="-3.75" y2="-3.75"></line><g class="label" transform="translate(-107.1875, -27.25)"><text style=""><tspan xml:space="preserve" dy="1em" x="0" class="title-row">StorageDealProviderFunding</tspan></text><text style="" transform="translate( 0, 26.5)"><tspan xml:space="preserve" dy="1em" x="0" class="title-row">On entry runs WaitForFunding</tspan></text></g></g><g class="node statediagram-state" id="23" transform="translate(1838.85546875, 1114.25)"><rect class="outer title-state" x="-99.9140625" y="-30.25" width="199.828125" height="60.5"></rect><line class="divider" x1="-99.9140625" x2="99.9140625" y1="-3.75" y2="-3.75"></line><g class="label" transform="translate(-92.4140625, -27.25)"><text style=""><tspan xml:space="preserve" dy="1em" x="0" class="title-row">StorageDealPublish</tspan></text><text style="" transform="translate( 0, 26.5)"><tspan xml:space="preserve" dy="1em" x="0" class="title-row">On entry runs PublishDeal</tspan></text></g></g><g class="node statediagram-state" id="24" transform="translate(1838.85546875, 1243.75)"><rect class="outer title-state" x="-112.15625" y="-30.25" width="224.3125" height="60.5"></rect><line class="divider" x1="-112.15625" x2="112.15625" y1="-3.75" y2="-3.75"></line><g class="label" transform="translate(-104.65625, -27.25)"><text style=""><tspan xml:space="preserve" dy="1em" x="0" class="title-row">StorageDealPublishing</tspan></text><text style="" transform="translate( 0, 26.5)"><tspan xml:space="preserve" dy="1em" x="0" class="title-row">On entry runs WaitForPublish</tspan></text></g></g><g class="node statediagram-state" id="25" transform="translate(2169.71875, 1878)"><rect class="outer title-state" x="-68.2421875" y="-17" width="136.484375" height="34"></rect><line class="divider" x1="-68.2421875" x2="68.2421875" y1="9.5" y2="9.5"></line><g class="label" transform="translate(-60.7421875, -14)"><text style=""><tspan xml:space="preserve" dy="1em" x="0" class="title-row">StorageDealError</tspan></text><text style="" transform="translate( 0, 26.5)"><tspan xml:space="preserve" dy="1em" x="0" class="title-row"></tspan></text></g></g><g class="node statediagram-state" id="26" transform="translate(3202.42578125, 1878)"><rect class="outer title-state" x="-89.2265625" y="-17" width="178.453125" height="34"></rect><line class="divider" x1="-89.2265625" x2="89.2265625" y1="9.5" y2="9.5"></line><g class="label" transform="translate(-81.7265625, -14)"><text style=""><tspan xml:space="preserve" dy="1em" x="0" class="title-row">StorageDealCompleted</tspan></text><text style="" transform="translate( 0, 26.5)"><tspan xml:space="preserve" dy="1em" x="0" class="title-row"></tspan></text></g></g><g class="node default" id="root_start" transform="translate(318.046875, 15)"><circle class="state-start" r="7" width="14" height="14"></circle></g><g class="node statediagram-note" id="0----note" transform="translate(318.046875, 233)"><rect x="-275.046875" y="-33" width="550.09375" height="66"></rect><g class="label" transform="translate(-267.546875, -25.5)"><text style=""><tspan xml:space="preserve" dy="1em" x="0" class="row">The following events are not shown cause they can trigger from any state.</tspan><tspan xml:space="preserve" dy="1em" x="0" class="row"></tspan><tspan xml:space="preserve" dy="1em" x="0" class="row">ProviderEventNodeErrored - transitions state to StorageDealFailing</tspan><tspan xml:space="preserve" dy="1em" x="0" class="row">ProviderEventRestart - does not transition state</tspan></text></g></g><g class="node default" id="root_end" transform="translate(2550.08203125, 1952)"><circle class="state-start" r="7" width="14" height="14"></circle><circle class="state-end" r="5" width="10" height="10"></circle></g></g></g></g></svg>